# school_id SD0089
# school_name 济南市历城第五中学
# boundary_source footprint_convex_hull_buffer_20m
# adjacent_block_merge_distance_m 2.0
mtllib ../campus_materials.mtl
o SD0089_campus_boundary
usemtl campus_boundary
v 78.786 -154.119 0.050
v 26.015 -152.060 0.050
v -90.962 6.887 0.050
v -105.843 105.848 0.050
v 5.501 126.256 0.050
v 60.815 45.811 0.050
v 67.441 16.518 0.050
v 80.319 -101.689 0.050
v 78.786 -154.119 0.050
l 1 2 3 4 5 6 7 8 9 1
o SD0089_T001_1hao
v 13.091 32.375 0.000
v -7.397 28.993 0.000
v -71.920 14.755 0.000
v -71.580 34.409 0.000
v -20.367 46.613 0.000
v -20.706 55.765 0.000
v -16.618 55.765 0.000
v -22.420 84.926 0.000
v -80.793 74.071 0.000
v -83.185 89.668 0.000
v -3.638 104.248 0.000
v 13.091 32.375 19.900
v -7.397 28.993 19.900
v -71.920 14.755 19.900
v -71.580 34.409 19.900
v -20.367 46.613 19.900
v -20.706 55.765 19.900
v -16.618 55.765 19.900
v -22.420 84.926 19.900
v -80.793 74.071 19.900
v -83.185 89.668 19.900
v -3.638 104.248 19.900
usemtl roof
f 21 22 23 24 25 26 27 28 29 30 31
usemtl teaching_building
f 20 19 18 17 16 15 14 13 12 11 10
f 10 11 22 21
f 11 12 23 22
f 12 13 24 23
f 13 14 25 24
f 14 15 26 25
f 15 16 27 26
f 16 17 28 27
f 17 18 29 28
f 18 19 30 29
f 19 20 31 30
f 20 10 21 31
o SD0089_T001_1hao_seg02
v 2.182 3.071 0.000
v -3.344 27.500 0.000
v 42.156 37.648 0.000
v 47.682 13.218 0.000
v 2.182 3.071 19.900
v -3.344 27.500 19.900
v 42.156 37.648 19.900
v 47.682 13.218 19.900
usemtl roof
f 36 37 38 39
usemtl teaching_building
f 35 34 33 32
f 32 33 37 36
f 33 34 38 37
f 34 35 39 38
f 35 32 36 39
o SD0089_T002_2hao
v 59.385 -133.347 0.000
v 36.416 -132.451 0.000
v 35.961 -116.357 0.000
v 52.627 -115.903 0.000
v 52.181 -102.484 0.000
v 60.287 -102.484 0.000
v 59.385 -133.347 28.310
v 36.416 -132.451 28.310
v 35.961 -116.357 28.310
v 52.627 -115.903 28.310
v 52.181 -102.484 28.310
v 60.287 -102.484 28.310
usemtl roof
f 46 47 48 49 50 51
usemtl teaching_building
f 45 44 43 42 41 40
f 40 41 47 46
f 41 42 48 47
f 42 43 49 48
f 43 44 50 49
f 44 45 51 50
f 45 40 46 51
