# school_id SD0003
# school_name 义轩学校
# boundary_source footprint_convex_hull_buffer_20m
# adjacent_block_merge_distance_m 2.0
mtllib ../campus_materials.mtl
o SD0003_campus_boundary
usemtl campus_boundary
v -67.810 -130.052 0.050
v -134.106 106.906 0.050
v 78.762 129.273 0.050
v 122.726 -106.082 0.050
v -67.810 -130.052 0.050
l 1 2 3 4 5 1
o SD0003_T001_1hao
v -53.196 -108.056 0.000
v 99.168 -88.888 0.000
v 62.492 107.453 0.000
v -108.465 89.490 0.000
v -53.196 -108.056 26.450
v 99.168 -88.888 26.450
v 62.492 107.453 26.450
v -108.465 89.490 26.450
usemtl roof
f 10 11 12 13
usemtl teaching_building
f 9 8 7 6
f 6 7 11 10
f 7 8 12 11
f 8 9 13 12
f 9 6 10 13
