# school_id SD0006
# school_name 凤城初级中学
# boundary_source footprint_convex_hull_buffer_20m
# adjacent_block_merge_distance_m 2.0
mtllib ../campus_materials.mtl
o SD0006_campus_boundary
usemtl campus_boundary
v -24.485 -40.720 0.050
v -100.517 -39.995 0.050
v -113.396 -22.946 0.050
v -125.173 16.670 0.050
v -124.328 52.900 0.050
v 4.355 55.125 0.050
v 117.872 55.125 0.050
v 125.512 23.058 0.050
v 114.745 -20.542 0.050
v 102.098 -33.112 0.050
v 89.562 -40.720 0.050
v -24.485 -40.720 0.050
l 1 2 3 4 5 6 7 8 9 10 11 12 1
o SD0006_T001_1hao
v 4.528 35.125 0.000
v 102.077 35.125 0.000
v 104.932 23.142 0.000
v 85.548 21.882 0.000
v 85.548 -7.157 0.000
v 94.445 -6.206 0.000
v 96.672 -10.307 0.000
v 90.953 -11.567 0.000
v 89.687 -17.249 0.000
v 83.968 -20.720 0.000
v 21.048 -18.509 0.000
v -24.390 -20.720 0.000
v -81.268 -18.509 0.000
v -90.488 -20.090 0.000
v -91.117 -12.518 0.000
v -95.256 -13.778 0.000
v -95.570 -5.885 0.000
v -85.397 -3.995 0.000
v -86.035 19.351 0.000
v -105.105 19.351 0.000
v -104.781 33.235 0.000
v 4.528 35.125 24.430
v 102.077 35.125 24.430
v 104.932 23.142 24.430
v 85.548 21.882 24.430
v 85.548 -7.157 24.430
v 94.445 -6.206 24.430
v 96.672 -10.307 24.430
v 90.953 -11.567 24.430
v 89.687 -17.249 24.430
v 83.968 -20.720 24.430
v 21.048 -18.509 24.430
v -24.390 -20.720 24.430
v -81.268 -18.509 24.430
v -90.488 -20.090 24.430
v -91.117 -12.518 24.430
v -95.256 -13.778 24.430
v -95.570 -5.885 24.430
v -85.397 -3.995 24.430
v -86.035 19.351 24.430
v -105.105 19.351 24.430
v -104.781 33.235 24.430
usemtl roof
f 34 35 36 37 38 39 40 41 42 43 44 45 46 47 48 49 50 51 52 53 54
usemtl teaching_building
f 33 32 31 30 29 28 27 26 25 24 23 22 21 20 19 18 17 16 15 14 13
f 13 14 35 34
f 14 15 36 35
f 15 16 37 36
f 16 17 38 37
f 17 18 39 38
f 18 19 40 39
f 19 20 41 40
f 20 21 42 41
f 21 22 43 42
f 22 23 44 43
f 23 24 45 44
f 24 25 46 45
f 25 26 47 46
f 26 27 48 47
f 27 28 49 48
f 28 29 50 49
f 29 30 51 50
f 30 31 52 51
f 31 32 53 52
f 32 33 54 53
f 33 13 34 54
