# school_id SD0042
# school_name 山东省济南中学（唐冶校区）
# boundary_source footprint_convex_hull_buffer_20m
# adjacent_block_merge_distance_m 2.0
mtllib ../campus_materials.mtl
o SD0042_campus_boundary
usemtl campus_boundary
v 54.416 -77.528 0.050
v -63.212 -70.540 0.050
v -61.084 -34.690 0.050
v -56.547 41.678 0.050
v -54.416 77.528 0.050
v 63.212 70.540 0.050
v 61.084 34.690 0.050
v 56.547 -41.678 0.050
v 54.416 -77.528 0.050
l 1 2 3 4 5 6 7 8 9 1
o SD0042_T001_1hao
v 35.638 -56.377 0.000
v -42.062 -51.761 0.000
v -41.119 -35.875 0.000
v -41.118 -35.875 0.000
v -36.582 40.492 0.000
v -36.582 40.492 0.000
v -35.638 56.377 0.000
v 42.062 51.761 0.000
v 41.119 35.875 0.000
v -20.697 39.548 0.000
v -22.493 9.307 0.000
v 33.495 5.981 0.000
v 32.551 -9.905 0.000
v -23.437 -6.579 0.000
v -25.233 -36.819 0.000
v 36.582 -40.492 0.000
v 35.638 -56.377 22.310
v -42.062 -51.761 22.310
v -41.119 -35.875 22.310
v -41.118 -35.875 22.310
v -36.582 40.492 22.310
v -36.582 40.492 22.310
v -35.638 56.377 22.310
v 42.062 51.761 22.310
v 41.119 35.875 22.310
v -20.697 39.548 22.310
v -22.493 9.307 22.310
v 33.495 5.981 22.310
v 32.551 -9.905 22.310
v -23.437 -6.579 22.310
v -25.233 -36.819 22.310
v 36.582 -40.492 22.310
usemtl roof
f 26 27 28 29 30 31 32 33 34 35 36 37 38 39 40 41
usemtl teaching_building
f 25 24 23 22 21 20 19 18 17 16 15 14 13 12 11 10
f 10 11 27 26
f 11 12 28 27
f 12 13 29 28
f 13 14 30 29
f 14 15 31 30
f 15 16 32 31
f 16 17 33 32
f 17 18 34 33
f 18 19 35 34
f 19 20 36 35
f 20 21 37 36
f 21 22 38 37
f 22 23 39 38
f 23 24 40 39
f 24 25 41 40
f 25 10 26 41
