# school_id SD0040
# school_name 山东省文化艺术学校(解放路校区)
# boundary_source footprint_convex_hull_buffer_20m
# adjacent_block_merge_distance_m 2.0
mtllib ../campus_materials.mtl
o SD0040_campus_boundary
usemtl campus_boundary
v -79.147 -81.308 0.050
v -123.417 67.889 0.050
v -125.098 94.527 0.050
v -64.019 143.440 0.050
v 10.422 148.051 0.050
v 123.950 30.138 0.050
v 133.437 19.778 0.050
v 134.620 -69.884 0.050
v 98.035 -73.284 0.050
v -44.110 -79.772 0.050
v -79.147 -81.308 0.050
l 1 2 3 4 5 6 7 8 9 10 11 1
o SD0040_T001_1hao
v 2.429 127.518 0.000
v 3.313 113.490 0.000
v -55.585 109.853 0.000
v -56.461 123.870 0.000
v 2.429 127.518 17.950
v 3.313 113.490 17.950
v -55.585 109.853 17.950
v -56.461 123.870 17.950
usemtl roof
f 16 17 18 19
usemtl teaching_building
f 15 14 13 12
f 12 13 17 16
f 13 14 18 17
f 14 15 19 18
f 15 12 16 19
o SD0040_T002_2hao
v -45.584 89.061 0.000
v -44.700 75.044 0.000
v -103.599 71.408 0.000
v -104.483 85.413 0.000
v -45.584 89.061 14.210
v -44.700 75.044 14.210
v -103.599 71.408 14.210
v -104.483 85.413 14.210
usemtl roof
f 24 25 26 27
usemtl teaching_building
f 23 22 21 20
f 20 21 25 24
f 21 22 26 25
f 22 23 27 26
f 23 20 24 27
o SD0040_T003_3hao
v 3.626 75.188 0.000
v 4.510 61.172 0.000
v -54.389 57.535 0.000
v -55.264 71.540 0.000
v 3.626 75.188 15.380
v 4.510 61.172 15.380
v -54.389 57.535 15.380
v -55.264 71.540 15.380
usemtl roof
f 32 33 34 35
usemtl teaching_building
f 31 30 29 28
f 28 29 33 32
f 29 30 34 33
f 30 31 35 34
f 31 28 32 35
o SD0040_T004_4hao
v 75.803 31.967 0.000
v 81.018 27.623 0.000
v 82.982 -16.748 0.000
v 32.736 -18.948 0.000
v 30.557 29.988 0.000
v 75.803 31.967 27.600
v 81.018 27.623 27.600
v 82.982 -16.748 27.600
v 32.736 -18.948 27.600
v 30.557 29.988 27.600
usemtl roof
f 41 42 43 44 45
usemtl teaching_building
f 40 39 38 37 36
f 36 37 42 41
f 37 38 43 42
f 38 39 44 43
f 39 40 45 44
f 40 36 41 45
o SD0040_T005_5hao
v 29.013 2.298 0.000
v 29.941 -9.032 0.000
v -0.651 -11.519 0.000
v -1.589 -0.189 0.000
v 29.013 2.298 41.030
v 29.941 -9.032 41.030
v -0.651 -11.519 41.030
v -1.589 -0.189 41.030
usemtl roof
f 50 51 52 53
usemtl teaching_building
f 49 48 47 46
f 46 47 51 50
f 47 48 52 51
f 48 49 53 52
f 49 46 50 53
o SD0040_T006_6hao
v 109.369 16.447 0.000
v 113.539 11.893 0.000
v 114.378 -51.679 0.000
v 96.653 -53.326 0.000
v 89.983 -49.811 0.000
v 89.983 -43.388 0.000
v 66.624 -43.388 0.000
v 65.588 -22.275 0.000
v 85.599 -22.275 0.000
v 91.019 -16.063 0.000
v 89.769 14.789 0.000
v 109.369 16.447 17.700
v 113.539 11.893 17.700
v 114.378 -51.679 17.700
v 96.653 -53.326 17.700
v 89.983 -49.811 17.700
v 89.983 -43.388 17.700
v 66.624 -43.388 17.700
v 65.588 -22.275 17.700
v 85.599 -22.275 17.700
v 91.019 -16.063 17.700
v 89.769 14.789 17.700
usemtl roof
f 65 66 67 68 69 70 71 72 73 74 75
usemtl teaching_building
f 64 63 62 61 60 59 58 57 56 55 54
f 54 55 66 65
f 55 56 67 66
f 56 57 68 67
f 57 58 69 68
f 58 59 70 69
f 59 60 71 70
f 60 61 72 71
f 61 62 73 72
f 62 63 74 73
f 63 64 75 74
f 64 54 65 75
o SD0040_T007_7hao
v -53.380 -28.112 0.000
v -53.782 -19.102 0.000
v -28.529 -17.997 0.000
v -28.842 -11.022 0.000
v -5.107 -9.530 0.000
v -4.500 -18.693 0.000
v -26.091 -20.429 0.000
v -25.725 -28.708 0.000
v -51.665 -29.836 0.000
v -51.290 -38.292 0.000
v -70.703 -39.143 0.000
v -71.158 -28.885 0.000
v -53.380 -28.112 17.520
v -53.782 -19.102 17.520
v -28.529 -17.997 17.520
v -28.842 -11.022 17.520
v -5.107 -9.530 17.520
v -4.500 -18.693 17.520
v -26.091 -20.429 17.520
v -25.725 -28.708 17.520
v -51.665 -29.836 17.520
v -51.290 -38.292 17.520
v -70.703 -39.143 17.520
v -71.158 -28.885 17.520
usemtl roof
f 88 89 90 91 92 93 94 95 96 97 98 99
usemtl teaching_building
f 87 86 85 84 83 82 81 80 79 78 77 76
f 76 77 89 88
f 77 78 90 89
f 78 79 91 90
f 79 80 92 91
f 80 81 93 92
f 81 82 94 93
f 82 83 95 94
f 83 84 96 95
f 84 85 97 96
f 85 86 98 97
f 86 87 99 98
f 87 76 88 99
o SD0040_T008_8hao
v -47.093 -49.600 0.000
v -47.495 -40.603 0.000
v -22.252 -39.497 0.000
v -22.555 -32.522 0.000
v 1.179 -31.019 0.000
v 1.778 -40.194 0.000
v -19.805 -41.929 0.000
v -19.439 -50.197 0.000
v -45.379 -51.325 0.000
v -45.004 -59.792 0.000
v -64.417 -60.643 0.000
v -64.872 -50.385 0.000
v -47.093 -49.600 17.490
v -47.495 -40.603 17.490
v -22.252 -39.497 17.490
v -22.555 -32.522 17.490
v 1.179 -31.019 17.490
v 1.778 -40.194 17.490
v -19.805 -41.929 17.490
v -19.439 -50.197 17.490
v -45.379 -51.325 17.490
v -45.004 -59.792 17.490
v -64.417 -60.643 17.490
v -64.872 -50.385 17.490
usemtl roof
f 112 113 114 115 116 117 118 119 120 121 122 123
usemtl teaching_building
f 111 110 109 108 107 106 105 104 103 102 101 100
f 100 101 113 112
f 101 102 114 113
f 102 103 115 114
f 103 104 116 115
f 104 105 117 116
f 105 106 118 117
f 106 107 119 118
f 107 108 120 119
f 108 109 121 120
f 109 110 122 121
f 110 111 123 122
f 111 100 112 123
