# school_id SD0037
# school_name 山东省实验初级中学（济南八中）
# boundary_source footprint_convex_hull_buffer_20m
# adjacent_block_merge_distance_m 2.0
mtllib ../campus_materials.mtl
o SD0037_campus_boundary
usemtl campus_boundary
v -45.948 -56.411 0.050
v -55.402 -1.643 0.050
v 3.021 68.755 0.050
v 36.176 74.388 0.050
v 53.356 -25.212 0.050
v -4.901 -49.419 0.050
v -45.948 -56.411 0.050
l 1 2 3 4 5 6 7 1
o SD0037_T001_1hao
v 19.858 51.329 0.000
v 30.932 -12.872 0.000
v -12.193 -20.212 0.000
v -10.488 -30.083 0.000
v -29.634 -33.344 0.000
v -34.126 -7.323 0.000
v 21.974 2.227 0.000
v 13.678 50.279 0.000
v 19.858 51.329 17.330
v 30.932 -12.872 17.330
v -12.193 -20.212 17.330
v -10.488 -30.083 17.330
v -29.634 -33.344 17.330
v -34.126 -7.323 17.330
v 21.974 2.227 17.330
v 13.678 50.279 17.330
usemtl roof
f 16 17 18 19 20 21 22 23
usemtl teaching_building
f 15 14 13 12 11 10 9 8
f 8 9 17 16
f 9 10 18 17
f 10 11 19 18
f 11 12 20 19
f 12 13 21 20
f 13 14 22 21
f 14 15 23 22
f 15 8 16 23
