# school_id SD0084
# school_name 济南市历城区唐冶中学
# boundary_source footprint_convex_hull_buffer_20m
# adjacent_block_merge_distance_m 2.0
mtllib ../campus_materials.mtl
o SD0084_campus_boundary
usemtl campus_boundary
v 51.672 -65.117 0.050
v -54.135 -63.087 0.050
v -53.411 -25.370 0.050
v -52.398 27.402 0.050
v -51.672 65.117 0.050
v -13.958 64.393 0.050
v 54.135 63.087 0.050
v 53.411 25.370 0.050
v 52.398 -27.402 0.050
v 51.672 -65.117 0.050
l 1 2 3 4 5 6 7 8 9 10 1
o SD0084_T001_1hao
v 32.061 -44.737 0.000
v -33.755 -43.474 0.000
v -33.415 -25.754 0.000
v -33.415 -25.754 0.000
v -32.401 27.018 0.000
v -32.402 27.018 0.000
v -32.061 44.737 0.000
v -14.342 44.397 0.000
v -14.342 44.397 0.000
v 33.755 43.474 0.000
v 33.415 25.754 0.000
v -14.682 26.678 0.000
v -15.018 9.152 0.000
v 28.142 8.323 0.000
v 27.802 -9.397 0.000
v -15.359 -8.568 0.000
v -15.695 -26.094 0.000
v 32.402 -27.018 0.000
v 32.061 -44.737 14.330
v -33.755 -43.474 14.330
v -33.415 -25.754 14.330
v -33.415 -25.754 14.330
v -32.401 27.018 14.330
v -32.402 27.018 14.330
v -32.061 44.737 14.330
v -14.342 44.397 14.330
v -14.342 44.397 14.330
v 33.755 43.474 14.330
v 33.415 25.754 14.330
v -14.682 26.678 14.330
v -15.018 9.152 14.330
v 28.142 8.323 14.330
v 27.802 -9.397 14.330
v -15.359 -8.568 14.330
v -15.695 -26.094 14.330
v 32.402 -27.018 14.330
usemtl roof
f 29 30 31 32 33 34 35 36 37 38 39 40 41 42 43 44 45 46
usemtl teaching_building
f 28 27 26 25 24 23 22 21 20 19 18 17 16 15 14 13 12 11
f 11 12 30 29
f 12 13 31 30
f 13 14 32 31
f 14 15 33 32
f 15 16 34 33
f 16 17 35 34
f 17 18 36 35
f 18 19 37 36
f 19 20 38 37
f 20 21 39 38
f 21 22 40 39
f 22 23 41 40
f 23 24 42 41
f 24 25 43 42
f 25 26 44 43
f 26 27 45 44
f 27 28 46 45
f 28 11 29 46
