# school_id SD0005
# school_name 凤凰路小学东校区
# boundary_source footprint_convex_hull_buffer_20m
# adjacent_block_merge_distance_m 2.0
mtllib ../campus_materials.mtl
o SD0005_campus_boundary
usemtl campus_boundary
v -9.935 -103.896 0.050
v -89.935 -75.396 0.050
v -48.135 40.333 0.050
v 11.693 63.122 0.050
v 66.932 43.450 0.050
v 53.536 6.359 0.050
v -9.935 -103.896 0.050
l 1 2 3 4 5 6 7 1
o SD0005_T001_1hao
v 35.324 14.810 0.000
v 41.297 31.349 0.000
v 11.926 41.809 0.000
v 5.953 25.271 0.000
v 35.324 14.810 9.900
v 41.297 31.349 9.900
v 11.926 41.809 9.900
v 5.953 25.271 9.900
usemtl roof
f 12 13 14 15
usemtl teaching_building
f 11 10 9 8
f 8 9 13 12
f 9 10 14 13
f 10 11 15 14
f 11 8 12 15
o SD0005_T002_2hao
v -18.943 -79.456 0.000
v 12.915 8.741 0.000
v -32.441 24.909 0.000
v -64.300 -63.297 0.000
v -18.943 -79.456 9.900
v 12.915 8.741 9.900
v -32.441 24.909 9.900
v -64.300 -63.297 9.900
usemtl roof
f 20 21 22 23
usemtl teaching_building
f 19 18 17 16
f 16 17 21 20
f 17 18 22 21
f 18 19 23 22
f 19 16 20 23
