# school_id SD0086
# school_name 济南市历城区文博学校
# boundary_source footprint_convex_hull_buffer_20m
# adjacent_block_merge_distance_m 2.0
mtllib ../campus_materials.mtl
o SD0086_campus_boundary
usemtl campus_boundary
v -112.991 -123.228 0.050
v -119.715 34.927 0.050
v -14.072 129.734 0.050
v 170.300 131.430 0.050
v 165.331 -119.876 0.050
v -112.991 -123.228 0.050
l 1 2 3 4 5 6 1
o SD0086_T001_1hao
v -6.335 109.804 0.000
v 149.897 111.241 0.000
v 145.718 -100.111 0.000
v -93.833 -102.996 0.000
v -92.378 -69.834 0.000
v -99.332 26.346 0.000
v -3.737 25.551 0.000
v -6.335 109.804 15.110
v 149.897 111.241 15.110
v 145.718 -100.111 15.110
v -93.833 -102.996 15.110
v -92.378 -69.834 15.110
v -99.332 26.346 15.110
v -3.737 25.551 15.110
usemtl roof
f 14 15 16 17 18 19 20
usemtl teaching_building
f 13 12 11 10 9 8 7
f 7 8 15 14
f 8 9 16 15
f 9 10 17 16
f 10 11 18 17
f 11 12 19 18
f 12 13 20 19
f 13 7 14 20
