# school_id SD0028
# school_name 山东师范大学附属中学
# boundary_source footprint_convex_hull_buffer_20m
# adjacent_block_merge_distance_m 2.0
mtllib ../campus_materials.mtl
o SD0028_campus_boundary
usemtl campus_boundary
v -69.097 -61.644 0.050
v -71.328 -28.385 0.050
v -44.515 76.148 0.050
v -7.206 77.890 0.050
v 55.366 22.505 0.050
v 56.975 3.367 0.050
v 59.734 -49.651 0.050
v 20.569 -55.728 0.050
v -69.097 -61.644 0.050
l 1 2 3 4 5 6 7 8 9 1
o SD0028_T001_1hao
v -27.788 35.105 0.000
v -13.357 35.779 0.000
v -14.383 57.533 0.000
v -28.815 56.859 0.000
v -27.788 35.105 13.850
v -13.357 35.779 13.850
v -14.383 57.533 13.850
v -28.815 56.859 13.850
usemtl roof
f 14 15 16 17
usemtl teaching_building
f 13 12 11 10
f 10 11 15 14
f 11 12 16 15
f 12 13 17 16
f 13 10 14 17
o SD0028_T002_2hao
v 16.810 -18.220 0.000
v 17.310 -25.725 0.000
v -51.158 -30.247 0.000
v -50.479 -40.372 0.000
v 18.373 -35.829 0.000
v 18.248 -34.016 0.000
v 38.823 -32.656 0.000
v 37.760 -16.838 0.000
v 16.810 -18.220 29.050
v 17.310 -25.725 29.050
v -51.158 -30.247 29.050
v -50.479 -40.372 29.050
v 18.373 -35.829 29.050
v 18.248 -34.016 29.050
v 38.823 -32.656 29.050
v 37.760 -16.838 29.050
usemtl roof
f 26 27 28 29 30 31 32 33
usemtl teaching_building
f 25 24 23 22 21 20 19 18
f 18 19 27 26
f 19 20 28 27
f 20 21 29 28
f 21 22 30 29
f 22 23 31 30
f 23 24 32 31
f 24 25 33 32
f 25 18 26 33
