# school_id SD0050
# school_name 山东省济钢高级中学
# boundary_source footprint_convex_hull_buffer_20m
# adjacent_block_merge_distance_m 2.0
mtllib ../campus_materials.mtl
o SD0050_campus_boundary
usemtl campus_boundary
v -155.089 -134.985 0.050
v -153.234 -87.744 0.050
v -81.913 114.116 0.050
v 48.397 112.827 0.050
v 131.648 -50.898 0.050
v 60.166 -87.371 0.050
v -75.397 -134.985 0.050
v -155.089 -134.985 0.050
l 1 2 3 4 5 6 7 8 1
o SD0050_T001_1hao
v -34.825 73.509 0.000
v -34.825 69.404 0.000
v 6.943 69.404 0.000
v 7.452 72.731 0.000
v 36.322 72.481 0.000
v 36.068 92.948 0.000
v -67.817 93.976 0.000
v -67.817 74.269 0.000
v -34.825 73.509 9.900
v -34.825 69.404 9.900
v 6.943 69.404 9.900
v 7.452 72.731 9.900
v 36.322 72.481 9.900
v 36.068 92.948 9.900
v -67.817 93.976 9.900
v -67.817 74.269 9.900
usemtl roof
f 17 18 19 20 21 22 23 24
usemtl teaching_building
f 16 15 14 13 12 11 10 9
f 9 10 18 17
f 10 11 19 18
f 11 12 20 19
f 12 13 21 20
f 13 14 22 21
f 14 15 23 22
f 15 16 24 23
f 16 9 17 24
o SD0050_T002_2hao
v 52.272 -68.946 0.000
v 104.768 -42.160 0.000
v 75.973 13.581 0.000
v 49.721 -0.901 0.000
v 57.749 -16.458 0.000
v 72.689 -7.776 0.000
v 86.170 -32.023 0.000
v 45.345 -51.573 0.000
v 52.272 -68.946 9.900
v 104.768 -42.160 9.900
v 75.973 13.581 9.900
v 49.721 -0.901 9.900
v 57.749 -16.458 9.900
v 72.689 -7.776 9.900
v 86.170 -32.023 9.900
v 45.345 -51.573 9.900
usemtl roof
f 33 34 35 36 37 38 39 40
usemtl teaching_building
f 32 31 30 29 28 27 26 25
f 25 26 34 33
f 26 27 35 34
f 27 28 36 35
f 28 29 37 36
f 29 30 38 37
f 30 31 39 38
f 31 32 40 39
f 32 25 33 40
o SD0050_T003_3hao
v -78.807 -114.985 0.000
v -79.727 -90.942 0.000
v -133.368 -91.553 0.000
v -134.288 -114.985 0.000
v -78.807 -114.985 9.900
v -79.727 -90.942 9.900
v -133.368 -91.553 9.900
v -134.288 -114.985 9.900
usemtl roof
f 45 46 47 48
usemtl teaching_building
f 44 43 42 41
f 41 42 46 45
f 42 43 47 46
f 43 44 48 47
f 44 41 45 48
