# school_id SD0015
# school_name 历城二中礼轩小学（南校区）
# boundary_source footprint_convex_hull_buffer_20m
# adjacent_block_merge_distance_m 2.0
mtllib ../campus_materials.mtl
o SD0015_campus_boundary
usemtl campus_boundary
v 57.527 -56.769 0.050
v -63.670 -49.780 0.050
v -61.649 -14.725 0.050
v -57.527 56.769 0.050
v -22.471 54.748 0.050
v 63.670 49.780 0.050
v 61.649 14.725 0.050
v 57.527 -56.769 0.050
l 1 2 3 4 5 6 7 8 1
o SD0015_T001_1hao
v 38.711 -35.651 0.000
v -42.552 -30.965 0.000
v -41.682 -15.876 0.000
v -41.682 -15.876 0.000
v -38.711 35.651 0.000
v -23.622 34.781 0.000
v -23.622 34.781 0.000
v 42.552 30.965 0.000
v 41.682 15.876 0.000
v -24.492 19.692 0.000
v -25.108 9.017 0.000
v 34.972 5.553 0.000
v 34.102 -9.536 0.000
v -25.978 -6.072 0.000
v -26.593 -16.746 0.000
v 39.581 -20.562 0.000
v 38.711 -35.651 17.260
v -42.552 -30.965 17.260
v -41.682 -15.876 17.260
v -41.682 -15.876 17.260
v -38.711 35.651 17.260
v -23.622 34.781 17.260
v -23.622 34.781 17.260
v 42.552 30.965 17.260
v 41.682 15.876 17.260
v -24.492 19.692 17.260
v -25.108 9.017 17.260
v 34.972 5.553 17.260
v 34.102 -9.536 17.260
v -25.978 -6.072 17.260
v -26.593 -16.746 17.260
v 39.581 -20.562 17.260
usemtl roof
f 25 26 27 28 29 30 31 32 33 34 35 36 37 38 39 40
usemtl teaching_building
f 24 23 22 21 20 19 18 17 16 15 14 13 12 11 10 9
f 9 10 26 25
f 10 11 27 26
f 11 12 28 27
f 12 13 29 28
f 13 14 30 29
f 14 15 31 30
f 15 16 32 31
f 16 17 33 32
f 17 18 34 33
f 18 19 35 34
f 19 20 36 35
f 20 21 37 36
f 21 22 38 37
f 22 23 39 38
f 23 24 40 39
f 24 9 25 40
