# school_id SD0091
# school_name 济南市德兴街小学
# boundary_source footprint_convex_hull_buffer_20m
# adjacent_block_merge_distance_m 2.0
mtllib ../campus_materials.mtl
o SD0091_campus_boundary
usemtl campus_boundary
v -35.426 -49.052 0.050
v -40.015 41.844 0.050
v 42.294 45.925 0.050
v 44.734 -2.698 0.050
v 3.855 -47.106 0.050
v -35.426 -49.052 0.050
l 1 2 3 4 5 6 1
o SD0091_T001_1hao
v -6.858 3.128 0.000
v 24.339 4.676 0.000
v 23.321 24.960 0.000
v -19.031 22.860 0.000
v -16.459 -28.088 0.000
v -5.313 -27.536 0.000
v -6.858 3.128 30.020
v 24.339 4.676 30.020
v 23.321 24.960 30.020
v -19.031 22.860 30.020
v -16.459 -28.088 30.020
v -5.313 -27.536 30.020
usemtl roof
f 13 14 15 16 17 18
usemtl teaching_building
f 12 11 10 9 8 7
f 7 8 14 13
f 8 9 15 14
f 9 10 16 15
f 10 11 17 16
f 11 12 18 17
f 12 7 13 18
