# school_id SD0085
# school_name 济南市历城区实验小学
# boundary_source footprint_convex_hull_buffer_20m
# adjacent_block_merge_distance_m 2.0
mtllib ../campus_materials.mtl
o SD0085_campus_boundary
usemtl campus_boundary
v 125.096 -138.289 0.050
v -213.022 30.885 0.050
v -220.092 144.801 0.050
v -148.813 150.195 0.050
v 310.061 -83.526 0.050
v 311.408 -134.238 0.050
v 211.033 -136.893 0.050
v 125.096 -138.289 0.050
l 1 2 3 4 5 6 7 8 1
o SD0085_T001_1hao
v -198.908 126.347 0.000
v -152.894 129.829 0.000
v -150.787 102.393 0.000
v -196.801 98.900 0.000
v -198.908 126.347 25.190
v -152.894 129.829 25.190
v -150.787 102.393 25.190
v -196.801 98.900 25.190
usemtl roof
f 13 14 15 16
usemtl teaching_building
f 12 11 10 9
f 9 10 14 13
f 10 11 15 14
f 11 12 16 15
f 12 9 13 16
o SD0085_T002_2hao
v -194.444 56.353 0.000
v -155.662 58.353 0.000
v -157.680 96.777 0.000
v -140.967 97.650 0.000
v -138.289 46.481 0.000
v -193.774 43.618 0.000
v -194.444 56.353 10.730
v -155.662 58.353 10.730
v -157.680 96.777 10.730
v -140.967 97.650 10.730
v -138.289 46.481 10.730
v -193.774 43.618 10.730
usemtl roof
f 23 24 25 26 27 28
usemtl teaching_building
f 22 21 20 19 18 17
f 17 18 24 23
f 18 19 25 24
f 19 20 26 25
f 20 21 27 26
f 21 22 28 27
f 22 17 23 28
o SD0085_T003_3hao
v 210.097 -98.083 0.000
v 290.384 -95.949 0.000
v 290.884 -114.774 0.000
v 210.606 -116.897 0.000
v 210.097 -98.083 25.110
v 290.384 -95.949 25.110
v 290.884 -114.774 25.110
v 210.606 -116.897 25.110
usemtl roof
f 33 34 35 36
usemtl teaching_building
f 32 31 30 29
f 29 30 34 33
f 30 31 35 34
f 31 32 36 35
f 32 29 33 36
o SD0085_T003_3hao_seg02
v 129.168 -99.409 0.000
v 209.445 -97.276 0.000
v 209.954 -116.101 0.000
v 129.667 -118.212 0.000
v 129.168 -99.409 25.110
v 209.445 -97.276 25.110
v 209.954 -116.101 25.110
v 129.667 -118.212 25.110
usemtl roof
f 41 42 43 44
usemtl teaching_building
f 40 39 38 37
f 37 38 42 41
f 38 39 43 42
f 39 40 44 43
f 40 37 41 44
