# school_id SD0001
# school_name 七里河小学
# boundary_source footprint_convex_hull_buffer_20m
# adjacent_block_merge_distance_m 2.0
mtllib ../campus_materials.mtl
o SD0001_campus_boundary
usemtl campus_boundary
v -384.454 -401.922 0.050
v -423.024 -401.416 0.050
v -549.473 -323.973 0.050
v -547.753 -224.214 0.050
v -95.684 711.587 0.050
v -51.112 712.424 0.050
v 627.121 439.191 0.050
v 694.521 390.515 0.050
v 698.251 348.711 0.050
v 698.260 78.854 0.050
v -287.573 -401.515 0.050
v -384.454 -401.922 0.050
l 1 2 3 4 5 6 7 8 9 10 11 12 1
o SD0001_T001_1hao
v -83.021 691.821 0.000
v -54.808 692.351 0.000
v -54.433 672.741 0.000
v -82.637 672.211 0.000
v -83.021 691.821 14.980
v -54.808 692.351 14.980
v -54.433 672.741 14.980
v -82.637 672.211 14.980
usemtl roof
f 17 18 19 20
usemtl teaching_building
f 16 15 14 13
f 13 14 18 17
f 14 15 19 18
f 15 16 20 19
f 16 13 17 20
o SD0001_T002_2hao
v 531.444 334.909 0.000
v 678.251 347.820 0.000
v 675.411 379.645 0.000
v 659.823 378.274 0.000
v 660.653 368.933 0.000
v 622.396 365.551 0.000
v 617.387 421.550 0.000
v 582.826 418.511 0.000
v 587.692 364.158 0.000
v 548.578 360.709 0.000
v 547.935 367.950 0.000
v 528.650 366.247 0.000
v 531.444 334.909 12.110
v 678.251 347.820 12.110
v 675.411 379.645 12.110
v 659.823 378.274 12.110
v 660.653 368.933 12.110
v 622.396 365.551 12.110
v 617.387 421.550 12.110
v 582.826 418.511 12.110
v 587.692 364.158 12.110
v 548.578 360.709 12.110
v 547.935 367.950 12.110
v 528.650 366.247 12.110
usemtl roof
f 33 34 35 36 37 38 39 40 41 42 43 44
usemtl teaching_building
f 32 31 30 29 28 27 26 25 24 23 22 21
f 21 22 34 33
f 22 23 35 34
f 23 24 36 35
f 24 25 37 36
f 25 26 38 37
f 26 27 39 38
f 27 28 40 39
f 28 29 41 40
f 29 30 42 41
f 30 31 43 42
f 31 32 44 43
f 32 21 33 44
o SD0001_T003_3hao
v 274.303 197.607 0.000
v 320.409 197.353 0.000
v 319.382 216.178 0.000
v 275.071 215.670 0.000
v 274.303 197.607 20.010
v 320.409 197.353 20.010
v 319.382 216.178 20.010
v 275.071 215.670 20.010
usemtl roof
f 49 50 51 52
usemtl teaching_building
f 48 47 46 45
f 45 46 50 49
f 46 47 51 50
f 47 48 52 51
f 48 45 49 52
o SD0001_T004_4hao
v 655.305 88.449 0.000
v 678.260 91.356 0.000
v 669.733 157.990 0.000
v 646.761 155.094 0.000
v 655.305 88.449 11.850
v 678.260 91.356 11.850
v 669.733 157.990 11.850
v 646.761 155.094 11.850
usemtl roof
f 57 58 59 60
usemtl teaching_building
f 56 55 54 53
f 53 54 58 57
f 54 55 59 58
f 55 56 60 59
f 56 53 57 60
o SD0001_T005_5hao
v -378.928 -225.916 0.000
v -379.365 -248.643 0.000
v -432.077 -247.637 0.000
v -431.640 -224.910 0.000
v -378.928 -225.916 18.420
v -379.365 -248.643 18.420
v -432.077 -247.637 18.420
v -431.640 -224.910 18.420
usemtl roof
f 65 66 67 68
usemtl teaching_building
f 64 63 62 61
f 61 62 66 65
f 62 63 67 66
f 63 64 68 67
f 64 61 65 68
o SD0001_T006_6hao
v -264.951 -232.758 0.000
v -265.388 -255.485 0.000
v -318.109 -254.490 0.000
v -317.672 -231.763 0.000
v -264.951 -232.758 15.580
v -265.388 -255.485 15.580
v -318.109 -254.490 15.580
v -317.672 -231.763 15.580
usemtl roof
f 73 74 75 76
usemtl teaching_building
f 72 71 70 69
f 69 70 74 73
f 70 71 75 74
f 71 72 76 75
f 72 69 73 76
o SD0001_T007_7hao
v -452.612 -230.238 0.000
v -447.238 -244.674 0.000
v -449.586 -256.402 0.000
v -464.647 -263.366 0.000
v -473.611 -256.911 0.000
v -509.003 -256.314 0.000
v -509.985 -313.220 0.000
v -529.279 -312.888 0.000
v -527.832 -228.955 0.000
v -452.612 -230.238 20.740
v -447.238 -244.674 20.740
v -449.586 -256.402 20.740
v -464.647 -263.366 20.740
v -473.611 -256.911 20.740
v -509.003 -256.314 20.740
v -509.985 -313.220 20.740
v -529.279 -312.888 20.740
v -527.832 -228.955 20.740
usemtl roof
f 86 87 88 89 90 91 92 93 94
usemtl teaching_building
f 85 84 83 82 81 80 79 78 77
f 77 78 87 86
f 78 79 88 87
f 79 80 89 88
f 80 81 90 89
f 81 82 91 90
f 82 83 92 91
f 83 84 93 92
f 84 85 94 93
f 85 77 86 94
o SD0001_T008_8hao
v -321.761 -260.017 0.000
v -322.198 -282.744 0.000
v -374.910 -281.749 0.000
v -374.473 -259.022 0.000
v -321.761 -260.017 12.270
v -322.198 -282.744 12.270
v -374.910 -281.749 12.270
v -374.473 -259.022 12.270
usemtl roof
f 99 100 101 102
usemtl teaching_building
f 98 97 96 95
f 95 96 100 99
f 96 97 101 100
f 97 98 102 101
f 98 95 99 102
o SD0001_T009_9hao
v -381.972 -257.707 0.000
v -383.392 -317.675 0.000
v -431.595 -316.547 0.000
v -430.176 -256.579 0.000
v -381.972 -257.707 16.960
v -383.392 -317.675 16.960
v -431.595 -316.547 16.960
v -430.176 -256.579 16.960
usemtl roof
f 107 108 109 110
usemtl teaching_building
f 106 105 104 103
f 103 104 108 107
f 104 105 109 108
f 105 106 110 109
f 106 103 107 110
o SD0001_T010_10hao
v -264.549 -264.837 0.000
v -266.879 -331.691 0.000
v -305.002 -330.376 0.000
v -316.011 -318.902 0.000
v -314.056 -263.123 0.000
v -264.549 -264.837 21.460
v -266.879 -331.691 21.460
v -305.002 -330.376 21.460
v -316.011 -318.902 21.460
v -314.056 -263.123 21.460
usemtl roof
f 116 117 118 119 120
usemtl teaching_building
f 115 114 113 112 111
f 111 112 117 116
f 112 113 118 117
f 113 114 119 118
f 114 115 120 119
f 115 111 116 120
o SD0001_T011_11hao
v -315.770 -360.973 0.000
v -291.958 -361.283 0.000
v -292.226 -381.534 0.000
v -322.082 -381.147 0.000
v -321.975 -373.111 0.000
v -384.240 -372.293 0.000
v -384.365 -381.921 0.000
v -417.266 -381.490 0.000
v -416.917 -355.148 0.000
v -390.481 -355.491 0.000
v -390.258 -338.478 0.000
v -315.484 -339.440 0.000
v -315.770 -360.973 25.840
v -291.958 -361.283 25.840
v -292.226 -381.534 25.840
v -322.082 -381.147 25.840
v -321.975 -373.111 25.840
v -384.240 -372.293 25.840
v -384.365 -381.921 25.840
v -417.266 -381.490 25.840
v -416.917 -355.148 25.840
v -390.481 -355.491 25.840
v -390.258 -338.478 25.840
v -315.484 -339.440 25.840
usemtl roof
f 133 134 135 136 137 138 139 140 141 142 143 144
usemtl teaching_building
f 132 131 130 129 128 127 126 125 124 123 122 121
f 121 122 134 133
f 122 123 135 134
f 123 124 136 135
f 124 125 137 136
f 125 126 138 137
f 126 127 139 138
f 127 128 140 139
f 128 129 141 140
f 129 130 142 141
f 130 131 143 142
f 131 132 144 143
f 132 121 133 144
