# school_id SD0058
# school_name 文化东路小学
# boundary_source footprint_convex_hull_buffer_20m
# adjacent_block_merge_distance_m 2.0
mtllib ../campus_materials.mtl
o SD0058_campus_boundary
usemtl campus_boundary
v 221.717 -257.083 0.050
v 15.934 -250.028 0.050
v -189.938 138.444 0.050
v -190.817 176.427 0.050
v -138.247 197.214 0.050
v -105.629 197.966 0.050
v -56.218 172.756 0.050
v -47.000 166.247 0.050
v 226.292 -124.021 0.050
v 226.397 -149.816 0.050
v 221.717 -257.083 0.050
l 1 2 3 4 5 6 7 8 9 10 11 1
o SD0058_T001_1hao
v -109.496 146.937 0.000
v -118.694 146.727 0.000
v -119.114 164.789 0.000
v -128.848 164.568 0.000
v -128.384 144.582 0.000
v -170.053 143.632 0.000
v -170.500 162.954 0.000
v -133.903 163.794 0.000
v -134.215 177.302 0.000
v -110.219 177.855 0.000
v -109.496 146.937 17.420
v -118.694 146.727 17.420
v -119.114 164.789 17.420
v -128.848 164.568 17.420
v -128.384 144.582 17.420
v -170.053 143.632 17.420
v -170.500 162.954 17.420
v -133.903 163.794 17.420
v -134.215 177.302 17.420
v -110.219 177.855 17.420
usemtl roof
f 22 23 24 25 26 27 28 29 30 31
usemtl teaching_building
f 21 20 19 18 17 16 15 14 13 12
f 12 13 23 22
f 13 14 24 23
f 14 15 25 24
f 15 16 26 25
f 16 17 27 26
f 17 18 28 27
f 18 19 29 28
f 19 20 30 29
f 20 21 31 30
f 21 12 22 31
o SD0058_T002_2hao
v -66.593 151.215 0.000
v -60.181 151.071 0.000
v -60.601 123.514 0.000
v -43.186 123.182 0.000
v -43.356 114.615 0.000
v -99.708 115.687 0.000
v -99.538 124.431 0.000
v -67.647 123.823 0.000
v -66.803 145.755 0.000
v -99.761 146.075 0.000
v -99.663 155.913 0.000
v -66.584 155.592 0.000
v -66.654 149.618 0.000
v -66.593 151.215 12.220
v -60.181 151.071 12.220
v -60.601 123.514 12.220
v -43.186 123.182 12.220
v -43.356 114.615 12.220
v -99.708 115.687 12.220
v -99.538 124.431 12.220
v -67.647 123.823 12.220
v -66.803 145.755 12.220
v -99.761 146.075 12.220
v -99.663 155.913 12.220
v -66.584 155.592 12.220
v -66.654 149.618 12.220
usemtl roof
f 45 46 47 48 49 50 51 52 53 54 55 56 57
usemtl teaching_building
f 44 43 42 41 40 39 38 37 36 35 34 33 32
f 32 33 46 45
f 33 34 47 46
f 34 35 48 47
f 35 36 49 48
f 36 37 50 49
f 37 38 51 50
f 38 39 52 51
f 39 40 53 52
f 40 41 54 53
f 41 42 55 54
f 42 43 56 55
f 43 44 57 56
f 44 32 45 57
o SD0058_T003_3hao
v 206.395 -149.421 0.000
v 179.523 -149.542 0.000
v 179.452 -132.099 0.000
v 206.324 -131.989 0.000
v 206.395 -149.421 12.280
v 179.523 -149.542 12.280
v 179.452 -132.099 12.280
v 206.324 -131.989 12.280
usemtl roof
f 62 63 64 65
usemtl teaching_building
f 61 60 59 58
f 58 59 63 62
f 59 60 64 63
f 60 61 65 64
f 61 58 62 65
o SD0058_T004_4hao
v 57.103 -146.668 0.000
v 56.969 -157.203 0.000
v 123.529 -158.021 0.000
v 123.252 -179.863 0.000
v 26.490 -178.670 0.000
v 27.088 -131.016 0.000
v 155.062 -132.597 0.000
v 154.875 -147.873 0.000
v 57.103 -146.668 16.510
v 56.969 -157.203 16.510
v 123.529 -158.021 16.510
v 123.252 -179.863 16.510
v 26.490 -178.670 16.510
v 27.088 -131.016 16.510
v 155.062 -132.597 16.510
v 154.875 -147.873 16.510
usemtl roof
f 74 75 76 77 78 79 80 81
usemtl teaching_building
f 73 72 71 70 69 68 67 66
f 66 67 75 74
f 67 68 76 75
f 68 69 77 76
f 69 70 78 77
f 70 71 79 78
f 71 72 80 79
f 72 73 81 80
f 73 66 74 81
o SD0058_T005_5hao
v 58.532 -214.816 0.000
v 110.963 -215.070 0.000
v 110.883 -230.845 0.000
v 28.186 -230.436 0.000
v 28.383 -191.559 0.000
v 58.648 -191.702 0.000
v 58.532 -214.816 31.850
v 110.963 -215.070 31.850
v 110.883 -230.845 31.850
v 28.186 -230.436 31.850
v 28.383 -191.559 31.850
v 58.648 -191.702 31.850
usemtl roof
f 88 89 90 91 92 93
usemtl teaching_building
f 87 86 85 84 83 82
f 82 83 89 88
f 83 84 90 89
f 84 85 91 90
f 85 86 92 91
f 86 87 93 92
f 87 82 88 93
o SD0058_T006_6hao
v 202.600 -236.416 0.000
v 119.260 -232.967 0.000
v 120.099 -212.970 0.000
v 203.439 -216.419 0.000
v 202.600 -236.416 27.760
v 119.260 -232.967 27.760
v 120.099 -212.970 27.760
v 203.439 -216.419 27.760
usemtl roof
f 98 99 100 101
usemtl teaching_building
f 97 96 95 94
f 94 95 99 98
f 95 96 100 99
f 96 97 101 100
f 97 94 98 101
