# school_id SD0087
# school_name 济南市历城教师进修学校
# boundary_source footprint_convex_hull_buffer_20m
# adjacent_block_merge_distance_m 2.0
mtllib ../campus_materials.mtl
o SD0087_campus_boundary
usemtl campus_boundary
v -30.736 -55.711 0.050
v -42.717 14.714 0.050
v -46.758 45.715 0.050
v 30.730 55.707 0.050
v 42.712 -14.700 0.050
v 46.774 -45.716 0.050
v -30.736 -55.711 0.050
l 1 2 3 4 5 6 7 1
o SD0087_T001_1hao
v -22.935 17.685 0.000
v 15.647 22.659 0.000
v 14.236 33.415 0.000
v -24.337 28.441 0.000
v -22.935 17.685 20.960
v 15.647 22.659 20.960
v 14.236 33.415 20.960
v -24.337 28.441 20.960
usemtl roof
f 12 13 14 15
usemtl teaching_building
f 11 10 9 8
f 8 9 13 12
f 9 10 14 13
f 10 11 15 14
f 11 8 12 15
o SD0087_T002_2hao
v -14.241 -33.418 0.000
v 24.341 -28.443 0.000
v 22.931 -17.677 0.000
v -15.642 -22.662 0.000
v -14.241 -33.418 18.940
v 24.341 -28.443 18.940
v 22.931 -17.677 18.940
v -15.642 -22.662 18.940
usemtl roof
f 20 21 22 23
usemtl teaching_building
f 19 18 17 16
f 16 17 21 20
f 17 18 22 21
f 18 19 23 22
f 19 16 20 23
