# school_id SD0092
# school_name 济南市德雅高级中学
# boundary_source footprint_convex_hull_buffer_20m
# adjacent_block_merge_distance_m 2.0
mtllib ../campus_materials.mtl
o SD0092_campus_boundary
usemtl campus_boundary
v 230.007 -172.390 0.050
v -126.992 -164.523 0.050
v -167.986 36.491 0.050
v -183.722 141.356 0.050
v -139.207 148.047 0.050
v 134.498 153.567 0.050
v 164.070 125.384 0.050
v 230.007 -172.390 0.050
l 1 2 3 4 5 6 7 8 1
o SD0092_T001_1hao
v 126.664 133.405 0.000
v 145.861 115.110 0.000
v 192.708 -139.585 0.000
v 204.971 -151.833 0.000
v -110.586 -144.880 0.000
v -112.844 -104.820 0.000
v -148.285 39.976 0.000
v -160.976 124.550 0.000
v -137.512 128.077 0.000
v 126.664 133.405 12.180
v 145.861 115.110 12.180
v 192.708 -139.585 12.180
v 204.971 -151.833 12.180
v -110.586 -144.880 12.180
v -112.844 -104.820 12.180
v -148.285 39.976 12.180
v -160.976 124.550 12.180
v -137.512 128.077 12.180
usemtl roof
f 18 19 20 21 22 23 24 25 26
usemtl teaching_building
f 17 16 15 14 13 12 11 10 9
f 9 10 19 18
f 10 11 20 19
f 11 12 21 20
f 12 13 22 21
f 13 14 23 22
f 14 15 24 23
f 15 16 25 24
f 16 17 26 25
f 17 9 18 26
