# school_id SD0074
# school_name 济南外国语学校(开元国际分校)
# boundary_source footprint_convex_hull_buffer_20m
# adjacent_block_merge_distance_m 2.0
mtllib ../campus_materials.mtl
o SD0074_campus_boundary
usemtl campus_boundary
v -72.433 -48.370 0.050
v -74.874 6.108 0.050
v -1.005 39.253 0.050
v 24.335 45.410 0.050
v 74.327 47.614 0.050
v 76.702 -5.187 0.050
v 3.159 -38.173 0.050
v -25.802 -46.318 0.050
v -72.433 -48.370 0.050
l 1 2 3 4 5 6 7 8 9 1
o SD0074_T001_1hao
v 6.442 -0.694 0.000
v 30.799 0.378 0.000
v 30.531 6.358 0.000
v 56.111 7.497 0.000
v 55.245 26.753 0.000
v 27.163 25.515 0.000
v 27.360 21.215 0.000
v 5.504 20.253 0.000
v 6.442 -0.694 7.420
v 30.799 0.378 7.420
v 30.531 6.358 7.420
v 56.111 7.497 7.420
v 55.245 26.753 7.420
v 27.163 25.515 7.420
v 27.360 21.215 7.420
v 5.504 20.253 7.420
usemtl roof
f 18 19 20 21 22 23 24 25
usemtl teaching_building
f 17 16 15 14 13 12 11 10
f 10 11 19 18
f 11 12 20 19
f 12 13 21 20
f 13 14 22 21
f 14 15 23 22
f 15 16 24 23
f 16 17 25 24
f 17 10 18 25
o SD0074_T002_2hao
v -53.348 -27.511 0.000
v -28.991 -26.439 0.000
v -29.259 -20.459 0.000
v -3.678 -19.320 0.000
v -4.545 -0.064 0.000
v -32.617 -1.302 0.000
v -32.430 -5.602 0.000
v -54.286 -6.575 0.000
v -53.348 -27.511 23.140
v -28.991 -26.439 23.140
v -29.259 -20.459 23.140
v -3.678 -19.320 23.140
v -4.545 -0.064 23.140
v -32.617 -1.302 23.140
v -32.430 -5.602 23.140
v -54.286 -6.575 23.140
usemtl roof
f 34 35 36 37 38 39 40 41
usemtl teaching_building
f 33 32 31 30 29 28 27 26
f 26 27 35 34
f 27 28 36 35
f 28 29 37 36
f 29 30 38 37
f 30 31 39 38
f 31 32 40 39
f 32 33 41 40
f 33 26 34 41
