# school_id SD0036
# school_name 山东省实验中学西校区（济南西城实验中学）
# boundary_source footprint_convex_hull_buffer_20m
# adjacent_block_merge_distance_m 2.0
mtllib ../campus_materials.mtl
o SD0036_campus_boundary
usemtl campus_boundary
v -115.282 -160.193 0.050
v -119.920 -60.725 0.050
v -121.659 -5.012 0.050
v -120.765 204.973 0.050
v -23.381 209.134 0.050
v -13.270 209.371 0.050
v 75.188 211.357 0.050
v 123.269 162.182 0.050
v 204.006 -72.361 0.050
v 205.802 -149.991 0.050
v -24.148 -158.135 0.050
v -115.282 -160.193 0.050
l 1 2 3 4 5 6 7 8 9 10 11 12 1
o SD0036_T001_1hao
v 66.957 191.167 0.000
v 67.403 171.834 0.000
v -12.365 170.021 0.000
v -12.802 189.376 0.000
v 66.957 191.167 12.530
v 67.403 171.834 12.530
v -12.365 170.021 12.530
v -12.802 189.376 12.530
usemtl roof
f 17 18 19 20
usemtl teaching_building
f 16 15 14 13
f 13 14 18 17
f 14 15 19 18
f 15 16 20 19
f 16 13 17 20
o SD0036_T002_2hao
v -22.720 189.144 0.000
v -21.863 169.324 0.000
v -99.998 166.008 0.000
v -100.846 185.806 0.000
v -22.720 189.144 12.130
v -21.863 169.324 12.130
v -99.998 166.008 12.130
v -100.846 185.806 12.130
usemtl roof
f 25 26 27 28
usemtl teaching_building
f 24 23 22 21
f 21 22 26 25
f 22 23 27 26
f 23 24 28 27
f 24 21 25 28
o SD0036_T003_3hao
v -53.954 134.659 0.000
v -53.499 115.458 0.000
v -96.266 114.452 0.000
v -96.722 133.653 0.000
v -53.954 134.659 11.580
v -53.499 115.458 11.580
v -96.266 114.452 11.580
v -96.722 133.653 11.580
usemtl roof
f 33 34 35 36
usemtl teaching_building
f 32 31 30 29
f 29 30 34 33
f 30 31 35 34
f 31 32 36 35
f 32 29 33 36
o SD0036_T004_4hao
v 86.497 82.628 0.000
v 105.502 82.539 0.000
v 105.823 151.417 0.000
v 86.801 151.494 0.000
v 86.497 82.628 10.090
v 105.502 82.539 10.090
v 105.823 151.417 10.090
v 86.801 151.494 10.090
usemtl roof
f 41 42 43 44
usemtl teaching_building
f 40 39 38 37
f 37 38 42 41
f 38 39 43 42
f 39 40 44 43
f 40 37 41 44
o SD0036_T005_5hao
v -32.959 83.413 0.000
v -31.682 33.902 0.000
v -92.526 32.354 0.000
v -93.803 81.865 0.000
v -32.959 83.413 14.780
v -31.682 33.902 14.780
v -92.526 32.354 14.780
v -93.803 81.865 14.780
usemtl roof
f 49 50 51 52
usemtl teaching_building
f 48 47 46 45
f 45 46 50 49
f 46 47 51 50
f 47 48 52 51
f 48 45 49 52
o SD0036_T006_6hao
v -19.006 50.814 0.000
v -19.105 52.749 0.000
v 42.007 55.800 0.000
v 42.150 53.036 0.000
v 44.256 53.136 0.000
v 47.327 -7.949 0.000
v 45.747 -8.026 0.000
v 45.810 -9.275 0.000
v -15.302 -12.337 0.000
v -15.400 -10.447 0.000
v -17.096 -10.524 0.000
v -20.256 50.748 0.000
v -19.006 50.814 15.940
v -19.105 52.749 15.940
v 42.007 55.800 15.940
v 42.150 53.036 15.940
v 44.256 53.136 15.940
v 47.327 -7.949 15.940
v 45.747 -8.026 15.940
v 45.810 -9.275 15.940
v -15.302 -12.337 15.940
v -15.400 -10.447 15.940
v -17.096 -10.524 15.940
v -20.256 50.748 15.940
usemtl roof
f 65 66 67 68 69 70 71 72 73 74 75 76
usemtl teaching_building
f 64 63 62 61 60 59 58 57 56 55 54 53
f 53 54 66 65
f 54 55 67 66
f 55 56 68 67
f 56 57 69 68
f 57 58 70 69
f 58 59 71 70
f 59 60 72 71
f 60 61 73 72
f 61 62 74 73
f 62 63 75 74
f 63 64 76 75
f 64 53 65 76
o SD0036_T007_7hao
v 63.850 -40.237 0.000
v 65.448 -40.193 0.000
v 65.109 -29.371 0.000
v 64.073 -29.405 0.000
v 64.466 -10.414 0.000
v 62.351 -10.480 0.000
v 61.940 2.752 0.000
v 118.017 4.465 0.000
v 119.740 -50.993 0.000
v 64.243 -52.695 0.000
v 63.850 -40.237 12.080
v 65.448 -40.193 12.080
v 65.109 -29.371 12.080
v 64.073 -29.405 12.080
v 64.466 -10.414 12.080
v 62.351 -10.480 12.080
v 61.940 2.752 12.080
v 118.017 4.465 12.080
v 119.740 -50.993 12.080
v 64.243 -52.695 12.080
usemtl roof
f 87 88 89 90 91 92 93 94 95 96
usemtl teaching_building
f 86 85 84 83 82 81 80 79 78 77
f 77 78 88 87
f 78 79 89 88
f 79 80 90 89
f 80 81 91 90
f 81 82 92 91
f 82 83 93 92
f 83 84 94 93
f 84 85 95 94
f 85 86 96 95
f 86 77 87 96
o SD0036_T008_8hao
v -28.379 -15.499 0.000
v -32.307 -15.609 0.000
v -31.995 -25.580 0.000
v -30.879 -25.547 0.000
v -31.245 -45.245 0.000
v -26.487 -45.101 0.000
v -26.094 -57.681 0.000
v -99.935 -59.947 0.000
v -101.658 -4.743 0.000
v -28.781 -2.499 0.000
v -28.379 -15.499 12.180
v -32.307 -15.609 12.180
v -31.995 -25.580 12.180
v -30.879 -25.547 12.180
v -31.245 -45.245 12.180
v -26.487 -45.101 12.180
v -26.094 -57.681 12.180
v -99.935 -59.947 12.180
v -101.658 -4.743 12.180
v -28.781 -2.499 12.180
usemtl roof
f 107 108 109 110 111 112 113 114 115 116
usemtl teaching_building
f 106 105 104 103 102 101 100 99 98 97
f 97 98 108 107
f 98 99 109 108
f 99 100 110 109
f 100 101 111 110
f 101 102 112 111
f 102 103 113 112
f 103 104 114 113
f 104 105 115 114
f 105 106 116 115
f 106 97 107 116
o SD0036_T009_9hao
v 184.083 -75.931 0.000
v 185.350 -130.703 0.000
v 138.209 -131.787 0.000
v 136.923 -77.014 0.000
v 184.083 -75.931 12.240
v 185.350 -130.703 12.240
v 138.209 -131.787 12.240
v 136.923 -77.014 12.240
usemtl roof
f 121 122 123 124
usemtl teaching_building
f 120 119 118 117
f 117 118 122 121
f 118 119 123 122
f 119 120 124 123
f 120 117 121 124
o SD0036_T010_10hao
v -26.933 -95.939 0.000
v -29.933 -96.005 0.000
v -29.790 -102.284 0.000
v -26.157 -102.206 0.000
v -25.987 -109.734 0.000
v -28.942 -109.800 0.000
v -28.576 -125.895 0.000
v -25.005 -125.817 0.000
v -24.728 -138.143 0.000
v -96.213 -139.757 0.000
v -96.382 -132.627 0.000
v -93.365 -132.560 0.000
v -93.410 -130.515 0.000
v -96.445 -130.582 0.000
v -97.453 -85.592 0.000
v -27.192 -84.044 0.000
v -26.933 -95.939 13.700
v -29.933 -96.005 13.700
v -29.790 -102.284 13.700
v -26.157 -102.206 13.700
v -25.987 -109.734 13.700
v -28.942 -109.800 13.700
v -28.576 -125.895 13.700
v -25.005 -125.817 13.700
v -24.728 -138.143 13.700
v -96.213 -139.757 13.700
v -96.382 -132.627 13.700
v -93.365 -132.560 13.700
v -93.410 -130.515 13.700
v -96.445 -130.582 13.700
v -97.453 -85.592 13.700
v -27.192 -84.044 13.700
usemtl roof
f 141 142 143 144 145 146 147 148 149 150 151 152 153 154 155 156
usemtl teaching_building
f 140 139 138 137 136 135 134 133 132 131 130 129 128 127 126 125
f 125 126 142 141
f 126 127 143 142
f 127 128 144 143
f 128 129 145 144
f 129 130 146 145
f 130 131 147 146
f 131 132 148 147
f 132 133 149 148
f 133 134 150 149
f 134 135 151 150
f 135 136 152 151
f 136 137 153 152
f 137 138 154 153
f 138 139 155 154
f 139 140 156 155
f 140 125 141 156
