# school_id SD0069
# school_name 济南中学（西校区）
# boundary_source footprint_convex_hull_buffer_20m
# adjacent_block_merge_distance_m 2.0
mtllib ../campus_materials.mtl
o SD0069_campus_boundary
usemtl campus_boundary
v 15.337 -45.733 0.050
v -53.980 -42.838 0.050
v -54.285 66.671 0.050
v 52.614 66.971 0.050
v 52.932 -45.637 0.050
v 15.337 -45.733 0.050
l 1 2 3 4 5 6 1
o SD0069_T001_1hao
v 32.671 46.915 0.000
v 32.876 -25.688 0.000
v 15.729 -25.732 0.000
v 15.702 -18.094 0.000
v 25.151 -18.060 0.000
v 24.981 35.861 0.000
v -26.424 35.706 0.000
v -26.272 -15.208 0.000
v -13.090 -15.175 0.000
v -13.063 -23.598 0.000
v -34.033 -23.654 0.000
v -34.229 46.727 0.000
v 32.671 46.915 20.380
v 32.876 -25.688 20.380
v 15.729 -25.732 20.380
v 15.702 -18.094 20.380
v 25.151 -18.060 20.380
v 24.981 35.861 20.380
v -26.424 35.706 20.380
v -26.272 -15.208 20.380
v -13.090 -15.175 20.380
v -13.063 -23.598 20.380
v -34.033 -23.654 20.380
v -34.229 46.727 20.380
usemtl roof
f 19 20 21 22 23 24 25 26 27 28 29 30
usemtl teaching_building
f 18 17 16 15 14 13 12 11 10 9 8 7
f 7 8 20 19
f 8 9 21 20
f 9 10 22 21
f 10 11 23 22
f 11 12 24 23
f 12 13 25 24
f 13 14 26 25
f 14 15 27 26
f 15 16 28 27
f 16 17 29 28
f 17 18 30 29
f 18 7 19 30
