# school_id SD0082
# school_name 济南市历下实验小学
# boundary_source footprint_convex_hull_buffer_20m
# adjacent_block_merge_distance_m 2.0
mtllib ../campus_materials.mtl
o SD0082_campus_boundary
usemtl campus_boundary
v -579.226 -233.032 0.050
v -580.415 -181.652 0.050
v -514.678 -149.962 0.050
v 274.231 166.466 0.050
v 330.950 165.686 0.050
v 346.373 126.987 0.050
v 349.470 90.039 0.050
v 349.800 54.888 0.050
v -476.638 -230.664 0.050
v -579.226 -233.032 0.050
l 1 2 3 4 5 6 7 8 9 10 1
o SD0082_T001_1hao
v 317.317 145.872 0.000
v 317.139 133.071 0.000
v 277.781 133.613 0.000
v 277.960 146.413 0.000
v 317.317 145.872 12.100
v 317.139 133.071 12.100
v 277.781 133.613 12.100
v 277.960 146.413 12.100
usemtl roof
f 15 16 17 18
usemtl teaching_building
f 14 13 12 11
f 11 12 16 15
f 12 13 17 16
f 13 14 18 17
f 14 11 15 18
o SD0082_T002_2hao
v 329.666 69.091 0.000
v 227.861 68.195 0.000
v 227.673 88.203 0.000
v 329.478 89.109 0.000
v 329.666 69.091 15.970
v 227.861 68.195 15.970
v 227.673 88.203 15.970
v 329.478 89.109 15.970
usemtl roof
f 23 24 25 26
usemtl teaching_building
f 22 21 20 19
f 19 20 24 23
f 20 21 25 24
f 21 22 26 25
f 22 19 23 26
o SD0082_T002_2hao_seg02
v 326.648 107.592 0.000
v 295.067 107.680 0.000
v 295.013 89.739 0.000
v 273.924 89.806 0.000
v 274.022 122.503 0.000
v 326.692 122.349 0.000
v 326.648 107.592 15.970
v 295.067 107.680 15.970
v 295.013 89.739 15.970
v 273.924 89.806 15.970
v 274.022 122.503 15.970
v 326.692 122.349 15.970
usemtl roof
f 33 34 35 36 37 38
usemtl teaching_building
f 32 31 30 29 28 27
f 27 28 34 33
f 28 29 35 34
f 29 30 36 35
f 30 31 37 36
f 31 32 38 37
f 32 27 33 38
o SD0082_T003_3hao
v -559.694 -212.576 0.000
v -480.220 -210.741 0.000
v -481.220 -167.686 0.000
v -506.604 -168.272 0.000
v -506.247 -183.637 0.000
v -501.175 -183.527 0.000
v -500.961 -192.723 0.000
v -560.122 -194.072 0.000
v -559.694 -212.576 14.280
v -480.220 -210.741 14.280
v -481.220 -167.686 14.280
v -506.604 -168.272 14.280
v -506.247 -183.637 14.280
v -501.175 -183.527 14.280
v -500.961 -192.723 14.280
v -560.122 -194.072 14.280
usemtl roof
f 47 48 49 50 51 52 53 54
usemtl teaching_building
f 46 45 44 43 42 41 40 39
f 39 40 48 47
f 40 41 49 48
f 41 42 50 49
f 42 43 51 50
f 43 44 52 51
f 44 45 53 52
f 45 46 54 53
f 46 39 47 54
