# school_id SD0043
# school_name 山东省济南市莱芜第一中学
# boundary_source footprint_convex_hull_buffer_20m
# adjacent_block_merge_distance_m 2.0
mtllib ../campus_materials.mtl
o SD0043_campus_boundary
usemtl campus_boundary
v -125.148 -276.883 0.050
v -145.312 -273.952 0.050
v -226.710 -203.299 0.050
v -230.070 -145.689 0.050
v -235.627 146.869 0.050
v -233.644 155.712 0.050
v -180.339 336.381 0.050
v -61.839 346.215 0.050
v 131.807 328.302 0.050
v 207.023 313.138 0.050
v 318.653 288.900 0.050
v 312.737 259.793 0.050
v 307.435 235.472 0.050
v 295.543 186.949 0.050
v 267.970 82.212 0.050
v 195.213 -182.819 0.050
v -125.148 -276.883 0.050
l 1 2 3 4 5 6 7 8 9 10 11 12 13 14 15 16 17 1
o SD0043_T001_1hao
v 202.925 293.562 0.000
v 200.564 282.011 0.000
v 126.539 296.933 0.000
v 128.901 308.485 0.000
v 202.925 293.562 9.430
v 200.564 282.011 9.430
v 126.539 296.933 9.430
v 128.901 308.485 9.430
usemtl roof
f 22 23 24 25
usemtl teaching_building
f 21 20 19 18
f 18 19 23 22
f 19 20 24 23
f 20 21 25 24
f 21 18 22 25
o SD0043_T002_2hao
v 295.123 273.543 0.000
v 293.166 263.915 0.000
v 217.938 279.037 0.000
v 219.896 288.654 0.000
v 295.123 273.543 11.050
v 293.166 263.915 11.050
v 217.938 279.037 11.050
v 219.896 288.654 11.050
usemtl roof
f 30 31 32 33
usemtl teaching_building
f 29 28 27 26
f 26 27 31 30
f 27 28 32 31
f 28 29 33 32
f 29 26 30 33
o SD0043_T003_3hao
v 183.611 261.229 0.000
v 182.740 247.787 0.000
v 120.317 261.229 0.000
v 122.939 272.062 0.000
v 183.611 261.229 9.990
v 182.740 247.787 9.990
v 120.317 261.229 9.990
v 122.939 272.062 9.990
usemtl roof
f 38 39 40 41
usemtl teaching_building
f 37 36 35 34
f 34 35 39 38
f 35 36 40 39
f 36 37 41 40
f 37 34 38 41
o SD0043_T004_4hao
v -148.259 313.404 0.000
v -180.719 185.023 0.000
v -197.474 189.201 0.000
v -165.033 317.582 0.000
v -148.259 313.404 7.360
v -180.719 185.023 7.360
v -197.474 189.201 7.360
v -165.033 317.582 7.360
usemtl roof
f 46 47 48 49
usemtl teaching_building
f 45 44 43 42
f 42 43 47 46
f 43 44 48 47
f 44 45 49 48
f 45 42 46 49
o SD0043_T005_5hao
v 287.949 239.983 0.000
v 284.016 228.719 0.000
v 195.401 244.316 0.000
v 198.023 257.758 0.000
v 287.949 239.983 8.990
v 284.016 228.719 8.990
v 195.401 244.316 8.990
v 198.023 257.758 8.990
usemtl roof
f 54 55 56 57
usemtl teaching_building
f 53 52 51 50
f 50 51 55 54
f 51 52 56 55
f 52 53 57 56
f 53 50 54 57
o SD0043_T006_6hao
v 177.505 226.984 0.000
v 174.883 214.846 0.000
v 111.589 226.984 0.000
v 114.642 241.288 0.000
v 177.505 226.984 9.990
v 174.883 214.846 9.990
v 111.589 226.984 9.990
v 114.642 241.288 9.990
usemtl roof
f 62 63 64 65
usemtl teaching_building
f 61 60 59 58
f 58 59 63 62
f 59 60 64 63
f 60 61 65 64
f 61 58 62 65
o SD0043_T007_7hao
v 275.288 207.473 0.000
v 276.159 191.876 0.000
v 190.597 208.347 0.000
v 191.908 220.042 0.000
v 275.288 207.473 7.030
v 276.159 191.876 7.030
v 190.597 208.347 7.030
v 191.908 220.042 7.030
usemtl roof
f 70 71 72 73
usemtl teaching_building
f 69 68 67 66
f 66 67 71 70
f 67 68 72 71
f 68 69 73 72
f 69 66 70 73
o SD0043_T008_8hao
v 167.466 189.699 0.000
v 166.586 176.268 0.000
v 104.163 190.572 0.000
v 105.474 200.974 0.000
v 167.466 189.699 10.300
v 166.586 176.268 10.300
v 104.163 190.572 10.300
v 105.474 200.974 10.300
usemtl roof
f 78 79 80 81
usemtl teaching_building
f 77 76 75 74
f 74 75 79 78
f 75 76 80 79
f 76 77 81 80
f 77 74 78 81
o SD0043_T009_9hao
v 263.499 170.630 0.000
v 263.499 156.758 0.000
v 179.687 168.895 0.000
v 182.309 185.808 0.000
v 263.499 170.630 11.210
v 263.499 156.758 11.210
v 179.687 168.895 11.210
v 182.309 185.808 11.210
usemtl roof
f 86 87 88 89
usemtl teaching_building
f 85 84 83 82
f 82 83 87 86
f 83 84 88 87
f 84 85 89 88
f 85 82 86 89
o SD0043_T010_10hao
v 161.792 151.562 0.000
v 160.041 140.287 0.000
v 96.306 154.591 0.000
v 100.239 167.160 0.000
v 161.792 151.562 9.680
v 160.041 140.287 9.680
v 96.306 154.591 9.680
v 100.239 167.160 9.680
usemtl roof
f 94 95 96 97
usemtl teaching_building
f 93 92 91 90
f 90 91 95 94
f 91 92 96 95
f 92 93 97 96
f 93 90 94 97
o SD0043_T011_11hao
v 254.771 134.219 0.000
v 254.331 119.484 0.000
v 173.572 135.954 0.000
v 176.194 151.131 0.000
v 254.771 134.219 10.960
v 254.331 119.484 10.960
v 173.572 135.954 10.960
v 176.194 151.131 10.960
usemtl roof
f 102 103 104 105
usemtl teaching_building
f 101 100 99 98
f 98 99 103 102
f 99 100 104 103
f 100 101 105 104
f 101 98 102 105
o SD0043_T012_12hao
v 158.730 120.346 0.000
v 157.859 107.346 0.000
v 88.890 119.915 0.000
v 94.125 133.356 0.000
v 158.730 120.346 12.410
v 157.859 107.346 12.410
v 88.890 119.915 12.410
v 94.125 133.356 12.410
usemtl roof
f 110 111 112 113
usemtl teaching_building
f 109 108 107 106
f 106 107 111 110
f 107 108 112 111
f 108 109 113 112
f 109 106 110 113
o SD0043_T013_13hao
v 248.656 99.542 0.000
v 248.656 87.405 0.000
v 164.845 104.318 0.000
v 168.337 116.013 0.000
v 248.656 99.542 10.960
v 248.656 87.405 10.960
v 164.845 104.318 10.960
v 168.337 116.013 10.960
usemtl roof
f 118 119 120 121
usemtl teaching_building
f 117 116 115 114
f 114 115 119 118
f 115 116 120 119
f 116 117 121 120
f 117 114 118 121
o SD0043_T014_14hao
v -25.334 76.373 0.000
v -28.585 74.085 0.000
v -20.405 75.853 0.000
v -19.040 69.287 0.000
v -27.849 60.544 0.000
v -36.343 58.576 0.000
v -38.013 61.273 0.000
v -41.264 62.522 0.000
v -41.264 60.345 0.000
v -43.050 59.825 0.000
v -42.314 56.387 0.000
v -45.987 49.722 0.000
v -49.650 46.804 0.000
v -58.979 43.476 0.000
v -62.760 43.167 0.000
v -70.616 45.245 0.000
v -77.333 50.142 0.000
v -83.412 57.327 0.000
v -85.612 64.291 0.000
v -85.405 66.480 0.000
v -86.555 66.900 0.000
v -88.018 70.017 0.000
v -86.761 73.665 0.000
v -80.476 73.665 0.000
v -79.003 73.035 0.000
v -78.060 68.038 0.000
v -74.289 67.320 0.000
v -71.981 85.946 0.000
v -63.388 91.981 0.000
v -56.887 93.750 0.000
v -44.514 91.981 0.000
v -38.956 89.483 0.000
v -27.112 77.103 0.000
v -25.334 76.373 8.460
v -28.585 74.085 8.460
v -20.405 75.853 8.460
v -19.040 69.287 8.460
v -27.849 60.544 8.460
v -36.343 58.576 8.460
v -38.013 61.273 8.460
v -41.264 62.522 8.460
v -41.264 60.345 8.460
v -43.050 59.825 8.460
v -42.314 56.387 8.460
v -45.987 49.722 8.460
v -49.650 46.804 8.460
v -58.979 43.476 8.460
v -62.760 43.167 8.460
v -70.616 45.245 8.460
v -77.333 50.142 8.460
v -83.412 57.327 8.460
v -85.612 64.291 8.460
v -85.405 66.480 8.460
v -86.555 66.900 8.460
v -88.018 70.017 8.460
v -86.761 73.665 8.460
v -80.476 73.665 8.460
v -79.003 73.035 8.460
v -78.060 68.038 8.460
v -74.289 67.320 8.460
v -71.981 85.946 8.460
v -63.388 91.981 8.460
v -56.887 93.750 8.460
v -44.514 91.981 8.460
v -38.956 89.483 8.460
v -27.112 77.103 8.460
usemtl roof
f 155 156 157 158 159 160 161 162 163 164 165 166 167 168 169 170 171 172 173 174 175 176 177 178 179 180 181 182 183 184 185 186 187
usemtl teaching_building
f 154 153 152 151 150 149 148 147 146 145 144 143 142 141 140 139 138 137 136 135 134 133 132 131 130 129 128 127 126 125 124 123 122
f 122 123 156 155
f 123 124 157 156
f 124 125 158 157
f 125 126 159 158
f 126 127 160 159
f 127 128 161 160
f 128 129 162 161
f 129 130 163 162
f 130 131 164 163
f 131 132 165 164
f 132 133 166 165
f 133 134 167 166
f 134 135 168 167
f 135 136 169 168
f 136 137 170 169
f 137 138 171 170
f 138 139 172 171
f 139 140 173 172
f 140 141 174 173
f 141 142 175 174
f 142 143 176 175
f 143 144 177 176
f 144 145 178 177
f 145 146 179 178
f 146 147 180 179
f 147 148 181 180
f 148 149 182 181
f 149 150 183 182
f 150 151 184 183
f 151 152 185 184
f 152 153 186 185
f 153 154 187 186
f 154 122 155 187
o SD0043_T015_15hao
v 101.398 87.615 0.000
v 93.101 38.193 0.000
v 76.516 40.934 0.000
v 84.813 90.367 0.000
v 101.398 87.615 11.450
v 93.101 38.193 11.450
v 76.516 40.934 11.450
v 84.813 90.367 11.450
usemtl roof
f 192 193 194 195
usemtl teaching_building
f 191 190 189 188
f 188 189 193 192
f 189 190 194 193
f 190 191 195 194
f 191 188 192 195
o SD0043_T016_16hao
v 96.998 38.248 0.000
v 103.023 69.785 0.000
v 141.355 61.804 0.000
v 135.330 29.371 0.000
v 96.998 38.248 7.490
v 103.023 69.785 7.490
v 141.355 61.804 7.490
v 135.330 29.371 7.490
usemtl roof
f 200 201 202 203
usemtl teaching_building
f 199 198 197 196
f 196 197 201 200
f 197 198 202 201
f 198 199 203 202
f 199 196 200 203
o SD0043_T016_16hao_seg02
v 124.788 67.043 0.000
v 127.330 80.319 0.000
v 146.635 76.683 0.000
v 144.094 63.396 0.000
v 124.788 67.043 7.490
v 127.330 80.319 7.490
v 146.635 76.683 7.490
v 144.094 63.396 7.490
usemtl roof
f 208 209 210 211
usemtl teaching_building
f 207 206 205 204
f 204 205 209 208
f 205 206 210 209
f 206 207 211 210
f 207 204 208 211
o SD0043_T017_17hao
v 14.156 26.332 0.000
v 35.895 14.968 0.000
v 33.246 10.182 0.000
v 43.329 4.677 0.000
v 35.392 -9.649 0.000
v 25.757 -4.387 0.000
v 20.836 -8.080 0.000
v -17.612 10.160 0.000
v -4.916 35.871 0.000
v 2.797 60.643 0.000
v 2.250 91.296 0.000
v 47.891 92.103 0.000
v 60.066 80.010 0.000
v 41.246 61.329 0.000
v 11.353 60.796 0.000
v 2.860 33.484 0.000
v 14.156 26.332 8.640
v 35.895 14.968 8.640
v 33.246 10.182 8.640
v 43.329 4.677 8.640
v 35.392 -9.649 8.640
v 25.757 -4.387 8.640
v 20.836 -8.080 8.640
v -17.612 10.160 8.640
v -4.916 35.871 8.640
v 2.797 60.643 8.640
v 2.250 91.296 8.640
v 47.891 92.103 8.640
v 60.066 80.010 8.640
v 41.246 61.329 8.640
v 11.353 60.796 8.640
v 2.860 33.484 8.640
usemtl roof
f 228 229 230 231 232 233 234 235 236 237 238 239 240 241 242 243
usemtl teaching_building
f 227 226 225 224 223 222 221 220 219 218 217 216 215 214 213 212
f 212 213 229 228
f 213 214 230 229
f 214 215 231 230
f 215 216 232 231
f 216 217 233 232
f 217 218 234 233
f 218 219 235 234
f 219 220 236 235
f 220 221 237 236
f 221 222 238 237
f 222 223 239 238
f 223 224 240 239
f 224 225 241 240
f 225 226 242 241
f 226 227 243 242
f 227 212 228 243
o SD0043_T018_18hao
v 234.182 58.333 0.000
v 227.645 19.180 0.000
v 157.365 30.753 0.000
v 163.902 69.917 0.000
v 234.182 58.333 11.780
v 227.645 19.180 11.780
v 157.365 30.753 11.780
v 163.902 69.917 11.780
usemtl roof
f 248 249 250 251
usemtl teaching_building
f 247 246 245 244
f 244 245 249 248
f 245 246 250 249
f 246 247 251 250
f 247 244 248 251
o SD0043_T019_19hao
v 133.256 15.289 0.000
v 129.655 -3.337 0.000
v 67.645 8.479 0.000
v 71.237 27.105 0.000
v 133.256 15.289 11.850
v 129.655 -3.337 11.850
v 67.645 8.479 11.850
v 71.237 27.105 11.850
usemtl roof
f 256 257 258 259
usemtl teaching_building
f 255 254 253 252
f 252 253 257 256
f 253 254 258 257
f 254 255 259 258
f 255 252 256 259
o SD0043_T020_20hao
v 218.962 -2.431 0.000
v 214.688 -21.223 0.000
v 148.233 -6.333 0.000
v 152.516 12.470 0.000
v 218.962 -2.431 12.570
v 214.688 -21.223 12.570
v 148.233 -6.333 12.570
v 152.516 12.470 12.570
usemtl roof
f 264 265 266 267
usemtl teaching_building
f 263 262 261 260
f 260 261 265 264
f 261 262 266 265
f 262 263 267 266
f 263 260 264 267
o SD0043_T021_21hao
v -96.189 1.924 0.000
v -51.652 -5.106 0.000
v -12.979 -40.866 0.000
v -31.198 -59.669 0.000
v -59.069 -35.339 0.000
v -82.424 -29.005 0.000
v -95.570 -26.540 0.000
v -104.612 -27.170 0.000
v -137.000 -38.036 0.000
v -142.450 -7.903 0.000
v -96.189 1.924 12.800
v -51.652 -5.106 12.800
v -12.979 -40.866 12.800
v -31.198 -59.669 12.800
v -59.069 -35.339 12.800
v -82.424 -29.005 12.800
v -95.570 -26.540 12.800
v -104.612 -27.170 12.800
v -137.000 -38.036 12.800
v -142.450 -7.903 12.800
usemtl roof
f 278 279 280 281 282 283 284 285 286 287
usemtl teaching_building
f 277 276 275 274 273 272 271 270 269 268
f 268 269 279 278
f 269 270 280 279
f 270 271 281 280
f 271 272 282 281
f 272 273 283 282
f 273 274 284 283
f 274 275 285 284
f 275 276 286 285
f 276 277 287 286
f 277 268 278 287
o SD0043_T022_22hao
v 122.840 -30.044 0.000
v 118.844 -50.427 0.000
v 57.023 -38.478 0.000
v 61.018 -18.094 0.000
v 122.840 -30.044 10.030
v 118.844 -50.427 10.030
v 57.023 -38.478 10.030
v 61.018 -18.094 10.030
usemtl roof
f 292 293 294 295
usemtl teaching_building
f 291 290 289 288
f 288 289 293 292
f 289 290 294 293
f 290 291 295 294
f 291 288 292 295
o SD0043_T023_23hao
v 204.928 -51.920 0.000
v 200.456 -72.502 0.000
v 136.524 -58.806 0.000
v 140.996 -38.224 0.000
v 204.928 -51.920 10.060
v 200.456 -72.502 10.060
v 136.524 -58.806 10.060
v 140.996 -38.224 10.060
usemtl roof
f 300 301 302 303
usemtl teaching_building
f 299 298 297 296
f 296 297 301 300
f 297 298 302 301
f 298 299 303 302
f 299 296 300 303
o SD0043_T024_24hao
v 117.686 -78.748 0.000
v 114.480 -101.862 0.000
v 46.005 -92.499 0.000
v 49.211 -69.385 0.000
v 117.686 -78.748 8.680
v 114.480 -101.862 8.680
v 46.005 -92.499 8.680
v 49.211 -69.385 8.680
usemtl roof
f 308 309 310 311
usemtl teaching_building
f 307 306 305 304
f 304 305 309 308
f 305 306 310 309
f 306 307 311 310
f 307 304 308 311
o SD0043_T025_25hao
v 2.806 -90.432 0.000
v 14.425 -102.514 0.000
v 11.112 -117.348 0.000
v -4.386 -121.748 0.000
v -13.814 -111.036 0.000
v -50.719 -103.542 0.000
v -47.782 -88.973 0.000
v -41.497 -90.642 0.000
v -41.497 -81.058 0.000
v -30.174 -84.805 0.000
v -32.266 -92.720 0.000
v -26.816 -94.798 0.000
v -24.724 -85.634 0.000
v -13.401 -88.144 0.000
v -16.337 -96.047 0.000
v 2.806 -90.432 8.220
v 14.425 -102.514 8.220
v 11.112 -117.348 8.220
v -4.386 -121.748 8.220
v -13.814 -111.036 8.220
v -50.719 -103.542 8.220
v -47.782 -88.973 8.220
v -41.497 -90.642 8.220
v -41.497 -81.058 8.220
v -30.174 -84.805 8.220
v -32.266 -92.720 8.220
v -26.816 -94.798 8.220
v -24.724 -85.634 8.220
v -13.401 -88.144 8.220
v -16.337 -96.047 8.220
usemtl roof
f 327 328 329 330 331 332 333 334 335 336 337 338 339 340 341
usemtl teaching_building
f 326 325 324 323 322 321 320 319 318 317 316 315 314 313 312
f 312 313 328 327
f 313 314 329 328
f 314 315 330 329
f 315 316 331 330
f 316 317 332 331
f 317 318 333 332
f 318 319 334 333
f 319 320 335 334
f 320 321 336 335
f 321 322 337 336
f 322 323 338 337
f 323 324 339 338
f 324 325 340 339
f 325 326 341 340
f 326 312 327 341
o SD0043_T026_26hao
v 189.142 -101.497 0.000
v 185.371 -116.818 0.000
v 126.566 -102.547 0.000
v 130.338 -87.215 0.000
v 189.142 -101.497 12.440
v 185.371 -116.818 12.440
v 126.566 -102.547 12.440
v 130.338 -87.215 12.440
usemtl roof
f 346 347 348 349
usemtl teaching_building
f 345 344 343 342
f 342 343 347 346
f 343 344 348 347
f 344 345 349 348
f 345 342 346 349
o SD0043_T027_27hao
v 102.574 -129.121 0.000
v 98.731 -146.675 0.000
v 34.925 -132.901 0.000
v 38.768 -115.359 0.000
v 102.574 -129.121 8.000
v 98.731 -146.675 8.000
v 34.925 -132.901 8.000
v 38.768 -115.359 8.000
usemtl roof
f 354 355 356 357
usemtl teaching_building
f 353 352 351 350
f 350 351 355 354
f 351 352 356 355
f 352 353 357 356
f 353 350 354 357
o SD0043_T028_28hao
v -5.230 -130.967 0.000
v -14.084 -144.154 0.000
v -62.401 -134.394 0.000
v -59.455 -120.012 0.000
v -5.230 -130.967 8.880
v -14.084 -144.154 8.880
v -62.401 -134.394 8.880
v -59.455 -120.012 8.880
usemtl roof
f 362 363 364 365
usemtl teaching_building
f 361 360 359 358
f 358 359 363 362
f 359 360 364 363
f 360 361 365 364
f 361 358 362 365
o SD0043_T029_29hao
v -144.488 -192.361 0.000
v -147.173 -204.564 0.000
v -156.538 -201.303 0.000
v -207.235 -193.720 0.000
v -205.789 -183.407 0.000
v -171.343 -188.092 0.000
v -164.181 -159.267 0.000
v -182.147 -157.353 0.000
v -210.081 -144.917 0.000
v -209.120 -131.520 0.000
v -185.999 -142.043 0.000
v -162.949 -146.407 0.000
v -159.160 -116.928 0.000
v -149.732 -118.984 0.000
v -154.132 -148.076 0.000
v -145.539 -149.703 0.000
v -155.173 -160.227 0.000
v -155.892 -190.194 0.000
v -153.207 -187.807 0.000
v -144.488 -192.361 10.490
v -147.173 -204.564 10.490
v -156.538 -201.303 10.490
v -207.235 -193.720 10.490
v -205.789 -183.407 10.490
v -171.343 -188.092 10.490
v -164.181 -159.267 10.490
v -182.147 -157.353 10.490
v -210.081 -144.917 10.490
v -209.120 -131.520 10.490
v -185.999 -142.043 10.490
v -162.949 -146.407 10.490
v -159.160 -116.928 10.490
v -149.732 -118.984 10.490
v -154.132 -148.076 10.490
v -145.539 -149.703 10.490
v -155.173 -160.227 10.490
v -155.892 -190.194 10.490
v -153.207 -187.807 10.490
usemtl roof
f 385 386 387 388 389 390 391 392 393 394 395 396 397 398 399 400 401 402 403
usemtl teaching_building
f 384 383 382 381 380 379 378 377 376 375 374 373 372 371 370 369 368 367 366
f 366 367 386 385
f 367 368 387 386
f 368 369 388 387
f 369 370 389 388
f 370 371 390 389
f 371 372 391 390
f 372 373 392 391
f 373 374 393 392
f 374 375 394 393
f 375 376 395 394
f 376 377 396 395
f 377 378 397 396
f 378 379 398 397
f 379 380 399 398
f 380 381 400 399
f 381 382 401 400
f 382 383 402 401
f 383 384 403 402
f 384 366 385 403
o SD0043_T029_29hao_seg02
v -205.475 -106.825 0.000
v -201.497 -88.608 0.000
v -182.434 -98.711 0.000
v -137.942 -110.064 0.000
v -144.300 -120.167 0.000
v -205.475 -106.825 10.490
v -201.497 -88.608 10.490
v -182.434 -98.711 10.490
v -137.942 -110.064 10.490
v -144.300 -120.167 10.490
usemtl roof
f 409 410 411 412 413
usemtl teaching_building
f 408 407 406 405 404
f 404 405 410 409
f 405 406 411 410
f 406 407 412 411
f 407 408 413 412
f 408 404 409 413
o SD0043_T030_30hao
v 183.539 -144.442 0.000
v 178.879 -166.771 0.000
v 113.394 -153.274 0.000
v 118.054 -130.945 0.000
v 183.539 -144.442 11.030
v 178.879 -166.771 11.030
v 113.394 -153.274 11.030
v 118.054 -130.945 11.030
usemtl roof
f 418 419 420 421
usemtl teaching_building
f 417 416 415 414
f 414 415 419 418
f 415 416 420 419
f 416 417 421 420
f 417 414 418 421
o SD0043_T031_31hao
v -10.384 -170.352 0.000
v -14.290 -190.891 0.000
v -76.202 -179.251 0.000
v -72.287 -158.723 0.000
v -10.384 -170.352 11.030
v -14.290 -190.891 11.030
v -76.202 -179.251 11.030
v -72.287 -158.723 11.030
usemtl roof
f 426 427 428 429
usemtl teaching_building
f 425 424 423 422
f 422 423 427 426
f 423 424 428 427
f 424 425 429 428
f 425 422 426 429
o SD0043_T032_32hao
v -30.686 -207.892 0.000
v -40.644 -226.573 0.000
v -104.827 -214.491 0.000
v -97.078 -197.998 0.000
v -30.686 -207.892 9.160
v -40.644 -226.573 9.160
v -104.827 -214.491 9.160
v -97.078 -197.998 9.160
usemtl roof
f 434 435 436 437
usemtl teaching_building
f 433 432 431 430
f 430 431 435 434
f 431 432 436 435
f 432 433 437 436
f 433 430 434 437
