# school_id SD0013
# school_name 历城二中智轩学校（北校区）
# boundary_source footprint_convex_hull_buffer_20m
# adjacent_block_merge_distance_m 2.0
mtllib ../campus_materials.mtl
o SD0013_campus_boundary
usemtl campus_boundary
v 79.338 -75.007 0.050
v -25.962 -68.751 0.050
v -87.661 -65.084 0.050
v -79.338 75.007 0.050
v 87.661 65.085 0.050
v 79.338 -75.007 0.050
l 1 2 3 4 5 6 1
o SD0013_T001_1hao
v 63.038 -12.121 0.000
v 60.559 -53.856 0.000
v -24.776 -48.786 0.000
v -24.776 -48.786 0.000
v -66.510 -46.306 0.000
v -60.559 53.856 0.000
v 66.510 46.306 0.000
v 64.030 4.572 0.000
v -21.305 9.642 0.000
v -22.296 -7.051 0.000
v 63.038 -12.121 13.360
v 60.559 -53.856 13.360
v -24.776 -48.786 13.360
v -24.776 -48.786 13.360
v -66.510 -46.306 13.360
v -60.559 53.856 13.360
v 66.510 46.306 13.360
v 64.030 4.572 13.360
v -21.305 9.642 13.360
v -22.296 -7.051 13.360
usemtl roof
f 17 18 19 20 21 22 23 24 25 26
usemtl teaching_building
f 16 15 14 13 12 11 10 9 8 7
f 7 8 18 17
f 8 9 19 18
f 9 10 20 19
f 10 11 21 20
f 11 12 22 21
f 12 13 23 22
f 13 14 24 23
f 14 15 25 24
f 15 16 26 25
f 16 7 17 26
