# school_id SD0056
# school_name 平安街道办事处中心小学
# boundary_source footprint_convex_hull_buffer_20m
# adjacent_block_merge_distance_m 2.0
mtllib ../campus_materials.mtl
o SD0056_campus_boundary
usemtl campus_boundary
v 72.526 -109.604 0.050
v -114.254 -67.983 0.050
v -104.184 -4.678 0.050
v -4.961 62.738 0.050
v 41.109 86.750 0.050
v 119.017 67.774 0.050
v 72.526 -109.604 0.050
l 1 2 3 4 5 6 7 1
o SD0056_T001_1hao
v -85.791 -16.361 0.000
v -42.633 8.400 0.000
v -22.493 -14.460 0.000
v 4.360 -16.361 0.000
v 17.786 -2.079 0.000
v 18.743 15.066 0.000
v 5.316 45.541 0.000
v 43.683 65.538 0.000
v 94.511 53.158 0.000
v 58.066 -85.891 0.000
v -91.548 -52.552 0.000
v -85.791 -16.361 9.130
v -42.633 8.400 9.130
v -22.493 -14.460 9.130
v 4.360 -16.361 9.130
v 17.786 -2.079 9.130
v 18.743 15.066 9.130
v 5.316 45.541 9.130
v 43.683 65.538 9.130
v 94.511 53.158 9.130
v 58.066 -85.891 9.130
v -91.548 -52.552 9.130
usemtl roof
f 19 20 21 22 23 24 25 26 27 28 29
usemtl teaching_building
f 18 17 16 15 14 13 12 11 10 9 8
f 8 9 20 19
f 9 10 21 20
f 10 11 22 21
f 11 12 23 22
f 12 13 24 23
f 13 14 25 24
f 14 15 26 25
f 15 16 27 26
f 16 17 28 27
f 17 18 29 28
f 18 8 19 29
