# school_id SD0093
# school_name 济南市技师学院(高新校区)
# boundary_source footprint_convex_hull_buffer_20m
# adjacent_block_merge_distance_m 2.0
mtllib ../campus_materials.mtl
o SD0093_campus_boundary
usemtl campus_boundary
v 62.038 -221.235 0.050
v -88.758 -162.781 0.050
v -152.898 68.063 0.050
v -152.898 98.501 0.050
v -140.830 137.609 0.050
v -23.463 158.108 0.050
v 132.432 153.232 0.050
v 139.899 93.904 0.050
v 147.732 -24.285 0.050
v 153.813 -121.973 0.050
v 154.511 -220.505 0.050
v 62.038 -221.235 0.050
l 1 2 3 4 5 6 7 8 9 10 11 12 1
o SD0093_T001_1hao
v 48.730 120.478 0.000
v 116.158 119.063 0.000
v 114.723 133.776 0.000
v 48.249 134.251 0.000
v 48.730 120.478 15.770
v 116.158 119.063 15.770
v 114.723 133.776 15.770
v 48.249 134.251 15.770
usemtl roof
f 17 18 19 20
usemtl teaching_building
f 16 15 14 13
f 13 14 18 17
f 14 15 19 18
f 15 16 20 19
f 16 13 17 20
o SD0093_T002_2hao
v 15.257 115.736 0.000
v 42.036 115.736 0.000
v 42.517 132.825 0.000
v 14.304 133.776 0.000
v 15.257 115.736 13.320
v 42.036 115.736 13.320
v 42.517 132.825 13.320
v 14.304 133.776 13.320
usemtl roof
f 25 26 27 28
usemtl teaching_building
f 24 23 22 21
f 21 22 26 25
f 22 23 27 26
f 23 24 28 27
f 24 21 25 28
o SD0093_T003_3hao
v -22.040 138.054 0.000
v -23.475 132.350 0.000
v -35.429 131.875 0.000
v -35.910 125.231 0.000
v -92.338 124.280 0.000
v -125.329 120.014 0.000
v -122.940 112.408 0.000
v -1.002 113.359 0.000
v -1.956 137.103 0.000
v -22.040 138.054 11.820
v -23.475 132.350 11.820
v -35.429 131.875 11.820
v -35.910 125.231 11.820
v -92.338 124.280 11.820
v -125.329 120.014 11.820
v -122.940 112.408 11.820
v -1.002 113.359 11.820
v -1.956 137.103 11.820
usemtl roof
f 38 39 40 41 42 43 44 45 46
usemtl teaching_building
f 37 36 35 34 33 32 31 30 29
f 29 30 39 38
f 30 31 40 39
f 31 32 41 40
f 32 33 42 41
f 33 34 43 42
f 34 35 44 43
f 35 36 45 44
f 36 37 46 45
f 37 29 38 46
o SD0093_T004_4hao
v 68.814 79.644 0.000
v 119.982 79.644 0.000
v 119.982 91.992 0.000
v 68.333 92.942 0.000
v 68.814 79.644 12.400
v 119.982 79.644 12.400
v 119.982 91.992 12.400
v 68.333 92.942 12.400
usemtl roof
f 51 52 53 54
usemtl teaching_building
f 50 49 48 47
f 47 48 52 51
f 48 49 53 52
f 49 50 54 53
f 50 47 51 54
o SD0093_T005_5hao
v -104.452 95.009 0.000
v -104.684 89.317 0.000
v -98.952 88.841 0.000
v -99.425 62.489 0.000
v -126.444 63.196 0.000
v -126.684 71.033 0.000
v -132.898 70.790 0.000
v -132.898 95.485 0.000
v -104.452 95.009 16.150
v -104.684 89.317 16.150
v -98.952 88.841 16.150
v -99.425 62.489 16.150
v -126.444 63.196 16.150
v -126.684 71.033 16.150
v -132.898 70.790 16.150
v -132.898 95.485 16.150
usemtl roof
f 63 64 65 66 67 68 69 70
usemtl teaching_building
f 62 61 60 59 58 57 56 55
f 55 56 64 63
f 56 57 65 64
f 57 58 66 65
f 58 59 67 66
f 59 60 68 67
f 60 61 69 68
f 61 62 70 69
f 62 55 63 70
o SD0093_T006_6hao
v -38.460 62.245 0.000
v -0.200 61.295 0.000
v 0.041 94.534 0.000
v -38.219 94.777 0.000
v -38.460 62.245 13.580
v -0.200 61.295 13.580
v 0.041 94.534 13.580
v -38.219 94.777 13.580
usemtl roof
f 75 76 77 78
usemtl teaching_building
f 74 73 72 71
f 71 72 76 75
f 72 73 77 76
f 73 74 78 77
f 74 71 75 78
o SD0093_T007_7hao
v -58.776 87.647 0.000
v -58.776 79.578 0.000
v -93.924 81.236 0.000
v -94.647 61.770 0.000
v -78.146 61.538 0.000
v -78.146 69.132 0.000
v -58.303 68.657 0.000
v -58.062 61.770 0.000
v -42.997 61.063 0.000
v -42.997 87.415 0.000
v -58.776 87.647 13.910
v -58.776 79.578 13.910
v -93.924 81.236 13.910
v -94.647 61.770 13.910
v -78.146 61.538 13.910
v -78.146 69.132 13.910
v -58.303 68.657 13.910
v -58.062 61.770 13.910
v -42.997 61.063 13.910
v -42.997 87.415 13.910
usemtl roof
f 89 90 91 92 93 94 95 96 97 98
usemtl teaching_building
f 88 87 86 85 84 83 82 81 80 79
f 79 80 90 89
f 80 81 91 90
f 81 82 92 91
f 82 83 93 92
f 83 84 94 93
f 84 85 95 94
f 85 86 96 95
f 86 87 97 96
f 87 88 98 97
f 88 79 89 98
o SD0093_T008_8hao
v 71.212 58.432 0.000
v 38.238 59.526 0.000
v 37.695 4.975 0.000
v 72.844 4.975 0.000
v 72.844 -14.116 0.000
v 19.563 -14.116 0.000
v 21.212 74.250 0.000
v 71.212 73.587 0.000
v 71.212 58.432 18.330
v 38.238 59.526 18.330
v 37.695 4.975 18.330
v 72.844 4.975 18.330
v 72.844 -14.116 18.330
v 19.563 -14.116 18.330
v 21.212 74.250 18.330
v 71.212 73.587 18.330
usemtl roof
f 107 108 109 110 111 112 113 114
usemtl teaching_building
f 106 105 104 103 102 101 100 99
f 99 100 108 107
f 100 101 109 108
f 101 102 110 109
f 102 103 111 110
f 103 104 112 111
f 104 105 113 112
f 105 106 114 113
f 106 99 107 114
o SD0093_T009_9hao
v -32.068 46.980 0.000
v -37.016 45.885 0.000
v -39.209 39.883 0.000
v -37.560 34.975 0.000
v -33.174 33.881 0.000
v -33.388 29.017 0.000
v -40.047 29.702 0.000
v -46.527 22.374 0.000
v -46.608 14.061 0.000
v -40.680 5.361 0.000
v -34.270 5.218 0.000
v -34.654 1.703 0.000
v -39.209 -4.300 0.000
v -38.112 -10.302 0.000
v -33.174 -11.938 0.000
v -28.226 -8.666 0.000
v -28.779 -20.660 0.000
v -10.647 -20.118 0.000
v -9.551 -11.938 0.000
v -0.762 -11.938 0.000
v -1.314 -0.475 0.000
v -9.551 -0.475 0.000
v -9.551 6.069 0.000
v -5.156 8.799 0.000
v -4.060 14.249 0.000
v -5.156 21.335 0.000
v -8.900 24.618 0.000
v -8.998 32.798 0.000
v -0.209 32.245 0.000
v -0.762 44.249 0.000
v -9.551 44.791 0.000
v -8.455 52.429 0.000
v -30.419 52.971 0.000
v -32.068 46.980 21.270
v -37.016 45.885 21.270
v -39.209 39.883 21.270
v -37.560 34.975 21.270
v -33.174 33.881 21.270
v -33.388 29.017 21.270
v -40.047 29.702 21.270
v -46.527 22.374 21.270
v -46.608 14.061 21.270
v -40.680 5.361 21.270
v -34.270 5.218 21.270
v -34.654 1.703 21.270
v -39.209 -4.300 21.270
v -38.112 -10.302 21.270
v -33.174 -11.938 21.270
v -28.226 -8.666 21.270
v -28.779 -20.660 21.270
v -10.647 -20.118 21.270
v -9.551 -11.938 21.270
v -0.762 -11.938 21.270
v -1.314 -0.475 21.270
v -9.551 -0.475 21.270
v -9.551 6.069 21.270
v -5.156 8.799 21.270
v -4.060 14.249 21.270
v -5.156 21.335 21.270
v -8.900 24.618 21.270
v -8.998 32.798 21.270
v -0.209 32.245 21.270
v -0.762 44.249 21.270
v -9.551 44.791 21.270
v -8.455 52.429 21.270
v -30.419 52.971 21.270
usemtl roof
f 148 149 150 151 152 153 154 155 156 157 158 159 160 161 162 163 164 165 166 167 168 169 170 171 172 173 174 175 176 177 178 179 180
usemtl teaching_building
f 147 146 145 144 143 142 141 140 139 138 137 136 135 134 133 132 131 130 129 128 127 126 125 124 123 122 121 120 119 118 117 116 115
f 115 116 149 148
f 116 117 150 149
f 117 118 151 150
f 118 119 152 151
f 119 120 153 152
f 120 121 154 153
f 121 122 155 154
f 122 123 156 155
f 123 124 157 156
f 124 125 158 157
f 125 126 159 158
f 126 127 160 159
f 127 128 161 160
f 128 129 162 161
f 129 130 163 162
f 130 131 164 163
f 131 132 165 164
f 132 133 166 165
f 133 134 167 166
f 134 135 168 167
f 135 136 169 168
f 136 137 170 169
f 137 138 171 170
f 138 139 172 171
f 139 140 173 172
f 140 141 174 173
f 141 142 175 174
f 142 143 176 175
f 143 144 177 176
f 144 145 178 177
f 145 146 179 178
f 146 147 180 179
f 147 115 148 180
o SD0093_T010_10hao
v 127.773 -25.568 0.000
v 127.773 -96.479 0.000
v 72.300 -95.937 0.000
v 71.747 -73.022 0.000
v 100.308 -71.939 0.000
v 101.958 -25.026 0.000
v 127.773 -25.568 18.880
v 127.773 -96.479 18.880
v 72.300 -95.937 18.880
v 71.747 -73.022 18.880
v 100.308 -71.939 18.880
v 101.958 -25.026 18.880
usemtl roof
f 187 188 189 190 191 192
usemtl teaching_building
f 186 185 184 183 182 181
f 181 182 188 187
f 182 183 189 188
f 183 184 190 189
f 184 185 191 190
f 185 186 192 191
f 186 181 187 192
o SD0093_T011_11hao
v 5.282 -109.567 0.000
v 5.282 -82.297 0.000
v -5.700 -81.202 0.000
v -5.700 -86.110 0.000
v -37.560 -84.474 0.000
v -38.112 -65.384 0.000
v -22.735 -66.478 0.000
v -22.735 -71.386 0.000
v -5.156 -71.939 0.000
v -5.156 -56.121 0.000
v -11.200 -55.027 0.000
v -10.647 -46.847 0.000
v -0.209 -46.294 0.000
v -0.762 -39.208 0.000
v 16.817 -39.208 0.000
v 17.370 -34.300 0.000
v 31.098 -34.300 0.000
v 31.098 -51.755 0.000
v -0.209 -52.296 0.000
v 0.335 -77.389 0.000
v 30.554 -77.930 0.000
v 31.098 -73.575 0.000
v 43.730 -74.117 0.000
v 44.282 -91.029 0.000
v 15.721 -89.393 0.000
v 11.870 -87.757 0.000
v 11.870 -107.931 0.000
v 13.519 -111.756 0.000
v 44.835 -112.297 0.000
v 44.282 -129.210 0.000
v 13.519 -127.574 0.000
v 12.975 -122.113 0.000
v 5.835 -121.572 0.000
v 5.835 -128.657 0.000
v -38.112 -127.021 0.000
v -37.560 -107.389 0.000
v 5.282 -109.567 11.460
v 5.282 -82.297 11.460
v -5.700 -81.202 11.460
v -5.700 -86.110 11.460
v -37.560 -84.474 11.460
v -38.112 -65.384 11.460
v -22.735 -66.478 11.460
v -22.735 -71.386 11.460
v -5.156 -71.939 11.460
v -5.156 -56.121 11.460
v -11.200 -55.027 11.460
v -10.647 -46.847 11.460
v -0.209 -46.294 11.460
v -0.762 -39.208 11.460
v 16.817 -39.208 11.460
v 17.370 -34.300 11.460
v 31.098 -34.300 11.460
v 31.098 -51.755 11.460
v -0.209 -52.296 11.460
v 0.335 -77.389 11.460
v 30.554 -77.930 11.460
v 31.098 -73.575 11.460
v 43.730 -74.117 11.460
v 44.282 -91.029 11.460
v 15.721 -89.393 11.460
v 11.870 -87.757 11.460
v 11.870 -107.931 11.460
v 13.519 -111.756 11.460
v 44.835 -112.297 11.460
v 44.282 -129.210 11.460
v 13.519 -127.574 11.460
v 12.975 -122.113 11.460
v 5.835 -121.572 11.460
v 5.835 -128.657 11.460
v -38.112 -127.021 11.460
v -37.560 -107.389 11.460
usemtl roof
f 229 230 231 232 233 234 235 236 237 238 239 240 241 242 243 244 245 246 247 248 249 250 251 252 253 254 255 256 257 258 259 260 261 262 263 264
usemtl teaching_building
f 228 227 226 225 224 223 222 221 220 219 218 217 216 215 214 213 212 211 210 209 208 207 206 205 204 203 202 201 200 199 198 197 196 195 194 193
f 193 194 230 229
f 194 195 231 230
f 195 196 232 231
f 196 197 233 232
f 197 198 234 233
f 198 199 235 234
f 199 200 236 235
f 200 201 237 236
f 201 202 238 237
f 202 203 239 238
f 203 204 240 239
f 204 205 241 240
f 205 206 242 241
f 206 207 243 242
f 207 208 244 243
f 208 209 245 244
f 209 210 246 245
f 210 211 247 246
f 211 212 248 247
f 212 213 249 248
f 213 214 250 249
f 214 215 251 250
f 215 216 252 251
f 216 217 253 252
f 217 218 254 253
f 218 219 255 254
f 219 220 256 255
f 220 221 257 256
f 221 222 258 257
f 222 223 259 258
f 223 224 260 259
f 224 225 261 260
f 225 226 262 261
f 226 227 263 262
f 227 228 264 263
f 228 193 229 264
o SD0093_T012_12hao
v -72.174 -147.759 0.000
v -60.086 -147.759 0.000
v -61.735 -103.576 0.000
v -73.270 -104.117 0.000
v -72.174 -147.759 10.060
v -60.086 -147.759 10.060
v -61.735 -103.576 10.060
v -73.270 -104.117 10.060
usemtl roof
f 269 270 271 272
usemtl teaching_building
f 268 267 266 265
f 265 266 270 269
f 266 267 271 270
f 267 268 272 271
f 268 265 269 272
o SD0093_T013_13hao
v 66.800 -141.203 0.000
v 116.238 -141.203 0.000
v 116.238 -183.209 0.000
v 65.703 -181.573 0.000
v 65.703 -201.205 0.000
v 134.370 -200.663 0.000
v 133.817 -122.666 0.000
v 67.352 -121.572 0.000
v 66.800 -141.203 18.180
v 116.238 -141.203 18.180
v 116.238 -183.209 18.180
v 65.703 -181.573 18.180
v 65.703 -201.205 18.180
v 134.370 -200.663 18.180
v 133.817 -122.666 18.180
v 67.352 -121.572 18.180
usemtl roof
f 281 282 283 284 285 286 287 288
usemtl teaching_building
f 280 279 278 277 276 275 274 273
f 273 274 282 281
f 274 275 283 282
f 275 276 284 283
f 276 277 285 284
f 277 278 286 285
f 278 279 287 286
f 279 280 288 287
f 280 273 281 288
