# school_id SD0027
# school_name 山东师范大学附属中学
# boundary_source footprint_convex_hull_buffer_20m
# adjacent_block_merge_distance_m 2.0
mtllib ../campus_materials.mtl
o SD0027_campus_boundary
usemtl campus_boundary
v -101.281 -353.814 0.050
v -104.966 -320.140 0.050
v -138.749 84.712 0.050
v -24.587 102.297 0.050
v 50.223 109.996 0.050
v 165.741 120.805 0.050
v 171.902 82.154 0.050
v 177.832 32.533 0.050
v -57.008 -351.009 0.050
v -101.281 -353.814 0.050
l 1 2 3 4 5 6 7 8 9 10 1
o SD0027_T001_1hao
v 73.779 71.234 0.000
v 152.090 79.392 0.000
v 148.941 99.146 0.000
v 71.575 91.618 0.000
v 73.779 71.234 14.070
v 152.090 79.392 14.070
v 148.941 99.146 14.070
v 71.575 91.618 14.070
usemtl roof
f 15 16 17 18
usemtl teaching_building
f 14 13 12 11
f 11 12 16 15
f 12 13 17 16
f 13 14 18 17
f 14 11 15 18
o SD0027_T002_2hao
v -19.371 60.888 0.000
v 55.470 69.665 0.000
v 52.178 90.092 0.000
v -22.039 82.454 0.000
v -19.371 60.888 20.380
v 55.470 69.665 20.380
v 52.178 90.092 20.380
v -22.039 82.454 20.380
usemtl roof
f 23 24 25 26
usemtl teaching_building
f 22 21 20 19
f 19 20 24 23
f 20 21 25 24
f 21 22 26 25
f 22 19 23 26
o SD0027_T003_3hao
v -117.267 67.785 0.000
v -112.841 44.893 0.000
v -106.533 33.297 0.000
v -96.112 22.011 0.000
v -82.844 15.423 0.000
v -67.685 12.604 0.000
v -28.213 18.562 0.000
v -35.476 75.313 0.000
v -117.267 67.785 16.710
v -112.841 44.893 16.710
v -106.533 33.297 16.710
v -96.112 22.011 16.710
v -82.844 15.423 16.710
v -67.685 12.604 16.710
v -28.213 18.562 16.710
v -35.476 75.313 16.710
usemtl roof
f 35 36 37 38 39 40 41 42
usemtl teaching_building
f 34 33 32 31 30 29 28 27
f 27 28 36 35
f 28 29 37 36
f 29 30 38 37
f 30 31 39 38
f 31 32 40 39
f 32 33 41 40
f 33 34 42 41
f 34 27 35 42
o SD0027_T004_4hao
v 78.516 27.648 0.000
v 157.149 37.055 0.000
v 154.624 55.869 0.000
v 75.991 48.341 0.000
v 78.516 27.648 14.770
v 157.149 37.055 14.770
v 154.624 55.869 14.770
v 75.991 48.341 14.770
usemtl roof
f 47 48 49 50
usemtl teaching_building
f 46 45 44 43
f 43 44 48 47
f 44 45 49 48
f 45 46 50 49
f 46 43 47 50
o SD0027_T005_5hao
v -12.429 19.181 0.000
v 61.154 28.278 0.000
v 57.995 48.341 0.000
v -15.266 41.764 0.000
v -12.429 19.181 16.970
v 61.154 28.278 16.970
v 57.995 48.341 16.970
v -15.266 41.764 16.970
usemtl roof
f 55 56 57 58
usemtl teaching_building
f 54 53 52 51
f 51 52 56 55
f 52 53 57 56
f 53 54 58 57
f 54 51 55 58
