# school_id SD0080
# school_name 济南市历下区崇璟小学
# boundary_source footprint_convex_hull_buffer_20m
# adjacent_block_merge_distance_m 2.0
mtllib ../campus_materials.mtl
o SD0080_campus_boundary
usemtl campus_boundary
v -91.377 -53.248 0.050
v -92.953 6.904 0.050
v -94.040 48.393 0.050
v 91.377 53.248 0.050
v 92.953 -6.904 0.050
v 94.040 -48.393 0.050
v -91.377 -53.248 0.050
l 1 2 3 4 5 6 7 1
o SD0080_T001_1hao
v -54.857 29.411 0.000
v -54.294 7.917 0.000
v 53.806 10.748 0.000
v 53.243 32.242 0.000
v 71.908 32.731 0.000
v 72.634 5.024 0.000
v 72.960 -7.428 0.000
v 72.960 -7.428 0.000
v 73.523 -28.923 0.000
v 54.857 -29.411 0.000
v 54.294 -7.917 0.000
v -53.806 -10.748 0.000
v -53.243 -32.242 0.000
v -71.908 -32.731 0.000
v -72.634 -5.024 0.000
v -72.960 7.428 0.000
v -72.960 7.428 0.000
v -73.523 28.923 0.000
v -54.857 29.411 13.570
v -54.294 7.917 13.570
v 53.806 10.748 13.570
v 53.243 32.242 13.570
v 71.908 32.731 13.570
v 72.634 5.024 13.570
v 72.960 -7.428 13.570
v 72.960 -7.428 13.570
v 73.523 -28.923 13.570
v 54.857 -29.411 13.570
v 54.294 -7.917 13.570
v -53.806 -10.748 13.570
v -53.243 -32.242 13.570
v -71.908 -32.731 13.570
v -72.634 -5.024 13.570
v -72.960 7.428 13.570
v -72.960 7.428 13.570
v -73.523 28.923 13.570
usemtl roof
f 26 27 28 29 30 31 32 33 34 35 36 37 38 39 40 41 42 43
usemtl teaching_building
f 25 24 23 22 21 20 19 18 17 16 15 14 13 12 11 10 9 8
f 8 9 27 26
f 9 10 28 27
f 10 11 29 28
f 11 12 30 29
f 12 13 31 30
f 13 14 32 31
f 14 15 33 32
f 15 16 34 33
f 16 17 35 34
f 17 18 36 35
f 18 19 37 36
f 19 20 38 37
f 20 21 39 38
f 21 22 40 39
f 22 23 41 40
f 23 24 42 41
f 24 25 43 42
f 25 8 26 43
