# school_id SD0038
# school_name 山东省实验小学
# boundary_source footprint_convex_hull_buffer_20m
# adjacent_block_merge_distance_m 2.0
mtllib ../campus_materials.mtl
o SD0038_campus_boundary
usemtl campus_boundary
v 46.746 -107.698 0.050
v -44.827 -92.506 0.050
v -47.675 7.345 0.050
v -47.463 27.166 0.050
v -40.647 51.205 0.050
v 9.829 55.459 0.050
v 46.771 55.315 0.050
v 56.591 5.875 0.050
v 56.591 -7.414 0.050
v 51.726 -78.075 0.050
v 46.746 -107.698 0.050
l 1 2 3 4 5 6 7 8 9 10 11 1
o SD0038_T001_1hao
v -6.257 -7.809 0.000
v -5.891 -2.758 0.000
v -12.062 -2.758 0.000
v -11.883 3.554 0.000
v -6.432 3.594 0.000
v -10.427 3.565 0.000
v -10.606 7.876 0.000
v -27.672 7.523 0.000
v -27.493 24.281 0.000
v -24.971 24.281 0.000
v -25.180 32.438 0.000
v 8.630 33.301 0.000
v 10.631 35.456 0.000
v 30.340 35.379 0.000
v 30.304 26.922 0.000
v 12.988 26.989 0.000
v 10.631 23.562 0.000
v -5.534 23.155 0.000
v -5.712 3.599 0.000
v 36.591 3.908 0.000
v 36.591 -6.726 0.000
v -6.257 -7.809 22.260
v -5.891 -2.758 22.260
v -12.062 -2.758 22.260
v -11.883 3.554 22.260
v -6.432 3.594 22.260
v -10.427 3.565 22.260
v -10.606 7.876 22.260
v -27.672 7.523 22.260
v -27.493 24.281 22.260
v -24.971 24.281 22.260
v -25.180 32.438 22.260
v 8.630 33.301 22.260
v 10.631 35.456 22.260
v 30.340 35.379 22.260
v 30.304 26.922 22.260
v 12.988 26.989 22.260
v 10.631 23.562 22.260
v -5.534 23.155 22.260
v -5.712 3.599 22.260
v 36.591 3.908 22.260
v 36.591 -6.726 22.260
usemtl roof
f 33 34 35 36 37 38 39 40 41 42 43 44 45 46 47 48 49 50 51 52 53
usemtl teaching_building
f 32 31 30 29 28 27 26 25 24 23 22 21 20 19 18 17 16 15 14 13 12
f 12 13 34 33
f 13 14 35 34
f 14 15 36 35
f 15 16 37 36
f 16 17 38 37
f 17 18 39 38
f 18 19 40 39
f 19 20 41 40
f 20 21 42 41
f 21 22 43 42
f 22 23 44 43
f 23 24 45 44
f 24 25 46 45
f 25 26 47 46
f 26 27 48 47
f 27 28 49 48
f 28 29 50 49
f 29 30 51 50
f 30 31 52 51
f 31 32 53 52
f 32 12 33 53
o SD0038_T002_2hao
v 31.840 -75.725 0.000
v 30.331 -84.701 0.000
v -25.305 -75.471 0.000
v -23.796 -66.517 0.000
v 31.840 -75.725 18.380
v 30.331 -84.701 18.380
v -25.305 -75.471 18.380
v -23.796 -66.517 18.380
usemtl roof
f 58 59 60 61
usemtl teaching_building
f 57 56 55 54
f 54 55 59 58
f 55 56 60 59
f 56 57 61 60
f 57 54 58 61
