# school_id SD0097
# school_name 济南市棋盘街小学
# boundary_source footprint_convex_hull_buffer_20m
# adjacent_block_merge_distance_m 2.0
mtllib ../campus_materials.mtl
o SD0097_campus_boundary
usemtl campus_boundary
v -48.301 -46.110 0.050
v -57.237 16.427 0.050
v 24.510 45.052 0.050
v 55.088 49.363 0.050
v 64.655 -17.535 0.050
v -12.673 -41.076 0.050
v -48.301 -46.110 0.050
l 1 2 3 4 5 6 7 1
o SD0097_T001_1hao
v 38.115 26.772 0.000
v 42.429 -3.395 0.000
v -18.369 -11.962 0.000
v -17.011 -21.490 0.000
v -31.327 -23.513 0.000
v -35.113 2.983 0.000
v -20.798 4.995 0.000
v -19.565 -3.627 0.000
v 32.382 3.713 0.000
v 29.257 25.523 0.000
v 38.115 26.772 25.000
v 42.429 -3.395 25.000
v -18.369 -11.962 25.000
v -17.011 -21.490 25.000
v -31.327 -23.513 25.000
v -35.113 2.983 25.000
v -20.798 4.995 25.000
v -19.565 -3.627 25.000
v 32.382 3.713 25.000
v 29.257 25.523 25.000
usemtl roof
f 18 19 20 21 22 23 24 25 26 27
usemtl teaching_building
f 17 16 15 14 13 12 11 10 9 8
f 8 9 19 18
f 9 10 20 19
f 10 11 21 20
f 11 12 22 21
f 12 13 23 22
f 13 14 24 23
f 14 15 25 24
f 15 16 26 25
f 16 17 27 26
f 17 8 18 27
