# school_id SD0090
# school_name 济南市影壁后街学校
# boundary_source footprint_convex_hull_buffer_20m
# adjacent_block_merge_distance_m 2.0
mtllib ../campus_materials.mtl
o SD0090_campus_boundary
usemtl campus_boundary
v 29.112 -52.032 0.050
v -3.010 -45.874 0.050
v -57.549 5.481 0.050
v -51.628 44.600 0.050
v 21.594 31.929 0.050
v 41.408 5.899 0.050
v 29.112 -52.032 0.050
l 1 2 3 4 5 6 7 1
o SD0090_T001_1hao
v 10.324 3.558 0.000
v -36.205 12.854 0.000
v -34.910 21.410 0.000
v 10.440 13.562 0.000
v 10.324 3.558 18.360
v -36.205 12.854 18.360
v -34.910 21.410 18.360
v 10.440 13.562 18.360
usemtl roof
f 12 13 14 15
usemtl teaching_building
f 11 10 9 8
f 8 9 13 12
f 9 10 14 13
f 10 11 15 14
f 11 8 12 15
o SD0090_T001_1hao_seg02
v 13.619 -28.698 0.000
v 6.467 -27.327 0.000
v 10.324 3.558 0.000
v 19.940 1.082 0.000
v 13.619 -28.698 18.360
v 6.467 -27.327 18.360
v 10.324 3.558 18.360
v 19.940 1.082 18.360
usemtl roof
f 20 21 22 23
usemtl teaching_building
f 19 18 17 16
f 16 17 21 20
f 17 18 22 21
f 18 19 23 22
f 19 16 20 23
