# school_id SD0073
# school_name 济南回民中学
# boundary_source footprint_convex_hull_buffer_20m
# adjacent_block_merge_distance_m 2.0
mtllib ../campus_materials.mtl
o SD0073_campus_boundary
usemtl campus_boundary
v -55.070 -45.587 0.050
v -63.875 31.835 0.050
v -65.336 65.865 0.050
v 21.656 69.539 0.050
v 60.116 -5.926 0.050
v 61.118 -42.469 0.050
v -55.070 -45.587 0.050
l 1 2 3 4 5 6 7 1
o SD0073_T001_1hao
v -43.924 33.396 0.000
v 10.240 35.695 0.000
v 9.668 49.015 0.000
v -44.496 46.727 0.000
v -43.924 33.396 22.050
v 10.240 35.695 22.050
v 9.668 49.015 22.050
v -44.496 46.727 22.050
usemtl roof
f 12 13 14 15
usemtl teaching_building
f 11 10 9 8
f 8 9 13 12
f 9 10 14 13
f 10 11 15 14
f 11 8 12 15
o SD0073_T002_2hao
v -37.271 -25.102 0.000
v 40.577 -23.013 0.000
v 40.247 -10.986 0.000
v 36.353 -11.085 0.000
v 36.237 -6.995 0.000
v 24.056 -7.327 0.000
v 24.208 -12.865 0.000
v 8.802 -13.285 0.000
v 8.597 -5.846 0.000
v -10.944 -6.376 0.000
v -10.765 -12.876 0.000
v -26.849 -13.318 0.000
v -27.001 -7.736 0.000
v -37.735 -8.023 0.000
v -37.271 -25.102 21.550
v 40.577 -23.013 21.550
v 40.247 -10.986 21.550
v 36.353 -11.085 21.550
v 36.237 -6.995 21.550
v 24.056 -7.327 21.550
v 24.208 -12.865 21.550
v 8.802 -13.285 21.550
v 8.597 -5.846 21.550
v -10.944 -6.376 21.550
v -10.765 -12.876 21.550
v -26.849 -13.318 21.550
v -27.001 -7.736 21.550
v -37.735 -8.023 21.550
usemtl roof
f 30 31 32 33 34 35 36 37 38 39 40 41 42 43
usemtl teaching_building
f 29 28 27 26 25 24 23 22 21 20 19 18 17 16
f 16 17 31 30
f 17 18 32 31
f 18 19 33 32
f 19 20 34 33
f 20 21 35 34
f 21 22 36 35
f 22 23 37 36
f 23 24 38 37
f 24 25 39 38
f 25 26 40 39
f 26 27 41 40
f 27 28 42 41
f 28 29 43 42
f 29 16 30 43
