# school_id SD0032
# school_name 山东师范大学齐鲁实验学校
# boundary_source footprint_convex_hull_buffer_20m
# adjacent_block_merge_distance_m 2.0
mtllib ../campus_materials.mtl
o SD0032_campus_boundary
usemtl campus_boundary
v -67.999 -91.369 0.050
v -69.297 -51.355 0.050
v -37.757 85.134 0.050
v 0.664 101.793 0.050
v 40.408 102.473 0.050
v 50.904 -50.154 0.050
v 52.116 -88.116 0.050
v -2.552 -89.845 0.050
v -67.999 -91.369 0.050
l 1 2 3 4 5 6 7 8 9 1
o SD0032_T001_1hao
v -20.231 52.858 0.000
v 11.056 53.400 0.000
v 10.958 59.347 0.000
v 22.142 59.535 0.000
v 21.758 82.151 0.000
v 4.977 81.864 0.000
v 5.165 71.241 0.000
v -20.543 70.799 0.000
v -20.231 52.858 21.140
v 11.056 53.400 21.140
v 10.958 59.347 21.140
v 22.142 59.535 21.140
v 21.758 82.151 21.140
v 4.977 81.864 21.140
v 5.165 71.241 21.140
v -20.543 70.799 21.140
usemtl roof
f 18 19 20 21 22 23 24 25
usemtl teaching_building
f 17 16 15 14 13 12 11 10
f 10 11 19 18
f 11 12 20 19
f 12 13 21 20
f 13 14 22 21
f 14 15 23 22
f 15 16 24 23
f 16 17 25 24
f 17 10 18 25
o SD0032_T002_2hao
v -16.856 4.575 0.000
v 25.847 5.171 0.000
v 25.606 22.128 0.000
v -17.098 21.520 0.000
v -16.856 4.575 18.810
v 25.847 5.171 18.810
v 25.606 22.128 18.810
v -17.098 21.520 18.810
usemtl roof
f 30 31 32 33
usemtl teaching_building
f 29 28 27 26
f 26 27 31 30
f 27 28 32 31
f 28 29 33 32
f 29 26 30 33
o SD0032_T003_3hao
v -16.696 -32.854 0.000
v 26.007 -32.246 0.000
v 25.766 -15.301 0.000
v -16.937 -15.909 0.000
v -16.696 -32.854 16.800
v 26.007 -32.246 16.800
v 25.766 -15.301 16.800
v -16.937 -15.909 16.800
usemtl roof
f 38 39 40 41
usemtl teaching_building
f 37 36 35 34
f 34 35 39 38
f 35 36 40 39
f 36 37 41 40
f 37 34 38 41
o SD0032_T004_4hao
v -3.101 -69.852 0.000
v 31.488 -68.758 0.000
v 30.926 -51.160 0.000
v -3.663 -52.254 0.000
v -3.101 -69.852 17.780
v 31.488 -68.758 17.780
v 30.926 -51.160 17.780
v -3.663 -52.254 17.780
usemtl roof
f 46 47 48 49
usemtl teaching_building
f 45 44 43 42
f 42 43 47 46
f 43 44 48 47
f 44 45 49 48
f 45 42 46 49
o SD0032_T005_5hao
v -48.652 -70.913 0.000
v -14.063 -69.819 0.000
v -14.634 -52.210 0.000
v -49.223 -53.315 0.000
v -48.652 -70.913 19.040
v -14.063 -69.819 19.040
v -14.634 -52.210 19.040
v -49.223 -53.315 19.040
usemtl roof
f 54 55 56 57
usemtl teaching_building
f 53 52 51 50
f 50 51 55 54
f 51 52 56 55
f 52 53 57 56
f 53 50 54 57
