# school_id SD0021
# school_name 山东华兴技工学校
# boundary_source footprint_convex_hull_buffer_20m
# adjacent_block_merge_distance_m 2.0
mtllib ../campus_materials.mtl
o SD0021_campus_boundary
usemtl campus_boundary
v -38.967 -75.748 0.050
v -38.967 -44.940 0.050
v -12.290 119.296 0.050
v 33.100 123.108 0.050
v 34.216 -73.205 0.050
v -38.967 -75.748 0.050
l 1 2 3 4 5 6 1
o SD0021_T001_1hao
v 14.106 -53.892 0.000
v 13.223 101.368 0.000
v 4.947 100.673 0.000
v 5.658 -46.554 0.000
v -18.967 -46.554 0.000
v -18.967 -55.041 0.000
v 14.106 -53.892 9.900
v 13.223 101.368 9.900
v 4.947 100.673 9.900
v 5.658 -46.554 9.900
v -18.967 -46.554 9.900
v -18.967 -55.041 9.900
usemtl roof
f 13 14 15 16 17 18
usemtl teaching_building
f 12 11 10 9 8 7
f 7 8 14 13
f 8 9 15 14
f 9 10 16 15
f 10 11 17 16
f 11 12 18 17
f 12 7 13 18
