# school_id SD0029
# school_name 山东师范大学附属小学
# boundary_source footprint_convex_hull_buffer_20m
# adjacent_block_merge_distance_m 2.0
mtllib ../campus_materials.mtl
o SD0029_campus_boundary
usemtl campus_boundary
v -44.757 -67.459 0.050
v -49.305 -29.562 0.050
v -52.807 31.982 0.050
v -40.760 77.760 0.050
v 31.032 80.096 0.050
v 57.235 71.353 0.050
v 58.232 41.422 0.050
v 56.753 -62.787 0.050
v -44.757 -67.459 0.050
l 1 2 3 4 5 6 7 8 9 1
o SD0029_T001_1hao
v 28.101 59.990 0.000
v 28.217 56.475 0.000
v 37.709 56.784 0.000
v 38.227 41.231 0.000
v -24.578 39.186 0.000
v -25.212 58.255 0.000
v 28.101 59.990 16.560
v 28.217 56.475 16.560
v 37.709 56.784 16.560
v 38.227 41.231 16.560
v -24.578 39.186 16.560
v -25.212 58.255 16.560
usemtl roof
f 16 17 18 19 20 21
usemtl teaching_building
f 15 14 13 12 11 10
f 10 11 17 16
f 11 12 18 17
f 12 13 19 18
f 13 14 20 19
f 14 15 21 20
f 15 10 16 21
o SD0029_T002_2hao
v -29.373 -27.801 0.000
v -32.659 29.956 0.000
v -22.470 30.531 0.000
v -19.184 -27.237 0.000
v -29.373 -27.801 22.180
v -32.659 29.956 22.180
v -22.470 30.531 22.180
v -19.184 -27.237 22.180
usemtl roof
f 26 27 28 29
usemtl teaching_building
f 25 24 23 22
f 22 23 27 26
f 23 24 28 27
f 24 25 29 28
f 25 22 26 29
o SD0029_T003_3hao
v 37.022 -43.674 0.000
v -27.114 -46.626 0.000
v -27.605 -36.169 0.000
v -14.960 -35.583 0.000
v -15.103 -32.432 0.000
v 6.160 -31.449 0.000
v 5.927 -26.485 0.000
v 20.983 -25.789 0.000
v 20.582 -17.277 0.000
v 35.763 -16.581 0.000
v 37.022 -43.674 18.550
v -27.114 -46.626 18.550
v -27.605 -36.169 18.550
v -14.960 -35.583 18.550
v -15.103 -32.432 18.550
v 6.160 -31.449 18.550
v 5.927 -26.485 18.550
v 20.983 -25.789 18.550
v 20.582 -17.277 18.550
v 35.763 -16.581 18.550
usemtl roof
f 40 41 42 43 44 45 46 47 48 49
usemtl teaching_building
f 39 38 37 36 35 34 33 32 31 30
f 30 31 41 40
f 31 32 42 41
f 32 33 43 42
f 33 34 44 43
f 34 35 45 44
f 35 36 46 45
f 36 37 47 46
f 37 38 48 47
f 38 39 49 48
f 39 30 40 49
