# school_id SD0022
# school_name 山东大学第一附属小学
# boundary_source footprint_convex_hull_buffer_20m
# adjacent_block_merge_distance_m 2.0
mtllib ../campus_materials.mtl
o SD0022_campus_boundary
usemtl campus_boundary
v -159.628 -68.157 0.050
v -234.265 -64.027 0.050
v -238.017 -12.361 0.050
v 57.388 59.041 0.050
v 86.846 60.772 0.050
v 102.946 37.136 0.050
v 123.905 3.098 0.050
v 125.770 -27.956 0.050
v -60.275 -58.438 0.050
v -159.628 -68.157 0.050
l 1 2 3 4 5 6 7 8 9 10 1
o SD0022_T001_1hao
v 76.700 40.141 0.000
v 86.157 26.257 0.000
v 79.442 21.758 0.000
v 73.788 30.049 0.000
v 70.368 29.850 0.000
v 71.208 15.712 0.000
v 90.891 16.873 0.000
v 91.257 10.793 0.000
v 72.494 9.699 0.000
v 73.369 -4.937 0.000
v 104.242 -3.113 0.000
v 104.724 -11.138 0.000
v 66.769 -13.371 0.000
v 64.277 28.324 0.000
v 61.009 28.126 0.000
v 60.348 39.180 0.000
v 76.700 40.141 26.650
v 86.157 26.257 26.650
v 79.442 21.758 26.650
v 73.788 30.049 26.650
v 70.368 29.850 26.650
v 71.208 15.712 26.650
v 90.891 16.873 26.650
v 91.257 10.793 26.650
v 72.494 9.699 26.650
v 73.369 -4.937 26.650
v 104.242 -3.113 26.650
v 104.724 -11.138 26.650
v 66.769 -13.371 26.650
v 64.277 28.324 26.650
v 61.009 28.126 26.650
v 60.348 39.180 26.650
usemtl roof
f 27 28 29 30 31 32 33 34 35 36 37 38 39 40 41 42
usemtl teaching_building
f 26 25 24 23 22 21 20 19 18 17 16 15 14 13 12 11
f 11 12 28 27
f 12 13 29 28
f 13 14 30 29
f 14 15 31 30
f 15 16 32 31
f 16 17 33 32
f 17 18 34 33
f 18 19 35 34
f 19 20 36 35
f 20 21 37 36
f 21 22 38 37
f 22 23 39 38
f 23 24 40 39
f 24 25 41 40
f 25 26 42 41
f 26 11 27 42
o SD0022_T002_2hao
v -160.052 -48.103 0.000
v -62.868 -38.596 0.000
v -65.351 -14.289 0.000
v -161.829 -22.391 0.000
v -160.052 -48.103 14.390
v -62.868 -38.596 14.390
v -65.351 -14.289 14.390
v -161.829 -22.391 14.390
usemtl roof
f 47 48 49 50
usemtl teaching_building
f 46 45 44 43
f 43 44 48 47
f 44 45 49 48
f 45 46 50 49
f 46 43 47 50
o SD0022_T003_3hao
v -215.592 -45.030 0.000
v -181.628 -42.587 0.000
v -182.879 -25.387 0.000
v -216.842 -27.819 0.000
v -215.592 -45.030 14.780
v -181.628 -42.587 14.780
v -182.879 -25.387 14.780
v -216.842 -27.819 14.780
usemtl roof
f 55 56 57 58
usemtl teaching_building
f 54 53 52 51
f 51 52 56 55
f 52 53 57 56
f 53 54 58 57
f 54 51 55 58
