# school_id SD0051
# school_name 山东省济阳区第一中学
# boundary_source footprint_convex_hull_buffer_20m
# adjacent_block_merge_distance_m 2.0
mtllib ../campus_materials.mtl
o SD0051_campus_boundary
usemtl campus_boundary
v -42.519 -46.307 0.050
v -44.552 43.428 0.050
v 16.451 45.186 0.050
v 40.957 45.737 0.050
v 42.958 -43.318 0.050
v -15.269 -45.714 0.050
v -42.519 -46.307 0.050
l 1 2 3 4 5 6 7 1
o SD0051_T001_1hao
v -17.908 24.153 0.000
v -17.837 20.980 0.000
v 17.044 21.776 0.000
v 16.964 25.192 0.000
v 21.411 25.292 0.000
v 22.522 -24.142 0.000
v 18.440 -24.241 0.000
v 18.351 -20.328 0.000
v -16.005 -21.091 0.000
v -15.898 -25.723 0.000
v -22.977 -25.877 0.000
v -24.107 24.009 0.000
v -17.908 24.153 11.620
v -17.837 20.980 11.620
v 17.044 21.776 11.620
v 16.964 25.192 11.620
v 21.411 25.292 11.620
v 22.522 -24.142 11.620
v 18.440 -24.241 11.620
v 18.351 -20.328 11.620
v -16.005 -21.091 11.620
v -15.898 -25.723 11.620
v -22.977 -25.877 11.620
v -24.107 24.009 11.620
usemtl roof
f 20 21 22 23 24 25 26 27 28 29 30 31
usemtl teaching_building
f 19 18 17 16 15 14 13 12 11 10 9 8
f 8 9 21 20
f 9 10 22 21
f 10 11 23 22
f 11 12 24 23
f 12 13 25 24
f 13 14 26 25
f 14 15 27 26
f 15 16 28 27
f 16 17 29 28
f 17 18 30 29
f 18 19 31 30
f 19 8 20 31
