# school_id SD0020
# school_name 天成路小学
# boundary_source footprint_convex_hull_buffer_20m
# adjacent_block_merge_distance_m 2.0
mtllib ../campus_materials.mtl
o SD0020_campus_boundary
usemtl campus_boundary
v 24.782 -69.006 0.050
v -40.124 -66.141 0.050
v -38.461 -28.909 0.050
v -26.515 79.606 0.050
v 37.256 76.939 0.050
v 35.535 36.367 0.050
v 24.782 -69.006 0.050
l 1 2 3 4 5 6 7 1
o SD0020_T001_1hao
v 16.426 57.793 0.000
v 15.578 37.807 0.000
v -9.528 38.857 0.000
v -8.680 58.843 0.000
v 16.426 57.793 17.570
v 15.578 37.807 17.570
v -9.528 38.857 17.570
v -8.680 58.843 17.570
usemtl roof
f 12 13 14 15
usemtl teaching_building
f 11 10 9 8
f 8 9 13 12
f 9 10 14 13
f 10 11 15 14
f 11 8 12 15
o SD0020_T002_2hao
v -10.171 10.824 0.000
v -12.188 -19.795 0.000
v -2.671 -20.414 0.000
v -0.653 10.205 0.000
v -10.171 10.824 9.110
v -12.188 -19.795 9.110
v -2.671 -20.414 9.110
v -0.653 10.205 9.110
usemtl roof
f 20 21 22 23
usemtl teaching_building
f 19 18 17 16
f 16 17 21 20
f 17 18 22 21
f 18 19 23 22
f 19 16 20 23
o SD0020_T003_3hao
v 12.078 10.227 0.000
v 9.257 -21.674 0.000
v 0.445 -20.912 0.000
v 2.516 2.490 0.000
v 5.123 2.269 0.000
v 5.882 10.769 0.000
v 12.078 10.227 9.110
v 9.257 -21.674 9.110
v 0.445 -20.912 9.110
v 2.516 2.490 9.110
v 5.123 2.269 9.110
v 5.882 10.769 9.110
usemtl roof
f 30 31 32 33 34 35
usemtl teaching_building
f 29 28 27 26 25 24
f 24 25 31 30
f 25 26 32 31
f 26 27 33 32
f 27 28 34 33
f 28 29 35 34
f 29 24 30 35
o SD0020_T004_4hao
v -18.510 -30.451 0.000
v -19.251 -47.043 0.000
v 6.802 -48.193 0.000
v 7.543 -31.601 0.000
v -18.510 -30.451 20.650
v -19.251 -47.043 20.650
v 6.802 -48.193 20.650
v 7.543 -31.601 20.650
usemtl roof
f 40 41 42 43
usemtl teaching_building
f 39 38 37 36
f 36 37 41 40
f 37 38 42 41
f 38 39 43 42
f 39 36 40 43
