# school_id SD0046
# school_name 山东省济南第十一中学
# boundary_source footprint_convex_hull_buffer_20m
# adjacent_block_merge_distance_m 2.0
mtllib ../campus_materials.mtl
o SD0046_campus_boundary
usemtl campus_boundary
v -75.820 -102.240 0.050
v -104.464 5.519 0.050
v 22.762 95.186 0.050
v 96.648 88.135 0.050
v 88.741 19.527 0.050
v 69.143 -9.790 0.050
v 4.969 -74.244 0.050
v -75.820 -102.240 0.050
l 1 2 3 4 5 6 7 8 1
o SD0046_T001_1hao
v 28.232 74.573 0.000
v 74.444 70.163 0.000
v 69.426 26.621 0.000
v 53.597 2.943 0.000
v 35.419 -5.557 0.000
v 29.910 12.748 0.000
v 49.070 33.198 0.000
v 48.588 39.388 0.000
v 20.572 38.670 0.000
v 11.715 62.922 0.000
v 28.232 74.573 27.630
v 74.444 70.163 27.630
v 69.426 26.621 27.630
v 53.597 2.943 27.630
v 35.419 -5.557 27.630
v 29.910 12.748 27.630
v 49.070 33.198 27.630
v 48.588 39.388 27.630
v 20.572 38.670 27.630
v 11.715 62.922 27.630
usemtl roof
f 19 20 21 22 23 24 25 26 27 28
usemtl teaching_building
f 18 17 16 15 14 13 12 11 10 9
f 9 10 20 19
f 10 11 21 20
f 11 12 22 21
f 12 13 23 22
f 13 14 24 23
f 14 15 25 24
f 15 16 26 25
f 16 17 27 26
f 17 18 28 27
f 18 9 19 28
o SD0046_T002_2hao
v -67.326 -56.339 0.000
v -81.557 -2.805 0.000
v 14.590 29.639 0.000
v 18.893 16.087 0.000
v -51.987 -8.652 0.000
v -47.434 -26.007 0.000
v -34.265 -21.961 0.000
v -28.515 -43.362 0.000
v -67.326 -56.339 29.870
v -81.557 -2.805 29.870
v 14.590 29.639 29.870
v 18.893 16.087 29.870
v -51.987 -8.652 29.870
v -47.434 -26.007 29.870
v -34.265 -21.961 29.870
v -28.515 -43.362 29.870
usemtl roof
f 37 38 39 40 41 42 43 44
usemtl teaching_building
f 36 35 34 33 32 31 30 29
f 29 30 38 37
f 30 31 39 38
f 31 32 40 39
f 32 33 41 40
f 33 34 42 41
f 34 35 43 42
f 35 36 44 43
f 36 29 37 44
o SD0046_T003_3hao
v -62.023 -76.292 0.000
v -5.945 -56.859 0.000
v -10.079 -45.274 0.000
v -65.326 -63.845 0.000
v -62.023 -76.292 16.370
v -5.945 -56.859 16.370
v -10.079 -45.274 16.370
v -65.326 -63.845 16.370
usemtl roof
f 49 50 51 52
usemtl teaching_building
f 48 47 46 45
f 45 46 50 49
f 46 47 51 50
f 47 48 52 51
f 48 45 49 52
