# school_id SD0016
# school_name 历城区文华小学
# boundary_source footprint_convex_hull_buffer_20m
# adjacent_block_merge_distance_m 2.0
mtllib ../campus_materials.mtl
o SD0016_campus_boundary
usemtl campus_boundary
v -62.223 -39.461 0.050
v -65.248 24.114 0.050
v -4.988 26.933 0.050
v 61.649 29.360 0.050
v 64.608 -33.540 0.050
v -62.223 -39.461 0.050
l 1 2 3 4 5 6 1
o SD0016_T001_1hao
v -43.195 -18.551 0.000
v 43.690 -14.495 0.000
v 42.601 8.653 0.000
v 4.572 6.884 0.000
v 4.759 2.949 0.000
v -3.952 2.540 0.000
v -4.157 6.950 0.000
v -44.319 5.071 0.000
v -43.195 -18.551 13.730
v 43.690 -14.495 13.730
v 42.601 8.653 13.730
v 4.572 6.884 13.730
v 4.759 2.949 13.730
v -3.952 2.540 13.730
v -4.157 6.950 13.730
v -44.319 5.071 13.730
usemtl roof
f 15 16 17 18 19 20 21 22
usemtl teaching_building
f 14 13 12 11 10 9 8 7
f 7 8 16 15
f 8 9 17 16
f 9 10 18 17
f 10 11 19 18
f 11 12 20 19
f 12 13 21 20
f 13 14 22 21
f 14 7 15 22
