# school_id SD0059
# school_name 景山小学
# boundary_source footprint_convex_hull_buffer_20m
# adjacent_block_merge_distance_m 2.0
mtllib ../campus_materials.mtl
o SD0059_campus_boundary
usemtl campus_boundary
v 105.842 -283.022 0.050
v 70.215 -280.712 0.050
v -130.799 39.375 0.050
v -166.887 173.749 0.050
v -166.887 202.469 0.050
v -143.389 231.802 0.050
v -45.017 232.747 0.050
v 221.929 -153.233 0.050
v 231.258 -179.378 0.050
v 249.153 -233.616 0.050
v 172.890 -260.441 0.050
v 105.842 -283.022 0.050
l 1 2 3 4 5 6 7 8 9 10 11 12 1
o SD0059_T001_1hao
v -146.887 195.446 0.000
v -146.887 176.388 0.000
v -129.575 142.011 0.000
v -114.139 149.118 0.000
v -130.701 184.237 0.000
v -129.575 196.573 0.000
v -55.432 197.325 0.000
v -55.432 212.646 0.000
v -133.711 211.894 0.000
v -146.887 195.446 14.220
v -146.887 176.388 14.220
v -129.575 142.011 14.220
v -114.139 149.118 14.220
v -130.701 184.237 14.220
v -129.575 196.573 14.220
v -55.432 197.325 14.220
v -55.432 212.646 14.220
v -133.711 211.894 14.220
usemtl roof
f 22 23 24 25 26 27 28 29 30
usemtl teaching_building
f 21 20 19 18 17 16 15 14 13
f 13 14 23 22
f 14 15 24 23
f 15 16 25 24
f 16 17 26 25
f 17 18 27 26
f 18 19 28 27
f 19 20 29 28
f 20 21 30 29
f 21 13 22 30
o SD0059_T002_2hao
v -105.358 163.798 0.000
v -55.316 164.682 0.000
v -55.548 177.770 0.000
v -105.590 176.875 0.000
v -105.358 163.798 14.220
v -55.316 164.682 14.220
v -55.548 177.770 14.220
v -105.590 176.875 14.220
usemtl roof
f 35 36 37 38
usemtl teaching_building
f 34 33 32 31
f 31 32 36 35
f 32 33 37 36
f 33 34 38 37
f 34 31 35 38
o SD0059_T003_3hao
v -119.284 105.831 0.000
v -102.919 107.257 0.000
v -102.455 102.050 0.000
v -94.290 102.769 0.000
v -94.737 107.843 0.000
v -79.265 109.191 0.000
v -80.266 120.466 0.000
v -92.941 119.361 0.000
v -93.397 124.457 0.000
v -105.903 123.374 0.000
v -105.438 118.112 0.000
v -120.258 116.818 0.000
v -119.284 105.831 12.760
v -102.919 107.257 12.760
v -102.455 102.050 12.760
v -94.290 102.769 12.760
v -94.737 107.843 12.760
v -79.265 109.191 12.760
v -80.266 120.466 12.760
v -92.941 119.361 12.760
v -93.397 124.457 12.760
v -105.903 123.374 12.760
v -105.438 118.112 12.760
v -120.258 116.818 12.760
usemtl roof
f 51 52 53 54 55 56 57 58 59 60 61 62
usemtl teaching_building
f 50 49 48 47 46 45 44 43 42 41 40 39
f 39 40 52 51
f 40 41 53 52
f 41 42 54 53
f 42 43 55 54
f 43 44 56 55
f 44 45 57 56
f 45 46 58 57
f 46 47 59 58
f 47 48 60 59
f 48 49 61 60
f 49 50 62 61
f 50 39 51 62
o SD0059_T004_4hao
v -62.230 109.854 0.000
v -51.734 110.684 0.000
v -48.527 70.359 0.000
v -31.974 71.652 0.000
v -36.780 132.172 0.000
v -63.838 130.061 0.000
v -62.230 109.854 15.130
v -51.734 110.684 15.130
v -48.527 70.359 15.130
v -31.974 71.652 15.130
v -36.780 132.172 15.130
v -63.838 130.061 15.130
usemtl roof
f 69 70 71 72 73 74
usemtl teaching_building
f 68 67 66 65 64 63
f 63 64 70 69
f 64 65 71 70
f 65 66 72 71
f 66 67 73 72
f 67 68 74 73
f 68 63 69 74
o SD0059_T005_5hao
v -112.263 47.466 0.000
v -34.359 53.446 0.000
v -36.244 68.767 0.000
v -106.618 63.914 0.000
v -113.389 94.932 0.000
v -121.669 93.428 0.000
v -112.263 47.466 17.820
v -34.359 53.446 17.820
v -36.244 68.767 17.820
v -106.618 63.914 17.820
v -113.389 94.932 17.820
v -121.669 93.428 17.820
usemtl roof
f 81 82 83 84 85 86
usemtl teaching_building
f 80 79 78 77 76 75
f 75 76 82 81
f 76 77 83 82
f 77 78 84 83
f 78 79 85 84
f 79 80 86 85
f 80 75 81 86
o SD0059_T006_6hao
v 156.554 -186.912 0.000
v 171.811 -229.658 0.000
v 163.218 -232.687 0.000
v 166.380 -241.530 0.000
v 224.015 -221.257 0.000
v 218.370 -205.428 0.000
v 200.682 -211.651 0.000
v 201.129 -219.190 0.000
v 182.165 -225.867 0.000
v 172.848 -199.779 0.000
v 212.340 -185.873 0.000
v 203.979 -162.439 0.000
v 181.441 -170.375 0.000
v 183.906 -177.284 0.000
v 156.554 -186.912 12.010
v 171.811 -229.658 12.010
v 163.218 -232.687 12.010
v 166.380 -241.530 12.010
v 224.015 -221.257 12.010
v 218.370 -205.428 12.010
v 200.682 -211.651 12.010
v 201.129 -219.190 12.010
v 182.165 -225.867 12.010
v 172.848 -199.779 12.010
v 212.340 -185.873 12.010
v 203.979 -162.439 12.010
v 181.441 -170.375 12.010
v 183.906 -177.284 12.010
usemtl roof
f 101 102 103 104 105 106 107 108 109 110 111 112 113 114
usemtl teaching_building
f 100 99 98 97 96 95 94 93 92 91 90 89 88 87
f 87 88 102 101
f 88 89 103 102
f 89 90 104 103
f 90 91 105 104
f 91 92 106 105
f 92 93 107 106
f 93 94 108 107
f 94 95 109 108
f 95 96 110 109
f 96 97 111 110
f 97 98 112 111
f 98 99 113 112
f 99 100 114 113
f 100 87 101 114
o SD0059_T007_7hao
v 82.706 -246.272 0.000
v 78.132 -245.985 0.000
v 82.072 -185.652 0.000
v 103.975 -187.067 0.000
v 100.062 -246.814 0.000
v 104.234 -247.079 0.000
v 103.198 -262.809 0.000
v 81.714 -261.416 0.000
v 82.706 -246.272 13.360
v 78.132 -245.985 13.360
v 82.072 -185.652 13.360
v 103.975 -187.067 13.360
v 100.062 -246.814 13.360
v 104.234 -247.079 13.360
v 103.198 -262.809 13.360
v 81.714 -261.416 13.360
usemtl roof
f 123 124 125 126 127 128 129 130
usemtl teaching_building
f 122 121 120 119 118 117 116 115
f 115 116 124 123
f 116 117 125 124
f 117 118 126 125
f 118 119 127 126
f 119 120 128 127
f 120 121 129 128
f 121 122 130 129
f 122 115 123 130
