# school_id SD0035
# school_name 山东省实验中学东校区
# boundary_source footprint_convex_hull_buffer_20m
# adjacent_block_merge_distance_m 2.0
mtllib ../campus_materials.mtl
o SD0035_campus_boundary
usemtl campus_boundary
v -73.561 -176.150 0.050
v -150.463 -136.546 0.050
v -164.189 -60.456 0.050
v -157.868 22.374 0.050
v 61.861 254.365 0.050
v 172.195 271.187 0.050
v 250.928 276.101 0.050
v 253.933 228.615 0.050
v 220.618 162.285 0.050
v 78.482 -80.454 0.050
v -1.352 -167.807 0.050
v -73.561 -176.150 0.050
l 1 2 3 4 5 6 7 8 9 10 11 12 1
o SD0035_T001_1hao
v 175.730 229.151 0.000
v 233.631 232.754 0.000
v 232.230 254.895 0.000
v 174.329 251.281 0.000
v 175.730 229.151 11.610
v 233.631 232.754 11.610
v 232.230 254.895 11.610
v 174.329 251.281 11.610
usemtl roof
f 17 18 19 20
usemtl teaching_building
f 16 15 14 13
f 13 14 18 17
f 14 15 19 18
f 15 16 20 19
f 16 13 17 20
o SD0035_T002_2hao
v 73.651 214.780 0.000
v 133.479 220.396 0.000
v 131.489 241.266 0.000
v 71.661 235.628 0.000
v 73.651 214.780 15.980
v 133.479 220.396 15.980
v 131.489 241.266 15.980
v 71.661 235.628 15.980
usemtl roof
f 25 26 27 28
usemtl teaching_building
f 24 23 22 21
f 21 22 26 25
f 22 23 27 26
f 23 24 28 27
f 24 21 25 28
o SD0035_T003_3hao
v 163.773 167.149 0.000
v 203.034 171.836 0.000
v 197.921 214.084 0.000
v 158.651 209.397 0.000
v 163.773 167.149 14.910
v 203.034 171.836 14.910
v 197.921 214.084 14.910
v 158.651 209.397 14.910
usemtl roof
f 33 34 35 36
usemtl teaching_building
f 32 31 30 29
f 29 30 34 33
f 30 31 35 34
f 31 32 36 35
f 32 29 33 36
o SD0035_T004_4hao
v 48.336 154.083 0.000
v 100.063 158.228 0.000
v 98.483 177.705 0.000
v 46.757 173.571 0.000
v 48.336 154.083 12.050
v 100.063 158.228 12.050
v 98.483 177.705 12.050
v 46.757 173.571 12.050
usemtl roof
f 41 42 43 44
usemtl teaching_building
f 40 39 38 37
f 37 38 42 41
f 38 39 43 42
f 39 40 44 43
f 40 37 41 44
o SD0035_T005_5hao
v -0.526 0.211 0.000
v -21.852 -1.823 0.000
v -26.786 49.269 0.000
v -5.460 51.292 0.000
v -0.526 0.211 10.880
v -21.852 -1.823 10.880
v -26.786 49.269 10.880
v -5.460 51.292 10.880
usemtl roof
f 49 50 51 52
usemtl teaching_building
f 48 47 46 45
f 45 46 50 49
f 46 47 51 50
f 47 48 52 51
f 48 45 49 52
o SD0035_T006_6hao
v -36.637 6.424 0.000
v -36.236 3.384 0.000
v -28.250 4.423 0.000
v -26.733 -7.029 0.000
v -34.995 -8.113 0.000
v -35.379 -5.250 0.000
v -71.009 -9.892 0.000
v -69.750 -19.421 0.000
v -81.315 -20.924 0.000
v -81.912 -16.425 0.000
v -103.247 -19.200 0.000
v -105.451 -2.552 0.000
v -36.637 6.424 13.360
v -36.236 3.384 13.360
v -28.250 4.423 13.360
v -26.733 -7.029 13.360
v -34.995 -8.113 13.360
v -35.379 -5.250 13.360
v -71.009 -9.892 13.360
v -69.750 -19.421 13.360
v -81.315 -20.924 13.360
v -81.912 -16.425 13.360
v -103.247 -19.200 13.360
v -105.451 -2.552 13.360
usemtl roof
f 65 66 67 68 69 70 71 72 73 74 75 76
usemtl teaching_building
f 64 63 62 61 60 59 58 57 56 55 54 53
f 53 54 66 65
f 54 55 67 66
f 55 56 68 67
f 56 57 69 68
f 57 58 70 69
f 58 59 71 70
f 59 60 72 71
f 60 61 73 72
f 61 62 74 73
f 62 63 75 74
f 63 64 76 75
f 64 53 65 76
o SD0035_T007_7hao
v -139.296 -59.580 0.000
v -144.052 -59.425 0.000
v -138.466 13.774 0.000
v -133.657 13.100 0.000
v -139.296 -59.580 12.200
v -144.052 -59.425 12.200
v -138.466 13.774 12.200
v -133.657 13.100 12.200
usemtl roof
f 81 82 83 84
usemtl teaching_building
f 80 79 78 77
f 77 78 82 81
f 78 79 83 82
f 79 80 84 83
f 80 77 81 84
o SD0035_T008_8hao
v 68.350 -12.711 0.000
v -1.838 -20.670 0.000
v -0.544 -31.834 0.000
v -10.377 -32.951 0.000
v -5.335 -76.283 0.000
v 62.292 -68.523 0.000
v 61.221 -59.259 0.000
v 57.366 -58.707 0.000
v 54.341 -44.790 0.000
v 45.276 -38.776 0.000
v 36.219 -39.760 0.000
v 37.432 -50.836 0.000
v 19.881 -52.738 0.000
v 21.085 -63.626 0.000
v 9.200 -64.919 0.000
v 5.060 -27.413 0.000
v 65.540 -20.825 0.000
v 66.155 -26.385 0.000
v 69.867 -25.965 0.000
v 68.350 -12.711 17.380
v -1.838 -20.670 17.380
v -0.544 -31.834 17.380
v -10.377 -32.951 17.380
v -5.335 -76.283 17.380
v 62.292 -68.523 17.380
v 61.221 -59.259 17.380
v 57.366 -58.707 17.380
v 54.341 -44.790 17.380
v 45.276 -38.776 17.380
v 36.219 -39.760 17.380
v 37.432 -50.836 17.380
v 19.881 -52.738 17.380
v 21.085 -63.626 17.380
v 9.200 -64.919 17.380
v 5.060 -27.413 17.380
v 65.540 -20.825 17.380
v 66.155 -26.385 17.380
v 69.867 -25.965 17.380
usemtl roof
f 104 105 106 107 108 109 110 111 112 113 114 115 116 117 118 119 120 121 122
usemtl teaching_building
f 103 102 101 100 99 98 97 96 95 94 93 92 91 90 89 88 87 86 85
f 85 86 105 104
f 86 87 106 105
f 87 88 107 106
f 88 89 108 107
f 89 90 109 108
f 90 91 110 109
f 91 92 111 110
f 92 93 112 111
f 93 94 113 112
f 94 95 114 113
f 95 96 115 114
f 96 97 116 115
f 97 98 117 116
f 98 99 118 117
f 99 100 119 118
f 100 101 120 119
f 101 102 121 120
f 102 103 122 121
f 103 85 104 122
o SD0035_T009_9hao
v -39.609 -110.318 0.000
v -38.092 -120.255 0.000
v -70.446 -123.914 0.000
v -75.898 -83.147 0.000
v -21.745 -76.868 0.000
v -17.150 -107.466 0.000
v -39.609 -110.318 13.740
v -38.092 -120.255 13.740
v -70.446 -123.914 13.740
v -75.898 -83.147 13.740
v -21.745 -76.868 13.740
v -17.150 -107.466 13.740
usemtl roof
f 129 130 131 132 133 134
usemtl teaching_building
f 128 127 126 125 124 123
f 123 124 130 129
f 124 125 131 130
f 125 126 132 131
f 126 127 133 132
f 127 128 134 133
f 128 123 129 134
o SD0035_T009_9hao_seg02
v -81.127 -116.187 0.000
v -132.533 -123.284 0.000
v -131.158 -95.439 0.000
v -120.986 -87.790 0.000
v -85.794 -84.518 0.000
v -81.127 -116.187 13.740
v -132.533 -123.284 13.740
v -131.158 -95.439 13.740
v -120.986 -87.790 13.740
v -85.794 -84.518 13.740
usemtl roof
f 140 141 142 143 144
usemtl teaching_building
f 139 138 137 136 135
f 135 136 141 140
f 136 137 142 141
f 137 138 143 142
f 138 139 144 143
f 139 135 140 144
o SD0035_T009_9hao_seg03
v -81.752 -111.899 0.000
v -85.794 -84.518 0.000
v -75.898 -83.147 0.000
v -72.329 -111.545 0.000
v -81.752 -111.899 13.740
v -85.794 -84.518 13.740
v -75.898 -83.147 13.740
v -72.329 -111.545 13.740
usemtl roof
f 149 150 151 152
usemtl teaching_building
f 148 147 146 145
f 145 146 150 149
f 146 147 151 150
f 147 148 152 151
f 148 145 149 152
o SD0035_T010_10hao
v -11.073 -148.797 0.000
v -69.813 -155.584 0.000
v -71.080 -144.806 0.000
v -12.331 -138.019 0.000
v -11.073 -148.797 10.590
v -69.813 -155.584 10.590
v -71.080 -144.806 10.590
v -12.331 -138.019 10.590
usemtl roof
f 157 158 159 160
usemtl teaching_building
f 156 155 154 153
f 153 154 158 157
f 154 155 159 158
f 155 156 160 159
f 156 153 157 160
