# school_id SD0053
# school_name 山东省质量技术监督教育培训中心
# boundary_source footprint_convex_hull_buffer_20m
# adjacent_block_merge_distance_m 2.0
mtllib ../campus_materials.mtl
o SD0053_campus_boundary
usemtl campus_boundary
v -57.004 -50.710 0.050
v -57.249 -12.567 0.050
v -57.144 50.637 0.050
v 45.765 51.893 0.050
v 63.287 -9.105 0.050
v 63.569 -49.931 0.050
v -57.004 -50.710 0.050
l 1 2 3 4 5 6 7 1
o SD0053_T001_1hao
v -36.927 10.872 0.000
v 30.995 11.690 0.000
v 30.754 31.708 0.000
v -37.177 30.879 0.000
v -36.927 10.872 19.870
v 30.995 11.690 19.870
v 30.754 31.708 19.870
v -37.177 30.879 19.870
usemtl roof
f 12 13 14 15
usemtl teaching_building
f 11 10 9 8
f 8 9 13 12
f 9 10 14 13
f 10 11 15 14
f 11 8 12 15
o SD0053_T002_2hao
v -37.133 -30.581 0.000
v 43.431 -30.061 0.000
v 43.306 -11.988 0.000
v -37.249 -12.519 0.000
v -37.133 -30.581 18.360
v 43.431 -30.061 18.360
v 43.306 -11.988 18.360
v -37.249 -12.519 18.360
usemtl roof
f 20 21 22 23
usemtl teaching_building
f 19 18 17 16
f 16 17 21 20
f 17 18 22 21
f 18 19 23 22
f 19 16 20 23
