# school_id SD0065
# school_name 洪家楼第三小学
# boundary_source footprint_convex_hull_buffer_20m
# adjacent_block_merge_distance_m 2.0
mtllib ../campus_materials.mtl
o SD0065_campus_boundary
usemtl campus_boundary
v 88.594 -156.534 0.050
v -62.418 -153.077 0.050
v -70.309 -128.602 0.050
v -169.436 217.063 0.050
v -173.789 270.088 0.050
v -69.502 278.525 0.050
v 14.583 198.678 0.050
v 136.136 -21.589 0.050
v 139.426 -47.885 0.050
v 144.401 -131.959 0.050
v 88.594 -156.534 0.050
l 1 2 3 4 5 6 7 8 9 10 11 1
o SD0065_T001_1hao
v -149.665 220.673 0.000
v -119.108 223.138 0.000
v -118.644 217.390 0.000
v -73.768 221.005 0.000
v -76.795 257.870 0.000
v -152.218 251.768 0.000
v -149.665 220.673 11.850
v -119.108 223.138 11.850
v -118.644 217.390 11.850
v -73.768 221.005 11.850
v -76.795 257.870 11.850
v -152.218 251.768 11.850
usemtl roof
f 18 19 20 21 22 23
usemtl teaching_building
f 17 16 15 14 13 12
f 12 13 19 18
f 13 14 20 19
f 14 15 21 20
f 15 16 22 21
f 16 17 23 22
f 17 12 18 23
o SD0065_T002_2hao
v -9.762 162.938 0.000
v -0.005 163.546 0.000
v -1.433 186.306 0.000
v -11.190 185.709 0.000
v -9.762 162.938 17.930
v -0.005 163.546 17.930
v -1.433 186.306 17.930
v -11.190 185.709 17.930
usemtl roof
f 28 29 30 31
usemtl teaching_building
f 27 26 25 24
f 24 25 29 28
f 25 26 30 29
f 26 27 31 30
f 27 24 28 31
o SD0065_T003_3hao
v -72.045 95.144 0.000
v -53.585 95.896 0.000
v -53.415 91.883 0.000
v -44.631 92.237 0.000
v -44.747 94.945 0.000
v -4.692 96.592 0.000
v -5.165 107.856 0.000
v -44.809 106.220 0.000
v -44.970 110.177 0.000
v -55.798 109.735 0.000
v -55.620 105.247 0.000
v -72.429 104.562 0.000
v -72.045 95.144 17.020
v -53.585 95.896 17.020
v -53.415 91.883 17.020
v -44.631 92.237 17.020
v -44.747 94.945 17.020
v -4.692 96.592 17.020
v -5.165 107.856 17.020
v -44.809 106.220 17.020
v -44.970 110.177 17.020
v -55.798 109.735 17.020
v -55.620 105.247 17.020
v -72.429 104.562 17.020
usemtl roof
f 44 45 46 47 48 49 50 51 52 53 54 55
usemtl teaching_building
f 43 42 41 40 39 38 37 36 35 34 33 32
f 32 33 45 44
f 33 34 46 45
f 34 35 47 46
f 35 36 48 47
f 36 37 49 48
f 37 38 50 49
f 38 39 51 50
f 39 40 52 51
f 40 41 53 52
f 41 42 54 53
f 42 43 55 54
f 43 32 44 55
o SD0065_T004_4hao
v -48.871 14.063 0.000
v -37.775 15.014 0.000
v -38.177 19.700 0.000
v -8.807 22.221 0.000
v -8.048 13.488 0.000
v 2.102 14.361 0.000
v -0.889 48.750 0.000
v -12.297 47.778 0.000
v -11.467 38.260 0.000
v -39.676 35.839 0.000
v -40.132 41.090 0.000
v -51.139 40.150 0.000
v -48.871 14.063 28.260
v -37.775 15.014 28.260
v -38.177 19.700 28.260
v -8.807 22.221 28.260
v -8.048 13.488 28.260
v 2.102 14.361 28.260
v -0.889 48.750 28.260
v -12.297 47.778 28.260
v -11.467 38.260 28.260
v -39.676 35.839 28.260
v -40.132 41.090 28.260
v -51.139 40.150 28.260
usemtl roof
f 68 69 70 71 72 73 74 75 76 77 78 79
usemtl teaching_building
f 67 66 65 64 63 62 61 60 59 58 57 56
f 56 57 69 68
f 57 58 70 69
f 58 59 71 70
f 59 60 72 71
f 60 61 73 72
f 61 62 74 73
f 62 63 75 74
f 63 64 76 75
f 64 65 77 76
f 65 66 78 77
f 66 67 79 78
f 67 56 68 79
o SD0065_T005_5hao
v 12.448 -32.220 0.000
v 20.143 -31.922 0.000
v 18.402 14.505 0.000
v 9.761 14.328 0.000
v 12.448 -32.220 22.030
v 20.143 -31.922 22.030
v 18.402 14.505 22.030
v 9.761 14.328 22.030
usemtl roof
f 84 85 86 87
usemtl teaching_building
f 83 82 81 80
f 80 81 85 84
f 81 82 86 85
f 82 83 87 86
f 83 80 84 87
o SD0065_T006_6hao
v 116.768 -27.887 0.000
v 119.500 -49.719 0.000
v 106.101 -50.492 0.000
v 105.583 -46.745 0.000
v 85.676 -47.773 0.000
v 86.720 -53.974 0.000
v 82.034 -54.240 0.000
v 82.426 -57.467 0.000
v 73.705 -58.109 0.000
v 73.705 -54.627 0.000
v 69.286 -54.881 0.000
v 69.027 -49.199 0.000
v 48.852 -50.360 0.000
v 48.986 -54.107 0.000
v 35.194 -54.759 0.000
v 34.417 -34.984 0.000
v 116.768 -27.887 22.920
v 119.500 -49.719 22.920
v 106.101 -50.492 22.920
v 105.583 -46.745 22.920
v 85.676 -47.773 22.920
v 86.720 -53.974 22.920
v 82.034 -54.240 22.920
v 82.426 -57.467 22.920
v 73.705 -58.109 22.920
v 73.705 -54.627 22.920
v 69.286 -54.881 22.920
v 69.027 -49.199 22.920
v 48.852 -50.360 22.920
v 48.986 -54.107 22.920
v 35.194 -54.759 22.920
v 34.417 -34.984 22.920
usemtl roof
f 104 105 106 107 108 109 110 111 112 113 114 115 116 117 118 119
usemtl teaching_building
f 103 102 101 100 99 98 97 96 95 94 93 92 91 90 89 88
f 88 89 105 104
f 89 90 106 105
f 90 91 107 106
f 91 92 108 107
f 92 93 109 108
f 93 94 110 109
f 94 95 111 110
f 95 96 112 111
f 96 97 113 112
f 97 98 114 113
f 98 99 115 114
f 99 100 116 115
f 100 101 117 116
f 101 102 118 117
f 102 103 119 118
f 103 88 104 119
o SD0065_T007_7hao
v -48.818 -116.385 0.000
v -51.817 -116.805 0.000
v -51.174 -122.775 0.000
v -48.175 -122.775 0.000
v -47.746 -133.408 0.000
v -37.891 -132.767 0.000
v -38.748 -125.748 0.000
v 9.690 -123.195 0.000
v 10.118 -129.794 0.000
v 20.830 -129.794 0.000
v 18.045 -94.896 0.000
v 7.324 -95.747 0.000
v 7.538 -105.110 0.000
v -40.676 -107.664 0.000
v -40.890 -100.633 0.000
v -49.675 -101.064 0.000
v -48.818 -116.385 16.040
v -51.817 -116.805 16.040
v -51.174 -122.775 16.040
v -48.175 -122.775 16.040
v -47.746 -133.408 16.040
v -37.891 -132.767 16.040
v -38.748 -125.748 16.040
v 9.690 -123.195 16.040
v 10.118 -129.794 16.040
v 20.830 -129.794 16.040
v 18.045 -94.896 16.040
v 7.324 -95.747 16.040
v 7.538 -105.110 16.040
v -40.676 -107.664 16.040
v -40.890 -100.633 16.040
v -49.675 -101.064 16.040
usemtl roof
f 136 137 138 139 140 141 142 143 144 145 146 147 148 149 150 151
usemtl teaching_building
f 135 134 133 132 131 130 129 128 127 126 125 124 123 122 121 120
f 120 121 137 136
f 121 122 138 137
f 122 123 139 138
f 123 124 140 139
f 124 125 141 140
f 125 126 142 141
f 126 127 143 142
f 127 128 144 143
f 128 129 145 144
f 129 130 146 145
f 130 131 147 146
f 131 132 148 147
f 132 133 149 148
f 133 134 150 149
f 134 135 151 150
f 135 120 136 151
o SD0065_T008_8hao
v 49.004 -130.744 0.000
v 76.508 -118.983 0.000
v 71.705 -107.885 0.000
v 44.192 -119.635 0.000
v 49.004 -130.744 13.110
v 76.508 -118.983 13.110
v 71.705 -107.885 13.110
v 44.192 -119.635 13.110
usemtl roof
f 156 157 158 159
usemtl teaching_building
f 155 154 153 152
f 152 153 157 156
f 153 154 158 157
f 154 155 159 158
f 155 152 156 159
o SD0065_T009_9hao
v 84.605 -136.437 0.000
v 123.615 -119.259 0.000
v 115.724 -104.513 0.000
v 77.650 -120.906 0.000
v 84.605 -136.437 8.890
v 123.615 -119.259 8.890
v 115.724 -104.513 8.890
v 77.650 -120.906 8.890
usemtl roof
f 164 165 166 167
usemtl teaching_building
f 163 162 161 160
f 160 161 165 164
f 161 162 166 165
f 162 163 167 166
f 163 160 164 167
