# school_id SD0068
# school_name 济南三中
# boundary_source footprint_convex_hull_buffer_20m
# adjacent_block_merge_distance_m 2.0
mtllib ../campus_materials.mtl
o SD0068_campus_boundary
usemtl campus_boundary
v -120.616 -124.288 0.050
v -227.466 -101.275 0.050
v -207.494 -49.789 0.050
v -37.212 92.795 0.050
v 17.045 86.239 0.050
v 111.750 72.962 0.050
v 107.104 11.612 0.050
v 102.512 -33.483 0.050
v 97.557 -69.947 0.050
v -120.616 -124.288 0.050
l 1 2 3 4 5 6 7 8 9 10 1
o SD0068_T001_1hao
v 11.534 42.563 0.000
v -33.936 48.068 0.000
v -31.013 71.900 0.000
v 14.457 66.406 0.000
v 11.534 42.563 33.890
v -33.936 48.068 33.890
v -31.013 71.900 33.890
v 14.457 66.406 33.890
usemtl roof
f 15 16 17 18
usemtl teaching_building
f 14 13 12 11
f 11 12 16 15
f 12 13 17 16
f 13 14 18 17
f 14 11 15 18
o SD0068_T002_2hao
v 23.798 -1.233 0.000
v 26.882 21.461 0.000
v 79.379 14.426 0.000
v 83.051 43.911 0.000
v 74.292 45.183 0.000
v 76.097 57.320 0.000
v 90.390 55.761 0.000
v 87.181 13.380 0.000
v 84.097 -9.314 0.000
v 23.798 -1.233 24.480
v 26.882 21.461 24.480
v 79.379 14.426 24.480
v 83.051 43.911 24.480
v 74.292 45.183 24.480
v 76.097 57.320 24.480
v 90.390 55.761 24.480
v 87.181 13.380 24.480
v 84.097 -9.314 24.480
usemtl roof
f 28 29 30 31 32 33 34 35 36
usemtl teaching_building
f 27 26 25 24 23 22 21 20 19
f 19 20 29 28
f 20 21 30 29
f 21 22 31 30
f 22 23 32 31
f 23 24 33 32
f 24 25 34 33
f 25 26 35 34
f 26 27 36 35
f 27 19 28 36
o SD0068_T002_2hao_seg02
v 22.636 65.179 0.000
v 76.097 57.320 0.000
v 72.781 35.057 0.000
v 19.320 42.894 0.000
v 22.636 65.179 24.480
v 76.097 57.320 24.480
v 72.781 35.057 24.480
v 19.320 42.894 24.480
usemtl roof
f 41 42 43 44
usemtl teaching_building
f 40 39 38 37
f 37 38 42 41
f 38 39 43 42
f 39 40 44 43
f 40 37 41 44
o SD0068_T003_3hao
v 79.565 -53.817 0.000
v 19.266 -45.737 0.000
v 22.359 -23.043 0.000
v 82.649 -31.123 0.000
v 79.565 -53.817 19.980
v 19.266 -45.737 19.980
v 22.359 -23.043 19.980
v 82.649 -31.123 19.980
usemtl roof
f 49 50 51 52
usemtl teaching_building
f 48 47 46 45
f 45 46 50 49
f 46 47 51 50
f 47 48 52 51
f 48 45 49 52
o SD0068_T004_4hao
v -120.944 -103.759 0.000
v -200.344 -86.658 0.000
v -190.709 -61.820 0.000
v -113.373 -74.355 0.000
v -120.944 -103.759 17.170
v -200.344 -86.658 17.170
v -190.709 -61.820 17.170
v -113.373 -74.355 17.170
usemtl roof
f 57 58 59 60
usemtl teaching_building
f 56 55 54 53
f 53 54 58 57
f 54 55 59 58
f 55 56 60 59
f 56 53 57 60
