# school_id SD0024
# school_name 山东大学附属中学千佛山校区
# boundary_source footprint_convex_hull_buffer_20m
# adjacent_block_merge_distance_m 2.0
mtllib ../campus_materials.mtl
o SD0024_campus_boundary
usemtl campus_boundary
v -50.943 -65.154 0.050
v -53.425 -22.313 0.050
v -54.443 38.776 0.050
v -54.770 76.255 0.050
v 37.616 77.057 0.050
v 62.079 -6.615 0.050
v 63.018 -63.318 0.050
v -50.943 -65.154 0.050
l 1 2 3 4 5 6 7 8 1
o SD0024_T001_1hao
v -34.444 39.030 0.000
v 22.816 39.516 0.000
v 22.664 56.926 0.000
v -34.596 56.429 0.000
v -34.444 39.030 24.890
v 22.816 39.516 24.890
v 22.664 56.926 24.890
v -34.596 56.429 24.890
usemtl roof
f 13 14 15 16
usemtl teaching_building
f 12 11 10 9
f 9 10 14 13
f 10 11 15 14
f 11 12 16 15
f 12 9 13 16
o SD0024_T002_2hao
v -33.435 -21.568 0.000
v -18.814 -21.933 0.000
v -18.385 -4.689 0.000
v 24.844 -5.761 0.000
v 25.272 11.439 0.000
v -32.568 12.876 0.000
v -33.435 -21.568 18.610
v -18.814 -21.933 18.610
v -18.385 -4.689 18.610
v 24.844 -5.761 18.610
v 25.272 11.439 18.610
v -32.568 12.876 18.610
usemtl roof
f 23 24 25 26 27 28
usemtl teaching_building
f 22 21 20 19 18 17
f 17 18 24 23
f 18 19 25 24
f 19 20 26 25
f 20 21 27 26
f 21 22 28 27
f 22 17 23 28
o SD0024_T003_3hao
v 28.282 -26.631 0.000
v -32.372 -27.626 0.000
v -32.086 -44.848 0.000
v 42.689 -43.643 0.000
v 42.126 -9.641 0.000
v 28.005 -9.873 0.000
v 28.282 -26.631 17.100
v -32.372 -27.626 17.100
v -32.086 -44.848 17.100
v 42.689 -43.643 17.100
v 42.126 -9.641 17.100
v 28.005 -9.873 17.100
usemtl roof
f 35 36 37 38 39 40
usemtl teaching_building
f 34 33 32 31 30 29
f 29 30 36 35
f 30 31 37 36
f 31 32 38 37
f 32 33 39 38
f 33 34 40 39
f 34 29 35 40
