# school_id SD0019
# school_name 唐冶小学
# boundary_source footprint_convex_hull_buffer_20m
# adjacent_block_merge_distance_m 2.0
mtllib ../campus_materials.mtl
o SD0019_campus_boundary
usemtl campus_boundary
v -3.447 -46.416 0.050
v -63.165 -45.991 0.050
v -62.949 -13.611 0.050
v -59.595 58.686 0.050
v 65.220 58.043 0.050
v 65.413 -6.875 0.050
v 65.244 -30.877 0.050
v 40.917 -42.417 0.050
v -3.447 -46.416 0.050
l 1 2 3 4 5 6 7 8 9 1
o SD0019_T001_1hao
v -40.551 28.495 0.000
v -14.827 28.373 0.000
v -15.077 -7.022 0.000
v -22.672 -6.978 0.000
v -22.726 -14.284 0.000
v -42.952 -14.141 0.000
v -43.032 -26.134 0.000
v -4.276 -26.410 0.000
v -4.241 -22.531 0.000
v 35.568 -22.818 0.000
v 35.604 -18.120 0.000
v 45.333 -18.186 0.000
v 45.413 -6.834 0.000
v -0.911 -6.502 0.000
v -0.653 28.296 0.000
v 45.226 28.064 0.000
v 45.279 38.145 0.000
v -40.506 38.587 0.000
v -40.551 28.495 15.930
v -14.827 28.373 15.930
v -15.077 -7.022 15.930
v -22.672 -6.978 15.930
v -22.726 -14.284 15.930
v -42.952 -14.141 15.930
v -43.032 -26.134 15.930
v -4.276 -26.410 15.930
v -4.241 -22.531 15.930
v 35.568 -22.818 15.930
v 35.604 -18.120 15.930
v 45.333 -18.186 15.930
v 45.413 -6.834 15.930
v -0.911 -6.502 15.930
v -0.653 28.296 15.930
v 45.226 28.064 15.930
v 45.279 38.145 15.930
v -40.506 38.587 15.930
usemtl roof
f 28 29 30 31 32 33 34 35 36 37 38 39 40 41 42 43 44 45
usemtl teaching_building
f 27 26 25 24 23 22 21 20 19 18 17 16 15 14 13 12 11 10
f 10 11 29 28
f 11 12 30 29
f 12 13 31 30
f 13 14 32 31
f 14 15 33 32
f 15 16 34 33
f 16 17 35 34
f 17 18 36 35
f 18 19 37 36
f 19 20 38 37
f 20 21 39 38
f 21 22 40 39
f 22 23 41 40
f 23 24 42 41
f 24 25 43 42
f 25 26 44 43
f 26 27 45 44
f 27 10 28 45
