# school_id SD0075
# school_name 济南市27中
# boundary_source footprint_convex_hull_buffer_20m
# adjacent_block_merge_distance_m 2.0
mtllib ../campus_materials.mtl
o SD0075_campus_boundary
usemtl campus_boundary
v -11.866 -78.805 0.050
v -36.515 -42.913 0.050
v -51.681 26.048 0.050
v -41.968 63.900 0.050
v 21.586 78.453 0.050
v 68.626 -20.145 0.050
v 76.994 -60.778 0.050
v -11.866 -78.805 0.050
l 1 2 3 4 5 6 7 8 1
o SD0075_T001_1hao
v 13.532 42.007 0.000
v -22.517 33.761 0.000
v -25.625 47.125 0.000
v 10.434 55.382 0.000
v 13.532 42.007 26.770
v -22.517 33.761 26.770
v -25.625 47.125 26.770
v 10.434 55.382 26.770
usemtl roof
f 13 14 15 16
usemtl teaching_building
f 12 11 10 9
f 9 10 14 13
f 10 11 15 14
f 11 12 16 15
f 12 9 13 16
o SD0075_T002_2hao
v -16.740 28.809 0.000
v -3.452 -31.690 0.000
v -17.820 -34.807 0.000
v -31.125 25.691 0.000
v -16.740 28.809 36.300
v -3.452 -31.690 36.300
v -17.820 -34.807 36.300
v -31.125 25.691 36.300
usemtl roof
f 21 22 23 24
usemtl teaching_building
f 20 19 18 17
f 17 18 22 21
f 18 19 23 22
f 19 20 24 23
f 20 17 21 24
o SD0075_T003_3hao
v 49.528 -26.561 0.000
v 53.359 -45.165 0.000
v -2.872 -56.573 0.000
v -6.703 -37.980 0.000
v 49.528 -26.561 33.290
v 53.359 -45.165 33.290
v -2.872 -56.573 33.290
v -6.703 -37.980 33.290
usemtl roof
f 29 30 31 32
usemtl teaching_building
f 28 27 26 25
f 25 26 30 29
f 26 27 31 30
f 27 28 32 31
f 28 25 29 32
