# school_id SD0002
# school_name 上新街小学
# boundary_source footprint_convex_hull_buffer_20m
# adjacent_block_merge_distance_m 2.0
mtllib ../campus_materials.mtl
o SD0002_campus_boundary
usemtl campus_boundary
v 32.555 -365.981 0.050
v -72.016 167.289 0.050
v -73.307 201.061 0.050
v -6.953 204.171 0.050
v 121.956 -310.883 0.050
v 125.428 -359.443 0.050
v 32.555 -365.981 0.050
l 1 2 3 4 5 6 7 1
o SD0002_T001_1hao
v -22.378 183.426 0.000
v -20.485 149.214 0.000
v -47.509 147.799 0.000
v -47.036 157.063 0.000
v -29.648 158.312 0.000
v -30.121 170.239 0.000
v -52.090 169.609 0.000
v -52.564 182.011 0.000
v -22.378 183.426 15.360
v -20.485 149.214 15.360
v -47.509 147.799 15.360
v -47.036 157.063 15.360
v -29.648 158.312 15.360
v -30.121 170.239 15.360
v -52.090 169.609 15.360
v -52.564 182.011 15.360
usemtl roof
f 16 17 18 19 20 21 22 23
usemtl teaching_building
f 15 14 13 12 11 10 9 8
f 8 9 17 16
f 9 10 18 17
f 10 11 19 18
f 11 12 20 19
f 12 13 21 20
f 13 14 22 21
f 14 15 23 22
f 15 8 16 23
o SD0002_T002_2hao
v 102.131 -314.048 0.000
v 104.051 -340.898 0.000
v 48.780 -344.789 0.000
v 46.869 -317.939 0.000
v 102.131 -314.048 20.970
v 104.051 -340.898 20.970
v 48.780 -344.789 20.970
v 46.869 -317.939 20.970
usemtl roof
f 28 29 30 31
usemtl teaching_building
f 27 26 25 24
f 24 25 29 28
f 25 26 30 29
f 26 27 31 30
f 27 24 28 31
