# school_id SD0008
# school_name 十亩园小学
# boundary_source footprint_convex_hull_buffer_20m
# adjacent_block_merge_distance_m 2.0
mtllib ../campus_materials.mtl
o SD0008_campus_boundary
usemtl campus_boundary
v -35.547 -44.284 0.050
v -79.533 -43.293 0.050
v -80.978 32.014 0.050
v 27.501 54.718 0.050
v 66.890 55.036 0.050
v 65.177 14.539 0.050
v 46.948 -33.434 0.050
v 26.592 -42.787 0.050
v -20.453 -44.136 0.050
v -35.547 -44.284 0.050
l 1 2 3 4 5 6 7 8 9 10 1
o SD0008_T001_1hao
v 46.019 34.867 0.000
v 45.332 18.618 0.000
v 29.785 18.342 0.000
v 29.651 34.735 0.000
v 46.019 34.867 10.890
v 45.332 18.618 10.890
v 29.785 18.342 10.890
v 29.651 34.735 10.890
usemtl roof
f 15 16 17 18
usemtl teaching_building
f 14 13 12 11
f 11 12 16 15
f 12 13 17 16
f 13 14 18 17
f 14 11 15 18
o SD0008_T002_2hao
v 6.157 18.342 0.000
v 6.746 2.921 0.000
v -60.075 0.390 0.000
v -60.664 15.832 0.000
v 6.157 18.342 17.040
v 6.746 2.921 17.040
v -60.075 0.390 17.040
v -60.664 15.832 17.040
usemtl roof
f 23 24 25 26
usemtl teaching_building
f 22 21 20 19
f 19 20 24 23
f 20 21 25 24
f 21 22 26 25
f 22 19 23 26
o SD0008_T003_3hao
v -35.554 -13.217 0.000
v -35.420 -24.282 0.000
v -59.905 -23.730 0.000
v -59.771 -12.941 0.000
v -35.554 -13.217 14.990
v -35.420 -24.282 14.990
v -59.905 -23.730 14.990
v -59.771 -12.941 14.990
usemtl roof
f 31 32 33 34
usemtl teaching_building
f 30 29 28 27
f 27 28 32 31
f 28 29 33 32
f 29 30 34 33
f 30 27 31 34
o SD0008_T004_4hao
v 22.079 -18.402 0.000
v 21.945 -22.912 0.000
v -20.838 -24.139 0.000
v -20.704 -18.269 0.000
v 22.079 -18.402 11.570
v 21.945 -22.912 11.570
v -20.838 -24.139 11.570
v -20.704 -18.269 11.570
usemtl roof
f 39 40 41 42
usemtl teaching_building
f 38 37 36 35
f 35 36 40 39
f 36 37 41 40
f 37 38 42 41
f 38 35 39 42
