# school_id SD0041
# school_name 山东省济南中学
# boundary_source footprint_convex_hull_buffer_20m
# adjacent_block_merge_distance_m 2.0
mtllib ../campus_materials.mtl
o SD0041_campus_boundary
usemtl campus_boundary
v 95.007 -155.741 0.050
v -93.727 -43.075 0.050
v -98.681 64.335 0.050
v -98.737 84.946 0.050
v -98.063 115.516 0.050
v 15.419 116.509 0.050
v 109.743 -57.693 0.050
v 124.633 -89.652 0.050
v 125.144 -155.741 0.050
v 95.007 -155.741 0.050
l 1 2 3 4 5 6 7 8 9 10 1
o SD0041_T001_1hao
v 3.561 96.404 0.000
v 3.928 83.792 0.000
v -78.736 84.753 0.000
v -78.495 95.686 0.000
v 3.561 96.404 13.340
v 3.928 83.792 13.340
v -78.736 84.753 13.340
v -78.495 95.686 13.340
usemtl roof
f 15 16 17 18
usemtl teaching_building
f 14 13 12 11
f 11 12 16 15
f 12 13 17 16
f 13 14 18 17
f 14 11 15 18
o SD0041_T002_2hao
v 3.749 54.587 0.000
v 4.472 30.788 0.000
v -76.494 31.506 0.000
v -76.861 55.670 0.000
v 3.749 54.587 15.560
v 4.472 30.788 15.560
v -76.494 31.506 15.560
v -76.861 55.670 15.560
usemtl roof
f 23 24 25 26
usemtl teaching_building
f 22 21 20 19
f 19 20 24 23
f 20 21 25 24
f 21 22 26 25
f 22 19 23 26
o SD0041_T003_3hao
v 35.132 -29.501 0.000
v 15.064 -29.810 0.000
v 15.064 15.699 0.000
v 34.650 15.655 0.000
v 35.132 -29.501 14.300
v 15.064 -29.810 14.300
v 15.064 15.699 14.300
v 34.650 15.655 14.300
usemtl roof
f 31 32 33 34
usemtl teaching_building
f 30 29 28 27
f 27 28 32 31
f 28 29 33 32
f 29 30 34 33
f 30 27 31 34
o SD0041_T003_3hao_seg02
v 42.875 -60.253 0.000
v 16.172 -60.728 0.000
v 16.172 -48.646 0.000
v 32.604 -48.646 0.000
v 32.765 -30.595 0.000
v 43.277 -30.739 0.000
v 42.875 -60.253 14.300
v 16.172 -60.728 14.300
v 16.172 -48.646 14.300
v 32.604 -48.646 14.300
v 32.765 -30.595 14.300
v 43.277 -30.739 14.300
usemtl roof
f 41 42 43 44 45 46
usemtl teaching_building
f 40 39 38 37 36 35
f 35 36 42 41
f 36 37 43 42
f 37 38 44 43
f 38 39 45 44
f 39 40 46 45
f 40 35 41 46
o SD0041_T004_4hao
v -3.949 -14.301 0.000
v -3.333 -38.256 0.000
v -50.854 -37.957 0.000
v -50.961 -31.689 0.000
v -74.244 -31.413 0.000
v -74.137 -13.373 0.000
v -3.949 -14.301 9.900
v -3.333 -38.256 9.900
v -50.854 -37.957 9.900
v -50.961 -31.689 9.900
v -74.244 -31.413 9.900
v -74.137 -13.373 9.900
usemtl roof
f 53 54 55 56 57 58
usemtl teaching_building
f 52 51 50 49 48 47
f 47 48 54 53
f 48 49 55 54
f 49 50 56 55
f 50 51 57 56
f 51 52 58 57
f 52 47 53 58
