# school_id SD0047
# school_name 山东省济南第十三中学
# boundary_source footprint_convex_hull_buffer_20m
# adjacent_block_merge_distance_m 2.0
mtllib ../campus_materials.mtl
o SD0047_campus_boundary
usemtl campus_boundary
v 79.625 -77.667 0.050
v -9.651 -76.023 0.050
v -88.696 -37.186 0.050
v -78.112 25.007 0.050
v 13.491 62.493 0.050
v 74.858 58.220 0.050
v 79.113 -39.367 0.050
v 79.625 -77.667 0.050
l 1 2 3 4 5 6 7 8 1
o SD0047_T001_1hao
v 15.931 29.926 0.000
v 39.592 28.279 0.000
v 39.413 16.926 0.000
v 54.298 16.208 0.000
v 55.655 39.509 0.000
v 16.752 42.218 0.000
v 15.931 29.926 17.790
v 39.592 28.279 17.790
v 39.413 16.926 17.790
v 54.298 16.208 17.790
v 55.655 39.509 17.790
v 16.752 42.218 17.790
usemtl roof
f 15 16 17 18 19 20
usemtl teaching_building
f 14 13 12 11 10 9
f 9 10 16 15
f 10 11 17 16
f 11 12 18 17
f 12 13 19 18
f 13 14 20 19
f 14 9 15 20
o SD0047_T002_2hao
v 59.351 -57.290 0.000
v -4.829 -56.108 0.000
v -4.347 -39.217 0.000
v 59.119 -39.936 0.000
v 59.351 -57.290 17.560
v -4.829 -56.108 17.560
v -4.347 -39.217 17.560
v 59.119 -39.936 17.560
usemtl roof
f 25 26 27 28
usemtl teaching_building
f 24 23 22 21
f 21 22 26 25
f 22 23 27 26
f 23 24 28 27
f 24 21 25 28
