# school_id SD0031
# school_name 山东师范大学附属小学大学城校区
# boundary_source footprint_convex_hull_buffer_20m
# adjacent_block_merge_distance_m 2.0
mtllib ../campus_materials.mtl
o SD0031_campus_boundary
usemtl campus_boundary
v -55.768 -82.101 0.050
v -57.603 -22.670 0.050
v -57.687 -10.070 0.050
v -57.181 28.078 0.050
v -55.588 88.053 0.050
v 30.696 88.279 0.050
v 61.396 33.662 0.050
v 63.241 -81.288 0.050
v -55.768 -82.101 0.050
l 1 2 3 4 5 6 7 8 9 1
o SD0031_T001_1hao
v -28.080 -43.231 0.000
v -17.525 -43.165 0.000
v -17.489 -48.128 0.000
v 18.475 -47.896 0.000
v 18.306 -21.930 0.000
v -37.605 -22.295 0.000
v -37.686 -10.136 0.000
v -28.688 -10.080 0.000
v -28.723 -4.664 0.000
v -16.389 -4.587 0.000
v -16.371 -8.964 0.000
v 18.225 -8.765 0.000
v 18.082 15.288 0.000
v -37.113 14.968 0.000
v -37.185 27.680 0.000
v -28.267 27.724 0.000
v -28.294 32.831 0.000
v -16.837 32.897 0.000
v -16.810 27.934 0.000
v 12.359 28.106 0.000
v 6.866 28.078 0.000
v 7.018 42.017 0.000
v -35.959 42.017 0.000
v -36.111 68.104 0.000
v 19.012 68.248 0.000
v 19.164 42.470 0.000
v 17.340 42.470 0.000
v 17.796 28.138 0.000
v 41.480 28.277 0.000
v 41.248 15.377 0.000
v 33.037 15.189 0.000
v 33.055 -5.029 0.000
v 39.870 -5.029 0.000
v 39.879 -29.149 0.000
v 33.564 -29.149 0.000
v 33.573 -47.178 0.000
v 42.464 -47.167 0.000
v 42.920 -61.426 0.000
v -36.380 -61.968 0.000
v -36.478 -48.018 0.000
v -28.044 -47.963 0.000
v -28.080 -43.231 8.760
v -17.525 -43.165 8.760
v -17.489 -48.128 8.760
v 18.475 -47.896 8.760
v 18.306 -21.930 8.760
v -37.605 -22.295 8.760
v -37.686 -10.136 8.760
v -28.688 -10.080 8.760
v -28.723 -4.664 8.760
v -16.389 -4.587 8.760
v -16.371 -8.964 8.760
v 18.225 -8.765 8.760
v 18.082 15.288 8.760
v -37.113 14.968 8.760
v -37.185 27.680 8.760
v -28.267 27.724 8.760
v -28.294 32.831 8.760
v -16.837 32.897 8.760
v -16.810 27.934 8.760
v 12.359 28.106 8.760
v 6.866 28.078 8.760
v 7.018 42.017 8.760
v -35.959 42.017 8.760
v -36.111 68.104 8.760
v 19.012 68.248 8.760
v 19.164 42.470 8.760
v 17.340 42.470 8.760
v 17.796 28.138 8.760
v 41.480 28.277 8.760
v 41.248 15.377 8.760
v 33.037 15.189 8.760
v 33.055 -5.029 8.760
v 39.870 -5.029 8.760
v 39.879 -29.149 8.760
v 33.564 -29.149 8.760
v 33.573 -47.178 8.760
v 42.464 -47.167 8.760
v 42.920 -61.426 8.760
v -36.380 -61.968 8.760
v -36.478 -48.018 8.760
v -28.044 -47.963 8.760
usemtl roof
f 51 52 53 54 55 56 57 58 59 60 61 62 63 64 65 66 67 68 69 70 71 72 73 74 75 76 77 78 79 80 81 82 83 84 85 86 87 88 89 90 91
usemtl teaching_building
f 50 49 48 47 46 45 44 43 42 41 40 39 38 37 36 35 34 33 32 31 30 29 28 27 26 25 24 23 22 21 20 19 18 17 16 15 14 13 12 11 10
f 10 11 52 51
f 11 12 53 52
f 12 13 54 53
f 13 14 55 54
f 14 15 56 55
f 15 16 57 56
f 16 17 58 57
f 17 18 59 58
f 18 19 60 59
f 19 20 61 60
f 20 21 62 61
f 21 22 63 62
f 22 23 64 63
f 23 24 65 64
f 24 25 66 65
f 25 26 67 66
f 26 27 68 67
f 27 28 69 68
f 28 29 70 69
f 29 30 71 70
f 30 31 72 71
f 31 32 73 72
f 32 33 74 73
f 33 34 75 74
f 34 35 76 75
f 35 36 77 76
f 36 37 78 77
f 37 38 79 78
f 38 39 80 79
f 39 40 81 80
f 40 41 82 81
f 41 42 83 82
f 42 43 84 83
f 43 44 85 84
f 44 45 86 85
f 45 46 87 86
f 46 47 88 87
f 47 48 89 88
f 48 49 90 89
f 49 50 91 90
f 50 10 51 91
