# school_id SD0010
# school_name 历城二中仁轩小学
# boundary_source footprint_convex_hull_buffer_20m
# adjacent_block_merge_distance_m 2.0
mtllib ../campus_materials.mtl
o SD0010_campus_boundary
usemtl campus_boundary
v 31.504 -63.182 0.050
v -13.344 -59.495 0.050
v -34.530 -57.753 0.050
v -56.237 -55.967 0.050
v -49.722 23.284 0.050
v -46.341 64.401 0.050
v 13.344 59.495 0.050
v 53.306 56.209 0.050
v 52.209 6.972 0.050
v 50.164 -17.913 0.050
v 31.504 -63.182 0.050
l 1 2 3 4 5 6 7 8 9 10 11 1
o SD0010_T001_1hao
v -28.711 13.025 0.000
v -7.525 11.283 0.000
v -7.525 11.283 0.000
v 9.267 9.902 0.000
v 9.963 18.377 0.000
v -29.789 21.645 0.000
v -28.047 42.830 0.000
v 11.705 39.562 0.000
v 11.705 39.562 0.000
v 32.891 37.820 0.000
v 30.453 8.161 0.000
v 32.227 8.015 0.000
v 30.486 -13.171 0.000
v -9.267 -9.903 0.000
v -9.963 -18.377 0.000
v 20.323 -20.867 0.000
v 18.581 -42.052 0.000
v -11.705 -39.562 0.000
v -11.705 -39.562 0.000
v -32.891 -37.820 0.000
v -32.891 -37.820 0.000
v -34.666 -37.674 0.000
v -32.924 -16.489 0.000
v -31.149 -16.635 0.000
v -28.711 13.025 14.390
v -7.525 11.283 14.390
v -7.525 11.283 14.390
v 9.267 9.902 14.390
v 9.963 18.377 14.390
v -29.789 21.645 14.390
v -28.047 42.830 14.390
v 11.705 39.562 14.390
v 11.705 39.562 14.390
v 32.891 37.820 14.390
v 30.453 8.161 14.390
v 32.227 8.015 14.390
v 30.486 -13.171 14.390
v -9.267 -9.903 14.390
v -9.963 -18.377 14.390
v 20.323 -20.867 14.390
v 18.581 -42.052 14.390
v -11.705 -39.562 14.390
v -11.705 -39.562 14.390
v -32.891 -37.820 14.390
v -32.891 -37.820 14.390
v -34.666 -37.674 14.390
v -32.924 -16.489 14.390
v -31.149 -16.635 14.390
usemtl roof
f 36 37 38 39 40 41 42 43 44 45 46 47 48 49 50 51 52 53 54 55 56 57 58 59
usemtl teaching_building
f 35 34 33 32 31 30 29 28 27 26 25 24 23 22 21 20 19 18 17 16 15 14 13 12
f 12 13 37 36
f 13 14 38 37
f 14 15 39 38
f 15 16 40 39
f 16 17 41 40
f 17 18 42 41
f 18 19 43 42
f 19 20 44 43
f 20 21 45 44
f 21 22 46 45
f 22 23 47 46
f 23 24 48 47
f 24 25 49 48
f 25 26 50 49
f 26 27 51 50
f 27 28 52 51
f 28 29 53 52
f 29 30 54 53
f 30 31 55 54
f 31 32 56 55
f 32 33 57 56
f 33 34 58 57
f 34 35 59 58
f 35 12 36 59
