# school_id SD0081
# school_name 济南市历下区立德学校
# boundary_source footprint_convex_hull_buffer_20m
# adjacent_block_merge_distance_m 2.0
mtllib ../campus_materials.mtl
o SD0081_campus_boundary
usemtl campus_boundary
v -18.483 -68.582 0.050
v -48.829 -4.960 0.050
v -64.933 28.803 0.050
v 16.111 67.460 0.050
v 37.706 28.279 0.050
v 46.771 9.275 0.050
v 53.000 -34.495 0.050
v 0.911 -59.341 0.050
v -18.483 -68.582 0.050
l 1 2 3 4 5 6 7 8 9 1
o SD0081_T001_1hao
v -26.063 -2.788 0.000
v -20.261 -0.021 0.000
v -20.261 -0.020 0.000
v 2.856 11.006 0.000
v -0.519 18.082 0.000
v -30.777 3.650 0.000
v -38.271 19.362 0.000
v -3.986 35.715 0.000
v 7.699 41.289 0.000
v 18.569 18.501 0.000
v 19.907 19.139 0.000
v 27.402 3.427 0.000
v 26.063 2.788 0.000
v 26.063 2.788 0.000
v 17.763 -1.171 0.000
v -2.856 -11.006 0.000
v 0.519 -18.082 0.000
v 23.636 -7.056 0.000
v 31.130 -22.768 0.000
v 5.040 -35.212 0.000
v -7.699 -41.289 0.000
v -7.699 -41.288 0.000
v -9.038 -41.927 0.000
v -16.532 -26.215 0.000
v -15.193 -25.577 0.000
v -26.063 -2.788 16.900
v -20.261 -0.021 16.900
v -20.261 -0.020 16.900
v 2.856 11.006 16.900
v -0.519 18.082 16.900
v -30.777 3.650 16.900
v -38.271 19.362 16.900
v -3.986 35.715 16.900
v 7.699 41.289 16.900
v 18.569 18.501 16.900
v 19.907 19.139 16.900
v 27.402 3.427 16.900
v 26.063 2.788 16.900
v 26.063 2.788 16.900
v 17.763 -1.171 16.900
v -2.856 -11.006 16.900
v 0.519 -18.082 16.900
v 23.636 -7.056 16.900
v 31.130 -22.768 16.900
v 5.040 -35.212 16.900
v -7.699 -41.289 16.900
v -7.699 -41.288 16.900
v -9.038 -41.927 16.900
v -16.532 -26.215 16.900
v -15.193 -25.577 16.900
usemtl roof
f 35 36 37 38 39 40 41 42 43 44 45 46 47 48 49 50 51 52 53 54 55 56 57 58 59
usemtl teaching_building
f 34 33 32 31 30 29 28 27 26 25 24 23 22 21 20 19 18 17 16 15 14 13 12 11 10
f 10 11 36 35
f 11 12 37 36
f 12 13 38 37
f 13 14 39 38
f 14 15 40 39
f 15 16 41 40
f 16 17 42 41
f 17 18 43 42
f 18 19 44 43
f 19 20 45 44
f 20 21 46 45
f 21 22 47 46
f 22 23 48 47
f 23 24 49 48
f 24 25 50 49
f 25 26 51 50
f 26 27 52 51
f 27 28 53 52
f 28 29 54 53
f 29 30 55 54
f 30 31 56 55
f 31 32 57 56
f 32 33 58 57
f 33 34 59 58
f 34 10 35 59
