# school_id SD0088
# school_name 济南市历城第三中学
# boundary_source footprint_convex_hull_buffer_20m
# adjacent_block_merge_distance_m 2.0
mtllib ../campus_materials.mtl
o SD0088_campus_boundary
usemtl campus_boundary
v -65.081 -67.192 0.050
v -70.617 25.880 0.050
v -22.760 47.216 0.050
v 13.631 61.442 0.050
v 61.996 66.126 0.050
v 81.419 -0.603 0.050
v 83.749 -52.266 0.050
v -29.040 -65.559 0.050
v -65.081 -67.192 0.050
l 1 2 3 4 5 6 7 8 9 1
o SD0088_T001_1hao
v -49.830 13.250 0.000
v -15.043 24.525 0.000
v -15.043 28.759 0.000
v 18.673 31.578 0.000
v 18.325 41.803 0.000
v 47.425 44.621 0.000
v 50.621 27.698 0.000
v 21.868 24.525 0.000
v 22.931 15.715 0.000
v -14.338 12.189 0.000
v -13.981 17.484 0.000
v -40.609 7.259 0.000
v -39.538 -14.241 0.000
v -47.349 -14.949 0.000
v -49.830 13.250 14.000
v -15.043 24.525 14.000
v -15.043 28.759 14.000
v 18.673 31.578 14.000
v 18.325 41.803 14.000
v 47.425 44.621 14.000
v 50.621 27.698 14.000
v 21.868 24.525 14.000
v 22.931 15.715 14.000
v -14.338 12.189 14.000
v -13.981 17.484 14.000
v -40.609 7.259 14.000
v -39.538 -14.241 14.000
v -47.349 -14.949 14.000
usemtl roof
f 24 25 26 27 28 29 30 31 32 33 34 35 36 37
usemtl teaching_building
f 23 22 21 20 19 18 17 16 15 14 13 12 11 10
f 10 11 25 24
f 11 12 26 25
f 12 13 27 26
f 13 14 28 27
f 14 15 29 28
f 15 16 30 29
f 16 17 31 30
f 17 18 32 31
f 18 19 33 32
f 19 20 34 33
f 20 21 35 34
f 21 22 36 35
f 22 23 37 36
f 23 10 24 37
o SD0088_T002_2hao
v -3.599 -24.720 0.000
v 47.747 -22.421 0.000
v 48.327 -35.233 0.000
v 62.931 -34.581 0.000
v 61.547 -3.895 0.000
v -4.412 -6.835 0.000
v -3.599 -24.720 12.400
v 47.747 -22.421 12.400
v 48.327 -35.233 12.400
v 62.931 -34.581 12.400
v 61.547 -3.895 12.400
v -4.412 -6.835 12.400
usemtl roof
f 44 45 46 47 48 49
usemtl teaching_building
f 43 42 41 40 39 38
f 38 39 45 44
f 39 40 46 45
f 40 41 47 46
f 41 42 48 47
f 42 43 49 48
f 43 38 44 49
o SD0088_T003_3hao
v -47.617 -20.719 0.000
v -32.084 -19.879 0.000
v -30.665 -45.612 0.000
v -46.287 -46.320 0.000
v -47.617 -20.719 20.460
v -32.084 -19.879 20.460
v -30.665 -45.612 20.460
v -46.287 -46.320 20.460
usemtl roof
f 54 55 56 57
usemtl teaching_building
f 53 52 51 50
f 50 51 55 54
f 51 52 56 55
f 52 53 57 56
f 53 50 54 57
