# school_id SD0030
# school_name 山东师范大学附属小学(雅居园校区)
# boundary_source footprint_convex_hull_buffer_20m
# adjacent_block_merge_distance_m 2.0
mtllib ../campus_materials.mtl
o SD0030_campus_boundary
usemtl campus_boundary
v -33.914 -58.674 0.050
v -47.990 38.368 0.050
v 12.883 45.808 0.050
v 67.799 20.922 0.050
v 54.453 -8.122 0.050
v 33.756 -49.046 0.050
v -33.914 -58.674 0.050
l 1 2 3 4 5 6 7 1
o SD0030_T001_1hao
v -8.136 -24.722 0.000
v 19.195 -20.831 0.000
v 20.615 -30.714 0.000
v -16.984 -36.064 0.000
v -23.485 9.015 0.000
v -25.261 20.997 0.000
v 9.739 25.275 0.000
v 41.231 11.004 0.000
v 36.436 0.569 0.000
v 8.561 13.204 0.000
v -13.183 10.362 0.000
v -8.136 -24.722 13.720
v 19.195 -20.831 13.720
v 20.615 -30.714 13.720
v -16.984 -36.064 13.720
v -23.485 9.015 13.720
v -25.261 20.997 13.720
v 9.739 25.275 13.720
v 41.231 11.004 13.720
v 36.436 0.569 13.720
v 8.561 13.204 13.720
v -13.183 10.362 13.720
usemtl roof
f 19 20 21 22 23 24 25 26 27 28 29
usemtl teaching_building
f 18 17 16 15 14 13 12 11 10 9 8
f 8 9 20 19
f 9 10 21 20
f 10 11 22 21
f 11 12 23 22
f 12 13 24 23
f 13 14 25 24
f 14 15 26 25
f 15 16 27 26
f 16 17 28 27
f 17 18 29 28
f 18 8 19 29
