# school_id SD0079
# school_name 济南市历下区历山学校
# boundary_source footprint_convex_hull_buffer_20m
# adjacent_block_merge_distance_m 2.0
mtllib ../campus_materials.mtl
o SD0079_campus_boundary
usemtl campus_boundary
v -73.578 -71.192 0.050
v -114.366 14.017 0.050
v -123.788 56.376 0.050
v -42.914 74.124 0.050
v 45.149 57.734 0.050
v 129.514 23.412 0.050
v 140.670 -21.953 0.050
v 65.487 -40.176 0.050
v -73.578 -71.192 0.050
l 1 2 3 4 5 6 7 8 9 1
o SD0079_T001_1hao
v -95.339 20.591 0.000
v -38.007 33.159 0.000
v -42.587 53.720 0.000
v -99.910 41.140 0.000
v -95.339 20.591 16.110
v -38.007 33.159 16.110
v -42.587 53.720 16.110
v -99.910 41.140 16.110
usemtl roof
f 14 15 16 17
usemtl teaching_building
f 13 12 11 10
f 10 11 15 14
f 11 12 16 15
f 12 13 17 16
f 13 10 14 17
o SD0079_T002_2hao
v 4.336 -0.390 0.000
v 46.635 10.112 0.000
v 39.493 38.443 0.000
v -2.797 27.953 0.000
v 4.336 -0.390 29.560
v 46.635 10.112 29.560
v 39.493 38.443 29.560
v -2.797 27.953 29.560
usemtl roof
f 22 23 24 25
usemtl teaching_building
f 21 20 19 18
f 18 19 23 22
f 19 20 24 23
f 20 21 25 24
f 21 18 22 25
o SD0079_T003_3hao
v -19.438 -16.175 0.000
v -2.859 -11.665 0.000
v -13.394 23.045 0.000
v -29.079 18.800 0.000
v -19.438 -16.175 24.030
v -2.859 -11.665 24.030
v -13.394 23.045 24.030
v -29.079 18.800 24.030
usemtl roof
f 30 31 32 33
usemtl teaching_building
f 29 28 27 26
f 26 27 31 30
f 27 28 32 31
f 28 29 33 32
f 29 26 30 33
o SD0079_T004_4hao
v 57.026 -4.712 0.000
v 60.954 -20.696 0.000
v 116.457 -7.243 0.000
v 112.529 8.730 0.000
v 57.026 -4.712 22.190
v 60.954 -20.696 22.190
v 116.457 -7.243 22.190
v 112.529 8.730 22.190
usemtl roof
f 38 39 40 41
usemtl teaching_building
f 37 36 35 34
f 34 35 39 38
f 35 36 40 39
f 36 37 41 40
f 37 34 38 41
o SD0079_T005_5hao
v -7.662 -18.010 0.000
v -3.734 -33.994 0.000
v 51.759 -20.530 0.000
v 47.831 -4.557 0.000
v -7.662 -18.010 25.060
v -3.734 -33.994 25.060
v 51.759 -20.530 25.060
v 47.831 -4.557 25.060
usemtl roof
f 46 47 48 49
usemtl teaching_building
f 45 44 43 42
f 42 43 47 46
f 43 44 48 47
f 44 45 49 48
f 45 42 46 49
o SD0079_T006_6hao
v -62.406 -48.209 0.000
v -24.044 -38.117 0.000
v -28.696 -20.652 0.000
v -67.066 -30.744 0.000
v -62.406 -48.209 18.830
v -24.044 -38.117 18.830
v -28.696 -20.652 18.830
v -67.066 -30.744 18.830
usemtl roof
f 54 55 56 57
usemtl teaching_building
f 53 52 51 50
f 50 51 55 54
f 51 52 56 55
f 52 53 57 56
f 53 50 54 57
