# school_id SD0054
# school_name 山东省邮电学校
# boundary_source footprint_convex_hull_buffer_20m
# adjacent_block_merge_distance_m 2.0
mtllib ../campus_materials.mtl
o SD0054_campus_boundary
usemtl campus_boundary
v -23.270 -120.023 0.050
v -238.691 -64.523 0.050
v -238.406 16.415 0.050
v 140.121 206.063 0.050
v 214.360 206.771 0.050
v 215.041 135.843 0.050
v 148.064 -66.303 0.050
v -8.224 -119.645 0.050
v -23.270 -120.023 0.050
l 1 2 3 4 5 6 7 8 9 1
o SD0054_T001_1hao
v 145.406 138.494 0.000
v 195.010 138.976 0.000
v 194.553 186.581 0.000
v 144.941 186.108 0.000
v 145.406 138.494 9.900
v 195.010 138.976 9.900
v 194.553 186.581 9.900
v 144.941 186.108 9.900
usemtl roof
f 14 15 16 17
usemtl teaching_building
f 13 12 11 10
f 10 11 15 14
f 11 12 16 15
f 12 13 17 16
f 13 10 14 17
o SD0054_T002_2hao
v 66.124 46.063 0.000
v 133.903 46.405 0.000
v 133.813 64.769 0.000
v 66.027 64.436 0.000
v 66.124 46.063 9.900
v 133.903 46.405 9.900
v 133.813 64.769 9.900
v 66.027 64.436 9.900
usemtl roof
f 22 23 24 25
usemtl teaching_building
f 21 20 19 18
f 18 19 23 22
f 19 20 24 23
f 20 21 25 24
f 21 18 22 25
o SD0054_T003_3hao
v -81.019 -49.500 0.000
v -81.041 -52.539 0.000
v -139.864 -52.335 0.000
v -139.886 -59.535 0.000
v -71.343 -59.766 0.000
v -71.314 -49.389 0.000
v -21.245 -49.565 0.000
v -20.983 -99.959 0.000
v -11.787 -99.728 0.000
v -12.049 -49.871 0.000
v 5.916 -49.843 0.000
v 6.066 -59.970 0.000
v 84.067 -60.230 0.000
v 84.089 -52.558 0.000
v 20.811 -52.354 0.000
v 20.811 -50.195 0.000
v 132.203 -50.584 0.000
v 132.376 -2.766 0.000
v 14.461 -2.367 0.000
v 14.476 2.895 0.000
v 91.855 2.636 0.000
v 91.885 10.799 0.000
v 0.824 11.114 0.000
v 0.786 -0.051 0.000
v -14.797 0.005 0.000
v -14.505 83.522 0.000
v -24.091 83.560 0.000
v -24.375 1.922 0.000
v -71.351 2.080 0.000
v -71.553 20.759 0.000
v -113.025 21.185 0.000
v -113.197 13.550 0.000
v -80.914 13.226 0.000
v -80.817 2.367 0.000
v -218.449 4.044 0.000
v -218.636 -49.037 0.000
v -81.019 -49.500 9.900
v -81.041 -52.539 9.900
v -139.864 -52.335 9.900
v -139.886 -59.535 9.900
v -71.343 -59.766 9.900
v -71.314 -49.389 9.900
v -21.245 -49.565 9.900
v -20.983 -99.959 9.900
v -11.787 -99.728 9.900
v -12.049 -49.871 9.900
v 5.916 -49.843 9.900
v 6.066 -59.970 9.900
v 84.067 -60.230 9.900
v 84.089 -52.558 9.900
v 20.811 -52.354 9.900
v 20.811 -50.195 9.900
v 132.203 -50.584 9.900
v 132.376 -2.766 9.900
v 14.461 -2.367 9.900
v 14.476 2.895 9.900
v 91.855 2.636 9.900
v 91.885 10.799 9.900
v 0.824 11.114 9.900
v 0.786 -0.051 9.900
v -14.797 0.005 9.900
v -14.505 83.522 9.900
v -24.091 83.560 9.900
v -24.375 1.922 9.900
v -71.351 2.080 9.900
v -71.553 20.759 9.900
v -113.025 21.185 9.900
v -113.197 13.550 9.900
v -80.914 13.226 9.900
v -80.817 2.367 9.900
v -218.449 4.044 9.900
v -218.636 -49.037 9.900
usemtl roof
f 62 63 64 65 66 67 68 69 70 71 72 73 74 75 76 77 78 79 80 81 82 83 84 85 86 87 88 89 90 91 92 93 94 95 96 97
usemtl teaching_building
f 61 60 59 58 57 56 55 54 53 52 51 50 49 48 47 46 45 44 43 42 41 40 39 38 37 36 35 34 33 32 31 30 29 28 27 26
f 26 27 63 62
f 27 28 64 63
f 28 29 65 64
f 29 30 66 65
f 30 31 67 66
f 31 32 68 67
f 32 33 69 68
f 33 34 70 69
f 34 35 71 70
f 35 36 72 71
f 36 37 73 72
f 37 38 74 73
f 38 39 75 74
f 39 40 76 75
f 40 41 77 76
f 41 42 78 77
f 42 43 79 78
f 43 44 80 79
f 44 45 81 80
f 45 46 82 81
f 46 47 83 82
f 47 48 84 83
f 48 49 85 84
f 49 50 86 85
f 50 51 87 86
f 51 52 88 87
f 52 53 89 88
f 53 54 90 89
f 54 55 91 90
f 55 56 92 91
f 56 57 93 92
f 57 58 94 93
f 58 59 95 94
f 59 60 96 95
f 60 61 97 96
f 61 26 62 97
