# school_id SD0077
# school_name 济南市北坦小学
# boundary_source footprint_convex_hull_buffer_20m
# adjacent_block_merge_distance_m 2.0
mtllib ../campus_materials.mtl
o SD0077_campus_boundary
usemtl campus_boundary
v 51.157 -54.037 0.050
v 10.153 -47.499 0.050
v -81.661 -6.869 0.050
v -74.141 49.135 0.050
v 25.502 35.963 0.050
v 63.874 24.815 0.050
v 51.157 -54.037 0.050
l 1 2 3 4 5 6 7 1
o SD0077_T001_1hao
v 21.378 16.334 0.000
v 19.922 5.468 0.000
v -42.664 13.736 0.000
v -44.065 3.268 0.000
v -59.841 5.346 0.000
v -56.975 26.692 0.000
v 21.378 16.334 14.280
v 19.922 5.468 14.280
v -42.664 13.736 14.280
v -44.065 3.268 14.280
v -59.841 5.346 14.280
v -56.975 26.692 14.280
usemtl roof
f 14 15 16 17 18 19
usemtl teaching_building
f 13 12 11 10 9 8
f 8 9 15 14
f 9 10 16 15
f 10 11 17 16
f 11 12 18 17
f 12 13 19 18
f 13 8 14 19
o SD0077_T002_2hao
v 41.314 10.542 0.000
v 34.591 -31.143 0.000
v 15.869 -28.158 0.000
v 17.699 -16.806 0.000
v 23.940 -17.801 0.000
v 28.833 12.520 0.000
v 41.314 10.542 14.280
v 34.591 -31.143 14.280
v 15.869 -28.158 14.280
v 17.699 -16.806 14.280
v 23.940 -17.801 14.280
v 28.833 12.520 14.280
usemtl roof
f 26 27 28 29 30 31
usemtl teaching_building
f 25 24 23 22 21 20
f 20 21 27 26
f 21 22 28 27
f 22 23 29 28
f 23 24 30 29
f 24 25 31 30
f 25 20 26 31
