# school_id SD0061
# school_name 正丰中学
# boundary_source footprint_convex_hull_buffer_20m
# adjacent_block_merge_distance_m 2.0
mtllib ../campus_materials.mtl
o SD0061_campus_boundary
usemtl campus_boundary
v -50.051 -84.405 0.050
v -55.303 -38.134 0.050
v -47.845 70.075 0.050
v 51.514 85.242 0.050
v 58.073 42.898 0.050
v 58.012 -12.690 0.050
v 26.402 -75.845 0.050
v -50.051 -84.405 0.050
l 1 2 3 4 5 6 7 8 1
o SD0061_T001_1hao
v -28.994 52.721 0.000
v 34.804 62.460 0.000
v 38.071 41.369 0.000
v -25.727 31.619 0.000
v -28.994 52.721 9.860
v 34.804 62.460 9.860
v 38.071 41.369 9.860
v -25.727 31.619 9.860
usemtl roof
f 13 14 15 16
usemtl teaching_building
f 12 11 10 9
f 9 10 14 13
f 10 11 15 14
f 11 12 16 15
f 12 9 13 16
o SD0061_T002_2hao
v -25.432 7.709 0.000
v 35.116 15.193 0.000
v 38.017 -7.954 0.000
v -22.165 -13.393 0.000
v -25.432 7.709 8.020
v 35.116 15.193 8.020
v 38.017 -7.954 8.020
v -22.165 -13.393 8.020
usemtl roof
f 21 22 23 24
usemtl teaching_building
f 20 19 18 17
f 17 18 22 21
f 18 19 23 22
f 19 20 24 23
f 20 17 21 24
o SD0061_T003_3hao
v -32.431 -62.307 0.000
v 13.380 -57.178 0.000
v 10.586 -32.549 0.000
v -35.225 -37.690 0.000
v -32.431 -62.307 15.440
v 13.380 -57.178 15.440
v 10.586 -32.549 15.440
v -35.225 -37.690 15.440
usemtl roof
f 29 30 31 32
usemtl teaching_building
f 28 27 26 25
f 25 26 30 29
f 26 27 31 30
f 27 28 32 31
f 28 25 29 32
