# school_id SD0009
# school_name 历下区明德中学
# boundary_source footprint_convex_hull_buffer_20m
# adjacent_block_merge_distance_m 2.0
mtllib ../campus_materials.mtl
o SD0009_campus_boundary
usemtl campus_boundary
v -67.280 -102.184 0.050
v -71.532 11.323 0.050
v -73.055 72.202 0.050
v -45.378 90.089 0.050
v 25.174 91.848 0.050
v 60.606 27.241 0.050
v 61.258 0.943 0.050
v 61.706 -56.710 0.050
v 0.587 -100.504 0.050
v -67.280 -102.184 0.050
l 1 2 3 4 5 6 7 8 9 10 1
o SD0009_T001_1hao
v 14.298 39.561 0.000
v -40.634 38.202 0.000
v -40.277 24.108 0.000
v -6.247 24.959 0.000
v -6.006 15.032 0.000
v 29.559 15.917 0.000
v 29.417 21.598 0.000
v 40.733 21.886 0.000
v 41.260 0.618 0.000
v 28.917 0.308 0.000
v 28.801 5.205 0.000
v -2.543 4.443 0.000
v -1.749 -27.702 0.000
v 30.300 -26.929 0.000
v 30.139 -20.407 0.000
v 40.974 -20.141 0.000
v 41.626 -46.494 0.000
v 31.434 -46.737 0.000
v 31.264 -39.597 0.000
v -7.068 -40.547 0.000
v -6.060 -80.662 0.000
v -48.033 -81.701 0.000
v -49.193 -35.694 0.000
v -20.295 -34.976 0.000
v -21.500 12.689 0.000
v -51.541 11.948 0.000
v -52.781 61.492 0.000
v -39.037 61.835 0.000
v -39.251 70.236 0.000
v 13.495 71.551 0.000
v 14.298 39.561 13.750
v -40.634 38.202 13.750
v -40.277 24.108 13.750
v -6.247 24.959 13.750
v -6.006 15.032 13.750
v 29.559 15.917 13.750
v 29.417 21.598 13.750
v 40.733 21.886 13.750
v 41.260 0.618 13.750
v 28.917 0.308 13.750
v 28.801 5.205 13.750
v -2.543 4.443 13.750
v -1.749 -27.702 13.750
v 30.300 -26.929 13.750
v 30.139 -20.407 13.750
v 40.974 -20.141 13.750
v 41.626 -46.494 13.750
v 31.434 -46.737 13.750
v 31.264 -39.597 13.750
v -7.068 -40.547 13.750
v -6.060 -80.662 13.750
v -48.033 -81.701 13.750
v -49.193 -35.694 13.750
v -20.295 -34.976 13.750
v -21.500 12.689 13.750
v -51.541 11.948 13.750
v -52.781 61.492 13.750
v -39.037 61.835 13.750
v -39.251 70.236 13.750
v 13.495 71.551 13.750
usemtl roof
f 41 42 43 44 45 46 47 48 49 50 51 52 53 54 55 56 57 58 59 60 61 62 63 64 65 66 67 68 69 70
usemtl teaching_building
f 40 39 38 37 36 35 34 33 32 31 30 29 28 27 26 25 24 23 22 21 20 19 18 17 16 15 14 13 12 11
f 11 12 42 41
f 12 13 43 42
f 13 14 44 43
f 14 15 45 44
f 15 16 46 45
f 16 17 47 46
f 17 18 48 47
f 18 19 49 48
f 19 20 50 49
f 20 21 51 50
f 21 22 52 51
f 22 23 53 52
f 23 24 54 53
f 24 25 55 54
f 25 26 56 55
f 26 27 57 56
f 27 28 58 57
f 28 29 59 58
f 29 30 60 59
f 30 31 61 60
f 31 32 62 61
f 32 33 63 62
f 33 34 64 63
f 34 35 65 64
f 35 36 66 65
f 36 37 67 66
f 37 38 68 67
f 38 39 69 68
f 39 40 70 69
f 40 11 41 70
