# school_id SD0055
# school_name 山大附中奥体中路学校
# boundary_source footprint_convex_hull_buffer_20m
# adjacent_block_merge_distance_m 2.0
mtllib ../campus_materials.mtl
o SD0055_campus_boundary
usemtl campus_boundary
v 1.943 -121.199 0.050
v -98.963 35.920 0.050
v -104.486 80.049 0.050
v 47.573 100.614 0.050
v 53.441 72.136 0.050
v 75.415 -61.863 0.050
v 76.234 -81.406 0.050
v 58.646 -120.703 0.050
v 1.943 -121.199 0.050
l 1 2 3 4 5 6 7 8 9 1
o SD0055_T001_1hao
v -1.363 62.452 0.000
v 33.770 68.498 0.000
v 31.752 78.292 0.000
v -2.827 73.251 0.000
v -1.363 62.452 23.980
v 33.770 68.498 23.980
v 31.752 78.292 23.980
v -2.827 73.251 23.980
usemtl roof
f 14 15 16 17
usemtl teaching_building
f 13 12 11 10
f 10 11 15 14
f 11 12 16 15
f 12 13 17 16
f 13 10 14 17
o SD0055_T002_2hao
v -79.682 42.908 0.000
v -67.388 44.423 0.000
v -68.459 53.056 0.000
v -25.505 58.339 0.000
v -26.925 69.692 0.000
v -82.182 62.883 0.000
v -79.682 42.908 34.620
v -67.388 44.423 34.620
v -68.459 53.056 34.620
v -25.505 58.339 34.620
v -26.925 69.692 34.620
v -82.182 62.883 34.620
usemtl roof
f 24 25 26 27 28 29
usemtl teaching_building
f 23 22 21 20 19 18
f 18 19 25 24
f 19 20 26 25
f 20 21 27 26
f 21 22 28 27
f 22 23 29 28
f 23 18 24 29
o SD0055_T003_3hao
v -11.193 4.893 0.000
v 39.957 12.919 0.000
v 37.966 25.819 0.000
v -13.238 16.765 0.000
v -11.193 4.893 27.450
v 39.957 12.919 27.450
v 37.966 25.819 27.450
v -13.238 16.765 27.450
usemtl roof
f 34 35 36 37
usemtl teaching_building
f 33 32 31 30
f 30 31 35 34
f 31 32 36 35
f 32 33 37 36
f 33 30 34 37
o SD0055_T004_4hao
v 4.181 -79.139 0.000
v 56.054 -77.536 0.000
v 55.483 -63.907 0.000
v 3.851 -65.930 0.000
v 4.181 -79.139 32.910
v 56.054 -77.536 32.910
v 55.483 -63.907 32.910
v 3.851 -65.930 32.910
usemtl roof
f 42 43 44 45
usemtl teaching_building
f 41 40 39 38
f 38 39 43 42
f 39 40 44 43
f 40 41 45 44
f 41 38 42 45
o SD0055_T005_5hao
v 12.806 -101.103 0.000
v 45.635 -100.816 0.000
v 45.082 -92.548 0.000
v 12.226 -93.211 0.000
v 12.806 -101.103 20.750
v 45.635 -100.816 20.750
v 45.082 -92.548 20.750
v 12.226 -93.211 20.750
usemtl roof
f 50 51 52 53
usemtl teaching_building
f 49 48 47 46
f 46 47 51 50
f 47 48 52 51
f 48 49 53 52
f 49 46 50 53
