# school_id SD0023
# school_name 山东大学附属中学
# boundary_source footprint_convex_hull_buffer_20m
# adjacent_block_merge_distance_m 2.0
mtllib ../campus_materials.mtl
o SD0023_campus_boundary
usemtl campus_boundary
v 2.971 -251.627 0.050
v -280.594 -174.786 0.050
v -286.659 -96.102 0.050
v -288.123 -69.990 0.050
v -46.759 167.365 0.050
v 7.662 190.343 0.050
v 20.745 190.744 0.050
v 50.228 187.567 0.050
v 129.969 178.184 0.050
v 155.830 -78.344 0.050
v 158.239 -105.643 0.050
v 92.585 -240.328 0.050
v 2.971 -251.627 0.050
l 1 2 3 4 5 6 7 8 9 10 11 12 13 1
o SD0023_T001_1hao
v 19.976 170.711 0.000
v 12.004 170.467 0.000
v 13.057 161.735 0.000
v 20.565 161.735 0.000
v 20.993 157.479 0.000
v 25.278 157.479 0.000
v 26.135 152.361 0.000
v 49.068 153.643 0.000
v 47.988 167.693 0.000
v 20.351 165.990 0.000
v 19.976 170.711 10.560
v 12.004 170.467 10.560
v 13.057 161.735 10.560
v 20.565 161.735 10.560
v 20.993 157.479 10.560
v 25.278 157.479 10.560
v 26.135 152.361 10.560
v 49.068 153.643 10.560
v 47.988 167.693 10.560
v 20.351 165.990 10.560
usemtl roof
f 24 25 26 27 28 29 30 31 32 33
usemtl teaching_building
f 23 22 21 20 19 18 17 16 15 14
f 14 15 25 24
f 15 16 26 25
f 16 17 27 26
f 17 18 28 27
f 18 19 29 28
f 19 20 30 29
f 20 21 31 30
f 21 22 32 31
f 22 23 33 32
f 23 14 24 33
o SD0023_T002_2hao
v 57.835 146.259 0.000
v 61.771 146.558 0.000
v 62.485 137.482 0.000
v 113.145 141.384 0.000
v 111.681 160.198 0.000
v 57.076 155.998 0.000
v 57.835 146.259 15.450
v 61.771 146.558 15.450
v 62.485 137.482 15.450
v 113.145 141.384 15.450
v 111.681 160.198 15.450
v 57.076 155.998 15.450
usemtl roof
f 40 41 42 43 44 45
usemtl teaching_building
f 39 38 37 36 35 34
f 34 35 41 40
f 35 36 42 41
f 36 37 43 42
f 37 38 44 43
f 38 39 45 44
f 39 34 40 45
o SD0023_T003_3hao
v -18.231 152.427 0.000
v -17.178 144.623 0.000
v -14.589 144.811 0.000
v -14.018 142.246 0.000
v -11.715 142.434 0.000
v -11.134 138.908 0.000
v -8.930 139.196 0.000
v -7.010 127.202 0.000
v -14.491 126.439 0.000
v -12.670 115.009 0.000
v 10.826 117.386 0.000
v 13.700 100.241 0.000
v -26.292 95.576 0.000
v -26.864 99.003 0.000
v -27.828 99.003 0.000
v -28.113 100.916 0.000
v -29.836 100.916 0.000
v -32.934 127.534 0.000
v -29.934 127.998 0.000
v -31.193 135.061 0.000
v -33.568 134.741 0.000
v -35.460 150.426 0.000
v -18.231 152.427 28.120
v -17.178 144.623 28.120
v -14.589 144.811 28.120
v -14.018 142.246 28.120
v -11.715 142.434 28.120
v -11.134 138.908 28.120
v -8.930 139.196 28.120
v -7.010 127.202 28.120
v -14.491 126.439 28.120
v -12.670 115.009 28.120
v 10.826 117.386 28.120
v 13.700 100.241 28.120
v -26.292 95.576 28.120
v -26.864 99.003 28.120
v -27.828 99.003 28.120
v -28.113 100.916 28.120
v -29.836 100.916 28.120
v -32.934 127.534 28.120
v -29.934 127.998 28.120
v -31.193 135.061 28.120
v -33.568 134.741 28.120
v -35.460 150.426 28.120
usemtl roof
f 68 69 70 71 72 73 74 75 76 77 78 79 80 81 82 83 84 85 86 87 88 89
usemtl teaching_building
f 67 66 65 64 63 62 61 60 59 58 57 56 55 54 53 52 51 50 49 48 47 46
f 46 47 69 68
f 47 48 70 69
f 48 49 71 70
f 49 50 72 71
f 50 51 73 72
f 51 52 74 73
f 52 53 75 74
f 53 54 76 75
f 54 55 77 76
f 55 56 78 77
f 56 57 79 78
f 57 58 80 79
f 58 59 81 80
f 59 60 82 81
f 60 61 83 82
f 61 62 84 83
f 62 63 85 84
f 63 64 86 85
f 64 65 87 86
f 65 66 88 87
f 66 67 89 88
f 67 46 68 89
o SD0023_T004_4hao
v -27.551 32.635 0.000
v 51.782 42.982 0.000
v 50.131 62.359 0.000
v -29.202 52.013 0.000
v -27.551 32.635 19.140
v 51.782 42.982 19.140
v 50.131 62.359 19.140
v -29.202 52.013 19.140
usemtl roof
f 94 95 96 97
usemtl teaching_building
f 93 92 91 90
f 90 91 95 94
f 91 92 96 95
f 92 93 97 96
f 93 90 94 97
o SD0023_T005_5hao
v 60.450 26.666 0.000
v 64.092 -6.275 0.000
v 67.217 -8.607 0.000
v 69.564 -8.342 0.000
v 73.207 -41.803 0.000
v 78.411 -41.161 0.000
v 79.321 -47.750 0.000
v 104.817 -45.815 0.000
v 104.165 -35.734 0.000
v 100.657 -35.988 0.000
v 98.050 -13.770 0.000
v 88.820 -14.676 0.000
v 87.382 -3.954 0.000
v 80.232 -4.595 0.000
v 77.884 15.291 0.000
v 80.232 20.984 0.000
v 78.536 33.641 0.000
v 62.798 30.413 0.000
v 60.450 26.666 37.190
v 64.092 -6.275 37.190
v 67.217 -8.607 37.190
v 69.564 -8.342 37.190
v 73.207 -41.803 37.190
v 78.411 -41.161 37.190
v 79.321 -47.750 37.190
v 104.817 -45.815 37.190
v 104.165 -35.734 37.190
v 100.657 -35.988 37.190
v 98.050 -13.770 37.190
v 88.820 -14.676 37.190
v 87.382 -3.954 37.190
v 80.232 -4.595 37.190
v 77.884 15.291 37.190
v 80.232 20.984 37.190
v 78.536 33.641 37.190
v 62.798 30.413 37.190
usemtl roof
f 116 117 118 119 120 121 122 123 124 125 126 127 128 129 130 131 132 133
usemtl teaching_building
f 115 114 113 112 111 110 109 108 107 106 105 104 103 102 101 100 99 98
f 98 99 117 116
f 99 100 118 117
f 100 101 119 118
f 101 102 120 119
f 102 103 121 120
f 103 104 122 121
f 104 105 123 122
f 105 106 124 123
f 106 107 125 124
f 107 108 126 125
f 108 109 127 126
f 109 110 128 127
f 110 111 129 128
f 111 112 130 129
f 112 113 131 130
f 113 114 132 131
f 114 115 133 132
f 115 98 116 133
o SD0023_T006_6hao
v -10.277 -90.717 0.000
v 57.835 -85.145 0.000
v 56.638 -70.676 0.000
v -11.474 -76.236 0.000
v -10.277 -90.717 21.150
v 57.835 -85.145 21.150
v 56.638 -70.676 21.150
v -11.474 -76.236 21.150
usemtl roof
f 138 139 140 141
usemtl teaching_building
f 137 136 135 134
f 134 135 139 138
f 135 136 140 139
f 136 137 141 140
f 137 134 138 141
o SD0023_T007_7hao
v 79.295 -91.302 0.000
v 109.709 -89.556 0.000
v 109.191 -75.694 0.000
v 78.777 -77.441 0.000
v 79.295 -91.302 11.560
v 109.709 -89.556 11.560
v 109.191 -75.694 11.560
v 78.777 -77.441 11.560
usemtl roof
f 146 147 148 149
usemtl teaching_building
f 145 144 143 142
f 142 143 147 146
f 143 144 148 147
f 144 145 149 148
f 145 142 146 149
o SD0023_T008_8hao
v -266.702 -94.773 0.000
v -227.950 -92.695 0.000
v -226.790 -114.063 0.000
v -206.151 -112.957 0.000
v -208.311 -74.622 0.000
v -267.648 -77.905 0.000
v -266.702 -94.773 24.150
v -227.950 -92.695 24.150
v -226.790 -114.063 24.150
v -206.151 -112.957 24.150
v -208.311 -74.622 24.150
v -267.648 -77.905 24.150
usemtl roof
f 156 157 158 159 160 161
usemtl teaching_building
f 155 154 153 152 151 150
f 150 151 157 156
f 151 152 158 157
f 152 153 159 158
f 153 154 160 159
f 154 155 161 160
f 155 150 156 161
o SD0023_T009_9hao
v 124.474 -103.683 0.000
v 137.828 -101.870 0.000
v 135.918 -80.226 0.000
v 122.563 -82.039 0.000
v 124.474 -103.683 11.790
v 137.828 -101.870 11.790
v 135.918 -80.226 11.790
v 122.563 -82.039 11.790
usemtl roof
f 166 167 168 169
usemtl teaching_building
f 165 164 163 162
f 162 163 167 166
f 163 164 168 167
f 164 165 169 168
f 165 162 166 169
o SD0023_T010_10hao
v -216.729 -148.905 0.000
v -252.517 -150.983 0.000
v -253.035 -142.250 0.000
v -262.577 -142.814 0.000
v -261.738 -159.174 0.000
v -203.687 -155.471 0.000
v -205.240 -126.145 0.000
v -218.023 -126.885 0.000
v -216.729 -148.905 15.380
v -252.517 -150.983 15.380
v -253.035 -142.250 15.380
v -262.577 -142.814 15.380
v -261.738 -159.174 15.380
v -203.687 -155.471 15.380
v -205.240 -126.145 15.380
v -218.023 -126.885 15.380
usemtl roof
f 178 179 180 181 182 183 184 185
usemtl teaching_building
f 177 176 175 174 173 172 171 170
f 170 171 179 178
f 171 172 180 179
f 172 173 181 180
f 173 174 182 181
f 174 175 183 182
f 175 176 184 183
f 176 177 185 184
f 177 170 178 185
o SD0023_T011_11hao
v 12.093 -216.964 0.000
v 33.571 -214.256 0.000
v 32.223 -203.744 0.000
v 44.051 -202.251 0.000
v 45.399 -212.852 0.000
v 67.217 -210.100 0.000
v 66.181 -201.953 0.000
v 76.634 -200.638 0.000
v 79.348 -221.839 0.000
v 4.389 -231.290 0.000
v 1.595 -209.425 0.000
v 10.977 -208.243 0.000
v 12.093 -216.964 7.100
v 33.571 -214.256 7.100
v 32.223 -203.744 7.100
v 44.051 -202.251 7.100
v 45.399 -212.852 7.100
v 67.217 -210.100 7.100
v 66.181 -201.953 7.100
v 76.634 -200.638 7.100
v 79.348 -221.839 7.100
v 4.389 -231.290 7.100
v 1.595 -209.425 7.100
v 10.977 -208.243 7.100
usemtl roof
f 198 199 200 201 202 203 204 205 206 207 208 209
usemtl teaching_building
f 197 196 195 194 193 192 191 190 189 188 187 186
f 186 187 199 198
f 187 188 200 199
f 188 189 201 200
f 189 190 202 201
f 190 191 203 202
f 191 192 204 203
f 192 193 205 204
f 193 194 206 205
f 194 195 207 206
f 195 196 208 207
f 196 197 209 208
f 197 186 198 209
