# school_id SD0039
# school_name 山东省文化艺术学校
# boundary_source footprint_convex_hull_buffer_20m
# adjacent_block_merge_distance_m 2.0
mtllib ../campus_materials.mtl
o SD0039_campus_boundary
usemtl campus_boundary
v -3.728 -120.693 0.050
v -78.359 -53.213 0.050
v -81.801 78.444 0.050
v -82.477 118.776 0.050
v 30.489 114.650 0.050
v 127.761 46.469 0.050
v 127.031 17.500 0.050
v 64.757 -120.455 0.050
v -3.728 -120.693 0.050
l 1 2 3 4 5 6 7 8 9 1
o SD0039_T001_1hao
v 23.851 94.879 0.000
v 23.538 74.164 0.000
v -61.805 78.873 0.000
v -62.126 98.019 0.000
v 23.851 94.879 21.370
v 23.538 74.164 21.370
v -61.805 78.873 21.370
v -62.126 98.019 21.370
usemtl roof
f 14 15 16 17
usemtl teaching_building
f 13 12 11 10
f 10 11 15 14
f 11 12 16 15
f 12 13 17 16
f 13 10 14 17
o SD0039_T002_2hao
v 107.497 36.249 0.000
v 107.139 22.045 0.000
v 40.248 23.692 0.000
v 40.605 37.885 0.000
v 107.497 36.249 17.190
v 107.139 22.045 17.190
v 40.248 23.692 17.190
v 40.605 37.885 17.190
usemtl roof
f 22 23 24 25
usemtl teaching_building
f 21 20 19 18
f 18 19 23 22
f 19 20 24 23
f 20 21 25 24
f 21 18 22 25
o SD0039_T003_3hao
v -39.683 28.025 0.000
v -40.942 6.370 0.000
v -29.252 7.619 0.000
v -27.984 -14.666 0.000
v -58.965 -14.345 0.000
v -59.599 65.056 0.000
v -40.630 64.746 0.000
v -39.683 28.025 17.830
v -40.942 6.370 17.830
v -29.252 7.619 17.830
v -27.984 -14.666 17.830
v -58.965 -14.345 17.830
v -59.599 65.056 17.830
v -40.630 64.746 17.830
usemtl roof
f 33 34 35 36 37 38 39
usemtl teaching_building
f 32 31 30 29 28 27 26
f 26 27 34 33
f 27 28 35 34
f 28 29 36 35
f 29 30 37 36
f 30 31 38 37
f 31 32 39 38
f 32 26 33 39
o SD0039_T004_4hao
v 23.101 4.701 0.000
v 22.386 -16.567 0.000
v -22.491 -15.086 0.000
v -21.786 6.182 0.000
v 23.101 4.701 19.240
v 22.386 -16.567 19.240
v -22.491 -15.086 19.240
v -21.786 6.182 19.240
usemtl roof
f 44 45 46 47
usemtl teaching_building
f 43 42 41 40
f 40 41 45 44
f 41 42 46 45
f 42 43 47 46
f 43 40 44 47
o SD0039_T005_5hao
v -5.639 -24.172 0.000
v -6.005 -45.020 0.000
v -58.590 -44.125 0.000
v -58.232 -23.277 0.000
v -5.639 -24.172 18.640
v -6.005 -45.020 18.640
v -58.590 -44.125 18.640
v -58.232 -23.277 18.640
usemtl roof
f 52 53 54 55
usemtl teaching_building
f 51 50 49 48
f 48 49 53 52
f 49 50 54 53
f 50 51 55 54
f 51 48 52 55
o SD0039_T006_6hao
v 50.009 -24.769 0.000
v 49.652 -45.617 0.000
v -2.942 -44.722 0.000
v -2.584 -23.874 0.000
v 50.009 -24.769 15.050
v 49.652 -45.617 15.050
v -2.942 -44.722 15.050
v -2.584 -23.874 15.050
usemtl roof
f 60 61 62 63
usemtl teaching_building
f 59 58 57 56
f 56 57 61 60
f 57 58 62 61
f 58 59 63 62
f 59 56 60 63
o SD0039_T007_7hao
v 51.822 -100.500 0.000
v 3.944 -100.666 0.000
v 3.792 -55.632 0.000
v 51.670 -55.466 0.000
v 51.822 -100.500 26.690
v 3.944 -100.666 26.690
v 3.792 -55.632 26.690
v 51.670 -55.466 26.690
usemtl roof
f 68 69 70 71
usemtl teaching_building
f 67 66 65 64
f 64 65 69 68
f 65 66 70 69
f 66 67 71 70
f 67 64 68 71
