# school_id SD0025
# school_name 山东师大第二附属中（小）学
# boundary_source footprint_convex_hull_buffer_20m
# adjacent_block_merge_distance_m 2.0
mtllib ../campus_materials.mtl
o SD0025_campus_boundary
usemtl campus_boundary
v -74.412 -71.706 0.050
v -74.674 -34.137 0.050
v -71.273 66.473 0.050
v 19.288 67.078 0.050
v 82.677 55.300 0.050
v 83.530 -70.652 0.050
v -74.412 -71.706 0.050
l 1 2 3 4 5 6 7 1
o SD0025_T001_1hao
v -54.552 -51.573 0.000
v 63.395 -50.786 0.000
v 62.789 38.653 0.000
v 17.572 38.356 0.000
v 17.512 47.066 0.000
v -51.933 46.602 0.000
v -51.761 21.947 0.000
v 31.228 22.503 0.000
v 31.519 -22.026 0.000
v -5.586 -22.267 0.000
v -5.511 -34.071 0.000
v -54.672 -34.405 0.000
v -54.552 -51.573 9.900
v 63.395 -50.786 9.900
v 62.789 38.653 9.900
v 17.572 38.356 9.900
v 17.512 47.066 9.900
v -51.933 46.602 9.900
v -51.761 21.947 9.900
v 31.228 22.503 9.900
v 31.519 -22.026 9.900
v -5.586 -22.267 9.900
v -5.511 -34.071 9.900
v -54.672 -34.405 9.900
usemtl roof
f 20 21 22 23 24 25 26 27 28 29 30 31
usemtl teaching_building
f 19 18 17 16 15 14 13 12 11 10 9 8
f 8 9 21 20
f 9 10 22 21
f 10 11 23 22
f 11 12 24 23
f 12 13 25 24
f 13 14 26 25
f 14 15 27 26
f 15 16 28 27
f 16 17 29 28
f 17 18 30 29
f 18 19 31 30
f 19 8 20 31
