# school_id SD0063
# school_name 汶水学校
# boundary_source footprint_convex_hull_buffer_20m
# adjacent_block_merge_distance_m 2.0
mtllib ../campus_materials.mtl
o SD0063_campus_boundary
usemtl campus_boundary
v 39.435 -74.967 0.050
v -60.868 -56.103 0.050
v -45.210 64.180 0.050
v -19.098 64.180 0.050
v 60.815 51.285 0.050
v 39.435 -74.967 0.050
l 1 2 3 4 5 6 1
o SD0063_T001_1hao
v -20.701 44.180 0.000
v 37.730 34.751 0.000
v 35.538 26.417 0.000
v -14.863 32.220 0.000
v -19.605 6.475 0.000
v 23.852 0.672 0.000
v 23.116 -12.383 0.000
v -21.070 -6.944 0.000
v -25.453 -35.232 0.000
v 24.580 -42.848 0.000
v 23.116 -51.547 0.000
v -38.595 -39.941 0.000
v -27.645 44.180 0.000
v -20.701 44.180 11.370
v 37.730 34.751 11.370
v 35.538 26.417 11.370
v -14.863 32.220 11.370
v -19.605 6.475 11.370
v 23.852 0.672 11.370
v 23.116 -12.383 11.370
v -21.070 -6.944 11.370
v -25.453 -35.232 11.370
v 24.580 -42.848 11.370
v 23.116 -51.547 11.370
v -38.595 -39.941 11.370
v -27.645 44.180 11.370
usemtl roof
f 20 21 22 23 24 25 26 27 28 29 30 31 32
usemtl teaching_building
f 19 18 17 16 15 14 13 12 11 10 9 8 7
f 7 8 21 20
f 8 9 22 21
f 9 10 23 22
f 10 11 24 23
f 11 12 25 24
f 12 13 26 25
f 13 14 27 26
f 14 15 28 27
f 15 16 29 28
f 16 17 30 29
f 17 18 31 30
f 18 19 32 31
f 19 7 20 32
