# school_id SD0096
# school_name 济南市明睿小学
# boundary_source footprint_convex_hull_buffer_20m
# adjacent_block_merge_distance_m 2.0
mtllib ../campus_materials.mtl
o SD0096_campus_boundary
usemtl campus_boundary
v 60.916 -54.908 0.050
v -74.551 -34.533 0.050
v -60.915 54.893 0.050
v 74.551 34.548 0.050
v 60.916 -54.908 0.050
l 1 2 3 4 5 1
o SD0096_T001_1hao
v -51.759 -17.736 0.000
v 44.152 -32.162 0.000
v 51.759 17.747 0.000
v -44.152 32.151 0.000
v -51.759 -17.736 19.670
v 44.152 -32.162 19.670
v 51.759 17.747 19.670
v -44.152 32.151 19.670
usemtl roof
f 10 11 12 13
usemtl teaching_building
f 9 8 7 6
f 6 7 11 10
f 7 8 12 11
f 8 9 13 12
f 9 6 10 13
