# school_id SD0057
# school_name 弘毅小学
# boundary_source footprint_convex_hull_buffer_20m
# adjacent_block_merge_distance_m 2.0
mtllib ../campus_materials.mtl
o SD0057_campus_boundary
usemtl campus_boundary
v 46.028 -55.042 0.050
v -57.345 -54.208 0.050
v -61.896 10.314 0.050
v -61.670 44.628 0.050
v 85.406 43.640 0.050
v 85.146 4.188 0.050
v 46.028 -55.042 0.050
l 1 2 3 4 5 6 7 1
o SD0057_T001_1hao
v 35.326 -34.955 0.000
v -38.695 -34.358 0.000
v -38.588 -21.027 0.000
v -29.465 -21.104 0.000
v -29.224 10.433 0.000
v -17.512 10.345 0.000
v -17.753 -20.695 0.000
v 21.320 -21.004 0.000
v 21.579 10.540 0.000
v -41.891 10.953 0.000
v -41.802 24.494 0.000
v 65.275 23.775 0.000
v 65.186 10.256 0.000
v 35.701 10.448 0.000
v 35.326 -34.955 13.570
v -38.695 -34.358 13.570
v -38.588 -21.027 13.570
v -29.465 -21.104 13.570
v -29.224 10.433 13.570
v -17.512 10.345 13.570
v -17.753 -20.695 13.570
v 21.320 -21.004 13.570
v 21.579 10.540 13.570
v -41.891 10.953 13.570
v -41.802 24.494 13.570
v 65.275 23.775 13.570
v 65.186 10.256 13.570
v 35.701 10.448 13.570
usemtl roof
f 22 23 24 25 26 27 28 29 30 31 32 33 34 35
usemtl teaching_building
f 21 20 19 18 17 16 15 14 13 12 11 10 9 8
f 8 9 23 22
f 9 10 24 23
f 10 11 25 24
f 11 12 26 25
f 12 13 27 26
f 13 14 28 27
f 14 15 29 28
f 15 16 30 29
f 16 17 31 30
f 17 18 32 31
f 18 19 33 32
f 19 20 34 33
f 20 21 35 34
f 21 8 22 35
