# school_id SD0048
# school_name 山东省济南第十三中学分校
# boundary_source footprint_convex_hull_buffer_20m
# adjacent_block_merge_distance_m 2.0
mtllib ../campus_materials.mtl
o SD0048_campus_boundary
usemtl campus_boundary
v -14.165 -61.656 0.050
v -81.398 -50.120 0.050
v -236.906 7.133 0.050
v -235.823 53.031 0.050
v -78.992 50.471 0.050
v 158.287 41.973 0.050
v 208.189 38.396 0.050
v 214.526 11.262 0.050
v 212.378 -15.537 0.050
v 167.472 -30.399 0.050
v -14.165 -61.656 0.050
l 1 2 3 4 5 6 7 8 9 10 11 1
o SD0048_T001_1hao
v -80.888 22.695 0.000
v -48.145 17.367 0.000
v -47.324 25.017 0.000
v -79.513 30.477 0.000
v -80.888 22.695 14.210
v -48.145 17.367 14.210
v -47.324 25.017 14.210
v -79.513 30.477 14.210
usemtl roof
f 16 17 18 19
usemtl teaching_building
f 15 14 13 12
f 12 13 17 16
f 13 14 18 17
f 14 15 19 18
f 15 12 16 19
o SD0048_T002_2hao
v 151.589 -9.395 0.000
v 162.607 -10.942 0.000
v 164.045 2.256 0.000
v 193.502 -0.717 0.000
v 194.341 9.751 0.000
v 192.064 12.481 0.000
v 192.064 19.501 0.000
v 157.214 21.999 0.000
v 151.589 -9.395 13.610
v 162.607 -10.942 13.610
v 164.045 2.256 13.610
v 193.502 -0.717 13.610
v 194.341 9.751 13.610
v 192.064 12.481 13.610
v 192.064 19.501 13.610
v 157.214 21.999 13.610
usemtl roof
f 28 29 30 31 32 33 34 35
usemtl teaching_building
f 27 26 25 24 23 22 21 20
f 20 21 29 28
f 21 22 30 29
f 22 23 31 30
f 23 24 32 31
f 24 25 33 32
f 25 26 34 33
f 26 27 35 34
f 27 20 28 35
o SD0048_T003_3hao
v 2.340 -0.795 0.000
v 1.509 -36.178 0.000
v -9.768 -35.493 0.000
v -8.232 -3.964 0.000
v -42.779 -1.624 0.000
v -42.091 13.542 0.000
v -1.928 10.259 0.000
v -2.347 -0.806 0.000
v 2.340 -0.795 13.820
v 1.509 -36.178 13.820
v -9.768 -35.493 13.820
v -8.232 -3.964 13.820
v -42.779 -1.624 13.820
v -42.091 13.542 13.820
v -1.928 10.259 13.820
v -2.347 -0.806 13.820
usemtl roof
f 44 45 46 47 48 49 50 51
usemtl teaching_building
f 43 42 41 40 39 38 37 36
f 36 37 45 44
f 37 38 46 45
f 38 39 47 46
f 39 40 48 47
f 40 41 49 48
f 41 42 50 49
f 42 43 51 50
f 43 36 44 51
o SD0048_T004_4hao
v -14.170 -41.363 0.000
v -76.209 -30.718 0.000
v -75.379 -25.390 0.000
v -13.349 -35.305 0.000
v -14.170 -41.363 14.240
v -76.209 -30.718 14.240
v -75.379 -25.390 14.240
v -13.349 -35.305 14.240
usemtl roof
f 56 57 58 59
usemtl teaching_building
f 55 54 53 52
f 52 53 57 56
f 53 54 58 57
f 54 55 59 58
f 55 52 56 59
