# school_id SD0076
# school_name 济南市制锦市街小学
# boundary_source footprint_convex_hull_buffer_20m
# adjacent_block_merge_distance_m 2.0
mtllib ../campus_materials.mtl
o SD0076_campus_boundary
usemtl campus_boundary
v -120.655 -116.917 0.050
v -131.046 -115.589 0.050
v -178.331 -101.598 0.050
v -164.223 -28.115 0.050
v 215.499 207.232 0.050
v 262.091 203.171 0.050
v 276.840 179.169 0.050
v 275.044 159.645 0.050
v 0.494 -93.650 0.050
v -120.655 -116.917 0.050
l 1 2 3 4 5 6 7 8 9 10 1
o SD0076_T001_1hao
v 250.323 184.121 0.000
v 250.323 178.649 0.000
v 253.912 177.455 0.000
v 256.314 174.371 0.000
v 255.832 169.132 0.000
v 252.716 166.280 0.000
v 232.600 168.181 0.000
v 230.689 171.044 0.000
v 231.162 176.980 0.000
v 234.760 179.357 0.000
v 219.912 181.026 0.000
v 220.385 186.730 0.000
v 250.323 184.121 13.200
v 250.323 178.649 13.200
v 253.912 177.455 13.200
v 256.314 174.371 13.200
v 255.832 169.132 13.200
v 252.716 166.280 13.200
v 232.600 168.181 13.200
v 230.689 171.044 13.200
v 231.162 176.980 13.200
v 234.760 179.357 13.200
v 219.912 181.026 13.200
v 220.385 186.730 13.200
usemtl roof
f 23 24 25 26 27 28 29 30 31 32 33 34
usemtl teaching_building
f 22 21 20 19 18 17 16 15 14 13 12 11
f 11 12 24 23
f 12 13 25 24
f 13 14 26 25
f 14 15 27 26
f 15 16 28 27
f 16 17 29 28
f 17 18 30 29
f 18 19 31 30
f 19 20 32 31
f 20 21 33 32
f 21 22 34 33
f 22 11 23 34
o SD0076_T002_2hao
v -103.360 -87.763 0.000
v -118.244 -85.597 0.000
v -110.818 -48.912 0.000
v -113.887 -48.334 0.000
v -111.378 -37.191 0.000
v -27.734 -54.634 0.000
v -30.305 -69.624 0.000
v -38.672 -68.430 0.000
v -37.725 -62.682 0.000
v -107.823 -49.476 0.000
v -96.101 -51.926 0.000
v -103.360 -87.763 13.060
v -118.244 -85.597 13.060
v -110.818 -48.912 13.060
v -113.887 -48.334 13.060
v -111.378 -37.191 13.060
v -27.734 -54.634 13.060
v -30.305 -69.624 13.060
v -38.672 -68.430 13.060
v -37.725 -62.682 13.060
v -107.823 -49.476 13.060
v -96.101 -51.926 13.060
usemtl roof
f 46 47 48 49 50 51 52 53 54 55 56
usemtl teaching_building
f 45 44 43 42 41 40 39 38 37 36 35
f 35 36 47 46
f 36 37 48 47
f 37 38 49 48
f 38 39 50 49
f 39 40 51 50
f 40 41 52 51
f 41 42 53 52
f 42 43 54 53
f 43 44 55 54
f 44 45 56 55
f 45 35 46 56
o SD0076_T003_3hao
v -155.271 -87.564 0.000
v -127.762 -91.102 0.000
v -126.208 -79.561 0.000
v -143.325 -76.952 0.000
v -137.459 -41.878 0.000
v -146.235 -40.496 0.000
v -155.271 -87.564 9.900
v -127.762 -91.102 9.900
v -126.208 -79.561 9.900
v -143.325 -76.952 9.900
v -137.459 -41.878 9.900
v -146.235 -40.496 9.900
usemtl roof
f 63 64 65 66 67 68
usemtl teaching_building
f 62 61 60 59 58 57
f 57 58 64 63
f 58 59 65 64
f 59 60 66 65
f 60 61 67 66
f 61 62 68 67
f 62 57 63 68
