# school_id SD0034
# school_name 山东省实验中学
# boundary_source footprint_convex_hull_buffer_20m
# adjacent_block_merge_distance_m 2.0
mtllib ../campus_materials.mtl
o SD0034_campus_boundary
usemtl campus_boundary
v 12.722 -147.492 0.050
v -102.547 -62.331 0.050
v -108.981 -5.123 0.050
v -114.313 56.592 0.050
v -81.405 116.151 0.050
v 3.308 127.875 0.050
v 60.617 85.922 0.050
v 111.394 29.265 0.050
v 112.859 9.620 0.050
v 77.595 -82.100 0.050
v 33.993 -143.370 0.050
v 12.722 -147.492 0.050
l 1 2 3 4 5 6 7 8 9 10 11 12 1
o SD0034_T001_1hao
v -68.743 97.713 0.000
v -65.403 73.914 0.000
v -57.294 75.041 0.000
v -58.884 86.372 0.000
v -57.375 90.605 0.000
v -54.347 93.203 0.000
v -50.909 93.203 0.000
v -47.739 90.882 0.000
v -46.507 87.875 0.000
v -44.953 76.810 0.000
v 1.359 83.232 0.000
v -1.972 106.954 0.000
v -68.743 97.713 14.440
v -65.403 73.914 14.440
v -57.294 75.041 14.440
v -58.884 86.372 14.440
v -57.375 90.605 14.440
v -54.347 93.203 14.440
v -50.909 93.203 14.440
v -47.739 90.882 14.440
v -46.507 87.875 14.440
v -44.953 76.810 14.440
v 1.359 83.232 14.440
v -1.972 106.954 14.440
usemtl roof
f 25 26 27 28 29 30 31 32 33 34 35 36
usemtl teaching_building
f 24 23 22 21 20 19 18 17 16 15 14 13
f 13 14 26 25
f 14 15 27 26
f 15 16 28 27
f 16 17 29 28
f 17 18 30 29
f 18 19 31 30
f 19 20 32 31
f 20 21 33 32
f 21 22 34 33
f 22 23 35 34
f 23 24 36 35
f 24 13 25 36
o SD0034_T002_2hao
v -87.764 54.337 0.000
v -40.193 58.372 0.000
v -35.290 1.433 0.000
v -89.077 -3.144 0.000
v -93.863 52.248 0.000
v -87.764 54.337 26.830
v -40.193 58.372 26.830
v -35.290 1.433 26.830
v -89.077 -3.144 26.830
v -93.863 52.248 26.830
usemtl roof
f 42 43 44 45 46
usemtl teaching_building
f 41 40 39 38 37
f 37 38 43 42
f 38 39 44 43
f 39 40 45 44
f 40 41 46 45
f 41 37 42 46
o SD0034_T003_3hao
v 91.956 20.987 0.000
v 92.581 12.608 0.000
v 59.039 9.745 0.000
v 58.369 18.799 0.000
v 91.956 20.987 20.190
v 92.581 12.608 20.190
v 59.039 9.745 20.190
v 58.369 18.799 20.190
usemtl roof
f 51 52 53 54
usemtl teaching_building
f 50 49 48 47
f 47 48 52 51
f 48 49 53 52
f 49 50 54 53
f 50 47 51 54
o SD0034_T004_4hao
v -7.777 1.035 0.000
v -6.678 -8.792 0.000
v 3.208 -8.041 0.000
v 3.475 -10.727 0.000
v 13.602 -10.041 0.000
v 13.799 -12.694 0.000
v 26.908 -11.887 0.000
v 26.542 -7.477 0.000
v 39.348 -6.305 0.000
v 39.643 -9.378 0.000
v 52.993 -8.030 0.000
v 53.842 -22.101 0.000
v 44.063 -22.842 0.000
v 44.858 -31.143 0.000
v 30.686 -32.315 0.000
v 30.230 -26.235 0.000
v 21.863 -26.866 0.000
v 21.684 -24.544 0.000
v 10.959 -25.340 0.000
v 10.807 -23.317 0.000
v -0.052 -23.837 0.000
v -0.311 -22.134 0.000
v -16.859 -22.842 0.000
v -18.975 -0.292 0.000
v -7.777 1.035 22.670
v -6.678 -8.792 22.670
v 3.208 -8.041 22.670
v 3.475 -10.727 22.670
v 13.602 -10.041 22.670
v 13.799 -12.694 22.670
v 26.908 -11.887 22.670
v 26.542 -7.477 22.670
v 39.348 -6.305 22.670
v 39.643 -9.378 22.670
v 52.993 -8.030 22.670
v 53.842 -22.101 22.670
v 44.063 -22.842 22.670
v 44.858 -31.143 22.670
v 30.686 -32.315 22.670
v 30.230 -26.235 22.670
v 21.863 -26.866 22.670
v 21.684 -24.544 22.670
v 10.959 -25.340 22.670
v 10.807 -23.317 22.670
v -0.052 -23.837 22.670
v -0.311 -22.134 22.670
v -16.859 -22.842 22.670
v -18.975 -0.292 22.670
usemtl roof
f 79 80 81 82 83 84 85 86 87 88 89 90 91 92 93 94 95 96 97 98 99 100 101 102
usemtl teaching_building
f 78 77 76 75 74 73 72 71 70 69 68 67 66 65 64 63 62 61 60 59 58 57 56 55
f 55 56 80 79
f 56 57 81 80
f 57 58 82 81
f 58 59 83 82
f 59 60 84 83
f 60 61 85 84
f 61 62 86 85
f 62 63 87 86
f 63 64 88 87
f 64 65 89 88
f 65 66 90 89
f 66 67 91 90
f 67 68 92 91
f 68 69 93 92
f 69 70 94 93
f 70 71 95 94
f 71 72 96 95
f 72 73 97 96
f 73 74 98 97
f 74 75 99 98
f 75 76 100 99
f 76 77 101 100
f 77 78 102 101
f 78 55 79 102
o SD0034_T005_5hao
v -83.647 -51.428 0.000
v -68.993 -50.134 0.000
v -69.904 -33.509 0.000
v -38.487 -31.376 0.000
v -34.201 -33.122 0.000
v -27.619 -24.246 0.000
v -29.977 -9.433 0.000
v -87.746 -14.076 0.000
v -83.647 -51.428 21.340
v -68.993 -50.134 21.340
v -69.904 -33.509 21.340
v -38.487 -31.376 21.340
v -34.201 -33.122 21.340
v -27.619 -24.246 21.340
v -29.977 -9.433 21.340
v -87.746 -14.076 21.340
usemtl roof
f 111 112 113 114 115 116 117 118
usemtl teaching_building
f 110 109 108 107 106 105 104 103
f 103 104 112 111
f 104 105 113 112
f 105 106 114 113
f 106 107 115 114
f 107 108 116 115
f 108 109 117 116
f 109 110 118 117
f 110 103 111 118
o SD0034_T006_6hao
v 59.834 -72.563 0.000
v 28.489 -75.382 0.000
v 28.989 -81.959 0.000
v -32.433 -86.601 0.000
v -33.737 -69.556 0.000
v -20.868 -68.583 0.000
v -20.511 -73.259 0.000
v 22.595 -70.275 0.000
v 22.274 -65.975 0.000
v 25.274 -65.742 0.000
v 24.854 -60.171 0.000
v 58.378 -57.109 0.000
v 59.834 -72.563 7.400
v 28.489 -75.382 7.400
v 28.989 -81.959 7.400
v -32.433 -86.601 7.400
v -33.737 -69.556 7.400
v -20.868 -68.583 7.400
v -20.511 -73.259 7.400
v 22.595 -70.275 7.400
v 22.274 -65.975 7.400
v 25.274 -65.742 7.400
v 24.854 -60.171 7.400
v 58.378 -57.109 7.400
usemtl roof
f 131 132 133 134 135 136 137 138 139 140 141 142
usemtl teaching_building
f 130 129 128 127 126 125 124 123 122 121 120 119
f 119 120 132 131
f 120 121 133 132
f 121 122 134 133
f 122 123 135 134
f 123 124 136 135
f 124 125 137 136
f 125 126 138 137
f 126 127 139 138
f 127 128 140 139
f 128 129 141 140
f 129 130 142 141
f 130 119 131 142
