# school_id SD0004
# school_name 凤凰路初级中学
# boundary_source footprint_convex_hull_buffer_20m
# adjacent_block_merge_distance_m 2.0
mtllib ../campus_materials.mtl
o SD0004_campus_boundary
usemtl campus_boundary
v 39.776 -38.109 0.050
v -47.713 -27.690 0.050
v -39.775 38.100 0.050
v 47.713 27.698 0.050
v 39.776 -38.109 0.050
l 1 2 3 4 5 1
o SD0004_T001_1hao
v 22.311 -15.888 0.000
v 25.458 10.203 0.000
v -22.311 15.883 0.000
v -25.458 -10.199 0.000
v 22.311 -15.888 9.900
v 25.458 10.203 9.900
v -22.311 15.883 9.900
v -25.458 -10.199 9.900
usemtl roof
f 10 11 12 13
usemtl teaching_building
f 9 8 7 6
f 6 7 11 10
f 7 8 12 11
f 8 9 13 12
f 9 6 10 13
