# school_id SD0026
# school_name 山东师范大学第二附属中学(师大校区)
# boundary_source footprint_convex_hull_buffer_20m
# adjacent_block_merge_distance_m 2.0
mtllib ../campus_materials.mtl
o SD0026_campus_boundary
usemtl campus_boundary
v -225.321 -186.979 0.050
v -228.749 -101.254 0.050
v -228.749 -85.111 0.050
v 7.393 138.636 0.050
v 68.410 138.118 0.050
v 208.409 43.476 0.050
v 208.409 -0.609 0.050
v 56.043 -76.004 0.050
v -194.942 -186.979 0.050
v -225.321 -186.979 0.050
l 1 2 3 4 5 6 7 8 9 10 1
o SD0026_T001_1hao
v 61.894 81.802 0.000
v 14.980 82.200 0.000
v 15.292 118.568 0.000
v 62.207 118.170 0.000
v 61.894 81.802 30.520
v 14.980 82.200 30.520
v 15.292 118.568 30.520
v 62.207 118.170 30.520
usemtl roof
f 15 16 17 18
usemtl teaching_building
f 14 13 12 11
f 11 12 16 15
f 12 13 17 16
f 13 14 18 17
f 14 11 15 18
o SD0026_T002_2hao
v 99.502 36.691 0.000
v 48.792 38.106 0.000
v 49.400 59.706 0.000
v 100.109 58.291 0.000
v 99.502 36.691 18.930
v 48.792 38.106 18.930
v 49.400 59.706 18.930
v 100.109 58.291 18.930
usemtl roof
f 23 24 25 26
usemtl teaching_building
f 22 21 20 19
f 19 20 24 23
f 20 21 25 24
f 21 22 26 25
f 22 19 23 26
o SD0026_T003_3hao
v 188.409 11.809 0.000
v 109.719 11.809 0.000
v 109.719 32.855 0.000
v 188.409 32.855 0.000
v 188.409 11.809 18.810
v 109.719 11.809 18.810
v 109.719 32.855 18.810
v 188.409 32.855 18.810
usemtl roof
f 31 32 33 34
usemtl teaching_building
f 30 29 28 27
f 27 28 32 31
f 28 29 33 32
f 29 30 34 33
f 30 27 31 34
o SD0026_T004_4hao
v 47.560 -57.887 0.000
v 32.949 -59.313 0.000
v 29.359 3.717 0.000
v 22.410 77.215 0.000
v 46.363 77.690 0.000
v 47.560 -57.887 12.100
v 32.949 -59.313 12.100
v 29.359 3.717 12.100
v 22.410 77.215 12.100
v 46.363 77.690 12.100
usemtl roof
f 40 41 42 43 44
usemtl teaching_building
f 39 38 37 36 35
f 35 36 41 40
f 36 37 42 41
f 37 38 43 42
f 38 39 44 43
f 39 35 40 44
o SD0026_T005_5hao
v -199.166 -166.979 0.000
v -206.105 -166.979 0.000
v -204.908 -101.804 0.000
v -208.749 -100.854 0.000
v -208.749 -93.713 0.000
v -199.398 -93.956 0.000
v -199.166 -166.979 14.750
v -206.105 -166.979 14.750
v -204.908 -101.804 14.750
v -208.749 -100.854 14.750
v -208.749 -93.713 14.750
v -199.398 -93.956 14.750
usemtl roof
f 51 52 53 54 55 56
usemtl teaching_building
f 50 49 48 47 46 45
f 45 46 52 51
f 46 47 53 52
f 47 48 54 53
f 48 49 55 54
f 49 50 56 55
f 50 45 51 56
