# school_id SD0066
# school_name 洪家楼第三小学
# boundary_source footprint_convex_hull_buffer_20m
# adjacent_block_merge_distance_m 2.0
mtllib ../campus_materials.mtl
o SD0066_campus_boundary
usemtl campus_boundary
v -15.093 -52.923 0.050
v -50.460 21.079 0.050
v 10.578 49.828 0.050
v 47.365 -21.694 0.050
v -15.093 -52.923 0.050
l 1 2 3 4 5 1
o SD0066_T001_1hao
v -5.827 -25.929 0.000
v 20.327 -12.852 0.000
v 15.614 -4.981 0.000
v -1.837 -13.636 0.000
v -11.736 7.090 0.000
v 5.572 15.248 0.000
v 1.627 23.505 0.000
v -23.742 11.556 0.000
v -5.827 -25.929 22.990
v 20.327 -12.852 22.990
v 15.614 -4.981 22.990
v -1.837 -13.636 22.990
v -11.736 7.090 22.990
v 5.572 15.248 22.990
v 1.627 23.505 22.990
v -23.742 11.556 22.990
usemtl roof
f 14 15 16 17 18 19 20 21
usemtl teaching_building
f 13 12 11 10 9 8 7 6
f 6 7 15 14
f 7 8 16 15
f 8 9 17 16
f 9 10 18 17
f 10 11 19 18
f 11 12 20 19
f 12 13 21 20
f 13 6 14 21
