# school_id SD0044
# school_name 山东省济南普利初级中学
# boundary_source footprint_convex_hull_buffer_20m
# adjacent_block_merge_distance_m 2.0
mtllib ../campus_materials.mtl
o SD0044_campus_boundary
usemtl campus_boundary
v 22.208 -58.296 0.050
v -47.441 -54.353 0.050
v -47.441 5.990 0.050
v -18.553 51.883 0.050
v 22.903 47.419 0.050
v 86.709 38.617 0.050
v 79.556 -3.994 0.050
v 22.208 -58.296 0.050
l 1 2 3 4 5 6 7 8 1
o SD0044_T001_1hao
v 18.304 11.394 0.000
v 60.941 5.923 0.000
v 63.576 21.619 0.000
v 20.465 27.566 0.000
v 18.304 11.394 15.650
v 60.941 5.923 15.650
v 63.576 21.619 15.650
v 20.465 27.566 15.650
usemtl roof
f 13 14 15 16
usemtl teaching_building
f 12 11 10 9
f 9 10 14 13
f 10 11 15 14
f 11 12 16 15
f 12 9 13 16
o SD0044_T002_2hao
v -7.323 -4.302 0.000
v 3.213 -4.302 0.000
v 2.981 -37.122 0.000
v 14.723 -37.840 0.000
v 14.473 5.923 0.000
v -7.323 7.116 0.000
v -7.323 -4.302 39.000
v 3.213 -4.302 39.000
v 2.981 -37.122 39.000
v 14.723 -37.840 39.000
v 14.473 5.923 39.000
v -7.323 7.116 39.000
usemtl roof
f 23 24 25 26 27 28
usemtl teaching_building
f 22 21 20 19 18 17
f 17 18 24 23
f 18 19 25 24
f 19 20 26 25
f 20 21 27 26
f 21 22 28 27
f 22 17 23 28
