# school_id SD0049
# school_name 山东省济南第十五中学
# boundary_source footprint_convex_hull_buffer_20m
# adjacent_block_merge_distance_m 2.0
mtllib ../campus_materials.mtl
o SD0049_campus_boundary
usemtl campus_boundary
v 3.100 -125.788 0.050
v -73.928 -118.437 0.050
v -61.232 47.153 0.050
v -59.139 68.445 0.050
v -39.997 113.884 0.050
v -11.681 117.636 0.050
v 26.810 113.913 0.050
v 40.532 78.938 0.050
v 77.538 -23.429 0.050
v 80.773 -38.105 0.050
v 78.693 -58.088 0.050
v 3.100 -125.788 0.050
l 1 2 3 4 5 6 7 8 9 10 11 12 1
o SD0049_T001_1hao
v -11.657 94.170 0.000
v -11.326 97.508 0.000
v 12.673 95.187 0.000
v 10.486 72.979 0.000
v 21.815 71.885 0.000
v 19.574 49.036 0.000
v 9.075 50.053 0.000
v 8.146 40.613 0.000
v -41.307 45.410 0.000
v -39.531 63.473 0.000
v -26.808 62.235 0.000
v -25.933 71.067 0.000
v -28.397 71.310 0.000
v -26.013 95.562 0.000
v -11.657 94.170 17.800
v -11.326 97.508 17.800
v 12.673 95.187 17.800
v 10.486 72.979 17.800
v 21.815 71.885 17.800
v 19.574 49.036 17.800
v 9.075 50.053 17.800
v 8.146 40.613 17.800
v -41.307 45.410 17.800
v -39.531 63.473 17.800
v -26.808 62.235 17.800
v -25.933 71.067 17.800
v -28.397 71.310 17.800
v -26.013 95.562 17.800
usemtl roof
f 27 28 29 30 31 32 33 34 35 36 37 38 39 40
usemtl teaching_building
f 26 25 24 23 22 21 20 19 18 17 16 15 14 13
f 13 14 28 27
f 14 15 29 28
f 15 16 30 29
f 16 17 31 30
f 17 18 32 31
f 18 19 33 32
f 19 20 34 33
f 20 21 35 34
f 21 22 36 35
f 22 23 37 36
f 23 24 38 37
f 24 25 39 38
f 25 26 40 39
f 26 13 27 40
o SD0049_T002_2hao
v 13.316 6.445 0.000
v 11.164 -11.871 0.000
v -42.763 -5.626 0.000
v -40.611 12.680 0.000
v 13.316 6.445 20.460
v 11.164 -11.871 20.460
v -42.763 -5.626 20.460
v -40.611 12.680 20.460
usemtl roof
f 45 46 47 48
usemtl teaching_building
f 44 43 42 41
f 41 42 46 45
f 42 43 47 46
f 43 44 48 47
f 44 41 45 48
o SD0049_T003_3hao
v 9.682 -26.728 0.000
v 7.932 -43.154 0.000
v -39.174 -38.202 0.000
v -37.424 -21.787 0.000
v 9.682 -26.728 16.160
v 7.932 -43.154 16.160
v -39.174 -38.202 16.160
v -37.424 -21.787 16.160
usemtl roof
f 53 54 55 56
usemtl teaching_building
f 52 51 50 49
f 49 50 54 53
f 50 51 55 54
f 51 52 56 55
f 52 49 53 56
o SD0049_T004_4hao
v 58.287 -29.005 0.000
v 57.261 -38.921 0.000
v 60.546 -39.252 0.000
v 59.600 -48.339 0.000
v 15.351 -43.806 0.000
v 17.325 -24.816 0.000
v 58.287 -29.005 13.140
v 57.261 -38.921 13.140
v 60.546 -39.252 13.140
v 59.600 -48.339 13.140
v 15.351 -43.806 13.140
v 17.325 -24.816 13.140
usemtl roof
f 63 64 65 66 67 68
usemtl teaching_building
f 62 61 60 59 58 57
f 57 58 64 63
f 58 59 65 64
f 59 60 66 65
f 60 61 67 66
f 61 62 68 67
f 62 57 63 68
o SD0049_T005_5hao
v 32.922 -51.113 0.000
v 30.494 -71.497 0.000
v 11.494 -69.264 0.000
v 13.923 -48.880 0.000
v 32.922 -51.113 10.780
v 30.494 -71.497 10.780
v 11.494 -69.264 10.780
v 13.923 -48.880 10.780
usemtl roof
f 73 74 75 76
usemtl teaching_building
f 72 71 70 69
f 69 70 74 73
f 70 71 75 74
f 71 72 76 75
f 72 69 73 76
o SD0049_T006_6hao
v -2.577 -93.295 0.000
v -3.719 -105.046 0.000
v -52.486 -100.392 0.000
v -51.343 -88.619 0.000
v -2.577 -93.295 16.010
v -3.719 -105.046 16.010
v -52.486 -100.392 16.010
v -51.343 -88.619 16.010
usemtl roof
f 81 82 83 84
usemtl teaching_building
f 80 79 78 77
f 77 78 82 81
f 78 79 83 82
f 79 80 84 83
f 80 77 81 84
