# school_id SD0070
# school_name 济南历下区韶光小学
# boundary_source footprint_convex_hull_buffer_20m
# adjacent_block_merge_distance_m 2.0
mtllib ../campus_materials.mtl
o SD0070_campus_boundary
usemtl campus_boundary
v -48.880 -97.191 0.050
v -64.779 66.205 0.050
v -64.742 106.667 0.050
v 2.736 106.627 0.050
v 39.681 61.040 0.050
v 57.878 24.656 0.050
v 60.234 -58.778 0.050
v 60.272 -97.105 0.050
v -48.880 -97.191 0.050
l 1 2 3 4 5 6 7 8 9 1
o SD0070_T001_1hao
v -44.778 67.167 0.000
v -33.215 67.144 0.000
v -33.251 38.161 0.000
v 3.447 38.106 0.000
v 3.420 20.176 0.000
v -1.383 20.187 0.000
v -1.392 14.660 0.000
v -30.652 14.749 0.000
v -30.706 -0.617 0.000
v 6.304 -0.738 0.000
v 6.242 -19.950 0.000
v 2.233 -19.939 0.000
v 2.215 -26.660 0.000
v -30.626 -26.571 0.000
v -30.652 -36.630 0.000
v 7.626 -36.719 0.000
v 7.581 -58.937 0.000
v 3.563 -58.926 0.000
v 3.563 -65.327 0.000
v -30.742 -65.338 0.000
v -30.733 -77.177 0.000
v 40.252 -77.121 0.000
v 40.234 -59.070 0.000
v 9.840 -59.103 0.000
v 9.822 -38.178 0.000
v 38.958 -38.145 0.000
v 38.940 -20.293 0.000
v 10.537 -20.326 0.000
v 10.510 -1.169 0.000
v 38.038 -1.136 0.000
v 38.011 19.668 0.000
v 12.814 19.634 0.000
v 12.796 38.625 0.000
v 22.769 38.636 0.000
v 22.769 50.143 0.000
v -17.991 50.132 0.000
v -17.991 68.803 0.000
v -6.812 68.792 0.000
v -6.803 86.633 0.000
v -44.760 86.655 0.000
v -44.778 67.167 8.650
v -33.215 67.144 8.650
v -33.251 38.161 8.650
v 3.447 38.106 8.650
v 3.420 20.176 8.650
v -1.383 20.187 8.650
v -1.392 14.660 8.650
v -30.652 14.749 8.650
v -30.706 -0.617 8.650
v 6.304 -0.738 8.650
v 6.242 -19.950 8.650
v 2.233 -19.939 8.650
v 2.215 -26.660 8.650
v -30.626 -26.571 8.650
v -30.652 -36.630 8.650
v 7.626 -36.719 8.650
v 7.581 -58.937 8.650
v 3.563 -58.926 8.650
v 3.563 -65.327 8.650
v -30.742 -65.338 8.650
v -30.733 -77.177 8.650
v 40.252 -77.121 8.650
v 40.234 -59.070 8.650
v 9.840 -59.103 8.650
v 9.822 -38.178 8.650
v 38.958 -38.145 8.650
v 38.940 -20.293 8.650
v 10.537 -20.326 8.650
v 10.510 -1.169 8.650
v 38.038 -1.136 8.650
v 38.011 19.668 8.650
v 12.814 19.634 8.650
v 12.796 38.625 8.650
v 22.769 38.636 8.650
v 22.769 50.143 8.650
v -17.991 50.132 8.650
v -17.991 68.803 8.650
v -6.812 68.792 8.650
v -6.803 86.633 8.650
v -44.760 86.655 8.650
usemtl roof
f 50 51 52 53 54 55 56 57 58 59 60 61 62 63 64 65 66 67 68 69 70 71 72 73 74 75 76 77 78 79 80 81 82 83 84 85 86 87 88 89
usemtl teaching_building
f 49 48 47 46 45 44 43 42 41 40 39 38 37 36 35 34 33 32 31 30 29 28 27 26 25 24 23 22 21 20 19 18 17 16 15 14 13 12 11 10
f 10 11 51 50
f 11 12 52 51
f 12 13 53 52
f 13 14 54 53
f 14 15 55 54
f 15 16 56 55
f 16 17 57 56
f 17 18 58 57
f 18 19 59 58
f 19 20 60 59
f 20 21 61 60
f 21 22 62 61
f 22 23 63 62
f 23 24 64 63
f 24 25 65 64
f 25 26 66 65
f 26 27 67 66
f 27 28 68 67
f 28 29 69 68
f 29 30 70 69
f 30 31 71 70
f 31 32 72 71
f 32 33 73 72
f 33 34 74 73
f 34 35 75 74
f 35 36 76 75
f 36 37 77 76
f 37 38 78 77
f 38 39 79 78
f 39 40 80 79
f 40 41 81 80
f 41 42 82 81
f 42 43 83 82
f 43 44 84 83
f 44 45 85 84
f 45 46 86 85
f 46 47 87 86
f 47 48 88 87
f 48 49 89 88
f 49 10 50 89
