# school_id SD0062
# school_name 汇波小学
# boundary_source footprint_convex_hull_buffer_20m
# adjacent_block_merge_distance_m 2.0
mtllib ../campus_materials.mtl
o SD0062_campus_boundary
usemtl campus_boundary
v 179.164 -247.444 0.050
v 138.296 -246.865 0.050
v -134.860 124.469 0.050
v -132.767 149.209 0.050
v -105.914 170.190 0.050
v -84.255 169.835 0.050
v 180.090 -185.274 0.050
v 179.164 -247.444 0.050
l 1 2 3 4 5 6 7 8 1
o SD0062_T001_1hao
v -100.163 138.824 0.000
v -99.172 150.077 0.000
v -94.422 149.999 0.000
v -95.378 129.550 0.000
v -114.298 130.268 0.000
v -113.574 138.824 0.000
v -100.163 138.824 17.140
v -99.172 150.077 17.140
v -94.422 149.999 17.140
v -95.378 129.550 17.140
v -114.298 130.268 17.140
v -113.574 138.824 17.140
usemtl roof
f 15 16 17 18 19 20
usemtl teaching_building
f 14 13 12 11 10 9
f 9 10 16 15
f 10 11 17 16
f 11 12 18 17
f 12 13 19 18
f 13 14 20 19
f 14 9 15 20
o SD0062_T002_2hao
v 159.991 -191.768 0.000
v 159.464 -227.163 0.000
v 148.517 -227.008 0.000
v 149.035 -191.602 0.000
v 159.991 -191.768 10.110
v 159.464 -227.163 10.110
v 148.517 -227.008 10.110
v 149.035 -191.602 10.110
usemtl roof
f 25 26 27 28
usemtl teaching_building
f 24 23 22 21
f 21 22 26 25
f 22 23 27 26
f 23 24 28 27
f 24 21 25 28
