# school_id SD0071
# school_name 济南历城二中（唐冶校区）
# boundary_source footprint_convex_hull_buffer_20m
# adjacent_block_merge_distance_m 2.0
mtllib ../campus_materials.mtl
o SD0071_campus_boundary
usemtl campus_boundary
v 176.822 -334.636 0.050
v 70.718 -334.214 0.050
v -155.657 -120.314 0.050
v -156.156 -51.119 0.050
v -155.629 37.530 0.050
v -154.700 113.091 0.050
v -132.908 128.517 0.050
v 16.617 155.954 0.050
v 89.589 156.219 0.050
v 176.404 -245.885 0.050
v 176.822 -334.636 0.050
l 1 2 3 4 5 6 7 8 9 10 11 1
o SD0071_T001_1hao
v 73.700 66.840 0.000
v 18.723 66.641 0.000
v 18.473 135.961 0.000
v 73.459 136.160 0.000
v 73.700 66.840 16.270
v 18.723 66.641 16.270
v 18.473 135.961 16.270
v 73.459 136.160 16.270
usemtl roof
f 16 17 18 19
usemtl teaching_building
f 15 14 13 12
f 12 13 17 16
f 13 14 18 17
f 14 15 19 18
f 15 12 16 19
o SD0071_T002_2hao
v -4.793 35.757 0.000
v -135.630 37.348 0.000
v -134.827 102.655 0.000
v -125.045 102.534 0.000
v -124.956 109.642 0.000
v -104.045 109.387 0.000
v -104.143 101.274 0.000
v -80.609 100.986 0.000
v -80.520 108.127 0.000
v -19.528 107.387 0.000
v -19.626 99.284 0.000
v -4.017 99.096 0.000
v -4.793 35.757 16.520
v -135.630 37.348 16.520
v -134.827 102.655 16.520
v -125.045 102.534 16.520
v -124.956 109.642 16.520
v -104.045 109.387 16.520
v -104.143 101.274 16.520
v -80.609 100.986 16.520
v -80.520 108.127 16.520
v -19.528 107.387 16.520
v -19.626 99.284 16.520
v -4.017 99.096 16.520
usemtl roof
f 32 33 34 35 36 37 38 39 40 41 42 43
usemtl teaching_building
f 31 30 29 28 27 26 25 24 23 22 21 20
f 20 21 33 32
f 21 22 34 33
f 22 23 35 34
f 23 24 36 35
f 24 25 37 36
f 25 26 38 37
f 26 27 39 38
f 27 28 40 39
f 28 29 41 40
f 29 30 42 41
f 30 31 43 42
f 31 20 32 43
o SD0071_T003_3hao
v 78.528 20.889 0.000
v 63.222 20.756 0.000
v 63.534 -17.866 0.000
v 81.072 -17.734 0.000
v 81.313 -47.115 0.000
v 12.565 -47.668 0.000
v 12.405 -27.329 0.000
v 26.684 -16.816 0.000
v 26.425 14.511 0.000
v 17.010 14.433 0.000
v 16.805 38.808 0.000
v 78.376 39.316 0.000
v 78.528 20.889 12.980
v 63.222 20.756 12.980
v 63.534 -17.866 12.980
v 81.072 -17.734 12.980
v 81.313 -47.115 12.980
v 12.565 -47.668 12.980
v 12.405 -27.329 12.980
v 26.684 -16.816 12.980
v 26.425 14.511 12.980
v 17.010 14.433 12.980
v 16.805 38.808 12.980
v 78.376 39.316 12.980
usemtl roof
f 56 57 58 59 60 61 62 63 64 65 66 67
usemtl teaching_building
f 55 54 53 52 51 50 49 48 47 46 45 44
f 44 45 57 56
f 45 46 58 57
f 46 47 59 58
f 47 48 60 59
f 48 49 61 60
f 49 50 62 61
f 50 51 63 62
f 51 52 64 63
f 52 53 65 64
f 53 54 66 65
f 54 55 67 66
f 55 44 56 67
o SD0071_T004_4hao
v -1.518 -111.427 0.000
v -135.719 -111.637 0.000
v -136.156 -51.106 0.000
v -1.090 -50.885 0.000
v -1.518 -111.427 11.860
v -135.719 -111.637 11.860
v -136.156 -51.106 11.860
v -1.090 -50.885 11.860
usemtl roof
f 72 73 74 75
usemtl teaching_building
f 71 70 69 68
f 68 69 73 72
f 69 70 74 73
f 70 71 75 74
f 71 68 72 75
o SD0071_T005_5hao
v 78.082 -291.342 0.000
v 78.706 -314.246 0.000
v 156.727 -314.556 0.000
v 156.414 -248.066 0.000
v 78.082 -291.342 14.620
v 78.706 -314.246 14.620
v 156.727 -314.556 14.620
v 156.414 -248.066 14.620
usemtl roof
f 80 81 82 83
usemtl teaching_building
f 79 78 77 76
f 76 77 81 80
f 77 78 82 81
f 78 79 83 82
f 79 76 80 83
