# school_id SD0094
# school_name 济南市新世界小学
# boundary_source footprint_convex_hull_buffer_20m
# adjacent_block_merge_distance_m 2.0
mtllib ../campus_materials.mtl
o SD0094_campus_boundary
usemtl campus_boundary
v -20.272 -37.775 0.050
v -42.230 -22.422 0.050
v -42.684 1.619 0.050
v -39.143 43.247 0.050
v 66.338 42.526 0.050
v 68.654 -17.399 0.050
v -20.272 -37.775 0.050
l 1 2 3 4 5 6 7 1
o SD0094_T001_1hao
v 47.091 22.657 0.000
v 48.029 -1.607 0.000
v -4.583 -3.232 0.000
v -8.575 -13.733 0.000
v -16.086 -16.298 0.000
v -22.426 -11.865 0.000
v -22.668 0.958 0.000
v -20.783 23.121 0.000
v 47.091 22.657 15.340
v 48.029 -1.607 15.340
v -4.583 -3.232 15.340
v -8.575 -13.733 15.340
v -16.086 -16.298 15.340
v -22.426 -11.865 15.340
v -22.668 0.958 15.340
v -20.783 23.121 15.340
usemtl roof
f 16 17 18 19 20 21 22 23
usemtl teaching_building
f 15 14 13 12 11 10 9 8
f 8 9 17 16
f 9 10 18 17
f 10 11 19 18
f 11 12 20 19
f 12 13 21 20
f 13 14 22 21
f 14 15 23 22
f 15 8 16 23
