# school_id SD0168
# school_name 经纶小学
# boundary_source footprint_convex_hull_buffer_20m
# adjacent_block_merge_distance_m 2.0
mtllib ../campus_materials.mtl
o SD0168_campus_boundary
usemtl campus_boundary
v 81.791 -85.064 0.050
v -42.648 -42.833 0.050
v -132.810 47.105 0.050
v -117.376 99.025 0.050
v -83.036 88.941 0.050
v 99.314 13.597 0.050
v 91.668 -49.275 0.050
v 81.791 -85.064 0.050
l 1 2 3 4 5 6 7 8 1
o SD0168_T001_1hao
v -89.691 70.051 0.000
v -96.046 48.673 0.000
v -110.240 52.840 0.000
v -103.885 74.219 0.000
v -89.691 70.051 8.670
v -96.046 48.673 8.670
v -110.240 52.840 8.670
v -103.885 74.219 8.670
usemtl roof
f 13 14 15 16
usemtl teaching_building
f 12 11 10 9
f 9 10 14 13
f 10 11 15 14
f 11 12 16 15
f 12 9 13 16
o SD0168_T002_2hao
v 5.824 -18.845 0.000
v -1.372 -16.579 0.000
v -8.925 -12.180 0.000
v -11.445 -8.366 0.000
v -12.276 -4.442 0.000
v -11.204 0.079 0.000
v -8.925 3.539 0.000
v -4.491 4.965 0.000
v 7.736 2.821 0.000
v 9.658 8.292 0.000
v -14.556 17.346 0.000
v -9.041 31.031 0.000
v 25.238 19.015 0.000
v 24.281 14.958 0.000
v 30.511 13.300 0.000
v 31.235 16.395 0.000
v 77.625 0.919 0.000
v 73.790 -12.887 0.000
v 28.840 0.444 0.000
v 18.650 -30.153 0.000
v 33.032 -35.382 0.000
v 34.229 -33.005 0.000
v 71.994 -45.386 0.000
v 68.150 -59.314 0.000
v -31.816 -25.389 0.000
v -27.865 -11.704 0.000
v -1.613 -19.917 0.000
v -2.695 -23.598 0.000
v 4.384 -26.108 0.000
v 5.824 -18.845 19.300
v -1.372 -16.579 19.300
v -8.925 -12.180 19.300
v -11.445 -8.366 19.300
v -12.276 -4.442 19.300
v -11.204 0.079 19.300
v -8.925 3.539 19.300
v -4.491 4.965 19.300
v 7.736 2.821 19.300
v 9.658 8.292 19.300
v -14.556 17.346 19.300
v -9.041 31.031 19.300
v 25.238 19.015 19.300
v 24.281 14.958 19.300
v 30.511 13.300 19.300
v 31.235 16.395 19.300
v 77.625 0.919 19.300
v 73.790 -12.887 19.300
v 28.840 0.444 19.300
v 18.650 -30.153 19.300
v 33.032 -35.382 19.300
v 34.229 -33.005 19.300
v 71.994 -45.386 19.300
v 68.150 -59.314 19.300
v -31.816 -25.389 19.300
v -27.865 -11.704 19.300
v -1.613 -19.917 19.300
v -2.695 -23.598 19.300
v 4.384 -26.108 19.300
usemtl roof
f 46 47 48 49 50 51 52 53 54 55 56 57 58 59 60 61 62 63 64 65 66 67 68 69 70 71 72 73 74
usemtl teaching_building
f 45 44 43 42 41 40 39 38 37 36 35 34 33 32 31 30 29 28 27 26 25 24 23 22 21 20 19 18 17
f 17 18 47 46
f 18 19 48 47
f 19 20 49 48
f 20 21 50 49
f 21 22 51 50
f 22 23 52 51
f 23 24 53 52
f 24 25 54 53
f 25 26 55 54
f 26 27 56 55
f 27 28 57 56
f 28 29 58 57
f 29 30 59 58
f 30 31 60 59
f 31 32 61 60
f 32 33 62 61
f 33 34 63 62
f 34 35 64 63
f 35 36 65 64
f 36 37 66 65
f 37 38 67 66
f 38 39 68 67
f 39 40 69 68
f 40 41 70 69
f 41 42 71 70
f 42 43 72 71
f 43 44 73 72
f 44 45 74 73
f 45 17 46 74
