# school_id SD0132
# school_name 济南市辅仁学校
# boundary_source footprint_convex_hull_buffer_20m
# adjacent_block_merge_distance_m 2.0
mtllib ../campus_materials.mtl
o SD0132_campus_boundary
usemtl campus_boundary
v 12.542 -101.345 0.050
v -41.263 -75.927 0.050
v -94.903 2.058 0.050
v -104.389 45.563 0.050
v 60.811 81.115 0.050
v 68.576 45.544 0.050
v 71.873 19.548 0.050
v 72.393 5.566 0.050
v 64.492 -27.142 0.050
v 41.705 -85.274 0.050
v 12.542 -101.345 0.050
l 1 2 3 4 5 6 7 8 9 10 11 1
o SD0132_T001_1hao
v 1.392 31.921 0.000
v 4.911 13.317 0.000
v 51.920 17.915 0.000
v 52.304 7.580 0.000
v 5.295 2.993 0.000
v 5.679 -5.817 0.000
v 3.366 -18.441 0.000
v 45.372 -21.116 0.000
v 25.722 -71.246 0.000
v 11.842 -78.895 0.000
v -27.842 -60.148 0.000
v -19.366 -50.199 0.000
v -12.435 -34.901 0.000
v -8.192 -20.740 0.000
v -6.656 -1.982 0.000
v -6.656 10.642 0.000
v -9.969 29.478 0.000
v 1.392 31.921 12.660
v 4.911 13.317 12.660
v 51.920 17.915 12.660
v 52.304 7.580 12.660
v 5.295 2.993 12.660
v 5.679 -5.817 12.660
v 3.366 -18.441 12.660
v 45.372 -21.116 12.660
v 25.722 -71.246 12.660
v 11.842 -78.895 12.660
v -27.842 -60.148 12.660
v -19.366 -50.199 12.660
v -12.435 -34.901 12.660
v -8.192 -20.740 12.660
v -6.656 -1.982 12.660
v -6.656 10.642 12.660
v -9.969 29.478 12.660
usemtl roof
f 29 30 31 32 33 34 35 36 37 38 39 40 41 42 43 44 45
usemtl teaching_building
f 28 27 26 25 24 23 22 21 20 19 18 17 16 15 14 13 12
f 12 13 30 29
f 13 14 31 30
f 14 15 32 31
f 15 16 33 32
f 16 17 34 33
f 17 18 35 34
f 18 19 36 35
f 19 20 37 36
f 20 21 38 37
f 21 22 39 38
f 22 23 40 39
f 23 24 41 40
f 24 25 42 41
f 25 26 43 42
f 26 27 44 43
f 27 28 45 44
f 28 12 29 45
o SD0132_T001_1hao_seg02
v -80.576 30.230 0.000
v 45.524 57.367 0.000
v 48.847 42.146 0.000
v -23.385 26.593 0.000
v -22.322 21.751 0.000
v -76.199 10.156 0.000
v -80.576 30.230 12.660
v 45.524 57.367 12.660
v 48.847 42.146 12.660
v -23.385 26.593 12.660
v -22.322 21.751 12.660
v -76.199 10.156 12.660
usemtl roof
f 52 53 54 55 56 57
usemtl teaching_building
f 51 50 49 48 47 46
f 46 47 53 52
f 47 48 54 53
f 48 49 55 54
f 49 50 56 55
f 50 51 57 56
f 51 46 52 57
