# school_id SD0162
# school_name 砚泉学校
# boundary_source footprint_convex_hull_buffer_20m
# adjacent_block_merge_distance_m 2.0
mtllib ../campus_materials.mtl
o SD0162_campus_boundary
usemtl campus_boundary
v -208.293 -401.164 0.050
v -479.771 -295.964 0.050
v -482.535 -237.224 0.050
v -482.753 -209.336 0.050
v -102.276 287.143 0.050
v 204.238 352.522 0.050
v 372.477 -228.598 0.050
v 372.176 -262.495 0.050
v 355.538 -318.314 0.050
v -208.293 -401.164 0.050
l 1 2 3 4 5 6 7 8 9 10 1
o SD0162_T001_1hao
v 2.222 263.772 0.000
v 47.037 274.892 0.000
v 54.912 243.631 0.000
v 11.276 232.799 0.000
v 15.553 215.786 0.000
v 208.097 263.562 0.000
v 203.552 281.624 0.000
v 157.256 270.128 0.000
v 150.220 298.061 0.000
v 195.204 309.237 0.000
v 190.204 329.079 0.000
v 129.969 314.101 0.000
v 141.925 266.690 0.000
v 70.439 248.915 0.000
v 58.251 297.254 0.000
v -2.412 282.177 0.000
v 2.222 263.772 10.990
v 47.037 274.892 10.990
v 54.912 243.631 10.990
v 11.276 232.799 10.990
v 15.553 215.786 10.990
v 208.097 263.562 10.990
v 203.552 281.624 10.990
v 157.256 270.128 10.990
v 150.220 298.061 10.990
v 195.204 309.237 10.990
v 190.204 329.079 10.990
v 129.969 314.101 10.990
v 141.925 266.690 10.990
v 70.439 248.915 10.990
v 58.251 297.254 10.990
v -2.412 282.177 10.990
usemtl roof
f 27 28 29 30 31 32 33 34 35 36 37 38 39 40 41 42
usemtl teaching_building
f 26 25 24 23 22 21 20 19 18 17 16 15 14 13 12 11
f 11 12 28 27
f 12 13 29 28
f 13 14 30 29
f 14 15 31 30
f 15 16 32 31
f 16 17 33 32
f 17 18 34 33
f 18 19 35 34
f 19 20 36 35
f 20 21 37 36
f 21 22 38 37
f 22 23 39 38
f 23 24 40 39
f 24 25 41 40
f 25 26 42 41
f 26 11 27 42
o SD0162_T002_2hao
v -88.657 258.046 0.000
v -76.495 252.729 0.000
v -64.647 258.201 0.000
v -62.531 247.268 0.000
v -14.278 260.301 0.000
v -10.046 237.607 0.000
v -35.020 230.035 0.000
v -27.600 209.674 0.000
v 3.499 218.274 0.000
v -11.314 282.155 0.000
v -66.763 266.182 0.000
v -66.763 274.174 0.000
v -90.889 269.122 0.000
v -88.657 258.046 12.770
v -76.495 252.729 12.770
v -64.647 258.201 12.770
v -62.531 247.268 12.770
v -14.278 260.301 12.770
v -10.046 237.607 12.770
v -35.020 230.035 12.770
v -27.600 209.674 12.770
v 3.499 218.274 12.770
v -11.314 282.155 12.770
v -66.763 266.182 12.770
v -66.763 274.174 12.770
v -90.889 269.122 12.770
usemtl roof
f 56 57 58 59 60 61 62 63 64 65 66 67 68
usemtl teaching_building
f 55 54 53 52 51 50 49 48 47 46 45 44 43
f 43 44 57 56
f 44 45 58 57
f 45 46 59 58
f 46 47 60 59
f 47 48 61 60
f 48 49 62 61
f 49 50 63 62
f 50 51 64 63
f 51 52 65 64
f 52 53 66 65
f 53 54 67 66
f 54 55 68 67
f 55 43 56 68
o SD0162_T003_3hao
v 207.160 172.311 0.000
v 231.116 178.645 0.000
v 214.026 242.382 0.000
v 190.079 236.048 0.000
v 207.160 172.311 17.180
v 231.116 178.645 17.180
v 214.026 242.382 17.180
v 190.079 236.048 17.180
usemtl roof
f 73 74 75 76
usemtl teaching_building
f 72 71 70 69
f 69 70 74 73
f 70 71 75 74
f 71 72 76 75
f 72 69 73 76
o SD0162_T004_4hao
v 118.397 -125.495 0.000
v 117.995 -144.364 0.000
v 206.338 -146.232 0.000
v 206.740 -127.352 0.000
v 118.397 -125.495 27.750
v 117.995 -144.364 27.750
v 206.338 -146.232 27.750
v 206.740 -127.352 27.750
usemtl roof
f 81 82 83 84
usemtl teaching_building
f 80 79 78 77
f 77 78 82 81
f 78 79 83 82
f 79 80 84 83
f 80 77 81 84
o SD0162_T005_5hao
v 107.932 -125.163 0.000
v 107.298 -146.829 0.000
v 63.636 -145.580 0.000
v 61.716 -150.808 0.000
v 22.946 -149.692 0.000
v 23.732 -122.731 0.000
v 107.932 -125.163 30.400
v 107.298 -146.829 30.400
v 63.636 -145.580 30.400
v 61.716 -150.808 30.400
v 22.946 -149.692 30.400
v 23.732 -122.731 30.400
usemtl roof
f 91 92 93 94 95 96
usemtl teaching_building
f 90 89 88 87 86 85
f 85 86 92 91
f 86 87 93 92
f 87 88 94 93
f 88 89 95 94
f 89 90 96 95
f 90 85 91 96
o SD0162_T006_6hao
v -414.992 -232.453 0.000
v -446.868 -232.696 0.000
v -446.645 -261.514 0.000
v -411.010 -261.249 0.000
v -410.849 -281.644 0.000
v -460.405 -282.019 0.000
v -460.557 -262.421 0.000
v -457.744 -262.399 0.000
v -457.940 -236.643 0.000
v -462.539 -236.676 0.000
v -462.700 -216.049 0.000
v -415.117 -215.684 0.000
v -414.992 -232.453 13.380
v -446.868 -232.696 13.380
v -446.645 -261.514 13.380
v -411.010 -261.249 13.380
v -410.849 -281.644 13.380
v -460.405 -282.019 13.380
v -460.557 -262.421 13.380
v -457.744 -262.399 13.380
v -457.940 -236.643 13.380
v -462.539 -236.676 13.380
v -462.700 -216.049 13.380
v -415.117 -215.684 13.380
usemtl roof
f 109 110 111 112 113 114 115 116 117 118 119 120
usemtl teaching_building
f 108 107 106 105 104 103 102 101 100 99 98 97
f 97 98 110 109
f 98 99 111 110
f 99 100 112 111
f 100 101 113 112
f 101 102 114 113
f 102 103 115 114
f 103 104 116 115
f 104 105 117 116
f 105 106 118 117
f 106 107 119 118
f 107 108 120 119
f 108 97 109 120
o SD0162_T007_7hao
v 352.452 -231.348 0.000
v 352.202 -259.491 0.000
v 340.371 -259.392 0.000
v 340.014 -300.380 0.000
v 263.680 -299.717 0.000
v 263.867 -278.162 0.000
v 320.602 -278.659 0.000
v 320.754 -260.962 0.000
v 262.742 -260.442 0.000
v 263.019 -230.552 0.000
v 352.452 -231.348 20.280
v 352.202 -259.491 20.280
v 340.371 -259.392 20.280
v 340.014 -300.380 20.280
v 263.680 -299.717 20.280
v 263.867 -278.162 20.280
v 320.602 -278.659 20.280
v 320.754 -260.962 20.280
v 262.742 -260.442 20.280
v 263.019 -230.552 20.280
usemtl roof
f 131 132 133 134 135 136 137 138 139 140
usemtl teaching_building
f 130 129 128 127 126 125 124 123 122 121
f 121 122 132 131
f 122 123 133 132
f 123 124 134 133
f 124 125 135 134
f 125 126 136 135
f 126 127 137 136
f 127 128 138 137
f 128 129 139 138
f 129 130 140 139
f 130 121 131 140
o SD0162_T008_8hao
v -129.391 -367.986 0.000
v -205.983 -380.610 0.000
v -208.162 -362.581 0.000
v -130.114 -348.885 0.000
v -129.391 -367.986 13.210
v -205.983 -380.610 13.210
v -208.162 -362.581 13.210
v -130.114 -348.885 13.210
usemtl roof
f 145 146 147 148
usemtl teaching_building
f 144 143 142 141
f 141 142 146 145
f 142 143 147 146
f 143 144 148 147
f 144 141 145 148
