# school_id SD0136
# school_name 济南市长清第一中学
# boundary_source footprint_convex_hull_buffer_20m
# adjacent_block_merge_distance_m 2.0
mtllib ../campus_materials.mtl
o SD0136_campus_boundary
usemtl campus_boundary
v 43.103 -173.774 0.050
v -86.954 -145.528 0.050
v -195.963 -17.249 0.050
v -186.470 23.131 0.050
v -65.057 104.032 0.050
v -23.234 96.469 0.050
v 126.827 58.306 0.050
v 109.559 -9.671 0.050
v 43.103 -173.774 0.050
l 1 2 3 4 5 6 7 8 9 1
o SD0136_T001_1hao
v -39.377 78.439 0.000
v -41.586 69.960 0.000
v -34.199 68.435 0.000
v -31.507 77.389 0.000
v -27.483 76.913 0.000
v -29.683 67.197 0.000
v -24.791 66.246 0.000
v -30.264 38.711 0.000
v -39.949 41.762 0.000
v -35.925 58.906 0.000
v -54.151 63.582 0.000
v -52.237 73.873 0.000
v -62.593 76.725 0.000
v -60.679 82.916 0.000
v -39.377 78.439 9.340
v -41.586 69.960 9.340
v -34.199 68.435 9.340
v -31.507 77.389 9.340
v -27.483 76.913 9.340
v -29.683 67.197 9.340
v -24.791 66.246 9.340
v -30.264 38.711 9.340
v -39.949 41.762 9.340
v -35.925 58.906 9.340
v -54.151 63.582 9.340
v -52.237 73.873 9.340
v -62.593 76.725 9.340
v -60.679 82.916 9.340
usemtl roof
f 24 25 26 27 28 29 30 31 32 33 34 35 36 37
usemtl teaching_building
f 23 22 21 20 19 18 17 16 15 14 13 12 11 10
f 10 11 25 24
f 11 12 26 25
f 12 13 27 26
f 13 14 28 27
f 14 15 29 28
f 15 16 30 29
f 16 17 31 30
f 17 18 32 31
f 18 19 33 32
f 19 20 34 33
f 20 21 35 34
f 21 22 36 35
f 22 23 37 36
f 23 10 24 37
o SD0136_T002_2hao
v 68.412 51.666 0.000
v 71.864 46.050 0.000
v 73.545 46.426 0.000
v 74.547 50.671 0.000
v 102.520 43.851 0.000
v 97.432 28.187 0.000
v 88.507 30.089 0.000
v 90.242 37.428 0.000
v 73.018 41.043 0.000
v 70.952 34.377 0.000
v 62.322 36.135 0.000
v 65.488 47.808 0.000
v 63.994 50.759 0.000
v 66.105 52.904 0.000
v 68.412 51.666 16.660
v 71.864 46.050 16.660
v 73.545 46.426 16.660
v 74.547 50.671 16.660
v 102.520 43.851 16.660
v 97.432 28.187 16.660
v 88.507 30.089 16.660
v 90.242 37.428 16.660
v 73.018 41.043 16.660
v 70.952 34.377 16.660
v 62.322 36.135 16.660
v 65.488 47.808 16.660
v 63.994 50.759 16.660
v 66.105 52.904 16.660
usemtl roof
f 52 53 54 55 56 57 58 59 60 61 62 63 64 65
usemtl teaching_building
f 51 50 49 48 47 46 45 44 43 42 41 40 39 38
f 38 39 53 52
f 39 40 54 53
f 40 41 55 54
f 41 42 56 55
f 42 43 57 56
f 43 44 58 57
f 44 45 59 58
f 45 46 60 59
f 46 47 61 60
f 47 48 62 61
f 48 49 63 62
f 49 50 64 63
f 50 51 65 64
f 51 38 52 65
o SD0136_T003_3hao
v 22.678 37.771 0.000
v 20.898 29.525 0.000
v 49.784 25.435 0.000
v 48.657 12.380 0.000
v 16.624 19.742 0.000
v 15.175 13.253 0.000
v 2.342 15.663 0.000
v 2.905 22.948 0.000
v -27.751 30.962 0.000
v -25.488 41.861 0.000
v 6.858 34.090 0.000
v 9.121 40.656 0.000
v 22.678 37.771 17.200
v 20.898 29.525 17.200
v 49.784 25.435 17.200
v 48.657 12.380 17.200
v 16.624 19.742 17.200
v 15.175 13.253 17.200
v 2.342 15.663 17.200
v 2.905 22.948 17.200
v -27.751 30.962 17.200
v -25.488 41.861 17.200
v 6.858 34.090 17.200
v 9.121 40.656 17.200
usemtl roof
f 78 79 80 81 82 83 84 85 86 87 88 89
usemtl teaching_building
f 77 76 75 74 73 72 71 70 69 68 67 66
f 66 67 79 78
f 67 68 80 79
f 68 69 81 80
f 69 70 82 81
f 70 71 83 82
f 71 72 84 83
f 72 73 85 84
f 73 74 86 85
f 74 75 87 86
f 75 76 88 87
f 76 77 89 88
f 77 66 78 89
o SD0136_T004_4hao
v 83.660 8.179 0.000
v 72.195 10.390 0.000
v 71.739 12.325 0.000
v 62.268 14.414 0.000
v 59.183 3.990 0.000
v 90.510 -3.427 0.000
v 95.062 18.847 0.000
v 86.226 20.438 0.000
v 83.660 8.179 14.710
v 72.195 10.390 14.710
v 71.739 12.325 14.710
v 62.268 14.414 14.710
v 59.183 3.990 14.710
v 90.510 -3.427 14.710
v 95.062 18.847 14.710
v 86.226 20.438 14.710
usemtl roof
f 98 99 100 101 102 103 104 105
usemtl teaching_building
f 97 96 95 94 93 92 91 90
f 90 91 99 98
f 91 92 100 99
f 92 93 101 100
f 93 94 102 101
f 94 95 103 102
f 95 96 104 103
f 96 97 105 104
f 97 90 98 105
o SD0136_T005_5hao
v -93.848 -18.638 0.000
v -127.733 -9.827 0.000
v -131.480 -18.969 0.000
v -143.499 -17.941 0.000
v -137.740 5.394 0.000
v -90.137 -5.494 0.000
v -93.848 -18.638 17.540
v -127.733 -9.827 17.540
v -131.480 -18.969 17.540
v -143.499 -17.941 17.540
v -137.740 5.394 17.540
v -90.137 -5.494 17.540
usemtl roof
f 112 113 114 115 116 117
usemtl teaching_building
f 111 110 109 108 107 106
f 106 107 113 112
f 107 108 114 113
f 108 109 115 114
f 109 110 116 115
f 110 111 117 116
f 111 106 112 117
o SD0136_T005_5hao_seg02
v -143.499 -17.941 0.000
v -174.182 -11.994 0.000
v -168.808 10.866 0.000
v -139.636 4.576 0.000
v -143.499 -17.941 17.540
v -174.182 -11.994 17.540
v -168.808 10.866 17.540
v -139.636 4.576 17.540
usemtl roof
f 122 123 124 125
usemtl teaching_building
f 121 120 119 118
f 118 119 123 122
f 119 120 124 123
f 120 121 125 124
f 121 118 122 125
o SD0136_T006_6hao
v 1.716 -1.504 0.000
v 2.673 -8.368 0.000
v 27.042 -1.128 0.000
v 29.349 -12.746 0.000
v 7.475 -20.561 0.000
v 12.841 -35.042 0.000
v 15.533 -34.655 0.000
v 17.643 -38.468 0.000
v 53.147 -29.703 0.000
v 55.445 -37.142 0.000
v 11.499 -54.287 0.000
v 17.831 -77.157 0.000
v 39.330 -71.818 0.000
v 44.311 -83.248 0.000
v 15.720 -92.777 0.000
v -18.048 -85.348 0.000
v -16.903 -79.435 0.000
v -26.302 -77.721 0.000
v -27.456 -74.482 0.000
v -40.119 -80.396 0.000
v -57.960 -33.328 0.000
v -43.187 -27.414 0.000
v -47.220 -15.410 0.000
v -1.164 0.397 0.000
v 1.716 -1.504 15.760
v 2.673 -8.368 15.760
v 27.042 -1.128 15.760
v 29.349 -12.746 15.760
v 7.475 -20.561 15.760
v 12.841 -35.042 15.760
v 15.533 -34.655 15.760
v 17.643 -38.468 15.760
v 53.147 -29.703 15.760
v 55.445 -37.142 15.760
v 11.499 -54.287 15.760
v 17.831 -77.157 15.760
v 39.330 -71.818 15.760
v 44.311 -83.248 15.760
v 15.720 -92.777 15.760
v -18.048 -85.348 15.760
v -16.903 -79.435 15.760
v -26.302 -77.721 15.760
v -27.456 -74.482 15.760
v -40.119 -80.396 15.760
v -57.960 -33.328 15.760
v -43.187 -27.414 15.760
v -47.220 -15.410 15.760
v -1.164 0.397 15.760
usemtl roof
f 150 151 152 153 154 155 156 157 158 159 160 161 162 163 164 165 166 167 168 169 170 171 172 173
usemtl teaching_building
f 149 148 147 146 145 144 143 142 141 140 139 138 137 136 135 134 133 132 131 130 129 128 127 126
f 126 127 151 150
f 127 128 152 151
f 128 129 153 152
f 129 130 154 153
f 130 131 155 154
f 131 132 156 155
f 132 133 157 156
f 133 134 158 157
f 134 135 159 158
f 135 136 160 159
f 136 137 161 160
f 137 138 162 161
f 138 139 163 162
f 139 140 164 163
f 140 141 165 164
f 141 142 166 165
f 142 143 167 166
f 143 144 168 167
f 144 145 169 168
f 145 146 170 169
f 146 147 171 170
f 147 148 172 171
f 148 149 173 172
f 149 126 150 173
o SD0136_T007_7hao
v -66.250 -106.749 0.000
v -19.300 -112.685 0.000
v 37.827 -131.433 0.000
v 30.888 -150.655 0.000
v -22.037 -131.112 0.000
v -76.096 -127.420 0.000
v -74.165 -107.070 0.000
v -66.250 -106.749 20.320
v -19.300 -112.685 20.320
v 37.827 -131.433 20.320
v 30.888 -150.655 20.320
v -22.037 -131.112 20.320
v -76.096 -127.420 20.320
v -74.165 -107.070 20.320
usemtl roof
f 181 182 183 184 185 186 187
usemtl teaching_building
f 180 179 178 177 176 175 174
f 174 175 182 181
f 175 176 183 182
f 176 177 184 183
f 177 178 185 184
f 178 179 186 185
f 179 180 187 186
f 180 174 181 187
