# school_id SD0178
# school_name 长清第十四中学
# boundary_source footprint_convex_hull_buffer_20m
# adjacent_block_merge_distance_m 2.0
mtllib ../campus_materials.mtl
o SD0178_campus_boundary
usemtl campus_boundary
v 61.357 -99.046 0.050
v -16.152 -76.966 0.050
v -117.078 29.444 0.050
v -102.642 77.708 0.050
v -54.049 70.385 0.050
v -18.784 60.283 0.050
v 8.662 50.898 0.050
v 81.655 -5.188 0.050
v 71.362 -63.872 0.050
v 61.357 -99.046 0.050
l 1 2 3 4 5 6 7 8 9 10 1
o SD0178_T001_1hao
v -59.679 47.496 0.000
v -58.311 50.801 0.000
v -24.777 41.195 0.000
v -25.707 37.138 0.000
v -0.918 33.037 0.000
v -3.753 12.388 0.000
v -31.090 18.899 0.000
v -32.351 15.660 0.000
v -61.226 23.774 0.000
v -64.624 27.300 0.000
v -94.599 34.806 0.000
v -88.456 55.344 0.000
v -59.679 47.496 12.810
v -58.311 50.801 12.810
v -24.777 41.195 12.810
v -25.707 37.138 12.810
v -0.918 33.037 12.810
v -3.753 12.388 12.810
v -31.090 18.899 12.810
v -32.351 15.660 12.810
v -61.226 23.774 12.810
v -64.624 27.300 12.810
v -94.599 34.806 12.810
v -88.456 55.344 12.810
usemtl roof
f 23 24 25 26 27 28 29 30 31 32 33 34
usemtl teaching_building
f 22 21 20 19 18 17 16 15 14 13 12 11
f 11 12 24 23
f 12 13 25 24
f 13 14 26 25
f 14 15 27 26
f 15 16 28 27
f 16 17 29 28
f 17 18 30 29
f 18 19 31 30
f 19 20 32 31
f 20 21 33 32
f 21 22 34 33
f 22 11 23 34
o SD0178_T002_2hao
v 0.727 -8.703 0.000
v 40.655 -20.243 0.000
v 37.516 -31.861 0.000
v 55.016 -36.901 0.000
v 57.601 -24.167 0.000
v 56.716 -23.847 0.000
v 59.863 -13.666 0.000
v 42.595 -9.985 0.000
v 42.998 -4.779 0.000
v 26.705 0.030 0.000
v 25.167 -4.779 0.000
v 11.699 -2.612 0.000
v 12.263 2.517 0.000
v 3.785 4.429 0.000
v 0.727 -8.703 12.690
v 40.655 -20.243 12.690
v 37.516 -31.861 12.690
v 55.016 -36.901 12.690
v 57.601 -24.167 12.690
v 56.716 -23.847 12.690
v 59.863 -13.666 12.690
v 42.595 -9.985 12.690
v 42.998 -4.779 12.690
v 26.705 0.030 12.690
v 25.167 -4.779 12.690
v 11.699 -2.612 12.690
v 12.263 2.517 12.690
v 3.785 4.429 12.690
usemtl roof
f 49 50 51 52 53 54 55 56 57 58 59 60 61 62
usemtl teaching_building
f 48 47 46 45 44 43 42 41 40 39 38 37 36 35
f 35 36 50 49
f 36 37 51 50
f 37 38 52 51
f 38 39 53 52
f 39 40 54 53
f 40 41 55 54
f 41 42 56 55
f 42 43 57 56
f 43 44 58 57
f 44 45 59 58
f 45 46 60 59
f 46 47 61 60
f 47 48 62 61
f 48 35 49 62
o SD0178_T003_3hao
v 51.842 -59.396 0.000
v 47.594 -74.330 0.000
v -5.408 -59.231 0.000
v -2.394 -46.176 0.000
v 51.842 -59.396 9.830
v 47.594 -74.330 9.830
v -5.408 -59.231 9.830
v -2.394 -46.176 9.830
usemtl roof
f 67 68 69 70
usemtl teaching_building
f 66 65 64 63
f 63 64 68 67
f 64 65 69 68
f 65 66 70 69
f 66 63 67 70
