# school_id SD0112
# school_name 济南市第一中学
# boundary_source footprint_convex_hull_buffer_20m
# adjacent_block_merge_distance_m 2.0
mtllib ../campus_materials.mtl
o SD0112_campus_boundary
usemtl campus_boundary
v -80.090 -183.683 0.050
v -117.973 -73.529 0.050
v -124.237 -52.765 0.050
v -135.025 18.700 0.050
v -137.692 148.494 0.050
v -117.011 197.897 0.050
v -67.583 211.916 0.050
v 146.544 124.307 0.050
v 178.893 107.270 0.050
v 202.663 7.604 0.050
v 207.004 -15.822 0.050
v 176.297 -114.509 0.050
v -23.285 -178.254 0.050
v -80.090 -183.683 0.050
l 1 2 3 4 5 6 7 8 9 10 11 12 13 14 1
o SD0112_T001_1hao
v -68.767 190.791 0.000
v -52.486 125.175 0.000
v -85.529 115.668 0.000
v -102.283 181.285 0.000
v -68.767 190.791 18.930
v -52.486 125.175 18.930
v -85.529 115.668 18.930
v -102.283 181.285 18.930
usemtl roof
f 19 20 21 22
usemtl teaching_building
f 18 17 16 15
f 15 16 20 19
f 16 17 21 20
f 17 18 22 21
f 18 15 19 22
o SD0112_T002_2hao
v -101.801 149.427 0.000
v -92.233 99.507 0.000
v -109.941 93.803 0.000
v -117.609 144.674 0.000
v -101.801 149.427 24.710
v -92.233 99.507 24.710
v -109.941 93.803 24.710
v -117.609 144.674 24.710
usemtl roof
f 27 28 29 30
usemtl teaching_building
f 26 25 24 23
f 23 24 28 27
f 24 25 29 28
f 25 26 30 29
f 26 23 27 30
o SD0112_T003_3hao
v -48.175 112.341 0.000
v -41.954 89.039 0.000
v -76.907 80.483 0.000
v -81.218 103.310 0.000
v -48.175 112.341 17.410
v -41.954 89.039 17.410
v -76.907 80.483 17.410
v -81.218 103.310 17.410
usemtl roof
f 35 36 37 38
usemtl teaching_building
f 34 33 32 31
f 31 32 36 35
f 32 33 37 36
f 33 34 38 37
f 34 31 35 38
o SD0112_T004_4hao
v 91.638 65.748 0.000
v 107.436 79.533 0.000
v 121.325 73.829 0.000
v 131.375 76.205 0.000
v 137.605 85.712 0.000
v 158.670 81.434 0.000
v 161.544 93.803 0.000
v 138.078 106.162 0.000
v 98.823 97.606 0.000
v 83.015 81.434 0.000
v 91.638 65.748 23.840
v 107.436 79.533 23.840
v 121.325 73.829 23.840
v 131.375 76.205 23.840
v 137.605 85.712 23.840
v 158.670 81.434 23.840
v 161.544 93.803 23.840
v 138.078 106.162 23.840
v 98.823 97.606 23.840
v 83.015 81.434 23.840
usemtl roof
f 49 50 51 52 53 54 55 56 57 58
usemtl teaching_building
f 48 47 46 45 44 43 42 41 40 39
f 39 40 50 49
f 40 41 51 50
f 41 42 52 51
f 42 43 53 52
f 43 44 54 53
f 44 45 55 54
f 45 46 56 55
f 46 47 57 56
f 47 48 58 57
f 48 39 49 58
o SD0112_T005_5hao
v -91.751 91.902 0.000
v -78.344 40.070 0.000
v -105.157 33.415 0.000
v -114.734 83.335 0.000
v -91.751 91.902 16.040
v -78.344 40.070 16.040
v -105.157 33.415 16.040
v -114.734 83.335 16.040
usemtl roof
f 63 64 65 66
usemtl teaching_building
f 62 61 60 59
f 59 60 64 63
f 60 61 65 64
f 61 62 66 65
f 62 59 63 66
o SD0112_T006_6hao
v -42.909 63.847 0.000
v -39.562 49.101 0.000
v -32.859 49.101 0.000
v -23.754 12.015 0.000
v -56.798 3.934 0.000
v -71.641 55.766 0.000
v -42.909 63.847 21.290
v -39.562 49.101 21.290
v -32.859 49.101 21.290
v -23.754 12.015 21.290
v -56.798 3.934 21.290
v -71.641 55.766 21.290
usemtl roof
f 73 74 75 76 77 78
usemtl teaching_building
f 72 71 70 69 68 67
f 67 68 74 73
f 68 69 75 74
f 69 70 76 75
f 70 71 77 76
f 71 72 78 77
f 72 67 73 78
o SD0112_T007_7hao
v -76.425 30.088 0.000
v -72.114 15.828 0.000
v -109.941 6.311 0.000
v -115.056 20.405 0.000
v -76.425 30.088 18.600
v -72.114 15.828 18.600
v -109.941 6.311 18.600
v -115.056 20.405 18.600
usemtl roof
f 83 84 85 86
usemtl teaching_building
f 82 81 80 79
f 79 80 84 83
f 80 81 85 84
f 81 82 86 85
f 82 79 83 86
o SD0112_T008_8hao
v 58.728 74.216 0.000
v 84.568 -33.815 0.000
v 18.714 -49.954 0.000
v 16.215 -30.090 0.000
v 27.051 -28.432 0.000
v 26.631 -23.469 0.000
v 66.235 -14.780 0.000
v 51.222 44.823 0.000
v 11.208 36.135 0.000
v 9.539 41.098 0.000
v -2.547 36.544 0.000
v -8.384 57.248 0.000
v 58.728 74.216 20.010
v 84.568 -33.815 20.010
v 18.714 -49.954 20.010
v 16.215 -30.090 20.010
v 27.051 -28.432 20.010
v 26.631 -23.469 20.010
v 66.235 -14.780 20.010
v 51.222 44.823 20.010
v 11.208 36.135 20.010
v 9.539 41.098 20.010
v -2.547 36.544 20.010
v -8.384 57.248 20.010
usemtl roof
f 99 100 101 102 103 104 105 106 107 108 109 110
usemtl teaching_building
f 98 97 96 95 94 93 92 91 90 89 88 87
f 87 88 100 99
f 88 89 101 100
f 89 90 102 101
f 90 91 103 102
f 91 92 104 103
f 92 93 105 104
f 93 94 106 105
f 94 95 107 106
f 95 96 108 107
f 96 97 109 108
f 97 98 110 109
f 98 87 99 110
o SD0112_T009_9hao
v 183.091 3.459 0.000
v 186.438 -14.603 0.000
v 111.747 -34.578 0.000
v 105.526 -16.505 0.000
v 183.091 3.459 21.010
v 186.438 -14.603 21.010
v 111.747 -34.578 21.010
v 105.526 -16.505 21.010
usemtl roof
f 115 116 117 118
usemtl teaching_building
f 114 113 112 111
f 111 112 116 115
f 112 113 117 116
f 113 114 118 117
f 114 111 115 118
o SD0112_T010_10hao
v -65.411 -5.572 0.000
v -62.546 -20.307 0.000
v -102.283 -30.300 0.000
v -106.112 -14.603 0.000
v -65.411 -5.572 18.400
v -62.546 -20.307 18.400
v -102.283 -30.300 18.400
v -106.112 -14.603 18.400
usemtl roof
f 123 124 125 126
usemtl teaching_building
f 122 121 120 119
f 119 120 124 123
f 120 121 125 124
f 121 122 126 125
f 122 119 123 126
o SD0112_T011_11hao
v -17.051 -16.980 0.000
v -6.519 -61.671 0.000
v -37.643 -71.189 0.000
v -47.702 -26.973 0.000
v -17.051 -16.980 19.920
v -6.519 -61.671 19.920
v -37.643 -71.189 19.920
v -47.702 -26.973 19.920
usemtl roof
f 131 132 133 134
usemtl teaching_building
f 130 129 128 127
f 127 128 132 131
f 128 129 133 132
f 129 130 134 133
f 130 127 131 134
o SD0112_T012_12hao
v -58.235 -37.430 0.000
v -53.441 -53.591 0.000
v -98.936 -67.386 0.000
v -104.675 -48.362 0.000
v -58.235 -37.430 26.940
v -53.441 -53.591 26.940
v -98.936 -67.386 26.940
v -104.675 -48.362 26.940
usemtl roof
f 139 140 141 142
usemtl teaching_building
f 138 137 136 135
f 135 136 140 139
f 136 137 141 140
f 137 138 142 141
f 138 135 139 142
o SD0112_T013_13hao
v 141.434 -46.461 0.000
v 146.218 -66.436 0.000
v 97.859 -79.269 0.000
v 92.111 -57.393 0.000
v 141.434 -46.461 18.530
v 146.218 -66.436 18.530
v 97.859 -79.269 18.530
v 92.111 -57.393 18.530
usemtl roof
f 147 148 149 150
usemtl teaching_building
f 146 145 144 143
f 143 144 148 147
f 144 145 149 148
f 145 146 150 149
f 146 143 147 150
o SD0112_T014_14hao
v 84.934 -64.059 0.000
v 88.282 -87.350 0.000
v 33.219 -100.183 0.000
v 26.042 -79.745 0.000
v 84.934 -64.059 25.880
v 88.282 -87.350 25.880
v 33.219 -100.183 25.880
v 26.042 -79.745 25.880
usemtl roof
f 155 156 157 158
usemtl teaching_building
f 154 153 152 151
f 151 152 156 155
f 152 153 157 156
f 153 154 158 157
f 154 151 155 158
o SD0112_T015_15hao
v 156.189 -82.165 0.000
v 160.294 -98.625 0.000
v 106.597 -112.276 0.000
v 102.331 -94.546 0.000
v 156.189 -82.165 25.150
v 160.294 -98.625 25.150
v 106.597 -112.276 25.150
v 102.331 -94.546 25.150
usemtl roof
f 163 164 165 166
usemtl teaching_building
f 162 161 160 159
f 159 160 164 163
f 160 161 165 164
f 161 162 166 165
f 162 159 163 166
o SD0112_T016_16hao
v -51.290 -72.449 0.000
v -37.536 -127.708 0.000
v -62.760 -133.710 0.000
v -65.884 -118.400 0.000
v -57.342 -115.913 0.000
v -67.339 -76.384 0.000
v -51.290 -72.449 15.170
v -37.536 -127.708 15.170
v -62.760 -133.710 15.170
v -65.884 -118.400 15.170
v -57.342 -115.913 15.170
v -67.339 -76.384 15.170
usemtl roof
f 173 174 175 176 177 178
usemtl teaching_building
f 172 171 170 169 168 167
f 167 168 174 173
f 168 169 175 174
f 169 170 176 175
f 170 171 177 176
f 171 172 178 177
f 172 167 173 178
o SD0112_T017_17hao
v -66.303 -162.274 0.000
v -27.325 -158.549 0.000
v -30.663 -134.539 0.000
v -39.830 -135.578 0.000
v -38.785 -149.230 0.000
v -67.134 -152.336 0.000
v -66.303 -162.274 17.130
v -27.325 -158.549 17.130
v -30.663 -134.539 17.130
v -39.830 -135.578 17.130
v -38.785 -149.230 17.130
v -67.134 -152.336 17.130
usemtl roof
f 185 186 187 188 189 190
usemtl teaching_building
f 184 183 182 181 180 179
f 179 180 186 185
f 180 181 187 186
f 181 182 188 187
f 182 183 189 188
f 183 184 190 189
f 184 179 185 190
