# school_id SD0179
# school_name 陈毅中学
# boundary_source footprint_convex_hull_buffer_20m
# adjacent_block_merge_distance_m 2.0
mtllib ../campus_materials.mtl
o SD0179_campus_boundary
usemtl campus_boundary
v 19.226 -65.662 0.050
v -89.536 -19.500 0.050
v -91.385 0.519 0.050
v -93.590 28.581 0.050
v -79.658 62.784 0.050
v -33.923 61.722 0.050
v 3.706 58.766 0.050
v 69.943 52.206 0.050
v 81.768 -38.703 0.050
v 69.455 -60.941 0.050
v 19.226 -65.662 0.050
l 1 2 3 4 5 6 7 8 9 10 11 1
o SD0179_T001_1hao
v -34.939 41.740 0.000
v 1.937 38.843 0.000
v 1.937 18.902 0.000
v -9.379 16.360 0.000
v -9.747 30.498 0.000
v -56.844 31.592 0.000
v -57.940 23.976 0.000
v -65.242 19.985 0.000
v -73.280 25.424 0.000
v -66.337 42.469 0.000
v -34.939 41.740 15.360
v 1.937 38.843 15.360
v 1.937 18.902 15.360
v -9.379 16.360 15.360
v -9.747 30.498 15.360
v -56.844 31.592 15.360
v -57.940 23.976 15.360
v -65.242 19.985 15.360
v -73.280 25.424 15.360
v -66.337 42.469 15.360
usemtl roof
f 22 23 24 25 26 27 28 29 30 31
usemtl teaching_building
f 21 20 19 18 17 16 15 14 13 12
f 12 13 23 22
f 13 14 24 23
f 14 15 25 24
f 15 16 26 25
f 16 17 27 26
f 17 18 28 27
f 18 19 29 28
f 19 20 30 29
f 20 21 31 30
f 21 12 22 31
o SD0179_T002_2hao
v 52.160 33.869 0.000
v 49.043 21.080 0.000
v 18.732 20.350 0.000
v 18.777 34.842 0.000
v 52.160 33.869 20.320
v 49.043 21.080 20.320
v 18.732 20.350 20.320
v 18.777 34.842 20.320
usemtl roof
f 36 37 38 39
usemtl teaching_building
f 35 34 33 32
f 32 33 37 36
f 33 34 38 37
f 34 35 39 38
f 35 32 36 39
o SD0179_T003_3hao
v -33.844 2.222 0.000
v 6.688 -1.039 0.000
v 6.688 -7.572 0.000
v -23.623 -9.020 0.000
v -23.623 -14.824 0.000
v -40.418 -12.646 0.000
v -41.873 -5.759 0.000
v -70.720 -5.759 0.000
v -71.457 2.222 0.000
v -33.844 2.222 12.580
v 6.688 -1.039 12.580
v 6.688 -7.572 12.580
v -23.623 -9.020 12.580
v -23.623 -14.824 12.580
v -40.418 -12.646 12.580
v -41.873 -5.759 12.580
v -70.720 -5.759 12.580
v -71.457 2.222 12.580
usemtl roof
f 49 50 51 52 53 54 55 56 57
usemtl teaching_building
f 48 47 46 45 44 43 42 41 40
f 40 41 50 49
f 41 42 51 50
f 42 43 52 51
f 43 44 53 52
f 44 45 54 53
f 45 46 55 54
f 46 47 56 55
f 47 48 57 56
f 48 40 49 57
o SD0179_T004_4hao
v 22.747 -3.217 0.000
v 32.608 -13.729 0.000
v 47.948 -2.852 0.000
v 54.118 -8.987 0.000
v 48.307 -21.346 0.000
v 61.087 -34.765 0.000
v 57.072 -42.017 0.000
v 49.403 -36.213 0.000
v 39.909 -32.223 0.000
v 22.387 -45.277 0.000
v 17.277 -39.109 0.000
v 27.498 -33.306 0.000
v 27.498 -24.607 0.000
v 15.445 -10.104 0.000
v 22.747 -3.217 37.800
v 32.608 -13.729 37.800
v 47.948 -2.852 37.800
v 54.118 -8.987 37.800
v 48.307 -21.346 37.800
v 61.087 -34.765 37.800
v 57.072 -42.017 37.800
v 49.403 -36.213 37.800
v 39.909 -32.223 37.800
v 22.387 -45.277 37.800
v 17.277 -39.109 37.800
v 27.498 -33.306 37.800
v 27.498 -24.607 37.800
v 15.445 -10.104 37.800
usemtl roof
f 72 73 74 75 76 77 78 79 80 81 82 83 84 85
usemtl teaching_building
f 71 70 69 68 67 66 65 64 63 62 61 60 59 58
f 58 59 73 72
f 59 60 74 73
f 60 61 75 74
f 61 62 76 75
f 62 63 77 76
f 63 64 78 77
f 64 65 79 78
f 65 66 80 79
f 66 67 81 80
f 67 68 82 81
f 68 69 83 82
f 69 70 84 83
f 70 71 85 84
f 71 58 72 85
