# school_id SD0147
# school_name 济南理工学校
# boundary_source footprint_convex_hull_buffer_20m
# adjacent_block_merge_distance_m 2.0
mtllib ../campus_materials.mtl
o SD0147_campus_boundary
usemtl campus_boundary
v 58.890 -30.364 0.050
v -59.229 -29.649 0.050
v -58.890 30.364 0.050
v 59.229 29.649 0.050
v 58.890 -30.364 0.050
l 1 2 3 4 5 1
o SD0147_T001_1hao
v 39.003 -10.243 0.000
v 39.116 9.770 0.000
v -39.003 10.243 0.000
v -39.116 -9.770 0.000
v 39.003 -10.243 9.900
v 39.116 9.770 9.900
v -39.003 10.243 9.900
v -39.116 -9.770 9.900
usemtl roof
f 10 11 12 13
usemtl teaching_building
f 9 8 7 6
f 6 7 11 10
f 7 8 12 11
f 8 9 13 12
f 9 6 10 13
