# school_id SD0126
# school_name 济南市莱芜第二实验小学
# boundary_source footprint_convex_hull_buffer_20m
# adjacent_block_merge_distance_m 2.0
mtllib ../campus_materials.mtl
o SD0126_campus_boundary
usemtl campus_boundary
v 16.210 -50.641 0.050
v -57.643 -46.867 0.050
v -56.583 9.703 0.050
v -52.931 34.769 0.050
v -30.743 42.657 0.050
v 102.600 31.197 0.050
v 67.202 -8.358 0.050
v 16.210 -50.641 0.050
l 1 2 3 4 5 6 7 8 1
o SD0126_T001_1hao
v -28.132 22.359 0.000
v -23.309 19.485 0.000
v -11.751 20.922 0.000
v -6.452 16.136 0.000
v 27.757 10.874 0.000
v 43.654 15.661 0.000
v 60.997 14.699 0.000
v 53.291 6.088 0.000
v 40.286 -2.999 0.000
v -36.610 8.067 0.000
v -34.877 19.961 0.000
v -28.132 22.359 22.940
v -23.309 19.485 22.940
v -11.751 20.922 22.940
v -6.452 16.136 22.940
v 27.757 10.874 22.940
v 43.654 15.661 22.940
v 60.997 14.699 22.940
v 53.291 6.088 22.940
v 40.286 -2.999 22.940
v -36.610 8.067 22.940
v -34.877 19.961 22.940
usemtl roof
f 20 21 22 23 24 25 26 27 28 29 30
usemtl teaching_building
f 19 18 17 16 15 14 13 12 11 10 9
f 9 10 21 20
f 10 11 22 21
f 11 12 23 22
f 12 13 24 23
f 13 14 25 24
f 14 15 26 25
f 15 16 27 26
f 16 17 28 27
f 17 18 29 28
f 18 19 30 29
f 19 9 20 30
o SD0126_T002_2hao
v -7.413 -19.745 0.000
v 0.778 -17.833 0.000
v 1.254 -8.260 0.000
v 9.930 -9.697 0.000
v 9.445 -30.269 0.000
v -37.284 -27.881 0.000
v -35.838 -18.308 0.000
v -7.413 -19.745 23.300
v 0.778 -17.833 23.300
v 1.254 -8.260 23.300
v 9.930 -9.697 23.300
v 9.445 -30.269 23.300
v -37.284 -27.881 23.300
v -35.838 -18.308 23.300
usemtl roof
f 38 39 40 41 42 43 44
usemtl teaching_building
f 37 36 35 34 33 32 31
f 31 32 39 38
f 32 33 40 39
f 33 34 41 40
f 34 35 42 41
f 35 36 43 42
f 36 37 44 43
f 37 31 38 44
