# school_id SD0151
# school_name 济南育英中学
# boundary_source footprint_convex_hull_buffer_20m
# adjacent_block_merge_distance_m 2.0
mtllib ../campus_materials.mtl
o SD0151_campus_boundary
usemtl campus_boundary
v -32.690 -116.783 0.050
v -82.325 -20.588 0.050
v -93.485 47.713 0.050
v -71.223 80.624 0.050
v -49.028 97.401 0.050
v -17.229 99.912 0.050
v 99.808 -27.865 0.050
v 101.777 -60.713 0.050
v 40.169 -107.051 0.050
v -32.690 -116.783 0.050
l 1 2 3 4 5 6 7 8 9 10 1
o SD0151_T001_1hao
v -23.733 56.247 0.000
v -25.385 79.206 0.000
v -41.629 77.923 0.000
v -40.415 55.605 0.000
v -23.733 56.247 24.840
v -25.385 79.206 24.840
v -41.629 77.923 24.840
v -40.415 55.605 24.840
usemtl roof
f 15 16 17 18
usemtl teaching_building
f 14 13 12 11
f 11 12 16 15
f 12 13 17 16
f 13 14 18 17
f 14 11 15 18
o SD0151_T002_2hao
v -47.809 55.318 0.000
v -48.881 67.157 0.000
v -56.516 66.670 0.000
v -72.465 43.092 0.000
v -60.115 37.399 0.000
v -47.809 55.318 20.270
v -48.881 67.157 20.270
v -56.516 66.670 20.270
v -72.465 43.092 20.270
v -60.115 37.399 20.270
usemtl roof
f 24 25 26 27 28
usemtl teaching_building
f 23 22 21 20 19
f 19 20 25 24
f 20 21 26 25
f 21 22 27 26
f 22 23 28 27
f 23 19 24 28
o SD0151_T003_3hao
v 22.034 18.431 0.000
v 22.918 9.521 0.000
v -18.420 5.840 0.000
v -19.241 15.623 0.000
v 22.034 18.431 30.740
v 22.918 9.521 30.740
v -18.420 5.840 30.740
v -19.241 15.623 30.740
usemtl roof
f 33 34 35 36
usemtl teaching_building
f 32 31 30 29
f 29 30 34 33
f 30 31 35 34
f 31 32 36 35
f 32 29 33 36
o SD0151_T004_4hao
v 19.614 2.557 0.000
v 20.989 -13.493 0.000
v 6.478 -14.731 0.000
v 5.933 -8.397 0.000
v -63.098 -14.234 0.000
v -63.928 -4.506 0.000
v 19.614 2.557 30.740
v 20.989 -13.493 30.740
v 6.478 -14.731 30.740
v 5.933 -8.397 30.740
v -63.098 -14.234 30.740
v -63.928 -4.506 30.740
usemtl roof
f 43 44 45 46 47 48
usemtl teaching_building
f 42 41 40 39 38 37
f 37 38 44 43
f 38 39 45 44
f 39 40 46 45
f 40 41 47 46
f 41 42 48 47
f 42 37 43 48
o SD0151_T005_5hao
v -13.017 -24.260 0.000
v -11.927 -40.023 0.000
v -29.172 -41.206 0.000
v -30.261 -25.431 0.000
v -13.017 -24.260 9.960
v -11.927 -40.023 9.960
v -29.172 -41.206 9.960
v -30.261 -25.431 9.960
usemtl roof
f 53 54 55 56
usemtl teaching_building
f 52 51 50 49
f 49 50 54 53
f 50 51 55 54
f 51 52 56 55
f 52 49 53 56
o SD0151_T006_6hao
v 38.868 -17.053 0.000
v 42.208 -50.413 0.000
v 49.102 -53.940 0.000
v 58.219 -53.851 0.000
v 81.170 -51.187 0.000
v 80.268 -36.143 0.000
v 64.471 -37.082 0.000
v 54.853 -29.687 0.000
v 53.522 -15.759 0.000
v 38.868 -17.053 14.250
v 42.208 -50.413 14.250
v 49.102 -53.940 14.250
v 58.219 -53.851 14.250
v 81.170 -51.187 14.250
v 80.268 -36.143 14.250
v 64.471 -37.082 14.250
v 54.853 -29.687 14.250
v 53.522 -15.759 14.250
usemtl roof
f 66 67 68 69 70 71 72 73 74
usemtl teaching_building
f 65 64 63 62 61 60 59 58 57
f 57 58 67 66
f 58 59 68 67
f 59 60 69 68
f 60 61 70 69
f 61 62 71 70
f 62 63 72 71
f 63 64 73 72
f 64 65 74 73
f 65 57 66 74
o SD0151_T007_7hao
v 32.331 -87.920 0.000
v -21.376 -95.094 0.000
v -23.662 -78.159 0.000
v 10.898 -73.550 0.000
v 6.183 -38.707 0.000
v 25.321 -36.154 0.000
v 32.331 -87.920 33.610
v -21.376 -95.094 33.610
v -23.662 -78.159 33.610
v 10.898 -73.550 33.610
v 6.183 -38.707 33.610
v 25.321 -36.154 33.610
usemtl roof
f 81 82 83 84 85 86
usemtl teaching_building
f 80 79 78 77 76 75
f 75 76 82 81
f 76 77 83 82
f 77 78 84 83
f 78 79 85 84
f 79 80 86 85
f 80 75 81 86
o SD0151_T007_7hao_seg02
v 25.062 -35.457 0.000
v 10.175 -37.082 0.000
v 8.362 -20.137 0.000
v 22.883 -18.335 0.000
v 25.062 -35.457 33.610
v 10.175 -37.082 33.610
v 8.362 -20.137 33.610
v 22.883 -18.335 33.610
usemtl roof
f 91 92 93 94
usemtl teaching_building
f 90 89 88 87
f 87 88 92 91
f 88 89 93 92
f 89 90 94 93
f 90 87 91 94
