# school_id SD0143
# school_name 济南旅游学校（师范校区）
# boundary_source footprint_convex_hull_buffer_20m
# adjacent_block_merge_distance_m 2.0
mtllib ../campus_materials.mtl
o SD0143_campus_boundary
usemtl campus_boundary
v -130.779 -120.749 0.050
v -175.359 45.002 0.050
v -174.401 105.206 0.050
v -109.389 104.692 0.050
v -10.545 99.951 0.050
v 89.406 90.203 0.050
v 179.436 -48.219 0.050
v 179.918 -96.320 0.050
v -60.087 -120.633 0.050
v -130.779 -120.749 0.050
l 1 2 3 4 5 6 7 8 9 10 1
o SD0143_T001_1hao
v -68.835 69.475 0.000
v -68.362 55.513 0.000
v -87.168 55.790 0.000
v -87.365 81.733 0.000
v -58.677 81.523 0.000
v -11.996 79.998 0.000
v -11.853 60.300 0.000
v -57.285 61.438 0.000
v -57.805 68.944 0.000
v -68.835 69.475 14.900
v -68.362 55.513 14.900
v -87.168 55.790 14.900
v -87.365 81.733 14.900
v -58.677 81.523 14.900
v -11.996 79.998 14.900
v -11.853 60.300 14.900
v -57.285 61.438 14.900
v -57.805 68.944 14.900
usemtl roof
f 20 21 22 23 24 25 26 27 28
usemtl teaching_building
f 19 18 17 16 15 14 13 12 11
f 11 12 21 20
f 12 13 22 21
f 13 14 23 22
f 14 15 24 23
f 15 16 25 24
f 16 17 26 25
f 17 18 27 26
f 18 19 28 27
f 19 11 20 28
o SD0143_T002_2hao
v -109.947 84.696 0.000
v -107.912 47.488 0.000
v -155.317 47.488 0.000
v -154.719 85.050 0.000
v -109.947 84.696 24.210
v -107.912 47.488 24.210
v -155.317 47.488 24.210
v -154.719 85.050 24.210
usemtl roof
f 33 34 35 36
usemtl teaching_building
f 32 31 30 29
f 29 30 34 33
f 30 31 35 34
f 31 32 36 35
f 32 29 33 36
o SD0143_T003_3hao
v 15.451 73.929 0.000
v 77.887 71.232 0.000
v 79.547 46.526 0.000
v 16.504 46.526 0.000
v 15.451 73.929 16.470
v 77.887 71.232 16.470
v 79.547 46.526 16.470
v 16.504 46.526 16.470
usemtl roof
f 41 42 43 44
usemtl teaching_building
f 40 39 38 37
f 37 38 42 41
f 38 39 43 42
f 39 40 44 43
f 40 37 41 44
o SD0143_T004_4hao
v 82.644 16.360 0.000
v 84.081 -3.371 0.000
v 17.522 -3.371 0.000
v 15.853 15.642 0.000
v 82.644 16.360 20.060
v 84.081 -3.371 20.060
v 17.522 -3.371 20.060
v 15.853 15.642 20.060
usemtl roof
f 49 50 51 52
usemtl teaching_building
f 48 47 46 45
f 45 46 50 49
f 46 47 51 50
f 47 48 52 51
f 48 45 49 52
o SD0143_T005_5hao
v 15.371 -5.748 0.000
v 14.889 -22.749 0.000
v 26.260 -22.981 0.000
v 26.385 -44.979 0.000
v 4.115 -43.785 0.000
v 5.079 -6.699 0.000
v 15.371 -5.748 14.680
v 14.889 -22.749 14.680
v 26.260 -22.981 14.680
v 26.385 -44.979 14.680
v 4.115 -43.785 14.680
v 5.079 -6.699 14.680
usemtl roof
f 59 60 61 62 63 64
usemtl teaching_building
f 58 57 56 55 54 53
f 53 54 60 59
f 54 55 61 60
f 55 56 62 61
f 56 57 63 62
f 57 58 64 63
f 58 53 59 64
o SD0143_T006_6hao
v 91.266 -7.417 0.000
v 90.543 -45.211 0.000
v 67.203 -45.332 0.000
v 67.801 -23.821 0.000
v 79.056 -22.749 0.000
v 78.092 -7.417 0.000
v 91.266 -7.417 16.270
v 90.543 -45.211 16.270
v 67.203 -45.332 16.270
v 67.801 -23.821 16.270
v 79.056 -22.749 16.270
v 78.092 -7.417 16.270
usemtl roof
f 71 72 73 74 75 76
usemtl teaching_building
f 70 69 68 67 66 65
f 65 66 72 71
f 66 67 73 72
f 67 68 74 73
f 68 69 75 74
f 69 70 76 75
f 70 65 71 76
o SD0143_T007_7hao
v -50.225 -86.099 0.000
v 0.045 -87.525 0.000
v -3.543 -44.503 0.000
v -29.874 -44.735 0.000
v -31.552 -37.605 0.000
v -48.788 -38.556 0.000
v -50.225 -86.099 22.990
v 0.045 -87.525 22.990
v -3.543 -44.503 22.990
v -29.874 -44.735 22.990
v -31.552 -37.605 22.990
v -48.788 -38.556 22.990
usemtl roof
f 83 84 85 86 87 88
usemtl teaching_building
f 82 81 80 79 78 77
f 77 78 84 83
f 78 79 85 84
f 79 80 86 85
f 80 81 87 86
f 81 82 88 87
f 82 77 83 88
o SD0143_T008_8hao
v 159.495 -54.242 0.000
v 159.736 -78.262 0.000
v 108.020 -78.970 0.000
v 107.779 -52.816 0.000
v 159.495 -54.242 20.810
v 159.736 -78.262 20.810
v 108.020 -78.970 20.810
v 107.779 -52.816 20.810
usemtl roof
f 93 94 95 96
usemtl teaching_building
f 92 91 90 89
f 89 90 94 93
f 90 91 95 94
f 91 92 96 95
f 92 89 93 96
o SD0143_T009_9hao
v -61.873 -86.707 0.000
v -61.114 -100.635 0.000
v -115.454 -100.724 0.000
v -113.366 -87.426 0.000
v -61.873 -86.707 20.610
v -61.114 -100.635 20.610
v -115.454 -100.724 20.610
v -113.366 -87.426 20.610
usemtl roof
f 101 102 103 104
usemtl teaching_building
f 100 99 98 97
f 97 98 102 101
f 98 99 103 102
f 99 100 104 103
f 100 97 101 104
