# school_id SD0125
# school_name 济南市莱芜特殊教育学校
# boundary_source footprint_convex_hull_buffer_20m
# adjacent_block_merge_distance_m 2.0
mtllib ../campus_materials.mtl
o SD0125_campus_boundary
usemtl campus_boundary
v 42.146 -35.790 0.050
v -81.348 -27.726 0.050
v -79.688 19.680 0.050
v 6.003 36.151 0.050
v 27.586 36.617 0.050
v 58.390 7.879 0.050
v 60.824 -18.797 0.050
v 42.146 -35.790 0.050
l 1 2 3 4 5 6 7 8 1
o SD0125_T001_1hao
v -39.705 1.800 0.000
v -36.345 3.878 0.000
v -26.698 4.298 0.000
v -22.080 6.376 0.000
v -14.948 6.796 0.000
v 6.863 5.547 0.000
v 8.956 -1.948 0.000
v 19.448 -3.197 0.000
v 26.159 0.551 0.000
v 39.166 -1.539 0.000
v 40.002 -10.702 0.000
v 34.971 -15.279 0.000
v 29.518 -13.200 0.000
v -16.214 -9.862 0.000
v -60.681 -9.033 0.000
v -60.258 3.049 0.000
v -39.705 1.800 9.810
v -36.345 3.878 9.810
v -26.698 4.298 9.810
v -22.080 6.376 9.810
v -14.948 6.796 9.810
v 6.863 5.547 9.810
v 8.956 -1.948 9.810
v 19.448 -3.197 9.810
v 26.159 0.551 9.810
v 39.166 -1.539 9.810
v 40.002 -10.702 9.810
v 34.971 -15.279 9.810
v 29.518 -13.200 9.810
v -16.214 -9.862 9.810
v -60.681 -9.033 9.810
v -60.258 3.049 9.810
usemtl roof
f 25 26 27 28 29 30 31 32 33 34 35 36 37 38 39 40
usemtl teaching_building
f 24 23 22 21 20 19 18 17 16 15 14 13 12 11 10 9
f 9 10 26 25
f 10 11 27 26
f 11 12 28 27
f 12 13 29 28
f 13 14 30 29
f 14 15 31 30
f 15 16 32 31
f 16 17 33 32
f 17 18 34 33
f 18 19 35 34
f 19 20 36 35
f 20 21 37 36
f 21 22 38 37
f 22 23 39 38
f 23 24 40 39
f 24 9 25 40
