# school_id SD0127
# school_name 济南市莱芜第十七中学
# boundary_source footprint_convex_hull_buffer_20m
# adjacent_block_merge_distance_m 2.0
mtllib ../campus_materials.mtl
o SD0127_campus_boundary
usemtl campus_boundary
v -84.957 -151.224 0.050
v -122.378 82.803 0.050
v -119.492 109.617 0.050
v 36.748 133.423 0.050
v 133.745 146.163 0.050
v 151.256 10.959 0.050
v 96.512 -138.178 0.050
v 64.422 -141.184 0.050
v -55.230 -150.295 0.050
v -84.957 -151.224 0.050
l 1 2 3 4 5 6 7 8 9 10 1
o SD0127_T001_1hao
v 116.484 123.724 0.000
v 118.074 108.259 0.000
v 55.140 96.896 0.000
v 53.227 113.311 0.000
v 116.484 123.724 10.880
v 118.074 108.259 10.880
v 55.140 96.896 10.880
v 53.227 113.311 10.880
usemtl roof
f 15 16 17 18
usemtl teaching_building
f 14 13 12 11
f 11 12 16 15
f 12 13 17 16
f 13 14 18 17
f 14 11 15 18
o SD0127_T002_2hao
v 39.557 113.620 0.000
v 44.327 91.844 0.000
v -16.388 81.111 0.000
v -19.568 104.468 0.000
v 39.557 113.620 13.410
v 44.327 91.844 13.410
v -16.388 81.111 13.410
v -19.568 104.468 13.410
usemtl roof
f 23 24 25 26
usemtl teaching_building
f 22 21 20 19
f 19 20 24 23
f 20 21 25 24
f 21 22 26 25
f 22 19 23 26
o SD0127_T003_3hao
v -26.124 102.180 0.000
v -24.966 93.624 0.000
v -102.207 83.321 0.000
v -101.255 92.165 0.000
v -26.124 102.180 26.470
v -24.966 93.624 26.470
v -102.207 83.321 26.470
v -101.255 92.165 26.470
usemtl roof
f 31 32 33 34
usemtl teaching_building
f 30 29 28 27
f 27 28 32 31
f 28 29 33 32
f 29 30 34 33
f 30 27 31 34
o SD0127_T004_4hao
v 119.430 80.580 0.000
v 122.753 58.594 0.000
v 61.320 47.606 0.000
v 56.892 70.134 0.000
v 119.430 80.580 18.660
v 122.753 58.594 18.660
v 61.320 47.606 18.660
v 56.892 70.134 18.660
usemtl roof
f 39 40 41 42
usemtl teaching_building
f 38 37 36 35
f 35 36 40 39
f 36 37 41 40
f 37 38 42 41
f 38 35 39 42
o SD0127_T005_5hao
v 10.134 71.162 0.000
v 16.843 46.169 0.000
v -47.752 37.834 0.000
v -50.267 62.827 0.000
v 10.134 71.162 14.680
v 16.843 46.169 14.680
v -47.752 37.834 14.680
v -50.267 62.827 14.680
usemtl roof
f 47 48 49 50
usemtl teaching_building
f 46 45 44 43
f 43 44 48 47
f 44 45 49 48
f 45 46 50 49
f 46 43 47 50
o SD0127_T006_6hao
v 52.078 68.664 0.000
v 58.787 42.002 0.000
v 39.495 35.336 0.000
v 34.456 46.998 0.000
v 21.873 43.671 0.000
v 23.552 67.824 0.000
v 52.078 68.664 14.680
v 58.787 42.002 14.680
v 39.495 35.336 14.680
v 34.456 46.998 14.680
v 21.873 43.671 14.680
v 23.552 67.824 14.680
usemtl roof
f 57 58 59 60 61 62
usemtl teaching_building
f 56 55 54 53 52 51
f 51 52 58 57
f 52 53 59 58
f 53 54 60 59
f 54 55 61 60
f 55 56 62 61
f 56 51 57 62
o SD0127_T007_7hao
v -61.170 55.333 0.000
v -56.976 37.834 0.000
v -69.559 36.176 0.000
v -66.209 24.514 0.000
v -87.181 19.507 0.000
v -88.860 48.667 0.000
v -61.170 55.333 14.680
v -56.976 37.834 14.680
v -69.559 36.176 14.680
v -66.209 24.514 14.680
v -87.181 19.507 14.680
v -88.860 48.667 14.680
usemtl roof
f 69 70 71 72 73 74
usemtl teaching_building
f 68 67 66 65 64 63
f 63 64 70 69
f 64 65 71 70
f 65 66 72 71
f 66 67 73 72
f 67 68 74 73
f 68 63 69 74
o SD0127_T008_8hao
v 56.200 35.424 0.000
v 61.131 6.054 0.000
v 49.994 4.606 0.000
v 48.171 9.503 0.000
v 54.377 10.774 0.000
v 51.458 27.631 0.000
v 28.816 24.547 0.000
v 28.088 31.622 0.000
v 56.200 35.424 14.540
v 61.131 6.054 14.540
v 49.994 4.606 14.540
v 48.171 9.503 14.540
v 54.377 10.774 14.540
v 51.458 27.631 14.540
v 28.816 24.547 14.540
v 28.088 31.622 14.540
usemtl roof
f 83 84 85 86 87 88 89 90
usemtl teaching_building
f 82 81 80 79 78 77 76 75
f 75 76 84 83
f 76 77 85 84
f 77 78 86 85
f 78 79 87 86
f 79 80 88 87
f 80 81 89 88
f 81 82 90 89
f 82 75 83 90
o SD0127_T009_9hao
v 123.481 40.708 0.000
v 130.792 13.250 0.000
v 66.583 -1.264 0.000
v 60.538 29.035 0.000
v 123.481 40.708 16.500
v 130.792 13.250 16.500
v 66.583 -1.264 16.500
v 60.538 29.035 16.500
usemtl roof
f 95 96 97 98
usemtl teaching_building
f 94 93 92 91
f 91 92 96 95
f 92 93 97 96
f 93 94 98 97
f 94 91 95 98
o SD0127_T010_10hao
v -71.409 -12.981 0.000
v -73.789 9.138 0.000
v -54.254 12.222 0.000
v -53.707 19.650 0.000
v -57.542 19.838 0.000
v -58.449 21.651 0.000
v -85.474 17.296 0.000
v -78.792 -13.810 0.000
v -71.409 -12.981 14.990
v -73.789 9.138 14.990
v -54.254 12.222 14.990
v -53.707 19.650 14.990
v -57.542 19.838 14.990
v -58.449 21.651 14.990
v -85.474 17.296 14.990
v -78.792 -13.810 14.990
usemtl roof
f 107 108 109 110 111 112 113 114
usemtl teaching_building
f 106 105 104 103 102 101 100 99
f 99 100 108 107
f 100 101 109 108
f 101 102 110 109
f 102 103 111 110
f 103 104 112 111
f 104 105 113 112
f 105 106 114 113
f 106 99 107 114
o SD0127_T011_11hao
v -39.462 9.680 0.000
v -38.914 3.876 0.000
v -20.843 5.689 0.000
v -22.119 10.951 0.000
v -0.572 13.847 0.000
v 0.524 8.232 0.000
v 18.415 11.316 0.000
v 17.678 19.473 0.000
v 29.552 20.192 0.000
v 31.375 2.428 0.000
v -18.104 -3.187 0.000
v -50.419 -9.720 0.000
v -52.422 8.961 0.000
v -39.462 9.680 14.540
v -38.914 3.876 14.540
v -20.843 5.689 14.540
v -22.119 10.951 14.540
v -0.572 13.847 14.540
v 0.524 8.232 14.540
v 18.415 11.316 14.540
v 17.678 19.473 14.540
v 29.552 20.192 14.540
v 31.375 2.428 14.540
v -18.104 -3.187 14.540
v -50.419 -9.720 14.540
v -52.422 8.961 14.540
usemtl roof
f 128 129 130 131 132 133 134 135 136 137 138 139 140
usemtl teaching_building
f 127 126 125 124 123 122 121 120 119 118 117 116 115
f 115 116 129 128
f 116 117 130 129
f 117 118 131 130
f 118 119 132 131
f 119 120 133 132
f 120 121 134 133
f 121 122 135 134
f 122 123 136 135
f 123 124 137 136
f 124 125 138 137
f 125 126 139 138
f 126 127 140 139
f 127 115 128 140
o SD0127_T012_12hao
v 32.103 -8.814 0.000
v 35.022 -15.336 0.000
v 39.045 -14.429 0.000
v 39.953 -11.887 0.000
v 64.966 -7.178 0.000
v 66.430 -26.036 0.000
v 23.157 -34.194 0.000
v 21.154 -9.897 0.000
v 32.103 -8.814 13.270
v 35.022 -15.336 13.270
v 39.045 -14.429 13.270
v 39.953 -11.887 13.270
v 64.966 -7.178 13.270
v 66.430 -26.036 13.270
v 23.157 -34.194 13.270
v 21.154 -9.897 13.270
usemtl roof
f 149 150 151 152 153 154 155 156
usemtl teaching_building
f 148 147 146 145 144 143 142 141
f 141 142 150 149
f 142 143 151 150
f 143 144 152 151
f 144 145 153 152
f 145 146 154 153
f 146 147 155 154
f 147 148 156 155
f 148 141 149 156
o SD0127_T013_13hao
v -54.802 -24.035 0.000
v -53.886 -27.119 0.000
v -46.764 -27.484 0.000
v -45.857 -29.109 0.000
v -36.543 -28.755 0.000
v -35.447 -41.257 0.000
v -45.857 -40.174 0.000
v -77.624 -45.612 0.000
v -80.175 -28.567 0.000
v -54.802 -24.035 11.320
v -53.886 -27.119 11.320
v -46.764 -27.484 11.320
v -45.857 -29.109 11.320
v -36.543 -28.755 11.320
v -35.447 -41.257 11.320
v -45.857 -40.174 11.320
v -77.624 -45.612 11.320
v -80.175 -28.567 11.320
usemtl roof
f 166 167 168 169 170 171 172 173 174
usemtl teaching_building
f 165 164 163 162 161 160 159 158 157
f 157 158 167 166
f 158 159 168 167
f 159 160 169 168
f 160 161 170 169
f 161 162 171 170
f 162 163 172 171
f 163 164 173 172
f 164 165 174 173
f 165 157 166 174
o SD0127_T014_14hao
v 58.715 -111.461 0.000
v 71.864 -110.378 0.000
v 70.768 -101.314 0.000
v 81.357 -101.314 0.000
v 82.085 -119.442 0.000
v 62.730 -121.255 0.000
v 43.554 -121.122 0.000
v 41.920 -111.107 0.000
v 58.715 -111.461 7.780
v 71.864 -110.378 7.780
v 70.768 -101.314 7.780
v 81.357 -101.314 7.780
v 82.085 -119.442 7.780
v 62.730 -121.255 7.780
v 43.554 -121.122 7.780
v 41.920 -111.107 7.780
usemtl roof
f 183 184 185 186 187 188 189 190
usemtl teaching_building
f 182 181 180 179 178 177 176 175
f 175 176 184 183
f 176 177 185 184
f 177 178 186 185
f 178 179 187 186
f 179 180 188 187
f 180 181 189 188
f 181 182 190 189
f 182 175 183 190
o SD0127_T015_15hao
v -58.125 -111.826 0.000
v -58.494 -116.546 0.000
v -54.479 -120.172 0.000
v -41.330 -119.442 0.000
v -28.190 -117.264 0.000
v -27.822 -127.777 0.000
v -39.139 -127.058 0.000
v -56.302 -130.319 0.000
v -67.987 -130.684 0.000
v -66.523 -111.826 0.000
v -58.125 -111.826 15.550
v -58.494 -116.546 15.550
v -54.479 -120.172 15.550
v -41.330 -119.442 15.550
v -28.190 -117.264 15.550
v -27.822 -127.777 15.550
v -39.139 -127.058 15.550
v -56.302 -130.319 15.550
v -67.987 -130.684 15.550
v -66.523 -111.826 15.550
usemtl roof
f 201 202 203 204 205 206 207 208 209 210
usemtl teaching_building
f 200 199 198 197 196 195 194 193 192 191
f 191 192 202 201
f 192 193 203 202
f 193 194 204 203
f 194 195 205 204
f 195 196 206 205
f 196 197 207 206
f 197 198 208 207
f 198 199 209 208
f 199 200 210 209
f 200 191 201 210
