# school_id SD0194
# school_name 城阳第十中学
# boundary_source footprint_convex_hull_buffer_20m
# adjacent_block_merge_distance_m 2.0
mtllib ../campus_materials.mtl
o SD0194_campus_boundary
usemtl campus_boundary
v 68.535 -125.067 0.050
v -1.353 -110.383 0.050
v -146.986 47.865 0.050
v -133.681 100.744 0.050
v -17.225 78.813 0.050
v 89.125 38.165 0.050
v 77.024 -79.169 0.050
v 68.535 -125.067 0.050
l 1 2 3 4 5 6 7 8 1
o SD0194_T001_1hao
v -100.637 49.605 0.000
v -102.848 44.111 0.000
v -56.964 35.337 0.000
v -56.408 41.378 0.000
v -27.112 33.687 0.000
v -22.690 59.491 0.000
v -118.880 77.605 0.000
v -124.955 53.460 0.000
v -100.637 49.605 9.900
v -102.848 44.111 9.900
v -56.964 35.337 9.900
v -56.408 41.378 9.900
v -27.112 33.687 9.900
v -22.690 59.491 9.900
v -118.880 77.605 9.900
v -124.955 53.460 9.900
usemtl roof
f 17 18 19 20 21 22 23 24
usemtl teaching_building
f 16 15 14 13 12 11 10 9
f 9 10 18 17
f 10 11 19 18
f 11 12 20 19
f 12 13 21 20
f 13 14 22 21
f 14 15 23 22
f 15 16 24 23
f 16 9 17 24
o SD0194_T002_2hao
v 57.603 -49.497 0.000
v 60.536 -37.026 0.000
v 50.482 -34.941 0.000
v 56.768 -2.485 0.000
v 62.634 -3.328 0.000
v 67.657 24.959 0.000
v 47.136 29.129 0.000
v 45.459 19.141 0.000
v 6.072 28.295 0.000
v 6.914 33.706 0.000
v -6.493 36.198 0.000
v -10.260 20.382 0.000
v 45.880 9.153 0.000
v 36.654 -35.367 0.000
v -5.237 -26.621 0.000
v -3.982 -18.310 0.000
v -18.224 -15.391 0.000
v -21.998 -34.524 0.000
v 57.603 -49.497 9.900
v 60.536 -37.026 9.900
v 50.482 -34.941 9.900
v 56.768 -2.485 9.900
v 62.634 -3.328 9.900
v 67.657 24.959 9.900
v 47.136 29.129 9.900
v 45.459 19.141 9.900
v 6.072 28.295 9.900
v 6.914 33.706 9.900
v -6.493 36.198 9.900
v -10.260 20.382 9.900
v 45.880 9.153 9.900
v 36.654 -35.367 9.900
v -5.237 -26.621 9.900
v -3.982 -18.310 9.900
v -18.224 -15.391 9.900
v -21.998 -34.524 9.900
usemtl roof
f 43 44 45 46 47 48 49 50 51 52 53 54 55 56 57 58 59 60
usemtl teaching_building
f 42 41 40 39 38 37 36 35 34 33 32 31 30 29 28 27 26 25
f 25 26 44 43
f 26 27 45 44
f 27 28 46 45
f 28 29 47 46
f 29 30 48 47
f 30 31 49 48
f 31 32 50 49
f 32 33 51 50
f 33 34 52 51
f 34 35 53 52
f 35 36 54 53
f 36 37 55 54
f 37 38 56 55
f 38 39 57 56
f 39 40 58 57
f 40 41 59 58
f 41 42 60 59
f 42 25 43 60
o SD0194_T003_3hao
v 52.595 -101.281 0.000
v 57.212 -76.320 0.000
v 14.058 -68.417 0.000
v 9.027 -92.127 0.000
v 52.595 -101.281 9.900
v 57.212 -76.320 9.900
v 14.058 -68.417 9.900
v 9.027 -92.127 9.900
usemtl roof
f 65 66 67 68
usemtl teaching_building
f 64 63 62 61
f 61 62 66 65
f 62 63 67 66
f 63 64 68 67
f 64 61 65 68
