# school_id SD0116
# school_name 济南市经纬小学
# boundary_source footprint_convex_hull_buffer_20m
# adjacent_block_merge_distance_m 2.0
mtllib ../campus_materials.mtl
o SD0116_campus_boundary
usemtl campus_boundary
v 64.117 -55.107 0.050
v 3.050 -51.694 0.050
v -54.414 -43.131 0.050
v -66.387 18.236 0.050
v -69.653 53.845 0.050
v 18.874 67.445 0.050
v 63.589 -11.704 0.050
v 64.117 -55.107 0.050
l 1 2 3 4 5 6 7 8 1
o SD0116_T001_1hao
v 43.858 -33.944 0.000
v 5.086 -31.777 0.000
v 4.782 -18.391 0.000
v 12.248 -17.142 0.000
v -37.490 -25.432 0.000
v -38.937 -12.820 0.000
v -3.750 -7.645 0.000
v -9.969 27.273 0.000
v 4.488 29.727 0.000
v 10.069 -5.613 0.000
v 11.797 -14.754 0.000
v 43.653 -17.076 0.000
v 43.858 -33.944 20.570
v 5.086 -31.777 20.570
v 4.782 -18.391 20.570
v 12.248 -17.142 20.570
v -37.490 -25.432 20.570
v -38.937 -12.820 20.570
v -3.750 -7.645 20.570
v -9.969 27.273 20.570
v 4.488 29.727 20.570
v 10.069 -5.613 20.570
v 11.797 -14.754 20.570
v 43.653 -17.076 20.570
usemtl roof
f 21 22 23 24 25 26 27 28 29 30 31 32
usemtl teaching_building
f 20 19 18 17 16 15 14 13 12 11 10 9
f 9 10 22 21
f 10 11 23 22
f 11 12 24 23
f 12 13 25 24
f 13 14 26 25
f 14 15 27 26
f 15 16 28 27
f 16 17 29 28
f 17 18 30 29
f 18 19 31 30
f 19 20 32 31
f 20 9 21 32
o SD0116_T001_1hao_seg02
v 8.256 45.579 0.000
v 10.792 30.799 0.000
v -46.563 21.072 0.000
v -48.018 36.934 0.000
v 8.256 45.579 20.570
v 10.792 30.799 20.570
v -46.563 21.072 20.570
v -48.018 36.934 20.570
usemtl roof
f 37 38 39 40
usemtl teaching_building
f 36 35 34 33
f 33 34 38 37
f 34 35 39 38
f 35 36 40 39
f 36 33 37 40
