# school_id SD0113
# school_name 济南市第三中学市南校区
# boundary_source footprint_convex_hull_buffer_20m
# adjacent_block_merge_distance_m 2.0
mtllib ../campus_materials.mtl
o SD0113_campus_boundary
usemtl campus_boundary
v 75.476 -204.837 0.050
v 21.493 -204.602 0.050
v -63.990 -183.338 0.050
v -215.096 70.537 0.050
v -217.471 137.616 0.050
v -199.701 182.274 0.050
v -146.562 205.759 0.050
v 143.013 88.074 0.050
v 145.332 16.824 0.050
v 115.269 -175.105 0.050
v 75.476 -204.837 0.050
l 1 2 3 4 5 6 7 8 9 10 11 1
o SD0113_T001_1hao
v -179.630 152.859 0.000
v -138.892 154.851 0.000
v -136.546 156.510 0.000
v -136.719 159.993 0.000
v -146.235 184.037 0.000
v -184.140 167.285 0.000
v -179.630 152.859 9.900
v -138.892 154.851 9.900
v -136.546 156.510 9.900
v -136.719 159.993 9.900
v -146.235 184.037 9.900
v -184.140 167.285 9.900
usemtl roof
f 18 19 20 21 22 23
usemtl teaching_building
f 17 16 15 14 13 12
f 12 13 19 18
f 13 14 20 19
f 14 15 21 20
f 15 16 22 21
f 16 17 23 22
f 17 12 18 23
o SD0113_T002_2hao
v -196.159 116.048 0.000
v -124.535 117.873 0.000
v -125.360 136.283 0.000
v -197.335 134.125 0.000
v -196.159 116.048 9.900
v -124.535 117.873 9.900
v -125.360 136.283 9.900
v -197.335 134.125 9.900
usemtl roof
f 28 29 30 31
usemtl teaching_building
f 27 26 25 24
f 24 25 29 28
f 25 26 30 29
f 26 27 31 30
f 27 24 28 31
o SD0113_T003_3hao
v -81.609 84.249 0.000
v -48.334 97.712 0.000
v -56.096 120.393 0.000
v -89.971 105.884 0.000
v -81.609 84.249 9.900
v -48.334 97.712 9.900
v -56.096 120.393 9.900
v -89.971 105.884 9.900
usemtl roof
f 36 37 38 39
usemtl teaching_building
f 35 34 33 32
f 32 33 37 36
f 33 34 38 37
f 34 35 39 38
f 35 32 36 39
o SD0113_T004_4hao
v -109.048 77.402 0.000
v -109.550 98.740 0.000
v -194.900 97.582 0.000
v -195.290 76.364 0.000
v -109.048 77.402 9.900
v -109.550 98.740 9.900
v -194.900 97.582 9.900
v -195.290 76.364 9.900
usemtl roof
f 44 45 46 47
usemtl teaching_building
f 43 42 41 40
f 40 41 45 44
f 41 42 46 45
f 42 43 47 46
f 43 40 44 47
o SD0113_T005_5hao
v 68.838 63.652 0.000
v 68.838 48.235 0.000
v 64.665 45.585 0.000
v 62.327 40.776 0.000
v 60.993 34.142 0.000
v 61.495 26.841 0.000
v 67.002 21.208 0.000
v 74.518 17.891 0.000
v 85.712 19.382 0.000
v 89.548 22.366 0.000
v 93.722 29.834 0.000
v 109.089 29.834 0.000
v 110.258 17.891 0.000
v 125.281 18.057 0.000
v 123.446 74.437 0.000
v 60.319 74.437 0.000
v 60.162 62.828 0.000
v 68.838 63.652 9.900
v 68.838 48.235 9.900
v 64.665 45.585 9.900
v 62.327 40.776 9.900
v 60.993 34.142 9.900
v 61.495 26.841 9.900
v 67.002 21.208 9.900
v 74.518 17.891 9.900
v 85.712 19.382 9.900
v 89.548 22.366 9.900
v 93.722 29.834 9.900
v 109.089 29.834 9.900
v 110.258 17.891 9.900
v 125.281 18.057 9.900
v 123.446 74.437 9.900
v 60.319 74.437 9.900
v 60.162 62.828 9.900
usemtl roof
f 65 66 67 68 69 70 71 72 73 74 75 76 77 78 79 80 81
usemtl teaching_building
f 64 63 62 61 60 59 58 57 56 55 54 53 52 51 50 49 48
f 48 49 66 65
f 49 50 67 66
f 50 51 68 67
f 51 52 69 68
f 52 53 70 69
f 53 54 71 70
f 54 55 72 71
f 55 56 73 72
f 56 57 74 73
f 57 58 75 74
f 58 59 76 75
f 59 60 77 76
f 60 61 78 77
f 61 62 79 78
f 62 63 80 79
f 63 64 81 80
f 64 48 65 81
o SD0113_T006_6hao
v -41.568 -7.422 0.000
v -28.658 -7.422 0.000
v -28.283 2.519 0.000
v 19.176 3.390 0.000
v 19.176 -2.512 0.000
v 26.766 -2.771 0.000
v 27.396 -18.596 0.000
v 17.655 -19.226 0.000
v 17.902 -51.155 0.000
v 27.021 -51.396 0.000
v 27.148 -63.089 0.000
v 20.570 -63.329 0.000
v 20.697 -67.239 0.000
v -28.785 -67.730 0.000
v -29.422 -57.807 0.000
v -41.568 -57.937 0.000
v -41.066 -80.183 0.000
v 19.963 -78.840 0.000
v 20.472 -81.110 0.000
v 42.876 -80.971 0.000
v 43.632 -63.765 0.000
v 37.428 -63.385 0.000
v 37.181 -50.821 0.000
v 43.250 -50.821 0.000
v 42.876 -19.152 0.000
v 37.803 -19.662 0.000
v 37.301 -3.698 0.000
v 42.486 -2.947 0.000
v 41.602 12.767 0.000
v 19.326 12.897 0.000
v 18.704 10.136 0.000
v -29.145 10.376 0.000
v -29.145 14.518 0.000
v -42.452 14.444 0.000
v -41.568 -7.422 9.900
v -28.658 -7.422 9.900
v -28.283 2.519 9.900
v 19.176 3.390 9.900
v 19.176 -2.512 9.900
v 26.766 -2.771 9.900
v 27.396 -18.596 9.900
v 17.655 -19.226 9.900
v 17.902 -51.155 9.900
v 27.021 -51.396 9.900
v 27.148 -63.089 9.900
v 20.570 -63.329 9.900
v 20.697 -67.239 9.900
v -28.785 -67.730 9.900
v -29.422 -57.807 9.900
v -41.568 -57.937 9.900
v -41.066 -80.183 9.900
v 19.963 -78.840 9.900
v 20.472 -81.110 9.900
v 42.876 -80.971 9.900
v 43.632 -63.765 9.900
v 37.428 -63.385 9.900
v 37.181 -50.821 9.900
v 43.250 -50.821 9.900
v 42.876 -19.152 9.900
v 37.803 -19.662 9.900
v 37.301 -3.698 9.900
v 42.486 -2.947 9.900
v 41.602 12.767 9.900
v 19.326 12.897 9.900
v 18.704 10.136 9.900
v -29.145 10.376 9.900
v -29.145 14.518 9.900
v -42.452 14.444 9.900
usemtl roof
f 116 117 118 119 120 121 122 123 124 125 126 127 128 129 130 131 132 133 134 135 136 137 138 139 140 141 142 143 144 145 146 147 148 149
usemtl teaching_building
f 115 114 113 112 111 110 109 108 107 106 105 104 103 102 101 100 99 98 97 96 95 94 93 92 91 90 89 88 87 86 85 84 83 82
f 82 83 117 116
f 83 84 118 117
f 84 85 119 118
f 85 86 120 119
f 86 87 121 120
f 87 88 122 121
f 88 89 123 122
f 89 90 124 123
f 90 91 125 124
f 91 92 126 125
f 92 93 127 126
f 93 94 128 127
f 94 95 129 128
f 95 96 130 129
f 96 97 131 130
f 97 98 132 131
f 98 99 133 132
f 99 100 134 133
f 100 101 135 134
f 101 102 136 135
f 102 103 137 136
f 103 104 138 137
f 104 105 139 138
f 105 106 140 139
f 106 107 141 140
f 107 108 142 141
f 108 109 143 142
f 109 110 144 143
f 110 111 145 144
f 111 112 146 145
f 112 113 147 146
f 113 114 148 147
f 114 115 149 148
f 115 82 116 149
o SD0113_T007_7hao
v -51.069 -165.943 0.000
v 10.829 -163.988 0.000
v 10.949 -107.321 0.000
v -52.350 -109.276 0.000
v -51.069 -165.943 9.900
v 10.829 -163.988 9.900
v 10.949 -107.321 9.900
v -52.350 -109.276 9.900
usemtl roof
f 154 155 156 157
usemtl teaching_building
f 153 152 151 150
f 150 151 155 154
f 151 152 156 155
f 152 153 157 156
f 153 150 154 157
o SD0113_T008_8hao
v 96.771 -163.960 0.000
v 96.382 -109.110 0.000
v 76.241 -109.295 0.000
v 75.477 -147.199 0.000
v 23.687 -148.154 0.000
v 23.305 -165.109 0.000
v 96.771 -163.960 9.900
v 96.382 -109.110 9.900
v 76.241 -109.295 9.900
v 75.477 -147.199 9.900
v 23.687 -148.154 9.900
v 23.305 -165.109 9.900
usemtl roof
f 164 165 166 167 168 169
usemtl teaching_building
f 163 162 161 160 159 158
f 158 159 165 164
f 159 160 166 165
f 160 161 167 166
f 161 162 168 167
f 162 163 169 168
f 163 158 164 169
o SD0113_T009_9hao
v 23.986 -184.613 0.000
v 68.868 -184.808 0.000
v 68.681 -171.289 0.000
v 23.597 -171.475 0.000
v 23.986 -184.613 9.900
v 68.868 -184.808 9.900
v 68.681 -171.289 9.900
v 23.597 -171.475 9.900
usemtl roof
f 174 175 176 177
usemtl teaching_building
f 173 172 171 170
f 170 171 175 174
f 171 172 176 175
f 172 173 177 176
f 173 170 174 177
