# school_id SD0195
# school_name 太平角小学
# boundary_source footprint_convex_hull_buffer_20m
# adjacent_block_merge_distance_m 2.0
mtllib ../campus_materials.mtl
o SD0195_campus_boundary
usemtl campus_boundary
v -32.101 -86.480 0.050
v -44.794 -57.371 0.050
v -77.337 18.249 0.050
v -12.208 55.182 0.050
v -3.367 59.372 0.050
v 18.825 67.934 0.050
v 53.830 50.728 0.050
v 64.831 27.842 0.050
v 64.028 -31.310 0.050
v 5.074 -70.508 0.050
v -32.101 -86.480 0.050
l 1 2 3 4 5 6 7 8 9 10 11 1
o SD0195_T001_1hao
v -21.719 -60.252 0.000
v -4.488 -52.849 0.000
v -9.218 -41.999 0.000
v -26.442 -49.421 0.000
v -21.719 -60.252 4.950
v -4.488 -52.849 4.950
v -9.218 -41.999 4.950
v -26.442 -49.421 4.950
usemtl roof
f 16 17 18 19
usemtl teaching_building
f 15 14 13 12
f 12 13 17 16
f 13 14 18 17
f 14 15 19 18
f 15 12 16 19
