# school_id SD0187
# school_name 华东航空学校
# boundary_source footprint_convex_hull_buffer_20m
# adjacent_block_merge_distance_m 2.0
mtllib ../campus_materials.mtl
o SD0187_campus_boundary
usemtl campus_boundary
v 42.669 -80.816 0.050
v -35.112 -80.180 0.050
v -34.238 24.641 0.050
v -23.121 59.341 0.050
v 43.814 58.788 0.050
v 42.669 -80.816 0.050
l 1 2 3 4 5 6 1
o SD0187_T001_1hao
v -8.709 21.389 0.000
v -14.264 21.434 0.000
v -14.946 -60.344 0.000
v 22.834 -60.653 0.000
v 23.651 38.954 0.000
v -8.566 39.220 0.000
v -8.709 21.389 20.240
v -14.264 21.434 20.240
v -14.946 -60.344 20.240
v 22.834 -60.653 20.240
v 23.651 38.954 20.240
v -8.566 39.220 20.240
usemtl roof
f 13 14 15 16 17 18
usemtl teaching_building
f 12 11 10 9 8 7
f 7 8 14 13
f 8 9 15 14
f 9 10 16 15
f 10 11 17 16
f 11 12 18 17
f 12 7 13 18
