# school_id SD0103
# school_name 济南市洪家楼第二小学
# boundary_source footprint_convex_hull_buffer_20m
# adjacent_block_merge_distance_m 2.0
mtllib ../campus_materials.mtl
o SD0103_campus_boundary
usemtl campus_boundary
v -43.596 -85.745 0.050
v -74.431 -7.226 0.050
v -78.863 16.326 0.050
v -19.293 79.809 0.050
v 10.269 86.722 0.050
v 79.269 56.258 0.050
v 91.171 9.082 0.050
v 45.599 -34.139 0.050
v 5.355 -71.055 0.050
v -43.596 -85.745 0.050
l 1 2 3 4 5 6 7 8 9 10 1
o SD0103_T001_1hao
v -8.848 61.712 0.000
v 8.310 65.724 0.000
v 14.639 39.040 0.000
v -2.510 35.027 0.000
v -8.848 61.712 12.650
v 8.310 65.724 12.650
v 14.639 39.040 12.650
v -2.510 35.027 12.650
usemtl roof
f 15 16 17 18
usemtl teaching_building
f 14 13 12 11
f 11 12 16 15
f 12 13 17 16
f 13 14 18 17
f 14 11 15 18
o SD0103_T002_2hao
v 8.096 -11.753 0.000
v 18.371 -9.189 0.000
v 12.104 15.694 0.000
v 50.070 25.123 0.000
v 53.462 11.692 0.000
v 68.915 15.539 0.000
v 62.264 41.903 0.000
v -1.438 26.063 0.000
v 8.096 -11.753 26.900
v 18.371 -9.189 26.900
v 12.104 15.694 26.900
v 50.070 25.123 26.900
v 53.462 11.692 26.900
v 68.915 15.539 26.900
v 62.264 41.903 26.900
v -1.438 26.063 26.900
usemtl roof
f 27 28 29 30 31 32 33 34
usemtl teaching_building
f 26 25 24 23 22 21 20 19
f 19 20 28 27
f 20 21 29 28
f 21 22 30 29
f 22 23 31 30
f 23 24 32 31
f 24 25 33 32
f 25 26 34 33
f 26 19 27 34
o SD0103_T003_3hao
v -55.125 -1.672 0.000
v -5.625 7.525 0.000
v -9.865 30.064 0.000
v -22.595 27.699 0.000
v -20.551 16.877 0.000
v -57.330 10.045 0.000
v -55.125 -1.672 20.060
v -5.625 7.525 20.060
v -9.865 30.064 20.060
v -22.595 27.699 20.060
v -20.551 16.877 20.060
v -57.330 10.045 20.060
usemtl roof
f 41 42 43 44 45 46
usemtl teaching_building
f 40 39 38 37 36 35
f 35 36 42 41
f 36 37 43 42
f 37 38 44 43
f 38 39 45 44
f 39 40 46 45
f 40 35 41 46
o SD0103_T004_4hao
v -35.361 -46.529 0.000
v -9.553 -39.012 0.000
v -11.240 -32.612 0.000
v 5.310 -27.317 0.000
v 12.880 -20.077 0.000
v 11.202 -13.666 0.000
v 30.270 -8.094 0.000
v 31.957 -19.513 0.000
v -4.786 -53.217 0.000
v -31.710 -61.297 0.000
v -35.361 -46.529 16.170
v -9.553 -39.012 16.170
v -11.240 -32.612 16.170
v 5.310 -27.317 16.170
v 12.880 -20.077 16.170
v 11.202 -13.666 16.170
v 30.270 -8.094 16.170
v 31.957 -19.513 16.170
v -4.786 -53.217 16.170
v -31.710 -61.297 16.170
usemtl roof
f 57 58 59 60 61 62 63 64 65 66
usemtl teaching_building
f 56 55 54 53 52 51 50 49 48 47
f 47 48 58 57
f 48 49 59 58
f 49 50 60 59
f 50 51 61 60
f 51 52 62 61
f 52 53 63 62
f 53 54 64 63
f 54 55 65 64
f 55 56 66 65
f 56 47 57 66
