# school_id SD0164
# school_name 章丘中等职业学校
# boundary_source footprint_convex_hull_buffer_20m
# adjacent_block_merge_distance_m 2.0
mtllib ../campus_materials.mtl
o SD0164_campus_boundary
usemtl campus_boundary
v -20.654 -118.370 0.050
v -46.560 -112.926 0.050
v -63.024 -107.301 0.050
v -78.681 -95.282 0.050
v -90.559 -83.126 0.050
v -102.746 -61.666 0.050
v -108.593 -46.399 0.050
v -111.434 -31.468 0.050
v -111.616 -16.925 0.050
v -104.971 2.173 0.050
v 52.639 195.252 0.050
v 166.041 194.178 0.050
v 179.981 124.434 0.050
v 180.441 98.406 0.050
v 73.885 -69.963 0.050
v 61.717 -87.148 0.050
v 46.740 -99.449 0.050
v 28.289 -109.923 0.050
v 3.106 -116.463 0.050
v -20.654 -118.370 0.050
l 1 2 3 4 5 6 7 8 9 10 11 12 13 14 15 16 17 18 19 20 1
o SD0164_T001_1hao
v 160.338 104.041 0.000
v 160.016 122.280 0.000
v 76.221 122.755 0.000
v 76.784 158.493 0.000
v 149.425 158.349 0.000
v 149.612 174.333 0.000
v 62.057 175.162 0.000
v 61.539 103.444 0.000
v 160.338 104.041 9.480
v 160.016 122.280 9.480
v 76.221 122.755 9.480
v 76.784 158.493 9.480
v 149.425 158.349 9.480
v 149.612 174.333 9.480
v 62.057 175.162 9.480
v 61.539 103.444 9.480
usemtl roof
f 29 30 31 32 33 34 35 36
usemtl teaching_building
f 28 27 26 25 24 23 22 21
f 21 22 30 29
f 22 23 31 30
f 23 24 32 31
f 24 25 33 32
f 25 26 34 33
f 26 27 35 34
f 27 28 36 35
f 28 21 29 36
o SD0164_T002_2hao
v 66.281 -21.886 0.000
v 63.977 -39.396 0.000
v 57.262 -58.829 0.000
v 46.947 -73.398 0.000
v 35.373 -82.904 0.000
v 20.709 -91.228 0.000
v -0.233 -96.667 0.000
v -19.371 -98.203 0.000
v -41.251 -93.605 0.000
v -53.450 -89.437 0.000
v -65.372 -80.285 0.000
v -74.446 -70.999 0.000
v -84.609 -53.103 0.000
v -89.279 -40.910 0.000
v -91.458 -29.458 0.000
v -91.574 -20.184 0.000
v -87.243 -7.737 0.000
v -80.974 -3.658 0.000
v -74.481 -2.873 0.000
v -67.185 -4.454 0.000
v -61.496 -8.522 0.000
v -57.960 -15.088 0.000
v -56.183 -21.400 0.000
v 66.281 -21.886 10.130
v 63.977 -39.396 10.130
v 57.262 -58.829 10.130
v 46.947 -73.398 10.130
v 35.373 -82.904 10.130
v 20.709 -91.228 10.130
v -0.233 -96.667 10.130
v -19.371 -98.203 10.130
v -41.251 -93.605 10.130
v -53.450 -89.437 10.130
v -65.372 -80.285 10.130
v -74.446 -70.999 10.130
v -84.609 -53.103 10.130
v -89.279 -40.910 10.130
v -91.458 -29.458 10.130
v -91.574 -20.184 10.130
v -87.243 -7.737 10.130
v -80.974 -3.658 10.130
v -74.481 -2.873 10.130
v -67.185 -4.454 10.130
v -61.496 -8.522 10.130
v -57.960 -15.088 10.130
v -56.183 -21.400 10.130
usemtl roof
f 60 61 62 63 64 65 66 67 68 69 70 71 72 73 74 75 76 77 78 79 80 81 82
usemtl teaching_building
f 59 58 57 56 55 54 53 52 51 50 49 48 47 46 45 44 43 42 41 40 39 38 37
f 37 38 61 60
f 38 39 62 61
f 39 40 63 62
f 40 41 64 63
f 41 42 65 64
f 42 43 66 65
f 43 44 67 66
f 44 45 68 67
f 45 46 69 68
f 46 47 70 69
f 47 48 71 70
f 48 49 72 71
f 49 50 73 72
f 50 51 74 73
f 51 52 75 74
f 52 53 76 75
f 53 54 77 76
f 54 55 78 77
f 55 56 79 78
f 56 57 80 79
f 57 58 81 80
f 58 59 82 81
f 59 37 60 82
