# school_id SD0157
# school_name 济南高新区金谷小学
# boundary_source footprint_convex_hull_buffer_20m
# adjacent_block_merge_distance_m 2.0
mtllib ../campus_materials.mtl
o SD0157_campus_boundary
usemtl campus_boundary
v -30.393 -104.137 0.050
v -42.812 -51.193 0.050
v -61.110 26.819 0.050
v -73.526 79.761 0.050
v -20.584 92.180 0.050
v 30.393 104.137 0.050
v 42.812 51.193 0.050
v 61.110 -26.819 0.050
v 73.526 -79.761 0.050
v -30.393 -104.137 0.050
l 1 2 3 4 5 6 7 8 9 10 1
o SD0157_T001_1hao
v -41.637 31.386 0.000
v -41.638 31.386 0.000
v -49.488 64.857 0.000
v -16.017 72.708 0.000
v -16.017 72.708 0.000
v 15.489 80.098 0.000
v 23.340 46.626 0.000
v -8.166 39.236 0.000
v -2.943 16.966 0.000
v 23.690 23.213 0.000
v 31.541 -10.259 0.000
v 4.908 -16.506 0.000
v 10.131 -38.776 0.000
v 41.638 -31.386 0.000
v 49.488 -64.857 0.000
v -15.489 -80.098 0.000
v -23.340 -46.626 0.000
v -23.340 -46.626 0.000
v -41.637 31.386 16.390
v -41.638 31.386 16.390
v -49.488 64.857 16.390
v -16.017 72.708 16.390
v -16.017 72.708 16.390
v 15.489 80.098 16.390
v 23.340 46.626 16.390
v -8.166 39.236 16.390
v -2.943 16.966 16.390
v 23.690 23.213 16.390
v 31.541 -10.259 16.390
v 4.908 -16.506 16.390
v 10.131 -38.776 16.390
v 41.638 -31.386 16.390
v 49.488 -64.857 16.390
v -15.489 -80.098 16.390
v -23.340 -46.626 16.390
v -23.340 -46.626 16.390
usemtl roof
f 29 30 31 32 33 34 35 36 37 38 39 40 41 42 43 44 45 46
usemtl teaching_building
f 28 27 26 25 24 23 22 21 20 19 18 17 16 15 14 13 12 11
f 11 12 30 29
f 12 13 31 30
f 13 14 32 31
f 14 15 33 32
f 15 16 34 33
f 16 17 35 34
f 17 18 36 35
f 18 19 37 36
f 19 20 38 37
f 20 21 39 38
f 21 22 40 39
f 22 23 41 40
f 23 24 42 41
f 24 25 43 42
f 25 26 44 43
f 26 27 45 44
f 27 28 46 45
f 28 11 29 46
