# school_id SD0177
# school_name 长清二中
# boundary_source footprint_convex_hull_buffer_20m
# adjacent_block_merge_distance_m 2.0
mtllib ../campus_materials.mtl
o SD0177_campus_boundary
usemtl campus_boundary
v -40.146 -129.274 0.050
v -112.384 -108.305 0.050
v -98.218 -55.642 0.050
v -82.648 -2.873 0.050
v -46.024 113.261 0.050
v 40.022 90.415 0.050
v 61.896 84.291 0.050
v 130.723 62.695 0.050
v 108.160 -20.837 0.050
v 102.453 -36.804 0.050
v -40.146 -129.274 0.050
l 1 2 3 4 5 6 7 8 9 10 11 1
o SD0177_T001_1hao
v -10.852 -0.048 0.000
v -5.126 17.259 0.000
v -39.494 27.933 0.000
v -29.959 60.630 0.000
v -27.178 60.705 0.000
v -25.627 64.272 0.000
v 100.813 28.739 0.000
v 106.405 49.364 0.000
v 56.895 63.410 0.000
v 56.205 65.115 0.000
v 34.760 71.119 0.000
v 34.070 69.080 0.000
v -32.695 89.029 0.000
v -55.258 13.433 0.000
v -10.852 -0.048 9.900
v -5.126 17.259 9.900
v -39.494 27.933 9.900
v -29.959 60.630 9.900
v -27.178 60.705 9.900
v -25.627 64.272 9.900
v 100.813 28.739 9.900
v 106.405 49.364 9.900
v 56.895 63.410 9.900
v 56.205 65.115 9.900
v 34.760 71.119 9.900
v 34.070 69.080 9.900
v -32.695 89.029 9.900
v -55.258 13.433 9.900
usemtl roof
f 26 27 28 29 30 31 32 33 34 35 36 37 38 39
usemtl teaching_building
f 25 24 23 22 21 20 19 18 17 16 15 14 13 12
f 12 13 27 26
f 13 14 28 27
f 14 15 29 28
f 15 16 30 29
f 16 17 31 30
f 17 18 32 31
f 18 19 33 32
f 19 20 34 33
f 20 21 35 34
f 21 22 36 35
f 22 23 37 36
f 23 24 38 37
f 24 25 39 38
f 25 12 26 39
o SD0177_T002_2hao
v 81.571 -25.889 0.000
v 83.115 -23.703 0.000
v 85.896 -23.703 0.000
v 89.059 -14.854 0.000
v 34.565 -0.456 0.000
v 36.768 6.975 0.000
v 6.710 15.351 0.000
v 1.793 -2.198 0.000
v 81.571 -25.889 9.900
v 83.115 -23.703 9.900
v 85.896 -23.703 9.900
v 89.059 -14.854 9.900
v 34.565 -0.456 9.900
v 36.768 6.975 9.900
v 6.710 15.351 9.900
v 1.793 -2.198 9.900
usemtl roof
f 48 49 50 51 52 53 54 55
usemtl teaching_building
f 47 46 45 44 43 42 41 40
f 40 41 49 48
f 41 42 50 49
f 42 43 51 50
f 43 44 52 51
f 44 45 53 52
f 45 46 54 53
f 46 47 55 54
f 47 40 48 55
o SD0177_T003_3hao
v -23.176 -39.324 0.000
v -17.936 -22.424 0.000
v -63.518 -8.711 0.000
v -68.593 -25.936 0.000
v -23.176 -39.324 9.900
v -17.936 -22.424 9.900
v -63.518 -8.711 9.900
v -68.593 -25.936 9.900
usemtl roof
f 60 61 62 63
usemtl teaching_building
f 59 58 57 56
f 56 57 61 60
f 57 58 62 61
f 58 59 63 62
f 59 56 60 63
o SD0177_T004_4hao
v -33.872 -73.893 0.000
v -28.460 -57.873 0.000
v -73.487 -44.411 0.000
v -78.967 -61.070 0.000
v -33.872 -73.893 9.900
v -28.460 -57.873 9.900
v -73.487 -44.411 9.900
v -78.967 -61.070 9.900
usemtl roof
f 68 69 70 71
usemtl teaching_building
f 67 66 65 64
f 64 65 69 68
f 65 66 70 69
f 66 67 71 70
f 67 64 68 71
o SD0177_T005_5hao
v -43.354 -107.517 0.000
v -39.134 -93.137 0.000
v -83.464 -80.166 0.000
v -87.977 -94.564 0.000
v -43.354 -107.517 9.900
v -39.134 -93.137 9.900
v -83.464 -80.166 9.900
v -87.977 -94.564 9.900
usemtl roof
f 76 77 78 79
usemtl teaching_building
f 75 74 73 72
f 72 73 77 76
f 73 74 78 77
f 74 75 79 78
f 75 72 76 79
