# school_id SD0169
# school_name 舜耕小学
# boundary_source footprint_convex_hull_buffer_20m
# adjacent_block_merge_distance_m 2.0
mtllib ../campus_materials.mtl
o SD0169_campus_boundary
usemtl campus_boundary
v -61.970 -122.830 0.050
v -63.938 -12.878 0.050
v -63.335 29.865 0.050
v -45.956 45.322 0.050
v 31.469 85.400 0.050
v 138.252 84.201 0.050
v 137.461 13.873 0.050
v 18.278 -122.382 0.050
v -61.970 -122.830 0.050
l 1 2 3 4 5 6 7 8 9 1
o SD0169_T001_1hao
v 35.751 22.389 0.000
v 117.545 21.482 0.000
v 118.028 64.427 0.000
v 36.233 65.345 0.000
v 35.751 22.389 10.910
v 117.545 21.482 10.910
v 118.028 64.427 10.910
v 36.233 65.345 10.910
usemtl roof
f 14 15 16 17
usemtl teaching_building
f 13 12 11 10
f 10 11 15 14
f 11 12 16 15
f 12 13 17 16
f 13 10 14 17
o SD0169_T002_2hao
v -43.461 20.775 0.000
v -27.953 6.305 0.000
v -43.935 -12.840 0.000
v -32.652 -22.645 0.000
v -18.546 -10.033 0.000
v -2.564 -24.038 0.000
v 11.068 -10.972 0.000
v -5.852 7.698 0.000
v 7.781 21.239 0.000
v 2.608 27.308 0.000
v -10.560 19.835 0.000
v -17.608 24.047 0.000
v -24.192 19.371 0.000
v -34.537 28.712 0.000
v -43.461 20.775 19.500
v -27.953 6.305 19.500
v -43.935 -12.840 19.500
v -32.652 -22.645 19.500
v -18.546 -10.033 19.500
v -2.564 -24.038 19.500
v 11.068 -10.972 19.500
v -5.852 7.698 19.500
v 7.781 21.239 19.500
v 2.608 27.308 19.500
v -10.560 19.835 19.500
v -17.608 24.047 19.500
v -24.192 19.371 19.500
v -34.537 28.712 19.500
usemtl roof
f 32 33 34 35 36 37 38 39 40 41 42 43 44 45
usemtl teaching_building
f 31 30 29 28 27 26 25 24 23 22 21 20 19 18
f 18 19 33 32
f 19 20 34 33
f 20 21 35 34
f 21 22 36 35
f 22 23 37 36
f 23 24 38 37
f 24 25 39 38
f 25 26 40 39
f 26 27 41 40
f 27 28 42 41
f 28 29 43 42
f 29 30 44 43
f 30 31 45 44
f 31 18 32 45
o SD0169_T003_3hao
v -42.327 -102.720 0.000
v 9.156 -102.433 0.000
v 8.745 -31.477 0.000
v -42.729 -31.776 0.000
v -42.327 -102.720 14.150
v 9.156 -102.433 14.150
v 8.745 -31.477 14.150
v -42.729 -31.776 14.150
usemtl roof
f 50 51 52 53
usemtl teaching_building
f 49 48 47 46
f 46 47 51 50
f 47 48 52 51
f 48 49 53 52
f 49 46 50 53
