# school_id SD0122
# school_name 济南市莱芜实验学校
# boundary_source footprint_convex_hull_buffer_20m
# adjacent_block_merge_distance_m 2.0
mtllib ../campus_materials.mtl
o SD0122_campus_boundary
usemtl campus_boundary
v -7.384 -58.747 0.050
v -91.692 -48.890 0.050
v -91.692 -14.472 0.050
v -32.198 77.827 0.050
v 60.650 84.156 0.050
v 67.276 46.002 0.050
v 63.298 -54.355 0.050
v -7.384 -58.747 0.050
l 1 2 3 4 5 6 7 8 1
o SD0122_T001_1hao
v 44.029 62.977 0.000
v 47.208 44.672 0.000
v -18.911 36.459 0.000
v -20.825 58.556 0.000
v 44.029 62.977 13.210
v 47.208 44.672 13.210
v -18.911 36.459 13.210
v -20.825 58.556 13.210
usemtl roof
f 13 14 15 16
usemtl teaching_building
f 12 11 10 9
f 9 10 14 13
f 10 11 15 14
f 11 12 16 15
f 12 9 13 16
o SD0122_T002_2hao
v 45.304 13.732 0.000
v 44.666 -2.683 0.000
v -8.743 -8.995 0.000
v -10.010 11.842 0.000
v 45.304 13.732 20.170
v 44.666 -2.683 20.170
v -8.743 -8.995 20.170
v -10.010 11.842 20.170
usemtl roof
f 21 22 23 24
usemtl teaching_building
f 20 19 18 17
f 17 18 22 21
f 18 19 23 22
f 19 20 24 23
f 20 17 21 24
o SD0122_T003_3hao
v -25.909 -14.677 0.000
v -25.271 -30.462 0.000
v -71.692 -31.092 0.000
v -71.692 -20.359 0.000
v -25.909 -14.677 21.620
v -25.271 -30.462 21.620
v -71.692 -31.092 21.620
v -71.692 -20.359 21.620
usemtl roof
f 29 30 31 32
usemtl teaching_building
f 28 27 26 25
f 25 26 30 29
f 26 27 31 30
f 27 28 32 31
f 28 25 29 32
o SD0122_T004_4hao
v 42.762 -21.630 0.000
v 44.029 -35.514 0.000
v -6.839 -38.675 0.000
v -8.106 -24.150 0.000
v 42.762 -21.630 20.170
v 44.029 -35.514 20.170
v -6.839 -38.675 20.170
v -8.106 -24.150 20.170
usemtl roof
f 37 38 39 40
usemtl teaching_building
f 36 35 34 33
f 33 34 38 37
f 34 35 39 38
f 35 36 40 39
f 36 33 37 40
