# school_id SD0142
# school_name 济南旅游学校(顺河校区)
# boundary_source footprint_convex_hull_buffer_20m
# adjacent_block_merge_distance_m 2.0
mtllib ../campus_materials.mtl
o SD0142_campus_boundary
usemtl campus_boundary
v 44.271 -77.007 0.050
v -42.762 -47.604 0.050
v -40.744 31.112 0.050
v -34.995 67.568 0.050
v 9.420 52.054 0.050
v 46.833 24.131 0.050
v 55.183 -33.604 0.050
v 44.271 -77.007 0.050
l 1 2 3 4 5 6 7 8 1
o SD0142_T001_1hao
v -12.016 2.450 0.000
v -16.775 -12.594 0.000
v 1.967 -17.380 0.000
v 6.779 -2.358 0.000
v -12.016 2.450 12.250
v -16.775 -12.594 12.250
v 1.967 -17.380 12.250
v 6.779 -2.358 12.250
usemtl roof
f 13 14 15 16
usemtl teaching_building
f 12 11 10 9
f 9 10 14 13
f 10 11 15 14
f 11 12 16 15
f 12 9 13 16
o SD0142_T002_2hao
v 28.226 13.062 0.000
v 15.020 -26.268 0.000
v 34.824 -32.558 0.000
v 30.155 -51.128 0.000
v -22.391 -33.376 0.000
v -16.614 -16.441 0.000
v 4.288 -23.272 0.000
v 14.467 7.602 0.000
v -7.266 14.975 0.000
v -3.962 24.260 0.000
v 28.226 13.062 12.360
v 15.020 -26.268 12.360
v 34.824 -32.558 12.360
v 30.155 -51.128 12.360
v -22.391 -33.376 12.360
v -16.614 -16.441 12.360
v 4.288 -23.272 12.360
v 14.467 7.602 12.360
v -7.266 14.975 12.360
v -3.962 24.260 12.360
usemtl roof
f 27 28 29 30 31 32 33 34 35 36
usemtl teaching_building
f 26 25 24 23 22 21 20 19 18 17
f 17 18 28 27
f 18 19 29 28
f 19 20 30 29
f 20 21 31 30
f 21 22 32 31
f 22 23 33 32
f 23 24 34 33
f 24 25 35 34
f 25 26 36 35
f 26 17 27 36
o SD0142_T002_2hao_seg02
v -3.962 24.260 0.000
v -12.909 24.503 0.000
v -20.784 29.290 0.000
v -18.971 40.786 0.000
v -0.078 34.187 0.000
v -3.962 24.260 12.360
v -12.909 24.503 12.360
v -20.784 29.290 12.360
v -18.971 40.786 12.360
v -0.078 34.187 12.360
usemtl roof
f 42 43 44 45 46
usemtl teaching_building
f 41 40 39 38 37
f 37 38 43 42
f 38 39 44 43
f 39 40 45 44
f 40 41 46 45
f 41 37 42 46
