# school_id SD0197
# school_name 山东大学实验学校
# boundary_source footprint_convex_hull_buffer_20m
# adjacent_block_merge_distance_m 2.0
mtllib ../campus_materials.mtl
o SD0197_campus_boundary
usemtl campus_boundary
v 330.211 -119.555 0.050
v 250.637 -118.967 0.050
v -96.944 -114.955 0.050
v -256.645 -113.036 0.050
v -303.197 -110.386 0.050
v -321.810 -98.220 0.050
v -326.566 -31.076 0.050
v -326.647 -13.296 0.050
v -322.356 16.305 0.050
v -316.831 53.094 0.050
v -301.000 59.462 0.050
v 264.473 249.226 0.050
v 335.036 248.721 0.050
v 336.160 203.368 0.050
v 335.672 136.561 0.050
v 330.211 -119.555 0.050
l 1 2 3 4 5 6 7 8 9 10 11 12 13 14 15 16 1
o SD0197_T001_1hao
v 267.419 194.913 0.000
v 283.169 194.803 0.000
v 283.035 176.652 0.000
v 276.025 176.708 0.000
v 275.917 162.536 0.000
v 286.217 162.459 0.000
v 286.038 138.726 0.000
v 272.511 138.825 0.000
v 272.296 110.450 0.000
v 313.496 110.140 0.000
v 313.630 127.838 0.000
v 308.072 127.871 0.000
v 308.144 136.902 0.000
v 315.674 136.847 0.000
v 316.158 203.193 0.000
v 308.646 203.237 0.000
v 308.691 209.626 0.000
v 315.378 209.582 0.000
v 315.522 228.860 0.000
v 267.670 229.203 0.000
v 267.419 194.913 8.550
v 283.169 194.803 8.550
v 283.035 176.652 8.550
v 276.025 176.708 8.550
v 275.917 162.536 8.550
v 286.217 162.459 8.550
v 286.038 138.726 8.550
v 272.511 138.825 8.550
v 272.296 110.450 8.550
v 313.496 110.140 8.550
v 313.630 127.838 8.550
v 308.072 127.871 8.550
v 308.144 136.902 8.550
v 315.674 136.847 8.550
v 316.158 203.193 8.550
v 308.646 203.237 8.550
v 308.691 209.626 8.550
v 315.378 209.582 8.550
v 315.522 228.860 8.550
v 267.670 229.203 8.550
usemtl roof
f 37 38 39 40 41 42 43 44 45 46 47 48 49 50 51 52 53 54 55 56
usemtl teaching_building
f 36 35 34 33 32 31 30 29 28 27 26 25 24 23 22 21 20 19 18 17
f 17 18 38 37
f 18 19 39 38
f 19 20 40 39
f 20 21 41 40
f 21 22 42 41
f 22 23 43 42
f 23 24 44 43
f 24 25 45 44
f 25 26 46 45
f 26 27 47 46
f 27 28 48 47
f 28 29 49 48
f 29 30 50 49
f 30 31 51 50
f 31 32 52 51
f 32 33 53 52
f 33 34 54 53
f 34 35 55 54
f 35 36 56 55
f 36 17 37 56
o SD0197_T002_2hao
v 104.680 -5.838 0.000
v 142.510 -6.015 0.000
v 142.599 13.705 0.000
v 193.391 13.473 0.000
v 193.293 -5.838 0.000
v 229.195 -6.004 0.000
v 229.392 35.725 0.000
v 220.051 35.769 0.000
v 220.096 46.458 0.000
v 116.881 46.911 0.000
v 116.836 36.421 0.000
v 104.877 36.476 0.000
v 104.680 -5.838 8.440
v 142.510 -6.015 8.440
v 142.599 13.705 8.440
v 193.391 13.473 8.440
v 193.293 -5.838 8.440
v 229.195 -6.004 8.440
v 229.392 35.725 8.440
v 220.051 35.769 8.440
v 220.096 46.458 8.440
v 116.881 46.911 8.440
v 116.836 36.421 8.440
v 104.877 36.476 8.440
usemtl roof
f 69 70 71 72 73 74 75 76 77 78 79 80
usemtl teaching_building
f 68 67 66 65 64 63 62 61 60 59 58 57
f 57 58 70 69
f 58 59 71 70
f 59 60 72 71
f 60 61 73 72
f 61 62 74 73
f 62 63 75 74
f 63 64 76 75
f 64 65 77 76
f 65 66 78 77
f 66 67 79 78
f 67 68 80 79
f 68 57 69 80
o SD0197_T003_3hao
v -35.029 0.352 0.000
v 89.046 -0.333 0.000
v 89.324 49.100 0.000
v 57.124 49.288 0.000
v 56.999 26.959 0.000
v -2.480 27.291 0.000
v -2.363 48.901 0.000
v -34.769 49.078 0.000
v -35.029 0.352 11.970
v 89.046 -0.333 11.970
v 89.324 49.100 11.970
v 57.124 49.288 11.970
v 56.999 26.959 11.970
v -2.480 27.291 11.970
v -2.363 48.901 11.970
v -34.769 49.078 11.970
usemtl roof
f 89 90 91 92 93 94 95 96
usemtl teaching_building
f 88 87 86 85 84 83 82 81
f 81 82 90 89
f 82 83 91 90
f 83 84 92 91
f 84 85 93 92
f 85 86 94 93
f 86 87 95 94
f 87 88 96 95
f 88 81 89 96
o SD0197_T004_4hao
v -298.671 20.780 0.000
v -295.049 20.802 0.000
v -295.022 13.418 0.000
v -302.570 13.385 0.000
v -302.445 -14.670 0.000
v -306.640 -14.693 0.000
v -306.569 -30.323 0.000
v -302.373 -30.301 0.000
v -302.239 -60.180 0.000
v -295.793 -60.158 0.000
v -295.758 -68.116 0.000
v -302.642 -68.150 0.000
v -302.561 -86.908 0.000
v -296.744 -86.886 0.000
v -296.726 -90.722 0.000
v -255.974 -90.545 0.000
v -255.956 -93.043 0.000
v -237.444 -92.966 0.000
v -237.453 -90.457 0.000
v -197.419 -90.280 0.000
v -197.436 -86.676 0.000
v -192.318 -86.654 0.000
v -192.390 -69.565 0.000
v -197.284 -69.587 0.000
v -197.311 -62.822 0.000
v -188.069 -62.777 0.000
v -188.212 -31.859 0.000
v -185.146 -31.848 0.000
v -185.218 -16.682 0.000
v -188.284 -16.693 0.000
v -188.418 12.080 0.000
v -196.083 12.047 0.000
v -196.110 17.784 0.000
v -191.233 17.806 0.000
v -191.323 37.980 0.000
v -196.692 37.958 0.000
v -196.701 41.119 0.000
v -235.535 40.953 0.000
v -235.544 43.861 0.000
v -253.571 43.772 0.000
v -253.562 40.865 0.000
v -294.081 40.688 0.000
v -294.072 38.820 0.000
v -298.752 38.809 0.000
v -298.671 20.780 16.930
v -295.049 20.802 16.930
v -295.022 13.418 16.930
v -302.570 13.385 16.930
v -302.445 -14.670 16.930
v -306.640 -14.693 16.930
v -306.569 -30.323 16.930
v -302.373 -30.301 16.930
v -302.239 -60.180 16.930
v -295.793 -60.158 16.930
v -295.758 -68.116 16.930
v -302.642 -68.150 16.930
v -302.561 -86.908 16.930
v -296.744 -86.886 16.930
v -296.726 -90.722 16.930
v -255.974 -90.545 16.930
v -255.956 -93.043 16.930
v -237.444 -92.966 16.930
v -237.453 -90.457 16.930
v -197.419 -90.280 16.930
v -197.436 -86.676 16.930
v -192.318 -86.654 16.930
v -192.390 -69.565 16.930
v -197.284 -69.587 16.930
v -197.311 -62.822 16.930
v -188.069 -62.777 16.930
v -188.212 -31.859 16.930
v -185.146 -31.848 16.930
v -185.218 -16.682 16.930
v -188.284 -16.693 16.930
v -188.418 12.080 16.930
v -196.083 12.047 16.930
v -196.110 17.784 16.930
v -191.233 17.806 16.930
v -191.323 37.980 16.930
v -196.692 37.958 16.930
v -196.701 41.119 16.930
v -235.535 40.953 16.930
v -235.544 43.861 16.930
v -253.571 43.772 16.930
v -253.562 40.865 16.930
v -294.081 40.688 16.930
v -294.072 38.820 16.930
v -298.752 38.809 16.930
usemtl roof
f 141 142 143 144 145 146 147 148 149 150 151 152 153 154 155 156 157 158 159 160 161 162 163 164 165 166 167 168 169 170 171 172 173 174 175 176 177 178 179 180 181 182 183 184
usemtl teaching_building
f 140 139 138 137 136 135 134 133 132 131 130 129 128 127 126 125 124 123 122 121 120 119 118 117 116 115 114 113 112 111 110 109 108 107 106 105 104 103 102 101 100 99 98 97
f 97 98 142 141
f 98 99 143 142
f 99 100 144 143
f 100 101 145 144
f 101 102 146 145
f 102 103 147 146
f 103 104 148 147
f 104 105 149 148
f 105 106 150 149
f 106 107 151 150
f 107 108 152 151
f 108 109 153 152
f 109 110 154 153
f 110 111 155 154
f 111 112 156 155
f 112 113 157 156
f 113 114 158 157
f 114 115 159 158
f 115 116 160 159
f 116 117 161 160
f 117 118 162 161
f 118 119 163 162
f 119 120 164 163
f 120 121 165 164
f 121 122 166 165
f 122 123 167 166
f 123 124 168 167
f 124 125 169 168
f 125 126 170 169
f 126 127 171 170
f 127 128 172 171
f 128 129 173 172
f 129 130 174 173
f 130 131 175 174
f 131 132 176 175
f 132 133 177 176
f 133 134 178 177
f 134 135 179 178
f 135 136 180 179
f 136 137 181 180
f 137 138 182 181
f 138 139 183 182
f 139 140 184 183
f 140 97 141 184
o SD0197_T005_5hao
v -95.341 25.434 0.000
v -93.181 25.411 0.000
v -93.253 19.475 0.000
v -101.625 19.575 0.000
v -102.011 -13.145 0.000
v -104.422 -13.112 0.000
v -104.664 -33.893 0.000
v -103.365 -33.904 0.000
v -103.759 -67.685 0.000
v -94.732 -67.796 0.000
v -94.768 -70.792 0.000
v -96.175 -70.781 0.000
v -96.211 -73.787 0.000
v -97.896 -73.765 0.000
v -98.094 -90.346 0.000
v -96.659 -90.357 0.000
v -96.713 -94.956 0.000
v -52.151 -95.464 0.000
v -52.088 -89.948 0.000
v -50.493 -89.970 0.000
v -50.188 -63.054 0.000
v -67.543 -62.866 0.000
v -66.647 15.076 0.000
v -49.139 14.877 0.000
v -48.790 45.076 0.000
v -95.108 45.596 0.000
v -95.341 25.434 16.170
v -93.181 25.411 16.170
v -93.253 19.475 16.170
v -101.625 19.575 16.170
v -102.011 -13.145 16.170
v -104.422 -13.112 16.170
v -104.664 -33.893 16.170
v -103.365 -33.904 16.170
v -103.759 -67.685 16.170
v -94.732 -67.796 16.170
v -94.768 -70.792 16.170
v -96.175 -70.781 16.170
v -96.211 -73.787 16.170
v -97.896 -73.765 16.170
v -98.094 -90.346 16.170
v -96.659 -90.357 16.170
v -96.713 -94.956 16.170
v -52.151 -95.464 16.170
v -52.088 -89.948 16.170
v -50.493 -89.970 16.170
v -50.188 -63.054 16.170
v -67.543 -62.866 16.170
v -66.647 15.076 16.170
v -49.139 14.877 16.170
v -48.790 45.076 16.170
v -95.108 45.596 16.170
usemtl roof
f 211 212 213 214 215 216 217 218 219 220 221 222 223 224 225 226 227 228 229 230 231 232 233 234 235 236
usemtl teaching_building
f 210 209 208 207 206 205 204 203 202 201 200 199 198 197 196 195 194 193 192 191 190 189 188 187 186 185
f 185 186 212 211
f 186 187 213 212
f 187 188 214 213
f 188 189 215 214
f 189 190 216 215
f 190 191 217 216
f 191 192 218 217
f 192 193 219 218
f 193 194 220 219
f 194 195 221 220
f 195 196 222 221
f 196 197 223 222
f 197 198 224 223
f 198 199 225 224
f 199 200 226 225
f 200 201 227 226
f 201 202 228 227
f 202 203 229 228
f 203 204 230 229
f 204 205 231 230
f 205 206 232 231
f 206 207 233 232
f 207 208 234 233
f 208 209 235 234
f 209 210 236 235
f 210 185 211 236
o SD0197_T006_6hao
v 253.650 7.769 0.000
v 269.517 8.134 0.000
v 270.476 -64.447 0.000
v 251.480 -64.922 0.000
v 250.826 -98.968 0.000
v 310.636 -99.410 0.000
v 311.111 -75.313 0.000
v 301.735 -74.837 0.000
v 301.735 -66.602 0.000
v 310.923 -66.370 0.000
v 311.837 11.472 0.000
v 302.819 11.715 0.000
v 302.936 21.266 0.000
v 311.837 21.023 0.000
v 312.250 42.225 0.000
v 254.080 42.578 0.000
v 253.650 7.769 11.190
v 269.517 8.134 11.190
v 270.476 -64.447 11.190
v 251.480 -64.922 11.190
v 250.826 -98.968 11.190
v 310.636 -99.410 11.190
v 311.111 -75.313 11.190
v 301.735 -74.837 11.190
v 301.735 -66.602 11.190
v 310.923 -66.370 11.190
v 311.837 11.472 11.190
v 302.819 11.715 11.190
v 302.936 21.266 11.190
v 311.837 21.023 11.190
v 312.250 42.225 11.190
v 254.080 42.578 11.190
usemtl roof
f 253 254 255 256 257 258 259 260 261 262 263 264 265 266 267 268
usemtl teaching_building
f 252 251 250 249 248 247 246 245 244 243 242 241 240 239 238 237
f 237 238 254 253
f 238 239 255 254
f 239 240 256 255
f 240 241 257 256
f 241 242 258 257
f 242 243 259 258
f 243 244 260 259
f 244 245 261 260
f 245 246 262 261
f 246 247 263 262
f 247 248 264 263
f 248 249 265 264
f 249 250 266 265
f 250 251 267 266
f 251 252 268 267
f 252 237 253 268
o SD0197_T007_7hao
v -32.448 -81.282 0.000
v -24.613 -81.381 0.000
v -24.720 -89.318 0.000
v 17.403 -89.860 0.000
v 17.385 -91.463 0.000
v 36.739 -91.717 0.000
v 36.766 -90.103 0.000
v 78.056 -90.633 0.000
v 78.146 -83.736 0.000
v 87.944 -83.868 0.000
v 88.204 -64.170 0.000
v 76.182 -64.015 0.000
v 76.245 -59.052 0.000
v 37.564 -58.566 0.000
v 37.609 -55.294 0.000
v 17.896 -55.040 0.000
v 17.833 -59.660 0.000
v -32.152 -59.019 0.000
v -32.448 -81.282 16.440
v -24.613 -81.381 16.440
v -24.720 -89.318 16.440
v 17.403 -89.860 16.440
v 17.385 -91.463 16.440
v 36.739 -91.717 16.440
v 36.766 -90.103 16.440
v 78.056 -90.633 16.440
v 78.146 -83.736 16.440
v 87.944 -83.868 16.440
v 88.204 -64.170 16.440
v 76.182 -64.015 16.440
v 76.245 -59.052 16.440
v 37.564 -58.566 16.440
v 37.609 -55.294 16.440
v 17.896 -55.040 16.440
v 17.833 -59.660 16.440
v -32.152 -59.019 16.440
usemtl roof
f 287 288 289 290 291 292 293 294 295 296 297 298 299 300 301 302 303 304
usemtl teaching_building
f 286 285 284 283 282 281 280 279 278 277 276 275 274 273 272 271 270 269
f 269 270 288 287
f 270 271 289 288
f 271 272 290 289
f 272 273 291 290
f 273 274 292 291
f 274 275 293 292
f 275 276 294 293
f 276 277 295 294
f 277 278 296 295
f 278 279 297 296
f 279 280 298 297
f 280 281 299 298
f 281 282 300 299
f 282 283 301 300
f 283 284 302 301
f 284 285 303 302
f 285 286 304 303
f 286 269 287 304
