# school_id SD0144
# school_name 济南旅游学校（顺河校区）
# boundary_source footprint_convex_hull_buffer_20m
# adjacent_block_merge_distance_m 2.0
mtllib ../campus_materials.mtl
o SD0144_campus_boundary
usemtl campus_boundary
v 7.017 -59.274 0.050
v -37.248 -45.267 0.050
v -6.733 59.514 0.050
v 36.973 45.041 0.050
v 7.017 -59.274 0.050
l 1 2 3 4 5 1
o SD0144_T001_1hao
v 12.447 32.095 0.000
v -6.536 -34.008 0.000
v -12.581 -32.095 0.000
v 6.670 34.008 0.000
v 12.447 32.095 9.900
v -6.536 -34.008 9.900
v -12.581 -32.095 9.900
v 6.670 34.008 9.900
usemtl roof
f 10 11 12 13
usemtl teaching_building
f 9 8 7 6
f 6 7 11 10
f 7 8 12 11
f 8 9 13 12
f 9 6 10 13
