# school_id SD0165
# school_name 纬二路小学
# boundary_source footprint_convex_hull_buffer_20m
# adjacent_block_merge_distance_m 2.0
mtllib ../campus_materials.mtl
o SD0165_campus_boundary
usemtl campus_boundary
v 7.315 -42.907 0.050
v -39.907 -42.051 0.050
v -39.977 68.600 0.050
v 36.751 68.646 0.050
v 36.836 -5.883 0.050
v 36.856 -42.907 0.050
v 7.315 -42.907 0.050
l 1 2 3 4 5 6 7 1
o SD0165_T001_1hao
v 16.783 39.117 0.000
v -12.900 39.106 0.000
v -12.874 -6.216 0.000
v -7.400 -6.216 0.000
v -7.400 -10.637 0.000
v 6.719 -10.626 0.000
v 6.719 -5.917 0.000
v 16.836 -5.906 0.000
v 16.845 -22.907 0.000
v 7.496 -22.907 0.000
v 7.496 -19.657 0.000
v -7.605 -19.669 0.000
v -7.605 -22.399 0.000
v -19.919 -22.410 0.000
v -19.964 48.612 0.000
v 16.774 48.634 0.000
v 16.783 39.117 31.700
v -12.900 39.106 31.700
v -12.874 -6.216 31.700
v -7.400 -6.216 31.700
v -7.400 -10.637 31.700
v 6.719 -10.626 31.700
v 6.719 -5.917 31.700
v 16.836 -5.906 31.700
v 16.845 -22.907 31.700
v 7.496 -22.907 31.700
v 7.496 -19.657 31.700
v -7.605 -19.669 31.700
v -7.605 -22.399 31.700
v -19.919 -22.410 31.700
v -19.964 48.612 31.700
v 16.774 48.634 31.700
usemtl roof
f 24 25 26 27 28 29 30 31 32 33 34 35 36 37 38 39
usemtl teaching_building
f 23 22 21 20 19 18 17 16 15 14 13 12 11 10 9 8
f 8 9 25 24
f 9 10 26 25
f 10 11 27 26
f 11 12 28 27
f 12 13 29 28
f 13 14 30 29
f 14 15 31 30
f 15 16 32 31
f 16 17 33 32
f 17 18 34 33
f 18 19 35 34
f 19 20 36 35
f 20 21 37 36
f 21 22 38 37
f 22 23 39 38
f 23 8 24 39
