# school_id SD0123
# school_name 济南市莱芜实验小学
# boundary_source footprint_convex_hull_buffer_20m
# adjacent_block_merge_distance_m 2.0
mtllib ../campus_materials.mtl
o SD0123_campus_boundary
usemtl campus_boundary
v 66.722 -83.979 0.050
v 24.123 -81.156 0.050
v -112.442 -3.355 0.050
v -101.397 84.229 0.050
v 83.564 57.021 0.050
v 86.314 4.397 0.050
v 83.588 -21.937 0.050
v 75.831 -50.479 0.050
v 66.722 -83.979 0.050
l 1 2 3 4 5 6 7 8 9 1
o SD0123_T001_1hao
v 64.446 39.618 0.000
v 62.802 30.376 0.000
v -64.903 49.036 0.000
v -68.280 13.143 0.000
v -34.549 7.882 0.000
v -35.510 -0.254 0.000
v -90.927 7.406 0.000
v -84.109 61.471 0.000
v 64.446 39.618 16.860
v 62.802 30.376 16.860
v -64.903 49.036 16.860
v -68.280 13.143 16.860
v -34.549 7.882 16.860
v -35.510 -0.254 16.860
v -90.927 7.406 16.860
v -84.109 61.471 16.860
usemtl roof
f 18 19 20 21 22 23 24 25
usemtl teaching_building
f 17 16 15 14 13 12 11 10
f 10 11 19 18
f 11 12 20 19
f 12 13 21 20
f 13 14 22 21
f 14 15 23 22
f 15 16 24 23
f 16 17 25 24
f 17 10 18 25
o SD0123_T002_2hao
v 66.260 4.908 0.000
v 63.862 -18.261 0.000
v -27.317 -2.167 0.000
v -22.978 17.930 0.000
v 66.260 4.908 19.600
v 63.862 -18.261 19.600
v -27.317 -2.167 19.600
v -22.978 17.930 19.600
usemtl roof
f 30 31 32 33
usemtl teaching_building
f 29 28 27 26
f 26 27 31 30
f 27 28 32 31
f 28 29 33 32
f 29 26 30 33
o SD0123_T003_3hao
v 56.531 -45.233 0.000
v 51.716 -62.941 0.000
v 30.031 -61.504 0.000
v 32.924 -41.408 0.000
v 56.531 -45.233 9.980
v 51.716 -62.941 9.980
v 30.031 -61.504 9.980
v 32.924 -41.408 9.980
usemtl roof
f 38 39 40 41
usemtl teaching_building
f 37 36 35 34
f 34 35 39 38
f 35 36 40 39
f 36 37 41 40
f 37 34 38 41
