# school_id SD0170
# school_name 舜苑学校
# boundary_source footprint_convex_hull_buffer_20m
# adjacent_block_merge_distance_m 2.0
mtllib ../campus_materials.mtl
o SD0170_campus_boundary
usemtl campus_boundary
v 48.874 -108.079 0.050
v -70.789 -106.523 0.050
v -70.101 -25.848 0.050
v -69.863 -7.611 0.050
v -16.133 125.245 0.050
v 50.599 125.200 0.050
v 51.994 38.462 0.050
v 48.874 -108.079 0.050
l 1 2 3 4 5 6 7 8 1
o SD0170_T001_1hao
v 30.918 105.213 0.000
v 30.883 46.240 0.000
v 6.679 46.251 0.000
v 6.697 66.480 0.000
v -2.669 66.480 0.000
v -2.652 105.236 0.000
v 30.918 105.213 11.230
v 30.883 46.240 11.230
v 6.679 46.251 11.230
v 6.697 66.480 11.230
v -2.669 66.480 11.230
v -2.652 105.236 11.230
usemtl roof
f 15 16 17 18 19 20
usemtl teaching_building
f 14 13 12 11 10 9
f 9 10 16 15
f 10 11 17 16
f 11 12 18 17
f 12 13 19 18
f 13 14 20 19
f 14 9 15 20
o SD0170_T002_2hao
v 30.597 10.702 0.000
v 29.301 -87.823 0.000
v -50.620 -86.784 0.000
v -50.343 -65.903 0.000
v -37.500 -66.068 0.000
v -37.571 -71.606 0.000
v 14.679 -72.292 0.000
v 14.991 -48.050 0.000
v -26.006 -47.509 0.000
v -25.836 -34.653 0.000
v 16.466 -35.206 0.000
v 16.573 -26.926 0.000
v -50.102 -26.064 0.000
v -49.914 -11.627 0.000
v 1.379 -12.291 0.000
v 1.683 11.078 0.000
v 30.597 10.702 16.130
v 29.301 -87.823 16.130
v -50.620 -86.784 16.130
v -50.343 -65.903 16.130
v -37.500 -66.068 16.130
v -37.571 -71.606 16.130
v 14.679 -72.292 16.130
v 14.991 -48.050 16.130
v -26.006 -47.509 16.130
v -25.836 -34.653 16.130
v 16.466 -35.206 16.130
v 16.573 -26.926 16.130
v -50.102 -26.064 16.130
v -49.914 -11.627 16.130
v 1.379 -12.291 16.130
v 1.683 11.078 16.130
usemtl roof
f 37 38 39 40 41 42 43 44 45 46 47 48 49 50 51 52
usemtl teaching_building
f 36 35 34 33 32 31 30 29 28 27 26 25 24 23 22 21
f 21 22 38 37
f 22 23 39 38
f 23 24 40 39
f 24 25 41 40
f 25 26 42 41
f 26 27 43 42
f 27 28 44 43
f 28 29 45 44
f 29 30 46 45
f 30 31 47 46
f 31 32 48 47
f 32 33 49 48
f 33 34 50 49
f 34 35 51 50
f 35 36 52 51
f 36 21 37 52
