# school_id SD0149
# school_name 济南第十四中学教学楼
# boundary_source footprint_convex_hull_buffer_20m
# adjacent_block_merge_distance_m 2.0
mtllib ../campus_materials.mtl
o SD0149_campus_boundary
usemtl campus_boundary
v -86.252 -35.092 0.050
v -86.252 35.092 0.050
v 86.252 35.092 0.050
v 86.252 -35.092 0.050
v -86.252 -35.092 0.050
l 1 2 3 4 5 1
o SD0149_T001_1hao
v -66.252 15.092 0.000
v 66.252 15.092 0.000
v 66.252 -15.092 0.000
v -66.252 -15.092 0.000
v -66.252 15.092 25.470
v 66.252 15.092 25.470
v 66.252 -15.092 25.470
v -66.252 -15.092 25.470
usemtl roof
f 10 11 12 13
usemtl teaching_building
f 9 8 7 6
f 6 7 11 10
f 7 8 12 11
f 8 9 13 12
f 9 6 10 13
