# school_id SD0140
# school_name 济南幼儿师范高等专科学校常春藤附属小学
# boundary_source footprint_convex_hull_buffer_20m
# adjacent_block_merge_distance_m 2.0
mtllib ../campus_materials.mtl
o SD0140_campus_boundary
usemtl campus_boundary
v 51.061 -71.402 0.050
v -75.425 -55.611 0.050
v -71.384 -23.625 0.050
v -57.762 72.206 0.050
v 68.922 56.293 0.050
v 65.140 26.457 0.050
v 51.061 -71.402 0.050
l 1 2 3 4 5 6 7 1
o SD0140_T001_1hao
v -42.161 38.656 0.000
v -36.875 37.993 0.000
v -38.002 29.172 0.000
v 7.380 23.479 0.000
v 6.360 15.476 0.000
v -3.532 16.714 0.000
v -4.131 11.994 0.000
v -1.689 11.684 0.000
v -4.641 -11.573 0.000
v -7.440 -11.219 0.000
v -8.013 -15.741 0.000
v 2.183 -17.012 0.000
v 1.343 -23.677 0.000
v -44.227 -17.996 0.000
v -45.381 -27.060 0.000
v -51.561 -26.286 0.000
v -53.072 -38.246 0.000
v 34.060 -49.124 0.000
v 35.222 -39.960 0.000
v 28.881 -39.175 0.000
v 30.375 -27.380 0.000
v 5.600 -24.274 0.000
v 6.485 -17.299 0.000
v 14.365 -18.283 0.000
v 18.435 13.752 0.000
v 10.796 14.713 0.000
v 11.843 22.971 0.000
v 37.467 19.754 0.000
v 38.773 29.957 0.000
v 45.320 29.139 0.000
v 46.563 38.944 0.000
v -40.730 49.909 0.000
v -42.161 38.656 13.380
v -36.875 37.993 13.380
v -38.002 29.172 13.380
v 7.380 23.479 13.380
v 6.360 15.476 13.380
v -3.532 16.714 13.380
v -4.131 11.994 13.380
v -1.689 11.684 13.380
v -4.641 -11.573 13.380
v -7.440 -11.219 13.380
v -8.013 -15.741 13.380
v 2.183 -17.012 13.380
v 1.343 -23.677 13.380
v -44.227 -17.996 13.380
v -45.381 -27.060 13.380
v -51.561 -26.286 13.380
v -53.072 -38.246 13.380
v 34.060 -49.124 13.380
v 35.222 -39.960 13.380
v 28.881 -39.175 13.380
v 30.375 -27.380 13.380
v 5.600 -24.274 13.380
v 6.485 -17.299 13.380
v 14.365 -18.283 13.380
v 18.435 13.752 13.380
v 10.796 14.713 13.380
v 11.843 22.971 13.380
v 37.467 19.754 13.380
v 38.773 29.957 13.380
v 45.320 29.139 13.380
v 46.563 38.944 13.380
v -40.730 49.909 13.380
usemtl roof
f 40 41 42 43 44 45 46 47 48 49 50 51 52 53 54 55 56 57 58 59 60 61 62 63 64 65 66 67 68 69 70 71
usemtl teaching_building
f 39 38 37 36 35 34 33 32 31 30 29 28 27 26 25 24 23 22 21 20 19 18 17 16 15 14 13 12 11 10 9 8
f 8 9 41 40
f 9 10 42 41
f 10 11 43 42
f 11 12 44 43
f 12 13 45 44
f 13 14 46 45
f 14 15 47 46
f 15 16 48 47
f 16 17 49 48
f 17 18 50 49
f 18 19 51 50
f 19 20 52 51
f 20 21 53 52
f 21 22 54 53
f 22 23 55 54
f 23 24 56 55
f 24 25 57 56
f 25 26 58 57
f 26 27 59 58
f 27 28 60 59
f 28 29 61 60
f 29 30 62 61
f 30 31 63 62
f 31 32 64 63
f 32 33 65 64
f 33 34 66 65
f 34 35 67 66
f 35 36 68 67
f 36 37 69 68
f 37 38 70 69
f 38 39 71 70
f 39 8 40 71
