# school_id SD0171
# school_name 莱芜职业技术学院
# boundary_source footprint_convex_hull_buffer_20m
# adjacent_block_merge_distance_m 2.0
mtllib ../campus_materials.mtl
o SD0171_campus_boundary
usemtl campus_boundary
v -54.060 -423.574 0.050
v -236.417 -83.359 0.050
v -270.870 -12.981 0.050
v -278.524 9.822 0.050
v -298.620 127.549 0.050
v -294.209 153.845 0.050
v -290.268 177.328 0.050
v -284.113 204.819 0.050
v -266.072 256.279 0.050
v -160.937 337.906 0.050
v -75.504 337.906 0.050
v 133.913 161.646 0.050
v 236.567 31.308 0.050
v 393.908 -254.303 0.050
v 394.736 -314.092 0.050
v 391.518 -350.778 0.050
v 149.259 -420.474 0.050
v 92.534 -421.994 0.050
v -54.060 -423.574 0.050
l 1 2 3 4 5 6 7 8 9 10 11 12 13 14 15 16 17 18 19 1
o SD0171_T001_1hao
v -82.800 317.906 0.000
v -83.770 290.171 0.000
v -155.045 293.045 0.000
v -154.084 317.906 0.000
v -82.800 317.906 12.460
v -83.770 290.171 12.460
v -155.045 293.045 12.460
v -154.084 317.906 12.460
usemtl roof
f 24 25 26 27
usemtl teaching_building
f 23 22 21 20
f 20 21 25 24
f 21 22 26 25
f 22 23 27 26
f 23 20 24 27
o SD0171_T002_2hao
v -80.879 257.650 0.000
v -86.652 242.351 0.000
v -151.193 243.313 0.000
v -158.896 266.261 0.000
v -80.879 257.650 10.090
v -86.652 242.351 10.090
v -151.193 243.313 10.090
v -158.896 266.261 10.090
usemtl roof
f 32 33 34 35
usemtl teaching_building
f 31 30 29 28
f 28 29 33 32
f 29 30 34 33
f 30 31 35 34
f 31 28 32 35
o SD0171_T003_3hao
v -181.053 241.390 0.000
v -184.905 221.305 0.000
v -250.406 213.655 0.000
v -249.149 244.098 0.000
v -181.053 241.390 12.610
v -184.905 221.305 12.610
v -250.406 213.655 12.610
v -249.149 244.098 12.610
usemtl roof
f 40 41 42 43
usemtl teaching_building
f 39 38 37 36
f 36 37 41 40
f 37 38 42 41
f 38 39 43 42
f 39 36 40 43
o SD0171_T004_4hao
v 19.295 229.916 0.000
v 23.146 188.795 0.000
v -55.831 192.620 0.000
v -56.801 214.617 0.000
v 19.295 229.916 10.310
v 23.146 188.795 10.310
v -55.831 192.620 10.310
v -56.801 214.617 10.310
usemtl roof
f 48 49 50 51
usemtl teaching_building
f 47 46 45 44
f 44 45 49 48
f 45 46 50 49
f 46 47 51 50
f 47 44 48 51
o SD0171_T005_5hao
v -146.507 209.377 0.000
v -146.498 210.859 0.000
v -83.025 210.737 0.000
v -83.070 191.094 0.000
v -98.467 191.127 0.000
v -98.467 192.454 0.000
v -101.295 192.465 0.000
v -101.295 191.536 0.000
v -146.686 191.625 0.000
v -146.686 193.659 0.000
v -153.168 193.670 0.000
v -153.132 209.388 0.000
v -146.507 209.377 10.240
v -146.498 210.859 10.240
v -83.025 210.737 10.240
v -83.070 191.094 10.240
v -98.467 191.127 10.240
v -98.467 192.454 10.240
v -101.295 192.465 10.240
v -101.295 191.536 10.240
v -146.686 191.625 10.240
v -146.686 193.659 10.240
v -153.168 193.670 10.240
v -153.132 209.388 10.240
usemtl roof
f 64 65 66 67 68 69 70 71 72 73 74 75
usemtl teaching_building
f 63 62 61 60 59 58 57 56 55 54 53 52
f 52 53 65 64
f 53 54 66 65
f 54 55 67 66
f 55 56 68 67
f 56 57 69 68
f 57 58 70 69
f 58 59 71 70
f 59 60 72 71
f 60 61 73 72
f 61 62 74 73
f 62 63 75 74
f 63 52 64 75
o SD0171_T006_6hao
v -185.865 198.357 0.000
v -189.717 175.397 0.000
v -270.633 173.485 0.000
v -264.852 199.307 0.000
v -185.865 198.357 9.980
v -189.717 175.397 9.980
v -270.633 173.485 9.980
v -264.852 199.307 9.980
usemtl roof
f 80 81 82 83
usemtl teaching_building
f 79 78 77 76
f 76 77 81 80
f 77 78 82 81
f 78 79 83 82
f 79 76 80 83
o SD0171_T007_7hao
v -75.098 169.660 0.000
v -75.098 142.877 0.000
v -138.669 147.663 0.000
v -139.630 165.836 0.000
v -75.098 169.660 8.410
v -75.098 142.877 8.410
v -138.669 147.663 8.410
v -139.630 165.836 8.410
usemtl roof
f 88 89 90 91
usemtl teaching_building
f 87 86 85 84
f 84 85 89 88
f 85 86 90 89
f 86 87 91 90
f 87 84 88 91
o SD0171_T008_8hao
v -182.014 151.488 0.000
v -182.974 128.540 0.000
v -278.336 127.578 0.000
v -274.485 150.537 0.000
v -182.014 151.488 8.260
v -182.974 128.540 8.260
v -278.336 127.578 8.260
v -274.485 150.537 8.260
usemtl roof
f 96 97 98 99
usemtl teaching_building
f 95 94 93 92
f 92 93 97 96
f 93 94 98 97
f 94 95 99 98
f 95 92 96 99
o SD0171_T009_9hao
v 35.670 140.964 0.000
v 34.709 118.967 0.000
v -30.792 121.841 0.000
v -31.753 142.877 0.000
v 35.670 140.964 8.130
v 34.709 118.967 8.130
v -30.792 121.841 8.130
v -31.753 142.877 8.130
usemtl roof
f 104 105 106 107
usemtl teaching_building
f 103 102 101 100
f 100 101 105 104
f 101 102 106 105
f 102 103 107 106
f 103 100 104 107
o SD0171_T010_10hao
v -63.543 119.928 0.000
v -59.683 96.969 0.000
v -132.887 96.019 0.000
v -135.778 119.928 0.000
v -63.543 119.928 8.940
v -59.683 96.969 8.940
v -132.887 96.019 8.940
v -135.778 119.928 8.940
usemtl roof
f 112 113 114 115
usemtl teaching_building
f 111 110 109 108
f 108 109 113 112
f 109 110 114 113
f 110 111 115 114
f 111 108 112 115
o SD0171_T011_11hao
v 119.468 147.663 0.000
v 117.547 83.583 0.000
v 158.001 84.534 0.000
v 157.031 48.188 0.000
v 81.906 44.363 0.000
v 80.945 137.140 0.000
v 119.468 147.663 7.090
v 117.547 83.583 7.090
v 158.001 84.534 7.090
v 157.031 48.188 7.090
v 81.906 44.363 7.090
v 80.945 137.140 7.090
usemtl roof
f 122 123 124 125 126 127
usemtl teaching_building
f 121 120 119 118 117 116
f 116 117 123 122
f 117 118 124 123
f 118 119 125 124
f 119 120 126 125
f 120 121 127 126
f 121 116 122 127
o SD0171_T012_12hao
v -173.341 98.882 0.000
v -172.381 52.974 0.000
v -239.804 50.111 0.000
v -240.773 95.057 0.000
v -173.341 98.882 22.470
v -172.381 52.974 22.470
v -239.804 50.111 22.470
v -240.773 95.057 22.470
usemtl roof
f 132 133 134 135
usemtl teaching_building
f 131 130 129 128
f 128 129 133 132
f 129 130 134 133
f 130 131 135 134
f 131 128 132 135
o SD0171_T013_13hao
v 37.600 84.534 0.000
v 39.522 50.111 0.000
v 8.701 43.413 0.000
v 7.740 60.624 0.000
v -26.941 58.711 0.000
v -26.941 85.495 0.000
v 37.600 84.534 14.800
v 39.522 50.111 14.800
v 8.701 43.413 14.800
v 7.740 60.624 14.800
v -26.941 58.711 14.800
v -26.941 85.495 14.800
usemtl roof
f 142 143 144 145 146 147
usemtl teaching_building
f 141 140 139 138 137 136
f 136 137 143 142
f 137 138 144 143
f 138 139 145 144
f 139 140 146 145
f 140 141 147 146
f 141 136 142 147
o SD0171_T014_14hao
v -55.831 74.972 0.000
v -57.761 52.974 0.000
v -123.254 48.188 0.000
v -123.254 71.147 0.000
v -55.831 74.972 9.170
v -57.761 52.974 9.170
v -123.254 48.188 9.170
v -123.254 71.147 9.170
usemtl roof
f 152 153 154 155
usemtl teaching_building
f 151 150 149 148
f 148 149 153 152
f 149 150 154 153
f 150 151 155 154
f 151 148 152 155
o SD0171_T015_15hao
v -151.193 19.503 0.000
v -154.084 -6.330 0.000
v -252.328 -5.369 0.000
v -259.070 14.716 0.000
v -151.193 19.503 24.990
v -154.084 -6.330 24.990
v -252.328 -5.369 24.990
v -259.070 14.716 24.990
usemtl roof
f 160 161 162 163
usemtl teaching_building
f 159 158 157 156
f 156 157 161 160
f 157 158 162 161
f 158 159 163 162
f 159 156 160 163
o SD0171_T016_16hao
v 219.840 20.221 0.000
v 216.752 -13.980 0.000
v 122.359 -13.018 0.000
v 121.399 17.591 0.000
v 219.840 20.221 10.450
v 216.752 -13.980 10.450
v 122.359 -13.018 10.450
v 121.399 17.591 10.450
usemtl roof
f 168 169 170 171
usemtl teaching_building
f 167 166 165 164
f 164 165 169 168
f 165 166 170 169
f 166 167 171 170
f 167 164 168 171
o SD0171_T017_17hao
v 53.006 7.067 0.000
v 46.264 -36.928 0.000
v -23.080 -46.501 0.000
v -25.011 2.281 0.000
v 53.006 7.067 12.190
v 46.264 -36.928 12.190
v -23.080 -46.501 12.190
v -25.011 2.281 12.190
usemtl roof
f 176 177 178 179
usemtl teaching_building
f 175 174 173 172
f 172 173 177 176
f 173 174 178 177
f 174 175 179 178
f 175 172 176 179
o SD0171_T018_18hao
v -138.669 -48.413 0.000
v -142.521 -77.098 0.000
v -218.616 -74.235 0.000
v -219.577 -48.413 0.000
v -138.669 -48.413 14.320
v -142.521 -77.098 14.320
v -218.616 -74.235 14.320
v -219.577 -48.413 14.320
usemtl roof
f 184 185 186 187
usemtl teaching_building
f 183 182 181 180
f 180 181 185 184
f 181 182 186 185
f 182 183 187 186
f 183 180 184 187
o SD0171_T019_19hao
v 223.494 -84.758 0.000
v 228.315 -110.581 0.000
v 140.665 -118.230 0.000
v 135.844 -87.621 0.000
v 223.494 -84.758 16.590
v 228.315 -110.581 16.590
v 140.665 -118.230 16.590
v 135.844 -87.621 16.590
usemtl roof
f 192 193 194 195
usemtl teaching_building
f 191 190 189 188
f 188 189 193 192
f 189 190 194 193
f 190 191 195 194
f 191 188 192 195
o SD0171_T020_20hao
v 309.222 -191.883 0.000
v 303.441 -217.705 0.000
v 298.629 -255.963 0.000
v 311.153 -261.700 0.000
v 357.379 -242.576 0.000
v 373.979 -259.577 0.000
v 357.379 -268.399 0.000
v 330.410 -286.571 0.000
v 337.152 -314.306 0.000
v 374.724 -313.355 0.000
v 372.794 -335.353 0.000
v 316.925 -336.314 0.000
v 316.925 -313.355 0.000
v 315.004 -295.182 0.000
v 293.808 -274.136 0.000
v 260.096 -264.574 0.000
v 255.284 -244.489 0.000
v 267.808 -189.970 0.000
v 309.222 -191.883 10.510
v 303.441 -217.705 10.510
v 298.629 -255.963 10.510
v 311.153 -261.700 10.510
v 357.379 -242.576 10.510
v 373.979 -259.577 10.510
v 357.379 -268.399 10.510
v 330.410 -286.571 10.510
v 337.152 -314.306 10.510
v 374.724 -313.355 10.510
v 372.794 -335.353 10.510
v 316.925 -336.314 10.510
v 316.925 -313.355 10.510
v 315.004 -295.182 10.510
v 293.808 -274.136 10.510
v 260.096 -264.574 10.510
v 255.284 -244.489 10.510
v 267.808 -189.970 10.510
usemtl roof
f 214 215 216 217 218 219 220 221 222 223 224 225 226 227 228 229 230 231
usemtl teaching_building
f 213 212 211 210 209 208 207 206 205 204 203 202 201 200 199 198 197 196
f 196 197 215 214
f 197 198 216 215
f 198 199 217 216
f 199 200 218 217
f 200 201 219 218
f 201 202 220 219
f 202 203 221 220
f 203 204 222 221
f 204 205 223 222
f 205 206 224 223
f 206 207 225 224
f 207 208 226 225
f 208 209 227 226
f 209 210 228 227
f 210 211 229 228
f 211 212 230 229
f 212 213 231 230
f 213 196 214 231
o SD0171_T021_21hao
v 118.436 -323.702 0.000
v 114.064 -355.604 0.000
v -5.655 -365.751 0.000
v -7.118 -335.308 0.000
v 118.436 -323.702 14.130
v 114.064 -355.604 14.130
v -5.655 -365.751 14.130
v -7.118 -335.308 14.130
usemtl roof
f 236 237 238 239
usemtl teaching_building
f 235 234 233 232
f 232 233 237 236
f 233 234 238 237
f 234 235 239 238
f 235 232 236 239
o SD0171_T022_22hao
v 1.644 -378.795 0.000
v 0.181 -400.549 0.000
v -42.158 -403.445 0.000
v -55.293 -378.795 0.000
v 1.644 -378.795 15.550
v 0.181 -400.549 15.550
v -42.158 -403.445 15.550
v -55.293 -378.795 15.550
usemtl roof
f 244 245 246 247
usemtl teaching_building
f 243 242 241 240
f 240 241 245 244
f 241 242 246 245
f 242 243 247 246
f 243 240 244 247
o SD0171_T023_23hao
v 146.177 -375.899 0.000
v 146.177 -400.549 0.000
v 92.158 -401.997 0.000
v 95.085 -381.702 0.000
v 146.177 -375.899 10.680
v 146.177 -400.549 10.680
v 92.158 -401.997 10.680
v 95.085 -381.702 10.680
usemtl roof
f 252 253 254 255
usemtl teaching_building
f 251 250 249 248
f 248 249 253 252
f 249 250 254 253
f 250 251 255 254
f 251 248 252 255
