# school_id SD0190
# school_name 台湛路小学
# boundary_source footprint_convex_hull_buffer_20m
# adjacent_block_merge_distance_m 2.0
mtllib ../campus_materials.mtl
o SD0190_campus_boundary
usemtl campus_boundary
v -0.269 -42.848 0.050
v -26.237 -39.607 0.050
v -38.936 -26.759 0.050
v -59.563 31.513 0.050
v -29.936 41.859 0.050
v 47.299 51.113 0.050
v 60.687 32.580 0.050
v 70.282 7.608 0.050
v -0.269 -42.848 0.050
l 1 2 3 4 5 6 7 8 9 1
o SD0190_T001_1hao
v -21.572 -15.876 0.000
v -16.884 -20.619 0.000
v -10.739 -21.293 0.000
v -7.670 -19.104 0.000
v -5.547 -22.034 0.000
v 46.064 14.876 0.000
v 41.133 21.674 0.000
v 42.951 22.978 0.000
v 37.984 29.854 0.000
v -7.760 -2.733 0.000
v -8.552 -1.628 0.000
v -15.255 -6.392 0.000
v -25.396 22.260 0.000
v -34.007 19.253 0.000
v -21.572 -15.876 20.450
v -16.884 -20.619 20.450
v -10.739 -21.293 20.450
v -7.670 -19.104 20.450
v -5.547 -22.034 20.450
v 46.064 14.876 20.450
v 41.133 21.674 20.450
v 42.951 22.978 20.450
v 37.984 29.854 20.450
v -7.760 -2.733 20.450
v -8.552 -1.628 20.450
v -15.255 -6.392 20.450
v -25.396 22.260 20.450
v -34.007 19.253 20.450
usemtl roof
f 24 25 26 27 28 29 30 31 32 33 34 35 36 37
usemtl teaching_building
f 23 22 21 20 19 18 17 16 15 14 13 12 11 10
f 10 11 25 24
f 11 12 26 25
f 12 13 27 26
f 13 14 28 27
f 14 15 29 28
f 15 16 30 29
f 16 17 31 30
f 17 18 32 31
f 18 19 33 32
f 19 20 34 33
f 20 21 35 34
f 21 22 36 35
f 22 23 37 36
f 23 10 24 37
