# school_id SD0131
# school_name 济南市趵突泉小学
# boundary_source footprint_convex_hull_buffer_20m
# adjacent_block_merge_distance_m 2.0
mtllib ../campus_materials.mtl
o SD0131_campus_boundary
usemtl campus_boundary
v -4.145 -268.034 0.050
v -53.595 82.379 0.050
v -55.250 126.273 0.050
v -54.034 160.586 0.050
v 24.748 157.801 0.050
v 88.818 -220.010 0.050
v 91.927 -260.822 0.050
v -4.145 -268.034 0.050
l 1 2 3 4 5 6 7 8 1
o SD0131_T001_1hao
v 7.754 138.389 0.000
v 7.263 124.792 0.000
v -35.237 126.296 0.000
v -34.755 139.892 0.000
v 7.754 138.389 14.660
v 7.263 124.792 14.660
v -35.237 126.296 14.660
v -34.755 139.892 14.660
usemtl roof
f 13 14 15 16
usemtl teaching_building
f 12 11 10 9
f 9 10 14 13
f 10 11 15 14
f 11 12 16 15
f 12 9 13 16
o SD0131_T002_2hao
v -20.716 120.636 0.000
v -20.993 83.472 0.000
v -33.648 84.158 0.000
v -33.648 120.636 0.000
v -20.716 120.636 14.660
v -20.993 83.472 14.660
v -33.648 84.158 14.660
v -33.648 120.636 14.660
usemtl roof
f 21 22 23 24
usemtl teaching_building
f 20 19 18 17
f 17 18 22 21
f 18 19 23 22
f 19 20 24 23
f 20 17 21 24
o SD0131_T003_3hao
v 13.041 -246.688 0.000
v 70.464 -242.377 0.000
v 68.946 -222.447 0.000
v 11.531 -226.758 0.000
v 13.041 -246.688 15.370
v 70.464 -242.377 15.370
v 68.946 -222.447 15.370
v 11.531 -226.758 15.370
usemtl roof
f 29 30 31 32
usemtl teaching_building
f 28 27 26 25
f 25 26 30 29
f 26 27 31 30
f 27 28 32 31
f 28 25 29 32
