# school_id SD0115
# school_name 济南市经九路小学
# boundary_source footprint_convex_hull_buffer_20m
# adjacent_block_merge_distance_m 2.0
mtllib ../campus_materials.mtl
o SD0115_campus_boundary
usemtl campus_boundary
v -25.624 -45.267 0.050
v -44.354 -30.885 0.050
v -44.411 -13.921 0.050
v -32.030 55.754 0.050
v 35.992 55.381 0.050
v 39.731 -21.403 0.050
v 39.797 -45.061 0.050
v -25.624 -45.267 0.050
l 1 2 3 4 5 6 7 8 1
o SD0115_T001_1hao
v 16.937 35.485 0.000
v 16.803 9.807 0.000
v 7.809 9.862 0.000
v 7.907 27.758 0.000
v -15.322 27.891 0.000
v -15.287 35.662 0.000
v 16.937 35.485 20.140
v 16.803 9.807 20.140
v 7.809 9.862 20.140
v 7.907 27.758 20.140
v -15.322 27.891 20.140
v -15.287 35.662 20.140
usemtl roof
f 15 16 17 18 19 20
usemtl teaching_building
f 14 13 12 11 10 9
f 9 10 16 15
f 10 11 17 16
f 11 12 18 17
f 12 13 19 18
f 13 14 20 19
f 14 9 15 20
o SD0115_T002_2hao
v 4.657 -15.551 0.000
v 4.674 -21.974 0.000
v 19.732 -21.918 0.000
v 19.741 -25.124 0.000
v -18.859 -25.246 0.000
v -24.387 -21.001 0.000
v -24.405 -15.651 0.000
v 4.657 -15.551 20.140
v 4.674 -21.974 20.140
v 19.732 -21.918 20.140
v 19.741 -25.124 20.140
v -18.859 -25.246 20.140
v -24.387 -21.001 20.140
v -24.405 -15.651 20.140
usemtl roof
f 28 29 30 31 32 33 34
usemtl teaching_building
f 27 26 25 24 23 22 21
f 21 22 29 28
f 22 23 30 29
f 23 24 31 30
f 24 25 32 31
f 25 26 33 32
f 26 27 34 33
f 27 21 28 34
