# school_id SD0173
# school_name 莲河学校
# boundary_source footprint_convex_hull_buffer_20m
# adjacent_block_merge_distance_m 2.0
mtllib ../campus_materials.mtl
o SD0173_campus_boundary
usemtl campus_boundary
v 39.334 -111.284 0.050
v -32.767 -92.912 0.050
v -112.965 64.331 0.050
v -114.531 92.825 0.050
v -79.534 98.944 0.050
v -57.232 98.696 0.050
v 70.276 64.114 0.050
v 76.430 -29.003 0.050
v 77.002 -47.045 0.050
v 63.559 -111.284 0.050
v 39.334 -111.284 0.050
l 1 2 3 4 5 6 7 8 9 10 11 1
o SD0173_T001_1hao
v 51.261 48.549 0.000
v 51.064 35.273 0.000
v -40.629 36.876 0.000
v -40.054 51.544 0.000
v 51.261 48.549 15.460
v 51.064 35.273 15.460
v -40.629 36.876 15.460
v -40.054 51.544 15.460
usemtl roof
f 16 17 18 19
usemtl teaching_building
f 15 14 13 12
f 12 13 17 16
f 13 14 18 17
f 14 15 19 18
f 15 12 16 19
o SD0173_T002_2hao
v 12.167 12.137 0.000
v 12.266 6.488 0.000
v 51.549 7.041 0.000
v 51.692 -4.831 0.000
v 2.192 -5.428 0.000
v 2.102 2.155 0.000
v -47.165 1.558 0.000
v -47.282 11.330 0.000
v 12.167 12.137 11.440
v 12.266 6.488 11.440
v 51.549 7.041 11.440
v 51.692 -4.831 11.440
v 2.192 -5.428 11.440
v 2.102 2.155 11.440
v -47.165 1.558 11.440
v -47.282 11.330 11.440
usemtl roof
f 28 29 30 31 32 33 34 35
usemtl teaching_building
f 27 26 25 24 23 22 21 20
f 20 21 29 28
f 21 22 30 29
f 22 23 31 30
f 23 24 32 31
f 24 25 33 32
f 25 26 34 33
f 26 27 35 34
f 27 20 28 35
o SD0173_T003_3hao
v 51.935 -33.350 0.000
v 56.451 -29.979 0.000
v 56.936 -45.289 0.000
v 52.060 -48.163 0.000
v 52.267 -42.183 0.000
v 7.480 -40.668 0.000
v 7.319 -45.289 0.000
v -1.975 -44.968 0.000
v -1.508 -31.383 0.000
v 51.935 -33.350 11.440
v 56.451 -29.979 11.440
v 56.936 -45.289 11.440
v 52.060 -48.163 11.440
v 52.267 -42.183 11.440
v 7.480 -40.668 11.440
v 7.319 -45.289 11.440
v -1.975 -44.968 11.440
v -1.508 -31.383 11.440
usemtl roof
f 45 46 47 48 49 50 51 52 53
usemtl teaching_building
f 44 43 42 41 40 39 38 37 36
f 36 37 46 45
f 37 38 47 46
f 38 39 48 47
f 39 40 49 48
f 40 41 50 49
f 41 42 51 50
f 42 43 52 51
f 43 44 53 52
f 44 36 45 53
o SD0173_T004_4hao
v 0.225 -64.103 0.000
v 0.997 -76.715 0.000
v -19.061 -75.765 0.000
v -19.331 -63.716 0.000
v 0.225 -64.103 12.250
v 0.997 -76.715 12.250
v -19.061 -75.765 12.250
v -19.331 -63.716 12.250
usemtl roof
f 58 59 60 61
usemtl teaching_building
f 57 56 55 54
f 54 55 59 58
f 55 56 60 59
f 56 57 61 60
f 57 54 58 61
