# school_id SD0134
# school_name 济南市长清区第七中学
# boundary_source footprint_convex_hull_buffer_20m
# adjacent_block_merge_distance_m 2.0
mtllib ../campus_materials.mtl
o SD0134_campus_boundary
usemtl campus_boundary
v -11.486 -92.004 0.050
v -60.112 -74.068 0.050
v 13.033 94.203 0.050
v 58.561 71.860 0.050
v -11.486 -92.004 0.050
l 1 2 3 4 5 1
o SD0134_T001_1hao
v -22.403 -66.660 0.000
v 32.710 62.268 0.000
v 23.025 67.021 0.000
v -33.332 -62.629 0.000
v -22.403 -66.660 6.600
v 32.710 62.268 6.600
v 23.025 67.021 6.600
v -33.332 -62.629 6.600
usemtl roof
f 10 11 12 13
usemtl teaching_building
f 9 8 7 6
f 6 7 11 10
f 7 8 12 11
f 8 9 13 12
f 9 6 10 13
