# school_id SD0154
# school_name 济南高新区凤凰路学校
# boundary_source footprint_convex_hull_buffer_20m
# adjacent_block_merge_distance_m 2.0
mtllib ../campus_materials.mtl
o SD0154_campus_boundary
usemtl campus_boundary
v -36.549 -45.706 0.050
v -42.679 5.704 0.050
v -46.271 35.829 0.050
v 36.549 45.706 0.050
v 42.679 -5.704 0.050
v 46.271 -35.829 0.050
v -36.549 -45.706 0.050
l 1 2 3 4 5 6 7 1
o SD0154_T001_1hao
v 24.044 -18.338 0.000
v -19.058 -23.478 0.000
v -22.820 8.072 0.000
v -22.820 8.072 0.000
v -24.044 18.338 0.000
v 19.058 23.478 0.000
v 20.282 13.211 0.000
v -12.554 9.296 0.000
v -11.897 3.788 0.000
v 17.706 7.317 0.000
v 18.931 -2.949 0.000
v -10.673 -6.478 0.000
v -10.016 -11.987 0.000
v 22.820 -8.072 0.000
v 24.044 -18.338 14.890
v -19.058 -23.478 14.890
v -22.820 8.072 14.890
v -22.820 8.072 14.890
v -24.044 18.338 14.890
v 19.058 23.478 14.890
v 20.282 13.211 14.890
v -12.554 9.296 14.890
v -11.897 3.788 14.890
v 17.706 7.317 14.890
v 18.931 -2.949 14.890
v -10.673 -6.478 14.890
v -10.016 -11.987 14.890
v 22.820 -8.072 14.890
usemtl roof
f 22 23 24 25 26 27 28 29 30 31 32 33 34 35
usemtl teaching_building
f 21 20 19 18 17 16 15 14 13 12 11 10 9 8
f 8 9 23 22
f 9 10 24 23
f 10 11 25 24
f 11 12 26 25
f 12 13 27 26
f 13 14 28 27
f 14 15 29 28
f 15 16 30 29
f 16 17 31 30
f 17 18 32 31
f 18 19 33 32
f 19 20 34 33
f 20 21 35 34
f 21 8 22 35
