# school_id SD0100
# school_name 济南市槐荫区西城实验学校
# boundary_source footprint_convex_hull_buffer_20m
# adjacent_block_merge_distance_m 2.0
mtllib ../campus_materials.mtl
o SD0100_campus_boundary
usemtl campus_boundary
v -53.950 -82.806 0.050
v -56.025 3.698 0.050
v -55.986 31.031 0.050
v -38.061 40.581 0.050
v 28.360 44.178 0.050
v 45.813 44.140 0.050
v 61.765 28.298 0.050
v 61.706 -2.889 0.050
v 0.203 -82.806 0.050
v -53.950 -82.806 0.050
l 1 2 3 4 5 6 7 8 9 10 1
o SD0100_T001_1hao
v -32.269 3.913 0.000
v -32.277 1.106 0.000
v -9.791 1.050 0.000
v -9.806 -7.900 0.000
v 8.302 -7.937 0.000
v 8.324 1.514 0.000
v 38.254 1.449 0.000
v 38.254 3.950 0.000
v 41.719 3.932 0.000
v 41.749 19.989 0.000
v 37.544 19.998 0.000
v 37.551 24.158 0.000
v 28.879 24.177 0.000
v 28.871 20.749 0.000
v -32.561 20.850 0.000
v -32.576 19.016 0.000
v -36.003 19.016 0.000
v -36.025 3.923 0.000
v -32.269 3.913 9.900
v -32.277 1.106 9.900
v -9.791 1.050 9.900
v -9.806 -7.900 9.900
v 8.302 -7.937 9.900
v 8.324 1.514 9.900
v 38.254 1.449 9.900
v 38.254 3.950 9.900
v 41.719 3.932 9.900
v 41.749 19.989 9.900
v 37.544 19.998 9.900
v 37.551 24.158 9.900
v 28.879 24.177 9.900
v 28.871 20.749 9.900
v -32.561 20.850 9.900
v -32.576 19.016 9.900
v -36.003 19.016 9.900
v -36.025 3.923 9.900
usemtl roof
f 29 30 31 32 33 34 35 36 37 38 39 40 41 42 43 44 45 46
usemtl teaching_building
f 28 27 26 25 24 23 22 21 20 19 18 17 16 15 14 13 12 11
f 11 12 30 29
f 12 13 31 30
f 13 14 32 31
f 14 15 33 32
f 15 16 34 33
f 16 17 35 34
f 17 18 36 35
f 18 19 37 36
f 19 20 38 37
f 20 21 39 38
f 21 22 40 39
f 22 23 41 40
f 23 24 42 41
f 24 25 43 42
f 25 26 44 43
f 26 27 45 44
f 27 28 46 45
f 28 11 29 46
o SD0100_T002_2hao
v -9.642 -62.806 0.000
v -9.649 -23.670 0.000
v -34.424 -23.670 0.000
v -34.424 -62.806 0.000
v -9.642 -62.806 9.900
v -9.649 -23.670 9.900
v -34.424 -23.670 9.900
v -34.424 -62.806 9.900
usemtl roof
f 51 52 53 54
usemtl teaching_building
f 50 49 48 47
f 47 48 52 51
f 48 49 53 52
f 49 50 54 53
f 50 47 51 54
