# school_id SD0108
# school_name 济南市甸柳第一小学
# boundary_source footprint_convex_hull_buffer_20m
# adjacent_block_merge_distance_m 2.0
mtllib ../campus_materials.mtl
o SD0108_campus_boundary
usemtl campus_boundary
v -34.848 -93.488 0.050
v -91.285 -92.489 0.050
v -90.921 -46.487 0.050
v -89.936 -7.903 0.050
v -15.876 93.321 0.050
v 9.213 102.888 0.050
v 97.125 103.099 0.050
v 152.552 95.681 0.050
v 153.129 40.077 0.050
v 7.863 -89.835 0.050
v -34.848 -93.488 0.050
l 1 2 3 4 5 6 7 8 9 10 11 1
o SD0108_T001_1hao
v -3.226 76.740 0.000
v 132.733 78.155 0.000
v 133.036 48.939 0.000
v 119.293 48.796 0.000
v 119.150 62.304 0.000
v 18.814 61.253 0.000
v 18.894 53.814 0.000
v 33.887 53.969 0.000
v 34.119 31.397 0.000
v -2.743 31.021 0.000
v -3.226 76.740 21.020
v 132.733 78.155 21.020
v 133.036 48.939 21.020
v 119.293 48.796 21.020
v 119.150 62.304 21.020
v 18.814 61.253 21.020
v 18.894 53.814 21.020
v 33.887 53.969 21.020
v 34.119 31.397 21.020
v -2.743 31.021 21.020
usemtl roof
f 22 23 24 25 26 27 28 29 30 31
usemtl teaching_building
f 21 20 19 18 17 16 15 14 13 12
f 12 13 23 22
f 13 14 24 23
f 14 15 25 24
f 15 16 26 25
f 16 17 27 26
f 17 18 28 27
f 18 19 29 28
f 19 20 30 29
f 20 21 31 30
f 21 12 22 31
o SD0108_T001_1hao_seg02
v 95.816 79.050 0.000
v 12.759 77.967 0.000
v 12.920 82.897 0.000
v 95.816 83.096 0.000
v 95.816 79.050 21.020
v 12.759 77.967 21.020
v 12.920 82.897 21.020
v 95.816 83.096 21.020
usemtl roof
f 36 37 38 39
usemtl teaching_building
f 35 34 33 32
f 32 33 37 36
f 33 34 38 37
f 34 35 39 38
f 35 32 36 39
o SD0108_T002_2hao
v -1.038 -17.175 0.000
v -1.038 -26.814 0.000
v -36.650 -26.283 0.000
v -36.650 -16.102 0.000
v -1.038 -17.175 18.650
v -1.038 -26.814 18.650
v -36.650 -26.283 18.650
v -36.650 -16.102 18.650
usemtl roof
f 44 45 46 47
usemtl teaching_building
f 43 42 41 40
f 40 41 45 44
f 41 42 46 45
f 42 43 47 46
f 43 40 44 47
o SD0108_T003_3hao
v -49.911 -22.337 0.000
v -61.493 -22.038 0.000
v -61.958 -40.189 0.000
v -47.723 -40.543 0.000
v -47.902 -47.407 0.000
v -70.923 -46.821 0.000
v -70.102 -14.665 0.000
v -49.733 -15.174 0.000
v -49.911 -22.337 22.380
v -61.493 -22.038 22.380
v -61.958 -40.189 22.380
v -47.723 -40.543 22.380
v -47.902 -47.407 22.380
v -70.923 -46.821 22.380
v -70.102 -14.665 22.380
v -49.733 -15.174 22.380
usemtl roof
f 56 57 58 59 60 61 62 63
usemtl teaching_building
f 55 54 53 52 51 50 49 48
f 48 49 57 56
f 49 50 58 57
f 50 51 59 58
f 51 52 60 59
f 52 53 61 60
f 53 54 62 61
f 54 55 63 62
f 55 48 56 63
o SD0108_T004_4hao
v -35.525 -73.473 0.000
v -71.129 -72.843 0.000
v -70.950 -62.938 0.000
v -36.106 -63.555 0.000
v -36.106 -59.766 0.000
v -0.493 -60.838 0.000
v -0.493 -70.477 0.000
v -35.462 -69.956 0.000
v -35.525 -73.473 12.670
v -71.129 -72.843 12.670
v -70.950 -62.938 12.670
v -36.106 -63.555 12.670
v -36.106 -59.766 12.670
v -0.493 -60.838 12.670
v -0.493 -70.477 12.670
v -35.462 -69.956 12.670
usemtl roof
f 72 73 74 75 76 77 78 79
usemtl teaching_building
f 71 70 69 68 67 66 65 64
f 64 65 73 72
f 65 66 74 73
f 66 67 75 74
f 67 68 76 75
f 68 69 77 76
f 69 70 78 77
f 70 71 79 78
f 71 64 72 79
