# school_id SD0166
# school_name 经五路小学
# boundary_source footprint_convex_hull_buffer_20m
# adjacent_block_merge_distance_m 2.0
mtllib ../campus_materials.mtl
o SD0166_campus_boundary
usemtl campus_boundary
v -44.380 -74.004 0.050
v -57.242 -13.350 0.050
v -62.950 14.685 0.050
v -66.890 34.257 0.050
v -35.375 72.357 0.050
v 5.041 81.083 0.050
v 31.215 80.360 0.050
v 45.738 69.101 0.050
v 62.836 -8.529 0.050
v 71.436 -53.131 0.050
v -18.620 -74.004 0.050
v -44.380 -74.004 0.050
l 1 2 3 4 5 6 7 8 9 10 11 12 1
o SD0166_T001_1hao
v 6.902 61.024 0.000
v 7.697 57.564 0.000
v 24.128 60.548 0.000
v 27.763 57.730 0.000
v 38.666 4.682 0.000
v 27.611 3.112 0.000
v 20.494 31.675 0.000
v -29.917 21.163 0.000
v -23.907 -6.770 0.000
v -29.757 -7.865 0.000
v -23.595 -39.092 0.000
v 16.225 -30.934 0.000
v 14.644 -26.380 0.000
v 34.398 -23.086 0.000
v 32.817 -14.143 0.000
v 43.248 -12.574 0.000
v 48.150 -37.998 0.000
v 40.881 -39.413 0.000
v 39.935 -37.523 0.000
v -21.853 -50.555 0.000
v -20.907 -54.004 0.000
v -28.176 -54.004 0.000
v -37.660 -9.280 0.000
v -34.659 -7.865 0.000
v -38.767 18.809 0.000
v -43.348 18.654 0.000
v -45.402 28.857 0.000
v -21.228 33.400 0.000
v -24.381 54.270 0.000
v 6.902 61.024 34.590
v 7.697 57.564 34.590
v 24.128 60.548 34.590
v 27.763 57.730 34.590
v 38.666 4.682 34.590
v 27.611 3.112 34.590
v 20.494 31.675 34.590
v -29.917 21.163 34.590
v -23.907 -6.770 34.590
v -29.757 -7.865 34.590
v -23.595 -39.092 34.590
v 16.225 -30.934 34.590
v 14.644 -26.380 34.590
v 34.398 -23.086 34.590
v 32.817 -14.143 34.590
v 43.248 -12.574 34.590
v 48.150 -37.998 34.590
v 40.881 -39.413 34.590
v 39.935 -37.523 34.590
v -21.853 -50.555 34.590
v -20.907 -54.004 34.590
v -28.176 -54.004 34.590
v -37.660 -9.280 34.590
v -34.659 -7.865 34.590
v -38.767 18.809 34.590
v -43.348 18.654 34.590
v -45.402 28.857 34.590
v -21.228 33.400 34.590
v -24.381 54.270 34.590
usemtl roof
f 42 43 44 45 46 47 48 49 50 51 52 53 54 55 56 57 58 59 60 61 62 63 64 65 66 67 68 69 70
usemtl teaching_building
f 41 40 39 38 37 36 35 34 33 32 31 30 29 28 27 26 25 24 23 22 21 20 19 18 17 16 15 14 13
f 13 14 43 42
f 14 15 44 43
f 15 16 45 44
f 16 17 46 45
f 17 18 47 46
f 18 19 48 47
f 19 20 49 48
f 20 21 50 49
f 21 22 51 50
f 22 23 52 51
f 23 24 53 52
f 24 25 54 53
f 25 26 55 54
f 26 27 56 55
f 27 28 57 56
f 28 29 58 57
f 29 30 59 58
f 30 31 60 59
f 31 32 61 60
f 32 33 62 61
f 33 34 63 62
f 34 35 64 63
f 35 36 65 64
f 36 37 66 65
f 37 38 67 66
f 38 39 68 67
f 39 40 69 68
f 40 41 70 69
f 41 13 42 70
