# school_id SD0138
# school_name 济南市韶晖中学
# boundary_source footprint_convex_hull_buffer_20m
# adjacent_block_merge_distance_m 2.0
mtllib ../campus_materials.mtl
o SD0138_campus_boundary
usemtl campus_boundary
v 5.718 -104.053 0.050
v -55.095 -103.601 0.050
v -73.643 -8.187 0.050
v -78.587 20.452 0.050
v -83.330 66.067 0.050
v 84.201 67.112 0.050
v 85.480 14.713 0.050
v 85.480 -20.102 0.050
v 5.718 -104.053 0.050
l 1 2 3 4 5 6 7 8 9 1
o SD0138_T001_1hao
v -58.764 23.191 0.000
v -39.987 24.783 0.000
v -39.585 33.106 0.000
v -13.218 33.504 0.000
v -12.817 7.328 0.000
v -53.970 6.930 0.000
v -53.970 -4.577 0.000
v -1.638 -5.373 0.000
v -2.031 32.708 0.000
v 43.506 32.322 0.000
v 43.506 9.705 0.000
v 4.353 10.899 0.000
v 4.353 -10.524 0.000
v 65.480 -12.116 0.000
v 65.480 14.469 0.000
v 54.292 13.673 0.000
v 53.498 29.934 0.000
v 63.882 29.934 0.000
v 64.686 46.990 0.000
v -61.157 46.205 0.000
v -58.764 23.191 10.170
v -39.987 24.783 10.170
v -39.585 33.106 10.170
v -13.218 33.504 10.170
v -12.817 7.328 10.170
v -53.970 6.930 10.170
v -53.970 -4.577 10.170
v -1.638 -5.373 10.170
v -2.031 32.708 10.170
v 43.506 32.322 10.170
v 43.506 9.705 10.170
v 4.353 10.899 10.170
v 4.353 -10.524 10.170
v 65.480 -12.116 10.170
v 65.480 14.469 10.170
v 54.292 13.673 10.170
v 53.498 29.934 10.170
v 63.882 29.934 10.170
v 64.686 46.990 10.170
v -61.157 46.205 10.170
usemtl roof
f 30 31 32 33 34 35 36 37 38 39 40 41 42 43 44 45 46 47 48 49
usemtl teaching_building
f 29 28 27 26 25 24 23 22 21 20 19 18 17 16 15 14 13 12 11 10
f 10 11 31 30
f 11 12 32 31
f 12 13 33 32
f 13 14 34 33
f 14 15 35 34
f 15 16 36 35
f 16 17 37 36
f 17 18 38 37
f 18 19 39 38
f 19 20 40 39
f 20 21 41 40
f 21 22 42 41
f 22 23 43 42
f 23 24 44 43
f 24 25 45 44
f 25 26 46 45
f 26 27 47 46
f 27 28 48 47
f 28 29 49 48
f 29 10 30 49
o SD0138_T002_2hao
v -19.978 -40.624 0.000
v -1.995 -40.712 0.000
v -1.870 -13.144 0.000
v -19.853 -13.066 0.000
v -19.978 -40.624 10.450
v -1.995 -40.712 10.450
v -1.870 -13.144 10.450
v -19.853 -13.066 10.450
usemtl roof
f 54 55 56 57
usemtl teaching_building
f 53 52 51 50
f 50 51 55 54
f 51 52 56 55
f 52 53 57 56
f 53 50 54 57
o SD0138_T003_3hao
v -38.291 -43.785 0.000
v -2.522 -44.051 0.000
v -2.807 -83.989 0.000
v -38.585 -83.723 0.000
v -38.291 -43.785 16.650
v -2.522 -44.051 16.650
v -2.807 -83.989 16.650
v -38.585 -83.723 16.650
usemtl roof
f 62 63 64 65
usemtl teaching_building
f 61 60 59 58
f 58 59 63 62
f 59 60 64 63
f 60 61 65 64
f 61 58 62 65
