# school_id SD0188
# school_name 即墨区第二实验小学
# boundary_source footprint_convex_hull_buffer_20m
# adjacent_block_merge_distance_m 2.0
mtllib ../campus_materials.mtl
o SD0188_campus_boundary
usemtl campus_boundary
v -59.950 -41.200 0.050
v -69.775 17.497 0.050
v -31.507 23.834 0.050
v 58.531 36.267 0.050
v 66.098 -8.898 0.050
v 36.638 -25.245 0.050
v -59.950 -41.200 0.050
l 1 2 3 4 5 6 7 1
o SD0188_T001_1hao
v -43.519 -18.215 0.000
v 29.962 -6.077 0.000
v 29.068 -0.731 0.000
v 44.038 1.734 0.000
v 42.017 13.797 0.000
v -0.030 6.857 0.000
v 0.939 1.094 0.000
v -27.228 -3.557 0.000
v -28.505 4.059 0.000
v -46.742 1.039 0.000
v -43.519 -18.215 9.900
v 29.962 -6.077 9.900
v 29.068 -0.731 9.900
v 44.038 1.734 9.900
v 42.017 13.797 9.900
v -0.030 6.857 9.900
v 0.939 1.094 9.900
v -27.228 -3.557 9.900
v -28.505 4.059 9.900
v -46.742 1.039 9.900
usemtl roof
f 18 19 20 21 22 23 24 25 26 27
usemtl teaching_building
f 17 16 15 14 13 12 11 10 9 8
f 8 9 19 18
f 9 10 20 19
f 10 11 21 20
f 11 12 22 21
f 12 13 23 22
f 13 14 24 23
f 14 15 25 24
f 15 16 26 25
f 16 17 27 26
f 17 8 18 27
