# school_id SD0130
# school_name 济南市解放路第一小学
# boundary_source footprint_convex_hull_buffer_20m
# adjacent_block_merge_distance_m 2.0
mtllib ../campus_materials.mtl
o SD0130_campus_boundary
usemtl campus_boundary
v 7.534 -32.754 0.050
v -61.678 -14.023 0.050
v -62.059 30.623 0.050
v 51.527 31.578 0.050
v 52.077 -32.370 0.050
v 7.534 -32.754 0.050
l 1 2 3 4 5 6 1
o SD0130_T001_1hao
v 31.700 11.411 0.000
v 31.906 -12.543 0.000
v 10.108 -12.731 0.000
v 9.983 1.750 0.000
v -41.808 1.319 0.000
v -41.889 10.792 0.000
v 31.700 11.411 21.140
v 31.906 -12.543 21.140
v 10.108 -12.731 21.140
v 9.983 1.750 21.140
v -41.808 1.319 21.140
v -41.889 10.792 21.140
usemtl roof
f 13 14 15 16 17 18
usemtl teaching_building
f 12 11 10 9 8 7
f 7 8 14 13
f 8 9 15 14
f 9 10 16 15
f 10 11 17 16
f 11 12 18 17
f 12 7 13 18
