# school_id SD0129
# school_name 济南市行知小学
# boundary_source footprint_convex_hull_buffer_20m
# adjacent_block_merge_distance_m 2.0
mtllib ../campus_materials.mtl
o SD0129_campus_boundary
usemtl campus_boundary
v -2.368 -60.733 0.050
v -59.113 -42.995 0.050
v -45.377 6.296 0.050
v -34.034 46.693 0.050
v -22.934 83.018 0.050
v 51.311 64.838 0.050
v 54.965 -26.504 0.050
v 54.260 -58.475 0.050
v -2.368 -60.733 0.050
l 1 2 3 4 5 6 7 8 9 1
o SD0129_T001_1hao
v 31.929 48.993 0.000
v 13.500 -22.582 0.000
v 34.956 -26.683 0.000
v 34.679 -39.240 0.000
v 0.295 -40.611 0.000
v -34.643 -29.690 0.000
v -31.617 -20.670 0.000
v -4.384 -28.043 0.000
v 2.491 -7.559 0.000
v -26.116 0.908 0.000
v -19.509 19.490 0.000
v 8.545 12.106 0.000
v 14.045 33.418 0.000
v -14.840 41.067 0.000
v -9.331 59.096 0.000
v 31.929 48.993 24.300
v 13.500 -22.582 24.300
v 34.956 -26.683 24.300
v 34.679 -39.240 24.300
v 0.295 -40.611 24.300
v -34.643 -29.690 24.300
v -31.617 -20.670 24.300
v -4.384 -28.043 24.300
v 2.491 -7.559 24.300
v -26.116 0.908 24.300
v -19.509 19.490 24.300
v 8.545 12.106 24.300
v 14.045 33.418 24.300
v -14.840 41.067 24.300
v -9.331 59.096 24.300
usemtl roof
f 25 26 27 28 29 30 31 32 33 34 35 36 37 38 39
usemtl teaching_building
f 24 23 22 21 20 19 18 17 16 15 14 13 12 11 10
f 10 11 26 25
f 11 12 27 26
f 12 13 28 27
f 13 14 29 28
f 14 15 30 29
f 15 16 31 30
f 16 17 32 31
f 17 18 33 32
f 18 19 34 33
f 19 20 35 34
f 20 21 36 35
f 21 22 37 36
f 22 23 38 37
f 23 24 39 38
f 24 10 25 39
