# school_id SD0192
# school_name 城阳区第二实验小学
# boundary_source footprint_convex_hull_buffer_20m
# adjacent_block_merge_distance_m 2.0
mtllib ../campus_materials.mtl
o SD0192_campus_boundary
usemtl campus_boundary
v 36.799 -108.801 0.050
v -85.550 -104.598 0.050
v -86.395 0.936 0.050
v -86.384 4.868 0.050
v -82.653 49.511 0.050
v -78.077 59.532 0.050
v -23.262 145.040 0.050
v 139.665 72.994 0.050
v 139.665 34.289 0.050
v 62.665 -95.509 0.050
v 47.934 -105.663 0.050
v 36.799 -108.801 0.050
l 1 2 3 4 5 6 7 8 9 10 11 12 1
o SD0192_T001_1hao
v -25.417 83.504 0.000
v -27.830 83.504 0.000
v -27.830 67.852 0.000
v -25.417 67.852 0.000
v -25.417 64.867 0.000
v 6.097 64.867 0.000
v 6.097 67.376 0.000
v 12.717 67.376 0.000
v 15.704 69.687 0.000
v 29.663 96.813 0.000
v -15.675 119.817 0.000
v -29.633 92.690 0.000
v -22.511 89.075 0.000
v -25.417 86.135 0.000
v -25.417 83.504 18.070
v -27.830 83.504 18.070
v -27.830 67.852 18.070
v -25.417 67.852 18.070
v -25.417 64.867 18.070
v 6.097 64.867 18.070
v 6.097 67.376 18.070
v 12.717 67.376 18.070
v 15.704 69.687 18.070
v 29.663 96.813 18.070
v -15.675 119.817 18.070
v -29.633 92.690 18.070
v -22.511 89.075 18.070
v -25.417 86.135 18.070
usemtl roof
f 27 28 29 30 31 32 33 34 35 36 37 38 39 40
usemtl teaching_building
f 26 25 24 23 22 21 20 19 18 17 16 15 14 13
f 13 14 28 27
f 14 15 29 28
f 15 16 30 29
f 16 17 31 30
f 17 18 32 31
f 18 19 33 32
f 19 20 34 33
f 20 21 35 34
f 21 22 36 35
f 22 23 37 36
f 23 24 38 37
f 24 25 39 38
f 25 26 40 39
f 26 13 27 40
o SD0192_T002_2hao
v -7.377 9.277 0.000
v -7.404 3.639 0.000
v -52.634 3.860 0.000
v -52.607 9.498 0.000
v -63.838 9.553 0.000
v -63.865 3.982 0.000
v -66.386 4.004 0.000
v -66.395 0.986 0.000
v -63.883 0.975 0.000
v -63.919 -5.856 0.000
v -2.228 -6.155 0.000
v -1.277 -22.857 0.000
v 0.643 -31.004 0.000
v -3.888 -30.982 0.000
v -3.915 -36.620 0.000
v -49.144 -36.398 0.000
v -49.118 -30.761 0.000
v -60.349 -30.706 0.000
v -60.376 -36.277 0.000
v -62.896 -36.255 0.000
v -62.914 -39.273 0.000
v -60.394 -39.284 0.000
v -60.429 -46.115 0.000
v -4.076 -46.391 0.000
v -4.058 -43.948 0.000
v 2.706 -43.982 0.000
v 2.813 -44.766 0.000
v 14.036 -42.169 0.000
v 9.111 -21.144 0.000
v 8.241 -12.478 0.000
v 8.357 12.350 0.000
v 10.429 30.456 0.000
v 14.098 48.087 0.000
v 4.581 50.784 0.000
v 3.307 47.888 0.000
v 0.589 47.899 0.000
v 0.598 49.624 0.000
v -4.004 49.657 0.000
v -4.031 44.019 0.000
v -49.270 44.240 0.000
v -49.234 49.878 0.000
v -60.474 49.933 0.000
v -60.501 44.362 0.000
v -63.013 44.373 0.000
v -63.031 41.366 0.000
v -60.519 41.355 0.000
v -60.546 34.524 0.000
v -2.686 34.237 0.000
v -2.677 35.121 0.000
v -0.111 35.143 0.000
v -2.156 9.243 0.000
v -7.377 9.277 22.110
v -7.404 3.639 22.110
v -52.634 3.860 22.110
v -52.607 9.498 22.110
v -63.838 9.553 22.110
v -63.865 3.982 22.110
v -66.386 4.004 22.110
v -66.395 0.986 22.110
v -63.883 0.975 22.110
v -63.919 -5.856 22.110
v -2.228 -6.155 22.110
v -1.277 -22.857 22.110
v 0.643 -31.004 22.110
v -3.888 -30.982 22.110
v -3.915 -36.620 22.110
v -49.144 -36.398 22.110
v -49.118 -30.761 22.110
v -60.349 -30.706 22.110
v -60.376 -36.277 22.110
v -62.896 -36.255 22.110
v -62.914 -39.273 22.110
v -60.394 -39.284 22.110
v -60.429 -46.115 22.110
v -4.076 -46.391 22.110
v -4.058 -43.948 22.110
v 2.706 -43.982 22.110
v 2.813 -44.766 22.110
v 14.036 -42.169 22.110
v 9.111 -21.144 22.110
v 8.241 -12.478 22.110
v 8.357 12.350 22.110
v 10.429 30.456 22.110
v 14.098 48.087 22.110
v 4.581 50.784 22.110
v 3.307 47.888 22.110
v 0.589 47.899 22.110
v 0.598 49.624 22.110
v -4.004 49.657 22.110
v -4.031 44.019 22.110
v -49.270 44.240 22.110
v -49.234 49.878 22.110
v -60.474 49.933 22.110
v -60.501 44.362 22.110
v -63.013 44.373 22.110
v -63.031 41.366 22.110
v -60.519 41.355 22.110
v -60.546 34.524 22.110
v -2.686 34.237 22.110
v -2.677 35.121 22.110
v -0.111 35.143 22.110
v -2.156 9.243 22.110
usemtl roof
f 92 93 94 95 96 97 98 99 100 101 102 103 104 105 106 107 108 109 110 111 112 113 114 115 116 117 118 119 120 121 122 123 124 125 126 127 128 129 130 131 132 133 134 135 136 137 138 139 140 141 142
usemtl teaching_building
f 91 90 89 88 87 86 85 84 83 82 81 80 79 78 77 76 75 74 73 72 71 70 69 68 67 66 65 64 63 62 61 60 59 58 57 56 55 54 53 52 51 50 49 48 47 46 45 44 43 42 41
f 41 42 93 92
f 42 43 94 93
f 43 44 95 94
f 44 45 96 95
f 45 46 97 96
f 46 47 98 97
f 47 48 99 98
f 48 49 100 99
f 49 50 101 100
f 50 51 102 101
f 51 52 103 102
f 52 53 104 103
f 53 54 105 104
f 54 55 106 105
f 55 56 107 106
f 56 57 108 107
f 57 58 109 108
f 58 59 110 109
f 59 60 111 110
f 60 61 112 111
f 61 62 113 112
f 62 63 114 113
f 63 64 115 114
f 64 65 116 115
f 65 66 117 116
f 66 67 118 117
f 67 68 119 118
f 68 69 120 119
f 69 70 121 120
f 70 71 122 121
f 71 72 123 122
f 72 73 124 123
f 73 74 125 124
f 74 75 126 125
f 75 76 127 126
f 76 77 128 127
f 77 78 129 128
f 78 79 130 129
f 79 80 131 130
f 80 81 132 131
f 81 82 133 132
f 82 83 134 133
f 83 84 135 134
f 84 85 136 135
f 85 86 137 136
f 86 87 138 137
f 87 88 139 138
f 88 89 140 139
f 89 90 141 140
f 90 91 142 141
f 91 41 92 142
o SD0192_T003_3hao
v 7.711 -61.314 0.000
v 11.156 -53.068 0.000
v 17.498 -46.734 0.000
v 25.787 -43.252 0.000
v 35.153 -43.230 0.000
v 44.069 -47.077 0.000
v 50.627 -54.195 0.000
v 53.686 -63.370 0.000
v 52.708 -72.976 0.000
v 47.702 -81.532 0.000
v 39.315 -87.313 0.000
v 34.372 -88.706 0.000
v 24.181 -88.142 0.000
v 19.418 -86.219 0.000
v 11.739 -79.542 0.000
v 9.183 -75.121 0.000
v 7.667 -70.246 0.000
v 7.711 -61.314 10.700
v 11.156 -53.068 10.700
v 17.498 -46.734 10.700
v 25.787 -43.252 10.700
v 35.153 -43.230 10.700
v 44.069 -47.077 10.700
v 50.627 -54.195 10.700
v 53.686 -63.370 10.700
v 52.708 -72.976 10.700
v 47.702 -81.532 10.700
v 39.315 -87.313 10.700
v 34.372 -88.706 10.700
v 24.181 -88.142 10.700
v 19.418 -86.219 10.700
v 11.739 -79.542 10.700
v 9.183 -75.121 10.700
v 7.667 -70.246 10.700
usemtl roof
f 160 161 162 163 164 165 166 167 168 169 170 171 172 173 174 175 176
usemtl teaching_building
f 159 158 157 156 155 154 153 152 151 150 149 148 147 146 145 144 143
f 143 144 161 160
f 144 145 162 161
f 145 146 163 162
f 146 147 164 163
f 147 148 165 164
f 148 149 166 165
f 149 150 167 166
f 150 151 168 167
f 151 152 169 168
f 152 153 170 169
f 153 154 171 170
f 154 155 172 171
f 155 156 173 172
f 156 157 174 173
f 157 158 175 174
f 158 159 176 175
f 159 143 160 176
o SD0192_T004_4hao
v -18.806 -63.547 0.000
v -65.597 -63.315 0.000
v -65.704 -85.268 0.000
v -11.584 -85.534 0.000
v -18.806 -63.547 12.360
v -65.597 -63.315 12.360
v -65.704 -85.268 12.360
v -11.584 -85.534 12.360
usemtl roof
f 181 182 183 184
usemtl teaching_building
f 180 179 178 177
f 177 178 182 181
f 178 179 183 182
f 179 180 184 183
f 180 177 181 184
