# school_id SD0158
# school_name 济南高新区金谷得艺小学
# boundary_source footprint_convex_hull_buffer_20m
# adjacent_block_merge_distance_m 2.0
mtllib ../campus_materials.mtl
o SD0158_campus_boundary
usemtl campus_boundary
v -29.974 -76.637 0.050
v -72.085 39.692 0.050
v -24.115 57.058 0.050
v 29.974 76.637 0.050
v 72.085 -39.692 0.050
v 17.996 -59.273 0.050
v -29.974 -76.637 0.050
l 1 2 3 4 5 6 7 1
o SD0158_T001_1hao
v 35.914 1.470 0.000
v 46.472 -27.694 0.000
v 11.188 -40.467 0.000
v 11.188 -40.467 0.000
v -17.976 -51.024 0.000
v -46.472 27.694 0.000
v -17.307 38.252 0.000
v -17.307 38.252 0.000
v 17.976 51.024 0.000
v 28.533 21.860 0.000
v -6.750 9.087 0.000
v 0.631 -11.303 0.000
v 35.914 1.470 22.910
v 46.472 -27.694 22.910
v 11.188 -40.467 22.910
v 11.188 -40.467 22.910
v -17.976 -51.024 22.910
v -46.472 27.694 22.910
v -17.307 38.252 22.910
v -17.307 38.252 22.910
v 17.976 51.024 22.910
v 28.533 21.860 22.910
v -6.750 9.087 22.910
v 0.631 -11.303 22.910
usemtl roof
f 20 21 22 23 24 25 26 27 28 29 30 31
usemtl teaching_building
f 19 18 17 16 15 14 13 12 11 10 9 8
f 8 9 21 20
f 9 10 22 21
f 10 11 23 22
f 11 12 24 23
f 12 13 25 24
f 13 14 26 25
f 14 15 27 26
f 15 16 28 27
f 16 17 29 28
f 17 18 30 29
f 18 19 31 30
f 19 8 20 31
