# school_id SD0150
# school_name 济南美里湖第一小学
# boundary_source footprint_convex_hull_buffer_20m
# adjacent_block_merge_distance_m 2.0
mtllib ../campus_materials.mtl
o SD0150_campus_boundary
usemtl campus_boundary
v 37.378 -61.450 0.050
v -75.013 -38.692 0.050
v -66.291 3.678 0.050
v -25.382 47.875 0.050
v 56.945 31.191 0.050
v 48.585 -9.474 0.050
v 37.378 -61.450 0.050
l 1 2 3 4 5 6 7 1
o SD0150_T001_1hao
v -22.096 17.950 0.000
v -24.631 5.602 0.000
v -18.750 4.408 0.000
v -18.098 7.548 0.000
v 25.480 -1.284 0.000
v 24.820 -4.512 0.000
v 29.014 -5.352 0.000
v 33.316 15.573 0.000
v -18.339 26.041 0.000
v -20.088 17.552 0.000
v -22.096 17.950 44.540
v -24.631 5.602 44.540
v -18.750 4.408 44.540
v -18.098 7.548 44.540
v 25.480 -1.284 44.540
v 24.820 -4.512 44.540
v 29.014 -5.352 44.540
v 33.316 15.573 44.540
v -18.339 26.041 44.540
v -20.088 17.552 44.540
usemtl roof
f 18 19 20 21 22 23 24 25 26 27
usemtl teaching_building
f 17 16 15 14 13 12 11 10 9 8
f 8 9 19 18
f 9 10 20 19
f 10 11 21 20
f 11 12 22 21
f 12 13 23 22
f 13 14 24 23
f 14 15 25 24
f 15 16 26 25
f 16 17 27 26
f 17 8 18 27
o SD0150_T002_2hao
v -47.826 -5.816 0.000
v -51.378 -23.072 0.000
v 21.990 -37.928 0.000
v 25.533 -20.673 0.000
v -47.826 -5.816 9.310
v -51.378 -23.072 9.310
v 21.990 -37.928 9.310
v 25.533 -20.673 9.310
usemtl roof
f 32 33 34 35
usemtl teaching_building
f 31 30 29 28
f 28 29 33 32
f 29 30 34 33
f 30 31 35 34
f 31 28 32 35
