# school_id SD0107
# school_name 济南市玖玺小学
# boundary_source footprint_convex_hull_buffer_20m
# adjacent_block_merge_distance_m 2.0
mtllib ../campus_materials.mtl
o SD0107_campus_boundary
usemtl campus_boundary
v -102.922 -60.261 0.050
v -105.805 5.779 0.050
v -107.781 51.062 0.050
v 62.184 58.483 0.050
v 102.922 60.261 0.050
v 105.805 -5.779 0.050
v 107.781 -51.062 0.050
v -62.184 -58.483 0.050
v -102.922 -60.261 0.050
l 1 2 3 4 5 6 7 8 9 1
o SD0107_T001_1hao
v -66.172 32.859 0.000
v -65.067 7.557 0.000
v 64.161 13.200 0.000
v 63.056 38.502 0.000
v 83.813 39.408 0.000
v 85.371 3.727 0.000
v 85.824 -6.651 0.000
v 85.824 -6.651 0.000
v 86.928 -31.953 0.000
v 66.172 -32.859 0.000
v 65.067 -7.557 0.000
v -64.161 -13.200 0.000
v -63.056 -38.502 0.000
v -83.813 -39.408 0.000
v -85.371 -3.727 0.000
v -85.824 6.651 0.000
v -85.824 6.651 0.000
v -86.928 31.953 0.000
v -66.172 32.859 13.730
v -65.067 7.557 13.730
v 64.161 13.200 13.730
v 63.056 38.502 13.730
v 83.813 39.408 13.730
v 85.371 3.727 13.730
v 85.824 -6.651 13.730
v 85.824 -6.651 13.730
v 86.928 -31.953 13.730
v 66.172 -32.859 13.730
v 65.067 -7.557 13.730
v -64.161 -13.200 13.730
v -63.056 -38.502 13.730
v -83.813 -39.408 13.730
v -85.371 -3.727 13.730
v -85.824 6.651 13.730
v -85.824 6.651 13.730
v -86.928 31.953 13.730
usemtl roof
f 28 29 30 31 32 33 34 35 36 37 38 39 40 41 42 43 44 45
usemtl teaching_building
f 27 26 25 24 23 22 21 20 19 18 17 16 15 14 13 12 11 10
f 10 11 29 28
f 11 12 30 29
f 12 13 31 30
f 13 14 32 31
f 14 15 33 32
f 15 16 34 33
f 16 17 35 34
f 17 18 36 35
f 18 19 37 36
f 19 20 38 37
f 20 21 39 38
f 21 22 40 39
f 22 23 41 40
f 23 24 42 41
f 24 25 43 42
f 25 26 44 43
f 26 27 45 44
f 27 10 28 45
