# school_id SD0199
# school_name 山东省青岛第三中学（有光伏）
# boundary_source footprint_convex_hull_buffer_20m
# adjacent_block_merge_distance_m 2.0
mtllib ../campus_materials.mtl
o SD0199_campus_boundary
usemtl campus_boundary
v -40.211 -52.275 0.050
v -62.117 22.158 0.050
v 40.211 52.275 0.050
v 62.117 -22.158 0.050
v -5.998 -42.206 0.050
v -40.211 -52.275 0.050
l 1 2 3 4 5 6 1
o SD0199_T001_1hao
v 32.862 6.406 0.000
v 37.284 -8.619 0.000
v -11.645 -23.020 0.000
v -11.645 -23.020 0.000
v -26.671 -27.442 0.000
v -37.284 8.619 0.000
v 26.671 27.442 0.000
v 31.093 12.416 0.000
v -17.837 -1.984 0.000
v -16.068 -7.994 0.000
v 32.862 6.406 18.610
v 37.284 -8.619 18.610
v -11.645 -23.020 18.610
v -11.645 -23.020 18.610
v -26.671 -27.442 18.610
v -37.284 8.619 18.610
v 26.671 27.442 18.610
v 31.093 12.416 18.610
v -17.837 -1.984 18.610
v -16.068 -7.994 18.610
usemtl roof
f 17 18 19 20 21 22 23 24 25 26
usemtl teaching_building
f 16 15 14 13 12 11 10 9 8 7
f 7 8 18 17
f 8 9 19 18
f 9 10 20 19
f 10 11 21 20
f 11 12 22 21
f 12 13 23 22
f 13 14 24 23
f 14 15 25 24
f 15 16 26 25
f 16 7 17 26
