# school_id SD0189
# school_name 台东六路小学(集团)海逸学校
# boundary_source footprint_convex_hull_buffer_20m
# adjacent_block_merge_distance_m 2.0
mtllib ../campus_materials.mtl
o SD0189_campus_boundary
usemtl campus_boundary
v 43.447 -69.413 0.050
v -54.498 -37.088 0.050
v -40.796 3.297 0.050
v -19.841 63.509 0.050
v 76.856 29.753 0.050
v 43.447 -69.413 0.050
l 1 2 3 4 5 6 1
o SD0189_T001_1hao
v -21.882 -3.203 0.000
v -14.036 -5.955 0.000
v -13.110 -3.468 0.000
v -15.044 -2.252 0.000
v -17.500 1.561 0.000
v -18.067 5.806 0.000
v -17.410 8.415 0.000
v -14.396 11.886 0.000
v -10.294 13.444 0.000
v -7.901 12.715 0.000
v -7.271 14.638 0.000
v -3.465 13.400 0.000
v -4.230 11.145 0.000
v -1.756 9.421 0.000
v -0.019 5.519 0.000
v -0.874 -0.196 0.000
v -5.049 -3.745 0.000
v -7.973 -4.927 0.000
v -8.980 -7.757 0.000
v -4.995 -9.183 0.000
v -6.749 -14.168 0.000
v 24.138 -24.836 0.000
v 26.045 -19.043 0.000
v 31.614 -20.945 0.000
v 32.892 -17.330 0.000
v 24.398 -14.367 0.000
v 28.537 -2.020 0.000
v 36.553 -4.596 0.000
v 37.831 -0.583 0.000
v -14.531 17.866 0.000
v -7.532 38.029 0.000
v 51.587 17.391 0.000
v 30.840 -44.191 0.000
v -29.079 -24.416 0.000
v -21.882 -3.203 19.270
v -14.036 -5.955 19.270
v -13.110 -3.468 19.270
v -15.044 -2.252 19.270
v -17.500 1.561 19.270
v -18.067 5.806 19.270
v -17.410 8.415 19.270
v -14.396 11.886 19.270
v -10.294 13.444 19.270
v -7.901 12.715 19.270
v -7.271 14.638 19.270
v -3.465 13.400 19.270
v -4.230 11.145 19.270
v -1.756 9.421 19.270
v -0.019 5.519 19.270
v -0.874 -0.196 19.270
v -5.049 -3.745 19.270
v -7.973 -4.927 19.270
v -8.980 -7.757 19.270
v -4.995 -9.183 19.270
v -6.749 -14.168 19.270
v 24.138 -24.836 19.270
v 26.045 -19.043 19.270
v 31.614 -20.945 19.270
v 32.892 -17.330 19.270
v 24.398 -14.367 19.270
v 28.537 -2.020 19.270
v 36.553 -4.596 19.270
v 37.831 -0.583 19.270
v -14.531 17.866 19.270
v -7.532 38.029 19.270
v 51.587 17.391 19.270
v 30.840 -44.191 19.270
v -29.079 -24.416 19.270
usemtl roof
f 41 42 43 44 45 46 47 48 49 50 51 52 53 54 55 56 57 58 59 60 61 62 63 64 65 66 67 68 69 70 71 72 73 74
usemtl teaching_building
f 40 39 38 37 36 35 34 33 32 31 30 29 28 27 26 25 24 23 22 21 20 19 18 17 16 15 14 13 12 11 10 9 8 7
f 7 8 42 41
f 8 9 43 42
f 9 10 44 43
f 10 11 45 44
f 11 12 46 45
f 12 13 47 46
f 13 14 48 47
f 14 15 49 48
f 15 16 50 49
f 16 17 51 50
f 17 18 52 51
f 18 19 53 52
f 19 20 54 53
f 20 21 55 54
f 21 22 56 55
f 22 23 57 56
f 23 24 58 57
f 24 25 59 58
f 25 26 60 59
f 26 27 61 60
f 27 28 62 61
f 28 29 63 62
f 29 30 64 63
f 30 31 65 64
f 31 32 66 65
f 32 33 67 66
f 33 34 68 67
f 34 35 69 68
f 35 36 70 69
f 36 37 71 70
f 37 38 72 71
f 38 39 73 72
f 39 40 74 73
f 40 7 41 74
