# school_id SD0160
# school_name 济钢鲍山学校（老校区）
# boundary_source footprint_convex_hull_buffer_20m
# adjacent_block_merge_distance_m 2.0
mtllib ../campus_materials.mtl
o SD0160_campus_boundary
usemtl campus_boundary
v 16.797 -56.407 0.050
v -61.841 -55.959 0.050
v -63.950 43.481 0.050
v 117.642 46.698 0.050
v 117.642 2.656 0.050
v 16.797 -56.407 0.050
l 1 2 3 4 5 6 1
o SD0160_T001_1hao
v 97.642 14.120 0.000
v 97.642 26.341 0.000
v 27.857 25.100 0.000
v 27.857 13.166 0.000
v 97.642 14.120 9.900
v 97.642 26.341 9.900
v 27.857 25.100 9.900
v 27.857 13.166 9.900
usemtl roof
f 11 12 13 14
usemtl teaching_building
f 10 9 8 7
f 7 8 12 11
f 8 9 13 12
f 9 10 14 13
f 10 7 11 14
o SD0160_T002_2hao
v -43.208 12.860 0.000
v -0.574 10.655 0.000
v -0.259 -25.721 0.000
v -41.944 -26.341 0.000
v -42.258 -36.070 0.000
v 11.424 -36.376 0.000
v 12.695 23.210 0.000
v -43.529 23.840 0.000
v -43.208 12.860 9.900
v -0.574 10.655 9.900
v -0.259 -25.721 9.900
v -41.944 -26.341 9.900
v -42.258 -36.070 9.900
v 11.424 -36.376 9.900
v 12.695 23.210 9.900
v -43.529 23.840 9.900
usemtl roof
f 23 24 25 26 27 28 29 30
usemtl teaching_building
f 22 21 20 19 18 17 16 15
f 15 16 24 23
f 16 17 25 24
f 17 18 26 25
f 18 19 27 26
f 19 20 28 27
f 20 21 29 28
f 21 22 30 29
f 22 15 23 30
o SD0160_T003_3hao
v -12.571 -19.763 0.000
v -12.571 7.208 0.000
v -39.101 7.208 0.000
v -39.101 -19.439 0.000
v -12.571 -19.763 9.900
v -12.571 7.208 9.900
v -39.101 7.208 9.900
v -39.101 -19.439 9.900
usemtl roof
f 35 36 37 38
usemtl teaching_building
f 34 33 32 31
f 31 32 36 35
f 32 33 37 36
f 33 34 38 37
f 34 31 35 38
