# school_id SD0198
# school_name 山东省青岛三十三中学
# boundary_source footprint_convex_hull_buffer_20m
# adjacent_block_merge_distance_m 2.0
mtllib ../campus_materials.mtl
o SD0198_campus_boundary
usemtl campus_boundary
v -35.811 -45.728 0.050
v -44.453 -4.368 0.050
v -51.123 27.567 0.050
v -19.191 34.239 0.050
v 35.811 45.729 0.050
v 44.453 4.368 0.050
v 51.123 -27.567 0.050
v -3.877 -39.058 0.050
v -35.811 -45.728 0.050
l 1 2 3 4 5 6 7 8 9 1
o SD0198_T001_1hao
v -22.906 -9.705 0.000
v -24.875 -0.277 0.000
v -24.876 -0.277 0.000
v -27.457 12.080 0.000
v -15.100 14.662 0.000
v -15.100 14.662 0.000
v 20.324 22.062 0.000
v 22.906 9.705 0.000
v -12.518 2.305 0.000
v -10.549 -7.123 0.000
v 24.876 0.277 0.000
v 27.457 -12.080 0.000
v -7.967 -19.481 0.000
v -7.967 -19.481 0.000
v -20.324 -22.062 0.000
v -22.906 -9.705 0.000
v -22.906 -9.705 16.040
v -24.875 -0.277 16.040
v -24.876 -0.277 16.040
v -27.457 12.080 16.040
v -15.100 14.662 16.040
v -15.100 14.662 16.040
v 20.324 22.062 16.040
v 22.906 9.705 16.040
v -12.518 2.305 16.040
v -10.549 -7.123 16.040
v 24.876 0.277 16.040
v 27.457 -12.080 16.040
v -7.967 -19.481 16.040
v -7.967 -19.481 16.040
v -20.324 -22.062 16.040
v -22.906 -9.705 16.040
usemtl roof
f 26 27 28 29 30 31 32 33 34 35 36 37 38 39 40 41
usemtl teaching_building
f 25 24 23 22 21 20 19 18 17 16 15 14 13 12 11 10
f 10 11 27 26
f 11 12 28 27
f 12 13 29 28
f 13 14 30 29
f 14 15 31 30
f 15 16 32 31
f 16 17 33 32
f 17 18 34 33
f 18 19 35 34
f 19 20 36 35
f 20 21 37 36
f 21 22 38 37
f 22 23 39 38
f 23 24 40 39
f 24 25 41 40
f 25 10 26 41
