# school_id SD0128
# school_name 济南市莱芜第四中学
# boundary_source footprint_convex_hull_buffer_20m
# adjacent_block_merge_distance_m 2.0
mtllib ../campus_materials.mtl
o SD0128_campus_boundary
usemtl campus_boundary
v -109.441 -167.300 0.050
v -137.020 -166.965 0.050
v -164.761 -159.351 0.050
v -170.861 -61.230 0.050
v -172.166 45.914 0.050
v -172.306 82.241 0.050
v -25.327 149.039 0.050
v 129.245 149.918 0.050
v 208.272 147.813 0.050
v 207.787 44.040 0.050
v 207.342 27.143 0.050
v 134.404 -94.616 0.050
v 68.651 -145.026 0.050
v -109.441 -167.300 0.050
l 1 2 3 4 5 6 7 8 9 10 11 12 13 14 1
o SD0128_T001_1hao
v 187.871 116.907 0.000
v 188.181 128.341 0.000
v 129.036 129.916 0.000
v 128.727 118.473 0.000
v 187.871 116.907 9.900
v 188.181 128.341 9.900
v 129.036 129.916 9.900
v 128.727 118.473 9.900
usemtl roof
f 19 20 21 22
usemtl teaching_building
f 18 17 16 15
f 15 16 20 19
f 16 17 21 20
f 17 18 22 21
f 18 15 19 22
o SD0128_T002_2hao
v 27.191 79.874 0.000
v -18.587 81.347 0.000
v -21.574 85.452 0.000
v -22.268 88.871 0.000
v -20.941 129.064 0.000
v 28.247 127.961 0.000
v 27.191 79.874 9.900
v -18.587 81.347 9.900
v -21.574 85.452 9.900
v -22.268 88.871 9.900
v -20.941 129.064 9.900
v 28.247 127.961 9.900
usemtl roof
f 29 30 31 32 33 34
usemtl teaching_building
f 28 27 26 25 24 23
f 23 24 30 29
f 24 25 31 30
f 25 26 32 31
f 26 27 33 32
f 27 28 34 33
f 28 23 29 34
o SD0128_T002_2hao_seg02
v 55.688 127.729 0.000
v 55.598 116.463 0.000
v 28.149 116.694 0.000
v 28.247 127.961 0.000
v 55.688 127.729 9.900
v 55.598 116.463 9.900
v 28.149 116.694 9.900
v 28.247 127.961 9.900
usemtl roof
f 39 40 41 42
usemtl teaching_building
f 38 37 36 35
f 35 36 40 39
f 36 37 41 40
f 37 38 42 41
f 38 35 39 42
o SD0128_T003_3hao
v 123.824 93.994 0.000
v 124.141 105.418 0.000
v 64.996 107.012 0.000
v 64.687 95.569 0.000
v 123.824 93.994 9.900
v 124.141 105.418 9.900
v 64.996 107.012 9.900
v 64.687 95.569 9.900
usemtl roof
f 47 48 49 50
usemtl teaching_building
f 46 45 44 43
f 43 44 48 47
f 44 45 49 48
f 45 46 50 49
f 46 43 47 50
o SD0128_T004_4hao
v 186.325 75.297 0.000
v 186.642 86.721 0.000
v 127.490 88.315 0.000
v 127.181 76.872 0.000
v 186.325 75.297 9.900
v 186.642 86.721 9.900
v 127.490 88.315 9.900
v 127.181 76.872 9.900
usemtl roof
f 55 56 57 58
usemtl teaching_building
f 54 53 52 51
f 51 52 56 55
f 52 53 57 56
f 53 54 58 57
f 54 51 55 58
o SD0128_T005_5hao
v 123.764 56.507 0.000
v 124.065 67.940 0.000
v 64.928 69.515 0.000
v 64.619 58.082 0.000
v 123.764 56.507 9.900
v 124.065 67.940 9.900
v 64.928 69.515 9.900
v 64.619 58.082 9.900
usemtl roof
f 63 64 65 66
usemtl teaching_building
f 62 61 60 59
f 59 60 64 63
f 60 61 65 64
f 61 62 66 65
f 62 59 63 66
o SD0128_T006_6hao
v -152.166 46.074 0.000
v -140.821 46.120 0.000
v -140.919 69.432 0.000
v -152.256 69.385 0.000
v -152.166 46.074 9.900
v -140.821 46.120 9.900
v -140.919 69.432 9.900
v -152.256 69.385 9.900
usemtl roof
f 71 72 73 74
usemtl teaching_building
f 70 69 68 67
f 67 68 72 71
f 68 69 73 72
f 69 70 74 73
f 70 67 71 74
o SD0128_T007_7hao
v 187.487 32.917 0.000
v 187.788 44.350 0.000
v 128.652 45.926 0.000
v 128.342 34.501 0.000
v 187.487 32.917 9.900
v 187.788 44.350 9.900
v 128.652 45.926 9.900
v 128.342 34.501 9.900
usemtl roof
f 79 80 81 82
usemtl teaching_building
f 78 77 76 75
f 75 76 80 79
f 76 77 81 80
f 77 78 82 81
f 78 75 79 82
o SD0128_T008_8hao
v -10.441 -6.127 0.000
v -10.403 -3.848 0.000
v 59.362 -4.904 0.000
v 59.603 10.569 0.000
v 47.225 10.754 0.000
v 47.097 3.064 0.000
v 31.219 3.305 0.000
v 31.332 10.801 0.000
v 13.146 11.069 0.000
v 13.055 5.241 0.000
v -3.584 5.492 0.000
v -3.479 12.450 0.000
v -18.550 12.672 0.000
v -18.836 -6.007 0.000
v -10.441 -6.127 9.900
v -10.403 -3.848 9.900
v 59.362 -4.904 9.900
v 59.603 10.569 9.900
v 47.225 10.754 9.900
v 47.097 3.064 9.900
v 31.219 3.305 9.900
v 31.332 10.801 9.900
v 13.146 11.069 9.900
v 13.055 5.241 9.900
v -3.584 5.492 9.900
v -3.479 12.450 9.900
v -18.550 12.672 9.900
v -18.836 -6.007 9.900
usemtl roof
f 97 98 99 100 101 102 103 104 105 106 107 108 109 110
usemtl teaching_building
f 96 95 94 93 92 91 90 89 88 87 86 85 84 83
f 83 84 98 97
f 84 85 99 98
f 85 86 100 99
f 86 87 101 100
f 87 88 102 101
f 88 89 103 102
f 89 90 104 103
f 90 91 105 104
f 91 92 106 105
f 92 93 107 106
f 93 94 108 107
f 94 95 109 108
f 95 96 110 109
f 96 83 97 110
o SD0128_T009_9hao
v 120.354 -41.762 0.000
v 120.814 -23.602 0.000
v 63.337 -22.156 0.000
v 62.877 -40.326 0.000
v 120.354 -41.762 9.900
v 120.814 -23.602 9.900
v 63.337 -22.156 9.900
v 62.877 -40.326 9.900
usemtl roof
f 115 116 117 118
usemtl teaching_building
f 114 113 112 111
f 111 112 116 115
f 112 113 117 116
f 113 114 118 117
f 114 111 115 118
o SD0128_T010_10hao
v -132.916 -60.533 0.000
v -132.901 -55.771 0.000
v -104.381 -55.845 0.000
v -104.389 -58.819 0.000
v -77.400 -59.088 0.000
v -78.976 -54.780 0.000
v -52.734 -55.197 0.000
v -52.780 -58.421 0.000
v -45.576 -58.532 0.000
v -45.455 -51.138 0.000
v -40.869 -48.627 0.000
v -40.620 -36.082 0.000
v -64.705 -35.619 0.000
v -64.924 -46.672 0.000
v -85.373 -46.098 0.000
v -85.033 -41.058 0.000
v -98.037 -40.196 0.000
v -99.652 -44.523 0.000
v -132.026 -45.440 0.000
v -132.946 -48.405 0.000
v -135.285 -48.396 0.000
v -135.270 -40.613 0.000
v -118.901 -40.650 0.000
v -118.879 -33.265 0.000
v -150.801 -33.173 0.000
v -150.869 -60.487 0.000
v -132.916 -60.533 9.900
v -132.901 -55.771 9.900
v -104.381 -55.845 9.900
v -104.389 -58.819 9.900
v -77.400 -59.088 9.900
v -78.976 -54.780 9.900
v -52.734 -55.197 9.900
v -52.780 -58.421 9.900
v -45.576 -58.532 9.900
v -45.455 -51.138 9.900
v -40.869 -48.627 9.900
v -40.620 -36.082 9.900
v -64.705 -35.619 9.900
v -64.924 -46.672 9.900
v -85.373 -46.098 9.900
v -85.033 -41.058 9.900
v -98.037 -40.196 9.900
v -99.652 -44.523 9.900
v -132.026 -45.440 9.900
v -132.946 -48.405 9.900
v -135.285 -48.396 9.900
v -135.270 -40.613 9.900
v -118.901 -40.650 9.900
v -118.879 -33.265 9.900
v -150.801 -33.173 9.900
v -150.869 -60.487 9.900
usemtl roof
f 145 146 147 148 149 150 151 152 153 154 155 156 157 158 159 160 161 162 163 164 165 166 167 168 169 170
usemtl teaching_building
f 144 143 142 141 140 139 138 137 136 135 134 133 132 131 130 129 128 127 126 125 124 123 122 121 120 119
f 119 120 146 145
f 120 121 147 146
f 121 122 148 147
f 122 123 149 148
f 123 124 150 149
f 124 125 151 150
f 125 126 152 151
f 126 127 153 152
f 127 128 154 153
f 128 129 155 154
f 129 130 156 155
f 130 131 157 156
f 131 132 158 157
f 132 133 159 158
f 133 134 160 159
f 134 135 161 160
f 135 136 162 161
f 136 137 163 162
f 137 138 164 163
f 138 139 165 164
f 139 140 166 165
f 140 141 167 166
f 141 142 168 167
f 142 143 169 168
f 143 144 170 169
f 144 119 145 170
o SD0128_T011_11hao
v 60.795 -59.283 0.000
v 60.984 -44.189 0.000
v 51.713 -44.087 0.000
v 51.653 -49.489 0.000
v 31.294 -49.239 0.000
v 31.385 -42.318 0.000
v 14.821 -42.114 0.000
v 14.738 -48.238 0.000
v -10.539 -47.932 0.000
v -10.486 -43.541 0.000
v -18.753 -43.439 0.000
v -18.934 -58.319 0.000
v 60.795 -59.283 9.900
v 60.984 -44.189 9.900
v 51.713 -44.087 9.900
v 51.653 -49.489 9.900
v 31.294 -49.239 9.900
v 31.385 -42.318 9.900
v 14.821 -42.114 9.900
v 14.738 -48.238 9.900
v -10.539 -47.932 9.900
v -10.486 -43.541 9.900
v -18.753 -43.439 9.900
v -18.934 -58.319 9.900
usemtl roof
f 183 184 185 186 187 188 189 190 191 192 193 194
usemtl teaching_building
f 182 181 180 179 178 177 176 175 174 173 172 171
f 171 172 184 183
f 172 173 185 184
f 173 174 186 185
f 174 175 187 186
f 175 176 188 187
f 176 177 189 188
f 177 178 190 189
f 178 179 191 190
f 179 180 192 191
f 180 181 193 192
f 181 182 194 193
f 182 171 183 194
o SD0128_T012_12hao
v 119.208 -81.065 0.000
v 119.668 -62.905 0.000
v 62.190 -61.460 0.000
v 61.730 -79.629 0.000
v 119.208 -81.065 9.900
v 119.668 -62.905 9.900
v 62.190 -61.460 9.900
v 61.730 -79.629 9.900
usemtl roof
f 199 200 201 202
usemtl teaching_building
f 198 197 196 195
f 195 196 200 199
f 196 197 201 200
f 197 198 202 201
f 198 195 199 202
o SD0128_T013_13hao
v -145.686 -143.847 0.000
v -134.206 -143.820 0.000
v -134.206 -146.998 0.000
v -110.566 -147.285 0.000
v -110.076 -127.151 0.000
v -118.811 -127.327 0.000
v -118.886 -73.218 0.000
v -130.404 -73.236 0.000
v -130.404 -70.058 0.000
v -145.785 -70.086 0.000
v -145.686 -143.847 9.900
v -134.206 -143.820 9.900
v -134.206 -146.998 9.900
v -110.566 -147.285 9.900
v -110.076 -127.151 9.900
v -118.811 -127.327 9.900
v -118.886 -73.218 9.900
v -130.404 -73.236 9.900
v -130.404 -70.058 9.900
v -145.785 -70.086 9.900
usemtl roof
f 213 214 215 216 217 218 219 220 221 222
usemtl teaching_building
f 212 211 210 209 208 207 206 205 204 203
f 203 204 214 213
f 204 205 215 214
f 205 206 216 215
f 206 207 217 216
f 207 208 218 217
f 208 209 219 218
f 209 210 220 219
f 210 211 221 220
f 211 212 222 221
f 212 203 213 222
o SD0128_T014_14hao
v 60.787 -125.854 0.000
v 60.825 -117.997 0.000
v 20.523 -117.803 0.000
v 20.493 -125.660 0.000
v 60.787 -125.854 9.900
v 60.825 -117.997 9.900
v 20.523 -117.803 9.900
v 20.493 -125.660 9.900
usemtl roof
f 227 228 229 230
usemtl teaching_building
f 226 225 224 223
f 223 224 228 227
f 224 225 229 228
f 225 226 230 229
f 226 223 227 230
