# school_id SD0146
# school_name 济南港沟中学
# boundary_source footprint_convex_hull_buffer_20m
# adjacent_block_merge_distance_m 2.0
mtllib ../campus_materials.mtl
o SD0146_campus_boundary
usemtl campus_boundary
v 56.154 -72.413 0.050
v -73.367 -54.902 0.050
v -69.225 -24.261 0.050
v -56.154 72.413 0.050
v -25.512 68.271 0.050
v 73.367 54.902 0.050
v 69.225 24.261 0.050
v 56.154 -72.413 0.050
l 1 2 3 4 5 6 7 8 1
o SD0146_T001_1hao
v -49.405 -26.940 0.000
v -39.014 49.914 0.000
v -28.191 48.451 0.000
v -28.191 48.451 0.000
v 50.868 37.762 0.000
v 49.405 26.940 0.000
v -29.654 37.629 0.000
v -38.583 -28.403 0.000
v 40.477 -39.092 0.000
v 39.014 -49.914 0.000
v -50.868 -37.762 0.000
v -49.405 -26.940 0.000
v -49.405 -26.940 13.470
v -39.014 49.914 13.470
v -28.191 48.451 13.470
v -28.191 48.451 13.470
v 50.868 37.762 13.470
v 49.405 26.940 13.470
v -29.654 37.629 13.470
v -38.583 -28.403 13.470
v 40.477 -39.092 13.470
v 39.014 -49.914 13.470
v -50.868 -37.762 13.470
v -49.405 -26.940 13.470
usemtl roof
f 21 22 23 24 25 26 27 28 29 30 31 32
usemtl teaching_building
f 20 19 18 17 16 15 14 13 12 11 10 9
f 9 10 22 21
f 10 11 23 22
f 11 12 24 23
f 12 13 25 24
f 13 14 26 25
f 14 15 27 26
f 15 16 28 27
f 16 17 29 28
f 17 18 30 29
f 18 19 31 30
f 19 20 32 31
f 20 9 21 32
