# school_id SD0186
# school_name 北京路小学
# boundary_source footprint_convex_hull_buffer_20m
# adjacent_block_merge_distance_m 2.0
mtllib ../campus_materials.mtl
o SD0186_campus_boundary
usemtl campus_boundary
v -36.772 -30.876 0.050
v -43.146 21.263 0.050
v 36.772 30.876 0.050
v 43.146 -21.263 0.050
v -36.772 -30.876 0.050
l 1 2 3 4 5 1
o SD0186_T001_1hao
v -19.342 -8.635 0.000
v 20.862 -3.799 0.000
v 19.342 8.635 0.000
v -20.862 3.799 0.000
v -19.342 -8.635 9.900
v 20.862 -3.799 9.900
v 19.342 8.635 9.900
v -20.862 3.799 9.900
usemtl roof
f 10 11 12 13
usemtl teaching_building
f 9 8 7 6
f 6 7 11 10
f 7 8 12 11
f 8 9 13 12
f 9 6 10 13
