# school_id SD0180
# school_name 高新区第一实验学校贤文校区
# boundary_source footprint_convex_hull_buffer_20m
# adjacent_block_merge_distance_m 2.0
mtllib ../campus_materials.mtl
o SD0180_campus_boundary
usemtl campus_boundary
v 61.186 -83.028 0.050
v -4.520 -82.573 0.050
v -62.914 -66.370 0.050
v -61.782 89.226 0.050
v 52.529 88.411 0.050
v 61.591 -25.143 0.050
v 61.186 -83.028 0.050
l 1 2 3 4 5 6 7 1
o SD0180_T001_1hao
v -42.803 -51.195 0.000
v -1.649 -51.482 0.000
v -1.729 -62.592 0.000
v 41.326 -62.890 0.000
v 41.585 -25.870 0.000
v -29.127 -25.384 0.000
v -28.975 -2.944 0.000
v 30.560 -3.364 0.000
v 30.721 19.009 0.000
v -33.117 19.451 0.000
v -32.867 55.056 0.000
v 33.953 54.581 0.000
v 34.051 68.542 0.000
v -41.928 69.084 0.000
v -42.803 -51.195 11.540
v -1.649 -51.482 11.540
v -1.729 -62.592 11.540
v 41.326 -62.890 11.540
v 41.585 -25.870 11.540
v -29.127 -25.384 11.540
v -28.975 -2.944 11.540
v 30.560 -3.364 11.540
v 30.721 19.009 11.540
v -33.117 19.451 11.540
v -32.867 55.056 11.540
v 33.953 54.581 11.540
v 34.051 68.542 11.540
v -41.928 69.084 11.540
usemtl roof
f 22 23 24 25 26 27 28 29 30 31 32 33 34 35
usemtl teaching_building
f 21 20 19 18 17 16 15 14 13 12 11 10 9 8
f 8 9 23 22
f 9 10 24 23
f 10 11 25 24
f 11 12 26 25
f 12 13 27 26
f 13 14 28 27
f 14 15 29 28
f 15 16 30 29
f 16 17 31 30
f 17 18 32 31
f 18 19 33 32
f 19 20 34 33
f 20 21 35 34
f 21 8 22 35
