# school_id SD0191
# school_name 嘉陵江东路小学
# boundary_source footprint_convex_hull_buffer_20m
# adjacent_block_merge_distance_m 2.0
mtllib ../campus_materials.mtl
o SD0191_campus_boundary
usemtl campus_boundary
v -40.774 -92.689 0.050
v -92.541 34.218 0.050
v 39.704 97.228 0.050
v 93.594 -38.680 0.050
v -40.774 -92.689 0.050
l 1 2 3 4 5 1
o SD0191_T001_1hao
v -29.771 -66.711 0.000
v 67.665 -27.547 0.000
v 28.997 69.972 0.000
v -66.890 24.286 0.000
v -29.771 -66.711 13.060
v 67.665 -27.547 13.060
v 28.997 69.972 13.060
v -66.890 24.286 13.060
usemtl roof
f 10 11 12 13
usemtl teaching_building
f 9 8 7 6
f 6 7 11 10
f 7 8 12 11
f 8 9 13 12
f 9 6 10 13
