# school_id SD0102
# school_name 济南市洪家楼小学
# boundary_source footprint_convex_hull_buffer_20m
# adjacent_block_merge_distance_m 2.0
mtllib ../campus_materials.mtl
o SD0102_campus_boundary
usemtl campus_boundary
v -86.248 -58.699 0.050
v -88.661 -3.349 0.050
v -0.562 63.414 0.050
v 44.549 66.846 0.050
v 47.811 24.537 0.050
v 50.777 -53.846 0.050
v 8.235 -56.011 0.050
v -86.248 -58.699 0.050
l 1 2 3 4 5 6 7 8 1
o SD0102_T001_1hao
v 2.344 30.498 0.000
v 7.826 30.918 0.000
v 6.826 43.918 0.000
v 26.144 45.388 0.000
v 27.840 23.390 0.000
v 3.041 21.500 0.000
v 2.344 30.498 14.140
v 7.826 30.918 14.140
v 6.826 43.918 14.140
v 26.144 45.388 14.140
v 27.840 23.390 14.140
v 3.041 21.500 14.140
usemtl roof
f 15 16 17 18 19 20
usemtl teaching_building
f 14 13 12 11 10 9
f 9 10 16 15
f 10 11 17 16
f 11 12 18 17
f 12 13 19 18
f 13 14 20 19
f 14 9 15 20
o SD0102_T002_2hao
v 7.442 -36.025 0.000
v 30.045 -34.875 0.000
v 28.697 -8.788 0.000
v 6.094 -9.938 0.000
v 7.442 -36.025 17.730
v 30.045 -34.875 17.730
v 28.697 -8.788 17.730
v 6.094 -9.938 17.730
usemtl roof
f 25 26 27 28
usemtl teaching_building
f 24 23 22 21
f 21 22 26 25
f 22 23 27 26
f 23 24 28 27
f 24 21 25 28
o SD0102_T003_3hao
v -67.125 -38.147 0.000
v 3.175 -35.119 0.000
v 1.836 -4.477 0.000
v -8.100 -4.908 0.000
v -7.859 -10.380 0.000
v -68.223 -12.955 0.000
v -67.125 -38.147 22.250
v 3.175 -35.119 22.250
v 1.836 -4.477 22.250
v -8.100 -4.908 22.250
v -7.859 -10.380 22.250
v -68.223 -12.955 22.250
usemtl roof
f 35 36 37 38 39 40
usemtl teaching_building
f 34 33 32 31 30 29
f 29 30 36 35
f 30 31 37 36
f 31 32 38 37
f 32 33 39 38
f 33 34 40 39
f 34 29 35 40
