# school_id SD0141
# school_name 济南德润高级中学
# boundary_source footprint_convex_hull_buffer_20m
# adjacent_block_merge_distance_m 2.0
mtllib ../campus_materials.mtl
o SD0141_campus_boundary
usemtl campus_boundary
v -156.492 -127.970 0.050
v -200.582 -11.631 0.050
v 55.683 107.348 0.050
v 141.641 142.478 0.050
v 195.905 11.580 0.050
v 111.467 -22.937 0.050
v -75.091 -97.554 0.050
v -156.492 -127.970 0.050
l 1 2 3 4 5 6 7 8 1
o SD0141_T001_1hao
v 73.910 64.317 0.000
v 117.467 82.125 0.000
v 127.400 58.160 0.000
v 83.906 40.396 0.000
v 89.382 27.175 0.000
v 136.333 46.354 0.000
v 145.855 23.373 0.000
v 100.191 4.714 0.000
v 103.969 -4.395 0.000
v 169.733 22.488 0.000
v 130.786 116.436 0.000
v 63.682 89.011 0.000
v 73.910 64.317 18.700
v 117.467 82.125 18.700
v 127.400 58.160 18.700
v 83.906 40.396 18.700
v 89.382 27.175 18.700
v 136.333 46.354 18.700
v 145.855 23.373 18.700
v 100.191 4.714 18.700
v 103.969 -4.395 18.700
v 169.733 22.488 18.700
v 130.786 116.436 18.700
v 63.682 89.011 18.700
usemtl roof
f 21 22 23 24 25 26 27 28 29 30 31 32
usemtl teaching_building
f 20 19 18 17 16 15 14 13 12 11 10 9
f 9 10 22 21
f 10 11 23 22
f 11 12 24 23
f 12 13 25 24
f 13 14 26 25
f 14 15 27 26
f 15 16 28 27
f 16 17 29 28
f 17 18 30 29
f 18 19 31 30
f 19 20 32 31
f 20 9 21 32
o SD0141_T002_2hao
v -144.845 -102.267 0.000
v -82.306 -78.899 0.000
v -85.915 -69.370 0.000
v -103.986 -76.124 0.000
v -113.187 -51.872 0.000
v -92.508 -44.134 0.000
v -96.751 -32.958 0.000
v -118.181 -40.962 0.000
v -121.772 -31.510 0.000
v -99.029 -23.010 0.000
v -108.846 2.890 0.000
v -175.288 -21.938 0.000
v -144.845 -102.267 22.140
v -82.306 -78.899 22.140
v -85.915 -69.370 22.140
v -103.986 -76.124 22.140
v -113.187 -51.872 22.140
v -92.508 -44.134 22.140
v -96.751 -32.958 22.140
v -118.181 -40.962 22.140
v -121.772 -31.510 22.140
v -99.029 -23.010 22.140
v -108.846 2.890 22.140
v -175.288 -21.938 22.140
usemtl roof
f 45 46 47 48 49 50 51 52 53 54 55 56
usemtl teaching_building
f 44 43 42 41 40 39 38 37 36 35 34 33
f 33 34 46 45
f 34 35 47 46
f 35 36 48 47
f 36 37 49 48
f 37 38 50 49
f 38 39 51 50
f 39 40 52 51
f 40 41 53 52
f 41 42 54 53
f 42 43 55 54
f 43 44 56 55
f 44 33 45 56
