# school_id SD0148
# school_name 济南甸柳第一中学
# boundary_source footprint_convex_hull_buffer_20m
# adjacent_block_merge_distance_m 2.0
mtllib ../campus_materials.mtl
o SD0148_campus_boundary
usemtl campus_boundary
v 75.816 -38.489 0.050
v -53.493 -37.982 0.050
v -54.774 -1.155 0.050
v -54.594 43.982 0.050
v 73.625 43.474 0.050
v 75.927 -8.488 0.050
v 75.816 -38.489 0.050
l 1 2 3 4 5 6 7 1
o SD0148_T001_1hao
v 54.434 10.705 0.000
v -17.056 10.992 0.000
v -17.137 -8.606 0.000
v 55.925 -8.894 0.000
v 55.890 -18.411 0.000
v -34.174 -18.058 0.000
v -34.130 -6.705 0.000
v -24.405 -6.738 0.000
v -24.387 -0.891 0.000
v -34.773 -0.847 0.000
v -34.674 23.903 0.000
v 54.488 23.550 0.000
v 54.434 10.705 17.540
v -17.056 10.992 17.540
v -17.137 -8.606 17.540
v 55.925 -8.894 17.540
v 55.890 -18.411 17.540
v -34.174 -18.058 17.540
v -34.130 -6.705 17.540
v -24.405 -6.738 17.540
v -24.387 -0.891 17.540
v -34.773 -0.847 17.540
v -34.674 23.903 17.540
v 54.488 23.550 17.540
usemtl roof
f 20 21 22 23 24 25 26 27 28 29 30 31
usemtl teaching_building
f 19 18 17 16 15 14 13 12 11 10 9 8
f 8 9 21 20
f 9 10 22 21
f 10 11 23 22
f 11 12 24 23
f 12 13 25 24
f 13 14 26 25
f 14 15 27 26
f 15 16 28 27
f 16 17 29 28
f 17 18 30 29
f 18 19 31 30
f 19 8 20 31
