# school_id SD0175
# school_name 西关小学
# boundary_source footprint_convex_hull_buffer_20m
# adjacent_block_merge_distance_m 2.0
mtllib ../campus_materials.mtl
o SD0175_campus_boundary
usemtl campus_boundary
v -39.311 -51.498 0.050
v -47.617 5.910 0.050
v -51.976 36.886 0.050
v 39.218 49.607 0.050
v 43.722 17.775 0.050
v 45.950 -32.933 0.050
v -39.311 -51.498 0.050
l 1 2 3 4 5 6 7 1
o SD0175_T001_1hao
v 22.212 27.041 0.000
v 23.784 15.931 0.000
v -27.818 8.735 0.000
v -29.381 19.844 0.000
v 22.212 27.041 11.800
v 23.784 15.931 11.800
v -27.818 8.735 11.800
v -29.381 19.844 11.800
usemtl roof
f 12 13 14 15
usemtl teaching_building
f 11 10 9 8
f 8 9 13 12
f 9 10 14 13
f 10 11 15 14
f 11 8 12 15
o SD0175_T002_2hao
v 8.029 -6.564 0.000
v 24.385 -8.642 0.000
v 25.230 -16.976 0.000
v -22.591 -27.389 0.000
v -23.848 -11.980 0.000
v 8.029 -6.564 13.940
v 24.385 -8.642 13.940
v 25.230 -16.976 13.940
v -22.591 -27.389 13.940
v -23.848 -11.980 13.940
usemtl roof
f 21 22 23 24 25
usemtl teaching_building
f 20 19 18 17 16
f 16 17 22 21
f 17 18 23 22
f 18 19 24 23
f 19 20 25 24
f 20 16 21 25
