# school_id SD0101
# school_name 济南市民生大街小学
# boundary_source footprint_convex_hull_buffer_20m
# adjacent_block_merge_distance_m 2.0
mtllib ../campus_materials.mtl
o SD0101_campus_boundary
usemtl campus_boundary
v -52.844 -109.075 0.050
v -72.968 -84.704 0.050
v -72.747 -17.699 0.050
v -32.965 110.684 0.050
v 75.614 111.609 0.050
v 75.871 82.119 0.050
v 74.698 -23.763 0.050
v 74.195 -52.694 0.050
v -31.920 -107.906 0.050
v -52.844 -109.075 0.050
l 1 2 3 4 5 6 7 8 9 10 1
o SD0101_T001_1hao
v -18.123 83.270 0.000
v -11.666 83.326 0.000
v -11.567 71.642 0.000
v 43.884 72.095 0.000
v 43.857 74.659 0.000
v 48.627 74.704 0.000
v 48.564 82.077 0.000
v 55.870 82.143 0.000
v 55.789 91.439 0.000
v -18.185 90.809 0.000
v -18.123 83.270 17.950
v -11.666 83.326 17.950
v -11.567 71.642 17.950
v 43.884 72.095 17.950
v 43.857 74.659 17.950
v 48.627 74.704 17.950
v 48.564 82.077 17.950
v 55.870 82.143 17.950
v 55.789 91.439 17.950
v -18.185 90.809 17.950
usemtl roof
f 21 22 23 24 25 26 27 28 29 30
usemtl teaching_building
f 20 19 18 17 16 15 14 13 12 11
f 11 12 22 21
f 12 13 23 22
f 13 14 24 23
f 14 15 25 24
f 15 16 26 25
f 16 17 27 26
f 17 18 28 27
f 18 19 29 28
f 19 20 30 29
f 20 11 21 30
o SD0101_T002_2hao
v 54.994 42.183 0.000
v 54.762 22.308 0.000
v -17.721 23.159 0.000
v -17.480 43.023 0.000
v 54.994 42.183 14.330
v 54.762 22.308 14.330
v -17.721 23.159 14.330
v -17.480 43.023 14.330
usemtl roof
f 35 36 37 38
usemtl teaching_building
f 34 33 32 31
f 31 32 36 35
f 32 33 37 36
f 33 34 38 37
f 34 31 35 38
o SD0101_T003_3hao
v 54.700 -23.478 0.000
v 54.405 -40.446 0.000
v -4.798 -39.440 0.000
v -4.503 -22.461 0.000
v 54.700 -23.478 26.250
v 54.405 -40.446 26.250
v -4.798 -39.440 26.250
v -4.503 -22.461 26.250
usemtl roof
f 43 44 45 46
usemtl teaching_building
f 42 41 40 39
f 39 40 44 43
f 40 41 45 44
f 41 42 46 45
f 42 39 43 46
o SD0101_T004_4hao
v -52.757 -20.759 0.000
v -52.944 -77.543 0.000
v -45.139 -78.085 0.000
v -43.862 -88.542 0.000
v -37.333 -88.177 0.000
v -37.333 -78.980 0.000
v -23.713 -78.980 0.000
v -23.892 -68.169 0.000
v -31.340 -67.628 0.000
v -32.064 -52.119 0.000
v -11.371 -50.682 0.000
v -10.103 -39.506 0.000
v -9.558 -21.842 0.000
v -52.757 -20.759 13.580
v -52.944 -77.543 13.580
v -45.139 -78.085 13.580
v -43.862 -88.542 13.580
v -37.333 -88.177 13.580
v -37.333 -78.980 13.580
v -23.713 -78.980 13.580
v -23.892 -68.169 13.580
v -31.340 -67.628 13.580
v -32.064 -52.119 13.580
v -11.371 -50.682 13.580
v -10.103 -39.506 13.580
v -9.558 -21.842 13.580
usemtl roof
f 60 61 62 63 64 65 66 67 68 69 70 71 72
usemtl teaching_building
f 59 58 57 56 55 54 53 52 51 50 49 48 47
f 47 48 61 60
f 48 49 62 61
f 49 50 63 62
f 50 51 64 63
f 51 52 65 64
f 52 53 66 65
f 53 54 67 66
f 54 55 68 67
f 55 56 69 68
f 56 57 70 69
f 57 58 71 70
f 58 59 72 71
f 59 47 60 72
