# school_id SD0117
# school_name 济南市职业技术学院（西校区）
# boundary_source footprint_convex_hull_buffer_20m
# adjacent_block_merge_distance_m 2.0
mtllib ../campus_materials.mtl
o SD0117_campus_boundary
usemtl campus_boundary
v -51.450 -68.333 0.050
v -52.294 -2.564 0.050
v -45.904 56.320 0.050
v -7.352 56.654 0.050
v 70.764 55.117 0.050
v 71.072 20.073 0.050
v 60.772 -59.434 0.050
v -10.594 -67.807 0.050
v -51.450 -68.333 0.050
l 1 2 3 4 5 6 7 8 9 1
o SD0117_T001_1hao
v -27.940 36.475 0.000
v -7.462 36.652 0.000
v -6.836 34.994 0.000
v 50.936 35.503 0.000
v 51.061 21.276 0.000
v -6.363 20.779 0.000
v -6.381 23.443 0.000
v -27.832 23.266 0.000
v -27.940 36.475 11.660
v -7.462 36.652 11.660
v -6.836 34.994 11.660
v 50.936 35.503 11.660
v 51.061 21.276 11.660
v -6.363 20.779 11.660
v -6.381 23.443 11.660
v -27.832 23.266 11.660
usemtl roof
f 18 19 20 21 22 23 24 25
usemtl teaching_building
f 17 16 15 14 13 12 11 10
f 10 11 19 18
f 11 12 20 19
f 12 13 21 20
f 13 14 22 21
f 14 15 23 22
f 15 16 24 23
f 16 17 25 24
f 17 10 18 25
o SD0117_T002_2hao
v -8.623 -3.219 0.000
v -8.364 -23.470 0.000
v 42.711 -22.829 0.000
v 42.943 -41.389 0.000
v -11.972 -42.063 0.000
v -11.891 -47.822 0.000
v -31.708 -48.077 0.000
v -32.280 -3.518 0.000
v -8.623 -3.219 14.050
v -8.364 -23.470 14.050
v 42.711 -22.829 14.050
v 42.943 -41.389 14.050
v -11.972 -42.063 14.050
v -11.891 -47.822 14.050
v -31.708 -48.077 14.050
v -32.280 -3.518 14.050
usemtl roof
f 34 35 36 37 38 39 40 41
usemtl teaching_building
f 33 32 31 30 29 28 27 26
f 26 27 35 34
f 27 28 36 35
f 28 29 37 36
f 29 30 38 37
f 30 31 39 38
f 31 32 40 39
f 32 33 41 40
f 33 26 34 41
