# school_id SD0133
# school_name 济南市长清区实验小学(主校区)
# boundary_source footprint_convex_hull_buffer_20m
# adjacent_block_merge_distance_m 2.0
mtllib ../campus_materials.mtl
o SD0133_campus_boundary
usemtl campus_boundary
v 45.227 -47.321 0.050
v -46.026 -42.162 0.050
v -73.980 -32.134 0.050
v -63.023 11.474 0.050
v -29.866 48.543 0.050
v -17.126 53.624 0.050
v 36.620 40.839 0.050
v 62.574 30.571 0.050
v 59.683 6.113 0.050
v 45.227 -47.321 0.050
l 1 2 3 4 5 6 7 8 9 10 1
o SD0133_T001_1hao
v 30.596 21.714 0.000
v 40.906 17.635 0.000
v 39.994 9.919 0.000
v 36.131 9.289 0.000
v 28.834 -17.008 0.000
v 30.462 -20.612 0.000
v 30.158 -26.437 0.000
v -4.277 -17.594 0.000
v -5.234 -22.900 0.000
v -13.496 -20.103 0.000
v -14.158 -22.933 0.000
v -41.135 -16.268 0.000
v -42.002 -22.358 0.000
v -50.166 -19.429 0.000
v -44.828 1.817 0.000
v 23.505 -13.405 0.000
v 29.416 11.246 0.000
v -10.277 20.509 0.000
v -11.189 15.645 0.000
v -21.454 17.933 0.000
v -18.092 31.707 0.000
v -15.597 32.702 0.000
v 30.596 21.714 16.020
v 40.906 17.635 16.020
v 39.994 9.919 16.020
v 36.131 9.289 16.020
v 28.834 -17.008 16.020
v 30.462 -20.612 16.020
v 30.158 -26.437 16.020
v -4.277 -17.594 16.020
v -5.234 -22.900 16.020
v -13.496 -20.103 16.020
v -14.158 -22.933 16.020
v -41.135 -16.268 16.020
v -42.002 -22.358 16.020
v -50.166 -19.429 16.020
v -44.828 1.817 16.020
v 23.505 -13.405 16.020
v 29.416 11.246 16.020
v -10.277 20.509 16.020
v -11.189 15.645 16.020
v -21.454 17.933 16.020
v -18.092 31.707 16.020
v -15.597 32.702 16.020
usemtl roof
f 33 34 35 36 37 38 39 40 41 42 43 44 45 46 47 48 49 50 51 52 53 54
usemtl teaching_building
f 32 31 30 29 28 27 26 25 24 23 22 21 20 19 18 17 16 15 14 13 12 11
f 11 12 34 33
f 12 13 35 34
f 13 14 36 35
f 14 15 37 36
f 15 16 38 37
f 16 17 39 38
f 17 18 40 39
f 18 19 41 40
f 19 20 42 41
f 20 21 43 42
f 21 22 44 43
f 22 23 45 44
f 23 24 46 45
f 24 25 47 46
f 25 26 48 47
f 26 27 49 48
f 27 28 50 49
f 28 29 51 50
f 29 30 52 51
f 30 31 53 52
f 31 32 54 53
f 32 11 33 54
