# school_id SD0109
# school_name 济南市甸柳第一小学（东校）
# boundary_source footprint_convex_hull_buffer_20m
# adjacent_block_merge_distance_m 2.0
mtllib ../campus_materials.mtl
o SD0109_campus_boundary
usemtl campus_boundary
v 77.305 -144.334 0.050
v -234.164 117.080 0.050
v -226.443 167.654 0.050
v -110.521 156.145 0.050
v 177.333 -53.112 0.050
v 177.832 -83.658 0.050
v 173.800 -142.793 0.050
v 77.305 -144.334 0.050
l 1 2 3 4 5 6 7 8 1
o SD0109_T001_1hao
v -118.206 117.954 0.000
v -126.421 117.634 0.000
v -128.948 101.948 0.000
v -161.183 110.106 0.000
v -159.290 120.773 0.000
v -212.697 125.173 0.000
v -209.536 145.877 0.000
v -117.894 136.779 0.000
v -118.206 117.954 21.570
v -126.421 117.634 21.570
v -128.948 101.948 21.570
v -161.183 110.106 21.570
v -159.290 120.773 21.570
v -212.697 125.173 21.570
v -209.536 145.877 21.570
v -117.894 136.779 21.570
usemtl roof
f 17 18 19 20 21 22 23 24
usemtl teaching_building
f 16 15 14 13 12 11 10 9
f 9 10 18 17
f 10 11 19 18
f 11 12 20 19
f 12 13 21 20
f 13 14 22 21
f 14 15 23 22
f 15 16 24 23
f 16 9 17 24
o SD0109_T002_2hao
v 79.643 -60.700 0.000
v 40.452 -60.921 0.000
v 40.363 -45.236 0.000
v 79.545 -45.015 0.000
v 79.643 -60.700 23.170
v 40.452 -60.921 23.170
v 40.363 -45.236 23.170
v 79.545 -45.015 23.170
usemtl roof
f 29 30 31 32
usemtl teaching_building
f 28 27 26 25
f 25 26 30 29
f 26 27 31 30
f 27 28 32 31
f 28 25 29 32
o SD0109_T003_3hao
v 157.821 -83.140 0.000
v 100.244 -84.057 0.000
v 100.681 -111.361 0.000
v 154.901 -110.499 0.000
v 155.097 -123.089 0.000
v 84.447 -124.217 0.000
v 83.483 -64.591 0.000
v 157.499 -63.420 0.000
v 157.821 -83.140 15.450
v 100.244 -84.057 15.450
v 100.681 -111.361 15.450
v 154.901 -110.499 15.450
v 155.097 -123.089 15.450
v 84.447 -124.217 15.450
v 83.483 -64.591 15.450
v 157.499 -63.420 15.450
usemtl roof
f 41 42 43 44 45 46 47 48
usemtl teaching_building
f 40 39 38 37 36 35 34 33
f 33 34 42 41
f 34 35 43 42
f 35 36 44 43
f 36 37 45 44
f 37 38 46 45
f 38 39 47 46
f 39 40 48 47
f 40 33 41 48
