# school_id SD0111
# school_name 济南市稼轩中学
# boundary_source footprint_convex_hull_buffer_20m
# adjacent_block_merge_distance_m 2.0
mtllib ../campus_materials.mtl
o SD0111_campus_boundary
usemtl campus_boundary
v 160.122 -226.614 0.050
v -72.923 -225.133 0.050
v -238.808 -0.222 0.050
v -247.078 25.462 0.050
v -240.723 55.187 0.050
v -162.129 266.934 0.050
v 40.252 262.317 0.050
v 201.427 105.664 0.050
v 202.838 -85.626 0.050
v 202.646 -100.411 0.050
v 193.426 -158.004 0.050
v 160.122 -226.614 0.050
l 1 2 3 4 5 6 7 8 9 10 11 12 1
o SD0111_T001_1hao
v -137.494 222.571 0.000
v -138.217 191.465 0.000
v -90.799 190.393 0.000
v -91.442 163.112 0.000
v -150.230 164.460 0.000
v -148.338 246.614 0.000
v 31.944 242.501 0.000
v 31.293 213.849 0.000
v -51.958 215.751 0.000
v -52.529 190.769 0.000
v -21.167 190.061 0.000
v -21.810 161.995 0.000
v -85.212 163.443 0.000
v -84.525 193.046 0.000
v -74.913 192.825 0.000
v -74.252 221.123 0.000
v -137.494 222.571 10.180
v -138.217 191.465 10.180
v -90.799 190.393 10.180
v -91.442 163.112 10.180
v -150.230 164.460 10.180
v -148.338 246.614 10.180
v 31.944 242.501 10.180
v 31.293 213.849 10.180
v -51.958 215.751 10.180
v -52.529 190.769 10.180
v -21.167 190.061 10.180
v -21.810 161.995 10.180
v -85.212 163.443 10.180
v -84.525 193.046 10.180
v -74.913 192.825 10.180
v -74.252 221.123 10.180
usemtl roof
f 29 30 31 32 33 34 35 36 37 38 39 40 41 42 43 44
usemtl teaching_building
f 28 27 26 25 24 23 22 21 20 19 18 17 16 15 14 13
f 13 14 30 29
f 14 15 31 30
f 15 16 32 31
f 16 17 33 32
f 17 18 34 33
f 18 19 35 34
f 19 20 36 35
f 20 21 37 36
f 21 22 38 37
f 22 23 39 38
f 23 24 40 39
f 24 25 41 40
f 25 26 42 41
f 26 27 43 42
f 27 28 44 43
f 28 13 29 44
o SD0111_T002_2hao
v 181.195 65.925 0.000
v 93.767 66.721 0.000
v 93.490 37.074 0.000
v 175.849 36.322 0.000
v 175.635 13.429 0.000
v 81.834 14.292 0.000
v 82.611 98.059 0.000
v 181.489 97.152 0.000
v 181.195 65.925 14.810
v 93.767 66.721 14.810
v 93.490 37.074 14.810
v 175.849 36.322 14.810
v 175.635 13.429 14.810
v 81.834 14.292 14.810
v 82.611 98.059 14.810
v 181.489 97.152 14.810
usemtl roof
f 53 54 55 56 57 58 59 60
usemtl teaching_building
f 52 51 50 49 48 47 46 45
f 45 46 54 53
f 46 47 55 54
f 47 48 56 55
f 48 49 57 56
f 49 50 58 57
f 50 51 59 58
f 51 52 60 59
f 52 45 53 60
o SD0111_T003_3hao
v -121.197 6.145 0.000
v -89.041 -8.767 0.000
v -34.581 -22.706 0.000
v 1.234 -25.226 0.000
v 15.219 -25.260 0.000
v 16.629 -15.466 0.000
v 29.312 -4.975 0.000
v 48.330 6.222 0.000
v 70.170 6.919 0.000
v 87.073 2.729 0.000
v 101.166 -13.365 0.000
v 101.166 -32.257 0.000
v 92.705 -44.847 0.000
v 77.916 -58.134 0.000
v 35.648 -58.134 0.000
v 12.399 -35.750 0.000
v -17.883 -36.126 0.000
v -54.270 -31.372 0.000
v -80.366 -24.353 0.000
v -123.732 -8.336 0.000
v -155.959 -1.471 0.000
v -174.978 -0.775 0.000
v -200.343 -3.572 0.000
v -220.772 9.019 0.000
v -226.403 26.506 0.000
v -221.468 49.587 0.000
v -197.523 58.685 0.000
v -177.094 57.281 0.000
v -158.075 44.690 0.000
v -151.729 25.810 0.000
v -121.197 6.145 22.830
v -89.041 -8.767 22.830
v -34.581 -22.706 22.830
v 1.234 -25.226 22.830
v 15.219 -25.260 22.830
v 16.629 -15.466 22.830
v 29.312 -4.975 22.830
v 48.330 6.222 22.830
v 70.170 6.919 22.830
v 87.073 2.729 22.830
v 101.166 -13.365 22.830
v 101.166 -32.257 22.830
v 92.705 -44.847 22.830
v 77.916 -58.134 22.830
v 35.648 -58.134 22.830
v 12.399 -35.750 22.830
v -17.883 -36.126 22.830
v -54.270 -31.372 22.830
v -80.366 -24.353 22.830
v -123.732 -8.336 22.830
v -155.959 -1.471 22.830
v -174.978 -0.775 22.830
v -200.343 -3.572 22.830
v -220.772 9.019 22.830
v -226.403 26.506 22.830
v -221.468 49.587 22.830
v -197.523 58.685 22.830
v -177.094 57.281 22.830
v -158.075 44.690 22.830
v -151.729 25.810 22.830
usemtl roof
f 91 92 93 94 95 96 97 98 99 100 101 102 103 104 105 106 107 108 109 110 111 112 113 114 115 116 117 118 119 120
usemtl teaching_building
f 90 89 88 87 86 85 84 83 82 81 80 79 78 77 76 75 74 73 72 71 70 69 68 67 66 65 64 63 62 61
f 61 62 92 91
f 62 63 93 92
f 63 64 94 93
f 64 65 95 94
f 65 66 96 95
f 66 67 97 96
f 67 68 98 97
f 68 69 99 98
f 69 70 100 99
f 70 71 101 100
f 71 72 102 101
f 72 73 103 102
f 73 74 104 103
f 74 75 105 104
f 75 76 106 105
f 76 77 107 106
f 77 78 108 107
f 78 79 109 108
f 79 80 110 109
f 80 81 111 110
f 81 82 112 111
f 82 83 113 112
f 83 84 114 113
f 84 85 115 114
f 85 86 116 115
f 86 87 117 116
f 87 88 118 117
f 88 89 119 118
f 89 90 120 119
f 90 61 91 120
o SD0111_T004_4hao
v 178.169 -56.244 0.000
v 115.838 -55.481 0.000
v 116.472 -4.754 0.000
v 178.803 -5.517 0.000
v 178.169 -56.244 14.880
v 115.838 -55.481 14.880
v 116.472 -4.754 14.880
v 178.803 -5.517 14.880
usemtl roof
f 125 126 127 128
usemtl teaching_building
f 124 123 122 121
f 121 122 126 125
f 122 123 127 126
f 123 124 128 127
f 124 121 125 128
o SD0111_T005_5hao
v 182.667 -98.691 0.000
v 170.735 -98.525 0.000
v 170.512 -115.471 0.000
v 174.617 -115.515 0.000
v 174.144 -151.927 0.000
v 142.729 -151.529 0.000
v 142.300 -184.459 0.000
v 147.905 -186.239 0.000
v 147.637 -206.534 0.000
v 82.941 -205.694 0.000
v 84.547 -84.266 0.000
v 182.837 -85.570 0.000
v 182.667 -98.691 13.520
v 170.735 -98.525 13.520
v 170.512 -115.471 13.520
v 174.617 -115.515 13.520
v 174.144 -151.927 13.520
v 142.729 -151.529 13.520
v 142.300 -184.459 13.520
v 147.905 -186.239 13.520
v 147.637 -206.534 13.520
v 82.941 -205.694 13.520
v 84.547 -84.266 13.520
v 182.837 -85.570 13.520
usemtl roof
f 141 142 143 144 145 146 147 148 149 150 151 152
usemtl teaching_building
f 140 139 138 137 136 135 134 133 132 131 130 129
f 129 130 142 141
f 130 131 143 142
f 131 132 144 143
f 132 133 145 144
f 133 134 146 145
f 134 135 147 146
f 135 136 148 147
f 136 137 149 148
f 137 138 150 149
f 138 139 151 150
f 139 140 152 151
f 140 129 141 152
o SD0111_T006_6hao
v 18.209 -204.058 0.000
v -62.775 -205.197 0.000
v -63.694 -140.520 0.000
v -42.203 -140.221 0.000
v -38.241 -135.114 0.000
v -52.360 -135.313 0.000
v -52.565 -120.678 0.000
v -43.899 -120.556 0.000
v -44.113 -105.987 0.000
v -53.609 -106.120 0.000
v -53.815 -91.871 0.000
v 16.594 -90.876 0.000
v 18.209 -204.058 13.290
v -62.775 -205.197 13.290
v -63.694 -140.520 13.290
v -42.203 -140.221 13.290
v -38.241 -135.114 13.290
v -52.360 -135.313 13.290
v -52.565 -120.678 13.290
v -43.899 -120.556 13.290
v -44.113 -105.987 13.290
v -53.609 -106.120 13.290
v -53.815 -91.871 13.290
v 16.594 -90.876 13.290
usemtl roof
f 165 166 167 168 169 170 171 172 173 174 175 176
usemtl teaching_building
f 164 163 162 161 160 159 158 157 156 155 154 153
f 153 154 166 165
f 154 155 167 166
f 155 156 168 167
f 156 157 169 168
f 157 158 170 169
f 158 159 171 170
f 159 160 172 171
f 160 161 173 172
f 161 162 174 173
f 162 163 175 174
f 163 164 176 175
f 164 153 165 176
