# school_id SD0196
# school_name 宜阳路小学（西校区）
# boundary_source footprint_convex_hull_buffer_20m
# adjacent_block_merge_distance_m 2.0
mtllib ../campus_materials.mtl
o SD0196_campus_boundary
usemtl campus_boundary
v 47.417 -44.659 0.050
v -14.601 -35.985 0.050
v -50.681 -12.302 0.050
v -33.906 23.815 0.050
v -16.584 56.029 0.050
v 74.592 -3.905 0.050
v 47.417 -44.659 0.050
l 1 2 3 4 5 6 7 1
o SD0196_T001_1hao
v 46.783 -9.559 0.000
v -9.315 27.317 0.000
v -16.014 14.859 0.000
v -3.471 8.215 0.000
v -8.344 -0.871 0.000
v -18.172 5.584 0.000
v -25.266 -5.061 0.000
v -7.382 -16.800 0.000
v 3.435 -0.573 0.000
v 37.746 -23.112 0.000
v 46.783 -9.559 18.370
v -9.315 27.317 18.370
v -16.014 14.859 18.370
v -3.471 8.215 18.370
v -8.344 -0.871 18.370
v -18.172 5.584 18.370
v -25.266 -5.061 18.370
v -7.382 -16.800 18.370
v 3.435 -0.573 18.370
v 37.746 -23.112 18.370
usemtl roof
f 18 19 20 21 22 23 24 25 26 27
usemtl teaching_building
f 17 16 15 14 13 12 11 10 9 8
f 8 9 19 18
f 9 10 20 19
f 10 11 21 20
f 11 12 22 21
f 12 13 23 22
f 13 14 24 23
f 14 15 25 24
f 15 16 26 25
f 16 17 27 26
f 17 8 18 27
