# school_id SD0124
# school_name 济南市莱芜师范附属小学
# boundary_source footprint_convex_hull_buffer_20m
# adjacent_block_merge_distance_m 2.0
mtllib ../campus_materials.mtl
o SD0124_campus_boundary
usemtl campus_boundary
v 65.323 -46.144 0.050
v -20.206 -42.946 0.050
v -53.626 -39.579 0.050
v -68.919 22.453 0.050
v -66.384 52.585 0.050
v -21.860 50.332 0.050
v 75.903 44.513 0.050
v 76.898 14.599 0.050
v 65.323 -46.144 0.050
l 1 2 3 4 5 6 7 8 9 1
o SD0124_T001_1hao
v 56.520 25.631 0.000
v 56.835 16.158 0.000
v 20.274 17.739 0.000
v 20.912 26.261 0.000
v 56.520 25.631 8.500
v 56.835 16.158 8.500
v 20.274 17.739 8.500
v 20.912 26.261 8.500
usemtl roof
f 14 15 16 17
usemtl teaching_building
f 13 12 11 10
f 10 11 15 14
f 11 12 16 15
f 12 13 17 16
f 13 10 14 17
o SD0124_T002_2hao
v -22.960 30.362 0.000
v -24.236 1.003 0.000
v -25.502 -9.731 0.000
v 9.154 -13.832 0.000
v 34.584 -13.202 0.000
v 49.846 -14.462 0.000
v 48.894 -25.516 0.000
v -6.108 -22.675 0.000
v -18.828 -22.984 0.000
v -37.584 -21.094 0.000
v -33.129 30.053 0.000
v -22.960 30.362 10.430
v -24.236 1.003 10.430
v -25.502 -9.731 10.430
v 9.154 -13.832 10.430
v 34.584 -13.202 10.430
v 49.846 -14.462 10.430
v 48.894 -25.516 10.430
v -6.108 -22.675 10.430
v -18.828 -22.984 10.430
v -37.584 -21.094 10.430
v -33.129 30.053 10.430
usemtl roof
f 29 30 31 32 33 34 35 36 37 38 39
usemtl teaching_building
f 28 27 26 25 24 23 22 21 20 19 18
f 18 19 30 29
f 19 20 31 30
f 20 21 32 31
f 21 22 33 32
f 22 23 34 33
f 23 24 35 34
f 24 25 36 35
f 25 26 37 36
f 26 27 38 37
f 27 28 39 38
f 28 18 29 39
