# school_id SD0114
# school_name 济南市纬三路小学
# boundary_source footprint_convex_hull_buffer_20m
# adjacent_block_merge_distance_m 2.0
mtllib ../campus_materials.mtl
o SD0114_campus_boundary
usemtl campus_boundary
v 14.847 -34.755 0.050
v -37.777 -29.196 0.050
v -46.613 19.833 0.050
v 3.064 32.829 0.050
v 29.002 38.419 0.050
v 43.582 -28.572 0.050
v 14.847 -34.755 0.050
l 1 2 3 4 5 6 7 1
o SD0114_T001_1hao
v 6.561 3.731 0.000
v -12.093 0.426 0.000
v -10.388 -9.037 0.000
v -20.755 -10.883 0.000
v -23.648 5.168 0.000
v 5.373 10.330 0.000
v 6.561 3.731 20.110
v -12.093 0.426 20.110
v -10.388 -9.037 20.110
v -20.755 -10.883 20.110
v -23.648 5.168 20.110
v 5.373 10.330 20.110
usemtl roof
f 14 15 16 17 18 19
usemtl teaching_building
f 13 12 11 10 9 8
f 8 9 15 14
f 9 10 16 15
f 10 11 17 16
f 11 12 18 17
f 12 13 19 18
f 13 8 14 19
