# school_id SD0161
# school_name 燕山学校小学
# boundary_source footprint_convex_hull_buffer_20m
# adjacent_block_merge_distance_m 2.0
mtllib ../campus_materials.mtl
o SD0161_campus_boundary
usemtl campus_boundary
v 87.676 -114.148 0.050
v 47.767 -113.922 0.050
v -118.323 -1.071 0.050
v -118.085 75.764 0.050
v -12.678 75.443 0.050
v 73.015 23.120 0.050
v 88.140 -28.638 0.050
v 87.676 -114.148 0.050
l 1 2 3 4 5 6 7 8 1
o SD0161_T001_1hao
v -54.416 9.376 0.000
v -98.290 9.497 0.000
v -98.147 55.703 0.000
v -18.329 55.460 0.000
v -18.472 9.751 0.000
v -50.040 9.840 0.000
v -49.995 22.585 0.000
v -42.806 22.563 0.000
v -42.744 43.201 0.000
v -85.439 43.334 0.000
v -85.493 26.554 0.000
v -54.362 26.454 0.000
v -54.416 9.376 20.640
v -98.290 9.497 20.640
v -98.147 55.703 20.640
v -18.329 55.460 20.640
v -18.472 9.751 20.640
v -50.040 9.840 20.640
v -49.995 22.585 20.640
v -42.806 22.563 20.640
v -42.744 43.201 20.640
v -85.439 43.334 20.640
v -85.493 26.554 20.640
v -54.362 26.454 20.640
usemtl roof
f 21 22 23 24 25 26 27 28 29 30 31 32
usemtl teaching_building
f 20 19 18 17 16 15 14 13 12 11 10 9
f 9 10 22 21
f 10 11 23 22
f 11 12 24 23
f 12 13 25 24
f 13 14 26 25
f 14 15 27 26
f 15 16 28 27
f 16 17 29 28
f 17 18 30 29
f 18 19 31 30
f 19 20 32 31
f 20 9 21 32
o SD0161_T002_2hao
v 55.988 10.083 0.000
v 55.961 -9.858 0.000
v 61.444 -9.869 0.000
v 61.435 -21.730 0.000
v 39.762 -21.708 0.000
v 39.771 -8.775 0.000
v 47.299 -8.775 0.000
v 47.299 -2.187 0.000
v 26.902 -2.165 0.000
v 26.902 -5.603 0.000
v 11.730 -5.591 0.000
v 11.730 -3.757 0.000
v -15.945 -3.723 0.000
v -15.927 10.160 0.000
v 55.988 10.083 17.430
v 55.961 -9.858 17.430
v 61.444 -9.869 17.430
v 61.435 -21.730 17.430
v 39.762 -21.708 17.430
v 39.771 -8.775 17.430
v 47.299 -8.775 17.430
v 47.299 -2.187 17.430
v 26.902 -2.165 17.430
v 26.902 -5.603 17.430
v 11.730 -5.591 17.430
v 11.730 -3.757 17.430
v -15.945 -3.723 17.430
v -15.927 10.160 17.430
usemtl roof
f 47 48 49 50 51 52 53 54 55 56 57 58 59 60
usemtl teaching_building
f 46 45 44 43 42 41 40 39 38 37 36 35 34 33
f 33 34 48 47
f 34 35 49 48
f 35 36 50 49
f 36 37 51 50
f 37 38 52 51
f 38 39 53 52
f 39 40 54 53
f 40 41 55 54
f 41 42 56 55
f 42 43 57 56
f 43 44 58 57
f 44 45 59 58
f 45 46 60 59
f 46 33 47 60
o SD0161_T003_3hao
v 67.785 -94.035 0.000
v 53.970 -93.957 0.000
v 54.300 -31.380 0.000
v 68.124 -31.447 0.000
v 67.785 -94.035 14.230
v 53.970 -93.957 14.230
v 54.300 -31.380 14.230
v 68.124 -31.447 14.230
usemtl roof
f 65 66 67 68
usemtl teaching_building
f 64 63 62 61
f 61 62 66 65
f 62 63 67 66
f 63 64 68 67
f 64 61 65 68
