# school_id SD0121
# school_name 济南市莱芜实验中学南校区
# boundary_source footprint_convex_hull_buffer_20m
# adjacent_block_merge_distance_m 2.0
mtllib ../campus_materials.mtl
o SD0121_campus_boundary
usemtl campus_boundary
v 136.563 -89.533 0.050
v -40.446 -73.765 0.050
v -87.901 -7.191 0.050
v -87.833 26.763 0.050
v -84.623 63.249 0.050
v 16.554 59.458 0.050
v 38.062 57.390 0.050
v 140.298 -41.310 0.050
v 136.563 -89.533 0.050
l 1 2 3 4 5 6 7 8 9 1
o SD0121_T001_1hao
v -58.589 25.299 0.000
v -58.341 29.858 0.000
v 14.333 25.151 0.000
v 14.333 20.796 0.000
v 27.855 20.018 0.000
v 29.195 38.150 0.000
v 15.221 39.494 0.000
v 14.701 33.129 0.000
v -58.077 37.474 0.000
v -57.610 41.467 0.000
v -66.367 42.551 0.000
v -67.835 25.865 0.000
v -58.589 25.299 9.900
v -58.341 29.858 9.900
v 14.333 25.151 9.900
v 14.333 20.796 9.900
v 27.855 20.018 9.900
v 29.195 38.150 9.900
v 15.221 39.494 9.900
v 14.701 33.129 9.900
v -58.077 37.474 9.900
v -57.610 41.467 9.900
v -66.367 42.551 9.900
v -67.835 25.865 9.900
usemtl roof
f 22 23 24 25 26 27 28 29 30 31 32 33
usemtl teaching_building
f 21 20 19 18 17 16 15 14 13 12 11 10
f 10 11 23 22
f 11 12 24 23
f 12 13 25 24
f 13 14 26 25
f 14 15 27 26
f 15 16 28 27
f 16 17 29 28
f 17 18 30 29
f 18 19 31 30
f 19 20 32 31
f 20 21 33 32
f 21 10 22 33
o SD0121_T002_2hao
v -54.689 -1.598 0.000
v -54.531 2.507 0.000
v 12.488 -2.154 0.000
v 12.330 -4.795 0.000
v 23.021 -5.749 0.000
v 23.654 6.055 0.000
v 13.120 7.111 0.000
v 13.384 3.998 0.000
v -54.056 8.344 0.000
v -54.056 11.818 0.000
v -67.090 12.763 0.000
v -67.888 -0.810 0.000
v -54.689 -1.598 9.900
v -54.531 2.507 9.900
v 12.488 -2.154 9.900
v 12.330 -4.795 9.900
v 23.021 -5.749 9.900
v 23.654 6.055 9.900
v 13.120 7.111 9.900
v 13.384 3.998 9.900
v -54.056 8.344 9.900
v -54.056 11.818 9.900
v -67.090 12.763 9.900
v -67.888 -0.810 9.900
usemtl roof
f 46 47 48 49 50 51 52 53 54 55 56 57
usemtl teaching_building
f 45 44 43 42 41 40 39 38 37 36 35 34
f 34 35 47 46
f 35 36 48 47
f 36 37 49 48
f 37 38 50 49
f 38 39 51 50
f 39 40 52 51
f 40 41 53 52
f 41 42 54 53
f 42 43 55 54
f 43 44 56 55
f 44 45 57 56
f 45 34 46 57
o SD0121_T003_3hao
v 118.185 -67.817 0.000
v 119.630 -49.157 0.000
v 61.090 -44.126 0.000
v 61.805 -40.058 0.000
v 39.880 -38.632 0.000
v 39.405 -42.458 0.000
v -28.065 -36.955 0.000
v -29.503 -54.661 0.000
v 118.185 -67.817 9.900
v 119.630 -49.157 9.900
v 61.090 -44.126 9.900
v 61.805 -40.058 9.900
v 39.880 -38.632 9.900
v 39.405 -42.458 9.900
v -28.065 -36.955 9.900
v -29.503 -54.661 9.900
usemtl roof
f 66 67 68 69 70 71 72 73
usemtl teaching_building
f 65 64 63 62 61 60 59 58
f 58 59 67 66
f 59 60 68 67
f 60 61 69 68
f 61 62 70 69
f 62 63 71 70
f 63 64 72 71
f 64 65 73 72
f 65 58 66 73
