# school_id SD0118
# school_name 济南市胜利大街小学
# boundary_source footprint_convex_hull_buffer_20m
# adjacent_block_merge_distance_m 2.0
mtllib ../campus_materials.mtl
o SD0118_campus_boundary
usemtl campus_boundary
v -40.419 -71.387 0.050
v -36.706 57.001 0.050
v 58.632 56.450 0.050
v 68.845 34.690 0.050
v 65.545 9.391 0.050
v 17.141 -70.566 0.050
v -40.419 -71.387 0.050
l 1 2 3 4 5 6 7 1
o SD0118_T001_1hao
v 45.891 36.523 0.000
v 48.257 31.482 0.000
v 46.623 24.087 0.000
v 46.257 16.150 0.000
v -2.757 17.411 0.000
v -2.945 -2.597 0.000
v 5.227 -2.232 0.000
v 5.772 -50.726 0.000
v -19.824 -51.091 0.000
v -19.101 -30.354 0.000
v -14.743 -30.177 0.000
v -15.109 -21.886 0.000
v -18.369 -21.886 0.000
v -18.011 -1.691 0.000
v -15.466 -1.337 0.000
v -15.832 12.724 0.000
v -17.824 15.609 0.000
v -17.279 36.888 0.000
v 45.891 36.523 29.180
v 48.257 31.482 29.180
v 46.623 24.087 29.180
v 46.257 16.150 29.180
v -2.757 17.411 29.180
v -2.945 -2.597 29.180
v 5.227 -2.232 29.180
v 5.772 -50.726 29.180
v -19.824 -51.091 29.180
v -19.101 -30.354 29.180
v -14.743 -30.177 29.180
v -15.109 -21.886 29.180
v -18.369 -21.886 29.180
v -18.011 -1.691 29.180
v -15.466 -1.337 29.180
v -15.832 12.724 29.180
v -17.824 15.609 29.180
v -17.279 36.888 29.180
usemtl roof
f 26 27 28 29 30 31 32 33 34 35 36 37 38 39 40 41 42 43
usemtl teaching_building
f 25 24 23 22 21 20 19 18 17 16 15 14 13 12 11 10 9 8
f 8 9 27 26
f 9 10 28 27
f 10 11 29 28
f 11 12 30 29
f 12 13 31 30
f 13 14 32 31
f 14 15 33 32
f 15 16 34 33
f 16 17 35 34
f 17 18 36 35
f 18 19 37 36
f 19 20 38 37
f 20 21 39 38
f 21 22 40 39
f 22 23 41 40
f 23 24 42 41
f 24 25 43 42
f 25 8 26 43
