# school_id SD0185
# school_name 北京路小学
# boundary_source footprint_convex_hull_buffer_20m
# adjacent_block_merge_distance_m 2.0
mtllib ../campus_materials.mtl
o SD0185_campus_boundary
usemtl campus_boundary
v 1.149 -61.757 0.050
v -18.630 -39.408 0.050
v -46.937 -6.393 0.050
v -71.427 22.940 0.050
v -18.272 66.510 0.050
v 19.655 26.875 0.050
v 27.429 18.735 0.050
v 33.741 11.728 0.050
v 52.713 -10.261 0.050
v 1.149 -61.757 0.050
l 1 2 3 4 5 6 7 8 9 10 1
o SD0185_T001_1hao
v -31.668 6.526 0.000
v -17.262 19.172 0.000
v -6.879 7.665 0.000
v 1.804 15.823 0.000
v -19.917 39.301 0.000
v -43.140 20.266 0.000
v -31.668 6.526 13.300
v -17.262 19.172 13.300
v -6.879 7.665 13.300
v 1.804 15.823 13.300
v -19.917 39.301 13.300
v -43.140 20.266 13.300
usemtl roof
f 17 18 19 20 21 22
usemtl teaching_building
f 16 15 14 13 12 11
f 11 12 18 17
f 12 13 19 18
f 13 14 20 19
f 14 15 21 20
f 15 16 22 21
f 16 11 17 22
o SD0185_T002_2hao
v 0.599 -5.268 0.000
v 14.113 -20.368 0.000
v 25.424 -9.248 0.000
v 18.738 -1.499 0.000
v 13.169 -7.988 0.000
v 6.204 -0.471 0.000
v 0.599 -5.268 10.650
v 14.113 -20.368 10.650
v 25.424 -9.248 10.650
v 18.738 -1.499 10.650
v 13.169 -7.988 10.650
v 6.204 -0.471 10.650
usemtl roof
f 29 30 31 32 33 34
usemtl teaching_building
f 28 27 26 25 24 23
f 23 24 30 29
f 24 25 31 30
f 25 26 32 31
f 26 27 33 32
f 27 28 34 33
f 28 23 29 34
