# school_id SD0167
# school_name 经成小学
# boundary_source footprint_convex_hull_buffer_20m
# adjacent_block_merge_distance_m 2.0
mtllib ../campus_materials.mtl
o SD0167_campus_boundary
usemtl campus_boundary
v 30.939 -105.549 0.050
v -9.000 -94.206 0.050
v -104.853 22.778 0.050
v -79.295 99.132 0.050
v 88.556 44.606 0.050
v 76.229 4.359 0.050
v 58.451 -42.776 0.050
v 30.939 -105.549 0.050
l 1 2 3 4 5 6 7 8 1
o SD0167_T001_1hao
v -25.323 60.356 0.000
v -41.082 13.266 0.000
v -82.380 26.907 0.000
v -66.621 73.986 0.000
v -25.323 60.356 10.320
v -41.082 13.266 10.320
v -82.380 26.907 10.320
v -66.621 73.986 10.320
usemtl roof
f 13 14 15 16
usemtl teaching_building
f 12 11 10 9
f 9 10 14 13
f 10 11 15 14
f 11 12 16 15
f 12 9 13 16
o SD0167_T002_2hao
v -28.728 -14.479 0.000
v 39.923 -35.228 0.000
v 46.198 -14.778 0.000
v -7.597 1.483 0.000
v 0.529 27.979 0.000
v 57.292 10.823 0.000
v 63.674 31.660 0.000
v -7.954 53.304 0.000
v -28.728 -14.479 10.370
v 39.923 -35.228 10.370
v 46.198 -14.778 10.370
v -7.597 1.483 10.370
v 0.529 27.979 10.370
v 57.292 10.823 10.370
v 63.674 31.660 10.370
v -7.954 53.304 10.370
usemtl roof
f 25 26 27 28 29 30 31 32
usemtl teaching_building
f 24 23 22 21 20 19 18 17
f 17 18 26 25
f 18 19 27 26
f 19 20 28 27
f 20 21 29 28
f 21 22 30 29
f 22 23 31 30
f 23 24 32 31
f 24 17 25 32
o SD0167_T003_3hao
v 19.623 -81.544 0.000
v 2.496 -76.680 0.000
v 6.822 -61.669 0.000
v 23.949 -66.533 0.000
v 19.623 -81.544 9.760
v 2.496 -76.680 9.760
v 6.822 -61.669 9.760
v 23.949 -66.533 9.760
usemtl roof
f 37 38 39 40
usemtl teaching_building
f 36 35 34 33
f 33 34 38 37
f 34 35 39 38
f 35 36 40 39
f 36 33 37 40
