# school_id SD0145
# school_name 济南枫叶国际学校
# boundary_source footprint_convex_hull_buffer_20m
# adjacent_block_merge_distance_m 2.0
mtllib ../campus_materials.mtl
o SD0145_campus_boundary
usemtl campus_boundary
v 40.714 -51.020 0.050
v -41.096 -50.562 0.050
v -39.859 50.977 0.050
v 40.242 50.605 0.050
v 40.714 -51.020 0.050
l 1 2 3 4 5 1
o SD0145_T001_1hao
v -20.102 30.885 0.000
v 20.334 30.697 0.000
v 20.620 -30.907 0.000
v -20.852 -30.675 0.000
v -20.102 30.885 6.990
v 20.334 30.697 6.990
v 20.620 -30.907 6.990
v -20.852 -30.675 6.990
usemtl roof
f 10 11 12 13
usemtl teaching_building
f 9 8 7 6
f 6 7 11 10
f 7 8 12 11
f 8 9 13 12
f 9 6 10 13
