# school_id SD0181
# school_name 鲁能领秀城泉秀学校
# boundary_source footprint_convex_hull_buffer_20m
# adjacent_block_merge_distance_m 2.0
mtllib ../campus_materials.mtl
o SD0181_campus_boundary
usemtl campus_boundary
v -38.121 -77.322 0.050
v -64.540 9.086 0.050
v -74.842 42.785 0.050
v 4.423 67.019 0.050
v 38.121 77.321 0.050
v 64.540 -9.086 0.050
v 74.842 -42.785 0.050
v -38.121 -77.322 0.050
l 1 2 3 4 5 6 7 8 1
o SD0181_T001_1hao
v -29.298 -37.776 0.000
v 30.842 -19.389 0.000
v 25.012 -0.320 0.000
v -29.525 -16.994 0.000
v -33.980 -2.422 0.000
v 20.556 14.252 0.000
v 14.726 33.321 0.000
v -45.414 14.934 0.000
v -49.869 29.506 0.000
v 10.271 47.893 0.000
v 10.271 47.893 0.000
v 24.843 52.348 0.000
v 45.414 -14.934 0.000
v 45.414 -14.934 0.000
v 49.869 -29.506 0.000
v -24.843 -52.348 0.000
v -29.298 -37.776 12.800
v 30.842 -19.389 12.800
v 25.012 -0.320 12.800
v -29.525 -16.994 12.800
v -33.980 -2.422 12.800
v 20.556 14.252 12.800
v 14.726 33.321 12.800
v -45.414 14.934 12.800
v -49.869 29.506 12.800
v 10.271 47.893 12.800
v 10.271 47.893 12.800
v 24.843 52.348 12.800
v 45.414 -14.934 12.800
v 45.414 -14.934 12.800
v 49.869 -29.506 12.800
v -24.843 -52.348 12.800
usemtl roof
f 25 26 27 28 29 30 31 32 33 34 35 36 37 38 39 40
usemtl teaching_building
f 24 23 22 21 20 19 18 17 16 15 14 13 12 11 10 9
f 9 10 26 25
f 10 11 27 26
f 11 12 28 27
f 12 13 29 28
f 13 14 30 29
f 14 15 31 30
f 15 16 32 31
f 16 17 33 32
f 17 18 34 33
f 18 19 35 34
f 19 20 36 35
f 20 21 37 36
f 21 22 38 37
f 22 23 39 38
f 23 24 40 39
f 24 9 25 40
