# school_id SD0163
# school_name 章丘中学
# boundary_source footprint_convex_hull_buffer_20m
# adjacent_block_merge_distance_m 2.0
mtllib ../campus_materials.mtl
o SD0163_campus_boundary
usemtl campus_boundary
v 21.250 -52.169 0.050
v -90.412 -51.380 0.050
v -90.989 21.663 0.050
v -90.587 60.699 0.050
v 33.909 61.095 0.050
v 88.693 59.836 0.050
v 89.446 -44.870 0.050
v 21.250 -52.169 0.050
l 1 2 3 4 5 6 7 8 1
o SD0163_T001_1hao
v 53.536 10.231 0.000
v 53.536 -16.497 0.000
v 47.017 -16.309 0.000
v 46.928 -10.694 0.000
v 20.842 -10.661 0.000
v 21.039 -16.652 0.000
v 11.653 -16.564 0.000
v 11.555 -8.572 0.000
v -4.734 -8.660 0.000
v -4.922 -12.009 0.000
v -59.227 -11.335 0.000
v -58.200 20.909 0.000
v 13.823 19.760 0.000
v 13.868 40.431 0.000
v -70.791 40.762 0.000
v -70.988 21.639 0.000
v -65.174 21.529 0.000
v -65.594 -11.247 0.000
v -70.720 -11.357 0.000
v -70.568 -31.520 0.000
v 20.253 -32.161 0.000
v 20.798 -26.247 0.000
v 69.316 -26.910 0.000
v 68.833 40.287 0.000
v 33.711 41.094 0.000
v 34.211 10.751 0.000
v 53.536 10.231 10.470
v 53.536 -16.497 10.470
v 47.017 -16.309 10.470
v 46.928 -10.694 10.470
v 20.842 -10.661 10.470
v 21.039 -16.652 10.470
v 11.653 -16.564 10.470
v 11.555 -8.572 10.470
v -4.734 -8.660 10.470
v -4.922 -12.009 10.470
v -59.227 -11.335 10.470
v -58.200 20.909 10.470
v 13.823 19.760 10.470
v 13.868 40.431 10.470
v -70.791 40.762 10.470
v -70.988 21.639 10.470
v -65.174 21.529 10.470
v -65.594 -11.247 10.470
v -70.720 -11.357 10.470
v -70.568 -31.520 10.470
v 20.253 -32.161 10.470
v 20.798 -26.247 10.470
v 69.316 -26.910 10.470
v 68.833 40.287 10.470
v 33.711 41.094 10.470
v 34.211 10.751 10.470
usemtl roof
f 35 36 37 38 39 40 41 42 43 44 45 46 47 48 49 50 51 52 53 54 55 56 57 58 59 60
usemtl teaching_building
f 34 33 32 31 30 29 28 27 26 25 24 23 22 21 20 19 18 17 16 15 14 13 12 11 10 9
f 9 10 36 35
f 10 11 37 36
f 11 12 38 37
f 12 13 39 38
f 13 14 40 39
f 14 15 41 40
f 15 16 42 41
f 16 17 43 42
f 17 18 44 43
f 18 19 45 44
f 19 20 46 45
f 20 21 47 46
f 21 22 48 47
f 22 23 49 48
f 23 24 50 49
f 24 25 51 50
f 25 26 52 51
f 26 27 53 52
f 27 28 54 53
f 28 29 55 54
f 29 30 56 55
f 30 31 57 56
f 31 32 58 57
f 32 33 59 58
f 33 34 60 59
f 34 9 35 60
