# school_id SD0152
# school_name 济南育英中学（分校区）
# boundary_source footprint_convex_hull_buffer_20m
# adjacent_block_merge_distance_m 2.0
mtllib ../campus_materials.mtl
o SD0152_campus_boundary
usemtl campus_boundary
v -81.218 -33.880 0.050
v -86.004 16.370 0.050
v 8.194 28.263 0.050
v 62.263 33.097 0.050
v 68.941 -19.840 0.050
v -81.218 -33.880 0.050
l 1 2 3 4 5 6 1
o SD0152_T001_1hao
v 44.834 11.459 0.000
v 46.513 -1.850 0.000
v 12.258 -4.945 0.000
v 10.338 8.375 0.000
v 44.834 11.459 25.520
v 46.513 -1.850 25.520
v 12.258 -4.945 25.520
v 10.338 8.375 25.520
usemtl roof
f 11 12 13 14
usemtl teaching_building
f 10 9 8 7
f 7 8 12 11
f 8 9 13 12
f 9 10 14 13
f 10 7 11 14
o SD0152_T002_2hao
v 6.230 5.589 0.000
v 7.284 -5.476 0.000
v -63.201 -12.108 0.000
v -64.255 -1.043 0.000
v 6.230 5.589 25.520
v 7.284 -5.476 25.520
v -63.201 -12.108 25.520
v -64.255 -1.043 25.520
usemtl roof
f 19 20 21 22
usemtl teaching_building
f 18 17 16 15
f 15 16 20 19
f 16 17 21 20
f 17 18 22 21
f 18 15 19 22
