# school_id SD0184
# school_name 中国海洋大学附属中学
# boundary_source footprint_convex_hull_buffer_20m
# adjacent_block_merge_distance_m 2.0
mtllib ../campus_materials.mtl
o SD0184_campus_boundary
usemtl campus_boundary
v 68.219 -75.148 0.050
v 28.101 -74.629 0.050
v -110.339 1.527 0.050
v -112.881 65.286 0.050
v -81.999 66.513 0.050
v -17.191 66.991 0.050
v 37.890 41.239 0.050
v 59.820 22.468 0.050
v 79.137 -15.699 0.050
v 79.892 -32.112 0.050
v 68.219 -75.148 0.050
l 1 2 3 4 5 6 7 8 9 10 11 1
o SD0184_T001_1hao
v -81.528 46.516 0.000
v -80.853 29.548 0.000
v -50.511 30.742 0.000
v -49.890 15.222 0.000
v -90.805 13.608 0.000
v -92.100 46.096 0.000
v -81.528 46.516 13.270
v -80.853 29.548 13.270
v -50.511 30.742 13.270
v -49.890 15.222 13.270
v -90.805 13.608 13.270
v -92.100 46.096 13.270
usemtl roof
f 18 19 20 21 22 23
usemtl teaching_building
f 17 16 15 14 13 12
f 12 13 19 18
f 13 14 20 19
f 14 15 21 20
f 15 16 22 21
f 16 17 23 22
f 17 12 18 23
o SD0184_T002_2hao
v -21.565 46.958 0.000
v -20.359 11.419 0.000
v 17.334 12.668 0.000
v 16.947 23.943 0.000
v 26.953 24.275 0.000
v 27.772 0.000 0.000
v -32.074 -1.989 0.000
v -32.524 11.353 0.000
v -37.050 11.209 0.000
v -38.238 46.405 0.000
v -21.565 46.958 19.280
v -20.359 11.419 19.280
v 17.334 12.668 19.280
v 16.947 23.943 19.280
v 26.953 24.275 19.280
v 27.772 0.000 19.280
v -32.074 -1.989 19.280
v -32.524 11.353 19.280
v -37.050 11.209 19.280
v -38.238 46.405 19.280
usemtl roof
f 34 35 36 37 38 39 40 41 42 43
usemtl teaching_building
f 33 32 31 30 29 28 27 26 25 24
f 24 25 35 34
f 25 26 36 35
f 26 27 37 36
f 27 28 38 37
f 28 29 39 38
f 29 30 40 39
f 30 31 41 40
f 31 32 42 41
f 32 33 43 42
f 33 24 34 43
o SD0184_T003_3hao
v 43.779 9.872 0.000
v 45.237 -21.555 0.000
v 59.355 -20.903 0.000
v 59.769 -29.901 0.000
v 45.741 -30.542 0.000
v 46.182 -40.037 0.000
v 33.936 -40.601 0.000
v 31.614 9.308 0.000
v 43.779 9.872 12.680
v 45.237 -21.555 12.680
v 59.355 -20.903 12.680
v 59.769 -29.901 12.680
v 45.741 -30.542 12.680
v 46.182 -40.037 12.680
v 33.936 -40.601 12.680
v 31.614 9.308 12.680
usemtl roof
f 52 53 54 55 56 57 58 59
usemtl teaching_building
f 51 50 49 48 47 46 45 44
f 44 45 53 52
f 45 46 54 53
f 46 47 55 54
f 47 48 56 55
f 48 49 57 56
f 49 50 58 57
f 50 51 59 58
f 51 44 52 59
