# school_id SD0120
# school_name 济南市莱芜实验中学北校区
# boundary_source footprint_convex_hull_buffer_20m
# adjacent_block_merge_distance_m 2.0
mtllib ../campus_materials.mtl
o SD0120_campus_boundary
usemtl campus_boundary
v 41.707 -36.583 0.050
v -62.693 -34.613 0.050
v -61.867 8.918 0.050
v -6.232 44.046 0.050
v 43.392 41.521 0.050
v 41.707 -36.583 0.050
l 1 2 3 4 5 6 1
o SD0120_T001_1hao
v 22.142 -16.210 0.000
v -42.317 -14.994 0.000
v -42.075 -2.238 0.000
v 22.385 -3.443 0.000
v 22.142 -16.210 19.540
v -42.317 -14.994 19.540
v -42.075 -2.238 19.540
v 22.385 -3.443 19.540
usemtl roof
f 11 12 13 14
usemtl teaching_building
f 10 9 8 7
f 7 8 12 11
f 8 9 13 12
f 9 10 14 13
f 10 7 11 14
o SD0120_T001_1hao_seg02
v 22.385 -3.443 0.000
v -2.291 -2.978 0.000
v -0.916 23.750 0.000
v 22.978 22.534 0.000
v 22.385 -3.443 19.540
v -2.291 -2.978 19.540
v -0.916 23.750 19.540
v 22.978 22.534 19.540
usemtl roof
f 19 20 21 22
usemtl teaching_building
f 18 17 16 15
f 15 16 20 19
f 16 17 21 20
f 17 18 22 21
f 18 15 19 22
