# school_id SD0105
# school_name 济南市燕柳小学
# boundary_source footprint_convex_hull_buffer_20m
# adjacent_block_merge_distance_m 2.0
mtllib ../campus_materials.mtl
o SD0105_campus_boundary
usemtl campus_boundary
v 29.789 -37.169 0.050
v -67.435 -22.706 0.050
v -68.979 35.112 0.050
v 56.160 38.393 0.050
v 58.156 -36.461 0.050
v 29.789 -37.169 0.050
l 1 2 3 4 5 6 1
o SD0105_T001_1hao
v 36.700 17.876 0.000
v 37.629 -16.967 0.000
v 31.020 -17.132 0.000
v 30.404 5.971 0.000
v -19.830 4.655 0.000
v -19.580 -4.652 0.000
v -47.890 -5.393 0.000
v -48.452 15.643 0.000
v 36.700 17.876 22.060
v 37.629 -16.967 22.060
v 31.020 -17.132 22.060
v 30.404 5.971 22.060
v -19.830 4.655 22.060
v -19.580 -4.652 22.060
v -47.890 -5.393 22.060
v -48.452 15.643 22.060
usemtl roof
f 15 16 17 18 19 20 21 22
usemtl teaching_building
f 14 13 12 11 10 9 8 7
f 7 8 16 15
f 8 9 17 16
f 9 10 18 17
f 10 11 19 18
f 11 12 20 19
f 12 13 21 20
f 13 14 22 21
f 14 7 15 22
