# school_id SD0104
# school_name 济南市燕山中学
# boundary_source footprint_convex_hull_buffer_20m
# adjacent_block_merge_distance_m 2.0
mtllib ../campus_materials.mtl
o SD0104_campus_boundary
usemtl campus_boundary
v -168.530 -655.932 0.050
v -171.783 -609.418 0.050
v -174.713 200.431 0.050
v -15.322 400.206 0.050
v 60.340 399.444 0.050
v 110.393 301.364 0.050
v 229.483 -349.206 0.050
v 231.503 -382.428 0.050
v 233.259 -494.345 0.050
v -103.897 -651.472 0.050
v -168.530 -655.932 0.050
l 1 2 3 4 5 6 7 8 9 10 11 1
o SD0104_T001_1hao
v 48.030 379.567 0.000
v 47.860 363.472 0.000
v 12.573 363.837 0.000
v 12.305 338.380 0.000
v -6.200 338.579 0.000
v -5.771 380.109 0.000
v 48.030 379.567 15.350
v 47.860 363.472 15.350
v 12.573 363.837 15.350
v 12.305 338.380 15.350
v -6.200 338.579 15.350
v -5.771 380.109 15.350
usemtl roof
f 18 19 20 21 22 23
usemtl teaching_building
f 17 16 15 14 13 12
f 12 13 19 18
f 13 14 20 19
f 14 15 21 20
f 15 16 22 21
f 16 17 23 22
f 17 12 18 23
o SD0104_T002_2hao
v 91.247 294.882 0.000
v 90.810 277.141 0.000
v 58.497 277.936 0.000
v 58.935 295.667 0.000
v 91.247 294.882 24.820
v 90.810 277.141 24.820
v 58.497 277.936 24.820
v 58.935 295.667 24.820
usemtl roof
f 28 29 30 31
usemtl teaching_building
f 27 26 25 24
f 24 25 29 28
f 25 26 30 29
f 26 27 31 30
f 27 24 28 31
o SD0104_T003_3hao
v 49.887 270.199 0.000
v 50.441 249.705 0.000
v -4.592 251.064 0.000
v -4.869 270.464 0.000
v 49.887 270.199 14.010
v 50.441 249.705 14.010
v -4.592 251.064 14.010
v -4.869 270.464 14.010
usemtl roof
f 36 37 38 39
usemtl teaching_building
f 35 34 33 32
f 32 33 37 36
f 33 34 38 37
f 34 35 39 38
f 35 32 36 39
o SD0104_T004_4hao
v -105.210 193.904 0.000
v -105.308 204.472 0.000
v -92.144 204.593 0.000
v -91.912 179.744 0.000
v -154.554 179.180 0.000
v -154.688 193.462 0.000
v -105.210 193.904 30.890
v -105.308 204.472 30.890
v -92.144 204.593 30.890
v -91.912 179.744 30.890
v -154.554 179.180 30.890
v -154.688 193.462 30.890
usemtl roof
f 46 47 48 49 50 51
usemtl teaching_building
f 45 44 43 42 41 40
f 40 41 47 46
f 41 42 48 47
f 42 43 49 48
f 43 44 50 49
f 44 45 51 50
f 45 40 46 51
o SD0104_T005_5hao
v -12.166 200.304 0.000
v -11.889 147.676 0.000
v -52.784 147.455 0.000
v -53.061 200.094 0.000
v -12.166 200.304 17.280
v -11.889 147.676 17.280
v -52.784 147.455 17.280
v -53.061 200.094 17.280
usemtl roof
f 56 57 58 59
usemtl teaching_building
f 55 54 53 52
f 52 53 57 56
f 53 54 58 57
f 54 55 59 58
f 55 52 56 59
o SD0104_T006_6hao
v 45.699 173.310 0.000
v 90.711 172.492 0.000
v 90.417 156.873 0.000
v 45.413 157.680 0.000
v 45.699 173.310 22.570
v 90.711 172.492 22.570
v 90.417 156.873 22.570
v 45.413 157.680 22.570
usemtl roof
f 64 65 66 67
usemtl teaching_building
f 63 62 61 60
f 60 61 65 64
f 61 62 66 65
f 62 63 67 66
f 63 60 64 67
o SD0104_T006_6hao_seg02
v -1.154 173.255 0.000
v 43.850 172.448 0.000
v 43.564 156.818 0.000
v -1.440 157.636 0.000
v -1.154 173.255 22.570
v 43.850 172.448 22.570
v 43.564 156.818 22.570
v -1.440 157.636 22.570
usemtl roof
f 72 73 74 75
usemtl teaching_building
f 71 70 69 68
f 68 69 73 72
f 69 70 74 73
f 70 71 75 74
f 71 68 72 75
o SD0104_T007_7hao
v -85.240 147.411 0.000
v -85.249 145.432 0.000
v -80.766 145.421 0.000
v -80.774 132.764 0.000
v -85.133 132.764 0.000
v -85.133 130.708 0.000
v -153.286 130.719 0.000
v -153.286 147.422 0.000
v -85.240 147.411 12.930
v -85.249 145.432 12.930
v -80.766 145.421 12.930
v -80.774 132.764 12.930
v -85.133 132.764 12.930
v -85.133 130.708 12.930
v -153.286 130.719 12.930
v -153.286 147.422 12.930
usemtl roof
f 84 85 86 87 88 89 90 91
usemtl teaching_building
f 83 82 81 80 79 78 77 76
f 76 77 85 84
f 77 78 86 85
f 78 79 87 86
f 79 80 88 87
f 80 81 89 88
f 81 82 90 89
f 82 83 91 90
f 83 76 84 91
o SD0104_T008_8hao
v 40.090 123.435 0.000
v 39.849 83.065 0.000
v 36.107 83.088 0.000
v 36.080 78.644 0.000
v 2.892 78.843 0.000
v 2.919 83.640 0.000
v -1.520 83.662 0.000
v -1.279 123.678 0.000
v 40.090 123.435 22.080
v 39.849 83.065 22.080
v 36.107 83.088 22.080
v 36.080 78.644 22.080
v 2.892 78.843 22.080
v 2.919 83.640 22.080
v -1.520 83.662 22.080
v -1.279 123.678 22.080
usemtl roof
f 100 101 102 103 104 105 106 107
usemtl teaching_building
f 99 98 97 96 95 94 93 92
f 92 93 101 100
f 93 94 102 101
f 94 95 103 102
f 95 96 104 103
f 96 97 105 104
f 97 98 106 105
f 98 99 107 106
f 99 92 100 107
o SD0104_T009_9hao
v -48.167 98.320 0.000
v -47.899 73.824 0.000
v -62.859 73.659 0.000
v -63.127 98.165 0.000
v -48.167 98.320 15.260
v -47.899 73.824 15.260
v -62.859 73.659 15.260
v -63.127 98.165 15.260
usemtl roof
f 112 113 114 115
usemtl teaching_building
f 111 110 109 108
f 108 109 113 112
f 109 110 114 113
f 110 111 115 114
f 111 108 112 115
o SD0104_T010_10hao
v 83.567 60.504 0.000
v 85.210 43.492 0.000
v 37.420 38.938 0.000
v 35.776 55.961 0.000
v 83.567 60.504 28.140
v 85.210 43.492 28.140
v 37.420 38.938 28.140
v 35.776 55.961 28.140
usemtl roof
f 120 121 122 123
usemtl teaching_building
f 119 118 117 116
f 116 117 121 120
f 117 118 122 121
f 118 119 123 122
f 119 116 120 123
o SD0104_T011_11hao
v 11.278 55.486 0.000
v 11.850 32.383 0.000
v -5.601 31.963 0.000
v -5.691 35.489 0.000
v -48.292 34.516 0.000
v -48.748 54.049 0.000
v 11.278 55.486 17.750
v 11.850 32.383 17.750
v -5.601 31.963 17.750
v -5.691 35.489 17.750
v -48.292 34.516 17.750
v -48.748 54.049 17.750
usemtl roof
f 130 131 132 133 134 135
usemtl teaching_building
f 129 128 127 126 125 124
f 124 125 131 130
f 125 126 132 131
f 126 127 133 132
f 127 128 134 133
f 128 129 135 134
f 129 124 130 135
o SD0104_T012_12hao
v 134.965 -387.791 0.000
v 211.513 -383.192 0.000
v 209.593 -351.622 0.000
v 133.045 -356.209 0.000
v 134.965 -387.791 13.940
v 211.513 -383.192 13.940
v 209.593 -351.622 13.940
v 133.045 -356.209 13.940
usemtl roof
f 140 141 142 143
usemtl teaching_building
f 139 138 137 136
f 136 137 141 140
f 137 138 142 141
f 138 139 143 142
f 139 136 140 143
o SD0104_T013_13hao
v 142.253 -495.269 0.000
v 159.177 -494.307 0.000
v 158.623 -484.801 0.000
v 213.058 -481.694 0.000
v 211.701 -458.293 0.000
v 140.350 -462.361 0.000
v 142.253 -495.269 17.870
v 159.177 -494.307 17.870
v 158.623 -484.801 17.870
v 213.058 -481.694 17.870
v 211.701 -458.293 17.870
v 140.350 -462.361 17.870
usemtl roof
f 150 151 152 153 154 155
usemtl teaching_building
f 149 148 147 146 145 144
f 144 145 151 150
f 145 146 152 151
f 146 147 153 152
f 147 148 154 153
f 148 149 155 154
f 149 144 150 155
o SD0104_T014_14hao
v -149.973 -634.604 0.000
v -108.979 -631.775 0.000
v -109.765 -620.488 0.000
v -89.982 -619.129 0.000
v -91.251 -601.000 0.000
v -55.330 -598.513 0.000
v -57.125 -572.978 0.000
v -125.841 -577.721 0.000
v -123.813 -606.748 0.000
v -151.786 -608.683 0.000
v -149.973 -634.604 19.790
v -108.979 -631.775 19.790
v -109.765 -620.488 19.790
v -89.982 -619.129 19.790
v -91.251 -601.000 19.790
v -55.330 -598.513 19.790
v -57.125 -572.978 19.790
v -125.841 -577.721 19.790
v -123.813 -606.748 19.790
v -151.786 -608.683 19.790
usemtl roof
f 166 167 168 169 170 171 172 173 174 175
usemtl teaching_building
f 165 164 163 162 161 160 159 158 157 156
f 156 157 167 166
f 157 158 168 167
f 158 159 169 168
f 159 160 170 169
f 160 161 171 170
f 161 162 172 171
f 162 163 173 172
f 163 164 174 173
f 164 165 175 174
f 165 156 166 175
