# school_id SD0176
# school_name 金水河学校
# boundary_source footprint_convex_hull_buffer_20m
# adjacent_block_merge_distance_m 2.0
mtllib ../campus_materials.mtl
o SD0176_campus_boundary
usemtl campus_boundary
v 110.285 -131.037 0.050
v 46.524 -130.892 0.050
v -84.465 -127.794 0.050
v -84.408 -98.615 0.050
v -77.442 86.981 0.050
v -51.430 140.167 0.050
v -37.346 149.721 0.050
v 0.124 160.629 0.050
v 46.091 159.914 0.050
v 141.644 -17.701 0.050
v 141.484 -36.538 0.050
v 110.285 -131.037 0.050
l 1 2 3 4 5 6 7 8 9 10 11 12 1
o SD0176_T001_1hao
v -28.728 131.400 0.000
v 2.670 130.902 0.000
v 2.823 140.585 0.000
v 34.040 140.099 0.000
v 33.347 96.878 0.000
v 30.315 96.922 0.000
v 30.099 82.994 0.000
v 21.667 83.127 0.000
v 21.874 97.154 0.000
v -36.224 98.005 0.000
v -35.801 126.602 0.000
v -28.728 131.400 10.130
v 2.670 130.902 10.130
v 2.823 140.585 10.130
v 34.040 140.099 10.130
v 33.347 96.878 10.130
v 30.315 96.922 10.130
v 30.099 82.994 10.130
v 21.667 83.127 10.130
v 21.874 97.154 10.130
v -36.224 98.005 10.130
v -35.801 126.602 10.130
usemtl roof
f 24 25 26 27 28 29 30 31 32 33 34
usemtl teaching_building
f 23 22 21 20 19 18 17 16 15 14 13
f 13 14 25 24
f 14 15 26 25
f 15 16 27 26
f 16 17 28 27
f 17 18 29 28
f 18 19 30 29
f 19 20 31 30
f 20 21 32 31
f 21 22 33 32
f 22 23 34 33
f 23 13 24 34
o SD0176_T002_2hao
v 1.716 82.552 0.000
v 1.842 68.801 0.000
v -47.122 68.337 0.000
v -46.870 41.365 0.000
v -4.971 41.763 0.000
v -4.737 17.864 0.000
v -47.473 17.455 0.000
v -47.221 -8.577 0.000
v 3.228 -8.091 0.000
v 3.408 -25.678 0.000
v -58.335 -26.286 0.000
v -58.578 -2.763 0.000
v -52.603 -2.708 0.000
v -52.720 8.634 0.000
v -56.616 8.590 0.000
v -56.724 18.549 0.000
v -51.289 18.605 0.000
v -51.559 41.807 0.000
v -57.417 41.741 0.000
v -57.489 47.732 0.000
v -53.170 47.776 0.000
v -53.341 62.036 0.000
v -57.435 63.395 0.000
v -57.615 81.999 0.000
v 1.716 82.552 11.080
v 1.842 68.801 11.080
v -47.122 68.337 11.080
v -46.870 41.365 11.080
v -4.971 41.763 11.080
v -4.737 17.864 11.080
v -47.473 17.455 11.080
v -47.221 -8.577 11.080
v 3.228 -8.091 11.080
v 3.408 -25.678 11.080
v -58.335 -26.286 11.080
v -58.578 -2.763 11.080
v -52.603 -2.708 11.080
v -52.720 8.634 11.080
v -56.616 8.590 11.080
v -56.724 18.549 11.080
v -51.289 18.605 11.080
v -51.559 41.807 11.080
v -57.417 41.741 11.080
v -57.489 47.732 11.080
v -53.170 47.776 11.080
v -53.341 62.036 11.080
v -57.435 63.395 11.080
v -57.615 81.999 11.080
usemtl roof
f 59 60 61 62 63 64 65 66 67 68 69 70 71 72 73 74 75 76 77 78 79 80 81 82
usemtl teaching_building
f 58 57 56 55 54 53 52 51 50 49 48 47 46 45 44 43 42 41 40 39 38 37 36 35
f 35 36 60 59
f 36 37 61 60
f 37 38 62 61
f 38 39 63 62
f 39 40 64 63
f 40 41 65 64
f 41 42 66 65
f 42 43 67 66
f 43 44 68 67
f 44 45 69 68
f 45 46 70 69
f 46 47 71 70
f 47 48 72 71
f 48 49 73 72
f 49 50 74 73
f 50 51 75 74
f 51 52 76 75
f 52 53 77 76
f 53 54 78 77
f 54 55 79 78
f 55 56 80 79
f 56 57 81 80
f 57 58 82 81
f 58 35 59 82
o SD0176_T003_3hao
v -29.007 -99.065 0.000
v -28.980 -80.815 0.000
v -24.840 -82.639 0.000
v -24.840 -73.519 0.000
v -30.357 -70.778 0.000
v -30.258 -59.912 0.000
v 57.285 -60.708 0.000
v 57.321 -56.552 0.000
v 76.120 -56.684 0.000
v 76.003 -73.641 0.000
v 54.135 -73.508 0.000
v 54.117 -78.251 0.000
v 60.426 -78.273 0.000
v 60.372 -94.710 0.000
v 95.882 -94.809 0.000
v 95.837 -111.004 0.000
v 46.783 -110.893 0.000
v 46.864 -73.442 0.000
v -21.403 -73.309 0.000
v -21.475 -108.340 0.000
v -64.427 -108.262 0.000
v -64.409 -99.010 0.000
v -29.007 -99.065 13.050
v -28.980 -80.815 13.050
v -24.840 -82.639 13.050
v -24.840 -73.519 13.050
v -30.357 -70.778 13.050
v -30.258 -59.912 13.050
v 57.285 -60.708 13.050
v 57.321 -56.552 13.050
v 76.120 -56.684 13.050
v 76.003 -73.641 13.050
v 54.135 -73.508 13.050
v 54.117 -78.251 13.050
v 60.426 -78.273 13.050
v 60.372 -94.710 13.050
v 95.882 -94.809 13.050
v 95.837 -111.004 13.050
v 46.783 -110.893 13.050
v 46.864 -73.442 13.050
v -21.403 -73.309 13.050
v -21.475 -108.340 13.050
v -64.427 -108.262 13.050
v -64.409 -99.010 13.050
usemtl roof
f 105 106 107 108 109 110 111 112 113 114 115 116 117 118 119 120 121 122 123 124 125 126
usemtl teaching_building
f 104 103 102 101 100 99 98 97 96 95 94 93 92 91 90 89 88 87 86 85 84 83
f 83 84 106 105
f 84 85 107 106
f 85 86 108 107
f 86 87 109 108
f 87 88 110 109
f 88 89 111 110
f 89 90 112 111
f 90 91 113 112
f 91 92 114 113
f 92 93 115 114
f 93 94 116 115
f 94 95 117 116
f 95 96 118 117
f 96 97 119 118
f 97 98 120 119
f 98 99 121 120
f 99 100 122 121
f 100 101 123 122
f 101 102 124 123
f 102 103 125 124
f 103 104 126 125
f 104 83 105 126
