# school_id SD0172
# school_name 莱芜高新区实验学校
# boundary_source footprint_convex_hull_buffer_20m
# adjacent_block_merge_distance_m 2.0
mtllib ../campus_materials.mtl
o SD0172_campus_boundary
usemtl campus_boundary
v 139.213 -91.984 0.050
v -127.337 -42.326 0.050
v -187.488 -30.082 0.050
v -177.620 4.242 0.050
v 112.257 147.574 0.050
v 199.715 125.136 0.050
v 174.697 -43.924 0.050
v 139.213 -91.984 0.050
l 1 2 3 4 5 6 7 8 1
o SD0172_T001_1hao
v 177.293 110.241 0.000
v 168.116 74.979 0.000
v 105.304 91.106 0.000
v 114.472 126.358 0.000
v 177.293 110.241 12.020
v 168.116 74.979 12.020
v 105.304 91.106 12.020
v 114.472 126.358 12.020
usemtl roof
f 13 14 15 16
usemtl teaching_building
f 12 11 10 9
f 9 10 14 13
f 10 11 15 14
f 11 12 16 15
f 12 9 13 16
o SD0172_T002_2hao
v -79.665 9.672 0.000
v -75.920 26.208 0.000
v -26.650 15.199 0.000
v -29.496 2.652 0.000
v -41.376 5.305 0.000
v -42.274 1.315 0.000
v -67.129 6.875 0.000
v -70.092 -6.191 0.000
v -31.759 -14.758 0.000
v -34.399 -26.398 0.000
v -79.036 -16.427 0.000
v -73.433 8.279 0.000
v -79.665 9.672 10.000
v -75.920 26.208 10.000
v -26.650 15.199 10.000
v -29.496 2.652 10.000
v -41.376 5.305 10.000
v -42.274 1.315 10.000
v -67.129 6.875 10.000
v -70.092 -6.191 10.000
v -31.759 -14.758 10.000
v -34.399 -26.398 10.000
v -79.036 -16.427 10.000
v -73.433 8.279 10.000
usemtl roof
f 29 30 31 32 33 34 35 36 37 38 39 40
usemtl teaching_building
f 28 27 26 25 24 23 22 21 20 19 18 17
f 17 18 30 29
f 18 19 31 30
f 19 20 32 31
f 20 21 33 32
f 21 22 34 33
f 22 23 35 34
f 23 24 36 35
f 24 25 37 36
f 25 26 38 37
f 26 27 39 38
f 27 28 40 39
f 28 17 29 40
o SD0172_T003_3hao
v 157.924 -17.952 0.000
v 155.643 -36.059 0.000
v 93.325 -21.722 0.000
v 96.360 -5.119 0.000
v 157.924 -17.952 9.300
v 155.643 -36.059 9.300
v 93.325 -21.722 9.300
v 96.360 -5.119 9.300
usemtl roof
f 45 46 47 48
usemtl teaching_building
f 44 43 42 41
f 41 42 46 45
f 42 43 47 46
f 43 44 48 47
f 44 41 45 48
o SD0172_T004_4hao
v 132.844 -58.709 0.000
v 130.563 -70.028 0.000
v 92.562 -60.975 0.000
v 94.843 -50.407 0.000
v 132.844 -58.709 13.360
v 130.563 -70.028 13.360
v 92.562 -60.975 13.360
v 94.843 -50.407 13.360
usemtl roof
f 53 54 55 56
usemtl teaching_building
f 52 51 50 49
f 49 50 54 53
f 50 51 55 54
f 51 52 56 55
f 52 49 53 56
