# school_id SD0193
# school_name 城阳区职业教育中心
# boundary_source footprint_convex_hull_buffer_20m
# adjacent_block_merge_distance_m 2.0
mtllib ../campus_materials.mtl
o SD0193_campus_boundary
usemtl campus_boundary
v 28.479 -105.964 0.050
v -57.110 -104.879 0.050
v -56.663 -71.235 0.050
v -56.420 -58.590 0.050
v -55.510 -15.197 0.050
v -51.642 87.911 0.050
v -38.605 100.550 0.050
v -20.107 107.995 0.050
v 76.004 106.580 0.050
v 75.288 59.347 0.050
v 63.664 -102.696 0.050
v 28.479 -105.964 0.050
l 1 2 3 4 5 6 7 8 9 10 11 12 1
o SD0193_T001_1hao
v -16.581 66.018 0.000
v -28.001 66.184 0.000
v -32.038 71.070 0.000
v -31.957 79.139 0.000
v -27.499 83.461 0.000
v -16.447 83.306 0.000
v -16.375 87.938 0.000
v 55.703 86.877 0.000
v 55.299 60.215 0.000
v -16.653 61.265 0.000
v -16.581 66.018 20.360
v -28.001 66.184 20.360
v -32.038 71.070 20.360
v -31.957 79.139 20.360
v -27.499 83.461 20.360
v -16.447 83.306 20.360
v -16.375 87.938 20.360
v 55.703 86.877 20.360
v 55.299 60.215 20.360
v -16.653 61.265 20.360
usemtl roof
f 23 24 25 26 27 28 29 30 31 32
usemtl teaching_building
f 22 21 20 19 18 17 16 15 14 13
f 13 14 24 23
f 14 15 25 24
f 15 16 26 25
f 16 17 27 26
f 17 18 28 27
f 18 19 29 28
f 19 20 30 29
f 20 21 31 30
f 21 22 32 31
f 22 13 23 32
o SD0193_T001_1hao_seg02
v 55.299 60.215 0.000
v 44.929 -84.350 0.000
v 34.488 -84.029 0.000
v 42.920 60.391 0.000
v 55.299 60.215 20.360
v 44.929 -84.350 20.360
v 34.488 -84.029 20.360
v 42.920 60.391 20.360
usemtl roof
f 37 38 39 40
usemtl teaching_building
f 36 35 34 33
f 33 34 38 37
f 34 35 39 38
f 35 36 40 39
f 36 33 37 40
o SD0193_T002_2hao
v -35.518 -15.782 0.000
v -3.879 -16.445 0.000
v -3.798 -12.499 0.000
v 11.595 -12.819 0.000
v 11.523 -16.312 0.000
v 28.325 -16.666 0.000
v 28.110 -26.515 0.000
v -22.753 -25.443 0.000
v -25.669 -28.704 0.000
v -26.314 -59.202 0.000
v -36.424 -58.992 0.000
v -35.518 -15.782 20.750
v -3.879 -16.445 20.750
v -3.798 -12.499 20.750
v 11.595 -12.819 20.750
v 11.523 -16.312 20.750
v 28.325 -16.666 20.750
v 28.110 -26.515 20.750
v -22.753 -25.443 20.750
v -25.669 -28.704 20.750
v -26.314 -59.202 20.750
v -36.424 -58.992 20.750
usemtl roof
f 52 53 54 55 56 57 58 59 60 61 62
usemtl teaching_building
f 51 50 49 48 47 46 45 44 43 42 41
f 41 42 53 52
f 42 43 54 53
f 43 44 55 54
f 44 45 56 55
f 45 46 57 56
f 46 47 58 57
f 47 48 59 58
f 48 49 60 59
f 49 50 61 60
f 50 51 62 61
f 51 41 52 62
o SD0193_T003_3hao
v -26.611 -76.855 0.000
v -26.548 -71.682 0.000
v -36.666 -71.560 0.000
v -36.846 -85.134 0.000
v 27.679 -85.952 0.000
v 27.787 -77.529 0.000
v -26.611 -76.855 36.330
v -26.548 -71.682 36.330
v -36.666 -71.560 36.330
v -36.846 -85.134 36.330
v 27.679 -85.952 36.330
v 27.787 -77.529 36.330
usemtl roof
f 69 70 71 72 73 74
usemtl teaching_building
f 68 67 66 65 64 63
f 63 64 70 69
f 64 65 71 70
f 65 66 72 71
f 66 67 73 72
f 67 68 74 73
f 68 63 69 74
