# school_id SD0119
# school_name 济南市莱芜凤城高级中学
# boundary_source footprint_convex_hull_buffer_20m
# adjacent_block_merge_distance_m 2.0
mtllib ../campus_materials.mtl
o SD0119_campus_boundary
usemtl campus_boundary
v -109.862 -85.697 0.050
v -127.102 -42.903 0.050
v -131.686 -25.622 0.050
v -133.196 45.119 0.050
v -133.196 74.846 0.050
v 62.153 113.154 0.050
v 154.077 114.082 0.050
v 159.301 72.600 0.050
v 73.940 -84.017 0.050
v -109.862 -85.697 0.050
l 1 2 3 4 5 6 7 8 9 10 1
o SD0119_T001_1hao
v 136.460 93.903 0.000
v 138.651 76.504 0.000
v 76.602 75.786 0.000
v 78.793 44.614 0.000
v 72.948 46.062 0.000
v 72.221 32.288 0.000
v 64.195 32.288 0.000
v 64.195 93.174 0.000
v 136.460 93.903 23.520
v 138.651 76.504 23.520
v 76.602 75.786 23.520
v 78.793 44.614 23.520
v 72.948 46.062 23.520
v 72.221 32.288 23.520
v 64.195 32.288 23.520
v 64.195 93.174 23.520
usemtl roof
f 19 20 21 22 23 24 25 26
usemtl teaching_building
f 18 17 16 15 14 13 12 11
f 11 12 20 19
f 12 13 21 20
f 13 14 22 21
f 14 15 23 22
f 15 16 24 23
f 16 17 25 24
f 17 18 26 25
f 18 11 19 26
o SD0119_T002_2hao
v -27.787 60.554 0.000
v -28.523 43.166 0.000
v -113.196 45.332 0.000
v -113.196 58.387 0.000
v -27.787 60.554 12.760
v -28.523 43.166 12.760
v -113.196 45.332 12.760
v -113.196 58.387 12.760
usemtl roof
f 31 32 33 34
usemtl teaching_building
f 30 29 28 27
f 27 28 32 31
f 28 29 33 32
f 29 30 34 33
f 30 27 31 34
o SD0119_T003_3hao
v 47.405 56.939 0.000
v 48.860 43.166 0.000
v -16.106 42.436 0.000
v -16.106 59.835 0.000
v 47.405 56.939 15.200
v 48.860 43.166 15.200
v -16.106 42.436 15.200
v -16.106 59.835 15.200
usemtl roof
f 39 40 41 42
usemtl teaching_building
f 38 37 36 35
f 35 36 40 39
f 36 37 41 40
f 37 38 42 41
f 38 35 39 42
o SD0119_T004_4hao
v 17.589 0.365 0.000
v 12.507 -14.779 0.000
v -57.406 -18.560 0.000
v -54.865 5.416 0.000
v 17.589 0.365 20.680
v 12.507 -14.779 20.680
v -57.406 -18.560 20.680
v -54.865 5.416 20.680
usemtl roof
f 47 48 49 50
usemtl teaching_building
f 46 45 44 43
f 43 44 48 47
f 44 45 49 48
f 45 46 50 49
f 46 43 47 50
o SD0119_T005_5hao
v -61.365 -27.878 0.000
v -60.638 -64.854 0.000
v -96.407 -65.573 0.000
v -100.061 -53.977 0.000
v -73.782 -55.425 0.000
v -70.855 -39.474 0.000
v -108.088 -36.578 0.000
v -111.742 -22.805 0.000
v -69.401 -25.701 0.000
v -61.365 -27.878 21.380
v -60.638 -64.854 21.380
v -96.407 -65.573 21.380
v -100.061 -53.977 21.380
v -73.782 -55.425 21.380
v -70.855 -39.474 21.380
v -108.088 -36.578 21.380
v -111.742 -22.805 21.380
v -69.401 -25.701 21.380
usemtl roof
f 60 61 62 63 64 65 66 67 68
usemtl teaching_building
f 59 58 57 56 55 54 53 52 51
f 51 52 61 60
f 52 53 62 61
f 53 54 63 62
f 54 55 64 63
f 55 56 65 64
f 56 57 66 65
f 57 58 67 66
f 58 59 68 67
f 59 51 60 68
o SD0119_T006_6hao
v 50.323 -27.149 0.000
v 66.385 -26.430 0.000
v 72.221 -35.130 0.000
v 60.541 -37.308 0.000
v 41.561 -38.756 0.000
v 40.833 -52.529 0.000
v 58.350 -52.529 0.000
v 62.004 -64.125 0.000
v 18.199 -59.051 0.000
v 18.936 -26.430 0.000
v 50.323 -27.149 13.360
v 66.385 -26.430 13.360
v 72.221 -35.130 13.360
v 60.541 -37.308 13.360
v 41.561 -38.756 13.360
v 40.833 -52.529 13.360
v 58.350 -52.529 13.360
v 62.004 -64.125 13.360
v 18.199 -59.051 13.360
v 18.936 -26.430 13.360
usemtl roof
f 79 80 81 82 83 84 85 86 87 88
usemtl teaching_building
f 78 77 76 75 74 73 72 71 70 69
f 69 70 80 79
f 70 71 81 80
f 71 72 82 81
f 72 73 83 82
f 73 74 84 83
f 74 75 85 84
f 75 76 86 85
f 76 77 87 86
f 77 78 88 87
f 78 69 79 88
