# school_id SD0174
# school_name 营东小学
# boundary_source footprint_convex_hull_buffer_20m
# adjacent_block_merge_distance_m 2.0
mtllib ../campus_materials.mtl
o SD0174_campus_boundary
usemtl campus_boundary
v 96.587 -79.839 0.050
v 44.381 -78.668 0.050
v -96.754 2.783 0.050
v -95.257 51.155 0.050
v -68.336 60.771 0.050
v -1.251 60.642 0.050
v 98.281 -6.249 0.050
v 96.587 -79.839 0.050
l 1 2 3 4 5 6 7 8 1
o SD0174_T001_1hao
v -7.374 36.111 0.000
v -64.899 36.221 0.000
v -64.890 40.764 0.000
v -7.365 40.654 0.000
v -7.374 36.111 13.490
v -64.899 36.221 13.490
v -64.890 40.764 13.490
v -7.365 40.654 13.490
usemtl roof
f 13 14 15 16
usemtl teaching_building
f 12 11 10 9
f 9 10 14 13
f 10 11 15 14
f 11 12 16 15
f 12 9 13 16
o SD0174_T001_1hao_seg02
v -76.393 14.124 0.000
v -75.688 36.907 0.000
v -65.667 36.608 0.000
v -66.372 13.815 0.000
v -76.393 14.124 13.490
v -75.688 36.907 13.490
v -65.667 36.608 13.490
v -66.372 13.815 13.490
usemtl roof
f 21 22 23 24
usemtl teaching_building
f 20 19 18 17
f 17 18 22 21
f 18 19 23 22
f 19 20 24 23
f 20 17 21 24
o SD0174_T002_2hao
v -4.944 21.343 0.000
v -5.239 14.191 0.000
v -0.041 13.969 0.000
v -0.452 4.120 0.000
v -58.879 6.508 0.000
v -58.174 23.520 0.000
v -4.944 21.343 20.500
v -5.239 14.191 20.500
v -0.041 13.969 20.500
v -0.452 4.120 20.500
v -58.879 6.508 20.500
v -58.174 23.520 20.500
usemtl roof
f 31 32 33 34 35 36
usemtl teaching_building
f 30 29 28 27 26 25
f 25 26 32 31
f 26 27 33 32
f 27 28 34 33
f 28 29 35 34
f 29 30 36 35
f 30 25 31 36
o SD0174_T003_3hao
v 25.296 -6.900 0.000
v 14.347 -6.646 0.000
v 14.874 16.070 0.000
v 25.823 15.827 0.000
v 25.296 -6.900 12.770
v 14.347 -6.646 12.770
v 14.874 16.070 12.770
v 25.823 15.827 12.770
usemtl roof
f 41 42 43 44
usemtl teaching_building
f 40 39 38 37
f 37 38 42 41
f 38 39 43 42
f 39 40 44 43
f 40 37 41 44
o SD0174_T004_4hao
v 78.034 -16.739 0.000
v 77.052 -59.396 0.000
v 49.946 -58.788 0.000
v 50.277 -44.208 0.000
v 63.575 -44.506 0.000
v 63.995 -26.311 0.000
v 29.601 -25.526 0.000
v 29.423 -33.331 0.000
v 16.865 -33.043 0.000
v 17.267 -15.357 0.000
v 78.034 -16.739 19.430
v 77.052 -59.396 19.430
v 49.946 -58.788 19.430
v 50.277 -44.208 19.430
v 63.575 -44.506 19.430
v 63.995 -26.311 19.430
v 29.601 -25.526 19.430
v 29.423 -33.331 19.430
v 16.865 -33.043 19.430
v 17.267 -15.357 19.430
usemtl roof
f 55 56 57 58 59 60 61 62 63 64
usemtl teaching_building
f 54 53 52 51 50 49 48 47 46 45
f 45 46 56 55
f 46 47 57 56
f 47 48 58 57
f 48 49 59 58
f 49 50 60 59
f 50 51 61 60
f 51 52 62 61
f 52 53 63 62
f 53 54 64 63
f 54 45 55 64
