# school_id SD0236
# school_name 青岛华科技工学校（城阳校区）
# boundary_source footprint_convex_hull_buffer_20m
# adjacent_block_merge_distance_m 2.0
mtllib ../campus_materials.mtl
o SD0236_campus_boundary
usemtl campus_boundary
v -56.175 -38.626 0.050
v -62.845 26.636 0.050
v 56.175 38.626 0.050
v 62.845 -26.636 0.050
v -56.175 -38.626 0.050
l 1 2 3 4 5 1
o SD0236_T001_1hao
v 38.309 16.725 0.000
v 40.912 -8.744 0.000
v -38.309 -16.725 0.000
v -40.912 8.744 0.000
v 38.309 16.725 11.750
v 40.912 -8.744 11.750
v -38.309 -16.725 11.750
v -40.912 8.744 11.750
usemtl roof
f 10 11 12 13
usemtl teaching_building
f 9 8 7 6
f 6 7 11 10
f 7 8 12 11
f 8 9 13 12
f 9 6 10 13
