# school_id SD0291
# school_name 青岛永宁路小学
# boundary_source footprint_convex_hull_buffer_20m
# adjacent_block_merge_distance_m 2.0
mtllib ../campus_materials.mtl
o SD0291_campus_boundary
usemtl campus_boundary
v -303.843 -105.366 0.050
v -310.764 -61.644 0.050
v 55.753 87.664 0.050
v 106.333 79.440 0.050
v 125.858 60.940 0.050
v 111.553 -25.714 0.050
v 90.223 -36.671 0.050
v -233.600 -94.408 0.050
v -303.843 -105.366 0.050
l 1 2 3 4 5 6 7 8 9 1
o SD0291_T001_1hao
v 58.092 67.021 0.000
v 97.046 60.687 0.000
v 96.120 55.072 0.000
v 104.396 53.723 0.000
v 93.460 -12.524 0.000
v 84.816 -11.120 0.000
v 83.756 -17.509 0.000
v 45.583 -11.297 0.000
v 48.612 7.064 0.000
v 57.903 5.561 0.000
v 57.328 2.112 0.000
v 79.937 -1.558 0.000
v 88.042 47.621 0.000
v 55.765 52.872 0.000
v 58.092 67.021 23.750
v 97.046 60.687 23.750
v 96.120 55.072 23.750
v 104.396 53.723 23.750
v 93.460 -12.524 23.750
v 84.816 -11.120 23.750
v 83.756 -17.509 23.750
v 45.583 -11.297 23.750
v 48.612 7.064 23.750
v 57.903 5.561 23.750
v 57.328 2.112 23.750
v 79.937 -1.558 23.750
v 88.042 47.621 23.750
v 55.765 52.872 23.750
usemtl roof
f 24 25 26 27 28 29 30 31 32 33 34 35 36 37
usemtl teaching_building
f 23 22 21 20 19 18 17 16 15 14 13 12 11 10
f 10 11 25 24
f 11 12 26 25
f 12 13 27 26
f 13 14 28 27
f 14 15 29 28
f 15 16 30 29
f 16 17 31 30
f 17 18 32 31
f 18 19 33 32
f 19 20 34 33
f 20 21 35 34
f 21 22 36 35
f 22 23 37 36
f 23 10 24 37
o SD0291_T002_2hao
v -288.530 -74.183 0.000
v -238.218 -66.334 0.000
v -236.897 -74.680 0.000
v -287.209 -82.529 0.000
v -288.530 -74.183 21.790
v -238.218 -66.334 21.790
v -236.897 -74.680 21.790
v -287.209 -82.529 21.790
usemtl roof
f 42 43 44 45
usemtl teaching_building
f 41 40 39 38
f 38 39 43 42
f 39 40 44 43
f 40 41 45 44
f 41 38 42 45
