# school_id SD0232
# school_name 青岛五十八附属实验学校
# boundary_source footprint_convex_hull_buffer_20m
# adjacent_block_merge_distance_m 2.0
mtllib ../campus_materials.mtl
o SD0232_campus_boundary
usemtl campus_boundary
v -34.085 -66.311 0.050
v -38.955 -30.307 0.050
v -45.604 18.873 0.050
v -50.471 54.877 0.050
v 32.059 66.036 0.050
v 41.133 14.194 0.050
v 43.648 -4.411 0.050
v 40.002 -56.293 0.050
v -34.085 -66.311 0.050
l 1 2 3 4 5 6 7 8 9 1
o SD0232_T001_1hao
v -22.282 5.228 0.000
v -16.773 5.973 0.000
v -16.773 5.973 0.000
v 3.909 8.769 0.000
v 1.678 25.266 0.000
v -25.784 21.553 0.000
v -27.972 37.737 0.000
v 10.166 42.894 0.000
v 10.166 42.894 0.000
v 15.675 43.639 0.000
v 20.094 10.957 0.000
v 21.365 11.129 0.000
v 23.553 -5.056 0.000
v 22.282 -5.228 0.000
v 22.282 -5.228 0.000
v 6.097 -7.416 0.000
v 6.097 -7.416 0.000
v -3.909 -8.769 0.000
v -1.678 -25.266 0.000
v 19.004 -22.469 0.000
v 21.192 -38.654 0.000
v -16.946 -43.811 0.000
v -19.135 -27.626 0.000
v -17.863 -27.454 0.000
v -22.282 5.228 16.500
v -16.773 5.973 16.500
v -16.773 5.973 16.500
v 3.909 8.769 16.500
v 1.678 25.266 16.500
v -25.784 21.553 16.500
v -27.972 37.737 16.500
v 10.166 42.894 16.500
v 10.166 42.894 16.500
v 15.675 43.639 16.500
v 20.094 10.957 16.500
v 21.365 11.129 16.500
v 23.553 -5.056 16.500
v 22.282 -5.228 16.500
v 22.282 -5.228 16.500
v 6.097 -7.416 16.500
v 6.097 -7.416 16.500
v -3.909 -8.769 16.500
v -1.678 -25.266 16.500
v 19.004 -22.469 16.500
v 21.192 -38.654 16.500
v -16.946 -43.811 16.500
v -19.135 -27.626 16.500
v -17.863 -27.454 16.500
usemtl roof
f 34 35 36 37 38 39 40 41 42 43 44 45 46 47 48 49 50 51 52 53 54 55 56 57
usemtl teaching_building
f 33 32 31 30 29 28 27 26 25 24 23 22 21 20 19 18 17 16 15 14 13 12 11 10
f 10 11 35 34
f 11 12 36 35
f 12 13 37 36
f 13 14 38 37
f 14 15 39 38
f 15 16 40 39
f 16 17 41 40
f 17 18 42 41
f 18 19 43 42
f 19 20 44 43
f 20 21 45 44
f 21 22 46 45
f 22 23 47 46
f 23 24 48 47
f 24 25 49 48
f 25 26 50 49
f 26 27 51 50
f 27 28 52 51
f 28 29 53 52
f 29 30 54 53
f 30 31 55 54
f 31 32 56 55
f 32 33 57 56
f 33 10 34 57
