# school_id SD0262
# school_name 青岛市为明学校(南区-2）（有光伏）
# boundary_source footprint_convex_hull_buffer_20m
# adjacent_block_merge_distance_m 2.0
mtllib ../campus_materials.mtl
o SD0262_campus_boundary
usemtl campus_boundary
v -20.766 -54.749 0.050
v -39.397 -7.452 0.050
v -52.526 25.878 0.050
v 20.766 54.749 0.050
v 39.397 7.452 0.050
v 52.526 -25.878 0.050
v 12.564 -41.620 0.050
v -20.766 -54.749 0.050
l 1 2 3 4 5 6 7 8 1
o SD0262_T001_1hao
v 20.789 0.122 0.000
v 26.588 -14.600 0.000
v 5.234 -23.012 0.000
v 5.234 -23.012 0.000
v -9.488 -28.811 0.000
v -20.789 -0.122 0.000
v -20.789 -0.122 0.000
v -26.588 14.600 0.000
v 9.488 28.811 0.000
v 15.287 14.089 0.000
v -6.067 5.677 0.000
v -0.565 -8.290 0.000
v 20.789 0.122 14.970
v 26.588 -14.600 14.970
v 5.234 -23.012 14.970
v 5.234 -23.012 14.970
v -9.488 -28.811 14.970
v -20.789 -0.122 14.970
v -20.789 -0.122 14.970
v -26.588 14.600 14.970
v 9.488 28.811 14.970
v 15.287 14.089 14.970
v -6.067 5.677 14.970
v -0.565 -8.290 14.970
usemtl roof
f 21 22 23 24 25 26 27 28 29 30 31 32
usemtl teaching_building
f 20 19 18 17 16 15 14 13 12 11 10 9
f 9 10 22 21
f 10 11 23 22
f 11 12 24 23
f 12 13 25 24
f 13 14 26 25
f 14 15 27 26
f 15 16 28 27
f 16 17 29 28
f 17 18 30 29
f 18 19 31 30
f 19 20 32 31
f 20 9 21 32
