# school_id SD0288
# school_name 青岛智荣中学
# boundary_source footprint_convex_hull_buffer_20m
# adjacent_block_merge_distance_m 2.0
mtllib ../campus_materials.mtl
o SD0288_campus_boundary
usemtl campus_boundary
v -29.505 -38.387 0.050
v -72.709 -15.529 0.050
v -32.316 59.726 0.050
v 61.986 19.150 0.050
v 53.118 -28.373 0.050
v 10.179 -36.834 0.050
v -29.505 -38.387 0.050
l 1 2 3 4 5 6 7 1
o SD0288_T001_1hao
v -45.572 -7.260 0.000
v -24.909 -18.192 0.000
v -19.356 -7.846 0.000
v -26.556 -4.032 0.000
v -9.907 26.975 0.000
v -23.370 34.104 0.000
v -45.572 -7.260 16.760
v -24.909 -18.192 16.760
v -19.356 -7.846 16.760
v -26.556 -4.032 16.760
v -9.907 26.975 16.760
v -23.370 34.104 16.760
usemtl roof
f 14 15 16 17 18 19
usemtl teaching_building
f 13 12 11 10 9 8
f 8 9 15 14
f 9 10 16 15
f 10 11 17 16
f 11 12 18 17
f 12 13 19 18
f 13 8 14 19
o SD0288_T002_2hao
v 6.031 -7.846 0.000
v 29.124 -3.302 0.000
v 31.337 8.581 0.000
v 39.392 7.099 0.000
v 35.945 -11.372 0.000
v 7.840 -16.910 0.000
v 6.031 -7.846 17.560
v 29.124 -3.302 17.560
v 31.337 8.581 17.560
v 39.392 7.099 17.560
v 35.945 -11.372 17.560
v 7.840 -16.910 17.560
usemtl roof
f 26 27 28 29 30 31
usemtl teaching_building
f 25 24 23 22 21 20
f 20 21 27 26
f 21 22 28 27
f 22 23 29 28
f 23 24 30 29
f 24 25 31 30
f 25 20 26 31
