# school_id SD0201
# school_name 山东省青岛第二十七中学
# boundary_source footprint_convex_hull_buffer_20m
# adjacent_block_merge_distance_m 2.0
mtllib ../campus_materials.mtl
o SD0201_campus_boundary
usemtl campus_boundary
v -46.821 -34.665 0.050
v -54.049 21.744 0.050
v 46.821 34.665 0.050
v 54.049 -21.744 0.050
v -46.821 -34.665 0.050
l 1 2 3 4 5 1
o SD0201_T001_1hao
v -31.669 4.447 0.000
v 29.525 12.286 0.000
v 31.669 -4.447 0.000
v -29.525 -12.286 0.000
v -31.669 4.447 27.210
v 29.525 12.286 27.210
v 31.669 -4.447 27.210
v -29.525 -12.286 27.210
usemtl roof
f 10 11 12 13
usemtl teaching_building
f 9 8 7 6
f 6 7 11 10
f 7 8 12 11
f 8 9 13 12
f 9 6 10 13
