# school_id SD0212
# school_name 撞上小学
# boundary_source footprint_convex_hull_buffer_20m
# adjacent_block_merge_distance_m 2.0
mtllib ../campus_materials.mtl
o SD0212_campus_boundary
usemtl campus_boundary
v -34.641 -63.929 0.050
v -47.032 -32.891 0.050
v -49.581 -21.495 0.050
v -55.943 8.739 0.050
v -62.023 46.781 0.050
v 37.894 67.700 0.050
v 49.607 30.683 0.050
v 51.289 20.026 0.050
v 63.181 -55.403 0.050
v 12.365 -60.259 0.050
v -34.641 -63.929 0.050
l 1 2 3 4 5 6 7 8 9 10 11 1
o SD0212_T001_1hao
v 10.635 -40.333 0.000
v 40.114 -37.516 0.000
v 37.433 -22.340 0.000
v 8.275 -28.436 0.000
v 10.635 -40.333 4.950
v 40.114 -37.516 4.950
v 37.433 -22.340 4.950
v 8.275 -28.436 4.950
usemtl roof
f 16 17 18 19
usemtl teaching_building
f 15 14 13 12
f 12 13 17 16
f 13 14 18 17
f 14 15 19 18
f 15 12 16 19
