# school_id SD0234
# school_name 青岛八大峡小学
# boundary_source footprint_convex_hull_buffer_20m
# adjacent_block_merge_distance_m 2.0
mtllib ../campus_materials.mtl
o SD0234_campus_boundary
usemtl campus_boundary
v -7.888 -64.118 0.050
v -50.202 -59.455 0.050
v -43.925 -3.106 0.050
v -38.283 35.609 0.050
v -22.965 48.134 0.050
v 21.518 45.755 0.050
v 67.967 40.557 0.050
v 63.857 4.204 0.050
v 31.560 -33.439 0.050
v -7.888 -64.118 0.050
l 1 2 3 4 5 6 7 8 9 10 1
o SD0234_T001_1hao
v 19.060 -6.728 0.000
v -8.029 -3.710 0.000
v -6.076 13.600 0.000
v 21.130 10.560 0.000
v 21.652 15.137 0.000
v 44.674 12.561 0.000
v 45.844 22.908 0.000
v 19.870 25.815 0.000
v 15.784 24.466 0.000
v -16.300 27.749 0.000
v -19.612 25.041 0.000
v -20.197 16.165 0.000
v -18.829 13.456 0.000
v -20.971 -5.081 0.000
v -24.085 -5.656 0.000
v -28.108 -41.769 0.000
v -13.762 -43.350 0.000
v -12.601 -32.926 0.000
v -9.541 -33.269 0.000
v -7.597 -16.080 0.000
v 17.692 -18.888 0.000
v 19.060 -6.728 16.590
v -8.029 -3.710 16.590
v -6.076 13.600 16.590
v 21.130 10.560 16.590
v 21.652 15.137 16.590
v 44.674 12.561 16.590
v 45.844 22.908 16.590
v 19.870 25.815 16.590
v 15.784 24.466 16.590
v -16.300 27.749 16.590
v -19.612 25.041 16.590
v -20.197 16.165 16.590
v -18.829 13.456 16.590
v -20.971 -5.081 16.590
v -24.085 -5.656 16.590
v -28.108 -41.769 16.590
v -13.762 -43.350 16.590
v -12.601 -32.926 16.590
v -9.541 -33.269 16.590
v -7.597 -16.080 16.590
v 17.692 -18.888 16.590
usemtl roof
f 32 33 34 35 36 37 38 39 40 41 42 43 44 45 46 47 48 49 50 51 52
usemtl teaching_building
f 31 30 29 28 27 26 25 24 23 22 21 20 19 18 17 16 15 14 13 12 11
f 11 12 33 32
f 12 13 34 33
f 13 14 35 34
f 14 15 36 35
f 15 16 37 36
f 16 17 38 37
f 17 18 39 38
f 18 19 40 39
f 19 20 41 40
f 20 21 42 41
f 21 22 43 42
f 22 23 44 43
f 23 24 45 44
f 24 25 46 45
f 25 26 47 46
f 26 27 48 47
f 27 28 49 48
f 28 29 50 49
f 29 30 51 50
f 30 31 52 51
f 31 11 32 52
