# school_id SD0249
# school_name 青岛大学附属中学
# boundary_source footprint_convex_hull_buffer_20m
# adjacent_block_merge_distance_m 2.0
mtllib ../campus_materials.mtl
o SD0249_campus_boundary
usemtl campus_boundary
v 81.139 -59.994 0.050
v -11.260 -57.637 0.050
v -91.596 -9.510 0.050
v -92.475 37.136 0.050
v 11.761 56.208 0.050
v 82.384 -12.261 0.050
v 81.139 -59.994 0.050
l 1 2 3 4 5 6 7 1
o SD0249_T001_1hao
v -72.158 20.521 0.000
v -14.041 21.615 0.000
v -13.690 3.056 0.000
v -71.808 1.950 0.000
v -72.158 20.521 13.780
v -14.041 21.615 13.780
v -13.690 3.056 13.780
v -71.808 1.950 13.780
usemtl roof
f 12 13 14 15
usemtl teaching_building
f 11 10 9 8
f 8 9 13 12
f 9 10 14 13
f 10 11 15 14
f 11 8 12 15
o SD0249_T002_2hao
v 5.232 34.681 0.000
v 14.959 23.826 0.000
v 16.300 -15.095 0.000
v 20.691 -19.450 0.000
v 62.162 -20.512 0.000
v 61.667 -39.491 0.000
v -5.493 -37.778 0.000
v -3.820 26.678 0.000
v 5.232 34.681 16.100
v 14.959 23.826 16.100
v 16.300 -15.095 16.100
v 20.691 -19.450 16.100
v 62.162 -20.512 16.100
v 61.667 -39.491 16.100
v -5.493 -37.778 16.100
v -3.820 26.678 16.100
usemtl roof
f 24 25 26 27 28 29 30 31
usemtl teaching_building
f 23 22 21 20 19 18 17 16
f 16 17 25 24
f 17 18 26 25
f 18 19 27 26
f 19 20 28 27
f 20 21 29 28
f 21 22 30 29
f 22 23 31 30
f 23 16 24 31
