# school_id SD0228
# school_name 青岛一中市南分校
# boundary_source footprint_convex_hull_buffer_20m
# adjacent_block_merge_distance_m 2.0
mtllib ../campus_materials.mtl
o SD0228_campus_boundary
usemtl campus_boundary
v 4.282 -93.434 0.050
v -85.045 39.652 0.050
v -7.271 91.140 0.050
v 30.091 35.561 0.050
v 43.813 15.127 0.050
v 68.218 -51.109 0.050
v 4.282 -93.434 0.050
l 1 2 3 4 5 6 7 1
o SD0228_T001_1hao
v 30.742 -23.450 0.000
v 6.952 -39.202 0.000
v -8.219 -16.608 0.000
v 25.874 5.965 0.000
v 13.493 24.403 0.000
v -21.725 1.068 0.000
v -33.053 17.936 0.000
v 2.156 41.260 0.000
v -12.790 63.501 0.000
v -57.222 34.086 0.000
v 9.813 -65.787 0.000
v 43.978 -43.170 0.000
v 30.742 -23.450 19.050
v 6.952 -39.202 19.050
v -8.219 -16.608 19.050
v 25.874 5.965 19.050
v 13.493 24.403 19.050
v -21.725 1.068 19.050
v -33.053 17.936 19.050
v 2.156 41.260 19.050
v -12.790 63.501 19.050
v -57.222 34.086 19.050
v 9.813 -65.787 19.050
v 43.978 -43.170 19.050
usemtl roof
f 20 21 22 23 24 25 26 27 28 29 30 31
usemtl teaching_building
f 19 18 17 16 15 14 13 12 11 10 9 8
f 8 9 21 20
f 9 10 22 21
f 10 11 23 22
f 11 12 24 23
f 12 13 25 24
f 13 14 26 25
f 14 15 27 26
f 15 16 28 27
f 16 17 29 28
f 17 18 30 29
f 18 19 31 30
f 19 8 20 31
