# school_id SD0254
# school_name 青岛宏文学校
# boundary_source footprint_convex_hull_buffer_20m
# adjacent_block_merge_distance_m 2.0
mtllib ../campus_materials.mtl
o SD0254_campus_boundary
usemtl campus_boundary
v 43.958 -62.763 0.050
v -60.715 -46.746 0.050
v -54.395 -5.443 0.050
v -43.958 62.763 0.050
v -2.655 56.443 0.050
v 60.715 46.746 0.050
v 54.395 5.443 0.050
v 43.958 -62.763 0.050
l 1 2 3 4 5 6 7 8 1
o SD0254_T001_1hao
v -34.625 -8.468 0.000
v -27.213 39.968 0.000
v -5.680 36.673 0.000
v -5.680 36.673 0.000
v 37.920 30.001 0.000
v 34.625 8.468 0.000
v -8.975 15.140 0.000
v -13.092 -11.763 0.000
v 30.508 -18.435 0.000
v 27.213 -39.968 0.000
v -37.920 -30.001 0.000
v -34.625 -8.468 0.000
v -34.625 -8.468 21.220
v -27.213 39.968 21.220
v -5.680 36.673 21.220
v -5.680 36.673 21.220
v 37.920 30.001 21.220
v 34.625 8.468 21.220
v -8.975 15.140 21.220
v -13.092 -11.763 21.220
v 30.508 -18.435 21.220
v 27.213 -39.968 21.220
v -37.920 -30.001 21.220
v -34.625 -8.468 21.220
usemtl roof
f 21 22 23 24 25 26 27 28 29 30 31 32
usemtl teaching_building
f 20 19 18 17 16 15 14 13 12 11 10 9
f 9 10 22 21
f 10 11 23 22
f 11 12 24 23
f 12 13 25 24
f 13 14 26 25
f 14 15 27 26
f 15 16 28 27
f 16 17 29 28
f 17 18 30 29
f 18 19 31 30
f 19 20 32 31
f 20 9 21 32
