# school_id SD0278
# school_name 青岛广水路小学
# boundary_source footprint_convex_hull_buffer_20m
# adjacent_block_merge_distance_m 2.0
mtllib ../campus_materials.mtl
o SD0278_campus_boundary
usemtl campus_boundary
v 73.066 -129.609 0.050
v -118.969 -123.518 0.050
v -117.440 -58.340 0.050
v -24.642 133.967 0.050
v 68.783 135.165 0.050
v 73.066 -129.609 0.050
l 1 2 3 4 5 6 1
o SD0278_T001_1hao
v 49.108 114.911 0.000
v 50.393 -36.617 0.000
v -12.323 -41.149 0.000
v -13.689 -21.860 0.000
v 32.575 -16.764 0.000
v 31.263 10.617 0.000
v -12.620 9.943 0.000
v -13.680 28.259 0.000
v 32.153 27.618 0.000
v 32.512 49.693 0.000
v -13.123 49.450 0.000
v -15.055 67.335 0.000
v 32.081 68.009 0.000
v 34.525 94.727 0.000
v -11.353 97.358 0.000
v -12.009 114.127 0.000
v 49.108 114.911 19.130
v 50.393 -36.617 19.130
v -12.323 -41.149 19.130
v -13.689 -21.860 19.130
v 32.575 -16.764 19.130
v 31.263 10.617 19.130
v -12.620 9.943 19.130
v -13.680 28.259 19.130
v 32.153 27.618 19.130
v 32.512 49.693 19.130
v -13.123 49.450 19.130
v -15.055 67.335 19.130
v 32.081 68.009 19.130
v 34.525 94.727 19.130
v -11.353 97.358 19.130
v -12.009 114.127 19.130
usemtl roof
f 23 24 25 26 27 28 29 30 31 32 33 34 35 36 37 38
usemtl teaching_building
f 22 21 20 19 18 17 16 15 14 13 12 11 10 9 8 7
f 7 8 24 23
f 8 9 25 24
f 9 10 26 25
f 10 11 27 26
f 11 12 28 27
f 12 13 29 28
f 13 14 30 29
f 14 15 31 30
f 15 16 32 31
f 16 17 33 32
f 17 18 34 33
f 18 19 35 34
f 19 20 36 35
f 20 21 37 36
f 21 22 38 37
f 22 7 23 38
o SD0278_T002_2hao
v -50.079 -64.130 0.000
v -51.094 -78.014 0.000
v 0.319 -78.401 0.000
v 3.517 -60.615 0.000
v 49.907 -58.250 0.000
v 52.729 -108.954 0.000
v -98.509 -104.157 0.000
v -97.547 -63.135 0.000
v -50.079 -64.130 19.060
v -51.094 -78.014 19.060
v 0.319 -78.401 19.060
v 3.517 -60.615 19.060
v 49.907 -58.250 19.060
v 52.729 -108.954 19.060
v -98.509 -104.157 19.060
v -97.547 -63.135 19.060
usemtl roof
f 47 48 49 50 51 52 53 54
usemtl teaching_building
f 46 45 44 43 42 41 40 39
f 39 40 48 47
f 40 41 49 48
f 41 42 50 49
f 42 43 51 50
f 43 44 52 51
f 44 45 53 52
f 45 46 54 53
f 46 39 47 54
