# school_id SD0220
# school_name 竹岔岛小学
# boundary_source footprint_convex_hull_buffer_20m
# adjacent_block_merge_distance_m 2.0
mtllib ../campus_materials.mtl
o SD0220_campus_boundary
usemtl campus_boundary
v -21.074 -61.077 0.050
v -62.689 20.474 0.050
v 0.819 58.209 0.050
v 32.959 17.950 0.050
v 38.287 5.166 0.050
v 46.140 -25.426 0.050
v -21.074 -61.077 0.050
l 1 2 3 4 5 6 7 1
o SD0220_T001_1hao
v -12.495 -33.887 0.000
v 22.851 -15.139 0.000
v 18.634 -7.921 0.000
v -15.685 -26.414 0.000
v -12.495 -33.887 6.600
v 22.851 -15.139 6.600
v 18.634 -7.921 6.600
v -15.685 -26.414 6.600
usemtl roof
f 12 13 14 15
usemtl teaching_building
f 11 10 9 8
f 8 9 13 12
f 9 10 14 13
f 10 11 15 14
f 11 8 12 15
