# school_id SD0293
# school_name 青岛海运职业学校
# boundary_source footprint_convex_hull_buffer_20m
# adjacent_block_merge_distance_m 2.0
mtllib ../campus_materials.mtl
o SD0293_campus_boundary
usemtl campus_boundary
v 123.524 -97.908 0.050
v 21.992 -73.497 0.050
v -93.369 -28.990 0.050
v -106.547 6.398 0.050
v -7.220 100.449 0.050
v 159.706 -69.145 0.050
v 123.524 -97.908 0.050
l 1 2 3 4 5 6 7 1
o SD0293_T001_1hao
v -17.268 25.957 0.000
v -6.759 35.762 0.000
v 9.167 21.215 0.000
v 3.436 16.152 0.000
v -0.388 18.054 0.000
v -5.481 12.040 0.000
v 3.751 3.186 0.000
v 22.862 20.895 0.000
v -7.398 54.101 0.000
v -26.824 36.392 0.000
v -17.268 25.957 18.860
v -6.759 35.762 18.860
v 9.167 21.215 18.860
v 3.436 16.152 18.860
v -0.388 18.054 18.860
v -5.481 12.040 18.860
v 3.751 3.186 18.860
v 22.862 20.895 18.860
v -7.398 54.101 18.860
v -26.824 36.392 18.860
usemtl roof
f 18 19 20 21 22 23 24 25 26 27
usemtl teaching_building
f 17 16 15 14 13 12 11 10 9 8
f 8 9 19 18
f 9 10 20 19
f 10 11 21 20
f 11 12 22 21
f 12 13 23 22
f 13 14 24 23
f 14 15 25 24
f 15 16 26 25
f 16 17 27 26
f 17 8 18 27
o SD0293_T002_2hao
v -77.769 -13.572 0.000
v -83.186 0.975 0.000
v -7.713 72.439 0.000
v -2.296 66.747 0.000
v -70.445 0.975 0.000
v -70.130 -9.780 0.000
v -77.769 -13.572 17.740
v -83.186 0.975 17.740
v -7.713 72.439 17.740
v -2.296 66.747 17.740
v -70.445 0.975 17.740
v -70.130 -9.780 17.740
usemtl roof
f 34 35 36 37 38 39
usemtl teaching_building
f 33 32 31 30 29 28
f 28 29 35 34
f 29 30 36 35
f 30 31 37 36
f 31 32 38 37
f 32 33 39 38
f 33 28 34 39
o SD0293_T003_3hao
v -11.213 1.296 0.000
v -33.185 -21.796 0.000
v -58.343 3.507 0.000
v -35.741 27.217 0.000
v -11.213 1.296 20.520
v -33.185 -21.796 20.520
v -58.343 3.507 20.520
v -35.741 27.217 20.520
usemtl roof
f 44 45 46 47
usemtl teaching_building
f 43 42 41 40
f 40 41 45 44
f 41 42 46 45
f 42 43 47 46
f 43 40 44 47
o SD0293_T004_4hao
v 60.113 -23.377 0.000
v 27.955 -54.361 0.000
v 14.260 -39.814 0.000
v 22.862 -31.280 0.000
v 11.390 -20.845 0.000
v 2.158 -27.798 0.000
v -2.935 -21.475 0.000
v 6.297 -13.892 0.000
v 4.065 -10.731 0.000
v 26.362 10.780 0.000
v 60.113 -23.377 17.580
v 27.955 -54.361 17.580
v 14.260 -39.814 17.580
v 22.862 -31.280 17.580
v 11.390 -20.845 17.580
v 2.158 -27.798 17.580
v -2.935 -21.475 17.580
v 6.297 -13.892 17.580
v 4.065 -10.731 17.580
v 26.362 10.780 17.580
usemtl roof
f 58 59 60 61 62 63 64 65 66 67
usemtl teaching_building
f 57 56 55 54 53 52 51 50 49 48
f 48 49 59 58
f 49 50 60 59
f 50 51 61 60
f 51 52 62 61
f 52 53 63 62
f 53 54 64 63
f 54 55 65 64
f 55 56 66 65
f 56 57 67 66
f 57 48 58 67
o SD0293_T005_5hao
v 70.946 -24.327 0.000
v 118.715 -76.182 0.000
v 129.854 -67.327 0.000
v 79.539 -16.413 0.000
v 70.946 -24.327 21.840
v 118.715 -76.182 21.840
v 129.854 -67.327 21.840
v 79.539 -16.413 21.840
usemtl roof
f 72 73 74 75
usemtl teaching_building
f 71 70 69 68
f 68 69 73 72
f 69 70 74 73
f 70 71 75 74
f 71 68 72 75
