# school_id SD0223
# school_name 胶州经济技术开发区黄河路小学
# boundary_source footprint_convex_hull_buffer_20m
# adjacent_block_merge_distance_m 2.0
mtllib ../campus_materials.mtl
o SD0223_campus_boundary
usemtl campus_boundary
v 46.410 -122.012 0.050
v 8.725 -121.881 0.050
v -22.194 -121.724 0.050
v -86.387 -118.675 0.050
v -111.168 -115.163 0.050
v -121.371 -94.878 0.050
v -121.371 -41.117 0.050
v -119.602 53.127 0.050
v -109.471 73.244 0.050
v -84.833 76.735 0.050
v 16.447 82.932 0.050
v 55.786 84.459 0.050
v 100.868 84.580 0.050
v 111.318 74.855 0.050
v 121.605 64.637 0.050
v 121.605 49.716 0.050
v 118.318 20.003 0.050
v 46.410 -122.012 0.050
l 1 2 3 4 5 6 7 8 9 10 11 12 13 14 15 16 17 18 1
o SD0223_T001_1hao
v -99.691 48.199 0.000
v -51.483 32.403 0.000
v -58.231 14.219 0.000
v -99.206 12.307 0.000
v -99.691 -0.615 0.000
v -49.075 -0.140 0.000
v -32.685 39.588 0.000
v -82.816 56.821 0.000
v -96.312 54.909 0.000
v -99.691 48.199 9.900
v -51.483 32.403 9.900
v -58.231 14.219 9.900
v -99.206 12.307 9.900
v -99.691 -0.615 9.900
v -49.075 -0.140 9.900
v -32.685 39.588 9.900
v -82.816 56.821 9.900
v -96.312 54.909 9.900
usemtl roof
f 28 29 30 31 32 33 34 35 36
usemtl teaching_building
f 27 26 25 24 23 22 21 20 19
f 19 20 29 28
f 20 21 30 29
f 21 22 31 30
f 22 23 32 31
f 23 24 33 32
f 24 25 34 33
f 25 26 35 34
f 26 27 36 35
f 27 19 28 36
o SD0223_T002_2hao
v 22.478 29.617 0.000
v 18.282 29.584 0.000
v 17.446 62.956 0.000
v 56.201 64.460 0.000
v 56.893 49.205 0.000
v 40.943 48.376 0.000
v 41.366 19.205 0.000
v 29.190 18.376 0.000
v 29.190 23.792 0.000
v 22.478 25.450 0.000
v 3.082 25.114 0.000
v 16.161 25.340 0.000
v 16.601 0.037 0.000
v -20.321 0.037 0.000
v -20.339 24.708 0.000
v -25.362 24.621 0.000
v -33.754 -1.632 0.000
v -34.590 -39.127 0.000
v -21.579 -78.723 0.000
v -21.597 -82.890 0.000
v -27.033 -82.890 0.000
v -41.302 -36.220 0.000
v -41.725 -1.632 0.000
v -28.713 29.208 0.000
v 22.478 29.617 9.900
v 18.282 29.584 9.900
v 17.446 62.956 9.900
v 56.201 64.460 9.900
v 56.893 49.205 9.900
v 40.943 48.376 9.900
v 41.366 19.205 9.900
v 29.190 18.376 9.900
v 29.190 23.792 9.900
v 22.478 25.450 9.900
v 3.082 25.114 9.900
v 16.161 25.340 9.900
v 16.601 0.037 9.900
v -20.321 0.037 9.900
v -20.339 24.708 9.900
v -25.362 24.621 9.900
v -33.754 -1.632 9.900
v -34.590 -39.127 9.900
v -21.579 -78.723 9.900
v -21.597 -82.890 9.900
v -27.033 -82.890 9.900
v -41.302 -36.220 9.900
v -41.725 -1.632 9.900
v -28.713 29.208 9.900
usemtl roof
f 61 62 63 64 65 66 67 68 69 70 71 72 73 74 75 76 77 78 79 80 81 82 83 84
usemtl teaching_building
f 60 59 58 57 56 55 54 53 52 51 50 49 48 47 46 45 44 43 42 41 40 39 38 37
f 37 38 62 61
f 38 39 63 62
f 39 40 64 63
f 40 41 65 64
f 41 42 66 65
f 42 43 67 66
f 43 44 68 67
f 44 45 69 68
f 45 46 70 69
f 46 47 71 70
f 47 48 72 71
f 48 49 73 72
f 49 50 74 73
f 50 51 75 74
f 51 52 76 75
f 52 53 77 76
f 53 54 78 77
f 54 55 79 78
f 55 56 80 79
f 56 57 81 80
f 57 58 82 81
f 58 59 83 82
f 59 60 84 83
f 60 37 61 84
o SD0223_T002_2hao_seg02
v 11.147 -68.719 0.000
v 34.231 -76.634 0.000
v 34.141 -101.969 0.000
v 8.811 -101.881 0.000
v 8.829 -96.442 0.000
v 3.374 -96.420 0.000
v 3.356 -101.815 0.000
v -21.669 -101.726 0.000
v -21.579 -78.723 0.000
v 6.106 -68.575 0.000
v 5.396 -76.556 0.000
v 10.033 -76.324 0.000
v 11.147 -68.719 9.900
v 34.231 -76.634 9.900
v 34.141 -101.969 9.900
v 8.811 -101.881 9.900
v 8.829 -96.442 9.900
v 3.374 -96.420 9.900
v 3.356 -101.815 9.900
v -21.669 -101.726 9.900
v -21.579 -78.723 9.900
v 6.106 -68.575 9.900
v 5.396 -76.556 9.900
v 10.033 -76.324 9.900
usemtl roof
f 97 98 99 100 101 102 103 104 105 106 107 108
usemtl teaching_building
f 96 95 94 93 92 91 90 89 88 87 86 85
f 85 86 98 97
f 86 87 99 98
f 87 88 100 99
f 88 89 101 100
f 89 90 102 101
f 90 91 103 102
f 91 92 104 103
f 92 93 105 104
f 93 94 106 105
f 94 95 107 106
f 95 96 108 107
f 96 85 97 108
o SD0223_T002_2hao_seg03
v -61.448 -22.469 0.000
v -61.026 -15.803 0.000
v -56.829 -10.376 0.000
v -51.375 -7.469 0.000
v -41.725 -7.049 0.000
v -41.302 -36.220 0.000
v -54.736 -33.302 0.000
v -59.345 -27.465 0.000
v -61.448 -22.469 9.900
v -61.026 -15.803 9.900
v -56.829 -10.376 9.900
v -51.375 -7.469 9.900
v -41.725 -7.049 9.900
v -41.302 -36.220 9.900
v -54.736 -33.302 9.900
v -59.345 -27.465 9.900
usemtl roof
f 117 118 119 120 121 122 123 124
usemtl teaching_building
f 116 115 114 113 112 111 110 109
f 109 110 118 117
f 110 111 119 118
f 111 112 120 119
f 112 113 121 120
f 113 114 122 121
f 114 115 123 122
f 115 116 124 123
f 116 109 117 124
o SD0223_T002_2hao_seg04
v 2.754 42.540 0.000
v 10.734 38.372 0.000
v 11.156 29.529 0.000
v -14.875 29.319 0.000
v -14.866 37.952 0.000
v -8.577 41.699 0.000
v -8.154 45.867 0.000
v 2.754 45.867 0.000
v 2.754 42.540 9.900
v 10.734 38.372 9.900
v 11.156 29.529 9.900
v -14.875 29.319 9.900
v -14.866 37.952 9.900
v -8.577 41.699 9.900
v -8.154 45.867 9.900
v 2.754 45.867 9.900
usemtl roof
f 133 134 135 136 137 138 139 140
usemtl teaching_building
f 132 131 130 129 128 127 126 125
f 125 126 134 133
f 126 127 135 134
f 127 128 136 135
f 128 129 137 136
f 129 130 138 137
f 130 131 139 138
f 131 132 140 139
f 132 125 133 140
o SD0223_T003_3hao
v -101.371 -90.131 0.000
v -53.172 -74.334 0.000
v -59.921 -56.139 0.000
v -100.895 -54.227 0.000
v -101.371 -41.305 0.000
v -50.764 -41.780 0.000
v -34.374 -81.508 0.000
v -84.505 -98.742 0.000
v -98.002 -96.829 0.000
v -101.371 -90.131 9.900
v -53.172 -74.334 9.900
v -59.921 -56.139 9.900
v -100.895 -54.227 9.900
v -101.371 -41.305 9.900
v -50.764 -41.780 9.900
v -34.374 -81.508 9.900
v -84.505 -98.742 9.900
v -98.002 -96.829 9.900
usemtl roof
f 150 151 152 153 154 155 156 157 158
usemtl teaching_building
f 149 148 147 146 145 144 143 142 141
f 141 142 151 150
f 142 143 152 151
f 143 144 153 152
f 144 145 154 153
f 145 146 155 154
f 146 147 156 155
f 147 148 157 156
f 148 149 158 157
f 149 141 150 158
