# school_id SD0294
# school_name 青岛湘潭路小学
# boundary_source footprint_convex_hull_buffer_20m
# adjacent_block_merge_distance_m 2.0
mtllib ../campus_materials.mtl
o SD0294_campus_boundary
usemtl campus_boundary
v -49.120 -61.651 0.050
v -60.218 0.029 0.050
v -67.528 40.662 0.050
v 49.120 61.651 0.050
v 60.218 -0.029 0.050
v 67.528 -40.662 0.050
v -49.120 -61.651 0.050
l 1 2 3 4 5 6 7 1
o SD0294_T001_1hao
v 40.534 -3.571 0.000
v 44.303 -24.520 0.000
v -32.978 -38.425 0.000
v -40.534 3.571 0.000
v -40.534 3.571 0.000
v -44.303 24.520 0.000
v 32.978 38.425 0.000
v 36.747 17.476 0.000
v -19.585 7.340 0.000
v -15.798 -13.707 0.000
v 40.534 -3.571 28.800
v 44.303 -24.520 28.800
v -32.978 -38.425 28.800
v -40.534 3.571 28.800
v -40.534 3.571 28.800
v -44.303 24.520 28.800
v 32.978 38.425 28.800
v 36.747 17.476 28.800
v -19.585 7.340 28.800
v -15.798 -13.707 28.800
usemtl roof
f 18 19 20 21 22 23 24 25 26 27
usemtl teaching_building
f 17 16 15 14 13 12 11 10 9 8
f 8 9 19 18
f 9 10 20 19
f 10 11 21 20
f 11 12 22 21
f 12 13 23 22
f 13 14 24 23
f 14 15 25 24
f 15 16 26 25
f 16 17 27 26
f 17 8 18 27
