# school_id SD0280
# school_name 青岛开发区富春江路小学
# boundary_source footprint_convex_hull_buffer_20m
# adjacent_block_merge_distance_m 2.0
mtllib ../campus_materials.mtl
o SD0280_campus_boundary
usemtl campus_boundary
v -34.926 -75.323 0.050
v -74.334 -14.919 0.050
v -29.532 39.868 0.050
v 19.196 71.822 0.050
v 42.229 40.292 0.050
v 65.947 -20.762 0.050
v -34.926 -75.323 0.050
l 1 2 3 4 5 6 7 1
o SD0280_T001_1hao
v -49.586 -16.249 0.000
v -30.159 -3.846 0.000
v -19.049 -20.935 0.000
v 20.652 1.670 0.000
v 13.434 22.065 0.000
v -5.452 10.767 0.000
v -15.995 24.828 0.000
v 14.263 44.670 0.000
v 24.535 30.609 0.000
v 40.917 -11.562 0.000
v -28.240 -48.968 0.000
v -49.586 -16.249 24.490
v -30.159 -3.846 24.490
v -19.049 -20.935 24.490
v 20.652 1.670 24.490
v 13.434 22.065 24.490
v -5.452 10.767 24.490
v -15.995 24.828 24.490
v 14.263 44.670 24.490
v 24.535 30.609 24.490
v 40.917 -11.562 24.490
v -28.240 -48.968 24.490
usemtl roof
f 19 20 21 22 23 24 25 26 27 28 29
usemtl teaching_building
f 18 17 16 15 14 13 12 11 10 9 8
f 8 9 20 19
f 9 10 21 20
f 10 11 22 21
f 11 12 23 22
f 12 13 24 23
f 13 14 25 24
f 14 15 26 25
f 15 16 27 26
f 16 17 28 27
f 17 18 29 28
f 18 8 19 29
