# school_id SD0227
# school_name 金色摇篮潜能开发婴幼园青岛旗舰园
# boundary_source footprint_convex_hull_buffer_20m
# adjacent_block_merge_distance_m 2.0
mtllib ../campus_materials.mtl
o SD0227_campus_boundary
usemtl campus_boundary
v -77.695 -95.030 0.050
v -177.973 -17.129 0.050
v -214.747 28.367 0.050
v -115.244 98.498 0.050
v 324.572 29.511 0.050
v 348.288 24.129 0.050
v 339.398 -12.163 0.050
v -77.695 -95.030 0.050
l 1 2 3 4 5 6 7 8 1
o SD0227_T001_1hao
v -110.342 77.485 0.000
v -46.708 -6.437 0.000
v -60.172 -16.806 0.000
v -39.300 -46.552 0.000
v -72.636 -73.634 0.000
v -100.573 -39.875 0.000
v -92.156 -33.851 0.000
v -132.900 19.640 0.000
v -163.874 -2.756 0.000
v -185.764 24.326 0.000
v -110.342 77.485 12.630
v -46.708 -6.437 12.630
v -60.172 -16.806 12.630
v -39.300 -46.552 12.630
v -72.636 -73.634 12.630
v -100.573 -39.875 12.630
v -92.156 -33.851 12.630
v -132.900 19.640 12.630
v -163.874 -2.756 12.630
v -185.764 24.326 12.630
usemtl roof
f 19 20 21 22 23 24 25 26 27 28
usemtl teaching_building
f 18 17 16 15 14 13 12 11 10 9
f 9 10 20 19
f 10 11 21 20
f 11 12 22 21
f 12 13 23 22
f 13 14 24 23
f 14 15 25 24
f 15 16 26 25
f 16 17 27 26
f 17 18 28 27
f 18 9 19 28
