# school_id SD0284
# school_name 青岛志贤中学初中部
# boundary_source footprint_convex_hull_buffer_20m
# adjacent_block_merge_distance_m 2.0
mtllib ../campus_materials.mtl
o SD0284_campus_boundary
usemtl campus_boundary
v -22.815 -110.017 0.050
v -86.027 -103.701 0.050
v -94.498 -44.208 0.050
v -30.350 124.586 0.050
v 91.426 202.162 0.050
v 131.465 222.054 0.050
v 143.039 193.012 0.050
v 146.402 -39.041 0.050
v 134.006 -48.647 0.050
v -22.815 -110.017 0.050
l 1 2 3 4 5 6 7 8 9 10 1
o SD0284_T001_1hao
v -69.411 -54.098 0.000
v -67.094 -63.505 0.000
v -66.121 -75.222 0.000
v -68.437 -85.359 0.000
v -62.129 -79.843 0.000
v -54.369 -76.637 0.000
v -45.978 -76.074 0.000
v -37.858 -78.218 0.000
v -30.855 -82.828 0.000
v -25.619 -89.637 0.000
v -27.250 -77.334 0.000
v -25.899 -68.690 0.000
v -17.499 -47.510 0.000
v -32.982 -54.430 0.000
v -49.899 -55.856 0.000
v -66.328 -51.611 0.000
v -73.971 -46.493 0.000
v -69.411 -54.098 8.070
v -67.094 -63.505 8.070
v -66.121 -75.222 8.070
v -68.437 -85.359 8.070
v -62.129 -79.843 8.070
v -54.369 -76.637 8.070
v -45.978 -76.074 8.070
v -37.858 -78.218 8.070
v -30.855 -82.828 8.070
v -25.619 -89.637 8.070
v -27.250 -77.334 8.070
v -25.899 -68.690 8.070
v -17.499 -47.510 8.070
v -32.982 -54.430 8.070
v -49.899 -55.856 8.070
v -66.328 -51.611 8.070
v -73.971 -46.493 8.070
usemtl roof
f 28 29 30 31 32 33 34 35 36 37 38 39 40 41 42 43 44
usemtl teaching_building
f 27 26 25 24 23 22 21 20 19 18 17 16 15 14 13 12 11
f 11 12 29 28
f 12 13 30 29
f 13 14 31 30
f 14 15 32 31
f 15 16 33 32
f 16 17 34 33
f 17 18 35 34
f 18 19 36 35
f 19 20 37 36
f 20 21 38 37
f 21 22 39 38
f 22 23 40 39
f 23 24 41 40
f 24 25 42 41
f 25 26 43 42
f 26 27 44 43
f 27 11 28 44
