# school_id SD0277
# school_name 青岛市重庆中路学校（九年一贯制）（装配式钢结构）
# boundary_source footprint_convex_hull_buffer_20m
# adjacent_block_merge_distance_m 2.0
mtllib ../campus_materials.mtl
o SD0277_campus_boundary
usemtl campus_boundary
v -71.488 -72.744 0.050
v -77.772 -26.881 0.050
v -88.418 50.839 0.050
v -42.555 57.123 0.050
v 71.488 72.744 0.050
v 77.772 26.881 0.050
v 88.418 -50.840 0.050
v -25.625 -66.462 0.050
v -71.488 -72.744 0.050
l 1 2 3 4 5 6 7 8 9 1
o SD0277_T001_1hao
v -57.957 -24.166 0.000
v -65.889 33.739 0.000
v -39.840 37.308 0.000
v -39.840 37.307 0.000
v 54.388 50.215 0.000
v 57.957 24.166 0.000
v -36.271 11.258 0.000
v -31.908 -20.598 0.000
v 62.320 -7.690 0.000
v 65.889 -33.739 0.000
v -28.339 -46.647 0.000
v -28.339 -46.647 0.000
v -54.388 -50.215 0.000
v -57.957 -24.166 0.000
v -57.957 -24.166 15.310
v -65.889 33.739 15.310
v -39.840 37.308 15.310
v -39.840 37.307 15.310
v 54.388 50.215 15.310
v 57.957 24.166 15.310
v -36.271 11.258 15.310
v -31.908 -20.598 15.310
v 62.320 -7.690 15.310
v 65.889 -33.739 15.310
v -28.339 -46.647 15.310
v -28.339 -46.647 15.310
v -54.388 -50.215 15.310
v -57.957 -24.166 15.310
usemtl roof
f 24 25 26 27 28 29 30 31 32 33 34 35 36 37
usemtl teaching_building
f 23 22 21 20 19 18 17 16 15 14 13 12 11 10
f 10 11 25 24
f 11 12 26 25
f 12 13 27 26
f 13 14 28 27
f 14 15 29 28
f 15 16 30 29
f 16 17 31 30
f 17 18 32 31
f 18 19 33 32
f 19 20 34 33
f 20 21 35 34
f 21 22 36 35
f 22 23 37 36
f 23 10 24 37
