# school_id SD0282
# school_name 青岛弘毅中学
# boundary_source footprint_convex_hull_buffer_20m
# adjacent_block_merge_distance_m 2.0
mtllib ../campus_materials.mtl
o SD0282_campus_boundary
usemtl campus_boundary
v 20.108 -74.589 0.050
v -8.369 -71.536 0.050
v -41.978 -52.393 0.050
v -67.547 63.914 0.050
v -37.218 115.416 0.050
v 91.541 40.630 0.050
v 71.583 6.744 0.050
v 20.108 -74.589 0.050
l 1 2 3 4 5 6 7 8 1
o SD0282_T001_1hao
v -30.072 88.137 0.000
v 64.096 33.442 0.000
v 54.512 17.170 0.000
v -8.737 53.881 0.000
v -15.399 42.572 0.000
v -46.327 60.535 0.000
v -30.072 88.137 42.600
v 64.096 33.442 42.600
v 54.512 17.170 42.600
v -8.737 53.881 42.600
v -15.399 42.572 42.600
v -46.327 60.535 42.600
usemtl roof
f 15 16 17 18 19 20
usemtl teaching_building
f 14 13 12 11 10 9
f 9 10 16 15
f 10 11 17 16
f 11 12 18 17
f 12 13 19 18
f 13 14 20 19
f 14 9 15 20
o SD0282_T002_2hao
v -4.745 -20.627 0.000
v 8.732 3.065 0.000
v 33.932 -11.062 0.000
v 9.864 -53.376 0.000
v 0.273 -47.996 0.000
v -2.093 -52.094 0.000
v -24.354 -39.415 0.000
v -11.336 -16.876 0.000
v -4.745 -20.627 13.020
v 8.732 3.065 13.020
v 33.932 -11.062 13.020
v 9.864 -53.376 13.020
v 0.273 -47.996 13.020
v -2.093 -52.094 13.020
v -24.354 -39.415 13.020
v -11.336 -16.876 13.020
usemtl roof
f 29 30 31 32 33 34 35 36
usemtl teaching_building
f 28 27 26 25 24 23 22 21
f 21 22 30 29
f 22 23 31 30
f 23 24 32 31
f 24 25 33 32
f 25 26 34 33
f 26 27 35 34
f 27 28 36 35
f 28 21 29 36
