# school_id SD0263
# school_name 青岛市城阳区实验中学
# boundary_source footprint_convex_hull_buffer_20m
# adjacent_block_merge_distance_m 2.0
mtllib ../campus_materials.mtl
o SD0263_campus_boundary
usemtl campus_boundary
v 68.640 -72.371 0.050
v -25.473 -72.133 0.050
v -61.858 -71.757 0.050
v -64.022 -2.647 0.050
v -64.748 36.114 0.050
v -64.315 78.714 0.050
v 1.084 80.089 0.050
v 55.100 79.562 0.050
v 69.009 -34.848 0.050
v 68.640 -72.371 0.050
l 1 2 3 4 5 6 7 8 9 10 1
o SD0263_T001_1hao
v 37.166 40.135 0.000
v 37.363 59.734 0.000
v 1.197 60.087 0.000
v 1.188 58.683 0.000
v -44.513 59.126 0.000
v -44.746 36.200 0.000
v 0.767 35.746 0.000
v 0.713 30.816 0.000
v 8.194 30.750 0.000
v 8.185 29.501 0.000
v 31.515 29.269 0.000
v 31.623 40.190 0.000
v 37.166 40.135 14.750
v 37.363 59.734 14.750
v 1.197 60.087 14.750
v 1.188 58.683 14.750
v -44.513 59.126 14.750
v -44.746 36.200 14.750
v 0.767 35.746 14.750
v 0.713 30.816 14.750
v 8.194 30.750 14.750
v 8.185 29.501 14.750
v 31.515 29.269 14.750
v 31.623 40.190 14.750
usemtl roof
f 23 24 25 26 27 28 29 30 31 32 33 34
usemtl teaching_building
f 22 21 20 19 18 17 16 15 14 13 12 11
f 11 12 24 23
f 12 13 25 24
f 13 14 26 25
f 14 15 27 26
f 15 16 28 27
f 16 17 29 28
f 17 18 30 29
f 18 19 31 30
f 19 20 32 31
f 20 21 33 32
f 21 22 34 33
f 22 11 23 34
o SD0263_T002_2hao
v 10.077 11.715 0.000
v 10.158 18.966 0.000
v 4.471 19.022 0.000
v 4.444 16.413 0.000
v -3.010 16.490 0.000
v -3.072 10.411 0.000
v -28.968 10.676 0.000
v -28.923 15.849 0.000
v -43.840 17.021 0.000
v -44.028 -2.147 0.000
v 10.678 -2.688 0.000
v 10.606 -9.741 0.000
v 39.695 -10.028 0.000
v 39.911 11.417 0.000
v 10.077 11.715 15.090
v 10.158 18.966 15.090
v 4.471 19.022 15.090
v 4.444 16.413 15.090
v -3.010 16.490 15.090
v -3.072 10.411 15.090
v -28.968 10.676 15.090
v -28.923 15.849 15.090
v -43.840 17.021 15.090
v -44.028 -2.147 15.090
v 10.678 -2.688 15.090
v 10.606 -9.741 15.090
v 39.695 -10.028 15.090
v 39.911 11.417 15.090
usemtl roof
f 49 50 51 52 53 54 55 56 57 58 59 60 61 62
usemtl teaching_building
f 48 47 46 45 44 43 42 41 40 39 38 37 36 35
f 35 36 50 49
f 36 37 51 50
f 37 38 52 51
f 38 39 53 52
f 39 40 54 53
f 40 41 55 54
f 41 42 56 55
f 42 43 57 56
f 43 44 58 57
f 44 45 59 58
f 45 46 60 59
f 46 47 61 60
f 47 48 62 61
f 48 35 49 62
o SD0263_T003_3hao
v 36.170 -39.100 0.000
v 12.544 -38.868 0.000
v 12.616 -31.838 0.000
v -6.382 -31.650 0.000
v -6.454 -38.680 0.000
v -25.210 -38.492 0.000
v -25.147 -31.893 0.000
v -42.261 -31.727 0.000
v -42.468 -51.956 0.000
v -25.344 -52.133 0.000
v -25.335 -50.541 0.000
v 36.054 -51.149 0.000
v 36.036 -52.188 0.000
v 48.836 -52.321 0.000
v 48.997 -35.961 0.000
v 36.206 -35.828 0.000
v 36.170 -39.100 14.450
v 12.544 -38.868 14.450
v 12.616 -31.838 14.450
v -6.382 -31.650 14.450
v -6.454 -38.680 14.450
v -25.210 -38.492 14.450
v -25.147 -31.893 14.450
v -42.261 -31.727 14.450
v -42.468 -51.956 14.450
v -25.344 -52.133 14.450
v -25.335 -50.541 14.450
v 36.054 -51.149 14.450
v 36.036 -52.188 14.450
v 48.836 -52.321 14.450
v 48.997 -35.961 14.450
v 36.206 -35.828 14.450
usemtl roof
f 79 80 81 82 83 84 85 86 87 88 89 90 91 92 93 94
usemtl teaching_building
f 78 77 76 75 74 73 72 71 70 69 68 67 66 65 64 63
f 63 64 80 79
f 64 65 81 80
f 65 66 82 81
f 66 67 83 82
f 67 68 84 83
f 68 69 85 84
f 69 70 86 85
f 70 71 87 86
f 71 72 88 87
f 72 73 89 88
f 73 74 90 89
f 74 75 91 90
f 75 76 92 91
f 76 77 93 92
f 77 78 94 93
f 78 63 79 94
