# school_id SD0286
# school_name 青岛文昌小学
# boundary_source footprint_convex_hull_buffer_20m
# adjacent_block_merge_distance_m 2.0
mtllib ../campus_materials.mtl
o SD0286_campus_boundary
usemtl campus_boundary
v -40.641 -63.899 0.050
v -58.343 -3.369 0.050
v -68.666 31.936 0.050
v 40.641 63.899 0.050
v 58.343 3.369 0.050
v 68.666 -31.936 0.050
v -40.641 -63.899 0.050
l 1 2 3 4 5 6 7 1
o SD0286_T001_1hao
v 39.147 -2.245 0.000
v 43.857 -18.353 0.000
v -27.059 -39.090 0.000
v -39.147 2.245 0.000
v -39.147 2.245 0.000
v -43.857 18.353 0.000
v 27.059 39.090 0.000
v 31.769 22.983 0.000
v -23.039 6.955 0.000
v -15.662 -18.273 0.000
v 39.147 -2.245 12.810
v 43.857 -18.353 12.810
v -27.059 -39.090 12.810
v -39.147 2.245 12.810
v -39.147 2.245 12.810
v -43.857 18.353 12.810
v 27.059 39.090 12.810
v 31.769 22.983 12.810
v -23.039 6.955 12.810
v -15.662 -18.273 12.810
usemtl roof
f 18 19 20 21 22 23 24 25 26 27
usemtl teaching_building
f 17 16 15 14 13 12 11 10 9 8
f 8 9 19 18
f 9 10 20 19
f 10 11 21 20
f 11 12 22 21
f 12 13 23 22
f 13 14 24 23
f 14 15 25 24
f 15 16 26 25
f 16 17 27 26
f 17 8 18 27
