# school_id SD0289
# school_name 青岛榉园学校
# boundary_source footprint_convex_hull_buffer_20m
# adjacent_block_merge_distance_m 2.0
mtllib ../campus_materials.mtl
o SD0289_campus_boundary
usemtl campus_boundary
v 45.403 -49.492 0.050
v -21.163 -35.291 0.050
v -71.381 6.528 0.050
v -61.871 45.760 0.050
v 59.734 16.766 0.050
v 45.403 -49.492 0.050
l 1 2 3 4 5 6 1
o SD0289_T001_1hao
v -47.128 21.684 0.000
v 3.030 9.635 0.000
v 1.140 1.886 0.000
v -49.009 13.924 0.000
v -47.128 21.684 10.720
v 3.030 9.635 10.720
v 1.140 1.886 10.720
v -49.009 13.924 10.720
usemtl roof
f 11 12 13 14
usemtl teaching_building
f 10 9 8 7
f 7 8 12 11
f 8 9 13 12
f 9 10 14 13
f 10 7 11 14
o SD0289_T002_2hao
v -8.974 -2.027 0.000
v 22.098 -8.660 0.000
v 24.887 4.240 0.000
v 36.046 1.853 0.000
v 30.071 -25.771 0.000
v -12.160 -16.762 0.000
v -8.974 -2.027 16.210
v 22.098 -8.660 16.210
v 24.887 4.240 16.210
v 36.046 1.853 16.210
v 30.071 -25.771 16.210
v -12.160 -16.762 16.210
usemtl roof
f 21 22 23 24 25 26
usemtl teaching_building
f 20 19 18 17 16 15
f 15 16 22 21
f 16 17 23 22
f 17 18 24 23
f 18 19 25 24
f 19 20 26 25
f 20 15 21 26
