# school_id SD0252
# school_name 青岛天龙中学
# boundary_source footprint_convex_hull_buffer_20m
# adjacent_block_merge_distance_m 2.0
mtllib ../campus_materials.mtl
o SD0252_campus_boundary
usemtl campus_boundary
v 77.301 -35.213 0.050
v -80.463 -27.222 0.050
v -78.312 15.239 0.050
v -75.705 66.695 0.050
v -30.031 64.382 0.050
v 80.183 21.686 0.050
v 77.301 -35.213 0.050
l 1 2 3 4 5 6 7 1
o SD0252_T001_1hao
v -58.338 14.227 0.000
v -56.743 45.709 0.000
v -34.256 44.570 0.000
v -35.851 13.088 0.000
v 59.477 8.259 0.000
v 58.338 -14.227 0.000
v -59.477 -8.259 0.000
v -58.338 14.227 0.000
v -58.338 14.227 15.510
v -56.743 45.709 15.510
v -34.256 44.570 15.510
v -35.851 13.088 15.510
v 59.477 8.259 15.510
v 58.338 -14.227 15.510
v -59.477 -8.259 15.510
v -58.338 14.227 15.510
usemtl roof
f 16 17 18 19 20 21 22 23
usemtl teaching_building
f 15 14 13 12 11 10 9 8
f 8 9 17 16
f 9 10 18 17
f 10 11 19 18
f 11 12 20 19
f 12 13 21 20
f 13 14 22 21
f 14 15 23 22
f 15 8 16 23
