# school_id SD0238
# school_name 青岛台东六路小学
# boundary_source footprint_convex_hull_buffer_20m
# adjacent_block_merge_distance_m 2.0
mtllib ../campus_materials.mtl
o SD0238_campus_boundary
usemtl campus_boundary
v 80.924 -71.377 0.050
v -48.829 -68.860 0.050
v -82.021 -43.789 0.050
v -72.667 -17.235 0.050
v -49.153 13.563 0.050
v -14.861 57.584 0.050
v 1.706 60.189 0.050
v 12.637 59.057 0.050
v 70.718 14.989 0.050
v 116.714 -22.278 0.050
v 80.924 -71.377 0.050
l 1 2 3 4 5 6 7 8 9 10 11 1
o SD0238_T001_1hao
v -41.953 -48.990 0.000
v -34.567 -39.340 0.000
v -41.089 -34.410 0.000
v -2.153 16.361 0.000
v -3.817 17.610 0.000
v 1.419 24.419 0.000
v 49.603 -12.136 0.000
v 58.375 -0.751 0.000
v 5.008 39.740 0.000
v 4.487 39.055 0.000
v 2.238 40.027 0.000
v -1.838 38.226 0.000
v -3.943 39.055 0.000
v -14.909 24.651 0.000
v -12.453 22.805 0.000
v -30.455 -0.806 0.000
v -33.316 1.349 0.000
v -54.853 -26.860 0.000
v -52.289 -28.795 0.000
v -58.299 -36.643 0.000
v -41.953 -48.990 19.750
v -34.567 -39.340 19.750
v -41.089 -34.410 19.750
v -2.153 16.361 19.750
v -3.817 17.610 19.750
v 1.419 24.419 19.750
v 49.603 -12.136 19.750
v 58.375 -0.751 19.750
v 5.008 39.740 19.750
v 4.487 39.055 19.750
v 2.238 40.027 19.750
v -1.838 38.226 19.750
v -3.943 39.055 19.750
v -14.909 24.651 19.750
v -12.453 22.805 19.750
v -30.455 -0.806 19.750
v -33.316 1.349 19.750
v -54.853 -26.860 19.750
v -52.289 -28.795 19.750
v -58.299 -36.643 19.750
usemtl roof
f 32 33 34 35 36 37 38 39 40 41 42 43 44 45 46 47 48 49 50 51
usemtl teaching_building
f 31 30 29 28 27 26 25 24 23 22 21 20 19 18 17 16 15 14 13 12
f 12 13 33 32
f 13 14 34 33
f 14 15 35 34
f 15 16 36 35
f 16 17 37 36
f 17 18 38 37
f 18 19 39 38
f 19 20 40 39
f 20 21 41 40
f 21 22 42 41
f 22 23 43 42
f 23 24 44 43
f 24 25 45 44
f 25 26 46 45
f 26 27 47 46
f 27 28 48 47
f 28 29 49 48
f 29 30 50 49
f 30 31 51 50
f 31 12 32 51
o SD0238_T002_2hao
v 89.358 -25.854 0.000
v 70.898 -51.179 0.000
v 43.054 -31.171 0.000
v 61.506 -5.836 0.000
v 89.358 -25.854 10.410
v 70.898 -51.179 10.410
v 43.054 -31.171 10.410
v 61.506 -5.836 10.410
usemtl roof
f 56 57 58 59
usemtl teaching_building
f 55 54 53 52
f 52 53 57 56
f 53 54 58 57
f 54 55 59 58
f 55 52 56 59
