# school_id SD0276
# school_name 青岛市西海岸新区第五高级中学
# boundary_source footprint_convex_hull_buffer_20m
# adjacent_block_merge_distance_m 2.0
mtllib ../campus_materials.mtl
o SD0276_campus_boundary
usemtl campus_boundary
v -42.985 -64.217 0.050
v -55.989 13.331 0.050
v -61.185 51.359 0.050
v 47.646 66.013 0.050
v 60.606 15.681 0.050
v 64.508 -14.083 0.050
v 5.033 -56.640 0.050
v -42.985 -64.217 0.050
l 1 2 3 4 5 6 7 8 1
o SD0276_T001_1hao
v -36.214 16.339 0.000
v 35.151 25.948 0.000
v 32.708 43.821 0.000
v -38.656 34.212 0.000
v -36.214 16.339 9.900
v 35.151 25.948 9.900
v 32.708 43.821 9.900
v -38.656 34.212 9.900
usemtl roof
f 13 14 15 16
usemtl teaching_building
f 12 11 10 9
f 9 10 14 13
f 10 11 15 14
f 11 12 16 15
f 12 9 13 16
o SD0276_T002_2hao
v -5.268 -11.040 0.000
v 43.119 -4.795 0.000
v 40.934 11.874 0.000
v -7.446 5.629 0.000
v -5.268 -11.040 9.900
v 43.119 -4.795 9.900
v 40.934 11.874 9.900
v -7.446 5.629 9.900
usemtl roof
f 21 22 23 24
usemtl teaching_building
f 20 19 18 17
f 17 18 22 21
f 18 19 23 22
f 19 20 24 23
f 20 17 21 24
o SD0276_T003_3hao
v -26.536 -41.374 0.000
v -2.758 -37.622 0.000
v -5.624 -19.629 0.000
v -29.410 -23.363 0.000
v -26.536 -41.374 9.900
v -2.758 -37.622 9.900
v -5.624 -19.629 9.900
v -29.410 -23.363 9.900
usemtl roof
f 29 30 31 32
usemtl teaching_building
f 28 27 26 25
f 25 26 30 29
f 26 27 31 30
f 27 28 32 31
f 28 25 29 32
