# school_id SD0269
# school_name 青岛市市南区实验小学分校
# boundary_source footprint_convex_hull_buffer_20m
# adjacent_block_merge_distance_m 2.0
mtllib ../campus_materials.mtl
o SD0269_campus_boundary
usemtl campus_boundary
v -15.297 -54.661 0.050
v -98.463 14.934 0.050
v -76.969 40.253 0.050
v -46.266 57.507 0.050
v 52.093 39.129 0.050
v 91.459 8.449 0.050
v 60.620 -30.560 0.050
v -15.297 -54.661 0.050
l 1 2 3 4 5 6 7 8 1
o SD0269_T001_1hao
v 63.280 5.054 0.000
v 48.730 -13.351 0.000
v 35.692 -13.351 0.000
v 24.120 -4.320 0.000
v 43.637 20.363 0.000
v 63.280 5.054 17.640
v 48.730 -13.351 17.640
v 35.692 -13.351 17.640
v 24.120 -4.320 17.640
v 43.637 20.363 17.640
usemtl roof
f 14 15 16 17 18
usemtl teaching_building
f 13 12 11 10 9
f 9 10 15 14
f 10 11 16 15
f 11 12 17 16
f 12 13 18 17
f 13 9 14 18
o SD0269_T002_2hao
v -1.237 1.726 0.000
v -4.296 -1.877 0.000
v 0.590 -5.967 0.000
v -5.286 -12.887 0.000
v -2.434 -15.264 0.000
v 18.964 -6.807 0.000
v 23.697 -18.613 0.000
v -10.883 -32.276 0.000
v -70.181 17.346 0.000
v -64.044 24.575 0.000
v -57.548 19.136 0.000
v -42.800 36.513 0.000
v -1.237 1.726 28.630
v -4.296 -1.877 28.630
v 0.590 -5.967 28.630
v -5.286 -12.887 28.630
v -2.434 -15.264 28.630
v 18.964 -6.807 28.630
v 23.697 -18.613 28.630
v -10.883 -32.276 28.630
v -70.181 17.346 28.630
v -64.044 24.575 28.630
v -57.548 19.136 28.630
v -42.800 36.513 28.630
usemtl roof
f 31 32 33 34 35 36 37 38 39 40 41 42
usemtl teaching_building
f 30 29 28 27 26 25 24 23 22 21 20 19
f 19 20 32 31
f 20 21 33 32
f 21 22 34 33
f 22 23 35 34
f 23 24 36 35
f 24 25 37 36
f 25 26 38 37
f 26 27 39 38
f 27 28 40 39
f 28 29 41 40
f 29 30 42 41
f 30 19 31 42
