# school_id SD0270
# school_name 青岛市心理健康教育基地
# boundary_source footprint_convex_hull_buffer_20m
# adjacent_block_merge_distance_m 2.0
mtllib ../campus_materials.mtl
o SD0270_campus_boundary
usemtl campus_boundary
v -0.289 -32.471 0.050
v -13.274 -30.876 0.050
v -26.829 -20.107 0.050
v -36.302 25.787 0.050
v -5.718 31.990 0.050
v 18.766 34.537 0.050
v 46.859 7.335 0.050
v 12.123 -28.879 0.050
v -0.289 -32.471 0.050
l 1 2 3 4 5 6 7 8 9 1
o SD0270_T001_1hao
v -2.688 12.197 0.000
v -0.394 1.088 0.000
v 11.556 13.679 0.000
v 18.646 6.814 0.000
v 1.406 -11.160 0.000
v -1.915 -12.121 0.000
v -5.244 -11.712 0.000
v -8.708 -8.960 0.000
v -12.658 10.175 0.000
v -2.688 12.197 13.240
v -0.394 1.088 13.240
v 11.556 13.679 13.240
v 18.646 6.814 13.240
v 1.406 -11.160 13.240
v -1.915 -12.121 13.240
v -5.244 -11.712 13.240
v -8.708 -8.960 13.240
v -12.658 10.175 13.240
usemtl roof
f 19 20 21 22 23 24 25 26 27
usemtl teaching_building
f 18 17 16 15 14 13 12 11 10
f 10 11 20 19
f 11 12 21 20
f 12 13 22 21
f 13 14 23 22
f 14 15 24 23
f 15 16 25 24
f 16 17 26 25
f 17 18 27 26
f 18 10 19 27
