# school_id SD0257
# school_name 青岛富源路小学
# boundary_source footprint_convex_hull_buffer_20m
# adjacent_block_merge_distance_m 2.0
mtllib ../campus_materials.mtl
o SD0257_campus_boundary
usemtl campus_boundary
v -48.710 -60.000 0.050
v -55.203 -26.794 0.050
v -57.091 25.903 0.050
v -52.503 60.852 0.050
v 33.532 45.236 0.050
v 57.408 20.168 0.050
v 23.223 -48.124 0.050
v -48.710 -60.000 0.050
l 1 2 3 4 5 6 7 8 1
o SD0257_T001_1hao
v -37.044 24.953 0.000
v -35.407 37.422 0.000
v 23.546 26.722 0.000
v 33.232 16.552 0.000
v 19.994 2.469 0.000
v 10.308 -19.219 0.000
v 9.903 -30.052 0.000
v -32.808 -37.104 0.000
v -35.272 -24.503 0.000
v -37.044 24.953 20.550
v -35.407 37.422 20.550
v 23.546 26.722 20.550
v 33.232 16.552 20.550
v 19.994 2.469 20.550
v 10.308 -19.219 20.550
v 9.903 -30.052 20.550
v -32.808 -37.104 20.550
v -35.272 -24.503 20.550
usemtl roof
f 18 19 20 21 22 23 24 25 26
usemtl teaching_building
f 17 16 15 14 13 12 11 10 9
f 9 10 19 18
f 10 11 20 19
f 11 12 21 20
f 12 13 22 21
f 13 14 23 22
f 14 15 24 23
f 15 16 25 24
f 16 17 26 25
f 17 9 18 26
