# school_id SD0208
# school_name 市北区实验小学
# boundary_source footprint_convex_hull_buffer_20m
# adjacent_block_merge_distance_m 2.0
mtllib ../campus_materials.mtl
o SD0208_campus_boundary
usemtl campus_boundary
v -9.693 -51.407 0.050
v -38.321 -24.167 0.050
v -40.375 48.149 0.050
v 3.275 47.267 0.050
v 47.533 0.203 0.050
v 48.777 -49.824 0.050
v -9.693 -51.407 0.050
l 1 2 3 4 5 6 7 1
o SD0208_T001_1hao
v -18.563 -15.360 0.000
v -1.927 -31.189 0.000
v 28.287 -30.371 0.000
v 27.729 -7.932 0.000
v 21.907 -8.064 0.000
v 22.186 -13.027 0.000
v -0.964 -13.436 0.000
v -1.513 -7.932 0.000
v -8.864 -8.064 0.000
v -9.143 4.869 0.000
v -7.613 5.002 0.000
v -7.757 13.270 0.000
v -6.507 13.812 0.000
v -6.921 21.384 0.000
v -5.013 21.870 0.000
v -5.535 27.441 0.000
v -19.787 27.729 0.000
v -18.563 -15.360 19.130
v -1.927 -31.189 19.130
v 28.287 -30.371 19.130
v 27.729 -7.932 19.130
v 21.907 -8.064 19.130
v 22.186 -13.027 19.130
v -0.964 -13.436 19.130
v -1.513 -7.932 19.130
v -8.864 -8.064 19.130
v -9.143 4.869 19.130
v -7.613 5.002 19.130
v -7.757 13.270 19.130
v -6.507 13.812 19.130
v -6.921 21.384 19.130
v -5.013 21.870 19.130
v -5.535 27.441 19.130
v -19.787 27.729 19.130
usemtl roof
f 25 26 27 28 29 30 31 32 33 34 35 36 37 38 39 40 41
usemtl teaching_building
f 24 23 22 21 20 19 18 17 16 15 14 13 12 11 10 9 8
f 8 9 26 25
f 9 10 27 26
f 10 11 28 27
f 11 12 29 28
f 12 13 30 29
f 13 14 31 30
f 14 15 32 31
f 15 16 33 32
f 16 17 34 33
f 17 18 35 34
f 18 19 36 35
f 19 20 37 36
f 20 21 38 37
f 21 22 39 38
f 22 23 40 39
f 23 24 41 40
f 24 8 25 41
