# school_id SD0261
# school_name 青岛市为明学校(南区-1）
# boundary_source footprint_convex_hull_buffer_20m
# adjacent_block_merge_distance_m 2.0
mtllib ../campus_materials.mtl
o SD0261_campus_boundary
usemtl campus_boundary
v -28.999 -80.642 0.050
v -41.113 -45.263 0.050
v -72.340 45.945 0.050
v -36.961 58.059 0.050
v 28.999 80.642 0.050
v 41.113 45.263 0.050
v 72.340 -45.945 0.050
v -28.999 -80.642 0.050
l 1 2 3 4 5 6 7 8 1
o SD0261_T001_1hao
v -46.940 33.502 0.000
v -30.482 39.137 0.000
v -30.482 39.137 0.000
v 16.556 55.242 0.000
v 22.191 38.784 0.000
v -24.847 22.679 0.000
v -18.107 2.994 0.000
v 24.169 17.468 0.000
v 29.803 1.010 0.000
v -12.473 -13.464 0.000
v -5.733 -33.149 0.000
v 41.305 -17.044 0.000
v 46.940 -33.502 0.000
v -16.556 -55.242 0.000
v -22.191 -38.784 0.000
v -22.191 -38.784 0.000
v -46.940 33.502 14.970
v -30.482 39.137 14.970
v -30.482 39.137 14.970
v 16.556 55.242 14.970
v 22.191 38.784 14.970
v -24.847 22.679 14.970
v -18.107 2.994 14.970
v 24.169 17.468 14.970
v 29.803 1.010 14.970
v -12.473 -13.464 14.970
v -5.733 -33.149 14.970
v 41.305 -17.044 14.970
v 46.940 -33.502 14.970
v -16.556 -55.242 14.970
v -22.191 -38.784 14.970
v -22.191 -38.784 14.970
usemtl roof
f 25 26 27 28 29 30 31 32 33 34 35 36 37 38 39 40
usemtl teaching_building
f 24 23 22 21 20 19 18 17 16 15 14 13 12 11 10 9
f 9 10 26 25
f 10 11 27 26
f 11 12 28 27
f 12 13 29 28
f 13 14 30 29
f 14 15 31 30
f 15 16 32 31
f 16 17 33 32
f 17 18 34 33
f 18 19 35 34
f 19 20 36 35
f 20 21 37 36
f 21 22 38 37
f 22 23 39 38
f 23 24 40 39
f 24 9 25 40
