# school_id SD0299
# school_name 青岛第二十六中学
# boundary_source footprint_convex_hull_buffer_20m
# adjacent_block_merge_distance_m 2.0
mtllib ../campus_materials.mtl
o SD0299_campus_boundary
usemtl campus_boundary
v -9.160 -68.182 0.050
v -72.363 0.323 0.050
v -37.075 32.753 0.050
v 34.054 60.737 0.050
v 80.673 11.487 0.050
v -9.160 -68.182 0.050
l 1 2 3 4 5 6 1
o SD0299_T001_1hao
v -26.285 15.506 0.000
v -12.752 0.251 0.000
v 28.811 37.182 0.000
v 51.946 12.742 0.000
v -7.758 -40.207 0.000
v -44.075 -0.843 0.000
v -26.285 15.506 18.950
v -12.752 0.251 18.950
v 28.811 37.182 18.950
v 51.946 12.742 18.950
v -7.758 -40.207 18.950
v -44.075 -0.843 18.950
usemtl roof
f 13 14 15 16 17 18
usemtl teaching_building
f 12 11 10 9 8 7
f 7 8 14 13
f 8 9 15 14
f 9 10 16 15
f 10 11 17 16
f 11 12 18 17
f 12 7 13 18
