# school_id SD0226
# school_name 蓼兰中学
# boundary_source footprint_convex_hull_buffer_20m
# adjacent_block_merge_distance_m 2.0
mtllib ../campus_materials.mtl
o SD0226_campus_boundary
usemtl campus_boundary
v -58.011 -46.899 0.050
v -64.404 8.928 0.050
v -66.355 37.479 0.050
v -8.804 41.317 0.050
v 57.876 44.454 0.050
v 64.671 -4.428 0.050
v 67.605 -41.911 0.050
v 10.074 -46.363 0.050
v -58.011 -46.899 0.050
l 1 2 3 4 5 6 7 8 9 1
o SD0226_T001_1hao
v 9.223 -26.369 0.000
v 46.104 -23.515 0.000
v 44.779 -6.587 0.000
v 7.890 -9.450 0.000
v 9.223 -26.369 9.900
v 46.104 -23.515 9.900
v 44.779 -6.587 9.900
v 7.890 -9.450 9.900
usemtl roof
f 14 15 16 17
usemtl teaching_building
f 13 12 11 10
f 10 11 15 14
f 11 12 16 15
f 12 13 17 16
f 13 10 14 17
o SD0226_T002_2hao
v -40.187 -26.758 0.000
v -4.982 -23.784 0.000
v -6.000 -11.942 0.000
v -41.197 -14.907 0.000
v -40.187 -26.758 9.900
v -4.982 -23.784 9.900
v -6.000 -11.942 9.900
v -41.197 -14.907 9.900
usemtl roof
f 22 23 24 25
usemtl teaching_building
f 21 20 19 18
f 18 19 23 22
f 19 20 24 23
f 20 21 25 24
f 21 18 22 25
