# school_id SD0273
# school_name 青岛市盲人高级中学
# boundary_source footprint_convex_hull_buffer_20m
# adjacent_block_merge_distance_m 2.0
mtllib ../campus_materials.mtl
o SD0273_campus_boundary
usemtl campus_boundary
v 48.220 -53.073 0.050
v -2.397 -35.492 0.050
v -46.575 -16.264 0.050
v -69.449 1.027 0.050
v -55.436 40.937 0.050
v 47.166 36.189 0.050
v 61.118 -16.493 0.050
v 48.220 -53.073 0.050
l 1 2 3 4 5 6 7 8 1
o SD0273_T001_1hao
v -41.495 20.270 0.000
v -9.609 9.216 0.000
v -8.557 12.234 0.000
v 10.715 5.557 0.000
v 6.747 -5.740 0.000
v 23.716 -11.610 0.000
v 17.166 13.118 0.000
v 31.588 16.888 0.000
v 40.207 -15.655 0.000
v 35.978 -27.649 0.000
v 4.885 -16.849 0.000
v 6.027 -13.599 0.000
v -36.412 1.125 0.000
v -35.215 4.518 0.000
v -45.741 8.177 0.000
v -41.495 20.270 16.870
v -9.609 9.216 16.870
v -8.557 12.234 16.870
v 10.715 5.557 16.870
v 6.747 -5.740 16.870
v 23.716 -11.610 16.870
v 17.166 13.118 16.870
v 31.588 16.888 16.870
v 40.207 -15.655 16.870
v 35.978 -27.649 16.870
v 4.885 -16.849 16.870
v 6.027 -13.599 16.870
v -36.412 1.125 16.870
v -35.215 4.518 16.870
v -45.741 8.177 16.870
usemtl roof
f 24 25 26 27 28 29 30 31 32 33 34 35 36 37 38
usemtl teaching_building
f 23 22 21 20 19 18 17 16 15 14 13 12 11 10 9
f 9 10 25 24
f 10 11 26 25
f 11 12 27 26
f 12 13 28 27
f 13 14 29 28
f 14 15 30 29
f 15 16 31 30
f 16 17 32 31
f 17 18 33 32
f 18 19 34 33
f 19 20 35 34
f 20 21 36 35
f 21 22 37 36
f 22 23 38 37
f 23 9 24 38
