# school_id SD0296
# school_name 青岛第一中学
# boundary_source footprint_convex_hull_buffer_20m
# adjacent_block_merge_distance_m 2.0
mtllib ../campus_materials.mtl
o SD0296_campus_boundary
usemtl campus_boundary
v -37.742 -89.683 0.050
v -54.078 -78.245 0.050
v -61.763 -66.208 0.050
v -71.263 -39.826 0.050
v -76.440 -23.195 0.050
v -70.576 8.767 0.050
v -34.366 67.223 0.050
v -18.545 76.614 0.050
v 62.627 97.428 0.050
v 78.465 81.881 0.050
v 96.951 53.854 0.050
v 103.292 35.193 0.050
v 58.130 -54.538 0.050
v 8.729 -85.051 0.050
v -37.742 -89.683 0.050
l 1 2 3 4 5 6 7 8 9 10 11 12 13 14 15 1
o SD0296_T001_1hao
v -24.291 11.538 0.000
v -27.360 9.548 0.000
v -10.981 -15.379 0.000
v -8.677 -13.887 0.000
v -4.493 -20.254 0.000
v 1.645 -16.274 0.000
v 3.130 -18.518 0.000
v 76.187 29.025 0.000
v 74.288 31.910 0.000
v 81.658 36.696 0.000
v 76.978 43.782 0.000
v 78.841 44.987 0.000
v 62.939 69.096 0.000
v 61.392 68.090 0.000
v 56.667 75.253 0.000
v 49.962 70.898 0.000
v 49.125 72.169 0.000
v 40.351 66.487 0.000
v 41.791 64.287 0.000
v 33.098 58.661 0.000
v 34.745 56.151 0.000
v 26.915 51.089 0.000
v 28.346 48.911 0.000
v 4.840 33.734 0.000
v 3.589 35.635 0.000
v -4.259 30.573 0.000
v -5.716 32.794 0.000
v -13.429 27.809 0.000
v -14.851 29.976 0.000
v -22.293 25.167 0.000
v -20.952 23.133 0.000
v -28.638 18.159 0.000
v -24.291 11.538 26.180
v -27.360 9.548 26.180
v -10.981 -15.379 26.180
v -8.677 -13.887 26.180
v -4.493 -20.254 26.180
v 1.645 -16.274 26.180
v 3.130 -18.518 26.180
v 76.187 29.025 26.180
v 74.288 31.910 26.180
v 81.658 36.696 26.180
v 76.978 43.782 26.180
v 78.841 44.987 26.180
v 62.939 69.096 26.180
v 61.392 68.090 26.180
v 56.667 75.253 26.180
v 49.962 70.898 26.180
v 49.125 72.169 26.180
v 40.351 66.487 26.180
v 41.791 64.287 26.180
v 33.098 58.661 26.180
v 34.745 56.151 26.180
v 26.915 51.089 26.180
v 28.346 48.911 26.180
v 4.840 33.734 26.180
v 3.589 35.635 26.180
v -4.259 30.573 26.180
v -5.716 32.794 26.180
v -13.429 27.809 26.180
v -14.851 29.976 26.180
v -22.293 25.167 26.180
v -20.952 23.133 26.180
v -28.638 18.159 26.180
usemtl roof
f 48 49 50 51 52 53 54 55 56 57 58 59 60 61 62 63 64 65 66 67 68 69 70 71 72 73 74 75 76 77 78 79
usemtl teaching_building
f 47 46 45 44 43 42 41 40 39 38 37 36 35 34 33 32 31 30 29 28 27 26 25 24 23 22 21 20 19 18 17 16
f 16 17 49 48
f 17 18 50 49
f 18 19 51 50
f 19 20 52 51
f 20 21 53 52
f 21 22 54 53
f 22 23 55 54
f 23 24 56 55
f 24 25 57 56
f 25 26 58 57
f 26 27 59 58
f 27 28 60 59
f 28 29 61 60
f 29 30 62 61
f 30 31 63 62
f 31 32 64 63
f 32 33 65 64
f 33 34 66 65
f 34 35 67 66
f 35 36 68 67
f 36 37 69 68
f 37 38 70 69
f 38 39 71 70
f 39 40 72 71
f 40 41 73 72
f 41 42 74 73
f 42 43 75 74
f 43 44 76 75
f 44 45 77 76
f 45 46 78 77
f 46 47 79 78
f 47 16 48 79
o SD0296_T002_2hao
v -43.046 6.939 0.000
v -18.946 -30.070 0.000
v -27.486 -35.553 0.000
v -51.586 1.445 0.000
v -43.046 6.939 20.620
v -18.946 -30.070 20.620
v -27.486 -35.553 20.620
v -51.586 1.445 20.620
usemtl roof
f 84 85 86 87
usemtl teaching_building
f 83 82 81 80
f 80 81 85 84
f 81 82 86 85
f 82 83 87 86
f 83 80 84 87
o SD0296_T003_3hao
v -55.879 -21.956 0.000
v -49.624 -31.783 0.000
v -52.297 -33.463 0.000
v -43.271 -47.646 0.000
v -33.713 -41.643 0.000
v -49.003 -17.645 0.000
v -55.879 -21.956 16.050
v -49.624 -31.783 16.050
v -52.297 -33.463 16.050
v -43.271 -47.646 16.050
v -33.713 -41.643 16.050
v -49.003 -17.645 16.050
usemtl roof
f 94 95 96 97 98 99
usemtl teaching_building
f 93 92 91 90 89 88
f 88 89 95 94
f 89 90 96 95
f 90 91 97 96
f 91 92 98 97
f 92 93 99 98
f 93 88 94 99
o SD0296_T004_4hao
v -3.665 -56.334 0.000
v 14.397 -45.169 0.000
v 11.454 -40.483 0.000
v 21.300 -34.403 0.000
v 24.440 -39.432 0.000
v 37.201 -31.551 0.000
v 42.808 -40.494 0.000
v 2.149 -65.608 0.000
v -3.665 -56.334 13.390
v 14.397 -45.169 13.390
v 11.454 -40.483 13.390
v 21.300 -34.403 13.390
v 24.440 -39.432 13.390
v 37.201 -31.551 13.390
v 42.808 -40.494 13.390
v 2.149 -65.608 13.390
usemtl roof
f 108 109 110 111 112 113 114 115
usemtl teaching_building
f 107 106 105 104 103 102 101 100
f 100 101 109 108
f 101 102 110 109
f 102 103 111 110
f 103 104 112 111
f 104 105 113 112
f 105 106 114 113
f 106 107 115 114
f 107 100 108 115
o SD0296_T005_5hao
v -39.356 -64.138 0.000
v -36.593 -62.403 0.000
v -32.346 -69.046 0.000
v -20.439 -61.540 0.000
v -23.814 -56.257 0.000
v -20.529 -54.190 0.000
v -25.623 -46.220 0.000
v -31.554 -49.956 0.000
v -29.637 -52.952 0.000
v -33.911 -55.638 0.000
v -35.954 -52.443 0.000
v -43.703 -57.329 0.000
v -39.356 -64.138 15.810
v -36.593 -62.403 15.810
v -32.346 -69.046 15.810
v -20.439 -61.540 15.810
v -23.814 -56.257 15.810
v -20.529 -54.190 15.810
v -25.623 -46.220 15.810
v -31.554 -49.956 15.810
v -29.637 -52.952 15.810
v -33.911 -55.638 15.810
v -35.954 -52.443 15.810
v -43.703 -57.329 15.810
usemtl roof
f 128 129 130 131 132 133 134 135 136 137 138 139
usemtl teaching_building
f 127 126 125 124 123 122 121 120 119 118 117 116
f 116 117 129 128
f 117 118 130 129
f 118 119 131 130
f 119 120 132 131
f 120 121 133 132
f 121 122 134 133
f 122 123 135 134
f 123 124 136 135
f 124 125 137 136
f 125 126 138 137
f 126 127 139 138
f 127 116 128 139
