# school_id SD0271
# school_name 青岛市晨星实验学校
# boundary_source footprint_convex_hull_buffer_20m
# adjacent_block_merge_distance_m 2.0
mtllib ../campus_materials.mtl
o SD0271_campus_boundary
usemtl campus_boundary
v 10.269 -75.451 0.050
v -34.074 -66.581 0.050
v -70.889 -14.535 0.050
v -57.624 68.959 0.050
v 6.687 59.225 0.050
v 58.852 49.437 0.050
v 50.818 7.288 0.050
v 35.614 -54.036 0.050
v 10.269 -75.451 0.050
l 1 2 3 4 5 6 7 8 9 1
o SD0271_T001_1hao
v 1.833 31.577 0.000
v 24.616 27.299 0.000
v 21.953 13.316 0.000
v 31.274 11.570 0.000
v 35.450 33.479 0.000
v 3.345 39.503 0.000
v 1.833 31.577 10.760
v 24.616 27.299 10.760
v 21.953 13.316 10.760
v 31.274 11.570 10.760
v 35.450 33.479 10.760
v 3.345 39.503 10.760
usemtl roof
f 16 17 18 19 20 21
usemtl teaching_building
f 15 14 13 12 11 10
f 10 11 17 16
f 11 12 18 17
f 12 13 19 18
f 13 14 20 19
f 14 15 21 20
f 15 10 16 21
o SD0271_T002_2hao
v -19.887 42.908 0.000
v -28.759 -12.937 0.000
v -49.859 -9.632 0.000
v -40.987 46.213 0.000
v -19.887 42.908 14.170
v -28.759 -12.937 14.170
v -49.859 -9.632 14.170
v -40.987 46.213 14.170
usemtl roof
f 26 27 28 29
usemtl teaching_building
f 25 24 23 22
f 22 23 27 26
f 23 24 28 27
f 24 25 29 28
f 25 22 26 29
o SD0271_T003_3hao
v -21.084 -42.330 0.000
v 1.833 -46.917 0.000
v 12.793 7.137 0.000
v 27.333 4.230 0.000
v 17.760 -42.938 0.000
v 4.731 -53.947 0.000
v -22.344 -48.531 0.000
v -21.084 -42.330 12.460
v 1.833 -46.917 12.460
v 12.793 7.137 12.460
v 27.333 4.230 12.460
v 17.760 -42.938 12.460
v 4.731 -53.947 12.460
v -22.344 -48.531 12.460
usemtl roof
f 37 38 39 40 41 42 43
usemtl teaching_building
f 36 35 34 33 32 31 30
f 30 31 38 37
f 31 32 39 38
f 32 33 40 39
f 33 34 41 40
f 34 35 42 41
f 35 36 43 42
f 36 30 37 43
