# school_id SD0206
# school_name 崂山区浮山学校
# boundary_source footprint_convex_hull_buffer_20m
# adjacent_block_merge_distance_m 2.0
mtllib ../campus_materials.mtl
o SD0206_campus_boundary
usemtl campus_boundary
v -22.922 -80.613 0.050
v -67.829 6.498 0.050
v -86.435 44.106 0.050
v 11.201 91.730 0.050
v 57.381 -0.986 0.050
v 73.489 -33.571 0.050
v -22.922 -80.613 0.050
l 1 2 3 4 5 6 7 1
o SD0206_T001_1hao
v -49.976 15.515 0.000
v -0.466 39.668 0.000
v 11.657 15.161 0.000
v -36.693 -8.428 0.000
v -14.110 -54.059 0.000
v 46.651 -24.412 0.000
v 39.465 -9.876 0.000
v 28.133 -15.414 0.000
v 29.860 -18.907 0.000
v -7.131 -36.947 0.000
v -19.029 -12.883 0.000
v 29.087 10.574 0.000
v 2.142 65.059 0.000
v -59.590 34.948 0.000
v -49.976 15.515 11.160
v -0.466 39.668 11.160
v 11.657 15.161 11.160
v -36.693 -8.428 11.160
v -14.110 -54.059 11.160
v 46.651 -24.412 11.160
v 39.465 -9.876 11.160
v 28.133 -15.414 11.160
v 29.860 -18.907 11.160
v -7.131 -36.947 11.160
v -19.029 -12.883 11.160
v 29.087 10.574 11.160
v 2.142 65.059 11.160
v -59.590 34.948 11.160
usemtl roof
f 22 23 24 25 26 27 28 29 30 31 32 33 34 35
usemtl teaching_building
f 21 20 19 18 17 16 15 14 13 12 11 10 9 8
f 8 9 23 22
f 9 10 24 23
f 10 11 25 24
f 11 12 26 25
f 12 13 27 26
f 13 14 28 27
f 14 15 29 28
f 15 16 30 29
f 16 17 31 30
f 17 18 32 31
f 18 19 33 32
f 19 20 34 33
f 20 21 35 34
f 21 8 22 35
