# school_id SD0287
# school_name 青岛文登路小学
# boundary_source footprint_convex_hull_buffer_20m
# adjacent_block_merge_distance_m 2.0
mtllib ../campus_materials.mtl
o SD0287_campus_boundary
usemtl campus_boundary
v -27.159 -61.519 0.050
v -50.371 13.122 0.050
v -34.051 44.244 0.050
v -5.682 51.202 0.050
v 39.643 17.981 0.050
v 56.968 -35.727 0.050
v -27.159 -61.519 0.050
l 1 2 3 4 5 6 7 1
o SD0287_T001_1hao
v -17.342 5.778 0.000
v -9.836 -17.248 0.000
v 14.021 -9.576 0.000
v 10.331 1.732 0.000
v 22.597 5.678 0.000
v 31.704 -22.554 0.000
v -13.976 -36.559 0.000
v -28.816 11.161 0.000
v -20.527 26.968 0.000
v -9.980 29.555 0.000
v -7.982 21.518 0.000
v -17.342 5.778 14.050
v -9.836 -17.248 14.050
v 14.021 -9.576 14.050
v 10.331 1.732 14.050
v 22.597 5.678 14.050
v 31.704 -22.554 14.050
v -13.976 -36.559 14.050
v -28.816 11.161 14.050
v -20.527 26.968 14.050
v -9.980 29.555 14.050
v -7.982 21.518 14.050
usemtl roof
f 19 20 21 22 23 24 25 26 27 28 29
usemtl teaching_building
f 18 17 16 15 14 13 12 11 10 9 8
f 8 9 20 19
f 9 10 21 20
f 10 11 22 21
f 11 12 23 22
f 12 13 24 23
f 13 14 25 24
f 14 15 26 25
f 15 16 27 26
f 16 17 28 27
f 17 18 29 28
f 18 8 19 29
