# school_id SD0231
# school_name 青岛五十八中
# boundary_source footprint_convex_hull_buffer_20m
# adjacent_block_merge_distance_m 2.0
mtllib ../campus_materials.mtl
o SD0231_campus_boundary
usemtl campus_boundary
v -45.733 -77.808 0.050
v -70.933 -17.718 0.050
v -75.398 0.156 0.050
v -38.541 41.151 0.050
v -29.691 50.330 0.050
v -4.712 57.451 0.050
v 7.437 55.666 0.050
v 61.883 39.024 0.050
v 66.981 22.468 0.050
v 76.836 -31.581 0.050
v 60.709 -52.087 0.050
v 8.682 -65.264 0.050
v -45.733 -77.808 0.050
l 1 2 3 4 5 6 7 8 9 10 11 12 13 1
o SD0231_T001_1hao
v -24.207 1.388 0.000
v -26.598 9.447 0.000
v -30.723 8.684 0.000
v -28.584 0.316 0.000
v -33.213 1.797 0.000
v -36.035 -0.933 0.000
v -43.558 -0.270 0.000
v -47.683 -4.205 0.000
v -53.418 -5.310 0.000
v -51.899 -11.390 0.000
v -45.544 -9.654 0.000
v -44.852 -12.772 0.000
v -37.042 -13.943 0.000
v -32.134 -9.544 0.000
v -26.912 -11.158 0.000
v -22.957 -6.946 0.000
v -17.699 -8.980 0.000
v -13.439 -4.205 0.000
v -8.774 -5.973 0.000
v -4.703 -2.160 0.000
v 0.816 -3.951 0.000
v 5.472 0.217 0.000
v 10.478 -1.397 0.000
v 14.118 2.317 0.000
v 19.466 0.571 0.000
v 23.637 5.213 0.000
v 27.996 3.036 0.000
v 32.598 6.761 0.000
v 37.793 5.246 0.000
v 40.929 9.204 0.000
v 39.779 14.366 0.000
v 47.518 17.715 0.000
v 45.891 22.999 0.000
v 35.806 21.584 0.000
v 29.901 15.880 0.000
v 24.805 17.925 0.000
v 21.479 14.896 0.000
v 19.673 21.916 0.000
v 16.356 20.832 0.000
v 18.172 14.078 0.000
v 15.125 14.587 0.000
v 10.047 11.127 0.000
v 5.409 11.613 0.000
v -0.344 8.308 0.000
v -4.909 24.392 0.000
v 2.721 26.503 0.000
v 4.609 30.682 0.000
v 3.036 36.098 0.000
v -3.364 37.038 0.000
v -7.453 32.030 0.000
v -13.646 30.052 0.000
v -19.030 32.572 0.000
v -23.901 27.520 0.000
v -22.382 22.325 0.000
v -17.601 20.810 0.000
v -11.237 22.546 0.000
v -6.671 6.573 0.000
v -12.235 6.871 0.000
v -14.814 4.296 0.000
v -22.364 4.152 0.000
v -24.207 1.388 18.460
v -26.598 9.447 18.460
v -30.723 8.684 18.460
v -28.584 0.316 18.460
v -33.213 1.797 18.460
v -36.035 -0.933 18.460
v -43.558 -0.270 18.460
v -47.683 -4.205 18.460
v -53.418 -5.310 18.460
v -51.899 -11.390 18.460
v -45.544 -9.654 18.460
v -44.852 -12.772 18.460
v -37.042 -13.943 18.460
v -32.134 -9.544 18.460
v -26.912 -11.158 18.460
v -22.957 -6.946 18.460
v -17.699 -8.980 18.460
v -13.439 -4.205 18.460
v -8.774 -5.973 18.460
v -4.703 -2.160 18.460
v 0.816 -3.951 18.460
v 5.472 0.217 18.460
v 10.478 -1.397 18.460
v 14.118 2.317 18.460
v 19.466 0.571 18.460
v 23.637 5.213 18.460
v 27.996 3.036 18.460
v 32.598 6.761 18.460
v 37.793 5.246 18.460
v 40.929 9.204 18.460
v 39.779 14.366 18.460
v 47.518 17.715 18.460
v 45.891 22.999 18.460
v 35.806 21.584 18.460
v 29.901 15.880 18.460
v 24.805 17.925 18.460
v 21.479 14.896 18.460
v 19.673 21.916 18.460
v 16.356 20.832 18.460
v 18.172 14.078 18.460
v 15.125 14.587 18.460
v 10.047 11.127 18.460
v 5.409 11.613 18.460
v -0.344 8.308 18.460
v -4.909 24.392 18.460
v 2.721 26.503 18.460
v 4.609 30.682 18.460
v 3.036 36.098 18.460
v -3.364 37.038 18.460
v -7.453 32.030 18.460
v -13.646 30.052 18.460
v -19.030 32.572 18.460
v -23.901 27.520 18.460
v -22.382 22.325 18.460
v -17.601 20.810 18.460
v -11.237 22.546 18.460
v -6.671 6.573 18.460
v -12.235 6.871 18.460
v -14.814 4.296 18.460
v -22.364 4.152 18.460
usemtl roof
f 74 75 76 77 78 79 80 81 82 83 84 85 86 87 88 89 90 91 92 93 94 95 96 97 98 99 100 101 102 103 104 105 106 107 108 109 110 111 112 113 114 115 116 117 118 119 120 121 122 123 124 125 126 127 128 129 130 131 132 133
usemtl teaching_building
f 73 72 71 70 69 68 67 66 65 64 63 62 61 60 59 58 57 56 55 54 53 52 51 50 49 48 47 46 45 44 43 42 41 40 39 38 37 36 35 34 33 32 31 30 29 28 27 26 25 24 23 22 21 20 19 18 17 16 15 14
f 14 15 75 74
f 15 16 76 75
f 16 17 77 76
f 17 18 78 77
f 18 19 79 78
f 19 20 80 79
f 20 21 81 80
f 21 22 82 81
f 22 23 83 82
f 23 24 84 83
f 24 25 85 84
f 25 26 86 85
f 26 27 87 86
f 27 28 88 87
f 28 29 89 88
f 29 30 90 89
f 30 31 91 90
f 31 32 92 91
f 32 33 93 92
f 33 34 94 93
f 34 35 95 94
f 35 36 96 95
f 36 37 97 96
f 37 38 98 97
f 38 39 99 98
f 39 40 100 99
f 40 41 101 100
f 41 42 102 101
f 42 43 103 102
f 43 44 104 103
f 44 45 105 104
f 45 46 106 105
f 46 47 107 106
f 47 48 108 107
f 48 49 109 108
f 49 50 110 109
f 50 51 111 110
f 51 52 112 111
f 52 53 113 112
f 53 54 114 113
f 54 55 115 114
f 55 56 116 115
f 56 57 117 116
f 57 58 118 117
f 58 59 119 118
f 59 60 120 119
f 60 61 121 120
f 61 62 122 121
f 62 63 123 122
f 63 64 124 123
f 64 65 125 124
f 65 66 126 125
f 66 67 127 126
f 67 68 128 127
f 68 69 129 128
f 69 70 130 129
f 70 71 131 130
f 71 72 132 131
f 72 73 133 132
f 73 14 74 133
o SD0231_T002_2hao
v 15.466 -42.728 0.000
v 49.198 -34.371 0.000
v 52.281 -27.319 0.000
v 55.544 -26.302 0.000
v 53.818 -20.852 0.000
v 51.032 -21.725 0.000
v 45.235 -18.453 0.000
v 23.358 -23.881 0.000
v 22.882 -21.980 0.000
v 10.990 -24.920 0.000
v 15.466 -42.728 13.650
v 49.198 -34.371 13.650
v 52.281 -27.319 13.650
v 55.544 -26.302 13.650
v 53.818 -20.852 13.650
v 51.032 -21.725 13.650
v 45.235 -18.453 13.650
v 23.358 -23.881 13.650
v 22.882 -21.980 13.650
v 10.990 -24.920 13.650
usemtl roof
f 144 145 146 147 148 149 150 151 152 153
usemtl teaching_building
f 143 142 141 140 139 138 137 136 135 134
f 134 135 145 144
f 135 136 146 145
f 136 137 147 146
f 137 138 148 147
f 138 139 149 148
f 139 140 150 149
f 140 141 151 150
f 141 142 152 151
f 142 143 153 152
f 143 134 144 153
o SD0231_T003_3hao
v -36.871 -41.435 0.000
v -34.139 -38.605 0.000
v -10.815 -33.222 0.000
v -11.552 -30.071 0.000
v -0.308 -27.473 0.000
v 3.980 -45.823 0.000
v -33.806 -54.534 0.000
v -36.871 -41.435 13.470
v -34.139 -38.605 13.470
v -10.815 -33.222 13.470
v -11.552 -30.071 13.470
v -0.308 -27.473 13.470
v 3.980 -45.823 13.470
v -33.806 -54.534 13.470
usemtl roof
f 161 162 163 164 165 166 167
usemtl teaching_building
f 160 159 158 157 156 155 154
f 154 155 162 161
f 155 156 163 162
f 156 157 164 163
f 157 158 165 164
f 158 159 166 165
f 159 160 167 166
f 160 154 161 167
