# school_id SD0218
# school_name 私立青岛智荣中学分校
# boundary_source footprint_convex_hull_buffer_20m
# adjacent_block_merge_distance_m 2.0
mtllib ../campus_materials.mtl
o SD0218_campus_boundary
usemtl campus_boundary
v -31.965 -114.167 0.050
v -48.319 -34.676 0.050
v -62.024 52.226 0.050
v -14.954 60.612 0.050
v 37.151 66.662 0.050
v 50.478 13.821 0.050
v 53.217 2.822 0.050
v 14.183 -104.815 0.050
v -31.965 -114.167 0.050
l 1 2 3 4 5 6 7 8 9 1
o SD0218_T001_1hao
v -39.214 35.975 0.000
v -12.044 40.816 0.000
v -8.521 23.970 0.000
v -35.403 18.443 0.000
v -39.214 35.975 30.060
v -12.044 40.816 30.060
v -8.521 23.970 30.060
v -35.403 18.443 30.060
usemtl roof
f 14 15 16 17
usemtl teaching_building
f 13 12 11 10
f 10 11 15 14
f 11 12 16 15
f 12 13 17 16
f 13 10 14 17
o SD0218_T002_2hao
v 11.081 -0.393 0.000
v 10.065 4.835 0.000
v 13.480 5.510 0.000
v 5.418 41.877 0.000
v 22.045 44.774 0.000
v 28.543 8.417 0.000
v 31.078 8.959 0.000
v 32.336 3.907 0.000
v 11.081 -0.393 32.190
v 10.065 4.835 32.190
v 13.480 5.510 32.190
v 5.418 41.877 32.190
v 22.045 44.774 32.190
v 28.543 8.417 32.190
v 31.078 8.959 32.190
v 32.336 3.907 32.190
usemtl roof
f 26 27 28 29 30 31 32 33
usemtl teaching_building
f 25 24 23 22 21 20 19 18
f 18 19 27 26
f 19 20 28 27
f 20 21 29 28
f 21 22 30 29
f 22 23 31 30
f 23 24 32 31
f 24 25 33 32
f 25 18 26 33
o SD0218_T003_3hao
v -16.394 -90.605 0.000
v -0.792 -87.443 0.000
v -13.042 -27.940 0.000
v -28.636 -31.101 0.000
v -16.394 -90.605 13.930
v -0.792 -87.443 13.930
v -13.042 -27.940 13.930
v -28.636 -31.101 13.930
usemtl roof
f 38 39 40 41
usemtl teaching_building
f 37 36 35 34
f 34 35 39 38
f 35 36 40 39
f 36 37 41 40
f 37 34 38 41
