# school_id SD0239
# school_name 青岛同安路小学
# boundary_source footprint_convex_hull_buffer_20m
# adjacent_block_merge_distance_m 2.0
mtllib ../campus_materials.mtl
o SD0239_campus_boundary
usemtl campus_boundary
v 47.423 -82.048 0.050
v -70.755 -43.365 0.050
v -90.661 42.196 0.050
v -4.780 63.920 0.050
v 103.683 1.942 0.050
v 109.212 -24.240 0.050
v 72.190 -78.324 0.050
v 47.423 -82.048 0.050
l 1 2 3 4 5 6 7 8 1
o SD0239_T001_1hao
v -26.818 34.527 0.000
v -50.006 29.586 0.000
v -52.344 31.244 0.000
v -66.735 27.618 0.000
v -53.828 -27.862 0.000
v -40.058 -24.557 0.000
v -37.261 -20.677 0.000
v -2.633 -10.916 0.000
v -0.708 -16.985 0.000
v 14.069 -13.768 0.000
v 8.907 12.054 0.000
v -8.515 9.611 0.000
v -12.653 27.983 0.000
v -5.979 30.802 0.000
v -7.697 42.552 0.000
v -26.621 37.710 0.000
v -26.818 34.527 33.970
v -50.006 29.586 33.970
v -52.344 31.244 33.970
v -66.735 27.618 33.970
v -53.828 -27.862 33.970
v -40.058 -24.557 33.970
v -37.261 -20.677 33.970
v -2.633 -10.916 33.970
v -0.708 -16.985 33.970
v 14.069 -13.768 33.970
v 8.907 12.054 33.970
v -8.515 9.611 33.970
v -12.653 27.983 33.970
v -5.979 30.802 33.970
v -7.697 42.552 33.970
v -26.621 37.710 33.970
usemtl roof
f 25 26 27 28 29 30 31 32 33 34 35 36 37 38 39 40
usemtl teaching_building
f 24 23 22 21 20 19 18 17 16 15 14 13 12 11 10 9
f 9 10 26 25
f 10 11 27 26
f 11 12 28 27
f 12 13 29 28
f 13 14 30 29
f 14 15 31 30
f 15 16 32 31
f 16 17 33 32
f 17 18 34 33
f 18 19 35 34
f 19 20 36 35
f 20 21 37 36
f 21 22 38 37
f 22 23 39 38
f 23 24 40 39
f 24 9 25 40
o SD0239_T002_2hao
v 85.969 -10.971 0.000
v 87.876 -20.002 0.000
v 52.331 -29.542 0.000
v 60.605 -59.841 0.000
v 49.138 -61.565 0.000
v 40.225 -23.352 0.000
v 85.969 -10.971 12.360
v 87.876 -20.002 12.360
v 52.331 -29.542 12.360
v 60.605 -59.841 12.360
v 49.138 -61.565 12.360
v 40.225 -23.352 12.360
usemtl roof
f 47 48 49 50 51 52
usemtl teaching_building
f 46 45 44 43 42 41
f 41 42 48 47
f 42 43 49 48
f 43 44 50 49
f 44 45 51 50
f 45 46 52 51
f 46 41 47 52
