# school_id SD0292
# school_name 青岛永平路小学
# boundary_source footprint_convex_hull_buffer_20m
# adjacent_block_merge_distance_m 2.0
mtllib ../campus_materials.mtl
o SD0292_campus_boundary
usemtl campus_boundary
v -51.684 -32.838 0.050
v -57.936 29.553 0.050
v 51.603 40.387 0.050
v 57.927 -22.731 0.050
v 26.818 -25.801 0.050
v -51.684 -32.838 0.050
l 1 2 3 4 5 6 1
o SD0292_T001_1hao
v 24.017 3.352 0.000
v -24.880 -1.467 0.000
v -24.008 -10.189 0.000
v -33.757 -11.151 0.000
v -36.039 11.621 0.000
v 33.694 18.518 0.000
v 36.030 -4.795 0.000
v 24.943 -5.889 0.000
v 24.017 3.352 11.980
v -24.880 -1.467 11.980
v -24.008 -10.189 11.980
v -33.757 -11.151 11.980
v -36.039 11.621 11.980
v 33.694 18.518 11.980
v 36.030 -4.795 11.980
v 24.943 -5.889 11.980
usemtl roof
f 15 16 17 18 19 20 21 22
usemtl teaching_building
f 14 13 12 11 10 9 8 7
f 7 8 16 15
f 8 9 17 16
f 9 10 18 17
f 10 11 19 18
f 11 12 20 19
f 12 13 21 20
f 13 14 22 21
f 14 7 15 22
