# school_id SD0268
# school_name 青岛市崂山金融区实验小学
# boundary_source footprint_convex_hull_buffer_20m
# adjacent_block_merge_distance_m 2.0
mtllib ../campus_materials.mtl
o SD0268_campus_boundary
usemtl campus_boundary
v 86.794 -162.427 0.050
v 13.133 -157.411 0.050
v -111.565 -39.339 0.050
v -139.423 27.662 0.050
v -157.746 146.557 0.050
v -115.482 151.350 0.050
v -21.770 157.036 0.050
v 75.630 149.450 0.050
v 126.619 -35.053 0.050
v 119.982 -64.574 0.050
v 86.794 -162.427 0.050
l 1 2 3 4 5 6 7 8 9 10 11 1
o SD0268_T001_1hao
v -3.740 88.064 0.000
v 0.315 117.954 0.000
v 37.833 113.223 0.000
v 37.132 95.569 0.000
v 7.177 98.211 0.000
v 6.341 85.842 0.000
v 57.851 81.664 0.000
v 60.090 130.600 0.000
v -21.942 136.989 0.000
v -28.102 90.982 0.000
v -3.740 88.064 14.190
v 0.315 117.954 14.190
v 37.833 113.223 14.190
v 37.132 95.569 14.190
v 7.177 98.211 14.190
v 6.341 85.842 14.190
v 57.851 81.664 14.190
v 60.090 130.600 14.190
v -21.942 136.989 14.190
v -28.102 90.982 14.190
usemtl roof
f 22 23 24 25 26 27 28 29 30 31
usemtl teaching_building
f 21 20 19 18 17 16 15 14 13 12
f 12 13 23 22
f 13 14 24 23
f 14 15 25 24
f 15 16 26 25
f 16 17 27 26
f 17 18 28 27
f 18 19 29 28
f 19 20 30 29
f 20 21 31 30
f 21 12 22 31
o SD0268_T002_2hao
v -113.748 131.418 0.000
v -101.923 34.386 0.000
v -120.025 33.103 0.000
v -134.809 129.030 0.000
v -113.748 131.418 13.340
v -101.923 34.386 13.340
v -120.025 33.103 13.340
v -134.809 129.030 13.340
usemtl roof
f 36 37 38 39
usemtl teaching_building
f 35 34 33 32
f 32 33 37 36
f 33 34 38 37
f 34 35 39 38
f 35 32 36 39
o SD0268_T003_3hao
v -94.729 -27.738 0.000
v -94.009 -14.241 0.000
v -63.695 0.361 0.000
v -41.753 -1.385 0.000
v -44.720 -16.076 0.000
v -55.179 -13.047 0.000
v -77.930 -22.863 0.000
v -79.216 -29.573 0.000
v -94.729 -27.738 23.220
v -94.009 -14.241 23.220
v -63.695 0.361 23.220
v -41.753 -1.385 23.220
v -44.720 -16.076 23.220
v -55.179 -13.047 23.220
v -77.930 -22.863 23.220
v -79.216 -29.573 23.220
usemtl roof
f 48 49 50 51 52 53 54 55
usemtl teaching_building
f 47 46 45 44 43 42 41 40
f 40 41 49 48
f 41 42 50 49
f 42 43 51 50
f 43 44 52 51
f 44 45 53 52
f 45 46 54 53
f 46 47 55 54
f 47 40 48 55
o SD0268_T004_4hao
v 8.661 -6.304 0.000
v 38.409 -25.207 0.000
v 36.727 -41.754 0.000
v 22.869 -39.942 0.000
v 22.312 -32.922 0.000
v 1.871 -19.436 0.000
v -11.078 -17.977 0.000
v -10.944 -5.398 0.000
v 8.661 -6.304 28.080
v 38.409 -25.207 28.080
v 36.727 -41.754 28.080
v 22.869 -39.942 28.080
v 22.312 -32.922 28.080
v 1.871 -19.436 28.080
v -11.078 -17.977 28.080
v -10.944 -5.398 28.080
usemtl roof
f 64 65 66 67 68 69 70 71
usemtl teaching_building
f 63 62 61 60 59 58 57 56
f 56 57 65 64
f 57 58 66 65
f 58 59 67 66
f 59 60 68 67
f 60 61 69 68
f 61 62 70 69
f 62 63 71 70
f 63 56 64 71
o SD0268_T005_5hao
v 106.007 -35.553 0.000
v 100.701 -59.153 0.000
v 57.096 -54.301 0.000
v 60.279 -30.490 0.000
v 106.007 -35.553 17.460
v 100.701 -59.153 17.460
v 57.096 -54.301 17.460
v 60.279 -30.490 17.460
usemtl roof
f 76 77 78 79
usemtl teaching_building
f 75 74 73 72
f 72 73 77 76
f 73 74 78 77
f 74 75 79 78
f 75 72 76 79
o SD0268_T006_6hao
v 83.300 -79.062 0.000
v 79.478 -96.969 0.000
v 38.211 -95.068 0.000
v 40.972 -78.111 0.000
v 83.300 -79.062 14.370
v 79.478 -96.969 14.370
v 38.211 -95.068 14.370
v 40.972 -78.111 14.370
usemtl roof
f 84 85 86 87
usemtl teaching_building
f 83 82 81 80
f 80 81 85 84
f 81 82 86 85
f 82 83 87 86
f 83 80 84 87
o SD0268_T007_7hao
v 23.679 -120.669 0.000
v 75.773 -124.781 0.000
v 72.797 -141.428 0.000
v 21.664 -137.946 0.000
v 23.679 -120.669 13.920
v 75.773 -124.781 13.920
v 72.797 -141.428 13.920
v 21.664 -137.946 13.920
usemtl roof
f 92 93 94 95
usemtl teaching_building
f 91 90 89 88
f 88 89 93 92
f 89 90 94 93
f 90 91 95 94
f 91 88 92 95
