# school_id SD0253
# school_name 青岛太平路小学
# boundary_source footprint_convex_hull_buffer_20m
# adjacent_block_merge_distance_m 2.0
mtllib ../campus_materials.mtl
o SD0253_campus_boundary
usemtl campus_boundary
v 28.700 -54.258 0.050
v -24.204 -43.164 0.050
v -50.201 -37.191 0.050
v -40.205 5.670 0.050
v -21.266 55.278 0.050
v 20.596 45.645 0.050
v 33.645 19.788 0.050
v 39.031 -9.957 0.050
v 28.700 -54.258 0.050
l 1 2 3 4 5 6 7 8 9 1
o SD0253_T001_1hao
v -19.912 -23.629 0.000
v -18.319 -16.764 0.000
v 8.561 -22.955 0.000
v 7.112 -29.167 0.000
v 13.664 -30.670 0.000
v 18.613 -9.447 0.000
v 6.752 -6.716 0.000
v 8.255 -0.294 0.000
v 11.144 -0.957 0.000
v 14.482 13.369 0.000
v 9.740 14.463 0.000
v 10.703 18.608 0.000
v 5.025 19.924 0.000
v 6.968 28.258 0.000
v -8.789 31.884 0.000
v -11.489 20.322 0.000
v -5.144 18.863 0.000
v -10.166 -2.704 0.000
v -21.036 -0.195 0.000
v -26.166 -22.192 0.000
v -19.912 -23.629 12.210
v -18.319 -16.764 12.210
v 8.561 -22.955 12.210
v 7.112 -29.167 12.210
v 13.664 -30.670 12.210
v 18.613 -9.447 12.210
v 6.752 -6.716 12.210
v 8.255 -0.294 12.210
v 11.144 -0.957 12.210
v 14.482 13.369 12.210
v 9.740 14.463 12.210
v 10.703 18.608 12.210
v 5.025 19.924 12.210
v 6.968 28.258 12.210
v -8.789 31.884 12.210
v -11.489 20.322 12.210
v -5.144 18.863 12.210
v -10.166 -2.704 12.210
v -21.036 -0.195 12.210
v -26.166 -22.192 12.210
usemtl roof
f 30 31 32 33 34 35 36 37 38 39 40 41 42 43 44 45 46 47 48 49
usemtl teaching_building
f 29 28 27 26 25 24 23 22 21 20 19 18 17 16 15 14 13 12 11 10
f 10 11 31 30
f 11 12 32 31
f 12 13 33 32
f 13 14 34 33
f 14 15 35 34
f 15 16 36 35
f 16 17 37 36
f 17 18 38 37
f 18 19 39 38
f 19 20 40 39
f 20 21 41 40
f 21 22 42 41
f 22 23 43 42
f 23 24 44 43
f 24 25 45 44
f 25 26 46 45
f 26 27 47 46
f 27 28 48 47
f 28 29 49 48
f 29 10 30 49
