# school_id SD0251
# school_name 青岛大枣园小学（有光伏）
# boundary_source footprint_convex_hull_buffer_20m
# adjacent_block_merge_distance_m 2.0
mtllib ../campus_materials.mtl
o SD0251_campus_boundary
usemtl campus_boundary
v -84.729 -61.540 0.050
v -97.371 38.535 0.050
v 40.886 56.001 0.050
v 84.729 61.540 0.050
v 97.371 -38.535 0.050
v -40.886 -56.001 0.050
v -84.729 -61.540 0.050
l 1 2 3 4 5 6 7 1
o SD0251_T001_1hao
v -51.022 24.231 0.000
v -48.724 6.037 0.000
v 45.692 17.964 0.000
v 43.393 36.159 0.000
v 67.393 39.191 0.000
v 75.022 -21.199 0.000
v 51.022 -24.231 0.000
v 48.724 -6.037 0.000
v -45.692 -17.964 0.000
v -43.393 -36.159 0.000
v -67.393 -39.191 0.000
v -75.022 21.199 0.000
v -51.022 24.231 15.340
v -48.724 6.037 15.340
v 45.692 17.964 15.340
v 43.393 36.159 15.340
v 67.393 39.191 15.340
v 75.022 -21.199 15.340
v 51.022 -24.231 15.340
v 48.724 -6.037 15.340
v -45.692 -17.964 15.340
v -43.393 -36.159 15.340
v -67.393 -39.191 15.340
v -75.022 21.199 15.340
usemtl roof
f 20 21 22 23 24 25 26 27 28 29 30 31
usemtl teaching_building
f 19 18 17 16 15 14 13 12 11 10 9 8
f 8 9 21 20
f 9 10 22 21
f 10 11 23 22
f 11 12 24 23
f 12 13 25 24
f 13 14 26 25
f 14 15 27 26
f 15 16 28 27
f 16 17 29 28
f 17 18 30 29
f 18 19 31 30
f 19 8 20 31
