# school_id SD0225
# school_name 蓝村中心小学
# boundary_source footprint_convex_hull_buffer_20m
# adjacent_block_merge_distance_m 2.0
mtllib ../campus_materials.mtl
o SD0225_campus_boundary
usemtl campus_boundary
v -125.071 -122.562 0.050
v -125.071 -76.005 0.050
v -29.735 132.255 0.050
v 89.796 133.138 0.050
v 91.807 -50.337 0.050
v 92.155 -91.428 0.050
v -73.654 -122.562 0.050
v -125.071 -122.562 0.050
l 1 2 3 4 5 6 7 8 1
o SD0225_T001_1hao
v 70.016 112.991 0.000
v 70.204 87.943 0.000
v -16.663 87.291 0.000
v -16.851 112.350 0.000
v 70.016 112.991 14.400
v 70.204 87.943 14.400
v -16.663 87.291 14.400
v -16.851 112.350 14.400
usemtl roof
f 13 14 15 16
usemtl teaching_building
f 12 11 10 9
f 9 10 14 13
f 10 11 15 14
f 11 12 16 15
f 12 9 13 16
o SD0225_T002_2hao
v 69.935 68.355 0.000
v 70.276 41.273 0.000
v 0.708 40.422 0.000
v 0.368 67.504 0.000
v 69.935 68.355 10.710
v 70.276 41.273 10.710
v 0.708 40.422 10.710
v 0.368 67.504 10.710
usemtl roof
f 21 22 23 24
usemtl teaching_building
f 20 19 18 17
f 17 18 22 21
f 18 19 23 22
f 19 20 24 23
f 20 17 21 24
o SD0225_T003_3hao
v 71.808 -50.531 0.000
v 72.014 -74.860 0.000
v -15.212 -75.612 0.000
v -15.427 -51.271 0.000
v 71.808 -50.531 18.390
v 72.014 -74.860 18.390
v -15.212 -75.612 18.390
v -15.427 -51.271 18.390
usemtl roof
f 29 30 31 32
usemtl teaching_building
f 28 27 26 25
f 25 26 30 29
f 26 27 31 30
f 27 28 32 31
f 28 25 29 32
o SD0225_T004_4hao
v -75.515 -80.365 0.000
v -75.515 -102.562 0.000
v -105.071 -102.562 0.000
v -105.071 -80.365 0.000
v -75.515 -80.365 13.620
v -75.515 -102.562 13.620
v -105.071 -102.562 13.620
v -105.071 -80.365 13.620
usemtl roof
f 37 38 39 40
usemtl teaching_building
f 36 35 34 33
f 33 34 38 37
f 34 35 39 38
f 35 36 40 39
f 36 33 37 40
