# school_id SD0241
# school_name 青岛嘉峪关学校
# boundary_source footprint_convex_hull_buffer_20m
# adjacent_block_merge_distance_m 2.0
mtllib ../campus_materials.mtl
o SD0241_campus_boundary
usemtl campus_boundary
v 15.930 -46.770 0.050
v -70.584 -33.760 0.050
v -65.275 1.102 0.050
v -52.649 66.338 0.050
v 36.369 52.385 0.050
v 84.126 35.119 0.050
v 74.895 -29.022 0.050
v 15.930 -46.770 0.050
l 1 2 3 4 5 6 7 8 1
o SD0241_T001_1hao
v 31.375 32.924 0.000
v 28.252 13.237 0.000
v -39.812 23.893 0.000
v -36.680 43.591 0.000
v 31.375 32.924 13.390
v 28.252 13.237 13.390
v -39.812 23.893 13.390
v -36.680 43.591 13.390
usemtl roof
f 13 14 15 16
usemtl teaching_building
f 12 11 10 9
f 9 10 14 13
f 10 11 15 14
f 11 12 16 15
f 12 9 13 16
o SD0241_T002_2hao
v 62.010 21.848 0.000
v 56.916 -13.547 0.000
v 30.043 -9.733 0.000
v 35.137 25.662 0.000
v 62.010 21.848 18.410
v 56.916 -13.547 18.410
v 30.043 -9.733 18.410
v 35.137 25.662 18.410
usemtl roof
f 21 22 23 24
usemtl teaching_building
f 20 19 18 17
f 17 18 22 21
f 18 19 23 22
f 19 20 24 23
f 20 17 21 24
o SD0241_T003_3hao
v -28.950 -4.803 0.000
v -29.733 -9.910 0.000
v -20.661 -11.281 0.000
v -20.049 -7.290 0.000
v -6.954 -9.258 0.000
v -7.539 -13.105 0.000
v 4.061 -14.851 0.000
v 4.799 -9.998 0.000
v 16.679 -11.789 0.000
v 14.465 -26.325 0.000
v -47.795 -16.962 0.000
v -45.563 -2.305 0.000
v -28.950 -4.803 15.940
v -29.733 -9.910 15.940
v -20.661 -11.281 15.940
v -20.049 -7.290 15.940
v -6.954 -9.258 15.940
v -7.539 -13.105 15.940
v 4.061 -14.851 15.940
v 4.799 -9.998 15.940
v 16.679 -11.789 15.940
v 14.465 -26.325 15.940
v -47.795 -16.962 15.940
v -45.563 -2.305 15.940
usemtl roof
f 37 38 39 40 41 42 43 44 45 46 47 48
usemtl teaching_building
f 36 35 34 33 32 31 30 29 28 27 26 25
f 25 26 38 37
f 26 27 39 38
f 27 28 40 39
f 28 29 41 40
f 29 30 42 41
f 30 31 43 42
f 31 32 44 43
f 32 33 45 44
f 33 34 46 45
f 34 35 47 46
f 35 36 48 47
f 36 25 37 48
