# school_id SD0245
# school_name 青岛外事服务职业学校
# boundary_source footprint_convex_hull_buffer_20m
# adjacent_block_merge_distance_m 2.0
mtllib ../campus_materials.mtl
o SD0245_campus_boundary
usemtl campus_boundary
v 39.904 -55.571 0.050
v -24.488 -52.324 0.050
v -84.868 -31.688 0.050
v -94.665 6.823 0.050
v -75.010 23.589 0.050
v -9.556 56.647 0.050
v 17.767 63.499 0.050
v 64.806 3.838 0.050
v 75.422 -16.834 0.050
v 68.378 -42.103 0.050
v 54.301 -52.841 0.050
v 39.904 -55.571 0.050
l 1 2 3 4 5 6 7 8 9 10 11 12 1
o SD0245_T001_1hao
v -72.213 -0.313 0.000
v -62.658 2.086 0.000
v -63.854 6.817 0.000
v -31.455 14.941 0.000
v -30.241 10.188 0.000
v -23.484 11.879 0.000
v -22.287 7.192 0.000
v -0.811 12.576 0.000
v -1.873 16.754 0.000
v 6.315 18.810 0.000
v 3.868 28.460 0.000
v 0.089 27.510 0.000
v -2.529 37.790 0.000
v 10.076 40.951 0.000
v 16.995 13.725 0.000
v 6.891 11.194 0.000
v 8.960 3.058 0.000
v -68.155 -16.264 0.000
v -72.213 -0.313 27.480
v -62.658 2.086 27.480
v -63.854 6.817 27.480
v -31.455 14.941 27.480
v -30.241 10.188 27.480
v -23.484 11.879 27.480
v -22.287 7.192 27.480
v -0.811 12.576 27.480
v -1.873 16.754 27.480
v 6.315 18.810 27.480
v 3.868 28.460 27.480
v 0.089 27.510 27.480
v -2.529 37.790 27.480
v 10.076 40.951 27.480
v 16.995 13.725 27.480
v 6.891 11.194 27.480
v 8.960 3.058 27.480
v -68.155 -16.264 27.480
usemtl roof
f 31 32 33 34 35 36 37 38 39 40 41 42 43 44 45 46 47 48
usemtl teaching_building
f 30 29 28 27 26 25 24 23 22 21 20 19 18 17 16 15 14 13
f 13 14 32 31
f 14 15 33 32
f 15 16 34 33
f 16 17 35 34
f 17 18 36 35
f 18 19 37 36
f 19 20 38 37
f 20 21 39 38
f 21 22 40 39
f 22 23 41 40
f 23 24 42 41
f 24 25 43 42
f 25 26 44 43
f 26 27 45 44
f 27 28 46 45
f 28 29 47 46
f 29 30 48 47
f 30 13 31 48
o SD0245_T002_2hao
v 39.812 2.561 0.000
v 47.900 -7.023 0.000
v 54.054 -19.006 0.000
v 50.914 -30.270 0.000
v 45.930 -34.072 0.000
v 38.525 -35.476 0.000
v 29.852 -0.368 0.000
v 39.812 2.561 34.790
v 47.900 -7.023 34.790
v 54.054 -19.006 34.790
v 50.914 -30.270 34.790
v 45.930 -34.072 34.790
v 38.525 -35.476 34.790
v 29.852 -0.368 34.790
usemtl roof
f 56 57 58 59 60 61 62
usemtl teaching_building
f 55 54 53 52 51 50 49
f 49 50 57 56
f 50 51 58 57
f 51 52 59 58
f 52 53 60 59
f 53 54 61 60
f 54 55 62 61
f 55 49 56 62
o SD0245_T003_3hao
v -15.179 -12.075 0.000
v -13.146 -21.006 0.000
v 19.190 -13.733 0.000
v 17.328 -5.586 0.000
v 26.361 -3.552 0.000
v 30.346 -21.006 0.000
v -20.677 -32.491 0.000
v -24.842 -14.252 0.000
v -15.179 -12.075 17.590
v -13.146 -21.006 17.590
v 19.190 -13.733 17.590
v 17.328 -5.586 17.590
v 26.361 -3.552 17.590
v 30.346 -21.006 17.590
v -20.677 -32.491 17.590
v -24.842 -14.252 17.590
usemtl roof
f 71 72 73 74 75 76 77 78
usemtl teaching_building
f 70 69 68 67 66 65 64 63
f 63 64 72 71
f 64 65 73 72
f 65 66 74 73
f 66 67 75 74
f 67 68 76 75
f 68 69 77 76
f 69 70 78 77
f 70 63 71 78
