# school_id SD0244
# school_name 青岛墨尔文中学
# boundary_source footprint_convex_hull_buffer_20m
# adjacent_block_merge_distance_m 2.0
mtllib ../campus_materials.mtl
o SD0244_campus_boundary
usemtl campus_boundary
v -103.433 -172.692 0.050
v -192.047 -112.848 0.050
v -195.453 -57.862 0.050
v -191.770 -1.789 0.050
v -96.870 156.923 0.050
v -45.115 166.987 0.050
v -27.954 168.370 0.050
v 18.886 169.573 0.050
v 80.989 169.473 0.050
v 153.091 167.200 0.050
v 198.074 58.515 0.050
v 226.763 -11.157 0.050
v 189.678 -73.788 0.050
v 155.240 -87.424 0.050
v -18.997 -148.213 0.050
v -103.433 -172.692 0.050
l 1 2 3 4 5 6 7 8 9 10 11 12 13 14 15 16 1
o SD0244_T001_1hao
v -26.399 129.544 0.000
v 19.621 130.726 0.000
v 19.127 149.573 0.000
v -26.893 148.391 0.000
v -26.399 129.544 16.680
v 19.621 130.726 16.680
v 19.127 149.573 16.680
v -26.893 148.391 16.680
usemtl roof
f 21 22 23 24
usemtl teaching_building
f 20 19 18 17
f 17 18 22 21
f 18 19 23 22
f 19 20 24 23
f 20 17 21 24
o SD0244_T002_2hao
v 34.736 129.477 0.000
v 80.720 129.621 0.000
v 80.658 149.474 0.000
v 34.674 149.330 0.000
v 34.736 129.477 14.120
v 80.720 129.621 14.120
v 80.658 149.474 14.120
v 34.674 149.330 14.120
usemtl roof
f 29 30 31 32
usemtl teaching_building
f 28 27 26 25
f 25 26 30 29
f 26 27 31 30
f 27 28 32 31
f 28 25 29 32
o SD0244_T003_3hao
v 95.755 128.018 0.000
v 139.210 127.300 0.000
v 139.551 147.617 0.000
v 96.087 148.335 0.000
v 95.755 128.018 11.560
v 139.210 127.300 11.560
v 139.551 147.617 11.560
v 96.087 148.335 11.560
usemtl roof
f 37 38 39 40
usemtl teaching_building
f 36 35 34 33
f 33 34 38 37
f 34 35 39 38
f 35 36 40 39
f 36 33 37 40
o SD0244_T004_4hao
v -80.502 119.772 0.000
v -38.608 127.919 0.000
v -42.394 147.141 0.000
v -84.287 138.995 0.000
v -80.502 119.772 16.380
v -38.608 127.919 16.380
v -42.394 147.141 16.380
v -84.287 138.995 16.380
usemtl roof
f 45 46 47 48
usemtl teaching_building
f 44 43 42 41
f 41 42 46 45
f 42 43 47 46
f 43 44 48 47
f 44 41 45 48
o SD0244_T005_5hao
v 41.707 80.585 0.000
v 81.797 81.160 0.000
v 81.537 99.200 0.000
v 41.447 98.625 0.000
v 41.707 80.585 11.760
v 81.797 81.160 11.760
v 81.537 99.200 11.760
v 41.447 98.625 11.760
usemtl roof
f 53 54 55 56
usemtl teaching_building
f 52 51 50 49
f 49 50 54 53
f 50 51 55 54
f 51 52 56 55
f 52 49 53 56
o SD0244_T006_6hao
v -21.277 78.021 0.000
v 21.576 78.894 0.000
v 21.191 97.542 0.000
v -21.663 96.669 0.000
v -21.277 78.021 16.990
v 21.576 78.894 16.990
v 21.191 97.542 16.990
v -21.663 96.669 16.990
usemtl roof
f 61 62 63 64
usemtl teaching_building
f 60 59 58 57
f 57 58 62 61
f 58 59 63 62
f 59 60 64 63
f 60 57 61 64
o SD0244_T007_7hao
v 103.479 79.248 0.000
v 116.325 79.535 0.000
v 127.054 74.793 0.000
v 137.137 66.359 0.000
v 155.240 80.431 0.000
v 149.436 87.793 0.000
v 135.926 97.852 0.000
v 121.143 103.301 0.000
v 102.672 104.982 0.000
v 103.479 79.248 8.960
v 116.325 79.535 8.960
v 127.054 74.793 8.960
v 137.137 66.359 8.960
v 155.240 80.431 8.960
v 149.436 87.793 8.960
v 135.926 97.852 8.960
v 121.143 103.301 8.960
v 102.672 104.982 8.960
usemtl roof
f 74 75 76 77 78 79 80 81 82
usemtl teaching_building
f 73 72 71 70 69 68 67 66 65
f 65 66 75 74
f 66 67 76 75
f 67 68 77 76
f 68 69 78 77
f 69 70 79 78
f 70 71 80 79
f 71 72 81 80
f 72 73 82 81
f 73 65 74 82
o SD0244_T008_8hao
v -88.809 67.022 0.000
v -44.682 72.914 0.000
v -47.642 94.790 0.000
v -91.769 88.898 0.000
v -88.809 67.022 16.400
v -44.682 72.914 16.400
v -47.642 94.790 16.400
v -91.769 88.898 16.400
usemtl roof
f 87 88 89 90
usemtl teaching_building
f 86 85 84 83
f 83 84 88 87
f 84 85 89 88
f 85 86 90 89
f 86 83 87 90
o SD0244_T009_9hao
v 97.451 -9.096 0.000
v 127.826 0.112 0.000
v 148.037 37.862 0.000
v 179.587 50.883 0.000
v 169.432 75.114 0.000
v 133.603 60.312 0.000
v 113.392 23.049 0.000
v 89.781 15.897 0.000
v 97.451 -9.096 9.730
v 127.826 0.112 9.730
v 148.037 37.862 9.730
v 179.587 50.883 9.730
v 169.432 75.114 9.730
v 133.603 60.312 9.730
v 113.392 23.049 9.730
v 89.781 15.897 9.730
usemtl roof
f 99 100 101 102 103 104 105 106
usemtl teaching_building
f 98 97 96 95 94 93 92 91
f 91 92 100 99
f 92 93 101 100
f 93 94 102 101
f 94 95 103 102
f 95 96 104 103
f 96 97 105 104
f 97 98 106 105
f 98 91 99 106
o SD0244_T010_10hao
v -69.217 36.215 0.000
v -6.179 -3.447 0.000
v -35.047 -42.147 0.000
v -94.720 -1.535 0.000
v -69.217 36.215 15.000
v -6.179 -3.447 15.000
v -35.047 -42.147 15.000
v -94.720 -1.535 15.000
usemtl roof
f 111 112 113 114
usemtl teaching_building
f 110 109 108 107
f 107 108 112 111
f 108 109 113 112
f 109 110 114 113
f 110 107 111 114
o SD0244_T011_11hao
v 36.513 -58.142 0.000
v 57.092 -23.311 0.000
v 79.483 -15.043 0.000
v 70.063 10.105 0.000
v 41.689 -0.374 0.000
v 14.974 -45.607 0.000
v 36.513 -58.142 14.170
v 57.092 -23.311 14.170
v 79.483 -15.043 14.170
v 70.063 10.105 14.170
v 41.689 -0.374 14.170
v 14.974 -45.607 14.170
usemtl roof
f 121 122 123 124 125 126
usemtl teaching_building
f 120 119 118 117 116 115
f 115 116 122 121
f 116 117 123 122
f 117 118 124 123
f 118 119 125 124
f 119 120 126 125
f 120 115 121 126
o SD0244_T012_12hao
v -116.591 -9.361 0.000
v -117.300 -36.123 0.000
v -172.838 -34.675 0.000
v -172.129 -7.913 0.000
v -116.591 -9.361 10.730
v -117.300 -36.123 10.730
v -172.838 -34.675 10.730
v -172.129 -7.913 10.730
usemtl roof
f 131 132 133 134
usemtl teaching_building
f 130 129 128 127
f 127 128 132 131
f 128 129 133 132
f 129 130 134 133
f 130 127 131 134
o SD0244_T013_13hao
v 148.261 -68.677 0.000
v 175.954 -57.711 0.000
v 204.472 -9.549 0.000
v 183.041 2.964 0.000
v 158.147 -39.074 0.000
v 139.371 -46.514 0.000
v 148.261 -68.677 14.000
v 175.954 -57.711 14.000
v 204.472 -9.549 14.000
v 183.041 2.964 14.000
v 158.147 -39.074 14.000
v 139.371 -46.514 14.000
usemtl roof
f 141 142 143 144 145 146
usemtl teaching_building
f 140 139 138 137 136 135
f 135 136 142 141
f 136 137 143 142
f 137 138 144 143
f 138 139 145 144
f 139 140 146 145
f 140 135 141 146
o SD0244_T014_14hao
v 75.006 -91.404 0.000
v 127.629 -74.104 0.000
v 119.824 -50.681 0.000
v 67.193 -67.991 0.000
v 75.006 -91.404 12.920
v 127.629 -74.104 12.920
v 119.824 -50.681 12.920
v 67.193 -67.991 12.920
usemtl roof
f 151 152 153 154
usemtl teaching_building
f 150 149 148 147
f 147 148 152 151
f 148 149 153 152
f 149 150 154 153
f 150 147 151 154
o SD0244_T015_15hao
v -25.080 -129.153 0.000
v 3.671 -118.884 0.000
v 30.063 -68.555 0.000
v 8.156 -57.225 0.000
v -13.652 -98.810 0.000
v -33.504 -105.896 0.000
v -25.080 -129.153 13.180
v 3.671 -118.884 13.180
v 30.063 -68.555 13.180
v 8.156 -57.225 13.180
v -13.652 -98.810 13.180
v -33.504 -105.896 13.180
usemtl roof
f 161 162 163 164 165 166
usemtl teaching_building
f 160 159 158 157 156 155
f 155 156 162 161
f 156 157 163 162
f 157 158 164 163
f 158 159 165 164
f 159 160 166 165
f 160 155 161 166
o SD0244_T016_16hao
v -100.004 -150.874 0.000
v -58.326 -135.476 0.000
v -64.606 -119.669 0.000
v -81.157 -125.284 0.000
v -82.619 -118.011 0.000
v -84.512 -113.434 0.000
v -88.486 -108.018 0.000
v -96.658 -100.114 0.000
v -125.983 -80.571 0.000
v -135.412 -75.574 0.000
v -144.625 -74.115 0.000
v -152.169 -74.325 0.000
v -157.193 -76.194 0.000
v -158.027 -57.269 0.000
v -175.412 -57.899 0.000
v -172.694 -101.784 0.000
v -156.358 -101.153 0.000
v -156.358 -92.211 0.000
v -152.375 -90.962 0.000
v -146.087 -90.763 0.000
v -140.014 -92.001 0.000
v -134.990 -94.919 0.000
v -131.303 -88.441 0.000
v -103.942 -108.748 0.000
v -107.261 -112.594 0.000
v -100.354 -119.183 0.000
v -97.591 -124.942 0.000
v -96.479 -131.806 0.000
v -105.342 -135.023 0.000
v -100.004 -150.874 14.300
v -58.326 -135.476 14.300
v -64.606 -119.669 14.300
v -81.157 -125.284 14.300
v -82.619 -118.011 14.300
v -84.512 -113.434 14.300
v -88.486 -108.018 14.300
v -96.658 -100.114 14.300
v -125.983 -80.571 14.300
v -135.412 -75.574 14.300
v -144.625 -74.115 14.300
v -152.169 -74.325 14.300
v -157.193 -76.194 14.300
v -158.027 -57.269 14.300
v -175.412 -57.899 14.300
v -172.694 -101.784 14.300
v -156.358 -101.153 14.300
v -156.358 -92.211 14.300
v -152.375 -90.962 14.300
v -146.087 -90.763 14.300
v -140.014 -92.001 14.300
v -134.990 -94.919 14.300
v -131.303 -88.441 14.300
v -103.942 -108.748 14.300
v -107.261 -112.594 14.300
v -100.354 -119.183 14.300
v -97.591 -124.942 14.300
v -96.479 -131.806 14.300
v -105.342 -135.023 14.300
usemtl roof
f 196 197 198 199 200 201 202 203 204 205 206 207 208 209 210 211 212 213 214 215 216 217 218 219 220 221 222 223 224
usemtl teaching_building
f 195 194 193 192 191 190 189 188 187 186 185 184 183 182 181 180 179 178 177 176 175 174 173 172 171 170 169 168 167
f 167 168 197 196
f 168 169 198 197
f 169 170 199 198
f 170 171 200 199
f 171 172 201 200
f 172 173 202 201
f 173 174 203 202
f 174 175 204 203
f 175 176 205 204
f 176 177 206 205
f 177 178 207 206
f 178 179 208 207
f 179 180 209 208
f 180 181 210 209
f 181 182 211 210
f 182 183 212 211
f 183 184 213 212
f 184 185 214 213
f 185 186 215 214
f 186 187 216 215
f 187 188 217 216
f 188 189 218 217
f 189 190 219 218
f 190 191 220 219
f 191 192 221 220
f 192 193 222 221
f 193 194 223 222
f 194 195 224 223
f 195 167 196 224
