# school_id SD0272
# school_name 青岛市朝城路小学
# boundary_source footprint_convex_hull_buffer_20m
# adjacent_block_merge_distance_m 2.0
mtllib ../campus_materials.mtl
o SD0272_campus_boundary
usemtl campus_boundary
v -13.373 -55.958 0.050
v -26.033 -24.325 0.050
v -39.876 51.099 0.050
v 9.478 70.535 0.050
v 50.039 -30.974 0.050
v -13.373 -55.958 0.050
l 1 2 3 4 5 6 1
o SD0272_T001_1hao
v -17.233 38.521 0.000
v 3.852 -14.615 0.000
v -6.722 -18.749 0.000
v -2.196 -30.058 0.000
v 24.010 -19.733 0.000
v -1.710 44.634 0.000
v -17.233 38.521 15.870
v 3.852 -14.615 15.870
v -6.722 -18.749 15.870
v -2.196 -30.058 15.870
v 24.010 -19.733 15.870
v -1.710 44.634 15.870
usemtl roof
f 13 14 15 16 17 18
usemtl teaching_building
f 12 11 10 9 8 7
f 7 8 14 13
f 8 9 15 14
f 9 10 16 15
f 10 11 17 16
f 11 12 18 17
f 12 7 13 18
