# school_id SD0200
# school_name 山东省青岛第二中学（部分）
# boundary_source footprint_convex_hull_buffer_20m
# adjacent_block_merge_distance_m 2.0
mtllib ../campus_materials.mtl
o SD0200_campus_boundary
usemtl campus_boundary
v 29.889 -143.293 0.050
v -170.425 -55.062 0.050
v -180.896 25.558 0.050
v -182.710 81.317 0.050
v -151.907 120.817 0.050
v 142.093 113.537 0.050
v 208.553 -45.141 0.050
v 214.166 -71.002 0.050
v 43.414 -141.812 0.050
v 29.889 -143.293 0.050
l 1 2 3 4 5 6 7 8 9 10 1
o SD0200_T001_1hao
v 54.833 73.978 0.000
v 56.254 68.904 0.000
v 58.530 69.534 0.000
v 57.199 74.243 0.000
v 88.108 82.821 0.000
v 90.068 75.857 0.000
v 102.182 79.228 0.000
v 100.285 85.971 0.000
v 128.649 93.864 0.000
v 135.142 70.883 0.000
v 108.450 63.454 0.000
v 109.143 61.000 0.000
v 90.950 55.915 0.000
v 89.969 59.375 0.000
v 73.638 54.788 0.000
v 78.809 36.604 0.000
v 63.925 32.426 0.000
v 60.778 43.458 0.000
v 53.610 47.735 0.000
v 46.254 35.554 0.000
v 42.333 39.876 0.000
v 44.482 41.799 0.000
v 42.981 42.651 0.000
v 48.260 51.814 0.000
v 48.925 62.095 0.000
v 46.254 71.601 0.000
v 54.833 73.978 19.430
v 56.254 68.904 19.430
v 58.530 69.534 19.430
v 57.199 74.243 19.430
v 88.108 82.821 19.430
v 90.068 75.857 19.430
v 102.182 79.228 19.430
v 100.285 85.971 19.430
v 128.649 93.864 19.430
v 135.142 70.883 19.430
v 108.450 63.454 19.430
v 109.143 61.000 19.430
v 90.950 55.915 19.430
v 89.969 59.375 19.430
v 73.638 54.788 19.430
v 78.809 36.604 19.430
v 63.925 32.426 19.430
v 60.778 43.458 19.430
v 53.610 47.735 19.430
v 46.254 35.554 19.430
v 42.333 39.876 19.430
v 44.482 41.799 19.430
v 42.981 42.651 19.430
v 48.260 51.814 19.430
v 48.925 62.095 19.430
v 46.254 71.601 19.430
usemtl roof
f 37 38 39 40 41 42 43 44 45 46 47 48 49 50 51 52 53 54 55 56 57 58 59 60 61 62
usemtl teaching_building
f 36 35 34 33 32 31 30 29 28 27 26 25 24 23 22 21 20 19 18 17 16 15 14 13 12 11
f 11 12 38 37
f 12 13 39 38
f 13 14 40 39
f 14 15 41 40
f 15 16 42 41
f 16 17 43 42
f 17 18 44 43
f 18 19 45 44
f 19 20 46 45
f 20 21 47 46
f 21 22 48 47
f 22 23 49 48
f 23 24 50 49
f 24 25 51 50
f 25 26 52 51
f 26 27 53 52
f 27 28 54 53
f 28 29 55 54
f 29 30 56 55
f 30 31 57 56
f 31 32 58 57
f 32 33 59 58
f 33 34 60 59
f 34 35 61 60
f 35 36 62 61
f 36 11 37 62
o SD0200_T002_2hao
v -154.310 8.671 0.000
v -151.333 20.023 0.000
v -160.938 27.175 0.000
v -153.824 68.749 0.000
v -162.485 74.729 0.000
v -142.331 100.574 0.000
v -103.931 75.426 0.000
v -117.150 54.368 0.000
v -126.126 44.696 0.000
v -129.498 46.995 0.000
v -134.876 48.432 0.000
v -142.862 1.640 0.000
v -153.716 6.139 0.000
v -154.310 8.671 14.970
v -151.333 20.023 14.970
v -160.938 27.175 14.970
v -153.824 68.749 14.970
v -162.485 74.729 14.970
v -142.331 100.574 14.970
v -103.931 75.426 14.970
v -117.150 54.368 14.970
v -126.126 44.696 14.970
v -129.498 46.995 14.970
v -134.876 48.432 14.970
v -142.862 1.640 14.970
v -153.716 6.139 14.970
usemtl roof
f 76 77 78 79 80 81 82 83 84 85 86 87 88
usemtl teaching_building
f 75 74 73 72 71 70 69 68 67 66 65 64 63
f 63 64 77 76
f 64 65 78 77
f 65 66 79 78
f 66 67 80 79
f 67 68 81 80
f 68 69 82 81
f 69 70 83 82
f 70 71 84 83
f 71 72 85 84
f 72 73 86 85
f 73 74 87 86
f 74 75 88 87
f 75 63 76 88
o SD0200_T003_3hao
v 21.550 32.094 0.000
v -16.203 -29.278 0.000
v -31.896 -19.771 0.000
v -22.660 -4.749 0.000
v -17.885 -7.645 0.000
v 1.181 23.372 0.000
v -6.787 28.192 0.000
v -0.321 38.715 0.000
v -4.188 41.059 0.000
v -8.118 47.868 0.000
v -10.241 48.144 0.000
v -11.931 55.429 0.000
v -10.187 68.550 0.000
v -6.760 74.011 0.000
v 0.533 69.744 0.000
v -1.283 64.571 0.000
v -2.003 58.303 0.000
v 0.299 49.305 0.000
v 4.427 42.485 0.000
v 21.550 32.094 16.110
v -16.203 -29.278 16.110
v -31.896 -19.771 16.110
v -22.660 -4.749 16.110
v -17.885 -7.645 16.110
v 1.181 23.372 16.110
v -6.787 28.192 16.110
v -0.321 38.715 16.110
v -4.188 41.059 16.110
v -8.118 47.868 16.110
v -10.241 48.144 16.110
v -11.931 55.429 16.110
v -10.187 68.550 16.110
v -6.760 74.011 16.110
v 0.533 69.744 16.110
v -1.283 64.571 16.110
v -2.003 58.303 16.110
v 0.299 49.305 16.110
v 4.427 42.485 16.110
usemtl roof
f 108 109 110 111 112 113 114 115 116 117 118 119 120 121 122 123 124 125 126
usemtl teaching_building
f 107 106 105 104 103 102 101 100 99 98 97 96 95 94 93 92 91 90 89
f 89 90 109 108
f 90 91 110 109
f 91 92 111 110
f 92 93 112 111
f 93 94 113 112
f 94 95 114 113
f 95 96 115 114
f 96 97 116 115
f 97 98 117 116
f 98 99 118 117
f 99 100 119 118
f 100 101 120 119
f 101 102 121 120
f 102 103 122 121
f 103 104 123 122
f 104 105 124 123
f 105 106 125 124
f 106 107 126 125
f 107 89 108 126
o SD0200_T004_4hao
v -54.037 39.754 0.000
v -20.286 17.868 0.000
v -42.490 -15.891 0.000
v -76.232 5.996 0.000
v -54.037 39.754 28.380
v -20.286 17.868 28.380
v -42.490 -15.891 28.380
v -76.232 5.996 28.380
usemtl roof
f 131 132 133 134
usemtl teaching_building
f 130 129 128 127
f 127 128 132 131
f 128 129 133 132
f 129 130 134 133
f 130 127 131 134
o SD0200_T005_5hao
v -111.287 -30.007 0.000
v -115.397 -49.087 0.000
v -152.044 -41.304 0.000
v -147.934 -22.225 0.000
v -111.287 -30.007 12.120
v -115.397 -49.087 12.120
v -152.044 -41.304 12.120
v -147.934 -22.225 12.120
usemtl roof
f 139 140 141 142
usemtl teaching_building
f 138 137 136 135
f 135 136 140 139
f 136 137 141 140
f 137 138 142 141
f 138 135 139 142
o SD0200_T006_6hao
v 189.397 -51.176 0.000
v 191.079 -58.925 0.000
v 142.957 -69.238 0.000
v 141.275 -61.478 0.000
v 189.397 -51.176 11.830
v 191.079 -58.925 11.830
v 142.957 -69.238 11.830
v 141.275 -61.478 11.830
usemtl roof
f 147 148 149 150
usemtl teaching_building
f 146 145 144 143
f 143 144 148 147
f 144 145 149 148
f 145 146 150 149
f 146 143 147 150
o SD0200_T007_7hao
v 19.068 -60.881 0.000
v 26.119 -30.626 0.000
v 40.507 -33.931 0.000
v 50.373 -100.985 0.000
v 45.750 -105.208 0.000
v 44.734 -108.645 0.000
v 42.225 -107.916 0.000
v 40.894 -112.426 0.000
v 42.027 -114.990 0.000
v 41.955 -118.506 0.000
v 38.394 -122.242 0.000
v 33.043 -122.828 0.000
v 29.203 -120.042 0.000
v 27.566 -115.632 0.000
v 28.933 -110.602 0.000
v 31.829 -108.060 0.000
v 32.612 -104.522 0.000
v -1.041 -97.238 0.000
v 5.560 -66.850 0.000
v 8.060 -67.270 0.000
v -82.905 -51.850 0.000
v -80.126 -36.485 0.000
v 3.951 -51.463 0.000
v 4.607 -47.815 0.000
v 8.366 -45.085 0.000
v 13.124 -46.246 0.000
v 14.751 -50.336 0.000
v 13.663 -55.597 0.000
v 10.039 -58.814 0.000
v 19.068 -60.881 21.980
v 26.119 -30.626 21.980
v 40.507 -33.931 21.980
v 50.373 -100.985 21.980
v 45.750 -105.208 21.980
v 44.734 -108.645 21.980
v 42.225 -107.916 21.980
v 40.894 -112.426 21.980
v 42.027 -114.990 21.980
v 41.955 -118.506 21.980
v 38.394 -122.242 21.980
v 33.043 -122.828 21.980
v 29.203 -120.042 21.980
v 27.566 -115.632 21.980
v 28.933 -110.602 21.980
v 31.829 -108.060 21.980
v 32.612 -104.522 21.980
v -1.041 -97.238 21.980
v 5.560 -66.850 21.980
v 8.060 -67.270 21.980
v -82.905 -51.850 21.980
v -80.126 -36.485 21.980
v 3.951 -51.463 21.980
v 4.607 -47.815 21.980
v 8.366 -45.085 21.980
v 13.124 -46.246 21.980
v 14.751 -50.336 21.980
v 13.663 -55.597 21.980
v 10.039 -58.814 21.980
usemtl roof
f 180 181 182 183 184 185 186 187 188 189 190 191 192 193 194 195 196 197 198 199 200 201 202 203 204 205 206 207 208
usemtl teaching_building
f 179 178 177 176 175 174 173 172 171 170 169 168 167 166 165 164 163 162 161 160 159 158 157 156 155 154 153 152 151
f 151 152 181 180
f 152 153 182 181
f 153 154 183 182
f 154 155 184 183
f 155 156 185 184
f 156 157 186 185
f 157 158 187 186
f 158 159 188 187
f 159 160 189 188
f 160 161 190 189
f 161 162 191 190
f 162 163 192 191
f 163 164 193 192
f 164 165 194 193
f 165 166 195 194
f 166 167 196 195
f 167 168 197 196
f 168 169 198 197
f 169 170 199 198
f 170 171 200 199
f 171 172 201 200
f 172 173 202 201
f 173 174 203 202
f 174 175 204 203
f 175 176 205 204
f 176 177 206 205
f 177 178 207 206
f 178 179 208 207
f 179 151 180 208
