# school_id SD0224
# school_name 莱西市第四中学
# boundary_source footprint_convex_hull_buffer_20m
# adjacent_block_merge_distance_m 2.0
mtllib ../campus_materials.mtl
o SD0224_campus_boundary
usemtl campus_boundary
v -37.656 -36.703 0.050
v -45.876 25.882 0.050
v 37.656 36.703 0.050
v 45.876 -25.882 0.050
v -37.656 -36.703 0.050
l 1 2 3 4 5 1
o SD0224_T001_1hao
v -23.437 8.622 0.000
v 20.426 14.304 0.000
v 23.437 -8.622 0.000
v -20.426 -14.304 0.000
v -23.437 8.622 27.910
v 20.426 14.304 27.910
v 23.437 -8.622 27.910
v -20.426 -14.304 27.910
usemtl roof
f 10 11 12 13
usemtl teaching_building
f 9 8 7 6
f 6 7 11 10
f 7 8 12 11
f 8 9 13 12
f 9 6 10 13
