# school_id SD0274
# school_name 青岛市福州路小学
# boundary_source footprint_convex_hull_buffer_20m
# adjacent_block_merge_distance_m 2.0
mtllib ../campus_materials.mtl
o SD0274_campus_boundary
usemtl campus_boundary
v -28.592 -109.431 0.050
v -70.374 -100.629 0.050
v -28.577 126.772 0.050
v 79.280 126.235 0.050
v 79.064 83.184 0.050
v 57.133 -49.224 0.050
v 48.255 -81.805 0.050
v -28.592 -109.431 0.050
l 1 2 3 4 5 6 7 8 1
o SD0274_T001_1hao
v 59.180 106.335 0.000
v 59.072 84.879 0.000
v 6.989 85.145 0.000
v 6.899 66.806 0.000
v -12.131 66.894 0.000
v -11.933 106.689 0.000
v 59.180 106.335 21.480
v 59.072 84.879 21.480
v 6.989 85.145 21.480
v 6.899 66.806 21.480
v -12.131 66.894 21.480
v -11.933 106.689 21.480
usemtl roof
f 15 16 17 18 19 20
usemtl teaching_building
f 14 13 12 11 10 9
f 9 10 16 15
f 10 11 17 16
f 11 12 18 17
f 12 13 19 18
f 13 14 20 19
f 14 9 15 20
o SD0274_T002_2hao
v 37.568 -44.950 0.000
v 31.695 -66.505 0.000
v -33.177 -49.084 0.000
v -27.313 -27.540 0.000
v 37.568 -44.950 18.470
v 31.695 -66.505 18.470
v -33.177 -49.084 18.470
v -27.313 -27.540 18.470
usemtl roof
f 25 26 27 28
usemtl teaching_building
f 24 23 22 21
f 21 22 26 25
f 22 23 27 26
f 23 24 28 27
f 24 21 25 28
o SD0274_T003_3hao
v -23.212 -58.878 0.000
v -30.020 -88.691 0.000
v -47.180 -85.076 0.000
v -40.102 -54.810 0.000
v -23.212 -58.878 16.380
v -30.020 -88.691 16.380
v -47.180 -85.076 16.380
v -40.102 -54.810 16.380
usemtl roof
f 33 34 35 36
usemtl teaching_building
f 32 31 30 29
f 29 30 34 33
f 30 31 35 34
f 31 32 36 35
f 32 29 33 36
