# school_id SD0266
# school_name 青岛市崂山区实验初级中学
# boundary_source footprint_convex_hull_buffer_20m
# adjacent_block_merge_distance_m 2.0
mtllib ../campus_materials.mtl
o SD0266_campus_boundary
usemtl campus_boundary
v 13.354 -59.252 0.050
v -73.406 -44.768 0.050
v -74.201 62.522 0.050
v 8.115 68.304 0.050
v 50.663 68.625 0.050
v 61.890 -1.299 0.050
v 62.335 -58.874 0.050
v 13.354 -59.252 0.050
l 1 2 3 4 5 6 7 8 1
o SD0266_T001_1hao
v 14.935 -39.239 0.000
v 10.960 -33.314 0.000
v 10.861 -19.121 0.000
v -15.504 -19.287 0.000
v -23.327 -27.588 0.000
v -53.531 -27.809 0.000
v -54.062 43.887 0.000
v 8.928 44.340 0.000
v 8.892 48.309 0.000
v 33.639 48.496 0.000
v 33.845 21.724 0.000
v -39.656 21.171 0.000
v -39.441 -8.354 0.000
v 9.710 -7.989 0.000
v 9.666 -3.225 0.000
v 41.902 -2.971 0.000
v 42.181 -39.029 0.000
v 14.935 -39.239 13.150
v 10.960 -33.314 13.150
v 10.861 -19.121 13.150
v -15.504 -19.287 13.150
v -23.327 -27.588 13.150
v -53.531 -27.809 13.150
v -54.062 43.887 13.150
v 8.928 44.340 13.150
v 8.892 48.309 13.150
v 33.639 48.496 13.150
v 33.845 21.724 13.150
v -39.656 21.171 13.150
v -39.441 -8.354 13.150
v 9.710 -7.989 13.150
v 9.666 -3.225 13.150
v 41.902 -2.971 13.150
v 42.181 -39.029 13.150
usemtl roof
f 26 27 28 29 30 31 32 33 34 35 36 37 38 39 40 41 42
usemtl teaching_building
f 25 24 23 22 21 20 19 18 17 16 15 14 13 12 11 10 9
f 9 10 27 26
f 10 11 28 27
f 11 12 29 28
f 12 13 30 29
f 13 14 31 30
f 14 15 32 31
f 15 16 33 32
f 16 17 34 33
f 17 18 35 34
f 18 19 36 35
f 19 20 37 36
f 20 21 38 37
f 21 22 39 38
f 22 23 40 39
f 23 24 41 40
f 24 25 42 41
f 25 9 26 42
