# school_id SD0295
# school_name 青岛滨海学校
# boundary_source footprint_convex_hull_buffer_20m
# adjacent_block_merge_distance_m 2.0
mtllib ../campus_materials.mtl
o SD0295_campus_boundary
usemtl campus_boundary
v -3.037 -121.599 0.050
v -67.256 -120.915 0.050
v -89.898 -67.063 0.050
v -112.921 20.829 0.050
v -95.522 51.549 0.050
v 48.973 138.452 0.050
v 74.606 121.374 0.050
v 110.953 90.117 0.050
v 49.987 -29.650 0.050
v 26.399 -71.220 0.050
v -3.037 -121.599 0.050
l 1 2 3 4 5 6 7 8 9 10 11 1
o SD0295_T001_1hao
v 62.496 105.410 0.000
v 65.220 98.325 0.000
v 86.005 85.193 0.000
v 80.962 77.687 0.000
v 68.582 74.139 0.000
v 58.927 62.886 0.000
v 52.624 53.092 0.000
v 47.797 37.660 0.000
v 50.943 23.699 0.000
v 46.961 16.614 0.000
v 22.399 30.155 0.000
v 15.890 25.777 0.000
v 0.355 33.493 0.000
v 48.426 114.784 0.000
v 62.496 105.410 9.900
v 65.220 98.325 9.900
v 86.005 85.193 9.900
v 80.962 77.687 9.900
v 68.582 74.139 9.900
v 58.927 62.886 9.900
v 52.624 53.092 9.900
v 47.797 37.660 9.900
v 50.943 23.699 9.900
v 46.961 16.614 9.900
v 22.399 30.155 9.900
v 15.890 25.777 9.900
v 0.355 33.493 9.900
v 48.426 114.784 9.900
usemtl roof
f 26 27 28 29 30 31 32 33 34 35 36 37 38 39
usemtl teaching_building
f 25 24 23 22 21 20 19 18 17 16 15 14 13 12
f 12 13 27 26
f 13 14 28 27
f 14 15 29 28
f 15 16 30 29
f 16 17 31 30
f 17 18 32 31
f 18 19 33 32
f 19 20 34 33
f 20 21 35 34
f 21 22 36 35
f 22 23 37 36
f 23 24 38 37
f 24 25 39 38
f 25 12 26 39
o SD0295_T002_2hao
v -46.115 17.807 0.000
v -56.931 -1.272 0.000
v -91.516 18.040 0.000
v -80.710 37.119 0.000
v -46.115 17.807 9.900
v -56.931 -1.272 9.900
v -91.516 18.040 9.900
v -80.710 37.119 9.900
usemtl roof
f 44 45 46 47
usemtl teaching_building
f 43 42 41 40
f 40 41 45 44
f 41 42 46 45
f 42 43 47 46
f 43 40 44 47
o SD0295_T003_3hao
v 31.947 -7.252 0.000
v 32.369 -20.174 0.000
v -15.701 -21.014 0.000
v -15.279 -47.909 0.000
v 8.437 -48.528 0.000
v 9.067 -61.240 0.000
v -15.701 -61.240 0.000
v -14.443 -101.476 0.000
v -53.910 -101.056 0.000
v -53.281 -88.134 0.000
v -26.831 -88.134 0.000
v -27.245 -61.240 0.000
v -70.911 -60.621 0.000
v -70.488 -47.489 0.000
v -27.245 -48.108 0.000
v -27.245 -21.014 0.000
v -48.030 -19.765 0.000
v -47.824 -6.213 0.000
v 31.947 -7.252 9.900
v 32.369 -20.174 9.900
v -15.701 -21.014 9.900
v -15.279 -47.909 9.900
v 8.437 -48.528 9.900
v 9.067 -61.240 9.900
v -15.701 -61.240 9.900
v -14.443 -101.476 9.900
v -53.910 -101.056 9.900
v -53.281 -88.134 9.900
v -26.831 -88.134 9.900
v -27.245 -61.240 9.900
v -70.911 -60.621 9.900
v -70.488 -47.489 9.900
v -27.245 -48.108 9.900
v -27.245 -21.014 9.900
v -48.030 -19.765 9.900
v -47.824 -6.213 9.900
usemtl roof
f 66 67 68 69 70 71 72 73 74 75 76 77 78 79 80 81 82 83
usemtl teaching_building
f 65 64 63 62 61 60 59 58 57 56 55 54 53 52 51 50 49 48
f 48 49 67 66
f 49 50 68 67
f 50 51 69 68
f 51 52 70 69
f 52 53 71 70
f 53 54 72 71
f 54 55 73 72
f 55 56 74 73
f 56 57 75 74
f 57 58 76 75
f 58 59 77 76
f 59 60 78 77
f 60 61 79 78
f 61 62 80 79
f 62 63 81 80
f 63 64 82 81
f 64 65 83 82
f 65 48 66 83
