# school_id SD0259
# school_name 青岛崇德小学
# boundary_source footprint_convex_hull_buffer_20m
# adjacent_block_merge_distance_m 2.0
mtllib ../campus_materials.mtl
o SD0259_campus_boundary
usemtl campus_boundary
v -38.871 -95.111 0.050
v -47.297 -46.216 0.050
v -52.224 -8.552 0.050
v -53.660 8.856 0.050
v -57.127 69.546 0.050
v -5.256 73.761 0.050
v 43.522 77.489 0.050
v 73.050 -47.355 0.050
v 75.639 -87.858 0.050
v -38.871 -95.111 0.050
l 1 2 3 4 5 6 7 8 9 10 1
o SD0259_T001_1hao
v -22.887 25.901 0.000
v -21.682 11.232 0.000
v -33.707 10.249 0.000
v -32.331 -6.432 0.000
v -25.091 -11.461 0.000
v -17.616 -10.743 0.000
v -16.033 -30.530 0.000
v -28.455 -31.502 0.000
v -27.519 -43.220 0.000
v 35.631 -38.223 0.000
v 34.948 -29.712 0.000
v -10.439 -33.304 0.000
v -12.975 -1.789 0.000
v 33.509 1.903 0.000
v 31.926 21.645 0.000
v 24.640 21.070 0.000
v 24.109 27.603 0.000
v 30.289 28.101 0.000
v 27.995 56.244 0.000
v 10.024 54.807 0.000
v 10.501 48.960 0.000
v -3.189 47.843 0.000
v -3.684 53.823 0.000
v -36.046 51.193 0.000
v -33.878 25.006 0.000
v -22.887 25.901 16.300
v -21.682 11.232 16.300
v -33.707 10.249 16.300
v -32.331 -6.432 16.300
v -25.091 -11.461 16.300
v -17.616 -10.743 16.300
v -16.033 -30.530 16.300
v -28.455 -31.502 16.300
v -27.519 -43.220 16.300
v 35.631 -38.223 16.300
v 34.948 -29.712 16.300
v -10.439 -33.304 16.300
v -12.975 -1.789 16.300
v 33.509 1.903 16.300
v 31.926 21.645 16.300
v 24.640 21.070 16.300
v 24.109 27.603 16.300
v 30.289 28.101 16.300
v 27.995 56.244 16.300
v 10.024 54.807 16.300
v 10.501 48.960 16.300
v -3.189 47.843 16.300
v -3.684 53.823 16.300
v -36.046 51.193 16.300
v -33.878 25.006 16.300
usemtl roof
f 36 37 38 39 40 41 42 43 44 45 46 47 48 49 50 51 52 53 54 55 56 57 58 59 60
usemtl teaching_building
f 35 34 33 32 31 30 29 28 27 26 25 24 23 22 21 20 19 18 17 16 15 14 13 12 11
f 11 12 37 36
f 12 13 38 37
f 13 14 39 38
f 14 15 40 39
f 15 16 41 40
f 16 17 42 41
f 17 18 43 42
f 18 19 44 43
f 19 20 45 44
f 20 21 46 45
f 21 22 47 46
f 22 23 48 47
f 23 24 49 48
f 24 25 50 49
f 25 26 51 50
f 26 27 52 51
f 27 28 53 52
f 28 29 54 53
f 29 30 55 54
f 30 31 56 55
f 31 32 57 56
f 32 33 58 57
f 33 34 59 58
f 34 35 60 59
f 35 11 36 60
o SD0259_T002_2hao
v -23.427 -55.169 0.000
v 53.198 -50.316 0.000
v 54.403 -69.163 0.000
v -22.212 -74.016 0.000
v -23.427 -55.169 12.830
v 53.198 -50.316 12.830
v 54.403 -69.163 12.830
v -22.212 -74.016 12.830
usemtl roof
f 65 66 67 68
usemtl teaching_building
f 64 63 62 61
f 61 62 66 65
f 62 63 67 66
f 63 64 68 67
f 64 61 65 68
