# school_id SD0256
# school_name 青岛实验初级中学
# boundary_source footprint_convex_hull_buffer_20m
# adjacent_block_merge_distance_m 2.0
mtllib ../campus_materials.mtl
o SD0256_campus_boundary
usemtl campus_boundary
v -29.908 -68.152 0.050
v -54.013 -67.553 0.050
v -81.269 -49.637 0.050
v -4.079 69.898 0.050
v 58.831 31.192 0.050
v 52.305 -9.755 0.050
v 43.435 -22.688 0.050
v -29.908 -68.152 0.050
l 1 2 3 4 5 6 7 8 1
o SD0256_T001_1hao
v -8.260 5.259 0.000
v 20.196 3.888 0.000
v 20.835 16.866 0.000
v 13.149 21.044 0.000
v 3.637 16.324 0.000
v 2.179 23.410 0.000
v -12.148 0.450 0.000
v -20.859 5.801 0.000
v 2.107 42.610 0.000
v 36.979 21.155 0.000
v 34.190 16.689 0.000
v 33.263 -2.158 0.000
v 29.618 -1.981 0.000
v 29.321 -7.906 0.000
v -8.818 -6.060 0.000
v -8.260 5.259 14.930
v 20.196 3.888 14.930
v 20.835 16.866 14.930
v 13.149 21.044 14.930
v 3.637 16.324 14.930
v 2.179 23.410 14.930
v -12.148 0.450 14.930
v -20.859 5.801 14.930
v 2.107 42.610 14.930
v 36.979 21.155 14.930
v 34.190 16.689 14.930
v 33.263 -2.158 14.930
v 29.618 -1.981 14.930
v 29.321 -7.906 14.930
v -8.818 -6.060 14.930
usemtl roof
f 24 25 26 27 28 29 30 31 32 33 34 35 36 37 38
usemtl teaching_building
f 23 22 21 20 19 18 17 16 15 14 13 12 11 10 9
f 9 10 25 24
f 10 11 26 25
f 11 12 27 26
f 12 13 28 27
f 13 14 29 28
f 14 15 30 29
f 15 16 31 30
f 16 17 32 31
f 17 18 33 32
f 18 19 34 33
f 19 20 35 34
f 20 21 36 35
f 21 22 37 36
f 22 23 38 37
f 23 9 24 38
o SD0256_T002_2hao
v -11.905 -12.748 0.000
v -35.375 -48.010 0.000
v -47.803 -47.701 0.000
v -53.706 -43.821 0.000
v -26.600 -3.109 0.000
v -11.905 -12.748 13.200
v -35.375 -48.010 13.200
v -47.803 -47.701 13.200
v -53.706 -43.821 13.200
v -26.600 -3.109 13.200
usemtl roof
f 44 45 46 47 48
usemtl teaching_building
f 43 42 41 40 39
f 39 40 45 44
f 40 41 46 45
f 41 42 47 46
f 42 43 48 47
f 43 39 44 48
