# school_id SD0247
# school_name 青岛大学市北附属中学大连路校区
# boundary_source footprint_convex_hull_buffer_20m
# adjacent_block_merge_distance_m 2.0
mtllib ../campus_materials.mtl
o SD0247_campus_boundary
usemtl campus_boundary
v 29.463 -49.682 0.050
v -58.586 8.613 0.050
v -32.846 49.509 0.050
v 62.205 -8.499 0.050
v 29.463 -49.682 0.050
l 1 2 3 4 5 1
o SD0247_T001_1hao
v -26.427 22.161 0.000
v 32.459 -13.776 0.000
v 25.217 -22.885 0.000
v -31.249 14.500 0.000
v -26.427 22.161 11.950
v 32.459 -13.776 11.950
v 25.217 -22.885 11.950
v -31.249 14.500 11.950
usemtl roof
f 10 11 12 13
usemtl teaching_building
f 9 8 7 6
f 6 7 11 10
f 7 8 12 11
f 8 9 13 12
f 9 6 10 13
