# school_id SD0204
# school_name 山东省青岛第六中学
# boundary_source footprint_convex_hull_buffer_20m
# adjacent_block_merge_distance_m 2.0
mtllib ../campus_materials.mtl
o SD0204_campus_boundary
usemtl campus_boundary
v 18.627 -155.109 0.050
v -107.064 -51.163 0.050
v -146.820 173.896 0.050
v -67.404 201.394 0.050
v -31.463 200.554 0.050
v 48.519 110.238 0.050
v 70.530 46.386 0.050
v 102.020 -50.846 0.050
v 108.956 -74.386 0.050
v 71.244 -137.816 0.050
v 18.627 -155.109 0.050
l 1 2 3 4 5 6 7 8 9 10 11 1
o SD0204_T001_1hao
v -64.267 181.315 0.000
v -61.702 173.500 0.000
v -40.652 180.763 0.000
v -25.283 139.697 0.000
v -44.316 132.247 0.000
v -40.291 121.701 0.000
v -96.743 100.632 0.000
v -88.784 76.822 0.000
v -94.699 75.451 0.000
v -124.158 160.578 0.000
v -64.267 181.315 9.760
v -61.702 173.500 9.760
v -40.652 180.763 9.760
v -25.283 139.697 9.760
v -44.316 132.247 9.760
v -40.291 121.701 9.760
v -96.743 100.632 9.760
v -88.784 76.822 9.760
v -94.699 75.451 9.760
v -124.158 160.578 9.760
usemtl roof
f 22 23 24 25 26 27 28 29 30 31
usemtl teaching_building
f 21 20 19 18 17 16 15 14 13 12
f 12 13 23 22
f 13 14 24 23
f 14 15 25 24
f 15 16 26 25
f 16 17 27 26
f 17 18 28 27
f 18 19 29 28
f 19 20 30 29
f 20 21 31 30
f 21 12 22 31
o SD0204_T002_2hao
v 57.882 -121.155 0.000
v 22.868 -132.663 0.000
v 14.170 -112.998 0.000
v -8.174 -45.775 0.000
v -22.636 -50.310 0.000
v -35.827 -15.347 0.000
v -21.753 -52.665 0.000
v -59.910 -63.940 0.000
v -88.649 -40.439 0.000
v -80.438 -8.780 0.000
v -51.942 -0.147 0.000
v -38.662 -7.830 0.000
v -36.582 -13.346 0.000
v -5.277 -2.259 0.000
v 8.597 -40.516 0.000
v -7.177 2.992 0.000
v 43.809 19.066 0.000
v 38.317 33.368 0.000
v 29.908 31.279 0.000
v 6.148 91.192 0.000
v 30.908 99.958 0.000
v 51.561 40.045 0.000
v 44.836 36.917 0.000
v 50.220 21.087 0.000
v 56.918 23.199 0.000
v 62.050 5.391 0.000
v 17.024 -9.145 0.000
v 24.344 -34.227 0.000
v 69.370 -17.137 0.000
v 73.395 -33.132 0.000
v 15.926 -54.577 0.000
v 24.344 -77.846 0.000
v 82.911 -56.755 0.000
v 87.305 -71.667 0.000
v 29.836 -95.289 0.000
v 33.985 -106.217 0.000
v 49.185 -101.015 0.000
v 57.882 -121.155 14.430
v 22.868 -132.663 14.430
v 14.170 -112.998 14.430
v -8.174 -45.775 14.430
v -22.636 -50.310 14.430
v -35.827 -15.347 14.430
v -21.753 -52.665 14.430
v -59.910 -63.940 14.430
v -88.649 -40.439 14.430
v -80.438 -8.780 14.430
v -51.942 -0.147 14.430
v -38.662 -7.830 14.430
v -36.582 -13.346 14.430
v -5.277 -2.259 14.430
v 8.597 -40.516 14.430
v -7.177 2.992 14.430
v 43.809 19.066 14.430
v 38.317 33.368 14.430
v 29.908 31.279 14.430
v 6.148 91.192 14.430
v 30.908 99.958 14.430
v 51.561 40.045 14.430
v 44.836 36.917 14.430
v 50.220 21.087 14.430
v 56.918 23.199 14.430
v 62.050 5.391 14.430
v 17.024 -9.145 14.430
v 24.344 -34.227 14.430
v 69.370 -17.137 14.430
v 73.395 -33.132 14.430
v 15.926 -54.577 14.430
v 24.344 -77.846 14.430
v 82.911 -56.755 14.430
v 87.305 -71.667 14.430
v 29.836 -95.289 14.430
v 33.985 -106.217 14.430
v 49.185 -101.015 14.430
usemtl roof
f 69 70 71 72 73 74 75 76 77 78 79 80 81 82 83 84 85 86 87 88 89 90 91 92 93 94 95 96 97 98 99 100 101 102 103 104 105
usemtl teaching_building
f 68 67 66 65 64 63 62 61 60 59 58 57 56 55 54 53 52 51 50 49 48 47 46 45 44 43 42 41 40 39 38 37 36 35 34 33 32
f 32 33 70 69
f 33 34 71 70
f 34 35 72 71
f 35 36 73 72
f 36 37 74 73
f 37 38 75 74
f 38 39 76 75
f 39 40 77 76
f 40 41 78 77
f 41 42 79 78
f 42 43 80 79
f 43 44 81 80
f 44 45 82 81
f 45 46 83 82
f 46 47 84 83
f 47 48 85 84
f 48 49 86 85
f 49 50 87 86
f 50 51 88 87
f 51 52 89 88
f 52 53 90 89
f 53 54 91 90
f 54 55 92 91
f 55 56 93 92
f 56 57 94 93
f 57 58 95 94
f 58 59 96 95
f 59 60 97 96
f 60 61 98 97
f 61 62 99 98
f 62 63 100 99
f 63 64 101 100
f 64 65 102 101
f 65 66 103 102
f 66 67 104 103
f 67 68 105 104
f 68 32 69 105
