# school_id SD0216
# school_name 珠江路小学
# boundary_source footprint_convex_hull_buffer_20m
# adjacent_block_merge_distance_m 2.0
mtllib ../campus_materials.mtl
o SD0216_campus_boundary
usemtl campus_boundary
v -269.280 -582.899 0.050
v -343.294 -552.869 0.050
v -359.101 -528.442 0.050
v -360.528 114.542 0.050
v -326.729 206.107 0.050
v -107.084 466.137 0.050
v -75.908 494.418 0.050
v -33.148 509.900 0.050
v 5.740 510.994 0.050
v 362.404 509.853 0.050
v 382.751 501.398 0.050
v 522.277 5.589 0.050
v 525.046 -58.662 0.050
v 481.044 -99.566 0.050
v 216.169 -307.928 0.050
v 139.690 -361.230 0.050
v -269.280 -582.899 0.050
l 1 2 3 4 5 6 7 8 9 10 11 12 13 14 15 16 17 1
o SD0216_T001_1hao
v 194.272 433.501 0.000
v 239.948 465.934 0.000
v 227.700 485.190 0.000
v 181.519 452.758 0.000
v 194.272 433.501 14.770
v 239.948 465.934 14.770
v 227.700 485.190 14.770
v 181.519 452.758 14.770
usemtl roof
f 22 23 24 25
usemtl teaching_building
f 21 20 19 18
f 18 19 23 22
f 19 20 24 23
f 20 21 25 24
f 21 18 22 25
o SD0216_T002_2hao
v 237.911 421.840 0.000
v 260.623 437.547 0.000
v 246.329 457.566 0.000
v 222.599 442.875 0.000
v 237.911 421.840 14.630
v 260.623 437.547 14.630
v 246.329 457.566 14.630
v 222.599 442.875 14.630
usemtl roof
f 30 31 32 33
usemtl teaching_building
f 29 28 27 26
f 26 27 31 30
f 27 28 32 31
f 28 29 33 32
f 29 26 30 33
o SD0216_T003_3hao
v -103.776 328.511 0.000
v -116.240 351.249 0.000
v -117.917 391.364 0.000
v -107.822 423.796 0.000
v -92.663 452.216 0.000
v -65.391 476.955 0.000
v -29.367 489.998 0.000
v 5.989 490.993 0.000
v 33.604 483.642 0.000
v 63.904 470.599 0.000
v 84.778 447.872 0.000
v 57.505 428.140 0.000
v 38.290 446.490 0.000
v 42.355 451.884 0.000
v 7.674 464.585 0.000
v -17.912 463.579 0.000
v -15.227 456.892 0.000
v -36.100 441.847 0.000
v -30.377 434.496 0.000
v -9.495 447.197 0.000
v 25.853 398.051 0.000
v -31.386 355.261 0.000
v -67.410 409.083 0.000
v -50.241 419.783 0.000
v -56.297 428.472 0.000
v -77.513 411.758 0.000
v -82.903 415.108 0.000
v -88.292 400.726 0.000
v -90.644 375.656 0.000
v -83.912 348.574 0.000
v -78.865 350.906 0.000
v -70.105 331.517 0.000
v -95.025 316.473 0.000
v -103.776 328.511 24.350
v -116.240 351.249 24.350
v -117.917 391.364 24.350
v -107.822 423.796 24.350
v -92.663 452.216 24.350
v -65.391 476.955 24.350
v -29.367 489.998 24.350
v 5.989 490.993 24.350
v 33.604 483.642 24.350
v 63.904 470.599 24.350
v 84.778 447.872 24.350
v 57.505 428.140 24.350
v 38.290 446.490 24.350
v 42.355 451.884 24.350
v 7.674 464.585 24.350
v -17.912 463.579 24.350
v -15.227 456.892 24.350
v -36.100 441.847 24.350
v -30.377 434.496 24.350
v -9.495 447.197 24.350
v 25.853 398.051 24.350
v -31.386 355.261 24.350
v -67.410 409.083 24.350
v -50.241 419.783 24.350
v -56.297 428.472 24.350
v -77.513 411.758 24.350
v -82.903 415.108 24.350
v -88.292 400.726 24.350
v -90.644 375.656 24.350
v -83.912 348.574 24.350
v -78.865 350.906 24.350
v -70.105 331.517 24.350
v -95.025 316.473 24.350
usemtl roof
f 67 68 69 70 71 72 73 74 75 76 77 78 79 80 81 82 83 84 85 86 87 88 89 90 91 92 93 94 95 96 97 98 99
usemtl teaching_building
f 66 65 64 63 62 61 60 59 58 57 56 55 54 53 52 51 50 49 48 47 46 45 44 43 42 41 40 39 38 37 36 35 34
f 34 35 68 67
f 35 36 69 68
f 36 37 70 69
f 37 38 71 70
f 38 39 72 71
f 39 40 73 72
f 40 41 74 73
f 41 42 75 74
f 42 43 76 75
f 43 44 77 76
f 44 45 78 77
f 45 46 79 78
f 46 47 80 79
f 47 48 81 80
f 48 49 82 81
f 49 50 83 82
f 50 51 84 83
f 51 52 85 84
f 52 53 86 85
f 53 54 87 86
f 54 55 88 87
f 55 56 89 88
f 56 57 90 89
f 57 58 91 90
f 58 59 92 91
f 59 60 93 92
f 60 61 94 93
f 61 62 95 94
f 62 63 96 95
f 63 64 97 96
f 64 65 98 97
f 65 66 99 98
f 66 34 67 99
o SD0216_T004_4hao
v 79.731 419.783 0.000
v 96.900 394.713 0.000
v -13.875 318.142 0.000
v -31.720 340.206 0.000
v 79.731 419.783 21.050
v 96.900 394.713 21.050
v -13.875 318.142 21.050
v -31.720 340.206 21.050
usemtl roof
f 104 105 106 107
usemtl teaching_building
f 103 102 101 100
f 100 101 105 104
f 101 102 106 105
f 102 103 107 106
f 103 100 104 107
o SD0216_T005_5hao
v -309.183 195.885 0.000
v -289.283 169.963 0.000
v -119.278 296.885 0.000
v -136.293 321.082 0.000
v -309.183 195.885 25.710
v -289.283 169.963 25.710
v -119.278 296.885 25.710
v -136.293 321.082 25.710
usemtl roof
f 112 113 114 115
usemtl teaching_building
f 111 110 109 108
f 108 109 113 112
f 109 110 114 113
f 110 111 115 114
f 111 108 112 115
o SD0216_T006_6hao
v -101.982 272.964 0.000
v -84.507 250.724 0.000
v -145.405 205.358 0.000
v -149.118 208.077 0.000
v -154.220 208.729 0.000
v -162.160 203.821 0.000
v -173.822 219.408 0.000
v -101.982 272.964 33.210
v -84.507 250.724 33.210
v -145.405 205.358 33.210
v -149.118 208.077 33.210
v -154.220 208.729 33.210
v -162.160 203.821 33.210
v -173.822 219.408 33.210
usemtl roof
f 123 124 125 126 127 128 129
usemtl teaching_building
f 122 121 120 119 118 117 116
f 116 117 124 123
f 117 118 125 124
f 118 119 126 125
f 119 120 127 126
f 120 121 128 127
f 121 122 129 128
f 122 116 123 129
o SD0216_T007_7hao
v -179.743 163.673 0.000
v -157.996 180.177 0.000
v -173.858 200.815 0.000
v -196.687 184.366 0.000
v -179.743 163.673 20.080
v -157.996 180.177 20.080
v -173.858 200.815 20.080
v -196.687 184.366 20.080
usemtl roof
f 134 135 136 137
usemtl teaching_building
f 133 132 131 130
f 130 131 135 134
f 131 132 136 135
f 132 133 137 136
f 133 130 134 137
o SD0216_T008_8hao
v -320.827 83.189 0.000
v -286.606 107.619 0.000
v -307.479 135.198 0.000
v -340.520 110.990 0.000
v -320.827 83.189 8.620
v -286.606 107.619 8.620
v -307.479 135.198 8.620
v -340.520 110.990 8.620
usemtl roof
f 142 143 144 145
usemtl teaching_building
f 141 140 139 138
f 138 139 143 142
f 139 140 144 143
f 140 141 145 144
f 141 138 142 145
o SD0216_T009_9hao
v 142.233 25.963 0.000
v 164.891 43.826 0.000
v 162.890 49.563 0.000
v 189.991 68.753 0.000
v 178.437 83.532 0.000
v 128.011 45.816 0.000
v 142.233 25.963 11.380
v 164.891 43.826 11.380
v 162.890 49.563 11.380
v 189.991 68.753 11.380
v 178.437 83.532 11.380
v 128.011 45.816 11.380
usemtl roof
f 152 153 154 155 156 157
usemtl teaching_building
f 151 150 149 148 147 146
f 146 147 153 152
f 147 148 154 153
f 148 149 155 154
f 149 150 156 155
f 150 151 157 156
f 151 146 152 157
o SD0216_T010_10hao
v 14.831 -13.434 0.000
v 22.635 -24.167 0.000
v 5.575 -36.393 0.000
v 42.364 -85.351 0.000
v 58.515 -74.375 0.000
v 67.095 -88.126 0.000
v 152.904 -21.647 0.000
v 133.320 3.998 0.000
v 54.928 -54.168 0.000
v 44.852 -39.333 0.000
v 113.375 9.702 0.000
v 99.135 28.030 0.000
v 91.177 40.355 0.000
v 14.831 -13.434 19.480
v 22.635 -24.167 19.480
v 5.575 -36.393 19.480
v 42.364 -85.351 19.480
v 58.515 -74.375 19.480
v 67.095 -88.126 19.480
v 152.904 -21.647 19.480
v 133.320 3.998 19.480
v 54.928 -54.168 19.480
v 44.852 -39.333 19.480
v 113.375 9.702 19.480
v 99.135 28.030 19.480
v 91.177 40.355 19.480
usemtl roof
f 171 172 173 174 175 176 177 178 179 180 181 182 183
usemtl teaching_building
f 170 169 168 167 166 165 164 163 162 161 160 159 158
f 158 159 172 171
f 159 160 173 172
f 160 161 174 173
f 161 162 175 174
f 162 163 176 175
f 163 164 177 176
f 164 165 178 177
f 165 166 179 178
f 166 167 180 179
f 167 168 181 180
f 168 169 182 181
f 169 170 183 182
f 170 158 171 183
o SD0216_T011_11hao
v 405.303 -105.315 0.000
v 448.978 -73.302 0.000
v 444.292 -65.730 0.000
v 492.068 -31.971 0.000
v 504.667 -50.299 0.000
v 464.804 -77.956 0.000
v 468.031 -84.356 0.000
v 417.028 -121.907 0.000
v 405.303 -105.315 9.900
v 448.978 -73.302 9.900
v 444.292 -65.730 9.900
v 492.068 -31.971 9.900
v 504.667 -50.299 9.900
v 464.804 -77.956 9.900
v 468.031 -84.356 9.900
v 417.028 -121.907 9.900
usemtl roof
f 192 193 194 195 196 197 198 199
usemtl teaching_building
f 191 190 189 188 187 186 185 184
f 184 185 193 192
f 185 186 194 193
f 186 187 195 194
f 187 188 196 195
f 188 189 197 196
f 189 190 198 197
f 190 191 199 198
f 191 184 192 199
o SD0216_T012_12hao
v 266.364 -142.279 0.000
v 357.815 -77.956 0.000
v 395.344 -129.136 0.000
v 305.344 -194.974 0.000
v 266.364 -142.279 9.900
v 357.815 -77.956 9.900
v 395.344 -129.136 9.900
v 305.344 -194.974 9.900
usemtl roof
f 204 205 206 207
usemtl teaching_building
f 203 202 201 200
f 200 201 205 204
f 201 202 206 205
f 202 203 207 206
f 203 200 204 207
o SD0216_T013_13hao
v -98.675 -303.900 0.000
v -37.064 -260.767 0.000
v -43.454 -250.410 0.000
v -31.675 -239.709 0.000
v -66.022 -191.558 0.000
v -139.421 -246.729 0.000
v -98.675 -303.900 14.720
v -37.064 -260.767 14.720
v -43.454 -250.410 14.720
v -31.675 -239.709 14.720
v -66.022 -191.558 14.720
v -139.421 -246.729 14.720
usemtl roof
f 214 215 216 217 218 219
usemtl teaching_building
f 213 212 211 210 209 208
f 208 209 215 214
f 209 210 216 215
f 210 211 217 216
f 211 212 218 217
f 212 213 219 218
f 213 208 214 219
o SD0216_T014_14hao
v 197.192 -283.151 0.000
v 204.258 -291.851 0.000
v 179.347 -308.896 0.000
v 172.777 -299.710 0.000
v 197.192 -283.151 8.050
v 204.258 -291.851 8.050
v 179.347 -308.896 8.050
v 172.777 -299.710 8.050
usemtl roof
f 224 225 226 227
usemtl teaching_building
f 223 222 221 220
f 220 221 225 224
f 221 222 226 225
f 222 223 227 226
f 223 220 224 227
o SD0216_T015_15hao
v -178.139 -369.439 0.000
v -103.388 -310.919 0.000
v -146.829 -251.747 0.000
v -223.932 -309.582 0.000
v -178.139 -369.439 14.720
v -103.388 -310.919 14.720
v -146.829 -251.747 14.720
v -223.932 -309.582 14.720
usemtl roof
f 232 233 234 235
usemtl teaching_building
f 231 230 229 228
f 228 229 233 232
f 229 230 234 233
f 230 231 235 234
f 231 228 232 235
o SD0216_T016_16hao
v 142.981 -321.111 0.000
v 149.542 -329.136 0.000
v 129.174 -344.181 0.000
v 121.937 -335.481 0.000
v 142.981 -321.111 10.260
v 149.542 -329.136 10.260
v 129.174 -344.181 10.260
v 121.937 -335.481 10.260
usemtl roof
f 240 241 242 243
usemtl teaching_building
f 239 238 237 236
f 236 237 241 240
f 237 238 242 241
f 238 239 243 242
f 239 236 240 243
o SD0216_T017_17hao
v -227.429 -360.375 0.000
v -214.478 -351.929 0.000
v -223.175 -338.101 0.000
v -237.100 -347.132 0.000
v -227.429 -360.375 9.180
v -214.478 -351.929 9.180
v -223.175 -338.101 9.180
v -237.100 -347.132 9.180
usemtl roof
f 248 249 250 251
usemtl teaching_building
f 247 246 245 244
f 244 245 249 248
f 245 246 250 249
f 246 247 251 250
f 247 244 248 251
o SD0216_T018_18hao
v -208.088 -388.993 0.000
v -194.362 -380.924 0.000
v -210.026 -358.263 0.000
v -222.788 -366.908 0.000
v -208.088 -388.993 10.470
v -194.362 -380.924 10.470
v -210.026 -358.263 10.470
v -222.788 -366.908 10.470
usemtl roof
f 256 257 258 259
usemtl teaching_building
f 255 254 253 252
f 252 253 257 256
f 253 254 258 257
f 254 255 259 258
f 255 252 256 259
o SD0216_T019_19hao
v -216.118 -493.376 0.000
v -204.898 -483.693 0.000
v -223.274 -458.866 0.000
v -259.766 -483.185 0.000
v -268.950 -469.002 0.000
v -210.260 -426.931 0.000
v -181.167 -465.708 0.000
v -145.955 -439.853 0.000
v -134.437 -431.971 0.000
v -152.814 -407.133 0.000
v -189.306 -431.463 0.000
v -198.490 -417.270 0.000
v -139.799 -375.209 0.000
v -110.706 -413.976 0.000
v -75.882 -387.369 0.000
v -66.085 -378.138 0.000
v -84.462 -353.300 0.000
v -120.954 -377.630 0.000
v -130.138 -363.437 0.000
v -71.447 -321.376 0.000
v -42.355 -360.143 0.000
v -30.458 -377.917 0.000
v -63.652 -404.458 0.000
v -132.175 -458.103 0.000
v -202.338 -511.627 0.000
v -270.510 -560.817 0.000
v -284.245 -545.065 0.000
v -275.070 -537.217 0.000
v -293.438 -512.389 0.000
v -329.930 -536.708 0.000
v -339.114 -522.515 0.000
v -280.423 -480.454 0.000
v -251.331 -519.221 0.000
v -216.118 -493.376 24.320
v -204.898 -483.693 24.320
v -223.274 -458.866 24.320
v -259.766 -483.185 24.320
v -268.950 -469.002 24.320
v -210.260 -426.931 24.320
v -181.167 -465.708 24.320
v -145.955 -439.853 24.320
v -134.437 -431.971 24.320
v -152.814 -407.133 24.320
v -189.306 -431.463 24.320
v -198.490 -417.270 24.320
v -139.799 -375.209 24.320
v -110.706 -413.976 24.320
v -75.882 -387.369 24.320
v -66.085 -378.138 24.320
v -84.462 -353.300 24.320
v -120.954 -377.630 24.320
v -130.138 -363.437 24.320
v -71.447 -321.376 24.320
v -42.355 -360.143 24.320
v -30.458 -377.917 24.320
v -63.652 -404.458 24.320
v -132.175 -458.103 24.320
v -202.338 -511.627 24.320
v -270.510 -560.817 24.320
v -284.245 -545.065 24.320
v -275.070 -537.217 24.320
v -293.438 -512.389 24.320
v -329.930 -536.708 24.320
v -339.114 -522.515 24.320
v -280.423 -480.454 24.320
v -251.331 -519.221 24.320
usemtl roof
f 293 294 295 296 297 298 299 300 301 302 303 304 305 306 307 308 309 310 311 312 313 314 315 316 317 318 319 320 321 322 323 324 325
usemtl teaching_building
f 292 291 290 289 288 287 286 285 284 283 282 281 280 279 278 277 276 275 274 273 272 271 270 269 268 267 266 265 264 263 262 261 260
f 260 261 294 293
f 261 262 295 294
f 262 263 296 295
f 263 264 297 296
f 264 265 298 297
f 265 266 299 298
f 266 267 300 299
f 267 268 301 300
f 268 269 302 301
f 269 270 303 302
f 270 271 304 303
f 271 272 305 304
f 272 273 306 305
f 273 274 307 306
f 274 275 308 307
f 275 276 309 308
f 276 277 310 309
f 277 278 311 310
f 278 279 312 311
f 279 280 313 312
f 280 281 314 313
f 281 282 315 314
f 282 283 316 315
f 283 284 317 316
f 284 285 318 317
f 285 286 319 318
f 286 287 320 319
f 287 288 321 320
f 288 289 322 321
f 289 290 323 322
f 290 291 324 323
f 291 292 325 324
f 292 260 293 325
