# school_id SD0258
# school_name 青岛崂山新世纪学校（有光伏）
# boundary_source footprint_convex_hull_buffer_20m
# adjacent_block_merge_distance_m 2.0
mtllib ../campus_materials.mtl
o SD0258_campus_boundary
usemtl campus_boundary
v -19.236 -90.721 0.050
v -46.487 -57.780 0.050
v -92.719 -1.895 0.050
v -19.116 58.993 0.050
v 19.236 90.721 0.050
v 46.487 57.780 0.050
v 92.719 1.895 0.050
v 19.116 -58.993 0.050
v -19.236 -90.721 0.050
l 1 2 3 4 5 6 7 8 9 1
o SD0258_T001_1hao
v -41.618 14.422 0.000
v -27.114 -3.110 0.000
v 8.135 26.052 0.000
v -6.368 43.583 0.000
v 16.574 62.562 0.000
v 31.077 45.031 0.000
v 31.077 45.031 0.000
v 35.260 39.974 0.000
v 64.560 4.557 0.000
v 41.618 -14.422 0.000
v 27.114 3.110 0.000
v -8.135 -26.052 0.000
v 6.368 -43.583 0.000
v -16.574 -62.562 0.000
v -31.077 -45.031 0.000
v -31.077 -45.031 0.000
v -35.260 -39.974 0.000
v -64.560 -4.557 0.000
v -41.618 14.422 15.370
v -27.114 -3.110 15.370
v 8.135 26.052 15.370
v -6.368 43.583 15.370
v 16.574 62.562 15.370
v 31.077 45.031 15.370
v 31.077 45.031 15.370
v 35.260 39.974 15.370
v 64.560 4.557 15.370
v 41.618 -14.422 15.370
v 27.114 3.110 15.370
v -8.135 -26.052 15.370
v 6.368 -43.583 15.370
v -16.574 -62.562 15.370
v -31.077 -45.031 15.370
v -31.077 -45.031 15.370
v -35.260 -39.974 15.370
v -64.560 -4.557 15.370
usemtl roof
f 28 29 30 31 32 33 34 35 36 37 38 39 40 41 42 43 44 45
usemtl teaching_building
f 27 26 25 24 23 22 21 20 19 18 17 16 15 14 13 12 11 10
f 10 11 29 28
f 11 12 30 29
f 12 13 31 30
f 13 14 32 31
f 14 15 33 32
f 15 16 34 33
f 16 17 35 34
f 17 18 36 35
f 18 19 37 36
f 19 20 38 37
f 20 21 39 38
f 21 22 40 39
f 22 23 41 40
f 23 24 42 41
f 24 25 43 42
f 25 26 44 43
f 26 27 45 44
f 27 10 28 45
