# school_id SD0211
# school_name 开平路小学
# boundary_source footprint_convex_hull_buffer_20m
# adjacent_block_merge_distance_m 2.0
mtllib ../campus_materials.mtl
o SD0211_campus_boundary
usemtl campus_boundary
v -36.069 -82.244 0.050
v -62.889 62.192 0.050
v 15.844 76.615 0.050
v 51.777 4.681 0.050
v 26.879 -70.726 0.050
v -36.069 -82.244 0.050
l 1 2 3 4 5 6 1
o SD0211_T001_1hao
v -20.047 -58.980 0.000
v 11.608 -53.188 0.000
v 30.200 3.121 0.000
v 13.136 8.681 0.000
v 4.667 54.235 0.000
v -39.565 46.132 0.000
v -20.047 -58.980 15.160
v 11.608 -53.188 15.160
v 30.200 3.121 15.160
v 13.136 8.681 15.160
v 4.667 54.235 15.160
v -39.565 46.132 15.160
usemtl roof
f 13 14 15 16 17 18
usemtl teaching_building
f 12 11 10 9 8 7
f 7 8 14 13
f 8 9 15 14
f 9 10 16 15
f 10 11 17 16
f 11 12 18 17
f 12 7 13 18
