# school_id SD0248
# school_name 青岛大学路小学
# boundary_source footprint_convex_hull_buffer_20m
# adjacent_block_merge_distance_m 2.0
mtllib ../campus_materials.mtl
o SD0248_campus_boundary
usemtl campus_boundary
v 48.594 -206.929 0.050
v -169.408 -121.806 0.050
v -179.654 -104.565 0.050
v -215.378 170.320 0.050
v -196.512 186.489 0.050
v -141.361 233.716 0.050
v -126.200 246.262 0.050
v -57.000 235.574 0.050
v 76.898 209.075 0.050
v 123.145 142.647 0.050
v 129.796 131.327 0.050
v 172.750 56.469 0.050
v 188.086 29.428 0.050
v 200.595 5.092 0.050
v 220.677 -43.280 0.050
v 211.816 -61.753 0.050
v 73.624 -194.007 0.050
v 48.594 -206.929 0.050
l 1 2 3 4 5 6 7 8 9 10 11 12 13 14 15 16 17 18 1
o SD0248_T001_1hao
v -128.480 218.415 0.000
v -98.911 183.164 0.000
v -90.803 189.863 0.000
v -120.372 225.125 0.000
v -128.480 218.415 15.170
v -98.911 183.164 15.170
v -90.803 189.863 15.170
v -120.372 225.125 15.170
usemtl roof
f 23 24 25 26
usemtl teaching_building
f 22 21 20 19
f 19 20 24 23
f 20 21 25 24
f 21 22 26 25
f 22 19 23 26
o SD0248_T002_2hao
v -36.326 200.850 0.000
v -46.603 184.568 0.000
v -70.746 199.601 0.000
v -60.469 215.873 0.000
v -36.326 200.850 13.240
v -46.603 184.568 13.240
v -70.746 199.601 13.240
v -60.469 215.873 13.240
usemtl roof
f 31 32 33 34
usemtl teaching_building
f 30 29 28 27
f 27 28 32 31
f 28 29 33 32
f 29 30 34 33
f 30 27 31 34
o SD0248_T003_3hao
v -103.671 181.053 0.000
v -151.903 138.694 0.000
v -160.641 148.510 0.000
v -157.194 151.527 0.000
v -112.409 190.858 0.000
v -103.671 181.053 11.560
v -151.903 138.694 11.560
v -160.641 148.510 11.560
v -157.194 151.527 11.560
v -112.409 190.858 11.560
usemtl roof
f 40 41 42 43 44
usemtl teaching_building
f 39 38 37 36 35
f 35 36 41 40
f 36 37 42 41
f 37 38 43 42
f 38 39 44 43
f 39 35 40 44
o SD0248_T004_4hao
v 8.855 164.206 0.000
v 17.683 148.576 0.000
v 42.159 162.195 0.000
v 39.819 166.329 0.000
v 43.742 168.506 0.000
v 39.180 176.587 0.000
v 65.096 191.023 0.000
v 79.934 164.748 0.000
v 22.551 132.791 0.000
v 28.904 121.549 0.000
v 14.569 113.557 0.000
v -8.557 154.512 0.000
v 8.855 164.206 21.000
v 17.683 148.576 21.000
v 42.159 162.195 21.000
v 39.819 166.329 21.000
v 43.742 168.506 21.000
v 39.180 176.587 21.000
v 65.096 191.023 21.000
v 79.934 164.748 21.000
v 22.551 132.791 21.000
v 28.904 121.549 21.000
v 14.569 113.557 21.000
v -8.557 154.512 21.000
usemtl roof
f 57 58 59 60 61 62 63 64 65 66 67 68
usemtl teaching_building
f 56 55 54 53 52 51 50 49 48 47 46 45
f 45 46 58 57
f 46 47 59 58
f 47 48 60 59
f 48 49 61 60
f 49 50 62 61
f 50 51 63 62
f 51 52 64 63
f 52 53 65 64
f 53 54 66 65
f 54 55 67 66
f 55 56 68 67
f 56 45 57 68
o SD0248_T005_5hao
v -183.497 171.303 0.000
v -157.464 141.380 0.000
v -168.109 132.238 0.000
v -194.151 162.172 0.000
v -183.497 171.303 11.690
v -157.464 141.380 11.690
v -168.109 132.238 11.690
v -194.151 162.172 11.690
usemtl roof
f 73 74 75 76
usemtl teaching_building
f 72 71 70 69
f 69 70 74 73
f 70 71 75 74
f 71 72 76 75
f 72 69 73 76
o SD0248_T006_6hao
v -41.482 142.839 0.000
v -20.624 155.341 0.000
v -13.389 143.425 0.000
v -34.239 130.934 0.000
v -41.482 142.839 16.850
v -20.624 155.341 16.850
v -13.389 143.425 16.850
v -34.239 130.934 16.850
usemtl roof
f 81 82 83 84
usemtl teaching_building
f 80 79 78 77
f 77 78 82 81
f 78 79 83 82
f 79 80 84 83
f 80 77 81 84
o SD0248_T007_7hao
v -82.696 107.610 0.000
v -46.729 130.768 0.000
v -37.352 116.409 0.000
v -73.319 93.251 0.000
v -82.696 107.610 12.660
v -46.729 130.768 12.660
v -37.352 116.409 12.660
v -73.319 93.251 12.660
usemtl roof
f 89 90 91 92
usemtl teaching_building
f 88 87 86 85
f 85 86 90 89
f 86 87 91 90
f 87 88 92 91
f 88 85 89 92
o SD0248_T008_8hao
v -29.218 107.908 0.000
v -18.401 90.189 0.000
v -29.380 83.590 0.000
v -40.196 101.309 0.000
v -29.218 107.908 10.730
v -18.401 90.189 10.730
v -29.380 83.590 10.730
v -40.196 101.309 10.730
usemtl roof
f 97 98 99 100
usemtl teaching_building
f 96 95 94 93
f 93 94 98 97
f 94 95 99 98
f 95 96 100 99
f 96 93 97 100
o SD0248_T009_9hao
v 105.967 64.610 0.000
v 111.546 67.838 0.000
v 87.718 108.439 0.000
v 81.617 104.902 0.000
v 76.065 114.364 0.000
v 106.291 131.851 0.000
v 112.500 121.284 0.000
v 102.395 115.425 0.000
v 109.206 103.818 0.000
v 117.890 108.848 0.000
v 126.745 93.770 0.000
v 117.260 88.276 0.000
v 124.450 76.029 0.000
v 134.195 81.666 0.000
v 140.251 71.364 0.000
v 111.708 54.838 0.000
v 105.967 64.610 12.850
v 111.546 67.838 12.850
v 87.718 108.439 12.850
v 81.617 104.902 12.850
v 76.065 114.364 12.850
v 106.291 131.851 12.850
v 112.500 121.284 12.850
v 102.395 115.425 12.850
v 109.206 103.818 12.850
v 117.890 108.848 12.850
v 126.745 93.770 12.850
v 117.260 88.276 12.850
v 124.450 76.029 12.850
v 134.195 81.666 12.850
v 140.251 71.364 12.850
v 111.708 54.838 12.850
usemtl roof
f 117 118 119 120 121 122 123 124 125 126 127 128 129 130 131 132
usemtl teaching_building
f 116 115 114 113 112 111 110 109 108 107 106 105 104 103 102 101
f 101 102 118 117
f 102 103 119 118
f 103 104 120 119
f 104 105 121 120
f 105 106 122 121
f 106 107 123 122
f 107 108 124 123
f 108 109 125 124
f 109 110 126 125
f 110 111 127 126
f 111 112 128 127
f 112 113 129 128
f 113 114 130 129
f 114 115 131 130
f 115 116 132 131
f 116 101 117 132
o SD0248_T010_10hao
v 35.851 65.417 0.000
v 61.568 80.793 0.000
v 50.392 99.220 0.000
v 24.684 83.844 0.000
v 35.851 65.417 14.540
v 61.568 80.793 14.540
v 50.392 99.220 14.540
v 24.684 83.844 14.540
usemtl roof
f 137 138 139 140
usemtl teaching_building
f 136 135 134 133
f 133 134 138 137
f 134 135 139 138
f 135 136 140 139
f 136 133 137 140
o SD0248_T011_11hao
v -110.222 45.210 0.000
v -79.015 91.935 0.000
v -85.818 96.412 0.000
v -117.025 49.687 0.000
v -110.222 45.210 11.820
v -79.015 91.935 11.820
v -85.818 96.412 11.820
v -117.025 49.687 11.820
usemtl roof
f 145 146 147 148
usemtl teaching_building
f 144 143 142 141
f 141 142 146 145
f 142 143 147 146
f 143 144 148 147
f 144 141 145 148
o SD0248_T012_12hao
v -58.175 15.917 0.000
v -33.618 29.768 0.000
v -42.832 45.873 0.000
v -67.389 32.023 0.000
v -58.175 15.917 9.760
v -33.618 29.768 9.760
v -42.832 45.873 9.760
v -67.389 32.023 9.760
usemtl roof
f 153 154 155 156
usemtl teaching_building
f 152 151 150 149
f 149 150 154 153
f 150 151 155 154
f 151 152 156 155
f 152 149 153 156
o SD0248_T013_13hao
v -132.916 9.240 0.000
v -108.017 27.701 0.000
v -112.634 33.835 0.000
v -137.524 15.375 0.000
v -132.916 9.240 11.670
v -108.017 27.701 11.670
v -112.634 33.835 11.670
v -137.524 15.375 11.670
usemtl roof
f 161 162 163 164
usemtl teaching_building
f 160 159 158 157
f 157 158 162 161
f 158 159 163 162
f 159 160 164 163
f 160 157 161 164
o SD0248_T014_14hao
v 149.979 -11.530 0.000
v 156.467 -7.827 0.000
v 147.333 7.958 0.000
v 145.200 6.742 0.000
v 137.687 19.742 0.000
v 140.881 21.555 0.000
v 132.873 35.405 0.000
v 125.818 31.382 0.000
v 120.230 41.054 0.000
v 149.052 57.491 0.000
v 155.378 46.559 0.000
v 146.505 41.496 0.000
v 152.867 30.486 0.000
v 161.524 35.416 0.000
v 170.486 19.919 0.000
v 161.119 14.579 0.000
v 169.056 0.850 0.000
v 177.298 5.548 0.000
v 182.436 -3.328 0.000
v 154.460 -19.279 0.000
v 149.979 -11.530 11.460
v 156.467 -7.827 11.460
v 147.333 7.958 11.460
v 145.200 6.742 11.460
v 137.687 19.742 11.460
v 140.881 21.555 11.460
v 132.873 35.405 11.460
v 125.818 31.382 11.460
v 120.230 41.054 11.460
v 149.052 57.491 11.460
v 155.378 46.559 11.460
v 146.505 41.496 11.460
v 152.867 30.486 11.460
v 161.524 35.416 11.460
v 170.486 19.919 11.460
v 161.119 14.579 11.460
v 169.056 0.850 11.460
v 177.298 5.548 11.460
v 182.436 -3.328 11.460
v 154.460 -19.279 11.460
usemtl roof
f 185 186 187 188 189 190 191 192 193 194 195 196 197 198 199 200 201 202 203 204
usemtl teaching_building
f 184 183 182 181 180 179 178 177 176 175 174 173 172 171 170 169 168 167 166 165
f 165 166 186 185
f 166 167 187 186
f 167 168 188 187
f 168 169 189 188
f 169 170 190 189
f 170 171 191 190
f 171 172 192 191
f 172 173 193 192
f 173 174 194 193
f 174 175 195 194
f 175 176 196 195
f 176 177 197 196
f 177 178 198 197
f 178 179 199 198
f 179 180 200 199
f 180 181 201 200
f 181 182 202 201
f 182 183 203 202
f 183 184 204 203
f 184 165 185 204
o SD0248_T015_15hao
v -83.011 -43.708 0.000
v -75.695 -39.806 0.000
v -96.742 -0.775 0.000
v -106.038 -5.716 0.000
v -112.949 7.085 0.000
v -77.629 25.866 0.000
v -70.386 12.435 0.000
v -85.062 4.631 0.000
v -77.980 -8.501 0.000
v -64.663 -1.416 0.000
v -58.427 -12.978 0.000
v -71.115 -19.732 0.000
v -64.267 -32.444 0.000
v -50.058 -24.894 0.000
v -42.256 -39.375 0.000
v -75.749 -57.183 0.000
v -83.011 -43.708 10.350
v -75.695 -39.806 10.350
v -96.742 -0.775 10.350
v -106.038 -5.716 10.350
v -112.949 7.085 10.350
v -77.629 25.866 10.350
v -70.386 12.435 10.350
v -85.062 4.631 10.350
v -77.980 -8.501 10.350
v -64.663 -1.416 10.350
v -58.427 -12.978 10.350
v -71.115 -19.732 10.350
v -64.267 -32.444 10.350
v -50.058 -24.894 10.350
v -42.256 -39.375 10.350
v -75.749 -57.183 10.350
usemtl roof
f 221 222 223 224 225 226 227 228 229 230 231 232 233 234 235 236
usemtl teaching_building
f 220 219 218 217 216 215 214 213 212 211 210 209 208 207 206 205
f 205 206 222 221
f 206 207 223 222
f 207 208 224 223
f 208 209 225 224
f 209 210 226 225
f 210 211 227 226
f 211 212 228 227
f 212 213 229 228
f 213 214 230 229
f 214 215 231 230
f 215 216 232 231
f 216 217 233 232
f 217 218 234 233
f 218 219 235 234
f 219 220 236 235
f 220 205 221 236
o SD0248_T016_16hao
v -137.623 -31.704 0.000
v -122.748 -23.701 0.000
v -132.205 -6.379 0.000
v -121.281 -0.509 0.000
v -106.182 -28.200 0.000
v -131.971 -42.072 0.000
v -137.623 -31.704 12.460
v -122.748 -23.701 12.460
v -132.205 -6.379 12.460
v -121.281 -0.509 12.460
v -106.182 -28.200 12.460
v -131.971 -42.072 12.460
usemtl roof
f 243 244 245 246 247 248
usemtl teaching_building
f 242 241 240 239 238 237
f 237 238 244 243
f 238 239 245 244
f 239 240 246 245
f 240 241 247 246
f 241 242 248 247
f 242 237 243 248
o SD0248_T017_17hao
v 156.008 -71.973 0.000
v 195.358 -49.821 0.000
v 193.109 -45.886 0.000
v 198.778 -42.691 0.000
v 187.349 -22.661 0.000
v 142.330 -48.008 0.000
v 156.008 -71.973 18.120
v 195.358 -49.821 18.120
v 193.109 -45.886 18.120
v 198.778 -42.691 18.120
v 187.349 -22.661 18.120
v 142.330 -48.008 18.120
usemtl roof
f 255 256 257 258 259 260
usemtl teaching_building
f 254 253 252 251 250 249
f 249 250 256 255
f 250 251 257 256
f 251 252 258 257
f 252 253 259 258
f 253 254 260 259
f 254 249 255 260
o SD0248_T018_18hao
v -147.053 -40.912 0.000
v -145.262 -36.424 0.000
v -135.859 -40.138 0.000
v -151.264 -78.573 0.000
v -163.232 -73.842 0.000
v -156.294 -56.531 0.000
v -158.598 -55.613 0.000
v -151.930 -38.977 0.000
v -147.053 -40.912 17.550
v -145.262 -36.424 17.550
v -135.859 -40.138 17.550
v -151.264 -78.573 17.550
v -163.232 -73.842 17.550
v -156.294 -56.531 17.550
v -158.598 -55.613 17.550
v -151.930 -38.977 17.550
usemtl roof
f 269 270 271 272 273 274 275 276
usemtl teaching_building
f 268 267 266 265 264 263 262 261
f 261 262 270 269
f 262 263 271 270
f 263 264 272 271
f 264 265 273 272
f 265 266 274 273
f 266 267 275 274
f 267 268 276 275
f 268 261 269 276
o SD0248_T019_19hao
v -155.728 -105.677 0.000
v -88.284 -66.104 0.000
v -94.097 -56.332 0.000
v -93.539 -50.551 0.000
v -96.868 -43.111 0.000
v -104.634 -39.265 0.000
v -111.005 -43.664 0.000
v -112.391 -50.551 0.000
v -107.145 -58.863 0.000
v -153.982 -87.991 0.000
v -160.353 -97.895 0.000
v -155.728 -105.677 17.100
v -88.284 -66.104 17.100
v -94.097 -56.332 17.100
v -93.539 -50.551 17.100
v -96.868 -43.111 17.100
v -104.634 -39.265 17.100
v -111.005 -43.664 17.100
v -112.391 -50.551 17.100
v -107.145 -58.863 17.100
v -153.982 -87.991 17.100
v -160.353 -97.895 17.100
usemtl roof
f 288 289 290 291 292 293 294 295 296 297 298
usemtl teaching_building
f 287 286 285 284 283 282 281 280 279 278 277
f 277 278 289 288
f 278 279 290 289
f 279 280 291 290
f 280 281 292 291
f 281 282 293 292
f 282 283 294 293
f 283 284 295 294
f 284 285 296 295
f 285 286 297 296
f 286 287 298 297
f 287 277 288 298
o SD0248_T020_20hao
v 84.919 -79.380 0.000
v 87.214 -83.503 0.000
v 122.929 -63.849 0.000
v 120.482 -59.460 0.000
v 128.949 -54.795 0.000
v 140.404 -75.334 0.000
v 132.621 -79.623 0.000
v 130.236 -75.356 0.000
v 93.063 -95.806 0.000
v 96.141 -101.322 0.000
v 87.961 -105.821 0.000
v 75.957 -84.310 0.000
v 84.919 -79.380 15.700
v 87.214 -83.503 15.700
v 122.929 -63.849 15.700
v 120.482 -59.460 15.700
v 128.949 -54.795 15.700
v 140.404 -75.334 15.700
v 132.621 -79.623 15.700
v 130.236 -75.356 15.700
v 93.063 -95.806 15.700
v 96.141 -101.322 15.700
v 87.961 -105.821 15.700
v 75.957 -84.310 15.700
usemtl roof
f 311 312 313 314 315 316 317 318 319 320 321 322
usemtl teaching_building
f 310 309 308 307 306 305 304 303 302 301 300 299
f 299 300 312 311
f 300 301 313 312
f 301 302 314 313
f 302 303 315 314
f 303 304 316 315
f 304 305 317 316
f 305 306 318 317
f 306 307 319 318
f 307 308 320 319
f 308 309 321 320
f 309 310 322 321
f 310 299 311 322
o SD0248_T021_21hao
v -42.355 -119.273 0.000
v -31.098 -112.774 0.000
v -55.052 -71.863 0.000
v -65.077 -77.655 0.000
v -71.457 -66.767 0.000
v -37.703 -47.290 0.000
v -30.540 -59.527 0.000
v -42.076 -66.181 0.000
v -32.565 -82.430 0.000
v -25.303 -78.230 0.000
v -18.248 -90.290 0.000
v -25.483 -94.468 0.000
v -18.878 -105.754 0.000
v -8.287 -99.642 0.000
v -1.331 -111.536 0.000
v -35.382 -131.190 0.000
v -42.355 -119.273 12.040
v -31.098 -112.774 12.040
v -55.052 -71.863 12.040
v -65.077 -77.655 12.040
v -71.457 -66.767 12.040
v -37.703 -47.290 12.040
v -30.540 -59.527 12.040
v -42.076 -66.181 12.040
v -32.565 -82.430 12.040
v -25.303 -78.230 12.040
v -18.248 -90.290 12.040
v -25.483 -94.468 12.040
v -18.878 -105.754 12.040
v -8.287 -99.642 12.040
v -1.331 -111.536 12.040
v -35.382 -131.190 12.040
usemtl roof
f 339 340 341 342 343 344 345 346 347 348 349 350 351 352 353 354
usemtl teaching_building
f 338 337 336 335 334 333 332 331 330 329 328 327 326 325 324 323
f 323 324 340 339
f 324 325 341 340
f 325 326 342 341
f 326 327 343 342
f 327 328 344 343
f 328 329 345 344
f 329 330 346 345
f 330 331 347 346
f 331 332 348 347
f 332 333 349 348
f 333 334 350 349
f 334 335 351 350
f 335 336 352 351
f 336 337 353 352
f 337 338 354 353
f 338 323 339 354
o SD0248_T022_22hao
v 1.251 -137.822 0.000
v -0.521 -138.861 0.000
v 5.049 -148.158 0.000
v 6.327 -146.886 0.000
v 9.188 -151.706 0.000
v 17.818 -146.665 0.000
v 15.595 -142.929 0.000
v 35.167 -131.477 0.000
v 37.533 -135.479 0.000
v 46.244 -130.383 0.000
v 43.850 -126.348 0.000
v 64.322 -114.343 0.000
v 66.608 -118.179 0.000
v 73.743 -113.990 0.000
v 71.269 -109.833 0.000
v 74.859 -107.733 0.000
v 72.025 -102.980 0.000
v 68.542 -105.036 0.000
v 62.720 -95.286 0.000
v 55.089 -99.774 0.000
v 56.340 -101.863 0.000
v 39.540 -111.779 0.000
v 37.569 -108.496 0.000
v 22.560 -117.350 0.000
v 24.009 -119.771 0.000
v 7.928 -129.266 0.000
v 6.480 -126.845 0.000
v -2.240 -131.997 0.000
v 1.251 -137.822 12.250
v -0.521 -138.861 12.250
v 5.049 -148.158 12.250
v 6.327 -146.886 12.250
v 9.188 -151.706 12.250
v 17.818 -146.665 12.250
v 15.595 -142.929 12.250
v 35.167 -131.477 12.250
v 37.533 -135.479 12.250
v 46.244 -130.383 12.250
v 43.850 -126.348 12.250
v 64.322 -114.343 12.250
v 66.608 -118.179 12.250
v 73.743 -113.990 12.250
v 71.269 -109.833 12.250
v 74.859 -107.733 12.250
v 72.025 -102.980 12.250
v 68.542 -105.036 12.250
v 62.720 -95.286 12.250
v 55.089 -99.774 12.250
v 56.340 -101.863 12.250
v 39.540 -111.779 12.250
v 37.569 -108.496 12.250
v 22.560 -117.350 12.250
v 24.009 -119.771 12.250
v 7.928 -129.266 12.250
v 6.480 -126.845 12.250
v -2.240 -131.997 12.250
usemtl roof
f 383 384 385 386 387 388 389 390 391 392 393 394 395 396 397 398 399 400 401 402 403 404 405 406 407 408 409 410
usemtl teaching_building
f 382 381 380 379 378 377 376 375 374 373 372 371 370 369 368 367 366 365 364 363 362 361 360 359 358 357 356 355
f 355 356 384 383
f 356 357 385 384
f 357 358 386 385
f 358 359 387 386
f 359 360 388 387
f 360 361 389 388
f 361 362 390 389
f 362 363 391 390
f 363 364 392 391
f 364 365 393 392
f 365 366 394 393
f 366 367 395 394
f 367 368 396 395
f 368 369 397 396
f 369 370 398 397
f 370 371 399 398
f 371 372 400 399
f 372 373 401 400
f 373 374 402 401
f 374 375 403 402
f 375 376 404 403
f 376 377 405 404
f 377 378 406 405
f 378 379 407 406
f 379 380 408 407
f 380 381 409 408
f 381 382 410 409
f 382 355 383 410
o SD0248_T023_23hao
v 35.329 -173.084 0.000
v 39.954 -170.697 0.000
v 47.450 -185.012 0.000
v 61.883 -177.561 0.000
v 54.406 -163.302 0.000
v 61.622 -159.565 0.000
v 56.691 -150.147 0.000
v 30.416 -163.722 0.000
v 35.329 -173.084 12.220
v 39.954 -170.697 12.220
v 47.450 -185.012 12.220
v 61.883 -177.561 12.220
v 54.406 -163.302 12.220
v 61.622 -159.565 12.220
v 56.691 -150.147 12.220
v 30.416 -163.722 12.220
usemtl roof
f 419 420 421 422 423 424 425 426
usemtl teaching_building
f 418 417 416 415 414 413 412 411
f 411 412 420 419
f 412 413 421 420
f 413 414 422 421
f 414 415 423 422
f 415 416 424 423
f 416 417 425 424
f 417 418 426 425
f 418 411 419 426
