# school_id SD0246
# school_name 青岛大名路小学
# boundary_source footprint_convex_hull_buffer_20m
# adjacent_block_merge_distance_m 2.0
mtllib ../campus_materials.mtl
o SD0246_campus_boundary
usemtl campus_boundary
v 38.095 -47.909 0.050
v -14.915 -34.604 0.050
v -30.138 -24.593 0.050
v -41.590 -5.482 0.050
v -27.912 48.232 0.050
v 7.183 39.409 0.050
v 53.338 11.987 0.050
v 38.095 -47.909 0.050
l 1 2 3 4 5 6 7 8 1
o SD0246_T001_1hao
v -0.524 20.724 0.000
v -2.962 11.151 0.000
v -7.145 12.201 0.000
v -10.033 0.860 0.000
v 19.644 -6.591 0.000
v 22.442 4.397 0.000
v 30.268 2.430 0.000
v 23.629 -23.658 0.000
v -6.758 -16.031 0.000
v -5.931 -12.759 0.000
v -15.331 -10.393 0.000
v -13.694 -3.960 0.000
v -20.153 -2.346 0.000
v -13.451 23.974 0.000
v -0.524 20.724 21.430
v -2.962 11.151 21.430
v -7.145 12.201 21.430
v -10.033 0.860 21.430
v 19.644 -6.591 21.430
v 22.442 4.397 21.430
v 30.268 2.430 21.430
v 23.629 -23.658 21.430
v -6.758 -16.031 21.430
v -5.931 -12.759 21.430
v -15.331 -10.393 21.430
v -13.694 -3.960 21.430
v -20.153 -2.346 21.430
v -13.451 23.974 21.430
usemtl roof
f 23 24 25 26 27 28 29 30 31 32 33 34 35 36
usemtl teaching_building
f 22 21 20 19 18 17 16 15 14 13 12 11 10 9
f 9 10 24 23
f 10 11 25 24
f 11 12 26 25
f 12 13 27 26
f 13 14 28 27
f 14 15 29 28
f 15 16 30 29
f 16 17 31 30
f 17 18 32 31
f 18 19 33 32
f 19 20 34 33
f 20 21 35 34
f 21 22 36 35
f 22 9 23 36
