# school_id SD0230
# school_name 青岛二十六中浮山校区（有光伏）
# boundary_source footprint_convex_hull_buffer_20m
# adjacent_block_merge_distance_m 2.0
mtllib ../campus_materials.mtl
o SD0230_campus_boundary
usemtl campus_boundary
v 5.784 -79.480 0.050
v -54.465 -39.915 0.050
v -56.874 52.963 0.050
v 38.972 55.425 0.050
v 66.645 11.921 0.050
v 5.784 -79.480 0.050
l 1 2 3 4 5 6 1
o SD0230_T001_1hao
v 28.171 35.141 0.000
v 42.783 12.170 0.000
v 0.151 -51.854 0.000
v -34.743 -28.939 0.000
v -36.362 33.483 0.000
v 28.171 35.141 18.190
v 42.783 12.170 18.190
v 0.151 -51.854 18.190
v -34.743 -28.939 18.190
v -36.362 33.483 18.190
usemtl roof
f 12 13 14 15 16
usemtl teaching_building
f 11 10 9 8 7
f 7 8 13 12
f 8 9 14 13
f 9 10 15 14
f 10 11 16 15
f 11 7 12 16
