# school_id SD0279
# school_name 青岛广雅中学
# boundary_source footprint_convex_hull_buffer_20m
# adjacent_block_merge_distance_m 2.0
mtllib ../campus_materials.mtl
o SD0279_campus_boundary
usemtl campus_boundary
v -34.232 -46.301 0.050
v -41.452 -7.983 0.050
v -50.413 45.595 0.050
v 37.329 62.840 0.050
v 44.905 24.882 0.050
v 41.035 -34.592 0.050
v 17.851 -38.913 0.050
v -34.232 -46.301 0.050
l 1 2 3 4 5 6 7 8 1
o SD0279_T001_1hao
v -27.480 29.720 0.000
v 21.619 39.370 0.000
v 24.776 23.551 0.000
v -24.323 13.890 0.000
v -27.480 29.720 11.430
v 21.619 39.370 11.430
v 24.776 23.551 11.430
v -24.323 13.890 11.430
usemtl roof
f 13 14 15 16
usemtl teaching_building
f 12 11 10 9
f 9 10 14 13
f 10 11 15 14
f 11 12 16 15
f 12 9 13 16
o SD0279_T002_2hao
v -10.256 -22.356 0.000
v -11.974 -13.214 0.000
v 12.634 -8.649 0.000
v 14.613 -19.172 0.000
v 22.087 -17.779 0.000
v 18.183 2.936 0.000
v -21.760 -4.481 0.000
v -18.117 -23.815 0.000
v -10.256 -22.356 27.950
v -11.974 -13.214 27.950
v 12.634 -8.649 27.950
v 14.613 -19.172 27.950
v 22.087 -17.779 27.950
v 18.183 2.936 27.950
v -21.760 -4.481 27.950
v -18.117 -23.815 27.950
usemtl roof
f 25 26 27 28 29 30 31 32
usemtl teaching_building
f 24 23 22 21 20 19 18 17
f 17 18 26 25
f 18 19 27 26
f 19 20 28 27
f 20 21 29 28
f 21 22 30 29
f 22 23 31 30
f 23 24 32 31
f 24 17 25 32
