# school_id SD0217
# school_name 私立青岛大路小学
# boundary_source footprint_convex_hull_buffer_20m
# adjacent_block_merge_distance_m 2.0
mtllib ../campus_materials.mtl
o SD0217_campus_boundary
usemtl campus_boundary
v 20.499 -42.521 0.050
v -115.741 -25.548 0.050
v -118.546 35.244 0.050
v -80.042 37.005 0.050
v -2.503 39.319 0.050
v 97.641 12.794 0.050
v 99.979 -38.994 0.050
v 20.499 -42.521 0.050
l 1 2 3 4 5 6 7 8 1
o SD0217_T001_1hao
v -79.287 17.019 0.000
v -78.900 8.662 0.000
v -19.339 11.404 0.000
v -19.681 18.556 0.000
v -4.813 19.241 0.000
v -3.760 -3.530 0.000
v -96.539 -7.786 0.000
v -97.645 16.179 0.000
v -79.287 17.019 18.320
v -78.900 8.662 18.320
v -19.339 11.404 18.320
v -19.681 18.556 18.320
v -4.813 19.241 18.320
v -3.760 -3.530 18.320
v -96.539 -7.786 18.320
v -97.645 16.179 18.320
usemtl roof
f 17 18 19 20 21 22 23 24
usemtl teaching_building
f 16 15 14 13 12 11 10 9
f 9 10 18 17
f 10 11 19 18
f 11 12 20 19
f 12 13 21 20
f 13 14 22 21
f 14 15 23 22
f 15 16 24 23
f 16 9 17 24
o SD0217_T002_2hao
v 31.687 -4.061 0.000
v 32.056 -12.197 0.000
v 68.673 -10.561 0.000
v 68.340 -3.221 0.000
v 78.324 -2.779 0.000
v 79.097 -19.901 0.000
v 21.298 -22.466 0.000
v 20.489 -4.558 0.000
v 31.687 -4.061 15.500
v 32.056 -12.197 15.500
v 68.673 -10.561 15.500
v 68.340 -3.221 15.500
v 78.324 -2.779 15.500
v 79.097 -19.901 15.500
v 21.298 -22.466 15.500
v 20.489 -4.558 15.500
usemtl roof
f 33 34 35 36 37 38 39 40
usemtl teaching_building
f 32 31 30 29 28 27 26 25
f 25 26 34 33
f 26 27 35 34
f 27 28 36 35
f 28 29 37 36
f 29 30 38 37
f 30 31 39 38
f 31 32 40 39
f 32 25 33 40
