# school_id SD0260
# school_name 青岛市为明学校(北区）（有光伏）
# boundary_source footprint_convex_hull_buffer_20m
# adjacent_block_merge_distance_m 2.0
mtllib ../campus_materials.mtl
o SD0260_campus_boundary
usemtl campus_boundary
v -47.886 -76.706 0.050
v -70.312 -20.639 0.050
v -87.576 22.526 0.050
v 47.886 76.706 0.050
v 70.312 20.639 0.050
v 87.576 -22.525 0.050
v -4.722 -59.442 0.050
v -47.886 -76.706 0.050
l 1 2 3 4 5 6 7 8 1
o SD0260_T001_1hao
v 51.742 13.212 0.000
v 61.579 -11.383 0.000
v -12.149 -40.872 0.000
v -12.149 -40.872 0.000
v -36.744 -50.709 0.000
v -51.742 -13.212 0.000
v -51.742 -13.212 0.000
v -61.579 11.383 0.000
v 36.744 50.709 0.000
v 46.581 26.114 0.000
v -27.147 -3.375 0.000
v -21.986 -16.277 0.000
v 51.742 13.212 15.180
v 61.579 -11.383 15.180
v -12.149 -40.872 15.180
v -12.149 -40.872 15.180
v -36.744 -50.709 15.180
v -51.742 -13.212 15.180
v -51.742 -13.212 15.180
v -61.579 11.383 15.180
v 36.744 50.709 15.180
v 46.581 26.114 15.180
v -27.147 -3.375 15.180
v -21.986 -16.277 15.180
usemtl roof
f 21 22 23 24 25 26 27 28 29 30 31 32
usemtl teaching_building
f 20 19 18 17 16 15 14 13 12 11 10 9
f 9 10 22 21
f 10 11 23 22
f 11 12 24 23
f 12 13 25 24
f 13 14 26 25
f 14 15 27 26
f 15 16 28 27
f 16 17 29 28
f 17 18 30 29
f 18 19 31 30
f 19 20 32 31
f 20 9 21 32
