# school_id SD0213
# school_name 日本人学校教学楼
# boundary_source footprint_convex_hull_buffer_20m
# adjacent_block_merge_distance_m 2.0
mtllib ../campus_materials.mtl
o SD0213_campus_boundary
usemtl campus_boundary
v -41.470 -51.540 0.050
v -50.024 -15.357 0.050
v -60.158 27.514 0.050
v -23.976 36.068 0.050
v 41.470 51.540 0.050
v 50.024 15.357 0.050
v 60.158 -27.514 0.050
v 23.976 -36.068 0.050
v -41.470 -51.540 0.050
l 1 2 3 4 5 6 7 8 9 1
o SD0213_T001_1hao
v -36.094 12.652 0.000
v -19.374 16.605 0.000
v -19.374 16.605 0.000
v 26.608 27.475 0.000
v 30.561 10.755 0.000
v 30.561 10.755 0.000
v 36.094 -12.652 0.000
v 19.374 -16.605 0.000
v 19.374 -16.605 0.000
v -26.608 -27.475 0.000
v -30.561 -10.755 0.000
v -30.561 -10.755 0.000
v -36.094 12.652 18.610
v -19.374 16.605 18.610
v -19.374 16.605 18.610
v 26.608 27.475 18.610
v 30.561 10.755 18.610
v 30.561 10.755 18.610
v 36.094 -12.652 18.610
v 19.374 -16.605 18.610
v 19.374 -16.605 18.610
v -26.608 -27.475 18.610
v -30.561 -10.755 18.610
v -30.561 -10.755 18.610
usemtl roof
f 22 23 24 25 26 27 28 29 30 31 32 33
usemtl teaching_building
f 21 20 19 18 17 16 15 14 13 12 11 10
f 10 11 23 22
f 11 12 24 23
f 12 13 25 24
f 13 14 26 25
f 14 15 27 26
f 15 16 28 27
f 16 17 29 28
f 17 18 30 29
f 18 19 31 30
f 19 20 32 31
f 20 21 33 32
f 21 10 22 33
