# school_id SD0283
# school_name 青岛德县路小学
# boundary_source footprint_convex_hull_buffer_20m
# adjacent_block_merge_distance_m 2.0
mtllib ../campus_materials.mtl
o SD0283_campus_boundary
usemtl campus_boundary
v -8.555 -47.829 0.050
v -61.260 35.439 0.050
v -34.342 70.845 0.050
v 43.986 12.053 0.050
v 33.575 -36.681 0.050
v -8.555 -47.829 0.050
l 1 2 3 4 5 6 1
o SD0283_T001_1hao
v -30.451 42.917 0.000
v 21.757 3.731 0.000
v 15.269 -4.792 0.000
v -36.930 34.395 0.000
v -30.451 42.917 15.600
v 21.757 3.731 15.600
v 15.269 -4.792 15.600
v -36.930 34.395 15.600
usemtl roof
f 11 12 13 14
usemtl teaching_building
f 10 9 8 7
f 7 8 12 11
f 8 9 13 12
f 9 10 14 13
f 10 7 11 14
