# school_id SD0207
# school_name 市北区体育发展指导中心
# boundary_source footprint_convex_hull_buffer_20m
# adjacent_block_merge_distance_m 2.0
mtllib ../campus_materials.mtl
o SD0207_campus_boundary
usemtl campus_boundary
v 9.497 -43.601 0.050
v -29.141 -24.123 0.050
v -39.965 -14.311 0.050
v -44.925 16.090 0.050
v -12.734 30.663 0.050
v 1.502 32.952 0.050
v 29.641 29.499 0.050
v 40.136 16.718 0.050
v 49.035 -37.150 0.050
v 9.497 -43.601 0.050
l 1 2 3 4 5 6 7 8 9 10 1
o SD0207_T001_1hao
v -21.352 -4.189 0.000
v -18.347 -3.703 0.000
v -17.717 -7.484 0.000
v 9.428 -3.062 0.000
v 12.694 -22.815 0.000
v 26.036 -20.638 0.000
v 21.277 8.169 0.000
v 19.262 10.623 0.000
v 2.662 7.959 0.000
v 1.879 12.756 0.000
v -6.920 11.341 0.000
v -6.182 6.853 0.000
v -22.719 4.189 0.000
v -21.352 -4.189 37.960
v -18.347 -3.703 37.960
v -17.717 -7.484 37.960
v 9.428 -3.062 37.960
v 12.694 -22.815 37.960
v 26.036 -20.638 37.960
v 21.277 8.169 37.960
v 19.262 10.623 37.960
v 2.662 7.959 37.960
v 1.879 12.756 37.960
v -6.920 11.341 37.960
v -6.182 6.853 37.960
v -22.719 4.189 37.960
usemtl roof
f 24 25 26 27 28 29 30 31 32 33 34 35 36
usemtl teaching_building
f 23 22 21 20 19 18 17 16 15 14 13 12 11
f 11 12 25 24
f 12 13 26 25
f 13 14 27 26
f 14 15 28 27
f 15 16 29 28
f 16 17 30 29
f 17 18 31 30
f 18 19 32 31
f 19 20 33 32
f 20 21 34 33
f 21 22 35 34
f 22 23 36 35
f 23 11 24 36
