# school_id SD0243
# school_name 青岛基隆路小学（有光伏）
# boundary_source footprint_convex_hull_buffer_20m
# adjacent_block_merge_distance_m 2.0
mtllib ../campus_materials.mtl
o SD0243_campus_boundary
usemtl campus_boundary
v -66.190 -64.071 0.050
v -100.372 -30.273 0.050
v -40.597 42.172 0.050
v -21.299 61.491 0.050
v 1.894 64.054 0.050
v 39.525 27.296 0.050
v 52.370 9.602 0.050
v 54.393 0.046 0.050
v 56.186 -22.591 0.050
v 51.792 -61.675 0.050
v -66.190 -64.071 0.050
l 1 2 3 4 5 6 7 8 9 10 11 1
o SD0243_T001_1hao
v -58.141 -43.903 0.000
v -27.619 -13.483 0.000
v -7.230 -33.645 0.000
v 1.949 -38.498 0.000
v 33.874 -42.035 0.000
v 36.097 -22.260 0.000
v 8.985 -19.253 0.000
v -12.511 1.097 0.000
v -9.353 4.380 0.000
v -19.998 14.484 0.000
v -14.032 20.685 0.000
v 23.166 -14.643 0.000
v 34.558 -2.827 0.000
v 32.030 -0.406 0.000
v 33.685 1.296 0.000
v 24.741 9.930 0.000
v 22.015 7.144 0.000
v 19.648 9.432 0.000
v 24.336 14.174 0.000
v -5.313 43.136 0.000
v -9.056 39.366 0.000
v -12.116 42.384 0.000
v -25.775 28.710 0.000
v -20.628 23.637 0.000
v -73.312 -28.903 0.000
v -58.141 -43.903 13.690
v -27.619 -13.483 13.690
v -7.230 -33.645 13.690
v 1.949 -38.498 13.690
v 33.874 -42.035 13.690
v 36.097 -22.260 13.690
v 8.985 -19.253 13.690
v -12.511 1.097 13.690
v -9.353 4.380 13.690
v -19.998 14.484 13.690
v -14.032 20.685 13.690
v 23.166 -14.643 13.690
v 34.558 -2.827 13.690
v 32.030 -0.406 13.690
v 33.685 1.296 13.690
v 24.741 9.930 13.690
v 22.015 7.144 13.690
v 19.648 9.432 13.690
v 24.336 14.174 13.690
v -5.313 43.136 13.690
v -9.056 39.366 13.690
v -12.116 42.384 13.690
v -25.775 28.710 13.690
v -20.628 23.637 13.690
v -73.312 -28.903 13.690
usemtl roof
f 37 38 39 40 41 42 43 44 45 46 47 48 49 50 51 52 53 54 55 56 57 58 59 60 61
usemtl teaching_building
f 36 35 34 33 32 31 30 29 28 27 26 25 24 23 22 21 20 19 18 17 16 15 14 13 12
f 12 13 38 37
f 13 14 39 38
f 14 15 40 39
f 15 16 41 40
f 16 17 42 41
f 17 18 43 42
f 18 19 44 43
f 19 20 45 44
f 20 21 46 45
f 21 22 47 46
f 22 23 48 47
f 23 24 49 48
f 24 25 50 49
f 25 26 51 50
f 26 27 52 51
f 27 28 53 52
f 28 29 54 53
f 29 30 55 54
f 30 31 56 55
f 31 32 57 56
f 32 33 58 57
f 33 34 59 58
f 34 35 60 59
f 35 36 61 60
f 36 12 37 61
