# school_id SD0275
# school_name 青岛市第十九中学
# boundary_source footprint_convex_hull_buffer_20m
# adjacent_block_merge_distance_m 2.0
mtllib ../campus_materials.mtl
o SD0275_campus_boundary
usemtl campus_boundary
v -40.105 -49.984 0.050
v -42.899 21.813 0.050
v -21.020 37.698 0.050
v 42.151 40.106 0.050
v 43.630 2.026 0.050
v 15.920 -47.839 0.050
v -40.105 -49.984 0.050
l 1 2 3 4 5 6 7 1
o SD0275_T001_1hao
v 23.428 6.846 0.000
v 11.463 6.393 0.000
v 11.634 2.159 0.000
v -2.751 1.607 0.000
v -2.284 -10.575 0.000
v 3.204 -10.365 0.000
v 3.906 -28.284 0.000
v -20.897 -29.234 0.000
v -22.498 11.909 0.000
v -13.961 12.240 0.000
v -14.186 17.944 0.000
v 22.942 19.359 0.000
v 23.428 6.846 19.190
v 11.463 6.393 19.190
v 11.634 2.159 19.190
v -2.751 1.607 19.190
v -2.284 -10.575 19.190
v 3.204 -10.365 19.190
v 3.906 -28.284 19.190
v -20.897 -29.234 19.190
v -22.498 11.909 19.190
v -13.961 12.240 19.190
v -14.186 17.944 19.190
v 22.942 19.359 19.190
usemtl roof
f 20 21 22 23 24 25 26 27 28 29 30 31
usemtl teaching_building
f 19 18 17 16 15 14 13 12 11 10 9 8
f 8 9 21 20
f 9 10 22 21
f 10 11 23 22
f 11 12 24 23
f 12 13 25 24
f 13 14 26 25
f 14 15 27 26
f 15 16 28 27
f 16 17 29 28
f 17 18 30 29
f 18 19 31 30
f 19 8 20 31
