# school_id SD0240
# school_name 青岛商务学校
# boundary_source footprint_convex_hull_buffer_20m
# adjacent_block_merge_distance_m 2.0
mtllib ../campus_materials.mtl
o SD0240_campus_boundary
usemtl campus_boundary
v -74.355 -85.322 0.050
v -91.826 -56.285 0.050
v -17.937 85.787 0.050
v 15.837 87.221 0.050
v 42.894 40.703 0.050
v 56.357 17.555 0.050
v 94.847 -48.640 0.050
v 68.073 -64.183 0.050
v -43.704 -81.749 0.050
v -74.355 -85.322 0.050
l 1 2 3 4 5 6 7 8 9 10 1
o SD0240_T001_1hao
v 4.620 66.727 0.000
v 25.606 30.647 0.000
v 14.402 24.866 0.000
v 7.562 36.406 0.000
v 1.983 37.832 0.000
v -5.018 49.848 0.000
v -31.458 3.355 0.000
v -36.552 6.649 0.000
v -5.531 66.296 0.000
v 4.620 66.727 11.310
v 25.606 30.647 11.310
v 14.402 24.866 11.310
v 7.562 36.406 11.310
v 1.983 37.832 11.310
v -5.018 49.848 11.310
v -31.458 3.355 11.310
v -36.552 6.649 11.310
v -5.531 66.296 11.310
usemtl roof
f 20 21 22 23 24 25 26 27 28
usemtl teaching_building
f 19 18 17 16 15 14 13 12 11
f 11 12 21 20
f 12 13 22 21
f 13 14 23 22
f 14 15 24 23
f 15 16 25 24
f 16 17 26 25
f 17 18 27 26
f 18 19 28 27
f 19 11 20 28
o SD0240_T001_1hao_seg02
v -17.482 11.844 0.000
v -17.482 19.980 0.000
v 20.134 18.521 0.000
v 19.927 11.424 0.000
v 28.333 11.225 0.000
v 28.333 0.160 0.000
v -25.258 1.619 0.000
v -25.888 12.054 0.000
v -17.482 11.844 11.310
v -17.482 19.980 11.310
v 20.134 18.521 11.310
v 19.927 11.424 11.310
v 28.333 11.225 11.310
v 28.333 0.160 11.310
v -25.258 1.619 11.310
v -25.888 12.054 11.310
usemtl roof
f 37 38 39 40 41 42 43 44
usemtl teaching_building
f 36 35 34 33 32 31 30 29
f 29 30 38 37
f 30 31 39 38
f 31 32 40 39
f 32 33 41 40
f 33 34 42 41
f 34 35 43 42
f 35 36 44 43
f 36 29 37 44
o SD0240_T002_2hao
v -68.913 -55.574 0.000
v -63.865 -63.964 0.000
v -46.415 -61.930 0.000
v -53.830 -48.256 0.000
v -39.756 -20.500 0.000
v -36.606 -22.379 0.000
v -27.778 -4.228 0.000
v -39.072 1.796 0.000
v -68.913 -55.574 21.070
v -63.865 -63.964 21.070
v -46.415 -61.930 21.070
v -53.830 -48.256 21.070
v -39.756 -20.500 21.070
v -36.606 -22.379 21.070
v -27.778 -4.228 21.070
v -39.072 1.796 21.070
usemtl roof
f 53 54 55 56 57 58 59 60
usemtl teaching_building
f 52 51 50 49 48 47 46 45
f 45 46 54 53
f 46 47 55 54
f 47 48 56 55
f 48 49 57 56
f 49 50 58 57
f 50 51 59 58
f 51 52 60 59
f 52 45 53 60
