# school_id SD0219
# school_name 立新小学
# boundary_source footprint_convex_hull_buffer_20m
# adjacent_block_merge_distance_m 2.0
mtllib ../campus_materials.mtl
o SD0219_campus_boundary
usemtl campus_boundary
v 16.317 -119.503 0.050
v 3.248 -115.345 0.050
v -4.438 -106.129 0.050
v -30.088 -62.429 0.050
v -48.839 -11.193 0.050
v -57.655 59.677 0.050
v -58.158 95.436 0.050
v 1.498 102.422 0.050
v 41.840 102.108 0.050
v 61.367 -77.450 0.050
v 62.595 -118.514 0.050
v 16.317 -119.503 0.050
l 1 2 3 4 5 6 7 8 9 10 11 12 1
o SD0219_T001_1hao
v -0.551 78.179 0.000
v -37.906 77.671 0.000
v -37.672 61.056 0.000
v -0.317 61.565 0.000
v -0.551 78.179 21.970
v -37.906 77.671 21.970
v -37.672 61.056 21.970
v -0.317 61.565 21.970
usemtl roof
f 17 18 19 20
usemtl teaching_building
f 16 15 14 13
f 13 14 18 17
f 14 15 19 18
f 15 16 20 19
f 16 13 17 20
o SD0219_T002_2hao
v 2.587 82.413 0.000
v 2.300 45.139 0.000
v 23.585 44.973 0.000
v 23.882 82.247 0.000
v 2.587 82.413 21.970
v 2.300 45.139 21.970
v 23.585 44.973 21.970
v 23.882 82.247 21.970
usemtl roof
f 25 26 27 28
usemtl teaching_building
f 24 23 22 21
f 21 22 26 25
f 22 23 27 26
f 23 24 28 27
f 24 21 25 28
o SD0219_T003_3hao
v -29.399 12.496 0.000
v -29.273 -6.461 0.000
v 21.597 -6.141 0.000
v 21.481 12.806 0.000
v -29.399 12.496 19.960
v -29.273 -6.461 19.960
v 21.597 -6.141 19.960
v 21.481 12.806 19.960
usemtl roof
f 33 34 35 36
usemtl teaching_building
f 32 31 30 29
f 29 30 34 33
f 30 31 35 34
f 31 32 36 35
f 32 29 33 36
o SD0219_T004_4hao
v -12.106 -39.436 0.000
v -11.926 -53.861 0.000
v 22.371 -53.441 0.000
v 22.191 -39.027 0.000
v -12.106 -39.436 24.710
v -11.926 -53.861 24.710
v 22.371 -53.441 24.710
v 22.191 -39.027 24.710
usemtl roof
f 41 42 43 44
usemtl teaching_building
f 40 39 38 37
f 37 38 42 41
f 38 39 43 42
f 39 40 44 43
f 40 37 41 44
o SD0219_T005_5hao
v 11.616 -79.075 0.000
v 11.976 -94.584 0.000
v 14.871 -98.055 0.000
v 19.214 -99.437 0.000
v 42.001 -98.950 0.000
v 41.399 -78.832 0.000
v 11.616 -79.075 13.170
v 11.976 -94.584 13.170
v 14.871 -98.055 13.170
v 19.214 -99.437 13.170
v 42.001 -98.950 13.170
v 41.399 -78.832 13.170
usemtl roof
f 51 52 53 54 55 56
usemtl teaching_building
f 50 49 48 47 46 45
f 45 46 52 51
f 46 47 53 52
f 47 48 54 53
f 48 49 55 54
f 49 50 56 55
f 50 45 51 56
