# school_id SD0242
# school_name 青岛四流中路第三小学
# boundary_source footprint_convex_hull_buffer_20m
# adjacent_block_merge_distance_m 2.0
mtllib ../campus_materials.mtl
o SD0242_campus_boundary
usemtl campus_boundary
v -6.808 -44.906 0.050
v -48.740 -0.131 0.050
v -52.804 34.935 0.050
v 46.901 46.314 0.050
v 56.603 -37.672 0.050
v -6.808 -44.906 0.050
l 1 2 3 4 5 6 1
o SD0242_T001_1hao
v -0.046 -15.616 0.000
v 24.339 -12.841 0.000
v 21.805 9.156 0.000
v -24.951 3.839 0.000
v -25.562 9.189 0.000
v -29.632 8.725 0.000
v -30.630 17.336 0.000
v 29.325 24.178 0.000
v 34.437 -20.071 0.000
v 0.916 -23.895 0.000
v -0.046 -15.616 42.690
v 24.339 -12.841 42.690
v 21.805 9.156 42.690
v -24.951 3.839 42.690
v -25.562 9.189 42.690
v -29.632 8.725 42.690
v -30.630 17.336 42.690
v 29.325 24.178 42.690
v 34.437 -20.071 42.690
v 0.916 -23.895 42.690
usemtl roof
f 17 18 19 20 21 22 23 24 25 26
usemtl teaching_building
f 16 15 14 13 12 11 10 9 8 7
f 7 8 18 17
f 8 9 19 18
f 9 10 20 19
f 10 11 21 20
f 11 12 22 21
f 12 13 23 22
f 13 14 24 23
f 14 15 25 24
f 15 16 26 25
f 16 7 17 26
