# school_id SD0281
# school_name 青岛弘德小学
# boundary_source footprint_convex_hull_buffer_20m
# adjacent_block_merge_distance_m 2.0
mtllib ../campus_materials.mtl
o SD0281_campus_boundary
usemtl campus_boundary
v -57.489 -59.797 0.050
v -57.489 59.797 0.050
v 57.489 59.797 0.050
v 57.489 -59.797 0.050
v -57.489 -59.797 0.050
l 1 2 3 4 5 1
o SD0281_T001_1hao
v 37.489 -39.797 0.000
v -16.544 -39.797 0.000
v -37.489 -39.797 0.000
v -37.489 -18.851 0.000
v -37.489 18.851 0.000
v -37.489 39.797 0.000
v -16.544 39.797 0.000
v 37.489 39.797 0.000
v 37.489 18.851 0.000
v -16.544 18.851 0.000
v -16.544 10.473 0.000
v 31.866 10.473 0.000
v 31.866 -10.473 0.000
v -16.544 -10.473 0.000
v -16.544 -18.851 0.000
v 37.489 -18.851 0.000
v 37.489 -39.797 17.330
v -16.544 -39.797 17.330
v -37.489 -39.797 17.330
v -37.489 -18.851 17.330
v -37.489 18.851 17.330
v -37.489 39.797 17.330
v -16.544 39.797 17.330
v 37.489 39.797 17.330
v 37.489 18.851 17.330
v -16.544 18.851 17.330
v -16.544 10.473 17.330
v 31.866 10.473 17.330
v 31.866 -10.473 17.330
v -16.544 -10.473 17.330
v -16.544 -18.851 17.330
v 37.489 -18.851 17.330
usemtl roof
f 22 23 24 25 26 27 28 29 30 31 32 33 34 35 36 37
usemtl teaching_building
f 21 20 19 18 17 16 15 14 13 12 11 10 9 8 7 6
f 6 7 23 22
f 7 8 24 23
f 8 9 25 24
f 9 10 26 25
f 10 11 27 26
f 11 12 28 27
f 12 13 29 28
f 13 14 30 29
f 14 15 31 30
f 15 16 32 31
f 16 17 33 32
f 17 18 34 33
f 18 19 35 34
f 19 20 36 35
f 20 21 37 36
f 21 6 22 37
