# school_id SD0265
# school_name 青岛市实验小学
# boundary_source footprint_convex_hull_buffer_20m
# adjacent_block_merge_distance_m 2.0
mtllib ../campus_materials.mtl
o SD0265_campus_boundary
usemtl campus_boundary
v 47.800 -77.951 0.050
v -8.184 -67.208 0.050
v -40.086 -58.358 0.050
v -43.727 -9.806 0.050
v -23.927 78.196 0.050
v 1.980 87.271 0.050
v 32.018 70.611 0.050
v 40.533 46.690 0.050
v 55.986 -35.898 0.050
v 47.800 -77.951 0.050
l 1 2 3 4 5 6 7 8 9 10 1
o SD0265_T001_1hao
v 0.125 65.430 0.000
v 10.734 57.073 0.000
v 11.373 55.272 0.000
v 15.710 56.786 0.000
v 21.164 41.465 0.000
v 9.078 37.209 0.000
v 6.910 43.289 0.000
v 0.917 41.178 0.000
v -6.849 62.987 0.000
v 0.125 65.430 12.930
v 10.734 57.073 12.930
v 11.373 55.272 12.930
v 15.710 56.786 12.930
v 21.164 41.465 12.930
v 9.078 37.209 12.930
v 6.910 43.289 12.930
v 0.917 41.178 12.930
v -6.849 62.987 12.930
usemtl roof
f 20 21 22 23 24 25 26 27 28
usemtl teaching_building
f 19 18 17 16 15 14 13 12 11
f 11 12 21 20
f 12 13 22 21
f 13 14 23 22
f 14 15 24 23
f 15 16 25 24
f 16 17 26 25
f 17 18 27 26
f 18 19 28 27
f 19 11 20 28
o SD0265_T002_2hao
v 13.263 6.380 0.000
v 3.445 33.252 0.000
v -12.761 27.415 0.000
v -2.944 0.543 0.000
v 13.263 6.380 13.650
v 3.445 33.252 13.650
v -12.761 27.415 13.650
v -2.944 0.543 13.650
usemtl roof
f 33 34 35 36
usemtl teaching_building
f 32 31 30 29
f 29 30 34 33
f 30 31 35 34
f 31 32 36 35
f 32 29 33 36
o SD0265_T003_3hao
v -19.168 -32.420 0.000
v -11.862 -33.824 0.000
v -10.881 -28.783 0.000
v -16.505 -30.795 0.000
v -23.560 -11.285 0.000
v -3.997 -4.310 0.000
v 3.292 -24.461 0.000
v -0.424 -25.787 0.000
v -1.009 -28.783 0.000
v 35.625 -35.824 0.000
v 31.980 -54.550 0.000
v -3.619 -47.719 0.000
v -2.557 -42.269 0.000
v -12.752 -40.312 0.000
v -13.535 -44.314 0.000
v -21.193 -42.844 0.000
v -19.168 -32.420 19.240
v -11.862 -33.824 19.240
v -10.881 -28.783 19.240
v -16.505 -30.795 19.240
v -23.560 -11.285 19.240
v -3.997 -4.310 19.240
v 3.292 -24.461 19.240
v -0.424 -25.787 19.240
v -1.009 -28.783 19.240
v 35.625 -35.824 19.240
v 31.980 -54.550 19.240
v -3.619 -47.719 19.240
v -2.557 -42.269 19.240
v -12.752 -40.312 19.240
v -13.535 -44.314 19.240
v -21.193 -42.844 19.240
usemtl roof
f 53 54 55 56 57 58 59 60 61 62 63 64 65 66 67 68
usemtl teaching_building
f 52 51 50 49 48 47 46 45 44 43 42 41 40 39 38 37
f 37 38 54 53
f 38 39 55 54
f 39 40 56 55
f 40 41 57 56
f 41 42 58 57
f 42 43 59 58
f 43 44 60 59
f 44 45 61 60
f 45 46 62 61
f 46 47 63 62
f 47 48 64 63
f 48 49 65 64
f 49 50 66 65
f 50 51 67 66
f 51 52 68 67
f 52 37 53 68
