# school_id SD0298
# school_name 青岛第二中学分校
# boundary_source footprint_convex_hull_buffer_20m
# adjacent_block_merge_distance_m 2.0
mtllib ../campus_materials.mtl
o SD0298_campus_boundary
usemtl campus_boundary
v 58.020 -34.697 0.050
v -77.580 -34.094 0.050
v -76.604 36.173 0.050
v -12.292 36.488 0.050
v 41.687 26.787 0.050
v 56.680 12.949 0.050
v 58.020 -34.697 0.050
l 1 2 3 4 5 6 7 1
o SD0298_T001_1hao
v -56.879 16.269 0.000
v -14.026 16.479 0.000
v -13.810 -13.764 0.000
v -57.302 -14.184 0.000
v -56.879 16.269 13.820
v -14.026 16.479 13.820
v -13.810 -13.764 13.820
v -57.302 -14.184 13.820
usemtl roof
f 12 13 14 15
usemtl teaching_building
f 11 10 9 8
f 8 9 13 12
f 9 10 14 13
f 10 11 15 14
f 11 8 12 15
o SD0298_T002_2hao
v 1.099 7.924 0.000
v 32.409 8.134 0.000
v 32.616 3.966 0.000
v 36.925 3.966 0.000
v 37.447 -14.605 0.000
v 1.521 -14.184 0.000
v 1.099 7.924 22.490
v 32.409 8.134 22.490
v 32.616 3.966 22.490
v 36.925 3.966 22.490
v 37.447 -14.605 22.490
v 1.521 -14.184 22.490
usemtl roof
f 22 23 24 25 26 27
usemtl teaching_building
f 21 20 19 18 17 16
f 16 17 23 22
f 17 18 24 23
f 18 19 25 24
f 19 20 26 25
f 20 21 27 26
f 21 16 22 27
