# school_id SD0215
# school_name 永安路小学
# boundary_source footprint_convex_hull_buffer_20m
# adjacent_block_merge_distance_m 2.0
mtllib ../campus_materials.mtl
o SD0215_campus_boundary
usemtl campus_boundary
v 9.362 -40.721 0.050
v -45.015 -35.783 0.050
v -41.898 -1.978 0.050
v -29.744 42.100 0.050
v 62.669 32.834 0.050
v 58.772 -5.312 0.050
v 9.362 -40.721 0.050
l 1 2 3 4 5 6 7 1
o SD0215_T001_1hao
v 5.530 -0.597 0.000
v 10.921 -1.095 0.000
v 8.944 -2.764 0.000
v 10.454 -4.831 0.000
v 5.215 -4.356 0.000
v 3.760 -20.130 0.000
v -23.261 -17.676 0.000
v -22.146 -5.583 0.000
v -14.688 -6.257 0.000
v -15.048 -10.104 0.000
v -4.220 -11.099 0.000
v -3.501 -3.394 0.000
v -8.380 -2.941 0.000
v -8.066 0.497 0.000
v -3.285 0.066 0.000
v -2.378 9.860 0.000
v 6.221 9.071 0.000
v -15.892 11.297 0.000
v -14.949 20.516 0.000
v 40.736 14.933 0.000
v 39.792 5.692 0.000
v 6.419 9.051 0.000
v 5.530 -0.597 15.190
v 10.921 -1.095 15.190
v 8.944 -2.764 15.190
v 10.454 -4.831 15.190
v 5.215 -4.356 15.190
v 3.760 -20.130 15.190
v -23.261 -17.676 15.190
v -22.146 -5.583 15.190
v -14.688 -6.257 15.190
v -15.048 -10.104 15.190
v -4.220 -11.099 15.190
v -3.501 -3.394 15.190
v -8.380 -2.941 15.190
v -8.066 0.497 15.190
v -3.285 0.066 15.190
v -2.378 9.860 15.190
v 6.221 9.071 15.190
v -15.892 11.297 15.190
v -14.949 20.516 15.190
v 40.736 14.933 15.190
v 39.792 5.692 15.190
v 6.419 9.051 15.190
usemtl roof
f 30 31 32 33 34 35 36 37 38 39 40 41 42 43 44 45 46 47 48 49 50 51
usemtl teaching_building
f 29 28 27 26 25 24 23 22 21 20 19 18 17 16 15 14 13 12 11 10 9 8
f 8 9 31 30
f 9 10 32 31
f 10 11 33 32
f 11 12 34 33
f 12 13 35 34
f 13 14 36 35
f 14 15 37 36
f 15 16 38 37
f 16 17 39 38
f 17 18 40 39
f 18 19 41 40
f 19 20 42 41
f 20 21 43 42
f 21 22 44 43
f 22 23 45 44
f 23 24 46 45
f 24 25 47 46
f 25 26 48 47
f 26 27 49 48
f 27 28 50 49
f 28 29 51 50
f 29 8 30 51
