# school_id SD0222
# school_name 胶州市向阳小学
# boundary_source footprint_convex_hull_buffer_20m
# adjacent_block_merge_distance_m 2.0
mtllib ../campus_materials.mtl
o SD0222_campus_boundary
usemtl campus_boundary
v -45.433 -91.157 0.050
v -53.180 24.106 0.050
v -53.626 73.144 0.050
v 62.766 74.818 0.050
v 63.769 42.344 0.050
v 65.819 -28.946 0.050
v 66.149 -47.921 0.050
v 34.257 -89.343 0.050
v -45.433 -91.157 0.050
l 1 2 3 4 5 6 7 8 9 1
o SD0222_T001_1hao
v 6.036 40.598 0.000
v 43.778 41.748 0.000
v 43.383 54.537 0.000
v 5.641 53.388 0.000
v 6.036 40.598 14.460
v 43.778 41.748 14.460
v 43.383 54.537 14.460
v 5.641 53.388 14.460
usemtl roof
f 14 15 16 17
usemtl teaching_building
f 13 12 11 10
f 10 11 15 14
f 11 12 16 15
f 12 13 17 16
f 13 10 14 17
o SD0222_T002_2hao
v -19.923 24.990 0.000
v -20.085 43.240 0.000
v 1.559 43.428 0.000
v 1.469 53.741 0.000
v -33.446 53.432 0.000
v -33.186 24.868 0.000
v -19.923 24.990 10.370
v -20.085 43.240 10.370
v 1.559 43.428 10.370
v 1.469 53.741 10.370
v -33.446 53.432 10.370
v -33.186 24.868 10.370
usemtl roof
f 24 25 26 27 28 29
usemtl teaching_building
f 23 22 21 20 19 18
f 18 19 25 24
f 19 20 26 25
f 20 21 27 26
f 21 22 28 27
f 22 23 29 28
f 23 18 24 29
o SD0222_T003_3hao
v -12.897 -19.856 0.000
v -12.709 -30.413 0.000
v 45.824 -29.407 0.000
v 46.030 -41.268 0.000
v -27.676 -42.528 0.000
v -28.062 -20.111 0.000
v -12.897 -19.856 19.040
v -12.709 -30.413 19.040
v 45.824 -29.407 19.040
v 46.030 -41.268 19.040
v -27.676 -42.528 19.040
v -28.062 -20.111 19.040
usemtl roof
f 36 37 38 39 40 41
usemtl teaching_building
f 35 34 33 32 31 30
f 30 31 37 36
f 31 32 38 37
f 32 33 39 38
f 33 34 40 39
f 34 35 41 40
f 35 30 36 41
o SD0222_T004_4hao
v -27.111 -55.627 0.000
v 23.893 -54.466 0.000
v 24.243 -69.566 0.000
v -26.761 -70.727 0.000
v -27.111 -55.627 17.150
v 23.893 -54.466 17.150
v 24.243 -69.566 17.150
v -26.761 -70.727 17.150
usemtl roof
f 46 47 48 49
usemtl teaching_building
f 45 44 43 42
f 42 43 47 46
f 43 44 48 47
f 44 45 49 48
f 45 42 46 49
