# school_id SD0202
# school_name 山东省青岛第五十一中学
# boundary_source footprint_convex_hull_buffer_20m
# adjacent_block_merge_distance_m 2.0
mtllib ../campus_materials.mtl
o SD0202_campus_boundary
usemtl campus_boundary
v -48.123 -114.579 0.050
v -47.880 -64.005 0.050
v -44.038 29.509 0.050
v -32.811 59.898 0.050
v -0.192 67.391 0.050
v 29.863 67.391 0.050
v 72.707 48.966 0.050
v 73.108 23.562 0.050
v 18.474 -114.312 0.050
v -48.123 -114.579 0.050
l 1 2 3 4 5 6 7 8 9 10 1
o SD0202_T001_1hao
v -2.404 42.527 0.000
v -2.683 37.796 0.000
v 2.355 37.796 0.000
v 2.076 47.391 0.000
v 25.745 47.391 0.000
v 25.745 36.127 0.000
v 52.914 35.707 0.000
v 53.048 27.228 0.000
v 35.686 27.505 0.000
v 35.542 15.688 0.000
v 3.245 15.578 0.000
v 3.524 13.488 0.000
v -1.379 13.632 0.000
v -1.514 -13.351 0.000
v -6.696 -14.047 0.000
v -6.974 -17.518 0.000
v -2.359 -21.973 0.000
v -2.215 -30.728 0.000
v -9.214 -35.315 0.000
v -15.521 -30.871 0.000
v -15.656 -22.382 0.000
v -20.838 -21.829 0.000
v -21.818 16.694 0.000
v -24.184 16.628 0.000
v -24.184 25.537 0.000
v -17.797 25.703 0.000
v -17.797 42.826 0.000
v -2.404 42.527 23.520
v -2.683 37.796 23.520
v 2.355 37.796 23.520
v 2.076 47.391 23.520
v 25.745 47.391 23.520
v 25.745 36.127 23.520
v 52.914 35.707 23.520
v 53.048 27.228 23.520
v 35.686 27.505 23.520
v 35.542 15.688 23.520
v 3.245 15.578 23.520
v 3.524 13.488 23.520
v -1.379 13.632 23.520
v -1.514 -13.351 23.520
v -6.696 -14.047 23.520
v -6.974 -17.518 23.520
v -2.359 -21.973 23.520
v -2.215 -30.728 23.520
v -9.214 -35.315 23.520
v -15.521 -30.871 23.520
v -15.656 -22.382 23.520
v -20.838 -21.829 23.520
v -21.818 16.694 23.520
v -24.184 16.628 23.520
v -24.184 25.537 23.520
v -17.797 25.703 23.520
v -17.797 42.826 23.520
usemtl roof
f 38 39 40 41 42 43 44 45 46 47 48 49 50 51 52 53 54 55 56 57 58 59 60 61 62 63 64
usemtl teaching_building
f 37 36 35 34 33 32 31 30 29 28 27 26 25 24 23 22 21 20 19 18 17 16 15 14 13 12 11
f 11 12 39 38
f 12 13 40 39
f 13 14 41 40
f 14 15 42 41
f 15 16 43 42
f 16 17 44 43
f 17 18 45 44
f 18 19 46 45
f 19 20 47 46
f 20 21 48 47
f 21 22 49 48
f 22 23 50 49
f 23 24 51 50
f 24 25 52 51
f 25 26 53 52
f 26 27 54 53
f 27 28 55 54
f 28 29 56 55
f 29 30 57 56
f 30 31 58 57
f 31 32 59 58
f 32 33 60 59
f 33 34 61 60
f 34 35 62 61
f 35 36 63 62
f 36 37 64 63
f 37 11 38 64
o SD0202_T002_2hao
v 4.397 -63.901 0.000
v 4.865 -94.366 0.000
v -28.026 -94.498 0.000
v -27.882 -64.464 0.000
v 4.397 -63.901 12.830
v 4.865 -94.366 12.830
v -28.026 -94.498 12.830
v -27.882 -64.464 12.830
usemtl roof
f 69 70 71 72
usemtl teaching_building
f 68 67 66 65
f 65 66 70 69
f 66 67 71 70
f 67 68 72 71
f 68 65 69 72
