# school_id SD0233
# school_name 青岛交通职业学校(南校区)
# boundary_source footprint_convex_hull_buffer_20m
# adjacent_block_merge_distance_m 2.0
mtllib ../campus_materials.mtl
o SD0233_campus_boundary
usemtl campus_boundary
v 14.584 -73.143 0.050
v -78.777 -3.255 0.050
v -38.106 50.331 0.050
v 52.228 30.647 0.050
v 78.460 10.997 0.050
v 14.584 -73.143 0.050
l 1 2 3 4 5 6 1
o SD0233_T001_1hao
v -20.796 21.262 0.000
v -34.210 3.587 0.000
v -29.685 0.204 0.000
v -31.493 -2.172 0.000
v 12.015 -34.748 0.000
v 41.209 3.709 0.000
v 38.780 5.533 0.000
v 43.719 12.032 0.000
v 50.359 7.058 0.000
v 10.666 -45.227 0.000
v -50.674 0.691 0.000
v -29.892 28.072 0.000
v -20.796 21.262 12.710
v -34.210 3.587 12.710
v -29.685 0.204 12.710
v -31.493 -2.172 12.710
v 12.015 -34.748 12.710
v 41.209 3.709 12.710
v 38.780 5.533 12.710
v 43.719 12.032 12.710
v 50.359 7.058 12.710
v 10.666 -45.227 12.710
v -50.674 0.691 12.710
v -29.892 28.072 12.710
usemtl roof
f 19 20 21 22 23 24 25 26 27 28 29 30
usemtl teaching_building
f 18 17 16 15 14 13 12 11 10 9 8 7
f 7 8 20 19
f 8 9 21 20
f 9 10 22 21
f 10 11 23 22
f 11 12 24 23
f 12 13 25 24
f 13 14 26 25
f 14 15 27 26
f 15 16 28 27
f 16 17 29 28
f 17 18 30 29
f 18 7 19 30
