# school_id SD0221
# school_name 红岛小学
# boundary_source footprint_convex_hull_buffer_20m
# adjacent_block_merge_distance_m 2.0
mtllib ../campus_materials.mtl
o SD0221_campus_boundary
usemtl campus_boundary
v 79.466 -62.432 0.050
v 13.284 -62.098 0.050
v -84.177 -61.388 0.050
v -83.996 -24.986 0.050
v -82.294 81.022 0.050
v 102.662 80.022 0.050
v 102.417 34.404 0.050
v 79.466 -62.432 0.050
l 1 2 3 4 5 6 7 8 1
o SD0221_T001_1hao
v -62.695 45.362 0.000
v 2.285 45.019 0.000
v 2.132 17.671 0.000
v -63.144 18.025 0.000
v -63.225 2.461 0.000
v 2.393 2.107 0.000
v 2.240 -25.550 0.000
v -63.997 -25.196 0.000
v -64.078 -41.534 0.000
v 1.216 -41.865 0.000
v 1.261 -33.254 0.000
v 13.452 -33.321 0.000
v 13.407 -42.098 0.000
v 63.671 -42.352 0.000
v 63.806 -16.883 0.000
v 24.179 -4.547 0.000
v 24.727 18.114 0.000
v 82.430 36.795 0.000
v 82.555 60.130 0.000
v -62.614 60.915 0.000
v -62.695 45.362 9.690
v 2.285 45.019 9.690
v 2.132 17.671 9.690
v -63.144 18.025 9.690
v -63.225 2.461 9.690
v 2.393 2.107 9.690
v 2.240 -25.550 9.690
v -63.997 -25.196 9.690
v -64.078 -41.534 9.690
v 1.216 -41.865 9.690
v 1.261 -33.254 9.690
v 13.452 -33.321 9.690
v 13.407 -42.098 9.690
v 63.671 -42.352 9.690
v 63.806 -16.883 9.690
v 24.179 -4.547 9.690
v 24.727 18.114 9.690
v 82.430 36.795 9.690
v 82.555 60.130 9.690
v -62.614 60.915 9.690
usemtl roof
f 29 30 31 32 33 34 35 36 37 38 39 40 41 42 43 44 45 46 47 48
usemtl teaching_building
f 28 27 26 25 24 23 22 21 20 19 18 17 16 15 14 13 12 11 10 9
f 9 10 30 29
f 10 11 31 30
f 11 12 32 31
f 12 13 33 32
f 13 14 34 33
f 14 15 35 34
f 15 16 36 35
f 16 17 37 36
f 17 18 38 37
f 18 19 39 38
f 19 20 40 39
f 20 21 41 40
f 21 22 42 41
f 22 23 43 42
f 23 24 44 43
f 24 25 45 44
f 25 26 46 45
f 26 27 47 46
f 27 28 48 47
f 28 9 29 48
