# school_id SD0229
# school_name 青岛中学
# boundary_source footprint_convex_hull_buffer_20m
# adjacent_block_merge_distance_m 2.0
mtllib ../campus_materials.mtl
o SD0229_campus_boundary
usemtl campus_boundary
v 121.617 -167.995 0.050
v 31.990 -159.698 0.050
v -131.430 -135.911 0.050
v -134.766 -100.190 0.050
v -140.368 -17.038 0.050
v -140.954 -8.274 0.050
v -142.025 8.908 0.050
v -120.112 166.991 0.050
v 97.594 158.261 0.050
v 141.393 95.527 0.050
v 153.035 38.810 0.050
v 154.932 20.272 0.050
v 154.763 -35.149 0.050
v 146.383 -107.697 0.050
v 121.617 -167.995 0.050
l 1 2 3 4 5 6 7 8 9 10 11 12 13 14 15 1
o SD0229_T001_1hao
v -104.587 129.544 0.000
v -99.030 128.085 0.000
v -98.213 56.135 0.000
v -6.607 56.135 0.000
v -1.212 57.914 0.000
v 4.354 62.137 0.000
v 7.621 68.471 0.000
v 8.277 115.097 0.000
v 5.494 123.862 0.000
v -1.212 131.987 0.000
v -12.172 135.723 0.000
v -102.792 146.280 0.000
v -104.587 129.544 12.840
v -99.030 128.085 12.840
v -98.213 56.135 12.840
v -6.607 56.135 12.840
v -1.212 57.914 12.840
v 4.354 62.137 12.840
v 7.621 68.471 12.840
v 8.277 115.097 12.840
v 5.494 123.862 12.840
v -1.212 131.987 12.840
v -12.172 135.723 12.840
v -102.792 146.280 12.840
usemtl roof
f 28 29 30 31 32 33 34 35 36 37 38 39
usemtl teaching_building
f 27 26 25 24 23 22 21 20 19 18 17 16
f 16 17 29 28
f 17 18 30 29
f 18 19 31 30
f 19 20 32 31
f 20 21 33 32
f 21 22 34 33
f 22 23 35 34
f 23 24 36 35
f 24 25 37 36
f 25 26 38 37
f 26 27 39 38
f 27 16 28 39
o SD0229_T002_2hao
v 91.248 123.885 0.000
v 47.271 109.205 0.000
v 48.735 82.565 0.000
v 122.631 87.462 0.000
v 124.273 70.969 0.000
v 121.688 70.914 0.000
v 125.781 35.055 0.000
v 133.241 35.773 0.000
v 134.929 19.281 0.000
v 67.747 13.532 0.000
v 60.045 14.019 0.000
v 50.413 19.988 0.000
v 46.805 30.511 0.000
v 39.578 88.368 0.000
v 39.578 119.695 0.000
v 43.672 123.752 0.000
v 86.876 138.675 0.000
v 91.248 123.885 12.840
v 47.271 109.205 12.840
v 48.735 82.565 12.840
v 122.631 87.462 12.840
v 124.273 70.969 12.840
v 121.688 70.914 12.840
v 125.781 35.055 12.840
v 133.241 35.773 12.840
v 134.929 19.281 12.840
v 67.747 13.532 12.840
v 60.045 14.019 12.840
v 50.413 19.988 12.840
v 46.805 30.511 12.840
v 39.578 88.368 12.840
v 39.578 119.695 12.840
v 43.672 123.752 12.840
v 86.876 138.675 12.840
usemtl roof
f 57 58 59 60 61 62 63 64 65 66 67 68 69 70 71 72 73
usemtl teaching_building
f 56 55 54 53 52 51 50 49 48 47 46 45 44 43 42 41 40
f 40 41 58 57
f 41 42 59 58
f 42 43 60 59
f 43 44 61 60
f 44 45 62 61
f 45 46 63 62
f 46 47 64 63
f 47 48 65 64
f 48 49 66 65
f 49 50 67 66
f 50 51 68 67
f 51 52 69 68
f 52 53 70 69
f 53 54 71 70
f 54 55 72 71
f 55 56 73 72
f 56 40 57 73
o SD0229_T003_3hao
v -120.996 -6.984 0.000
v -114.614 -6.420 0.000
v -114.183 -15.164 0.000
v -120.413 -15.694 0.000
v -118.510 -35.138 0.000
v -112.163 -34.840 0.000
v -111.750 -44.180 0.000
v -117.971 -44.910 0.000
v -116.337 -62.375 0.000
v -92.944 -61.314 0.000
v -90.197 -95.626 0.000
v -100.018 -96.046 0.000
v -100.161 -97.461 0.000
v -114.829 -98.588 0.000
v -112.980 -118.386 0.000
v -14.578 -110.040 0.000
v -10.879 -106.790 0.000
v -8.887 -93.780 0.000
v 23.699 -92.310 0.000
v 31.383 -136.625 0.000
v 34.354 -139.831 0.000
v 108.735 -146.717 0.000
v 110.719 -133.917 0.000
v 106.508 -133.430 0.000
v 109.973 -102.402 0.000
v 126.832 -102.656 0.000
v 134.767 -33.967 0.000
v 47.244 -24.604 0.000
v 40.054 -25.842 0.000
v -6.301 -2.938 0.000
v -9.533 5.927 0.000
v -15.476 12.073 0.000
v -26.634 15.522 0.000
v -121.939 8.149 0.000
v -120.996 -6.984 12.840
v -114.614 -6.420 12.840
v -114.183 -15.164 12.840
v -120.413 -15.694 12.840
v -118.510 -35.138 12.840
v -112.163 -34.840 12.840
v -111.750 -44.180 12.840
v -117.971 -44.910 12.840
v -116.337 -62.375 12.840
v -92.944 -61.314 12.840
v -90.197 -95.626 12.840
v -100.018 -96.046 12.840
v -100.161 -97.461 12.840
v -114.829 -98.588 12.840
v -112.980 -118.386 12.840
v -14.578 -110.040 12.840
v -10.879 -106.790 12.840
v -8.887 -93.780 12.840
v 23.699 -92.310 12.840
v 31.383 -136.625 12.840
v 34.354 -139.831 12.840
v 108.735 -146.717 12.840
v 110.719 -133.917 12.840
v 106.508 -133.430 12.840
v 109.973 -102.402 12.840
v 126.832 -102.656 12.840
v 134.767 -33.967 12.840
v 47.244 -24.604 12.840
v 40.054 -25.842 12.840
v -6.301 -2.938 12.840
v -9.533 5.927 12.840
v -15.476 12.073 12.840
v -26.634 15.522 12.840
v -121.939 8.149 12.840
usemtl roof
f 108 109 110 111 112 113 114 115 116 117 118 119 120 121 122 123 124 125 126 127 128 129 130 131 132 133 134 135 136 137 138 139 140 141
usemtl teaching_building
f 107 106 105 104 103 102 101 100 99 98 97 96 95 94 93 92 91 90 89 88 87 86 85 84 83 82 81 80 79 78 77 76 75 74
f 74 75 109 108
f 75 76 110 109
f 76 77 111 110
f 77 78 112 111
f 78 79 113 112
f 79 80 114 113
f 80 81 115 114
f 81 82 116 115
f 82 83 117 116
f 83 84 118 117
f 84 85 119 118
f 85 86 120 119
f 86 87 121 120
f 87 88 122 121
f 88 89 123 122
f 89 90 124 123
f 90 91 125 124
f 91 92 126 125
f 92 93 127 126
f 93 94 128 127
f 94 95 129 128
f 95 96 130 129
f 96 97 131 130
f 97 98 132 131
f 98 99 133 132
f 99 100 134 133
f 100 101 135 134
f 101 102 136 135
f 102 103 137 136
f 103 104 138 137
f 104 105 139 138
f 105 106 140 139
f 106 107 141 140
f 107 74 108 141
