# school_id SD0333
# school_name 淄博东方双语学校
# boundary_source footprint_convex_hull_buffer_20m
# adjacent_block_merge_distance_m 2.0
mtllib ../campus_materials.mtl
o SD0333_campus_boundary
usemtl campus_boundary
v 462.166 -828.527 0.050
v 415.543 -823.295 0.050
v -177.987 35.158 0.050
v -196.976 63.236 0.050
v -45.173 256.440 0.050
v 43.125 245.235 0.050
v 467.156 -784.714 0.050
v 462.166 -828.527 0.050
l 1 2 3 4 5 6 7 8 1
o SD0333_T001_1hao
v -37.891 223.300 0.000
v -43.649 223.764 0.000
v -46.492 197.809 0.000
v -50.129 192.614 0.000
v -44.202 189.054 0.000
v -49.879 179.139 0.000
v -23.666 164.824 0.000
v 1.325 149.470 0.000
v 14.712 170.130 0.000
v -5.841 181.991 0.000
v -7.516 179.150 0.000
v -35.164 193.354 0.000
v -33.346 210.090 0.000
v -21.385 209.051 0.000
v -20.698 215.628 0.000
v 3.482 213.097 0.000
v 3.001 209.769 0.000
v 26.674 206.685 0.000
v 29.062 226.859 0.000
v -36.448 235.172 0.000
v -37.891 223.300 16.970
v -43.649 223.764 16.970
v -46.492 197.809 16.970
v -50.129 192.614 16.970
v -44.202 189.054 16.970
v -49.879 179.139 16.970
v -23.666 164.824 16.970
v 1.325 149.470 16.970
v 14.712 170.130 16.970
v -5.841 181.991 16.970
v -7.516 179.150 16.970
v -35.164 193.354 16.970
v -33.346 210.090 16.970
v -21.385 209.051 16.970
v -20.698 215.628 16.970
v 3.482 213.097 16.970
v 3.001 209.769 16.970
v 26.674 206.685 16.970
v 29.062 226.859 16.970
v -36.448 235.172 16.970
usemtl roof
f 29 30 31 32 33 34 35 36 37 38 39 40 41 42 43 44 45 46 47 48
usemtl teaching_building
f 28 27 26 25 24 23 22 21 20 19 18 17 16 15 14 13 12 11 10 9
f 9 10 30 29
f 10 11 31 30
f 11 12 32 31
f 12 13 33 32
f 13 14 34 33
f 14 15 35 34
f 15 16 36 35
f 16 17 37 36
f 17 18 38 37
f 18 19 39 38
f 19 20 40 39
f 20 21 41 40
f 21 22 42 41
f 22 23 43 42
f 23 24 44 43
f 24 25 45 44
f 25 26 46 45
f 26 27 47 46
f 27 28 48 47
f 28 9 29 48
o SD0333_T002_2hao
v -161.478 46.447 0.000
v -147.128 31.258 0.000
v -136.611 22.946 0.000
v -121.788 14.401 0.000
v -114.658 11.870 0.000
v -115.942 7.161 0.000
v -103.669 3.634 0.000
v -102.430 7.514 0.000
v -76.609 4.674 0.000
v -76.440 0.451 0.000
v -64.594 0.506 0.000
v -64.835 5.116 0.000
v -38.836 11.317 0.000
v -20.190 20.812 0.000
v -7.044 30.783 0.000
v 3.955 40.986 0.000
v -37.972 68.168 0.000
v -47.205 60.452 0.000
v -59.871 54.041 0.000
v -75.655 50.957 0.000
v -91.859 52.526 0.000
v -104.818 57.368 0.000
v -116.530 65.913 0.000
v -125.461 77.519 0.000
v -172.235 62.353 0.000
v -161.478 46.447 29.370
v -147.128 31.258 29.370
v -136.611 22.946 29.370
v -121.788 14.401 29.370
v -114.658 11.870 29.370
v -115.942 7.161 29.370
v -103.669 3.634 29.370
v -102.430 7.514 29.370
v -76.609 4.674 29.370
v -76.440 0.451 29.370
v -64.594 0.506 29.370
v -64.835 5.116 29.370
v -38.836 11.317 29.370
v -20.190 20.812 29.370
v -7.044 30.783 29.370
v 3.955 40.986 29.370
v -37.972 68.168 29.370
v -47.205 60.452 29.370
v -59.871 54.041 29.370
v -75.655 50.957 29.370
v -91.859 52.526 29.370
v -104.818 57.368 29.370
v -116.530 65.913 29.370
v -125.461 77.519 29.370
v -172.235 62.353 29.370
usemtl roof
f 74 75 76 77 78 79 80 81 82 83 84 85 86 87 88 89 90 91 92 93 94 95 96 97 98
usemtl teaching_building
f 73 72 71 70 69 68 67 66 65 64 63 62 61 60 59 58 57 56 55 54 53 52 51 50 49
f 49 50 75 74
f 50 51 76 75
f 51 52 77 76
f 52 53 78 77
f 53 54 79 78
f 54 55 80 79
f 55 56 81 80
f 56 57 82 81
f 57 58 83 82
f 58 59 84 83
f 59 60 85 84
f 60 61 86 85
f 61 62 87 86
f 62 63 88 87
f 63 64 89 88
f 64 65 90 89
f 65 66 91 90
f 66 67 92 91
f 67 68 93 92
f 68 69 94 93
f 69 70 95 94
f 70 71 96 95
f 71 72 97 96
f 72 73 98 97
f 73 49 74 98
o SD0333_T003_3hao
v 446.702 -787.567 0.000
v 435.552 -786.318 0.000
v 433.841 -801.340 0.000
v 427.254 -800.599 0.000
v 426.818 -804.435 0.000
v 444.554 -806.425 0.000
v 446.702 -787.567 11.070
v 435.552 -786.318 11.070
v 433.841 -801.340 11.070
v 427.254 -800.599 11.070
v 426.818 -804.435 11.070
v 444.554 -806.425 11.070
usemtl roof
f 105 106 107 108 109 110
usemtl teaching_building
f 104 103 102 101 100 99
f 99 100 106 105
f 100 101 107 106
f 101 102 108 107
f 102 103 109 108
f 103 104 110 109
f 104 99 105 110
