# school_id SD0398
# school_name 东营市一中新校区（有光伏）
# boundary_source footprint_convex_hull_buffer_20m
# adjacent_block_merge_distance_m 2.0
mtllib ../campus_materials.mtl
o SD0398_campus_boundary
usemtl campus_boundary
v -129.688 -154.757 0.050
v -226.123 -126.012 0.050
v -237.519 -73.281 0.050
v -237.887 -49.214 0.050
v -215.149 -7.921 0.050
v -46.108 267.629 0.050
v 202.960 273.515 0.050
v 286.899 274.461 0.050
v 287.501 222.138 0.050
v 288.301 -37.768 0.050
v 276.247 -109.497 0.050
v -69.090 -154.460 0.050
v -129.688 -154.757 0.050
l 1 2 3 4 5 6 7 8 9 10 11 12 13 1
o SD0398_T001_1hao
v 36.805 247.626 0.000
v 36.743 231.510 0.000
v -34.815 231.786 0.000
v -34.753 247.892 0.000
v 36.805 247.626 11.750
v 36.743 231.510 11.750
v -34.815 231.786 11.750
v -34.753 247.892 11.750
usemtl roof
f 18 19 20 21
usemtl teaching_building
f 17 16 15 14
f 14 15 19 18
f 15 16 20 19
f 16 17 21 20
f 17 14 18 21
o SD0398_T002_2hao
v 204.368 160.720 0.000
v 258.395 161.317 0.000
v 257.706 221.881 0.000
v 267.501 221.992 0.000
v 267.130 254.237 0.000
v 203.309 253.518 0.000
v 204.368 160.720 6.600
v 258.395 161.317 6.600
v 257.706 221.881 6.600
v 267.501 221.992 6.600
v 267.130 254.237 6.600
v 203.309 253.518 6.600
usemtl roof
f 28 29 30 31 32 33
usemtl teaching_building
f 27 26 25 24 23 22
f 22 23 29 28
f 23 24 30 29
f 24 25 31 30
f 25 26 32 31
f 26 27 33 32
f 27 22 28 33
o SD0398_T003_3hao
v 41.327 155.447 0.000
v 41.433 90.328 0.000
v -38.118 90.206 0.000
v -38.224 155.325 0.000
v 41.327 155.447 11.290
v 41.433 90.328 11.290
v -38.118 90.206 11.290
v -38.224 155.325 11.290
usemtl roof
f 38 39 40 41
usemtl teaching_building
f 37 36 35 34
f 34 35 39 38
f 35 36 40 39
f 36 37 41 40
f 37 34 38 41
o SD0398_T004_4hao
v 213.545 80.412 0.000
v 258.571 81.031 0.000
v 257.715 142.105 0.000
v 212.697 141.486 0.000
v 213.545 80.412 7.890
v 258.571 81.031 7.890
v 257.715 142.105 7.890
v 212.697 141.486 7.890
usemtl roof
f 46 47 48 49
usemtl teaching_building
f 45 44 43 42
f 42 43 47 46
f 43 44 48 47
f 44 45 49 48
f 45 42 46 49
o SD0398_T005_5hao
v 29.457 -1.199 0.000
v 71.630 -1.343 0.000
v 71.763 37.423 0.000
v 29.598 37.567 0.000
v 29.457 -1.199 10.200
v 71.630 -1.343 10.200
v 71.763 37.423 10.200
v 29.598 37.567 10.200
usemtl roof
f 54 55 56 57
usemtl teaching_building
f 53 52 51 50
f 50 51 55 54
f 51 52 56 55
f 52 53 57 56
f 53 50 54 57
o SD0398_T006_6hao
v 3.746 7.091 0.000
v -37.226 6.218 0.000
v -37.509 25.518 0.000
v 3.596 26.602 0.000
v 3.746 7.091 7.300
v -37.226 6.218 7.300
v -37.509 25.518 7.300
v 3.596 26.602 7.300
usemtl roof
f 62 63 64 65
usemtl teaching_building
f 61 60 59 58
f 58 59 63 62
f 59 60 64 63
f 60 61 65 64
f 61 58 62 65
o SD0398_T007_7hao
v -46.800 33.720 0.000
v -104.315 33.411 0.000
v -104.130 -1.078 0.000
v -45.466 -0.768 0.000
v -45.387 -15.105 0.000
v -117.130 -15.470 0.000
v -117.210 0.879 0.000
v -112.882 0.901 0.000
v -112.926 7.544 0.000
v -154.641 7.312 0.000
v -154.711 20.997 0.000
v -113.810 21.218 0.000
v -113.951 48.278 0.000
v -46.888 48.632 0.000
v -46.800 33.720 9.150
v -104.315 33.411 9.150
v -104.130 -1.078 9.150
v -45.466 -0.768 9.150
v -45.387 -15.105 9.150
v -117.130 -15.470 9.150
v -117.210 0.879 9.150
v -112.882 0.901 9.150
v -112.926 7.544 9.150
v -154.641 7.312 9.150
v -154.711 20.997 9.150
v -113.810 21.218 9.150
v -113.951 48.278 9.150
v -46.888 48.632 9.150
usemtl roof
f 80 81 82 83 84 85 86 87 88 89 90 91 92 93
usemtl teaching_building
f 79 78 77 76 75 74 73 72 71 70 69 68 67 66
f 66 67 81 80
f 67 68 82 81
f 68 69 83 82
f 69 70 84 83
f 70 71 85 84
f 71 72 86 85
f 72 73 87 86
f 73 74 88 87
f 74 75 89 88
f 75 76 90 89
f 76 77 91 90
f 77 78 92 91
f 78 79 93 92
f 79 66 80 93
o SD0398_T008_8hao
v 5.098 -35.765 0.000
v 18.169 -35.555 0.000
v 18.372 -48.035 0.000
v -45.449 -49.052 0.000
v -45.873 -23.197 0.000
v 4.877 -22.379 0.000
v 5.098 -35.765 11.050
v 18.169 -35.555 11.050
v 18.372 -48.035 11.050
v -45.449 -49.052 11.050
v -45.873 -23.197 11.050
v 4.877 -22.379 11.050
usemtl roof
f 100 101 102 103 104 105
usemtl teaching_building
f 99 98 97 96 95 94
f 94 95 101 100
f 95 96 102 101
f 96 97 103 102
f 97 98 104 103
f 98 99 105 104
f 99 94 100 105
o SD0398_T009_9hao
v 209.076 -14.088 0.000
v 209.323 -39.910 0.000
v 215.347 -39.855 0.000
v 215.850 -91.986 0.000
v 258.978 -91.577 0.000
v 258.448 -36.229 0.000
v 268.296 -36.130 0.000
v 268.075 -13.536 0.000
v 209.076 -14.088 9.630
v 209.323 -39.910 9.630
v 215.347 -39.855 9.630
v 215.850 -91.986 9.630
v 258.978 -91.577 9.630
v 258.448 -36.229 9.630
v 268.296 -36.130 9.630
v 268.075 -13.536 9.630
usemtl roof
f 114 115 116 117 118 119 120 121
usemtl teaching_building
f 113 112 111 110 109 108 107 106
f 106 107 115 114
f 107 108 116 115
f 108 109 117 116
f 109 110 118 117
f 110 111 119 118
f 111 112 120 119
f 112 113 121 120
f 113 106 114 121
o SD0398_T010_10hao
v 82.529 -17.493 0.000
v 82.909 -41.414 0.000
v 88.429 -41.325 0.000
v 89.303 -95.468 0.000
v 167.795 -94.208 0.000
v 167.574 -80.578 0.000
v 111.728 -81.462 0.000
v 111.136 -44.244 0.000
v 153.063 -43.580 0.000
v 152.630 -16.387 0.000
v 82.529 -17.493 16.530
v 82.909 -41.414 16.530
v 88.429 -41.325 16.530
v 89.303 -95.468 16.530
v 167.795 -94.208 16.530
v 167.574 -80.578 16.530
v 111.728 -81.462 16.530
v 111.136 -44.244 16.530
v 153.063 -43.580 16.530
v 152.630 -16.387 16.530
usemtl roof
f 132 133 134 135 136 137 138 139 140 141
usemtl teaching_building
f 131 130 129 128 127 126 125 124 123 122
f 122 123 133 132
f 123 124 134 133
f 124 125 135 134
f 125 126 136 135
f 126 127 137 136
f 127 128 138 137
f 128 129 139 138
f 129 130 140 139
f 130 131 141 140
f 131 122 132 141
o SD0398_T011_11hao
v -136.932 -27.530 0.000
v -189.766 -28.315 0.000
v -189.360 -55.320 0.000
v -161.238 -54.900 0.000
v -161.035 -68.032 0.000
v -188.123 -68.430 0.000
v -187.761 -93.080 0.000
v -136.075 -92.328 0.000
v -135.828 -109.153 0.000
v -209.073 -110.225 0.000
v -209.524 -79.871 0.000
v -197.989 -79.705 0.000
v -198.121 -70.707 0.000
v -217.552 -70.994 0.000
v -217.808 -54.214 0.000
v -197.309 -53.916 0.000
v -197.856 -17.979 0.000
v -137.091 -17.073 0.000
v -136.932 -27.530 10.800
v -189.766 -28.315 10.800
v -189.360 -55.320 10.800
v -161.238 -54.900 10.800
v -161.035 -68.032 10.800
v -188.123 -68.430 10.800
v -187.761 -93.080 10.800
v -136.075 -92.328 10.800
v -135.828 -109.153 10.800
v -209.073 -110.225 10.800
v -209.524 -79.871 10.800
v -197.989 -79.705 10.800
v -198.121 -70.707 10.800
v -217.552 -70.994 10.800
v -217.808 -54.214 10.800
v -197.309 -53.916 10.800
v -197.856 -17.979 10.800
v -137.091 -17.073 10.800
usemtl roof
f 160 161 162 163 164 165 166 167 168 169 170 171 172 173 174 175 176 177
usemtl teaching_building
f 159 158 157 156 155 154 153 152 151 150 149 148 147 146 145 144 143 142
f 142 143 161 160
f 143 144 162 161
f 144 145 163 162
f 145 146 164 163
f 146 147 165 164
f 147 148 166 165
f 148 149 167 166
f 149 150 168 167
f 150 151 169 168
f 151 152 170 169
f 152 153 171 170
f 153 154 172 171
f 154 155 173 172
f 155 156 174 173
f 156 157 175 174
f 157 158 176 175
f 158 159 177 176
f 159 142 160 177
o SD0398_T012_12hao
v -45.413 -80.556 0.000
v -20.312 -80.468 0.000
v -20.259 -98.121 0.000
v -92.701 -98.353 0.000
v -92.736 -88.968 0.000
v -129.822 -89.101 0.000
v -129.893 -69.778 0.000
v -45.449 -69.491 0.000
v -45.413 -80.556 17.450
v -20.312 -80.468 17.450
v -20.259 -98.121 17.450
v -92.701 -98.353 17.450
v -92.736 -88.968 17.450
v -129.822 -89.101 17.450
v -129.893 -69.778 17.450
v -45.449 -69.491 17.450
usemtl roof
f 186 187 188 189 190 191 192 193
usemtl teaching_building
f 185 184 183 182 181 180 179 178
f 178 179 187 186
f 179 180 188 187
f 180 181 189 188
f 181 182 190 189
f 182 183 191 190
f 183 184 192 191
f 184 185 193 192
f 185 178 186 193
o SD0398_T013_13hao
v -70.550 -110.667 0.000
v -70.435 -134.466 0.000
v -126.819 -134.743 0.000
v -126.934 -110.932 0.000
v -70.550 -110.667 11.580
v -70.435 -134.466 11.580
v -126.819 -134.743 11.580
v -126.934 -110.932 11.580
usemtl roof
f 198 199 200 201
usemtl teaching_building
f 197 196 195 194
f 194 195 199 198
f 195 196 200 199
f 196 197 201 200
f 197 194 198 201
