# school_id SD0303
# school_name 青岛第六十五中学
# boundary_source footprint_convex_hull_buffer_20m
# adjacent_block_merge_distance_m 2.0
mtllib ../campus_materials.mtl
o SD0303_campus_boundary
usemtl campus_boundary
v -36.310 -114.116 0.050
v -73.852 -73.319 0.050
v -33.776 45.717 0.050
v -7.399 71.353 0.050
v 57.039 17.487 0.050
v 67.896 -11.853 0.050
v -36.310 -114.116 0.050
l 1 2 3 4 5 6 7 1
o SD0303_T001_1hao
v -6.391 44.443 0.000
v 40.129 5.555 0.000
v 36.037 1.907 0.000
v 44.645 -6.649 0.000
v -35.578 -85.376 0.000
v -51.121 -68.485 0.000
v 15.979 2.946 0.000
v 2.640 13.690 0.000
v -3.863 7.743 0.000
v -16.680 21.296 0.000
v -9.431 28.182 0.000
v -16.366 34.748 0.000
v -6.391 44.443 26.770
v 40.129 5.555 26.770
v 36.037 1.907 26.770
v 44.645 -6.649 26.770
v -35.578 -85.376 26.770
v -51.121 -68.485 26.770
v 15.979 2.946 26.770
v 2.640 13.690 26.770
v -3.863 7.743 26.770
v -16.680 21.296 26.770
v -9.431 28.182 26.770
v -16.366 34.748 26.770
usemtl roof
f 20 21 22 23 24 25 26 27 28 29 30 31
usemtl teaching_building
f 19 18 17 16 15 14 13 12 11 10 9 8
f 8 9 21 20
f 9 10 22 21
f 10 11 23 22
f 11 12 24 23
f 12 13 25 24
f 13 14 26 25
f 14 15 27 26
f 15 16 28 27
f 16 17 29 28
f 17 18 30 29
f 18 19 31 30
f 19 8 20 31
