# school_id SD0381
# school_name 滕州市第二中学
# boundary_source footprint_convex_hull_buffer_20m
# adjacent_block_merge_distance_m 2.0
mtllib ../campus_materials.mtl
o SD0381_campus_boundary
usemtl campus_boundary
v -133.581 -154.402 0.050
v -134.518 -112.498 0.050
v -138.052 102.747 0.050
v -85.808 224.303 0.050
v -40.107 259.579 0.050
v 25.979 260.598 0.050
v 119.015 37.204 0.050
v 123.377 -64.816 0.050
v 124.343 -116.738 0.050
v -62.955 -151.942 0.050
v -133.581 -154.402 0.050
l 1 2 3 4 5 6 7 8 9 10 11 1
o SD0381_T001_1hao
v -32.712 212.226 0.000
v -33.150 239.684 0.000
v 12.729 240.391 0.000
v 13.258 206.975 0.000
v -9.144 206.621 0.000
v -8.698 178.411 0.000
v 16.383 178.798 0.000
v 16.948 143.116 0.000
v -34.097 142.320 0.000
v -34.461 165.080 0.000
v -68.725 164.539 0.000
v -69.481 211.640 0.000
v -32.712 212.226 26.780
v -33.150 239.684 26.780
v 12.729 240.391 26.780
v 13.258 206.975 26.780
v -9.144 206.621 26.780
v -8.698 178.411 26.780
v 16.383 178.798 26.780
v 16.948 143.116 26.780
v -34.097 142.320 26.780
v -34.461 165.080 26.780
v -68.725 164.539 26.780
v -69.481 211.640 26.780
usemtl roof
f 24 25 26 27 28 29 30 31 32 33 34 35
usemtl teaching_building
f 23 22 21 20 19 18 17 16 15 14 13 12
f 12 13 25 24
f 13 14 26 25
f 14 15 27 26
f 15 16 28 27
f 16 17 29 28
f 17 18 30 29
f 18 19 31 30
f 19 20 32 31
f 20 21 33 32
f 21 22 34 33
f 22 23 35 34
f 23 12 24 35
o SD0381_T002_2hao
v -25.816 124.855 0.000
v -23.848 70.381 0.000
v -70.237 68.723 0.000
v -72.214 123.197 0.000
v -25.816 124.855 14.810
v -23.848 70.381 14.810
v -70.237 68.723 14.810
v -72.214 123.197 14.810
usemtl roof
f 40 41 42 43
usemtl teaching_building
f 39 38 37 36
f 36 37 41 40
f 37 38 42 41
f 38 39 43 42
f 39 36 40 43
o SD0381_T003_3hao
v -85.679 99.342 0.000
v -85.397 82.971 0.000
v -117.701 82.430 0.000
v -117.984 98.789 0.000
v -85.679 99.342 11.610
v -85.397 82.971 11.610
v -117.701 82.430 11.610
v -117.984 98.789 11.610
usemtl roof
f 48 49 50 51
usemtl teaching_building
f 47 46 45 44
f 44 45 49 48
f 45 46 50 49
f 46 47 51 50
f 47 44 48 51
o SD0381_T004_4hao
v 99.185 32.797 0.000
v 99.586 21.179 0.000
v 61.870 19.908 0.000
v 61.469 31.504 0.000
v 99.185 32.797 11.160
v 99.586 21.179 11.160
v 61.870 19.908 11.160
v 61.469 31.504 11.160
usemtl roof
f 56 57 58 59
usemtl teaching_building
f 55 54 53 52
f 52 53 57 56
f 53 54 58 57
f 54 55 59 58
f 55 52 56 59
o SD0381_T005_5hao
v 98.402 16.780 0.000
v 98.949 1.481 0.000
v 62.981 0.221 0.000
v 62.435 15.520 0.000
v 98.402 16.780 10.210
v 98.949 1.481 10.210
v 62.981 0.221 10.210
v 62.435 15.520 10.210
usemtl roof
f 64 65 66 67
usemtl teaching_building
f 63 62 61 60
f 60 61 65 64
f 61 62 66 65
f 62 63 67 66
f 63 60 64 67
o SD0381_T006_6hao
v 97.436 -8.269 0.000
v 98.101 -24.529 0.000
v 64.384 -25.878 0.000
v 63.719 -9.628 0.000
v 97.436 -8.269 8.830
v 98.101 -24.529 8.830
v 64.384 -25.878 8.830
v 63.719 -9.628 8.830
usemtl roof
f 72 73 74 75
usemtl teaching_building
f 71 70 69 68
f 68 69 73 72
f 69 70 74 73
f 70 71 75 74
f 71 68 72 75
o SD0381_T007_7hao
v -55.132 -16.250 0.000
v -54.413 -49.003 0.000
v -100.356 -49.997 0.000
v -101.075 -17.244 0.000
v -55.132 -16.250 7.330
v -54.413 -49.003 7.330
v -100.356 -49.997 7.330
v -101.075 -17.244 7.330
usemtl roof
f 80 81 82 83
usemtl teaching_building
f 79 78 77 76
f 76 77 81 80
f 77 78 82 81
f 78 79 83 82
f 79 76 80 83
o SD0381_T008_8hao
v 100.734 -36.401 0.000
v 101.281 -53.590 0.000
v 65.815 -54.706 0.000
v 65.268 -37.517 0.000
v 100.734 -36.401 14.250
v 101.281 -53.590 14.250
v 65.815 -54.706 14.250
v 65.268 -37.517 14.250
usemtl roof
f 88 89 90 91
usemtl teaching_building
f 87 86 85 84
f 84 85 89 88
f 85 86 90 89
f 86 87 91 90
f 87 84 88 91
o SD0381_T009_9hao
v 14.980 -36.887 0.000
v 16.100 -40.436 0.000
v 15.718 -53.391 0.000
v -21.179 -54.850 0.000
v -21.671 -37.860 0.000
v 14.980 -36.887 10.410
v 16.100 -40.436 10.410
v 15.718 -53.391 10.410
v -21.179 -54.850 10.410
v -21.671 -37.860 10.410
usemtl roof
f 97 98 99 100 101
usemtl teaching_building
f 96 95 94 93 92
f 92 93 98 97
f 93 94 99 98
f 94 95 100 99
f 95 96 101 100
f 96 92 97 101
o SD0381_T010_10hao
v 57.005 -49.544 0.000
v 57.752 -78.837 0.000
v 21.302 -79.755 0.000
v 20.555 -50.462 0.000
v 57.005 -49.544 9.120
v 57.752 -78.837 9.120
v 21.302 -79.755 9.120
v 20.555 -50.462 9.120
usemtl roof
f 106 107 108 109
usemtl teaching_building
f 105 104 103 102
f 102 103 107 106
f 103 104 108 107
f 104 105 109 108
f 105 102 106 109
o SD0381_T011_11hao
v 13.877 -63.671 0.000
v 15.043 -91.339 0.000
v -39.199 -93.583 0.000
v -40.356 -65.915 0.000
v 13.877 -63.671 9.110
v 15.043 -91.339 9.110
v -39.199 -93.583 9.110
v -40.356 -65.915 9.110
usemtl roof
f 114 115 116 117
usemtl teaching_building
f 113 112 111 110
f 110 111 115 114
f 111 112 116 115
f 112 113 117 116
f 113 110 114 117
o SD0381_T012_12hao
v -70.146 -70.204 0.000
v -69.508 -91.770 0.000
v -114.221 -93.075 0.000
v -114.859 -71.497 0.000
v -70.146 -70.204 11.750
v -69.508 -91.770 11.750
v -114.221 -93.075 11.750
v -114.859 -71.497 11.750
usemtl roof
f 122 123 124 125
usemtl teaching_building
f 121 120 119 118
f 118 119 123 122
f 119 120 124 123
f 120 121 125 124
f 121 118 122 125
o SD0381_T013_13hao
v 90.030 -83.447 0.000
v 89.702 -65.683 0.000
v 103.385 -65.429 0.000
v 104.032 -100.205 0.000
v 63.902 -100.945 0.000
v 63.583 -83.922 0.000
v 90.030 -83.447 9.540
v 89.702 -65.683 9.540
v 103.385 -65.429 9.540
v 104.032 -100.205 9.540
v 63.902 -100.945 9.540
v 63.583 -83.922 9.540
usemtl roof
f 132 133 134 135 136 137
usemtl teaching_building
f 131 130 129 128 127 126
f 126 127 133 132
f 127 128 134 133
f 128 129 135 134
f 129 130 136 135
f 130 131 137 136
f 131 126 132 137
o SD0381_T014_14hao
v 16.146 -97.662 0.000
v 16.474 -108.141 0.000
v -20.377 -109.280 0.000
v -20.705 -98.812 0.000
v 16.146 -97.662 9.610
v 16.474 -108.141 9.610
v -20.377 -109.280 9.610
v -20.705 -98.812 9.610
usemtl roof
f 142 143 144 145
usemtl teaching_building
f 141 140 139 138
f 138 139 143 142
f 139 140 144 143
f 140 141 145 144
f 141 138 142 145
o SD0381_T015_15hao
v -66.320 -110.794 0.000
v -65.163 -132.007 0.000
v -114.039 -133.709 0.000
v -114.522 -112.110 0.000
v -66.320 -110.794 9.110
v -65.163 -132.007 9.110
v -114.039 -133.709 9.110
v -114.522 -112.110 9.110
usemtl roof
f 150 151 152 153
usemtl teaching_building
f 149 148 147 146
f 146 147 151 150
f 147 148 152 151
f 148 149 153 152
f 149 146 150 153
