# school_id SD0315
# school_name 青岛顺兴路小学
# boundary_source footprint_convex_hull_buffer_20m
# adjacent_block_merge_distance_m 2.0
mtllib ../campus_materials.mtl
o SD0315_campus_boundary
usemtl campus_boundary
v 25.768 -52.980 0.050
v 8.958 -50.461 0.050
v -50.853 -8.701 0.050
v -57.818 4.367 0.050
v -56.027 21.483 0.050
v -22.878 68.531 0.050
v 5.564 49.752 0.050
v 67.772 -1.907 0.050
v 38.114 -43.983 0.050
v 25.768 -52.980 0.050
l 1 2 3 4 5 6 7 8 9 10 1
o SD0315_T001_1hao
v -6.370 33.665 0.000
v -21.223 12.408 0.000
v 20.682 -16.476 0.000
v 32.422 0.326 0.000
v 40.779 -5.488 0.000
v 23.668 -29.763 0.000
v 20.619 -31.985 0.000
v 16.561 -31.377 0.000
v -35.464 4.947 0.000
v -37.290 8.373 0.000
v -36.678 14.221 0.000
v -17.705 41.149 0.000
v -6.370 33.665 15.310
v -21.223 12.408 15.310
v 20.682 -16.476 15.310
v 32.422 0.326 15.310
v 40.779 -5.488 15.310
v 23.668 -29.763 15.310
v 20.619 -31.985 15.310
v 16.561 -31.377 15.310
v -35.464 4.947 15.310
v -37.290 8.373 15.310
v -36.678 14.221 15.310
v -17.705 41.149 15.310
usemtl roof
f 23 24 25 26 27 28 29 30 31 32 33 34
usemtl teaching_building
f 22 21 20 19 18 17 16 15 14 13 12 11
f 11 12 24 23
f 12 13 25 24
f 13 14 26 25
f 14 15 27 26
f 15 16 28 27
f 16 17 29 28
f 17 18 30 29
f 18 19 31 30
f 19 20 32 31
f 20 21 33 32
f 21 22 34 33
f 22 11 23 34
