# school_id SD0387
# school_name 舜耕中学
# boundary_source footprint_convex_hull_buffer_20m
# adjacent_block_merge_distance_m 2.0
mtllib ../campus_materials.mtl
o SD0387_campus_boundary
usemtl campus_boundary
v 46.271 -60.721 0.050
v -14.514 -50.735 0.050
v -82.116 -39.005 0.050
v -110.659 -33.722 0.050
v -131.029 18.331 0.050
v -125.992 46.153 0.050
v 76.631 85.549 0.050
v 117.541 78.840 0.050
v 108.321 23.438 0.050
v 92.688 -43.708 0.050
v 46.271 -60.721 0.050
l 1 2 3 4 5 6 7 8 9 10 11 1
o SD0387_T001_1hao
v 71.106 30.237 0.000
v 88.697 27.351 0.000
v 94.521 62.348 0.000
v 76.930 65.233 0.000
v 71.106 30.237 9.960
v 88.697 27.351 9.960
v 94.521 62.348 9.960
v 76.930 65.233 9.960
usemtl roof
f 16 17 18 19
usemtl teaching_building
f 15 14 13 12
f 12 13 17 16
f 13 14 18 17
f 14 15 19 18
f 15 12 16 19
o SD0387_T002_2hao
v -72.716 22.687 0.000
v -74.316 13.899 0.000
v -110.340 20.343 0.000
v -108.749 29.131 0.000
v -72.716 22.687 11.840
v -74.316 13.899 11.840
v -110.340 20.343 11.840
v -108.749 29.131 11.840
usemtl roof
f 24 25 26 27
usemtl teaching_building
f 23 22 21 20
f 20 21 25 24
f 21 22 26 25
f 22 23 27 26
f 23 20 24 27
o SD0387_T003_3hao
v -70.824 12.826 0.000
v -16.632 3.110 0.000
v -15.297 10.450 0.000
v -19.732 11.246 0.000
v -18.507 18.000 0.000
v -68.264 26.909 0.000
v -70.824 12.826 12.410
v -16.632 3.110 12.410
v -15.297 10.450 12.410
v -19.732 11.246 12.410
v -18.507 18.000 12.410
v -68.264 26.909 12.410
usemtl roof
f 34 35 36 37 38 39
usemtl teaching_building
f 33 32 31 30 29 28
f 28 29 35 34
f 29 30 36 35
f 30 31 37 36
f 31 32 38 37
f 32 33 39 38
f 33 28 34 39
o SD0387_T004_4hao
v 1.837 13.722 0.000
v 0.895 8.084 0.000
v -3.384 8.792 0.000
v -4.700 0.888 0.000
v 50.204 -8.132 0.000
v 52.463 5.398 0.000
v 1.837 13.722 15.650
v 0.895 8.084 15.650
v -3.384 8.792 15.650
v -4.700 0.888 15.650
v 50.204 -8.132 15.650
v 52.463 5.398 15.650
usemtl roof
f 46 47 48 49 50 51
usemtl teaching_building
f 45 44 43 42 41 40
f 40 41 47 46
f 41 42 48 47
f 42 43 49 48
f 43 44 50 49
f 44 45 51 50
f 45 40 46 51
o SD0387_T005_5hao
v 60.902 -14.610 0.000
v 66.534 -15.549 0.000
v 69.944 4.448 0.000
v 62.337 5.730 0.000
v 65.519 24.356 0.000
v 84.171 21.216 0.000
v 75.659 -28.648 0.000
v 65.245 -26.902 0.000
v 65.839 -23.409 0.000
v 59.576 -22.358 0.000
v 60.902 -14.610 23.400
v 66.534 -15.549 23.400
v 69.944 4.448 23.400
v 62.337 5.730 23.400
v 65.519 24.356 23.400
v 84.171 21.216 23.400
v 75.659 -28.648 23.400
v 65.245 -26.902 23.400
v 65.839 -23.409 23.400
v 59.576 -22.358 23.400
usemtl roof
f 62 63 64 65 66 67 68 69 70 71
usemtl teaching_building
f 61 60 59 58 57 56 55 54 53 52
f 52 53 63 62
f 53 54 64 63
f 54 55 65 64
f 55 56 66 65
f 56 57 67 66
f 57 58 68 67
f 58 59 69 68
f 59 60 70 69
f 60 61 71 70
f 61 52 62 71
o SD0387_T006_6hao
v -74.344 -5.545 0.000
v -24.715 -14.444 0.000
v -25.940 -21.187 0.000
v -21.505 -21.983 0.000
v -22.932 -28.681 0.000
v -76.886 -19.518 0.000
v -74.344 -5.545 11.190
v -24.715 -14.444 11.190
v -25.940 -21.187 11.190
v -21.505 -21.983 11.190
v -22.932 -28.681 11.190
v -76.886 -19.518 11.190
usemtl roof
f 78 79 80 81 82 83
usemtl teaching_building
f 77 76 75 74 73 72
f 72 73 79 78
f 73 74 80 79
f 74 75 81 80
f 75 76 82 81
f 76 77 83 82
f 77 72 78 83
o SD0387_T006_6hao_seg02
v -78.586 -19.319 0.000
v -96.086 -16.080 0.000
v -92.722 1.850 0.000
v -75.222 -1.389 0.000
v -78.586 -19.319 11.190
v -96.086 -16.080 11.190
v -92.722 1.850 11.190
v -75.222 -1.389 11.190
usemtl roof
f 88 89 90 91
usemtl teaching_building
f 87 86 85 84
f 84 85 89 88
f 85 86 90 89
f 86 87 91 90
f 87 84 88 91
o SD0387_T007_7hao
v -4.545 -17.594 0.000
v -5.487 -23.232 0.000
v -9.766 -22.524 0.000
v -11.183 -31.014 0.000
v 44.325 -40.133 0.000
v 46.675 -26.006 0.000
v -4.545 -17.594 8.430
v -5.487 -23.232 8.430
v -9.766 -22.524 8.430
v -11.183 -31.014 8.430
v 44.325 -40.133 8.430
v 46.675 -26.006 8.430
usemtl roof
f 98 99 100 101 102 103
usemtl teaching_building
f 97 96 95 94 93 92
f 92 93 99 98
f 93 94 100 99
f 94 95 101 100
f 95 96 102 101
f 96 97 103 102
f 97 92 98 103
