# school_id SD0335
# school_name 淄博五中
# boundary_source footprint_convex_hull_buffer_20m
# adjacent_block_merge_distance_m 2.0
mtllib ../campus_materials.mtl
o SD0335_campus_boundary
usemtl campus_boundary
v 56.804 -135.295 0.050
v 4.610 -126.106 0.050
v -100.434 -65.439 0.050
v -89.900 29.088 0.050
v -83.118 75.831 0.050
v 22.190 62.101 0.050
v 82.749 53.434 0.050
v 78.084 2.095 0.050
v 75.602 -14.901 0.050
v 56.804 -135.295 0.050
l 1 2 3 4 5 6 7 8 9 10 1
o SD0335_T001_1hao
v -70.060 26.544 0.000
v -59.933 25.096 0.000
v -58.560 34.602 0.000
v -38.600 31.739 0.000
v -39.937 22.565 0.000
v -28.856 20.984 0.000
v -27.448 30.645 0.000
v -4.875 27.417 0.000
v -6.311 17.535 0.000
v 2.613 16.264 0.000
v 6.500 43.070 0.000
v -66.156 53.450 0.000
v -70.060 26.544 19.360
v -59.933 25.096 19.360
v -58.560 34.602 19.360
v -38.600 31.739 19.360
v -39.937 22.565 19.360
v -28.856 20.984 19.360
v -27.448 30.645 19.360
v -4.875 27.417 19.360
v -6.311 17.535 19.360
v 2.613 16.264 19.360
v 6.500 43.070 19.360
v -66.156 53.450 19.360
usemtl roof
f 23 24 25 26 27 28 29 30 31 32 33 34
usemtl teaching_building
f 22 21 20 19 18 17 16 15 14 13 12 11
f 11 12 24 23
f 12 13 25 24
f 13 14 26 25
f 14 15 27 26
f 15 16 28 27
f 16 17 29 28
f 17 18 30 29
f 18 19 31 30
f 19 20 32 31
f 20 21 33 32
f 21 22 34 33
f 22 11 23 34
o SD0335_T002_2hao
v 61.112 36.327 0.000
v 59.169 22.963 0.000
v 44.522 25.063 0.000
v 41.865 6.802 0.000
v 58.215 4.447 0.000
v 55.826 -11.913 0.000
v 11.466 -5.546 0.000
v 13.953 11.522 0.000
v 28.511 9.433 0.000
v 30.971 26.345 0.000
v 17.439 28.280 0.000
v 19.480 42.285 0.000
v 61.112 36.327 16.640
v 59.169 22.963 16.640
v 44.522 25.063 16.640
v 41.865 6.802 16.640
v 58.215 4.447 16.640
v 55.826 -11.913 16.640
v 11.466 -5.546 16.640
v 13.953 11.522 16.640
v 28.511 9.433 16.640
v 30.971 26.345 16.640
v 17.439 28.280 16.640
v 19.480 42.285 16.640
usemtl roof
f 47 48 49 50 51 52 53 54 55 56 57 58
usemtl teaching_building
f 46 45 44 43 42 41 40 39 38 37 36 35
f 35 36 48 47
f 36 37 49 48
f 37 38 50 49
f 38 39 51 50
f 39 40 52 51
f 40 41 53 52
f 41 42 54 53
f 42 43 55 54
f 43 44 56 55
f 44 45 57 56
f 45 46 58 57
f 46 35 47 58
o SD0335_T003_3hao
v -79.109 -54.659 0.000
v -7.202 -64.939 0.000
v -4.430 -45.815 0.000
v -76.336 -35.546 0.000
v -79.109 -54.659 19.310
v -7.202 -64.939 19.310
v -4.430 -45.815 19.310
v -76.336 -35.546 19.310
usemtl roof
f 63 64 65 66
usemtl teaching_building
f 62 61 60 59
f 59 60 64 63
f 60 61 65 64
f 61 62 66 65
f 62 59 63 66
o SD0335_T004_4hao
v 11.555 -107.021 0.000
v 40.189 -112.062 0.000
v 46.349 -64.917 0.000
v 18.080 -60.959 0.000
v 11.555 -107.021 17.020
v 40.189 -112.062 17.020
v 46.349 -64.917 17.020
v 18.080 -60.959 17.020
usemtl roof
f 71 72 73 74
usemtl teaching_building
f 70 69 68 67
f 67 68 72 71
f 68 69 73 72
f 69 70 74 73
f 70 67 71 74
