# school_id SD0364
# school_name 枣庄市第八中学东校区
# boundary_source footprint_convex_hull_buffer_20m
# adjacent_block_merge_distance_m 2.0
mtllib ../campus_materials.mtl
o SD0364_campus_boundary
usemtl campus_boundary
v -9.315 -48.430 0.050
v -138.307 -48.024 0.050
v -138.151 -2.864 0.050
v 28.190 55.942 0.050
v 119.113 56.042 0.050
v 119.201 -4.554 0.050
v -9.315 -48.430 0.050
l 1 2 3 4 5 6 7 1
o SD0364_T001_1hao
v 31.662 9.660 0.000
v 99.180 9.744 0.000
v 99.142 36.020 0.000
v 31.632 35.946 0.000
v 31.662 9.660 6.600
v 99.180 9.744 6.600
v 99.142 36.020 6.600
v 31.632 35.946 6.600
usemtl roof
f 12 13 14 15
usemtl teaching_building
f 11 10 9 8
f 8 9 13 12
f 9 10 14 13
f 10 11 15 14
f 11 8 12 15
