# school_id SD0306
# school_name 青岛第四十二中学
# boundary_source footprint_convex_hull_buffer_20m
# adjacent_block_merge_distance_m 2.0
mtllib ../campus_materials.mtl
o SD0306_campus_boundary
usemtl campus_boundary
v -42.594 -37.815 0.050
v -55.428 13.719 0.050
v 42.587 37.795 0.050
v 55.434 -13.698 0.050
v -42.594 -37.815 0.050
l 1 2 3 4 5 1
o SD0306_T001_1hao
v -31.172 -0.917 0.000
v -28.006 -13.630 0.000
v 31.172 0.929 0.000
v 28.006 13.619 0.000
v -31.172 -0.917 27.180
v -28.006 -13.630 27.180
v 31.172 0.929 27.180
v 28.006 13.619 27.180
usemtl roof
f 10 11 12 13
usemtl teaching_building
f 9 8 7 6
f 6 7 11 10
f 7 8 12 11
f 8 9 13 12
f 9 6 10 13
