# school_id SD0341
# school_name 淄博柳泉中学
# boundary_source footprint_convex_hull_buffer_20m
# adjacent_block_merge_distance_m 2.0
mtllib ../campus_materials.mtl
o SD0341_campus_boundary
usemtl campus_boundary
v 89.485 -62.792 0.050
v 38.980 -60.234 0.050
v -95.371 -53.429 0.050
v -92.813 -2.924 0.050
v -89.485 62.792 0.050
v -38.980 60.234 0.050
v 95.371 53.429 0.050
v 92.813 2.924 0.050
v 89.485 -62.792 0.050
l 1 2 3 4 5 6 7 8 9 1
o SD0341_T001_1hao
v 70.522 -41.806 0.000
v 39.991 -40.260 0.000
v 39.991 -40.260 0.000
v -74.385 -34.466 0.000
v -72.839 -3.935 0.000
v -72.839 -3.935 0.000
v -70.522 41.806 0.000
v -39.991 40.260 0.000
v -39.991 40.260 0.000
v 74.385 34.466 0.000
v 72.839 3.935 0.000
v 72.839 3.935 0.000
v 70.522 -41.806 16.530
v 39.991 -40.260 16.530
v 39.991 -40.260 16.530
v -74.385 -34.466 16.530
v -72.839 -3.935 16.530
v -72.839 -3.935 16.530
v -70.522 41.806 16.530
v -39.991 40.260 16.530
v -39.991 40.260 16.530
v 74.385 34.466 16.530
v 72.839 3.935 16.530
v 72.839 3.935 16.530
usemtl roof
f 22 23 24 25 26 27 28 29 30 31 32 33
usemtl teaching_building
f 21 20 19 18 17 16 15 14 13 12 11 10
f 10 11 23 22
f 11 12 24 23
f 12 13 25 24
f 13 14 26 25
f 14 15 27 26
f 15 16 28 27
f 16 17 29 28
f 17 18 30 29
f 18 19 31 30
f 19 20 32 31
f 20 21 33 32
f 21 10 22 33
