# school_id SD0307
# school_name 青岛经济技术开发区崇明岛路小学
# boundary_source footprint_convex_hull_buffer_20m
# adjacent_block_merge_distance_m 2.0
mtllib ../campus_materials.mtl
o SD0307_campus_boundary
usemtl campus_boundary
v -23.061 -56.695 0.050
v -57.790 13.948 0.050
v 32.207 59.331 0.050
v 54.643 15.969 0.050
v 13.062 -39.278 0.050
v -23.061 -56.695 0.050
l 1 2 3 4 5 6 1
o SD0307_T001_1hao
v 31.101 17.948 0.000
v -9.666 -2.082 0.000
v 0.002 -23.372 0.000
v -13.869 -30.060 0.000
v -31.107 5.004 0.000
v 23.540 32.561 0.000
v 31.101 17.948 31.370
v -9.666 -2.082 31.370
v 0.002 -23.372 31.370
v -13.869 -30.060 31.370
v -31.107 5.004 31.370
v 23.540 32.561 31.370
usemtl roof
f 13 14 15 16 17 18
usemtl teaching_building
f 12 11 10 9 8 7
f 7 8 14 13
f 8 9 15 14
f 9 10 16 15
f 10 11 17 16
f 11 12 18 17
f 12 7 13 18
