# school_id SD0375
# school_name 滕州市实验小学文化路校区
# boundary_source footprint_convex_hull_buffer_20m
# adjacent_block_merge_distance_m 2.0
mtllib ../campus_materials.mtl
o SD0375_campus_boundary
usemtl campus_boundary
v -36.100 -84.305 0.050
v -174.660 26.241 0.050
v -176.052 73.957 0.050
v -111.343 75.819 0.050
v 23.390 77.807 0.050
v 122.028 66.880 0.050
v 122.793 35.820 0.050
v 110.558 -69.416 0.050
v 42.747 -82.895 0.050
v -36.100 -84.305 0.050
l 1 2 3 4 5 6 7 8 9 10 1
o SD0375_T001_1hao
v -57.305 37.739 0.000
v -57.843 56.188 0.000
v -102.411 54.905 0.000
v -101.874 36.456 0.000
v -57.305 37.739 11.080
v -57.843 56.188 11.080
v -102.411 54.905 11.080
v -101.874 36.456 11.080
usemtl roof
f 15 16 17 18
usemtl teaching_building
f 14 13 12 11
f 11 12 16 15
f 12 13 17 16
f 13 14 18 17
f 14 11 15 18
o SD0375_T002_2hao
v -110.371 37.374 0.000
v -110.908 55.823 0.000
v -155.477 54.541 0.000
v -154.939 36.092 0.000
v -110.371 37.374 14.480
v -110.908 55.823 14.480
v -155.477 54.541 14.480
v -154.939 36.092 14.480
usemtl roof
f 23 24 25 26
usemtl teaching_building
f 22 21 20 19
f 19 20 24 23
f 20 21 25 24
f 21 22 26 25
f 22 19 23 26
o SD0375_T003_3hao
v 23.517 26.861 0.000
v 22.433 57.791 0.000
v -37.526 55.723 0.000
v -36.442 24.783 0.000
v 23.517 26.861 18.480
v 22.433 57.791 18.480
v -37.526 55.723 18.480
v -36.442 24.783 18.480
usemtl roof
f 31 32 33 34
usemtl teaching_building
f 30 29 28 27
f 27 28 32 31
f 28 29 33 32
f 29 30 34 33
f 30 27 31 34
o SD0375_T004_4hao
v 33.161 -39.407 0.000
v 32.351 -6.146 0.000
v 38.525 -5.991 0.000
v 37.223 47.356 0.000
v 102.464 48.925 0.000
v 102.764 36.733 0.000
v 43.151 35.296 0.000
v 43.361 26.707 0.000
v 50.965 26.884 0.000
v 51.420 8.457 0.000
v 43.671 8.269 0.000
v 43.807 2.653 0.000
v 95.515 3.891 0.000
v 95.789 -7.174 0.000
v 46.284 -8.357 0.000
v 47.067 -40.811 0.000
v 92.064 -39.728 0.000
v 92.374 -52.639 0.000
v 42.213 -53.844 0.000
v 41.858 -39.197 0.000
v 33.161 -39.407 13.060
v 32.351 -6.146 13.060
v 38.525 -5.991 13.060
v 37.223 47.356 13.060
v 102.464 48.925 13.060
v 102.764 36.733 13.060
v 43.151 35.296 13.060
v 43.361 26.707 13.060
v 50.965 26.884 13.060
v 51.420 8.457 13.060
v 43.671 8.269 13.060
v 43.807 2.653 13.060
v 95.515 3.891 13.060
v 95.789 -7.174 13.060
v 46.284 -8.357 13.060
v 47.067 -40.811 13.060
v 92.064 -39.728 13.060
v 92.374 -52.639 13.060
v 42.213 -53.844 13.060
v 41.858 -39.197 13.060
usemtl roof
f 55 56 57 58 59 60 61 62 63 64 65 66 67 68 69 70 71 72 73 74
usemtl teaching_building
f 54 53 52 51 50 49 48 47 46 45 44 43 42 41 40 39 38 37 36 35
f 35 36 56 55
f 36 37 57 56
f 37 38 58 57
f 38 39 59 58
f 39 40 60 59
f 40 41 61 60
f 41 42 62 61
f 42 43 63 62
f 43 44 64 63
f 44 45 65 64
f 45 46 66 65
f 46 47 67 66
f 47 48 68 67
f 48 49 69 68
f 49 50 70 69
f 50 51 71 70
f 51 52 72 71
f 52 53 73 72
f 53 54 74 73
f 54 35 55 74
o SD0375_T004_4hao_seg02
v -31.005 -2.708 0.000
v -31.242 10.347 0.000
v 31.531 11.474 0.000
v 31.768 -1.227 0.000
v -20.414 -2.166 0.000
v -19.603 -47.112 0.000
v 40.292 -46.040 0.000
v 40.602 -62.930 0.000
v -29.257 -64.179 0.000
v -29.575 -46.250 0.000
v -25.723 -46.172 0.000
v -25.787 -42.657 0.000
v -29.521 -42.723 0.000
v -29.794 -27.447 0.000
v -26.270 -27.381 0.000
v -26.452 -17.067 0.000
v -31.023 -17.145 0.000
v -31.224 -6.102 0.000
v -27.062 -6.024 0.000
v -27.126 -2.642 0.000
v -31.005 -2.708 13.060
v -31.242 10.347 13.060
v 31.531 11.474 13.060
v 31.768 -1.227 13.060
v -20.414 -2.166 13.060
v -19.603 -47.112 13.060
v 40.292 -46.040 13.060
v 40.602 -62.930 13.060
v -29.257 -64.179 13.060
v -29.575 -46.250 13.060
v -25.723 -46.172 13.060
v -25.787 -42.657 13.060
v -29.521 -42.723 13.060
v -29.794 -27.447 13.060
v -26.270 -27.381 13.060
v -26.452 -17.067 13.060
v -31.023 -17.145 13.060
v -31.224 -6.102 13.060
v -27.062 -6.024 13.060
v -27.126 -2.642 13.060
usemtl roof
f 95 96 97 98 99 100 101 102 103 104 105 106 107 108 109 110 111 112 113 114
usemtl teaching_building
f 94 93 92 91 90 89 88 87 86 85 84 83 82 81 80 79 78 77 76 75
f 75 76 96 95
f 76 77 97 96
f 77 78 98 97
f 78 79 99 98
f 79 80 100 99
f 80 81 101 100
f 81 82 102 101
f 82 83 103 102
f 83 84 104 103
f 84 85 105 104
f 85 86 106 105
f 86 87 107 106
f 87 88 108 107
f 88 89 109 108
f 89 90 110 109
f 90 91 111 110
f 91 92 112 111
f 92 93 113 112
f 93 94 114 113
f 94 75 95 114
