# school_id SD0354
# school_name 枣庄东方国际学校 峄城区高考补习学校
# boundary_source footprint_convex_hull_buffer_20m
# adjacent_block_merge_distance_m 2.0
mtllib ../campus_materials.mtl
o SD0354_campus_boundary
usemtl campus_boundary
v 37.924 -90.829 0.050
v -21.769 -87.146 0.050
v -42.108 2.687 0.050
v -37.891 96.219 0.050
v 21.003 93.619 0.050
v 43.030 -9.192 0.050
v 37.924 -90.829 0.050
l 1 2 3 4 5 6 7 1
o SD0354_T001_1hao
v 1.487 3.440 0.000
v 4.684 74.320 0.000
v -18.811 75.357 0.000
v -22.007 4.477 0.000
v 1.487 3.440 9.900
v 4.684 74.320 9.900
v -18.811 75.357 9.900
v -22.007 4.477 9.900
usemtl roof
f 12 13 14 15
usemtl teaching_building
f 11 10 9 8
f 8 9 13 12
f 9 10 14 13
f 10 11 15 14
f 11 8 12 15
o SD0354_T002_2hao
v 19.210 -69.636 0.000
v 22.897 -10.690 0.000
v -1.886 -9.161 0.000
v -5.573 -68.107 0.000
v 19.210 -69.636 9.900
v 22.897 -10.690 9.900
v -1.886 -9.161 9.900
v -5.573 -68.107 9.900
usemtl roof
f 20 21 22 23
usemtl teaching_building
f 19 18 17 16
f 16 17 21 20
f 17 18 22 21
f 18 19 23 22
f 19 16 20 23
