# school_id SD0386
# school_name 盘龙小学
# boundary_source footprint_convex_hull_buffer_20m
# adjacent_block_merge_distance_m 2.0
mtllib ../campus_materials.mtl
o SD0386_campus_boundary
usemtl campus_boundary
v 53.887 -49.355 0.050
v -12.437 -48.681 0.050
v -83.975 11.236 0.050
v -83.473 50.205 0.050
v 54.949 48.369 0.050
v 53.887 -49.355 0.050
l 1 2 3 4 5 6 1
o SD0386_T001_1hao
v 34.618 19.240 0.000
v 34.733 28.635 0.000
v -63.732 29.941 0.000
v -63.854 20.472 0.000
v 34.618 19.240 6.600
v 34.733 28.635 6.600
v -63.732 29.941 6.600
v -63.854 20.472 6.600
usemtl roof
f 11 12 13 14
usemtl teaching_building
f 10 9 8 7
f 7 8 12 11
f 8 9 13 12
f 9 10 14 13
f 10 7 11 14
