# school_id SD0350
# school_name 北辛街道杏花村小学
# boundary_source footprint_convex_hull_buffer_20m
# adjacent_block_merge_distance_m 2.0
mtllib ../campus_materials.mtl
o SD0350_campus_boundary
usemtl campus_boundary
v -54.695 -65.755 0.050
v -63.196 25.952 0.050
v -64.550 66.427 0.050
v 18.497 69.160 0.050
v 59.409 23.722 0.050
v 60.354 0.360 0.050
v 51.935 -61.516 0.050
v -54.695 -65.755 0.050
l 1 2 3 4 5 6 7 8 1
o SD0350_T001_1hao
v 10.523 28.968 0.000
v 9.858 48.865 0.000
v -43.892 47.096 0.000
v -43.227 27.210 0.000
v 10.523 28.968 18.310
v 9.858 48.865 18.310
v -43.892 47.096 18.310
v -43.227 27.210 18.310
usemtl roof
f 13 14 15 16
usemtl teaching_building
f 12 11 10 9
f 9 10 14 13
f 10 11 15 14
f 11 12 16 15
f 12 9 13 16
o SD0350_T002_2hao
v 34.379 -42.198 0.000
v 33.377 -17.337 0.000
v 18.411 -17.934 0.000
v 18.830 -28.248 0.000
v -20.865 -29.828 0.000
v -22.022 -1.165 0.000
v 40.299 1.311 0.000
v 39.717 15.703 0.000
v -38.855 12.575 0.000
v -36.532 -45.017 0.000
v 34.379 -42.198 6.370
v 33.377 -17.337 6.370
v 18.411 -17.934 6.370
v 18.830 -28.248 6.370
v -20.865 -29.828 6.370
v -22.022 -1.165 6.370
v 40.299 1.311 6.370
v 39.717 15.703 6.370
v -38.855 12.575 6.370
v -36.532 -45.017 6.370
usemtl roof
f 27 28 29 30 31 32 33 34 35 36
usemtl teaching_building
f 26 25 24 23 22 21 20 19 18 17
f 17 18 28 27
f 18 19 29 28
f 19 20 30 29
f 20 21 31 30
f 21 22 32 31
f 22 23 33 32
f 23 24 34 33
f 24 25 35 34
f 25 26 36 35
f 26 17 27 36
