# school_id SD0302
# school_name 青岛第五十三中鞍山路校区
# boundary_source footprint_convex_hull_buffer_20m
# adjacent_block_merge_distance_m 2.0
mtllib ../campus_materials.mtl
o SD0302_campus_boundary
usemtl campus_boundary
v -40.938 -37.491 0.050
v -43.848 8.339 0.050
v -10.430 36.057 0.050
v 33.769 38.808 0.050
v 36.052 2.891 0.050
v 38.278 -32.545 0.050
v -40.938 -37.491 0.050
l 1 2 3 4 5 6 7 1
o SD0302_T001_1hao
v 17.063 -13.831 0.000
v -22.244 -16.285 0.000
v -23.243 -0.555 0.000
v -5.865 0.528 0.000
v -5.559 -4.247 0.000
v -1.385 -3.993 0.000
v -1.673 0.517 0.000
v -2.680 16.501 0.000
v 15.076 17.606 0.000
v 16.092 1.622 0.000
v 17.063 -13.831 17.480
v -22.244 -16.285 17.480
v -23.243 -0.555 17.480
v -5.865 0.528 17.480
v -5.559 -4.247 17.480
v -1.385 -3.993 17.480
v -1.673 0.517 17.480
v -2.680 16.501 17.480
v 15.076 17.606 17.480
v 16.092 1.622 17.480
usemtl roof
f 18 19 20 21 22 23 24 25 26 27
usemtl teaching_building
f 17 16 15 14 13 12 11 10 9 8
f 8 9 19 18
f 9 10 20 19
f 10 11 21 20
f 11 12 22 21
f 12 13 23 22
f 13 14 24 23
f 14 15 25 24
f 15 16 26 25
f 16 17 27 26
f 17 8 18 27
