# school_id SD0357
# school_name 枣庄市团校
# boundary_source footprint_convex_hull_buffer_20m
# adjacent_block_merge_distance_m 2.0
mtllib ../campus_materials.mtl
o SD0357_campus_boundary
usemtl campus_boundary
v 57.025 -43.390 0.050
v -10.114 -41.798 0.050
v -28.045 -36.168 0.050
v -39.743 -17.177 0.050
v -38.368 50.714 0.050
v 3.583 49.782 0.050
v 59.487 0.279 0.050
v 57.025 -43.390 0.050
l 1 2 3 4 5 6 7 8 1
o SD0357_T001_1hao
v -14.931 -19.323 0.000
v -6.817 -21.871 0.000
v 38.146 -22.937 0.000
v 38.973 -8.270 0.000
v -4.917 -6.565 0.000
v -4.189 29.950 0.000
v -18.778 30.274 0.000
v -19.628 -11.698 0.000
v -14.931 -19.323 9.900
v -6.817 -21.871 9.900
v 38.146 -22.937 9.900
v 38.973 -8.270 9.900
v -4.917 -6.565 9.900
v -4.189 29.950 9.900
v -18.778 30.274 9.900
v -19.628 -11.698 9.900
usemtl roof
f 17 18 19 20 21 22 23 24
usemtl teaching_building
f 16 15 14 13 12 11 10 9
f 9 10 18 17
f 10 11 19 18
f 11 12 20 19
f 12 13 21 20
f 13 14 22 21
f 14 15 23 22
f 15 16 24 23
f 16 9 17 24
