# school_id SD0323
# school_name 张店区实验中学
# boundary_source footprint_convex_hull_buffer_20m
# adjacent_block_merge_distance_m 2.0
mtllib ../campus_materials.mtl
o SD0323_campus_boundary
usemtl campus_boundary
v 22.896 -68.548 0.050
v -83.946 -55.328 0.050
v -77.708 95.350 0.050
v 32.512 92.536 0.050
v 105.571 9.683 0.050
v 103.590 -44.711 0.050
v 22.896 -68.548 0.050
l 1 2 3 4 5 6 7 1
o SD0323_T001_1hao
v -58.539 74.854 0.000
v 23.281 72.765 0.000
v 21.766 14.334 0.000
v -60.054 16.434 0.000
v -58.539 74.854 19.460
v 23.281 72.765 19.460
v 21.766 14.334 19.460
v -60.054 16.434 19.460
usemtl roof
f 12 13 14 15
usemtl teaching_building
f 11 10 9 8
f 8 9 13 12
f 9 10 14 13
f 10 11 15 14
f 11 8 12 15
o SD0323_T001_1hao_seg02
v -50.097 -14.053 0.000
v 23.326 -31.927 0.000
v 21.222 -48.188 0.000
v -63.201 -37.742 0.000
v -60.054 16.434 0.000
v -48.948 16.146 0.000
v -50.097 -14.053 19.460
v 23.326 -31.927 19.460
v 21.222 -48.188 19.460
v -63.201 -37.742 19.460
v -60.054 16.434 19.460
v -48.948 16.146 19.460
usemtl roof
f 22 23 24 25 26 27
usemtl teaching_building
f 21 20 19 18 17 16
f 16 17 23 22
f 17 18 24 23
f 18 19 25 24
f 19 20 26 25
f 20 21 27 26
f 21 16 22 27
o SD0323_T002_2hao
v -1.464 -23.338 0.000
v -3.336 4.993 0.000
v 24.261 2.672 0.000
v 21.454 -27.749 0.000
v -1.464 -23.338 15.060
v -3.336 4.993 15.060
v 24.261 2.672 15.060
v 21.454 -27.749 15.060
usemtl roof
f 32 33 34 35
usemtl teaching_building
f 31 30 29 28
f 28 29 33 32
f 29 30 34 33
f 30 31 35 34
f 31 28 32 35
o SD0323_T003_3hao
v 44.139 -27.517 0.000
v 84.127 -29.606 0.000
v 85.294 2.439 0.000
v 45.770 2.904 0.000
v 44.139 -27.517 13.090
v 84.127 -29.606 13.090
v 85.294 2.439 13.090
v 45.770 2.904 13.090
usemtl roof
f 40 41 42 43
usemtl teaching_building
f 39 38 37 36
f 36 37 41 40
f 37 38 42 41
f 38 39 43 42
f 39 36 40 43
