# school_id SD0347
# school_name 黑里寨镇初级中学
# boundary_source footprint_convex_hull_buffer_20m
# adjacent_block_merge_distance_m 2.0
mtllib ../campus_materials.mtl
o SD0347_campus_boundary
usemtl campus_boundary
v 28.738 -34.105 0.050
v -39.478 -20.999 0.050
v -28.738 34.105 0.050
v 39.478 20.999 0.050
v 28.738 -34.105 0.050
l 1 2 3 4 5 1
o SD0347_T001_1hao
v 12.923 -10.701 0.000
v 16.011 5.142 0.000
v -12.923 10.701 0.000
v -16.011 -5.142 0.000
v 12.923 -10.701 6.600
v 16.011 5.142 6.600
v -12.923 10.701 6.600
v -16.011 -5.142 6.600
usemtl roof
f 10 11 12 13
usemtl teaching_building
f 9 8 7 6
f 6 7 11 10
f 7 8 12 11
f 8 9 13 12
f 9 6 10 13
