# school_id SD0384
# school_name 滨湖镇望重中学
# boundary_source footprint_convex_hull_buffer_20m
# adjacent_block_merge_distance_m 2.0
mtllib ../campus_materials.mtl
o SD0384_campus_boundary
usemtl campus_boundary
v -60.770 -29.035 0.050
v -63.468 22.603 0.050
v 60.755 29.034 0.050
v 63.484 -22.602 0.050
v -60.770 -29.035 0.050
l 1 2 3 4 5 1
o SD0384_T001_1hao
v -41.840 -8.028 0.000
v 42.455 -3.664 0.000
v 41.837 8.028 0.000
v -42.451 3.664 0.000
v -41.840 -8.028 4.950
v 42.455 -3.664 4.950
v 41.837 8.028 4.950
v -42.451 3.664 4.950
usemtl roof
f 10 11 12 13
usemtl teaching_building
f 9 8 7 6
f 6 7 11 10
f 7 8 12 11
f 8 9 13 12
f 9 6 10 13
