# school_id SD0389
# school_name 长江路小学
# boundary_source footprint_convex_hull_buffer_20m
# adjacent_block_merge_distance_m 2.0
mtllib ../campus_materials.mtl
o SD0389_campus_boundary
usemtl campus_boundary
v 28.251 -30.237 0.050
v -32.024 -26.260 0.050
v -28.240 30.237 0.050
v 32.012 26.260 0.050
v 28.251 -30.237 0.050
l 1 2 3 4 5 1
o SD0389_T001_1hao
v 9.623 -8.964 0.000
v 10.727 7.621 0.000
v -9.620 8.964 0.000
v -10.731 -7.621 0.000
v 9.623 -8.964 9.900
v 10.727 7.621 9.900
v -9.620 8.964 9.900
v -10.731 -7.621 9.900
usemtl roof
f 10 11 12 13
usemtl teaching_building
f 9 8 7 6
f 6 7 11 10
f 7 8 12 11
f 8 9 13 12
f 9 6 10 13
