# school_id SD0345
# school_name 淄博高新区第四小学
# boundary_source footprint_convex_hull_buffer_20m
# adjacent_block_merge_distance_m 2.0
mtllib ../campus_materials.mtl
o SD0345_campus_boundary
usemtl campus_boundary
v 176.193 -200.395 0.050
v 134.252 -191.516 0.050
v -159.662 -77.584 0.050
v -155.804 -43.959 0.050
v -149.500 5.746 0.050
v -140.516 57.551 0.050
v -116.644 143.338 0.050
v 38.864 399.342 0.050
v 200.140 372.585 0.050
v 205.534 -140.568 0.050
v 202.448 -179.666 0.050
v 197.791 -190.046 0.050
v 187.606 -198.002 0.050
v 176.193 -200.395 0.050
l 1 2 3 4 5 6 7 8 9 10 11 12 13 14 1
o SD0345_T001_1hao
v 48.935 377.398 0.000
v 180.317 355.600 0.000
v 170.523 295.576 0.000
v 39.818 315.031 0.000
v 48.935 377.398 22.440
v 180.317 355.600 22.440
v 170.523 295.576 22.440
v 39.818 315.031 22.440
usemtl roof
f 19 20 21 22
usemtl teaching_building
f 18 17 16 15
f 15 16 20 19
f 16 17 21 20
f 17 18 22 21
f 18 15 19 22
o SD0345_T002_2hao
v -41.570 125.820 0.000
v -43.226 110.952 0.000
v -60.695 113.429 0.000
v -61.523 108.067 0.000
v -57.365 108.067 0.000
v -59.448 94.847 0.000
v -64.016 95.676 0.000
v -64.853 89.895 0.000
v -56.946 89.486 0.000
v -59.448 70.904 0.000
v -106.014 79.161 0.000
v -103.521 95.676 0.000
v -68.592 91.133 0.000
v -67.346 96.505 0.000
v -71.922 97.323 0.000
v -70.676 109.714 0.000
v -65.262 109.305 0.000
v -64.016 114.258 0.000
v -100.191 118.801 0.000
v -98.117 135.315 0.000
v -41.570 125.820 13.710
v -43.226 110.952 13.710
v -60.695 113.429 13.710
v -61.523 108.067 13.710
v -57.365 108.067 13.710
v -59.448 94.847 13.710
v -64.016 95.676 13.710
v -64.853 89.895 13.710
v -56.946 89.486 13.710
v -59.448 70.904 13.710
v -106.014 79.161 13.710
v -103.521 95.676 13.710
v -68.592 91.133 13.710
v -67.346 96.505 13.710
v -71.922 97.323 13.710
v -70.676 109.714 13.710
v -65.262 109.305 13.710
v -64.016 114.258 13.710
v -100.191 118.801 13.710
v -98.117 135.315 13.710
usemtl roof
f 43 44 45 46 47 48 49 50 51 52 53 54 55 56 57 58 59 60 61 62
usemtl teaching_building
f 42 41 40 39 38 37 36 35 34 33 32 31 30 29 28 27 26 25 24 23
f 23 24 44 43
f 24 25 45 44
f 25 26 46 45
f 26 27 47 46
f 27 28 48 47
f 28 29 49 48
f 29 30 50 49
f 30 31 51 50
f 31 32 52 51
f 32 33 53 52
f 33 34 54 53
f 34 35 55 54
f 35 36 56 55
f 36 37 57 56
f 37 38 58 57
f 38 39 59 58
f 39 40 60 59
f 40 41 61 60
f 41 42 62 61
f 42 23 43 62
o SD0345_T003_3hao
v -68.592 45.723 0.000
v -70.257 36.216 0.000
v -76.908 37.874 0.000
v -78.155 30.446 0.000
v -72.750 28.788 0.000
v -77.736 -4.241 0.000
v -73.997 -4.650 0.000
v -77.327 -24.061 0.000
v -81.485 -24.061 0.000
v -85.643 -58.737 0.000
v -96.452 -56.681 0.000
v -97.280 -62.872 0.000
v -90.629 -64.110 0.000
v -91.466 -70.300 0.000
v -138.032 -64.519 0.000
v -135.948 -46.357 0.000
v -99.363 -51.309 0.000
v -94.368 -19.109 0.000
v -131.381 -14.975 0.000
v -129.716 2.778 0.000
v -91.875 -1.356 0.000
v -85.224 30.855 0.000
v -122.646 36.636 0.000
v -120.981 53.151 0.000
v -68.592 45.723 9.740
v -70.257 36.216 9.740
v -76.908 37.874 9.740
v -78.155 30.446 9.740
v -72.750 28.788 9.740
v -77.736 -4.241 9.740
v -73.997 -4.650 9.740
v -77.327 -24.061 9.740
v -81.485 -24.061 9.740
v -85.643 -58.737 9.740
v -96.452 -56.681 9.740
v -97.280 -62.872 9.740
v -90.629 -64.110 9.740
v -91.466 -70.300 9.740
v -138.032 -64.519 9.740
v -135.948 -46.357 9.740
v -99.363 -51.309 9.740
v -94.368 -19.109 9.740
v -131.381 -14.975 9.740
v -129.716 2.778 9.740
v -91.875 -1.356 9.740
v -85.224 30.855 9.740
v -122.646 36.636 9.740
v -120.981 53.151 9.740
usemtl roof
f 87 88 89 90 91 92 93 94 95 96 97 98 99 100 101 102 103 104 105 106 107 108 109 110
usemtl teaching_building
f 86 85 84 83 82 81 80 79 78 77 76 75 74 73 72 71 70 69 68 67 66 65 64 63
f 63 64 88 87
f 64 65 89 88
f 65 66 90 89
f 66 67 91 90
f 67 68 92 91
f 68 69 93 92
f 69 70 94 93
f 70 71 95 94
f 71 72 96 95
f 72 73 97 96
f 73 74 98 97
f 74 75 99 98
f 75 76 100 99
f 76 77 101 100
f 77 78 102 101
f 78 79 103 102
f 79 80 104 103
f 80 81 105 104
f 81 82 106 105
f 82 83 107 106
f 83 84 108 107
f 84 85 109 108
f 85 86 110 109
f 86 63 87 110
o SD0345_T004_4hao
v 185.526 -139.885 0.000
v 183.398 -150.441 0.000
v 177.397 -150.508 0.000
v 174.094 -167.310 0.000
v 179.186 -167.686 0.000
v 181.341 -169.244 0.000
v 182.659 -171.864 0.000
v 182.783 -174.639 0.000
v 181.573 -177.336 0.000
v 178.955 -179.381 0.000
v 176.213 -179.956 0.000
v 173.809 -179.270 0.000
v 170.416 -176.242 0.000
v 139.975 -172.284 0.000
v 143.323 -149.999 0.000
v 135.674 -149.524 0.000
v 138.541 -132.446 0.000
v 185.526 -139.885 9.790
v 183.398 -150.441 9.790
v 177.397 -150.508 9.790
v 174.094 -167.310 9.790
v 179.186 -167.686 9.790
v 181.341 -169.244 9.790
v 182.659 -171.864 9.790
v 182.783 -174.639 9.790
v 181.573 -177.336 9.790
v 178.955 -179.381 9.790
v 176.213 -179.956 9.790
v 173.809 -179.270 9.790
v 170.416 -176.242 9.790
v 139.975 -172.284 9.790
v 143.323 -149.999 9.790
v 135.674 -149.524 9.790
v 138.541 -132.446 9.790
usemtl roof
f 128 129 130 131 132 133 134 135 136 137 138 139 140 141 142 143 144
usemtl teaching_building
f 127 126 125 124 123 122 121 120 119 118 117 116 115 114 113 112 111
f 111 112 129 128
f 112 113 130 129
f 113 114 131 130
f 114 115 132 131
f 115 116 133 132
f 116 117 134 133
f 117 118 135 134
f 118 119 136 135
f 119 120 137 136
f 120 121 138 137
f 121 122 139 138
f 122 123 140 139
f 123 124 141 140
f 124 125 142 141
f 125 126 143 142
f 126 127 144 143
f 127 111 128 144
