# school_id SD0342
# school_name 淄博经济开发区实验学校
# boundary_source footprint_convex_hull_buffer_20m
# adjacent_block_merge_distance_m 2.0
mtllib ../campus_materials.mtl
o SD0342_campus_boundary
usemtl campus_boundary
v -26.417 -120.436 0.050
v -108.588 -115.762 0.050
v -106.776 -51.512 0.050
v -95.024 83.902 0.050
v -88.823 131.127 0.050
v 110.729 121.520 0.050
v 114.812 54.161 0.050
v 113.383 38.060 0.050
v 106.207 -11.390 0.050
v 96.949 -70.676 0.050
v -26.417 -120.436 0.050
l 1 2 3 4 5 6 7 8 9 10 11 1
o SD0342_T001_1hao
v 91.851 102.406 0.000
v 87.687 68.912 0.000
v 42.291 73.046 0.000
v 37.297 58.986 0.000
v 94.758 54.442 0.000
v 93.510 40.382 0.000
v 27.302 44.925 0.000
v 14.809 13.918 0.000
v 87.268 6.479 0.000
v 86.430 -8.411 0.000
v 8.977 -2.618 0.000
v -3.516 -34.465 0.000
v 79.769 -39.428 0.000
v 78.940 -56.374 0.000
v -8.928 -49.764 0.000
v -29.749 -100.214 0.000
v -88.048 -96.898 0.000
v -86.800 -52.660 0.000
v -55.154 -61.337 0.000
v -55.564 -73.331 0.000
v -37.239 -74.160 0.000
v -24.747 -45.630 0.000
v -76.385 -43.971 0.000
v -75.137 -25.368 0.000
v -17.676 -28.264 0.000
v -6.012 3.583 0.000
v -73.469 8.126 0.000
v -72.640 26.741 0.000
v 1.068 24.663 0.000
v 25.634 74.284 0.000
v -75.137 81.735 0.000
v -71.391 110.265 0.000
v 91.851 102.406 13.260
v 87.687 68.912 13.260
v 42.291 73.046 13.260
v 37.297 58.986 13.260
v 94.758 54.442 13.260
v 93.510 40.382 13.260
v 27.302 44.925 13.260
v 14.809 13.918 13.260
v 87.268 6.479 13.260
v 86.430 -8.411 13.260
v 8.977 -2.618 13.260
v -3.516 -34.465 13.260
v 79.769 -39.428 13.260
v 78.940 -56.374 13.260
v -8.928 -49.764 13.260
v -29.749 -100.214 13.260
v -88.048 -96.898 13.260
v -86.800 -52.660 13.260
v -55.154 -61.337 13.260
v -55.564 -73.331 13.260
v -37.239 -74.160 13.260
v -24.747 -45.630 13.260
v -76.385 -43.971 13.260
v -75.137 -25.368 13.260
v -17.676 -28.264 13.260
v -6.012 3.583 13.260
v -73.469 8.126 13.260
v -72.640 26.741 13.260
v 1.068 24.663 13.260
v 25.634 74.284 13.260
v -75.137 81.735 13.260
v -71.391 110.265 13.260
usemtl roof
f 44 45 46 47 48 49 50 51 52 53 54 55 56 57 58 59 60 61 62 63 64 65 66 67 68 69 70 71 72 73 74 75
usemtl teaching_building
f 43 42 41 40 39 38 37 36 35 34 33 32 31 30 29 28 27 26 25 24 23 22 21 20 19 18 17 16 15 14 13 12
f 12 13 45 44
f 13 14 46 45
f 14 15 47 46
f 15 16 48 47
f 16 17 49 48
f 17 18 50 49
f 18 19 51 50
f 19 20 52 51
f 20 21 53 52
f 21 22 54 53
f 22 23 55 54
f 23 24 56 55
f 24 25 57 56
f 25 26 58 57
f 26 27 59 58
f 27 28 60 59
f 28 29 61 60
f 29 30 62 61
f 30 31 63 62
f 31 32 64 63
f 32 33 65 64
f 33 34 66 65
f 34 35 67 66
f 35 36 68 67
f 36 37 69 68
f 37 38 70 69
f 38 39 71 70
f 39 40 72 71
f 40 41 73 72
f 41 42 74 73
f 42 43 75 74
f 43 12 44 75
