# school_id SD0311
# school_name 青岛超银中学
# boundary_source footprint_convex_hull_buffer_20m
# adjacent_block_merge_distance_m 2.0
mtllib ../campus_materials.mtl
o SD0311_campus_boundary
usemtl campus_boundary
v -63.710 -51.399 0.050
v -74.023 -6.841 0.050
v -9.429 37.754 0.050
v 13.752 43.044 0.050
v 35.530 27.989 0.050
v 44.289 -9.862 0.050
v 30.736 -29.874 0.050
v -63.710 -51.399 0.050
l 1 2 3 4 5 6 7 8 1
o SD0311_T001_1hao
v -48.720 -27.470 0.000
v 18.600 -12.127 0.000
v 17.439 -7.098 0.000
v 22.837 -5.871 0.000
v 17.790 15.939 0.000
v 11.267 14.458 0.000
v 9.620 21.587 0.000
v -1.231 19.111 0.000
v 3.871 -2.953 0.000
v -51.473 -15.576 0.000
v -48.720 -27.470 27.100
v 18.600 -12.127 27.100
v 17.439 -7.098 27.100
v 22.837 -5.871 27.100
v 17.790 15.939 27.100
v 11.267 14.458 27.100
v 9.620 21.587 27.100
v -1.231 19.111 27.100
v 3.871 -2.953 27.100
v -51.473 -15.576 27.100
usemtl roof
f 19 20 21 22 23 24 25 26 27 28
usemtl teaching_building
f 18 17 16 15 14 13 12 11 10 9
f 9 10 20 19
f 10 11 21 20
f 11 12 22 21
f 12 13 23 22
f 13 14 24 23
f 14 15 25 24
f 15 16 26 25
f 16 17 27 26
f 17 18 28 27
f 18 9 19 28
