# school_id SD0331
# school_name 沂源县实验中学
# boundary_source footprint_convex_hull_buffer_20m
# adjacent_block_merge_distance_m 2.0
mtllib ../campus_materials.mtl
o SD0331_campus_boundary
usemtl campus_boundary
v -74.689 -64.461 0.050
v -84.035 -10.302 0.050
v -85.093 3.382 0.050
v -85.831 19.512 0.050
v -86.827 47.161 0.050
v -27.178 70.856 0.050
v 29.125 73.037 0.050
v 86.230 54.842 0.050
v 90.769 8.546 0.050
v 90.529 -8.824 0.050
v 82.926 -63.204 0.050
v -74.689 -64.461 0.050
l 1 2 3 4 5 6 7 8 9 10 11 12 1
o SD0331_T001_1hao
v -22.260 20.152 0.000
v -7.569 20.628 0.000
v -7.569 14.891 0.000
v 16.278 15.366 0.000
v 16.035 20.396 0.000
v 27.599 20.628 0.000
v 26.395 52.916 0.000
v -22.979 51.004 0.000
v -22.260 20.152 10.330
v -7.569 20.628 10.330
v -7.569 14.891 10.330
v 16.278 15.366 10.330
v 16.035 20.396 10.330
v 27.599 20.628 10.330
v 26.395 52.916 10.330
v -22.979 51.004 10.330
usemtl roof
f 21 22 23 24 25 26 27 28
usemtl teaching_building
f 20 19 18 17 16 15 14 13
f 13 14 22 21
f 14 15 23 22
f 15 16 24 23
f 16 17 25 24
f 17 18 26 25
f 18 19 27 26
f 19 20 28 27
f 20 13 21 28
o SD0331_T002_2hao
v 31.732 -24.594 0.000
v 29.845 -25.423 0.000
v 29.630 -43.342 0.000
v 65.508 -43.342 0.000
v 65.301 -27.711 0.000
v 38.237 -27.302 0.000
v 38.237 -6.256 0.000
v 70.548 -7.295 0.000
v 70.755 7.706 0.000
v 62.992 7.706 0.000
v 63.198 3.947 0.000
v 37.608 4.367 0.000
v 37.608 31.239 0.000
v 61.311 31.239 0.000
v 61.527 26.243 0.000
v 68.239 25.823 0.000
v 67.610 39.784 0.000
v 31.525 39.364 0.000
v 31.732 -24.594 10.000
v 29.845 -25.423 10.000
v 29.630 -43.342 10.000
v 65.508 -43.342 10.000
v 65.301 -27.711 10.000
v 38.237 -27.302 10.000
v 38.237 -6.256 10.000
v 70.548 -7.295 10.000
v 70.755 7.706 10.000
v 62.992 7.706 10.000
v 63.198 3.947 10.000
v 37.608 4.367 10.000
v 37.608 31.239 10.000
v 61.311 31.239 10.000
v 61.527 26.243 10.000
v 68.239 25.823 10.000
v 67.610 39.784 10.000
v 31.525 39.364 10.000
usemtl roof
f 47 48 49 50 51 52 53 54 55 56 57 58 59 60 61 62 63 64
usemtl teaching_building
f 46 45 44 43 42 41 40 39 38 37 36 35 34 33 32 31 30 29
f 29 30 48 47
f 30 31 49 48
f 31 32 50 49
f 32 33 51 50
f 33 34 52 51
f 34 35 53 52
f 35 36 54 53
f 36 37 55 54
f 37 38 56 55
f 38 39 57 56
f 39 40 58 57
f 40 41 59 58
f 41 42 60 59
f 42 43 61 60
f 43 44 62 61
f 44 45 63 62
f 45 46 64 63
f 46 29 47 64
o SD0331_T003_3hao
v -28.523 34.257 0.000
v -27.669 -30.729 0.000
v -24.120 -30.309 0.000
v -23.940 -43.685 0.000
v -57.868 -44.326 0.000
v -58.389 -31.116 0.000
v -32.072 -31.061 0.000
v -32.377 -9.506 0.000
v -58.147 -9.981 0.000
v -58.147 -7.825 0.000
v -64.167 -7.825 0.000
v -65.128 4.610 0.000
v -58.380 5.086 0.000
v -58.380 0.067 0.000
v -31.649 0.067 0.000
v -32.853 23.734 0.000
v -59.396 23.723 0.000
v -59.036 20.451 0.000
v -65.847 20.329 0.000
v -66.332 33.782 0.000
v -28.523 34.257 8.870
v -27.669 -30.729 8.870
v -24.120 -30.309 8.870
v -23.940 -43.685 8.870
v -57.868 -44.326 8.870
v -58.389 -31.116 8.870
v -32.072 -31.061 8.870
v -32.377 -9.506 8.870
v -58.147 -9.981 8.870
v -58.147 -7.825 8.870
v -64.167 -7.825 8.870
v -65.128 4.610 8.870
v -58.380 5.086 8.870
v -58.380 0.067 8.870
v -31.649 0.067 8.870
v -32.853 23.734 8.870
v -59.396 23.723 8.870
v -59.036 20.451 8.870
v -65.847 20.329 8.870
v -66.332 33.782 8.870
usemtl roof
f 85 86 87 88 89 90 91 92 93 94 95 96 97 98 99 100 101 102 103 104
usemtl teaching_building
f 84 83 82 81 80 79 78 77 76 75 74 73 72 71 70 69 68 67 66 65
f 65 66 86 85
f 66 67 87 86
f 67 68 88 87
f 68 69 89 88
f 69 70 90 89
f 70 71 91 90
f 71 72 92 91
f 72 73 93 92
f 73 74 94 93
f 74 75 95 94
f 75 76 96 95
f 76 77 97 96
f 77 78 98 97
f 78 79 99 98
f 79 80 100 99
f 80 81 101 100
f 81 82 102 101
f 82 83 103 102
f 83 84 104 103
f 84 65 85 104
o SD0331_T004_4hao
v -18.387 -43.430 0.000
v 21.480 -42.878 0.000
v 20.923 -30.508 0.000
v -18.935 -31.061 0.000
v -18.387 -43.430 14.910
v 21.480 -42.878 14.910
v 20.923 -30.508 14.910
v -18.935 -31.061 14.910
usemtl roof
f 109 110 111 112
usemtl teaching_building
f 108 107 106 105
f 105 106 110 109
f 106 107 111 110
f 107 108 112 111
f 108 105 109 112
