# school_id SD0380
# school_name 滕州市第一中学（西校区）
# boundary_source footprint_convex_hull_buffer_20m
# adjacent_block_merge_distance_m 2.0
mtllib ../campus_materials.mtl
o SD0380_campus_boundary
usemtl campus_boundary
v -28.100 -54.427 0.050
v -40.287 -7.679 0.050
v -39.457 33.540 0.050
v 15.717 40.616 0.050
v 78.602 9.505 0.050
v 85.602 -38.034 0.050
v -28.100 -54.427 0.050
l 1 2 3 4 5 6 7 1
o SD0380_T001_1hao
v -19.716 8.613 0.000
v -13.494 8.382 0.000
v 13.824 12.041 0.000
v 12.266 20.010 0.000
v -19.808 15.896 0.000
v -19.716 8.613 9.900
v -13.494 8.382 9.900
v 13.824 12.041 9.900
v 12.266 20.010 9.900
v -19.808 15.896 9.900
usemtl roof
f 13 14 15 16 17
usemtl teaching_building
f 12 11 10 9 8
f 8 9 14 13
f 9 10 15 14
f 10 11 16 15
f 11 12 17 16
f 12 8 13 17
o SD0380_T002_2hao
v -13.257 -32.080 0.000
v 62.893 -21.101 0.000
v 60.342 -3.775 0.000
v -15.593 -14.124 0.000
v -13.257 -32.080 9.900
v 62.893 -21.101 9.900
v 60.342 -3.775 9.900
v -15.593 -14.124 9.900
usemtl roof
f 22 23 24 25
usemtl teaching_building
f 21 20 19 18
f 18 19 23 22
f 19 20 24 23
f 20 21 25 24
f 21 18 22 25
