# school_id SD0330
# school_name 柳泉小学
# boundary_source footprint_convex_hull_buffer_20m
# adjacent_block_merge_distance_m 2.0
mtllib ../campus_materials.mtl
o SD0330_campus_boundary
usemtl campus_boundary
v 3.095 -33.695 0.050
v -21.119 -33.034 0.050
v -49.123 -31.464 0.050
v -43.217 54.370 0.050
v 45.417 47.297 0.050
v 50.324 -2.458 0.050
v 48.936 -29.211 0.050
v 3.095 -33.695 0.050
l 1 2 3 4 5 6 7 8 1
o SD0330_T001_1hao
v 27.155 28.691 0.000
v 26.112 14.851 0.000
v -3.846 16.498 0.000
v -5.307 -0.238 0.000
v 30.273 -2.924 0.000
v 29.855 -10.982 0.000
v 3.016 -9.324 0.000
v 2.392 -13.668 0.000
v -6.973 -12.839 0.000
v -9.468 -8.915 0.000
v -20.491 -8.296 0.000
v -20.286 -13.049 0.000
v -27.780 -12.629 0.000
v -24.652 32.825 0.000
v 27.155 28.691 10.810
v 26.112 14.851 10.810
v -3.846 16.498 10.810
v -5.307 -0.238 10.810
v 30.273 -2.924 10.810
v 29.855 -10.982 10.810
v 3.016 -9.324 10.810
v 2.392 -13.668 10.810
v -6.973 -12.839 10.810
v -9.468 -8.915 10.810
v -20.491 -8.296 10.810
v -20.286 -13.049 10.810
v -27.780 -12.629 10.810
v -24.652 32.825 10.810
usemtl roof
f 23 24 25 26 27 28 29 30 31 32 33 34 35 36
usemtl teaching_building
f 22 21 20 19 18 17 16 15 14 13 12 11 10 9
f 9 10 24 23
f 10 11 25 24
f 11 12 26 25
f 12 13 27 26
f 13 14 28 27
f 14 15 29 28
f 15 16 30 29
f 16 17 31 30
f 17 18 32 31
f 18 19 33 32
f 19 20 34 33
f 20 21 35 34
f 21 22 36 35
f 22 9 23 36
