# school_id SD0353
# school_name 山亭区第五实验小学
# boundary_source footprint_convex_hull_buffer_20m
# adjacent_block_merge_distance_m 2.0
mtllib ../campus_materials.mtl
o SD0353_campus_boundary
usemtl campus_boundary
v 135.547 -169.452 0.050
v -123.134 -169.155 0.050
v -120.675 42.381 0.050
v -19.524 144.613 0.050
v 132.965 126.863 0.050
v 135.547 -169.452 0.050
l 1 2 3 4 5 6 1
o SD0353_T001_1hao
v 115.372 -149.429 0.000
v 113.120 109.038 0.000
v -12.159 123.621 0.000
v -12.663 31.885 0.000
v -100.770 34.063 0.000
v -102.900 -149.178 0.000
v 115.372 -149.429 9.900
v 113.120 109.038 9.900
v -12.159 123.621 9.900
v -12.663 31.885 9.900
v -100.770 34.063 9.900
v -102.900 -149.178 9.900
usemtl roof
f 13 14 15 16 17 18
usemtl teaching_building
f 12 11 10 9 8 7
f 7 8 14 13
f 8 9 15 14
f 9 10 16 15
f 10 11 17 16
f 11 12 18 17
f 12 7 13 18
