# school_id SD0372
# school_name 滕州市东沙河街道六合学校
# boundary_source footprint_convex_hull_buffer_20m
# adjacent_block_merge_distance_m 2.0
mtllib ../campus_materials.mtl
o SD0372_campus_boundary
usemtl campus_boundary
v -24.180 -77.406 0.050
v -38.617 -41.074 0.050
v -69.684 40.078 0.050
v 29.507 78.925 0.050
v 76.027 -38.157 0.050
v -24.180 -77.406 0.050
l 1 2 3 4 5 6 1
o SD0372_T001_1hao
v 13.879 31.976 0.000
v 31.931 -13.467 0.000
v -19.984 -33.806 0.000
v -12.943 -51.525 0.000
v 50.019 -26.864 0.000
v 18.269 53.045 0.000
v -43.910 28.693 0.000
v -37.261 11.947 0.000
v 13.879 31.976 9.450
v 31.931 -13.467 9.450
v -19.984 -33.806 9.450
v -12.943 -51.525 9.450
v 50.019 -26.864 9.450
v 18.269 53.045 9.450
v -43.910 28.693 9.450
v -37.261 11.947 9.450
usemtl roof
f 15 16 17 18 19 20 21 22
usemtl teaching_building
f 14 13 12 11 10 9 8 7
f 7 8 16 15
f 8 9 17 16
f 9 10 18 17
f 10 11 19 18
f 11 12 20 19
f 12 13 21 20
f 13 14 22 21
f 14 7 15 22
