# school_id SD0316
# school_name 青岛香港路小学
# boundary_source footprint_convex_hull_buffer_20m
# adjacent_block_merge_distance_m 2.0
mtllib ../campus_materials.mtl
o SD0316_campus_boundary
usemtl campus_boundary
v -17.857 -58.522 0.050
v -38.173 -13.840 0.050
v -55.119 23.613 0.050
v -16.148 50.346 0.050
v 15.013 64.248 0.050
v 56.328 10.417 0.050
v 72.372 -25.037 0.050
v 13.110 -51.472 0.050
v -17.857 -58.522 0.050
l 1 2 3 4 5 6 7 8 9 1
o SD0316_T001_1hao
v -22.307 20.022 0.000
v -29.992 16.596 0.000
v -19.959 -5.579 0.000
v -12.509 -2.251 0.000
v -5.076 -18.678 0.000
v -12.482 -21.972 0.000
v -6.399 -35.402 0.000
v 5.676 -30.008 0.000
v 6.756 -32.407 0.000
v 45.861 -14.963 0.000
v 39.058 0.070 0.000
v 10.967 -12.454 0.000
v 1.564 8.316 0.000
v 19.299 16.231 0.000
v 8.753 39.555 0.000
v -6.336 32.823 0.000
v -2.386 24.090 0.000
v -20.490 16.010 0.000
v -22.307 20.022 20.720
v -29.992 16.596 20.720
v -19.959 -5.579 20.720
v -12.509 -2.251 20.720
v -5.076 -18.678 20.720
v -12.482 -21.972 20.720
v -6.399 -35.402 20.720
v 5.676 -30.008 20.720
v 6.756 -32.407 20.720
v 45.861 -14.963 20.720
v 39.058 0.070 20.720
v 10.967 -12.454 20.720
v 1.564 8.316 20.720
v 19.299 16.231 20.720
v 8.753 39.555 20.720
v -6.336 32.823 20.720
v -2.386 24.090 20.720
v -20.490 16.010 20.720
usemtl roof
f 28 29 30 31 32 33 34 35 36 37 38 39 40 41 42 43 44 45
usemtl teaching_building
f 27 26 25 24 23 22 21 20 19 18 17 16 15 14 13 12 11 10
f 10 11 29 28
f 11 12 30 29
f 12 13 31 30
f 13 14 32 31
f 14 15 33 32
f 15 16 34 33
f 16 17 35 34
f 17 18 36 35
f 18 19 37 36
f 19 20 38 37
f 20 21 39 38
f 21 22 40 39
f 22 23 41 40
f 23 24 42 41
f 24 25 43 42
f 25 26 44 43
f 26 27 45 44
f 27 10 28 45
