# school_id SD0339
# school_name 淄博市桓台县渔洋中学
# boundary_source footprint_convex_hull_buffer_20m
# adjacent_block_merge_distance_m 2.0
mtllib ../campus_materials.mtl
o SD0339_campus_boundary
usemtl campus_boundary
v 51.688 -40.440 0.050
v -21.336 -27.564 0.050
v -62.402 -20.321 0.050
v -55.161 20.744 0.050
v -46.412 70.358 0.050
v -0.198 62.209 0.050
v 60.963 12.160 0.050
v 51.688 -40.440 0.050
l 1 2 3 4 5 6 7 8 1
o SD0339_T001_1hao
v -35.465 17.271 0.000
v -30.189 47.189 0.000
v -8.819 43.421 0.000
v -14.095 13.503 0.000
v 39.233 4.099 0.000
v 35.465 -17.271 0.000
v -17.863 -7.867 0.000
v -17.863 -7.868 0.000
v -39.233 -4.099 0.000
v -35.465 17.271 0.000
v -35.465 17.271 14.090
v -30.189 47.189 14.090
v -8.819 43.421 14.090
v -14.095 13.503 14.090
v 39.233 4.099 14.090
v 35.465 -17.271 14.090
v -17.863 -7.867 14.090
v -17.863 -7.868 14.090
v -39.233 -4.099 14.090
v -35.465 17.271 14.090
usemtl roof
f 19 20 21 22 23 24 25 26 27 28
usemtl teaching_building
f 18 17 16 15 14 13 12 11 10 9
f 9 10 20 19
f 10 11 21 20
f 11 12 22 21
f 12 13 23 22
f 13 14 24 23
f 14 15 25 24
f 15 16 26 25
f 16 17 27 26
f 17 18 28 27
f 18 9 19 28
