# school_id SD0319
# school_name 临淄区金山中学
# boundary_source footprint_convex_hull_buffer_20m
# adjacent_block_merge_distance_m 2.0
mtllib ../campus_materials.mtl
o SD0319_campus_boundary
usemtl campus_boundary
v 29.312 -69.371 0.050
v -26.511 -69.110 0.050
v -59.484 -59.202 0.050
v -70.134 17.486 0.050
v -62.516 42.507 0.050
v 52.681 140.101 0.050
v 110.670 122.189 0.050
v 91.073 58.692 0.050
v 29.312 -69.371 0.050
l 1 2 3 4 5 6 7 8 9 1
o SD0319_T001_1hao
v 43.358 74.802 0.000
v 72.406 66.026 0.000
v 85.663 108.981 0.000
v 57.248 117.758 0.000
v 43.358 74.802 11.890
v 72.406 66.026 11.890
v 85.663 108.981 11.890
v 57.248 117.758 11.890
usemtl roof
f 14 15 16 17
usemtl teaching_building
f 13 12 11 10
f 10 11 15 14
f 11 12 16 15
f 12 13 17 16
f 13 10 14 17
o SD0319_T002_2hao
v 7.628 5.715 0.000
v 38.094 -3.648 0.000
v 40.994 4.996 0.000
v 9.805 13.641 0.000
v 7.628 5.715 8.030
v 38.094 -3.648 8.030
v 40.994 4.996 8.030
v 9.805 13.641 8.030
usemtl roof
f 22 23 24 25
usemtl teaching_building
f 21 20 19 18
f 18 19 23 22
f 19 20 24 23
f 20 21 25 24
f 21 18 22 25
o SD0319_T003_3hao
v -19.939 -37.351 0.000
v -23.525 -49.124 0.000
v -41.439 -43.741 0.000
v -37.844 -31.968 0.000
v -28.468 -34.787 0.000
v -13.453 14.481 0.000
v -5.067 11.960 0.000
v -20.082 -37.307 0.000
v -27.210 -35.165 0.000
v -19.939 -37.351 13.010
v -23.525 -49.124 13.010
v -41.439 -43.741 13.010
v -37.844 -31.968 13.010
v -28.468 -34.787 13.010
v -13.453 14.481 13.010
v -5.067 11.960 13.010
v -20.082 -37.307 13.010
v -27.210 -35.165 13.010
usemtl roof
f 35 36 37 38 39 40 41 42 43
usemtl teaching_building
f 34 33 32 31 30 29 28 27 26
f 26 27 36 35
f 27 28 37 36
f 28 29 38 37
f 29 30 39 38
f 30 31 40 39
f 31 32 41 40
f 32 33 42 41
f 33 34 43 42
f 34 26 35 43
o SD0319_T003_3hao_seg02
v -11.481 20.947 0.000
v -16.112 5.770 0.000
v -49.718 15.874 0.000
v -45.097 31.051 0.000
v -11.481 20.947 13.010
v -16.112 5.770 13.010
v -49.718 15.874 13.010
v -45.097 31.051 13.010
usemtl roof
f 48 49 50 51
usemtl teaching_building
f 47 46 45 44
f 44 45 49 48
f 45 46 50 49
f 46 47 51 50
f 47 44 48 51
o SD0319_T004_4hao
v -10.250 -41.464 0.000
v 16.781 -49.312 0.000
v 21.572 -32.676 0.000
v 5.300 -28.873 0.000
v 6.495 -26.264 0.000
v -4.755 -23.645 0.000
v -10.250 -41.464 15.160
v 16.781 -49.312 15.160
v 21.572 -32.676 15.160
v 5.300 -28.873 15.160
v 6.495 -26.264 15.160
v -4.755 -23.645 15.160
usemtl roof
f 58 59 60 61 62 63
usemtl teaching_building
f 57 56 55 54 53 52
f 52 53 59 58
f 53 54 60 59
f 54 55 61 60
f 55 56 62 61
f 56 57 63 62
f 57 52 58 63
