# school_id SD0373
# school_name 滕州市北辛中学
# boundary_source footprint_convex_hull_buffer_20m
# adjacent_block_merge_distance_m 2.0
mtllib ../campus_materials.mtl
o SD0373_campus_boundary
usemtl campus_boundary
v -128.005 -103.310 0.050
v -133.216 -60.857 0.050
v -62.672 76.999 0.050
v 45.057 88.484 0.050
v 103.530 -15.565 0.050
v 108.363 -51.797 0.050
v -69.812 -96.698 0.050
v -128.005 -103.310 0.050
l 1 2 3 4 5 6 7 8 1
o SD0373_T001_1hao
v -46.407 26.909 0.000
v -49.795 58.258 0.000
v 34.076 67.200 0.000
v 37.500 35.464 0.000
v 21.362 33.751 0.000
v 19.231 53.527 0.000
v -36.288 47.602 0.000
v -34.194 28.213 0.000
v -46.407 26.909 12.390
v -49.795 58.258 12.390
v 34.076 67.200 12.390
v 37.500 35.464 12.390
v 21.362 33.751 12.390
v 19.231 53.527 12.390
v -36.288 47.602 12.390
v -34.194 28.213 12.390
usemtl roof
f 17 18 19 20 21 22 23 24
usemtl teaching_building
f 16 15 14 13 12 11 10 9
f 9 10 18 17
f 10 11 19 18
f 11 12 20 19
f 12 13 21 20
f 13 14 22 21
f 14 15 23 22
f 15 16 24 23
f 16 9 17 24
o SD0373_T002_2hao
v 40.342 -2.838 0.000
v 5.387 -6.364 0.000
v 4.531 -8.475 0.000
v -8.010 -9.746 0.000
v -10.141 -8.475 0.000
v -40.296 -11.559 0.000
v -43.401 18.320 0.000
v -32.236 19.469 0.000
v -30.933 6.934 0.000
v -10.350 9.045 0.000
v -9.713 10.947 0.000
v 1.134 11.798 0.000
v 2.837 9.686 0.000
v 25.342 11.964 0.000
v 24.076 24.377 0.000
v 37.419 25.726 0.000
v 40.342 -2.838 10.080
v 5.387 -6.364 10.080
v 4.531 -8.475 10.080
v -8.010 -9.746 10.080
v -10.141 -8.475 10.080
v -40.296 -11.559 10.080
v -43.401 18.320 10.080
v -32.236 19.469 10.080
v -30.933 6.934 10.080
v -10.350 9.045 10.080
v -9.713 10.947 10.080
v 1.134 11.798 10.080
v 2.837 9.686 10.080
v 25.342 11.964 10.080
v 24.076 24.377 10.080
v 37.419 25.726 10.080
usemtl roof
f 41 42 43 44 45 46 47 48 49 50 51 52 53 54 55 56
usemtl teaching_building
f 40 39 38 37 36 35 34 33 32 31 30 29 28 27 26 25
f 25 26 42 41
f 26 27 43 42
f 27 28 44 43
f 28 29 45 44
f 29 30 46 45
f 30 31 47 46
f 31 32 48 47
f 32 33 49 48
f 33 34 50 49
f 34 35 51 50
f 35 36 52 51
f 36 37 53 52
f 37 38 54 53
f 38 39 55 54
f 39 40 56 55
f 40 25 41 56
o SD0373_T003_3hao
v 64.049 -3.965 0.000
v 66.754 -24.305 0.000
v 84.213 -22.016 0.000
v 86.180 -36.762 0.000
v 60.251 -40.156 0.000
v 56.635 -36.353 0.000
v 52.528 -5.469 0.000
v 64.049 -3.965 11.360
v 66.754 -24.305 11.360
v 84.213 -22.016 11.360
v 86.180 -36.762 11.360
v 60.251 -40.156 11.360
v 56.635 -36.353 11.360
v 52.528 -5.469 11.360
usemtl roof
f 64 65 66 67 68 69 70
usemtl teaching_building
f 63 62 61 60 59 58 57
f 57 58 65 64
f 58 59 66 65
f 59 60 67 66
f 60 61 68 67
f 61 62 69 68
f 62 63 70 69
f 63 57 64 70
o SD0373_T004_4hao
v -73.401 -76.977 0.000
v -75.496 -60.020 0.000
v -112.618 -64.508 0.000
v -110.569 -81.200 0.000
v -73.401 -76.977 32.540
v -75.496 -60.020 32.540
v -112.618 -64.508 32.540
v -110.569 -81.200 32.540
usemtl roof
f 75 76 77 78
usemtl teaching_building
f 74 73 72 71
f 71 72 76 75
f 72 73 77 76
f 73 74 78 77
f 74 71 75 78
