# school_id SD0343
# school_name 淄博高新区第一中学（有光伏）
# boundary_source footprint_convex_hull_buffer_20m
# adjacent_block_merge_distance_m 2.0
mtllib ../campus_materials.mtl
o SD0343_campus_boundary
usemtl campus_boundary
v -57.615 -126.050 0.050
v -110.940 40.956 0.050
v -106.053 85.865 0.050
v 27.051 88.166 0.050
v 122.227 18.670 0.050
v 118.633 -51.855 0.050
v 17.906 -116.513 0.050
v -57.615 -126.050 0.050
l 1 2 3 4 5 6 7 8 1
o SD0343_T001_1hao
v -43.621 62.725 0.000
v -49.304 21.405 0.000
v -71.056 24.533 0.000
v -68.526 40.506 0.000
v -90.599 43.004 0.000
v -88.078 66.173 0.000
v -43.621 62.725 7.530
v -49.304 21.405 7.530
v -71.056 24.533 7.530
v -68.526 40.506 7.530
v -90.599 43.004 7.530
v -88.078 66.173 7.530
usemtl roof
f 15 16 17 18 19 20
usemtl teaching_building
f 14 13 12 11 10 9
f 9 10 16 15
f 10 11 17 16
f 11 12 18 17
f 12 13 19 18
f 13 14 20 19
f 14 9 15 20
o SD0343_T002_2hao
v 21.946 54.589 0.000
v -11.154 48.642 0.000
v -13.363 24.224 0.000
v 28.253 13.899 0.000
v 25.732 1.684 0.000
v -29.752 15.458 0.000
v -25.976 59.287 0.000
v 20.681 68.053 0.000
v 21.946 54.589 15.090
v -11.154 48.642 15.090
v -13.363 24.224 15.090
v 28.253 13.899 15.090
v 25.732 1.684 15.090
v -29.752 15.458 15.090
v -25.976 59.287 15.090
v 20.681 68.053 15.090
usemtl roof
f 29 30 31 32 33 34 35 36
usemtl teaching_building
f 28 27 26 25 24 23 22 21
f 21 22 30 29
f 22 23 31 30
f 23 24 32 31
f 24 25 33 32
f 25 26 34 33
f 26 27 35 34
f 27 28 36 35
f 28 21 29 36
o SD0343_T003_3hao
v 101.703 8.892 0.000
v 95.085 -15.527 0.000
v 54.414 -3.953 0.000
v 59.776 19.216 0.000
v 101.703 8.892 20.510
v 95.085 -15.527 20.510
v 54.414 -3.953 20.510
v 59.776 19.216 20.510
usemtl roof
f 41 42 43 44
usemtl teaching_building
f 40 39 38 37
f 37 38 42 41
f 38 39 43 42
f 39 40 44 43
f 40 37 41 44
o SD0343_T004_4hao
v 99.182 -40.575 0.000
v -25.023 -62.805 0.000
v -29.441 -90.031 0.000
v 9.021 -83.774 0.000
v 10.910 -97.238 0.000
v -43.621 -104.124 0.000
v -36.371 -48.401 0.000
v 99.182 -25.862 0.000
v 99.182 -40.575 14.930
v -25.023 -62.805 14.930
v -29.441 -90.031 14.930
v 9.021 -83.774 14.930
v 10.910 -97.238 14.930
v -43.621 -104.124 14.930
v -36.371 -48.401 14.930
v 99.182 -25.862 14.930
usemtl roof
f 53 54 55 56 57 58 59 60
usemtl teaching_building
f 52 51 50 49 48 47 46 45
f 45 46 54 53
f 46 47 55 54
f 47 48 56 55
f 48 49 57 56
f 49 50 58 57
f 50 51 59 58
f 51 52 60 59
f 52 45 53 60
