# school_id SD0371
# school_name 滕州市东沙河街道中心小学
# boundary_source footprint_convex_hull_buffer_20m
# adjacent_block_merge_distance_m 2.0
mtllib ../campus_materials.mtl
o SD0371_campus_boundary
usemtl campus_boundary
v -29.769 -78.830 0.050
v -75.902 38.398 0.050
v 24.439 77.331 0.050
v 38.747 40.948 0.050
v 69.565 -40.302 0.050
v -29.769 -78.830 0.050
l 1 2 3 4 5 6 1
o SD0371_T001_1hao
v -13.983 -31.929 0.000
v -31.889 13.569 0.000
v 20.090 33.742 0.000
v 13.113 51.484 0.000
v -49.932 27.022 0.000
v -18.446 -52.987 0.000
v 43.825 -28.834 0.000
v 37.222 -12.065 0.000
v -13.983 -31.929 12.080
v -31.889 13.569 12.080
v 20.090 33.742 12.080
v 13.113 51.484 12.080
v -49.932 27.022 12.080
v -18.446 -52.987 12.080
v 43.825 -28.834 12.080
v 37.222 -12.065 12.080
usemtl roof
f 15 16 17 18 19 20 21 22
usemtl teaching_building
f 14 13 12 11 10 9 8 7
f 7 8 16 15
f 8 9 17 16
f 9 10 18 17
f 10 11 19 18
f 11 12 20 19
f 12 13 21 20
f 13 14 22 21
f 14 7 15 22
