# school_id SD0326
# school_name 张店区重庆路小学
# boundary_source footprint_convex_hull_buffer_20m
# adjacent_block_merge_distance_m 2.0
mtllib ../campus_materials.mtl
o SD0326_campus_boundary
usemtl campus_boundary
v 61.033 -125.403 0.050
v 0.435 -119.936 0.050
v -74.181 -13.206 0.050
v -77.830 13.298 0.050
v -75.549 35.485 0.050
v -62.099 74.458 0.050
v 11.608 67.954 0.050
v 88.590 61.014 0.050
v 84.728 18.841 0.050
v 79.533 -22.318 0.050
v 61.033 -125.403 0.050
l 1 2 3 4 5 6 7 8 9 10 11 1
o SD0326_T001_1hao
v -39.266 48.586 0.000
v 9.474 44.197 0.000
v 9.831 48.033 0.000
v 66.847 42.893 0.000
v 64.843 21.006 0.000
v 18.428 25.295 0.000
v 18.971 30.137 0.000
v -49.850 36.349 0.000
v -48.291 53.162 0.000
v -38.927 52.322 0.000
v -39.266 48.586 12.220
v 9.474 44.197 12.220
v 9.831 48.033 12.220
v 66.847 42.893 12.220
v 64.843 21.006 12.220
v 18.428 25.295 12.220
v 18.971 30.137 12.220
v -49.850 36.349 12.220
v -48.291 53.162 12.220
v -38.927 52.322 12.220
usemtl roof
f 22 23 24 25 26 27 28 29 30 31
usemtl teaching_building
f 21 20 19 18 17 16 15 14 13 12
f 12 13 23 22
f 13 14 24 23
f 14 15 25 24
f 15 16 26 25
f 16 17 27 26
f 17 18 28 27
f 18 19 29 28
f 19 20 30 29
f 20 21 31 30
f 21 12 22 31
o SD0326_T001_1hao_seg02
v 50.553 -52.448 0.000
v 18.606 -50.403 0.000
v 19.544 -35.990 0.000
v 19.523 -36.232 0.000
v 11.568 -35.369 0.000
v 18.428 25.295 0.000
v 25.911 24.455 0.000
v 23.060 4.447 0.000
v 20.051 -30.160 0.000
v 51.862 -32.197 0.000
v 50.553 -52.448 12.220
v 18.606 -50.403 12.220
v 19.544 -35.990 12.220
v 19.523 -36.232 12.220
v 11.568 -35.369 12.220
v 18.428 25.295 12.220
v 25.911 24.455 12.220
v 23.060 4.447 12.220
v 20.051 -30.160 12.220
v 51.862 -32.197 12.220
usemtl roof
f 42 43 44 45 46 47 48 49 50 51
usemtl teaching_building
f 41 40 39 38 37 36 35 34 33 32
f 32 33 43 42
f 33 34 44 43
f 34 35 45 44
f 35 36 46 45
f 36 37 47 46
f 37 38 48 47
f 38 39 49 48
f 39 40 50 49
f 40 41 51 50
f 41 32 42 51
o SD0326_T001_1hao_seg03
v 13.831 -14.002 0.000
v -49.075 -6.375 0.000
v -47.302 8.106 0.000
v 15.612 0.501 0.000
v 13.831 -14.002 12.220
v -49.075 -6.375 12.220
v -47.302 8.106 12.220
v 15.612 0.501 12.220
usemtl roof
f 56 57 58 59
usemtl teaching_building
f 55 54 53 52
f 52 53 57 56
f 53 54 58 57
f 54 55 59 58
f 55 52 56 59
o SD0326_T001_1hao_seg04
v 21.466 -16.401 0.000
v 23.060 4.447 0.000
v 61.350 1.551 0.000
v 59.756 -19.297 0.000
v 21.466 -16.401 12.220
v 23.060 4.447 12.220
v 61.350 1.551 12.220
v 59.756 -19.297 12.220
usemtl roof
f 64 65 66 67
usemtl teaching_building
f 63 62 61 60
f 60 61 65 64
f 61 62 66 65
f 62 63 67 66
f 63 60 64 67
o SD0326_T001_1hao_seg05
v -49.850 36.349 0.000
v -43.952 35.630 0.000
v -49.075 -6.375 0.000
v -55.026 -5.700 0.000
v -49.850 36.349 12.220
v -43.952 35.630 12.220
v -49.075 -6.375 12.220
v -55.026 -5.700 12.220
usemtl roof
f 72 73 74 75
usemtl teaching_building
f 71 70 69 68
f 68 69 73 72
f 69 70 74 73
f 70 71 75 74
f 71 68 72 75
o SD0326_T002_2hao
v 11.497 -100.853 0.000
v 44.584 -103.838 0.000
v 47.773 -68.918 0.000
v 14.695 -65.934 0.000
v 11.497 -100.853 14.420
v 44.584 -103.838 14.420
v 47.773 -68.918 14.420
v 14.695 -65.934 14.420
usemtl roof
f 80 81 82 83
usemtl teaching_building
f 79 78 77 76
f 76 77 81 80
f 77 78 82 81
f 78 79 83 82
f 79 76 80 83
