# school_id SD0359
# school_name 枣庄市实验中学
# boundary_source footprint_convex_hull_buffer_20m
# adjacent_block_merge_distance_m 2.0
mtllib ../campus_materials.mtl
o SD0359_campus_boundary
usemtl campus_boundary
v 116.011 -70.142 0.050
v -131.940 -69.269 0.050
v -132.989 63.923 0.050
v 44.754 64.352 0.050
v 115.462 36.175 0.050
v 116.011 -70.142 0.050
l 1 2 3 4 5 6 1
o SD0359_T001_1hao
v -112.096 -49.339 0.000
v 95.907 -50.071 0.000
v 95.532 22.588 0.000
v 40.196 38.070 0.000
v 40.939 44.343 0.000
v -112.831 43.972 0.000
v -112.096 -49.339 9.900
v 95.907 -50.071 9.900
v 95.532 22.588 9.900
v 40.196 38.070 9.900
v 40.939 44.343 9.900
v -112.831 43.972 9.900
usemtl roof
f 13 14 15 16 17 18
usemtl teaching_building
f 12 11 10 9 8 7
f 7 8 14 13
f 8 9 15 14
f 9 10 16 15
f 10 11 17 16
f 11 12 18 17
f 12 7 13 18
