# school_id SD0351
# school_name 山东省枣庄经济学校（枣庄市职业中专）
# boundary_source footprint_convex_hull_buffer_20m
# adjacent_block_merge_distance_m 2.0
mtllib ../campus_materials.mtl
o SD0351_campus_boundary
usemtl campus_boundary
v -36.998 -72.510 0.050
v -149.939 -1.793 0.050
v -149.699 45.787 0.050
v 4.193 89.734 0.050
v 76.358 89.392 0.050
v 82.323 7.853 0.050
v 82.175 -11.613 0.050
v 79.350 -70.043 0.050
v -10.319 -72.068 0.050
v -36.998 -72.510 0.050
l 1 2 3 4 5 6 7 8 9 10 1
o SD0351_T001_1hao
v 57.539 23.366 0.000
v 57.761 69.480 0.000
v 6.946 69.721 0.000
v 6.716 23.616 0.000
v 57.539 23.366 9.900
v 57.761 69.480 9.900
v 6.946 69.721 9.900
v 6.716 23.616 9.900
usemtl roof
f 15 16 17 18
usemtl teaching_building
f 14 13 12 11
f 11 12 16 15
f 12 13 17 16
f 13 14 18 17
f 14 11 15 18
o SD0351_T002_2hao
v -34.575 8.755 0.000
v -34.460 30.186 0.000
v -129.775 30.677 0.000
v -129.883 9.246 0.000
v -34.575 8.755 9.900
v -34.460 30.186 9.900
v -129.775 30.677 9.900
v -129.883 9.246 9.900
usemtl roof
f 23 24 25 26
usemtl teaching_building
f 22 21 20 19
f 19 20 24 23
f 20 21 25 24
f 21 22 26 25
f 22 19 23 26
o SD0351_T003_3hao
v 62.179 -11.054 0.000
v 62.317 7.198 0.000
v 11.225 7.560 0.000
v 11.103 -10.684 0.000
v 62.179 -11.054 9.900
v 62.317 7.198 9.900
v 11.225 7.560 9.900
v 11.103 -10.684 9.900
usemtl roof
f 31 32 33 34
usemtl teaching_building
f 30 29 28 27
f 27 28 32 31
f 28 29 33 32
f 29 30 34 33
f 30 27 31 34
o SD0351_T004_4hao
v -31.406 -52.415 0.000
v -10.710 -52.072 0.000
v -11.690 7.161 0.000
v -32.378 6.837 0.000
v -31.406 -52.415 9.900
v -10.710 -52.072 9.900
v -11.690 7.161 9.900
v -32.378 6.837 9.900
usemtl roof
f 39 40 41 42
usemtl teaching_building
f 38 37 36 35
f 35 36 40 39
f 36 37 41 40
f 37 38 42 41
f 38 35 39 42
o SD0351_T005_5hao
v 60.273 -50.469 0.000
v 60.357 -33.560 0.000
v 9.273 -33.319 0.000
v 9.189 -50.228 0.000
v 60.273 -50.469 9.900
v 60.357 -33.560 9.900
v 9.273 -33.319 9.900
v 9.189 -50.228 9.900
usemtl roof
f 47 48 49 50
usemtl teaching_building
f 46 45 44 43
f 43 44 48 47
f 44 45 49 48
f 45 46 50 49
f 46 43 47 50
