# school_id SD0378
# school_name 滕州市第一中学（东校区）
# boundary_source footprint_convex_hull_buffer_20m
# adjacent_block_merge_distance_m 2.0
mtllib ../campus_materials.mtl
o SD0378_campus_boundary
usemtl campus_boundary
v 28.244 -71.078 0.050
v -185.105 -26.038 0.050
v -187.882 1.589 0.050
v -183.643 58.034 0.050
v -152.452 61.150 0.050
v -109.625 62.585 0.050
v 140.318 39.556 0.050
v 144.690 7.678 0.050
v 151.614 -55.180 0.050
v 28.244 -71.078 0.050
l 1 2 3 4 5 6 7 8 9 10 1
o SD0378_T001_1hao
v -167.807 1.842 0.000
v -116.504 7.358 0.000
v -119.327 32.019 0.000
v -163.672 27.133 0.000
v -164.956 39.801 0.000
v -151.122 41.183 0.000
v -150.849 38.508 0.000
v -110.210 42.554 0.000
v -109.400 34.506 0.000
v -105.356 34.915 0.000
v -101.540 -3.011 0.000
v -166.668 -9.489 0.000
v -167.807 1.842 21.180
v -116.504 7.358 21.180
v -119.327 32.019 21.180
v -163.672 27.133 21.180
v -164.956 39.801 21.180
v -151.122 41.183 21.180
v -150.849 38.508 21.180
v -110.210 42.554 21.180
v -109.400 34.506 21.180
v -105.356 34.915 21.180
v -101.540 -3.011 21.180
v -166.668 -9.489 21.180
usemtl roof
f 23 24 25 26 27 28 29 30 31 32 33 34
usemtl teaching_building
f 22 21 20 19 18 17 16 15 14 13 12 11
f 11 12 24 23
f 12 13 25 24
f 13 14 26 25
f 14 15 27 26
f 15 16 28 27
f 16 17 29 28
f 17 18 30 29
f 18 19 31 30
f 19 20 32 31
f 20 21 33 32
f 21 22 34 33
f 22 11 23 34
o SD0378_T002_2hao
v 128.163 -27.496 0.000
v 125.732 -27.827 0.000
v 124.484 -18.796 0.000
v 120.513 -19.327 0.000
v 118.810 -3.586 0.000
v 123.027 -3.011 0.000
v 121.943 4.837 0.000
v 124.839 5.224 0.000
v 122.662 21.098 0.000
v 35.156 9.259 0.000
v 40.712 -31.188 0.000
v 27.506 -32.448 0.000
v 29.054 -50.808 0.000
v 129.584 -37.853 0.000
v 128.163 -27.496 13.140
v 125.732 -27.827 13.140
v 124.484 -18.796 13.140
v 120.513 -19.327 13.140
v 118.810 -3.586 13.140
v 123.027 -3.011 13.140
v 121.943 4.837 13.140
v 124.839 5.224 13.140
v 122.662 21.098 13.140
v 35.156 9.259 13.140
v 40.712 -31.188 13.140
v 27.506 -32.448 13.140
v 29.054 -50.808 13.140
v 129.584 -37.853 13.140
usemtl roof
f 49 50 51 52 53 54 55 56 57 58 59 60 61 62
usemtl teaching_building
f 48 47 46 45 44 43 42 41 40 39 38 37 36 35
f 35 36 50 49
f 36 37 51 50
f 37 38 52 51
f 38 39 53 52
f 39 40 54 53
f 40 41 55 54
f 41 42 56 55
f 42 43 57 56
f 43 44 58 57
f 44 45 59 58
f 45 46 60 59
f 46 47 61 60
f 47 48 62 61
f 48 35 49 62
