# school_id SD0325
# school_name 张店区第三中学
# boundary_source footprint_convex_hull_buffer_20m
# adjacent_block_merge_distance_m 2.0
mtllib ../campus_materials.mtl
o SD0325_campus_boundary
usemtl campus_boundary
v 60.677 -77.892 0.050
v -23.764 -77.346 0.050
v -59.717 -68.121 0.050
v -134.426 31.548 0.050
v -118.634 93.656 0.050
v 3.178 73.612 0.050
v 16.980 70.089 0.050
v 91.020 43.132 0.050
v 68.214 -50.026 0.050
v 60.677 -77.892 0.050
l 1 2 3 4 5 6 7 8 9 10 1
o SD0325_T001_1hao
v -112.686 35.890 0.000
v -88.843 29.909 0.000
v -79.939 64.962 0.000
v -103.773 70.942 0.000
v -112.686 35.890 11.380
v -88.843 29.909 11.380
v -79.939 64.962 11.380
v -103.773 70.942 11.380
usemtl roof
f 15 16 17 18
usemtl teaching_building
f 14 13 12 11
f 11 12 16 15
f 12 13 17 16
f 13 14 18 17
f 14 11 15 18
o SD0325_T002_2hao
v -42.148 -34.524 0.000
v -38.690 -21.945 0.000
v -21.843 -26.514 0.000
v -16.820 -7.176 0.000
v -33.583 -2.689 0.000
v -30.178 9.846 0.000
v -13.552 5.406 0.000
v -5.277 37.265 0.000
v -33.396 44.445 0.000
v -30.027 57.456 0.000
v -7.147 51.597 0.000
v -8.101 47.894 0.000
v -2.864 46.558 0.000
v -0.926 54.018 0.000
v 11.071 50.956 0.000
v 9.744 45.827 0.000
v 67.330 30.473 0.000
v 63.515 16.390 0.000
v 6.098 31.711 0.000
v 9.205 43.742 0.000
v -13.029 -42.196 0.000
v -25.124 -39.145 0.000
v -42.148 -34.524 14.640
v -38.690 -21.945 14.640
v -21.843 -26.514 14.640
v -16.820 -7.176 14.640
v -33.583 -2.689 14.640
v -30.178 9.846 14.640
v -13.552 5.406 14.640
v -5.277 37.265 14.640
v -33.396 44.445 14.640
v -30.027 57.456 14.640
v -7.147 51.597 14.640
v -8.101 47.894 14.640
v -2.864 46.558 14.640
v -0.926 54.018 14.640
v 11.071 50.956 14.640
v 9.744 45.827 14.640
v 67.330 30.473 14.640
v 63.515 16.390 14.640
v 6.098 31.711 14.640
v 9.205 43.742 14.640
v -13.029 -42.196 14.640
v -25.124 -39.145 14.640
usemtl roof
f 41 42 43 44 45 46 47 48 49 50 51 52 53 54 55 56 57 58 59 60 61 62
usemtl teaching_building
f 40 39 38 37 36 35 34 33 32 31 30 29 28 27 26 25 24 23 22 21 20 19
f 19 20 42 41
f 20 21 43 42
f 21 22 44 43
f 22 23 45 44
f 23 24 46 45
f 24 25 47 46
f 25 26 48 47
f 26 27 49 48
f 27 28 50 49
f 28 29 51 50
f 29 30 52 51
f 30 31 53 52
f 31 32 54 53
f 32 33 55 54
f 33 34 56 55
f 34 35 57 56
f 35 36 58 57
f 36 37 59 58
f 37 38 60 59
f 38 39 61 60
f 39 40 62 61
f 40 19 41 62
o SD0325_T002_2hao_seg02
v 48.845 -45.037 0.000
v 45.395 -57.793 0.000
v -13.029 -42.196 0.000
v -9.714 -29.395 0.000
v 37.106 -41.975 0.000
v 48.845 -45.037 14.640
v 45.395 -57.793 14.640
v -13.029 -42.196 14.640
v -9.714 -29.395 14.640
v 37.106 -41.975 14.640
usemtl roof
f 68 69 70 71 72
usemtl teaching_building
f 67 66 65 64 63
f 63 64 69 68
f 64 65 70 69
f 65 66 71 70
f 66 67 72 71
f 67 63 68 72
o SD0325_T002_2hao_seg03
v 56.866 -11.444 0.000
v 53.782 -23.669 0.000
v -4.473 -9.177 0.000
v -1.318 3.037 0.000
v 52.508 -10.449 0.000
v 56.866 -11.444 14.640
v 53.782 -23.669 14.640
v -4.473 -9.177 14.640
v -1.318 3.037 14.640
v 52.508 -10.449 14.640
usemtl roof
f 78 79 80 81 82
usemtl teaching_building
f 77 76 75 74 73
f 73 74 79 78
f 74 75 80 79
f 75 76 81 80
f 76 77 82 81
f 77 73 78 82
o SD0325_T002_2hao_seg04
v -21.176 -57.362 0.000
v -47.933 -50.497 0.000
v -43.984 -35.331 0.000
v -17.227 -42.196 0.000
v -21.176 -57.362 14.640
v -47.933 -50.497 14.640
v -43.984 -35.331 14.640
v -17.227 -42.196 14.640
usemtl roof
f 87 88 89 90
usemtl teaching_building
f 86 85 84 83
f 83 84 88 87
f 84 85 89 88
f 85 86 90 89
f 86 83 87 90
