# school_id SD0320
# school_name 北苑小学
# boundary_source footprint_convex_hull_buffer_20m
# adjacent_block_merge_distance_m 2.0
mtllib ../campus_materials.mtl
o SD0320_campus_boundary
usemtl campus_boundary
v 14.634 -149.745 0.050
v -37.351 -148.378 0.050
v -95.481 -47.703 0.050
v -93.392 43.478 0.050
v -91.353 74.443 0.050
v 88.675 67.234 0.050
v 86.912 4.037 0.050
v 14.634 -149.745 0.050
l 1 2 3 4 5 6 7 8 1
o SD0320_T001_1hao
v 45.130 34.909 0.000
v 42.244 35.705 0.000
v 11.785 37.142 0.000
v 1.852 34.600 0.000
v -2.798 31.096 0.000
v -4.722 -72.845 0.000
v -24.277 -71.087 0.000
v -20.999 0.156 0.000
v -73.514 0.631 0.000
v -72.891 11.000 0.000
v -20.500 11.000 0.000
v -19.163 40.061 0.000
v 48.079 37.595 0.000
v 48.292 31.571 0.000
v 45.130 34.909 9.550
v 42.244 35.705 9.550
v 11.785 37.142 9.550
v 1.852 34.600 9.550
v -2.798 31.096 9.550
v -4.722 -72.845 9.550
v -24.277 -71.087 9.550
v -20.999 0.156 9.550
v -73.514 0.631 9.550
v -72.891 11.000 9.550
v -20.500 11.000 9.550
v -19.163 40.061 9.550
v 48.079 37.595 9.550
v 48.292 31.571 9.550
usemtl roof
f 23 24 25 26 27 28 29 30 31 32 33 34 35 36
usemtl teaching_building
f 22 21 20 19 18 17 16 15 14 13 12 11 10 9
f 9 10 24 23
f 10 11 25 24
f 11 12 26 25
f 12 13 27 26
f 13 14 28 27
f 14 15 29 28
f 15 16 30 29
f 16 17 31 30
f 17 18 32 31
f 18 19 33 32
f 19 20 34 33
f 20 21 35 34
f 21 22 36 35
f 22 9 23 36
o SD0320_T001_1hao_seg02
v 68.132 48.041 0.000
v 67.036 8.767 0.000
v 56.417 9.496 0.000
v 53.486 12.768 0.000
v 48.542 30.046 0.000
v 48.079 37.595 0.000
v -73.407 42.592 0.000
v -72.677 53.679 0.000
v 68.132 48.041 9.550
v 67.036 8.767 9.550
v 56.417 9.496 9.550
v 53.486 12.768 9.550
v 48.542 30.046 9.550
v 48.079 37.595 9.550
v -73.407 42.592 9.550
v -72.677 53.679 9.550
usemtl roof
f 45 46 47 48 49 50 51 52
usemtl teaching_building
f 44 43 42 41 40 39 38 37
f 37 38 46 45
f 38 39 47 46
f 39 40 48 47
f 40 41 49 48
f 41 42 50 49
f 42 43 51 50
f 43 44 52 51
f 44 37 45 52
o SD0320_T001_1hao_seg03
v -22.344 -28.961 0.000
v -22.976 -42.756 0.000
v -75.358 -42.557 0.000
v -73.728 -28.939 0.000
v -22.344 -28.961 9.550
v -22.976 -42.756 9.550
v -75.358 -42.557 9.550
v -73.728 -28.939 9.550
usemtl roof
f 57 58 59 60
usemtl teaching_building
f 56 55 54 53
f 53 54 58 57
f 54 55 59 58
f 55 56 60 59
f 56 53 57 60
o SD0320_T002_2hao
v -25.631 -128.679 0.000
v 2.093 -129.408 0.000
v 3.188 -88.155 0.000
v -24.517 -87.425 0.000
v -25.631 -128.679 9.900
v 2.093 -129.408 9.900
v 3.188 -88.155 9.900
v -24.517 -87.425 9.900
usemtl roof
f 65 66 67 68
usemtl teaching_building
f 64 63 62 61
f 61 62 66 65
f 62 63 67 66
f 63 64 68 67
f 64 61 65 68
