# school_id SD0310
# school_name 青岛贵州路小学
# boundary_source footprint_convex_hull_buffer_20m
# adjacent_block_merge_distance_m 2.0
mtllib ../campus_materials.mtl
o SD0310_campus_boundary
usemtl campus_boundary
v 25.257 -62.606 0.050
v -30.688 -17.844 0.050
v -57.083 16.805 0.050
v 5.223 52.776 0.050
v 66.247 -21.903 0.050
v 25.257 -62.606 0.050
l 1 2 3 4 5 6 1
o SD0310_T001_1hao
v 0.496 26.953 0.000
v 39.274 -20.502 0.000
v 23.823 -35.845 0.000
v -6.388 3.960 0.000
v -16.270 -3.766 0.000
v -27.402 10.847 0.000
v 0.496 26.953 24.770
v 39.274 -20.502 24.770
v 23.823 -35.845 24.770
v -6.388 3.960 24.770
v -16.270 -3.766 24.770
v -27.402 10.847 24.770
usemtl roof
f 13 14 15 16 17 18
usemtl teaching_building
f 12 11 10 9 8 7
f 7 8 14 13
f 8 9 15 14
f 9 10 16 15
f 10 11 17 16
f 11 12 18 17
f 12 7 13 18
