# school_id SD0392
# school_name 龙泉街道中心小学荆河桥校区
# boundary_source footprint_convex_hull_buffer_20m
# adjacent_block_merge_distance_m 2.0
mtllib ../campus_materials.mtl
o SD0392_campus_boundary
usemtl campus_boundary
v -80.964 -55.538 0.050
v -82.859 35.855 0.050
v -11.606 37.320 0.050
v 91.373 37.458 0.050
v 90.820 -12.223 0.050
v -5.995 -53.996 0.050
v -80.964 -55.538 0.050
l 1 2 3 4 5 6 7 1
o SD0392_T001_1hao
v 71.149 17.431 0.000
v 70.966 0.993 0.000
v 1.713 0.507 0.000
v 1.713 16.690 0.000
v 71.149 17.431 20.630
v 70.966 0.993 20.630
v 1.713 0.507 20.630
v 1.713 16.690 20.630
usemtl roof
f 12 13 14 15
usemtl teaching_building
f 11 10 9 8
f 8 9 13 12
f 9 10 14 13
f 10 11 15 14
f 11 8 12 15
o SD0392_T002_2hao
v -11.387 17.320 0.000
v -10.322 -34.081 0.000
v -61.383 -35.131 0.000
v -62.449 16.270 0.000
v -11.387 17.320 12.310
v -10.322 -34.081 12.310
v -61.383 -35.131 12.310
v -62.449 16.270 12.310
usemtl roof
f 20 21 22 23
usemtl teaching_building
f 19 18 17 16
f 16 17 21 20
f 17 18 22 21
f 18 19 23 22
f 19 16 20 23
