# school_id SD0393
# school_name 东凯实验学校(育才学校开发区分校)
# boundary_source footprint_convex_hull_buffer_20m
# adjacent_block_merge_distance_m 2.0
mtllib ../campus_materials.mtl
o SD0393_campus_boundary
usemtl campus_boundary
v -25.129 -73.186 0.050
v -25.771 72.948 0.050
v 25.123 73.210 0.050
v 25.776 -72.971 0.050
v -25.129 -73.186 0.050
l 1 2 3 4 5 1
o SD0393_T001_1hao
v -5.217 -53.102 0.000
v 5.687 -53.056 0.000
v 5.213 53.107 0.000
v -5.683 53.051 0.000
v -5.217 -53.102 9.900
v 5.687 -53.056 9.900
v 5.213 53.107 9.900
v -5.683 53.051 9.900
usemtl roof
f 10 11 12 13
usemtl teaching_building
f 9 8 7 6
f 6 7 11 10
f 7 8 12 11
f 8 9 13 12
f 9 6 10 13
