# school_id SD0370
# school_name 滕州实验高级中学
# boundary_source footprint_convex_hull_buffer_20m
# adjacent_block_merge_distance_m 2.0
mtllib ../campus_materials.mtl
o SD0370_campus_boundary
usemtl campus_boundary
v -237.283 -105.416 0.050
v -238.081 -64.952 0.050
v -128.538 52.570 0.050
v -104.543 73.630 0.050
v 79.722 103.888 0.050
v 147.296 110.437 0.050
v 159.779 8.861 0.050
v 165.167 -41.957 0.050
v 168.483 -83.520 0.050
v 87.131 -89.933 0.050
v -126.248 -103.247 0.050
v -237.283 -105.416 0.050
l 1 2 3 4 5 6 7 8 9 10 11 12 1
o SD0370_T001_1hao
v 88.905 16.862 0.000
v 136.419 21.458 0.000
v 129.823 88.650 0.000
v 82.310 84.045 0.000
v 88.905 16.862 9.900
v 136.419 21.458 9.900
v 129.823 88.650 9.900
v 82.310 84.045 9.900
usemtl roof
f 17 18 19 20
usemtl teaching_building
f 16 15 14 13
f 13 14 18 17
f 14 15 19 18
f 15 16 20 19
f 16 13 17 20
o SD0370_T002_2hao
v -113.486 21.828 0.000
v -93.324 23.172 0.000
v -91.996 5.938 0.000
v -56.025 8.292 0.000
v -55.475 6.911 0.000
v -35.627 15.584 0.000
v -6.374 17.955 0.000
v 19.154 15.519 0.000
v 19.551 17.696 0.000
v 49.186 19.697 0.000
v 47.682 36.505 0.000
v 62.041 37.570 0.000
v 60.820 53.590 0.000
v 46.461 52.506 0.000
v 45.377 67.423 0.000
v 15.131 65.857 0.000
v -14.550 56.518 0.000
v -37.391 55.304 0.000
v -60.239 57.611 0.000
v -60.361 56.527 0.000
v -95.653 54.822 0.000
v -94.645 39.516 0.000
v -114.592 38.200 0.000
v -113.486 21.828 9.900
v -93.324 23.172 9.900
v -91.996 5.938 9.900
v -56.025 8.292 9.900
v -55.475 6.911 9.900
v -35.627 15.584 9.900
v -6.374 17.955 9.900
v 19.154 15.519 9.900
v 19.551 17.696 9.900
v 49.186 19.697 9.900
v 47.682 36.505 9.900
v 62.041 37.570 9.900
v 60.820 53.590 9.900
v 46.461 52.506 9.900
v 45.377 67.423 9.900
v 15.131 65.857 9.900
v -14.550 56.518 9.900
v -37.391 55.304 9.900
v -60.239 57.611 9.900
v -60.361 56.527 9.900
v -95.653 54.822 9.900
v -94.645 39.516 9.900
v -114.592 38.200 9.900
usemtl roof
f 44 45 46 47 48 49 50 51 52 53 54 55 56 57 58 59 60 61 62 63 64 65 66
usemtl teaching_building
f 43 42 41 40 39 38 37 36 35 34 33 32 31 30 29 28 27 26 25 24 23 22 21
f 21 22 45 44
f 22 23 46 45
f 23 24 47 46
f 24 25 48 47
f 25 26 49 48
f 26 27 50 49
f 27 28 51 50
f 28 29 52 51
f 29 30 53 52
f 30 31 54 53
f 31 32 55 54
f 32 33 56 55
f 33 34 57 56
f 34 35 58 57
f 35 36 59 58
f 36 37 60 59
f 37 38 61 60
f 38 39 62 61
f 39 40 63 62
f 40 41 64 63
f 41 42 65 64
f 42 43 66 65
f 43 21 44 66
o SD0370_T003_3hao
v 81.088 -18.800 0.000
v 141.618 -13.797 0.000
v 139.908 6.587 0.000
v 79.378 1.574 0.000
v 81.088 -18.800 9.900
v 141.618 -13.797 9.900
v 139.908 6.587 9.900
v 79.378 1.574 9.900
usemtl roof
f 71 72 73 74
usemtl teaching_building
f 70 69 68 67
f 67 68 72 71
f 68 69 73 72
f 69 70 74 73
f 70 67 71 74
o SD0370_T004_4hao
v 85.722 -69.982 0.000
v 146.954 -65.155 0.000
v 145.251 -43.807 0.000
v 84.020 -48.635 0.000
v 85.722 -69.982 9.900
v 146.954 -65.155 9.900
v 145.251 -43.807 9.900
v 84.020 -48.635 9.900
usemtl roof
f 79 80 81 82
usemtl teaching_building
f 78 77 76 75
f 75 76 80 79
f 76 77 81 80
f 77 78 82 81
f 78 75 79 82
o SD0370_T005_5hao
v -4.908 -75.078 0.000
v 76.950 -67.286 0.000
v 75.240 -49.580 0.000
v -6.611 -57.372 0.000
v -4.908 -75.078 9.900
v 76.950 -67.286 9.900
v 75.240 -49.580 9.900
v -6.611 -57.372 9.900
usemtl roof
f 87 88 89 90
usemtl teaching_building
f 86 85 84 83
f 83 84 88 87
f 84 85 89 88
f 85 86 90 89
f 86 83 87 90
o SD0370_T006_6hao
v -101.157 -80.906 0.000
v -19.413 -73.169 0.000
v -20.397 -62.987 0.000
v -102.134 -70.714 0.000
v -101.157 -80.906 9.900
v -19.413 -73.169 9.900
v -20.397 -62.987 9.900
v -102.134 -70.714 9.900
usemtl roof
f 95 96 97 98
usemtl teaching_building
f 94 93 92 91
f 91 92 96 95
f 92 93 97 96
f 93 94 98 97
f 94 91 95 98
o SD0370_T007_7hao
v -217.681 -85.029 0.000
v -127.066 -83.259 0.000
v -127.311 -70.890 0.000
v -217.925 -72.660 0.000
v -217.681 -85.029 9.900
v -127.066 -83.259 9.900
v -127.311 -70.890 9.900
v -217.925 -72.660 9.900
usemtl roof
f 103 104 105 106
usemtl teaching_building
f 102 101 100 99
f 99 100 104 103
f 100 101 105 104
f 101 102 106 105
f 102 99 103 106
