# school_id SD0314
# school_name 青岛青云韩国外籍人员子女学校
# boundary_source footprint_convex_hull_buffer_20m
# adjacent_block_merge_distance_m 2.0
mtllib ../campus_materials.mtl
o SD0314_campus_boundary
usemtl campus_boundary
v 49.519 -64.298 0.050
v -26.342 -63.066 0.050
v -75.951 -32.080 0.050
v -50.498 12.901 0.050
v -19.149 61.003 0.050
v -3.542 61.750 0.050
v 51.069 61.380 0.050
v 51.069 28.038 0.050
v 49.519 -64.298 0.050
l 1 2 3 4 5 6 7 8 9 1
o SD0314_T001_1hao
v -4.055 39.216 0.000
v -7.977 41.515 0.000
v -33.400 2.506 0.000
v -49.113 -25.262 0.000
v -20.460 -43.159 0.000
v 29.857 -43.976 0.000
v 29.579 -28.645 0.000
v -5.204 -28.932 0.000
v -5.671 -33.287 0.000
v -15.838 -33.066 0.000
v -28.779 -24.577 0.000
v -14.447 -1.396 0.000
v 29.453 -0.932 0.000
v 29.220 12.145 0.000
v 4.963 12.377 0.000
v 4.497 7.325 0.000
v -7.977 7.325 0.000
v 6.345 29.356 0.000
v 31.069 28.206 0.000
v 31.069 41.515 0.000
v -3.131 41.747 0.000
v -4.055 39.216 13.200
v -7.977 41.515 13.200
v -33.400 2.506 13.200
v -49.113 -25.262 13.200
v -20.460 -43.159 13.200
v 29.857 -43.976 13.200
v 29.579 -28.645 13.200
v -5.204 -28.932 13.200
v -5.671 -33.287 13.200
v -15.838 -33.066 13.200
v -28.779 -24.577 13.200
v -14.447 -1.396 13.200
v 29.453 -0.932 13.200
v 29.220 12.145 13.200
v 4.963 12.377 13.200
v 4.497 7.325 13.200
v -7.977 7.325 13.200
v 6.345 29.356 13.200
v 31.069 28.206 13.200
v 31.069 41.515 13.200
v -3.131 41.747 13.200
usemtl roof
f 31 32 33 34 35 36 37 38 39 40 41 42 43 44 45 46 47 48 49 50 51
usemtl teaching_building
f 30 29 28 27 26 25 24 23 22 21 20 19 18 17 16 15 14 13 12 11 10
f 10 11 32 31
f 11 12 33 32
f 12 13 34 33
f 13 14 35 34
f 14 15 36 35
f 15 16 37 36
f 16 17 38 37
f 17 18 39 38
f 18 19 40 39
f 19 20 41 40
f 20 21 42 41
f 21 22 43 42
f 22 23 44 43
f 23 24 45 44
f 24 25 46 45
f 25 26 47 46
f 26 27 48 47
f 27 28 49 48
f 28 29 50 49
f 29 30 51 50
f 30 10 31 51
