# school_id SD0300
# school_name 青岛第二十四中学
# boundary_source footprint_convex_hull_buffer_20m
# adjacent_block_merge_distance_m 2.0
mtllib ../campus_materials.mtl
o SD0300_campus_boundary
usemtl campus_boundary
v 23.580 -87.661 0.050
v -15.176 -82.676 0.050
v -61.637 -76.428 0.050
v -59.218 -37.569 0.050
v -53.400 50.676 0.050
v -41.127 99.407 0.050
v -0.846 108.494 0.050
v 16.692 111.414 0.050
v 39.368 91.323 0.050
v 79.429 -39.254 0.050
v 36.693 -83.109 0.050
v 23.580 -87.661 0.050
l 1 2 3 4 5 6 7 8 9 10 11 12 1
o SD0300_T001_1hao
v -4.559 21.882 0.000
v -7.295 24.392 0.000
v -33.563 47.550 0.000
v -26.418 54.436 0.000
v -24.735 82.602 0.000
v -19.066 81.773 0.000
v -19.272 79.264 0.000
v -12.334 78.435 0.000
v -9.815 75.715 0.000
v 3.000 88.859 0.000
v 6.365 86.150 0.000
v 10.568 90.119 0.000
v 21.897 80.082 0.000
v -10.445 46.721 0.000
v 2.586 35.236 0.000
v 1.080 33.583 0.000
v 17.083 18.411 0.000
v 8.885 10.408 0.000
v 5.519 13.338 0.000
v -20.325 -12.120 0.000
v -29.144 -3.365 0.000
v -4.559 21.882 24.960
v -7.295 24.392 24.960
v -33.563 47.550 24.960
v -26.418 54.436 24.960
v -24.735 82.602 24.960
v -19.066 81.773 24.960
v -19.272 79.264 24.960
v -12.334 78.435 24.960
v -9.815 75.715 24.960
v 3.000 88.859 24.960
v 6.365 86.150 24.960
v 10.568 90.119 24.960
v 21.897 80.082 24.960
v -10.445 46.721 24.960
v 2.586 35.236 24.960
v 1.080 33.583 24.960
v 17.083 18.411 24.960
v 8.885 10.408 24.960
v 5.519 13.338 24.960
v -20.325 -12.120 24.960
v -29.144 -3.365 24.960
usemtl roof
f 34 35 36 37 38 39 40 41 42 43 44 45 46 47 48 49 50 51 52 53 54
usemtl teaching_building
f 33 32 31 30 29 28 27 26 25 24 23 22 21 20 19 18 17 16 15 14 13
f 13 14 35 34
f 14 15 36 35
f 15 16 37 36
f 16 17 38 37
f 17 18 39 38
f 18 19 40 39
f 19 20 41 40
f 20 21 42 41
f 21 22 43 42
f 22 23 44 43
f 23 24 45 44
f 24 25 46 45
f 25 26 47 46
f 26 27 48 47
f 27 28 49 48
f 28 29 50 49
f 29 30 51 50
f 30 31 52 51
f 31 32 53 52
f 32 33 54 53
f 33 13 34 54
o SD0300_T002_2hao
v -10.472 -49.493 0.000
v 17.056 -53.042 0.000
v 21.465 -48.233 0.000
v 15.796 -42.607 0.000
v 13.276 -45.525 0.000
v -3.750 -30.503 0.000
v 10.118 -16.939 0.000
v 42.477 -47.614 0.000
v 25.668 -65.765 0.000
v 21.465 -67.224 0.000
v -12.568 -62.847 0.000
v -10.472 -49.493 22.750
v 17.056 -53.042 22.750
v 21.465 -48.233 22.750
v 15.796 -42.607 22.750
v 13.276 -45.525 22.750
v -3.750 -30.503 22.750
v 10.118 -16.939 22.750
v 42.477 -47.614 22.750
v 25.668 -65.765 22.750
v 21.465 -67.224 22.750
v -12.568 -62.847 22.750
usemtl roof
f 66 67 68 69 70 71 72 73 74 75 76
usemtl teaching_building
f 65 64 63 62 61 60 59 58 57 56 55
f 55 56 67 66
f 56 57 68 67
f 57 58 69 68
f 58 59 70 69
f 59 60 71 70
f 60 61 72 71
f 61 62 73 72
f 62 63 74 73
f 63 64 75 74
f 64 65 76 75
f 65 55 66 76
o SD0300_T003_3hao
v -35.893 -35.510 0.000
v -35.686 -38.848 0.000
v -39.259 -38.848 0.000
v -40.519 -59.088 0.000
v -25.176 -59.718 0.000
v -24.339 -35.720 0.000
v -35.893 -35.510 19.900
v -35.686 -38.848 19.900
v -39.259 -38.848 19.900
v -40.519 -59.088 19.900
v -25.176 -59.718 19.900
v -24.339 -35.720 19.900
usemtl roof
f 83 84 85 86 87 88
usemtl teaching_building
f 82 81 80 79 78 77
f 77 78 84 83
f 78 79 85 84
f 79 80 86 85
f 80 81 87 86
f 81 82 88 87
f 82 77 83 88
