# school_id SD0383
# school_name 滕州市育才中学
# boundary_source footprint_convex_hull_buffer_20m
# adjacent_block_merge_distance_m 2.0
mtllib ../campus_materials.mtl
o SD0383_campus_boundary
usemtl campus_boundary
v -10.636 -152.843 0.050
v -92.609 -90.360 0.050
v -108.714 -25.053 0.050
v -120.116 66.614 0.050
v -122.241 84.789 0.050
v -100.365 154.744 0.050
v -0.274 165.762 0.050
v 95.939 1.780 0.050
v 98.399 -18.960 0.050
v 98.158 -30.955 0.050
v 30.394 -148.697 0.050
v -10.636 -152.843 0.050
l 1 2 3 4 5 6 7 8 9 10 11 12 1
o SD0383_T001_1hao
v -10.966 144.464 0.000
v -6.786 107.047 0.000
v -81.008 98.889 0.000
v -85.179 136.295 0.000
v -10.966 144.464 29.420
v -6.786 107.047 29.420
v -81.008 98.889 29.420
v -85.179 136.295 29.420
usemtl roof
f 17 18 19 20
usemtl teaching_building
f 16 15 14 13
f 13 14 18 17
f 14 15 19 18
f 15 16 20 19
f 16 13 17 20
o SD0383_T002_2hao
v -23.379 96.578 0.000
v -21.284 78.295 0.000
v -47.740 75.299 0.000
v -49.826 93.594 0.000
v -23.379 96.578 12.800
v -21.284 78.295 12.800
v -47.740 75.299 12.800
v -49.826 93.594 12.800
usemtl roof
f 25 26 27 28
usemtl teaching_building
f 24 23 22 21
f 21 22 26 25
f 22 23 27 26
f 23 24 28 27
f 24 21 25 28
o SD0383_T003_3hao
v -60.790 87.614 0.000
v -59.169 73.741 0.000
v -100.260 69.010 0.000
v -101.882 82.883 0.000
v -60.790 87.614 17.920
v -59.169 73.741 17.920
v -100.260 69.010 17.920
v -101.882 82.883 17.920
usemtl roof
f 33 34 35 36
usemtl teaching_building
f 32 31 30 29
f 29 30 34 33
f 30 31 35 34
f 31 32 36 35
f 32 29 33 36
o SD0383_T004_4hao
v -18.953 56.010 0.000
v -17.259 39.252 0.000
v -48.724 36.312 0.000
v -50.581 52.849 0.000
v -18.953 56.010 15.790
v -17.259 39.252 15.790
v -48.724 36.312 15.790
v -50.581 52.849 15.790
usemtl roof
f 41 42 43 44
usemtl teaching_building
f 40 39 38 37
f 37 38 42 41
f 38 39 43 42
f 39 40 44 43
f 40 37 41 44
o SD0383_T005_5hao
v -58.769 51.987 0.000
v -57.057 34.842 0.000
v -95.197 30.608 0.000
v -96.672 48.261 0.000
v -58.769 51.987 15.790
v -57.057 34.842 15.790
v -95.197 30.608 15.790
v -96.672 48.261 15.790
usemtl roof
f 49 50 51 52
usemtl teaching_building
f 48 47 46 45
f 45 46 50 49
f 46 47 51 50
f 47 48 52 51
f 48 45 49 52
o SD0383_T006_6hao
v -55.071 23.180 0.000
v -53.341 7.671 0.000
v -92.055 3.426 0.000
v -93.785 18.924 0.000
v -55.071 23.180 10.750
v -53.341 7.671 10.750
v -92.055 3.426 10.750
v -93.785 18.924 10.750
usemtl roof
f 57 58 59 60
usemtl teaching_building
f 56 55 54 53
f 53 54 58 57
f 54 55 59 58
f 55 56 60 59
f 56 53 57 60
o SD0383_T007_7hao
v -13.734 18.935 0.000
v -10.529 -10.833 0.000
v -42.932 -14.271 0.000
v -46.137 15.497 0.000
v -13.734 18.935 8.240
v -10.529 -10.833 8.240
v -42.932 -14.271 8.240
v -46.137 15.497 8.240
usemtl roof
f 65 66 67 68
usemtl teaching_building
f 64 63 62 61
f 61 62 66 65
f 62 63 67 66
f 63 64 68 67
f 64 61 65 68
o SD0383_T008_8hao
v -51.501 -5.140 0.000
v -50.090 -16.736 0.000
v -89.013 -21.412 0.000
v -90.425 -9.816 0.000
v -51.501 -5.140 11.050
v -50.090 -16.736 11.050
v -89.013 -21.412 11.050
v -90.425 -9.816 11.050
usemtl roof
f 73 74 75 76
usemtl teaching_building
f 72 71 70 69
f 69 70 74 73
f 70 71 75 74
f 71 72 76 75
f 72 69 73 76
o SD0383_T009_9hao
v 12.030 -9.065 0.000
v 15.645 -7.583 0.000
v 19.361 -9.595 0.000
v 21.492 -12.867 0.000
v 34.998 -12.127 0.000
v 33.076 -9.374 0.000
v 35.417 -6.003 0.000
v 38.823 -6.788 0.000
v 39.296 -2.731 0.000
v 43.713 -0.619 0.000
v 48.075 -4.521 0.000
v 50.735 -3.206 0.000
v 53.658 -6.788 0.000
v 52.747 -9.595 0.000
v 67.319 -7.484 0.000
v 67.747 -3.991 0.000
v 71.681 -1.139 0.000
v 76.571 -4.731 0.000
v 76.143 -8.954 0.000
v 71.781 -13.287 0.000
v 73.593 -17.609 0.000
v 78.375 -19.942 0.000
v 78.265 -25.425 0.000
v 75.187 -27.646 0.000
v 69.550 -25.635 0.000
v 68.703 -20.892 0.000
v 63.384 -18.560 0.000
v 60.042 -21.633 0.000
v 54.186 -19.688 0.000
v 49.423 -23.203 0.000
v 44.414 -21.390 0.000
v 40.990 -24.662 0.000
v 35.253 -22.595 0.000
v 31.218 -25.878 0.000
v 26.583 -23.324 0.000
v 22.676 -26.596 0.000
v 22.302 -31.692 0.000
v 18.523 -34.732 0.000
v 13.878 -32.300 0.000
v 12.412 -27.447 0.000
v 17.539 -23.932 0.000
v 16.447 -18.593 0.000
v 10.946 -16.416 0.000
v 11.192 -10.955 0.000
v 12.030 -9.065 11.980
v 15.645 -7.583 11.980
v 19.361 -9.595 11.980
v 21.492 -12.867 11.980
v 34.998 -12.127 11.980
v 33.076 -9.374 11.980
v 35.417 -6.003 11.980
v 38.823 -6.788 11.980
v 39.296 -2.731 11.980
v 43.713 -0.619 11.980
v 48.075 -4.521 11.980
v 50.735 -3.206 11.980
v 53.658 -6.788 11.980
v 52.747 -9.595 11.980
v 67.319 -7.484 11.980
v 67.747 -3.991 11.980
v 71.681 -1.139 11.980
v 76.571 -4.731 11.980
v 76.143 -8.954 11.980
v 71.781 -13.287 11.980
v 73.593 -17.609 11.980
v 78.375 -19.942 11.980
v 78.265 -25.425 11.980
v 75.187 -27.646 11.980
v 69.550 -25.635 11.980
v 68.703 -20.892 11.980
v 63.384 -18.560 11.980
v 60.042 -21.633 11.980
v 54.186 -19.688 11.980
v 49.423 -23.203 11.980
v 44.414 -21.390 11.980
v 40.990 -24.662 11.980
v 35.253 -22.595 11.980
v 31.218 -25.878 11.980
v 26.583 -23.324 11.980
v 22.676 -26.596 11.980
v 22.302 -31.692 11.980
v 18.523 -34.732 11.980
v 13.878 -32.300 11.980
v 12.412 -27.447 11.980
v 17.539 -23.932 11.980
v 16.447 -18.593 11.980
v 10.946 -16.416 11.980
v 11.192 -10.955 11.980
usemtl roof
f 121 122 123 124 125 126 127 128 129 130 131 132 133 134 135 136 137 138 139 140 141 142 143 144 145 146 147 148 149 150 151 152 153 154 155 156 157 158 159 160 161 162 163 164
usemtl teaching_building
f 120 119 118 117 116 115 114 113 112 111 110 109 108 107 106 105 104 103 102 101 100 99 98 97 96 95 94 93 92 91 90 89 88 87 86 85 84 83 82 81 80 79 78 77
f 77 78 122 121
f 78 79 123 122
f 79 80 124 123
f 80 81 125 124
f 81 82 126 125
f 82 83 127 126
f 83 84 128 127
f 84 85 129 128
f 85 86 130 129
f 86 87 131 130
f 87 88 132 131
f 88 89 133 132
f 89 90 134 133
f 90 91 135 134
f 91 92 136 135
f 92 93 137 136
f 93 94 138 137
f 94 95 139 138
f 95 96 140 139
f 96 97 141 140
f 97 98 142 141
f 98 99 143 142
f 99 100 144 143
f 100 101 145 144
f 101 102 146 145
f 102 103 147 146
f 103 104 148 147
f 104 105 149 148
f 105 106 150 149
f 106 107 151 150
f 107 108 152 151
f 108 109 153 152
f 109 110 154 153
f 110 111 155 154
f 111 112 156 155
f 112 113 157 156
f 113 114 158 157
f 114 115 159 158
f 115 116 160 159
f 116 117 161 160
f 117 118 162 161
f 118 119 163 162
f 119 120 164 163
f 120 77 121 164
o SD0383_T010_10hao
v -4.764 -45.454 0.000
v -2.496 -70.558 0.000
v -74.879 -78.727 0.000
v -77.365 -53.844 0.000
v -4.764 -45.454 11.700
v -2.496 -70.558 11.700
v -74.879 -78.727 11.700
v -77.365 -53.844 11.700
usemtl roof
f 169 170 171 172
usemtl teaching_building
f 168 167 166 165
f 165 166 170 169
f 166 167 171 170
f 167 168 172 171
f 168 165 169 172
o SD0383_T011_11hao
v 12.640 -77.666 0.000
v 18.177 -129.830 0.000
v -4.791 -132.151 0.000
v -5.857 -121.804 0.000
v 7.540 -120.113 0.000
v 3.278 -78.362 0.000
v 12.640 -77.666 9.620
v 18.177 -129.830 9.620
v -4.791 -132.151 9.620
v -5.857 -121.804 9.620
v 7.540 -120.113 9.620
v 3.278 -78.362 9.620
usemtl roof
f 179 180 181 182 183 184
usemtl teaching_building
f 178 177 176 175 174 173
f 173 174 180 179
f 174 175 181 180
f 175 176 182 181
f 176 177 183 182
f 177 178 184 183
f 178 173 179 184
