# school_id SD0312
# school_name 青岛遵义路小学
# boundary_source footprint_convex_hull_buffer_20m
# adjacent_block_merge_distance_m 2.0
mtllib ../campus_materials.mtl
o SD0312_campus_boundary
usemtl campus_boundary
v -46.236 -37.593 0.050
v -57.075 17.136 0.050
v 46.236 37.593 0.050
v 57.075 -17.136 0.050
v -46.236 -37.593 0.050
l 1 2 3 4 5 1
o SD0312_T001_1hao
v -33.570 1.402 0.000
v 30.502 14.089 0.000
v 33.570 -1.402 0.000
v -30.502 -14.089 0.000
v -33.570 1.402 9.300
v 30.502 14.089 9.300
v 33.570 -1.402 9.300
v -30.502 -14.089 9.300
usemtl roof
f 10 11 12 13
usemtl teaching_building
f 9 8 7 6
f 6 7 11 10
f 7 8 12 11
f 8 9 13 12
f 9 6 10 13
