# school_id SD0328
# school_name 张店建桥实验学校
# boundary_source footprint_convex_hull_buffer_20m
# adjacent_block_merge_distance_m 2.0
mtllib ../campus_materials.mtl
o SD0328_campus_boundary
usemtl campus_boundary
v 65.849 -63.821 0.050
v -86.961 -53.640 0.050
v -84.959 54.677 0.050
v 46.496 45.917 0.050
v 67.750 26.232 0.050
v 65.849 -63.821 0.050
l 1 2 3 4 5 6 1
o SD0328_T001_1hao
v 46.295 -42.474 0.000
v 47.565 17.667 0.000
v 38.101 26.432 0.000
v -65.350 33.326 0.000
v -66.612 -34.951 0.000
v 46.295 -42.474 99.000
v 47.565 17.667 99.000
v 38.101 26.432 99.000
v -65.350 33.326 99.000
v -66.612 -34.951 99.000
usemtl roof
f 12 13 14 15 16
usemtl teaching_building
f 11 10 9 8 7
f 7 8 13 12
f 8 9 14 13
f 9 10 15 14
f 10 11 16 15
f 11 7 12 16
