# school_id SD0317
# school_name 黄岛区实验中学
# boundary_source footprint_convex_hull_buffer_20m
# adjacent_block_merge_distance_m 2.0
mtllib ../campus_materials.mtl
o SD0317_campus_boundary
usemtl campus_boundary
v -77.088 -141.408 0.050
v -103.397 38.951 0.050
v -106.766 64.627 0.050
v -62.647 118.115 0.050
v 33.288 131.534 0.050
v 87.403 88.547 0.050
v 91.199 62.738 0.050
v 96.367 19.749 0.050
v 111.171 -116.657 0.050
v -77.088 -141.408 0.050
l 1 2 3 4 5 6 7 8 9 10 1
o SD0317_T001_1hao
v -52.170 99.386 0.000
v 27.564 110.539 0.000
v 31.326 84.032 0.000
v -48.409 72.867 0.000
v -52.170 99.386 9.440
v 27.564 110.539 9.440
v 31.326 84.032 9.440
v -48.409 72.867 9.440
usemtl roof
f 15 16 17 18
usemtl teaching_building
f 14 13 12 11
f 11 12 16 15
f 12 13 17 16
f 13 14 18 17
f 14 11 15 18
o SD0317_T002_2hao
v 28.006 53.788 0.000
v 71.373 60.089 0.000
v 68.767 77.808 0.000
v 25.400 71.508 0.000
v 28.006 53.788 16.140
v 71.373 60.089 16.140
v 68.767 77.808 16.140
v 25.400 71.508 16.140
usemtl roof
f 23 24 25 26
usemtl teaching_building
f 22 21 20 19
f 19 20 24 23
f 20 21 25 24
f 21 22 26 25
f 22 19 23 26
o SD0317_T003_3hao
v -85.805 58.608 0.000
v -47.200 63.604 0.000
v -44.981 46.703 0.000
v -83.586 41.695 0.000
v -85.805 58.608 21.210
v -47.200 63.604 21.210
v -44.981 46.703 21.210
v -83.586 41.695 21.210
usemtl roof
f 31 32 33 34
usemtl teaching_building
f 30 29 28 27
f 27 28 32 31
f 28 29 33 32
f 29 30 34 33
f 30 27 31 34
o SD0317_T004_4hao
v 33.662 12.402 0.000
v 76.496 17.476 0.000
v 74.593 33.294 0.000
v 31.759 28.220 0.000
v 33.662 12.402 21.140
v 76.496 17.476 21.140
v 74.593 33.294 21.140
v 31.759 28.220 21.140
usemtl roof
f 39 40 41 42
usemtl teaching_building
f 38 37 36 35
f 35 36 40 39
f 36 37 41 40
f 37 38 42 41
f 38 35 39 42
o SD0317_T005_5hao
v -78.327 16.536 0.000
v -37.892 21.477 0.000
v -35.610 3.039 0.000
v -76.045 -1.902 0.000
v -78.327 16.536 20.540
v -37.892 21.477 20.540
v -35.610 3.039 20.540
v -76.045 -1.902 20.540
usemtl roof
f 47 48 49 50
usemtl teaching_building
f 46 45 44 43
f 43 44 48 47
f 44 45 49 48
f 45 46 50 49
f 46 43 47 50
o SD0317_T006_6hao
v -22.405 -21.291 0.000
v 23.523 -15.012 0.000
v 20.890 4.001 0.000
v -25.039 -2.278 0.000
v -22.405 -21.291 36.830
v 23.523 -15.012 36.830
v 20.890 4.001 36.830
v -25.039 -2.278 36.830
usemtl roof
f 55 56 57 58
usemtl teaching_building
f 54 53 52 51
f 51 52 56 55
f 52 53 57 56
f 53 54 58 57
f 54 51 55 58
o SD0317_T007_7hao
v -46.073 -63.152 0.000
v 61.046 -50.971 0.000
v 58.791 -31.482 0.000
v -48.319 -43.664 0.000
v -46.073 -63.152 24.430
v 61.046 -50.971 24.430
v 58.791 -31.482 24.430
v -48.319 -43.664 24.430
usemtl roof
f 63 64 65 66
usemtl teaching_building
f 62 61 60 59
f 59 60 64 63
f 60 61 65 64
f 61 62 66 65
f 62 59 63 66
o SD0317_T008_8hao
v -44.945 -92.390 0.000
v -43.502 -103.234 0.000
v 68.658 -88.488 0.000
v 67.026 -76.240 0.000
v 85.769 -73.775 0.000
v 89.178 -99.376 0.000
v -60.144 -119.008 0.000
v -63.373 -94.811 0.000
v -44.945 -92.390 33.470
v -43.502 -103.234 33.470
v 68.658 -88.488 33.470
v 67.026 -76.240 33.470
v 85.769 -73.775 33.470
v 89.178 -99.376 33.470
v -60.144 -119.008 33.470
v -63.373 -94.811 33.470
usemtl roof
f 75 76 77 78 79 80 81 82
usemtl teaching_building
f 74 73 72 71 70 69 68 67
f 67 68 76 75
f 68 69 77 76
f 69 70 78 77
f 70 71 79 78
f 71 72 80 79
f 72 73 81 80
f 73 74 82 81
f 74 67 75 82
