# school_id SD0374
# school_name 滕州市北辛街道中心小学
# boundary_source footprint_convex_hull_buffer_20m
# adjacent_block_merge_distance_m 2.0
mtllib ../campus_materials.mtl
o SD0374_campus_boundary
usemtl campus_boundary
v -42.830 -41.779 0.050
v -50.650 31.997 0.050
v 42.830 41.770 0.050
v 50.650 -31.988 0.050
v -42.830 -41.779 0.050
l 1 2 3 4 5 1
o SD0374_T001_1hao
v -25.047 -19.807 0.000
v 28.650 -14.183 0.000
v 25.047 19.802 0.000
v -28.650 14.188 0.000
v -25.047 -19.807 9.900
v 28.650 -14.183 9.900
v 25.047 19.802 9.900
v -28.650 14.188 9.900
usemtl roof
f 10 11 12 13
usemtl teaching_building
f 9 8 7 6
f 6 7 11 10
f 7 8 12 11
f 8 9 13 12
f 9 6 10 13
