# school_id SD0322
# school_name 周村区第三中学
# boundary_source footprint_convex_hull_buffer_20m
# adjacent_block_merge_distance_m 2.0
mtllib ../campus_materials.mtl
o SD0322_campus_boundary
usemtl campus_boundary
v 80.123 -80.337 0.050
v -87.581 -72.135 0.050
v -85.737 -34.424 0.050
v -81.969 42.626 0.050
v -80.123 80.337 0.050
v -42.413 78.493 0.050
v 87.581 72.135 0.050
v 85.737 34.424 0.050
v 81.969 -42.626 0.050
v 80.123 -80.337 0.050
l 1 2 3 4 5 6 7 8 9 10 1
o SD0322_T001_1hao
v 61.125 -59.384 0.000
v -66.628 -53.136 0.000
v -65.761 -35.401 0.000
v -65.761 -35.401 0.000
v -61.992 41.649 0.000
v -61.993 41.649 0.000
v -61.125 59.384 0.000
v -43.390 58.517 0.000
v -43.390 58.517 0.000
v 66.628 53.136 0.000
v 65.761 35.401 0.000
v -44.257 40.782 0.000
v -45.708 11.124 0.000
v 54.729 6.212 0.000
v 53.862 -11.523 0.000
v -46.575 -6.611 0.000
v -48.026 -36.268 0.000
v 61.993 -41.649 0.000
v 61.125 -59.384 17.310
v -66.628 -53.136 17.310
v -65.761 -35.401 17.310
v -65.761 -35.401 17.310
v -61.992 41.649 17.310
v -61.993 41.649 17.310
v -61.125 59.384 17.310
v -43.390 58.517 17.310
v -43.390 58.517 17.310
v 66.628 53.136 17.310
v 65.761 35.401 17.310
v -44.257 40.782 17.310
v -45.708 11.124 17.310
v 54.729 6.212 17.310
v 53.862 -11.523 17.310
v -46.575 -6.611 17.310
v -48.026 -36.268 17.310
v 61.993 -41.649 17.310
usemtl roof
f 29 30 31 32 33 34 35 36 37 38 39 40 41 42 43 44 45 46
usemtl teaching_building
f 28 27 26 25 24 23 22 21 20 19 18 17 16 15 14 13 12 11
f 11 12 30 29
f 12 13 31 30
f 13 14 32 31
f 14 15 33 32
f 15 16 34 33
f 16 17 35 34
f 17 18 36 35
f 18 19 37 36
f 19 20 38 37
f 20 21 39 38
f 21 22 40 39
f 22 23 41 40
f 23 24 42 41
f 24 25 43 42
f 25 26 44 43
f 26 27 45 44
f 27 28 46 45
f 28 11 29 46
