# school_id SD0309
# school_name 青岛莱芜一路小学
# boundary_source footprint_convex_hull_buffer_20m
# adjacent_block_merge_distance_m 2.0
mtllib ../campus_materials.mtl
o SD0309_campus_boundary
usemtl campus_boundary
v 33.454 -45.683 0.050
v -68.509 -11.084 0.050
v -18.830 57.693 0.050
v 7.773 38.738 0.050
v 46.429 -8.181 0.050
v 33.454 -45.683 0.050
l 1 2 3 4 5 6 1
o SD0309_T001_1hao
v -14.253 29.874 0.000
v -5.984 23.982 0.000
v -2.619 10.629 0.000
v -3.375 8.463 0.000
v 4.183 5.887 0.000
v 2.797 1.897 0.000
v 11.696 -1.143 0.000
v 10.311 -5.145 0.000
v 18.157 -7.820 0.000
v 17.392 -10.031 0.000
v 23.861 -12.242 0.000
v 21.054 -20.355 0.000
v 3.661 -14.408 0.000
v 5.587 -8.881 0.000
v -2.871 -5.985 0.000
v -1.737 -2.713 0.000
v -10.060 0.128 0.000
v -9.152 2.770 0.000
v -16.278 5.213 0.000
v -15.927 0.725 0.000
v -36.442 -0.845 0.000
v -14.253 29.874 19.280
v -5.984 23.982 19.280
v -2.619 10.629 19.280
v -3.375 8.463 19.280
v 4.183 5.887 19.280
v 2.797 1.897 19.280
v 11.696 -1.143 19.280
v 10.311 -5.145 19.280
v 18.157 -7.820 19.280
v 17.392 -10.031 19.280
v 23.861 -12.242 19.280
v 21.054 -20.355 19.280
v 3.661 -14.408 19.280
v 5.587 -8.881 19.280
v -2.871 -5.985 19.280
v -1.737 -2.713 19.280
v -10.060 0.128 19.280
v -9.152 2.770 19.280
v -16.278 5.213 19.280
v -15.927 0.725 19.280
v -36.442 -0.845 19.280
usemtl roof
f 28 29 30 31 32 33 34 35 36 37 38 39 40 41 42 43 44 45 46 47 48
usemtl teaching_building
f 27 26 25 24 23 22 21 20 19 18 17 16 15 14 13 12 11 10 9 8 7
f 7 8 29 28
f 8 9 30 29
f 9 10 31 30
f 10 11 32 31
f 11 12 33 32
f 12 13 34 33
f 13 14 35 34
f 14 15 36 35
f 15 16 37 36
f 16 17 38 37
f 17 18 39 38
f 18 19 40 39
f 19 20 41 40
f 20 21 42 41
f 21 22 43 42
f 22 23 44 43
f 23 24 45 44
f 24 25 46 45
f 25 26 47 46
f 26 27 48 47
f 27 7 28 48
