# school_id SD0388
# school_name 薛城区奚仲中学
# boundary_source footprint_convex_hull_buffer_20m
# adjacent_block_merge_distance_m 2.0
mtllib ../campus_materials.mtl
o SD0388_campus_boundary
usemtl campus_boundary
v 2.453 -70.596 0.050
v -77.140 -63.288 0.050
v -83.443 -5.315 0.050
v -80.109 32.713 0.050
v 37.809 75.286 0.050
v 106.669 67.644 0.050
v 101.213 19.260 0.050
v 2.453 -70.596 0.050
l 1 2 3 4 5 6 7 8 1
o SD0388_T001_1hao
v 40.226 54.895 0.000
v 37.859 33.915 0.000
v 82.183 28.985 0.000
v 84.550 49.976 0.000
v 40.226 54.895 18.660
v 37.859 33.915 18.660
v 82.183 28.985 18.660
v 84.550 49.976 18.660
usemtl roof
f 13 14 15 16
usemtl teaching_building
f 12 11 10 9
f 9 10 14 13
f 10 11 15 14
f 11 12 16 15
f 12 9 13 16
o SD0388_T002_2hao
v 22.082 -3.072 0.000
v 13.910 -2.364 0.000
v 13.087 -11.727 0.000
v 2.804 -10.843 0.000
v 3.681 -0.861 0.000
v -37.023 2.654 0.000
v -37.891 -7.317 0.000
v -63.348 -5.106 0.000
v -61.301 18.240 0.000
v 23.307 10.912 0.000
v 22.082 -3.072 19.730
v 13.910 -2.364 19.730
v 13.087 -11.727 19.730
v 2.804 -10.843 19.730
v 3.681 -0.861 19.730
v -37.023 2.654 19.730
v -37.891 -7.317 19.730
v -63.348 -5.106 19.730
v -61.301 18.240 19.730
v 23.307 10.912 19.730
usemtl roof
f 27 28 29 30 31 32 33 34 35 36
usemtl teaching_building
f 26 25 24 23 22 21 20 19 18 17
f 17 18 28 27
f 18 19 29 28
f 19 20 30 29
f 20 21 31 30
f 21 22 32 31
f 22 23 33 32
f 23 24 34 33
f 24 25 35 34
f 25 26 36 35
f 26 17 27 36
o SD0388_T003_3hao
v -57.571 -29.270 0.000
v -59.025 -44.867 0.000
v -4.491 -49.874 0.000
v -3.037 -34.277 0.000
v -57.571 -29.270 12.500
v -59.025 -44.867 12.500
v -4.491 -49.874 12.500
v -3.037 -34.277 12.500
usemtl roof
f 41 42 43 44
usemtl teaching_building
f 40 39 38 37
f 37 38 42 41
f 38 39 43 42
f 39 40 44 43
f 40 37 41 44
