# school_id SD0365
# school_name 枣庄市第八中学西校
# boundary_source footprint_convex_hull_buffer_20m
# adjacent_block_merge_distance_m 2.0
mtllib ../campus_materials.mtl
o SD0365_campus_boundary
usemtl campus_boundary
v -8.451 -143.097 0.050
v -66.533 -133.763 0.050
v -105.226 14.719 0.050
v -108.682 31.929 0.050
v 7.297 254.757 0.050
v 97.826 253.185 0.050
v 133.266 92.496 0.050
v 133.469 58.704 0.050
v 74.581 -141.319 0.050
v -8.451 -143.097 0.050
l 1 2 3 4 5 6 7 8 9 10 1
o SD0365_T001_1hao
v 81.695 233.462 0.000
v 19.324 234.545 0.000
v 18.912 211.420 0.000
v 36.308 211.100 0.000
v 36.464 219.998 0.000
v 64.784 219.512 0.000
v 64.628 210.558 0.000
v 81.284 210.249 0.000
v 81.695 233.462 12.320
v 19.324 234.545 12.320
v 18.912 211.420 12.320
v 36.308 211.100 12.320
v 36.464 219.998 12.320
v 64.784 219.512 12.320
v 64.628 210.558 12.320
v 81.284 210.249 12.320
usemtl roof
f 19 20 21 22 23 24 25 26
usemtl teaching_building
f 18 17 16 15 14 13 12 11
f 11 12 20 19
f 12 13 21 20
f 13 14 22 21
f 14 15 23 22
f 15 16 24 23
f 16 17 25 24
f 17 18 26 25
f 18 11 19 26
o SD0365_T002_2hao
v 113.279 90.257 0.000
v 113.452 61.528 0.000
v 96.623 61.429 0.000
v 96.449 90.158 0.000
v 113.279 90.257 8.040
v 113.452 61.528 8.040
v 96.623 61.429 8.040
v 96.449 90.158 8.040
usemtl roof
f 31 32 33 34
usemtl teaching_building
f 30 29 28 27
f 27 28 32 31
f 28 29 33 32
f 29 30 34 33
f 30 27 31 34
o SD0365_T003_3hao
v 52.964 66.735 0.000
v 53.019 61.384 0.000
v 17.943 61.031 0.000
v 17.898 65.441 0.000
v -12.516 65.143 0.000
v -12.580 71.853 0.000
v -17.114 71.808 0.000
v -17.242 84.321 0.000
v 15.887 84.642 0.000
v 15.941 79.391 0.000
v 56.255 79.800 0.000
v 56.383 66.768 0.000
v 52.964 66.735 11.110
v 53.019 61.384 11.110
v 17.943 61.031 11.110
v 17.898 65.441 11.110
v -12.516 65.143 11.110
v -12.580 71.853 11.110
v -17.114 71.808 11.110
v -17.242 84.321 11.110
v 15.887 84.642 11.110
v 15.941 79.391 11.110
v 56.255 79.800 11.110
v 56.383 66.768 11.110
usemtl roof
f 47 48 49 50 51 52 53 54 55 56 57 58
usemtl teaching_building
f 46 45 44 43 42 41 40 39 38 37 36 35
f 35 36 48 47
f 36 37 49 48
f 37 38 50 49
f 38 39 51 50
f 39 40 52 51
f 40 41 53 52
f 41 42 54 53
f 42 43 55 54
f 43 44 56 55
f 44 45 57 56
f 45 46 58 57
f 46 35 47 58
o SD0365_T004_4hao
v -50.909 33.816 0.000
v -54.831 42.582 0.000
v -58.999 44.770 0.000
v -65.133 45.013 0.000
v -69.055 43.311 0.000
v -73.470 38.447 0.000
v -75.399 32.965 0.000
v -87.685 28.952 0.000
v -84.741 22.132 0.000
v -85.729 19.213 0.000
v -84.257 16.284 0.000
v -82.045 15.555 0.000
v -80.088 9.961 0.000
v -69.055 14.095 0.000
v -63.168 14.339 0.000
v -58.021 14.339 0.000
v -43.797 10.934 0.000
v -42.079 15.311 0.000
v -39.382 15.798 0.000
v -38.404 18.484 0.000
v -39.135 20.916 0.000
v -36.439 28.952 0.000
v -50.909 33.816 8.070
v -54.831 42.582 8.070
v -58.999 44.770 8.070
v -65.133 45.013 8.070
v -69.055 43.311 8.070
v -73.470 38.447 8.070
v -75.399 32.965 8.070
v -87.685 28.952 8.070
v -84.741 22.132 8.070
v -85.729 19.213 8.070
v -84.257 16.284 8.070
v -82.045 15.555 8.070
v -80.088 9.961 8.070
v -69.055 14.095 8.070
v -63.168 14.339 8.070
v -58.021 14.339 8.070
v -43.797 10.934 8.070
v -42.079 15.311 8.070
v -39.382 15.798 8.070
v -38.404 18.484 8.070
v -39.135 20.916 8.070
v -36.439 28.952 8.070
usemtl roof
f 81 82 83 84 85 86 87 88 89 90 91 92 93 94 95 96 97 98 99 100 101 102
usemtl teaching_building
f 80 79 78 77 76 75 74 73 72 71 70 69 68 67 66 65 64 63 62 61 60 59
f 59 60 82 81
f 60 61 83 82
f 61 62 84 83
f 62 63 85 84
f 63 64 86 85
f 64 65 87 86
f 65 66 88 87
f 66 67 89 88
f 67 68 90 89
f 68 69 91 90
f 69 70 92 91
f 70 71 93 92
f 71 72 94 93
f 72 73 95 94
f 73 74 96 95
f 74 75 97 96
f 75 76 98 97
f 76 77 99 98
f 77 78 100 99
f 78 79 101 100
f 79 80 102 101
f 80 59 81 102
o SD0365_T005_5hao
v -12.461 44.107 0.000
v 56.675 45.334 0.000
v 57.407 5.208 0.000
v -11.739 3.970 0.000
v -12.461 44.107 7.860
v 56.675 45.334 7.860
v 57.407 5.208 7.860
v -11.739 3.970 7.860
usemtl roof
f 107 108 109 110
usemtl teaching_building
f 106 105 104 103
f 103 104 108 107
f 104 105 109 108
f 105 106 110 109
f 106 103 107 110
o SD0365_T006_6hao
v -34.245 -20.050 0.000
v -12.607 -19.542 0.000
v -11.574 -17.397 0.000
v -8.292 -17.320 0.000
v -7.003 -19.420 0.000
v 31.500 -18.514 0.000
v 32.570 -16.414 0.000
v 35.970 -16.292 0.000
v 36.921 -18.381 0.000
v 59.445 -17.873 0.000
v 59.719 -29.667 0.000
v 36.555 -30.198 0.000
v 36.610 -32.707 0.000
v 32.067 -32.807 0.000
v 32.012 -30.297 0.000
v -7.250 -31.138 0.000
v -7.195 -33.702 0.000
v -11.830 -33.791 0.000
v -11.885 -31.248 0.000
v -33.970 -31.757 0.000
v -34.245 -20.050 10.800
v -12.607 -19.542 10.800
v -11.574 -17.397 10.800
v -8.292 -17.320 10.800
v -7.003 -19.420 10.800
v 31.500 -18.514 10.800
v 32.570 -16.414 10.800
v 35.970 -16.292 10.800
v 36.921 -18.381 10.800
v 59.445 -17.873 10.800
v 59.719 -29.667 10.800
v 36.555 -30.198 10.800
v 36.610 -32.707 10.800
v 32.067 -32.807 10.800
v 32.012 -30.297 10.800
v -7.250 -31.138 10.800
v -7.195 -33.702 10.800
v -11.830 -33.791 10.800
v -11.885 -31.248 10.800
v -33.970 -31.757 10.800
usemtl roof
f 131 132 133 134 135 136 137 138 139 140 141 142 143 144 145 146 147 148 149 150
usemtl teaching_building
f 130 129 128 127 126 125 124 123 122 121 120 119 118 117 116 115 114 113 112 111
f 111 112 132 131
f 112 113 133 132
f 113 114 134 133
f 114 115 135 134
f 115 116 136 135
f 116 117 137 136
f 117 118 138 137
f 118 119 139 138
f 119 120 140 139
f 120 121 141 140
f 121 122 142 141
f 122 123 143 142
f 123 124 144 143
f 124 125 145 144
f 125 126 146 145
f 126 127 147 146
f 127 128 148 147
f 128 129 149 148
f 129 130 150 149
f 130 111 131 150
o SD0365_T007_7hao
v -7.067 -123.063 0.000
v 59.527 -121.637 0.000
v 59.335 -101.275 0.000
v -0.723 -102.204 0.000
v -0.842 -99.617 0.000
v -7.013 -99.639 0.000
v -7.049 -89.867 0.000
v 2.979 -90.033 0.000
v 2.814 -80.129 0.000
v -7.104 -80.007 0.000
v -7.150 -76.359 0.000
v 19.945 -75.984 0.000
v 24.306 -71.573 0.000
v 32.953 -71.750 0.000
v 32.771 -76.359 0.000
v 40.678 -76.260 0.000
v 40.833 -74.834 0.000
v 58.686 -74.414 0.000
v 58.558 -60.751 0.000
v 33.072 -60.740 0.000
v 31.655 -59.182 0.000
v 30.805 -60.740 0.000
v 25.403 -60.740 0.000
v 25.403 -64.653 0.000
v 16.389 -64.653 0.000
v 16.316 -66.190 0.000
v -49.529 -66.234 0.000
v -49.520 -68.909 0.000
v -53.624 -68.688 0.000
v -53.862 -71.551 0.000
v -51.887 -71.573 0.000
v -51.924 -77.133 0.000
v -50.717 -77.144 0.000
v -50.471 -116.088 0.000
v -7.232 -115.457 0.000
v -7.067 -123.063 10.970
v 59.527 -121.637 10.970
v 59.335 -101.275 10.970
v -0.723 -102.204 10.970
v -0.842 -99.617 10.970
v -7.013 -99.639 10.970
v -7.049 -89.867 10.970
v 2.979 -90.033 10.970
v 2.814 -80.129 10.970
v -7.104 -80.007 10.970
v -7.150 -76.359 10.970
v 19.945 -75.984 10.970
v 24.306 -71.573 10.970
v 32.953 -71.750 10.970
v 32.771 -76.359 10.970
v 40.678 -76.260 10.970
v 40.833 -74.834 10.970
v 58.686 -74.414 10.970
v 58.558 -60.751 10.970
v 33.072 -60.740 10.970
v 31.655 -59.182 10.970
v 30.805 -60.740 10.970
v 25.403 -60.740 10.970
v 25.403 -64.653 10.970
v 16.389 -64.653 10.970
v 16.316 -66.190 10.970
v -49.529 -66.234 10.970
v -49.520 -68.909 10.970
v -53.624 -68.688 10.970
v -53.862 -71.551 10.970
v -51.887 -71.573 10.970
v -51.924 -77.133 10.970
v -50.717 -77.144 10.970
v -50.471 -116.088 10.970
v -7.232 -115.457 10.970
usemtl roof
f 186 187 188 189 190 191 192 193 194 195 196 197 198 199 200 201 202 203 204 205 206 207 208 209 210 211 212 213 214 215 216 217 218 219 220
usemtl teaching_building
f 185 184 183 182 181 180 179 178 177 176 175 174 173 172 171 170 169 168 167 166 165 164 163 162 161 160 159 158 157 156 155 154 153 152 151
f 151 152 187 186
f 152 153 188 187
f 153 154 189 188
f 154 155 190 189
f 155 156 191 190
f 156 157 192 191
f 157 158 193 192
f 158 159 194 193
f 159 160 195 194
f 160 161 196 195
f 161 162 197 196
f 162 163 198 197
f 163 164 199 198
f 164 165 200 199
f 165 166 201 200
f 166 167 202 201
f 167 168 203 202
f 168 169 204 203
f 169 170 205 204
f 170 171 206 205
f 171 172 207 206
f 172 173 208 207
f 173 174 209 208
f 174 175 210 209
f 175 176 211 210
f 176 177 212 211
f 177 178 213 212
f 178 179 214 213
f 179 180 215 214
f 180 181 216 215
f 181 182 217 216
f 182 183 218 217
f 183 184 219 218
f 184 185 220 219
f 185 151 186 220
