# school_id SD0327
# school_name 张店区齐润小学
# boundary_source footprint_convex_hull_buffer_20m
# adjacent_block_merge_distance_m 2.0
mtllib ../campus_materials.mtl
o SD0327_campus_boundary
usemtl campus_boundary
v 78.740 -285.399 0.050
v -13.170 -274.817 0.050
v -391.822 2.284 0.050
v -386.169 54.071 0.050
v -187.023 199.521 0.050
v -85.718 189.371 0.050
v 48.422 166.410 0.050
v 75.365 148.509 0.050
v 89.219 138.632 0.050
v 97.790 126.357 0.050
v 107.592 111.247 0.050
v 134.387 -4.679 0.050
v 134.387 -46.977 0.050
v 132.324 -71.121 0.050
v 78.740 -285.399 0.050
l 1 2 3 4 5 6 7 8 9 10 11 12 13 14 15 1
o SD0327_T001_1hao
v -88.405 169.540 0.000
v -93.975 124.705 0.000
v -186.298 135.040 0.000
v -181.405 178.858 0.000
v -88.405 169.540 13.200
v -93.975 124.705 13.200
v -186.298 135.040 13.200
v -181.405 178.858 13.200
usemtl roof
f 20 21 22 23
usemtl teaching_building
f 19 18 17 16
f 16 17 21 20
f 17 18 22 21
f 18 19 23 22
f 19 16 20 23
o SD0327_T002_2hao
v -64.065 90.227 0.000
v -58.459 102.387 0.000
v -53.156 110.434 0.000
v -56.195 113.009 0.000
v -52.782 117.641 0.000
v -56.721 121.864 0.000
v -45.518 130.165 0.000
v -46.864 132.354 0.000
v -35.857 136.986 0.000
v -36.651 139.329 0.000
v -24.236 142.966 0.000
v -23.434 140.357 0.000
v -11.037 146.293 0.000
v 1.280 148.681 0.000
v 1.441 152.163 0.000
v 40.878 147.410 0.000
v 40.129 143.430 0.000
v 51.938 137.660 0.000
v 62.232 129.712 0.000
v 64.023 132.033 0.000
v 74.798 124.351 0.000
v 73.203 122.405 0.000
v 81.197 115.187 0.000
v 79.718 113.529 0.000
v 88.898 103.315 0.000
v 84.085 101.403 0.000
v 86.144 95.765 0.000
v 82.704 93.775 0.000
v 86.313 83.329 0.000
v 88.202 73.867 0.000
v 88.452 63.167 0.000
v 69.210 65.599 0.000
v 68.381 75.536 0.000
v 63.890 85.938 0.000
v 52.304 104.056 0.000
v 41.582 105.426 0.000
v 40.495 93.024 0.000
v 45.904 86.402 0.000
v 37.473 80.699 0.000
v 27.670 76.830 0.000
v 17.839 76.244 0.000
v 6.031 77.714 0.000
v -4.023 81.892 0.000
v -11.242 87.629 0.000
v -17.355 95.168 0.000
v -10.894 100.386 0.000
v -9.477 112.468 0.000
v -21.286 113.430 0.000
v -29.316 106.609 0.000
v -37.061 98.496 0.000
v -43.335 88.149 0.000
v -46.686 80.533 0.000
v -66.703 82.357 0.000
v -64.065 90.227 18.710
v -58.459 102.387 18.710
v -53.156 110.434 18.710
v -56.195 113.009 18.710
v -52.782 117.641 18.710
v -56.721 121.864 18.710
v -45.518 130.165 18.710
v -46.864 132.354 18.710
v -35.857 136.986 18.710
v -36.651 139.329 18.710
v -24.236 142.966 18.710
v -23.434 140.357 18.710
v -11.037 146.293 18.710
v 1.280 148.681 18.710
v 1.441 152.163 18.710
v 40.878 147.410 18.710
v 40.129 143.430 18.710
v 51.938 137.660 18.710
v 62.232 129.712 18.710
v 64.023 132.033 18.710
v 74.798 124.351 18.710
v 73.203 122.405 18.710
v 81.197 115.187 18.710
v 79.718 113.529 18.710
v 88.898 103.315 18.710
v 84.085 101.403 18.710
v 86.144 95.765 18.710
v 82.704 93.775 18.710
v 86.313 83.329 18.710
v 88.202 73.867 18.710
v 88.452 63.167 18.710
v 69.210 65.599 18.710
v 68.381 75.536 18.710
v 63.890 85.938 18.710
v 52.304 104.056 18.710
v 41.582 105.426 18.710
v 40.495 93.024 18.710
v 45.904 86.402 18.710
v 37.473 80.699 18.710
v 27.670 76.830 18.710
v 17.839 76.244 18.710
v 6.031 77.714 18.710
v -4.023 81.892 18.710
v -11.242 87.629 18.710
v -17.355 95.168 18.710
v -10.894 100.386 18.710
v -9.477 112.468 18.710
v -21.286 113.430 18.710
v -29.316 106.609 18.710
v -37.061 98.496 18.710
v -43.335 88.149 18.710
v -46.686 80.533 18.710
v -66.703 82.357 18.710
usemtl roof
f 77 78 79 80 81 82 83 84 85 86 87 88 89 90 91 92 93 94 95 96 97 98 99 100 101 102 103 104 105 106 107 108 109 110 111 112 113 114 115 116 117 118 119 120 121 122 123 124 125 126 127 128 129
usemtl teaching_building
f 76 75 74 73 72 71 70 69 68 67 66 65 64 63 62 61 60 59 58 57 56 55 54 53 52 51 50 49 48 47 46 45 44 43 42 41 40 39 38 37 36 35 34 33 32 31 30 29 28 27 26 25 24
f 24 25 78 77
f 25 26 79 78
f 26 27 80 79
f 27 28 81 80
f 28 29 82 81
f 29 30 83 82
f 30 31 84 83
f 31 32 85 84
f 32 33 86 85
f 33 34 87 86
f 34 35 88 87
f 35 36 89 88
f 36 37 90 89
f 37 38 91 90
f 38 39 92 91
f 39 40 93 92
f 40 41 94 93
f 41 42 95 94
f 42 43 96 95
f 43 44 97 96
f 44 45 98 97
f 45 46 99 98
f 46 47 100 99
f 47 48 101 100
f 48 49 102 101
f 49 50 103 102
f 50 51 104 103
f 51 52 105 104
f 52 53 106 105
f 53 54 107 106
f 54 55 108 107
f 55 56 109 108
f 56 57 110 109
f 57 58 111 110
f 58 59 112 111
f 59 60 113 112
f 60 61 114 113
f 61 62 115 114
f 62 63 116 115
f 63 64 117 116
f 64 65 118 117
f 65 66 119 118
f 66 67 120 119
f 67 68 121 120
f 68 69 122 121
f 69 70 123 122
f 70 71 124 123
f 71 72 125 124
f 72 73 126 125
f 73 74 127 126
f 74 75 128 127
f 75 76 129 128
f 76 24 77 129
o SD0327_T003_3hao
v -367.245 43.126 0.000
v -370.686 11.600 0.000
v -283.496 1.353 0.000
v -279.655 33.631 0.000
v -367.245 43.126 13.510
v -370.686 11.600 13.510
v -283.496 1.353 13.510
v -279.655 33.631 13.510
usemtl roof
f 134 135 136 137
usemtl teaching_building
f 133 132 131 130
f 130 131 135 134
f 131 132 136 135
f 132 133 137 136
f 133 130 134 137
o SD0327_T004_4hao
v -257.855 30.591 0.000
v -261.295 -0.924 0.000
v -174.115 -11.182 0.000
v -170.274 21.095 0.000
v -257.855 30.591 11.830
v -261.295 -0.924 11.830
v -174.115 -11.182 11.830
v -170.274 21.095 11.830
usemtl roof
f 142 143 144 145
usemtl teaching_building
f 141 140 139 138
f 138 139 143 142
f 139 140 144 143
f 140 141 145 144
f 141 138 142 145
o SD0327_T005_5hao
v -105.962 0.480 0.000
v -102.593 -7.579 0.000
v -101.435 -15.648 0.000
v -117.174 -13.039 0.000
v -123.938 -9.999 0.000
v -116.933 1.198 0.000
v -110.962 6.659 0.000
v -105.962 0.480 15.480
v -102.593 -7.579 15.480
v -101.435 -15.648 15.480
v -117.174 -13.039 15.480
v -123.938 -9.999 15.480
v -116.933 1.198 15.480
v -110.962 6.659 15.480
usemtl roof
f 153 154 155 156 157 158 159
usemtl teaching_building
f 152 151 150 149 148 147 146
f 146 147 154 153
f 147 148 155 154
f 148 149 156 155
f 149 150 157 156
f 150 151 158 157
f 151 152 159 158
f 152 146 153 159
o SD0327_T006_6hao
v -103.306 -29.189 0.000
v -109.117 -28.493 0.000
v -110.481 -37.734 0.000
v -81.560 -38.685 0.000
v -58.611 -34.882 0.000
v -48.807 -34.407 0.000
v -41.401 -34.407 0.000
v -41.633 -36.783 0.000
v -37.096 -37.259 0.000
v -36.615 -35.125 0.000
v -30.644 -35.833 0.000
v -28.728 -21.827 0.000
v -21.794 -16.367 0.000
v -29.441 -3.555 0.000
v -31.597 4.282 0.000
v -30.448 13.070 0.000
v -70.535 18.000 0.000
v -70.384 19.891 0.000
v -91.373 22.588 0.000
v -91.631 20.653 0.000
v -99.242 21.615 0.000
v -100.445 12.595 0.000
v -102.878 12.960 0.000
v -103.547 7.610 0.000
v -95.971 6.593 0.000
v -96.381 3.100 0.000
v -42.827 -3.312 0.000
v -44.743 -18.500 0.000
v -56.935 -18.500 0.000
v -79.163 -22.535 0.000
v -92.549 -23.253 0.000
v -102.353 -22.535 0.000
v -103.306 -29.189 14.730
v -109.117 -28.493 14.730
v -110.481 -37.734 14.730
v -81.560 -38.685 14.730
v -58.611 -34.882 14.730
v -48.807 -34.407 14.730
v -41.401 -34.407 14.730
v -41.633 -36.783 14.730
v -37.096 -37.259 14.730
v -36.615 -35.125 14.730
v -30.644 -35.833 14.730
v -28.728 -21.827 14.730
v -21.794 -16.367 14.730
v -29.441 -3.555 14.730
v -31.597 4.282 14.730
v -30.448 13.070 14.730
v -70.535 18.000 14.730
v -70.384 19.891 14.730
v -91.373 22.588 14.730
v -91.631 20.653 14.730
v -99.242 21.615 14.730
v -100.445 12.595 14.730
v -102.878 12.960 14.730
v -103.547 7.610 14.730
v -95.971 6.593 14.730
v -96.381 3.100 14.730
v -42.827 -3.312 14.730
v -44.743 -18.500 14.730
v -56.935 -18.500 14.730
v -79.163 -22.535 14.730
v -92.549 -23.253 14.730
v -102.353 -22.535 14.730
usemtl roof
f 192 193 194 195 196 197 198 199 200 201 202 203 204 205 206 207 208 209 210 211 212 213 214 215 216 217 218 219 220 221 222 223
usemtl teaching_building
f 191 190 189 188 187 186 185 184 183 182 181 180 179 178 177 176 175 174 173 172 171 170 169 168 167 166 165 164 163 162 161 160
f 160 161 193 192
f 161 162 194 193
f 162 163 195 194
f 163 164 196 195
f 164 165 197 196
f 165 166 198 197
f 166 167 199 198
f 167 168 200 199
f 168 169 201 200
f 169 170 202 201
f 170 171 203 202
f 171 172 204 203
f 172 173 205 204
f 173 174 206 205
f 174 175 207 206
f 175 176 208 207
f 176 177 209 208
f 177 178 210 209
f 178 179 211 210
f 179 180 212 211
f 180 181 213 212
f 181 182 214 213
f 182 183 215 214
f 183 184 216 215
f 184 185 217 216
f 185 186 218 217
f 186 187 219 218
f 187 188 220 219
f 188 189 221 220
f 189 190 222 221
f 190 191 223 222
f 191 160 192 223
o SD0327_T007_7hao
v 62.749 -27.376 0.000
v 92.302 -37.601 0.000
v 99.521 -32.638 0.000
v 100.190 -24.126 0.000
v 94.218 -17.914 0.000
v 63.471 -19.307 0.000
v 62.749 -27.376 12.080
v 92.302 -37.601 12.080
v 99.521 -32.638 12.080
v 100.190 -24.126 12.080
v 94.218 -17.914 12.080
v 63.471 -19.307 12.080
usemtl roof
f 230 231 232 233 234 235
usemtl teaching_building
f 229 228 227 226 225 224
f 224 225 231 230
f 225 226 232 231
f 226 227 233 232
f 227 228 234 233
f 228 229 235 234
f 229 224 230 235
o SD0327_T008_8hao
v 36.386 -1.985 0.000
v 32.625 -9.093 0.000
v 29.024 -15.051 0.000
v 23.980 -19.815 0.000
v 27.857 -26.901 0.000
v 25.460 -43.040 0.000
v 30.958 -43.747 0.000
v 30.718 -46.599 0.000
v 35.263 -47.318 0.000
v 35.744 -44.941 0.000
v 54.861 -49.927 0.000
v 79.967 -60.373 0.000
v 88.568 -61.555 0.000
v 89.049 -55.863 0.000
v 91.197 -55.863 0.000
v 90.876 -62.749 0.000
v 94.789 -63.689 0.000
v 95.261 -56.813 0.000
v 101.954 -57.521 0.000
v 101.482 -61.323 0.000
v 99.084 -62.738 0.000
v 98.612 -67.248 0.000
v 101.001 -70.808 0.000
v 105.787 -72.477 0.000
v 109.610 -71.758 0.000
v 112.533 -67.823 0.000
v 112.203 -62.738 0.000
v 110.564 -59.179 0.000
v 111.080 -53.851 0.000
v 113.433 -50.402 0.000
v 114.387 -46.124 0.000
v 112.444 -42.355 0.000
v 109.022 -40.763 0.000
v 104.583 -40.906 0.000
v 101.241 -43.747 0.000
v 100.680 -47.605 0.000
v 102.435 -50.402 0.000
v 101.722 -54.193 0.000
v 89.530 -52.767 0.000
v 90.003 -47.075 0.000
v 76.376 -44.223 0.000
v 59.166 -36.396 0.000
v 47.696 -32.594 0.000
v 37.652 -30.693 0.000
v 40.521 -5.534 0.000
v 94.067 -11.945 0.000
v 100.519 -9.568 0.000
v 107.212 -12.896 0.000
v 110.323 -12.652 0.000
v 113.193 -10.287 0.000
v 114.387 -6.960 0.000
v 112.711 -2.925 0.000
v 109.610 -1.024 0.000
v 105.065 -0.791 0.000
v 101.722 -3.632 0.000
v 100.760 -6.484 0.000
v 94.067 -8.861 0.000
v 95.029 -1.974 0.000
v 37.179 4.669 0.000
v 36.386 -1.985 13.880
v 32.625 -9.093 13.880
v 29.024 -15.051 13.880
v 23.980 -19.815 13.880
v 27.857 -26.901 13.880
v 25.460 -43.040 13.880
v 30.958 -43.747 13.880
v 30.718 -46.599 13.880
v 35.263 -47.318 13.880
v 35.744 -44.941 13.880
v 54.861 -49.927 13.880
v 79.967 -60.373 13.880
v 88.568 -61.555 13.880
v 89.049 -55.863 13.880
v 91.197 -55.863 13.880
v 90.876 -62.749 13.880
v 94.789 -63.689 13.880
v 95.261 -56.813 13.880
v 101.954 -57.521 13.880
v 101.482 -61.323 13.880
v 99.084 -62.738 13.880
v 98.612 -67.248 13.880
v 101.001 -70.808 13.880
v 105.787 -72.477 13.880
v 109.610 -71.758 13.880
v 112.533 -67.823 13.880
v 112.203 -62.738 13.880
v 110.564 -59.179 13.880
v 111.080 -53.851 13.880
v 113.433 -50.402 13.880
v 114.387 -46.124 13.880
v 112.444 -42.355 13.880
v 109.022 -40.763 13.880
v 104.583 -40.906 13.880
v 101.241 -43.747 13.880
v 100.680 -47.605 13.880
v 102.435 -50.402 13.880
v 101.722 -54.193 13.880
v 89.530 -52.767 13.880
v 90.003 -47.075 13.880
v 76.376 -44.223 13.880
v 59.166 -36.396 13.880
v 47.696 -32.594 13.880
v 37.652 -30.693 13.880
v 40.521 -5.534 13.880
v 94.067 -11.945 13.880
v 100.519 -9.568 13.880
v 107.212 -12.896 13.880
v 110.323 -12.652 13.880
v 113.193 -10.287 13.880
v 114.387 -6.960 13.880
v 112.711 -2.925 13.880
v 109.610 -1.024 13.880
v 105.065 -0.791 13.880
v 101.722 -3.632 13.880
v 100.760 -6.484 13.880
v 94.067 -8.861 13.880
v 95.029 -1.974 13.880
v 37.179 4.669 13.880
usemtl roof
f 295 296 297 298 299 300 301 302 303 304 305 306 307 308 309 310 311 312 313 314 315 316 317 318 319 320 321 322 323 324 325 326 327 328 329 330 331 332 333 334 335 336 337 338 339 340 341 342 343 344 345 346 347 348 349 350 351 352 353
usemtl teaching_building
f 294 293 292 291 290 289 288 287 286 285 284 283 282 281 280 279 278 277 276 275 274 273 272 271 270 269 268 267 266 265 264 263 262 261 260 259 258 257 256 255 254 253 252 251 250 249 248 247 246 245 244 243 242 241 240 239 238 237 236
f 236 237 296 295
f 237 238 297 296
f 238 239 298 297
f 239 240 299 298
f 240 241 300 299
f 241 242 301 300
f 242 243 302 301
f 243 244 303 302
f 244 245 304 303
f 245 246 305 304
f 246 247 306 305
f 247 248 307 306
f 248 249 308 307
f 249 250 309 308
f 250 251 310 309
f 251 252 311 310
f 252 253 312 311
f 253 254 313 312
f 254 255 314 313
f 255 256 315 314
f 256 257 316 315
f 257 258 317 316
f 258 259 318 317
f 259 260 319 318
f 260 261 320 319
f 261 262 321 320
f 262 263 322 321
f 263 264 323 322
f 264 265 324 323
f 265 266 325 324
f 266 267 326 325
f 267 268 327 326
f 268 269 328 327
f 269 270 329 328
f 270 271 330 329
f 271 272 331 330
f 272 273 332 331
f 273 274 333 332
f 274 275 334 333
f 275 276 335 334
f 276 277 336 335
f 277 278 337 336
f 278 279 338 337
f 279 280 339 338
f 280 281 340 339
f 281 282 341 340
f 282 283 342 341
f 283 284 343 342
f 284 285 344 343
f 285 286 345 344
f 286 287 346 345
f 287 288 347 346
f 288 289 348 347
f 289 290 349 348
f 290 291 350 349
f 291 292 351 350
f 292 293 352 351
f 293 294 353 352
f 294 236 295 353
o SD0327_T009_9hao
v -97.335 -86.128 0.000
v -92.558 -97.757 0.000
v -95.713 -117.931 0.000
v -49.529 -123.635 0.000
v -49.092 -120.539 0.000
v -33.326 -122.673 0.000
v -31.116 -107.496 0.000
v -43.852 -106.059 0.000
v -41.160 -86.372 0.000
v -28.728 -87.786 0.000
v -26.874 -74.245 0.000
v -42.889 -72.112 0.000
v -42.417 -68.785 0.000
v -94.750 -61.909 0.000
v -97.335 -86.128 20.880
v -92.558 -97.757 20.880
v -95.713 -117.931 20.880
v -49.529 -123.635 20.880
v -49.092 -120.539 20.880
v -33.326 -122.673 20.880
v -31.116 -107.496 20.880
v -43.852 -106.059 20.880
v -41.160 -86.372 20.880
v -28.728 -87.786 20.880
v -26.874 -74.245 20.880
v -42.889 -72.112 20.880
v -42.417 -68.785 20.880
v -94.750 -61.909 20.880
usemtl roof
f 368 369 370 371 372 373 374 375 376 377 378 379 380 381
usemtl teaching_building
f 367 366 365 364 363 362 361 360 359 358 357 356 355 354
f 354 355 369 368
f 355 356 370 369
f 356 357 371 370
f 357 358 372 371
f 358 359 373 372
f 359 360 374 373
f 360 361 375 374
f 361 362 376 375
f 362 363 377 376
f 363 364 378 377
f 364 365 379 378
f 365 366 380 379
f 366 367 381 380
f 367 354 368 381
o SD0327_T010_10hao
v -5.627 -255.553 0.000
v 63.595 -263.523 0.000
v 65.895 -240.741 0.000
v 6.610 -233.522 0.000
v 10.050 -209.590 0.000
v 68.569 -215.294 0.000
v 70.868 -194.402 0.000
v 1.254 -186.808 0.000
v -5.627 -255.553 15.310
v 63.595 -263.523 15.310
v 65.895 -240.741 15.310
v 6.610 -233.522 15.310
v 10.050 -209.590 15.310
v 68.569 -215.294 15.310
v 70.868 -194.402 15.310
v 1.254 -186.808 15.310
usemtl roof
f 390 391 392 393 394 395 396 397
usemtl teaching_building
f 389 388 387 386 385 384 383 382
f 382 383 391 390
f 383 384 392 391
f 384 385 393 392
f 385 386 394 393
f 386 387 395 394
f 387 388 396 395
f 388 389 397 396
f 389 382 390 397
