# school_id SD0396
# school_name 东营区第三中学北校区
# boundary_source footprint_convex_hull_buffer_20m
# adjacent_block_merge_distance_m 2.0
mtllib ../campus_materials.mtl
o SD0396_campus_boundary
usemtl campus_boundary
v -44.363 -38.704 0.050
v -47.446 34.856 0.050
v 44.363 38.704 0.050
v 47.446 -34.856 0.050
v -44.363 -38.704 0.050
l 1 2 3 4 5 1
o SD0396_T001_1hao
v -26.626 15.711 0.000
v 25.218 17.884 0.000
v 26.626 -15.711 0.000
v -25.218 -17.884 0.000
v -26.626 15.711 16.330
v 25.218 17.884 16.330
v 26.626 -15.711 16.330
v -25.218 -17.884 16.330
usemtl roof
f 10 11 12 13
usemtl teaching_building
f 9 8 7 6
f 6 7 11 10
f 7 8 12 11
f 8 9 13 12
f 9 6 10 13
