# school_id SD0340
# school_name 淄博市第十一中学
# boundary_source footprint_convex_hull_buffer_20m
# adjacent_block_merge_distance_m 2.0
mtllib ../campus_materials.mtl
o SD0340_campus_boundary
usemtl campus_boundary
v 6.754 -175.252 0.050
v -140.672 -147.351 0.050
v -230.978 -128.579 0.050
v -216.874 -57.446 0.050
v -4.207 212.942 0.050
v 99.773 189.508 0.050
v 115.068 62.238 0.050
v 104.373 10.789 0.050
v 40.775 -166.747 0.050
v 18.055 -172.477 0.050
v 6.754 -175.252 0.050
l 1 2 3 4 5 6 7 8 9 10 11 1
o SD0340_T001_1hao
v 74.430 144.638 0.000
v 81.601 173.102 0.000
v 3.710 190.656 0.000
v -2.499 162.192 0.000
v 74.430 144.638 24.630
v 81.601 173.102 24.630
v 3.710 190.656 24.630
v -2.499 162.192 24.630
usemtl roof
f 16 17 18 19
usemtl teaching_building
f 15 14 13 12
f 12 13 17 16
f 13 14 18 17
f 14 15 19 18
f 15 12 16 19
o SD0340_T002_2hao
v -6.133 102.412 0.000
v -14.168 104.213 0.000
v -10.810 119.092 0.000
v 48.312 107.773 0.000
v 44.419 90.241 0.000
v -6.543 100.488 0.000
v -6.133 102.412 12.940
v -14.168 104.213 12.940
v -10.810 119.092 12.940
v 48.312 107.773 12.940
v 44.419 90.241 12.940
v -6.543 100.488 12.940
usemtl roof
f 26 27 28 29 30 31
usemtl teaching_building
f 25 24 23 22 21 20
f 20 21 27 26
f 21 22 28 27
f 22 23 29 28
f 23 24 30 29
f 24 25 31 30
f 25 20 26 31
o SD0340_T003_3hao
v 29.356 58.748 0.000
v 41.328 56.405 0.000
v 35.119 28.527 0.000
v 22.871 31.191 0.000
v 24.642 38.718 0.000
v -17.749 48.092 0.000
v -21.455 29.665 0.000
v -29.855 31.168 0.000
v -26.559 46.633 0.000
v -29.445 47.252 0.000
v -56.552 53.332 0.000
v -52.375 71.040 0.000
v -25.847 65.557 0.000
v -22.373 64.806 0.000
v -19.460 79.430 0.000
v -11.336 77.783 0.000
v -14.961 60.252 0.000
v 27.512 50.913 0.000
v 29.356 58.748 13.490
v 41.328 56.405 13.490
v 35.119 28.527 13.490
v 22.871 31.191 13.490
v 24.642 38.718 13.490
v -17.749 48.092 13.490
v -21.455 29.665 13.490
v -29.855 31.168 13.490
v -26.559 46.633 13.490
v -29.445 47.252 13.490
v -56.552 53.332 13.490
v -52.375 71.040 13.490
v -25.847 65.557 13.490
v -22.373 64.806 13.490
v -19.460 79.430 13.490
v -11.336 77.783 13.490
v -14.961 60.252 13.490
v 27.512 50.913 13.490
usemtl roof
f 50 51 52 53 54 55 56 57 58 59 60 61 62 63 64 65 66 67
usemtl teaching_building
f 49 48 47 46 45 44 43 42 41 40 39 38 37 36 35 34 33 32
f 32 33 51 50
f 33 34 52 51
f 34 35 53 52
f 35 36 54 53
f 36 37 55 54
f 37 38 56 55
f 38 39 57 56
f 39 40 58 57
f 40 41 59 58
f 41 42 60 59
f 42 43 61 60
f 43 44 62 61
f 44 45 63 62
f 45 46 64 63
f 46 47 65 64
f 47 48 66 65
f 48 49 67 66
f 49 32 50 67
o SD0340_T004_4hao
v 85.075 16.223 0.000
v 76.666 18.965 0.000
v 86.260 64.994 0.000
v 94.820 63.103 0.000
v 85.075 16.223 7.430
v 76.666 18.965 7.430
v 86.260 64.994 7.430
v 94.820 63.103 7.430
usemtl roof
f 72 73 74 75
usemtl teaching_building
f 71 70 69 68
f 68 69 73 72
f 69 70 74 73
f 70 71 75 74
f 71 68 72 75
o SD0340_T005_5hao
v -26.506 5.766 0.000
v -25.677 9.370 0.000
v 18.853 -0.170 0.000
v 18.301 -3.298 0.000
v 25.989 -5.277 0.000
v 24.750 -11.334 0.000
v -28.163 -1.098 0.000
v -38.683 0.914 0.000
v -63.313 5.744 0.000
v -61.398 14.599 0.000
v -40.910 10.940 0.000
v -41.462 8.419 0.000
v -37.276 7.535 0.000
v -26.506 5.766 19.130
v -25.677 9.370 19.130
v 18.853 -0.170 19.130
v 18.301 -3.298 19.130
v 25.989 -5.277 19.130
v 24.750 -11.334 19.130
v -28.163 -1.098 19.130
v -38.683 0.914 19.130
v -63.313 5.744 19.130
v -61.398 14.599 19.130
v -40.910 10.940 19.130
v -41.462 8.419 19.130
v -37.276 7.535 19.130
usemtl roof
f 89 90 91 92 93 94 95 96 97 98 99 100 101
usemtl teaching_building
f 88 87 86 85 84 83 82 81 80 79 78 77 76
f 76 77 90 89
f 77 78 91 90
f 78 79 92 91
f 79 80 93 92
f 80 81 94 93
f 81 82 95 94
f 82 83 96 95
f 83 84 97 96
f 84 85 98 97
f 85 86 99 98
f 86 87 100 99
f 87 88 101 100
f 88 76 89 101
o SD0340_T006_6hao
v -41.400 -12.428 0.000
v -33.410 -13.821 0.000
v -35.699 -24.831 0.000
v 15.584 -35.332 0.000
v 13.687 -45.679 0.000
v -45.996 -33.796 0.000
v -41.400 -12.428 16.600
v -33.410 -13.821 16.600
v -35.699 -24.831 16.600
v 15.584 -35.332 16.600
v 13.687 -45.679 16.600
v -45.996 -33.796 16.600
usemtl roof
f 108 109 110 111 112 113
usemtl teaching_building
f 107 106 105 104 103 102
f 102 103 109 108
f 103 104 110 109
f 104 105 111 110
f 105 106 112 111
f 106 107 113 112
f 107 102 108 113
o SD0340_T006_6hao_seg02
v -72.489 -28.446 0.000
v -70.217 -17.757 0.000
v -43.725 -23.217 0.000
v -45.996 -33.796 0.000
v -72.489 -28.446 16.600
v -70.217 -17.757 16.600
v -43.725 -23.217 16.600
v -45.996 -33.796 16.600
usemtl roof
f 118 119 120 121
usemtl teaching_building
f 117 116 115 114
f 114 115 119 118
f 115 116 120 119
f 116 117 121 120
f 117 114 118 121
o SD0340_T007_7hao
v -136.777 -127.733 0.000
v -126.747 -80.996 0.000
v -198.189 -66.040 0.000
v -207.506 -113.031 0.000
v -136.777 -127.733 15.820
v -126.747 -80.996 15.820
v -198.189 -66.040 15.820
v -207.506 -113.031 15.820
usemtl roof
f 126 127 128 129
usemtl teaching_building
f 125 124 123 122
f 122 123 127 126
f 123 124 128 127
f 124 125 129 128
f 125 122 126 129
o SD0340_T008_8hao
v -62.102 -138.698 0.000
v -58.770 -122.792 0.000
v 3.318 -135.725 0.000
v 1.861 -142.437 0.000
v 7.576 -143.706 0.000
v 19.869 -85.783 0.000
v 37.997 -89.696 0.000
v 25.543 -149.962 0.000
v 1.274 -145.143 0.000
v -0.147 -151.687 0.000
v -62.102 -138.698 24.430
v -58.770 -122.792 24.430
v 3.318 -135.725 24.430
v 1.861 -142.437 24.430
v 7.576 -143.706 24.430
v 19.869 -85.783 24.430
v 37.997 -89.696 24.430
v 25.543 -149.962 24.430
v 1.274 -145.143 24.430
v -0.147 -151.687 24.430
usemtl roof
f 140 141 142 143 144 145 146 147 148 149
usemtl teaching_building
f 139 138 137 136 135 134 133 132 131 130
f 130 131 141 140
f 131 132 142 141
f 132 133 143 142
f 133 134 144 143
f 134 135 145 144
f 135 136 146 145
f 136 137 147 146
f 137 138 148 147
f 138 139 149 148
f 139 130 140 149
o SD0340_T008_8hao_seg02
v -57.746 -87.894 0.000
v -88.585 -82.179 0.000
v -84.924 -64.581 0.000
v -54.040 -70.772 0.000
v -4.842 -80.632 0.000
v 19.869 -85.783 0.000
v 16.181 -103.160 0.000
v -8.485 -97.876 0.000
v -57.746 -87.894 24.430
v -88.585 -82.179 24.430
v -84.924 -64.581 24.430
v -54.040 -70.772 24.430
v -4.842 -80.632 24.430
v 19.869 -85.783 24.430
v 16.181 -103.160 24.430
v -8.485 -97.876 24.430
usemtl roof
f 158 159 160 161 162 163 164 165
usemtl teaching_building
f 157 156 155 154 153 152 151 150
f 150 151 159 158
f 151 152 160 159
f 152 153 161 160
f 153 154 162 161
f 154 155 163 162
f 155 156 164 163
f 156 157 165 164
f 157 150 158 165
