# school_id SD0369
# school_name 枣庄薛口区临山中学
# boundary_source footprint_convex_hull_buffer_20m
# adjacent_block_merge_distance_m 2.0
mtllib ../campus_materials.mtl
o SD0369_campus_boundary
usemtl campus_boundary
v 77.325 -159.316 0.050
v 35.877 -159.087 0.050
v -77.836 -17.817 0.050
v -77.716 0.704 0.050
v -76.305 64.307 0.050
v -13.864 66.258 0.050
v 1.619 66.258 0.050
v 56.999 61.413 0.050
v 69.417 10.011 0.050
v 77.594 -114.034 0.050
v 77.325 -159.316 0.050
l 1 2 3 4 5 6 7 8 9 10 11 1
o SD0369_T001_1hao
v -13.552 43.273 0.000
v -13.552 46.258 0.000
v -11.633 46.258 0.000
v -11.212 38.420 0.000
v -6.102 38.310 0.000
v -1.174 38.630 0.000
v -1.174 46.258 0.000
v 0.746 46.258 0.000
v 0.746 42.742 0.000
v 40.934 42.742 0.000
v 41.519 34.386 0.000
v 5.865 34.176 0.000
v 0.106 33.324 0.000
v -47.707 35.027 0.000
v -47.707 43.483 0.000
v -13.552 43.273 17.530
v -13.552 46.258 17.530
v -11.633 46.258 17.530
v -11.212 38.420 17.530
v -6.102 38.310 17.530
v -1.174 38.630 17.530
v -1.174 46.258 17.530
v 0.746 46.258 17.530
v 0.746 42.742 17.530
v 40.934 42.742 17.530
v 41.519 34.386 17.530
v 5.865 34.176 17.530
v 0.106 33.324 17.530
v -47.707 35.027 17.530
v -47.707 43.483 17.530
usemtl roof
f 27 28 29 30 31 32 33 34 35 36 37 38 39 40 41
usemtl teaching_building
f 26 25 24 23 22 21 20 19 18 17 16 15 14 13 12
f 12 13 28 27
f 13 14 29 28
f 14 15 30 29
f 15 16 31 30
f 16 17 32 31
f 17 18 33 32
f 18 19 34 33
f 19 20 35 34
f 20 21 36 35
f 21 22 37 36
f 22 23 38 37
f 23 24 39 38
f 24 25 40 39
f 25 26 41 40
f 26 12 27 41
o SD0369_T001_1hao_seg02
v -49.105 44.732 0.000
v -49.855 7.082 0.000
v -57.095 6.894 0.000
v -56.730 44.909 0.000
v -49.105 44.732 17.530
v -49.855 7.082 17.530
v -57.095 6.894 17.530
v -56.730 44.909 17.530
usemtl roof
f 46 47 48 49
usemtl teaching_building
f 45 44 43 42
f 42 43 47 46
f 43 44 48 47
f 44 45 49 48
f 45 42 46 49
o SD0369_T002_2hao
v 33.529 -28.114 0.000
v 3.671 -27.627 0.000
v 2.391 -29.893 0.000
v 0.316 -30.623 0.000
v -1.878 -29.893 0.000
v -3.368 -27.506 0.000
v -39.022 -26.931 0.000
v -38.802 -11.035 0.000
v -57.790 -10.825 0.000
v -57.717 0.417 0.000
v -48.411 0.417 0.000
v -48.200 -1.496 0.000
v -38.592 -1.706 0.000
v -38.592 9.315 0.000
v -37.312 11.227 0.000
v -31.333 11.017 0.000
v -31.333 16.732 0.000
v 0.042 16.312 0.000
v 0.170 12.079 0.000
v 1.961 9.956 0.000
v 1.961 8.044 0.000
v 38.685 7.193 0.000
v 40.385 5.081 0.000
v 39.535 2.318 0.000
v 37.185 1.478 0.000
v 36.975 -18.452 0.000
v 39.471 -20.575 0.000
v 39.827 -23.957 0.000
v 38.045 -26.511 0.000
v 35.055 -26.721 0.000
v 33.529 -28.114 23.670
v 3.671 -27.627 23.670
v 2.391 -29.893 23.670
v 0.316 -30.623 23.670
v -1.878 -29.893 23.670
v -3.368 -27.506 23.670
v -39.022 -26.931 23.670
v -38.802 -11.035 23.670
v -57.790 -10.825 23.670
v -57.717 0.417 23.670
v -48.411 0.417 23.670
v -48.200 -1.496 23.670
v -38.592 -1.706 23.670
v -38.592 9.315 23.670
v -37.312 11.227 23.670
v -31.333 11.017 23.670
v -31.333 16.732 23.670
v 0.042 16.312 23.670
v 0.170 12.079 23.670
v 1.961 9.956 23.670
v 1.961 8.044 23.670
v 38.685 7.193 23.670
v 40.385 5.081 23.670
v 39.535 2.318 23.670
v 37.185 1.478 23.670
v 36.975 -18.452 23.670
v 39.471 -20.575 23.670
v 39.827 -23.957 23.670
v 38.045 -26.511 23.670
v 35.055 -26.721 23.670
usemtl roof
f 80 81 82 83 84 85 86 87 88 89 90 91 92 93 94 95 96 97 98 99 100 101 102 103 104 105 106 107 108 109
usemtl teaching_building
f 79 78 77 76 75 74 73 72 71 70 69 68 67 66 65 64 63 62 61 60 59 58 57 56 55 54 53 52 51 50
f 50 51 81 80
f 51 52 82 81
f 52 53 83 82
f 53 54 84 83
f 54 55 85 84
f 55 56 86 85
f 56 57 87 86
f 57 58 88 87
f 58 59 89 88
f 59 60 90 89
f 60 61 91 90
f 61 62 92 91
f 62 63 93 92
f 63 64 94 93
f 64 65 95 94
f 65 66 96 95
f 66 67 97 96
f 67 68 98 97
f 68 69 99 98
f 69 70 100 99
f 70 71 101 100
f 71 72 102 101
f 72 73 103 102
f 73 74 104 103
f 74 75 105 104
f 75 76 106 105
f 76 77 107 106
f 77 78 108 107
f 78 79 109 108
f 79 50 80 109
o SD0369_T002_2hao_seg02
v 49.573 -28.832 0.000
v 41.674 -28.832 0.000
v 41.884 7.193 0.000
v 49.573 6.983 0.000
v 49.573 -28.832 23.670
v 41.674 -28.832 23.670
v 41.884 7.193 23.670
v 49.573 6.983 23.670
usemtl roof
f 114 115 116 117
usemtl teaching_building
f 113 112 111 110
f 110 111 115 114
f 111 112 116 115
f 112 113 117 116
f 113 110 114 117
o SD0369_T003_3hao
v 57.590 -114.633 0.000
v 57.444 -139.206 0.000
v 45.495 -139.140 0.000
v 45.633 -114.556 0.000
v 57.590 -114.633 7.730
v 57.444 -139.206 7.730
v 45.495 -139.140 7.730
v 45.633 -114.556 7.730
usemtl roof
f 122 123 124 125
usemtl teaching_building
f 121 120 119 118
f 118 119 123 122
f 119 120 124 123
f 120 121 125 124
f 121 118 122 125
