# school_id SD0304
# school_name 青岛第六十六中学
# boundary_source footprint_convex_hull_buffer_20m
# adjacent_block_merge_distance_m 2.0
mtllib ../campus_materials.mtl
o SD0304_campus_boundary
usemtl campus_boundary
v 80.021 -101.557 0.050
v 44.451 -97.438 0.050
v -78.837 -75.757 0.050
v -180.548 -44.785 0.050
v -164.030 -2.437 0.050
v 4.246 122.599 0.050
v 40.169 124.102 0.050
v 64.540 115.437 0.050
v 99.288 90.068 0.050
v 152.888 -46.767 0.050
v 160.454 -86.452 0.050
v 80.021 -101.557 0.050
l 1 2 3 4 5 6 7 8 9 10 11 12 1
o SD0304_T001_1hao
v 11.233 102.874 0.000
v 33.835 94.827 0.000
v 37.127 103.957 0.000
v 55.098 97.568 0.000
v 51.788 88.371 0.000
v 82.790 77.350 0.000
v 70.460 43.127 0.000
v 46.823 51.528 0.000
v 45.726 48.466 0.000
v 22.368 56.768 0.000
v 23.285 59.332 0.000
v -1.314 68.087 0.000
v 11.233 102.874 16.670
v 33.835 94.827 16.670
v 37.127 103.957 16.670
v 55.098 97.568 16.670
v 51.788 88.371 16.670
v 82.790 77.350 16.670
v 70.460 43.127 16.670
v 46.823 51.528 16.670
v 45.726 48.466 16.670
v 22.368 56.768 16.670
v 23.285 59.332 16.670
v -1.314 68.087 16.670
usemtl roof
f 25 26 27 28 29 30 31 32 33 34 35 36
usemtl teaching_building
f 24 23 22 21 20 19 18 17 16 15 14 13
f 13 14 26 25
f 14 15 27 26
f 15 16 28 27
f 16 17 29 28
f 17 18 30 29
f 18 19 31 30
f 19 20 32 31
f 20 21 33 32
f 21 22 34 33
f 22 23 35 34
f 23 24 36 35
f 24 13 25 36
o SD0304_T002_2hao
v -35.654 46.996 0.000
v -29.061 63.400 0.000
v 14.165 46.278 0.000
v 7.572 29.873 0.000
v -35.654 46.996 13.290
v -29.061 63.400 13.290
v 14.165 46.278 13.290
v 7.572 29.873 13.290
usemtl roof
f 41 42 43 44
usemtl teaching_building
f 40 39 38 37
f 37 38 42 41
f 38 39 43 42
f 39 40 44 43
f 40 37 41 44
o SD0304_T003_3hao
v -57.626 25.761 0.000
v -61.467 13.414 0.000
v -66.773 9.788 0.000
v -92.371 17.769 0.000
v -96.940 4.516 0.000
v -64.579 -5.101 0.000
v -52.149 0.160 0.000
v -44.648 21.218 0.000
v -57.626 25.761 22.430
v -61.467 13.414 22.430
v -66.773 9.788 22.430
v -92.371 17.769 22.430
v -96.940 4.516 22.430
v -64.579 -5.101 22.430
v -52.149 0.160 22.430
v -44.648 21.218 22.430
usemtl roof
f 53 54 55 56 57 58 59 60
usemtl teaching_building
f 52 51 50 49 48 47 46 45
f 45 46 54 53
f 46 47 55 54
f 47 48 56 55
f 48 49 57 56
f 49 50 58 57
f 50 51 59 58
f 51 52 60 59
f 52 45 53 60
o SD0304_T004_4hao
v -12.907 21.307 0.000
v 34.996 3.344 0.000
v 28.007 -15.039 0.000
v 9.263 -8.009 0.000
v 7.995 -11.336 0.000
v -5.640 -6.229 0.000
v -4.327 -2.758 0.000
v -19.851 3.056 0.000
v -12.907 21.307 22.700
v 34.996 3.344 22.700
v 28.007 -15.039 22.700
v 9.263 -8.009 22.700
v 7.995 -11.336 22.700
v -5.640 -6.229 22.700
v -4.327 -2.758 22.700
v -19.851 3.056 22.700
usemtl roof
f 69 70 71 72 73 74 75 76
usemtl teaching_building
f 68 67 66 65 64 63 62 61
f 61 62 70 69
f 62 63 71 70
f 63 64 72 71
f 64 65 73 72
f 65 66 74 73
f 66 67 75 74
f 67 68 76 75
f 68 61 69 76
o SD0304_T005_5hao
v -25.634 1.619 0.000
v -32.766 -17.261 0.000
v -43.191 -13.458 0.000
v -35.869 5.610 0.000
v -25.634 1.619 10.680
v -32.766 -17.261 10.680
v -43.191 -13.458 10.680
v -35.869 5.610 10.680
usemtl roof
f 81 82 83 84
usemtl teaching_building
f 80 79 78 77
f 77 78 82 81
f 78 79 83 82
f 79 80 84 83
f 80 77 81 84
o SD0304_T006_6hao
v 45.780 -0.956 0.000
v 66.394 -8.340 0.000
v 62.491 -19.096 0.000
v 41.876 -11.712 0.000
v 45.780 -0.956 9.720
v 66.394 -8.340 9.720
v 62.491 -19.096 9.720
v 41.876 -11.712 9.720
usemtl roof
f 89 90 91 92
usemtl teaching_building
f 88 87 86 85
f 85 86 90 89
f 86 87 91 90
f 87 88 92 91
f 88 85 89 92
o SD0304_T007_7hao
v -35.141 -19.085 0.000
v -41.356 -39.048 0.000
v -54.523 -34.328 0.000
v -47.940 -14.542 0.000
v -35.141 -19.085 10.780
v -41.356 -39.048 10.780
v -54.523 -34.328 10.780
v -47.940 -14.542 10.780
usemtl roof
f 97 98 99 100
usemtl teaching_building
f 96 95 94 93
f 93 94 98 97
f 94 95 99 98
f 95 96 100 99
f 96 93 97 100
o SD0304_T008_8hao
v -147.487 -15.061 0.000
v -114.577 -2.891 0.000
v -112.014 4.184 0.000
v -97.209 -1.078 0.000
v -105.988 -22.312 0.000
v -66.494 -35.025 0.000
v -74.175 -56.270 0.000
v -154.071 -31.941 0.000
v -147.487 -15.061 14.150
v -114.577 -2.891 14.150
v -112.014 4.184 14.150
v -97.209 -1.078 14.150
v -105.988 -22.312 14.150
v -66.494 -35.025 14.150
v -74.175 -56.270 14.150
v -154.071 -31.941 14.150
usemtl roof
f 109 110 111 112 113 114 115 116
usemtl teaching_building
f 108 107 106 105 104 103 102 101
f 101 102 110 109
f 102 103 111 110
f 103 104 112 111
f 104 105 113 112
f 105 106 114 113
f 106 107 115 114
f 107 108 116 115
f 108 101 109 116
o SD0304_T009_9hao
v 22.305 -40.198 0.000
v 43.936 -47.958 0.000
v 49.224 -33.422 0.000
v 61.789 -37.932 0.000
v 47.336 -77.638 0.000
v 13.140 -65.357 0.000
v 22.305 -40.198 18.920
v 43.936 -47.958 18.920
v 49.224 -33.422 18.920
v 61.789 -37.932 18.920
v 47.336 -77.638 18.920
v 13.140 -65.357 18.920
usemtl roof
f 123 124 125 126 127 128
usemtl teaching_building
f 122 121 120 119 118 117
f 117 118 124 123
f 118 119 125 124
f 119 120 126 125
f 120 121 127 126
f 121 122 128 127
f 122 117 123 128
o SD0304_T010_10hao
v 75.451 -61.101 0.000
v 88.259 -58.702 0.000
v 89.950 -67.590 0.000
v 97.316 -66.208 0.000
v 96.012 -59.399 0.000
v 133.589 -52.335 0.000
v 137.052 -70.497 0.000
v 79.310 -81.341 0.000
v 75.451 -61.101 30.410
v 88.259 -58.702 30.410
v 89.950 -67.590 30.410
v 97.316 -66.208 30.410
v 96.012 -59.399 30.410
v 133.589 -52.335 30.410
v 137.052 -70.497 30.410
v 79.310 -81.341 30.410
usemtl roof
f 137 138 139 140 141 142 143 144
usemtl teaching_building
f 136 135 134 133 132 131 130 129
f 129 130 138 137
f 130 131 139 138
f 131 132 140 139
f 132 133 141 140
f 133 134 142 141
f 134 135 143 142
f 135 136 144 143
f 136 129 137 144
