# school_id SD0305
# school_name 青岛第六十四中学
# boundary_source footprint_convex_hull_buffer_20m
# adjacent_block_merge_distance_m 2.0
mtllib ../campus_materials.mtl
o SD0305_campus_boundary
usemtl campus_boundary
v -14.836 -86.045 0.050
v -87.952 -0.721 0.050
v -88.219 69.070 0.050
v -15.971 78.143 0.050
v 62.383 80.239 0.050
v 64.484 39.089 0.050
v 62.739 -6.144 0.050
v 58.993 -85.098 0.050
v -14.836 -86.045 0.050
l 1 2 3 4 5 6 7 8 9 1
o SD0305_T001_1hao
v -37.847 52.450 0.000
v -37.074 6.698 0.000
v -67.980 6.709 0.000
v -68.151 51.433 0.000
v -37.847 52.450 14.110
v -37.074 6.698 14.110
v -67.980 6.709 14.110
v -68.151 51.433 14.110
usemtl roof
f 14 15 16 17
usemtl teaching_building
f 13 12 11 10
f 10 11 15 14
f 11 12 16 15
f 12 13 17 16
f 13 10 14 17
o SD0305_T002_2hao
v 43.404 59.724 0.000
v 44.464 38.964 0.000
v -0.183 38.622 0.000
v -0.174 14.469 0.000
v 42.541 12.877 0.000
v 42.757 -5.285 0.000
v -2.609 -5.207 0.000
v -1.783 3.636 0.000
v -15.047 5.935 0.000
v -14.454 58.176 0.000
v 43.404 59.724 17.130
v 44.464 38.964 17.130
v -0.183 38.622 17.130
v -0.174 14.469 17.130
v 42.541 12.877 17.130
v 42.757 -5.285 17.130
v -2.609 -5.207 17.130
v -1.783 3.636 17.130
v -15.047 5.935 17.130
v -14.454 58.176 17.130
usemtl roof
f 28 29 30 31 32 33 34 35 36 37
usemtl teaching_building
f 27 26 25 24 23 22 21 20 19 18
f 18 19 29 28
f 19 20 30 29
f 20 21 31 30
f 21 22 32 31
f 22 23 33 32
f 23 24 34 33
f 24 25 35 34
f 25 26 36 35
f 26 27 37 36
f 27 18 28 37
o SD0305_T003_3hao
v 8.346 -20.760 0.000
v 8.615 -39.187 0.000
v -6.384 -39.110 0.000
v -7.058 -20.705 0.000
v 8.346 -20.760 12.430
v 8.615 -39.187 12.430
v -6.384 -39.110 12.430
v -7.058 -20.705 12.430
usemtl roof
f 42 43 44 45
usemtl teaching_building
f 41 40 39 38
f 38 39 43 42
f 39 40 44 43
f 40 41 45 44
f 41 38 42 45
o SD0305_T004_4hao
v -5.737 -65.927 0.000
v 39.908 -65.341 0.000
v 40.447 -43.808 0.000
v -5.998 -44.361 0.000
v -5.737 -65.927 17.080
v 39.908 -65.341 17.080
v 40.447 -43.808 17.080
v -5.998 -44.361 17.080
usemtl roof
f 50 51 52 53
usemtl teaching_building
f 49 48 47 46
f 46 47 51 50
f 47 48 52 51
f 48 49 53 52
f 49 46 50 53
