# school_id SD0301
# school_name 青岛第二实验初级中学
# boundary_source footprint_convex_hull_buffer_20m
# adjacent_block_merge_distance_m 2.0
mtllib ../campus_materials.mtl
o SD0301_campus_boundary
usemtl campus_boundary
v -70.089 -99.891 0.050
v -84.665 -36.078 0.050
v -92.413 1.069 0.050
v -80.132 39.730 0.050
v -73.062 51.203 0.050
v -62.525 59.718 0.050
v -52.856 63.792 0.050
v 39.488 101.092 0.050
v 62.856 72.575 0.050
v 91.079 -17.687 0.050
v 92.801 -29.829 0.050
v 90.652 -41.860 0.050
v 82.926 -56.620 0.050
v 68.097 -68.720 0.050
v -70.089 -99.891 0.050
l 1 2 3 4 5 6 7 8 9 10 11 12 13 14 15 1
o SD0301_T001_1hao
v 10.593 42.363 0.000
v 16.727 46.342 0.000
v 20.910 52.389 0.000
v 33.341 77.039 0.000
v 44.926 62.901 0.000
v 36.480 47.569 0.000
v 27.314 34.393 0.000
v 14.767 26.965 0.000
v -8.152 21.692 0.000
v -11.768 37.024 0.000
v 10.593 42.363 10.810
v 16.727 46.342 10.810
v 20.910 52.389 10.810
v 33.341 77.039 10.810
v 44.926 62.901 10.810
v 36.480 47.569 10.810
v 27.314 34.393 10.810
v 14.767 26.965 10.810
v -8.152 21.692 10.810
v -11.768 37.024 10.810
usemtl roof
f 26 27 28 29 30 31 32 33 34 35
usemtl teaching_building
f 25 24 23 22 21 20 19 18 17 16
f 16 17 27 26
f 17 18 28 27
f 18 19 29 28
f 19 20 30 29
f 20 21 31 30
f 21 22 32 31
f 22 23 33 32
f 23 24 34 33
f 24 25 35 34
f 25 16 26 35
o SD0301_T002_2hao
v -63.605 16.795 0.000
v -63.920 24.455 0.000
v -61.815 31.331 0.000
v -57.830 37.798 0.000
v -52.154 42.385 0.000
v -45.228 45.303 0.000
v -38.006 45.944 0.000
v -30.945 44.684 0.000
v -24.010 40.926 0.000
v -19.324 36.383 0.000
v -16.877 31.983 0.000
v -14.574 21.217 0.000
v -27.824 18.508 0.000
v -30.630 27.805 0.000
v -34.920 31.674 0.000
v -41.577 32.569 0.000
v -44.554 31.607 0.000
v -47.216 29.850 0.000
v -50.266 25.705 0.000
v -51.210 20.542 0.000
v -49.996 15.314 0.000
v -62.175 11.025 0.000
v -63.605 16.795 29.130
v -63.920 24.455 29.130
v -61.815 31.331 29.130
v -57.830 37.798 29.130
v -52.154 42.385 29.130
v -45.228 45.303 29.130
v -38.006 45.944 29.130
v -30.945 44.684 29.130
v -24.010 40.926 29.130
v -19.324 36.383 29.130
v -16.877 31.983 29.130
v -14.574 21.217 29.130
v -27.824 18.508 29.130
v -30.630 27.805 29.130
v -34.920 31.674 29.130
v -41.577 32.569 29.130
v -44.554 31.607 29.130
v -47.216 29.850 29.130
v -50.266 25.705 29.130
v -51.210 20.542 29.130
v -49.996 15.314 29.130
v -62.175 11.025 29.130
usemtl roof
f 58 59 60 61 62 63 64 65 66 67 68 69 70 71 72 73 74 75 76 77 78 79
usemtl teaching_building
f 57 56 55 54 53 52 51 50 49 48 47 46 45 44 43 42 41 40 39 38 37 36
f 36 37 59 58
f 37 38 60 59
f 38 39 61 60
f 39 40 62 61
f 40 41 63 62
f 41 42 64 63
f 42 43 65 64
f 43 44 66 65
f 44 45 67 66
f 45 46 68 67
f 46 47 69 68
f 47 48 70 69
f 48 49 71 70
f 49 50 72 71
f 50 51 73 72
f 51 52 74 73
f 52 53 75 74
f 53 54 76 75
f 54 55 77 76
f 55 56 78 77
f 56 57 79 78
f 57 36 58 79
o SD0301_T003_3hao
v -53.225 -39.636 0.000
v -47.675 -63.932 0.000
v 55.918 -40.608 0.000
v 59.084 -38.099 0.000
v 61.836 -32.583 0.000
v 61.899 -26.061 0.000
v 58.652 -20.092 0.000
v 51.996 -16.699 0.000
v 47.642 -16.389 0.000
v -17.956 -30.826 0.000
v -21.392 -15.693 0.000
v -18.010 -14.941 0.000
v -16.778 -20.534 0.000
v 52.634 -6.197 0.000
v 59.803 -8.894 0.000
v 66.244 -13.438 0.000
v 71.505 -22.104 0.000
v 72.549 -29.466 0.000
v 71.505 -35.313 0.000
v 67.107 -43.715 0.000
v 59.102 -50.247 0.000
v -55.033 -75.992 0.000
v -65.125 -31.809 0.000
v -71.763 0.015 0.000
v -45.804 5.310 0.000
v -38.878 -25.895 0.000
v -36.594 -35.579 0.000
v -53.225 -39.636 18.240
v -47.675 -63.932 18.240
v 55.918 -40.608 18.240
v 59.084 -38.099 18.240
v 61.836 -32.583 18.240
v 61.899 -26.061 18.240
v 58.652 -20.092 18.240
v 51.996 -16.699 18.240
v 47.642 -16.389 18.240
v -17.956 -30.826 18.240
v -21.392 -15.693 18.240
v -18.010 -14.941 18.240
v -16.778 -20.534 18.240
v 52.634 -6.197 18.240
v 59.803 -8.894 18.240
v 66.244 -13.438 18.240
v 71.505 -22.104 18.240
v 72.549 -29.466 18.240
v 71.505 -35.313 18.240
v 67.107 -43.715 18.240
v 59.102 -50.247 18.240
v -55.033 -75.992 18.240
v -65.125 -31.809 18.240
v -71.763 0.015 18.240
v -45.804 5.310 18.240
v -38.878 -25.895 18.240
v -36.594 -35.579 18.240
usemtl roof
f 107 108 109 110 111 112 113 114 115 116 117 118 119 120 121 122 123 124 125 126 127 128 129 130 131 132 133
usemtl teaching_building
f 106 105 104 103 102 101 100 99 98 97 96 95 94 93 92 91 90 89 88 87 86 85 84 83 82 81 80
f 80 81 108 107
f 81 82 109 108
f 82 83 110 109
f 83 84 111 110
f 84 85 112 111
f 85 86 113 112
f 86 87 114 113
f 87 88 115 114
f 88 89 116 115
f 89 90 117 116
f 90 91 118 117
f 91 92 119 118
f 92 93 120 119
f 93 94 121 120
f 94 95 122 121
f 95 96 123 122
f 96 97 124 123
f 97 98 125 124
f 98 99 126 125
f 99 100 127 126
f 100 101 128 127
f 101 102 129 128
f 102 103 130 129
f 103 104 131 130
f 104 105 132 131
f 105 106 133 132
f 106 80 107 133
o SD0301_T003_3hao_seg02
v -21.392 -15.693 0.000
v -26.933 8.604 0.000
v -1.469 14.319 0.000
v 4.072 -9.978 0.000
v -21.392 -15.693 18.240
v -26.933 8.604 18.240
v -1.469 14.319 18.240
v 4.072 -9.978 18.240
usemtl roof
f 138 139 140 141
usemtl teaching_building
f 137 136 135 134
f 134 135 139 138
f 135 136 140 139
f 136 137 141 140
f 137 134 138 141
