# school_id SD0356
# school_name 枣庄市十六中学（南校新校区）
# boundary_source footprint_convex_hull_buffer_20m
# adjacent_block_merge_distance_m 2.0
mtllib ../campus_materials.mtl
o SD0356_campus_boundary
usemtl campus_boundary
v -35.223 -81.942 0.050
v -60.311 15.769 0.050
v -70.341 54.837 0.050
v -31.273 64.870 0.050
v 35.223 81.942 0.050
v 60.311 -15.769 0.050
v 70.341 -54.838 0.050
v 3.847 -71.912 0.050
v -35.223 -81.942 0.050
l 1 2 3 4 5 6 7 8 9 1
o SD0356_T001_1hao
v 45.996 -40.440 0.000
v -1.127 -52.539 0.000
v -1.127 -52.540 0.000
v -20.825 -57.597 0.000
v -40.939 20.743 0.000
v -40.939 20.743 0.000
v -45.996 40.440 0.000
v -26.299 45.498 0.000
v -26.299 45.497 0.000
v 20.825 57.597 0.000
v 25.882 37.900 0.000
v -21.242 25.801 0.000
v -16.242 6.328 0.000
v 25.870 17.140 0.000
v 30.928 -2.557 0.000
v -11.184 -13.369 0.000
v -6.184 -32.842 0.000
v 40.939 -20.743 0.000
v 45.996 -40.440 13.590
v -1.127 -52.539 13.590
v -1.127 -52.540 13.590
v -20.825 -57.597 13.590
v -40.939 20.743 13.590
v -40.939 20.743 13.590
v -45.996 40.440 13.590
v -26.299 45.498 13.590
v -26.299 45.497 13.590
v 20.825 57.597 13.590
v 25.882 37.900 13.590
v -21.242 25.801 13.590
v -16.242 6.328 13.590
v 25.870 17.140 13.590
v 30.928 -2.557 13.590
v -11.184 -13.369 13.590
v -6.184 -32.842 13.590
v 40.939 -20.743 13.590
usemtl roof
f 28 29 30 31 32 33 34 35 36 37 38 39 40 41 42 43 44 45
usemtl teaching_building
f 27 26 25 24 23 22 21 20 19 18 17 16 15 14 13 12 11 10
f 10 11 29 28
f 11 12 30 29
f 12 13 31 30
f 13 14 32 31
f 14 15 33 32
f 15 16 34 33
f 16 17 35 34
f 17 18 36 35
f 18 19 37 36
f 19 20 38 37
f 20 21 39 38
f 21 22 40 39
f 22 23 41 40
f 23 24 42 41
f 24 25 43 42
f 25 26 44 43
f 26 27 45 44
f 27 10 28 45
