# school_id SD0366
# school_name 枣庄市第十七中学
# boundary_source footprint_convex_hull_buffer_20m
# adjacent_block_merge_distance_m 2.0
mtllib ../campus_materials.mtl
o SD0366_campus_boundary
usemtl campus_boundary
v 5.439 -159.498 0.050
v -24.770 -157.159 0.050
v -73.493 -81.424 0.050
v -157.922 60.532 0.050
v -156.472 91.626 0.050
v -79.979 90.331 0.050
v 46.318 84.765 0.050
v 88.484 51.983 0.050
v 87.712 1.637 0.050
v 83.649 -83.319 0.050
v 5.439 -159.498 0.050
l 1 2 3 4 5 6 7 8 9 10 11 1
o SD0366_T001_1hao
v -80.836 64.369 0.000
v -80.589 70.338 0.000
v -137.398 71.300 0.000
v -137.664 65.596 0.000
v -80.836 64.369 9.900
v -80.589 70.338 9.900
v -137.398 71.300 9.900
v -137.664 65.596 9.900
usemtl roof
f 16 17 18 19
usemtl teaching_building
f 15 14 13 12
f 12 13 17 16
f 13 14 18 17
f 14 15 19 18
f 15 12 16 19
o SD0366_T002_2hao
v -55.824 67.077 0.000
v -42.200 66.624 0.000
v -42.329 62.888 0.000
v -22.626 62.236 0.000
v -22.507 65.939 0.000
v -8.994 65.486 0.000
v -9.470 51.358 0.000
v -56.300 52.917 0.000
v -55.824 67.077 9.900
v -42.200 66.624 9.900
v -42.329 62.888 9.900
v -22.626 62.236 9.900
v -22.507 65.939 9.900
v -8.994 65.486 9.900
v -9.470 51.358 9.900
v -56.300 52.917 9.900
usemtl roof
f 28 29 30 31 32 33 34 35
usemtl teaching_building
f 27 26 25 24 23 22 21 20
f 20 21 29 28
f 21 22 30 29
f 22 23 31 30
f 23 24 32 31
f 24 25 33 32
f 25 26 34 33
f 26 27 35 34
f 27 20 28 35
o SD0366_T003_3hao
v -4.343 65.961 0.000
v 9.015 65.673 0.000
v 8.942 62.424 0.000
v 25.614 62.070 0.000
v 25.687 65.353 0.000
v 39.072 65.065 0.000
v 38.761 50.839 0.000
v -4.654 51.767 0.000
v -4.343 65.961 8.270
v 9.015 65.673 8.270
v 8.942 62.424 8.270
v 25.614 62.070 8.270
v 25.687 65.353 8.270
v 39.072 65.065 8.270
v 38.761 50.839 8.270
v -4.654 51.767 8.270
usemtl roof
f 44 45 46 47 48 49 50 51
usemtl teaching_building
f 43 42 41 40 39 38 37 36
f 36 37 45 44
f 37 38 46 45
f 38 39 47 46
f 39 40 48 47
f 40 41 49 48
f 41 42 50 49
f 42 43 51 50
f 43 36 44 51
o SD0366_T004_4hao
v 45.746 15.919 0.000
v 42.295 15.964 0.000
v 42.423 24.298 0.000
v 45.865 24.243 0.000
v 46.039 35.794 0.000
v 42.615 35.839 0.000
v 42.725 42.703 0.000
v 68.333 42.316 0.000
v 67.719 2.268 0.000
v 45.545 2.599 0.000
v 45.746 15.919 12.520
v 42.295 15.964 12.520
v 42.423 24.298 12.520
v 45.865 24.243 12.520
v 46.039 35.794 12.520
v 42.615 35.839 12.520
v 42.725 42.703 12.520
v 68.333 42.316 12.520
v 67.719 2.268 12.520
v 45.545 2.599 12.520
usemtl roof
f 62 63 64 65 66 67 68 69 70 71
usemtl teaching_building
f 61 60 59 58 57 56 55 54 53 52
f 52 53 63 62
f 53 54 64 63
f 54 55 65 64
f 55 56 66 65
f 56 57 67 66
f 57 58 68 67
f 58 59 69 68
f 59 60 70 69
f 60 61 71 70
f 61 52 62 71
o SD0366_T005_5hao
v -56.263 -7.515 0.000
v -50.623 -7.626 0.000
v -50.367 -3.127 0.000
v -1.761 -4.099 0.000
v -1.724 -2.121 0.000
v 7.880 -2.342 0.000
v 7.871 -4.287 0.000
v 59.315 -5.315 0.000
v 59.168 -9.770 0.000
v 64.964 -9.881 0.000
v 64.826 -14.313 0.000
v 7.806 -13.042 0.000
v 7.733 -18.448 0.000
v -1.880 -18.448 0.000
v -1.926 -12.832 0.000
v -56.410 -11.627 0.000
v -56.263 -7.515 13.650
v -50.623 -7.626 13.650
v -50.367 -3.127 13.650
v -1.761 -4.099 13.650
v -1.724 -2.121 13.650
v 7.880 -2.342 13.650
v 7.871 -4.287 13.650
v 59.315 -5.315 13.650
v 59.168 -9.770 13.650
v 64.964 -9.881 13.650
v 64.826 -14.313 13.650
v 7.806 -13.042 13.650
v 7.733 -18.448 13.650
v -1.880 -18.448 13.650
v -1.926 -12.832 13.650
v -56.410 -11.627 13.650
usemtl roof
f 88 89 90 91 92 93 94 95 96 97 98 99 100 101 102 103
usemtl teaching_building
f 87 86 85 84 83 82 81 80 79 78 77 76 75 74 73 72
f 72 73 89 88
f 73 74 90 89
f 74 75 91 90
f 75 76 92 91
f 76 77 93 92
f 77 78 94 93
f 78 79 95 94
f 79 80 96 95
f 80 81 97 96
f 81 82 98 97
f 82 83 99 98
f 83 84 100 99
f 84 85 101 100
f 85 86 102 101
f 86 87 103 102
f 87 72 88 103
o SD0366_T006_6hao
v -49.790 -71.054 0.000
v -49.717 -67.660 0.000
v -8.005 -68.600 0.000
v -7.804 -59.624 0.000
v -56.199 -58.529 0.000
v -56.483 -70.899 0.000
v -49.790 -71.054 9.900
v -49.717 -67.660 9.900
v -8.005 -68.600 9.900
v -7.804 -59.624 9.900
v -56.199 -58.529 9.900
v -56.483 -70.899 9.900
usemtl roof
f 110 111 112 113 114 115
usemtl teaching_building
f 109 108 107 106 105 104
f 104 105 111 110
f 105 106 112 111
f 106 107 113 112
f 107 108 114 113
f 108 109 115 114
f 109 104 110 115
o SD0366_T007_7hao
v 57.337 -70.578 0.000
v 57.255 -74.348 0.000
v 64.048 -74.491 0.000
v 64.341 -61.072 0.000
v 13.016 -59.955 0.000
v 12.805 -69.605 0.000
v 57.337 -70.578 23.020
v 57.255 -74.348 23.020
v 64.048 -74.491 23.020
v 64.341 -61.072 23.020
v 13.016 -59.955 23.020
v 12.805 -69.605 23.020
usemtl roof
f 122 123 124 125 126 127
usemtl teaching_building
f 121 120 119 118 117 116
f 116 117 123 122
f 117 118 124 123
f 118 119 125 124
f 119 120 126 125
f 120 121 127 126
f 121 116 122 127
