# school_id SD0367
# school_name 枣庄市第四十四中学
# boundary_source footprint_convex_hull_buffer_20m
# adjacent_block_merge_distance_m 2.0
mtllib ../campus_materials.mtl
o SD0367_campus_boundary
usemtl campus_boundary
v -11.859 -92.446 0.050
v -127.912 69.739 0.050
v -127.188 112.536 0.050
v -44.502 111.133 0.050
v 104.339 -3.996 0.050
v 104.812 -27.475 0.050
v 98.546 -89.891 0.050
v -11.859 -92.446 0.050
l 1 2 3 4 5 6 7 8 1
o SD0367_T001_1hao
v -107.529 92.200 0.000
v -107.803 76.005 0.000
v -51.758 75.055 0.000
v -51.484 91.249 0.000
v -107.529 92.200 12.110
v -107.803 76.005 12.110
v -51.758 75.055 12.110
v -51.484 91.249 12.110
usemtl roof
f 13 14 15 16
usemtl teaching_building
f 12 11 10 9
f 9 10 14 13
f 10 11 15 14
f 11 12 16 15
f 12 9 13 16
o SD0367_T002_2hao
v -3.751 -15.721 0.000
v -3.495 -28.433 0.000
v 84.792 -26.675 0.000
v 84.536 -13.963 0.000
v -3.751 -15.721 9.900
v -3.495 -28.433 9.900
v 84.792 -26.675 9.900
v 84.536 -13.963 9.900
usemtl roof
f 21 22 23 24
usemtl teaching_building
f 20 19 18 17
f 17 18 22 21
f 18 19 23 22
f 19 20 24 23
f 20 17 21 24
o SD0367_T003_3hao
v -2.169 -54.553 0.000
v -1.749 -72.207 0.000
v 80.412 -70.305 0.000
v 80.000 -52.652 0.000
v -2.169 -54.553 9.790
v -1.749 -72.207 9.790
v 80.412 -70.305 9.790
v 80.000 -52.652 9.790
usemtl roof
f 29 30 31 32
usemtl teaching_building
f 28 27 26 25
f 25 26 30 29
f 26 27 31 30
f 27 28 32 31
f 28 25 29 32
