# school_id SD0346
# school_name 金山中学
# boundary_source footprint_convex_hull_buffer_20m
# adjacent_block_merge_distance_m 2.0
mtllib ../campus_materials.mtl
o SD0346_campus_boundary
usemtl campus_boundary
v -60.338 -118.159 0.050
v -103.890 -105.312 0.050
v -60.360 26.606 0.050
v -13.789 56.162 0.050
v 60.254 57.767 0.050
v 89.890 50.407 0.050
v 76.834 -2.369 0.050
v -60.338 -118.159 0.050
l 1 2 3 4 5 6 7 8 1
o SD0346_T001_1hao
v 52.991 21.564 0.000
v 58.022 37.714 0.000
v 65.677 35.813 0.000
v 58.977 8.730 0.000
v -10.653 25.367 0.000
v -7.780 36.288 0.000
v 52.991 21.564 10.120
v 58.022 37.714 10.120
v 65.677 35.813 10.120
v 58.977 8.730 10.120
v -10.653 25.367 10.120
v -7.780 36.288 10.120
usemtl roof
f 15 16 17 18 19 20
usemtl teaching_building
f 14 13 12 11 10 9
f 9 10 16 15
f 10 11 17 16
f 11 12 18 17
f 12 13 19 18
f 13 14 20 19
f 14 9 15 20
o SD0346_T002_2hao
v -78.427 -91.971 0.000
v -65.009 -95.929 0.000
v -30.190 8.874 0.000
v -43.607 13.550 0.000
v -78.427 -91.971 11.330
v -65.009 -95.929 11.330
v -30.190 8.874 11.330
v -43.607 13.550 11.330
usemtl roof
f 25 26 27 28
usemtl teaching_building
f 24 23 22 21
f 21 22 26 25
f 22 23 27 26
f 23 24 28 27
f 24 21 25 28
