# school_id SD0385
# school_name 盈园中学
# boundary_source footprint_convex_hull_buffer_20m
# adjacent_block_merge_distance_m 2.0
mtllib ../campus_materials.mtl
o SD0385_campus_boundary
usemtl campus_boundary
v 44.213 -33.502 0.050
v -44.559 -33.047 0.050
v -44.213 33.494 0.050
v 44.559 33.055 0.050
v 44.213 -33.502 0.050
l 1 2 3 4 5 1
o SD0385_T001_1hao
v 24.317 -13.400 0.000
v 24.455 13.154 0.000
v -24.317 13.395 0.000
v -24.455 -13.150 0.000
v 24.317 -13.400 9.900
v 24.455 13.154 9.900
v -24.317 13.395 9.900
v -24.455 -13.150 9.900
usemtl roof
f 10 11 12 13
usemtl teaching_building
f 9 8 7 6
f 6 7 11 10
f 7 8 12 11
f 8 9 13 12
f 9 6 10 13
