# school_id SD0334
# school_name 淄博中学
# boundary_source footprint_convex_hull_buffer_20m
# adjacent_block_merge_distance_m 2.0
mtllib ../campus_materials.mtl
o SD0334_campus_boundary
usemtl campus_boundary
v 151.233 -150.238 0.050
v 128.131 -148.434 0.050
v -68.459 -127.193 0.050
v -122.135 -116.453 0.050
v -281.975 -62.667 0.050
v -293.792 -49.225 0.050
v -302.080 -32.535 0.050
v -303.912 -10.238 0.050
v -299.509 10.069 0.050
v -289.655 28.697 0.050
v -167.935 228.507 0.050
v -101.168 221.791 0.050
v -28.621 214.104 0.050
v 175.124 192.400 0.050
v 258.119 -34.170 0.050
v 256.924 -49.057 0.050
v 224.816 -133.062 0.050
v 216.331 -147.843 0.050
v 151.233 -150.238 0.050
l 1 2 3 4 5 6 7 8 9 10 11 12 13 14 15 16 17 18 19 1
o SD0334_T001_1hao
v -159.322 188.544 0.000
v -105.148 183.083 0.000
v -103.223 201.897 0.000
v -157.406 207.347 0.000
v -159.322 188.544 9.260
v -105.148 183.083 9.260
v -103.223 201.897 9.260
v -157.406 207.347 9.260
usemtl roof
f 24 25 26 27
usemtl teaching_building
f 23 22 21 20
f 20 21 25 24
f 21 22 26 25
f 22 23 27 26
f 23 20 24 27
o SD0334_T002_2hao
v -86.026 180.209 0.000
v -32.422 175.445 0.000
v -30.729 194.215 0.000
v -84.333 198.990 0.000
v -86.026 180.209 11.290
v -32.422 175.445 11.290
v -30.729 194.215 11.290
v -84.333 198.990 11.290
usemtl roof
f 32 33 34 35
usemtl teaching_building
f 31 30 29 28
f 28 29 33 32
f 29 30 34 33
f 30 31 35 34
f 31 28 32 35
o SD0334_T003_3hao
v 89.754 181.060 0.000
v 87.910 161.583 0.000
v 32.096 166.790 0.000
v 33.941 186.278 0.000
v 89.754 181.060 9.750
v 87.910 161.583 9.750
v 32.096 166.790 9.750
v 33.941 186.278 9.750
usemtl roof
f 40 41 42 43
usemtl teaching_building
f 39 38 37 36
f 36 37 41 40
f 37 38 42 41
f 38 39 43 42
f 39 36 40 43
o SD0334_T004_4hao
v 160.626 173.831 0.000
v 158.924 154.741 0.000
v 104.234 159.538 0.000
v 105.935 178.640 0.000
v 160.626 173.831 13.220
v 158.924 154.741 13.220
v 104.234 159.538 13.220
v 105.935 178.640 13.220
usemtl roof
f 48 49 50 51
usemtl teaching_building
f 47 46 45 44
f 44 45 49 48
f 45 46 50 49
f 46 47 51 50
f 47 44 48 51
o SD0334_T005_5hao
v -164.793 134.401 0.000
v -109.808 129.062 0.000
v -107.883 148.584 0.000
v -162.868 153.934 0.000
v -164.793 134.401 9.980
v -109.808 129.062 9.980
v -107.883 148.584 9.980
v -162.868 153.934 9.980
usemtl roof
f 56 57 58 59
usemtl teaching_building
f 55 54 53 52
f 52 53 57 56
f 53 54 58 57
f 54 55 59 58
f 55 52 56 59
o SD0334_T006_6hao
v -92.014 125.636 0.000
v -37.849 120.518 0.000
v -35.871 141.045 0.000
v -90.036 146.174 0.000
v -92.014 125.636 9.990
v -37.849 120.518 9.990
v -35.871 141.045 9.990
v -90.036 146.174 9.990
usemtl roof
f 64 65 66 67
usemtl teaching_building
f 63 62 61 60
f 60 61 65 64
f 61 62 66 65
f 62 63 67 66
f 63 60 64 67
o SD0334_T007_7hao
v 86.021 136.402 0.000
v 81.040 84.471 0.000
v 29.922 89.301 0.000
v 34.894 141.233 0.000
v 86.021 136.402 12.220
v 81.040 84.471 12.220
v 29.922 89.301 12.220
v 34.894 141.233 12.220
usemtl roof
f 72 73 74 75
usemtl teaching_building
f 71 70 69 68
f 68 69 73 72
f 69 70 74 73
f 70 71 75 74
f 71 68 72 75
o SD0334_T008_8hao
v -172.259 63.457 0.000
v -146.642 62.374 0.000
v -142.980 57.101 0.000
v -97.226 85.266 0.000
v -108.391 103.074 0.000
v -115.706 99.438 0.000
v -118.638 104.169 0.000
v -117.720 110.713 0.000
v -166.405 114.891 0.000
v -172.259 63.457 10.760
v -146.642 62.374 10.760
v -142.980 57.101 10.760
v -97.226 85.266 10.760
v -108.391 103.074 10.760
v -115.706 99.438 10.760
v -118.638 104.169 10.760
v -117.720 110.713 10.760
v -166.405 114.891 10.760
usemtl roof
f 85 86 87 88 89 90 91 92 93
usemtl teaching_building
f 84 83 82 81 80 79 78 77 76
f 76 77 86 85
f 77 78 87 86
f 78 79 88 87
f 79 80 89 88
f 80 81 90 89
f 81 82 91 90
f 82 83 92 91
f 83 84 93 92
f 84 76 85 93
o SD0334_T009_9hao
v 15.960 6.761 0.000
v -9.113 9.491 0.000
v -8.204 15.483 0.000
v -65.854 27.111 0.000
v -64.383 33.655 0.000
v -68.598 34.385 0.000
v -66.584 50.922 0.000
v -49.566 49.827 0.000
v -49.931 46.378 0.000
v 19.622 40.376 0.000
v 18.412 29.267 0.000
v 84.043 22.391 0.000
v 82.208 0.582 0.000
v 15.960 6.761 10.730
v -9.113 9.491 10.730
v -8.204 15.483 10.730
v -65.854 27.111 10.730
v -64.383 33.655 10.730
v -68.598 34.385 10.730
v -66.584 50.922 10.730
v -49.566 49.827 10.730
v -49.931 46.378 10.730
v 19.622 40.376 10.730
v 18.412 29.267 10.730
v 84.043 22.391 10.730
v 82.208 0.582 10.730
usemtl roof
f 107 108 109 110 111 112 113 114 115 116 117 118 119
usemtl teaching_building
f 106 105 104 103 102 101 100 99 98 97 96 95 94
f 94 95 108 107
f 95 96 109 108
f 96 97 110 109
f 97 98 111 110
f 98 99 112 111
f 99 100 113 112
f 100 101 114 113
f 101 102 115 114
f 102 103 116 115
f 103 104 117 116
f 104 105 118 117
f 105 106 119 118
f 106 94 107 119
o SD0334_T010_10hao
v -272.259 18.810 0.000
v -280.545 3.146 0.000
v -283.735 -11.567 0.000
v -282.461 -27.075 0.000
v -277.043 -37.986 0.000
v -270.503 -45.425 0.000
v -245.332 -47.791 0.000
v -241.991 -44.320 0.000
v -235.299 -34.349 0.000
v -230.995 -20.741 0.000
v -228.607 -3.177 0.000
v -229.240 6.474 0.000
v -232.590 18.965 0.000
v -236.734 28.626 0.000
v -263.019 30.991 0.000
v -272.259 18.810 14.250
v -280.545 3.146 14.250
v -283.735 -11.567 14.250
v -282.461 -27.075 14.250
v -277.043 -37.986 14.250
v -270.503 -45.425 14.250
v -245.332 -47.791 14.250
v -241.991 -44.320 14.250
v -235.299 -34.349 14.250
v -230.995 -20.741 14.250
v -228.607 -3.177 14.250
v -229.240 6.474 14.250
v -232.590 18.965 14.250
v -236.734 28.626 14.250
v -263.019 30.991 14.250
usemtl roof
f 135 136 137 138 139 140 141 142 143 144 145 146 147 148 149
usemtl teaching_building
f 134 133 132 131 130 129 128 127 126 125 124 123 122 121 120
f 120 121 136 135
f 121 122 137 136
f 122 123 138 137
f 123 124 139 138
f 124 125 140 139
f 125 126 141 140
f 126 127 142 141
f 127 128 143 142
f 128 129 144 143
f 129 130 145 144
f 130 131 146 145
f 131 132 147 146
f 132 133 148 147
f 133 134 149 148
f 134 120 135 149
o SD0334_T011_11hao
v -41.627 -15.867 0.000
v -57.113 -14.617 0.000
v -58.021 -25.627 0.000
v -77.401 -24.058 0.000
v -76.733 -15.878 0.000
v -116.668 -12.650 0.000
v -116.838 -14.717 0.000
v -128.947 -13.744 0.000
v -128.617 -9.776 0.000
v -130.470 -9.621 0.000
v -129.838 -1.883 0.000
v -66.967 -6.957 0.000
v -66.727 -3.995 0.000
v -40.825 -6.084 0.000
v -41.627 -15.867 16.710
v -57.113 -14.617 16.710
v -58.021 -25.627 16.710
v -77.401 -24.058 16.710
v -76.733 -15.878 16.710
v -116.668 -12.650 16.710
v -116.838 -14.717 16.710
v -128.947 -13.744 16.710
v -128.617 -9.776 16.710
v -130.470 -9.621 16.710
v -129.838 -1.883 16.710
v -66.967 -6.957 16.710
v -66.727 -3.995 16.710
v -40.825 -6.084 16.710
usemtl roof
f 164 165 166 167 168 169 170 171 172 173 174 175 176 177
usemtl teaching_building
f 163 162 161 160 159 158 157 156 155 154 153 152 151 150
f 150 151 165 164
f 151 152 166 165
f 152 153 167 166
f 153 154 168 167
f 154 155 169 168
f 155 156 170 169
f 156 157 171 170
f 157 158 172 171
f 158 159 173 172
f 159 160 174 173
f 160 161 175 174
f 161 162 176 175
f 162 163 177 176
f 163 150 164 177
o SD0334_T012_12hao
v 65.242 -16.795 0.000
v 58.239 -8.405 0.000
v 54.256 -11.257 0.000
v 49.311 -17.270 0.000
v 46.602 -24.544 0.000
v 45.809 -29.927 0.000
v 42.459 -29.927 0.000
v 41.185 -33.564 0.000
v 46.130 -34.194 0.000
v 47.404 -38.782 0.000
v 52.340 -47.802 0.000
v 61.901 -54.920 0.000
v 73.850 -57.297 0.000
v 83.731 -55.086 0.000
v 89.781 -51.604 0.000
v 97.907 -42.584 0.000
v 98.861 -38.947 0.000
v 101.258 -39.102 0.000
v 101.730 -36.095 0.000
v 106.987 -36.095 0.000
v 110.177 -27.551 0.000
v 62.855 -23.439 0.000
v 65.242 -16.795 7.800
v 58.239 -8.405 7.800
v 54.256 -11.257 7.800
v 49.311 -17.270 7.800
v 46.602 -24.544 7.800
v 45.809 -29.927 7.800
v 42.459 -29.927 7.800
v 41.185 -33.564 7.800
v 46.130 -34.194 7.800
v 47.404 -38.782 7.800
v 52.340 -47.802 7.800
v 61.901 -54.920 7.800
v 73.850 -57.297 7.800
v 83.731 -55.086 7.800
v 89.781 -51.604 7.800
v 97.907 -42.584 7.800
v 98.861 -38.947 7.800
v 101.258 -39.102 7.800
v 101.730 -36.095 7.800
v 106.987 -36.095 7.800
v 110.177 -27.551 7.800
v 62.855 -23.439 7.800
usemtl roof
f 200 201 202 203 204 205 206 207 208 209 210 211 212 213 214 215 216 217 218 219 220 221
usemtl teaching_building
f 199 198 197 196 195 194 193 192 191 190 189 188 187 186 185 184 183 182 181 180 179 178
f 178 179 201 200
f 179 180 202 201
f 180 181 203 202
f 181 182 204 203
f 182 183 205 204
f 183 184 206 205
f 184 185 207 206
f 185 186 208 207
f 186 187 209 208
f 187 188 210 209
f 188 189 211 210
f 189 190 212 211
f 190 191 213 212
f 191 192 214 213
f 192 193 215 214
f 193 194 216 215
f 194 195 217 216
f 195 196 218 217
f 196 197 219 218
f 197 198 220 219
f 198 199 221 220
f 199 178 200 221
o SD0334_T013_13hao
v 147.867 -37.853 0.000
v 159.709 -38.782 0.000
v 158.933 -48.476 0.000
v 182.136 -50.300 0.000
v 182.786 -42.175 0.000
v 223.372 -45.370 0.000
v 223.203 -47.459 0.000
v 235.035 -48.399 0.000
v 235.356 -44.452 0.000
v 237.218 -44.596 0.000
v 237.833 -36.936 0.000
v 175.328 -32.028 0.000
v 175.560 -29.043 0.000
v 148.740 -26.921 0.000
v 147.867 -37.853 13.400
v 159.709 -38.782 13.400
v 158.933 -48.476 13.400
v 182.136 -50.300 13.400
v 182.786 -42.175 13.400
v 223.372 -45.370 13.400
v 223.203 -47.459 13.400
v 235.035 -48.399 13.400
v 235.356 -44.452 13.400
v 237.218 -44.596 13.400
v 237.833 -36.936 13.400
v 175.328 -32.028 13.400
v 175.560 -29.043 13.400
v 148.740 -26.921 13.400
usemtl roof
f 236 237 238 239 240 241 242 243 244 245 246 247 248 249
usemtl teaching_building
f 235 234 233 232 231 230 229 228 227 226 225 224 223 222
f 222 223 237 236
f 223 224 238 237
f 224 225 239 238
f 225 226 240 239
f 226 227 241 240
f 227 228 242 241
f 228 229 243 242
f 229 230 244 243
f 230 231 245 244
f 231 232 246 245
f 232 233 247 246
f 233 234 248 247
f 234 235 249 248
f 235 222 236 249
o SD0334_T014_14hao
v -36.111 -56.999 0.000
v -51.597 -55.738 0.000
v -52.497 -66.748 0.000
v -71.886 -65.178 0.000
v -71.209 -57.010 0.000
v -111.144 -53.771 0.000
v -111.313 -55.849 0.000
v -123.422 -54.865 0.000
v -123.102 -50.897 0.000
v -124.955 -50.753 0.000
v -124.322 -43.015 0.000
v -61.452 -48.089 0.000
v -61.211 -45.115 0.000
v -35.309 -47.216 0.000
v -36.111 -56.999 11.570
v -51.597 -55.738 11.570
v -52.497 -66.748 11.570
v -71.886 -65.178 11.570
v -71.209 -57.010 11.570
v -111.144 -53.771 11.570
v -111.313 -55.849 11.570
v -123.422 -54.865 11.570
v -123.102 -50.897 11.570
v -124.955 -50.753 11.570
v -124.322 -43.015 11.570
v -61.452 -48.089 11.570
v -61.211 -45.115 11.570
v -35.309 -47.216 11.570
usemtl roof
f 264 265 266 267 268 269 270 271 272 273 274 275 276 277
usemtl teaching_building
f 263 262 261 260 259 258 257 256 255 254 253 252 251 250
f 250 251 265 264
f 251 252 266 265
f 252 253 267 266
f 253 254 268 267
f 254 255 269 268
f 255 256 270 269
f 256 257 271 270
f 257 258 272 271
f 258 259 273 272
f 259 260 274 273
f 260 261 275 274
f 261 262 276 275
f 262 263 277 276
f 263 250 264 277
o SD0334_T015_15hao
v 131.837 -77.581 0.000
v 145.096 -78.642 0.000
v 144.330 -88.138 0.000
v 166.106 -89.873 0.000
v 166.765 -81.748 0.000
v 207.467 -84.998 0.000
v 207.298 -87.088 0.000
v 219.059 -88.027 0.000
v 219.380 -84.092 0.000
v 221.242 -84.236 0.000
v 221.857 -76.619 0.000
v 159.406 -71.656 0.000
v 159.646 -68.672 0.000
v 132.737 -66.527 0.000
v 131.837 -77.581 15.450
v 145.096 -78.642 15.450
v 144.330 -88.138 15.450
v 166.106 -89.873 15.450
v 166.765 -81.748 15.450
v 207.467 -84.998 15.450
v 207.298 -87.088 15.450
v 219.059 -88.027 15.450
v 219.380 -84.092 15.450
v 221.242 -84.236 15.450
v 221.857 -76.619 15.450
v 159.406 -71.656 15.450
v 159.646 -68.672 15.450
v 132.737 -66.527 15.450
usemtl roof
f 292 293 294 295 296 297 298 299 300 301 302 303 304 305
usemtl teaching_building
f 291 290 289 288 287 286 285 284 283 282 281 280 279 278
f 278 279 293 292
f 279 280 294 293
f 280 281 295 294
f 281 282 296 295
f 282 283 297 296
f 283 284 298 297
f 284 285 299 298
f 285 286 300 299
f 286 287 301 300
f 287 288 302 301
f 288 289 303 302
f 289 290 304 303
f 290 291 305 304
f 291 278 292 305
o SD0334_T016_16hao
v -29.642 -99.225 0.000
v -45.128 -97.965 0.000
v -46.037 -108.974 0.000
v -65.417 -107.405 0.000
v -64.749 -99.225 0.000
v -104.684 -95.997 0.000
v -104.854 -98.064 0.000
v -116.963 -97.091 0.000
v -116.633 -93.123 0.000
v -118.495 -92.979 0.000
v -117.854 -85.230 0.000
v -54.992 -90.304 0.000
v -54.742 -87.342 0.000
v -28.840 -89.431 0.000
v -29.642 -99.225 16.230
v -45.128 -97.965 16.230
v -46.037 -108.974 16.230
v -65.417 -107.405 16.230
v -64.749 -99.225 16.230
v -104.684 -95.997 16.230
v -104.854 -98.064 16.230
v -116.963 -97.091 16.230
v -116.633 -93.123 16.230
v -118.495 -92.979 16.230
v -117.854 -85.230 16.230
v -54.992 -90.304 16.230
v -54.742 -87.342 16.230
v -28.840 -89.431 16.230
usemtl roof
f 320 321 322 323 324 325 326 327 328 329 330 331 332 333
usemtl teaching_building
f 319 318 317 316 315 314 313 312 311 310 309 308 307 306
f 306 307 321 320
f 307 308 322 321
f 308 309 323 322
f 309 310 324 323
f 310 311 325 324
f 311 312 326 325
f 312 313 327 326
f 313 314 328 327
f 314 315 329 328
f 315 316 330 329
f 316 317 331 330
f 317 318 332 331
f 318 319 333 332
f 319 306 320 333
o SD0334_T017_17hao
v 117.447 -117.663 0.000
v 130.759 -118.702 0.000
v 129.984 -128.518 0.000
v 151.645 -130.209 0.000
v 152.286 -122.073 0.000
v 192.863 -125.257 0.000
v 192.694 -127.346 0.000
v 204.509 -128.264 0.000
v 204.821 -124.317 0.000
v 206.692 -124.461 0.000
v 207.289 -116.845 0.000
v 144.739 -111.970 0.000
v 144.980 -108.985 0.000
v 118.294 -106.896 0.000
v 117.447 -117.663 13.040
v 130.759 -118.702 13.040
v 129.984 -128.518 13.040
v 151.645 -130.209 13.040
v 152.286 -122.073 13.040
v 192.863 -125.257 13.040
v 192.694 -127.346 13.040
v 204.509 -128.264 13.040
v 204.821 -124.317 13.040
v 206.692 -124.461 13.040
v 207.289 -116.845 13.040
v 144.739 -111.970 13.040
v 144.980 -108.985 13.040
v 118.294 -106.896 13.040
usemtl roof
f 348 349 350 351 352 353 354 355 356 357 358 359 360 361
usemtl teaching_building
f 347 346 345 344 343 342 341 340 339 338 337 336 335 334
f 334 335 349 348
f 335 336 350 349
f 336 337 351 350
f 337 338 352 351
f 338 339 353 352
f 339 340 354 353
f 340 341 355 354
f 341 342 356 355
f 342 343 357 356
f 343 344 358 357
f 344 345 359 358
f 345 346 360 359
f 346 347 361 360
f 347 334 348 361
