# school_id SD0382
# school_name 滕州市第四实验小学红荷路校区
# boundary_source footprint_convex_hull_buffer_20m
# adjacent_block_merge_distance_m 2.0
mtllib ../campus_materials.mtl
o SD0382_campus_boundary
usemtl campus_boundary
v 57.842 -62.909 0.050
v -64.935 -62.455 0.050
v -64.443 63.889 0.050
v 58.077 63.435 0.050
v 57.960 -30.449 0.050
v 57.842 -62.909 0.050
l 1 2 3 4 5 6 1
o SD0382_T001_1hao
v 37.915 -42.835 0.000
v 37.960 -30.400 0.000
v -33.638 -30.122 0.000
v -33.562 -7.052 0.000
v 35.747 -7.311 0.000
v 35.801 5.725 0.000
v -33.501 5.975 0.000
v -33.402 30.751 0.000
v 38.006 30.473 0.000
v 38.052 43.509 0.000
v -44.521 43.815 0.000
v -44.857 -42.529 0.000
v 37.915 -42.835 9.900
v 37.960 -30.400 9.900
v -33.638 -30.122 9.900
v -33.562 -7.052 9.900
v 35.747 -7.311 9.900
v 35.801 5.725 9.900
v -33.501 5.975 9.900
v -33.402 30.751 9.900
v 38.006 30.473 9.900
v 38.052 43.509 9.900
v -44.521 43.815 9.900
v -44.857 -42.529 9.900
usemtl roof
f 19 20 21 22 23 24 25 26 27 28 29 30
usemtl teaching_building
f 18 17 16 15 14 13 12 11 10 9 8 7
f 7 8 20 19
f 8 9 21 20
f 9 10 22 21
f 10 11 23 22
f 11 12 24 23
f 12 13 25 24
f 13 14 26 25
f 14 15 27 26
f 15 16 28 27
f 16 17 29 28
f 17 18 30 29
f 18 7 19 30
