# school_id SD0344
# school_name 淄博高新区第二小学
# boundary_source footprint_convex_hull_buffer_20m
# adjacent_block_merge_distance_m 2.0
mtllib ../campus_materials.mtl
o SD0344_campus_boundary
usemtl campus_boundary
v 44.268 -70.343 0.050
v -35.901 -53.449 0.050
v -68.890 -46.497 0.050
v -51.220 37.354 0.050
v -44.268 70.342 0.050
v -11.280 63.392 0.050
v 68.890 46.497 0.050
v 51.220 -37.354 0.050
v 44.268 -70.343 0.050
l 1 2 3 4 5 6 7 8 9 1
o SD0344_T001_1hao
v 28.822 -46.649 0.000
v -31.777 -33.879 0.000
v -31.777 -33.879 0.000
v -45.196 -31.051 0.000
v -31.650 33.230 0.000
v -31.650 33.230 0.000
v -28.822 46.649 0.000
v -15.403 43.822 0.000
v -15.403 43.821 0.000
v 45.196 31.051 0.000
v 42.368 17.632 0.000
v -18.231 30.402 0.000
v -22.176 11.681 0.000
v 32.872 0.080 0.000
v 30.044 -13.339 0.000
v -25.004 -1.738 0.000
v -28.949 -20.460 0.000
v 31.650 -33.230 0.000
v 28.822 -46.649 12.280
v -31.777 -33.879 12.280
v -31.777 -33.879 12.280
v -45.196 -31.051 12.280
v -31.650 33.230 12.280
v -31.650 33.230 12.280
v -28.822 46.649 12.280
v -15.403 43.822 12.280
v -15.403 43.821 12.280
v 45.196 31.051 12.280
v 42.368 17.632 12.280
v -18.231 30.402 12.280
v -22.176 11.681 12.280
v 32.872 0.080 12.280
v 30.044 -13.339 12.280
v -25.004 -1.738 12.280
v -28.949 -20.460 12.280
v 31.650 -33.230 12.280
usemtl roof
f 28 29 30 31 32 33 34 35 36 37 38 39 40 41 42 43 44 45
usemtl teaching_building
f 27 26 25 24 23 22 21 20 19 18 17 16 15 14 13 12 11 10
f 10 11 29 28
f 11 12 30 29
f 12 13 31 30
f 13 14 32 31
f 14 15 33 32
f 15 16 34 33
f 16 17 35 34
f 17 18 36 35
f 18 19 37 36
f 19 20 38 37
f 20 21 39 38
f 21 22 40 39
f 22 23 41 40
f 23 24 42 41
f 24 25 43 42
f 25 26 44 43
f 26 27 45 44
f 27 10 28 45
