# school_id SD0313
# school_name 青岛金门路小学(有光伏)
# boundary_source footprint_convex_hull_buffer_20m
# adjacent_block_merge_distance_m 2.0
mtllib ../campus_materials.mtl
o SD0313_campus_boundary
usemtl campus_boundary
v 7.748 -53.045 0.050
v -42.455 -49.493 0.050
v -71.041 -22.161 0.050
v 32.052 90.266 0.050
v 91.207 36.978 0.050
v 7.748 -53.045 0.050
l 1 2 3 4 5 6 1
o SD0313_T001_1hao
v 33.395 62.138 0.000
v -43.062 -21.242 0.000
v -33.848 -30.052 0.000
v -18.830 -14.123 0.000
v -0.402 -32.418 0.000
v 62.747 35.697 0.000
v 33.395 62.138 16.330
v -43.062 -21.242 16.330
v -33.848 -30.052 16.330
v -18.830 -14.123 16.330
v -0.402 -32.418 16.330
v 62.747 35.697 16.330
usemtl roof
f 13 14 15 16 17 18
usemtl teaching_building
f 12 11 10 9 8 7
f 7 8 14 13
f 8 9 15 14
f 9 10 16 15
f 10 11 17 16
f 11 12 18 17
f 12 7 13 18
