# school_id SD0352
# school_name 山亭区实验中学
# boundary_source footprint_convex_hull_buffer_20m
# adjacent_block_merge_distance_m 2.0
mtllib ../campus_materials.mtl
o SD0352_campus_boundary
usemtl campus_boundary
v -54.016 -105.039 0.050
v -62.900 -73.004 0.050
v -62.840 -45.079 0.050
v -62.463 110.996 0.050
v 106.075 108.312 0.050
v 107.373 57.250 0.050
v 107.003 15.048 0.050
v 105.254 -24.797 0.050
v 19.537 -104.927 0.050
v -54.016 -105.039 0.050
l 1 2 3 4 5 6 7 8 9 10 1
o SD0352_T001_1hao
v 86.569 88.620 0.000
v 86.342 72.680 0.000
v -42.548 74.836 0.000
v -42.512 90.676 0.000
v 86.569 88.620 11.990
v 86.342 72.680 11.990
v -42.548 74.836 11.990
v -42.512 90.676 11.990
usemtl roof
f 15 16 17 18
usemtl teaching_building
f 14 13 12 11
f 11 12 16 15
f 12 13 17 16
f 13 14 18 17
f 14 11 15 18
o SD0352_T002_2hao
v 10.822 56.232 0.000
v 11.068 40.579 0.000
v 2.151 40.701 0.000
v 2.024 47.610 0.000
v -33.277 47.974 0.000
v -33.395 41.187 0.000
v -42.312 41.187 0.000
v -42.193 56.829 0.000
v 10.822 56.232 11.650
v 11.068 40.579 11.650
v 2.151 40.701 11.650
v 2.024 47.610 11.650
v -33.277 47.974 11.650
v -33.395 41.187 11.650
v -42.312 41.187 11.650
v -42.193 56.829 11.650
usemtl roof
f 27 28 29 30 31 32 33 34
usemtl teaching_building
f 26 25 24 23 22 21 20 19
f 19 20 28 27
f 20 21 29 28
f 21 22 30 29
f 22 23 31 30
f 23 24 32 31
f 24 25 33 32
f 25 26 34 33
f 26 19 27 34
o SD0352_T003_3hao
v 87.371 57.083 0.000
v 87.007 15.575 0.000
v 39.374 15.984 0.000
v 39.729 57.492 0.000
v 87.371 57.083 11.590
v 87.007 15.575 11.590
v 39.374 15.984 11.590
v 39.729 57.492 11.590
usemtl roof
f 39 40 41 42
usemtl teaching_building
f 38 37 36 35
f 35 36 40 39
f 36 37 41 40
f 37 38 42 41
f 38 35 39 42
o SD0352_T004_4hao
v -42.375 -15.166 0.000
v 14.146 -15.232 0.000
v 14.037 -20.196 0.000
v 29.028 -20.306 0.000
v 28.928 -15.442 0.000
v 85.631 -15.763 0.000
v 85.495 -6.013 0.000
v -25.153 -5.339 0.000
v -25.153 33.107 0.000
v -41.756 33.107 0.000
v -42.375 -15.166 11.800
v 14.146 -15.232 11.800
v 14.037 -20.196 11.800
v 29.028 -20.306 11.800
v 28.928 -15.442 11.800
v 85.631 -15.763 11.800
v 85.495 -6.013 11.800
v -25.153 -5.339 11.800
v -25.153 33.107 11.800
v -41.756 33.107 11.800
usemtl roof
f 53 54 55 56 57 58 59 60 61 62
usemtl teaching_building
f 52 51 50 49 48 47 46 45 44 43
f 43 44 54 53
f 44 45 55 54
f 45 46 56 55
f 46 47 57 56
f 47 48 58 57
f 48 49 59 58
f 49 50 60 59
f 50 51 61 60
f 51 52 62 61
f 52 43 53 62
o SD0352_T005_5hao
v -42.894 -70.303 0.000
v -30.854 -70.392 0.000
v -30.672 -46.681 0.000
v -42.840 -46.593 0.000
v -42.894 -70.303 9.980
v -30.854 -70.392 9.980
v -30.672 -46.681 9.980
v -42.840 -46.593 9.980
usemtl roof
f 67 68 69 70
usemtl teaching_building
f 66 65 64 63
f 63 64 68 67
f 64 65 69 68
f 65 66 70 69
f 66 63 67 70
o SD0352_T006_6hao
v -38.814 -85.016 0.000
v 11.632 -84.939 0.000
v 11.632 -72.967 0.000
v -39.006 -73.067 0.000
v -38.814 -85.016 8.870
v 11.632 -84.939 8.870
v 11.632 -72.967 8.870
v -39.006 -73.067 8.870
usemtl roof
f 75 76 77 78
usemtl teaching_building
f 74 73 72 71
f 71 72 76 75
f 72 73 77 76
f 73 74 78 77
f 74 71 75 78
