# school_id SD0379
# school_name 滕州市第一中学（西校区）
# boundary_source footprint_convex_hull_buffer_20m
# adjacent_block_merge_distance_m 2.0
mtllib ../campus_materials.mtl
o SD0379_campus_boundary
usemtl campus_boundary
v -14.116 -100.238 0.050
v -124.754 -81.010 0.050
v -128.564 -33.008 0.050
v -38.344 83.041 0.050
v 31.466 102.332 0.050
v 75.408 107.735 0.050
v 152.294 98.111 0.050
v 154.341 74.838 0.050
v 158.395 0.728 0.050
v 58.973 -94.890 0.050
v -14.116 -100.238 0.050
l 1 2 3 4 5 6 7 8 9 10 11 1
o SD0379_T001_1hao
v 36.173 76.241 0.000
v 76.187 81.161 0.000
v 75.386 87.582 0.000
v 35.371 82.662 0.000
v 36.173 76.241 9.900
v 76.187 81.161 9.900
v 75.386 87.582 9.900
v 35.371 82.662 9.900
usemtl roof
f 16 17 18 19
usemtl teaching_building
f 15 14 13 12
f 12 13 17 16
f 13 14 18 17
f 14 15 19 18
f 15 12 16 19
o SD0379_T002_2hao
v 102.032 70.599 0.000
v 134.389 73.415 0.000
v 133.786 80.272 0.000
v 101.436 77.436 0.000
v 102.032 70.599 9.900
v 134.389 73.415 9.900
v 133.786 80.272 9.900
v 101.436 77.436 9.900
usemtl roof
f 24 25 26 27
usemtl teaching_building
f 23 22 21 20
f 20 21 25 24
f 21 22 26 25
f 22 23 27 26
f 23 20 24 27
o SD0379_T003_3hao
v 16.902 64.780 0.000
v 76.646 67.523 0.000
v 77.142 56.886 0.000
v 29.484 54.699 0.000
v 29.660 50.873 0.000
v 17.582 50.308 0.000
v 16.902 64.780 9.900
v 76.646 67.523 9.900
v 77.142 56.886 9.900
v 29.484 54.699 9.900
v 29.660 50.873 9.900
v 17.582 50.308 9.900
usemtl roof
f 34 35 36 37 38 39
usemtl teaching_building
f 33 32 31 30 29 28
f 28 29 35 34
f 29 30 36 35
f 30 31 37 36
f 31 32 38 37
f 32 33 39 38
f 33 28 34 39
o SD0379_T003_3hao_seg02
v -26.625 65.530 0.000
v 15.085 68.227 0.000
v 15.848 56.525 0.000
v -25.861 53.828 0.000
v -26.625 65.530 9.900
v 15.085 68.227 9.900
v 15.848 56.525 9.900
v -25.861 53.828 9.900
usemtl roof
f 44 45 46 47
usemtl teaching_building
f 43 42 41 40
f 40 41 45 44
f 41 42 46 45
f 42 43 47 46
f 43 40 44 47
o SD0379_T004_4hao
v 113.469 7.112 0.000
v 137.924 8.789 0.000
v 134.328 60.601 0.000
v 109.865 58.924 0.000
v 113.469 7.112 9.900
v 137.924 8.789 9.900
v 134.328 60.601 9.900
v 109.865 58.924 9.900
usemtl roof
f 52 53 54 55
usemtl teaching_building
f 51 50 49 48
f 48 49 53 52
f 49 50 54 53
f 50 51 55 54
f 51 48 52 55
o SD0379_T005_5hao
v -35.810 6.899 0.000
v -27.755 7.103 0.000
v -25.800 4.602 0.000
v -29.160 -0.689 0.000
v -25.235 -7.388 0.000
v -16.531 -10.455 0.000
v -7.835 -2.375 0.000
v 12.649 -0.976 0.000
v 18.750 -5.831 0.000
v 23.392 -0.096 0.000
v 16.925 5.046 0.000
v 15.375 27.051 0.000
v 20.987 34.955 0.000
v 14.970 39.171 0.000
v 9.863 31.971 0.000
v -12.042 29.386 0.000
v -16.814 35.529 0.000
v -26.083 34.417 0.000
v -30.290 26.885 0.000
v -27.197 19.648 0.000
v -29.725 16.026 0.000
v -36.031 15.868 0.000
v -35.810 6.899 9.900
v -27.755 7.103 9.900
v -25.800 4.602 9.900
v -29.160 -0.689 9.900
v -25.235 -7.388 9.900
v -16.531 -10.455 9.900
v -7.835 -2.375 9.900
v 12.649 -0.976 9.900
v 18.750 -5.831 9.900
v 23.392 -0.096 9.900
v 16.925 5.046 9.900
v 15.375 27.051 9.900
v 20.987 34.955 9.900
v 14.970 39.171 9.900
v 9.863 31.971 9.900
v -12.042 29.386 9.900
v -16.814 35.529 9.900
v -26.083 34.417 9.900
v -30.290 26.885 9.900
v -27.197 19.648 9.900
v -29.725 16.026 9.900
v -36.031 15.868 9.900
usemtl roof
f 78 79 80 81 82 83 84 85 86 87 88 89 90 91 92 93 94 95 96 97 98 99
usemtl teaching_building
f 77 76 75 74 73 72 71 70 69 68 67 66 65 64 63 62 61 60 59 58 57 56
f 56 57 79 78
f 57 58 80 79
f 58 59 81 80
f 59 60 82 81
f 60 61 83 82
f 61 62 84 83
f 62 63 85 84
f 63 64 86 85
f 64 65 87 86
f 65 66 88 87
f 66 67 89 88
f 67 68 90 89
f 68 69 91 90
f 69 70 92 91
f 70 71 93 92
f 71 72 94 93
f 72 73 95 94
f 73 74 96 95
f 74 75 97 96
f 75 76 98 97
f 76 77 99 98
f 77 56 78 99
o SD0379_T006_6hao
v 32.752 -38.992 0.000
v 63.903 -35.601 0.000
v 62.643 -24.130 0.000
v 31.989 -27.531 0.000
v 32.752 -38.992 9.900
v 63.903 -35.601 9.900
v 62.643 -24.130 9.900
v 31.989 -27.531 9.900
usemtl roof
f 104 105 106 107
usemtl teaching_building
f 103 102 101 100
f 100 101 105 104
f 101 102 106 105
f 102 103 107 106
f 103 100 104 107
o SD0379_T007_7hao
v -31.358 -41.938 0.000
v 26.789 -38.112 0.000
v 25.705 -21.860 0.000
v -32.435 -25.696 0.000
v -31.358 -41.938 9.900
v 26.789 -38.112 9.900
v 25.705 -21.860 9.900
v -32.435 -25.696 9.900
usemtl roof
f 112 113 114 115
usemtl teaching_building
f 111 110 109 108
f 108 109 113 112
f 109 110 114 113
f 110 111 115 114
f 111 108 112 115
o SD0379_T008_8hao
v -106.044 -63.962 0.000
v -82.558 -62.128 0.000
v -83.078 -55.549 0.000
v -98.439 -56.754 0.000
v -99.882 -38.529 0.000
v -108.013 -39.159 0.000
v -106.044 -63.962 9.900
v -82.558 -62.128 9.900
v -83.078 -55.549 9.900
v -98.439 -56.754 9.900
v -99.882 -38.529 9.900
v -108.013 -39.159 9.900
usemtl roof
f 122 123 124 125 126 127
usemtl teaching_building
f 121 120 119 118 117 116
f 116 117 123 122
f 117 118 124 123
f 118 119 125 124
f 119 120 126 125
f 120 121 127 126
f 121 116 122 127
o SD0379_T009_9hao
v -13.119 -80.112 0.000
v 50.313 -75.470 0.000
v 49.816 -68.826 0.000
v -13.607 -73.468 0.000
v -13.119 -80.112 9.900
v 50.313 -75.470 9.900
v 49.816 -68.826 9.900
v -13.607 -73.468 9.900
usemtl roof
f 132 133 134 135
usemtl teaching_building
f 131 130 129 128
f 128 129 133 132
f 129 130 134 133
f 130 131 135 134
f 131 128 132 135
