# school_id SD0362
# school_name 枣庄市第二中学
# boundary_source footprint_convex_hull_buffer_20m
# adjacent_block_merge_distance_m 2.0
mtllib ../campus_materials.mtl
o SD0362_campus_boundary
usemtl campus_boundary
v -19.093 -86.808 0.050
v -55.968 -86.447 0.050
v -58.371 -39.744 0.050
v -58.219 -25.335 0.050
v -57.015 76.523 0.050
v 56.338 75.408 0.050
v 56.025 46.852 0.050
v 53.850 -40.450 0.050
v 45.491 -54.786 0.050
v -19.093 -86.808 0.050
l 1 2 3 4 5 6 7 8 9 10 1
o SD0362_T001_1hao
v -36.676 -39.364 0.000
v -36.961 -66.632 0.000
v -23.686 -66.762 0.000
v -23.402 -38.984 0.000
v 31.234 -39.531 0.000
v 31.280 -34.787 0.000
v 33.984 -34.815 0.000
v 34.076 -26.328 0.000
v 31.764 -26.309 0.000
v 32.094 6.814 0.000
v 34.983 6.777 0.000
v 35.052 14.579 0.000
v 32.955 14.607 0.000
v 33.285 47.239 0.000
v 36.028 47.211 0.000
v 36.120 55.606 0.000
v -37.252 56.328 0.000
v -37.375 43.653 0.000
v -35.209 43.635 0.000
v -35.317 33.304 0.000
v -23.348 33.184 0.000
v -23.248 43.552 0.000
v 30.911 43.005 0.000
v 30.627 14.968 0.000
v -37.729 15.663 0.000
v -37.875 1.885 0.000
v -36.069 1.867 0.000
v -36.177 -9.020 0.000
v -23.478 -9.150 0.000
v -23.363 1.922 0.000
v 30.028 1.394 0.000
v 29.767 -24.892 0.000
v 29.744 -26.226 0.000
v -38.220 -25.559 0.000
v -38.366 -39.336 0.000
v -36.676 -39.364 6.600
v -36.961 -66.632 6.600
v -23.686 -66.762 6.600
v -23.402 -38.984 6.600
v 31.234 -39.531 6.600
v 31.280 -34.787 6.600
v 33.984 -34.815 6.600
v 34.076 -26.328 6.600
v 31.764 -26.309 6.600
v 32.094 6.814 6.600
v 34.983 6.777 6.600
v 35.052 14.579 6.600
v 32.955 14.607 6.600
v 33.285 47.239 6.600
v 36.028 47.211 6.600
v 36.120 55.606 6.600
v -37.252 56.328 6.600
v -37.375 43.653 6.600
v -35.209 43.635 6.600
v -35.317 33.304 6.600
v -23.348 33.184 6.600
v -23.248 43.552 6.600
v 30.911 43.005 6.600
v 30.627 14.968 6.600
v -37.729 15.663 6.600
v -37.875 1.885 6.600
v -36.069 1.867 6.600
v -36.177 -9.020 6.600
v -23.478 -9.150 6.600
v -23.363 1.922 6.600
v 30.028 1.394 6.600
v 29.767 -24.892 6.600
v 29.744 -26.226 6.600
v -38.220 -25.559 6.600
v -38.366 -39.336 6.600
usemtl roof
f 46 47 48 49 50 51 52 53 54 55 56 57 58 59 60 61 62 63 64 65 66 67 68 69 70 71 72 73 74 75 76 77 78 79 80
usemtl teaching_building
f 45 44 43 42 41 40 39 38 37 36 35 34 33 32 31 30 29 28 27 26 25 24 23 22 21 20 19 18 17 16 15 14 13 12 11
f 11 12 47 46
f 12 13 48 47
f 13 14 49 48
f 14 15 50 49
f 15 16 51 50
f 16 17 52 51
f 17 18 53 52
f 18 19 54 53
f 19 20 55 54
f 20 21 56 55
f 21 22 57 56
f 22 23 58 57
f 23 24 59 58
f 24 25 60 59
f 25 26 61 60
f 26 27 62 61
f 27 28 63 62
f 28 29 64 63
f 29 30 65 64
f 30 31 66 65
f 31 32 67 66
f 32 33 68 67
f 33 34 69 68
f 34 35 70 69
f 35 36 71 70
f 36 37 72 71
f 37 38 73 72
f 38 39 74 73
f 39 40 75 74
f 40 41 76 75
f 41 42 77 76
f 42 43 78 77
f 43 44 79 78
f 44 45 80 79
f 45 11 46 80
