# school_id SD0360
# school_name 枣庄市实验学校东校区
# boundary_source footprint_convex_hull_buffer_20m
# adjacent_block_merge_distance_m 2.0
mtllib ../campus_materials.mtl
o SD0360_campus_boundary
usemtl campus_boundary
v -41.848 -52.436 0.050
v -41.848 52.436 0.050
v 41.848 52.436 0.050
v 41.848 -52.436 0.050
v -41.848 -52.436 0.050
l 1 2 3 4 5 1
o SD0360_T001_1hao
v 21.848 -32.436 0.000
v -6.456 -32.436 0.000
v -21.848 -32.436 0.000
v -21.848 -17.044 0.000
v -21.848 17.044 0.000
v -21.848 32.436 0.000
v -6.456 32.436 0.000
v 21.848 32.436 0.000
v 21.848 17.044 0.000
v -6.456 17.044 0.000
v -6.456 7.696 0.000
v 18.571 7.696 0.000
v 18.571 -7.696 0.000
v -6.456 -7.696 0.000
v -6.456 -17.044 0.000
v 21.848 -17.044 0.000
v 21.848 -32.436 14.310
v -6.456 -32.436 14.310
v -21.848 -32.436 14.310
v -21.848 -17.044 14.310
v -21.848 17.044 14.310
v -21.848 32.436 14.310
v -6.456 32.436 14.310
v 21.848 32.436 14.310
v 21.848 17.044 14.310
v -6.456 17.044 14.310
v -6.456 7.696 14.310
v 18.571 7.696 14.310
v 18.571 -7.696 14.310
v -6.456 -7.696 14.310
v -6.456 -17.044 14.310
v 21.848 -17.044 14.310
usemtl roof
f 22 23 24 25 26 27 28 29 30 31 32 33 34 35 36 37
usemtl teaching_building
f 21 20 19 18 17 16 15 14 13 12 11 10 9 8 7 6
f 6 7 23 22
f 7 8 24 23
f 8 9 25 24
f 9 10 26 25
f 10 11 27 26
f 11 12 28 27
f 12 13 29 28
f 13 14 30 29
f 14 15 31 30
f 15 16 32 31
f 16 17 33 32
f 17 18 34 33
f 18 19 35 34
f 19 20 36 35
f 20 21 37 36
f 21 6 22 37
