# school_id SD0324
# school_name 张店区科技苑中学
# boundary_source footprint_convex_hull_buffer_20m
# adjacent_block_merge_distance_m 2.0
mtllib ../campus_materials.mtl
o SD0324_campus_boundary
usemtl campus_boundary
v 65.012 -84.539 0.050
v -72.551 -83.494 0.050
v -72.294 -50.674 0.050
v -68.063 66.783 0.050
v 21.427 66.988 0.050
v 63.805 54.028 0.050
v 65.523 -17.410 0.050
v 65.012 -84.539 0.050
l 1 2 3 4 5 6 7 8 1
o SD0324_T001_1hao
v 18.460 46.981 0.000
v 18.478 39.067 0.000
v 44.158 39.122 0.000
v 44.265 -9.847 0.000
v 19.663 -3.171 0.000
v 17.142 9.774 0.000
v -12.289 19.999 0.000
v -12.245 36.182 0.000
v -22.724 36.215 0.000
v -22.804 7.684 0.000
v 45.521 -17.574 0.000
v 45.165 -64.388 0.000
v -52.395 -63.647 0.000
v -52.297 -51.112 0.000
v 9.550 -51.576 0.000
v 9.782 -21.122 0.000
v -48.662 0.588 0.000
v -48.769 46.827 0.000
v 18.460 46.981 13.490
v 18.478 39.067 13.490
v 44.158 39.122 13.490
v 44.265 -9.847 13.490
v 19.663 -3.171 13.490
v 17.142 9.774 13.490
v -12.289 19.999 13.490
v -12.245 36.182 13.490
v -22.724 36.215 13.490
v -22.804 7.684 13.490
v 45.521 -17.574 13.490
v 45.165 -64.388 13.490
v -52.395 -63.647 13.490
v -52.297 -51.112 13.490
v 9.550 -51.576 13.490
v 9.782 -21.122 13.490
v -48.662 0.588 13.490
v -48.769 46.827 13.490
usemtl roof
f 27 28 29 30 31 32 33 34 35 36 37 38 39 40 41 42 43 44
usemtl teaching_building
f 26 25 24 23 22 21 20 19 18 17 16 15 14 13 12 11 10 9
f 9 10 28 27
f 10 11 29 28
f 11 12 30 29
f 12 13 31 30
f 13 14 32 31
f 14 15 33 32
f 15 16 34 33
f 16 17 35 34
f 17 18 36 35
f 18 19 37 36
f 19 20 38 37
f 20 21 39 38
f 21 22 40 39
f 22 23 41 40
f 23 24 42 41
f 24 25 43 42
f 25 26 44 43
f 26 9 27 44
