# school_id SD0391
# school_name 齐村镇渴口中学
# boundary_source footprint_convex_hull_buffer_20m
# adjacent_block_merge_distance_m 2.0
mtllib ../campus_materials.mtl
o SD0391_campus_boundary
usemtl campus_boundary
v 266.195 -132.733 0.050
v 156.148 -130.180 0.050
v -303.790 -95.706 0.050
v -302.533 4.129 0.050
v 67.727 144.345 0.050
v 118.128 146.217 0.050
v 129.848 132.580 0.050
v 267.520 -42.261 0.050
v 267.137 -92.978 0.050
v 266.195 -132.733 0.050
l 1 2 3 4 5 6 7 8 9 10 1
o SD0391_T001_1hao
v 73.991 75.897 0.000
v 67.782 75.665 0.000
v 67.554 81.634 0.000
v 70.877 88.543 0.000
v 71.169 96.701 0.000
v 66.358 111.337 0.000
v 66.194 115.603 0.000
v 72.064 115.824 0.000
v 71.745 124.480 0.000
v 109.241 125.873 0.000
v 109.479 119.682 0.000
v 114.400 119.870 0.000
v 114.701 111.845 0.000
v 75.050 110.375 0.000
v 75.342 105.036 0.000
v 91.703 105.953 0.000
v 95.765 101.565 0.000
v 96.560 96.535 0.000
v 95.327 90.688 0.000
v 91.913 86.741 0.000
v 75.981 85.769 0.000
v 76.154 80.540 0.000
v 116.253 82.121 0.000
v 116.673 74.062 0.000
v 111.615 73.874 0.000
v 111.825 68.281 0.000
v 74.328 66.899 0.000
v 73.991 75.897 11.380
v 67.782 75.665 11.380
v 67.554 81.634 11.380
v 70.877 88.543 11.380
v 71.169 96.701 11.380
v 66.358 111.337 11.380
v 66.194 115.603 11.380
v 72.064 115.824 11.380
v 71.745 124.480 11.380
v 109.241 125.873 11.380
v 109.479 119.682 11.380
v 114.400 119.870 11.380
v 114.701 111.845 11.380
v 75.050 110.375 11.380
v 75.342 105.036 11.380
v 91.703 105.953 11.380
v 95.765 101.565 11.380
v 96.560 96.535 11.380
v 95.327 90.688 11.380
v 91.913 86.741 11.380
v 75.981 85.769 11.380
v 76.154 80.540 11.380
v 116.253 82.121 11.380
v 116.673 74.062 11.380
v 111.615 73.874 11.380
v 111.825 68.281 11.380
v 74.328 66.899 11.380
usemtl roof
f 38 39 40 41 42 43 44 45 46 47 48 49 50 51 52 53 54 55 56 57 58 59 60 61 62 63 64
usemtl teaching_building
f 37 36 35 34 33 32 31 30 29 28 27 26 25 24 23 22 21 20 19 18 17 16 15 14 13 12 11
f 11 12 39 38
f 12 13 40 39
f 13 14 41 40
f 14 15 42 41
f 15 16 43 42
f 16 17 44 43
f 17 18 45 44
f 18 19 46 45
f 19 20 47 46
f 20 21 48 47
f 21 22 49 48
f 22 23 50 49
f 23 24 51 50
f 24 25 52 51
f 25 26 53 52
f 26 27 54 53
f 27 28 55 54
f 28 29 56 55
f 29 30 57 56
f 30 31 58 57
f 31 32 59 58
f 32 33 60 59
f 33 34 61 60
f 34 35 62 61
f 35 36 63 62
f 36 37 64 63
f 37 11 38 64
o SD0391_T002_2hao
v -164.017 -27.546 0.000
v -160.137 -27.634 0.000
v -160.210 -30.851 0.000
v -144.059 -31.205 0.000
v -144.013 -27.867 0.000
v -107.567 -28.077 0.000
v -105.220 -32.299 0.000
v -96.036 -34.422 0.000
v -91.635 -32.885 0.000
v -88.430 -28.541 0.000
v -47.848 -29.038 0.000
v -47.894 -32.830 0.000
v -31.259 -32.830 0.000
v -31.259 -30.166 0.000
v -27.342 -30.166 0.000
v -27.342 -9.031 0.000
v -47.894 -9.031 0.000
v -47.894 -19.598 0.000
v -52.221 -20.073 0.000
v -52.084 -9.694 0.000
v -139.786 -8.920 0.000
v -139.978 -18.216 0.000
v -143.767 -18.382 0.000
v -143.539 -8.411 0.000
v -163.579 -7.958 0.000
v -164.017 -27.546 19.530
v -160.137 -27.634 19.530
v -160.210 -30.851 19.530
v -144.059 -31.205 19.530
v -144.013 -27.867 19.530
v -107.567 -28.077 19.530
v -105.220 -32.299 19.530
v -96.036 -34.422 19.530
v -91.635 -32.885 19.530
v -88.430 -28.541 19.530
v -47.848 -29.038 19.530
v -47.894 -32.830 19.530
v -31.259 -32.830 19.530
v -31.259 -30.166 19.530
v -27.342 -30.166 19.530
v -27.342 -9.031 19.530
v -47.894 -9.031 19.530
v -47.894 -19.598 19.530
v -52.221 -20.073 19.530
v -52.084 -9.694 19.530
v -139.786 -8.920 19.530
v -139.978 -18.216 19.530
v -143.767 -18.382 19.530
v -143.539 -8.411 19.530
v -163.579 -7.958 19.530
usemtl roof
f 90 91 92 93 94 95 96 97 98 99 100 101 102 103 104 105 106 107 108 109 110 111 112 113 114
usemtl teaching_building
f 89 88 87 86 85 84 83 82 81 80 79 78 77 76 75 74 73 72 71 70 69 68 67 66 65
f 65 66 91 90
f 66 67 92 91
f 67 68 93 92
f 68 69 94 93
f 69 70 95 94
f 70 71 96 95
f 71 72 97 96
f 72 73 98 97
f 73 74 99 98
f 74 75 100 99
f 75 76 101 100
f 76 77 102 101
f 77 78 103 102
f 78 79 104 103
f 79 80 105 104
f 80 81 106 105
f 81 82 107 106
f 82 83 108 107
f 83 84 109 108
f 84 85 110 109
f 85 86 111 110
f 86 87 112 111
f 87 88 113 112
f 88 89 114 113
f 89 65 90 114
o SD0391_T003_3hao
v -208.544 -67.197 0.000
v -208.708 -78.870 0.000
v -283.555 -77.167 0.000
v -283.226 -57.104 0.000
v -270.070 -57.292 0.000
v -269.970 -30.110 0.000
v -282.551 -29.989 0.000
v -282.706 -9.749 0.000
v -216.834 -11.595 0.000
v -216.843 -20.062 0.000
v -204.271 -20.715 0.000
v -205.019 -67.064 0.000
v -208.544 -67.197 17.650
v -208.708 -78.870 17.650
v -283.555 -77.167 17.650
v -283.226 -57.104 17.650
v -270.070 -57.292 17.650
v -269.970 -30.110 17.650
v -282.551 -29.989 17.650
v -282.706 -9.749 17.650
v -216.834 -11.595 17.650
v -216.843 -20.062 17.650
v -204.271 -20.715 17.650
v -205.019 -67.064 17.650
usemtl roof
f 127 128 129 130 131 132 133 134 135 136 137 138
usemtl teaching_building
f 126 125 124 123 122 121 120 119 118 117 116 115
f 115 116 128 127
f 116 117 129 128
f 117 118 130 129
f 118 119 131 130
f 119 120 132 131
f 120 121 133 132
f 121 122 134 133
f 122 123 135 134
f 123 124 136 135
f 124 125 137 136
f 125 126 138 137
f 126 115 127 138
o SD0391_T004_4hao
v 21.923 -26.385 0.000
v 22.197 -15.995 0.000
v 106.630 -18.183 0.000
v 106.137 -36.820 0.000
v 97.089 -36.588 0.000
v 96.350 -64.920 0.000
v 104.694 -65.130 0.000
v 104.211 -83.800 0.000
v 20.781 -81.633 0.000
v 21.074 -70.657 0.000
v 17.239 -70.557 0.000
v 18.408 -26.297 0.000
v 21.923 -26.385 10.200
v 22.197 -15.995 10.200
v 106.630 -18.183 10.200
v 106.137 -36.820 10.200
v 97.089 -36.588 10.200
v 96.350 -64.920 10.200
v 104.694 -65.130 10.200
v 104.211 -83.800 10.200
v 20.781 -81.633 10.200
v 21.074 -70.657 10.200
v 17.239 -70.557 10.200
v 18.408 -26.297 10.200
usemtl roof
f 151 152 153 154 155 156 157 158 159 160 161 162
usemtl teaching_building
f 150 149 148 147 146 145 144 143 142 141 140 139
f 139 140 152 151
f 140 141 153 152
f 141 142 154 153
f 142 143 155 154
f 143 144 156 155
f 144 145 157 156
f 145 146 158 157
f 146 147 159 158
f 147 148 160 159
f 148 149 161 160
f 149 150 162 161
f 150 139 151 162
o SD0391_T005_5hao
v 246.674 -112.275 0.000
v 247.139 -92.665 0.000
v 163.692 -90.720 0.000
v 164.276 -66.124 0.000
v 247.021 -68.048 0.000
v 247.468 -49.123 0.000
v 158.579 -47.056 0.000
v 158.369 -56.098 0.000
v 152.864 -55.977 0.000
v 151.777 -101.818 0.000
v 157.319 -101.939 0.000
v 157.128 -110.197 0.000
v 246.674 -112.275 8.900
v 247.139 -92.665 8.900
v 163.692 -90.720 8.900
v 164.276 -66.124 8.900
v 247.021 -68.048 8.900
v 247.468 -49.123 8.900
v 158.579 -47.056 8.900
v 158.369 -56.098 8.900
v 152.864 -55.977 8.900
v 151.777 -101.818 8.900
v 157.319 -101.939 8.900
v 157.128 -110.197 8.900
usemtl roof
f 175 176 177 178 179 180 181 182 183 184 185 186
usemtl teaching_building
f 174 173 172 171 170 169 168 167 166 165 164 163
f 163 164 176 175
f 164 165 177 176
f 165 166 178 177
f 166 167 179 178
f 167 168 180 179
f 168 169 181 180
f 169 170 182 181
f 170 171 183 182
f 171 172 184 183
f 172 173 185 184
f 173 174 186 185
f 174 163 175 186
