# school_id SD0338
# school_name 淄博实验中学
# boundary_source footprint_convex_hull_buffer_20m
# adjacent_block_merge_distance_m 2.0
mtllib ../campus_materials.mtl
o SD0338_campus_boundary
usemtl campus_boundary
v 120.058 -313.702 0.050
v 26.525 -310.671 0.050
v -17.268 -305.571 0.050
v -180.228 -280.807 0.050
v -527.274 843.085 0.050
v -507.606 1005.533 0.050
v -494.256 1021.666 0.050
v -479.501 1025.748 0.050
v -458.895 1026.758 0.050
v -448.986 1018.845 0.050
v -92.773 671.338 0.050
v 118.850 313.527 0.050
v 265.563 -32.586 0.050
v 262.238 -73.758 0.050
v 120.058 -313.702 0.050
l 1 2 3 4 5 6 7 8 9 10 11 12 13 14 15 1
o SD0338_T001_1hao
v -488.456 997.303 0.000
v -482.858 1004.068 0.000
v -476.306 1005.881 0.000
v -469.291 1005.461 0.000
v -465.467 1006.412 0.000
v -462.241 1003.836 0.000
v -463.533 999.967 0.000
v -467.500 999.724 0.000
v -487.243 833.770 0.000
v -484.382 831.394 0.000
v -486.290 826.652 0.000
v -490.354 827.359 0.000
v -491.549 830.211 0.000
v -498.243 832.112 0.000
v -503.743 837.805 0.000
v -506.907 844.913 0.000
v -488.456 997.303 19.040
v -482.858 1004.068 19.040
v -476.306 1005.881 19.040
v -469.291 1005.461 19.040
v -465.467 1006.412 19.040
v -462.241 1003.836 19.040
v -463.533 999.967 19.040
v -467.500 999.724 19.040
v -487.243 833.770 19.040
v -484.382 831.394 19.040
v -486.290 826.652 19.040
v -490.354 827.359 19.040
v -491.549 830.211 19.040
v -498.243 832.112 19.040
v -503.743 837.805 19.040
v -506.907 844.913 19.040
usemtl roof
f 32 33 34 35 36 37 38 39 40 41 42 43 44 45 46 47
usemtl teaching_building
f 31 30 29 28 27 26 25 24 23 22 21 20 19 18 17 16
f 16 17 33 32
f 17 18 34 33
f 18 19 35 34
f 19 20 36 35
f 20 21 37 36
f 21 22 38 37
f 22 23 39 38
f 23 24 40 39
f 24 25 41 40
f 25 26 42 41
f 26 27 43 42
f 27 28 44 43
f 28 29 45 44
f 29 30 46 45
f 30 31 47 46
f 31 16 32 47
o SD0338_T002_2hao
v -108.637 658.874 0.000
v -115.813 636.556 0.000
v -132.544 631.339 0.000
v -159.329 634.655 0.000
v -169.847 647.477 0.000
v -164.107 672.172 0.000
v -108.637 658.874 17.050
v -115.813 636.556 17.050
v -132.544 631.339 17.050
v -159.329 634.655 17.050
v -169.847 647.477 17.050
v -164.107 672.172 17.050
usemtl roof
f 54 55 56 57 58 59
usemtl teaching_building
f 53 52 51 50 49 48
f 48 49 55 54
f 49 50 56 55
f 50 51 57 56
f 51 52 58 57
f 52 53 59 58
f 53 48 54 59
o SD0338_T003_3hao
v 47.048 311.624 0.000
v 100.957 304.494 0.000
v 100.218 298.956 0.000
v 46.308 306.086 0.000
v 47.048 311.624 14.490
v 100.957 304.494 14.490
v 100.218 298.956 14.490
v 46.308 306.086 14.490
usemtl roof
f 64 65 66 67
usemtl teaching_building
f 63 62 61 60
f 60 61 65 64
f 61 62 66 65
f 62 63 67 66
f 63 60 64 67
o SD0338_T004_4hao
v 12.927 213.984 0.000
v 111.921 199.989 0.000
v 111.431 196.552 0.000
v 120.567 195.258 0.000
v 122.118 206.080 0.000
v 116.494 206.876 0.000
v 118.125 218.284 0.000
v 15.618 232.776 0.000
v 12.927 213.984 13.730
v 111.921 199.989 13.730
v 111.431 196.552 13.730
v 120.567 195.258 13.730
v 122.118 206.080 13.730
v 116.494 206.876 13.730
v 118.125 218.284 13.730
v 15.618 232.776 13.730
usemtl roof
f 76 77 78 79 80 81 82 83
usemtl teaching_building
f 75 74 73 72 71 70 69 68
f 68 69 77 76
f 69 70 78 77
f 70 71 79 78
f 71 72 80 79
f 72 73 81 80
f 73 74 82 81
f 74 75 83 82
f 75 68 76 83
o SD0338_T005_5hao
v 6.170 177.550 0.000
v 21.439 175.372 0.000
v 22.473 182.502 0.000
v 56.871 177.594 0.000
v 59.491 176.699 0.000
v 59.331 174.112 0.000
v 62.950 173.603 0.000
v 62.237 167.181 0.000
v 75.099 165.423 0.000
v 75.669 171.780 0.000
v 111.404 166.673 0.000
v 110.308 159.112 0.000
v 121.387 157.531 0.000
v 123.625 172.973 0.000
v 118.794 173.659 0.000
v 118.990 175.029 0.000
v 77.363 180.965 0.000
v 77.907 184.680 0.000
v 13.711 193.832 0.000
v 13.426 191.909 0.000
v 8.354 192.627 0.000
v 6.170 177.550 10.090
v 21.439 175.372 10.090
v 22.473 182.502 10.090
v 56.871 177.594 10.090
v 59.491 176.699 10.090
v 59.331 174.112 10.090
v 62.950 173.603 10.090
v 62.237 167.181 10.090
v 75.099 165.423 10.090
v 75.669 171.780 10.090
v 111.404 166.673 10.090
v 110.308 159.112 10.090
v 121.387 157.531 10.090
v 123.625 172.973 10.090
v 118.794 173.659 10.090
v 118.990 175.029 10.090
v 77.363 180.965 10.090
v 77.907 184.680 10.090
v 13.711 193.832 10.090
v 13.426 191.909 10.090
v 8.354 192.627 10.090
usemtl roof
f 105 106 107 108 109 110 111 112 113 114 115 116 117 118 119 120 121 122 123 124 125
usemtl teaching_building
f 104 103 102 101 100 99 98 97 96 95 94 93 92 91 90 89 88 87 86 85 84
f 84 85 106 105
f 85 86 107 106
f 86 87 108 107
f 87 88 109 108
f 88 89 110 109
f 89 90 111 110
f 90 91 112 111
f 91 92 113 112
f 92 93 114 113
f 93 94 115 114
f 94 95 116 115
f 95 96 117 116
f 96 97 118 117
f 97 98 119 118
f 98 99 120 119
f 99 100 121 120
f 100 101 122 121
f 101 102 123 122
f 102 103 124 123
f 103 104 125 124
f 104 84 105 125
o SD0338_T006_6hao
v 2.114 140.994 0.000
v 16.438 138.883 0.000
v 17.571 146.411 0.000
v 60.775 140.032 0.000
v 62.112 148.931 0.000
v 9.887 156.636 0.000
v 9.682 155.265 0.000
v 4.369 156.050 0.000
v 2.114 140.994 14.400
v 16.438 138.883 14.400
v 17.571 146.411 14.400
v 60.775 140.032 14.400
v 62.112 148.931 14.400
v 9.887 156.636 14.400
v 9.682 155.265 14.400
v 4.369 156.050 14.400
usemtl roof
f 134 135 136 137 138 139 140 141
usemtl teaching_building
f 133 132 131 130 129 128 127 126
f 126 127 135 134
f 127 128 136 135
f 128 129 137 136
f 129 130 138 137
f 130 131 139 138
f 131 132 140 139
f 132 133 141 140
f 133 126 134 141
o SD0338_T007_7hao
v 63.529 95.120 0.000
v 53.261 86.332 0.000
v 54.482 84.718 0.000
v 49.722 81.159 0.000
v 1.374 87.139 0.000
v 4.744 113.967 0.000
v 14.148 112.795 0.000
v 12.650 100.846 0.000
v 19.603 99.984 0.000
v 21.582 115.725 0.000
v 28.935 114.807 0.000
v 28.454 110.983 0.000
v 32.750 110.441 0.000
v 31.369 99.508 0.000
v 38.473 98.613 0.000
v 39.979 110.562 0.000
v 54.125 108.739 0.000
v 56.478 105.632 0.000
v 70.098 115.824 0.000
v 73.512 137.203 0.000
v 80.599 136.296 0.000
v 79.895 130.869 0.000
v 82.676 130.515 0.000
v 99.157 142.696 0.000
v 102.375 141.934 0.000
v 111.636 129.564 0.000
v 110.442 125.972 0.000
v 94.807 114.122 0.000
v 94.352 111.204 0.000
v 100.842 110.220 0.000
v 99.888 104.030 0.000
v 76.481 107.998 0.000
v 62.602 96.999 0.000
v 63.529 95.120 11.610
v 53.261 86.332 11.610
v 54.482 84.718 11.610
v 49.722 81.159 11.610
v 1.374 87.139 11.610
v 4.744 113.967 11.610
v 14.148 112.795 11.610
v 12.650 100.846 11.610
v 19.603 99.984 11.610
v 21.582 115.725 11.610
v 28.935 114.807 11.610
v 28.454 110.983 11.610
v 32.750 110.441 11.610
v 31.369 99.508 11.610
v 38.473 98.613 11.610
v 39.979 110.562 11.610
v 54.125 108.739 11.610
v 56.478 105.632 11.610
v 70.098 115.824 11.610
v 73.512 137.203 11.610
v 80.599 136.296 11.610
v 79.895 130.869 11.610
v 82.676 130.515 11.610
v 99.157 142.696 11.610
v 102.375 141.934 11.610
v 111.636 129.564 11.610
v 110.442 125.972 11.610
v 94.807 114.122 11.610
v 94.352 111.204 11.610
v 100.842 110.220 11.610
v 99.888 104.030 11.610
v 76.481 107.998 11.610
v 62.602 96.999 11.610
usemtl roof
f 175 176 177 178 179 180 181 182 183 184 185 186 187 188 189 190 191 192 193 194 195 196 197 198 199 200 201 202 203 204 205 206 207
usemtl teaching_building
f 174 173 172 171 170 169 168 167 166 165 164 163 162 161 160 159 158 157 156 155 154 153 152 151 150 149 148 147 146 145 144 143 142
f 142 143 176 175
f 143 144 177 176
f 144 145 178 177
f 145 146 179 178
f 146 147 180 179
f 147 148 181 180
f 148 149 182 181
f 149 150 183 182
f 150 151 184 183
f 151 152 185 184
f 152 153 186 185
f 153 154 187 186
f 154 155 188 187
f 155 156 189 188
f 156 157 190 189
f 157 158 191 190
f 158 159 192 191
f 159 160 193 192
f 160 161 194 193
f 161 162 195 194
f 162 163 196 195
f 163 164 197 196
f 164 165 198 197
f 165 166 199 198
f 166 167 200 199
f 167 168 201 200
f 168 169 202 201
f 169 170 203 202
f 170 171 204 203
f 171 172 205 204
f 172 173 206 205
f 173 174 207 206
f 174 142 175 207
o SD0338_T008_8hao
v -13.832 13.265 0.000
v 25.308 8.611 0.000
v 25.022 6.257 0.000
v 41.530 4.300 0.000
v 43.393 19.776 0.000
v 30.183 21.346 0.000
v 30.531 24.220 0.000
v -11.898 29.260 0.000
v -13.832 13.265 16.250
v 25.308 8.611 16.250
v 25.022 6.257 16.250
v 41.530 4.300 16.250
v 43.393 19.776 16.250
v 30.183 21.346 16.250
v 30.531 24.220 16.250
v -11.898 29.260 16.250
usemtl roof
f 216 217 218 219 220 221 222 223
usemtl teaching_building
f 215 214 213 212 211 210 209 208
f 208 209 217 216
f 209 210 218 217
f 210 211 219 218
f 211 212 220 219
f 212 213 221 220
f 213 214 222 221
f 214 215 223 222
f 215 208 216 223
o SD0338_T009_9hao
v -17.531 -20.715 0.000
v 21.189 -25.280 0.000
v 22.972 -9.882 0.000
v -15.677 -5.416 0.000
v -17.531 -20.715 11.880
v 21.189 -25.280 11.880
v 22.972 -9.882 11.880
v -15.677 -5.416 11.880
usemtl roof
f 228 229 230 231
usemtl teaching_building
f 227 226 225 224
f 224 225 229 228
f 225 226 230 229
f 226 227 231 230
f 227 224 228 231
o SD0338_T010_10hao
v -22.434 -59.857 0.000
v 19.861 -64.798 0.000
v 20.931 -55.745 0.000
v 34.230 -57.293 0.000
v 36.057 -41.883 0.000
v 19.407 -39.938 0.000
v 18.301 -49.334 0.000
v -20.651 -44.790 0.000
v -22.434 -59.857 14.070
v 19.861 -64.798 14.070
v 20.931 -55.745 14.070
v 34.230 -57.293 14.070
v 36.057 -41.883 14.070
v 19.407 -39.938 14.070
v 18.301 -49.334 14.070
v -20.651 -44.790 14.070
usemtl roof
f 240 241 242 243 244 245 246 247
usemtl teaching_building
f 239 238 237 236 235 234 233 232
f 232 233 241 240
f 233 234 242 241
f 234 235 243 242
f 235 236 244 243
f 236 237 245 244
f 237 238 246 245
f 238 239 247 246
f 239 232 240 247
o SD0338_T011_11hao
v 116.289 -75.521 0.000
v 73.307 -70.624 0.000
v 74.243 -62.565 0.000
v 117.225 -67.462 0.000
v 116.289 -75.521 13.460
v 73.307 -70.624 13.460
v 74.243 -62.565 13.460
v 117.225 -67.462 13.460
usemtl roof
f 252 253 254 255
usemtl teaching_building
f 251 250 249 248
f 248 249 253 252
f 249 250 254 253
f 250 251 255 254
f 251 248 252 255
o SD0338_T012_12hao
v -35.145 -26.153 0.000
v -29.066 -26.817 0.000
v -38.719 -113.867 0.000
v -44.798 -113.193 0.000
v -35.145 -26.153 9.900
v -29.066 -26.817 9.900
v -38.719 -113.867 9.900
v -44.798 -113.193 9.900
usemtl roof
f 260 261 262 263
usemtl teaching_building
f 259 258 257 256
f 256 257 261 260
f 257 258 262 261
f 258 259 263 262
f 259 256 260 263
o SD0338_T013_13hao
v 45.158 -88.796 0.000
v 43.028 -107.478 0.000
v 127.003 -116.907 0.000
v 129.133 -98.225 0.000
v 45.158 -88.796 14.780
v 43.028 -107.478 14.780
v 127.003 -116.907 14.780
v 129.133 -98.225 14.780
usemtl roof
f 268 269 270 271
usemtl teaching_building
f 267 266 265 264
f 264 265 269 268
f 265 266 270 269
f 266 267 271 270
f 267 264 268 271
o SD0338_T014_14hao
v 108.882 -293.329 0.000
v 42.618 -286.840 0.000
v 43.224 -280.738 0.000
v 36.129 -280.042 0.000
v 37.849 -263.134 0.000
v -17.458 -257.364 0.000
v -17.308 -257.381 0.000
v -19.252 -274.061 0.000
v -23.138 -273.597 0.000
v -23.735 -278.616 0.000
v -92.629 -270.524 0.000
v -90.061 -248.903 0.000
v -22.373 -256.791 0.000
v -20.838 -242.944 0.000
v -12.371 -243.858 0.000
v -16.266 -229.282 0.000
v -16.765 -218.084 0.000
v -14.839 -198.839 0.000
v -12.575 -189.576 0.000
v -8.003 -177.339 0.000
v -0.752 -165.530 0.000
v -16.711 -163.776 0.000
v -15.446 -152.412 0.000
v -76.584 -145.691 0.000
v -74.997 -131.454 0.000
v 108.605 -151.649 0.000
v 109.149 -146.786 0.000
v 119.516 -147.924 0.000
v 116.119 -178.378 0.000
v 0.945 -165.717 0.000
v 5.876 -166.285 0.000
v -1.291 -176.830 0.000
v -3.911 -182.258 0.000
v -9.687 -199.900 0.000
v -12.067 -219.654 0.000
v -11.158 -228.364 0.000
v -7.495 -244.381 0.000
v -9.355 -244.183 0.000
v 36.028 -249.080 0.000
v 30.335 -248.449 0.000
v 37.314 -233.891 0.000
v 42.618 -211.208 0.000
v 42.903 -191.588 0.000
v 39.837 -170.198 0.000
v 43.518 -170.618 0.000
v 45.746 -176.665 0.000
v 48.287 -189.985 0.000
v 48.398 -194.162 0.000
v 48.581 -192.394 0.000
v 98.702 -197.501 0.000
v 100.280 -182.689 0.000
v 115.736 -184.314 0.000
v 107.571 -261.018 0.000
v 90.956 -259.282 0.000
v 96.759 -245.675 0.000
v 43.884 -237.849 0.000
v 44.766 -229.316 0.000
v 40.648 -241.463 0.000
v 36.727 -249.155 0.000
v 43.705 -249.908 0.000
v 42.148 -263.552 0.000
v 111.172 -270.336 0.000
v 108.882 -293.329 11.560
v 42.618 -286.840 11.560
v 43.224 -280.738 11.560
v 36.129 -280.042 11.560
v 37.849 -263.134 11.560
v -17.458 -257.364 11.560
v -17.308 -257.381 11.560
v -19.252 -274.061 11.560
v -23.138 -273.597 11.560
v -23.735 -278.616 11.560
v -92.629 -270.524 11.560
v -90.061 -248.903 11.560
v -22.373 -256.791 11.560
v -20.838 -242.944 11.560
v -12.371 -243.858 11.560
v -16.266 -229.282 11.560
v -16.765 -218.084 11.560
v -14.839 -198.839 11.560
v -12.575 -189.576 11.560
v -8.003 -177.339 11.560
v -0.752 -165.530 11.560
v -16.711 -163.776 11.560
v -15.446 -152.412 11.560
v -76.584 -145.691 11.560
v -74.997 -131.454 11.560
v 108.605 -151.649 11.560
v 109.149 -146.786 11.560
v 119.516 -147.924 11.560
v 116.119 -178.378 11.560
v 0.945 -165.717 11.560
v 5.876 -166.285 11.560
v -1.291 -176.830 11.560
v -3.911 -182.258 11.560
v -9.687 -199.900 11.560
v -12.067 -219.654 11.560
v -11.158 -228.364 11.560
v -7.495 -244.381 11.560
v -9.355 -244.183 11.560
v 36.028 -249.080 11.560
v 30.335 -248.449 11.560
v 37.314 -233.891 11.560
v 42.618 -211.208 11.560
v 42.903 -191.588 11.560
v 39.837 -170.198 11.560
v 43.518 -170.618 11.560
v 45.746 -176.665 11.560
v 48.287 -189.985 11.560
v 48.398 -194.162 11.560
v 48.581 -192.394 11.560
v 98.702 -197.501 11.560
v 100.280 -182.689 11.560
v 115.736 -184.314 11.560
v 107.571 -261.018 11.560
v 90.956 -259.282 11.560
v 96.759 -245.675 11.560
v 43.884 -237.849 11.560
v 44.766 -229.316 11.560
v 40.648 -241.463 11.560
v 36.727 -249.155 11.560
v 43.705 -249.908 11.560
v 42.148 -263.552 11.560
v 111.172 -270.336 11.560
usemtl roof
f 334 335 336 337 338 339 340 341 342 343 344 345 346 347 348 349 350 351 352 353 354 355 356 357 358 359 360 361 362 363 364 365 366 367 368 369 370 371 372 373 374 375 376 377 378 379 380 381 382 383 384 385 386 387 388 389 390 391 392 393 394 395
usemtl teaching_building
f 333 332 331 330 329 328 327 326 325 324 323 322 321 320 319 318 317 316 315 314 313 312 311 310 309 308 307 306 305 304 303 302 301 300 299 298 297 296 295 294 293 292 291 290 289 288 287 286 285 284 283 282 281 280 279 278 277 276 275 274 273 272
f 272 273 335 334
f 273 274 336 335
f 274 275 337 336
f 275 276 338 337
f 276 277 339 338
f 277 278 340 339
f 278 279 341 340
f 279 280 342 341
f 280 281 343 342
f 281 282 344 343
f 282 283 345 344
f 283 284 346 345
f 284 285 347 346
f 285 286 348 347
f 286 287 349 348
f 287 288 350 349
f 288 289 351 350
f 289 290 352 351
f 290 291 353 352
f 291 292 354 353
f 292 293 355 354
f 293 294 356 355
f 294 295 357 356
f 295 296 358 357
f 296 297 359 358
f 297 298 360 359
f 298 299 361 360
f 299 300 362 361
f 300 301 363 362
f 301 302 364 363
f 302 303 365 364
f 303 304 366 365
f 304 305 367 366
f 305 306 368 367
f 306 307 369 368
f 307 308 370 369
f 308 309 371 370
f 309 310 372 371
f 310 311 373 372
f 311 312 374 373
f 312 313 375 374
f 313 314 376 375
f 314 315 377 376
f 315 316 378 377
f 316 317 379 378
f 317 318 380 379
f 318 319 381 380
f 319 320 382 381
f 320 321 383 382
f 321 322 384 383
f 322 323 385 384
f 323 324 386 385
f 324 325 387 386
f 325 326 388 387
f 326 327 389 388
f 327 328 390 389
f 328 329 391 390
f 329 330 392 391
f 330 331 393 392
f 331 332 394 393
f 332 333 395 394
f 333 272 334 395
o SD0338_T014_14hao_seg02
v -14.777 -198.209 0.000
v -16.765 -218.084 0.000
v -84.178 -211.794 0.000
v -82.191 -191.941 0.000
v -14.777 -198.209 11.560
v -16.765 -218.084 11.560
v -84.178 -211.794 11.560
v -82.191 -191.941 11.560
usemtl roof
f 400 401 402 403
usemtl teaching_building
f 399 398 397 396
f 396 397 401 400
f 397 398 402 401
f 398 399 403 402
f 399 396 400 403
o SD0338_T015_15hao
v -68.170 -245.984 0.000
v -53.052 -247.598 0.000
v -51.492 -233.206 0.000
v -66.610 -231.592 0.000
v -68.170 -245.984 9.850
v -53.052 -247.598 9.850
v -51.492 -233.206 9.850
v -66.610 -231.592 9.850
usemtl roof
f 408 409 410 411
usemtl teaching_building
f 407 406 405 404
f 404 405 409 408
f 405 406 410 409
f 406 407 411 410
f 407 404 408 411
o SD0338_T016_16hao
v -110.286 -268.910 0.000
v -164.820 -262.919 0.000
v -162.404 -241.264 0.000
v -107.871 -247.267 0.000
v -110.286 -268.910 9.570
v -164.820 -262.919 9.570
v -162.404 -241.264 9.570
v -107.871 -247.267 9.570
usemtl roof
f 416 417 418 419
usemtl teaching_building
f 415 414 413 412
f 412 413 417 416
f 413 414 418 417
f 414 415 419 418
f 415 412 416 419
o SD0338_T016_16hao_seg02
v -99.251 -144.089 0.000
v -96.390 -144.376 0.000
v -107.871 -247.267 0.000
v -110.750 -246.946 0.000
v -99.251 -144.089 9.570
v -96.390 -144.376 9.570
v -107.871 -247.267 9.570
v -110.750 -246.946 9.570
usemtl roof
f 424 425 426 427
usemtl teaching_building
f 423 422 421 420
f 420 421 425 424
f 421 422 426 425
f 422 423 427 426
f 423 420 424 427
o SD0338_T017_17hao
v 28.008 -290.709 0.000
v 28.802 -281.766 0.000
v -12.085 -277.256 0.000
v -14.608 -285.746 0.000
v 28.008 -290.709 10.770
v 28.802 -281.766 10.770
v -12.085 -277.256 10.770
v -14.608 -285.746 10.770
usemtl roof
f 432 433 434 435
usemtl teaching_building
f 431 430 429 428
f 428 429 433 432
f 429 430 434 433
f 430 431 435 434
f 431 428 432 435
