# school_id SD0321
# school_name 华润实验小学
# boundary_source footprint_convex_hull_buffer_20m
# adjacent_block_merge_distance_m 2.0
mtllib ../campus_materials.mtl
o SD0321_campus_boundary
usemtl campus_boundary
v 89.489 -100.924 0.050
v 26.053 -91.618 0.050
v -138.943 6.619 0.050
v -134.226 39.042 0.050
v -58.590 109.649 0.050
v -14.163 103.961 0.050
v 97.838 -6.737 0.050
v 104.855 -28.108 0.050
v 89.489 -100.924 0.050
l 1 2 3 4 5 6 7 8 9 1
o SD0321_T001_1hao
v -53.344 76.757 0.000
v -37.085 74.668 0.000
v -40.392 49.233 0.000
v -28.252 47.674 0.000
v -23.412 84.982 0.000
v -51.810 88.618 0.000
v -53.344 76.757 10.510
v -37.085 74.668 10.510
v -40.392 49.233 10.510
v -28.252 47.674 10.510
v -23.412 84.982 10.510
v -51.810 88.618 10.510
usemtl roof
f 16 17 18 19 20 21
usemtl teaching_building
f 15 14 13 12 11 10
f 10 11 17 16
f 11 12 18 17
f 12 13 19 18
f 13 14 20 19
f 14 15 21 20
f 15 10 16 21
o SD0321_T002_2hao
v -117.227 16.966 0.000
v -37.638 5.537 0.000
v -35.855 17.762 0.000
v -115.445 29.214 0.000
v -117.227 16.966 12.190
v -37.638 5.537 12.190
v -35.855 17.762 12.190
v -115.445 29.214 12.190
usemtl roof
f 26 27 28 29
usemtl teaching_building
f 25 24 23 22
f 22 23 27 26
f 23 24 28 27
f 24 25 29 28
f 25 22 26 29
o SD0321_T003_3hao
v 84.176 -29.239 0.000
v 78.765 -28.598 0.000
v 80.343 -17.566 0.000
v -33.083 -1.604 0.000
v -36.203 -23.436 0.000
v 73.355 -38.691 0.000
v 84.176 -29.239 19.550
v 78.765 -28.598 19.550
v 80.343 -17.566 19.550
v -33.083 -1.604 19.550
v -36.203 -23.436 19.550
v 73.355 -38.691 19.550
usemtl roof
f 36 37 38 39 40 41
usemtl teaching_building
f 35 34 33 32 31 30
f 30 31 37 36
f 31 32 38 37
f 32 33 39 38
f 33 34 40 39
f 34 35 41 40
f 35 30 36 41
o SD0321_T004_4hao
v 32.878 -72.405 0.000
v 73.800 -78.408 0.000
v 78.400 -47.467 0.000
v 37.477 -41.465 0.000
v 32.878 -72.405 17.160
v 73.800 -78.408 17.160
v 78.400 -47.467 17.160
v 37.477 -41.465 17.160
usemtl roof
f 46 47 48 49
usemtl teaching_building
f 45 44 43 42
f 42 43 47 46
f 43 44 48 47
f 44 45 49 48
f 45 42 46 49
