# school_id SD0390
# school_name 陶庄镇振兴小学
# boundary_source footprint_convex_hull_buffer_20m
# adjacent_block_merge_distance_m 2.0
mtllib ../campus_materials.mtl
o SD0390_campus_boundary
usemtl campus_boundary
v 17.218 -31.001 0.050
v -51.363 -30.663 0.050
v -51.596 38.522 0.050
v 49.405 38.875 0.050
v 49.637 -30.880 0.050
v 17.218 -31.001 0.050
l 1 2 3 4 5 6 1
o SD0390_T001_1hao
v -31.430 -10.761 0.000
v -15.230 -10.705 0.000
v -15.276 2.952 0.000
v 17.192 3.073 0.000
v 17.230 -11.001 0.000
v 29.571 -10.955 0.000
v 29.472 18.805 0.000
v -31.529 18.592 0.000
v -31.430 -10.761 6.600
v -15.230 -10.705 6.600
v -15.276 2.952 6.600
v 17.192 3.073 6.600
v 17.230 -11.001 6.600
v 29.571 -10.955 6.600
v 29.472 18.805 6.600
v -31.529 18.592 6.600
usemtl roof
f 15 16 17 18 19 20 21 22
usemtl teaching_building
f 14 13 12 11 10 9 8 7
f 7 8 16 15
f 8 9 17 16
f 9 10 18 17
f 10 11 19 18
f 11 12 20 19
f 12 13 21 20
f 13 14 22 21
f 14 7 15 22
