# school_id SD0349
# school_name 北辛街道北关小学
# boundary_source footprint_convex_hull_buffer_20m
# adjacent_block_merge_distance_m 2.0
mtllib ../campus_materials.mtl
o SD0349_campus_boundary
usemtl campus_boundary
v 10.975 -42.279 0.050
v -64.903 -14.690 0.050
v -76.710 35.040 0.050
v 35.268 55.897 0.050
v 55.943 -32.952 0.050
v 10.975 -42.279 0.050
l 1 2 3 4 5 6 1
o SD0349_T001_1hao
v 20.124 32.732 0.000
v 31.820 -17.530 0.000
v 12.473 -21.543 0.000
v 10.979 -12.667 0.000
v 15.024 -11.616 0.000
v 9.914 10.978 0.000
v -47.935 0.421 0.000
v -52.399 19.224 0.000
v 20.124 32.732 25.870
v 31.820 -17.530 25.870
v 12.473 -21.543 25.870
v 10.979 -12.667 25.870
v 15.024 -11.616 25.870
v 9.914 10.978 25.870
v -47.935 0.421 25.870
v -52.399 19.224 25.870
usemtl roof
f 15 16 17 18 19 20 21 22
usemtl teaching_building
f 14 13 12 11 10 9 8 7
f 7 8 16 15
f 8 9 17 16
f 9 10 18 17
f 10 11 19 18
f 11 12 20 19
f 12 13 21 20
f 13 14 22 21
f 14 7 15 22
