# school_id SD0337
# school_name 淄博十八中
# boundary_source footprint_convex_hull_buffer_20m
# adjacent_block_merge_distance_m 2.0
mtllib ../campus_materials.mtl
o SD0337_campus_boundary
usemtl campus_boundary
v 60.564 -86.041 0.050
v 16.727 -73.232 0.050
v -66.663 -45.521 0.050
v -64.782 -23.258 0.050
v -61.112 19.039 0.050
v -55.284 48.267 0.050
v -46.095 82.957 0.050
v 91.656 52.518 0.050
v 81.772 2.130 0.050
v 60.564 -86.041 0.050
l 1 2 3 4 5 6 7 8 9 10 1
o SD0337_T001_1hao
v 49.877 8.849 0.000
v 53.718 26.292 0.000
v -33.876 44.841 0.000
v -31.675 59.288 0.000
v 68.271 37.203 0.000
v 62.228 6.395 0.000
v 49.877 8.849 13.340
v 53.718 26.292 13.340
v -33.876 44.841 13.340
v -31.675 59.288 13.340
v 68.271 37.203 13.340
v 62.228 6.395 13.340
usemtl roof
f 17 18 19 20 21 22
usemtl teaching_building
f 16 15 14 13 12 11
f 11 12 18 17
f 12 13 19 18
f 13 14 20 19
f 14 15 21 20
f 15 16 22 21
f 16 11 17 22
o SD0337_T001_1hao_seg02
v -41.282 16.211 0.000
v -35.792 43.747 0.000
v -13.825 38.839 0.000
v -19.867 11.303 0.000
v -41.282 16.211 13.340
v -35.792 43.747 13.340
v -13.825 38.839 13.340
v -19.867 11.303 13.340
usemtl roof
f 27 28 29 30
usemtl teaching_building
f 26 25 24 23
f 23 24 28 27
f 24 25 29 28
f 25 26 30 29
f 26 23 27 30
o SD0337_T001_1hao_seg03
v 6.762 12.939 0.000
v 0.452 3.123 0.000
v -15.473 7.213 0.000
v -17.675 18.112 0.000
v -5.866 35.025 0.000
v 4.846 32.571 0.000
v 6.762 12.939 13.340
v 0.452 3.123 13.340
v -15.473 7.213 13.340
v -17.675 18.112 13.340
v -5.866 35.025 13.340
v 4.846 32.571 13.340
usemtl roof
f 37 38 39 40 41 42
usemtl teaching_building
f 36 35 34 33 32 31
f 31 32 38 37
f 32 33 39 38
f 33 34 40 39
f 34 35 41 40
f 35 36 42 41
f 36 31 37 42
o SD0337_T002_2hao
v 24.612 -7.787 0.000
v 24.059 -15.426 0.000
v -5.038 -12.154 0.000
v -8.059 -26.866 0.000
v 10.059 -36.959 0.000
v 6.494 -44.597 0.000
v -10.804 -36.682 0.000
v -18.771 -34.505 0.000
v -45.408 -31.509 0.000
v -44.855 -24.965 0.000
v -17.951 -26.601 0.000
v -14.653 -10.783 0.000
v -41.558 0.934 0.000
v -37.441 9.932 0.000
v -4.494 -2.879 0.000
v 24.612 -7.787 17.480
v 24.059 -15.426 17.480
v -5.038 -12.154 17.480
v -8.059 -26.866 17.480
v 10.059 -36.959 17.480
v 6.494 -44.597 17.480
v -10.804 -36.682 17.480
v -18.771 -34.505 17.480
v -45.408 -31.509 17.480
v -44.855 -24.965 17.480
v -17.951 -26.601 17.480
v -14.653 -10.783 17.480
v -41.558 0.934 17.480
v -37.441 9.932 17.480
v -4.494 -2.879 17.480
usemtl roof
f 58 59 60 61 62 63 64 65 66 67 68 69 70 71 72
usemtl teaching_building
f 57 56 55 54 53 52 51 50 49 48 47 46 45 44 43
f 43 44 59 58
f 44 45 60 59
f 45 46 61 60
f 46 47 62 61
f 47 48 63 62
f 48 49 64 63
f 49 50 65 64
f 50 51 66 65
f 51 52 67 66
f 52 53 68 67
f 53 54 69 68
f 54 55 70 69
f 55 56 71 70
f 56 57 72 71
f 57 43 58 72
o SD0337_T003_3hao
v 60.036 4.206 0.000
v 46.027 -60.957 0.000
v 22.687 -54.137 0.000
v 34.771 10.485 0.000
v 60.036 4.206 7.500
v 46.027 -60.957 7.500
v 22.687 -54.137 7.500
v 34.771 10.485 7.500
usemtl roof
f 77 78 79 80
usemtl teaching_building
f 76 75 74 73
f 73 74 78 77
f 74 75 79 78
f 75 76 80 79
f 76 73 77 80
