# school_id SD0329
# school_name 杏园小学
# boundary_source footprint_convex_hull_buffer_20m
# adjacent_block_merge_distance_m 2.0
mtllib ../campus_materials.mtl
o SD0329_campus_boundary
usemtl campus_boundary
v -71.761 -46.473 0.050
v -81.181 19.051 0.050
v 70.519 46.795 0.050
v 82.399 -19.373 0.050
v -71.761 -46.473 0.050
l 1 2 3 4 5 1
o SD0329_T001_1hao
v -54.901 -23.202 0.000
v 59.167 -3.150 0.000
v 54.380 23.512 0.000
v -58.645 2.841 0.000
v -54.901 -23.202 10.270
v 59.167 -3.150 10.270
v 54.380 23.512 10.270
v -58.645 2.841 10.270
usemtl roof
f 10 11 12 13
usemtl teaching_building
f 9 8 7 6
f 6 7 11 10
f 7 8 12 11
f 8 9 13 12
f 9 6 10 13
