# school_id SD0491
# school_name 莱州市文峰中学
# boundary_source footprint_convex_hull_buffer_20m
# adjacent_block_merge_distance_m 2.0
mtllib ../campus_materials.mtl
o SD0491_campus_boundary
usemtl campus_boundary
v 14.869 -104.756 0.050
v -18.751 -103.839 0.050
v -92.015 -8.258 0.050
v -107.324 45.148 0.050
v -106.565 75.541 0.050
v -13.587 88.110 0.050
v 83.106 83.957 0.050
v 82.722 8.797 0.050
v 82.139 -7.223 0.050
v 56.544 -93.159 0.050
v 14.869 -104.756 0.050
l 1 2 3 4 5 6 7 8 9 10 11 1
o SD0491_T001_1hao
v -87.254 47.713 0.000
v -41.593 46.574 0.000
v -41.336 56.866 0.000
v -86.997 58.004 0.000
v -87.254 47.713 9.610
v -41.593 46.574 9.610
v -41.336 56.866 9.610
v -86.997 58.004 9.610
usemtl roof
f 16 17 18 19
usemtl teaching_building
f 15 14 13 12
f 12 13 17 16
f 13 14 18 17
f 14 15 19 18
f 15 12 16 19
o SD0491_T002_2hao
v -13.511 50.974 0.000
v 13.816 24.599 0.000
v 24.557 24.068 0.000
v 26.633 66.140 0.000
v -12.669 68.052 0.000
v -13.511 50.974 12.460
v 13.816 24.599 12.460
v 24.557 24.068 12.460
v 26.633 66.140 12.460
v -12.669 68.052 12.460
usemtl roof
f 25 26 27 28 29
usemtl teaching_building
f 24 23 22 21 20
f 20 21 26 25
f 21 22 27 26
f 22 23 28 27
f 23 24 29 28
f 24 20 25 29
o SD0491_T003_3hao
v 30.154 28.612 0.000
v 61.686 27.517 0.000
v 63.008 64.802 0.000
v 31.476 65.908 0.000
v 30.154 28.612 12.350
v 61.686 27.517 12.350
v 63.008 64.802 12.350
v 31.476 65.908 12.350
usemtl roof
f 34 35 36 37
usemtl teaching_building
f 33 32 31 30
f 30 31 35 34
f 31 32 36 35
f 32 33 37 36
f 33 30 34 37
o SD0491_T004_4hao
v -45.806 19.647 0.000
v -14.789 18.000 0.000
v -13.636 39.190 0.000
v -44.662 40.837 0.000
v -45.806 19.647 10.610
v -14.789 18.000 10.610
v -13.636 39.190 10.610
v -44.662 40.837 10.610
usemtl roof
f 42 43 44 45
usemtl teaching_building
f 41 40 39 38
f 38 39 43 42
f 39 40 44 43
f 40 41 45 44
f 41 38 42 45
o SD0491_T005_5hao
v -73.151 14.783 0.000
v -47.935 13.578 0.000
v -47.784 16.695 0.000
v 12.610 13.788 0.000
v 11.785 -3.202 0.000
v -73.834 0.899 0.000
v -73.151 14.783 12.690
v -47.935 13.578 12.690
v -47.784 16.695 12.690
v 12.610 13.788 12.690
v 11.785 -3.202 12.690
v -73.834 0.899 12.690
usemtl roof
f 52 53 54 55 56 57
usemtl teaching_building
f 51 50 49 48 47 46
f 46 47 53 52
f 47 48 54 53
f 48 49 55 54
f 49 50 56 55
f 50 51 57 56
f 51 46 52 57
o SD0491_T006_6hao
v 22.260 -2.528 0.000
v 62.245 -3.953 0.000
v 62.724 9.212 0.000
v 22.739 10.649 0.000
v 22.260 -2.528 10.060
v 62.245 -3.953 10.060
v 62.724 9.212 10.060
v 22.739 10.649 10.060
usemtl roof
f 62 63 64 65
usemtl teaching_building
f 61 60 59 58
f 58 59 63 62
f 59 60 64 63
f 60 61 65 64
f 61 58 62 65
o SD0491_T007_7hao
v -6.433 -29.908 0.000
v 3.341 -30.229 0.000
v 3.093 -37.889 0.000
v 40.567 -39.116 0.000
v 40.940 -27.808 0.000
v 17.240 -27.034 0.000
v 17.577 -16.997 0.000
v -5.990 -16.234 0.000
v -6.433 -29.908 9.400
v 3.341 -30.229 9.400
v 3.093 -37.889 9.400
v 40.567 -39.116 9.400
v 40.940 -27.808 9.400
v 17.240 -27.034 9.400
v 17.577 -16.997 9.400
v -5.990 -16.234 9.400
usemtl roof
f 74 75 76 77 78 79 80 81
usemtl teaching_building
f 73 72 71 70 69 68 67 66
f 66 67 75 74
f 67 68 76 75
f 68 69 77 76
f 69 70 78 77
f 70 71 79 78
f 71 72 80 79
f 72 73 81 80
f 73 66 74 81
o SD0491_T008_8hao
v -8.677 -84.106 0.000
v 12.406 -84.681 0.000
v 12.654 -76.092 0.000
v 40.532 -76.855 0.000
v 40.869 -64.773 0.000
v -0.163 -63.645 0.000
v -0.375 -71.140 0.000
v -8.314 -70.919 0.000
v -8.677 -84.106 21.240
v 12.406 -84.681 21.240
v 12.654 -76.092 21.240
v 40.532 -76.855 21.240
v 40.869 -64.773 21.240
v -0.163 -63.645 21.240
v -0.375 -71.140 21.240
v -8.314 -70.919 21.240
usemtl roof
f 90 91 92 93 94 95 96 97
usemtl teaching_building
f 89 88 87 86 85 84 83 82
f 82 83 91 90
f 83 84 92 91
f 84 85 93 92
f 85 86 94 93
f 86 87 95 94
f 87 88 96 95
f 88 89 97 96
f 89 82 90 97
