# school_id SD0478
# school_name 莱山区实验小学
# boundary_source footprint_convex_hull_buffer_20m
# adjacent_block_merge_distance_m 2.0
mtllib ../campus_materials.mtl
o SD0478_campus_boundary
usemtl campus_boundary
v -27.478 -61.285 0.050
v -44.009 -57.268 0.050
v -131.951 -34.385 0.050
v -120.495 12.566 0.050
v -23.203 50.953 0.050
v 51.337 67.039 0.050
v 61.406 64.437 0.050
v 135.658 44.101 0.050
v 125.632 -0.413 0.050
v -27.478 -61.285 0.050
l 1 2 3 4 5 6 7 8 9 10 1
o SD0478_T001_1hao
v 108.439 14.274 0.000
v 111.949 29.858 0.000
v 62.009 40.939 0.000
v 58.499 25.364 0.000
v 108.439 14.274 9.900
v 111.949 29.858 9.900
v 62.009 40.939 9.900
v 58.499 25.364 9.900
usemtl roof
f 15 16 17 18
usemtl teaching_building
f 14 13 12 11
f 11 12 16 15
f 12 13 17 16
f 13 14 18 17
f 14 11 15 18
o SD0478_T002_2hao
v 37.443 4.378 0.000
v 40.390 22.409 0.000
v -17.385 31.748 0.000
v -20.341 13.718 0.000
v 37.443 4.378 9.900
v 40.390 22.409 9.900
v -17.385 31.748 9.900
v -20.341 13.718 9.900
usemtl roof
f 23 24 25 26
usemtl teaching_building
f 22 21 20 19
f 19 20 24 23
f 20 21 25 24
f 21 22 26 25
f 22 19 23 26
o SD0478_T003_3hao
v -50.958 -33.665 0.000
v -46.625 -15.904 0.000
v -103.520 -2.237 0.000
v -107.852 -19.990 0.000
v -50.958 -33.665 9.900
v -46.625 -15.904 9.900
v -103.520 -2.237 9.900
v -107.852 -19.990 9.900
usemtl roof
f 31 32 33 34
usemtl teaching_building
f 30 29 28 27
f 27 28 32 31
f 28 29 33 32
f 29 30 34 33
f 30 27 31 34
