# school_id SD0413
# school_name 东方外国语实验学校中学部
# boundary_source footprint_convex_hull_buffer_20m
# adjacent_block_merge_distance_m 2.0
mtllib ../campus_materials.mtl
o SD0413_campus_boundary
usemtl campus_boundary
v 28.829 -57.188 0.050
v -27.758 -55.476 0.050
v -78.173 -5.719 0.050
v -77.001 32.089 0.050
v 59.505 54.839 0.050
v 67.110 16.506 0.050
v 28.829 -57.188 0.050
l 1 2 3 4 5 6 7 1
o SD0413_T001_1hao
v 10.611 12.540 0.000
v 46.127 19.498 0.000
v 43.662 31.923 0.000
v 8.146 24.974 0.000
v 10.611 12.540 20.000
v 46.127 19.498 20.000
v 43.662 31.923 20.000
v 8.146 24.974 20.000
usemtl roof
f 12 13 14 15
usemtl teaching_building
f 11 10 9 8
f 8 9 13 12
f 9 10 14 13
f 10 11 15 14
f 11 8 12 15
o SD0413_T002_2hao
v 5.511 0.347 0.000
v 5.430 13.022 0.000
v -57.519 15.060 0.000
v -57.912 2.385 0.000
v 5.511 0.347 20.000
v 5.430 13.022 20.000
v -57.519 15.060 20.000
v -57.912 2.385 20.000
usemtl roof
f 20 21 22 23
usemtl teaching_building
f 19 18 17 16
f 16 17 21 20
f 17 18 22 21
f 18 19 23 22
f 19 16 20 23
o SD0413_T003_3hao
v 16.873 -36.817 0.000
v 17.273 -24.160 0.000
v -18.902 -23.048 0.000
v -19.301 -35.723 0.000
v 16.873 -36.817 20.000
v 17.273 -24.160 20.000
v -18.902 -23.048 20.000
v -19.301 -35.723 20.000
usemtl roof
f 28 29 30 31
usemtl teaching_building
f 27 26 25 24
f 24 25 29 28
f 25 26 30 29
f 26 27 31 30
f 27 24 28 31
