# school_id SD0411
# school_name 世嘉语卓
# boundary_source footprint_convex_hull_buffer_20m
# adjacent_block_merge_distance_m 2.0
mtllib ../campus_materials.mtl
o SD0411_campus_boundary
usemtl campus_boundary
v 2.141 -30.950 0.050
v -10.284 -30.641 0.050
v -27.918 -25.493 0.050
v -38.068 -4.633 0.050
v -38.441 9.615 0.050
v -24.880 35.376 0.050
v 4.622 35.105 0.050
v 20.942 28.045 0.050
v 36.144 1.582 0.050
v 31.060 -16.360 0.050
v 18.037 -26.977 0.050
v 2.141 -30.950 0.050
l 1 2 3 4 5 6 7 8 9 10 11 12 1
o SD0411_T001_1hao
v -18.188 0.221 0.000
v -13.695 -0.255 0.000
v -13.810 -8.777 0.000
v -7.181 -8.656 0.000
v -7.181 -10.712 0.000
v -0.075 -10.889 0.000
v -0.075 -8.656 0.000
v 8.858 -8.656 0.000
v 8.920 -6.014 0.000
v 10.694 -6.246 0.000
v 13.536 -4.842 0.000
v 14.604 -1.073 0.000
v 11.170 2.686 0.000
v 6.792 2.210 0.000
v 6.907 12.325 0.000
v 0.393 12.435 0.000
v 0.393 15.143 0.000
v -12.865 15.265 0.000
v -12.627 5.151 0.000
v -18.311 4.919 0.000
v -18.188 0.221 10.020
v -13.695 -0.255 10.020
v -13.810 -8.777 10.020
v -7.181 -8.656 10.020
v -7.181 -10.712 10.020
v -0.075 -10.889 10.020
v -0.075 -8.656 10.020
v 8.858 -8.656 10.020
v 8.920 -6.014 10.020
v 10.694 -6.246 10.020
v 13.536 -4.842 10.020
v 14.604 -1.073 10.020
v 11.170 2.686 10.020
v 6.792 2.210 10.020
v 6.907 12.325 10.020
v 0.393 12.435 10.020
v 0.393 15.143 10.020
v -12.865 15.265 10.020
v -12.627 5.151 10.020
v -18.311 4.919 10.020
usemtl roof
f 33 34 35 36 37 38 39 40 41 42 43 44 45 46 47 48 49 50 51 52
usemtl teaching_building
f 32 31 30 29 28 27 26 25 24 23 22 21 20 19 18 17 16 15 14 13
f 13 14 34 33
f 14 15 35 34
f 15 16 36 35
f 16 17 37 36
f 17 18 38 37
f 18 19 39 38
f 19 20 40 39
f 20 21 41 40
f 21 22 42 41
f 22 23 43 42
f 23 24 44 43
f 24 25 45 44
f 25 26 46 45
f 26 27 47 46
f 27 28 48 47
f 28 29 49 48
f 29 30 50 49
f 30 31 51 50
f 31 32 52 51
f 32 13 33 52
