# school_id SD0481
# school_name 莱山区第九小学
# boundary_source footprint_convex_hull_buffer_20m
# adjacent_block_merge_distance_m 2.0
mtllib ../campus_materials.mtl
o SD0481_campus_boundary
usemtl campus_boundary
v -15.219 -135.522 0.050
v -78.598 -116.735 0.050
v -65.160 -39.472 0.050
v -62.930 -29.308 0.050
v -30.455 91.632 0.050
v 1.449 83.975 0.050
v 29.246 77.278 0.050
v 50.366 71.623 0.050
v 111.372 52.845 0.050
v 98.334 4.450 0.050
v -15.219 -135.522 0.050
l 1 2 3 4 5 6 7 8 9 10 11 1
o SD0481_T001_1hao
v -10.700 31.144 0.000
v -7.211 45.477 0.000
v 21.094 38.677 0.000
v 19.294 31.292 0.000
v 38.562 26.660 0.000
v 44.836 52.399 0.000
v 32.939 55.252 0.000
v 32.413 53.084 0.000
v 23.657 55.197 0.000
v 24.317 57.893 0.000
v 4.360 62.692 0.000
v 3.767 60.256 0.000
v -3.811 62.072 0.000
v -3.218 64.527 0.000
v -16.189 67.640 0.000
v -24.286 34.405 0.000
v -10.700 31.144 6.600
v -7.211 45.477 6.600
v 21.094 38.677 6.600
v 19.294 31.292 6.600
v 38.562 26.660 6.600
v 44.836 52.399 6.600
v 32.939 55.252 6.600
v 32.413 53.084 6.600
v 23.657 55.197 6.600
v 24.317 57.893 6.600
v 4.360 62.692 6.600
v 3.767 60.256 6.600
v -3.811 62.072 6.600
v -3.218 64.527 6.600
v -16.189 67.640 6.600
v -24.286 34.405 6.600
usemtl roof
f 28 29 30 31 32 33 34 35 36 37 38 39 40 41 42 43
usemtl teaching_building
f 27 26 25 24 23 22 21 20 19 18 17 16 15 14 13 12
f 12 13 29 28
f 13 14 30 29
f 14 15 31 30
f 15 16 32 31
f 16 17 33 32
f 17 18 34 33
f 18 19 35 34
f 19 20 36 35
f 20 21 37 36
f 21 22 38 37
f 22 23 39 38
f 23 24 40 39
f 24 25 41 40
f 25 26 42 41
f 26 27 43 42
f 27 12 28 43
o SD0481_T002_2hao
v -11.300 -74.500 0.000
v -8.137 -60.064 0.000
v -34.116 -54.459 0.000
v -28.190 -27.358 0.000
v -1.040 -33.213 0.000
v 2.241 -18.222 0.000
v -33.264 -10.569 0.000
v -38.627 -35.094 0.000
v -43.494 -34.047 0.000
v -45.531 -43.331 0.000
v -41.605 -44.174 0.000
v -46.569 -66.884 0.000
v -11.300 -74.500 6.600
v -8.137 -60.064 6.600
v -34.116 -54.459 6.600
v -28.190 -27.358 6.600
v -1.040 -33.213 6.600
v 2.241 -18.222 6.600
v -33.264 -10.569 6.600
v -38.627 -35.094 6.600
v -43.494 -34.047 6.600
v -45.531 -43.331 6.600
v -41.605 -44.174 6.600
v -46.569 -66.884 6.600
usemtl roof
f 56 57 58 59 60 61 62 63 64 65 66 67
usemtl teaching_building
f 55 54 53 52 51 50 49 48 47 46 45 44
f 44 45 57 56
f 45 46 58 57
f 46 47 59 58
f 47 48 60 59
f 48 49 61 60
f 49 50 62 61
f 50 51 63 62
f 51 52 64 63
f 52 53 65 64
f 53 54 66 65
f 54 55 67 66
f 55 44 56 67
