# school_id SD0475
# school_name 祥发小学
# boundary_source footprint_convex_hull_buffer_20m
# adjacent_block_merge_distance_m 2.0
mtllib ../campus_materials.mtl
o SD0475_campus_boundary
usemtl campus_boundary
v 74.972 -67.763 0.050
v -67.331 -59.747 0.050
v -67.159 -30.604 0.050
v -65.185 61.152 0.050
v -3.826 95.207 0.050
v 120.369 -29.608 0.050
v 120.540 -67.542 0.050
v 74.972 -67.763 0.050
l 1 2 3 4 5 6 7 8 1
o SD0475_T001_1hao
v -42.878 44.699 0.000
v -4.774 65.843 0.000
v -7.340 70.383 0.000
v -45.437 49.239 0.000
v -42.878 44.699 9.900
v -4.774 65.843 9.900
v -7.340 70.383 9.900
v -45.437 49.239 9.900
usemtl roof
f 13 14 15 16
usemtl teaching_building
f 12 11 10 9
f 9 10 14 13
f 10 11 15 14
f 11 12 16 15
f 12 9 13 16
o SD0475_T002_2hao
v 10.629 -41.181 0.000
v 11.050 30.616 0.000
v -45.503 30.931 0.000
v -45.570 21.100 0.000
v 1.378 20.822 0.000
v 1.260 1.208 0.000
v -45.969 1.486 0.000
v -46.043 -10.328 0.000
v 0.964 -10.606 0.000
v 0.838 -31.165 0.000
v -47.160 -30.878 0.000
v -47.219 -40.848 0.000
v 10.629 -41.181 9.900
v 11.050 30.616 9.900
v -45.503 30.931 9.900
v -45.570 21.100 9.900
v 1.378 20.822 9.900
v 1.260 1.208 9.900
v -45.969 1.486 9.900
v -46.043 -10.328 9.900
v 0.964 -10.606 9.900
v 0.838 -31.165 9.900
v -47.160 -30.878 9.900
v -47.219 -40.848 9.900
usemtl roof
f 29 30 31 32 33 34 35 36 37 38 39 40
usemtl teaching_building
f 28 27 26 25 24 23 22 21 20 19 18 17
f 17 18 30 29
f 18 19 31 30
f 19 20 32 31
f 20 21 33 32
f 21 22 34 33
f 22 23 35 34
f 23 24 36 35
f 24 25 37 36
f 25 26 38 37
f 26 27 39 38
f 27 28 40 39
f 28 17 29 40
o SD0475_T003_3hao
v 75.486 -47.760 0.000
v 100.450 -47.639 0.000
v 100.406 -37.901 0.000
v 75.434 -38.022 0.000
v 75.486 -47.760 9.900
v 100.450 -47.639 9.900
v 100.406 -37.901 9.900
v 75.434 -38.022 9.900
usemtl roof
f 45 46 47 48
usemtl teaching_building
f 44 43 42 41
f 41 42 46 45
f 42 43 47 46
f 43 44 48 47
f 44 41 45 48
