# school_id SD0454
# school_name 烟台市莱山一中
# boundary_source footprint_convex_hull_buffer_20m
# adjacent_block_merge_distance_m 2.0
mtllib ../campus_materials.mtl
o SD0454_campus_boundary
usemtl campus_boundary
v -24.055 -75.588 0.050
v -43.614 -53.519 0.050
v -43.897 11.373 0.050
v -34.143 99.929 0.050
v 59.562 100.705 0.050
v 59.892 62.587 0.050
v 58.230 -75.232 0.050
v -24.055 -75.588 0.050
l 1 2 3 4 5 6 7 8 1
o SD0454_T001_1hao
v -16.054 62.158 0.000
v 39.891 62.621 0.000
v 39.736 80.540 0.000
v -16.209 80.077 0.000
v -16.054 62.158 9.900
v 39.891 62.621 9.900
v 39.736 80.540 9.900
v -16.209 80.077 9.900
usemtl roof
f 13 14 15 16
usemtl teaching_building
f 12 11 10 9
f 9 10 14 13
f 10 11 15 14
f 11 12 16 15
f 12 9 13 16
o SD0454_T002_2hao
v -23.647 -45.895 0.000
v -23.892 10.318 0.000
v -15.385 10.365 0.000
v -15.417 17.907 0.000
v 37.921 18.138 0.000
v 37.988 2.119 0.000
v -15.343 1.887 0.000
v -15.135 -45.857 0.000
v -23.647 -45.895 9.900
v -23.892 10.318 9.900
v -15.385 10.365 9.900
v -15.417 17.907 9.900
v 37.921 18.138 9.900
v 37.988 2.119 9.900
v -15.343 1.887 9.900
v -15.135 -45.857 9.900
usemtl roof
f 25 26 27 28 29 30 31 32
usemtl teaching_building
f 24 23 22 21 20 19 18 17
f 17 18 26 25
f 18 19 27 26
f 19 20 28 27
f 20 21 29 28
f 21 22 30 29
f 22 23 31 30
f 23 24 32 31
f 24 17 25 32
o SD0454_T002_2hao_seg02
v -15.172 -36.713 0.000
v 38.380 -36.481 0.000
v 38.469 -55.317 0.000
v -15.091 -55.549 0.000
v -15.172 -36.713 9.900
v 38.380 -36.481 9.900
v 38.469 -55.317 9.900
v -15.091 -55.549 9.900
usemtl roof
f 37 38 39 40
usemtl teaching_building
f 36 35 34 33
f 33 34 38 37
f 34 35 39 38
f 35 36 40 39
f 36 33 37 40
