# school_id SD0476
# school_name 福山区第三实验小学(福山高新区永福园小学)
# boundary_source footprint_convex_hull_buffer_20m
# adjacent_block_merge_distance_m 2.0
mtllib ../campus_materials.mtl
o SD0476_campus_boundary
usemtl campus_boundary
v -65.786 -64.129 0.050
v -68.722 -22.567 0.050
v -66.692 44.791 0.050
v -6.959 49.336 0.050
v 47.977 35.746 0.050
v 46.902 2.659 0.050
v 39.983 -20.706 0.050
v 28.716 -57.581 0.050
v -65.786 -64.129 0.050
l 1 2 3 4 5 6 7 8 9 1
o SD0476_T001_1hao
v -46.304 15.391 0.000
v -8.881 18.328 0.000
v 17.050 12.343 0.000
v 15.510 6.811 0.000
v 19.063 3.049 0.000
v 14.090 -12.943 0.000
v 20.831 -14.944 0.000
v 26.996 5.875 0.000
v 23.680 7.043 0.000
v 27.462 20.218 0.000
v -8.644 29.150 0.000
v -47.243 26.213 0.000
v -46.304 15.391 9.900
v -8.881 18.328 9.900
v 17.050 12.343 9.900
v 15.510 6.811 9.900
v 19.063 3.049 9.900
v 14.090 -12.943 9.900
v 20.831 -14.944 9.900
v 26.996 5.875 9.900
v 23.680 7.043 9.900
v 27.462 20.218 9.900
v -8.644 29.150 9.900
v -47.243 26.213 9.900
usemtl roof
f 22 23 24 25 26 27 28 29 30 31 32 33
usemtl teaching_building
f 21 20 19 18 17 16 15 14 13 12 11 10
f 10 11 23 22
f 11 12 24 23
f 12 13 25 24
f 13 14 26 25
f 14 15 27 26
f 15 16 28 27
f 16 17 29 28
f 17 18 30 29
f 18 19 31 30
f 19 20 32 31
f 20 21 33 32
f 21 10 22 33
o SD0476_T002_2hao
v -47.243 -42.796 0.000
v 13.609 -38.580 0.000
v 12.158 -17.927 0.000
v -48.701 -22.162 0.000
v -47.243 -42.796 9.900
v 13.609 -38.580 9.900
v 12.158 -17.927 9.900
v -48.701 -22.162 9.900
usemtl roof
f 38 39 40 41
usemtl teaching_building
f 37 36 35 34
f 34 35 39 38
f 35 36 40 39
f 36 37 41 40
f 37 34 38 41
