# school_id SD0414
# school_name 八角中心小学
# boundary_source footprint_convex_hull_buffer_20m
# adjacent_block_merge_distance_m 2.0
mtllib ../campus_materials.mtl
o SD0414_campus_boundary
usemtl campus_boundary
v -61.802 -53.884 0.050
v -63.136 12.050 0.050
v -63.136 54.100 0.050
v 58.559 54.100 0.050
v 64.928 -11.557 0.050
v 65.227 -53.021 0.050
v -61.802 -53.884 0.050
l 1 2 3 4 5 6 7 1
o SD0414_T001_1hao
v 40.405 12.252 0.000
v 40.405 34.100 0.000
v -43.136 34.100 0.000
v -43.136 12.252 0.000
v 40.405 12.252 9.900
v 40.405 34.100 9.900
v -43.136 34.100 9.900
v -43.136 12.252 9.900
usemtl roof
f 12 13 14 15
usemtl teaching_building
f 11 10 9 8
f 8 9 13 12
f 9 10 14 13
f 10 11 15 14
f 11 8 12 15
o SD0414_T002_2hao
v -42.205 -33.750 0.000
v 45.083 -33.157 0.000
v 44.935 -12.597 0.000
v -42.352 -13.200 0.000
v -42.205 -33.750 9.900
v 45.083 -33.157 9.900
v 44.935 -12.597 9.900
v -42.352 -13.200 9.900
usemtl roof
f 20 21 22 23
usemtl teaching_building
f 19 18 17 16
f 16 17 21 20
f 17 18 22 21
f 18 19 23 22
f 19 16 20 23
