# school_id SD0428
# school_name 山东省牟平第一中学
# boundary_source footprint_convex_hull_buffer_20m
# adjacent_block_merge_distance_m 2.0
mtllib ../campus_materials.mtl
o SD0428_campus_boundary
usemtl campus_boundary
v 27.209 -193.241 0.050
v -132.831 -44.288 0.050
v -129.741 7.475 0.050
v -125.133 81.073 0.050
v -118.074 157.179 0.050
v -44.847 163.674 0.050
v -10.097 166.729 0.050
v 144.254 163.052 0.050
v 149.853 112.552 0.050
v 165.995 -130.187 0.050
v 155.769 -189.975 0.050
v 27.209 -193.241 0.050
l 1 2 3 4 5 6 7 8 9 10 11 12 1
o SD0428_T001_1hao
v -97.921 118.810 0.000
v -90.161 119.495 0.000
v -91.110 130.187 0.000
v -47.920 133.986 0.000
v -48.742 143.214 0.000
v -99.699 138.730 0.000
v -97.921 118.810 6.600
v -90.161 119.495 6.600
v -91.110 130.187 6.600
v -47.920 133.986 6.600
v -48.742 143.214 6.600
v -99.699 138.730 6.600
usemtl roof
f 19 20 21 22 23 24
usemtl teaching_building
f 18 17 16 15 14 13
f 13 14 20 19
f 14 15 21 20
f 15 16 22 21
f 16 17 23 22
f 17 18 24 23
f 18 13 19 24
o SD0428_T002_2hao
v 76.086 104.893 0.000
v 129.926 110.786 0.000
v 126.302 143.474 0.000
v 72.463 137.581 0.000
v 76.086 104.893 6.600
v 129.926 110.786 6.600
v 126.302 143.474 6.600
v 72.463 137.581 6.600
usemtl roof
f 29 30 31 32
usemtl teaching_building
f 28 27 26 25
f 25 26 30 29
f 26 27 31 30
f 27 28 32 31
f 28 25 29 32
o SD0428_T003_3hao
v -47.705 98.889 0.000
v -4.536 103.123 0.000
v -6.085 123.266 0.000
v -14.267 123.498 0.000
v -13.911 112.667 0.000
v -47.349 108.544 0.000
v -73.191 113.602 0.000
v -74.265 103.827 0.000
v -47.705 98.889 6.600
v -4.536 103.123 6.600
v -6.085 123.266 6.600
v -14.267 123.498 6.600
v -13.911 112.667 6.600
v -47.349 108.544 6.600
v -73.191 113.602 6.600
v -74.265 103.827 6.600
usemtl roof
f 41 42 43 44 45 46 47 48
usemtl teaching_building
f 40 39 38 37 36 35 34 33
f 33 34 42 41
f 34 35 43 42
f 35 36 44 43
f 36 37 45 44
f 37 38 46 45
f 38 39 47 46
f 39 40 48 47
f 40 33 41 48
o SD0428_T004_4hao
v -96.957 59.882 0.000
v -96.483 68.128 0.000
v -62.519 66.192 0.000
v -62.660 63.727 0.000
v -46.526 62.810 0.000
v -45.896 73.835 0.000
v -61.770 74.734 0.000
v -61.637 77.051 0.000
v -105.191 79.524 0.000
v -106.287 60.410 0.000
v -96.957 59.882 9.900
v -96.483 68.128 9.900
v -62.519 66.192 9.900
v -62.660 63.727 9.900
v -46.526 62.810 9.900
v -45.896 73.835 9.900
v -61.770 74.734 9.900
v -61.637 77.051 9.900
v -105.191 79.524 9.900
v -106.287 60.410 9.900
usemtl roof
f 59 60 61 62 63 64 65 66 67 68
usemtl teaching_building
f 58 57 56 55 54 53 52 51 50 49
f 49 50 60 59
f 50 51 61 60
f 51 52 62 61
f 52 53 63 62
f 53 54 64 63
f 54 55 65 64
f 55 56 66 65
f 56 57 67 66
f 57 58 68 67
f 58 49 59 68
o SD0428_T005_5hao
v -5.255 24.016 0.000
v 42.130 41.509 0.000
v 47.332 45.724 0.000
v 50.875 50.598 0.000
v 52.913 55.518 0.000
v 53.832 61.077 0.000
v 50.119 111.369 0.000
v 26.760 109.952 0.000
v 27.708 100.353 0.000
v 17.444 97.156 0.000
v 11.071 93.506 0.000
v 5.009 88.354 0.000
v -1.935 78.700 0.000
v -5.826 67.396 0.000
v -6.330 55.879 0.000
v -4.292 46.540 0.000
v -13.081 42.611 0.000
v -5.255 24.016 6.600
v 42.130 41.509 6.600
v 47.332 45.724 6.600
v 50.875 50.598 6.600
v 52.913 55.518 6.600
v 53.832 61.077 6.600
v 50.119 111.369 6.600
v 26.760 109.952 6.600
v 27.708 100.353 6.600
v 17.444 97.156 6.600
v 11.071 93.506 6.600
v 5.009 88.354 6.600
v -1.935 78.700 6.600
v -5.826 67.396 6.600
v -6.330 55.879 6.600
v -4.292 46.540 6.600
v -13.081 42.611 6.600
usemtl roof
f 86 87 88 89 90 91 92 93 94 95 96 97 98 99 100 101 102
usemtl teaching_building
f 85 84 83 82 81 80 79 78 77 76 75 74 73 72 71 70 69
f 69 70 87 86
f 70 71 88 87
f 71 72 89 88
f 72 73 90 89
f 73 74 91 90
f 74 75 92 91
f 75 76 93 92
f 76 77 94 93
f 77 78 95 94
f 78 79 96 95
f 79 80 97 96
f 80 81 98 97
f 81 82 99 98
f 82 83 100 99
f 83 84 101 100
f 84 85 102 101
f 85 69 86 102
o SD0428_T006_6hao
v -23.271 32.595 0.000
v -22.686 51.043 0.000
v -35.366 51.432 0.000
v -35.951 32.994 0.000
v -23.271 32.595 9.900
v -22.686 51.043 9.900
v -35.366 51.432 9.900
v -35.951 32.994 9.900
usemtl roof
f 107 108 109 110
usemtl teaching_building
f 106 105 104 103
f 103 104 108 107
f 104 105 109 108
f 105 106 110 109
f 106 103 107 110
o SD0428_T007_7hao
v -63.564 31.206 0.000
v -63.482 33.781 0.000
v -47.942 33.300 0.000
v -47.460 48.328 0.000
v -54.441 48.550 0.000
v -54.604 43.241 0.000
v -63.364 43.510 0.000
v -63.460 40.471 0.000
v -98.595 41.564 0.000
v -98.417 47.309 0.000
v -106.814 47.568 0.000
v -107.295 32.577 0.000
v -63.564 31.206 9.900
v -63.482 33.781 9.900
v -47.942 33.300 9.900
v -47.460 48.328 9.900
v -54.441 48.550 9.900
v -54.604 43.241 9.900
v -63.364 43.510 9.900
v -63.460 40.471 9.900
v -98.595 41.564 9.900
v -98.417 47.309 9.900
v -106.814 47.568 9.900
v -107.295 32.577 9.900
usemtl roof
f 123 124 125 126 127 128 129 130 131 132 133 134
usemtl teaching_building
f 122 121 120 119 118 117 116 115 114 113 112 111
f 111 112 124 123
f 112 113 125 124
f 113 114 126 125
f 114 115 127 126
f 115 116 128 127
f 116 117 129 128
f 117 118 130 129
f 118 119 131 130
f 119 120 132 131
f 120 121 133 132
f 121 122 134 133
f 122 111 123 134
o SD0428_T008_8hao
v -101.826 -12.999 0.000
v -101.470 -3.206 0.000
v -67.084 -4.475 0.000
v -66.736 4.670 0.000
v -109.778 6.254 0.000
v -110.482 -12.675 0.000
v -101.826 -12.999 9.900
v -101.470 -3.206 9.900
v -67.084 -4.475 9.900
v -66.736 4.670 9.900
v -109.778 6.254 9.900
v -110.482 -12.675 9.900
usemtl roof
f 141 142 143 144 145 146
usemtl teaching_building
f 140 139 138 137 136 135
f 135 136 142 141
f 136 137 143 142
f 137 138 144 143
f 138 139 145 144
f 139 140 146 145
f 140 135 141 146
o SD0428_T009_9hao
v -50.061 -13.806 0.000
v -49.602 -4.114 0.000
v -20.751 -5.457 0.000
v -20.321 3.641 0.000
v -57.872 5.392 0.000
v -58.762 -13.398 0.000
v -50.061 -13.806 9.900
v -49.602 -4.114 9.900
v -20.751 -5.457 9.900
v -20.321 3.641 9.900
v -57.872 5.392 9.900
v -58.762 -13.398 9.900
usemtl roof
f 153 154 155 156 157 158
usemtl teaching_building
f 152 151 150 149 148 147
f 147 148 154 153
f 148 149 155 154
f 149 150 156 155
f 150 151 157 156
f 151 152 158 157
f 152 147 153 158
o SD0428_T010_10hao
v 56.403 -40.397 0.000
v 74.664 -37.571 0.000
v 85.817 -1.316 0.000
v 59.960 6.930 0.000
v 34.823 -6.254 0.000
v 56.403 -40.397 6.600
v 74.664 -37.571 6.600
v 85.817 -1.316 6.600
v 59.960 6.930 6.600
v 34.823 -6.254 6.600
usemtl roof
f 164 165 166 167 168
usemtl teaching_building
f 163 162 161 160 159
f 159 160 165 164
f 160 161 166 165
f 161 162 167 166
f 162 163 168 167
f 163 159 164 168
o SD0428_T011_11hao
v 121.359 -77.088 0.000
v 121.285 -87.215 0.000
v 104.107 -87.104 0.000
v 104.011 -101.252 0.000
v 136.752 -101.474 0.000
v 136.996 -64.598 0.000
v 103.833 -64.376 0.000
v 103.751 -76.967 0.000
v 121.359 -77.088 6.600
v 121.285 -87.215 6.600
v 104.107 -87.104 6.600
v 104.011 -101.252 6.600
v 136.752 -101.474 6.600
v 136.996 -64.598 6.600
v 103.833 -64.376 6.600
v 103.751 -76.967 6.600
usemtl roof
f 177 178 179 180 181 182 183 184
usemtl teaching_building
f 176 175 174 173 172 171 170 169
f 169 170 178 177
f 170 171 179 178
f 171 172 180 179
f 172 173 181 180
f 173 174 182 181
f 174 175 183 182
f 175 176 184 183
f 176 169 177 184
o SD0428_T012_12hao
v 17.637 -108.572 0.000
v 41.604 -106.079 0.000
v 37.928 -71.121 0.000
v 13.961 -73.604 0.000
v 17.637 -108.572 6.600
v 41.604 -106.079 6.600
v 37.928 -71.121 6.600
v 13.961 -73.604 6.600
usemtl roof
f 189 190 191 192
usemtl teaching_building
f 188 187 186 185
f 185 186 190 189
f 186 187 191 190
f 187 188 192 191
f 188 185 189 192
o SD0428_T013_13hao
v 138.827 -170.399 0.000
v 145.882 -129.150 0.000
v 109.472 -123.016 0.000
v 107.308 -135.663 0.000
v 122.486 -138.230 0.000
v 122.167 -140.129 0.000
v 128.918 -141.269 0.000
v 126.673 -154.389 0.000
v 113.282 -152.137 0.000
v 114.060 -147.569 0.000
v 104.166 -145.902 0.000
v 101.068 -164.025 0.000
v 138.827 -170.399 6.600
v 145.882 -129.150 6.600
v 109.472 -123.016 6.600
v 107.308 -135.663 6.600
v 122.486 -138.230 6.600
v 122.167 -140.129 6.600
v 128.918 -141.269 6.600
v 126.673 -154.389 6.600
v 113.282 -152.137 6.600
v 114.060 -147.569 6.600
v 104.166 -145.902 6.600
v 101.068 -164.025 6.600
usemtl roof
f 205 206 207 208 209 210 211 212 213 214 215 216
usemtl teaching_building
f 204 203 202 201 200 199 198 197 196 195 194 193
f 193 194 206 205
f 194 195 207 206
f 195 196 208 207
f 196 197 209 208
f 197 198 210 209
f 198 199 211 210
f 199 200 212 211
f 200 201 213 212
f 201 202 214 213
f 202 203 215 214
f 203 204 216 215
f 204 193 205 216
o SD0428_T014_14hao
v 25.700 -156.714 0.000
v 29.242 -156.038 0.000
v 30.458 -162.301 0.000
v 32.703 -161.875 0.000
v 34.860 -173.040 0.000
v 66.134 -167.082 0.000
v 62.769 -149.691 0.000
v 53.194 -151.516 0.000
v 54.061 -155.992 0.000
v 41.144 -158.447 0.000
v 38.706 -145.846 0.000
v 45.154 -144.614 0.000
v 44.783 -142.705 0.000
v 59.345 -139.935 0.000
v 57.011 -127.834 0.000
v 21.431 -134.607 0.000
v 25.700 -156.714 6.600
v 29.242 -156.038 6.600
v 30.458 -162.301 6.600
v 32.703 -161.875 6.600
v 34.860 -173.040 6.600
v 66.134 -167.082 6.600
v 62.769 -149.691 6.600
v 53.194 -151.516 6.600
v 54.061 -155.992 6.600
v 41.144 -158.447 6.600
v 38.706 -145.846 6.600
v 45.154 -144.614 6.600
v 44.783 -142.705 6.600
v 59.345 -139.935 6.600
v 57.011 -127.834 6.600
v 21.431 -134.607 6.600
usemtl roof
f 233 234 235 236 237 238 239 240 241 242 243 244 245 246 247 248
usemtl teaching_building
f 232 231 230 229 228 227 226 225 224 223 222 221 220 219 218 217
f 217 218 234 233
f 218 219 235 234
f 219 220 236 235
f 220 221 237 236
f 221 222 238 237
f 222 223 239 238
f 223 224 240 239
f 224 225 241 240
f 225 226 242 241
f 226 227 243 242
f 227 228 244 243
f 228 229 245 244
f 229 230 246 245
f 230 231 247 246
f 231 232 248 247
f 232 217 233 248
