# school_id SD0494
# school_name 莱州市第三实验小学
# boundary_source footprint_convex_hull_buffer_20m
# adjacent_block_merge_distance_m 2.0
mtllib ../campus_materials.mtl
o SD0494_campus_boundary
usemtl campus_boundary
v -27.005 -91.722 0.050
v -103.755 -91.502 0.050
v -105.594 -1.144 0.050
v -105.524 25.425 0.050
v -14.006 99.976 0.050
v 56.015 99.805 0.050
v 148.937 -0.057 0.050
v 148.376 -38.406 0.050
v -27.005 -91.722 0.050
l 1 2 3 4 5 6 7 8 9 1
o SD0494_T001_1hao
v 47.286 79.826 0.000
v 47.241 62.947 0.000
v -6.957 63.102 0.000
v -6.912 79.959 0.000
v 47.286 79.826 9.550
v 47.241 62.947 9.550
v -6.957 63.102 9.550
v -6.912 79.959 9.550
usemtl roof
f 14 15 16 17
usemtl teaching_building
f 13 12 11 10
f 10 11 15 14
f 11 12 16 15
f 12 13 17 16
f 13 10 14 17
o SD0494_T002_2hao
v -31.351 15.769 0.000
v -31.395 -1.111 0.000
v -85.593 -0.967 0.000
v -85.549 15.901 0.000
v -31.351 15.769 9.010
v -31.395 -1.111 9.010
v -85.593 -0.967 9.010
v -85.549 15.901 9.010
usemtl roof
f 22 23 24 25
usemtl teaching_building
f 21 20 19 18
f 18 19 23 22
f 19 20 24 23
f 20 21 25 24
f 21 18 22 25
o SD0494_T003_3hao
v 128.822 -7.799 0.000
v 128.592 -23.517 0.000
v 62.130 -22.567 0.000
v 61.802 -8.738 0.000
v 128.822 -7.799 20.100
v 128.592 -23.517 20.100
v 62.130 -22.567 20.100
v 61.802 -8.738 20.100
usemtl roof
f 30 31 32 33
usemtl teaching_building
f 29 28 27 26
f 26 27 31 30
f 27 28 32 31
f 28 29 33 32
f 29 26 30 33
o SD0494_T004_4hao
v -29.906 -54.833 0.000
v -29.950 -71.713 0.000
v -84.157 -71.558 0.000
v -84.103 -54.701 0.000
v -29.906 -54.833 10.540
v -29.950 -71.713 10.540
v -84.157 -71.558 10.540
v -84.103 -54.701 10.540
usemtl roof
f 38 39 40 41
usemtl teaching_building
f 37 36 35 34
f 34 35 39 38
f 35 36 40 39
f 36 37 41 40
f 37 34 38 41
