# school_id SD0435
# school_name 开发区第五小学
# boundary_source footprint_convex_hull_buffer_20m
# adjacent_block_merge_distance_m 2.0
mtllib ../campus_materials.mtl
o SD0435_campus_boundary
usemtl campus_boundary
v -11.422 -83.372 0.050
v -52.932 -45.830 0.050
v -64.919 67.927 0.050
v -15.144 121.473 0.050
v 107.792 8.796 0.050
v 77.499 -23.791 0.050
v -11.422 -83.372 0.050
l 1 2 3 4 5 6 7 1
o SD0435_T001_1hao
v 9.946 11.441 0.000
v 25.023 27.656 0.000
v 64.434 -8.470 0.000
v 79.430 7.661 0.000
v -14.017 93.310 0.000
v -44.076 60.974 0.000
v 9.946 11.441 9.900
v 25.023 27.656 9.900
v 64.434 -8.470 9.900
v 79.430 7.661 9.900
v -14.017 93.310 9.900
v -44.076 60.974 9.900
usemtl roof
f 14 15 16 17 18 19
usemtl teaching_building
f 13 12 11 10 9 8
f 8 9 15 14
f 9 10 16 15
f 10 11 17 16
f 11 12 18 17
f 12 13 19 18
f 13 8 14 19
o SD0435_T002_2hao
v -9.585 -58.067 0.000
v 21.938 -23.702 0.000
v -1.632 -2.392 0.000
v -16.458 -18.560 0.000
v -25.285 -10.573 0.000
v -32.002 -17.902 0.000
v -23.871 -25.249 0.000
v -33.844 -36.127 0.000
v -9.585 -58.067 9.900
v 21.938 -23.702 9.900
v -1.632 -2.392 9.900
v -16.458 -18.560 9.900
v -25.285 -10.573 9.900
v -32.002 -17.902 9.900
v -23.871 -25.249 9.900
v -33.844 -36.127 9.900
usemtl roof
f 28 29 30 31 32 33 34 35
usemtl teaching_building
f 27 26 25 24 23 22 21 20
f 20 21 29 28
f 21 22 30 29
f 22 23 31 30
f 23 24 32 31
f 24 25 33 32
f 25 26 34 33
f 26 27 35 34
f 27 20 28 35
