# school_id SD0465
# school_name 烟台祥和中学
# boundary_source footprint_convex_hull_buffer_20m
# adjacent_block_merge_distance_m 2.0
mtllib ../campus_materials.mtl
o SD0465_campus_boundary
usemtl campus_boundary
v 56.486 -86.749 0.050
v 34.730 -84.628 0.050
v -84.693 -59.210 0.050
v -89.287 -19.199 0.050
v -85.300 22.590 0.050
v -53.837 108.284 0.050
v 43.434 97.293 0.050
v 152.289 82.342 0.050
v 149.157 47.220 0.050
v 56.486 -86.749 0.050
l 1 2 3 4 5 6 7 8 9 10 1
o SD0465_T001_1hao
v 129.705 54.255 0.000
v 130.674 65.123 0.000
v 71.982 70.293 0.000
v 71.014 59.416 0.000
v 129.705 54.255 9.900
v 130.674 65.123 9.900
v 71.982 70.293 9.900
v 71.014 59.416 9.900
usemtl roof
f 15 16 17 18
usemtl teaching_building
f 14 13 12 11
f 11 12 16 15
f 12 13 17 16
f 13 14 18 17
f 14 11 15 18
o SD0465_T002_2hao
v 35.322 10.041 0.000
v 37.363 27.858 0.000
v -27.985 35.243 0.000
v -24.412 66.383 0.000
v 38.872 59.231 0.000
v 40.950 77.446 0.000
v -40.476 86.647 0.000
v -48.175 19.482 0.000
v 35.322 10.041 9.900
v 37.363 27.858 9.900
v -27.985 35.243 9.900
v -24.412 66.383 9.900
v 38.872 59.231 9.900
v 40.950 77.446 9.900
v -40.476 86.647 9.900
v -48.175 19.482 9.900
usemtl roof
f 27 28 29 30 31 32 33 34
usemtl teaching_building
f 26 25 24 23 22 21 20 19
f 19 20 28 27
f 20 21 29 28
f 21 22 30 29
f 22 23 31 30
f 23 24 32 31
f 24 25 33 32
f 25 26 34 33
f 26 19 27 34
o SD0465_T003_3hao
v -56.051 -20.248 0.000
v -52.494 16.879 0.000
v -65.636 18.120 0.000
v -69.178 -19.006 0.000
v -56.051 -20.248 9.900
v -52.494 16.879 9.900
v -65.636 18.120 9.900
v -69.178 -19.006 9.900
usemtl roof
f 39 40 41 42
usemtl teaching_building
f 38 37 36 35
f 35 36 40 39
f 36 37 41 40
f 37 38 42 41
f 38 35 39 42
o SD0465_T004_4hao
v 46.726 -65.703 0.000
v 53.589 4.093 0.000
v 44.648 4.963 0.000
v 37.792 -64.832 0.000
v 46.726 -65.703 9.900
v 53.589 4.093 9.900
v 44.648 4.963 9.900
v 37.792 -64.832 9.900
usemtl roof
f 47 48 49 50
usemtl teaching_building
f 46 45 44 43
f 43 44 48 47
f 44 45 49 48
f 45 46 50 49
f 46 43 47 50
o SD0465_T005_5hao
v 6.575 -50.536 0.000
v 8.358 -34.210 0.000
v -0.244 -33.284 0.000
v -0.968 -39.927 0.000
v -11.906 -39.103 0.000
v -19.480 -20.766 0.000
v -18.185 -19.367 0.000
v 9.275 -22.647 0.000
v 10.221 -15.254 0.000
v 9.630 -13.373 0.000
v 4.778 -10.899 0.000
v -24.331 -8.786 0.000
v -28.118 -10.788 0.000
v -46.222 -35.230 0.000
v -54.505 -34.285 0.000
v -53.914 -27.465 0.000
v -64.741 -26.965 0.000
v -66.464 -42.642 0.000
v 6.575 -50.536 9.900
v 8.358 -34.210 9.900
v -0.244 -33.284 9.900
v -0.968 -39.927 9.900
v -11.906 -39.103 9.900
v -19.480 -20.766 9.900
v -18.185 -19.367 9.900
v 9.275 -22.647 9.900
v 10.221 -15.254 9.900
v 9.630 -13.373 9.900
v 4.778 -10.899 9.900
v -24.331 -8.786 9.900
v -28.118 -10.788 9.900
v -46.222 -35.230 9.900
v -54.505 -34.285 9.900
v -53.914 -27.465 9.900
v -64.741 -26.965 9.900
v -66.464 -42.642 9.900
usemtl roof
f 69 70 71 72 73 74 75 76 77 78 79 80 81 82 83 84 85 86
usemtl teaching_building
f 68 67 66 65 64 63 62 61 60 59 58 57 56 55 54 53 52 51
f 51 52 70 69
f 52 53 71 70
f 53 54 72 71
f 54 55 73 72
f 55 56 74 73
f 56 57 75 74
f 57 58 76 75
f 58 59 77 76
f 59 60 78 77
f 60 61 79 78
f 61 62 80 79
f 62 63 81 80
f 63 64 82 81
f 64 65 83 82
f 65 66 84 83
f 66 67 85 84
f 67 68 86 85
f 68 51 69 86
