# school_id SD0448
# school_name 烟台天虹技校
# boundary_source footprint_convex_hull_buffer_20m
# adjacent_block_merge_distance_m 2.0
mtllib ../campus_materials.mtl
o SD0448_campus_boundary
usemtl campus_boundary
v 70.509 -177.151 0.050
v -112.212 -130.191 0.050
v -103.448 35.578 0.050
v -97.908 52.671 0.050
v -66.112 99.292 0.050
v 89.863 87.293 0.050
v 124.366 83.681 0.050
v 121.381 55.187 0.050
v 80.275 -144.297 0.050
v 70.509 -177.151 0.050
l 1 2 3 4 5 6 7 8 9 10 1
o SD0448_T001_1hao
v -13.482 61.406 0.000
v -11.832 70.699 0.000
v -56.109 78.463 0.000
v -57.759 69.170 0.000
v -13.482 61.406 9.900
v -11.832 70.699 9.900
v -56.109 78.463 9.900
v -57.759 69.170 9.900
usemtl roof
f 15 16 17 18
usemtl teaching_building
f 14 13 12 11
f 11 12 16 15
f 12 13 17 16
f 13 14 18 17
f 14 11 15 18
o SD0448_T002_2hao
v 84.296 51.279 0.000
v 85.680 64.167 0.000
v -6.654 73.840 0.000
v -8.022 60.952 0.000
v 84.296 51.279 9.900
v 85.680 64.167 9.900
v -6.654 73.840 9.900
v -8.022 60.952 9.900
usemtl roof
f 23 24 25 26
usemtl teaching_building
f 22 21 20 19
f 19 20 24 23
f 20 21 25 24
f 21 22 26 25
f 22 19 23 26
o SD0448_T003_3hao
v 1.669 28.968 0.000
v 6.034 42.106 0.000
v -43.436 58.320 0.000
v -47.808 45.191 0.000
v 1.669 28.968 9.900
v 6.034 42.106 9.900
v -43.436 58.320 9.900
v -47.808 45.191 9.900
usemtl roof
f 31 32 33 34
usemtl teaching_building
f 30 29 28 27
f 27 28 32 31
f 28 29 33 32
f 29 30 34 33
f 30 27 31 34
o SD0448_T004_4hao
v -63.729 25.549 0.000
v -59.882 37.427 0.000
v -79.767 43.774 0.000
v -83.614 31.905 0.000
v -63.729 25.549 9.900
v -59.882 37.427 9.900
v -79.767 43.774 9.900
v -83.614 31.905 9.900
usemtl roof
f 39 40 41 42
usemtl teaching_building
f 38 37 36 35
f 35 36 40 39
f 36 37 41 40
f 37 38 42 41
f 38 35 39 42
o SD0448_T005_5hao
v 68.420 8.278 0.000
v 73.362 23.631 0.000
v 17.020 41.494 0.000
v 12.085 26.142 0.000
v 68.420 8.278 9.900
v 73.362 23.631 9.900
v 17.020 41.494 9.900
v 12.085 26.142 9.900
usemtl roof
f 47 48 49 50
usemtl teaching_building
f 46 45 44 43
f 43 44 48 47
f 44 45 49 48
f 45 46 50 49
f 46 43 47 50
o SD0448_T006_6hao
v -5.137 4.887 0.000
v -0.765 18.016 0.000
v -50.242 34.249 0.000
v -54.615 21.101 0.000
v -5.137 4.887 9.900
v -0.765 18.016 9.900
v -50.242 34.249 9.900
v -54.615 21.101 9.900
usemtl roof
f 55 56 57 58
usemtl teaching_building
f 54 53 52 51
f 51 52 56 55
f 52 53 57 56
f 53 54 58 57
f 54 51 55 58
o SD0448_T007_7hao
v 54.934 -14.987 0.000
v 58.677 -3.665 0.000
v 7.550 13.022 0.000
v 3.799 1.700 0.000
v 54.934 -14.987 9.900
v 58.677 -3.665 9.900
v 7.550 13.022 9.900
v 3.799 1.700 9.900
usemtl roof
f 63 64 65 66
usemtl teaching_building
f 62 61 60 59
f 59 60 64 63
f 60 61 65 64
f 61 62 66 65
f 62 59 63 66
o SD0448_T008_8hao
v -13.652 -18.378 0.000
v -9.295 -5.249 0.000
v -58.765 10.965 0.000
v -63.130 -2.164 0.000
v -13.652 -18.378 9.900
v -9.295 -5.249 9.900
v -58.765 10.965 9.900
v -63.130 -2.164 9.900
usemtl roof
f 71 72 73 74
usemtl teaching_building
f 70 69 68 67
f 67 68 72 71
f 68 69 73 72
f 69 70 74 73
f 70 67 71 74
o SD0448_T009_9hao
v 50.673 -38.503 0.000
v 55.082 -24.568 0.000
v 4.665 -8.816 0.000
v 0.248 -22.752 0.000
v 50.673 -38.503 9.900
v 55.082 -24.568 9.900
v 4.665 -8.816 9.900
v 0.248 -22.752 9.900
usemtl roof
f 79 80 81 82
usemtl teaching_building
f 78 77 76 75
f 75 76 80 79
f 76 77 81 80
f 77 78 82 81
f 78 75 79 82
o SD0448_T010_10hao
v -23.122 -44.710 0.000
v -18.764 -31.581 0.000
v -68.234 -15.367 0.000
v -72.599 -28.496 0.000
v -23.122 -44.710 9.900
v -18.764 -31.581 9.900
v -68.234 -15.367 9.900
v -72.599 -28.496 9.900
usemtl roof
f 87 88 89 90
usemtl teaching_building
f 86 85 84 83
f 83 84 88 87
f 84 85 89 88
f 85 86 90 89
f 86 83 87 90
o SD0448_T011_11hao
v 34.338 -86.923 0.000
v 39.731 -70.524 0.000
v -16.856 -52.188 0.000
v -22.241 -68.587 0.000
v 34.338 -86.923 9.900
v 39.731 -70.524 9.900
v -16.856 -52.188 9.900
v -22.241 -68.587 9.900
usemtl roof
f 95 96 97 98
usemtl teaching_building
f 94 93 92 91
f 91 92 96 95
f 92 93 97 96
f 93 94 98 97
f 94 91 95 98
o SD0448_T012_12hao
v -22.478 -129.702 0.000
v -18.498 -111.430 0.000
v -87.387 -96.624 0.000
v -91.375 -114.896 0.000
v -22.478 -129.702 9.900
v -18.498 -111.430 9.900
v -87.387 -96.624 9.900
v -91.375 -114.896 9.900
usemtl roof
f 103 104 105 106
usemtl teaching_building
f 102 101 100 99
f 99 100 104 103
f 100 101 105 104
f 101 102 106 105
f 102 99 103 106
o SD0448_T013_13hao
v 56.828 -152.985 0.000
v 60.860 -139.421 0.000
v -13.711 -117.555 0.000
v -17.751 -131.119 0.000
v 56.828 -152.985 9.900
v 60.860 -139.421 9.900
v -13.711 -117.555 9.900
v -17.751 -131.119 9.900
usemtl roof
f 111 112 113 114
usemtl teaching_building
f 110 109 108 107
f 107 108 112 111
f 108 109 113 112
f 109 110 114 113
f 110 107 111 114
