# school_id SD0417
# school_name 北长山乡中心小学
# boundary_source footprint_convex_hull_buffer_20m
# adjacent_block_merge_distance_m 2.0
mtllib ../campus_materials.mtl
o SD0417_campus_boundary
usemtl campus_boundary
v 46.506 -74.815 0.050
v -51.118 -52.139 0.050
v -62.687 57.048 0.050
v 41.313 71.527 0.050
v 47.742 49.195 0.050
v 75.410 -47.891 0.050
v 76.331 -73.800 0.050
v 46.506 -74.815 0.050
l 1 2 3 4 5 6 7 8 1
o SD0417_T001_1hao
v -39.829 32.557 0.000
v 3.698 37.995 0.000
v 2.759 45.357 0.000
v -40.759 39.908 0.000
v -39.829 32.557 16.820
v 3.698 37.995 16.820
v 2.759 45.357 16.820
v -40.759 39.908 16.820
usemtl roof
f 13 14 15 16
usemtl teaching_building
f 12 11 10 9
f 9 10 14 13
f 10 11 15 14
f 11 12 16 15
f 12 9 13 16
o SD0417_T002_2hao
v -30.211 17.800 0.000
v 5.813 22.288 0.000
v 4.891 29.639 0.000
v -31.141 25.162 0.000
v -30.211 17.800 24.380
v 5.813 22.288 24.380
v 4.891 29.639 24.380
v -31.141 25.162 24.380
usemtl roof
f 21 22 23 24
usemtl teaching_building
f 20 19 18 17
f 17 18 22 21
f 18 19 23 22
f 19 20 24 23
f 20 17 21 24
