# school_id SD0427
# school_name 山东省烟台第十五中学
# boundary_source footprint_convex_hull_buffer_20m
# adjacent_block_merge_distance_m 2.0
mtllib ../campus_materials.mtl
o SD0427_campus_boundary
usemtl campus_boundary
v -1.317 -97.975 0.050
v -50.181 -91.689 0.050
v -80.530 -84.510 0.050
v -67.647 8.617 0.050
v -43.302 127.108 0.050
v 20.731 124.375 0.050
v 107.747 27.717 0.050
v 106.871 4.921 0.050
v -1.317 -97.975 0.050
l 1 2 3 4 5 6 7 8 9 1
o SD0427_T001_1hao
v 10.332 77.909 0.000
v 11.487 104.751 0.000
v -27.139 106.400 0.000
v -28.294 79.549 0.000
v 10.332 77.909 9.900
v 11.487 104.751 9.900
v -27.139 106.400 9.900
v -28.294 79.549 9.900
usemtl roof
f 14 15 16 17
usemtl teaching_building
f 13 12 11 10
f 10 11 15 14
f 11 12 16 15
f 12 13 17 16
f 13 10 14 17
o SD0427_T002_2hao
v 10.080 39.736 0.000
v 10.302 52.281 0.000
v -30.449 52.985 0.000
v -30.671 40.440 0.000
v 10.080 39.736 9.900
v 10.302 52.281 9.900
v -30.449 52.985 9.900
v -30.671 40.440 9.900
usemtl roof
f 22 23 24 25
usemtl teaching_building
f 21 20 19 18
f 18 19 23 22
f 19 20 24 23
f 20 21 25 24
f 21 18 22 25
o SD0427_T003_3hao
v -23.577 0.515 0.000
v -19.437 -5.600 0.000
v -20.615 -6.304 0.000
v -31.523 -4.543 0.000
v -32.945 -18.896 0.000
v -18.016 -21.128 0.000
v -17.179 -12.892 0.000
v -13.987 -12.076 0.000
v -8.530 -19.248 0.000
v -9.240 -23.482 0.000
v 6.222 -25.076 0.000
v 5.681 -27.716 0.000
v 18.181 -29.486 0.000
v 18.359 -26.780 0.000
v 27.075 -27.892 0.000
v 27.727 -23.482 0.000
v 35.658 -24.316 0.000
v 37.442 -9.723 0.000
v 29.148 -8.305 0.000
v 28.319 -13.596 0.000
v 14.812 -11.835 0.000
v 15.752 -1.486 0.000
v 26.897 -3.135 0.000
v 28.319 7.103 0.000
v -20.141 13.580 0.000
v -19.786 17.221 0.000
v -36.144 19.222 0.000
v -37.795 2.165 0.000
v -23.577 0.515 9.900
v -19.437 -5.600 9.900
v -20.615 -6.304 9.900
v -31.523 -4.543 9.900
v -32.945 -18.896 9.900
v -18.016 -21.128 9.900
v -17.179 -12.892 9.900
v -13.987 -12.076 9.900
v -8.530 -19.248 9.900
v -9.240 -23.482 9.900
v 6.222 -25.076 9.900
v 5.681 -27.716 9.900
v 18.181 -29.486 9.900
v 18.359 -26.780 9.900
v 27.075 -27.892 9.900
v 27.727 -23.482 9.900
v 35.658 -24.316 9.900
v 37.442 -9.723 9.900
v 29.148 -8.305 9.900
v 28.319 -13.596 9.900
v 14.812 -11.835 9.900
v 15.752 -1.486 9.900
v 26.897 -3.135 9.900
v 28.319 7.103 9.900
v -20.141 13.580 9.900
v -19.786 17.221 9.900
v -36.144 19.222 9.900
v -37.795 2.165 9.900
usemtl roof
f 54 55 56 57 58 59 60 61 62 63 64 65 66 67 68 69 70 71 72 73 74 75 76 77 78 79 80 81
usemtl teaching_building
f 53 52 51 50 49 48 47 46 45 44 43 42 41 40 39 38 37 36 35 34 33 32 31 30 29 28 27 26
f 26 27 55 54
f 27 28 56 55
f 28 29 57 56
f 29 30 58 57
f 30 31 59 58
f 31 32 60 59
f 32 33 61 60
f 33 34 62 61
f 34 35 63 62
f 35 36 64 63
f 36 37 65 64
f 37 38 66 65
f 38 39 67 66
f 39 40 68 67
f 40 41 69 68
f 41 42 70 69
f 42 43 71 70
f 43 44 72 71
f 44 45 73 72
f 45 46 74 73
f 46 47 75 74
f 47 48 76 75
f 48 49 77 76
f 49 50 78 77
f 50 51 79 78
f 51 52 80 79
f 52 53 81 80
f 53 26 54 81
o SD0427_T004_4hao
v -50.354 -70.309 0.000
v -40.046 4.166 0.000
v -47.925 5.231 0.000
v -58.226 -69.234 0.000
v -50.354 -70.309 9.900
v -40.046 4.166 9.900
v -47.925 5.231 9.900
v -58.226 -69.234 9.900
usemtl roof
f 86 87 88 89
usemtl teaching_building
f 85 84 83 82
f 82 83 87 86
f 83 84 88 87
f 84 85 89 88
f 85 82 86 89
o SD0427_T005_5hao
v -8.204 -76.924 0.000
v -7.463 -71.245 0.000
v -45.852 -66.306 0.000
v -46.593 -71.986 0.000
v -8.204 -76.924 9.900
v -7.463 -71.245 9.900
v -45.852 -66.306 9.900
v -46.593 -71.986 9.900
usemtl roof
f 94 95 96 97
usemtl teaching_building
f 93 92 91 90
f 90 91 95 94
f 91 92 96 95
f 92 93 97 96
f 93 90 94 97
