# school_id SD0453
# school_name 烟台市第二中学
# boundary_source footprint_convex_hull_buffer_20m
# adjacent_block_merge_distance_m 2.0
mtllib ../campus_materials.mtl
o SD0453_campus_boundary
usemtl campus_boundary
v -66.101 -68.929 0.050
v -74.331 19.764 0.050
v -59.363 70.081 0.050
v -11.179 74.237 0.050
v 65.069 48.856 0.050
v 66.111 -1.045 0.050
v 65.860 -35.544 0.050
v 65.215 -66.135 0.050
v -66.101 -68.929 0.050
l 1 2 3 4 5 6 7 8 9 1
o SD0453_T001_1hao
v 2.924 15.355 0.000
v -4.421 15.201 0.000
v -4.059 -2.209 0.000
v 46.109 -1.181 0.000
v 45.368 34.335 0.000
v 11.080 33.628 0.000
v 11.248 25.735 0.000
v 2.712 25.558 0.000
v 2.924 15.355 14.500
v -4.421 15.201 14.500
v -4.059 -2.209 14.500
v 46.109 -1.181 14.500
v 45.368 34.335 14.500
v 11.080 33.628 14.500
v 11.248 25.735 14.500
v 2.712 25.558 14.500
usemtl roof
f 18 19 20 21 22 23 24 25
usemtl teaching_building
f 17 16 15 14 13 12 11 10
f 10 11 19 18
f 11 12 20 19
f 12 13 21 20
f 13 14 22 21
f 14 15 23 22
f 15 16 24 23
f 16 17 25 24
f 17 10 18 25
o SD0453_T002_2hao
v -54.060 17.765 0.000
v -35.027 19.059 0.000
v -30.410 -35.725 0.000
v 1.811 -34.896 0.000
v 8.211 -30.673 0.000
v 31.411 -30.198 0.000
v 37.096 -35.371 0.000
v 45.862 -35.261 0.000
v 45.624 -46.547 0.000
v -47.907 -48.537 0.000
v -54.060 17.765 17.040
v -35.027 19.059 17.040
v -30.410 -35.725 17.040
v 1.811 -34.896 17.040
v 8.211 -30.673 17.040
v 31.411 -30.198 17.040
v 37.096 -35.371 17.040
v 45.862 -35.261 17.040
v 45.624 -46.547 17.040
v -47.907 -48.537 17.040
usemtl roof
f 36 37 38 39 40 41 42 43 44 45
usemtl teaching_building
f 35 34 33 32 31 30 29 28 27 26
f 26 27 37 36
f 27 28 38 37
f 28 29 39 38
f 29 30 40 39
f 30 31 41 40
f 31 32 42 41
f 32 33 43 42
f 33 34 44 43
f 34 35 45 44
f 35 26 36 45
o SD0453_T002_2hao_seg02
v -44.076 51.325 0.000
v -13.576 53.956 0.000
v -10.892 23.226 0.000
v -41.392 20.595 0.000
v -44.076 51.325 17.040
v -13.576 53.956 17.040
v -10.892 23.226 17.040
v -41.392 20.595 17.040
usemtl roof
f 50 51 52 53
usemtl teaching_building
f 49 48 47 46
f 46 47 51 50
f 47 48 52 51
f 48 49 53 52
f 49 46 50 53
