# school_id SD0441
# school_name 武宁中学
# boundary_source footprint_convex_hull_buffer_20m
# adjacent_block_merge_distance_m 2.0
mtllib ../campus_materials.mtl
o SD0441_campus_boundary
usemtl campus_boundary
v -96.866 -72.492 0.050
v -104.649 -28.690 0.050
v -109.043 -3.167 0.050
v -112.166 21.594 0.050
v -32.747 61.906 0.050
v 24.519 69.555 0.050
v 73.563 75.408 0.050
v 80.144 31.842 0.050
v 81.364 23.210 0.050
v 90.496 -45.786 0.050
v 41.971 -52.897 0.050
v -96.866 -72.492 0.050
l 1 2 3 4 5 6 7 8 9 10 11 12 1
o SD0441_T001_1hao
v 28.088 40.892 0.000
v 57.758 44.432 0.000
v 56.683 53.252 0.000
v 27.028 49.713 0.000
v 28.088 40.892 9.900
v 57.758 44.432 9.900
v 56.683 53.252 9.900
v 27.028 49.713 9.900
usemtl roof
f 17 18 19 20
usemtl teaching_building
f 16 15 14 13
f 13 14 18 17
f 14 15 19 18
f 15 16 20 19
f 16 13 17 20
o SD0441_T002_2hao
v -25.638 33.971 0.000
v 11.136 38.576 0.000
v 10.061 47.128 0.000
v -26.728 42.532 0.000
v -25.638 33.971 9.900
v 11.136 38.576 9.900
v 10.061 47.128 9.900
v -26.728 42.532 9.900
usemtl roof
f 25 26 27 28
usemtl teaching_building
f 24 23 22 21
f 21 22 26 25
f 22 23 27 26
f 23 24 28 27
f 24 21 25 28
o SD0441_T003_3hao
v 31.181 16.256 0.000
v 61.548 20.499 0.000
v 60.354 28.949 0.000
v 29.987 24.715 0.000
v 31.181 16.256 9.900
v 61.548 20.499 9.900
v 60.354 28.949 9.900
v 29.987 24.715 9.900
usemtl roof
f 33 34 35 36
usemtl teaching_building
f 32 31 30 29
f 29 30 34 33
f 30 31 35 34
f 31 32 36 35
f 32 29 33 36
o SD0441_T004_4hao
v -27.381 7.491 0.000
v 14.614 13.856 0.000
v 13.376 21.917 0.000
v -28.619 15.552 0.000
v -27.381 7.491 9.900
v 14.614 13.856 9.900
v 13.376 21.917 9.900
v -28.619 15.552 9.900
usemtl roof
f 41 42 43 44
usemtl teaching_building
f 40 39 38 37
f 37 38 42 41
f 38 39 43 42
f 39 40 44 43
f 40 37 41 44
o SD0441_T005_5hao
v -89.257 -0.218 0.000
v -37.770 6.138 0.000
v -39.060 16.497 0.000
v -90.562 10.131 0.000
v -89.257 -0.218 9.900
v -37.770 6.138 9.900
v -39.060 16.497 9.900
v -90.562 10.131 9.900
usemtl roof
f 49 50 51 52
usemtl teaching_building
f 48 47 46 45
f 45 46 50 49
f 46 47 51 50
f 47 48 52 51
f 48 45 49 52
o SD0441_T006_6hao
v -20.551 -15.543 0.000
v 17.706 -10.206 0.000
v 16.668 -2.886 0.000
v -21.589 -8.232 0.000
v -20.551 -15.543 9.900
v 17.706 -10.206 9.900
v 16.668 -2.886 9.900
v -21.589 -8.232 9.900
usemtl roof
f 57 58 59 60
usemtl teaching_building
f 56 55 54 53
f 53 54 58 57
f 54 55 59 58
f 55 56 60 59
f 56 53 57 60
o SD0441_T007_7hao
v -84.948 -25.244 0.000
v -29.249 -17.072 0.000
v -30.310 -9.891 0.000
v -86.023 -18.054 0.000
v -84.948 -25.244 9.900
v -29.249 -17.072 9.900
v -30.310 -9.891 9.900
v -86.023 -18.054 9.900
usemtl roof
f 65 66 67 68
usemtl teaching_building
f 64 63 62 61
f 61 62 66 65
f 62 63 67 66
f 63 64 68 67
f 64 61 65 68
o SD0441_T008_8hao
v -16.939 -39.883 0.000
v 21.985 -34.555 0.000
v 21.029 -27.718 0.000
v -17.896 -33.054 0.000
v -16.939 -39.883 9.900
v 21.985 -34.555 9.900
v 21.029 -27.718 9.900
v -17.896 -33.054 9.900
usemtl roof
f 73 74 75 76
usemtl teaching_building
f 72 71 70 69
f 69 70 74 73
f 70 71 75 74
f 71 72 76 75
f 72 69 73 76
o SD0441_T009_9hao
v -80.551 -49.991 0.000
v -25.690 -42.153 0.000
v -26.787 -34.546 0.000
v -81.656 -42.385 0.000
v -80.551 -49.991 9.900
v -25.690 -42.153 9.900
v -26.787 -34.546 9.900
v -81.656 -42.385 9.900
usemtl roof
f 81 82 83 84
usemtl teaching_building
f 80 79 78 77
f 77 78 82 81
f 78 79 83 82
f 79 80 84 83
f 80 77 81 84
