# school_id SD0489
# school_name 莱州市城港路街道中心小学
# boundary_source footprint_convex_hull_buffer_20m
# adjacent_block_merge_distance_m 2.0
mtllib ../campus_materials.mtl
o SD0489_campus_boundary
usemtl campus_boundary
v 26.780 -98.100 0.050
v -19.111 -97.567 0.050
v -66.363 -74.980 0.050
v -66.786 -12.576 0.050
v -66.427 2.615 0.050
v -63.860 52.973 0.050
v -10.095 105.626 0.050
v 76.489 104.454 0.050
v 77.519 35.329 0.050
v 77.380 25.354 0.050
v 76.139 -21.677 0.050
v 26.780 -98.100 0.050
l 1 2 3 4 5 6 7 8 9 10 11 12 1
o SD0489_T001_1hao
v -2.179 75.942 0.000
v 56.648 75.158 0.000
v 56.781 84.719 0.000
v -2.046 85.515 0.000
v -2.179 75.942 7.740
v 56.648 75.158 7.740
v 56.781 84.719 7.740
v -2.046 85.515 7.740
usemtl roof
f 17 18 19 20
usemtl teaching_building
f 16 15 14 13
f 13 14 18 17
f 14 15 19 18
f 15 16 20 19
f 16 13 17 20
o SD0489_T002_2hao
v -1.434 26.542 0.000
v 57.384 25.757 0.000
v 57.517 35.319 0.000
v -1.310 36.115 0.000
v -1.434 26.542 10.520
v 57.384 25.757 10.520
v 57.517 35.319 10.520
v -1.310 36.115 10.520
usemtl roof
f 25 26 27 28
usemtl teaching_building
f 24 23 22 21
f 21 22 26 25
f 22 23 27 26
f 23 24 28 27
f 24 21 25 28
o SD0489_T003_3hao
v -44.674 14.946 0.000
v -10.894 14.504 0.000
v -10.504 43.698 0.000
v -44.284 44.151 0.000
v -44.674 14.946 18.840
v -10.894 14.504 18.840
v -10.504 43.698 18.840
v -44.284 44.151 18.840
usemtl roof
f 33 34 35 36
usemtl teaching_building
f 32 31 30 29
f 29 30 34 33
f 30 31 35 34
f 31 32 36 35
f 32 29 33 36
o SD0489_T004_4hao
v -46.784 -12.744 0.000
v -15.221 -13.473 0.000
v -14.884 1.129 0.000
v -46.439 1.870 0.000
v -46.784 -12.744 11.380
v -15.221 -13.473 11.380
v -14.884 1.129 11.380
v -46.439 1.870 11.380
usemtl roof
f 41 42 43 44
usemtl teaching_building
f 40 39 38 37
f 37 38 42 41
f 38 39 43 42
f 39 40 44 43
f 40 37 41 44
o SD0489_T005_5hao
v -5.379 -14.137 0.000
v 56.294 -15.540 0.000
v 56.640 -0.551 0.000
v 13.887 0.410 0.000
v 13.825 -2.132 0.000
v -5.087 -1.701 0.000
v -5.379 -14.137 11.360
v 56.294 -15.540 11.360
v 56.640 -0.551 11.360
v 13.887 0.410 11.360
v 13.825 -2.132 11.360
v -5.087 -1.701 11.360
usemtl roof
f 51 52 53 54 55 56
usemtl teaching_building
f 50 49 48 47 46 45
f 45 46 52 51
f 46 47 53 52
f 47 48 54 53
f 48 49 55 54
f 49 50 56 55
f 50 45 51 56
o SD0489_T006_6hao
v -46.102 -47.730 0.000
v -14.547 -48.459 0.000
v -14.893 -63.062 0.000
v -46.448 -62.332 0.000
v -46.102 -47.730 9.180
v -14.547 -48.459 9.180
v -14.893 -63.062 9.180
v -46.448 -62.332 9.180
usemtl roof
f 61 62 63 64
usemtl teaching_building
f 60 59 58 57
f 57 58 62 61
f 58 59 63 62
f 59 60 64 63
f 60 57 61 64
o SD0489_T006_6hao_seg02
v -13.722 -63.979 0.000
v 16.352 -64.344 0.000
v 15.970 -77.973 0.000
v -14.467 -77.620 0.000
v -13.722 -63.979 9.180
v 16.352 -64.344 9.180
v 15.970 -77.973 9.180
v -14.467 -77.620 9.180
usemtl roof
f 69 70 71 72
usemtl teaching_building
f 68 67 66 65
f 65 66 70 69
f 66 67 71 70
f 67 68 72 71
f 68 65 69 72
