# school_id SD0473
# school_name 烟台艺术学校
# boundary_source footprint_convex_hull_buffer_20m
# adjacent_block_merge_distance_m 2.0
mtllib ../campus_materials.mtl
o SD0473_campus_boundary
usemtl campus_boundary
v 26.961 -122.415 0.050
v -19.904 -115.550 0.050
v -89.846 -36.316 0.050
v -84.823 -7.745 0.050
v -68.599 73.188 0.050
v -52.270 110.526 0.050
v -24.855 105.458 0.050
v 24.070 91.505 0.050
v 40.971 65.154 0.050
v 76.375 -0.753 0.050
v 76.030 -37.827 0.050
v 74.267 -54.105 0.050
v 56.476 -103.406 0.050
v 26.961 -122.415 0.050
l 1 2 3 4 5 6 7 8 9 10 11 12 13 14 1
o SD0473_T001_1hao
v 9.740 64.339 0.000
v 11.316 74.345 0.000
v -22.071 79.515 0.000
v -23.647 69.509 0.000
v 9.740 64.339 9.900
v 11.316 74.345 9.900
v -22.071 79.515 9.900
v -23.647 69.509 9.900
usemtl roof
f 19 20 21 22
usemtl teaching_building
f 18 17 16 15
f 15 16 20 19
f 16 17 21 20
f 17 18 22 21
f 18 15 19 22
o SD0473_T002_2hao
v -51.676 50.589 0.000
v -49.412 67.146 0.000
v -21.471 63.375 0.000
v -23.736 46.827 0.000
v -51.676 50.589 9.900
v -49.412 67.146 9.900
v -21.471 63.375 9.900
v -23.736 46.827 9.900
usemtl roof
f 27 28 29 30
usemtl teaching_building
f 26 25 24 23
f 23 24 28 27
f 24 25 29 28
f 25 26 30 29
f 26 23 27 30
o SD0473_T002_2hao_seg02
v -23.373 49.458 0.000
v -21.745 60.762 0.000
v -1.500 57.881 0.000
v -3.128 46.595 0.000
v -23.373 49.458 9.900
v -21.745 60.762 9.900
v -1.500 57.881 9.900
v -3.128 46.595 9.900
usemtl roof
f 35 36 37 38
usemtl teaching_building
f 34 33 32 31
f 31 32 36 35
f 32 33 37 36
f 33 34 38 37
f 34 31 35 38
o SD0473_T003_3hao
v 20.788 34.838 0.000
v 23.718 55.008 0.000
v 0.750 58.307 0.000
v -2.180 38.127 0.000
v 20.788 34.838 9.900
v 23.718 55.008 9.900
v 0.750 58.307 9.900
v -2.180 38.127 9.900
usemtl roof
f 43 44 45 46
usemtl teaching_building
f 42 41 40 39
f 39 40 44 43
f 40 41 45 44
f 41 42 46 45
f 42 39 43 46
o SD0473_T004_4hao
v 54.641 -19.948 0.000
v 56.328 -5.698 0.000
v 24.133 -1.936 0.000
v 22.438 -16.177 0.000
v 54.641 -19.948 9.900
v 56.328 -5.698 9.900
v 24.133 -1.936 9.900
v 22.438 -16.177 9.900
usemtl roof
f 51 52 53 54
usemtl teaching_building
f 50 49 48 47
f 47 48 52 51
f 48 49 53 52
f 49 50 54 53
f 50 47 51 54
o SD0473_T005_5hao
v 7.291 -43.455 0.000
v 10.606 -24.609 0.000
v -65.166 -11.443 0.000
v -68.481 -30.298 0.000
v 7.291 -43.455 9.900
v 10.606 -24.609 9.900
v -65.166 -11.443 9.900
v -68.481 -30.298 9.900
usemtl roof
f 59 60 61 62
usemtl teaching_building
f 58 57 56 55
f 55 56 60 59
f 56 57 61 60
f 57 58 62 61
f 58 55 59 62
o SD0473_T006_6hao
v 54.641 -49.570 0.000
v 56.040 -36.654 0.000
v 16.259 -32.419 0.000
v 14.861 -45.335 0.000
v 54.641 -49.570 9.900
v 56.040 -36.654 9.900
v 16.259 -32.419 9.900
v 14.861 -45.335 9.900
usemtl roof
f 67 68 69 70
usemtl teaching_building
f 66 65 64 63
f 63 64 68 67
f 64 65 69 68
f 65 66 70 69
f 66 63 67 70
o SD0473_T007_7hao
v 13.203 -86.492 0.000
v 17.125 -61.448 0.000
v -7.257 -57.677 0.000
v -11.178 -82.721 0.000
v 13.203 -86.492 9.900
v 17.125 -61.448 9.900
v -7.257 -57.677 9.900
v -11.178 -82.721 9.900
usemtl roof
f 75 76 77 78
usemtl teaching_building
f 74 73 72 71
f 71 72 76 75
f 72 73 77 76
f 73 74 78 77
f 74 71 75 78
o SD0473_T008_8hao
v 39.960 -90.254 0.000
v 44.008 -60.920 0.000
v 21.513 -57.871 0.000
v 17.466 -87.187 0.000
v 39.960 -90.254 9.900
v 44.008 -60.920 9.900
v 21.513 -57.871 9.900
v 17.466 -87.187 9.900
usemtl roof
f 83 84 85 86
usemtl teaching_building
f 82 81 80 79
f 79 80 84 83
f 80 81 85 84
f 81 82 86 85
f 82 79 83 86
