# school_id SD0412
# school_name 东方外国语实验学校
# boundary_source footprint_convex_hull_buffer_20m
# adjacent_block_merge_distance_m 2.0
mtllib ../campus_materials.mtl
o SD0412_campus_boundary
usemtl campus_boundary
v -27.131 -55.655 0.050
v -36.404 -23.230 0.050
v -51.080 33.582 0.050
v 27.116 55.658 0.050
v 36.409 23.236 0.050
v 51.074 -33.594 0.050
v -27.131 -55.655 0.050
l 1 2 3 4 5 6 7 1
o SD0412_T001_1hao
v -23.093 6.640 0.000
v 17.110 17.981 0.000
v 13.379 30.998 0.000
v -26.824 19.648 0.000
v -23.093 6.640 20.000
v 17.110 17.981 20.000
v 13.379 30.998 20.000
v -26.824 19.648 20.000
usemtl roof
f 12 13 14 15
usemtl teaching_building
f 11 10 9 8
f 8 9 13 12
f 9 10 14 13
f 10 11 15 14
f 11 8 12 15
o SD0412_T002_2hao
v -13.381 -30.996 0.000
v 26.822 -19.655 0.000
v 23.091 -6.637 0.000
v -17.104 -17.978 0.000
v -13.381 -30.996 20.000
v 26.822 -19.655 20.000
v 23.091 -6.637 20.000
v -17.104 -17.978 20.000
usemtl roof
f 20 21 22 23
usemtl teaching_building
f 19 18 17 16
f 16 17 21 20
f 17 18 22 21
f 18 19 23 22
f 19 16 20 23
