# school_id SD0463
# school_name 烟台爱华双语学校
# boundary_source footprint_convex_hull_buffer_20m
# adjacent_block_merge_distance_m 2.0
mtllib ../campus_materials.mtl
o SD0463_campus_boundary
usemtl campus_boundary
v -25.593 -177.332 0.050
v -196.240 -159.163 0.050
v -200.340 -61.788 0.050
v -201.079 -26.461 0.050
v -177.568 114.112 0.050
v -169.963 156.720 0.050
v -48.667 158.904 0.050
v 167.431 152.639 0.050
v 175.207 -76.995 0.050
v 175.441 -117.750 0.050
v 172.919 -173.116 0.050
v 31.803 -176.374 0.050
v -25.593 -177.332 0.050
l 1 2 3 4 5 6 7 8 9 10 11 12 13 1
o SD0463_T001_1hao
v -152.771 115.125 0.000
v -48.370 117.005 0.000
v -48.777 138.899 0.000
v -153.163 137.019 0.000
v -152.771 115.125 9.900
v -48.370 117.005 9.900
v -48.777 138.899 9.900
v -153.163 137.019 9.900
usemtl roof
f 18 19 20 21
usemtl teaching_building
f 17 16 15 14
f 14 15 19 18
f 15 16 20 19
f 16 17 21 20
f 17 14 18 21
o SD0463_T002_2hao
v 147.863 109.714 0.000
v 148.078 133.192 0.000
v 41.554 134.146 0.000
v 41.339 110.659 0.000
v 147.863 109.714 9.900
v 148.078 133.192 9.900
v 41.554 134.146 9.900
v 41.339 110.659 9.900
usemtl roof
f 26 27 28 29
usemtl teaching_building
f 25 24 23 22
f 22 23 27 26
f 23 24 28 27
f 24 25 29 28
f 25 22 26 29
o SD0463_T003_3hao
v -70.392 72.578 0.000
v -48.629 72.967 0.000
v -49.324 110.890 0.000
v -71.080 110.501 0.000
v -70.392 72.578 9.900
v -48.629 72.967 9.900
v -49.324 110.890 9.900
v -71.080 110.501 9.900
usemtl roof
f 34 35 36 37
usemtl teaching_building
f 33 32 31 30
f 30 31 35 34
f 31 32 36 35
f 32 33 37 36
f 33 30 34 37
o SD0463_T004_4hao
v -157.032 65.045 0.000
v -133.707 65.472 0.000
v -134.543 111.122 0.000
v -157.860 110.705 0.000
v -157.032 65.045 9.900
v -133.707 65.472 9.900
v -134.543 111.122 9.900
v -157.860 110.705 9.900
usemtl roof
f 42 43 44 45
usemtl teaching_building
f 41 40 39 38
f 38 39 43 42
f 39 40 44 43
f 40 41 45 44
f 41 38 42 45
o SD0463_T005_5hao
v 61.941 71.160 0.000
v 62.178 103.839 0.000
v 39.209 104.006 0.000
v 38.965 71.327 0.000
v 61.941 71.160 9.900
v 62.178 103.839 9.900
v 39.209 104.006 9.900
v 38.965 71.327 9.900
usemtl roof
f 50 51 52 53
usemtl teaching_building
f 49 48 47 46
f 46 47 51 50
f 47 48 52 51
f 48 49 53 52
f 49 46 50 53
o SD0463_T006_6hao
v 146.687 64.814 0.000
v 147.161 105.007 0.000
v 125.597 105.266 0.000
v 125.131 65.073 0.000
v 146.687 64.814 9.900
v 147.161 105.007 9.900
v 125.597 105.266 9.900
v 125.131 65.073 9.900
usemtl roof
f 58 59 60 61
usemtl teaching_building
f 57 56 55 54
f 54 55 59 58
f 55 56 60 59
f 56 57 61 60
f 57 54 58 61
o SD0463_T007_7hao
v -23.285 43.096 0.000
v 14.124 43.429 0.000
v 13.406 120.990 0.000
v -24.003 120.665 0.000
v -23.285 43.096 9.900
v 14.124 43.429 9.900
v 13.406 120.990 9.900
v -24.003 120.665 9.900
usemtl roof
f 66 67 68 69
usemtl teaching_building
f 65 64 63 62
f 62 63 67 66
f 63 64 68 67
f 64 65 69 68
f 65 62 66 69
o SD0463_T008_8hao
v 147.863 28.614 0.000
v 148.130 53.297 0.000
v 102.679 53.760 0.000
v 102.413 29.086 0.000
v 147.863 28.614 9.900
v 148.130 53.297 9.900
v 102.679 53.760 9.900
v 102.413 29.086 9.900
usemtl roof
f 74 75 76 77
usemtl teaching_building
f 73 72 71 70
f 70 71 75 74
f 71 72 76 75
f 72 73 77 76
f 73 70 74 77
o SD0463_T009_9hao
v 38.269 28.382 0.000
v 89.874 30.032 0.000
v 89.105 53.593 0.000
v 37.500 51.953 0.000
v 38.269 28.382 9.900
v 89.874 30.032 9.900
v 89.105 53.593 9.900
v 37.500 51.953 9.900
usemtl roof
f 82 83 84 85
usemtl teaching_building
f 81 80 79 78
f 78 79 83 82
f 79 80 84 83
f 80 81 85 84
f 81 78 82 85
o SD0463_T010_10hao
v -164.363 28.614 0.000
v -110.916 29.578 0.000
v -111.337 52.834 0.000
v -164.784 51.870 0.000
v -164.363 28.614 9.900
v -110.916 29.578 9.900
v -111.337 52.834 9.900
v -164.784 51.870 9.900
usemtl roof
f 90 91 92 93
usemtl teaching_building
f 89 88 87 86
f 86 87 91 90
f 87 88 92 91
f 88 89 93 92
f 89 86 90 93
o SD0463_T011_11hao
v -99.746 28.382 0.000
v -47.956 29.318 0.000
v -48.370 52.361 0.000
v -100.160 51.425 0.000
v -99.746 28.382 9.900
v -47.956 29.318 9.900
v -48.370 52.361 9.900
v -100.160 51.425 9.900
usemtl roof
f 98 99 100 101
usemtl teaching_building
f 97 96 95 94
f 94 95 99 98
f 95 96 100 99
f 96 97 101 100
f 97 94 98 101
o SD0463_T012_12hao
v 63.125 -21.447 0.000
v 129.643 -21.215 0.000
v 129.547 6.303 0.000
v 63.029 6.071 0.000
v 63.125 -21.447 9.900
v 129.643 -21.215 9.900
v 129.547 6.303 9.900
v 63.029 6.071 9.900
usemtl roof
f 106 107 108 109
usemtl teaching_building
f 105 104 103 102
f 102 103 107 106
f 103 104 108 107
f 104 105 109 108
f 105 102 106 109
o SD0463_T013_13hao
v 64.065 -65.874 0.000
v 153.552 -64.938 0.000
v 153.300 -41.664 0.000
v 63.820 -42.609 0.000
v 64.065 -65.874 9.900
v 153.552 -64.938 9.900
v 153.300 -41.664 9.900
v 63.820 -42.609 9.900
usemtl roof
f 114 115 116 117
usemtl teaching_building
f 113 112 111 110
f 110 111 115 114
f 111 112 116 115
f 112 113 117 116
f 113 110 114 117
o SD0463_T014_14hao
v -180.349 -61.158 0.000
v -172.019 -60.991 0.000
v -171.154 -102.352 0.000
v -177.789 -102.500 0.000
v -176.983 -141.100 0.000
v -131.200 -140.154 0.000
v -131.976 -103.028 0.000
v -141.194 -103.214 0.000
v -142.081 -60.926 0.000
v -132.768 -60.732 0.000
v -133.478 -26.941 0.000
v -181.044 -27.914 0.000
v -180.349 -61.158 9.900
v -172.019 -60.991 9.900
v -171.154 -102.352 9.900
v -177.789 -102.500 9.900
v -176.983 -141.100 9.900
v -131.200 -140.154 9.900
v -131.976 -103.028 9.900
v -141.194 -103.214 9.900
v -142.081 -60.926 9.900
v -132.768 -60.732 9.900
v -133.478 -26.941 9.900
v -181.044 -27.914 9.900
usemtl roof
f 130 131 132 133 134 135 136 137 138 139 140 141
usemtl teaching_building
f 129 128 127 126 125 124 123 122 121 120 119 118
f 118 119 131 130
f 119 120 132 131
f 120 121 133 132
f 121 122 134 133
f 122 123 135 134
f 123 124 136 135
f 124 125 137 136
f 125 126 138 137
f 126 127 139 138
f 127 128 140 139
f 128 129 141 140
f 129 118 130 141
o SD0463_T015_15hao
v 134.370 -117.473 0.000
v 155.438 -117.352 0.000
v 155.209 -77.391 0.000
v 134.134 -77.511 0.000
v 134.370 -117.473 9.900
v 155.438 -117.352 9.900
v 155.209 -77.391 9.900
v 134.134 -77.511 9.900
usemtl roof
f 146 147 148 149
usemtl teaching_building
f 145 144 143 142
f 142 143 147 146
f 143 144 148 147
f 144 145 149 148
f 145 142 146 149
o SD0463_T016_16hao
v 87.973 -154.497 0.000
v 153.789 -153.552 0.000
v 153.419 -128.406 0.000
v 87.611 -129.351 0.000
v 87.973 -154.497 9.900
v 153.789 -153.552 9.900
v 153.419 -128.406 9.900
v 87.611 -129.351 9.900
usemtl roof
f 154 155 156 157
usemtl teaching_building
f 153 152 151 150
f 150 151 155 154
f 151 152 156 155
f 152 153 157 156
f 153 150 154 157
o SD0463_T017_17hao
v 31.405 -156.378 0.000
v 76.381 -154.729 0.000
v 75.856 -140.599 0.000
v 30.872 -142.248 0.000
v 31.405 -156.378 9.900
v 76.381 -154.729 9.900
v 75.856 -140.599 9.900
v 30.872 -142.248 9.900
usemtl roof
f 162 163 164 165
usemtl teaching_building
f 161 160 159 158
f 158 159 163 162
f 159 160 164 163
f 160 161 165 164
f 161 158 162 165
o SD0463_T018_18hao
v -24.698 -157.314 0.000
v 18.614 -155.906 0.000
v 18.200 -143.156 0.000
v -25.120 -144.565 0.000
v -24.698 -157.314 9.900
v 18.614 -155.906 9.900
v 18.200 -143.156 9.900
v -25.120 -144.565 9.900
usemtl roof
f 170 171 172 173
usemtl teaching_building
f 169 168 167 166
f 166 167 171 170
f 167 168 172 171
f 168 169 173 172
f 169 166 170 173
