# school_id SD0405
# school_name 中国石油大学附属中学
# boundary_source footprint_convex_hull_buffer_20m
# adjacent_block_merge_distance_m 2.0
mtllib ../campus_materials.mtl
o SD0405_campus_boundary
usemtl campus_boundary
v -19.910 -34.181 0.050
v -46.509 -33.855 0.050
v -52.057 3.287 0.050
v -49.989 29.103 0.050
v 27.239 37.587 0.050
v 62.765 35.307 0.050
v 64.903 -30.042 0.050
v -19.910 -34.181 0.050
l 1 2 3 4 5 6 7 8 1
o SD0405_T001_1hao
v -28.404 3.677 0.000
v -31.938 3.975 0.000
v -31.373 11.028 0.000
v -19.648 10.807 0.000
v -19.541 0.958 0.000
v 27.924 0.615 0.000
v 27.694 17.517 0.000
v 43.369 16.511 0.000
v 44.270 -11.025 0.000
v 28.375 -10.572 0.000
v 28.331 -7.366 0.000
v -19.541 -7.885 0.000
v -20.275 -14.175 0.000
v -29.243 -14.065 0.000
v -28.404 3.677 17.900
v -31.938 3.975 17.900
v -31.373 11.028 17.900
v -19.648 10.807 17.900
v -19.541 0.958 17.900
v 27.924 0.615 17.900
v 27.694 17.517 17.900
v 43.369 16.511 17.900
v 44.270 -11.025 17.900
v 28.375 -10.572 17.900
v 28.331 -7.366 17.900
v -19.541 -7.885 17.900
v -20.275 -14.175 17.900
v -29.243 -14.065 17.900
usemtl roof
f 23 24 25 26 27 28 29 30 31 32 33 34 35 36
usemtl teaching_building
f 22 21 20 19 18 17 16 15 14 13 12 11 10 9
f 9 10 24 23
f 10 11 25 24
f 11 12 26 25
f 12 13 27 26
f 13 14 28 27
f 14 15 29 28
f 15 16 30 29
f 16 17 31 30
f 17 18 32 31
f 18 19 33 32
f 19 20 34 33
f 20 21 35 34
f 21 22 36 35
f 22 9 23 36
