# school_id SD0424
# school_name 山东省烟台第三中学
# boundary_source footprint_convex_hull_buffer_20m
# adjacent_block_merge_distance_m 2.0
mtllib ../campus_materials.mtl
o SD0424_campus_boundary
usemtl campus_boundary
v 32.216 -196.987 0.050
v -101.907 -149.999 0.050
v -189.201 4.985 0.050
v -189.268 22.315 0.050
v -187.559 59.487 0.050
v -161.133 170.839 0.050
v -91.963 170.078 0.050
v -14.809 168.563 0.050
v 94.193 159.509 0.050
v 104.690 151.811 0.050
v 110.494 142.782 0.050
v 112.248 132.721 0.050
v 106.575 -90.065 0.050
v 100.420 -196.987 0.050
v 32.216 -196.987 0.050
l 1 2 3 4 5 6 7 8 9 10 11 12 13 14 15 1
o SD0424_T001_1hao
v -16.071 127.963 0.000
v -15.834 148.579 0.000
v -68.938 149.172 0.000
v -69.168 128.547 0.000
v -16.071 127.963 6.600
v -15.834 148.579 6.600
v -68.938 149.172 6.600
v -69.168 128.547 6.600
usemtl roof
f 20 21 22 23
usemtl teaching_building
f 19 18 17 16
f 16 17 21 20
f 17 18 22 21
f 18 19 23 22
f 19 16 20 23
o SD0424_T002_2hao
v 23.109 87.659 0.000
v 30.767 87.604 0.000
v 30.767 85.491 0.000
v 41.255 85.491 0.000
v 41.218 87.585 0.000
v 60.563 87.075 0.000
v 88.515 90.170 0.000
v 88.404 124.387 0.000
v 90.352 126.268 0.000
v 92.204 131.243 0.000
v 91.485 135.366 0.000
v 89.871 137.877 0.000
v 86.915 140.045 0.000
v 80.190 140.435 0.000
v 76.828 138.461 0.000
v 74.739 135.607 0.000
v 30.256 135.987 0.000
v 30.197 138.526 0.000
v 22.391 138.350 0.000
v 23.109 87.659 9.900
v 30.767 87.604 9.900
v 30.767 85.491 9.900
v 41.255 85.491 9.900
v 41.218 87.585 9.900
v 60.563 87.075 9.900
v 88.515 90.170 9.900
v 88.404 124.387 9.900
v 90.352 126.268 9.900
v 92.204 131.243 9.900
v 91.485 135.366 9.900
v 89.871 137.877 9.900
v 86.915 140.045 9.900
v 80.190 140.435 9.900
v 76.828 138.461 9.900
v 74.739 135.607 9.900
v 30.256 135.987 9.900
v 30.197 138.526 9.900
v 22.391 138.350 9.900
usemtl roof
f 43 44 45 46 47 48 49 50 51 52 53 54 55 56 57 58 59 60 61
usemtl teaching_building
f 42 41 40 39 38 37 36 35 34 33 32 31 30 29 28 27 26 25 24
f 24 25 44 43
f 25 26 45 44
f 26 27 46 45
f 27 28 47 46
f 28 29 48 47
f 29 30 49 48
f 30 31 50 49
f 31 32 51 50
f 32 33 52 51
f 33 34 53 52
f 34 35 54 53
f 35 36 55 54
f 36 37 56 55
f 37 38 57 56
f 38 39 58 57
f 39 40 59 58
f 40 41 60 59
f 41 42 61 60
f 42 24 43 61
o SD0424_T003_3hao
v -16.686 79.533 0.000
v -16.441 100.140 0.000
v -69.553 100.733 0.000
v -69.783 80.108 0.000
v -16.686 79.533 6.600
v -16.441 100.140 6.600
v -69.553 100.733 6.600
v -69.783 80.108 6.600
usemtl roof
f 66 67 68 69
usemtl teaching_building
f 65 64 63 62
f 62 63 67 66
f 63 64 68 67
f 64 65 69 68
f 65 62 66 69
o SD0424_T004_4hao
v -169.221 10.266 0.000
v -99.964 10.553 0.000
v -100.023 23.886 0.000
v -102.741 23.876 0.000
v -102.845 50.023 0.000
v -100.497 50.023 0.000
v -100.512 56.231 0.000
v -98.320 56.231 0.000
v -98.349 61.346 0.000
v -111.681 61.308 0.000
v -111.673 59.882 0.000
v -153.261 59.715 0.000
v -153.275 61.540 0.000
v -163.941 61.503 0.000
v -163.918 56.722 0.000
v -167.666 56.694 0.000
v -167.644 49.699 0.000
v -165.837 49.699 0.000
v -165.726 21.921 0.000
v -169.266 21.894 0.000
v -169.221 10.266 6.600
v -99.964 10.553 6.600
v -100.023 23.886 6.600
v -102.741 23.876 6.600
v -102.845 50.023 6.600
v -100.497 50.023 6.600
v -100.512 56.231 6.600
v -98.320 56.231 6.600
v -98.349 61.346 6.600
v -111.681 61.308 6.600
v -111.673 59.882 6.600
v -153.261 59.715 6.600
v -153.275 61.540 6.600
v -163.941 61.503 6.600
v -163.918 56.722 6.600
v -167.666 56.694 6.600
v -167.644 49.699 6.600
v -165.837 49.699 6.600
v -165.726 21.921 6.600
v -169.266 21.894 6.600
usemtl roof
f 90 91 92 93 94 95 96 97 98 99 100 101 102 103 104 105 106 107 108 109
usemtl teaching_building
f 89 88 87 86 85 84 83 82 81 80 79 78 77 76 75 74 73 72 71 70
f 70 71 91 90
f 71 72 92 91
f 72 73 93 92
f 73 74 94 93
f 74 75 95 94
f 75 76 96 95
f 76 77 97 96
f 77 78 98 97
f 78 79 99 98
f 79 80 100 99
f 80 81 101 100
f 81 82 102 101
f 82 83 103 102
f 83 84 104 103
f 84 85 105 104
f 85 86 106 105
f 86 87 107 106
f 87 88 108 107
f 88 89 109 108
f 89 70 90 109
o SD0424_T005_5hao
v -27.129 15.408 0.000
v -6.532 13.092 0.000
v 18.591 12.378 0.000
v 40.403 16.612 0.000
v 48.928 19.679 0.000
v 60.067 25.322 0.000
v 51.772 47.688 0.000
v 31.626 39.211 0.000
v 12.436 36.375 0.000
v -12.449 38.025 0.000
v -37.816 42.731 0.000
v -46.823 19.448 0.000
v -27.129 15.408 9.900
v -6.532 13.092 9.900
v 18.591 12.378 9.900
v 40.403 16.612 9.900
v 48.928 19.679 9.900
v 60.067 25.322 9.900
v 51.772 47.688 9.900
v 31.626 39.211 9.900
v 12.436 36.375 9.900
v -12.449 38.025 9.900
v -37.816 42.731 9.900
v -46.823 19.448 9.900
usemtl roof
f 122 123 124 125 126 127 128 129 130 131 132 133
usemtl teaching_building
f 121 120 119 118 117 116 115 114 113 112 111 110
f 110 111 123 122
f 111 112 124 123
f 112 113 125 124
f 113 114 126 125
f 114 115 127 126
f 115 116 128 127
f 116 117 129 128
f 117 118 130 129
f 118 119 131 130
f 119 120 132 131
f 120 121 133 132
f 121 110 122 133
o SD0424_T006_6hao
v -20.559 -133.783 0.000
v -20.508 -118.986 0.000
v -33.550 -118.921 0.000
v -33.758 -87.780 0.000
v -24.677 -87.716 0.000
v -24.981 -65.284 0.000
v -32.417 -65.219 0.000
v -32.417 -33.022 0.000
v -20.078 -35.311 0.000
v -17.545 -23.646 0.000
v -86.284 -10.544 0.000
v -88.180 -133.616 0.000
v -20.559 -133.783 9.900
v -20.508 -118.986 9.900
v -33.550 -118.921 9.900
v -33.758 -87.780 9.900
v -24.677 -87.716 9.900
v -24.981 -65.284 9.900
v -32.417 -65.219 9.900
v -32.417 -33.022 9.900
v -20.078 -35.311 9.900
v -17.545 -23.646 9.900
v -86.284 -10.544 9.900
v -88.180 -133.616 9.900
usemtl roof
f 146 147 148 149 150 151 152 153 154 155 156 157
usemtl teaching_building
f 145 144 143 142 141 140 139 138 137 136 135 134
f 134 135 147 146
f 135 136 148 147
f 136 137 149 148
f 137 138 150 149
f 138 139 151 150
f 139 140 152 151
f 140 141 153 152
f 141 142 154 153
f 142 143 155 154
f 143 144 156 155
f 144 145 157 156
f 145 134 146 157
o SD0424_T007_7hao
v 11.777 -137.674 0.000
v 15.614 -137.721 0.000
v 17.791 -134.339 0.000
v 71.769 -134.339 0.000
v 71.762 -136.553 0.000
v 79.465 -136.590 0.000
v 79.790 -108.905 0.000
v 84.968 -108.980 0.000
v 84.930 -100.001 0.000
v 79.813 -100.001 0.000
v 79.731 -89.281 0.000
v 86.590 -89.235 0.000
v 86.464 -65.840 0.000
v 79.939 -65.803 0.000
v 79.976 -52.044 0.000
v 85.086 -51.988 0.000
v 85.108 -42.927 0.000
v 79.976 -42.908 0.000
v 79.976 -12.509 0.000
v 11.896 -23.432 0.000
v 14.317 -35.885 0.000
v 27.842 -34.051 0.000
v 27.797 -44.289 0.000
v 24.872 -44.289 0.000
v 24.820 -52.192 0.000
v 27.745 -52.220 0.000
v 27.619 -65.988 0.000
v 19.184 -65.970 0.000
v 19.050 -88.522 0.000
v 28.019 -88.549 0.000
v 28.027 -100.502 0.000
v 24.857 -100.483 0.000
v 24.798 -107.729 0.000
v 27.968 -107.766 0.000
v 27.893 -121.488 0.000
v 15.465 -121.608 0.000
v 15.443 -130.827 0.000
v 11.888 -130.827 0.000
v 9.488 -134.292 0.000
v 11.777 -137.674 9.900
v 15.614 -137.721 9.900
v 17.791 -134.339 9.900
v 71.769 -134.339 9.900
v 71.762 -136.553 9.900
v 79.465 -136.590 9.900
v 79.790 -108.905 9.900
v 84.968 -108.980 9.900
v 84.930 -100.001 9.900
v 79.813 -100.001 9.900
v 79.731 -89.281 9.900
v 86.590 -89.235 9.900
v 86.464 -65.840 9.900
v 79.939 -65.803 9.900
v 79.976 -52.044 9.900
v 85.086 -51.988 9.900
v 85.108 -42.927 9.900
v 79.976 -42.908 9.900
v 79.976 -12.509 9.900
v 11.896 -23.432 9.900
v 14.317 -35.885 9.900
v 27.842 -34.051 9.900
v 27.797 -44.289 9.900
v 24.872 -44.289 9.900
v 24.820 -52.192 9.900
v 27.745 -52.220 9.900
v 27.619 -65.988 9.900
v 19.184 -65.970 9.900
v 19.050 -88.522 9.900
v 28.019 -88.549 9.900
v 28.027 -100.502 9.900
v 24.857 -100.483 9.900
v 24.798 -107.729 9.900
v 27.968 -107.766 9.900
v 27.893 -121.488 9.900
v 15.465 -121.608 9.900
v 15.443 -130.827 9.900
v 11.888 -130.827 9.900
v 9.488 -134.292 9.900
usemtl roof
f 197 198 199 200 201 202 203 204 205 206 207 208 209 210 211 212 213 214 215 216 217 218 219 220 221 222 223 224 225 226 227 228 229 230 231 232 233 234 235
usemtl teaching_building
f 196 195 194 193 192 191 190 189 188 187 186 185 184 183 182 181 180 179 178 177 176 175 174 173 172 171 170 169 168 167 166 165 164 163 162 161 160 159 158
f 158 159 198 197
f 159 160 199 198
f 160 161 200 199
f 161 162 201 200
f 162 163 202 201
f 163 164 203 202
f 164 165 204 203
f 165 166 205 204
f 166 167 206 205
f 167 168 207 206
f 168 169 208 207
f 169 170 209 208
f 170 171 210 209
f 171 172 211 210
f 172 173 212 211
f 173 174 213 212
f 174 175 214 213
f 175 176 215 214
f 176 177 216 215
f 177 178 217 216
f 178 179 218 217
f 179 180 219 218
f 180 181 220 219
f 181 182 221 220
f 182 183 222 221
f 183 184 223 222
f 184 185 224 223
f 185 186 225 224
f 186 187 226 225
f 187 188 227 226
f 188 189 228 227
f 189 190 229 228
f 190 191 230 229
f 191 192 231 230
f 192 193 232 231
f 193 194 233 232
f 194 195 234 233
f 195 196 235 234
f 196 158 197 235
