# school_id SD0440
# school_name 核电培训基地
# boundary_source footprint_convex_hull_buffer_20m
# adjacent_block_merge_distance_m 2.0
mtllib ../campus_materials.mtl
o SD0440_campus_boundary
usemtl campus_boundary
v -2.988 -43.119 0.050
v -14.892 -41.140 0.050
v -35.965 -25.954 0.050
v -43.935 -18.061 0.050
v -47.381 -6.354 0.050
v -47.381 4.284 0.050
v -42.200 19.702 0.050
v -13.254 38.233 0.050
v -4.759 40.806 0.050
v 4.370 41.257 0.050
v 18.930 37.393 0.050
v 26.766 29.983 0.050
v 43.211 4.380 0.050
v 41.136 -13.349 0.050
v 33.967 -25.959 0.050
v 9.445 -40.919 0.050
v -2.988 -43.119 0.050
l 1 2 3 4 5 6 7 8 9 10 11 12 13 14 15 16 17 1
o SD0440_T001_1hao
v -26.203 -7.474 0.000
v -23.003 -10.643 0.000
v -6.996 -22.178 0.000
v -3.093 -22.827 0.000
v 2.248 -21.882 0.000
v 19.136 -11.579 0.000
v 21.743 -6.993 0.000
v 22.514 -0.405 0.000
v 11.255 17.125 0.000
v 8.884 19.367 0.000
v 2.248 21.128 0.000
v -1.315 20.952 0.000
v -4.804 19.895 0.000
v -25.485 6.655 0.000
v -27.381 1.013 0.000
v -27.381 -3.472 0.000
v -26.203 -7.474 9.900
v -23.003 -10.643 9.900
v -6.996 -22.178 9.900
v -3.093 -22.827 9.900
v 2.248 -21.882 9.900
v 19.136 -11.579 9.900
v 21.743 -6.993 9.900
v 22.514 -0.405 9.900
v 11.255 17.125 9.900
v 8.884 19.367 9.900
v 2.248 21.128 9.900
v -1.315 20.952 9.900
v -4.804 19.895 9.900
v -25.485 6.655 9.900
v -27.381 1.013 9.900
v -27.381 -3.472 9.900
usemtl roof
f 34 35 36 37 38 39 40 41 42 43 44 45 46 47 48 49
usemtl teaching_building
f 33 32 31 30 29 28 27 26 25 24 23 22 21 20 19 18
f 18 19 35 34
f 19 20 36 35
f 20 21 37 36
f 21 22 38 37
f 22 23 39 38
f 23 24 40 39
f 24 25 41 40
f 25 26 42 41
f 26 27 43 42
f 27 28 44 43
f 28 29 45 44
f 29 30 46 45
f 30 31 47 46
f 31 32 48 47
f 32 33 49 48
f 33 18 34 49
