# school_id SD0468
# school_name 烟台经济技术开发区第八小学
# boundary_source footprint_convex_hull_buffer_20m
# adjacent_block_merge_distance_m 2.0
mtllib ../campus_materials.mtl
o SD0468_campus_boundary
usemtl campus_boundary
v -39.594 -123.274 0.050
v -41.201 -22.431 0.050
v -41.526 0.276 0.050
v -42.267 55.697 0.050
v -24.704 73.497 0.050
v 82.029 75.020 0.050
v 83.497 -27.030 0.050
v 17.590 -122.447 0.050
v -39.594 -123.274 0.050
l 1 2 3 4 5 6 7 8 9 1
o SD0468_T001_1hao
v -21.898 29.554 0.000
v -2.048 29.841 0.000
v -2.129 35.354 0.000
v 12.327 35.567 0.000
v 12.830 1.044 0.000
v -21.528 0.562 0.000
v -21.203 -22.129 0.000
v 63.407 -20.924 0.000
v 62.319 54.737 0.000
v -16.224 53.616 0.000
v -16.135 47.695 0.000
v -22.157 47.603 0.000
v -21.898 29.554 9.900
v -2.048 29.841 9.900
v -2.129 35.354 9.900
v 12.327 35.567 9.900
v 12.830 1.044 9.900
v -21.528 0.562 9.900
v -21.203 -22.129 9.900
v 63.407 -20.924 9.900
v 62.319 54.737 9.900
v -16.224 53.616 9.900
v -16.135 47.695 9.900
v -22.157 47.603 9.900
usemtl roof
f 22 23 24 25 26 27 28 29 30 31 32 33
usemtl teaching_building
f 21 20 19 18 17 16 15 14 13 12 11 10
f 10 11 23 22
f 11 12 24 23
f 12 13 25 24
f 13 14 26 25
f 14 15 27 26
f 15 16 28 27
f 16 17 29 28
f 17 18 30 29
f 18 19 31 30
f 19 20 32 31
f 20 21 33 32
f 21 10 22 33
o SD0468_T002_2hao
v -19.915 -102.987 0.000
v 6.993 -102.598 0.000
v 6.135 -43.272 0.000
v -20.774 -43.661 0.000
v -19.915 -102.987 9.900
v 6.993 -102.598 9.900
v 6.135 -43.272 9.900
v -20.774 -43.661 9.900
usemtl roof
f 38 39 40 41
usemtl teaching_building
f 37 36 35 34
f 34 35 39 38
f 35 36 40 39
f 36 37 41 40
f 37 34 38 41
