# school_id SD0474
# school_name 烟台韩国学校
# boundary_source footprint_convex_hull_buffer_20m
# adjacent_block_merge_distance_m 2.0
mtllib ../campus_materials.mtl
o SD0474_campus_boundary
usemtl campus_boundary
v 24.002 -119.903 0.050
v -81.875 -97.842 0.050
v -60.152 14.023 0.050
v -48.765 72.009 0.050
v -33.958 107.301 0.050
v 3.794 98.969 0.050
v 108.619 74.382 0.050
v 101.524 43.689 0.050
v 24.002 -119.903 0.050
l 1 2 3 4 5 6 7 8 9 1
o SD0474_T001_1hao
v 6.864 0.999 0.000
v 17.854 56.980 0.000
v -29.533 66.153 0.000
v -40.523 10.190 0.000
v 6.864 0.999 4.950
v 17.854 56.980 4.950
v -29.533 66.153 4.950
v -40.523 10.190 4.950
usemtl roof
f 14 15 16 17
usemtl teaching_building
f 13 12 11 10
f 10 11 15 14
f 11 12 16 15
f 12 13 17 16
f 13 10 14 17
