# school_id SD0406
# school_name 中石化胜利石油工程有限公司黄河钻井总公司实训基地
# boundary_source footprint_convex_hull_buffer_20m
# adjacent_block_merge_distance_m 2.0
mtllib ../campus_materials.mtl
o SD0406_campus_boundary
usemtl campus_boundary
v 26.707 -43.478 0.050
v -28.479 -42.367 0.050
v -26.721 43.478 0.050
v 28.494 42.368 0.050
v 26.707 -43.478 0.050
l 1 2 3 4 5 1
o SD0406_T001_1hao
v 7.127 -23.080 0.000
v 8.082 22.774 0.000
v -7.135 23.080 0.000
v -8.074 -22.774 0.000
v 7.127 -23.080 9.900
v 8.082 22.774 9.900
v -7.135 23.080 9.900
v -8.074 -22.774 9.900
usemtl roof
f 10 11 12 13
usemtl teaching_building
f 9 8 7 6
f 6 7 11 10
f 7 8 12 11
f 8 9 13 12
f 9 6 10 13
