# school_id SD0437
# school_name 御龙山中学(芝罘中学东校区)
# boundary_source footprint_convex_hull_buffer_20m
# adjacent_block_merge_distance_m 2.0
mtllib ../campus_materials.mtl
o SD0437_campus_boundary
usemtl campus_boundary
v 28.552 -68.750 0.050
v -52.895 -32.296 0.050
v -46.993 4.934 0.050
v -18.245 68.249 0.050
v 71.699 28.015 0.050
v 44.552 -33.521 0.050
v 28.552 -68.750 0.050
l 1 2 3 4 5 6 7 1
o SD0437_T001_1hao
v 18.567 -42.369 0.000
v 26.297 -25.349 0.000
v -13.581 -7.494 0.000
v -9.116 2.364 0.000
v -5.177 0.604 0.000
v -1.779 8.071 0.000
v -6.081 9.999 0.000
v -2.364 18.198 0.000
v 37.432 0.390 0.000
v 45.369 17.883 0.000
v -8.257 41.871 0.000
v -27.663 -0.870 0.000
v -22.902 -3.001 0.000
v -30.743 -20.299 0.000
v 18.567 -42.369 9.900
v 26.297 -25.349 9.900
v -13.581 -7.494 9.900
v -9.116 2.364 9.900
v -5.177 0.604 9.900
v -1.779 8.071 9.900
v -6.081 9.999 9.900
v -2.364 18.198 9.900
v 37.432 0.390 9.900
v 45.369 17.883 9.900
v -8.257 41.871 9.900
v -27.663 -0.870 9.900
v -22.902 -3.001 9.900
v -30.743 -20.299 9.900
usemtl roof
f 22 23 24 25 26 27 28 29 30 31 32 33 34 35
usemtl teaching_building
f 21 20 19 18 17 16 15 14 13 12 11 10 9 8
f 8 9 23 22
f 9 10 24 23
f 10 11 25 24
f 11 12 26 25
f 12 13 27 26
f 13 14 28 27
f 14 15 29 28
f 15 16 30 29
f 16 17 31 30
f 17 18 32 31
f 18 19 33 32
f 19 20 34 33
f 20 21 35 34
f 21 8 22 35
