# school_id SD0458
# school_name 烟台文化旅游职业学院
# boundary_source footprint_convex_hull_buffer_20m
# adjacent_block_merge_distance_m 2.0
mtllib ../campus_materials.mtl
o SD0458_campus_boundary
usemtl campus_boundary
v 102.273 -352.749 0.050
v 11.453 -321.028 0.050
v -182.832 -61.255 0.050
v -158.807 92.224 0.050
v -117.145 275.831 0.050
v -89.656 322.001 0.050
v -67.627 357.031 0.050
v 21.536 301.699 0.050
v 91.384 189.565 0.050
v 176.541 -113.436 0.050
v 141.954 -228.086 0.050
v 116.077 -313.842 0.050
v 102.273 -352.749 0.050
l 1 2 3 4 5 6 7 8 9 10 11 12 13 1
o SD0458_T001_1hao
v -4.305 269.180 0.000
v 7.026 287.165 0.000
v -61.280 329.554 0.000
v -72.596 311.560 0.000
v -4.305 269.180 9.900
v 7.026 287.165 9.900
v -61.280 329.554 9.900
v -72.596 311.560 9.900
usemtl roof
f 18 19 20 21
usemtl teaching_building
f 17 16 15 14
f 14 15 19 18
f 15 16 20 19
f 16 17 21 20
f 17 14 18 21
o SD0458_T002_2hao
v -1.459 208.187 0.000
v 12.429 230.247 0.000
v -84.461 290.370 0.000
v -98.341 268.319 0.000
v -1.459 208.187 6.600
v 12.429 230.247 6.600
v -84.461 290.370 6.600
v -98.341 268.319 6.600
usemtl roof
f 26 27 28 29
usemtl teaching_building
f 25 24 23 22
f 22 23 27 26
f 23 24 28 27
f 24 25 29 28
f 25 22 26 29
o SD0458_T003_3hao
v -29.035 159.812 0.000
v -18.289 176.870 0.000
v -98.148 226.421 0.000
v -108.879 209.363 0.000
v -29.035 159.812 6.600
v -18.289 176.870 6.600
v -98.148 226.421 6.600
v -108.879 209.363 6.600
usemtl roof
f 34 35 36 37
usemtl teaching_building
f 33 32 31 30
f 30 31 35 34
f 31 32 36 35
f 32 33 37 36
f 33 30 34 37
o SD0458_T004_4hao
v 58.783 158.969 0.000
v 72.901 181.410 0.000
v 25.583 210.781 0.000
v 11.458 188.340 0.000
v 58.783 158.969 6.600
v 72.901 181.410 6.600
v 25.583 210.781 6.600
v 11.458 188.340 6.600
usemtl roof
f 42 43 44 45
usemtl teaching_building
f 41 40 39 38
f 38 39 43 42
f 39 40 44 43
f 40 41 45 44
f 41 38 42 45
o SD0458_T005_5hao
v -57.945 109.409 0.000
v -46.754 127.180 0.000
v -109.554 166.159 0.000
v -120.737 148.379 0.000
v -57.945 109.409 6.600
v -46.754 127.180 6.600
v -109.554 166.159 6.600
v -120.737 148.379 6.600
usemtl roof
f 50 51 52 53
usemtl teaching_building
f 49 48 47 46
f 46 47 51 50
f 47 48 52 51
f 48 49 53 52
f 49 46 50 53
o SD0458_T006_6hao
v 30.318 99.865 0.000
v 54.337 138.011 0.000
v -1.459 172.635 0.000
v -25.463 134.490 0.000
v 30.318 99.865 6.600
v 54.337 138.011 6.600
v -1.459 172.635 6.600
v -25.463 134.490 6.600
usemtl roof
f 58 59 60 61
usemtl teaching_building
f 57 56 55 54
f 54 55 59 58
f 55 56 60 59
f 56 57 61 60
f 57 54 58 61
o SD0458_T007_7hao
v -99.868 64.073 0.000
v -80.978 94.084 0.000
v -120.270 118.470 0.000
v -139.153 88.460 0.000
v -99.868 64.073 6.600
v -80.978 94.084 6.600
v -120.270 118.470 6.600
v -139.153 88.460 6.600
usemtl roof
f 66 67 68 69
usemtl teaching_building
f 65 64 63 62
f 62 63 67 66
f 63 64 68 67
f 64 65 69 68
f 65 62 66 69
o SD0458_T008_8hao
v 105.976 -38.364 0.000
v 116.232 -22.057 0.000
v 36.255 27.577 0.000
v 25.998 11.279 0.000
v 105.976 -38.364 6.600
v 116.232 -22.057 6.600
v 36.255 27.577 6.600
v 25.998 11.279 6.600
usemtl roof
f 74 75 76 77
usemtl teaching_building
f 73 72 71 70
f 70 71 75 74
f 71 72 76 75
f 72 73 77 76
f 73 70 74 77
o SD0458_T009_9hao
v 52.618 -103.593 0.000
v 60.051 -82.588 0.000
v -21.380 -54.134 0.000
v -28.820 -75.139 0.000
v 52.618 -103.593 6.600
v 60.051 -82.588 6.600
v -21.380 -54.134 6.600
v -28.820 -75.139 6.600
usemtl roof
f 82 83 84 85
usemtl teaching_building
f 81 80 79 78
f 78 79 83 82
f 79 80 84 83
f 80 81 85 84
f 81 78 82 85
o SD0458_T010_10hao
v 147.951 -135.141 0.000
v 155.710 -113.238 0.000
v 78.874 -86.396 0.000
v 71.115 -108.299 0.000
v 147.951 -135.141 6.600
v 155.710 -113.238 6.600
v 78.874 -86.396 6.600
v 71.115 -108.299 6.600
usemtl roof
f 90 91 92 93
usemtl teaching_building
f 89 88 87 86
f 86 87 91 90
f 87 88 92 91
f 88 89 93 92
f 89 86 90 93
o SD0458_T011_11hao
v 129.928 -192.614 0.000
v 138.754 -167.700 0.000
v 64.475 -141.738 0.000
v 55.641 -166.662 0.000
v 129.928 -192.614 6.600
v 138.754 -167.700 6.600
v 64.475 -141.738 6.600
v 55.641 -166.662 6.600
usemtl roof
f 98 99 100 101
usemtl teaching_building
f 97 96 95 94
f 94 95 99 98
f 95 96 100 99
f 96 97 101 100
f 97 94 98 101
o SD0458_T012_12hao
v 113.802 -247.715 0.000
v 122.806 -222.310 0.000
v 52.618 -197.784 0.000
v 43.621 -223.190 0.000
v 113.802 -247.715 6.600
v 122.806 -222.310 6.600
v 52.618 -197.784 6.600
v 43.621 -223.190 6.600
usemtl roof
f 106 107 108 109
usemtl teaching_building
f 105 104 103 102
f 102 103 107 106
f 103 104 108 107
f 104 105 109 108
f 105 102 106 109
o SD0458_T013_13hao
v 97.194 -295.284 0.000
v 107.406 -266.450 0.000
v 40.286 -243.008 0.000
v 30.074 -271.824 0.000
v 97.194 -295.284 6.600
v 107.406 -266.450 6.600
v 40.286 -243.008 6.600
v 30.074 -271.824 6.600
usemtl roof
f 114 115 116 117
usemtl teaching_building
f 113 112 111 110
f 110 111 115 114
f 111 112 116 115
f 112 113 117 116
f 113 110 114 117
o SD0458_T014_14hao
v 90.079 -327.305 0.000
v 97.068 -307.606 0.000
v 30.800 -284.452 0.000
v 23.812 -304.160 0.000
v 90.079 -327.305 9.900
v 97.068 -307.606 9.900
v 30.800 -284.452 9.900
v 23.812 -304.160 9.900
usemtl roof
f 122 123 124 125
usemtl teaching_building
f 121 120 119 118
f 118 119 123 122
f 119 120 124 123
f 120 121 125 124
f 121 118 122 125
