# school_id SD0419
# school_name 只楚小学
# boundary_source footprint_convex_hull_buffer_20m
# adjacent_block_merge_distance_m 2.0
mtllib ../campus_materials.mtl
o SD0419_campus_boundary
usemtl campus_boundary
v -39.229 -48.071 0.050
v -67.873 -45.605 0.050
v -62.542 14.638 0.050
v -35.686 37.460 0.050
v 29.893 35.940 0.050
v 67.155 -12.944 0.050
v 41.038 -33.667 0.050
v -39.229 -48.071 0.050
l 1 2 3 4 5 6 7 8 1
o SD0419_T001_1hao
v 16.095 5.522 0.000
v 17.153 3.873 0.000
v 15.732 2.937 0.000
v 19.113 -2.113 0.000
v 20.823 -0.825 0.000
v 32.550 -14.871 0.000
v 39.358 -9.469 0.000
v 23.967 10.572 0.000
v 19.816 10.878 0.000
v 19.816 16.168 0.000
v -28.537 17.289 0.000
v -28.892 6.467 0.000
v 16.095 5.522 9.900
v 17.153 3.873 9.900
v 15.732 2.937 9.900
v 19.113 -2.113 9.900
v 20.823 -0.825 9.900
v 32.550 -14.871 9.900
v 39.358 -9.469 9.900
v 23.967 10.572 9.900
v 19.816 10.878 9.900
v 19.816 16.168 9.900
v -28.537 17.289 9.900
v -28.892 6.467 9.900
usemtl roof
f 21 22 23 24 25 26 27 28 29 30 31 32
usemtl teaching_building
f 20 19 18 17 16 15 14 13 12 11 10 9
f 9 10 22 21
f 10 11 23 22
f 11 12 24 23
f 12 13 25 24
f 13 14 26 25
f 14 15 27 26
f 15 16 28 27
f 16 17 29 28
f 17 18 30 29
f 18 19 31 30
f 19 20 32 31
f 20 9 21 32
