# school_id SD0483
# school_name 莱山区第四实验小学
# boundary_source footprint_convex_hull_buffer_20m
# adjacent_block_merge_distance_m 2.0
mtllib ../campus_materials.mtl
o SD0483_campus_boundary
usemtl campus_boundary
v 38.096 -129.305 0.050
v 6.930 -125.267 0.050
v -32.261 -115.472 0.050
v -76.935 3.622 0.050
v -66.659 45.535 0.050
v -63.887 56.310 0.050
v -46.599 115.248 0.050
v 36.242 103.655 0.050
v 50.453 99.994 0.050
v 76.815 77.629 0.050
v 68.951 24.273 0.050
v 48.362 -94.504 0.050
v 38.096 -129.305 0.050
l 1 2 3 4 5 6 7 8 9 10 11 12 13 1
o SD0483_T001_1hao
v 37.113 -18.748 0.000
v 40.453 -5.730 0.000
v -16.052 8.595 0.000
v -14.889 13.088 0.000
v -11.948 12.338 0.000
v -9.385 22.196 0.000
v -11.215 22.669 0.000
v -9.341 29.803 0.000
v 46.017 15.386 0.000
v 49.202 27.440 0.000
v -8.252 42.404 0.000
v -2.111 65.706 0.000
v 50.772 51.947 0.000
v 55.410 69.561 0.000
v 38.927 73.841 0.000
v 41.016 81.772 0.000
v 32.349 84.005 0.000
v 30.520 76.973 0.000
v -32.268 93.048 0.000
v -36.060 78.437 0.000
v -4.978 70.515 0.000
v -12.148 42.728 0.000
v -44.601 51.002 0.000
v -47.261 40.662 0.000
v -17.089 33.009 0.000
v -22.941 10.262 0.000
v -52.705 17.814 0.000
v -56.039 4.861 0.000
v 37.113 -18.748 9.900
v 40.453 -5.730 9.900
v -16.052 8.595 9.900
v -14.889 13.088 9.900
v -11.948 12.338 9.900
v -9.385 22.196 9.900
v -11.215 22.669 9.900
v -9.341 29.803 9.900
v 46.017 15.386 9.900
v 49.202 27.440 9.900
v -8.252 42.404 9.900
v -2.111 65.706 9.900
v 50.772 51.947 9.900
v 55.410 69.561 9.900
v 38.927 73.841 9.900
v 41.016 81.772 9.900
v 32.349 84.005 9.900
v 30.520 76.973 9.900
v -32.268 93.048 9.900
v -36.060 78.437 9.900
v -4.978 70.515 9.900
v -12.148 42.728 9.900
v -44.601 51.002 9.900
v -47.261 40.662 9.900
v -17.089 33.009 9.900
v -22.941 10.262 9.900
v -52.705 17.814 9.900
v -56.039 4.861 9.900
usemtl roof
f 42 43 44 45 46 47 48 49 50 51 52 53 54 55 56 57 58 59 60 61 62 63 64 65 66 67 68 69
usemtl teaching_building
f 41 40 39 38 37 36 35 34 33 32 31 30 29 28 27 26 25 24 23 22 21 20 19 18 17 16 15 14
f 14 15 43 42
f 15 16 44 43
f 16 17 45 44
f 17 18 46 45
f 18 19 47 46
f 19 20 48 47
f 20 21 49 48
f 21 22 50 49
f 22 23 51 50
f 23 24 52 51
f 24 25 53 52
f 25 26 54 53
f 26 27 55 54
f 27 28 56 55
f 28 29 57 56
f 29 30 58 57
f 30 31 59 58
f 31 32 60 59
f 32 33 61 60
f 33 34 62 61
f 34 35 63 62
f 35 36 64 63
f 36 37 65 64
f 37 38 66 65
f 38 39 67 66
f 39 40 68 67
f 40 41 69 68
f 41 14 42 69
o SD0483_T002_2hao
v -16.467 -90.517 0.000
v -17.223 -98.615 0.000
v 10.652 -105.582 0.000
v 11.223 -103.887 0.000
v 23.742 -107.278 0.000
v 28.853 -89.952 0.000
v 2.304 -82.419 0.000
v 1.741 -88.636 0.000
v -10.208 -85.050 0.000
v -10.771 -87.506 0.000
v -17.793 -86.005 0.000
v -18.549 -90.137 0.000
v -16.467 -90.517 9.900
v -17.223 -98.615 9.900
v 10.652 -105.582 9.900
v 11.223 -103.887 9.900
v 23.742 -107.278 9.900
v 28.853 -89.952 9.900
v 2.304 -82.419 9.900
v 1.741 -88.636 9.900
v -10.208 -85.050 9.900
v -10.771 -87.506 9.900
v -17.793 -86.005 9.900
v -18.549 -90.137 9.900
usemtl roof
f 82 83 84 85 86 87 88 89 90 91 92 93
usemtl teaching_building
f 81 80 79 78 77 76 75 74 73 72 71 70
f 70 71 83 82
f 71 72 84 83
f 72 73 85 84
f 73 74 86 85
f 74 75 87 86
f 75 76 88 87
f 76 77 89 88
f 77 78 90 89
f 78 79 91 90
f 79 80 92 91
f 80 81 93 92
f 81 70 82 93
