# school_id SD0421
# school_name 塔山小学
# boundary_source footprint_convex_hull_buffer_20m
# adjacent_block_merge_distance_m 2.0
mtllib ../campus_materials.mtl
o SD0421_campus_boundary
usemtl campus_boundary
v 96.257 -46.595 0.050
v -76.541 -28.730 0.050
v -109.992 -24.598 0.050
v -108.904 10.559 0.050
v -106.986 36.013 0.050
v 41.405 41.434 0.050
v 90.237 34.930 0.050
v 104.525 18.863 0.050
v 103.070 3.563 0.050
v 96.257 -46.595 0.050
l 1 2 3 4 5 6 7 8 9 10 1
o SD0421_T001_1hao
v 13.333 -9.903 0.000
v 23.398 -10.608 0.000
v 22.214 -18.492 0.000
v 79.046 -24.709 0.000
v 79.764 -19.308 0.000
v 78.217 -19.187 0.000
v 80.822 5.977 0.000
v 83.198 5.857 0.000
v 83.790 12.083 0.000
v 79.638 12.445 0.000
v 80.230 16.086 0.000
v 40.443 21.386 0.000
v 34.529 19.616 0.000
v 31.450 15.502 0.000
v 29.548 6.913 0.000
v 35.351 6.329 0.000
v 34.056 -5.438 0.000
v 21.859 -4.492 0.000
v 18.661 -1.667 0.000
v 10.136 -7.189 0.000
v 13.333 -9.903 9.900
v 23.398 -10.608 9.900
v 22.214 -18.492 9.900
v 79.046 -24.709 9.900
v 79.764 -19.308 9.900
v 78.217 -19.187 9.900
v 80.822 5.977 9.900
v 83.198 5.857 9.900
v 83.790 12.083 9.900
v 79.638 12.445 9.900
v 80.230 16.086 9.900
v 40.443 21.386 9.900
v 34.529 19.616 9.900
v 31.450 15.502 9.900
v 29.548 6.913 9.900
v 35.351 6.329 9.900
v 34.056 -5.438 9.900
v 21.859 -4.492 9.900
v 18.661 -1.667 9.900
v 10.136 -7.189 9.900
usemtl roof
f 31 32 33 34 35 36 37 38 39 40 41 42 43 44 45 46 47 48 49 50
usemtl teaching_building
f 30 29 28 27 26 25 24 23 22 21 20 19 18 17 16 15 14 13 12 11
f 11 12 32 31
f 12 13 33 32
f 13 14 34 33
f 14 15 35 34
f 15 16 36 35
f 16 17 37 36
f 17 18 38 37
f 18 19 39 38
f 19 20 40 39
f 20 21 41 40
f 21 22 42 41
f 22 23 43 42
f 23 24 44 43
f 24 25 45 44
f 25 26 46 45
f 26 27 47 46
f 27 28 48 47
f 28 29 49 48
f 29 30 50 49
f 30 11 31 50
