# school_id SD0457
# school_name 烟台开发区谦益小学
# boundary_source footprint_convex_hull_buffer_20m
# adjacent_block_merge_distance_m 2.0
mtllib ../campus_materials.mtl
o SD0457_campus_boundary
usemtl campus_boundary
v -44.543 -123.208 0.050
v -48.502 6.000 0.050
v -47.761 83.842 0.050
v 83.481 82.615 0.050
v 83.020 35.711 0.050
v 9.432 -123.069 0.050
v -44.543 -123.208 0.050
l 1 2 3 4 5 6 7 1
o SD0457_T001_1hao
v -6.369 5.997 0.000
v -6.036 40.863 0.000
v 63.063 40.214 0.000
v 63.285 62.803 0.000
v -27.952 63.656 0.000
v -28.499 6.211 0.000
v -6.369 5.997 9.900
v -6.036 40.863 9.900
v 63.063 40.214 9.900
v 63.285 62.803 9.900
v -27.952 63.656 9.900
v -28.499 6.211 9.900
usemtl roof
f 14 15 16 17 18 19
usemtl teaching_building
f 13 12 11 10 9 8
f 8 9 15 14
f 9 10 16 15
f 10 11 17 16
f 11 12 18 17
f 12 13 19 18
f 13 8 14 19
o SD0457_T002_2hao
v -25.148 -103.158 0.000
v -3.358 -103.102 0.000
v -3.602 -6.715 0.000
v -25.384 -6.770 0.000
v -25.148 -103.158 6.600
v -3.358 -103.102 6.600
v -3.602 -6.715 6.600
v -25.384 -6.770 6.600
usemtl roof
f 24 25 26 27
usemtl teaching_building
f 23 22 21 20
f 20 21 25 24
f 21 22 26 25
f 22 23 27 26
f 23 20 24 27
