# school_id SD0455
# school_name 烟台市高新区实验中学
# boundary_source footprint_convex_hull_buffer_20m
# adjacent_block_merge_distance_m 2.0
mtllib ../campus_materials.mtl
o SD0455_campus_boundary
usemtl campus_boundary
v 69.088 -142.759 0.050
v 4.684 -129.513 0.050
v -235.662 -15.009 0.050
v -224.354 20.998 0.050
v -5.093 172.040 0.050
v 133.808 142.872 0.050
v 119.876 60.848 0.050
v 104.366 -12.522 0.050
v 69.088 -142.759 0.050
l 1 2 3 4 5 6 7 8 9 1
o SD0455_T001_1hao
v 82.469 117.117 0.000
v 77.845 97.475 0.000
v 101.620 91.934 0.000
v 110.869 127.253 0.000
v -0.810 150.704 0.000
v -4.308 133.591 0.000
v 82.469 117.117 6.600
v 77.845 97.475 6.600
v 101.620 91.934 6.600
v 110.869 127.253 6.600
v -0.810 150.704 6.600
v -4.308 133.591 6.600
usemtl roof
f 16 17 18 19 20 21
usemtl teaching_building
f 15 14 13 12 11 10
f 10 11 17 16
f 11 12 18 17
f 12 13 19 18
f 13 14 20 19
f 14 15 21 20
f 15 10 16 21
o SD0455_T002_2hao
v -3.218 71.495 0.000
v 4.326 109.371 0.000
v -41.897 118.461 0.000
v -49.449 80.565 0.000
v -3.218 71.495 6.600
v 4.326 109.371 6.600
v -41.897 118.461 6.600
v -49.449 80.565 6.600
usemtl roof
f 26 27 28 29
usemtl teaching_building
f 25 24 23 22
f 22 23 27 26
f 23 24 28 27
f 24 25 29 28
f 25 22 26 29
o SD0455_T003_3hao
v 84.915 -7.835 0.000
v 100.226 64.592 0.000
v 40.908 76.952 0.000
v 37.565 61.164 0.000
v 85.863 51.111 0.000
v 77.667 12.298 0.000
v 30.621 22.092 0.000
v 26.856 4.274 0.000
v 84.915 -7.835 6.600
v 100.226 64.592 6.600
v 40.908 76.952 6.600
v 37.565 61.164 6.600
v 85.863 51.111 6.600
v 77.667 12.298 6.600
v 30.621 22.092 6.600
v 26.856 4.274 6.600
usemtl roof
f 38 39 40 41 42 43 44 45
usemtl teaching_building
f 37 36 35 34 33 32 31 30
f 30 31 39 38
f 31 32 40 39
f 32 33 41 40
f 33 34 42 41
f 34 35 43 42
f 35 36 44 43
f 36 37 45 44
f 37 30 38 45
o SD0455_T004_4hao
v -16.810 -12.672 0.000
v -11.385 14.874 0.000
v -21.146 16.773 0.000
v -12.957 58.291 0.000
v -56.378 66.741 0.000
v -70.000 -2.341 0.000
v -16.810 -12.672 6.600
v -11.385 14.874 6.600
v -21.146 16.773 6.600
v -12.957 58.291 6.600
v -56.378 66.741 6.600
v -70.000 -2.341 6.600
usemtl roof
f 52 53 54 55 56 57
usemtl teaching_building
f 51 50 49 48 47 46
f 46 47 53 52
f 47 48 54 53
f 48 49 55 54
f 49 50 56 55
f 50 51 57 56
f 51 46 52 57
o SD0455_T005_5hao
v -171.251 -16.851 0.000
v -167.212 -4.009 0.000
v -207.336 8.435 0.000
v -211.375 -4.426 0.000
v -171.251 -16.851 6.600
v -167.212 -4.009 6.600
v -207.336 8.435 6.600
v -211.375 -4.426 6.600
usemtl roof
f 62 63 64 65
usemtl teaching_building
f 61 60 59 58
f 58 59 63 62
f 59 60 64 63
f 60 61 65 64
f 61 58 62 65
o SD0455_T006_6hao
v -47.982 -41.098 0.000
v -49.938 -50.669 0.000
v 26.448 -66.077 0.000
v 28.183 -57.627 0.000
v 67.743 -65.623 0.000
v 70.411 -52.559 0.000
v 27.538 -43.905 0.000
v 32.274 -20.751 0.000
v 23.276 -18.935 0.000
v 15.873 -55.042 0.000
v 8.365 -53.532 0.000
v 9.914 -45.990 0.000
v -32.211 -37.494 0.000
v -28.942 -21.428 0.000
v -66.102 -13.969 0.000
v -67.673 -21.706 0.000
v -71.453 -20.946 0.000
v -74.484 -35.752 0.000
v -47.982 -41.098 6.600
v -49.938 -50.669 6.600
v 26.448 -66.077 6.600
v 28.183 -57.627 6.600
v 67.743 -65.623 6.600
v 70.411 -52.559 6.600
v 27.538 -43.905 6.600
v 32.274 -20.751 6.600
v 23.276 -18.935 6.600
v 15.873 -55.042 6.600
v 8.365 -53.532 6.600
v 9.914 -45.990 6.600
v -32.211 -37.494 6.600
v -28.942 -21.428 6.600
v -66.102 -13.969 6.600
v -67.673 -21.706 6.600
v -71.453 -20.946 6.600
v -74.484 -35.752 6.600
usemtl roof
f 84 85 86 87 88 89 90 91 92 93 94 95 96 97 98 99 100 101
usemtl teaching_building
f 83 82 81 80 79 78 77 76 75 74 73 72 71 70 69 68 67 66
f 66 67 85 84
f 67 68 86 85
f 68 69 87 86
f 69 70 88 87
f 70 71 89 88
f 71 72 90 89
f 72 73 91 90
f 73 74 92 91
f 74 75 93 92
f 75 76 94 93
f 76 77 95 94
f 77 78 96 95
f 78 79 97 96
f 79 80 98 97
f 80 81 99 98
f 81 82 100 99
f 82 83 101 100
f 83 66 84 101
o SD0455_T007_7hao
v 54.700 -119.381 0.000
v 62.622 -81.328 0.000
v 52.247 -79.197 0.000
v 51.439 -83.089 0.000
v 45.591 -81.884 0.000
v 42.308 -97.598 0.000
v 14.939 -91.974 0.000
v 11.093 -110.412 0.000
v 54.700 -119.381 6.600
v 62.622 -81.328 6.600
v 52.247 -79.197 6.600
v 51.439 -83.089 6.600
v 45.591 -81.884 6.600
v 42.308 -97.598 6.600
v 14.939 -91.974 6.600
v 11.093 -110.412 6.600
usemtl roof
f 110 111 112 113 114 115 116 117
usemtl teaching_building
f 109 108 107 106 105 104 103 102
f 102 103 111 110
f 103 104 112 111
f 104 105 113 112
f 105 106 114 113
f 106 107 115 114
f 107 108 116 115
f 108 109 117 116
f 109 102 110 117
