# school_id SD0445
# school_name 烟台双语实验学校(中学)
# boundary_source footprint_convex_hull_buffer_20m
# adjacent_block_merge_distance_m 2.0
mtllib ../campus_materials.mtl
o SD0445_campus_boundary
usemtl campus_boundary
v -8.050 -73.500 0.050
v -21.907 -55.137 0.050
v -33.068 -29.612 0.050
v -38.709 35.964 0.050
v -37.651 98.909 0.050
v 14.285 102.614 0.050
v 32.030 43.095 0.050
v 36.907 -24.331 0.050
v 30.746 -51.051 0.050
v 18.951 -73.205 0.050
v -8.050 -73.500 0.050
l 1 2 3 4 5 6 7 8 9 10 11 1
o SD0445_T001_1hao
v -0.297 81.523 0.000
v 5.071 39.584 0.000
v 12.240 39.474 0.000
v 16.742 -22.771 0.000
v 10.280 -23.479 0.000
v 11.851 -43.984 0.000
v 6.687 -48.958 0.000
v 6.872 -53.336 0.000
v 1.831 -53.391 0.000
v 1.451 -49.124 0.000
v -4.525 -44.968 0.000
v -6.759 -24.352 0.000
v -13.424 -24.617 0.000
v -18.695 36.655 0.000
v -12.003 37.252 0.000
v -17.962 80.263 0.000
v -0.297 81.523 4.950
v 5.071 39.584 4.950
v 12.240 39.474 4.950
v 16.742 -22.771 4.950
v 10.280 -23.479 4.950
v 11.851 -43.984 4.950
v 6.687 -48.958 4.950
v 6.872 -53.336 4.950
v 1.831 -53.391 4.950
v 1.451 -49.124 4.950
v -4.525 -44.968 4.950
v -6.759 -24.352 4.950
v -13.424 -24.617 4.950
v -18.695 36.655 4.950
v -12.003 37.252 4.950
v -17.962 80.263 4.950
usemtl roof
f 28 29 30 31 32 33 34 35 36 37 38 39 40 41 42 43
usemtl teaching_building
f 27 26 25 24 23 22 21 20 19 18 17 16 15 14 13 12
f 12 13 29 28
f 13 14 30 29
f 14 15 31 30
f 15 16 32 31
f 16 17 33 32
f 17 18 34 33
f 18 19 35 34
f 19 20 36 35
f 20 21 37 36
f 21 22 38 37
f 22 23 39 38
f 23 24 40 39
f 24 25 41 40
f 25 26 42 41
f 26 27 43 42
f 27 12 28 43
