# school_id SD0408
# school_name 永安中学
# boundary_source footprint_convex_hull_buffer_20m
# adjacent_block_merge_distance_m 2.0
mtllib ../campus_materials.mtl
o SD0408_campus_boundary
usemtl campus_boundary
v -67.986 -135.066 0.050
v -94.020 121.461 0.050
v 66.722 133.949 0.050
v 95.292 -120.332 0.050
v -67.986 -135.066 0.050
l 1 2 3 4 5 1
o SD0408_T001_1hao
v -50.085 -113.369 0.000
v 73.135 -102.250 0.000
v 49.005 112.512 0.000
v -72.055 103.107 0.000
v -50.085 -113.369 9.900
v 73.135 -102.250 9.900
v 49.005 112.512 9.900
v -72.055 103.107 9.900
usemtl roof
f 10 11 12 13
usemtl teaching_building
f 9 8 7 6
f 6 7 11 10
f 7 8 12 11
f 8 9 13 12
f 9 6 10 13
