# school_id SD0460
# school_name 烟台海洋技术学校
# boundary_source footprint_convex_hull_buffer_20m
# adjacent_block_merge_distance_m 2.0
mtllib ../campus_materials.mtl
o SD0460_campus_boundary
usemtl campus_boundary
v -28.847 -66.892 0.050
v -100.015 -60.013 0.050
v -96.455 -23.557 0.050
v 1.548 75.506 0.050
v 58.159 81.157 0.050
v 74.570 -27.190 0.050
v 10.447 -55.593 0.050
v -28.847 -66.892 0.050
l 1 2 3 4 5 6 7 8 1
o SD0460_T001_1hao
v 17.010 15.487 0.000
v 8.808 14.255 0.000
v 4.075 45.276 0.000
v 11.702 46.413 0.000
v 10.701 56.320 0.000
v 41.231 59.368 0.000
v 42.643 45.387 0.000
v 12.900 42.417 0.000
v 17.010 15.487 9.900
v 8.808 14.255 9.900
v 4.075 45.276 9.900
v 11.702 46.413 9.900
v 10.701 56.320 9.900
v 41.231 59.368 9.900
v 42.643 45.387 9.900
v 12.900 42.417 9.900
usemtl roof
f 17 18 19 20 21 22 23 24
usemtl teaching_building
f 16 15 14 13 12 11 10 9
f 9 10 18 17
f 10 11 19 18
f 11 12 20 19
f 12 13 21 20
f 13 14 22 21
f 14 15 23 22
f 15 16 24 23
f 16 9 17 24
o SD0460_T002_2hao
v -35.758 -11.957 0.000
v 1.472 -8.074 0.000
v 0.651 -0.310 0.000
v -36.579 -4.183 0.000
v -35.758 -11.957 9.900
v 1.472 -8.074 9.900
v 0.651 -0.310 9.900
v -36.579 -4.183 9.900
usemtl roof
f 29 30 31 32
usemtl teaching_building
f 28 27 26 25
f 25 26 30 29
f 26 27 31 30
f 27 28 32 31
f 28 25 29 32
o SD0460_T003_3hao
v -78.164 -42.032 0.000
v -77.240 -32.572 0.000
v -29.790 -37.158 0.000
v -30.714 -46.618 0.000
v -78.164 -42.032 9.900
v -77.240 -32.572 9.900
v -29.790 -37.158 9.900
v -30.714 -46.618 9.900
usemtl roof
f 37 38 39 40
usemtl teaching_building
f 36 35 34 33
f 33 34 38 37
f 34 35 39 38
f 35 36 40 39
f 36 33 37 40
o SD0460_T003_3hao_seg02
v -29.656 -28.736 0.000
v 2.529 -25.669 0.000
v 3.602 -36.751 0.000
v -28.584 -39.799 0.000
v -29.656 -28.736 9.900
v 2.529 -25.669 9.900
v 3.602 -36.751 9.900
v -28.584 -39.799 9.900
usemtl roof
f 45 46 47 48
usemtl teaching_building
f 44 43 42 41
f 41 42 46 45
f 42 43 47 46
f 43 44 48 47
f 44 41 45 48
