# school_id SD0434
# school_name 开发区第九小学
# boundary_source footprint_convex_hull_buffer_20m
# adjacent_block_merge_distance_m 2.0
mtllib ../campus_materials.mtl
o SD0434_campus_boundary
usemtl campus_boundary
v 37.135 -88.883 0.050
v -70.775 -67.082 0.050
v -57.289 3.911 0.050
v -53.233 23.730 0.050
v -39.969 77.726 0.050
v 66.544 56.214 0.050
v 59.465 1.215 0.050
v 55.253 -19.327 0.050
v 37.135 -88.883 0.050
l 1 2 3 4 5 6 7 8 9 1
o SD0434_T001_1hao
v 41.609 27.066 0.000
v 44.330 40.297 0.000
v -25.123 54.324 0.000
v -27.838 41.093 0.000
v 41.609 27.066 9.900
v 44.330 40.297 9.900
v -25.123 54.324 9.900
v -27.838 41.093 9.900
usemtl roof
f 14 15 16 17
usemtl teaching_building
f 13 12 11 10
f 10 11 15 14
f 11 12 16 15
f 12 13 17 16
f 13 10 14 17
o SD0434_T002_2hao
v 35.766 -14.795 0.000
v 39.723 4.505 0.000
v -33.717 19.338 0.000
v -37.667 0.039 0.000
v 35.766 -14.795 9.900
v 39.723 4.505 9.900
v -33.717 19.338 9.900
v -37.667 0.039 9.900
usemtl roof
f 22 23 24 25
usemtl teaching_building
f 21 20 19 18
f 18 19 23 22
f 19 20 24 23
f 20 21 25 24
f 21 18 22 25
o SD0434_T003_3hao
v 22.550 -65.532 0.000
v 28.895 -34.540 0.000
v -41.091 -20.401 0.000
v -47.437 -51.393 0.000
v 22.550 -65.532 9.900
v 28.895 -34.540 9.900
v -41.091 -20.401 9.900
v -47.437 -51.393 9.900
usemtl roof
f 30 31 32 33
usemtl teaching_building
f 29 28 27 26
f 26 27 31 30
f 27 28 32 31
f 28 29 33 32
f 29 26 30 33
