# school_id SD0477
# school_name 芝罘区军民小学
# boundary_source footprint_convex_hull_buffer_20m
# adjacent_block_merge_distance_m 2.0
mtllib ../campus_materials.mtl
o SD0477_campus_boundary
usemtl campus_boundary
v -23.249 -94.701 0.050
v -114.205 -72.968 0.050
v -105.031 -35.162 0.050
v -94.468 4.507 0.050
v 13.849 74.507 0.050
v 96.315 53.079 0.050
v 86.305 -4.421 0.050
v 79.326 -27.074 0.050
v -23.249 -94.701 0.050
l 1 2 3 4 5 6 7 8 9 1
o SD0477_T001_1hao
v -1.157 -2.448 0.000
v 5.474 -4.329 0.000
v 9.738 -2.328 0.000
v 10.811 0.961 0.000
v 62.326 -14.327 0.000
v 66.819 0.257 0.000
v 21.344 13.544 0.000
v 28.930 38.356 0.000
v 70.379 26.598 0.000
v 73.451 38.356 0.000
v 17.324 52.940 0.000
v 14.838 44.944 0.000
v 11.514 45.537 0.000
v 7.132 26.487 0.000
v 12.343 24.718 0.000
v 8.679 11.079 0.000
v 3.232 12.135 0.000
v -2.342 9.550 0.000
v -4.229 3.315 0.000
v -1.157 -2.448 9.900
v 5.474 -4.329 9.900
v 9.738 -2.328 9.900
v 10.811 0.961 9.900
v 62.326 -14.327 9.900
v 66.819 0.257 9.900
v 21.344 13.544 9.900
v 28.930 38.356 9.900
v 70.379 26.598 9.900
v 73.451 38.356 9.900
v 17.324 52.940 9.900
v 14.838 44.944 9.900
v 11.514 45.537 9.900
v 7.132 26.487 9.900
v 12.343 24.718 9.900
v 8.679 11.079 9.900
v 3.232 12.135 9.900
v -2.342 9.550 9.900
v -4.229 3.315 9.900
usemtl roof
f 29 30 31 32 33 34 35 36 37 38 39 40 41 42 43 44 45 46 47
usemtl teaching_building
f 28 27 26 25 24 23 22 21 20 19 18 17 16 15 14 13 12 11 10
f 10 11 30 29
f 11 12 31 30
f 12 13 32 31
f 13 14 33 32
f 14 15 34 33
f 15 16 35 34
f 16 17 36 35
f 17 18 37 36
f 18 19 38 37
f 19 20 39 38
f 20 21 40 39
f 21 22 41 40
f 22 23 42 41
f 23 24 43 42
f 24 25 44 43
f 25 26 45 44
f 26 27 46 45
f 27 28 47 46
f 28 10 29 47
o SD0477_T002_2hao
v -18.499 -41.243 0.000
v -14.118 -23.157 0.000
v -77.128 -8.100 0.000
v -81.502 -26.196 0.000
v -18.499 -41.243 9.900
v -14.118 -23.157 9.900
v -77.128 -8.100 9.900
v -81.502 -26.196 9.900
usemtl roof
f 52 53 54 55
usemtl teaching_building
f 51 50 49 48
f 48 49 53 52
f 49 50 54 53
f 50 51 55 54
f 51 48 52 55
o SD0477_T003_3hao
v -27.026 -73.236 0.000
v -22.652 -55.141 0.000
v -85.647 -40.094 0.000
v -90.036 -58.180 0.000
v -27.026 -73.236 9.900
v -22.652 -55.141 9.900
v -85.647 -40.094 9.900
v -90.036 -58.180 9.900
usemtl roof
f 60 61 62 63
usemtl teaching_building
f 59 58 57 56
f 56 57 61 60
f 57 58 62 61
f 58 59 63 62
f 59 56 60 63
