# school_id SD0422
# school_name 官庄小学
# boundary_source footprint_convex_hull_buffer_20m
# adjacent_block_merge_distance_m 2.0
mtllib ../campus_materials.mtl
o SD0422_campus_boundary
usemtl campus_boundary
v 141.267 -91.269 0.050
v -57.539 -80.281 0.050
v -84.913 24.176 0.050
v -83.720 53.303 0.050
v -62.402 60.343 0.050
v -1.027 74.485 0.050
v 15.923 65.261 0.050
v 144.165 -39.386 0.050
v 141.267 -91.269 0.050
l 1 2 3 4 5 6 7 8 9 1
o SD0422_T001_1hao
v -56.564 26.006 0.000
v -56.379 30.379 0.000
v -51.625 30.194 0.000
v -51.669 29.119 0.000
v -41.746 29.740 0.000
v -41.805 28.350 0.000
v -32.356 28.878 0.000
v -32.415 27.415 0.000
v -27.949 27.229 0.000
v -27.875 28.906 0.000
v -22.965 28.712 0.000
v -23.039 26.886 0.000
v -20.907 26.812 0.000
v -21.062 22.995 0.000
v -15.523 22.763 0.000
v -16.293 4.158 0.000
v -32.082 4.816 0.000
v -32.496 -5.255 0.000
v 8.286 -6.923 0.000
v 8.723 2.787 0.000
v -9.828 3.695 0.000
v -9.139 20.058 0.000
v 11.011 19.845 0.000
v 11.122 27.961 0.000
v -2.259 27.989 0.000
v -5.940 31.056 0.000
v 4.724 48.586 0.000
v -3.926 53.293 0.000
v -13.634 38.227 0.000
v -57.009 41.062 0.000
v -57.357 38.459 0.000
v -64.303 38.653 0.000
v -64.807 26.349 0.000
v -56.564 26.006 9.900
v -56.379 30.379 9.900
v -51.625 30.194 9.900
v -51.669 29.119 9.900
v -41.746 29.740 9.900
v -41.805 28.350 9.900
v -32.356 28.878 9.900
v -32.415 27.415 9.900
v -27.949 27.229 9.900
v -27.875 28.906 9.900
v -22.965 28.712 9.900
v -23.039 26.886 9.900
v -20.907 26.812 9.900
v -21.062 22.995 9.900
v -15.523 22.763 9.900
v -16.293 4.158 9.900
v -32.082 4.816 9.900
v -32.496 -5.255 9.900
v 8.286 -6.923 9.900
v 8.723 2.787 9.900
v -9.828 3.695 9.900
v -9.139 20.058 9.900
v 11.011 19.845 9.900
v 11.122 27.961 9.900
v -2.259 27.989 9.900
v -5.940 31.056 9.900
v 4.724 48.586 9.900
v -3.926 53.293 9.900
v -13.634 38.227 9.900
v -57.009 41.062 9.900
v -57.357 38.459 9.900
v -64.303 38.653 9.900
v -64.807 26.349 9.900
usemtl roof
f 43 44 45 46 47 48 49 50 51 52 53 54 55 56 57 58 59 60 61 62 63 64 65 66 67 68 69 70 71 72 73 74 75
usemtl teaching_building
f 42 41 40 39 38 37 36 35 34 33 32 31 30 29 28 27 26 25 24 23 22 21 20 19 18 17 16 15 14 13 12 11 10
f 10 11 44 43
f 11 12 45 44
f 12 13 46 45
f 13 14 47 46
f 14 15 48 47
f 15 16 49 48
f 16 17 50 49
f 17 18 51 50
f 18 19 52 51
f 19 20 53 52
f 20 21 54 53
f 21 22 55 54
f 22 23 56 55
f 23 24 57 56
f 24 25 58 57
f 25 26 59 58
f 26 27 60 59
f 27 28 61 60
f 28 29 62 61
f 29 30 63 62
f 30 31 64 63
f 31 32 65 64
f 32 33 66 65
f 33 34 67 66
f 34 35 68 67
f 35 36 69 68
f 36 37 70 69
f 37 38 71 70
f 38 39 72 71
f 39 40 73 72
f 40 41 74 73
f 41 42 75 74
f 42 10 43 75
o SD0422_T002_2hao
v 122.413 -70.196 0.000
v 123.628 -48.441 0.000
v 116.230 -56.252 0.000
v 109.239 -60.254 0.000
v 103.788 -56.372 0.000
v 87.081 -62.367 0.000
v 78.543 -63.312 0.000
v 68.952 -63.071 0.000
v 60.414 -61.070 0.000
v 54.015 -58.253 0.000
v 46.788 -53.074 0.000
v -41.094 -46.949 0.000
v -41.886 -61.116 0.000
v 122.413 -70.196 9.900
v 123.628 -48.441 9.900
v 116.230 -56.252 9.900
v 109.239 -60.254 9.900
v 103.788 -56.372 9.900
v 87.081 -62.367 9.900
v 78.543 -63.312 9.900
v 68.952 -63.071 9.900
v 60.414 -61.070 9.900
v 54.015 -58.253 9.900
v 46.788 -53.074 9.900
v -41.094 -46.949 9.900
v -41.886 -61.116 9.900
usemtl roof
f 89 90 91 92 93 94 95 96 97 98 99 100 101
usemtl teaching_building
f 88 87 86 85 84 83 82 81 80 79 78 77 76
f 76 77 90 89
f 77 78 91 90
f 78 79 92 91
f 79 80 93 92
f 80 81 94 93
f 81 82 95 94
f 82 83 96 95
f 83 84 97 96
f 84 85 98 97
f 85 86 99 98
f 86 87 100 99
f 87 88 101 100
f 88 76 89 101
