# school_id SD0418
# school_name 卅里堡小学
# boundary_source footprint_convex_hull_buffer_20m
# adjacent_block_merge_distance_m 2.0
mtllib ../campus_materials.mtl
o SD0418_campus_boundary
usemtl campus_boundary
v 30.668 -68.513 0.050
v -1.943 -63.091 0.050
v -106.603 37.356 0.050
v -99.016 77.227 0.050
v 42.551 50.662 0.050
v 43.557 4.700 0.050
v 30.668 -68.513 0.050
l 1 2 3 4 5 6 7 1
o SD0418_T001_1hao
v 21.081 24.400 0.000
v 22.911 33.998 0.000
v -83.098 53.891 0.000
v -84.928 44.274 0.000
v 21.081 24.400 9.900
v 22.911 33.998 9.900
v -83.098 53.891 9.900
v -84.928 44.274 9.900
usemtl roof
f 12 13 14 15
usemtl teaching_building
f 11 10 9 8
f 8 9 13 12
f 9 10 14 13
f 10 11 15 14
f 11 8 12 15
