# school_id SD0484
# school_name 莱州一中
# boundary_source footprint_convex_hull_buffer_20m
# adjacent_block_merge_distance_m 2.0
mtllib ../campus_materials.mtl
o SD0484_campus_boundary
usemtl campus_boundary
v 205.057 -282.305 0.050
v 117.097 -278.680 0.050
v -51.307 -216.867 0.050
v -286.884 2.070 0.050
v -302.190 49.355 0.050
v -300.395 75.335 0.050
v -277.032 131.829 0.050
v -68.772 136.285 0.050
v 291.032 109.240 0.050
v 288.072 56.301 0.050
v 277.700 -78.491 0.050
v 238.108 -216.053 0.050
v 205.057 -282.305 0.050
l 1 2 3 4 5 6 7 8 9 10 11 12 13 1
o SD0484_T001_1hao
v -225.482 109.515 0.000
v -226.794 90.646 0.000
v -264.856 93.243 0.000
v -263.543 112.113 0.000
v -225.482 109.515 14.760
v -226.794 90.646 14.760
v -264.856 93.243 14.760
v -263.543 112.113 14.760
usemtl roof
f 18 19 20 21
usemtl teaching_building
f 17 16 15 14
f 14 15 19 18
f 15 16 20 19
f 16 17 21 20
f 17 14 18 21
o SD0484_T002_2hao
v -169.366 99.865 0.000
v -170.678 80.985 0.000
v -208.739 83.593 0.000
v -207.436 102.463 0.000
v -169.366 99.865 14.710
v -170.678 80.985 14.710
v -208.739 83.593 14.710
v -207.436 102.463 14.710
usemtl roof
f 26 27 28 29
usemtl teaching_building
f 25 24 23 22
f 22 23 27 26
f 23 24 28 27
f 24 25 29 28
f 25 22 26 29
o SD0484_T003_3hao
v -120.699 97.566 0.000
v -122.011 78.685 0.000
v -160.072 81.294 0.000
v -158.769 100.163 0.000
v -120.699 97.566 9.900
v -122.011 78.685 9.900
v -160.072 81.294 9.900
v -158.769 100.163 9.900
usemtl roof
f 34 35 36 37
usemtl teaching_building
f 33 32 31 30
f 30 31 35 34
f 31 32 36 35
f 32 33 37 36
f 33 30 34 37
o SD0484_T004_4hao
v 187.000 75.579 0.000
v 193.952 68.217 0.000
v 224.085 63.619 0.000
v 234.745 58.092 0.000
v 268.115 57.627 0.000
v 269.968 90.767 0.000
v 204.611 94.913 0.000
v 204.150 88.468 0.000
v 188.392 88.932 0.000
v 187.000 75.579 11.050
v 193.952 68.217 11.050
v 224.085 63.619 11.050
v 234.745 58.092 11.050
v 268.115 57.627 11.050
v 269.968 90.767 11.050
v 204.611 94.913 11.050
v 204.150 88.468 11.050
v 188.392 88.932 11.050
usemtl roof
f 47 48 49 50 51 52 53 54 55
usemtl teaching_building
f 46 45 44 43 42 41 40 39 38
f 38 39 48 47
f 39 40 49 48
f 40 41 50 49
f 41 42 51 50
f 42 43 52 51
f 43 44 53 52
f 44 45 54 53
f 45 46 55 54
f 46 38 47 55
o SD0484_T005_5hao
v -74.266 31.739 0.000
v -71.662 76.143 0.000
v -112.798 78.995 0.000
v -111.485 97.864 0.000
v -70.560 94.935 0.000
v -69.309 116.269 0.000
v -47.468 114.124 0.000
v -52.948 30.822 0.000
v -74.266 31.739 9.900
v -71.662 76.143 9.900
v -112.798 78.995 9.900
v -111.485 97.864 9.900
v -70.560 94.935 9.900
v -69.309 116.269 9.900
v -47.468 114.124 9.900
v -52.948 30.822 9.900
usemtl roof
f 64 65 66 67 68 69 70 71
usemtl teaching_building
f 63 62 61 60 59 58 57 56
f 56 57 65 64
f 57 58 66 65
f 58 59 67 66
f 59 60 68 67
f 60 61 69 68
f 61 62 70 69
f 62 63 71 70
f 63 56 64 71
o SD0484_T005_5hao_seg02
v -74.266 31.739 0.000
v -112.336 34.348 0.000
v -111.024 53.217 0.000
v -73.149 50.829 0.000
v -74.266 31.739 9.900
v -112.336 34.348 9.900
v -111.024 53.217 9.900
v -73.149 50.829 9.900
usemtl roof
f 76 77 78 79
usemtl teaching_building
f 75 74 73 72
f 72 73 77 76
f 73 74 78 77
f 74 75 79 78
f 75 72 76 79
o SD0484_T006_6hao
v 55.427 89.275 0.000
v 52.270 40.030 0.000
v -22.416 32.966 0.000
v -21.565 91.873 0.000
v 55.427 89.275 10.580
v 52.270 40.030 10.580
v -22.416 32.966 10.580
v -21.565 91.873 10.580
usemtl roof
f 84 85 86 87
usemtl teaching_building
f 83 82 81 80
f 80 81 85 84
f 81 82 86 85
f 82 83 87 86
f 83 80 84 87
o SD0484_T007_7hao
v -242.606 68.107 0.000
v -243.910 49.226 0.000
v -281.971 51.835 0.000
v -280.667 70.704 0.000
v -242.606 68.107 13.850
v -243.910 49.226 13.850
v -281.971 51.835 13.850
v -280.667 70.704 13.850
usemtl roof
f 92 93 94 95
usemtl teaching_building
f 91 90 89 88
f 88 89 93 92
f 89 90 94 93
f 90 91 95 94
f 91 88 92 95
o SD0484_T008_8hao
v -173.543 58.899 0.000
v -174.855 40.030 0.000
v -212.916 42.638 0.000
v -211.604 61.496 0.000
v -173.543 58.899 10.270
v -174.855 40.030 10.270
v -212.916 42.638 10.270
v -211.604 61.496 10.270
usemtl roof
f 100 101 102 103
usemtl teaching_building
f 99 98 97 96
f 96 97 101 100
f 97 98 102 101
f 98 99 103 102
f 99 96 100 103
o SD0484_T009_9hao
v -123.483 56.599 0.000
v -124.796 37.730 0.000
v -162.857 40.328 0.000
v -161.544 59.197 0.000
v -123.483 56.599 14.450
v -124.796 37.730 14.450
v -162.857 40.328 14.450
v -161.544 59.197 14.450
usemtl roof
f 108 109 110 111
usemtl teaching_building
f 107 106 105 104
f 104 105 109 108
f 105 106 110 109
f 106 107 111 110
f 107 104 108 111
o SD0484_T010_10hao
v -230.093 29.440 0.000
v -231.397 10.571 0.000
v -269.458 13.179 0.000
v -268.154 32.037 0.000
v -230.093 29.440 18.680
v -231.397 10.571 18.680
v -269.458 13.179 18.680
v -268.154 32.037 18.680
usemtl roof
f 116 117 118 119
usemtl teaching_building
f 115 114 113 112
f 112 113 117 116
f 113 114 118 117
f 114 115 119 118
f 115 112 116 119
o SD0484_T011_11hao
v -175.396 21.614 0.000
v -176.709 2.744 0.000
v -214.770 5.353 0.000
v -213.457 24.222 0.000
v -175.396 21.614 12.390
v -176.709 2.744 12.390
v -214.770 5.353 12.390
v -213.457 24.222 12.390
usemtl roof
f 124 125 126 127
usemtl teaching_building
f 123 122 121 120
f 120 121 125 124
f 121 122 126 125
f 122 123 127 126
f 123 120 124 127
o SD0484_T012_12hao
v -118.845 14.252 0.000
v -120.158 -4.618 0.000
v -158.219 -2.009 0.000
v -156.907 16.849 0.000
v -118.845 14.252 13.320
v -120.158 -4.618 13.320
v -158.219 -2.009 13.320
v -156.907 16.849 13.320
usemtl roof
f 132 133 134 135
usemtl teaching_building
f 131 130 129 128
f 128 129 133 132
f 129 130 134 133
f 130 131 135 134
f 131 128 132 135
o SD0484_T013_13hao
v 73.446 76.043 0.000
v 118.407 53.029 0.000
v 118.407 32.778 0.000
v 135.087 17.126 0.000
v 129.527 4.701 0.000
v 170.319 -12.786 0.000
v 170.780 -39.946 0.000
v 189.323 -41.781 0.000
v 185.146 -62.032 0.000
v 237.990 -84.129 0.000
v 236.598 -74.457 0.000
v 257.916 -74.921 0.000
v 259.309 -50.072 0.000
v 233.813 -48.226 0.000
v 231.499 -7.259 0.000
v 208.788 -8.641 0.000
v 206.935 15.291 0.000
v 180.047 17.126 0.000
v 140.647 35.077 0.000
v 163.828 37.841 0.000
v 163.828 49.812 0.000
v 148.531 61.320 0.000
v 151.315 82.024 0.000
v 132.311 81.106 0.000
v 84.105 103.656 0.000
v 73.446 76.043 11.140
v 118.407 53.029 11.140
v 118.407 32.778 11.140
v 135.087 17.126 11.140
v 129.527 4.701 11.140
v 170.319 -12.786 11.140
v 170.780 -39.946 11.140
v 189.323 -41.781 11.140
v 185.146 -62.032 11.140
v 237.990 -84.129 11.140
v 236.598 -74.457 11.140
v 257.916 -74.921 11.140
v 259.309 -50.072 11.140
v 233.813 -48.226 11.140
v 231.499 -7.259 11.140
v 208.788 -8.641 11.140
v 206.935 15.291 11.140
v 180.047 17.126 11.140
v 140.647 35.077 11.140
v 163.828 37.841 11.140
v 163.828 49.812 11.140
v 148.531 61.320 11.140
v 151.315 82.024 11.140
v 132.311 81.106 11.140
v 84.105 103.656 11.140
usemtl roof
f 161 162 163 164 165 166 167 168 169 170 171 172 173 174 175 176 177 178 179 180 181 182 183 184 185
usemtl teaching_building
f 160 159 158 157 156 155 154 153 152 151 150 149 148 147 146 145 144 143 142 141 140 139 138 137 136
f 136 137 162 161
f 137 138 163 162
f 138 139 164 163
f 139 140 165 164
f 140 141 166 165
f 141 142 167 166
f 142 143 168 167
f 143 144 169 168
f 144 145 170 169
f 145 146 171 170
f 146 147 172 171
f 147 148 173 172
f 148 149 174 173
f 149 150 175 174
f 150 151 176 175
f 151 152 177 176
f 152 153 178 177
f 153 154 179 178
f 154 155 180 179
f 155 156 181 180
f 156 157 182 181
f 157 158 183 182
f 158 159 184 183
f 159 160 185 184
f 160 136 161 185
o SD0484_T014_14hao
v -62.304 11.035 0.000
v -63.607 -7.845 0.000
v -101.668 -5.237 0.000
v -100.365 13.633 0.000
v -62.304 11.035 15.550
v -63.607 -7.845 15.550
v -101.668 -5.237 15.550
v -100.365 13.633 15.550
usemtl roof
f 190 191 192 193
usemtl teaching_building
f 189 188 187 186
f 186 187 191 190
f 187 188 192 191
f 188 189 193 192
f 189 186 190 193
o SD0484_T015_15hao
v -40.639 -199.478 0.000
v 76.621 -204.496 0.000
v 77.082 -184.245 0.000
v 59.932 -183.317 0.000
v 59.470 -151.558 0.000
v 52.518 -152.023 0.000
v 53.910 -129.926 0.000
v 49.733 -129.926 0.000
v 49.733 -119.347 0.000
v -36.941 -119.800 0.000
v -40.639 -199.478 14.280
v 76.621 -204.496 14.280
v 77.082 -184.245 14.280
v 59.932 -183.317 14.280
v 59.470 -151.558 14.280
v 52.518 -152.023 14.280
v 53.910 -129.926 14.280
v 49.733 -129.926 14.280
v 49.733 -119.347 14.280
v -36.941 -119.800 14.280
usemtl roof
f 204 205 206 207 208 209 210 211 212 213
usemtl teaching_building
f 203 202 201 200 199 198 197 196 195 194
f 194 195 205 204
f 195 196 206 205
f 196 197 207 206
f 197 198 208 207
f 198 199 209 208
f 199 200 210 209
f 200 201 211 210
f 201 202 212 211
f 202 203 213 212
f 203 194 204 213
o SD0484_T016_16hao
v 178.797 -206.386 0.000
v 219.394 -208.763 0.000
v 223.376 -181.493 0.000
v 179.595 -179.912 0.000
v 178.797 -206.386 10.420
v 219.394 -208.763 10.420
v 223.376 -181.493 10.420
v 179.595 -179.912 10.420
usemtl roof
f 218 219 220 221
usemtl teaching_building
f 217 216 215 214
f 214 215 219 218
f 215 216 220 219
f 216 217 221 220
f 217 214 218 221
o SD0484_T017_17hao
v 121.049 -258.826 0.000
v 192.941 -261.789 0.000
v 194.733 -219.198 0.000
v 122.840 -216.213 0.000
v 121.049 -258.826 12.000
v 192.941 -261.789 12.000
v 194.733 -219.198 12.000
v 122.840 -216.213 12.000
usemtl roof
f 226 227 228 229
usemtl teaching_building
f 225 224 223 222
f 222 223 227 226
f 223 224 228 227
f 224 225 229 228
f 225 222 226 229
