# school_id SD0495
# school_name 莱州汇泉学校
# boundary_source footprint_convex_hull_buffer_20m
# adjacent_block_merge_distance_m 2.0
mtllib ../campus_materials.mtl
o SD0495_campus_boundary
usemtl campus_boundary
v 10.690 -110.599 0.050
v -47.386 -97.704 0.050
v -64.702 -75.292 0.050
v -80.576 -53.682 0.050
v -110.259 140.299 0.050
v -110.508 173.395 0.050
v 115.145 175.474 0.050
v 115.831 143.178 0.050
v 112.573 -27.770 0.050
v 105.197 -81.929 0.050
v 70.215 -110.115 0.050
v 10.690 -110.599 0.050
l 1 2 3 4 5 6 7 8 9 10 11 12 1
o SD0495_T001_1hao
v 95.569 155.293 0.000
v 95.827 143.156 0.000
v -90.270 141.895 0.000
v -90.358 153.580 0.000
v 95.569 155.293 13.620
v 95.827 143.156 13.620
v -90.270 141.895 13.620
v -90.358 153.580 13.620
usemtl roof
f 17 18 19 20
usemtl teaching_building
f 16 15 14 13
f 13 14 18 17
f 14 15 19 18
f 15 16 20 19
f 16 13 17 20
o SD0495_T002_2hao
v -69.547 108.048 0.000
v 15.419 107.529 0.000
v 15.534 126.508 0.000
v -69.432 127.017 0.000
v -69.547 108.048 13.680
v 15.419 107.529 13.680
v 15.534 126.508 13.680
v -69.432 127.017 13.680
usemtl roof
f 25 26 27 28
usemtl teaching_building
f 24 23 22 21
f 21 22 26 25
f 22 23 27 26
f 23 24 28 27
f 24 21 25 28
o SD0495_T003_3hao
v -69.290 76.478 0.000
v -30.992 76.268 0.000
v -30.930 87.830 0.000
v -69.228 88.040 0.000
v -69.290 76.478 11.820
v -30.992 76.268 11.820
v -30.930 87.830 11.820
v -69.228 88.040 11.820
usemtl roof
f 33 34 35 36
usemtl teaching_building
f 32 31 30 29
f 29 30 34 33
f 30 31 35 34
f 31 32 36 35
f 32 29 33 36
o SD0495_T004_4hao
v -25.956 63.390 0.000
v 16.855 63.545 0.000
v 16.731 99.691 0.000
v -26.089 99.548 0.000
v -25.956 63.390 6.690
v 16.855 63.545 6.690
v 16.731 99.691 6.690
v -26.089 99.548 6.690
usemtl roof
f 41 42 43 44
usemtl teaching_building
f 40 39 38 37
f 37 38 42 41
f 38 39 43 42
f 39 40 44 43
f 40 37 41 44
o SD0495_T005_5hao
v -59.749 41.967 0.000
v -10.784 42.266 0.000
v -10.864 55.033 0.000
v -59.820 54.735 0.000
v -59.749 41.967 12.800
v -10.784 42.266 12.800
v -10.864 55.033 12.800
v -59.820 54.735 12.800
usemtl roof
f 49 50 51 52
usemtl teaching_building
f 48 47 46 45
f 45 46 50 49
f 46 47 51 50
f 47 48 52 51
f 48 45 49 52
o SD0495_T006_6hao
v -60.396 12.354 0.000
v -34.318 12.707 0.000
v -34.521 27.365 0.000
v -60.600 27.011 0.000
v -60.396 12.354 9.630
v -34.318 12.707 9.630
v -34.521 27.365 9.630
v -60.600 27.011 9.630
usemtl roof
f 57 58 59 60
usemtl teaching_building
f 56 55 54 53
f 53 54 58 57
f 54 55 59 58
f 55 56 60 59
f 56 53 57 60
o SD0495_T007_7hao
v -30.443 -10.263 0.000
v -10.881 -10.197 0.000
v -11.006 27.851 0.000
v -30.567 27.796 0.000
v -30.443 -10.263 8.870
v -10.881 -10.197 8.870
v -11.006 27.851 8.870
v -30.567 27.796 8.870
usemtl roof
f 65 66 67 68
usemtl teaching_building
f 64 63 62 61
f 61 62 66 65
f 62 63 67 66
f 63 64 68 67
f 64 61 65 68
o SD0495_T008_8hao
v -61.229 -12.440 0.000
v -35.151 -12.087 0.000
v -35.355 2.571 0.000
v -61.425 2.217 0.000
v -61.229 -12.440 11.740
v -35.151 -12.087 11.740
v -35.355 2.571 11.740
v -61.425 2.217 11.740
usemtl roof
f 73 74 75 76
usemtl teaching_building
f 72 71 70 69
f 69 70 74 73
f 70 71 75 74
f 71 72 76 75
f 72 69 73 76
o SD0495_T009_9hao
v 37.259 -17.061 0.000
v 37.259 -40.131 0.000
v 34.519 -57.430 0.000
v 30.768 -59.807 0.000
v 20.172 -55.396 0.000
v 10.604 -57.430 0.000
v 6.853 -65.920 0.000
v 11.295 -75.072 0.000
v 35.210 -79.826 0.000
v 38.961 -70.662 0.000
v 86.454 -71.347 0.000
v 87.820 -54.379 0.000
v 72.107 -54.379 0.000
v 70.395 -60.150 0.000
v 41.355 -59.464 0.000
v 48.192 -36.737 0.000
v 89.868 -37.754 0.000
v 92.599 -26.225 0.000
v 50.240 -24.523 0.000
v 51.606 -2.812 0.000
v 88.156 -1.453 0.000
v 89.185 9.734 0.000
v 57.414 8.717 0.000
v 56.048 21.274 0.000
v 32.816 20.932 0.000
v 37.259 -17.061 16.860
v 37.259 -40.131 16.860
v 34.519 -57.430 16.860
v 30.768 -59.807 16.860
v 20.172 -55.396 16.860
v 10.604 -57.430 16.860
v 6.853 -65.920 16.860
v 11.295 -75.072 16.860
v 35.210 -79.826 16.860
v 38.961 -70.662 16.860
v 86.454 -71.347 16.860
v 87.820 -54.379 16.860
v 72.107 -54.379 16.860
v 70.395 -60.150 16.860
v 41.355 -59.464 16.860
v 48.192 -36.737 16.860
v 89.868 -37.754 16.860
v 92.599 -26.225 16.860
v 50.240 -24.523 16.860
v 51.606 -2.812 16.860
v 88.156 -1.453 16.860
v 89.185 9.734 16.860
v 57.414 8.717 16.860
v 56.048 21.274 16.860
v 32.816 20.932 16.860
usemtl roof
f 102 103 104 105 106 107 108 109 110 111 112 113 114 115 116 117 118 119 120 121 122 123 124 125 126
usemtl teaching_building
f 101 100 99 98 97 96 95 94 93 92 91 90 89 88 87 86 85 84 83 82 81 80 79 78 77
f 77 78 103 102
f 78 79 104 103
f 79 80 105 104
f 80 81 106 105
f 81 82 107 106
f 82 83 108 107
f 83 84 109 108
f 84 85 110 109
f 85 86 111 110
f 86 87 112 111
f 87 88 113 112
f 88 89 114 113
f 89 90 115 114
f 90 91 116 115
f 91 92 117 116
f 92 93 118 117
f 93 94 119 118
f 94 95 120 119
f 95 96 121 120
f 96 97 122 121
f 97 98 123 122
f 98 99 124 123
f 99 100 125 124
f 100 101 126 125
f 101 77 102 126
o SD0495_T010_10hao
v -52.823 -34.018 0.000
v -61.451 -33.941 0.000
v -61.549 -45.801 0.000
v -48.576 -45.912 0.000
v -48.727 -63.256 0.000
v -35.843 -63.366 0.000
v -35.985 -79.748 0.000
v -22.196 -79.859 0.000
v -21.886 -43.347 0.000
v -28.013 -43.292 0.000
v -27.907 -30.237 0.000
v -35.453 -30.182 0.000
v -35.373 -21.007 0.000
v -52.717 -20.864 0.000
v -52.823 -34.018 11.970
v -61.451 -33.941 11.970
v -61.549 -45.801 11.970
v -48.576 -45.912 11.970
v -48.727 -63.256 11.970
v -35.843 -63.366 11.970
v -35.985 -79.748 11.970
v -22.196 -79.859 11.970
v -21.886 -43.347 11.970
v -28.013 -43.292 11.970
v -27.907 -30.237 11.970
v -35.453 -30.182 11.970
v -35.373 -21.007 11.970
v -52.717 -20.864 11.970
usemtl roof
f 141 142 143 144 145 146 147 148 149 150 151 152 153 154
usemtl teaching_building
f 140 139 138 137 136 135 134 133 132 131 130 129 128 127
f 127 128 142 141
f 128 129 143 142
f 129 130 144 143
f 130 131 145 144
f 131 132 146 145
f 132 133 147 146
f 133 134 148 147
f 134 135 149 148
f 135 136 150 149
f 136 137 151 150
f 137 138 152 151
f 138 139 153 152
f 139 140 154 153
f 140 127 141 154
