# school_id SD0449
# school_name 烟台奇山中学
# boundary_source footprint_convex_hull_buffer_20m
# adjacent_block_merge_distance_m 2.0
mtllib ../campus_materials.mtl
o SD0449_campus_boundary
usemtl campus_boundary
v -88.073 -70.222 0.050
v -108.653 -42.622 0.050
v -22.141 42.140 0.050
v -2.483 58.328 0.050
v 28.967 52.834 0.050
v 63.838 11.032 0.050
v 28.064 -29.571 0.050
v 19.441 -36.670 0.050
v -88.073 -70.222 0.050
l 1 2 3 4 5 6 7 8 9 1
o SD0449_T001_1hao
v -1.730 18.828 0.000
v 5.605 24.869 0.000
v 18.276 9.674 0.000
v 8.854 1.919 0.000
v 1.897 10.248 0.000
v -5.504 4.161 0.000
v 4.746 -8.116 0.000
v 2.459 -10.006 0.000
v 9.749 -18.743 0.000
v 14.116 -15.148 0.000
v 7.536 -7.273 0.000
v 12.147 -3.474 0.000
v 15.804 -7.856 0.000
v 22.753 -2.140 0.000
v 20.222 0.890 0.000
v 26.062 5.699 0.000
v 23.360 8.932 0.000
v 24.885 10.183 0.000
v 29.422 4.745 0.000
v 37.496 11.388 0.000
v 18.305 34.394 0.000
v 10.615 28.075 0.000
v 3.133 37.044 0.000
v -8.761 27.250 0.000
v -1.730 18.828 9.900
v 5.605 24.869 9.900
v 18.276 9.674 9.900
v 8.854 1.919 9.900
v 1.897 10.248 9.900
v -5.504 4.161 9.900
v 4.746 -8.116 9.900
v 2.459 -10.006 9.900
v 9.749 -18.743 9.900
v 14.116 -15.148 9.900
v 7.536 -7.273 9.900
v 12.147 -3.474 9.900
v 15.804 -7.856 9.900
v 22.753 -2.140 9.900
v 20.222 0.890 9.900
v 26.062 5.699 9.900
v 23.360 8.932 9.900
v 24.885 10.183 9.900
v 29.422 4.745 9.900
v 37.496 11.388 9.900
v 18.305 34.394 9.900
v 10.615 28.075 9.900
v 3.133 37.044 9.900
v -8.761 27.250 9.900
usemtl roof
f 34 35 36 37 38 39 40 41 42 43 44 45 46 47 48 49 50 51 52 53 54 55 56 57
usemtl teaching_building
f 33 32 31 30 29 28 27 26 25 24 23 22 21 20 19 18 17 16 15 14 13 12 11 10
f 10 11 35 34
f 11 12 36 35
f 12 13 37 36
f 13 14 38 37
f 14 15 39 38
f 15 16 40 39
f 16 17 41 40
f 17 18 42 41
f 18 19 43 42
f 19 20 44 43
f 20 21 45 44
f 21 22 46 45
f 22 23 47 46
f 23 24 48 47
f 24 25 49 48
f 25 26 50 49
f 26 27 51 50
f 27 28 52 51
f 28 29 53 52
f 29 30 54 53
f 30 31 55 54
f 31 32 56 55
f 32 33 57 56
f 33 10 34 57
