# school_id SD0472
# school_name 烟台船舶工业学校(新校区)
# boundary_source footprint_convex_hull_buffer_20m
# adjacent_block_merge_distance_m 2.0
mtllib ../campus_materials.mtl
o SD0472_campus_boundary
usemtl campus_boundary
v 71.750 -49.996 0.050
v -57.513 -49.324 0.050
v -56.991 52.505 0.050
v -9.572 52.274 0.050
v 72.059 9.144 0.050
v 71.750 -49.996 0.050
l 1 2 3 4 5 6 1
o SD0472_T001_1hao
v -37.094 32.408 0.000
v -37.411 -29.428 0.000
v 51.855 -29.892 0.000
v 51.996 -2.876 0.000
v -14.771 -2.511 0.000
v -14.577 32.298 0.000
v -37.094 32.408 7.250
v -37.411 -29.428 7.250
v 51.855 -29.892 7.250
v 51.996 -2.876 7.250
v -14.771 -2.511 7.250
v -14.577 32.298 7.250
usemtl roof
f 13 14 15 16 17 18
usemtl teaching_building
f 12 11 10 9 8 7
f 7 8 14 13
f 8 9 15 14
f 9 10 16 15
f 10 11 17 16
f 11 12 18 17
f 12 7 13 18
