# school_id SD0462
# school_name 烟台港城中学
# boundary_source footprint_convex_hull_buffer_20m
# adjacent_block_merge_distance_m 2.0
mtllib ../campus_materials.mtl
o SD0462_campus_boundary
usemtl campus_boundary
v 93.667 -141.329 0.050
v -90.631 -131.559 0.050
v -99.030 -92.473 0.050
v -98.966 -67.292 0.050
v -96.523 164.019 0.050
v -82.531 187.759 0.050
v -33.702 186.660 0.050
v 196.704 180.494 0.050
v 196.621 102.835 0.050
v 124.757 -141.329 0.050
v 93.667 -141.329 0.050
l 1 2 3 4 5 6 7 8 9 10 11 1
o SD0462_T001_1hao
v 64.075 143.104 0.000
v 64.312 163.720 0.000
v 11.208 164.313 0.000
v 10.978 143.688 0.000
v 64.075 143.104 9.900
v 64.312 163.720 9.900
v 11.208 164.313 9.900
v 10.978 143.688 9.900
usemtl roof
f 16 17 18 19
usemtl teaching_building
f 15 14 13 12
f 12 13 17 16
f 13 14 18 17
f 14 15 19 18
f 15 12 16 19
o SD0462_T002_2hao
v -60.420 111.565 0.000
v -59.161 107.099 0.000
v -55.932 104.245 0.000
v -49.636 102.818 0.000
v -45.689 104.421 0.000
v -42.696 107.210 0.000
v -41.378 111.203 0.000
v -29.883 111.380 0.000
v -29.528 158.114 0.000
v -34.194 158.114 0.000
v -34.194 166.666 0.000
v -71.256 167.500 0.000
v -71.456 158.448 0.000
v -76.581 158.466 0.000
v -76.944 111.741 0.000
v -60.420 111.565 9.900
v -59.161 107.099 9.900
v -55.932 104.245 9.900
v -49.636 102.818 9.900
v -45.689 104.421 9.900
v -42.696 107.210 9.900
v -41.378 111.203 9.900
v -29.883 111.380 9.900
v -29.528 158.114 9.900
v -34.194 158.114 9.900
v -34.194 166.666 9.900
v -71.256 167.500 9.900
v -71.456 158.448 9.900
v -76.581 158.466 9.900
v -76.944 111.741 9.900
usemtl roof
f 35 36 37 38 39 40 41 42 43 44 45 46 47 48 49
usemtl teaching_building
f 34 33 32 31 30 29 28 27 26 25 24 23 22 21 20
f 20 21 36 35
f 21 22 37 36
f 22 23 38 37
f 23 24 39 38
f 24 25 40 39
f 25 26 41 40
f 26 27 42 41
f 27 28 43 42
f 28 29 44 43
f 29 30 45 44
f 30 31 46 45
f 31 32 47 46
f 32 33 48 47
f 33 34 49 48
f 34 20 35 49
o SD0462_T003_3hao
v 143.591 105.496 0.000
v 143.584 97.630 0.000
v 165.981 97.602 0.000
v 165.995 105.737 0.000
v 176.624 105.728 0.000
v 176.683 161.023 0.000
v 131.415 161.060 0.000
v 131.355 105.505 0.000
v 143.591 105.496 9.900
v 143.584 97.630 9.900
v 165.981 97.602 9.900
v 165.995 105.737 9.900
v 176.624 105.728 9.900
v 176.683 161.023 9.900
v 131.415 161.060 9.900
v 131.355 105.505 9.900
usemtl roof
f 58 59 60 61 62 63 64 65
usemtl teaching_building
f 57 56 55 54 53 52 51 50
f 50 51 59 58
f 51 52 60 59
f 52 53 61 60
f 53 54 62 61
f 54 55 63 62
f 55 56 64 63
f 56 57 65 64
f 57 50 58 65
o SD0462_T004_4hao
v 63.349 98.510 0.000
v 63.586 119.125 0.000
v 10.482 119.718 0.000
v 10.252 99.094 0.000
v 63.349 98.510 9.900
v 63.586 119.125 9.900
v 10.482 119.718 9.900
v 10.252 99.094 9.900
usemtl roof
f 70 71 72 73
usemtl teaching_building
f 69 68 67 66
f 66 67 71 70
f 67 68 72 71
f 68 69 73 72
f 69 66 70 73
o SD0462_T005_5hao
v -49.932 58.669 0.000
v -24.328 67.137 0.000
v -5.605 68.323 0.000
v 7.905 67.610 0.000
v 21.881 64.321 0.000
v 12.874 35.830 0.000
v 0.550 39.601 0.000
v -14.848 39.601 0.000
v -28.365 38.897 0.000
v -42.111 34.662 0.000
v -49.932 58.669 9.900
v -24.328 67.137 9.900
v -5.605 68.323 9.900
v 7.905 67.610 9.900
v 21.881 64.321 9.900
v 12.874 35.830 9.900
v 0.550 39.601 9.900
v -14.848 39.601 9.900
v -28.365 38.897 9.900
v -42.111 34.662 9.900
usemtl roof
f 84 85 86 87 88 89 90 91 92 93
usemtl teaching_building
f 83 82 81 80 79 78 77 76 75 74
f 74 75 85 84
f 75 76 86 85
f 76 77 87 86
f 77 78 88 87
f 78 79 89 88
f 79 80 90 89
f 80 81 91 90
f 81 82 92 91
f 82 83 93 92
f 83 74 84 93
o SD0462_T005_5hao_seg02
v -70.189 45.373 0.000
v -69.360 49.728 0.000
v -54.665 55.259 0.000
v -49.570 53.314 0.000
v -45.659 41.250 0.000
v -46.733 36.895 0.000
v -51.117 36.895 0.000
v -57.754 31.364 0.000
v -63.908 32.309 0.000
v -70.189 45.373 9.900
v -69.360 49.728 9.900
v -54.665 55.259 9.900
v -49.570 53.314 9.900
v -45.659 41.250 9.900
v -46.733 36.895 9.900
v -51.117 36.895 9.900
v -57.754 31.364 9.900
v -63.908 32.309 9.900
usemtl roof
f 103 104 105 106 107 108 109 110 111
usemtl teaching_building
f 102 101 100 99 98 97 96 95 94
f 94 95 104 103
f 95 96 105 104
f 96 97 106 105
f 97 98 107 106
f 98 99 108 107
f 99 100 109 108
f 100 101 110 109
f 101 102 111 110
f 102 94 103 111
o SD0462_T006_6hao
v 28.087 -17.993 0.000
v 27.969 -28.435 0.000
v 24.221 -28.388 0.000
v 24.066 -41.990 0.000
v 28.391 -42.027 0.000
v 28.272 -53.006 0.000
v 7.831 -52.775 0.000
v 7.712 -63.189 0.000
v 28.317 -63.421 0.000
v 28.154 -76.994 0.000
v 25.702 -76.957 0.000
v 25.539 -90.791 0.000
v 26.769 -90.800 0.000
v 26.665 -100.371 0.000
v -0.361 -100.065 0.000
v -0.479 -111.591 0.000
v 47.159 -112.129 0.000
v 47.292 -100.130 0.000
v 42.671 -100.074 0.000
v 42.782 -90.096 0.000
v 52.395 -90.207 0.000
v 52.529 -77.856 0.000
v 43.248 -77.745 0.000
v 43.382 -65.867 0.000
v 52.632 -65.959 0.000
v 52.758 -54.952 0.000
v 42.937 -54.841 0.000
v 43.085 -41.425 0.000
v 51.121 -41.508 0.000
v 51.262 -28.518 0.000
v 43.863 -28.435 0.000
v 43.967 -19.836 0.000
v 50.114 -19.911 0.000
v 50.255 -7.069 0.000
v -0.502 -6.504 0.000
v -0.628 -17.668 0.000
v 28.087 -17.993 9.900
v 27.969 -28.435 9.900
v 24.221 -28.388 9.900
v 24.066 -41.990 9.900
v 28.391 -42.027 9.900
v 28.272 -53.006 9.900
v 7.831 -52.775 9.900
v 7.712 -63.189 9.900
v 28.317 -63.421 9.900
v 28.154 -76.994 9.900
v 25.702 -76.957 9.900
v 25.539 -90.791 9.900
v 26.769 -90.800 9.900
v 26.665 -100.371 9.900
v -0.361 -100.065 9.900
v -0.479 -111.591 9.900
v 47.159 -112.129 9.900
v 47.292 -100.130 9.900
v 42.671 -100.074 9.900
v 42.782 -90.096 9.900
v 52.395 -90.207 9.900
v 52.529 -77.856 9.900
v 43.248 -77.745 9.900
v 43.382 -65.867 9.900
v 52.632 -65.959 9.900
v 52.758 -54.952 9.900
v 42.937 -54.841 9.900
v 43.085 -41.425 9.900
v 51.121 -41.508 9.900
v 51.262 -28.518 9.900
v 43.863 -28.435 9.900
v 43.967 -19.836 9.900
v 50.114 -19.911 9.900
v 50.255 -7.069 9.900
v -0.502 -6.504 9.900
v -0.628 -17.668 9.900
usemtl roof
f 148 149 150 151 152 153 154 155 156 157 158 159 160 161 162 163 164 165 166 167 168 169 170 171 172 173 174 175 176 177 178 179 180 181 182 183
usemtl teaching_building
f 147 146 145 144 143 142 141 140 139 138 137 136 135 134 133 132 131 130 129 128 127 126 125 124 123 122 121 120 119 118 117 116 115 114 113 112
f 112 113 149 148
f 113 114 150 149
f 114 115 151 150
f 115 116 152 151
f 116 117 153 152
f 117 118 154 153
f 118 119 155 154
f 119 120 156 155
f 120 121 157 156
f 121 122 158 157
f 122 123 159 158
f 123 124 160 159
f 124 125 161 160
f 125 126 162 161
f 126 127 163 162
f 127 128 164 163
f 128 129 165 164
f 129 130 166 165
f 130 131 167 166
f 131 132 168 167
f 132 133 169 168
f 133 134 170 169
f 134 135 171 170
f 135 136 172 171
f 136 137 173 172
f 137 138 174 173
f 138 139 175 174
f 139 140 176 175
f 140 141 177 176
f 141 142 178 177
f 142 143 179 178
f 143 144 180 179
f 144 145 181 180
f 145 146 182 181
f 146 147 183 182
f 147 112 148 183
o SD0462_T007_7hao
v -69.426 -90.466 0.000
v -69.537 -100.454 0.000
v -74.152 -100.408 0.000
v -74.292 -112.397 0.000
v -26.647 -112.935 0.000
v -26.513 -101.399 0.000
v -53.532 -101.103 0.000
v -53.428 -91.532 0.000
v -52.199 -91.550 0.000
v -52.043 -77.726 0.000
v -54.487 -77.699 0.000
v -54.369 -66.951 0.000
v -33.749 -67.182 0.000
v -33.638 -56.768 0.000
v -54.162 -56.546 0.000
v -53.984 -40.980 0.000
v -49.703 -41.026 0.000
v -49.562 -28.490 0.000
v -53.243 -28.453 0.000
v -53.132 -18.706 0.000
v -24.395 -19.040 0.000
v -24.269 -7.866 0.000
v -75.025 -7.300 0.000
v -75.174 -20.142 0.000
v -69.019 -20.207 0.000
v -69.115 -28.815 0.000
v -76.522 -28.722 0.000
v -76.670 -41.712 0.000
v -68.745 -41.814 0.000
v -68.908 -56.537 0.000
v -78.840 -56.416 0.000
v -78.966 -67.423 0.000
v -69.597 -67.534 0.000
v -69.722 -78.125 0.000
v -78.884 -78.023 0.000
v -79.025 -90.374 0.000
v -69.426 -90.466 9.900
v -69.537 -100.454 9.900
v -74.152 -100.408 9.900
v -74.292 -112.397 9.900
v -26.647 -112.935 9.900
v -26.513 -101.399 9.900
v -53.532 -101.103 9.900
v -53.428 -91.532 9.900
v -52.199 -91.550 9.900
v -52.043 -77.726 9.900
v -54.487 -77.699 9.900
v -54.369 -66.951 9.900
v -33.749 -67.182 9.900
v -33.638 -56.768 9.900
v -54.162 -56.546 9.900
v -53.984 -40.980 9.900
v -49.703 -41.026 9.900
v -49.562 -28.490 9.900
v -53.243 -28.453 9.900
v -53.132 -18.706 9.900
v -24.395 -19.040 9.900
v -24.269 -7.866 9.900
v -75.025 -7.300 9.900
v -75.174 -20.142 9.900
v -69.019 -20.207 9.900
v -69.115 -28.815 9.900
v -76.522 -28.722 9.900
v -76.670 -41.712 9.900
v -68.745 -41.814 9.900
v -68.908 -56.537 9.900
v -78.840 -56.416 9.900
v -78.966 -67.423 9.900
v -69.597 -67.534 9.900
v -69.722 -78.125 9.900
v -78.884 -78.023 9.900
v -79.025 -90.374 9.900
usemtl roof
f 220 221 222 223 224 225 226 227 228 229 230 231 232 233 234 235 236 237 238 239 240 241 242 243 244 245 246 247 248 249 250 251 252 253 254 255
usemtl teaching_building
f 219 218 217 216 215 214 213 212 211 210 209 208 207 206 205 204 203 202 201 200 199 198 197 196 195 194 193 192 191 190 189 188 187 186 185 184
f 184 185 221 220
f 185 186 222 221
f 186 187 223 222
f 187 188 224 223
f 188 189 225 224
f 189 190 226 225
f 190 191 227 226
f 191 192 228 227
f 192 193 229 228
f 193 194 230 229
f 194 195 231 230
f 195 196 232 231
f 196 197 233 232
f 197 198 234 233
f 198 199 235 234
f 199 200 236 235
f 200 201 237 236
f 201 202 238 237
f 202 203 239 238
f 203 204 240 239
f 204 205 241 240
f 205 206 242 241
f 206 207 243 242
f 207 208 244 243
f 208 209 245 244
f 209 210 246 245
f 210 211 247 246
f 211 212 248 247
f 212 213 249 248
f 213 214 250 249
f 214 215 251 250
f 215 216 252 251
f 216 217 253 252
f 217 218 254 253
f 218 219 255 254
f 219 184 220 255
o SD0462_T008_8hao
v 109.795 -121.329 0.000
v 109.795 -98.351 0.000
v 94.197 -98.351 0.000
v 94.197 -121.329 0.000
v 109.795 -121.329 9.830
v 109.795 -98.351 9.830
v 94.197 -98.351 9.830
v 94.197 -121.329 9.830
usemtl roof
f 260 261 262 263
usemtl teaching_building
f 259 258 257 256
f 256 257 261 260
f 257 258 262 261
f 258 259 263 262
f 259 256 260 263
