# school_id SD0485
# school_name 莱州一中 (老校区)
# boundary_source footprint_convex_hull_buffer_20m
# adjacent_block_merge_distance_m 2.0
mtllib ../campus_materials.mtl
o SD0485_campus_boundary
usemtl campus_boundary
v 173.428 -88.881 0.050
v 124.994 -87.701 0.050
v 46.100 -85.513 0.050
v -206.568 -69.469 0.050
v -205.826 -39.485 0.050
v -202.646 -7.226 0.050
v -100.159 183.531 0.050
v -17.616 181.101 0.050
v 88.268 127.033 0.050
v 176.295 -2.602 0.050
v 175.884 -19.140 0.050
v 173.428 -88.881 0.050
l 1 2 3 4 5 6 7 8 9 10 11 12 1
o SD0485_T001_1hao
v -89.624 121.846 0.000
v -23.936 119.911 0.000
v -22.703 161.242 0.000
v -88.391 163.176 0.000
v -89.624 121.846 11.990
v -23.936 119.911 11.990
v -22.703 161.242 11.990
v -88.391 163.176 11.990
usemtl roof
f 17 18 19 20
usemtl teaching_building
f 16 15 14 13
f 13 14 18 17
f 14 15 19 18
f 15 16 20 19
f 16 13 17 20
o SD0485_T002_2hao
v -3.306 82.980 0.000
v 73.158 79.586 0.000
v 74.604 111.554 0.000
v 17.573 114.097 0.000
v 16.890 99.030 0.000
v -2.543 99.892 0.000
v -3.306 82.980 14.990
v 73.158 79.586 14.990
v 74.604 111.554 14.990
v 17.573 114.097 14.990
v 16.890 99.030 14.990
v -2.543 99.892 14.990
usemtl roof
f 27 28 29 30 31 32
usemtl teaching_building
f 26 25 24 23 22 21
f 21 22 28 27
f 22 23 29 28
f 23 24 30 29
f 24 25 31 30
f 25 26 32 31
f 26 21 27 32
o SD0485_T003_3hao
v -93.323 69.781 0.000
v -22.420 66.775 0.000
v -21.621 85.445 0.000
v -92.516 88.463 0.000
v -93.323 69.781 12.130
v -22.420 66.775 12.130
v -21.621 85.445 12.130
v -92.516 88.463 12.130
usemtl roof
f 37 38 39 40
usemtl teaching_building
f 36 35 34 33
f 33 34 38 37
f 34 35 39 38
f 35 36 40 39
f 36 33 37 40
o SD0485_T004_4hao
v -96.232 29.710 0.000
v -85.925 25.134 0.000
v -95.354 18.822 0.000
v -96.232 13.384 0.000
v -90.963 9.681 0.000
v -82.413 11.858 0.000
v -79.344 17.076 0.000
v -39.653 15.992 0.000
v -38.775 9.238 0.000
v -34.385 6.851 0.000
v -27.812 8.586 0.000
v -26.934 13.384 0.000
v -33.507 21.873 0.000
v -25.613 27.533 0.000
v -29.560 35.812 0.000
v -36.363 30.142 0.000
v -48.638 31.015 0.000
v -58.944 41.903 0.000
v -68.382 32.109 0.000
v -79.566 32.540 0.000
v -84.169 38.642 0.000
v -95.567 34.718 0.000
v -96.232 29.710 9.020
v -85.925 25.134 9.020
v -95.354 18.822 9.020
v -96.232 13.384 9.020
v -90.963 9.681 9.020
v -82.413 11.858 9.020
v -79.344 17.076 9.020
v -39.653 15.992 9.020
v -38.775 9.238 9.020
v -34.385 6.851 9.020
v -27.812 8.586 9.020
v -26.934 13.384 9.020
v -33.507 21.873 9.020
v -25.613 27.533 9.020
v -29.560 35.812 9.020
v -36.363 30.142 9.020
v -48.638 31.015 9.020
v -58.944 41.903 9.020
v -68.382 32.109 9.020
v -79.566 32.540 9.020
v -84.169 38.642 9.020
v -95.567 34.718 9.020
usemtl roof
f 63 64 65 66 67 68 69 70 71 72 73 74 75 76 77 78 79 80 81 82 83 84
usemtl teaching_building
f 62 61 60 59 58 57 56 55 54 53 52 51 50 49 48 47 46 45 44 43 42 41
f 41 42 64 63
f 42 43 65 64
f 43 44 66 65
f 44 45 67 66
f 45 46 68 67
f 46 47 69 68
f 47 48 70 69
f 48 49 71 70
f 49 50 72 71
f 50 51 73 72
f 51 52 74 73
f 52 53 75 74
f 53 54 76 75
f 54 55 77 76
f 55 56 78 77
f 56 57 79 78
f 57 58 80 79
f 58 59 81 80
f 59 60 82 81
f 60 61 83 82
f 61 62 84 83
f 62 41 63 84
o SD0485_T005_5hao
v 49.858 3.280 0.000
v 78.480 2.584 0.000
v 78.728 12.599 0.000
v 50.106 13.284 0.000
v 49.858 3.280 7.170
v 78.480 2.584 7.170
v 78.728 12.599 7.170
v 50.106 13.284 7.170
usemtl roof
f 89 90 91 92
usemtl teaching_building
f 88 87 86 85
f 85 86 90 89
f 86 87 91 90
f 87 88 92 91
f 88 85 89 92
o SD0485_T006_6hao
v -15.404 -0.898 0.000
v 45.556 -2.622 0.000
v 46.106 16.424 0.000
v -14.854 18.170 0.000
v -15.404 -0.898 10.120
v 45.556 -2.622 10.120
v 46.106 16.424 10.120
v -14.854 18.170 10.120
usemtl roof
f 97 98 99 100
usemtl teaching_building
f 96 95 94 93
f 93 94 98 97
f 94 95 99 98
f 95 96 100 99
f 96 93 97 100
o SD0485_T007_7hao
v 48.980 -14.793 0.000
v 77.602 -15.489 0.000
v 77.850 -5.474 0.000
v 49.228 -4.789 0.000
v 48.980 -14.793 7.170
v 77.602 -15.489 7.170
v 77.850 -5.474 7.170
v 49.228 -4.789 7.170
usemtl roof
f 105 106 107 108
usemtl teaching_building
f 104 103 102 101
f 101 102 106 105
f 102 103 107 106
f 103 104 108 107
f 104 101 105 108
o SD0485_T008_8hao
v 127.271 -17.844 0.000
v 155.893 -18.540 0.000
v 156.142 -8.525 0.000
v 127.511 -7.840 0.000
v 127.271 -17.844 7.370
v 155.893 -18.540 7.370
v 156.142 -8.525 7.370
v 127.511 -7.840 7.370
usemtl roof
f 113 114 115 116
usemtl teaching_building
f 112 111 110 109
f 109 110 114 113
f 110 111 115 114
f 111 112 116 115
f 112 109 113 116
o SD0485_T009_9hao
v -183.384 -23.183 0.000
v -154.753 -23.868 0.000
v -154.513 -13.864 0.000
v -183.135 -13.168 0.000
v -183.384 -23.183 7.910
v -154.753 -23.868 7.910
v -154.513 -13.864 7.910
v -183.135 -13.168 7.910
usemtl roof
f 121 122 123 124
usemtl teaching_building
f 120 119 118 117
f 117 118 122 121
f 118 119 123 122
f 119 120 124 123
f 120 117 121 124
o SD0485_T010_10hao
v -141.360 -24.598 0.000
v -112.738 -25.294 0.000
v -112.490 -15.279 0.000
v -141.121 -14.583 0.000
v -141.360 -24.598 9.900
v -112.738 -25.294 9.900
v -112.490 -15.279 9.900
v -141.121 -14.583 9.900
usemtl roof
f 129 130 131 132
usemtl teaching_building
f 128 127 126 125
f 125 126 130 129
f 126 127 131 130
f 127 128 132 131
f 128 125 129 132
o SD0485_T011_11hao
v 87.137 -40.925 0.000
v 115.759 -41.621 0.000
v 116.007 -31.606 0.000
v 87.385 -30.921 0.000
v 87.137 -40.925 8.200
v 115.759 -41.621 8.200
v 116.007 -31.606 8.200
v 87.385 -30.921 8.200
usemtl roof
f 137 138 139 140
usemtl teaching_building
f 136 135 134 133
f 133 134 138 137
f 134 135 139 138
f 135 136 140 139
f 136 133 137 140
o SD0485_T012_12hao
v 47.446 -41.577 0.000
v 76.068 -42.273 0.000
v 76.316 -32.258 0.000
v 47.694 -31.573 0.000
v 47.446 -41.577 8.500
v 76.068 -42.273 8.500
v 76.316 -32.258 8.500
v 47.694 -31.573 8.500
usemtl roof
f 145 146 147 148
usemtl teaching_building
f 144 143 142 141
f 141 142 146 145
f 142 143 147 146
f 143 144 148 147
f 144 141 145 148
o SD0485_T013_13hao
v 126.171 -42.881 0.000
v 154.793 -43.578 0.000
v 155.042 -33.574 0.000
v 126.420 -32.877 0.000
v 126.171 -42.881 7.680
v 154.793 -43.578 7.680
v 155.042 -33.574 7.680
v 126.420 -32.877 7.680
usemtl roof
f 153 154 155 156
usemtl teaching_building
f 152 151 150 149
f 149 150 154 153
f 150 151 155 154
f 151 152 156 155
f 152 149 153 156
o SD0485_T014_14hao
v -186.098 -50.729 0.000
v -157.476 -51.415 0.000
v -157.228 -41.411 0.000
v -185.850 -40.715 0.000
v -186.098 -50.729 7.910
v -157.476 -51.415 7.910
v -157.228 -41.411 7.910
v -185.850 -40.715 7.910
usemtl roof
f 161 162 163 164
usemtl teaching_building
f 160 159 158 157
f 157 158 162 161
f 158 159 163 162
f 159 160 164 163
f 160 157 161 164
o SD0485_T015_15hao
v -145.307 -51.813 0.000
v -116.685 -52.509 0.000
v -116.437 -42.494 0.000
v -145.067 -41.809 0.000
v -145.307 -51.813 9.900
v -116.685 -52.509 9.900
v -116.437 -42.494 9.900
v -145.067 -41.809 9.900
usemtl roof
f 169 170 171 172
usemtl teaching_building
f 168 167 166 165
f 165 166 170 169
f 166 167 171 170
f 167 168 172 171
f 168 165 169 172
o SD0485_T016_16hao
v -9.044 -61.474 0.000
v 38.070 -63.154 0.000
v 38.895 -40.383 0.000
v -8.220 -38.692 0.000
v -9.044 -61.474 9.480
v 38.070 -63.154 9.480
v 38.895 -40.383 9.480
v -8.220 -38.692 9.480
usemtl roof
f 177 178 179 180
usemtl teaching_building
f 176 175 174 173
f 173 174 178 177
f 174 175 179 178
f 175 176 180 179
f 176 173 177 180
o SD0485_T017_17hao
v 86.037 -56.168 0.000
v 114.668 -56.864 0.000
v 114.907 -46.850 0.000
v 86.285 -46.164 0.000
v 86.037 -56.168 8.510
v 114.668 -56.864 8.510
v 114.907 -46.850 8.510
v 86.285 -46.164 8.510
usemtl roof
f 185 186 187 188
usemtl teaching_building
f 184 183 182 181
f 181 182 186 185
f 182 183 187 186
f 183 184 188 187
f 184 181 185 188
o SD0485_T018_18hao
v 47.011 -65.531 0.000
v 75.633 -66.227 0.000
v 75.881 -56.212 0.000
v 47.250 -55.527 0.000
v 47.011 -65.531 8.360
v 75.633 -66.227 8.360
v 75.881 -56.212 8.360
v 47.250 -55.527 8.360
usemtl roof
f 193 194 195 196
usemtl teaching_building
f 192 191 190 189
f 189 190 194 193
f 190 191 195 194
f 191 192 196 195
f 192 189 193 196
o SD0485_T019_19hao
v 125.515 -67.708 0.000
v 154.137 -68.405 0.000
v 154.385 -58.390 0.000
v 125.763 -57.705 0.000
v 125.515 -67.708 7.730
v 154.137 -68.405 7.730
v 154.385 -58.390 7.730
v 125.763 -57.705 7.730
usemtl roof
f 201 202 203 204
usemtl teaching_building
f 200 199 198 197
f 197 198 202 201
f 198 199 203 202
f 199 200 204 203
f 200 197 201 204
