# school_id SD0444
# school_name 烟台兴业学校
# boundary_source footprint_convex_hull_buffer_20m
# adjacent_block_merge_distance_m 2.0
mtllib ../campus_materials.mtl
o SD0444_campus_boundary
usemtl campus_boundary
v 5.871 -67.436 0.050
v -31.238 -18.422 0.050
v -38.192 -9.168 0.050
v -52.291 21.569 0.050
v -19.101 46.174 0.050
v 17.208 52.655 0.050
v 41.278 8.746 0.050
v 45.448 -38.125 0.050
v 5.871 -67.436 0.050
l 1 2 3 4 5 6 7 8 9 1
o SD0444_T001_1hao
v -18.268 3.081 0.000
v -20.910 1.126 0.000
v -15.271 -6.379 0.000
v -12.666 -4.452 0.000
v -1.453 -19.360 0.000
v -3.940 -21.213 0.000
v 9.871 -39.586 0.000
v 24.533 -28.727 0.000
v 11.891 -11.901 0.000
v 16.806 -8.251 0.000
v 4.594 8.010 0.000
v -0.757 4.044 0.000
v -3.880 8.204 0.000
v 0.790 11.670 0.000
v -10.963 27.310 0.000
v -27.349 15.163 0.000
v -18.268 3.081 9.900
v -20.910 1.126 9.900
v -15.271 -6.379 9.900
v -12.666 -4.452 9.900
v -1.453 -19.360 9.900
v -3.940 -21.213 9.900
v 9.871 -39.586 9.900
v 24.533 -28.727 9.900
v 11.891 -11.901 9.900
v 16.806 -8.251 9.900
v 4.594 8.010 9.900
v -0.757 4.044 9.900
v -3.880 8.204 9.900
v 0.790 11.670 9.900
v -10.963 27.310 9.900
v -27.349 15.163 9.900
usemtl roof
f 26 27 28 29 30 31 32 33 34 35 36 37 38 39 40 41
usemtl teaching_building
f 25 24 23 22 21 20 19 18 17 16 15 14 13 12 11 10
f 10 11 27 26
f 11 12 28 27
f 12 13 29 28
f 13 14 30 29
f 14 15 31 30
f 15 16 32 31
f 16 17 33 32
f 17 18 34 33
f 18 19 35 34
f 19 20 36 35
f 20 21 37 36
f 21 22 38 37
f 22 23 39 38
f 23 24 40 39
f 24 25 41 40
f 25 10 26 41
