# school_id SD0464
# school_name 烟台理工学校
# boundary_source footprint_convex_hull_buffer_20m
# adjacent_block_merge_distance_m 2.0
mtllib ../campus_materials.mtl
o SD0464_campus_boundary
usemtl campus_boundary
v -16.740 -214.842 0.050
v -50.364 -214.200 0.050
v -176.924 -163.604 0.050
v -246.115 -133.642 0.050
v -245.607 -83.042 0.050
v -238.355 147.376 0.050
v -172.712 154.030 0.050
v -131.644 154.064 0.050
v 79.967 149.203 0.050
v 201.812 144.930 0.050
v 205.024 81.171 0.050
v 206.594 49.367 0.050
v 198.597 -54.228 0.050
v -16.740 -214.842 0.050
l 1 2 3 4 5 6 7 8 9 10 11 12 13 14 1
o SD0464_T001_1hao
v -99.254 119.539 0.000
v -10.891 119.683 0.000
v -10.900 129.753 0.000
v -99.272 129.631 0.000
v -99.254 119.539 10.560
v -10.891 119.683 10.560
v -10.900 129.753 10.560
v -99.272 129.631 10.560
usemtl roof
f 19 20 21 22
usemtl teaching_building
f 18 17 16 15
f 15 16 20 19
f 16 17 21 20
f 17 18 22 21
f 18 15 19 22
o SD0464_T002_2hao
v -6.449 105.047 0.000
v 79.591 105.799 0.000
v 79.387 129.211 0.000
v -6.662 128.471 0.000
v -6.449 105.047 11.510
v 79.591 105.799 11.510
v 79.387 129.211 11.510
v -6.662 128.471 11.510
usemtl roof
f 27 28 29 30
usemtl teaching_building
f 26 25 24 23
f 23 24 28 27
f 24 25 29 28
f 25 26 30 29
f 26 23 27 30
o SD0464_T003_3hao
v 114.755 103.986 0.000
v 183.213 105.511 0.000
v 182.761 125.586 0.000
v 114.303 124.049 0.000
v 114.755 103.986 11.510
v 183.213 105.511 11.510
v 182.761 125.586 11.510
v 114.303 124.049 11.510
usemtl roof
f 35 36 37 38
usemtl teaching_building
f 34 33 32 31
f 31 32 36 35
f 32 33 37 36
f 33 34 38 37
f 34 31 35 38
o SD0464_T004_4hao
v -219.235 60.654 0.000
v -181.544 60.477 0.000
v -181.207 129.068 0.000
v -218.916 129.244 0.000
v -219.235 60.654 8.070
v -181.544 60.477 8.070
v -181.207 129.068 8.070
v -218.916 129.244 8.070
usemtl roof
f 43 44 45 46
usemtl teaching_building
f 42 41 40 39
f 39 40 44 43
f 40 41 45 44
f 41 42 46 45
f 42 39 43 46
o SD0464_T005_5hao
v -13.675 70.713 0.000
v 81.533 73.256 0.000
v 80.699 92.180 0.000
v -13.968 89.804 0.000
v -13.675 70.713 9.750
v 81.533 73.256 9.750
v 80.699 92.180 9.750
v -13.968 89.804 9.750
usemtl roof
f 51 52 53 54
usemtl teaching_building
f 50 49 48 47
f 47 48 52 51
f 48 49 53 52
f 49 50 54 53
f 50 47 51 54
o SD0464_T006_6hao
v -63.097 74.417 0.000
v -34.316 75.102 0.000
v -34.565 85.261 0.000
v -63.345 84.564 0.000
v -63.097 74.417 8.830
v -34.316 75.102 8.830
v -34.565 85.261 8.830
v -63.345 84.564 8.830
usemtl roof
f 59 60 61 62
usemtl teaching_building
f 58 57 56 55
f 55 56 60 59
f 56 57 61 60
f 57 58 62 61
f 58 55 59 62
o SD0464_T007_7hao
v 116.475 46.229 0.000
v 186.556 49.645 0.000
v 185.049 80.165 0.000
v 170.995 79.479 0.000
v 171.545 68.458 0.000
v 130.609 66.447 0.000
v 130.059 77.633 0.000
v 114.959 76.893 0.000
v 116.475 46.229 10.790
v 186.556 49.645 10.790
v 185.049 80.165 10.790
v 170.995 79.479 10.790
v 171.545 68.458 10.790
v 130.609 66.447 10.790
v 130.059 77.633 10.790
v 114.959 76.893 10.790
usemtl roof
f 71 72 73 74 75 76 77 78
usemtl teaching_building
f 70 69 68 67 66 65 64 63
f 63 64 72 71
f 64 65 73 72
f 65 66 74 73
f 66 67 75 74
f 67 68 76 75
f 68 69 77 76
f 69 70 78 77
f 70 63 71 78
o SD0464_T008_8hao
v -62.379 55.172 0.000
v -33.607 55.857 0.000
v -33.855 66.016 0.000
v -62.627 65.319 0.000
v -62.379 55.172 8.320
v -33.607 55.857 8.320
v -33.855 66.016 8.320
v -62.627 65.319 8.320
usemtl roof
f 83 84 85 86
usemtl teaching_building
f 82 81 80 79
f 79 80 84 83
f 80 81 85 84
f 81 82 86 85
f 82 79 83 86
o SD0464_T009_9hao
v -60.739 36.733 0.000
v -31.958 37.419 0.000
v -32.206 47.577 0.000
v -60.987 46.892 0.000
v -60.739 36.733 10.210
v -31.958 37.419 10.210
v -32.206 47.577 10.210
v -60.987 46.892 10.210
usemtl roof
f 91 92 93 94
usemtl teaching_building
f 90 89 88 87
f 87 88 92 91
f 88 89 93 92
f 89 90 94 93
f 90 87 91 94
o SD0464_T010_10hao
v 8.509 -17.774 0.000
v 85.443 -17.011 0.000
v 85.319 -5.216 0.000
v 75.477 -5.316 0.000
v 75.512 -8.256 0.000
v 60.829 -8.411 0.000
v 60.785 -3.702 0.000
v 38.991 -3.923 0.000
v 39.036 -8.687 0.000
v 14.023 -8.942 0.000
v 13.988 -5.382 0.000
v 8.384 -5.449 0.000
v 8.509 -17.774 15.330
v 85.443 -17.011 15.330
v 85.319 -5.216 15.330
v 75.477 -5.316 15.330
v 75.512 -8.256 15.330
v 60.829 -8.411 15.330
v 60.785 -3.702 15.330
v 38.991 -3.923 15.330
v 39.036 -8.687 15.330
v 14.023 -8.942 15.330
v 13.988 -5.382 15.330
v 8.384 -5.449 15.330
usemtl roof
f 107 108 109 110 111 112 113 114 115 116 117 118
usemtl teaching_building
f 106 105 104 103 102 101 100 99 98 97 96 95
f 95 96 108 107
f 96 97 109 108
f 97 98 110 109
f 98 99 111 110
f 99 100 112 111
f 100 101 113 112
f 101 102 114 113
f 102 103 115 114
f 103 104 116 115
f 104 105 117 116
f 105 106 118 117
f 106 95 107 118
o SD0464_T011_11hao
v 123.329 -44.204 0.000
v 179.356 -43.629 0.000
v 179.312 -20.349 0.000
v 159.123 -20.526 0.000
v 159.229 -32.763 0.000
v 138.500 -32.951 0.000
v 138.340 -15.607 0.000
v 123.072 -15.740 0.000
v 123.329 -44.204 14.720
v 179.356 -43.629 14.720
v 179.312 -20.349 14.720
v 159.123 -20.526 14.720
v 159.229 -32.763 14.720
v 138.500 -32.951 14.720
v 138.340 -15.607 14.720
v 123.072 -15.740 14.720
usemtl roof
f 127 128 129 130 131 132 133 134
usemtl teaching_building
f 126 125 124 123 122 121 120 119
f 119 120 128 127
f 120 121 129 128
f 121 122 130 129
f 122 123 131 130
f 123 124 132 131
f 124 125 133 132
f 125 126 134 133
f 126 119 127 134
o SD0464_T012_12hao
v 8.180 -48.161 0.000
v 7.755 -67.528 0.000
v -40.851 -66.478 0.000
v -40.425 -47.100 0.000
v 8.180 -48.161 10.470
v 7.755 -67.528 10.470
v -40.851 -66.478 10.470
v -40.425 -47.100 10.470
usemtl roof
f 139 140 141 142
usemtl teaching_building
f 138 137 136 135
f 135 136 140 139
f 136 137 141 140
f 137 138 142 141
f 138 135 139 142
o SD0464_T013_13hao
v -225.983 -120.565 0.000
v -177.244 -121.051 0.000
v -176.871 -83.943 0.000
v -225.610 -83.457 0.000
v -225.983 -120.565 8.170
v -177.244 -121.051 8.170
v -176.871 -83.943 8.170
v -225.610 -83.457 8.170
usemtl roof
f 147 148 149 150
usemtl teaching_building
f 146 145 144 143
f 143 144 148 147
f 144 145 149 148
f 145 146 150 149
f 146 143 147 150
o SD0464_T014_14hao
v -169.237 -145.138 0.000
v -74.003 -144.972 0.000
v -74.109 -83.832 0.000
v -169.344 -83.998 0.000
v -169.237 -145.138 9.720
v -74.003 -144.972 9.720
v -74.109 -83.832 9.720
v -169.344 -83.998 9.720
usemtl roof
f 155 156 157 158
usemtl teaching_building
f 154 153 152 151
f 151 152 156 155
f 152 153 157 156
f 153 154 158 157
f 154 151 155 158
o SD0464_T015_15hao
v -45.834 -122.378 0.000
v 32.306 -123.052 0.000
v 32.439 -108.638 0.000
v 24.300 -108.571 0.000
v 24.264 -111.987 0.000
v 3.455 -111.810 0.000
v 3.490 -107.632 0.000
v -13.498 -107.488 0.000
v -13.525 -110.583 0.000
v -35.301 -110.395 0.000
v -35.265 -105.885 0.000
v -45.683 -105.797 0.000
v -45.834 -122.378 12.320
v 32.306 -123.052 12.320
v 32.439 -108.638 12.320
v 24.300 -108.571 12.320
v 24.264 -111.987 12.320
v 3.455 -111.810 12.320
v 3.490 -107.632 12.320
v -13.498 -107.488 12.320
v -13.525 -110.583 12.320
v -35.301 -110.395 12.320
v -35.265 -105.885 12.320
v -45.683 -105.797 12.320
usemtl roof
f 171 172 173 174 175 176 177 178 179 180 181 182
usemtl teaching_building
f 170 169 168 167 166 165 164 163 162 161 160 159
f 159 160 172 171
f 160 161 173 172
f 161 162 174 173
f 162 163 175 174
f 163 164 176 175
f 164 165 177 176
f 165 166 178 177
f 166 167 179 178
f 167 168 180 179
f 168 169 181 180
f 169 170 182 181
f 170 159 171 182
o SD0464_T016_16hao
v -46.331 -194.273 0.000
v -23.207 -194.715 0.000
v -23.056 -186.745 0.000
v -36.932 -186.579 0.000
v -36.728 -170.507 0.000
v -45.861 -170.297 0.000
v -46.331 -194.273 8.110
v -23.207 -194.715 8.110
v -23.056 -186.745 8.110
v -36.932 -186.579 8.110
v -36.728 -170.507 8.110
v -45.861 -170.297 8.110
usemtl roof
f 189 190 191 192 193 194
usemtl teaching_building
f 188 187 186 185 184 183
f 183 184 190 189
f 184 185 191 190
f 185 186 192 191
f 186 187 193 192
f 187 188 194 193
f 188 183 189 194
