# school_id SD0446
# school_name 烟台城乡建设学校
# boundary_source footprint_convex_hull_buffer_20m
# adjacent_block_merge_distance_m 2.0
mtllib ../campus_materials.mtl
o SD0446_campus_boundary
usemtl campus_boundary
v 47.483 -131.793 0.050
v 20.641 -131.298 0.050
v -39.448 -126.947 0.050
v -159.300 -106.915 0.050
v -177.020 40.807 0.050
v -177.811 83.221 0.050
v -178.078 117.912 0.050
v -81.472 123.014 0.050
v 82.910 123.423 0.050
v 150.289 122.131 0.050
v 154.259 62.462 0.050
v 154.490 47.351 0.050
v 156.391 -91.857 0.050
v 155.498 -126.060 0.050
v 47.483 -131.793 0.050
l 1 2 3 4 5 6 7 8 9 10 11 12 13 14 15 1
o SD0446_T001_1hao
v 131.241 86.801 0.000
v 131.552 102.487 0.000
v 82.743 103.423 0.000
v 82.440 87.737 0.000
v 131.241 86.801 9.900
v 131.552 102.487 9.900
v 82.743 103.423 9.900
v 82.440 87.737 9.900
usemtl roof
f 20 21 22 23
usemtl teaching_building
f 19 18 17 16
f 16 17 21 20
f 17 18 22 21
f 18 19 23 22
f 19 16 20 23
o SD0446_T002_2hao
v -0.495 76.451 0.000
v 0.349 100.199 0.000
v -80.919 103.015 0.000
v -81.764 79.268 0.000
v -0.495 76.451 9.900
v 0.349 100.199 9.900
v -80.919 103.015 9.900
v -81.764 79.268 9.900
usemtl roof
f 28 29 30 31
usemtl teaching_building
f 27 26 25 24
f 24 25 29 28
f 25 26 30 29
f 26 27 31 30
f 27 24 28 31
o SD0446_T003_3hao
v -157.812 83.484 0.000
v -150.090 83.539 0.000
v -150.016 74.571 0.000
v -152.703 74.561 0.000
v -152.622 64.675 0.000
v -150.430 64.703 0.000
v -150.386 58.829 0.000
v -157.175 58.773 0.000
v -157.042 42.188 0.000
v -102.599 42.605 0.000
v -102.732 59.366 0.000
v -109.833 59.311 0.000
v -110.018 82.845 0.000
v -104.295 82.882 0.000
v -104.428 99.365 0.000
v -157.931 98.948 0.000
v -157.812 83.484 9.900
v -150.090 83.539 9.900
v -150.016 74.571 9.900
v -152.703 74.561 9.900
v -152.622 64.675 9.900
v -150.430 64.703 9.900
v -150.386 58.829 9.900
v -157.175 58.773 9.900
v -157.042 42.188 9.900
v -102.599 42.605 9.900
v -102.732 59.366 9.900
v -109.833 59.311 9.900
v -110.018 82.845 9.900
v -104.295 82.882 9.900
v -104.428 99.365 9.900
v -157.931 98.948 9.900
usemtl roof
f 48 49 50 51 52 53 54 55 56 57 58 59 60 61 62 63
usemtl teaching_building
f 47 46 45 44 43 42 41 40 39 38 37 36 35 34 33 32
f 32 33 49 48
f 33 34 50 49
f 34 35 51 50
f 35 36 52 51
f 36 37 53 52
f 37 38 54 53
f 38 39 55 54
f 39 40 56 55
f 40 41 57 56
f 41 42 58 57
f 42 43 59 58
f 43 44 60 59
f 44 45 61 60
f 45 46 62 61
f 46 47 63 62
f 47 32 48 63
o SD0446_T004_4hao
v 13.729 39.511 0.000
v 61.116 39.983 0.000
v 60.931 58.152 0.000
v 13.544 57.680 0.000
v 13.729 39.511 9.900
v 61.116 39.983 9.900
v 60.931 58.152 9.900
v 13.544 57.680 9.900
usemtl roof
f 68 69 70 71
usemtl teaching_building
f 67 66 65 64
f 64 65 69 68
f 65 66 70 69
f 66 67 71 70
f 67 64 68 71
o SD0446_T005_5hao
v 92.983 45.579 0.000
v 114.567 45.913 0.000
v 115.226 2.681 0.000
v 132.774 2.940 0.000
v 132.093 47.025 0.000
v 134.492 47.062 0.000
v 134.269 61.645 0.000
v 92.747 61.015 0.000
v 92.983 45.579 9.900
v 114.567 45.913 9.900
v 115.226 2.681 9.900
v 132.774 2.940 9.900
v 132.093 47.025 9.900
v 134.492 47.062 9.900
v 134.269 61.645 9.900
v 92.747 61.015 9.900
usemtl roof
f 80 81 82 83 84 85 86 87
usemtl teaching_building
f 79 78 77 76 75 74 73 72
f 72 73 81 80
f 73 74 82 81
f 74 75 83 82
f 75 76 84 83
f 76 77 85 84
f 77 78 86 85
f 78 79 87 86
f 79 72 80 87
o SD0446_T006_6hao
v 60.634 -26.839 0.000
v 60.901 -10.430 0.000
v -30.082 -9.031 0.000
v -30.341 -25.421 0.000
v 60.634 -26.839 9.900
v 60.901 -10.430 9.900
v -30.082 -9.031 9.900
v -30.341 -25.421 9.900
usemtl roof
f 92 93 94 95
usemtl teaching_building
f 91 90 89 88
f 88 89 93 92
f 89 90 94 93
f 90 91 95 94
f 91 88 92 95
o SD0446_T007_7hao
v 131.241 -35.539 0.000
v 132.063 -10.606 0.000
v 88.474 -9.207 0.000
v 87.652 -34.131 0.000
v 131.241 -35.539 9.900
v 132.063 -10.606 9.900
v 88.474 -9.207 9.900
v 87.652 -34.131 9.900
usemtl roof
f 100 101 102 103
usemtl teaching_building
f 99 98 97 96
f 96 97 101 100
f 97 98 102 101
f 98 99 103 102
f 99 96 100 103
o SD0446_T008_8hao
v 128.398 -66.124 0.000
v 128.724 -50.206 0.000
v 81.337 -49.252 0.000
v 81.018 -65.188 0.000
v 128.398 -66.124 9.900
v 128.724 -50.206 9.900
v 81.337 -49.252 9.900
v 81.018 -65.188 9.900
usemtl roof
f 108 109 110 111
usemtl teaching_building
f 107 106 105 104
f 104 105 109 108
f 105 106 110 109
f 106 107 111 110
f 107 104 108 111
o SD0446_T009_9hao
v -40.233 -100.248 0.000
v -37.116 -100.230 0.000
v -37.072 -107.067 0.000
v -0.554 -106.827 0.000
v -0.658 -92.030 0.000
v -28.387 -92.224 0.000
v -28.512 -73.786 0.000
v -23.381 -73.749 0.000
v -23.566 -47.482 0.000
v -40.589 -47.593 0.000
v -40.233 -100.248 9.900
v -37.116 -100.230 9.900
v -37.072 -107.067 9.900
v -0.554 -106.827 9.900
v -0.658 -92.030 9.900
v -28.387 -92.224 9.900
v -28.512 -73.786 9.900
v -23.381 -73.749 9.900
v -23.566 -47.482 9.900
v -40.589 -47.593 9.900
usemtl roof
f 122 123 124 125 126 127 128 129 130 131
usemtl teaching_building
f 121 120 119 118 117 116 115 114 113 112
f 112 113 123 122
f 113 114 124 123
f 114 115 125 124
f 115 116 126 125
f 116 117 127 126
f 117 118 128 127
f 118 119 129 128
f 119 120 130 129
f 120 121 131 130
f 121 112 122 131
o SD0446_T010_10hao
v -73.463 -93.892 0.000
v -72.294 -75.352 0.000
v -140.057 -71.109 0.000
v -141.227 -89.658 0.000
v -73.463 -93.892 9.900
v -72.294 -75.352 9.900
v -140.057 -71.109 9.900
v -141.227 -89.658 9.900
usemtl roof
f 136 137 138 139
usemtl teaching_building
f 135 134 133 132
f 132 133 137 136
f 133 134 138 137
f 134 135 139 138
f 135 132 136 139
o SD0446_T011_11hao
v 135.987 -107.067 0.000
v 136.387 -91.733 0.000
v 81.892 -90.325 0.000
v 81.492 -105.650 0.000
v 135.987 -107.067 9.900
v 136.387 -91.733 9.900
v 81.892 -90.325 9.900
v 81.492 -105.650 9.900
usemtl roof
f 144 145 146 147
usemtl teaching_building
f 143 142 141 140
f 140 141 145 144
f 141 142 146 145
f 142 143 147 146
f 143 140 144 147
o SD0446_T012_12hao
v 47.137 -111.783 0.000
v 47.366 -99.294 0.000
v 21.777 -98.831 0.000
v 21.548 -111.311 0.000
v 47.137 -111.783 9.900
v 47.366 -99.294 9.900
v 21.777 -98.831 9.900
v 21.548 -111.311 9.900
usemtl roof
f 152 153 154 155
usemtl teaching_building
f 151 150 149 148
f 148 149 153 152
f 149 150 154 153
f 150 151 155 154
f 151 148 152 155
