# school_id SD0456
# school_name 烟台市高新区益文小学
# boundary_source footprint_convex_hull_buffer_20m
# adjacent_block_merge_distance_m 2.0
mtllib ../campus_materials.mtl
o SD0456_campus_boundary
usemtl campus_boundary
v 11.037 -117.951 0.050
v -105.836 -81.995 0.050
v -88.586 -42.152 0.050
v -19.305 114.320 0.050
v 36.611 94.986 0.050
v 66.104 43.364 0.050
v 59.102 22.382 0.050
v 41.539 -29.945 0.050
v 29.562 -65.291 0.050
v 11.037 -117.951 0.050
l 1 2 3 4 5 6 7 8 9 10 1
o SD0456_T001_1hao
v 22.588 -23.554 0.000
v 27.012 -9.425 0.000
v -16.999 4.177 0.000
v -21.415 -9.934 0.000
v 22.588 -23.554 6.600
v 27.012 -9.425 6.600
v -16.999 4.177 6.600
v -21.415 -9.934 6.600
usemtl roof
f 15 16 17 18
usemtl teaching_building
f 14 13 12 11
f 11 12 16 15
f 12 13 17 16
f 13 14 18 17
f 14 11 15 18
o SD0456_T002_2hao
v 10.657 -58.763 0.000
v 14.362 -46.282 0.000
v -31.249 -32.940 0.000
v -34.954 -45.421 0.000
v 10.657 -58.763 6.600
v 14.362 -46.282 6.600
v -31.249 -32.940 6.600
v -34.954 -45.421 6.600
usemtl roof
f 23 24 25 26
usemtl teaching_building
f 22 21 20 19
f 19 20 24 23
f 20 21 25 24
f 21 22 26 25
f 22 19 23 26
o SD0456_T003_3hao
v -1.452 -93.184 0.000
v 4.640 -73.476 0.000
v -70.265 -50.174 0.000
v -78.609 -69.446 0.000
v -1.452 -93.184 6.600
v 4.640 -73.476 6.600
v -70.265 -50.174 6.600
v -78.609 -69.446 6.600
usemtl roof
f 31 32 33 34
usemtl teaching_building
f 30 29 28 27
f 27 28 32 31
f 28 29 33 32
f 29 30 34 33
f 30 27 31 34
