# school_id SD0439
# school_name 杏坛中学
# boundary_source footprint_convex_hull_buffer_20m
# adjacent_block_merge_distance_m 2.0
mtllib ../campus_materials.mtl
o SD0439_campus_boundary
usemtl campus_boundary
v 24.325 -135.150 0.050
v -41.237 -114.064 0.050
v -83.005 -75.185 0.050
v -82.517 -6.838 0.050
v -77.908 119.139 0.050
v -64.554 160.055 0.050
v 38.634 129.621 0.050
v 96.212 111.115 0.050
v 112.681 -95.068 0.050
v 100.564 -132.254 0.050
v 24.325 -135.150 0.050
l 1 2 3 4 5 6 7 8 9 10 11 1
o SD0439_T001_1hao
v -24.538 -78.878 0.000
v -20.989 -67.973 0.000
v 19.890 -81.102 0.000
v 13.282 -101.365 0.000
v -28.153 -88.041 0.000
v -30.872 -96.389 0.000
v 27.091 -115.031 0.000
v 33.322 -95.908 0.000
v 85.869 -112.798 0.000
v 92.426 -92.674 0.000
v 24.195 -70.743 0.000
v 29.492 -54.510 0.000
v 14.149 -49.562 0.000
v 19.490 -33.172 0.000
v 7.207 -29.225 0.000
v 37.137 62.567 0.000
v 63.615 54.052 0.000
v 77.342 96.172 0.000
v 32.744 110.506 0.000
v 28.528 97.572 0.000
v -3.772 107.949 0.000
v -0.209 118.863 0.000
v -51.571 135.374 0.000
v -58.024 115.602 0.000
v -6.491 99.035 0.000
v -11.366 84.100 0.000
v -8.691 83.238 0.000
v -18.100 54.376 0.000
v -53.742 65.828 0.000
v -58.898 50.022 0.000
v 14.119 26.543 0.000
v 4.081 -4.245 0.000
v -55.305 14.841 0.000
v -62.520 -7.275 0.000
v -0.727 -27.140 0.000
v -11.195 -59.217 0.000
v -55.875 -44.856 0.000
v -62.943 -66.536 0.000
v -24.538 -78.878 9.900
v -20.989 -67.973 9.900
v 19.890 -81.102 9.900
v 13.282 -101.365 9.900
v -28.153 -88.041 9.900
v -30.872 -96.389 9.900
v 27.091 -115.031 9.900
v 33.322 -95.908 9.900
v 85.869 -112.798 9.900
v 92.426 -92.674 9.900
v 24.195 -70.743 9.900
v 29.492 -54.510 9.900
v 14.149 -49.562 9.900
v 19.490 -33.172 9.900
v 7.207 -29.225 9.900
v 37.137 62.567 9.900
v 63.615 54.052 9.900
v 77.342 96.172 9.900
v 32.744 110.506 9.900
v 28.528 97.572 9.900
v -3.772 107.949 9.900
v -0.209 118.863 9.900
v -51.571 135.374 9.900
v -58.024 115.602 9.900
v -6.491 99.035 9.900
v -11.366 84.100 9.900
v -8.691 83.238 9.900
v -18.100 54.376 9.900
v -53.742 65.828 9.900
v -58.898 50.022 9.900
v 14.119 26.543 9.900
v 4.081 -4.245 9.900
v -55.305 14.841 9.900
v -62.520 -7.275 9.900
v -0.727 -27.140 9.900
v -11.195 -59.217 9.900
v -55.875 -44.856 9.900
v -62.943 -66.536 9.900
usemtl roof
f 50 51 52 53 54 55 56 57 58 59 60 61 62 63 64 65 66 67 68 69 70 71 72 73 74 75 76 77 78 79 80 81 82 83 84 85 86 87
usemtl teaching_building
f 49 48 47 46 45 44 43 42 41 40 39 38 37 36 35 34 33 32 31 30 29 28 27 26 25 24 23 22 21 20 19 18 17 16 15 14 13 12
f 12 13 51 50
f 13 14 52 51
f 14 15 53 52
f 15 16 54 53
f 16 17 55 54
f 17 18 56 55
f 18 19 57 56
f 19 20 58 57
f 20 21 59 58
f 21 22 60 59
f 22 23 61 60
f 23 24 62 61
f 24 25 63 62
f 25 26 64 63
f 26 27 65 64
f 27 28 66 65
f 28 29 67 66
f 29 30 68 67
f 30 31 69 68
f 31 32 70 69
f 32 33 71 70
f 33 34 72 71
f 34 35 73 72
f 35 36 74 73
f 36 37 75 74
f 37 38 76 75
f 38 39 77 76
f 39 40 78 77
f 40 41 79 78
f 41 42 80 79
f 42 43 81 80
f 43 44 82 81
f 44 45 83 82
f 45 46 84 83
f 46 47 85 84
f 47 48 86 85
f 48 49 87 86
f 49 12 50 87
