# school_id SD0466
# school_name 烟台第九中学
# boundary_source footprint_convex_hull_buffer_20m
# adjacent_block_merge_distance_m 2.0
mtllib ../campus_materials.mtl
o SD0466_campus_boundary
usemtl campus_boundary
v 71.823 -49.439 0.050
v -86.508 -3.283 0.050
v -73.269 43.569 0.050
v 19.803 26.448 0.050
v 89.276 4.094 0.050
v 71.823 -49.439 0.050
l 1 2 3 4 5 6 1
o SD0466_T001_1hao
v -14.752 -2.791 0.000
v -11.852 7.438 0.000
v -58.975 20.604 0.000
v -61.868 10.366 0.000
v -14.752 -2.791 9.900
v -11.852 7.438 9.900
v -58.975 20.604 9.900
v -61.868 10.366 9.900
usemtl roof
f 11 12 13 14
usemtl teaching_building
f 10 9 8 7
f 7 8 12 11
f 8 9 13 12
f 9 10 14 13
f 10 7 11 14
o SD0466_T002_2hao
v 58.815 -24.815 0.000
v 64.038 -8.795 0.000
v 14.910 7.012 0.000
v 9.686 -9.018 0.000
v 58.815 -24.815 9.900
v 64.038 -8.795 9.900
v 14.910 7.012 9.900
v 9.686 -9.018 9.900
usemtl roof
f 19 20 21 22
usemtl teaching_building
f 18 17 16 15
f 15 16 20 19
f 16 17 21 20
f 17 18 22 21
f 18 15 19 22
