# school_id SD0499
# school_name 解甲庄小学
# boundary_source footprint_convex_hull_buffer_20m
# adjacent_block_merge_distance_m 2.0
mtllib ../campus_materials.mtl
o SD0499_campus_boundary
usemtl campus_boundary
v -27.844 -102.061 0.050
v -67.303 -38.961 0.050
v -103.485 46.826 0.050
v -44.583 71.956 0.050
v 128.734 75.261 0.050
v 147.041 32.547 0.050
v 23.482 -79.730 0.050
v -27.844 -102.061 0.050
l 1 2 3 4 5 6 7 8 1
o SD0499_T001_1hao
v -20.023 -76.847 0.000
v 12.475 -62.708 0.000
v 1.800 -38.507 0.000
v -30.698 -52.636 0.000
v -20.023 -76.847 4.950
v 12.475 -62.708 4.950
v 1.800 -38.507 4.950
v -30.698 -52.636 4.950
usemtl roof
f 13 14 15 16
usemtl teaching_building
f 12 11 10 9
f 9 10 14 13
f 10 11 15 14
f 11 12 16 15
f 12 9 13 16
