# school_id SD0432
# school_name 开发区澎湖小学
# boundary_source footprint_convex_hull_buffer_20m
# adjacent_block_merge_distance_m 2.0
mtllib ../campus_materials.mtl
o SD0432_campus_boundary
usemtl campus_boundary
v 55.427 -48.618 0.050
v 8.399 -47.948 0.050
v -84.266 -18.599 0.050
v -83.474 35.444 0.050
v 6.551 34.138 0.050
v 56.587 31.368 0.050
v 55.427 -48.618 0.050
l 1 2 3 4 5 6 7 1
o SD0432_T001_1hao
v 11.962 -5.116 0.000
v 11.629 -27.992 0.000
v 35.719 -28.335 0.000
v 36.311 12.460 0.000
v 10.364 12.831 0.000
v 10.261 5.400 0.000
v 5.720 5.474 0.000
v 5.853 14.146 0.000
v -63.769 15.156 0.000
v -64.050 -4.023 0.000
v 11.962 -5.116 9.900
v 11.629 -27.992 9.900
v 35.719 -28.335 9.900
v 36.311 12.460 9.900
v 10.364 12.831 9.900
v 10.261 5.400 9.900
v 5.720 5.474 9.900
v 5.853 14.146 9.900
v -63.769 15.156 9.900
v -64.050 -4.023 9.900
usemtl roof
f 18 19 20 21 22 23 24 25 26 27
usemtl teaching_building
f 17 16 15 14 13 12 11 10 9 8
f 8 9 19 18
f 9 10 20 19
f 10 11 21 20
f 11 12 22 21
f 12 13 23 22
f 13 14 24 23
f 14 15 25 24
f 15 16 26 25
f 16 17 27 26
f 17 8 18 27
