# school_id SD0493
# school_name 莱州市神堂中学
# boundary_source footprint_convex_hull_buffer_20m
# adjacent_block_merge_distance_m 2.0
mtllib ../campus_materials.mtl
o SD0493_campus_boundary
usemtl campus_boundary
v -60.967 -56.624 0.050
v -69.516 44.195 0.050
v 53.592 54.496 0.050
v 59.794 -13.388 0.050
v 62.545 -46.313 0.050
v -60.967 -56.624 0.050
l 1 2 3 4 5 6 1
o SD0493_T001_1hao
v -42.726 -35.032 0.000
v 40.949 -28.046 0.000
v 39.870 -15.130 0.000
v -29.412 -20.810 0.000
v -32.580 17.261 0.000
v 36.315 22.913 0.000
v 35.481 32.911 0.000
v -47.896 25.934 0.000
v -42.726 -35.032 6.600
v 40.949 -28.046 6.600
v 39.870 -15.130 6.600
v -29.412 -20.810 6.600
v -32.580 17.261 6.600
v 36.315 22.913 6.600
v 35.481 32.911 6.600
v -47.896 25.934 6.600
usemtl roof
f 15 16 17 18 19 20 21 22
usemtl teaching_building
f 14 13 12 11 10 9 8 7
f 7 8 16 15
f 8 9 17 16
f 9 10 18 17
f 10 11 19 18
f 11 12 20 19
f 12 13 21 20
f 13 14 22 21
f 14 7 15 22
