# school_id SD0404
# school_name 中华小学
# boundary_source footprint_convex_hull_buffer_20m
# adjacent_block_merge_distance_m 2.0
mtllib ../campus_materials.mtl
o SD0404_campus_boundary
usemtl campus_boundary
v -9.434 -63.593 0.050
v -54.746 -49.327 0.050
v -60.728 -13.364 0.050
v -65.007 34.141 0.050
v 25.289 51.111 0.050
v 60.121 54.124 0.050
v 71.513 33.722 0.050
v 72.378 24.102 0.050
v 71.084 10.790 0.050
v 30.178 -60.111 0.050
v -9.434 -63.593 0.050
l 1 2 3 4 5 6 7 8 9 10 11 1
o SD0404_T001_1hao
v -40.876 -10.822 0.000
v -24.009 -9.319 0.000
v -23.017 -20.329 0.000
v -28.795 -20.837 0.000
v -28.303 -26.353 0.000
v -30.384 -26.541 0.000
v -30.884 -20.893 0.000
v -38.146 -21.534 0.000
v -37.031 -33.936 0.000
v -29.234 -33.240 0.000
v -29.444 -30.863 0.000
v -27.530 -30.686 0.000
v -27.100 -35.484 0.000
v -8.064 -33.815 0.000
v -7.222 -43.321 0.000
v 18.057 -41.099 0.000
v 16.011 -18.096 0.000
v 6.344 -18.947 0.000
v 6.616 -21.965 0.000
v 0.786 -22.484 0.000
v 0.136 -15.178 0.000
v -8.293 -15.907 0.000
v -7.845 -21.014 0.000
v -18.118 -21.910 0.000
v -19.751 -3.361 0.000
v -1.365 -1.758 0.000
v -1.760 2.708 0.000
v 14.571 4.134 0.000
v 13.930 11.429 0.000
v 15.528 11.573 0.000
v 15.748 9.075 0.000
v 33.185 10.578 0.000
v 32.658 16.669 0.000
v 33.703 16.757 0.000
v 33.817 15.497 0.000
v 51.597 17.034 0.000
v 50.983 24.064 0.000
v 52.291 24.175 0.000
v 51.975 27.690 0.000
v 49.455 27.469 0.000
v 48.963 33.084 0.000
v 28.005 31.271 0.000
v 28.602 24.473 0.000
v 25.327 24.186 0.000
v 25.160 26.065 0.000
v 9.812 24.727 0.000
v 10.400 18.073 0.000
v 7.038 17.774 0.000
v 6.853 19.886 0.000
v -8.231 18.559 0.000
v -7.617 11.595 0.000
v -11.252 11.275 0.000
v -11.419 13.143 0.000
v -22.209 12.192 0.000
v -22.341 13.684 0.000
v -31.359 12.888 0.000
v -30.191 -0.078 0.000
v -34.458 -0.454 0.000
v -36.161 18.493 0.000
v -43.458 17.841 0.000
v -40.876 -10.822 9.550
v -24.009 -9.319 9.550
v -23.017 -20.329 9.550
v -28.795 -20.837 9.550
v -28.303 -26.353 9.550
v -30.384 -26.541 9.550
v -30.884 -20.893 9.550
v -38.146 -21.534 9.550
v -37.031 -33.936 9.550
v -29.234 -33.240 9.550
v -29.444 -30.863 9.550
v -27.530 -30.686 9.550
v -27.100 -35.484 9.550
v -8.064 -33.815 9.550
v -7.222 -43.321 9.550
v 18.057 -41.099 9.550
v 16.011 -18.096 9.550
v 6.344 -18.947 9.550
v 6.616 -21.965 9.550
v 0.786 -22.484 9.550
v 0.136 -15.178 9.550
v -8.293 -15.907 9.550
v -7.845 -21.014 9.550
v -18.118 -21.910 9.550
v -19.751 -3.361 9.550
v -1.365 -1.758 9.550
v -1.760 2.708 9.550
v 14.571 4.134 9.550
v 13.930 11.429 9.550
v 15.528 11.573 9.550
v 15.748 9.075 9.550
v 33.185 10.578 9.550
v 32.658 16.669 9.550
v 33.703 16.757 9.550
v 33.817 15.497 9.550
v 51.597 17.034 9.550
v 50.983 24.064 9.550
v 52.291 24.175 9.550
v 51.975 27.690 9.550
v 49.455 27.469 9.550
v 48.963 33.084 9.550
v 28.005 31.271 9.550
v 28.602 24.473 9.550
v 25.327 24.186 9.550
v 25.160 26.065 9.550
v 9.812 24.727 9.550
v 10.400 18.073 9.550
v 7.038 17.774 9.550
v 6.853 19.886 9.550
v -8.231 18.559 9.550
v -7.617 11.595 9.550
v -11.252 11.275 9.550
v -11.419 13.143 9.550
v -22.209 12.192 9.550
v -22.341 13.684 9.550
v -31.359 12.888 9.550
v -30.191 -0.078 9.550
v -34.458 -0.454 9.550
v -36.161 18.493 9.550
v -43.458 17.841 9.550
usemtl roof
f 72 73 74 75 76 77 78 79 80 81 82 83 84 85 86 87 88 89 90 91 92 93 94 95 96 97 98 99 100 101 102 103 104 105 106 107 108 109 110 111 112 113 114 115 116 117 118 119 120 121 122 123 124 125 126 127 128 129 130 131
usemtl teaching_building
f 71 70 69 68 67 66 65 64 63 62 61 60 59 58 57 56 55 54 53 52 51 50 49 48 47 46 45 44 43 42 41 40 39 38 37 36 35 34 33 32 31 30 29 28 27 26 25 24 23 22 21 20 19 18 17 16 15 14 13 12
f 12 13 73 72
f 13 14 74 73
f 14 15 75 74
f 15 16 76 75
f 16 17 77 76
f 17 18 78 77
f 18 19 79 78
f 19 20 80 79
f 20 21 81 80
f 21 22 82 81
f 22 23 83 82
f 23 24 84 83
f 24 25 85 84
f 25 26 86 85
f 26 27 87 86
f 27 28 88 87
f 28 29 89 88
f 29 30 90 89
f 30 31 91 90
f 31 32 92 91
f 32 33 93 92
f 33 34 94 93
f 34 35 95 94
f 35 36 96 95
f 36 37 97 96
f 37 38 98 97
f 38 39 99 98
f 39 40 100 99
f 40 41 101 100
f 41 42 102 101
f 42 43 103 102
f 43 44 104 103
f 44 45 105 104
f 45 46 106 105
f 46 47 107 106
f 47 48 108 107
f 48 49 109 108
f 49 50 110 109
f 50 51 111 110
f 51 52 112 111
f 52 53 113 112
f 53 54 114 113
f 54 55 115 114
f 55 56 116 115
f 56 57 117 116
f 57 58 118 117
f 58 59 119 118
f 59 60 120 119
f 60 61 121 120
f 61 62 122 121
f 62 63 123 122
f 63 64 124 123
f 64 65 125 124
f 65 66 126 125
f 66 67 127 126
f 67 68 128 127
f 68 69 129 128
f 69 70 130 129
f 70 71 131 130
f 71 12 72 131
