# school_id SD0496
# school_name 蓁山小学
# boundary_source footprint_convex_hull_buffer_20m
# adjacent_block_merge_distance_m 2.0
mtllib ../campus_materials.mtl
o SD0496_campus_boundary
usemtl campus_boundary
v -41.147 -39.165 0.050
v -55.758 11.560 0.050
v 41.116 39.151 0.050
v 55.789 -11.548 0.050
v -41.147 -39.165 0.050
l 1 2 3 4 5 1
o SD0496_T001_1hao
v -27.448 -14.466 0.000
v 30.994 2.184 0.000
v 27.441 14.461 0.000
v -30.987 -2.180 0.000
v -27.448 -14.466 20.000
v 30.994 2.184 20.000
v 27.441 14.461 20.000
v -30.987 -2.180 20.000
usemtl roof
f 10 11 12 13
usemtl teaching_building
f 9 8 7 6
f 6 7 11 10
f 7 8 12 11
f 8 9 13 12
f 9 6 10 13
