# school_id SD0438
# school_name 新石路小学
# boundary_source footprint_convex_hull_buffer_20m
# adjacent_block_merge_distance_m 2.0
mtllib ../campus_materials.mtl
o SD0438_campus_boundary
usemtl campus_boundary
v -21.159 -42.099 0.050
v -33.131 -2.828 0.050
v -38.171 32.351 0.050
v 31.235 42.207 0.050
v 36.750 4.003 0.050
v 23.785 -35.740 0.050
v -21.159 -42.099 0.050
l 1 2 3 4 5 6 7 1
o SD0438_T001_1hao
v -13.551 1.532 0.000
v 16.288 5.767 0.000
v 14.291 19.600 0.000
v -15.533 15.365 0.000
v -13.551 1.532 9.900
v 16.288 5.767 9.900
v 14.291 19.600 9.900
v -15.533 15.365 9.900
usemtl roof
f 12 13 14 15
usemtl teaching_building
f 11 10 9 8
f 8 9 13 12
f 9 10 14 13
f 10 11 15 14
f 11 8 12 15
o SD0438_T002_2hao
v -7.018 -19.899 0.000
v 8.638 -17.684 0.000
v 6.263 -1.229 0.000
v -9.378 -3.453 0.000
v -7.018 -19.899 9.900
v 8.638 -17.684 9.900
v 6.263 -1.229 9.900
v -9.378 -3.453 9.900
usemtl roof
f 20 21 22 23
usemtl teaching_building
f 19 18 17 16
f 16 17 21 20
f 17 18 22 21
f 18 19 23 22
f 19 16 20 23
