# school_id SD0486
# school_name 莱州中华武校
# boundary_source footprint_convex_hull_buffer_20m
# adjacent_block_merge_distance_m 2.0
mtllib ../campus_materials.mtl
o SD0486_campus_boundary
usemtl campus_boundary
v 2.236 -73.153 0.050
v -68.480 -39.695 0.050
v -74.406 -7.301 0.050
v -75.461 1.611 0.050
v -78.747 36.677 0.050
v -16.197 63.593 0.050
v -4.708 64.944 0.050
v 79.595 56.723 0.050
v 87.013 -13.301 0.050
v 89.826 -63.637 0.050
v 2.236 -73.153 0.050
l 1 2 3 4 5 6 7 8 9 10 11 1
o SD0486_T001_1hao
v 37.440 3.293 0.000
v 64.817 6.138 0.000
v 61.424 38.400 0.000
v 34.047 35.565 0.000
v 37.440 3.293 9.900
v 64.817 6.138 9.900
v 61.424 38.400 9.900
v 34.047 35.565 9.900
usemtl roof
f 16 17 18 19
usemtl teaching_building
f 15 14 13 12
f 12 13 17 16
f 13 14 18 17
f 14 15 19 18
f 15 12 16 19
o SD0486_T002_2hao
v -25.925 19.471 0.000
v -8.325 21.509 0.000
v -6.577 6.545 0.000
v -25.270 4.368 0.000
v -24.511 -2.044 0.000
v -5.832 0.134 0.000
v -4.292 -13.060 0.000
v -23.126 -15.265 0.000
v -22.375 -21.677 0.000
v -3.540 -19.472 0.000
v -2.149 -31.359 0.000
v 4.303 -30.609 0.000
v 2.911 -18.721 0.000
v 28.346 -15.766 0.000
v 27.595 -9.354 0.000
v 2.167 -12.310 0.000
v 0.619 0.884 0.000
v 26.211 3.868 0.000
v 25.452 10.270 0.000
v -0.125 7.296 0.000
v -1.874 22.269 0.000
v 24.797 25.373 0.000
v 24.038 31.784 0.000
v -2.618 28.680 0.000
v -4.508 44.830 0.000
v -10.967 44.070 0.000
v -9.077 27.921 0.000
v -26.676 25.864 0.000
v -25.925 19.471 9.900
v -8.325 21.509 9.900
v -6.577 6.545 9.900
v -25.270 4.368 9.900
v -24.511 -2.044 9.900
v -5.832 0.134 9.900
v -4.292 -13.060 9.900
v -23.126 -15.265 9.900
v -22.375 -21.677 9.900
v -3.540 -19.472 9.900
v -2.149 -31.359 9.900
v 4.303 -30.609 9.900
v 2.911 -18.721 9.900
v 28.346 -15.766 9.900
v 27.595 -9.354 9.900
v 2.167 -12.310 9.900
v 0.619 0.884 9.900
v 26.211 3.868 9.900
v 25.452 10.270 9.900
v -0.125 7.296 9.900
v -1.874 22.269 9.900
v 24.797 25.373 9.900
v 24.038 31.784 9.900
v -2.618 28.680 9.900
v -4.508 44.830 9.900
v -10.967 44.070 9.900
v -9.077 27.921 9.900
v -26.676 25.864 9.900
usemtl roof
f 48 49 50 51 52 53 54 55 56 57 58 59 60 61 62 63 64 65 66 67 68 69 70 71 72 73 74 75
usemtl teaching_building
f 47 46 45 44 43 42 41 40 39 38 37 36 35 34 33 32 31 30 29 28 27 26 25 24 23 22 21 20
f 20 21 49 48
f 21 22 50 49
f 22 23 51 50
f 23 24 52 51
f 24 25 53 52
f 25 26 54 53
f 26 27 55 54
f 27 28 56 55
f 28 29 57 56
f 29 30 58 57
f 30 31 59 58
f 31 32 60 59
f 32 33 61 60
f 33 34 62 61
f 34 35 63 62
f 35 36 64 63
f 36 37 65 64
f 37 38 66 65
f 38 39 67 66
f 39 40 68 67
f 40 41 69 68
f 41 42 70 69
f 42 43 71 70
f 43 44 72 71
f 44 45 73 72
f 45 46 74 73
f 46 47 75 74
f 47 20 48 75
o SD0486_T003_3hao
v 39.687 -17.980 0.000
v 67.072 -14.913 0.000
v 65.956 -5.101 0.000
v 38.564 -8.177 0.000
v 39.687 -17.980 9.900
v 67.072 -14.913 9.900
v 65.956 -5.101 9.900
v 38.564 -8.177 9.900
usemtl roof
f 80 81 82 83
usemtl teaching_building
f 79 78 77 76
f 76 77 81 80
f 77 78 82 81
f 78 79 83 82
f 79 76 80 83
o SD0486_T004_4hao
v 5.687 -52.660 0.000
v 68.798 -45.804 0.000
v 67.853 -37.261 0.000
v 4.757 -44.127 0.000
v 5.687 -52.660 9.900
v 68.798 -45.804 9.900
v 67.853 -37.261 9.900
v 4.757 -44.127 9.900
usemtl roof
f 88 89 90 91
usemtl teaching_building
f 87 86 85 84
f 84 85 89 88
f 85 86 90 89
f 86 87 91 90
f 87 84 88 91
