# school_id SD0436
# school_name 开发区第十二小学
# boundary_source footprint_convex_hull_buffer_20m
# adjacent_block_merge_distance_m 2.0
mtllib ../campus_materials.mtl
o SD0436_campus_boundary
usemtl campus_boundary
v 27.495 -76.510 0.050
v -69.787 -65.094 0.050
v -66.061 -24.639 0.050
v -22.685 79.525 0.050
v 47.756 71.924 0.050
v 41.590 5.932 0.050
v 27.495 -76.510 0.050
l 1 2 3 4 5 6 7 1
o SD0436_T001_1hao
v 10.979 -54.435 0.000
v 12.991 -31.976 0.000
v 10.150 -31.512 0.000
v 14.766 -5.189 0.000
v 21.748 8.551 0.000
v -9.502 18.076 0.000
v -5.353 31.715 0.000
v 22.688 29.593 0.000
v 26.009 54.155 0.000
v -9.968 58.037 0.000
v -46.425 -29.511 0.000
v -48.082 -47.504 0.000
v 10.979 -54.435 9.900
v 12.991 -31.976 9.900
v 10.150 -31.512 9.900
v 14.766 -5.189 9.900
v 21.748 8.551 9.900
v -9.502 18.076 9.900
v -5.353 31.715 9.900
v 22.688 29.593 9.900
v 26.009 54.155 9.900
v -9.968 58.037 9.900
v -46.425 -29.511 9.900
v -48.082 -47.504 9.900
usemtl roof
f 20 21 22 23 24 25 26 27 28 29 30 31
usemtl teaching_building
f 19 18 17 16 15 14 13 12 11 10 9 8
f 8 9 21 20
f 9 10 22 21
f 10 11 23 22
f 11 12 24 23
f 12 13 25 24
f 13 14 26 25
f 14 15 27 26
f 15 16 28 27
f 16 17 29 28
f 17 18 30 29
f 18 19 31 30
f 19 8 20 31
