# school_id SD0407
# school_name 振兴小学
# boundary_source footprint_convex_hull_buffer_20m
# adjacent_block_merge_distance_m 2.0
mtllib ../campus_materials.mtl
o SD0407_campus_boundary
usemtl campus_boundary
v -6.601 -61.404 0.050
v -56.360 -50.951 0.050
v -62.542 -13.603 0.050
v -64.176 4.457 0.050
v -45.558 29.850 0.050
v 22.221 50.771 0.050
v 58.309 53.877 0.050
v 69.693 33.443 0.050
v 70.546 23.766 0.050
v 69.234 10.240 0.050
v 27.591 -58.401 0.050
v -6.601 -61.404 0.050
l 1 2 3 4 5 6 7 8 9 10 11 12 1
o SD0407_T001_1hao
v -42.690 -11.065 0.000
v -25.833 -9.573 0.000
v -24.841 -20.649 0.000
v -30.618 -21.158 0.000
v -30.117 -26.674 0.000
v -32.268 -26.872 0.000
v -32.778 -21.224 0.000
v -39.968 -21.854 0.000
v -38.862 -34.190 0.000
v -31.127 -33.505 0.000
v -31.347 -31.117 0.000
v -29.362 -30.940 0.000
v -28.932 -35.738 0.000
v -6.061 -33.726 0.000
v -5.394 -41.221 0.000
v 15.747 -39.364 0.000
v 13.903 -18.670 0.000
v 4.773 -19.477 0.000
v 5.045 -22.506 0.000
v -1.320 -23.059 0.000
v -3.577 2.376 0.000
v 12.744 3.813 0.000
v 12.095 11.109 0.000
v 13.640 11.242 0.000
v 13.859 8.744 0.000
v 31.348 10.269 0.000
v 30.813 16.349 0.000
v 31.822 16.437 0.000
v 31.928 15.177 0.000
v 49.768 16.713 0.000
v 49.153 23.744 0.000
v 50.461 23.854 0.000
v 50.145 27.436 0.000
v 47.626 27.215 0.000
v 47.134 32.841 0.000
v 26.072 31.028 0.000
v 26.660 24.241 0.000
v 23.526 23.976 0.000
v 23.368 25.855 0.000
v 7.854 24.518 0.000
v 8.434 17.863 0.000
v 5.255 17.587 0.000
v 5.071 19.687 0.000
v -10.205 18.360 0.000
v -9.591 11.396 0.000
v -13.015 11.098 0.000
v -13.173 12.966 0.000
v -23.963 12.015 0.000
v -24.103 13.519 0.000
v -33.340 12.690 0.000
v -32.181 -0.266 0.000
v -43.576 -1.271 0.000
v -42.690 -11.065 18.220
v -25.833 -9.573 18.220
v -24.841 -20.649 18.220
v -30.618 -21.158 18.220
v -30.117 -26.674 18.220
v -32.268 -26.872 18.220
v -32.778 -21.224 18.220
v -39.968 -21.854 18.220
v -38.862 -34.190 18.220
v -31.127 -33.505 18.220
v -31.347 -31.117 18.220
v -29.362 -30.940 18.220
v -28.932 -35.738 18.220
v -6.061 -33.726 18.220
v -5.394 -41.221 18.220
v 15.747 -39.364 18.220
v 13.903 -18.670 18.220
v 4.773 -19.477 18.220
v 5.045 -22.506 18.220
v -1.320 -23.059 18.220
v -3.577 2.376 18.220
v 12.744 3.813 18.220
v 12.095 11.109 18.220
v 13.640 11.242 18.220
v 13.859 8.744 18.220
v 31.348 10.269 18.220
v 30.813 16.349 18.220
v 31.822 16.437 18.220
v 31.928 15.177 18.220
v 49.768 16.713 18.220
v 49.153 23.744 18.220
v 50.461 23.854 18.220
v 50.145 27.436 18.220
v 47.626 27.215 18.220
v 47.134 32.841 18.220
v 26.072 31.028 18.220
v 26.660 24.241 18.220
v 23.526 23.976 18.220
v 23.368 25.855 18.220
v 7.854 24.518 18.220
v 8.434 17.863 18.220
v 5.255 17.587 18.220
v 5.071 19.687 18.220
v -10.205 18.360 18.220
v -9.591 11.396 18.220
v -13.015 11.098 18.220
v -13.173 12.966 18.220
v -23.963 12.015 18.220
v -24.103 13.519 18.220
v -33.340 12.690 18.220
v -32.181 -0.266 18.220
v -43.576 -1.271 18.220
usemtl roof
f 65 66 67 68 69 70 71 72 73 74 75 76 77 78 79 80 81 82 83 84 85 86 87 88 89 90 91 92 93 94 95 96 97 98 99 100 101 102 103 104 105 106 107 108 109 110 111 112 113 114 115 116
usemtl teaching_building
f 64 63 62 61 60 59 58 57 56 55 54 53 52 51 50 49 48 47 46 45 44 43 42 41 40 39 38 37 36 35 34 33 32 31 30 29 28 27 26 25 24 23 22 21 20 19 18 17 16 15 14 13
f 13 14 66 65
f 14 15 67 66
f 15 16 68 67
f 16 17 69 68
f 17 18 70 69
f 18 19 71 70
f 19 20 72 71
f 20 21 73 72
f 21 22 74 73
f 22 23 75 74
f 23 24 76 75
f 24 25 77 76
f 25 26 78 77
f 26 27 79 78
f 27 28 80 79
f 28 29 81 80
f 29 30 82 81
f 30 31 83 82
f 31 32 84 83
f 32 33 85 84
f 33 34 86 85
f 34 35 87 86
f 35 36 88 87
f 36 37 89 88
f 37 38 90 89
f 38 39 91 90
f 39 40 92 91
f 40 41 93 92
f 41 42 94 93
f 42 43 95 94
f 43 44 96 95
f 44 45 97 96
f 45 46 98 97
f 46 47 99 98
f 47 48 100 99
f 48 49 101 100
f 49 50 102 101
f 50 51 103 102
f 51 52 104 103
f 52 53 105 104
f 53 54 106 105
f 54 55 107 106
f 55 56 108 107
f 56 57 109 108
f 57 58 110 109
f 58 59 111 110
f 59 60 112 111
f 60 61 113 112
f 61 62 114 113
f 62 63 115 114
f 63 64 116 115
f 64 13 65 116
