# school_id SD0480
# school_name 莱山区第三实验小学
# boundary_source footprint_convex_hull_buffer_20m
# adjacent_block_merge_distance_m 2.0
mtllib ../campus_materials.mtl
o SD0480_campus_boundary
usemtl campus_boundary
v 57.502 -57.248 0.050
v -43.196 -56.505 0.050
v -103.880 -53.942 0.050
v -99.469 49.360 0.050
v -25.765 59.507 0.050
v 54.019 57.760 0.050
v 68.678 41.070 0.050
v 67.043 -33.357 0.050
v 57.502 -57.248 0.050
l 1 2 3 4 5 6 7 8 9 1
o SD0480_T001_1hao
v 43.993 -37.148 0.000
v 44.170 -29.235 0.000
v 47.127 -29.300 0.000
v 48.512 33.723 0.000
v 44.697 33.816 0.000
v 44.793 37.957 0.000
v -24.613 39.477 0.000
v -25.109 17.258 0.000
v 37.361 15.896 0.000
v 36.583 -19.395 0.000
v -25.665 -18.052 0.000
v -26.050 -35.628 0.000
v 43.993 -37.148 9.900
v 44.170 -29.235 9.900
v 47.127 -29.300 9.900
v 48.512 33.723 9.900
v 44.697 33.816 9.900
v 44.793 37.957 9.900
v -24.613 39.477 9.900
v -25.109 17.258 9.900
v 37.361 15.896 9.900
v 36.583 -19.395 9.900
v -25.665 -18.052 9.900
v -26.050 -35.628 9.900
usemtl roof
f 22 23 24 25 26 27 28 29 30 31 32 33
usemtl teaching_building
f 21 20 19 18 17 16 15 14 13 12 11 10
f 10 11 23 22
f 11 12 24 23
f 12 13 25 24
f 13 14 26 25
f 14 15 27 26
f 15 16 28 27
f 16 17 29 28
f 17 18 30 29
f 18 19 31 30
f 19 20 32 31
f 20 21 33 32
f 21 10 22 33
o SD0480_T002_2hao
v -42.700 -36.508 0.000
v -39.854 30.119 0.000
v -80.200 31.824 0.000
v -83.045 -34.804 0.000
v -42.700 -36.508 6.600
v -39.854 30.119 6.600
v -80.200 31.824 6.600
v -83.045 -34.804 6.600
usemtl roof
f 38 39 40 41
usemtl teaching_building
f 37 36 35 34
f 34 35 39 38
f 35 36 40 39
f 36 37 41 40
f 37 34 38 41
