# school_id SD0488
# school_name 莱州市双语学校
# boundary_source footprint_convex_hull_buffer_20m
# adjacent_block_merge_distance_m 2.0
mtllib ../campus_materials.mtl
o SD0488_campus_boundary
usemtl campus_boundary
v -85.842 -193.334 0.050
v -85.996 -129.556 0.050
v -85.979 -116.352 0.050
v -84.760 57.236 0.050
v -9.606 223.436 0.050
v 69.852 223.906 0.050
v 70.194 166.438 0.050
v 68.904 24.925 0.050
v 17.150 -193.181 0.050
v -9.116 -193.319 0.050
v -85.842 -193.334 0.050
l 1 2 3 4 5 6 7 8 9 10 11 1
o SD0488_T001_1hao
v 3.564 166.182 0.000
v 50.193 166.470 0.000
v 49.971 203.788 0.000
v 3.334 203.512 0.000
v 3.564 166.182 15.970
v 50.193 166.470 15.970
v 49.971 203.788 15.970
v 3.334 203.512 15.970
usemtl roof
f 16 17 18 19
usemtl teaching_building
f 15 14 13 12
f 12 13 17 16
f 13 14 18 17
f 14 15 19 18
f 15 12 16 19
o SD0488_T002_2hao
v 5.985 111.377 0.000
v 48.650 111.023 0.000
v 48.960 147.822 0.000
v 6.305 148.187 0.000
v 5.985 111.377 13.070
v 48.650 111.023 13.070
v 48.960 147.822 13.070
v 6.305 148.187 13.070
usemtl roof
f 24 25 26 27
usemtl teaching_building
f 23 22 21 20
f 20 21 25 24
f 21 22 26 25
f 22 23 27 26
f 23 20 24 27
o SD0488_T003_3hao
v -2.244 64.906 0.000
v 48.818 65.359 0.000
v 48.596 89.965 0.000
v -2.466 89.512 0.000
v -2.244 64.906 10.030
v 48.818 65.359 10.030
v 48.596 89.965 10.030
v -2.466 89.512 10.030
usemtl roof
f 32 33 34 35
usemtl teaching_building
f 31 30 29 28
f 28 29 33 32
f 29 30 34 33
f 30 31 35 34
f 31 28 32 35
o SD0488_T004_4hao
v -64.790 52.857 0.000
v 2.660 52.934 0.000
v 2.731 -3.983 0.000
v -64.719 -4.071 0.000
v -64.790 52.857 13.170
v 2.660 52.934 13.170
v 2.731 -3.983 13.170
v -64.719 -4.071 13.170
usemtl roof
f 40 41 42 43
usemtl teaching_building
f 39 38 37 36
f 36 37 41 40
f 37 38 42 41
f 38 39 43 42
f 39 36 40 43
o SD0488_T004_4hao_seg02
v 2.811 48.391 0.000
v 48.756 48.767 0.000
v 48.925 27.355 0.000
v 2.713 27.267 0.000
v 2.811 48.391 13.170
v 48.756 48.767 13.170
v 48.925 27.355 13.170
v 2.713 27.267 13.170
usemtl roof
f 48 49 50 51
usemtl teaching_building
f 47 46 45 44
f 44 45 49 48
f 45 46 50 49
f 46 47 51 50
f 47 44 48 51
o SD0488_T005_5hao
v -65.890 -173.330 0.000
v -65.872 -160.231 0.000
v -9.237 -160.331 0.000
v -9.396 -129.623 0.000
v -65.996 -129.545 0.000
v -65.979 -116.435 0.000
v -9.464 -116.524 0.000
v -10.021 -8.869 0.000
v 0.434 -8.813 0.000
v 1.321 -173.264 0.000
v -9.170 -173.319 0.000
v -65.890 -173.330 12.250
v -65.872 -160.231 12.250
v -9.237 -160.331 12.250
v -9.396 -129.623 12.250
v -65.996 -129.545 12.250
v -65.979 -116.435 12.250
v -9.464 -116.524 12.250
v -10.021 -8.869 12.250
v 0.434 -8.813 12.250
v 1.321 -173.264 12.250
v -9.170 -173.319 12.250
usemtl roof
f 63 64 65 66 67 68 69 70 71 72 73
usemtl teaching_building
f 62 61 60 59 58 57 56 55 54 53 52
f 52 53 64 63
f 53 54 65 64
f 54 55 66 65
f 55 56 67 66
f 56 57 68 67
f 57 58 69 68
f 58 59 70 69
f 59 60 71 70
f 60 61 72 71
f 61 62 73 72
f 62 52 63 73
