# school_id SD0430
# school_name 康和小学
# boundary_source footprint_convex_hull_buffer_20m
# adjacent_block_merge_distance_m 2.0
mtllib ../campus_materials.mtl
o SD0430_campus_boundary
usemtl campus_boundary
v 40.579 -89.223 0.050
v -39.461 -87.499 0.050
v -110.026 31.031 0.050
v -115.423 62.178 0.050
v -65.404 70.778 0.050
v 47.584 87.701 0.050
v 69.117 3.182 0.050
v 64.598 -67.800 0.050
v 40.579 -89.223 0.050
l 1 2 3 4 5 6 7 8 9 1
o SD0430_T001_1hao
v -17.052 38.087 0.000
v 35.998 48.436 0.000
v 32.667 65.244 0.000
v -20.383 54.904 0.000
v -17.052 38.087 9.900
v 35.998 48.436 9.900
v 32.667 65.244 9.900
v -20.383 54.904 9.900
usemtl roof
f 14 15 16 17
usemtl teaching_building
f 13 12 11 10
f 10 11 15 14
f 11 12 16 15
f 12 13 17 16
f 13 10 14 17
o SD0430_T002_2hao
v -90.951 38.087 0.000
v -60.866 43.257 0.000
v -62.228 51.031 0.000
v -92.298 45.861 0.000
v -90.951 38.087 9.900
v -60.866 43.257 9.900
v -62.228 51.031 9.900
v -92.298 45.861 9.900
usemtl roof
f 22 23 24 25
usemtl teaching_building
f 21 20 19 18
f 18 19 23 22
f 19 20 24 23
f 20 21 25 24
f 21 18 22 25
o SD0430_T003_3hao
v 48.957 1.303 0.000
v 45.160 -58.338 0.000
v 33.400 -57.596 0.000
v 35.945 -17.625 0.000
v -23.684 -15.541 0.000
v -22.263 24.448 0.000
v 37.914 22.336 0.000
v 37.187 1.888 0.000
v 37.196 2.026 0.000
v 48.957 1.303 9.900
v 45.160 -58.338 9.900
v 33.400 -57.596 9.900
v 35.945 -17.625 9.900
v -23.684 -15.541 9.900
v -22.263 24.448 9.900
v 37.914 22.336 9.900
v 37.187 1.888 9.900
v 37.196 2.026 9.900
usemtl roof
f 35 36 37 38 39 40 41 42 43
usemtl teaching_building
f 34 33 32 31 30 29 28 27 26
f 26 27 36 35
f 27 28 37 36
f 28 29 38 37
f 29 30 39 38
f 30 31 40 39
f 31 32 41 40
f 32 33 42 41
f 33 34 43 42
f 34 26 35 43
o SD0430_T003_3hao_seg02
v -27.947 -67.742 0.000
v -27.473 -46.107 0.000
v 33.622 -47.423 0.000
v 33.141 -69.058 0.000
v -27.947 -67.742 9.900
v -27.473 -46.107 9.900
v 33.622 -47.423 9.900
v 33.141 -69.058 9.900
usemtl roof
f 48 49 50 51
usemtl teaching_building
f 47 46 45 44
f 44 45 49 48
f 45 46 50 49
f 46 47 51 50
f 47 44 48 51
