# school_id SD0490
# school_name 莱州市实验中学
# boundary_source footprint_convex_hull_buffer_20m
# adjacent_block_merge_distance_m 2.0
mtllib ../campus_materials.mtl
o SD0490_campus_boundary
usemtl campus_boundary
v 105.382 -115.642 0.050
v -97.818 -56.174 0.050
v -101.974 2.071 0.050
v -102.329 44.678 0.050
v 2.401 110.524 0.050
v 150.333 111.982 0.050
v 152.604 -115.169 0.050
v 105.382 -115.642 0.050
l 1 2 3 4 5 6 7 8 1
o SD0490_T001_1hao
v -82.237 33.686 0.000
v -81.980 2.867 0.000
v -0.284 4.227 0.000
v -2.289 34.349 0.000
v -82.237 33.686 11.090
v -81.980 2.867 11.090
v -0.284 4.227 11.090
v -2.289 34.349 11.090
usemtl roof
f 13 14 15 16
usemtl teaching_building
f 12 11 10 9
f 9 10 14 13
f 10 11 15 14
f 11 12 16 15
f 12 9 13 16
o SD0490_T002_2hao
v 8.345 81.262 0.000
v 106.367 82.224 0.000
v 108.150 -95.613 0.000
v 132.405 -95.370 0.000
v 130.534 91.786 0.000
v 8.256 90.581 0.000
v 8.345 81.262 9.580
v 106.367 82.224 9.580
v 108.150 -95.613 9.580
v 132.405 -95.370 9.580
v 130.534 91.786 9.580
v 8.256 90.581 9.580
usemtl roof
f 23 24 25 26 27 28
usemtl teaching_building
f 22 21 20 19 18 17
f 17 18 24 23
f 18 19 25 24
f 19 20 26 25
f 20 21 27 26
f 21 22 28 27
f 22 17 23 28
o SD0490_T003_3hao
v -78.858 -40.884 0.000
v -3.060 -39.823 0.000
v -3.246 -26.791 0.000
v -19.653 -27.023 0.000
v -19.724 -21.827 0.000
v -61.849 -22.435 0.000
v -61.804 -25.486 0.000
v -79.071 -25.729 0.000
v -78.858 -40.884 14.170
v -3.060 -39.823 14.170
v -3.246 -26.791 14.170
v -19.653 -27.023 14.170
v -19.724 -21.827 14.170
v -61.849 -22.435 14.170
v -61.804 -25.486 14.170
v -79.071 -25.729 14.170
usemtl roof
f 37 38 39 40 41 42 43 44
usemtl teaching_building
f 36 35 34 33 32 31 30 29
f 29 30 38 37
f 30 31 39 38
f 31 32 40 39
f 32 33 41 40
f 33 34 42 41
f 34 35 43 42
f 35 36 44 43
f 36 29 37 44
