# school_id SD0461
# school_name 烟台清泉学校
# boundary_source footprint_convex_hull_buffer_20m
# adjacent_block_merge_distance_m 2.0
mtllib ../campus_materials.mtl
o SD0461_campus_boundary
usemtl campus_boundary
v 36.656 -352.565 0.050
v 6.430 -345.103 0.050
v -29.285 -331.260 0.050
v -182.131 -266.846 0.050
v -229.093 -246.428 0.050
v -297.623 37.264 0.050
v -293.612 82.418 0.050
v 15.843 508.912 0.050
v 56.448 519.373 0.050
v 85.240 524.259 0.050
v 90.831 491.599 0.050
v 134.975 166.675 0.050
v 131.431 67.450 0.050
v 129.094 34.914 0.050
v 60.125 -280.217 0.050
v 56.231 -295.796 0.050
v 36.656 -352.565 0.050
l 1 2 3 4 5 6 7 8 9 10 11 12 13 14 15 16 17 1
o SD0461_T001_1hao
v 29.489 481.535 0.000
v 71.060 488.565 0.000
v 68.897 501.200 0.000
v 60.623 499.796 0.000
v 61.109 496.977 0.000
v 27.803 491.340 0.000
v 29.489 481.535 11.350
v 71.060 488.565 11.350
v 68.897 501.200 11.350
v 60.623 499.796 11.350
v 61.109 496.977 11.350
v 27.803 491.340 11.350
usemtl roof
f 24 25 26 27 28 29
usemtl teaching_building
f 23 22 21 20 19 18
f 18 19 25 24
f 19 20 26 25
f 20 21 27 26
f 21 22 28 27
f 22 23 29 28
f 23 18 24 29
o SD0461_T002_2hao
v -56.673 149.937 0.000
v 3.759 145.327 0.000
v 4.721 159.587 0.000
v -55.702 164.296 0.000
v -56.673 149.937 12.420
v 3.759 145.327 12.420
v 4.721 159.587 12.420
v -55.702 164.296 12.420
usemtl roof
f 34 35 36 37
usemtl teaching_building
f 33 32 31 30
f 30 31 35 34
f 31 32 36 35
f 32 33 37 36
f 33 30 34 37
o SD0461_T003_3hao
v 38.372 169.281 0.000
v 36.650 138.861 0.000
v 113.170 134.594 0.000
v 114.927 165.678 0.000
v 103.898 166.297 0.000
v 103.051 151.374 0.000
v 46.760 154.513 0.000
v 47.564 168.762 0.000
v 38.372 169.281 12.260
v 36.650 138.861 12.260
v 113.170 134.594 12.260
v 114.927 165.678 12.260
v 103.898 166.297 12.260
v 103.051 151.374 12.260
v 46.760 154.513 12.260
v 47.564 168.762 12.260
usemtl roof
f 46 47 48 49 50 51 52 53
usemtl teaching_building
f 45 44 43 42 41 40 39 38
f 38 39 47 46
f 39 40 48 47
f 40 41 49 48
f 41 42 50 49
f 42 43 51 50
f 43 44 52 51
f 44 45 53 52
f 45 38 46 53
o SD0461_T004_4hao
v 30.708 75.897 0.000
v 28.465 44.636 0.000
v 44.103 43.531 0.000
v 44.685 51.678 0.000
v 95.104 48.107 0.000
v 94.442 38.833 0.000
v 109.249 37.783 0.000
v 111.457 68.524 0.000
v 99.139 69.397 0.000
v 98.892 65.915 0.000
v 78.725 67.341 0.000
v 78.919 69.983 0.000
v 60.773 71.277 0.000
v 60.517 67.739 0.000
v 42.407 69.022 0.000
v 42.840 75.035 0.000
v 30.708 75.897 8.300
v 28.465 44.636 8.300
v 44.103 43.531 8.300
v 44.685 51.678 8.300
v 95.104 48.107 8.300
v 94.442 38.833 8.300
v 109.249 37.783 8.300
v 111.457 68.524 8.300
v 99.139 69.397 8.300
v 98.892 65.915 8.300
v 78.725 67.341 8.300
v 78.919 69.983 8.300
v 60.773 71.277 8.300
v 60.517 67.739 8.300
v 42.407 69.022 8.300
v 42.840 75.035 8.300
usemtl roof
f 70 71 72 73 74 75 76 77 78 79 80 81 82 83 84 85
usemtl teaching_building
f 69 68 67 66 65 64 63 62 61 60 59 58 57 56 55 54
f 54 55 71 70
f 55 56 72 71
f 56 57 73 72
f 57 58 74 73
f 58 59 75 74
f 59 60 76 75
f 60 61 77 76
f 61 62 78 77
f 62 63 79 78
f 63 64 80 79
f 64 65 81 80
f 65 66 82 81
f 66 67 83 82
f 67 68 84 83
f 68 69 85 84
f 69 54 70 85
o SD0461_T005_5hao
v -277.411 38.767 0.000
v -231.125 34.710 0.000
v -227.884 71.089 0.000
v -274.179 75.145 0.000
v -277.411 38.767 16.230
v -231.125 34.710 16.230
v -227.884 71.089 16.230
v -274.179 75.145 16.230
usemtl roof
f 90 91 92 93
usemtl teaching_building
f 89 88 87 86
f 86 87 91 90
f 87 88 92 91
f 88 89 93 92
f 89 86 90 93
o SD0461_T006_6hao
v -61.962 32.190 0.000
v -4.479 28.608 0.000
v -3.729 40.381 0.000
v -61.211 43.962 0.000
v -61.962 32.190 20.490
v -4.479 28.608 20.490
v -3.729 40.381 20.490
v -61.211 43.962 20.490
usemtl roof
f 98 99 100 101
usemtl teaching_building
f 97 96 95 94
f 94 95 99 98
f 95 96 100 99
f 96 97 101 100
f 97 94 98 101
o SD0461_T007_7hao
v -205.500 -217.343 0.000
v -167.770 -233.748 0.000
v -174.260 -248.460 0.000
v -211.990 -232.056 0.000
v -205.500 -217.343 10.010
v -167.770 -233.748 10.010
v -174.260 -248.460 10.010
v -211.990 -232.056 10.010
usemtl roof
f 106 107 108 109
usemtl teaching_building
f 105 104 103 102
f 102 103 107 106
f 103 104 108 107
f 104 105 109 108
f 105 102 106 109
o SD0461_T008_8hao
v 15.467 -223.876 0.000
v 13.931 -230.254 0.000
v 30.646 -234.223 0.000
v 31.803 -229.414 0.000
v 48.138 -233.294 0.000
v 45.462 -244.437 0.000
v 42.337 -243.696 0.000
v 41.551 -246.946 0.000
v 3.238 -237.849 0.000
v 7.079 -221.887 0.000
v 15.467 -223.876 11.760
v 13.931 -230.254 11.760
v 30.646 -234.223 11.760
v 31.803 -229.414 11.760
v 48.138 -233.294 11.760
v 45.462 -244.437 11.760
v 42.337 -243.696 11.760
v 41.551 -246.946 11.760
v 3.238 -237.849 11.760
v 7.079 -221.887 11.760
usemtl roof
f 120 121 122 123 124 125 126 127 128 129
usemtl teaching_building
f 119 118 117 116 115 114 113 112 111 110
f 110 111 121 120
f 111 112 122 121
f 112 113 123 122
f 113 114 124 123
f 114 115 125 124
f 115 116 126 125
f 116 117 127 126
f 117 118 128 127
f 118 119 129 128
f 119 110 120 129
o SD0461_T009_9hao
v -8.453 -274.050 0.000
v 26.937 -282.783 0.000
v 25.798 -287.326 0.000
v 37.039 -290.101 0.000
v 40.650 -275.653 0.000
v 35.617 -274.415 0.000
v 37.233 -267.993 0.000
v -4.365 -257.724 0.000
v -8.453 -274.050 11.930
v 26.937 -282.783 11.930
v 25.798 -287.326 11.930
v 37.039 -290.101 11.930
v 40.650 -275.653 11.930
v 35.617 -274.415 11.930
v 37.233 -267.993 11.930
v -4.365 -257.724 11.930
usemtl roof
f 138 139 140 141 142 143 144 145
usemtl teaching_building
f 137 136 135 134 133 132 131 130
f 130 131 139 138
f 131 132 140 139
f 132 133 141 140
f 133 134 142 141
f 134 135 143 142
f 135 136 144 143
f 136 137 145 144
f 137 130 138 145
o SD0461_T010_10hao
v -21.786 -312.717 0.000
v 13.604 -321.450 0.000
v 12.465 -325.993 0.000
v 23.706 -328.768 0.000
v 27.317 -314.320 0.000
v 22.293 -313.082 0.000
v 23.900 -306.660 0.000
v -17.698 -296.391 0.000
v -21.786 -312.717 18.890
v 13.604 -321.450 18.890
v 12.465 -325.993 18.890
v 23.706 -328.768 18.890
v 27.317 -314.320 18.890
v 22.293 -313.082 18.890
v 23.900 -306.660 18.890
v -17.698 -296.391 18.890
usemtl roof
f 154 155 156 157 158 159 160 161
usemtl teaching_building
f 153 152 151 150 149 148 147 146
f 146 147 155 154
f 147 148 156 155
f 148 149 157 156
f 149 150 158 157
f 150 151 159 158
f 151 152 160 159
f 152 153 161 160
f 153 146 154 161
