# school_id SD0426
# school_name 山东省烟台第二中学高中部（高新区校区）
# boundary_source footprint_convex_hull_buffer_20m
# adjacent_block_merge_distance_m 2.0
mtllib ../campus_materials.mtl
o SD0426_campus_boundary
usemtl campus_boundary
v 20.828 -201.714 0.050
v -45.967 -179.281 0.050
v -165.180 -135.522 0.050
v -212.210 -59.186 0.050
v -204.161 -36.921 0.050
v -190.008 0.266 0.050
v -145.133 118.117 0.050
v 78.117 161.124 0.050
v 137.132 149.067 0.050
v 213.428 122.194 0.050
v 188.289 51.811 0.050
v 70.358 -157.113 0.050
v 20.828 -201.714 0.050
l 1 2 3 4 5 6 7 8 9 10 11 12 13 1
o SD0426_T001_1hao
v 109.070 130.620 0.000
v 107.373 125.491 0.000
v 122.597 120.528 0.000
v 119.777 112.005 0.000
v 104.314 117.046 0.000
v 103.332 114.072 0.000
v 96.887 116.172 0.000
v 91.202 98.928 0.000
v 112.845 91.887 0.000
v 109.689 82.325 0.000
v 70.859 94.971 0.000
v 74.572 106.224 0.000
v 67.376 108.567 0.000
v 78.003 140.734 0.000
v 109.070 130.620 7.850
v 107.373 125.491 7.850
v 122.597 120.528 7.850
v 119.777 112.005 7.850
v 104.314 117.046 7.850
v 103.332 114.072 7.850
v 96.887 116.172 7.850
v 91.202 98.928 7.850
v 112.845 91.887 7.850
v 109.689 82.325 7.850
v 70.859 94.971 7.850
v 74.572 106.224 7.850
v 67.376 108.567 7.850
v 78.003 140.734 7.850
usemtl roof
f 28 29 30 31 32 33 34 35 36 37 38 39 40 41
usemtl teaching_building
f 27 26 25 24 23 22 21 20 19 18 17 16 15 14
f 14 15 29 28
f 15 16 30 29
f 16 17 31 30
f 17 18 32 31
f 18 19 33 32
f 19 20 34 33
f 20 21 35 34
f 21 22 36 35
f 22 23 37 36
f 23 24 38 37
f 24 25 39 38
f 25 26 40 39
f 26 27 41 40
f 27 14 28 41
o SD0426_T002_2hao
v 187.836 110.004 0.000
v 170.030 60.151 0.000
v 147.361 68.132 0.000
v 149.014 72.752 0.000
v 123.676 81.684 0.000
v 122.235 77.649 0.000
v 114.737 80.291 0.000
v 117.752 88.725 0.000
v 121.678 87.333 0.000
v 127.920 104.798 0.000
v 123.437 106.379 0.000
v 131.783 129.747 0.000
v 187.836 110.004 7.870
v 170.030 60.151 7.870
v 147.361 68.132 7.870
v 149.014 72.752 7.870
v 123.676 81.684 7.870
v 122.235 77.649 7.870
v 114.737 80.291 7.870
v 117.752 88.725 7.870
v 121.678 87.333 7.870
v 127.920 104.798 7.870
v 123.437 106.379 7.870
v 131.783 129.747 7.870
usemtl roof
f 54 55 56 57 58 59 60 61 62 63 64 65
usemtl teaching_building
f 53 52 51 50 49 48 47 46 45 44 43 42
f 42 43 55 54
f 43 44 56 55
f 44 45 57 56
f 45 46 58 57
f 46 47 59 58
f 47 48 60 59
f 48 49 61 60
f 49 50 62 61
f 50 51 63 62
f 51 52 64 63
f 52 53 65 64
f 53 42 54 65
o SD0426_T003_3hao
v -134.617 88.692 0.000
v -86.663 71.956 0.000
v -82.454 83.839 0.000
v -130.408 100.586 0.000
v -134.617 88.692 9.900
v -86.663 71.956 9.900
v -82.454 83.839 9.900
v -130.408 100.586 9.900
usemtl roof
f 70 71 72 73
usemtl teaching_building
f 69 68 67 66
f 66 67 71 70
f 67 68 72 71
f 68 69 73 72
f 69 66 70 73
o SD0426_T004_4hao
v -48.955 25.839 0.000
v 28.059 -1.221 0.000
v 55.511 75.792 0.000
v -21.495 102.863 0.000
v -48.955 25.839 21.850
v 28.059 -1.221 21.850
v 55.511 75.792 21.850
v -21.495 102.863 21.850
usemtl roof
f 78 79 80 81
usemtl teaching_building
f 77 76 75 74
f 74 75 79 78
f 75 76 80 79
f 76 77 81 80
f 77 74 78 81
o SD0426_T005_5hao
v 36.264 -11.512 0.000
v 96.640 -32.614 0.000
v 101.423 -19.129 0.000
v 41.056 1.985 0.000
v 36.264 -11.512 9.900
v 96.640 -32.614 9.900
v 101.423 -19.129 9.900
v 41.056 1.985 9.900
usemtl roof
f 86 87 88 89
usemtl teaching_building
f 85 84 83 82
f 82 83 87 86
f 83 84 88 87
f 84 85 89 88
f 85 82 86 89
o SD0426_T006_6hao
v -117.226 -26.104 0.000
v -121.187 -37.069 0.000
v -129.003 -34.284 0.000
v -133.034 -45.448 0.000
v -124.883 -48.355 0.000
v -129.082 -59.984 0.000
v -134.847 -57.928 0.000
v -136.084 -61.355 0.000
v -127.544 -64.406 0.000
v -132.292 -77.538 0.000
v -190.121 -56.911 0.000
v -185.409 -43.878 0.000
v -142.423 -59.210 0.000
v -140.894 -54.988 0.000
v -148.232 -52.368 0.000
v -143.953 -40.518 0.000
v -136.809 -43.060 0.000
v -133.238 -33.189 0.000
v -175.401 -18.178 0.000
v -171.316 -6.848 0.000
v -117.226 -26.104 9.900
v -121.187 -37.069 9.900
v -129.003 -34.284 9.900
v -133.034 -45.448 9.900
v -124.883 -48.355 9.900
v -129.082 -59.984 9.900
v -134.847 -57.928 9.900
v -136.084 -61.355 9.900
v -127.544 -64.406 9.900
v -132.292 -77.538 9.900
v -190.121 -56.911 9.900
v -185.409 -43.878 9.900
v -142.423 -59.210 9.900
v -140.894 -54.988 9.900
v -148.232 -52.368 9.900
v -143.953 -40.518 9.900
v -136.809 -43.060 9.900
v -133.238 -33.189 9.900
v -175.401 -18.178 9.900
v -171.316 -6.848 9.900
usemtl roof
f 110 111 112 113 114 115 116 117 118 119 120 121 122 123 124 125 126 127 128 129
usemtl teaching_building
f 109 108 107 106 105 104 103 102 101 100 99 98 97 96 95 94 93 92 91 90
f 90 91 111 110
f 91 92 112 111
f 92 93 113 112
f 93 94 114 113
f 94 95 115 114
f 95 96 116 115
f 96 97 117 116
f 97 98 118 117
f 98 99 119 118
f 99 100 120 119
f 100 101 121 120
f 101 102 122 121
f 102 103 123 122
f 103 104 124 123
f 104 105 125 124
f 105 106 126 125
f 106 107 127 126
f 107 108 128 127
f 108 109 129 128
f 109 90 110 129
o SD0426_T007_7hao
v 23.824 -50.798 0.000
v 82.812 -70.662 0.000
v 87.710 -56.292 0.000
v 28.722 -36.439 0.000
v 23.824 -50.798 9.900
v 82.812 -70.662 9.900
v 87.710 -56.292 9.900
v 28.722 -36.439 9.900
usemtl roof
f 134 135 136 137
usemtl teaching_building
f 133 132 131 130
f 130 131 135 134
f 131 132 136 135
f 132 133 137 136
f 133 130 134 137
o SD0426_T008_8hao
v 10.908 -85.740 0.000
v 69.338 -106.311 0.000
v 73.671 -94.152 0.000
v 15.249 -73.603 0.000
v 10.908 -85.740 9.900
v 69.338 -106.311 9.900
v 73.671 -94.152 9.900
v 15.249 -73.603 9.900
usemtl roof
f 142 143 144 145
usemtl teaching_building
f 141 140 139 138
f 138 139 143 142
f 139 140 144 143
f 140 141 145 144
f 141 138 142 145
o SD0426_T009_9hao
v -151.786 -119.134 0.000
v -94.929 -137.871 0.000
v -87.892 -116.824 0.000
v -144.758 -98.076 0.000
v -151.786 -119.134 9.900
v -94.929 -137.871 9.900
v -87.892 -116.824 9.900
v -144.758 -98.076 9.900
usemtl roof
f 150 151 152 153
usemtl teaching_building
f 149 148 147 146
f 146 147 151 150
f 147 148 152 151
f 148 149 153 152
f 149 146 150 153
o SD0426_T010_10hao
v -3.044 -123.368 0.000
v 54.547 -144.437 0.000
v 59.189 -131.912 0.000
v 1.589 -110.866 0.000
v -3.044 -123.368 9.900
v 54.547 -144.437 9.900
v 59.189 -131.912 9.900
v 1.589 -110.866 9.900
usemtl roof
f 158 159 160 161
usemtl teaching_building
f 157 156 155 154
f 154 155 159 158
f 155 156 160 159
f 156 157 161 160
f 157 154 158 161
o SD0426_T011_11hao
v -39.336 -160.410 0.000
v 16.124 -179.036 0.000
v 23.391 -157.679 0.000
v -32.069 -139.064 0.000
v -39.336 -160.410 14.110
v 16.124 -179.036 14.110
v 23.391 -157.679 14.110
v -32.069 -139.064 14.110
usemtl roof
f 166 167 168 169
usemtl teaching_building
f 165 164 163 162
f 162 163 167 166
f 163 164 168 167
f 164 165 169 168
f 165 162 166 169
