# school_id SD0467
# school_name 烟台经济技术开发区实验中学西校区
# boundary_source footprint_convex_hull_buffer_20m
# adjacent_block_merge_distance_m 2.0
mtllib ../campus_materials.mtl
o SD0467_campus_boundary
usemtl campus_boundary
v -35.904 -59.005 0.050
v -57.347 -55.197 0.050
v -75.949 -34.879 0.050
v -67.616 5.170 0.050
v -51.971 67.186 0.050
v 61.250 44.375 0.050
v 114.866 33.388 0.050
v 101.536 -25.061 0.050
v -35.904 -59.005 0.050
l 1 2 3 4 5 6 7 8 9 1
o SD0467_T001_1hao
v -47.174 -36.691 0.000
v -43.099 -35.978 0.000
v -36.582 -38.572 0.000
v -26.937 -34.338 0.000
v -20.842 -33.874 0.000
v -16.352 -13.889 0.000
v -21.433 -6.134 0.000
v -30.250 -4.364 0.000
v -27.114 3.446 0.000
v -24.991 6.550 0.000
v -22.151 18.781 0.000
v 40.818 3.854 0.000
v 41.291 6.087 0.000
v 52.823 3.910 0.000
v 51.403 -1.427 0.000
v 84.777 -8.599 0.000
v 90.820 17.900 0.000
v 57.268 24.775 0.000
v 56.499 21.134 0.000
v 45.670 23.719 0.000
v 46.321 26.823 0.000
v -37.240 43.816 0.000
v -41.619 22.783 0.000
v -31.671 20.661 0.000
v -37.832 -2.131 0.000
v -48.121 0.685 0.000
v -54.282 -28.927 0.000
v -47.174 -36.691 9.900
v -43.099 -35.978 9.900
v -36.582 -38.572 9.900
v -26.937 -34.338 9.900
v -20.842 -33.874 9.900
v -16.352 -13.889 9.900
v -21.433 -6.134 9.900
v -30.250 -4.364 9.900
v -27.114 3.446 9.900
v -24.991 6.550 9.900
v -22.151 18.781 9.900
v 40.818 3.854 9.900
v 41.291 6.087 9.900
v 52.823 3.910 9.900
v 51.403 -1.427 9.900
v 84.777 -8.599 9.900
v 90.820 17.900 9.900
v 57.268 24.775 9.900
v 56.499 21.134 9.900
v 45.670 23.719 9.900
v 46.321 26.823 9.900
v -37.240 43.816 9.900
v -41.619 22.783 9.900
v -31.671 20.661 9.900
v -37.832 -2.131 9.900
v -48.121 0.685 9.900
v -54.282 -28.927 9.900
usemtl roof
f 37 38 39 40 41 42 43 44 45 46 47 48 49 50 51 52 53 54 55 56 57 58 59 60 61 62 63
usemtl teaching_building
f 36 35 34 33 32 31 30 29 28 27 26 25 24 23 22 21 20 19 18 17 16 15 14 13 12 11 10
f 10 11 38 37
f 11 12 39 38
f 12 13 40 39
f 13 14 41 40
f 14 15 42 41
f 15 16 43 42
f 16 17 44 43
f 17 18 45 44
f 18 19 46 45
f 19 20 47 46
f 20 21 48 47
f 21 22 49 48
f 22 23 50 49
f 23 24 51 50
f 24 25 52 51
f 25 26 53 52
f 26 27 54 53
f 27 28 55 54
f 28 29 56 55
f 29 30 57 56
f 30 31 58 57
f 31 32 59 58
f 32 33 60 59
f 33 34 61 60
f 34 35 62 61
f 35 36 63 62
f 36 10 37 63
