# school_id SD0425
# school_name 山东省烟台第二中学南校(莱山校区)
# boundary_source footprint_convex_hull_buffer_20m
# adjacent_block_merge_distance_m 2.0
mtllib ../campus_materials.mtl
o SD0425_campus_boundary
usemtl campus_boundary
v -113.985 -65.900 0.050
v -118.363 -14.423 0.050
v -21.111 58.568 0.050
v 43.122 65.596 0.050
v 57.987 -7.319 0.050
v 59.111 -34.247 0.050
v 33.555 -45.152 0.050
v -24.983 -58.433 0.050
v -113.985 -65.900 0.050
l 1 2 3 4 5 6 7 8 9 1
o SD0425_T001_1hao
v -14.813 26.386 0.000
v -10.461 26.858 0.000
v -9.788 20.836 0.000
v 9.464 22.948 0.000
v 10.123 16.944 0.000
v 3.624 16.240 0.000
v 5.593 -1.540 0.000
v 12.661 -0.762 0.000
v 13.727 -10.425 0.000
v -7.567 -12.760 0.000
v -6.346 -23.851 0.000
v 6.718 -22.424 0.000
v 7.362 -28.233 0.000
v 27.368 -26.047 0.000
v 21.669 25.348 0.000
v 29.122 26.163 0.000
v 27.168 43.731 0.000
v -13.488 39.283 0.000
v -12.349 29.036 0.000
v -15.072 28.739 0.000
v -14.813 26.386 9.900
v -10.461 26.858 9.900
v -9.788 20.836 9.900
v 9.464 22.948 9.900
v 10.123 16.944 9.900
v 3.624 16.240 9.900
v 5.593 -1.540 9.900
v 12.661 -0.762 9.900
v 13.727 -10.425 9.900
v -7.567 -12.760 9.900
v -6.346 -23.851 9.900
v 6.718 -22.424 9.900
v 7.362 -28.233 9.900
v 27.368 -26.047 9.900
v 21.669 25.348 9.900
v 29.122 26.163 9.900
v 27.168 43.731 9.900
v -13.488 39.283 9.900
v -12.349 29.036 9.900
v -15.072 28.739 9.900
usemtl roof
f 30 31 32 33 34 35 36 37 38 39 40 41 42 43 44 45 46 47 48 49
usemtl teaching_building
f 29 28 27 26 25 24 23 22 21 20 19 18 17 16 15 14 13 12 11 10
f 10 11 31 30
f 11 12 32 31
f 12 13 33 32
f 13 14 34 33
f 14 15 35 34
f 15 16 36 35
f 16 17 37 36
f 17 18 38 37
f 18 19 39 38
f 19 20 40 39
f 20 21 41 40
f 21 22 42 41
f 22 23 43 42
f 23 24 44 43
f 24 25 45 44
f 25 26 46 45
f 26 27 47 46
f 27 28 48 47
f 28 29 49 48
f 29 10 30 49
o SD0425_T002_2hao
v -95.750 -44.300 0.000
v -28.047 -38.620 0.000
v -29.802 -18.060 0.000
v -97.496 -23.768 0.000
v -95.750 -44.300 9.900
v -28.047 -38.620 9.900
v -29.802 -18.060 9.900
v -97.496 -23.768 9.900
usemtl roof
f 54 55 56 57
usemtl teaching_building
f 53 52 51 50
f 50 51 55 54
f 51 52 56 55
f 52 53 57 56
f 53 50 54 57
