# school_id SD0423
# school_name 山东省烟台第一中学（幸福校区）
# boundary_source footprint_convex_hull_buffer_20m
# adjacent_block_merge_distance_m 2.0
mtllib ../campus_materials.mtl
o SD0423_campus_boundary
usemtl campus_boundary
v 16.899 -175.921 0.050
v -48.809 -166.755 0.050
v -121.293 -78.376 0.050
v -114.851 -17.625 0.050
v -99.105 101.591 0.050
v -64.799 179.285 0.050
v 5.476 171.232 0.050
v 128.421 153.836 0.050
v 119.602 90.150 0.050
v 78.493 -151.955 0.050
v 16.899 -175.921 0.050
l 1 2 3 4 5 6 7 8 9 10 11 1
o SD0423_T001_1hao
v -2.093 108.086 0.000
v 2.936 151.392 0.000
v -52.450 157.739 0.000
v -57.479 114.423 0.000
v -2.093 108.086 9.900
v 2.936 151.392 9.900
v -52.450 157.739 9.900
v -57.479 114.423 9.900
usemtl roof
f 16 17 18 19
usemtl teaching_building
f 15 14 13 12
f 12 13 17 16
f 13 14 18 17
f 14 15 19 18
f 15 12 16 19
o SD0423_T002_2hao
v 99.833 93.196 0.000
v 105.875 136.827 0.000
v 47.420 144.814 0.000
v 41.378 101.183 0.000
v 99.833 93.196 9.900
v 105.875 136.827 9.900
v 47.420 144.814 9.900
v 41.378 101.183 9.900
usemtl roof
f 24 25 26 27
usemtl teaching_building
f 23 22 21 20
f 20 21 25 24
f 21 22 26 25
f 22 23 27 26
f 23 20 24 27
o SD0423_T003_3hao
v -15.886 29.617 0.000
v -14.466 41.106 0.000
v -74.512 48.435 0.000
v -70.229 83.069 0.000
v -10.857 75.824 0.000
v -9.400 87.563 0.000
v -79.652 96.133 0.000
v -86.810 38.262 0.000
v -15.886 29.617 9.900
v -14.466 41.106 9.900
v -74.512 48.435 9.900
v -70.229 83.069 9.900
v -10.857 75.824 9.900
v -9.400 87.563 9.900
v -79.652 96.133 9.900
v -86.810 38.262 9.900
usemtl roof
f 36 37 38 39 40 41 42 43
usemtl teaching_building
f 35 34 33 32 31 30 29 28
f 28 29 37 36
f 29 30 38 37
f 30 31 39 38
f 31 32 40 39
f 32 33 41 40
f 33 34 42 41
f 34 35 43 42
f 35 28 36 43
o SD0423_T004_4hao
v 78.046 11.513 0.000
v 88.422 79.808 0.000
v 45.527 86.229 0.000
v 42.894 68.940 0.000
v 67.374 65.270 0.000
v 62.433 32.749 0.000
v 40.772 36.001 0.000
v 37.961 17.517 0.000
v 78.046 11.513 9.900
v 88.422 79.808 9.900
v 45.527 86.229 9.900
v 42.894 68.940 9.900
v 67.374 65.270 9.900
v 62.433 32.749 9.900
v 40.772 36.001 9.900
v 37.961 17.517 9.900
usemtl roof
f 52 53 54 55 56 57 58 59
usemtl teaching_building
f 51 50 49 48 47 46 45 44
f 44 45 53 52
f 45 46 54 53
f 46 47 55 54
f 47 48 56 55
f 48 49 57 56
f 49 50 58 57
f 50 51 59 58
f 51 44 52 59
o SD0423_T005_5hao
v 16.425 -12.874 0.000
v 18.977 10.568 0.000
v -9.415 13.616 0.000
v -11.974 -9.816 0.000
v 16.425 -12.874 9.900
v 18.977 10.568 9.900
v -9.415 13.616 9.900
v -11.974 -9.816 9.900
usemtl roof
f 64 65 66 67
usemtl teaching_building
f 63 62 61 60
f 60 61 65 64
f 61 62 66 65
f 62 63 67 66
f 63 60 64 67
o SD0423_T006_6hao
v -12.980 -84.170 0.000
v -9.667 -60.312 0.000
v -82.159 -50.380 0.000
v -77.137 -14.245 0.000
v -24.791 -21.416 0.000
v -23.149 -9.603 0.000
v -92.224 -0.124 0.000
v -94.990 -19.989 0.000
v -83.956 -21.500 0.000
v -87.661 -48.156 0.000
v -97.009 -46.887 0.000
v -100.522 -72.163 0.000
v -12.980 -84.170 9.900
v -9.667 -60.312 9.900
v -82.159 -50.380 9.900
v -77.137 -14.245 9.900
v -24.791 -21.416 9.900
v -23.149 -9.603 9.900
v -92.224 -0.124 9.900
v -94.990 -19.989 9.900
v -83.956 -21.500 9.900
v -87.661 -48.156 9.900
v -97.009 -46.887 9.900
v -100.522 -72.163 9.900
usemtl roof
f 80 81 82 83 84 85 86 87 88 89 90 91
usemtl teaching_building
f 79 78 77 76 75 74 73 72 71 70 69 68
f 68 69 81 80
f 69 70 82 81
f 70 71 83 82
f 71 72 84 83
f 72 73 85 84
f 73 74 86 85
f 74 75 87 86
f 75 76 88 87
f 76 77 89 88
f 77 78 90 89
f 78 79 91 90
f 79 68 80 91
o SD0423_T007_7hao
v 65.658 -92.722 0.000
v 75.346 -23.177 0.000
v 30.787 -17.052 0.000
v 28.258 -35.268 0.000
v 49.957 -38.242 0.000
v 45.453 -70.550 0.000
v 24.242 -67.632 0.000
v 21.587 -86.681 0.000
v 65.658 -92.722 9.900
v 75.346 -23.177 9.900
v 30.787 -17.052 9.900
v 28.258 -35.268 9.900
v 49.957 -38.242 9.900
v 45.453 -70.550 9.900
v 24.242 -67.632 9.900
v 21.587 -86.681 9.900
usemtl roof
f 100 101 102 103 104 105 106 107
usemtl teaching_building
f 99 98 97 96 95 94 93 92
f 92 93 101 100
f 93 94 102 101
f 94 95 103 102
f 95 96 104 103
f 96 97 105 104
f 97 98 106 105
f 98 99 107 106
f 99 92 100 107
o SD0423_T008_8hao
v 60.673 -137.428 0.000
v 63.040 -120.574 0.000
v 28.953 -115.858 0.000
v 26.602 -132.730 0.000
v 60.673 -137.428 9.900
v 63.040 -120.574 9.900
v 28.953 -115.858 9.900
v 26.602 -132.730 9.900
usemtl roof
f 112 113 114 115
usemtl teaching_building
f 111 110 109 108
f 108 109 113 112
f 109 110 114 113
f 110 111 115 114
f 111 108 112 115
o SD0423_T009_9hao
v 14.502 -155.393 0.000
v 20.619 -112.133 0.000
v -32.179 -104.777 0.000
v -38.303 -148.027 0.000
v 14.502 -155.393 9.900
v 20.619 -112.133 9.900
v -32.179 -104.777 9.900
v -38.303 -148.027 9.900
usemtl roof
f 120 121 122 123
usemtl teaching_building
f 119 118 117 116
f 116 117 121 120
f 117 118 122 121
f 118 119 123 122
f 119 116 120 123
