# school_id SD0402
# school_name 东营市胜利第一初级中学
# boundary_source footprint_convex_hull_buffer_20m
# adjacent_block_merge_distance_m 2.0
mtllib ../campus_materials.mtl
o SD0402_campus_boundary
usemtl campus_boundary
v 14.236 -51.058 0.050
v -98.068 -50.681 0.050
v -117.473 -18.220 0.050
v -117.263 22.045 0.050
v 31.174 54.274 0.050
v 50.871 54.211 0.050
v 98.275 35.176 0.050
v 98.196 -2.774 0.050
v 14.236 -51.058 0.050
l 1 2 3 4 5 6 7 8 9 1
o SD0402_T001_1hao
v 46.975 34.223 0.000
v 46.949 26.065 0.000
v 41.612 26.087 0.000
v 41.594 21.721 0.000
v 78.247 21.666 0.000
v 78.220 8.810 0.000
v 47.991 8.942 0.000
v 48.000 4.841 0.000
v 41.585 4.830 0.000
v 41.559 8.976 0.000
v 33.208 9.009 0.000
v 33.288 34.267 0.000
v 46.975 34.223 16.750
v 46.949 26.065 16.750
v 41.612 26.087 16.750
v 41.594 21.721 16.750
v 78.247 21.666 16.750
v 78.220 8.810 16.750
v 47.991 8.942 16.750
v 48.000 4.841 16.750
v 41.585 4.830 16.750
v 41.559 8.976 16.750
v 33.208 9.009 16.750
v 33.288 34.267 16.750
usemtl roof
f 22 23 24 25 26 27 28 29 30 31 32 33
usemtl teaching_building
f 21 20 19 18 17 16 15 14 13 12 11 10
f 10 11 23 22
f 11 12 24 23
f 12 13 25 24
f 13 14 26 25
f 14 15 27 26
f 15 16 28 27
f 16 17 29 28
f 17 18 30 29
f 18 19 31 30
f 19 20 32 31
f 20 21 33 32
f 21 10 22 33
o SD0402_T002_2hao
v -73.834 5.792 0.000
v -73.940 -20.329 0.000
v -8.304 -20.539 0.000
v -8.295 5.416 0.000
v 12.346 5.394 0.000
v 12.328 -13.354 0.000
v -3.515 -13.342 0.000
v -3.497 -20.550 0.000
v 8.962 -20.594 0.000
v 8.926 -31.040 0.000
v -86.700 -30.719 0.000
v -86.664 -20.284 0.000
v -80.753 -20.307 0.000
v -80.735 -12.834 0.000
v -97.444 -12.746 0.000
v -97.347 5.903 0.000
v -73.834 5.792 23.260
v -73.940 -20.329 23.260
v -8.304 -20.539 23.260
v -8.295 5.416 23.260
v 12.346 5.394 23.260
v 12.328 -13.354 23.260
v -3.515 -13.342 23.260
v -3.497 -20.550 23.260
v 8.962 -20.594 23.260
v 8.926 -31.040 23.260
v -86.700 -30.719 23.260
v -86.664 -20.284 23.260
v -80.753 -20.307 23.260
v -80.735 -12.834 23.260
v -97.444 -12.746 23.260
v -97.347 5.903 23.260
usemtl roof
f 50 51 52 53 54 55 56 57 58 59 60 61 62 63 64 65
usemtl teaching_building
f 49 48 47 46 45 44 43 42 41 40 39 38 37 36 35 34
f 34 35 51 50
f 35 36 52 51
f 36 37 53 52
f 37 38 54 53
f 38 39 55 54
f 39 40 56 55
f 40 41 57 56
f 41 42 58 57
f 42 43 59 58
f 43 44 60 59
f 44 45 61 60
f 45 46 62 61
f 46 47 63 62
f 47 48 64 63
f 48 49 65 64
f 49 34 50 65
