# school_id SD0447
# school_name 烟台大学附属小学
# boundary_source footprint_convex_hull_buffer_20m
# adjacent_block_merge_distance_m 2.0
mtllib ../campus_materials.mtl
o SD0447_campus_boundary
usemtl campus_boundary
v 3.731 -108.359 0.050
v -81.748 27.219 0.050
v 39.382 102.524 0.050
v 67.142 58.477 0.050
v 49.131 -80.143 0.050
v 3.731 -108.359 0.050
l 1 2 3 4 5 6 1
o SD0447_T001_1hao
v 10.051 -80.883 0.000
v 30.520 -68.162 0.000
v -12.381 -0.126 0.000
v -22.797 -6.612 0.000
v -30.738 5.970 0.000
v 46.380 53.909 0.000
v 33.060 75.044 0.000
v -54.096 20.860 0.000
v 10.051 -80.883 6.600
v 30.520 -68.162 6.600
v -12.381 -0.126 6.600
v -22.797 -6.612 6.600
v -30.738 5.970 6.600
v 46.380 53.909 6.600
v 33.060 75.044 6.600
v -54.096 20.860 6.600
usemtl roof
f 15 16 17 18 19 20 21 22
usemtl teaching_building
f 14 13 12 11 10 9 8 7
f 7 8 16 15
f 8 9 17 16
f 9 10 18 17
f 10 11 19 18
f 11 12 20 19
f 12 13 21 20
f 13 14 22 21
f 14 7 15 22
