# school_id SD0410
# school_name 胜利第一中学
# boundary_source footprint_convex_hull_buffer_20m
# adjacent_block_merge_distance_m 2.0
mtllib ../campus_materials.mtl
o SD0410_campus_boundary
usemtl campus_boundary
v 131.497 -37.102 0.050
v -68.106 -36.413 0.050
v -90.201 -36.147 0.050
v -104.052 -5.376 0.050
v -102.645 31.623 0.050
v 130.834 31.053 0.050
v 131.497 -37.102 0.050
l 1 2 3 4 5 6 7 1
o SD0410_T001_1hao
v -68.199 11.288 0.000
v -68.261 3.086 0.000
v -1.069 2.147 0.000
v -0.609 6.447 0.000
v 8.737 6.314 0.000
v 8.711 10.802 0.000
v 25.690 10.703 0.000
v 25.513 7.187 0.000
v 32.704 7.077 0.000
v 33.075 2.611 0.000
v 98.942 2.699 0.000
v 99.348 10.437 0.000
v 111.027 11.101 0.000
v 111.301 -17.032 0.000
v 100.311 -16.855 0.000
v 100.276 -8.752 0.000
v -67.130 -8.178 0.000
v -67.951 -16.413 0.000
v -77.201 -16.302 0.000
v -76.688 -8.122 0.000
v -80.372 -9.040 0.000
v -80.876 -1.335 0.000
v -83.888 -1.446 0.000
v -83.393 11.576 0.000
v -68.199 11.288 8.130
v -68.261 3.086 8.130
v -1.069 2.147 8.130
v -0.609 6.447 8.130
v 8.737 6.314 8.130
v 8.711 10.802 8.130
v 25.690 10.703 8.130
v 25.513 7.187 8.130
v 32.704 7.077 8.130
v 33.075 2.611 8.130
v 98.942 2.699 8.130
v 99.348 10.437 8.130
v 111.027 11.101 8.130
v 111.301 -17.032 8.130
v 100.311 -16.855 8.130
v 100.276 -8.752 8.130
v -67.130 -8.178 8.130
v -67.951 -16.413 8.130
v -77.201 -16.302 8.130
v -76.688 -8.122 8.130
v -80.372 -9.040 8.130
v -80.876 -1.335 8.130
v -83.888 -1.446 8.130
v -83.393 11.576 8.130
usemtl roof
f 32 33 34 35 36 37 38 39 40 41 42 43 44 45 46 47 48 49 50 51 52 53 54 55
usemtl teaching_building
f 31 30 29 28 27 26 25 24 23 22 21 20 19 18 17 16 15 14 13 12 11 10 9 8
f 8 9 33 32
f 9 10 34 33
f 10 11 35 34
f 11 12 36 35
f 12 13 37 36
f 13 14 38 37
f 14 15 39 38
f 15 16 40 39
f 16 17 41 40
f 17 18 42 41
f 18 19 43 42
f 19 20 44 43
f 20 21 45 44
f 21 22 46 45
f 22 23 47 46
f 23 24 48 47
f 24 25 49 48
f 25 26 50 49
f 26 27 51 50
f 27 28 52 51
f 28 29 53 52
f 29 30 54 53
f 30 31 55 54
f 31 8 32 55
