# school_id SD0452
# school_name 烟台市特殊教育学校
# boundary_source footprint_convex_hull_buffer_20m
# adjacent_block_merge_distance_m 2.0
mtllib ../campus_materials.mtl
o SD0452_campus_boundary
usemtl campus_boundary
v 6.242 -93.290 0.050
v -71.381 -70.652 0.050
v -40.153 71.968 0.050
v -13.158 67.436 0.050
v 56.881 52.088 0.050
v 49.531 8.541 0.050
v 46.729 0.475 0.050
v 6.242 -93.290 0.050
l 1 2 3 4 5 6 7 8 1
o SD0452_T001_1hao
v 6.737 21.907 0.000
v 5.997 17.543 0.000
v 30.089 13.522 0.000
v 33.989 36.630 0.000
v 24.562 38.205 0.000
v 22.734 27.374 0.000
v -19.227 34.378 0.000
v -16.956 47.794 0.000
v -24.688 49.092 0.000
v -28.299 27.753 0.000
v 6.737 21.907 9.900
v 5.997 17.543 9.900
v 30.089 13.522 9.900
v 33.989 36.630 9.900
v 24.562 38.205 9.900
v 22.734 27.374 9.900
v -19.227 34.378 9.900
v -16.956 47.794 9.900
v -24.688 49.092 9.900
v -28.299 27.753 9.900
usemtl roof
f 19 20 21 22 23 24 25 26 27 28
usemtl teaching_building
f 18 17 16 15 14 13 12 11 10 9
f 9 10 20 19
f 10 11 21 20
f 11 12 22 21
f 12 13 23 22
f 13 14 24 23
f 14 15 25 24
f 15 16 26 25
f 16 17 27 26
f 17 18 28 27
f 18 9 19 28
o SD0452_T002_2hao
v -5.117 -69.144 0.000
v 6.256 -40.458 0.000
v -6.767 -35.872 0.000
v -13.041 -53.161 0.000
v -44.895 -44.924 0.000
v -47.848 -56.682 0.000
v -5.117 -69.144 9.900
v 6.256 -40.458 9.900
v -6.767 -35.872 9.900
v -13.041 -53.161 9.900
v -44.895 -44.924 9.900
v -47.848 -56.682 9.900
usemtl roof
f 35 36 37 38 39 40
usemtl teaching_building
f 34 33 32 31 30 29
f 29 30 36 35
f 30 31 37 36
f 31 32 38 37
f 32 33 39 38
f 33 34 40 39
f 34 29 35 40
