# school_id SD0497
# school_name 西牟小学
# boundary_source footprint_convex_hull_buffer_20m
# adjacent_block_merge_distance_m 2.0
mtllib ../campus_materials.mtl
o SD0497_campus_boundary
usemtl campus_boundary
v -26.910 -98.762 0.050
v -59.954 39.750 0.050
v -72.205 91.908 0.050
v -9.220 106.504 0.050
v 71.299 57.970 0.050
v 78.606 24.125 0.050
v 44.458 -87.226 0.050
v -26.910 -98.762 0.050
l 1 2 3 4 5 6 7 8 1
o SD0497_T001_1hao
v -40.492 44.357 0.000
v -4.947 52.594 0.000
v -12.602 85.190 0.000
v -48.148 76.953 0.000
v -40.492 44.357 9.900
v -4.947 52.594 9.900
v -12.602 85.190 9.900
v -48.148 76.953 9.900
usemtl roof
f 13 14 15 16
usemtl teaching_building
f 12 11 10 9
f 9 10 14 13
f 10 11 15 14
f 11 12 16 15
f 12 9 13 16
o SD0497_T002_2hao
v -30.416 6.175 0.000
v 57.956 25.002 0.000
v 53.573 45.302 0.000
v -34.799 26.484 0.000
v -30.416 6.175 9.900
v 57.956 25.002 9.900
v 53.573 45.302 9.900
v -34.799 26.484 9.900
usemtl roof
f 21 22 23 24
usemtl teaching_building
f 20 19 18 17
f 17 18 22 21
f 18 19 23 22
f 19 20 24 23
f 20 17 21 24
o SD0497_T003_3hao
v -9.759 -42.422 0.000
v 30.281 -34.417 0.000
v 24.898 -7.862 0.000
v -15.142 -15.868 0.000
v -9.759 -42.422 6.600
v 30.281 -34.417 6.600
v 24.898 -7.862 6.600
v -15.142 -15.868 6.600
usemtl roof
f 29 30 31 32
usemtl teaching_building
f 28 27 26 25
f 25 26 30 29
f 26 27 31 30
f 27 28 32 31
f 28 25 29 32
o SD0497_T004_4hao
v -11.766 -76.055 0.000
v 28.985 -69.468 0.000
v 26.564 -54.689 0.000
v -14.187 -61.277 0.000
v -11.766 -76.055 6.600
v 28.985 -69.468 6.600
v 26.564 -54.689 6.600
v -14.187 -61.277 6.600
usemtl roof
f 37 38 39 40
usemtl teaching_building
f 36 35 34 33
f 33 34 38 37
f 34 35 39 38
f 35 36 40 39
f 36 33 37 40
