# school_id SD0471
# school_name 烟台船舶工业学校
# boundary_source footprint_convex_hull_buffer_20m
# adjacent_block_merge_distance_m 2.0
mtllib ../campus_materials.mtl
o SD0471_campus_boundary
usemtl campus_boundary
v 67.320 -93.941 0.050
v -57.311 -74.393 0.050
v -117.613 -31.763 0.050
v -60.183 65.218 0.050
v -44.507 89.151 0.050
v 42.525 63.963 0.050
v 110.260 29.709 0.050
v 86.731 -58.708 0.050
v 67.320 -93.941 0.050
l 1 2 3 4 5 6 7 8 9 1
o SD0471_T001_1hao
v -6.041 30.660 0.000
v 1.289 41.852 0.000
v -35.873 65.831 0.000
v -43.204 54.638 0.000
v -6.041 30.660 9.900
v 1.289 41.852 9.900
v -35.873 65.831 9.900
v -43.204 54.638 9.900
usemtl roof
f 14 15 16 17
usemtl teaching_building
f 13 12 11 10
f 10 11 15 14
f 11 12 16 15
f 12 13 17 16
f 13 10 14 17
o SD0471_T002_2hao
v 73.965 -5.762 0.000
v 86.762 19.180 0.000
v 35.168 45.271 0.000
v 22.371 20.320 0.000
v 73.965 -5.762 9.900
v 86.762 19.180 9.900
v 35.168 45.271 9.900
v 22.371 20.320 9.900
usemtl roof
f 22 23 24 25
usemtl teaching_building
f 21 20 19 18
f 18 19 23 22
f 19 20 24 23
f 20 21 25 24
f 21 18 22 25
o SD0471_T003_3hao
v -49.588 -55.360 0.000
v -28.528 -25.979 0.000
v -69.944 3.299 0.000
v -91.004 -26.081 0.000
v -49.588 -55.360 9.900
v -28.528 -25.979 9.900
v -69.944 3.299 9.900
v -91.004 -26.081 9.900
usemtl roof
f 30 31 32 33
usemtl teaching_building
f 29 28 27 26
f 26 27 31 30
f 27 28 32 31
f 28 29 33 32
f 29 26 30 33
o SD0471_T004_4hao
v 56.568 -72.010 0.000
v 68.033 -51.200 0.000
v -4.258 -11.924 0.000
v -15.716 -32.734 0.000
v 56.568 -72.010 9.900
v 68.033 -51.200 9.900
v -4.258 -11.924 9.900
v -15.716 -32.734 9.900
usemtl roof
f 38 39 40 41
usemtl teaching_building
f 37 36 35 34
f 34 35 39 38
f 35 36 40 39
f 36 37 41 40
f 37 34 38 41
