# school_id SD0482
# school_name 莱山区第二实验小学
# boundary_source footprint_convex_hull_buffer_20m
# adjacent_block_merge_distance_m 2.0
mtllib ../campus_materials.mtl
o SD0482_campus_boundary
usemtl campus_boundary
v 108.565 -105.234 0.050
v 13.946 -94.823 0.050
v -68.435 -84.989 0.050
v -57.708 36.003 0.050
v -51.421 103.483 0.050
v 37.276 98.435 0.050
v 114.372 -57.291 0.050
v 108.565 -105.234 0.050
l 1 2 3 4 5 6 7 8 1
o SD0482_T001_1hao
v -34.481 -19.676 0.000
v -17.424 -15.915 0.000
v 20.601 -25.782 0.000
v 24.036 -10.726 0.000
v -22.747 1.968 0.000
v -24.168 15.152 0.000
v -21.680 26.789 0.000
v 25.457 29.727 0.000
v 23.799 45.014 0.000
v -14.581 43.134 0.000
v -30.565 49.721 0.000
v -37.790 34.192 0.000
v -28.314 30.199 0.000
v -28.314 -3.203 0.000
v -38.264 -5.204 0.000
v -34.481 -19.676 4.950
v -17.424 -15.915 4.950
v 20.601 -25.782 4.950
v 24.036 -10.726 4.950
v -22.747 1.968 4.950
v -24.168 15.152 4.950
v -21.680 26.789 4.950
v 25.457 29.727 4.950
v 23.799 45.014 4.950
v -14.581 43.134 4.950
v -30.565 49.721 4.950
v -37.790 34.192 4.950
v -28.314 30.199 4.950
v -28.314 -3.203 4.950
v -38.264 -5.204 4.950
usemtl roof
f 24 25 26 27 28 29 30 31 32 33 34 35 36 37 38
usemtl teaching_building
f 23 22 21 20 19 18 17 16 15 14 13 12 11 10 9
f 9 10 25 24
f 10 11 26 25
f 11 12 27 26
f 12 13 28 27
f 13 14 29 28
f 14 15 30 29
f 15 16 31 30
f 16 17 32 31
f 17 18 33 32
f 18 19 34 33
f 19 20 35 34
f 20 21 36 35
f 21 22 37 36
f 22 23 38 37
f 23 9 24 38
