# school_id SD0401
# school_name 东营市实验小学
# boundary_source footprint_convex_hull_buffer_20m
# adjacent_block_merge_distance_m 2.0
mtllib ../campus_materials.mtl
o SD0401_campus_boundary
usemtl campus_boundary
v 22.123 -175.730 0.050
v -61.870 -175.093 0.050
v -164.651 70.859 0.050
v -164.611 119.888 0.050
v -132.499 137.040 0.050
v -95.519 136.985 0.050
v 38.544 113.979 0.050
v 117.969 25.437 0.050
v 104.029 -169.815 0.050
v 22.123 -175.730 0.050
l 1 2 3 4 5 6 7 8 9 10 1
o SD0401_T001_1hao
v -133.668 107.880 0.000
v -133.686 94.217 0.000
v -127.542 94.206 0.000
v -127.506 117.033 0.000
v -97.237 116.988 0.000
v -97.264 94.836 0.000
v -89.034 94.825 0.000
v -89.016 110.124 0.000
v -76.640 110.113 0.000
v -76.657 95.975 0.000
v -74.297 95.964 0.000
v -74.315 74.795 0.000
v -144.648 74.862 0.000
v -144.621 107.891 0.000
v -133.668 107.880 15.670
v -133.686 94.217 15.670
v -127.542 94.206 15.670
v -127.506 117.033 15.670
v -97.237 116.988 15.670
v -97.264 94.836 15.670
v -89.034 94.825 15.670
v -89.016 110.124 15.670
v -76.640 110.113 15.670
v -76.657 95.975 15.670
v -74.297 95.964 15.670
v -74.315 74.795 15.670
v -144.648 74.862 15.670
v -144.621 107.891 15.670
usemtl roof
f 25 26 27 28 29 30 31 32 33 34 35 36 37 38
usemtl teaching_building
f 24 23 22 21 20 19 18 17 16 15 14 13 12 11
f 11 12 26 25
f 12 13 27 26
f 13 14 28 27
f 14 15 29 28
f 15 16 30 29
f 16 17 31 30
f 17 18 32 31
f 18 19 33 32
f 19 20 34 33
f 20 21 35 34
f 21 22 36 35
f 22 23 37 36
f 23 24 38 37
f 24 11 25 38
o SD0401_T002_2hao
v 9.818 72.960 0.000
v 10.048 85.772 0.000
v -8.879 86.104 0.000
v -8.702 96.096 0.000
v 28.303 95.444 0.000
v 28.144 86.557 0.000
v 35.039 80.212 0.000
v 26.243 70.783 0.000
v 37.178 70.584 0.000
v 37.019 62.149 0.000
v -18.418 63.144 0.000
v -18.232 73.458 0.000
v 9.818 72.960 15.720
v 10.048 85.772 15.720
v -8.879 86.104 15.720
v -8.702 96.096 15.720
v 28.303 95.444 15.720
v 28.144 86.557 15.720
v 35.039 80.212 15.720
v 26.243 70.783 15.720
v 37.178 70.584 15.720
v 37.019 62.149 15.720
v -18.418 63.144 15.720
v -18.232 73.458 15.720
usemtl roof
f 51 52 53 54 55 56 57 58 59 60 61 62
usemtl teaching_building
f 50 49 48 47 46 45 44 43 42 41 40 39
f 39 40 52 51
f 40 41 53 52
f 41 42 54 53
f 42 43 55 54
f 43 44 56 55
f 44 45 57 56
f 45 46 58 57
f 46 47 59 58
f 47 48 60 59
f 48 49 61 60
f 49 50 62 61
f 50 39 51 62
o SD0401_T003_3hao
v 47.468 15.933 0.000
v 45.948 4.448 0.000
v 84.677 2.889 0.000
v 87.780 19.304 0.000
v 97.416 18.398 0.000
v 92.916 -7.878 0.000
v 30.973 -5.589 0.000
v 35.083 17.635 0.000
v 47.468 15.933 11.700
v 45.948 4.448 11.700
v 84.677 2.889 11.700
v 87.780 19.304 11.700
v 97.416 18.398 11.700
v 92.916 -7.878 11.700
v 30.973 -5.589 11.700
v 35.083 17.635 11.700
usemtl roof
f 71 72 73 74 75 76 77 78
usemtl teaching_building
f 70 69 68 67 66 65 64 63
f 63 64 72 71
f 64 65 73 72
f 65 66 74 73
f 66 67 75 74
f 67 68 76 75
f 68 69 77 76
f 69 70 78 77
f 70 63 71 78
o SD0401_T004_4hao
v -44.735 15.734 0.000
v -43.710 0.722 0.000
v -11.027 0.855 0.000
v -15.297 13.711 0.000
v -2.205 14.396 0.000
v 1.817 -0.571 0.000
v 2.366 -9.105 0.000
v -63.698 -7.325 0.000
v -63.114 15.712 0.000
v -44.735 15.734 12.360
v -43.710 0.722 12.360
v -11.027 0.855 12.360
v -15.297 13.711 12.360
v -2.205 14.396 12.360
v 1.817 -0.571 12.360
v 2.366 -9.105 12.360
v -63.698 -7.325 12.360
v -63.114 15.712 12.360
usemtl roof
f 88 89 90 91 92 93 94 95 96
usemtl teaching_building
f 87 86 85 84 83 82 81 80 79
f 79 80 89 88
f 80 81 90 89
f 81 82 91 90
f 82 83 92 91
f 83 84 93 92
f 84 85 94 93
f 85 86 95 94
f 86 87 96 95
f 87 79 88 96
o SD0401_T005_5hao
v 43.199 -150.850 0.000
v 85.313 -151.115 0.000
v 85.870 -64.397 0.000
v 60.357 -64.242 0.000
v 60.384 -60.251 0.000
v 42.933 -60.141 0.000
v 42.827 -76.976 0.000
v 75.713 -77.186 0.000
v 75.554 -101.118 0.000
v 61.745 -101.019 0.000
v 61.790 -95.602 0.000
v 45.285 -95.503 0.000
v 45.170 -112.846 0.000
v 75.518 -113.045 0.000
v 75.350 -138.193 0.000
v 59.633 -138.094 0.000
v 59.659 -134.136 0.000
v 43.305 -134.037 0.000
v 43.199 -150.850 10.910
v 85.313 -151.115 10.910
v 85.870 -64.397 10.910
v 60.357 -64.242 10.910
v 60.384 -60.251 10.910
v 42.933 -60.141 10.910
v 42.827 -76.976 10.910
v 75.713 -77.186 10.910
v 75.554 -101.118 10.910
v 61.745 -101.019 10.910
v 61.790 -95.602 10.910
v 45.285 -95.503 10.910
v 45.170 -112.846 10.910
v 75.518 -113.045 10.910
v 75.350 -138.193 10.910
v 59.633 -138.094 10.910
v 59.659 -134.136 10.910
v 43.305 -134.037 10.910
usemtl roof
f 115 116 117 118 119 120 121 122 123 124 125 126 127 128 129 130 131 132
usemtl teaching_building
f 114 113 112 111 110 109 108 107 106 105 104 103 102 101 100 99 98 97
f 97 98 116 115
f 98 99 117 116
f 99 100 118 117
f 100 101 119 118
f 101 102 120 119
f 102 103 121 120
f 103 104 122 121
f 104 105 123 122
f 105 106 124 123
f 106 107 125 124
f 107 108 126 125
f 108 109 127 126
f 109 110 128 127
f 110 111 129 128
f 111 112 130 129
f 112 113 131 130
f 113 114 132 131
f 114 97 115 132
o SD0401_T006_6hao
v -48.324 -131.019 0.000
v 21.664 -131.550 0.000
v 21.478 -155.725 0.000
v -48.510 -155.194 0.000
v -48.324 -131.019 11.850
v 21.664 -131.550 11.850
v 21.478 -155.725 11.850
v -48.510 -155.194 11.850
usemtl roof
f 137 138 139 140
usemtl teaching_building
f 136 135 134 133
f 133 134 138 137
f 134 135 139 138
f 135 136 140 139
f 136 133 137 140
