# school_id SD0443
# school_name 烟台六中
# boundary_source footprint_convex_hull_buffer_20m
# adjacent_block_merge_distance_m 2.0
mtllib ../campus_materials.mtl
o SD0443_campus_boundary
usemtl campus_boundary
v -80.006 -53.821 0.050
v -80.561 -30.104 0.050
v -80.657 100.585 0.050
v 27.372 100.959 0.050
v 142.709 -3.052 0.050
v 142.891 -37.185 0.050
v -20.216 -51.940 0.050
v -49.782 -53.125 0.050
v -80.006 -53.821 0.050
l 1 2 3 4 5 6 7 8 9 1
o SD0443_T001_1hao
v -60.487 36.912 0.000
v -49.851 36.949 0.000
v -49.962 72.862 0.000
v 19.744 73.084 0.000
v 19.715 80.932 0.000
v -60.642 80.654 0.000
v -60.487 36.912 9.900
v -49.851 36.949 9.900
v -49.962 72.862 9.900
v 19.744 73.084 9.900
v 19.715 80.932 9.900
v -60.642 80.654 9.900
usemtl roof
f 16 17 18 19 20 21
usemtl teaching_building
f 15 14 13 12 11 10
f 10 11 17 16
f 11 12 18 17
f 12 13 19 18
f 13 14 20 19
f 14 15 21 20
f 15 10 16 21
o SD0443_T002_2hao
v 14.756 -0.223 0.000
v 14.637 -9.637 0.000
v 10.011 -9.757 0.000
v 9.656 -16.808 0.000
v 35.953 -17.281 0.000
v 35.953 -9.757 0.000
v 33.340 -9.757 0.000
v 33.466 6.716 0.000
v 37.604 6.716 0.000
v 37.604 12.350 0.000
v 29.914 12.470 0.000
v 23.400 6.475 0.000
v -42.561 6.114 0.000
v -42.679 -0.816 0.000
v 14.756 -0.223 9.900
v 14.637 -9.637 9.900
v 10.011 -9.757 9.900
v 9.656 -16.808 9.900
v 35.953 -17.281 9.900
v 35.953 -9.757 9.900
v 33.340 -9.757 9.900
v 33.466 6.716 9.900
v 37.604 6.716 9.900
v 37.604 12.350 9.900
v 29.914 12.470 9.900
v 23.400 6.475 9.900
v -42.561 6.114 9.900
v -42.679 -0.816 9.900
usemtl roof
f 36 37 38 39 40 41 42 43 44 45 46 47 48 49
usemtl teaching_building
f 35 34 33 32 31 30 29 28 27 26 25 24 23 22
f 22 23 37 36
f 23 24 38 37
f 24 25 39 38
f 25 26 40 39
f 26 27 41 40
f 27 28 42 41
f 28 29 43 42
f 29 30 44 43
f 30 31 45 44
f 31 32 46 45
f 32 33 47 46
f 33 34 48 47
f 34 35 49 48
f 35 22 36 49
