# school_id SD0487
# school_name 莱州市云峰中学
# boundary_source footprint_convex_hull_buffer_20m
# adjacent_block_merge_distance_m 2.0
mtllib ../campus_materials.mtl
o SD0487_campus_boundary
usemtl campus_boundary
v 104.402 -122.178 0.050
v 29.924 -119.945 0.050
v -114.930 -106.022 0.050
v -113.227 -64.567 0.050
v -105.657 -10.124 0.050
v -30.663 134.377 0.050
v 101.556 130.052 0.050
v 105.923 -72.285 0.050
v 104.402 -122.178 0.050
l 1 2 3 4 5 6 7 8 9 1
o SD0487_T001_1hao
v -19.170 100.324 0.000
v 30.269 98.699 0.000
v 29.737 82.804 0.000
v -19.729 84.428 0.000
v -20.287 67.637 0.000
v 79.938 64.321 0.000
v 80.497 80.935 0.000
v 38.943 82.317 0.000
v 39.511 99.097 0.000
v 81.535 97.715 0.000
v 81.969 110.682 0.000
v -18.718 113.976 0.000
v -19.170 100.324 11.460
v 30.269 98.699 11.460
v 29.737 82.804 11.460
v -19.729 84.428 11.460
v -20.287 67.637 11.460
v 79.938 64.321 11.460
v 80.497 80.935 11.460
v 38.943 82.317 11.460
v 39.511 99.097 11.460
v 81.535 97.715 11.460
v 81.969 110.682 11.460
v -18.718 113.976 11.460
usemtl roof
f 22 23 24 25 26 27 28 29 30 31 32 33
usemtl teaching_building
f 21 20 19 18 17 16 15 14 13 12 11 10
f 10 11 23 22
f 11 12 24 23
f 12 13 25 24
f 13 14 26 25
f 14 15 27 26
f 15 16 28 27
f 16 17 29 28
f 17 18 30 29
f 18 19 31 30
f 19 20 32 31
f 20 21 33 32
f 21 10 22 33
o SD0487_T002_2hao
v -86.942 -31.373 0.000
v -45.450 -32.644 0.000
v -44.829 -17.567 0.000
v -86.321 -16.285 0.000
v -86.942 -31.373 12.700
v -45.450 -32.644 12.700
v -44.829 -17.567 12.700
v -86.321 -16.285 12.700
usemtl roof
f 38 39 40 41
usemtl teaching_building
f 37 36 35 34
f 34 35 39 38
f 35 36 40 39
f 36 37 41 40
f 37 34 38 41
o SD0487_T003_3hao
v -94.170 -87.925 0.000
v -50.142 -90.291 0.000
v -48.954 -68.725 0.000
v -93.284 -66.359 0.000
v -94.170 -87.925 14.390
v -50.142 -90.291 14.390
v -48.954 -68.725 14.390
v -93.284 -66.359 14.390
usemtl roof
f 46 47 48 49
usemtl teaching_building
f 45 44 43 42
f 42 43 47 46
f 43 44 48 47
f 44 45 49 48
f 45 42 46 49
o SD0487_T004_4hao
v -45.051 -89.915 0.000
v 9.833 -92.557 0.000
v 10.747 -73.798 0.000
v -44.138 -71.168 0.000
v -45.051 -89.915 13.180
v 9.833 -92.557 13.180
v 10.747 -73.798 13.180
v -44.138 -71.168 13.180
usemtl roof
f 54 55 56 57
usemtl teaching_building
f 53 52 51 50
f 50 51 55 54
f 51 52 56 55
f 52 53 57 56
f 53 50 54 57
o SD0487_T005_5hao
v 31.182 -99.974 0.000
v 85.020 -101.588 0.000
v 85.916 -72.196 0.000
v 32.087 -70.571 0.000
v 31.182 -99.974 9.520
v 85.020 -101.588 9.520
v 85.916 -72.196 9.520
v 32.087 -70.571 9.520
usemtl roof
f 62 63 64 65
usemtl teaching_building
f 61 60 59 58
f 58 59 63 62
f 59 60 64 63
f 60 61 65 64
f 61 58 62 65
