# school_id SD0400
# school_name 东营市实验中学
# boundary_source footprint_convex_hull_buffer_20m
# adjacent_block_merge_distance_m 2.0
mtllib ../campus_materials.mtl
o SD0400_campus_boundary
usemtl campus_boundary
v 134.107 -155.734 0.050
v 52.217 -155.380 0.050
v -65.529 -36.482 0.050
v -68.403 23.527 0.050
v -69.017 54.543 0.050
v -59.515 68.977 0.050
v -42.526 76.051 0.050
v 20.395 77.266 0.050
v 36.139 66.336 0.050
v 134.292 -111.749 0.050
v 134.107 -155.734 0.050
l 1 2 3 4 5 6 7 8 9 10 11 1
o SD0400_T001_1hao
v 14.308 57.145 0.000
v 14.396 52.447 0.000
v 20.885 52.579 0.000
v 21.530 19.738 0.000
v 14.325 19.605 0.000
v 14.387 16.444 0.000
v -38.326 15.405 0.000
v -38.388 18.411 0.000
v -45.875 18.257 0.000
v -45.999 24.248 0.000
v -48.412 24.204 0.000
v -48.898 48.732 0.000
v -46.096 48.788 0.000
v -46.176 52.867 0.000
v -38.282 53.010 0.000
v -38.344 56.128 0.000
v 14.308 57.145 21.060
v 14.396 52.447 21.060
v 20.885 52.579 21.060
v 21.530 19.738 21.060
v 14.325 19.605 21.060
v 14.387 16.444 21.060
v -38.326 15.405 21.060
v -38.388 18.411 21.060
v -45.875 18.257 21.060
v -45.999 24.248 21.060
v -48.412 24.204 21.060
v -48.898 48.732 21.060
v -46.096 48.788 21.060
v -46.176 52.867 21.060
v -38.282 53.010 21.060
v -38.344 56.128 21.060
usemtl roof
f 28 29 30 31 32 33 34 35 36 37 38 39 40 41 42 43
usemtl teaching_building
f 27 26 25 24 23 22 21 20 19 18 17 16 15 14 13 12
f 12 13 29 28
f 13 14 30 29
f 14 15 31 30
f 15 16 32 31
f 16 17 33 32
f 17 18 34 33
f 18 19 35 34
f 19 20 36 35
f 20 21 37 36
f 21 22 38 37
f 22 23 39 38
f 23 24 40 39
f 24 25 41 40
f 25 26 42 41
f 26 27 43 42
f 27 12 28 43
o SD0400_T002_2hao
v 38.538 -8.881 0.000
v 38.600 -27.562 0.000
v -45.919 -27.861 0.000
v -45.981 -9.157 0.000
v 38.538 -8.881 24.200
v 38.600 -27.562 24.200
v -45.919 -27.861 24.200
v -45.981 -9.157 24.200
usemtl roof
f 48 49 50 51
usemtl teaching_building
f 47 46 45 44
f 44 45 49 48
f 45 46 50 49
f 46 47 51 50
f 47 44 48 51
o SD0400_T003_3hao
v 60.594 -135.416 0.000
v 114.191 -135.648 0.000
v 114.270 -116.856 0.000
v 60.673 -116.624 0.000
v 60.594 -135.416 20.660
v 114.191 -135.648 20.660
v 114.270 -116.856 20.660
v 60.673 -116.624 20.660
usemtl roof
f 56 57 58 59
usemtl teaching_building
f 55 54 53 52
f 52 53 57 56
f 53 54 58 57
f 54 55 59 58
f 55 52 56 59
