# school_id SD0451
# school_name 烟台市双语实验学校
# boundary_source footprint_convex_hull_buffer_20m
# adjacent_block_merge_distance_m 2.0
mtllib ../campus_materials.mtl
o SD0451_campus_boundary
usemtl campus_boundary
v -37.653 -100.853 0.050
v -77.539 -98.239 0.050
v -76.084 -45.652 0.050
v -75.063 -31.520 0.050
v -33.295 56.428 0.050
v -18.176 79.683 0.050
v 9.935 78.301 0.050
v 23.374 69.694 0.050
v 59.015 35.952 0.050
v 73.604 17.055 0.050
v 49.073 -20.131 0.050
v 8.556 -77.808 0.050
v -37.653 -100.853 0.050
l 1 2 3 4 5 6 7 8 9 10 11 12 13 1
o SD0451_T001_1hao
v -10.332 33.274 0.000
v -7.690 37.332 0.000
v 0.103 32.329 0.000
v 8.731 45.587 0.000
v 6.534 46.987 0.000
v 10.996 53.871 0.000
v 3.633 58.587 0.000
v 0.554 53.852 0.000
v -7.675 59.143 0.000
v -15.801 46.644 0.000
v -12.352 44.448 0.000
v -16.882 37.480 0.000
v -10.332 33.274 9.900
v -7.690 37.332 9.900
v 0.103 32.329 9.900
v 8.731 45.587 9.900
v 6.534 46.987 9.900
v 10.996 53.871 9.900
v 3.633 58.587 9.900
v 0.554 53.852 9.900
v -7.675 59.143 9.900
v -15.801 46.644 9.900
v -12.352 44.448 9.900
v -16.882 37.480 9.900
usemtl roof
f 26 27 28 29 30 31 32 33 34 35 36 37
usemtl teaching_building
f 25 24 23 22 21 20 19 18 17 16 15 14
f 14 15 27 26
f 15 16 28 27
f 16 17 29 28
f 17 18 30 29
f 18 19 31 30
f 19 20 32 31
f 20 21 33 32
f 21 22 34 33
f 22 23 35 34
f 23 24 36 35
f 24 25 37 36
f 25 14 26 37
o SD0451_T002_2hao
v -56.104 -46.649 0.000
v -51.952 -43.527 0.000
v -55.386 -36.707 0.000
v 1.205 -7.142 0.000
v 6.889 -16.778 0.000
v 4.291 -18.547 0.000
v 6.541 -22.782 0.000
v -44.256 -50.883 0.000
v -44.137 -72.638 0.000
v -52.189 -72.638 0.000
v -52.544 -51.236 0.000
v -56.104 -46.649 7.240
v -51.952 -43.527 7.240
v -55.386 -36.707 7.240
v 1.205 -7.142 7.240
v 6.889 -16.778 7.240
v 4.291 -18.547 7.240
v 6.541 -22.782 7.240
v -44.256 -50.883 7.240
v -44.137 -72.638 7.240
v -52.189 -72.638 7.240
v -52.544 -51.236 7.240
usemtl roof
f 49 50 51 52 53 54 55 56 57 58 59
usemtl teaching_building
f 48 47 46 45 44 43 42 41 40 39 38
f 38 39 50 49
f 39 40 51 50
f 40 41 52 51
f 41 42 53 52
f 42 43 54 53
f 43 44 55 54
f 44 45 56 55
f 45 46 57 56
f 46 47 58 57
f 47 48 59 58
f 48 38 49 59
o SD0451_T002_2hao_seg02
v 13.520 -15.666 0.000
v 10.115 -13.312 0.000
v 19.551 0.122 0.000
v 32.539 -8.874 0.000
v -4.900 -62.169 0.000
v -14.580 -55.461 0.000
v 13.520 -15.666 7.240
v 10.115 -13.312 7.240
v 19.551 0.122 7.240
v 32.539 -8.874 7.240
v -4.900 -62.169 7.240
v -14.580 -55.461 7.240
usemtl roof
f 66 67 68 69 70 71
usemtl teaching_building
f 65 64 63 62 61 60
f 60 61 67 66
f 61 62 68 67
f 62 63 69 68
f 63 64 70 69
f 64 65 71 70
f 65 60 66 71
o SD0451_T002_2hao_seg03
v -4.922 4.171 0.000
v -7.076 5.515 0.000
v -2.650 12.482 0.000
v -4.745 13.798 0.000
v 2.848 25.760 0.000
v 11.159 20.552 0.000
v 14.422 25.685 0.000
v 20.498 21.887 0.000
v 16.169 15.077 0.000
v 19.174 13.196 0.000
v 10.952 0.243 0.000
v 2.448 5.570 0.000
v 1.094 3.439 0.000
v 4.136 1.521 0.000
v -1.592 -7.494 0.000
v -9.274 -2.685 0.000
v -4.922 4.171 7.240
v -7.076 5.515 7.240
v -2.650 12.482 7.240
v -4.745 13.798 7.240
v 2.848 25.760 7.240
v 11.159 20.552 7.240
v 14.422 25.685 7.240
v 20.498 21.887 7.240
v 16.169 15.077 7.240
v 19.174 13.196 7.240
v 10.952 0.243 7.240
v 2.448 5.570 7.240
v 1.094 3.439 7.240
v 4.136 1.521 7.240
v -1.592 -7.494 7.240
v -9.274 -2.685 7.240
usemtl roof
f 88 89 90 91 92 93 94 95 96 97 98 99 100 101 102 103
usemtl teaching_building
f 87 86 85 84 83 82 81 80 79 78 77 76 75 74 73 72
f 72 73 89 88
f 73 74 90 89
f 74 75 91 90
f 75 76 92 91
f 76 77 93 92
f 77 78 94 93
f 78 79 95 94
f 79 80 96 95
f 80 81 97 96
f 81 82 98 97
f 82 83 99 98
f 83 84 100 99
f 84 85 101 100
f 85 86 102 101
f 86 87 103 102
f 87 72 88 103
