# school_id SD0459
# school_name 烟台永铭中学
# boundary_source footprint_convex_hull_buffer_20m
# adjacent_block_merge_distance_m 2.0
mtllib ../campus_materials.mtl
o SD0459_campus_boundary
usemtl campus_boundary
v -63.436 -115.045 0.050
v -106.857 -106.387 0.050
v -53.738 161.105 0.050
v 162.725 130.188 0.050
v 232.499 114.178 0.050
v 200.940 -54.101 0.050
v 194.849 -82.049 0.050
v -2.153 -107.579 0.050
v -63.436 -115.045 0.050
l 1 2 3 4 5 6 7 8 9 1
o SD0459_T001_1hao
v 200.777 62.345 0.000
v 209.300 98.981 0.000
v 159.068 110.507 0.000
v 150.537 73.871 0.000
v 200.777 62.345 6.600
v 209.300 98.981 6.600
v 159.068 110.507 6.600
v 150.537 73.871 6.600
usemtl roof
f 14 15 16 17
usemtl teaching_building
f 13 12 11 10
f 10 11 15 14
f 11 12 16 15
f 12 13 17 16
f 13 10 14 17
o SD0459_T002_2hao
v -22.148 55.118 0.000
v -23.170 50.921 0.000
v -9.529 47.660 0.000
v -8.477 51.996 0.000
v 30.203 42.758 0.000
v 34.454 60.279 0.000
v -41.158 78.337 0.000
v -45.431 60.678 0.000
v -22.148 55.118 6.600
v -23.170 50.921 6.600
v -9.529 47.660 6.600
v -8.477 51.996 6.600
v 30.203 42.758 6.600
v 34.454 60.279 6.600
v -41.158 78.337 6.600
v -45.431 60.678 6.600
usemtl roof
f 26 27 28 29 30 31 32 33
usemtl teaching_building
f 25 24 23 22 21 20 19 18
f 18 19 27 26
f 19 20 28 27
f 20 21 29 28
f 21 22 30 29
f 22 23 31 30
f 23 24 32 31
f 24 25 33 32
f 25 18 26 33
o SD0459_T003_3hao
v 18.517 2.547 0.000
v 16.917 -5.273 0.000
v 12.155 -4.319 0.000
v 8.623 -21.645 0.000
v -4.204 -19.051 0.000
v -6.974 -32.671 0.000
v 4.016 -34.885 0.000
v 3.098 -39.360 0.000
v 8.408 -40.435 0.000
v 7.393 -45.392 0.000
v 28.759 -49.701 0.000
v 31.669 -35.413 0.000
v 15.732 -32.217 0.000
v 22.627 1.546 0.000
v 40.230 -1.984 0.000
v 43.807 15.555 0.000
v -37.300 31.862 0.000
v -40.840 14.481 0.000
v 18.517 2.547 6.600
v 16.917 -5.273 6.600
v 12.155 -4.319 6.600
v 8.623 -21.645 6.600
v -4.204 -19.051 6.600
v -6.974 -32.671 6.600
v 4.016 -34.885 6.600
v 3.098 -39.360 6.600
v 8.408 -40.435 6.600
v 7.393 -45.392 6.600
v 28.759 -49.701 6.600
v 31.669 -35.413 6.600
v 15.732 -32.217 6.600
v 22.627 1.546 6.600
v 40.230 -1.984 6.600
v 43.807 15.555 6.600
v -37.300 31.862 6.600
v -40.840 14.481 6.600
usemtl roof
f 52 53 54 55 56 57 58 59 60 61 62 63 64 65 66 67 68 69
usemtl teaching_building
f 51 50 49 48 47 46 45 44 43 42 41 40 39 38 37 36 35 34
f 34 35 53 52
f 35 36 54 53
f 36 37 55 54
f 37 38 56 55
f 38 39 57 56
f 39 40 58 57
f 40 41 59 58
f 41 42 60 59
f 42 43 61 60
f 43 44 62 61
f 44 45 63 62
f 45 46 64 63
f 46 47 65 64
f 47 48 66 65
f 48 49 67 66
f 49 50 68 67
f 50 51 69 68
f 51 34 52 69
o SD0459_T004_4hao
v -62.671 -94.804 0.000
v -61.479 -88.893 0.000
v -57.502 -89.690 0.000
v -55.073 -77.673 0.000
v -4.648 -87.735 0.000
v -1.827 -73.763 0.000
v -52.703 -63.617 0.000
v -48.119 -40.963 0.000
v -42.802 -42.029 0.000
v -41.550 -35.821 0.000
v -47.075 -34.728 0.000
v -44.068 -19.792 0.000
v -51.126 -18.393 0.000
v -49.941 -12.519 0.000
v -66.019 -9.313 0.000
v -69.596 -27.028 0.000
v -53.111 -30.308 0.000
v -55.673 -42.974 0.000
v -71.069 -39.916 0.000
v -74.757 -58.160 0.000
v -54.762 -62.153 0.000
v -55.517 -65.859 0.000
v -60.975 -64.766 0.000
v -63.064 -75.078 0.000
v -79.527 -71.789 0.000
v -83.348 -90.681 0.000
v -62.671 -94.804 6.600
v -61.479 -88.893 6.600
v -57.502 -89.690 6.600
v -55.073 -77.673 6.600
v -4.648 -87.735 6.600
v -1.827 -73.763 6.600
v -52.703 -63.617 6.600
v -48.119 -40.963 6.600
v -42.802 -42.029 6.600
v -41.550 -35.821 6.600
v -47.075 -34.728 6.600
v -44.068 -19.792 6.600
v -51.126 -18.393 6.600
v -49.941 -12.519 6.600
v -66.019 -9.313 6.600
v -69.596 -27.028 6.600
v -53.111 -30.308 6.600
v -55.673 -42.974 6.600
v -71.069 -39.916 6.600
v -74.757 -58.160 6.600
v -54.762 -62.153 6.600
v -55.517 -65.859 6.600
v -60.975 -64.766 6.600
v -63.064 -75.078 6.600
v -79.527 -71.789 6.600
v -83.348 -90.681 6.600
usemtl roof
f 96 97 98 99 100 101 102 103 104 105 106 107 108 109 110 111 112 113 114 115 116 117 118 119 120 121
usemtl teaching_building
f 95 94 93 92 91 90 89 88 87 86 85 84 83 82 81 80 79 78 77 76 75 74 73 72 71 70
f 70 71 97 96
f 71 72 98 97
f 72 73 99 98
f 73 74 100 99
f 74 75 101 100
f 75 76 102 101
f 76 77 103 102
f 77 78 104 103
f 78 79 105 104
f 79 80 106 105
f 80 81 107 106
f 81 82 108 107
f 82 83 109 108
f 83 84 110 109
f 84 85 111 110
f 85 86 112 111
f 86 87 113 112
f 87 88 114 113
f 88 89 115 114
f 89 90 116 115
f 90 91 117 116
f 91 92 118 117
f 92 93 119 118
f 93 94 120 119
f 94 95 121 120
f 95 70 96 121
