# school_id SD0431
# school_name 开发区实验中学东校区
# boundary_source footprint_convex_hull_buffer_20m
# adjacent_block_merge_distance_m 2.0
mtllib ../campus_materials.mtl
o SD0431_campus_boundary
usemtl campus_boundary
v 33.723 -51.985 0.050
v -97.559 -32.205 0.050
v -97.929 69.912 0.050
v -51.599 70.753 0.050
v 110.669 21.471 0.050
v 112.020 -50.537 0.050
v 33.723 -51.985 0.050
l 1 2 3 4 5 6 7 1
o SD0431_T001_1hao
v -77.621 -14.983 0.000
v 22.638 -13.686 0.000
v 23.104 -20.264 0.000
v 35.037 -31.957 0.000
v 91.648 -30.910 0.000
v 90.945 6.559 0.000
v -53.503 4.270 0.000
v -54.391 50.699 0.000
v -77.858 50.273 0.000
v -77.621 -14.983 9.900
v 22.638 -13.686 9.900
v 23.104 -20.264 9.900
v 35.037 -31.957 9.900
v 91.648 -30.910 9.900
v 90.945 6.559 9.900
v -53.503 4.270 9.900
v -54.391 50.699 9.900
v -77.858 50.273 9.900
usemtl roof
f 17 18 19 20 21 22 23 24 25
usemtl teaching_building
f 16 15 14 13 12 11 10 9 8
f 8 9 18 17
f 9 10 19 18
f 10 11 20 19
f 11 12 21 20
f 12 13 22 21
f 13 14 23 22
f 14 15 24 23
f 15 16 25 24
f 16 8 17 25
