# school_id SD0470
# school_name 烟台职业学院
# boundary_source footprint_convex_hull_buffer_20m
# adjacent_block_merge_distance_m 2.0
mtllib ../campus_materials.mtl
o SD0470_campus_boundary
usemtl campus_boundary
v 76.853 -62.181 0.050
v -29.618 -40.919 0.050
v -55.401 -10.745 0.050
v -45.606 39.208 0.050
v -8.884 44.654 0.050
v 94.339 24.032 0.050
v 76.853 -62.181 0.050
l 1 2 3 4 5 6 7 1
o SD0470_T001_1hao
v -23.134 -7.189 0.000
v -17.918 19.412 0.000
v -28.698 21.497 0.000
v -33.914 -5.104 0.000
v -23.134 -7.189 9.900
v -17.918 19.412 9.900
v -28.698 21.497 9.900
v -33.914 -5.104 9.900
usemtl roof
f 12 13 14 15
usemtl teaching_building
f 11 10 9 8
f 8 9 13 12
f 9 10 14 13
f 10 11 15 14
f 11 8 12 15
o SD0470_T002_2hao
v 61.216 -38.663 0.000
v 70.751 8.349 0.000
v -9.391 24.360 0.000
v -18.911 -22.662 0.000
v 61.216 -38.663 9.900
v 70.751 8.349 9.900
v -9.391 24.360 9.900
v -18.911 -22.662 9.900
usemtl roof
f 20 21 22 23
usemtl teaching_building
f 19 18 17 16
f 16 17 21 20
f 17 18 22 21
f 18 19 23 22
f 19 16 20 23
