# school_id SD0450
# school_name 烟台工程职业技术学院
# boundary_source footprint_convex_hull_buffer_20m
# adjacent_block_merge_distance_m 2.0
mtllib ../campus_materials.mtl
o SD0450_campus_boundary
usemtl campus_boundary
v 137.939 -214.647 0.050
v -38.681 -163.032 0.050
v -62.721 -147.825 0.050
v -287.302 1.914 0.050
v -268.963 30.540 0.050
v -253.624 50.174 0.050
v -212.959 98.079 0.050
v -198.697 111.678 0.050
v 199.994 165.500 0.050
v 235.523 142.371 0.050
v 331.610 69.587 0.050
v 311.449 38.122 0.050
v 137.939 -214.647 0.050
l 1 2 3 4 5 6 7 8 9 10 11 12 13 1
o SD0450_T001_1hao
v 189.376 102.047 0.000
v 199.251 117.001 0.000
v 212.417 108.440 0.000
v 224.015 125.998 0.000
v 195.308 144.686 0.000
v 173.835 112.165 0.000
v 189.376 102.047 9.900
v 199.251 117.001 9.900
v 212.417 108.440 9.900
v 224.015 125.998 9.900
v 195.308 144.686 9.900
v 173.835 112.165 9.900
usemtl roof
f 20 21 22 23 24 25
usemtl teaching_building
f 19 18 17 16 15 14
f 14 15 21 20
f 15 16 22 21
f 16 17 23 22
f 17 18 24 23
f 18 19 25 24
f 19 14 20 25
o SD0450_T002_2hao
v 294.780 49.179 0.000
v 304.795 64.809 0.000
v 223.926 115.917 0.000
v 213.911 100.286 0.000
v 294.780 49.179 9.900
v 304.795 64.809 9.900
v 223.926 115.917 9.900
v 213.911 100.286 9.900
usemtl roof
f 30 31 32 33
usemtl teaching_building
f 29 28 27 26
f 26 27 31 30
f 27 28 32 31
f 28 29 33 32
f 29 26 30 33
o SD0450_T003_3hao
v -58.957 48.252 0.000
v -44.407 71.175 0.000
v -13.984 52.144 0.000
v -28.881 28.675 0.000
v -12.312 18.288 0.000
v 11.061 55.109 0.000
v -50.095 93.402 0.000
v -73.129 57.110 0.000
v -58.957 48.252 9.900
v -44.407 71.175 9.900
v -13.984 52.144 9.900
v -28.881 28.675 9.900
v -12.312 18.288 9.900
v 11.061 55.109 9.900
v -50.095 93.402 9.900
v -73.129 57.110 9.900
usemtl roof
f 42 43 44 45 46 47 48 49
usemtl teaching_building
f 41 40 39 38 37 36 35 34
f 34 35 43 42
f 35 36 44 43
f 36 37 45 44
f 37 38 46 45
f 38 39 47 46
f 39 40 48 47
f 40 41 49 48
f 41 34 42 49
o SD0450_T004_4hao
v -232.441 32.788 0.000
v -235.400 29.305 0.000
v -215.532 12.673 0.000
v -212.544 16.203 0.000
v -208.453 12.775 0.000
v -169.213 59.000 0.000
v -172.505 61.770 0.000
v -168.584 66.375 0.000
v -166.425 64.578 0.000
v -162.075 69.702 0.000
v -189.591 92.726 0.000
v -194.281 87.204 0.000
v -191.722 85.073 0.000
v -194.858 81.376 0.000
v -198.394 84.332 0.000
v -238.114 37.541 0.000
v -232.441 32.788 9.900
v -235.400 29.305 9.900
v -215.532 12.673 9.900
v -212.544 16.203 9.900
v -208.453 12.775 9.900
v -169.213 59.000 9.900
v -172.505 61.770 9.900
v -168.584 66.375 9.900
v -166.425 64.578 9.900
v -162.075 69.702 9.900
v -189.591 92.726 9.900
v -194.281 87.204 9.900
v -191.722 85.073 9.900
v -194.858 81.376 9.900
v -198.394 84.332 9.900
v -238.114 37.541 9.900
usemtl roof
f 66 67 68 69 70 71 72 73 74 75 76 77 78 79 80 81
usemtl teaching_building
f 65 64 63 62 61 60 59 58 57 56 55 54 53 52 51 50
f 50 51 67 66
f 51 52 68 67
f 52 53 69 68
f 53 54 70 69
f 54 55 71 70
f 55 56 72 71
f 56 57 73 72
f 57 58 74 73
f 58 59 75 74
f 59 60 76 75
f 60 61 77 76
f 61 62 78 77
f 62 63 79 78
f 63 64 80 79
f 64 65 81 80
f 65 50 66 81
o SD0450_T005_5hao
v 266.080 12.886 0.000
v 276.162 28.610 0.000
v 197.002 78.633 0.000
v 186.927 62.919 0.000
v 266.080 12.886 9.900
v 276.162 28.610 9.900
v 197.002 78.633 9.900
v 186.927 62.919 9.900
usemtl roof
f 86 87 88 89
usemtl teaching_building
f 85 84 83 82
f 82 83 87 86
f 83 84 88 87
f 84 85 89 88
f 85 82 86 89
o SD0450_T006_6hao
v -102.087 15.212 0.000
v -93.699 28.285 0.000
v -152.977 65.745 0.000
v -161.350 52.672 0.000
v -102.087 15.212 9.900
v -93.699 28.285 9.900
v -152.977 65.745 9.900
v -161.350 52.672 9.900
usemtl roof
f 94 95 96 97
usemtl teaching_building
f 93 92 91 90
f 90 91 95 94
f 91 92 96 95
f 92 93 97 96
f 93 90 94 97
o SD0450_T007_7hao
v 236.797 -23.119 0.000
v 247.049 -7.118 0.000
v 167.829 42.952 0.000
v 157.577 26.960 0.000
v 236.797 -23.119 9.900
v 247.049 -7.118 9.900
v 167.829 42.952 9.900
v 157.577 26.960 9.900
usemtl roof
f 102 103 104 105
usemtl teaching_building
f 101 100 99 98
f 98 99 103 102
f 99 100 104 103
f 100 101 105 104
f 101 98 102 105
o SD0450_T008_8hao
v -198.186 -31.328 0.000
v -190.930 -20.024 0.000
v -252.627 18.964 0.000
v -259.868 7.661 0.000
v -198.186 -31.328 9.900
v -190.930 -20.024 9.900
v -252.627 18.964 9.900
v -259.868 7.661 9.900
usemtl roof
f 110 111 112 113
usemtl teaching_building
f 109 108 107 106
f 106 107 111 110
f 107 108 112 111
f 108 109 113 112
f 109 106 110 113
o SD0450_T009_9hao
v -62.322 -25.787 0.000
v -45.983 -0.298 0.000
v -55.443 5.678 0.000
v -71.790 -19.811 0.000
v -62.322 -25.787 9.900
v -45.983 -0.298 9.900
v -55.443 5.678 9.900
v -71.790 -19.811 9.900
usemtl roof
f 118 119 120 121
usemtl teaching_building
f 117 116 115 114
f 114 115 119 118
f 115 116 120 119
f 116 117 121 120
f 117 114 118 121
o SD0450_T010_10hao
v 211.537 -61.885 0.000
v 221.774 -45.921 0.000
v 140.298 5.567 0.000
v 130.068 -10.379 0.000
v 211.537 -61.885 9.900
v 221.774 -45.921 9.900
v 140.298 5.567 9.900
v 130.068 -10.379 9.900
usemtl roof
f 126 127 128 129
usemtl teaching_building
f 125 124 123 122
f 122 123 127 126
f 123 124 128 127
f 124 125 129 128
f 125 122 126 129
o SD0450_T011_11hao
v 12.267 -75.505 0.000
v 29.280 -48.960 0.000
v -19.036 -18.421 0.000
v -36.049 -44.957 0.000
v 12.267 -75.505 9.900
v 29.280 -48.960 9.900
v -19.036 -18.421 9.900
v -36.049 -44.957 9.900
usemtl roof
f 134 135 136 137
usemtl teaching_building
f 133 132 131 130
f 130 131 135 134
f 131 132 136 135
f 132 133 137 136
f 133 130 134 137
o SD0450_T012_12hao
v -126.696 -78.331 0.000
v -117.968 -64.711 0.000
v -182.328 -24.045 0.000
v -191.056 -37.665 0.000
v -126.696 -78.331 9.900
v -117.968 -64.711 9.900
v -182.328 -24.045 9.900
v -191.056 -37.665 9.900
usemtl roof
f 142 143 144 145
usemtl teaching_building
f 141 140 139 138
f 138 139 143 142
f 139 140 144 143
f 140 141 145 144
f 141 138 142 145
o SD0450_T013_13hao
v 187.297 -98.965 0.000
v 196.018 -85.363 0.000
v 115.068 -34.200 0.000
v 106.354 -47.802 0.000
v 187.297 -98.965 9.900
v 196.018 -85.363 9.900
v 115.068 -34.200 9.900
v 106.354 -47.802 9.900
usemtl roof
f 150 151 152 153
usemtl teaching_building
f 149 148 147 146
f 146 147 151 150
f 147 148 152 151
f 148 149 153 152
f 149 146 150 153
o SD0450_T014_14hao
v -56.397 -122.045 0.000
v -48.712 -110.065 0.000
v -111.555 -70.354 0.000
v -119.240 -82.334 0.000
v -56.397 -122.045 9.900
v -48.712 -110.065 9.900
v -111.555 -70.354 9.900
v -119.240 -82.334 9.900
usemtl roof
f 158 159 160 161
usemtl teaching_building
f 157 156 155 154
f 154 155 159 158
f 155 156 160 159
f 156 157 161 160
f 157 154 158 161
o SD0450_T015_15hao
v -30.368 -144.625 0.000
v 7.193 -86.021 0.000
v -14.273 -72.457 0.000
v -51.826 -131.051 0.000
v -30.368 -144.625 9.900
v 7.193 -86.021 9.900
v -14.273 -72.457 9.900
v -51.826 -131.051 9.900
usemtl roof
f 166 167 168 169
usemtl teaching_building
f 165 164 163 162
f 162 163 167 166
f 163 164 168 167
f 164 165 169 168
f 165 162 166 169
o SD0450_T016_16hao
v 85.621 -162.488 0.000
v 121.421 -104.005 0.000
v 78.513 -78.099 0.000
v 42.712 -136.573 0.000
v 85.621 -162.488 9.900
v 121.421 -104.005 9.900
v 78.513 -78.099 9.900
v 42.712 -136.573 9.900
usemtl roof
f 174 175 176 177
usemtl teaching_building
f 173 172 171 170
f 170 171 175 174
f 171 172 176 175
f 172 173 177 176
f 173 170 174 177
o SD0450_T017_17hao
v 129.647 -191.387 0.000
v 165.625 -132.626 0.000
v 130.926 -111.677 0.000
v 94.948 -170.447 0.000
v 129.647 -191.387 9.900
v 165.625 -132.626 9.900
v 130.926 -111.677 9.900
v 94.948 -170.447 9.900
usemtl roof
f 182 183 184 185
usemtl teaching_building
f 181 180 179 178
f 178 179 183 182
f 179 180 184 183
f 180 181 185 184
f 181 178 182 185
