# school_id SD0416
# school_name 初家中学
# boundary_source footprint_convex_hull_buffer_20m
# adjacent_block_merge_distance_m 2.0
mtllib ../campus_materials.mtl
o SD0416_campus_boundary
usemtl campus_boundary
v 7.154 -108.254 0.050
v -68.582 -97.142 0.050
v -135.699 -87.292 0.050
v -129.915 -48.414 0.050
v -114.149 2.244 0.050
v -107.893 21.396 0.050
v 84.467 135.343 0.050
v 184.962 103.073 0.050
v 192.978 76.649 0.050
v 179.066 33.886 0.050
v 7.154 -108.254 0.050
l 1 2 3 4 5 6 7 8 9 10 11 1
o SD0416_T001_1hao
v 89.052 92.619 0.000
v 92.422 102.987 0.000
v 159.014 81.612 0.000
v 156.155 72.819 0.000
v 151.496 74.311 0.000
v 144.007 51.324 0.000
v 161.844 45.598 0.000
v 172.014 76.859 0.000
v 166.103 78.758 0.000
v 168.866 87.236 0.000
v 86.919 113.550 0.000
v 80.956 95.214 0.000
v 89.052 92.619 6.600
v 92.422 102.987 6.600
v 159.014 81.612 6.600
v 156.155 72.819 6.600
v 151.496 74.311 6.600
v 144.007 51.324 6.600
v 161.844 45.598 6.600
v 172.014 76.859 6.600
v 166.103 78.758 6.600
v 168.866 87.236 6.600
v 86.919 113.550 6.600
v 80.956 95.214 6.600
usemtl roof
f 24 25 26 27 28 29 30 31 32 33 34 35
usemtl teaching_building
f 23 22 21 20 19 18 17 16 15 14 13 12
f 12 13 25 24
f 13 14 26 25
f 14 15 27 26
f 15 16 28 27
f 16 17 29 28
f 17 18 30 29
f 18 19 31 30
f 19 20 32 31
f 20 21 33 32
f 21 22 34 33
f 22 23 35 34
f 23 12 24 35
o SD0416_T002_2hao
v -86.086 -6.724 0.000
v -85.635 -5.325 0.000
v -47.991 -17.425 0.000
v -44.591 -6.955 0.000
v -91.220 8.027 0.000
v -95.094 -3.833 0.000
v -86.086 -6.724 6.600
v -85.635 -5.325 6.600
v -47.991 -17.425 6.600
v -44.591 -6.955 6.600
v -91.220 8.027 6.600
v -95.094 -3.833 6.600
usemtl roof
f 42 43 44 45 46 47
usemtl teaching_building
f 41 40 39 38 37 36
f 36 37 43 42
f 37 38 44 43
f 38 39 45 44
f 39 40 46 45
f 40 41 47 46
f 41 36 42 47
o SD0416_T003_3hao
v -95.427 -49.585 0.000
v -84.998 -50.762 0.000
v -77.420 -44.406 0.000
v -76.235 -32.982 0.000
v -82.153 -22.401 0.000
v -91.397 -21.456 0.000
v -100.049 -26.644 0.000
v -102.545 -40.292 0.000
v -95.427 -49.585 6.600
v -84.998 -50.762 6.600
v -77.420 -44.406 6.600
v -76.235 -32.982 6.600
v -82.153 -22.401 6.600
v -91.397 -21.456 6.600
v -100.049 -26.644 6.600
v -102.545 -40.292 6.600
usemtl roof
f 56 57 58 59 60 61 62 63
usemtl teaching_building
f 55 54 53 52 51 50 49 48
f 48 49 57 56
f 49 50 58 57
f 50 51 59 58
f 51 52 60 59
f 52 53 61 60
f 53 54 62 61
f 54 55 63 62
f 55 48 56 63
o SD0416_T004_4hao
v -65.679 -77.354 0.000
v -63.072 -59.823 0.000
v -110.360 -52.884 0.000
v -112.968 -70.414 0.000
v -65.679 -77.354 6.600
v -63.072 -59.823 6.600
v -110.360 -52.884 6.600
v -112.968 -70.414 6.600
usemtl roof
f 68 69 70 71
usemtl teaching_building
f 67 66 65 64
f 64 65 69 68
f 65 66 70 69
f 66 67 71 70
f 67 64 68 71
o SD0416_T005_5hao
v 1.261 -87.175 0.000
v 4.009 -69.126 0.000
v -42.331 -62.177 0.000
v -45.080 -80.235 0.000
v 1.261 -87.175 6.600
v 4.009 -69.126 6.600
v -42.331 -62.177 6.600
v -45.080 -80.235 6.600
usemtl roof
f 76 77 78 79
usemtl teaching_building
f 75 74 73 72
f 72 73 77 76
f 73 74 78 77
f 74 75 79 78
f 75 72 76 79
