# school_id SD0433
# school_name 开发区第三小学西校区
# boundary_source footprint_convex_hull_buffer_20m
# adjacent_block_merge_distance_m 2.0
mtllib ../campus_materials.mtl
o SD0433_campus_boundary
usemtl campus_boundary
v 17.616 -110.647 0.050
v -13.929 -89.152 0.050
v -56.360 -58.134 0.050
v -69.202 17.809 0.050
v -59.228 31.966 0.050
v -16.952 88.592 0.050
v 11.437 77.760 0.050
v 68.036 35.832 0.050
v 88.703 4.446 0.050
v 61.962 -47.354 0.050
v 17.616 -110.647 0.050
l 1 2 3 4 5 6 7 8 9 10 11 1
o SD0433_T001_1hao
v -41.950 8.947 0.000
v -38.128 14.459 0.000
v -20.405 2.359 0.000
v 1.762 34.380 0.000
v 19.655 22.177 0.000
v 1.666 -3.821 0.000
v -5.085 0.775 0.000
v -37.995 -46.785 0.000
v -27.333 -54.058 0.000
v -23.946 -49.166 0.000
v -18.837 -52.659 0.000
v 28.742 16.099 0.000
v 42.709 6.584 0.000
v 53.282 21.872 0.000
v 2.590 56.469 0.000
v 1.740 60.054 0.000
v -9.965 64.520 0.000
v -11.155 59.461 0.000
v -41.196 19.407 0.000
v -43.037 20.222 0.000
v -48.109 13.023 0.000
v -41.950 8.947 9.900
v -38.128 14.459 9.900
v -20.405 2.359 9.900
v 1.762 34.380 9.900
v 19.655 22.177 9.900
v 1.666 -3.821 9.900
v -5.085 0.775 9.900
v -37.995 -46.785 9.900
v -27.333 -54.058 9.900
v -23.946 -49.166 9.900
v -18.837 -52.659 9.900
v 28.742 16.099 9.900
v 42.709 6.584 9.900
v 53.282 21.872 9.900
v 2.590 56.469 9.900
v 1.740 60.054 9.900
v -9.965 64.520 9.900
v -11.155 59.461 9.900
v -41.196 19.407 9.900
v -43.037 20.222 9.900
v -48.109 13.023 9.900
usemtl roof
f 33 34 35 36 37 38 39 40 41 42 43 44 45 46 47 48 49 50 51 52 53
usemtl teaching_building
f 32 31 30 29 28 27 26 25 24 23 22 21 20 19 18 17 16 15 14 13 12
f 12 13 34 33
f 13 14 35 34
f 14 15 36 35
f 15 16 37 36
f 16 17 38 37
f 17 18 39 38
f 18 19 40 39
f 19 20 41 40
f 20 21 42 41
f 21 22 43 42
f 22 23 44 43
f 23 24 45 44
f 24 25 46 45
f 25 26 47 46
f 26 27 48 47
f 27 28 49 48
f 28 29 50 49
f 29 30 51 50
f 30 31 52 51
f 31 32 53 52
f 32 12 33 53
o SD0433_T002_2hao
v 12.564 -83.003 0.000
v 44.809 -36.982 0.000
v 44.091 -28.291 0.000
v 65.563 3.221 0.000
v 50.361 3.545 0.000
v -2.393 -72.811 0.000
v 12.564 -83.003 9.900
v 44.809 -36.982 9.900
v 44.091 -28.291 9.900
v 65.563 3.221 9.900
v 50.361 3.545 9.900
v -2.393 -72.811 9.900
usemtl roof
f 60 61 62 63 64 65
usemtl teaching_building
f 59 58 57 56 55 54
f 54 55 61 60
f 55 56 62 61
f 56 57 63 62
f 57 58 64 63
f 58 59 65 64
f 59 54 60 65
