# school_id SD0429
# school_name 山水龙城小学
# boundary_source footprint_convex_hull_buffer_20m
# adjacent_block_merge_distance_m 2.0
mtllib ../campus_materials.mtl
o SD0429_campus_boundary
usemtl campus_boundary
v 35.850 -107.466 0.050
v -49.392 -105.815 0.050
v -48.550 -63.267 0.050
v -47.375 -22.924 0.050
v -41.602 42.092 0.050
v -36.422 82.716 0.050
v 43.578 72.656 0.050
v 56.819 22.489 0.050
v 51.475 -19.789 0.050
v 49.613 -34.417 0.050
v 35.850 -107.466 0.050
l 1 2 3 4 5 6 7 8 9 10 11 1
o SD0429_T001_1hao
v 29.848 -31.300 0.000
v 31.633 -17.281 0.000
v 22.844 -16.179 0.000
v 22.400 -19.662 0.000
v -15.835 -14.863 0.000
v -12.392 12.238 0.000
v 34.602 6.336 0.000
v 36.490 21.142 0.000
v 26.857 22.356 0.000
v 26.405 18.789 0.000
v -13.266 23.774 0.000
v -11.423 38.283 0.000
v 25.036 33.706 0.000
v 27.686 54.497 0.000
v -19.108 60.381 0.000
v -21.714 39.942 0.000
v -16.635 39.302 0.000
v -18.405 25.349 0.000
v -21.537 25.747 0.000
v -22.973 14.471 0.000
v -17.694 13.813 0.000
v -21.085 -12.778 0.000
v -25.883 -12.167 0.000
v -27.401 -24.101 0.000
v 29.848 -31.300 9.900
v 31.633 -17.281 9.900
v 22.844 -16.179 9.900
v 22.400 -19.662 9.900
v -15.835 -14.863 9.900
v -12.392 12.238 9.900
v 34.602 6.336 9.900
v 36.490 21.142 9.900
v 26.857 22.356 9.900
v 26.405 18.789 9.900
v -13.266 23.774 9.900
v -11.423 38.283 9.900
v 25.036 33.706 9.900
v 27.686 54.497 9.900
v -19.108 60.381 9.900
v -21.714 39.942 9.900
v -16.635 39.302 9.900
v -18.405 25.349 9.900
v -21.537 25.747 9.900
v -22.973 14.471 9.900
v -17.694 13.813 9.900
v -21.085 -12.778 9.900
v -25.883 -12.167 9.900
v -27.401 -24.101 9.900
usemtl roof
f 36 37 38 39 40 41 42 43 44 45 46 47 48 49 50 51 52 53 54 55 56 57 58 59
usemtl teaching_building
f 35 34 33 32 31 30 29 28 27 26 25 24 23 22 21 20 19 18 17 16 15 14 13 12
f 12 13 37 36
f 13 14 38 37
f 14 15 39 38
f 15 16 40 39
f 16 17 41 40
f 17 18 42 41
f 18 19 43 42
f 19 20 44 43
f 20 21 45 44
f 21 22 46 45
f 22 23 47 46
f 23 24 48 47
f 24 25 49 48
f 25 26 50 49
f 26 27 51 50
f 27 28 52 51
f 28 29 53 52
f 29 30 54 53
f 30 31 55 54
f 31 32 56 55
f 32 33 57 56
f 33 34 58 57
f 34 35 59 58
f 35 12 36 59
o SD0429_T002_2hao
v 19.327 -87.142 0.000
v 19.779 -64.692 0.000
v -28.556 -63.756 0.000
v -29.000 -86.206 0.000
v 19.327 -87.142 9.900
v 19.779 -64.692 9.900
v -28.556 -63.756 9.900
v -29.000 -86.206 9.900
usemtl roof
f 64 65 66 67
usemtl teaching_building
f 63 62 61 60
f 60 61 65 64
f 61 62 66 65
f 62 63 67 66
f 63 60 64 67
