# school_id SD0420
# school_name 哈尔滨铁道职业技术学院(烟台分院)
# boundary_source footprint_convex_hull_buffer_20m
# adjacent_block_merge_distance_m 2.0
mtllib ../campus_materials.mtl
o SD0420_campus_boundary
usemtl campus_boundary
v -70.594 -144.685 0.050
v -90.359 -125.077 0.050
v -93.865 36.143 0.050
v -14.101 103.308 0.050
v 60.428 120.240 0.050
v 83.796 99.956 0.050
v 88.123 92.123 0.050
v 110.169 43.846 0.050
v 26.235 -88.724 0.050
v 9.194 -111.029 0.050
v -2.672 -123.270 0.050
v -70.594 -144.685 0.050
l 1 2 3 4 5 6 7 8 9 10 11 12 1
o SD0420_T001_1hao
v 23.617 38.609 0.000
v 29.005 44.715 0.000
v 33.208 41.055 0.000
v 70.248 83.120 0.000
v 66.955 85.983 0.000
v 68.006 87.178 0.000
v 54.973 98.491 0.000
v 48.128 90.727 0.000
v 56.172 83.741 0.000
v 27.088 50.719 0.000
v 16.328 60.059 0.000
v 8.779 51.498 0.000
v 23.617 38.609 9.900
v 29.005 44.715 9.900
v 33.208 41.055 9.900
v 70.248 83.120 9.900
v 66.955 85.983 9.900
v 68.006 87.178 9.900
v 54.973 98.491 9.900
v 48.128 90.727 9.900
v 56.172 83.741 9.900
v 27.088 50.719 9.900
v 16.328 60.059 9.900
v 8.779 51.498 9.900
usemtl roof
f 25 26 27 28 29 30 31 32 33 34 35 36
usemtl teaching_building
f 24 23 22 21 20 19 18 17 16 15 14 13
f 13 14 26 25
f 14 15 27 26
f 15 16 28 27
f 16 17 29 28
f 17 18 30 29
f 18 19 31 30
f 19 20 32 31
f 20 21 33 32
f 21 22 34 33
f 22 23 35 34
f 23 24 36 35
f 24 13 25 36
o SD0420_T002_2hao
v 55.121 11.453 0.000
v 87.476 45.392 0.000
v 71.225 60.679 0.000
v 66.637 55.871 0.000
v 72.809 50.071 0.000
v 45.034 20.931 0.000
v 55.121 11.453 9.900
v 87.476 45.392 9.900
v 71.225 60.679 9.900
v 66.637 55.871 9.900
v 72.809 50.071 9.900
v 45.034 20.931 9.900
usemtl roof
f 43 44 45 46 47 48
usemtl teaching_building
f 42 41 40 39 38 37
f 37 38 44 43
f 38 39 45 44
f 39 40 46 45
f 40 41 47 46
f 41 42 48 47
f 42 37 43 48
o SD0420_T003_3hao
v -14.799 -13.036 0.000
v 11.939 14.251 0.000
v -3.217 28.890 0.000
v -10.958 20.987 0.000
v -5.852 16.058 0.000
v -24.841 -3.335 0.000
v -14.799 -13.036 9.900
v 11.939 14.251 9.900
v -3.217 28.890 9.900
v -10.958 20.987 9.900
v -5.852 16.058 9.900
v -24.841 -3.335 9.900
usemtl roof
f 55 56 57 58 59 60
usemtl teaching_building
f 54 53 52 51 50 49
f 49 50 56 55
f 50 51 57 56
f 51 52 58 57
f 52 53 59 58
f 53 54 60 59
f 54 49 55 60
o SD0420_T004_4hao
v 0.135 -38.951 0.000
v 21.974 -16.631 0.000
v 23.921 -18.511 0.000
v 29.664 -12.637 0.000
v 19.036 -2.371 0.000
v -3.506 -25.396 0.000
v -2.506 -26.359 0.000
v -7.561 -31.520 0.000
v 0.135 -38.951 9.900
v 21.974 -16.631 9.900
v 23.921 -18.511 9.900
v 29.664 -12.637 9.900
v 19.036 -2.371 9.900
v -3.506 -25.396 9.900
v -2.506 -26.359 9.900
v -7.561 -31.520 9.900
usemtl roof
f 69 70 71 72 73 74 75 76
usemtl teaching_building
f 68 67 66 65 64 63 62 61
f 61 62 70 69
f 62 63 71 70
f 63 64 72 71
f 64 65 73 72
f 65 66 74 73
f 66 67 75 74
f 67 68 76 75
f 68 61 69 76
o SD0420_T005_5hao
v -48.553 -80.802 0.000
v -20.845 -52.274 0.000
v -32.005 -41.573 0.000
v -59.720 -70.110 0.000
v -48.553 -80.802 9.900
v -20.845 -52.274 9.900
v -32.005 -41.573 9.900
v -59.720 -70.110 9.900
usemtl roof
f 81 82 83 84
usemtl teaching_building
f 80 79 78 77
f 77 78 82 81
f 78 79 83 82
f 79 80 84 83
f 80 77 81 84
o SD0420_T006_6hao
v -13.511 -105.717 0.000
v -5.985 -97.953 0.000
v -8.175 -95.868 0.000
v 9.808 -77.282 0.000
v 2.563 -70.351 0.000
v -16.604 -90.151 0.000
v -15.124 -91.569 0.000
v -21.467 -98.119 0.000
v -13.511 -105.717 9.900
v -5.985 -97.953 9.900
v -8.175 -95.868 9.900
v 9.808 -77.282 9.900
v 2.563 -70.351 9.900
v -16.604 -90.151 9.900
v -15.124 -91.569 9.900
v -21.467 -98.119 9.900
usemtl roof
f 93 94 95 96 97 98 99 100
usemtl teaching_building
f 92 91 90 89 88 87 86 85
f 85 86 94 93
f 86 87 95 94
f 87 88 96 95
f 88 89 97 96
f 89 90 98 97
f 90 91 99 98
f 91 92 100 99
f 92 85 93 100
