# school_id SD0479
# school_name 莱山区实验小学(万光校区)
# boundary_source footprint_convex_hull_buffer_20m
# adjacent_block_merge_distance_m 2.0
mtllib ../campus_materials.mtl
o SD0479_campus_boundary
usemtl campus_boundary
v 52.134 -125.528 0.050
v -23.074 -94.056 0.050
v -84.040 -66.672 0.050
v -57.926 -4.097 0.050
v -36.323 44.710 0.050
v -27.805 63.402 0.050
v -0.295 99.493 0.050
v 50.271 76.780 0.050
v 72.092 -80.511 0.050
v 52.134 -125.528 0.050
l 1 2 3 4 5 6 7 8 9 10 1
o SD0479_T001_1hao
v -15.115 -75.706 0.000
v 34.300 32.838 0.000
v 6.989 45.096 0.000
v 10.848 53.573 0.000
v 24.803 47.301 0.000
v 31.981 63.070 0.000
v 5.989 74.745 0.000
v -1.181 59.003 0.000
v 6.648 55.473 0.000
v 2.826 47.060 0.000
v -10.537 53.064 0.000
v -18.078 36.516 0.000
v 15.515 21.432 0.000
v 1.130 -10.154 0.000
v -31.944 4.699 0.000
v -39.551 -11.997 0.000
v -7.715 -26.294 0.000
v -19.811 -52.848 0.000
v -50.233 -39.182 0.000
v -58.084 -56.406 0.000
v -15.115 -75.706 9.900
v 34.300 32.838 9.900
v 6.989 45.096 9.900
v 10.848 53.573 9.900
v 24.803 47.301 9.900
v 31.981 63.070 9.900
v 5.989 74.745 9.900
v -1.181 59.003 9.900
v 6.648 55.473 9.900
v 2.826 47.060 9.900
v -10.537 53.064 9.900
v -18.078 36.516 9.900
v 15.515 21.432 9.900
v 1.130 -10.154 9.900
v -31.944 4.699 9.900
v -39.551 -11.997 9.900
v -7.715 -26.294 9.900
v -19.811 -52.848 9.900
v -50.233 -39.182 9.900
v -58.084 -56.406 9.900
usemtl roof
f 31 32 33 34 35 36 37 38 39 40 41 42 43 44 45 46 47 48 49 50
usemtl teaching_building
f 30 29 28 27 26 25 24 23 22 21 20 19 18 17 16 15 14 13 12 11
f 11 12 32 31
f 12 13 33 32
f 13 14 34 33
f 14 15 35 34
f 15 16 36 35
f 16 17 37 36
f 17 18 38 37
f 18 19 39 38
f 19 20 40 39
f 20 21 41 40
f 21 22 42 41
f 22 23 43 42
f 23 24 44 43
f 24 25 45 44
f 25 26 46 45
f 26 27 47 46
f 27 28 48 47
f 28 29 49 48
f 29 30 50 49
f 30 11 31 50
o SD0479_T002_2hao
v 41.788 -99.518 0.000
v 51.499 -77.615 0.000
v 13.826 -61.122 0.000
v 4.107 -83.026 0.000
v 41.788 -99.518 9.900
v 51.499 -77.615 9.900
v 13.826 -61.122 9.900
v 4.107 -83.026 9.900
usemtl roof
f 55 56 57 58
usemtl teaching_building
f 54 53 52 51
f 51 52 56 55
f 52 53 57 56
f 53 54 58 57
f 54 51 55 58
