# school_id SD0415
# school_name 八角第二小学
# boundary_source footprint_convex_hull_buffer_20m
# adjacent_block_merge_distance_m 2.0
mtllib ../campus_materials.mtl
o SD0415_campus_boundary
usemtl campus_boundary
v -9.167 -70.400 0.050
v -83.703 9.679 0.050
v -91.111 54.225 0.050
v 25.598 73.442 0.050
v 44.024 -10.743 0.050
v 52.294 -60.276 0.050
v -9.167 -70.400 0.050
l 1 2 3 4 5 6 7 1
o SD0415_T001_1hao
v -64.962 18.899 0.000
v -12.636 27.507 0.000
v -6.116 -11.640 0.000
v 3.665 -10.018 0.000
v 4.234 -13.446 0.000
v -4.534 -14.882 0.000
v -3.173 -23.036 0.000
v -6.079 -23.509 0.000
v -1.835 -48.923 0.000
v 29.266 -43.800 0.000
v 24.379 -14.530 0.000
v 12.980 -16.402 0.000
v 11.546 -7.785 0.000
v 20.587 -6.293 0.000
v 16.846 16.092 0.000
v 12.034 15.295 0.000
v 8.951 33.733 0.000
v 12.825 34.372 0.000
v 10.119 50.624 0.000
v -68.096 37.745 0.000
v -64.962 18.899 9.900
v -12.636 27.507 9.900
v -6.116 -11.640 9.900
v 3.665 -10.018 9.900
v 4.234 -13.446 9.900
v -4.534 -14.882 9.900
v -3.173 -23.036 9.900
v -6.079 -23.509 9.900
v -1.835 -48.923 9.900
v 29.266 -43.800 9.900
v 24.379 -14.530 9.900
v 12.980 -16.402 9.900
v 11.546 -7.785 9.900
v 20.587 -6.293 9.900
v 16.846 16.092 9.900
v 12.034 15.295 9.900
v 8.951 33.733 9.900
v 12.825 34.372 9.900
v 10.119 50.624 9.900
v -68.096 37.745 9.900
usemtl roof
f 28 29 30 31 32 33 34 35 36 37 38 39 40 41 42 43 44 45 46 47
usemtl teaching_building
f 27 26 25 24 23 22 21 20 19 18 17 16 15 14 13 12 11 10 9 8
f 8 9 29 28
f 9 10 30 29
f 10 11 31 30
f 11 12 32 31
f 12 13 33 32
f 13 14 34 33
f 14 15 35 34
f 15 16 36 35
f 16 17 37 36
f 17 18 38 37
f 18 19 39 38
f 19 20 40 39
f 20 21 41 40
f 21 22 42 41
f 22 23 43 42
f 23 24 44 43
f 24 25 45 44
f 25 26 46 45
f 26 27 47 46
f 27 8 28 47
