# school_id SD0492
# school_name 莱州市文泉学校
# boundary_source footprint_convex_hull_buffer_20m
# adjacent_block_merge_distance_m 2.0
mtllib ../campus_materials.mtl
o SD0492_campus_boundary
usemtl campus_boundary
v 126.024 -143.136 0.050
v 35.854 -139.820 0.050
v -103.323 -41.487 0.050
v -123.593 45.899 0.050
v -121.753 107.296 0.050
v -79.350 107.930 0.050
v -35.122 107.032 0.050
v 111.919 53.641 0.050
v 127.520 -102.702 0.050
v 126.024 -143.136 0.050
l 1 2 3 4 5 6 7 8 9 10 1
o SD0492_T001_1hao
v -39.068 75.864 0.000
v -38.837 87.103 0.000
v -79.404 87.927 0.000
v -79.642 76.679 0.000
v -39.068 75.864 9.900
v -38.837 87.103 9.900
v -79.404 87.927 9.900
v -79.642 76.679 9.900
usemtl roof
f 15 16 17 18
usemtl teaching_building
f 14 13 12 11
f 11 12 16 15
f 12 13 17 16
f 13 14 18 17
f 14 11 15 18
o SD0492_T002_2hao
v -95.115 47.651 0.000
v -93.918 87.344 0.000
v -102.335 87.584 0.000
v -103.524 47.892 0.000
v -95.115 47.651 9.900
v -93.918 87.344 9.900
v -102.335 87.584 9.900
v -103.524 47.892 9.900
usemtl roof
f 23 24 25 26
usemtl teaching_building
f 22 21 20 19
f 19 20 24 23
f 20 21 25 24
f 21 22 26 25
f 22 19 23 26
o SD0492_T003_3hao
v -31.602 32.937 0.000
v -30.985 52.015 0.000
v -79.285 53.553 0.000
v -79.902 34.475 0.000
v -31.602 32.937 9.900
v -30.985 52.015 9.900
v -79.285 53.553 9.900
v -79.902 34.475 9.900
usemtl roof
f 31 32 33 34
usemtl teaching_building
f 30 29 28 27
f 27 28 32 31
f 28 29 33 32
f 29 30 34 33
f 30 27 31 34
o SD0492_T004_4hao
v 92.858 28.518 0.000
v 93.267 39.136 0.000
v 49.606 40.785 0.000
v 49.197 30.167 0.000
v 92.858 28.518 9.900
v 93.267 39.136 9.900
v 49.606 40.785 9.900
v 49.197 30.167 9.900
usemtl roof
f 39 40 41 42
usemtl teaching_building
f 38 37 36 35
f 35 36 40 39
f 36 37 41 40
f 37 38 42 41
f 38 35 39 42
o SD0492_T005_5hao
v -20.040 -0.084 0.000
v -19.661 10.265 0.000
v -84.497 12.618 0.000
v -84.877 2.288 0.000
v -20.040 -0.084 9.900
v -19.661 10.265 9.900
v -84.497 12.618 9.900
v -84.877 2.288 9.900
usemtl roof
f 47 48 49 50
usemtl teaching_building
f 46 45 44 43
f 43 44 48 47
f 44 45 49 48
f 45 46 50 49
f 46 43 47 50
o SD0492_T006_6hao
v 90.278 -3.614 0.000
v 90.597 7.726 0.000
v 39.561 9.135 0.000
v 39.241 -2.206 0.000
v 90.278 -3.614 9.900
v 90.597 7.726 9.900
v 39.561 9.135 9.900
v 39.241 -2.206 9.900
usemtl roof
f 55 56 57 58
usemtl teaching_building
f 54 53 52 51
f 51 52 56 55
f 52 53 57 56
f 53 54 58 57
f 54 51 55 58
o SD0492_T007_7hao
v -19.773 -31.688 0.000
v -19.446 -21.691 0.000
v -85.234 -19.569 0.000
v -85.561 -29.548 0.000
v -19.773 -31.688 9.900
v -19.446 -21.691 9.900
v -85.234 -19.569 9.900
v -85.561 -29.548 9.900
usemtl roof
f 63 64 65 66
usemtl teaching_building
f 62 61 60 59
f 59 60 64 63
f 60 61 65 64
f 61 62 66 65
f 62 59 63 66
o SD0492_T008_8hao
v 89.735 -37.841 0.000
v 90.114 -26.305 0.000
v 39.435 -24.647 0.000
v 39.056 -36.182 0.000
v 89.735 -37.841 9.900
v 90.114 -26.305 9.900
v 39.435 -24.647 9.900
v 39.056 -36.182 9.900
usemtl roof
f 71 72 73 74
usemtl teaching_building
f 70 69 68 67
f 67 68 72 71
f 68 69 73 72
f 69 70 74 73
f 70 67 71 74
o SD0492_T009_9hao
v 60.886 -82.768 0.000
v 62.276 -54.889 0.000
v 23.977 -52.999 0.000
v 22.586 -80.878 0.000
v 60.886 -82.768 9.900
v 62.276 -54.889 9.900
v 23.977 -52.999 9.900
v 22.586 -80.878 9.900
usemtl roof
f 79 80 81 82
usemtl teaching_building
f 78 77 76 75
f 75 76 80 79
f 76 77 81 80
f 77 78 82 81
f 78 75 79 82
o SD0492_T010_10hao
v 106.777 -122.415 0.000
v 107.483 -103.328 0.000
v 43.242 -100.956 0.000
v 42.535 -120.052 0.000
v 106.777 -122.415 9.900
v 107.483 -103.328 9.900
v 43.242 -100.956 9.900
v 42.535 -120.052 9.900
usemtl roof
f 87 88 89 90
usemtl teaching_building
f 86 85 84 83
f 83 84 88 87
f 84 85 89 88
f 85 86 90 89
f 86 83 87 90
