# school_id SD0545
# school_name 昌邑市下营镇辛庄小学
# boundary_source footprint_convex_hull_buffer_20m
# adjacent_block_merge_distance_m 2.0
mtllib ../campus_materials.mtl
o SD0545_campus_boundary
usemtl campus_boundary
v -40.505 -30.476 0.050
v -42.598 11.473 0.050
v -14.700 25.382 0.050
v 12.009 26.685 0.050
v 40.565 17.937 0.050
v 42.781 -26.353 0.050
v -40.505 -30.476 0.050
l 1 2 3 4 5 6 7 1
o SD0545_T001_1hao
v -9.257 0.039 0.000
v -9.533 5.610 0.000
v 9.493 6.538 0.000
v 9.697 2.360 0.000
v 21.291 2.924 0.000
v 21.806 -7.367 0.000
v -21.526 -9.512 0.000
v -21.971 -0.591 0.000
v -9.257 0.039 5.320
v -9.533 5.610 5.320
v 9.493 6.538 5.320
v 9.697 2.360 5.320
v 21.291 2.924 5.320
v 21.806 -7.367 5.320
v -21.526 -9.512 5.320
v -21.971 -0.591 5.320
usemtl roof
f 16 17 18 19 20 21 22 23
usemtl teaching_building
f 15 14 13 12 11 10 9 8
f 8 9 17 16
f 9 10 18 17
f 10 11 19 18
f 11 12 20 19
f 12 13 21 20
f 13 14 22 21
f 14 15 23 22
f 15 8 16 23
