# school_id SD0524
# school_name 安丘市新安街道关王小学
# boundary_source footprint_convex_hull_buffer_20m
# adjacent_block_merge_distance_m 2.0
mtllib ../campus_materials.mtl
o SD0524_campus_boundary
usemtl campus_boundary
v -1.245 -54.052 0.050
v -39.061 -53.531 0.050
v -40.968 -17.468 0.050
v -43.878 49.050 0.050
v -7.699 53.772 0.050
v 2.386 54.277 0.050
v 38.611 53.646 0.050
v 42.808 -12.723 0.050
v 44.700 -48.417 0.050
v 7.216 -53.609 0.050
v -1.245 -54.052 0.050
l 1 2 3 4 5 6 7 8 9 10 11 1
o SD0524_T001_1hao
v -22.190 13.863 0.000
v -4.971 14.725 0.000
v -4.900 13.332 0.000
v 3.634 13.752 0.000
v 3.571 15.012 0.000
v 20.719 15.852 0.000
v 19.815 33.970 0.000
v 2.765 33.130 0.000
v 2.712 34.268 0.000
v -5.902 33.837 0.000
v -5.840 32.467 0.000
v -23.095 31.593 0.000
v -22.190 13.863 10.820
v -4.971 14.725 10.820
v -4.900 13.332 10.820
v 3.634 13.752 10.820
v 3.571 15.012 10.820
v 20.719 15.852 10.820
v 19.815 33.970 10.820
v 2.765 33.130 10.820
v 2.712 34.268 10.820
v -5.902 33.837 10.820
v -5.840 32.467 10.820
v -23.095 31.593 10.820
usemtl roof
f 24 25 26 27 28 29 30 31 32 33 34 35
usemtl teaching_building
f 23 22 21 20 19 18 17 16 15 14 13 12
f 12 13 25 24
f 13 14 26 25
f 14 15 27 26
f 15 16 28 27
f 16 17 29 28
f 17 18 30 29
f 18 19 31 30
f 19 20 32 31
f 20 21 33 32
f 21 22 34 33
f 22 23 35 34
f 23 12 24 35
o SD0524_T002_2hao
v -20.077 -33.791 0.000
v -1.694 -32.829 0.000
v -1.631 -34.045 0.000
v 5.317 -33.681 0.000
v 5.237 -32.100 0.000
v 23.755 -31.127 0.000
v 22.841 -13.883 0.000
v 4.037 -14.867 0.000
v 3.965 -13.496 0.000
v -3.583 -13.883 0.000
v -3.494 -15.596 0.000
v -20.991 -16.503 0.000
v -20.077 -33.791 9.120
v -1.694 -32.829 9.120
v -1.631 -34.045 9.120
v 5.317 -33.681 9.120
v 5.237 -32.100 9.120
v 23.755 -31.127 9.120
v 22.841 -13.883 9.120
v 4.037 -14.867 9.120
v 3.965 -13.496 9.120
v -3.583 -13.883 9.120
v -3.494 -15.596 9.120
v -20.991 -16.503 9.120
usemtl roof
f 48 49 50 51 52 53 54 55 56 57 58 59
usemtl teaching_building
f 47 46 45 44 43 42 41 40 39 38 37 36
f 36 37 49 48
f 37 38 50 49
f 38 39 51 50
f 39 40 52 51
f 40 41 53 52
f 41 42 54 53
f 42 43 55 54
f 43 44 56 55
f 44 45 57 56
f 45 46 58 57
f 46 47 59 58
f 47 36 48 59
