# school_id SD0578
# school_name 昌邑市都昌街道都昌小学
# boundary_source footprint_convex_hull_buffer_20m
# adjacent_block_merge_distance_m 2.0
mtllib ../campus_materials.mtl
o SD0578_campus_boundary
usemtl campus_boundary
v 51.791 -30.689 0.050
v -53.604 -28.588 0.050
v -52.541 24.251 0.050
v -8.013 27.483 0.050
v 10.015 27.134 0.050
v 52.860 21.675 0.050
v 51.791 -30.689 0.050
l 1 2 3 4 5 6 7 1
o SD0578_T001_1hao
v -19.648 5.357 0.000
v -19.720 1.632 0.000
v -7.605 1.389 0.000
v -7.481 7.469 0.000
v 8.553 7.159 0.000
v 8.429 0.858 0.000
v 20.311 0.626 0.000
v 20.383 4.340 0.000
v 32.497 4.108 0.000
v 32.203 -10.295 0.000
v -33.206 -8.991 0.000
v -32.912 5.623 0.000
v -19.648 5.357 18.380
v -19.720 1.632 18.380
v -7.605 1.389 18.380
v -7.481 7.469 18.380
v 8.553 7.159 18.380
v 8.429 0.858 18.380
v 20.311 0.626 18.380
v 20.383 4.340 18.380
v 32.497 4.108 18.380
v 32.203 -10.295 18.380
v -33.206 -8.991 18.380
v -32.912 5.623 18.380
usemtl roof
f 20 21 22 23 24 25 26 27 28 29 30 31
usemtl teaching_building
f 19 18 17 16 15 14 13 12 11 10 9 8
f 8 9 21 20
f 9 10 22 21
f 10 11 23 22
f 11 12 24 23
f 12 13 25 24
f 13 14 26 25
f 14 15 27 26
f 15 16 28 27
f 16 17 29 28
f 17 18 30 29
f 18 19 31 30
f 19 8 20 31
