# school_id SD0544
# school_name 昌邑市下营镇九年一贯制学校
# boundary_source footprint_convex_hull_buffer_20m
# adjacent_block_merge_distance_m 2.0
mtllib ../campus_materials.mtl
o SD0544_campus_boundary
usemtl campus_boundary
v 55.149 -69.157 0.050
v -158.826 -58.556 0.050
v -159.328 -29.390 0.050
v -159.506 8.642 0.050
v -159.506 33.235 0.050
v 15.115 92.937 0.050
v 22.414 94.849 0.050
v 78.742 94.835 0.050
v 98.406 89.108 0.050
v 105.667 22.905 0.050
v 105.688 6.746 0.050
v 96.686 -69.098 0.050
v 55.149 -69.157 0.050
l 1 2 3 4 5 6 7 8 9 10 11 12 13 1
o SD0544_T001_1hao
v 20.892 60.687 0.000
v 28.861 60.687 0.000
v 28.861 57.216 0.000
v 72.146 57.227 0.000
v 72.146 60.334 0.000
v 79.982 60.334 0.000
v 79.982 73.643 0.000
v 75.886 73.643 0.000
v 75.886 74.836 0.000
v 24.988 74.848 0.000
v 24.988 73.775 0.000
v 20.892 73.775 0.000
v 20.892 60.687 14.780
v 28.861 60.687 14.780
v 28.861 57.216 14.780
v 72.146 57.227 14.780
v 72.146 60.334 14.780
v 79.982 60.334 14.780
v 79.982 73.643 14.780
v 75.886 73.643 14.780
v 75.886 74.836 14.780
v 24.988 74.848 14.780
v 24.988 73.775 14.780
v 20.892 73.775 14.780
usemtl roof
f 26 27 28 29 30 31 32 33 34 35 36 37
usemtl teaching_building
f 25 24 23 22 21 20 19 18 17 16 15 14
f 14 15 27 26
f 15 16 28 27
f 16 17 29 28
f 17 18 30 29
f 18 19 31 30
f 19 20 32 31
f 20 21 33 32
f 21 22 34 33
f 22 23 35 34
f 23 24 36 35
f 24 25 37 36
f 25 14 26 37
o SD0544_T002_2hao
v 30.940 32.455 0.000
v 29.154 32.433 0.000
v 29.501 2.190 0.000
v 31.580 2.212 0.000
v 31.624 -1.370 0.000
v 39.789 -1.370 0.000
v 39.789 -3.415 0.000
v 47.296 -3.404 0.000
v 47.296 -1.138 0.000
v 54.501 -1.127 0.000
v 54.501 -3.050 0.000
v 60.792 -3.039 0.000
v 60.792 -0.773 0.000
v 65.847 -0.762 0.000
v 65.811 35.473 0.000
v 60.143 35.473 0.000
v 60.143 37.142 0.000
v 46.968 35.926 0.000
v 46.968 37.474 0.000
v 38.421 37.474 0.000
v 38.430 36.037 0.000
v 30.896 36.026 0.000
v 30.940 32.455 7.060
v 29.154 32.433 7.060
v 29.501 2.190 7.060
v 31.580 2.212 7.060
v 31.624 -1.370 7.060
v 39.789 -1.370 7.060
v 39.789 -3.415 7.060
v 47.296 -3.404 7.060
v 47.296 -1.138 7.060
v 54.501 -1.127 7.060
v 54.501 -3.050 7.060
v 60.792 -3.039 7.060
v 60.792 -0.773 7.060
v 65.847 -0.762 7.060
v 65.811 35.473 7.060
v 60.143 35.473 7.060
v 60.143 37.142 7.060
v 46.968 35.926 7.060
v 46.968 37.474 7.060
v 38.421 37.474 7.060
v 38.430 36.037 7.060
v 30.896 36.026 7.060
usemtl roof
f 60 61 62 63 64 65 66 67 68 69 70 71 72 73 74 75 76 77 78 79 80 81
usemtl teaching_building
f 59 58 57 56 55 54 53 52 51 50 49 48 47 46 45 44 43 42 41 40 39 38
f 38 39 61 60
f 39 40 62 61
f 40 41 63 62
f 41 42 64 63
f 42 43 65 64
f 43 44 66 65
f 44 45 67 66
f 45 46 68 67
f 46 47 69 68
f 47 48 70 69
f 48 49 71 70
f 49 50 72 71
f 50 51 73 72
f 51 52 74 73
f 52 53 75 74
f 53 54 76 75
f 54 55 77 76
f 55 56 78 77
f 56 57 79 78
f 57 58 80 79
f 58 59 81 80
f 59 38 60 81
o SD0544_T003_3hao
v -73.193 -28.618 0.000
v -73.105 -38.920 0.000
v -139.151 -39.506 0.000
v -139.329 -29.171 0.000
v -126.758 -29.066 0.000
v -126.784 -24.395 0.000
v -135.100 -24.439 0.000
v -135.215 -2.962 0.000
v -125.664 -2.906 0.000
v -125.727 8.347 0.000
v -122.430 8.369 0.000
v -122.218 -29.028 0.000
v -73.193 -28.618 8.410
v -73.105 -38.920 8.410
v -139.151 -39.506 8.410
v -139.329 -29.171 8.410
v -126.758 -29.066 8.410
v -126.784 -24.395 8.410
v -135.100 -24.439 8.410
v -135.215 -2.962 8.410
v -125.664 -2.906 8.410
v -125.727 8.347 8.410
v -122.430 8.369 8.410
v -122.218 -29.028 8.410
usemtl roof
f 94 95 96 97 98 99 100 101 102 103 104 105
usemtl teaching_building
f 93 92 91 90 89 88 87 86 85 84 83 82
f 82 83 95 94
f 83 84 96 95
f 84 85 97 96
f 85 86 98 97
f 86 87 99 98
f 87 88 100 99
f 88 89 101 100
f 89 90 102 101
f 90 91 103 102
f 91 92 104 103
f 92 93 105 104
f 93 82 94 105
o SD0544_T003_3hao_seg02
v -73.105 18.936 0.000
v -73.105 8.700 0.000
v -139.506 8.689 0.000
v -139.506 18.936 0.000
v -73.105 18.936 8.410
v -73.105 8.700 8.410
v -139.506 8.689 8.410
v -139.506 18.936 8.410
usemtl roof
f 110 111 112 113
usemtl teaching_building
f 109 108 107 106
f 106 107 111 110
f 107 108 112 111
f 108 109 113 112
f 109 106 110 113
o SD0544_T004_4hao
v -57.406 -17.542 0.000
v -34.022 -17.542 0.000
v -34.022 -19.941 0.000
v -16.760 -19.941 0.000
v -16.760 -18.249 0.000
v 7.228 -18.249 0.000
v 7.228 -3.039 0.000
v -8.098 -1.956 0.000
v -8.098 -5.183 0.000
v -21.691 -5.183 0.000
v -21.691 0.089 0.000
v -29.198 0.089 0.000
v -29.198 -5.427 0.000
v -43.155 -5.416 0.000
v -43.147 -2.066 0.000
v -57.406 -3.260 0.000
v -57.406 -17.542 7.600
v -34.022 -17.542 7.600
v -34.022 -19.941 7.600
v -16.760 -19.941 7.600
v -16.760 -18.249 7.600
v 7.228 -18.249 7.600
v 7.228 -3.039 7.600
v -8.098 -1.956 7.600
v -8.098 -5.183 7.600
v -21.691 -5.183 7.600
v -21.691 0.089 7.600
v -29.198 0.089 7.600
v -29.198 -5.427 7.600
v -43.155 -5.416 7.600
v -43.147 -2.066 7.600
v -57.406 -3.260 7.600
usemtl roof
f 130 131 132 133 134 135 136 137 138 139 140 141 142 143 144 145
usemtl teaching_building
f 129 128 127 126 125 124 123 122 121 120 119 118 117 116 115 114
f 114 115 131 130
f 115 116 132 131
f 116 117 133 132
f 117 118 134 133
f 118 119 135 134
f 119 120 136 135
f 120 121 137 136
f 121 122 138 137
f 122 123 139 138
f 123 124 140 139
f 124 125 141 140
f 125 126 142 141
f 126 127 143 142
f 127 128 144 143
f 128 129 145 144
f 129 114 130 145
o SD0544_T005_5hao
v 27.493 -44.536 0.000
v 41.735 -44.514 0.000
v 41.744 -46.780 0.000
v 55.630 -46.758 0.000
v 55.630 -49.156 0.000
v 78.916 -49.123 0.000
v 78.898 -31.547 0.000
v 57.682 -31.591 0.000
v 57.762 -34.465 0.000
v 52.556 -34.609 0.000
v 52.547 -31.857 0.000
v 43.352 -31.879 0.000
v 43.352 -32.829 0.000
v 30.718 -32.852 0.000
v 30.718 -35.018 0.000
v 27.475 -35.018 0.000
v 27.493 -44.536 6.470
v 41.735 -44.514 6.470
v 41.744 -46.780 6.470
v 55.630 -46.758 6.470
v 55.630 -49.156 6.470
v 78.916 -49.123 6.470
v 78.898 -31.547 6.470
v 57.682 -31.591 6.470
v 57.762 -34.465 6.470
v 52.556 -34.609 6.470
v 52.547 -31.857 6.470
v 43.352 -31.879 6.470
v 43.352 -32.829 6.470
v 30.718 -32.852 6.470
v 30.718 -35.018 6.470
v 27.475 -35.018 6.470
usemtl roof
f 162 163 164 165 166 167 168 169 170 171 172 173 174 175 176 177
usemtl teaching_building
f 161 160 159 158 157 156 155 154 153 152 151 150 149 148 147 146
f 146 147 163 162
f 147 148 164 163
f 148 149 165 164
f 149 150 166 165
f 150 151 167 166
f 151 152 168 167
f 152 153 169 168
f 153 154 170 169
f 154 155 171 170
f 155 156 172 171
f 156 157 173 172
f 157 158 174 173
f 158 159 175 174
f 159 160 176 175
f 160 161 177 176
f 161 146 162 177
