# school_id SD0552
# school_name 昌邑市卜庄镇夏店学校
# boundary_source footprint_convex_hull_buffer_20m
# adjacent_block_merge_distance_m 2.0
mtllib ../campus_materials.mtl
o SD0552_campus_boundary
usemtl campus_boundary
v 16.916 -53.454 0.050
v -42.554 -44.779 0.050
v -15.787 68.933 0.050
v 41.049 55.590 0.050
v 16.916 -53.454 0.050
l 1 2 3 4 5 1
o SD0552_T001_1hao
v 1.406 -30.980 0.000
v 17.255 40.632 0.000
v -0.899 44.894 0.000
v -18.090 -28.136 0.000
v 1.406 -30.980 9.900
v 17.255 40.632 9.900
v -0.899 44.894 9.900
v -18.090 -28.136 9.900
usemtl roof
f 10 11 12 13
usemtl teaching_building
f 9 8 7 6
f 6 7 11 10
f 7 8 12 11
f 8 9 13 12
f 9 6 10 13
