# school_id SD0535
# school_name 山东省诸城实验中学(南校区)
# boundary_source footprint_convex_hull_buffer_20m
# adjacent_block_merge_distance_m 2.0
mtllib ../campus_materials.mtl
o SD0535_campus_boundary
usemtl campus_boundary
v -167.378 -140.489 0.050
v -173.619 -60.728 0.050
v -177.856 21.204 0.050
v -45.821 89.083 0.050
v 126.041 76.219 0.050
v 194.882 64.150 0.050
v 179.613 -6.938 0.050
v -51.855 -121.676 0.050
v -89.297 -135.071 0.050
v -167.378 -140.489 0.050
l 1 2 3 4 5 6 7 8 9 10 1
o SD0535_T001_1hao
v 34.163 36.957 0.000
v 37.296 55.691 0.000
v -41.691 68.718 0.000
v -44.832 50.002 0.000
v 34.163 36.957 9.900
v 37.296 55.691 9.900
v -41.691 68.718 9.900
v -44.832 50.002 9.900
usemtl roof
f 15 16 17 18
usemtl teaching_building
f 14 13 12 11
f 11 12 16 15
f 12 13 17 16
f 13 14 18 17
f 14 11 15 18
o SD0535_T002_2hao
v 113.663 29.053 0.000
v 116.057 44.109 0.000
v 107.879 45.388 0.000
v 106.867 39.051 0.000
v 94.069 41.052 0.000
v 95.270 48.566 0.000
v 76.514 51.494 0.000
v 75.600 45.768 0.000
v 63.889 47.602 0.000
v 65.030 54.792 0.000
v 53.719 56.553 0.000
v 50.917 38.893 0.000
v 113.663 29.053 9.900
v 116.057 44.109 9.900
v 107.879 45.388 9.900
v 106.867 39.051 9.900
v 94.069 41.052 9.900
v 95.270 48.566 9.900
v 76.514 51.494 9.900
v 75.600 45.768 9.900
v 63.889 47.602 9.900
v 65.030 54.792 9.900
v 53.719 56.553 9.900
v 50.917 38.893 9.900
usemtl roof
f 31 32 33 34 35 36 37 38 39 40 41 42
usemtl teaching_building
f 30 29 28 27 26 25 24 23 22 21 20 19
f 19 20 32 31
f 20 21 33 32
f 21 22 34 33
f 22 23 35 34
f 23 24 36 35
f 24 25 37 36
f 25 26 38 37
f 26 27 39 38
f 27 28 40 39
f 28 29 41 40
f 29 30 42 41
f 30 19 31 42
o SD0535_T003_3hao
v 162.085 6.696 0.000
v 170.965 48.038 0.000
v 123.562 56.349 0.000
v 115.166 13.979 0.000
v 162.085 6.696 9.900
v 170.965 48.038 9.900
v 123.562 56.349 9.900
v 115.166 13.979 9.900
usemtl roof
f 47 48 49 50
usemtl teaching_building
f 46 45 44 43
f 43 44 48 47
f 44 45 49 48
f 45 46 50 49
f 46 43 47 50
o SD0535_T004_4hao
v -156.226 -1.068 0.000
v -77.790 6.251 0.000
v -72.293 -51.843 0.000
v -153.659 -59.431 0.000
v -152.111 -75.775 0.000
v -62.334 -67.399 0.000
v -71.214 18.176 0.000
v -157.215 9.327 0.000
v -156.226 -1.068 9.900
v -77.790 6.251 9.900
v -72.293 -51.843 9.900
v -153.659 -59.431 9.900
v -152.111 -75.775 9.900
v -62.334 -67.399 9.900
v -71.214 18.176 9.900
v -157.215 9.327 9.900
usemtl roof
f 59 60 61 62 63 64 65 66
usemtl teaching_building
f 58 57 56 55 54 53 52 51
f 51 52 60 59
f 52 53 61 60
f 53 54 62 61
f 54 55 63 62
f 55 56 64 63
f 56 57 65 64
f 57 58 66 65
f 58 51 59 66
o SD0535_T005_5hao
v -148.985 -119.165 0.000
v -93.435 -115.310 0.000
v -94.122 -105.628 0.000
v -59.691 -103.238 0.000
v -61.262 -81.028 0.000
v -151.227 -87.292 0.000
v -148.985 -119.165 9.900
v -93.435 -115.310 9.900
v -94.122 -105.628 9.900
v -59.691 -103.238 9.900
v -61.262 -81.028 9.900
v -151.227 -87.292 9.900
usemtl roof
f 73 74 75 76 77 78
usemtl teaching_building
f 72 71 70 69 68 67
f 67 68 74 73
f 68 69 75 74
f 69 70 76 75
f 70 71 77 76
f 71 72 78 77
f 72 67 73 78
