# school_id SD0539
# school_name 文山中学
# boundary_source footprint_convex_hull_buffer_20m
# adjacent_block_merge_distance_m 2.0
mtllib ../campus_materials.mtl
o SD0539_campus_boundary
usemtl campus_boundary
v -14.222 -31.419 0.050
v -21.698 -30.257 0.050
v -49.858 -14.655 0.050
v -48.954 30.048 0.050
v -5.346 29.396 0.050
v 17.236 27.346 0.050
v 21.655 25.793 0.050
v 51.091 12.854 0.050
v 49.997 -29.428 0.050
v -14.222 -31.419 0.050
l 1 2 3 4 5 6 7 8 9 10 1
o SD0539_T001_1hao
v -6.401 9.410 0.000
v -6.454 7.155 0.000
v 10.731 6.691 0.000
v 12.950 7.653 0.000
v 14.304 7.177 0.000
v 14.856 5.707 0.000
v 14.714 0.368 0.000
v 30.750 -0.052 0.000
v 30.492 -10.023 0.000
v -11.631 -8.917 0.000
v -11.675 -10.553 0.000
v -12.985 -11.371 0.000
v -15.114 -11.040 0.000
v -16.264 -9.746 0.000
v -16.130 -3.280 0.000
v -29.618 -3.004 0.000
v -29.360 9.753 0.000
v -6.401 9.410 11.160
v -6.454 7.155 11.160
v 10.731 6.691 11.160
v 12.950 7.653 11.160
v 14.304 7.177 11.160
v 14.856 5.707 11.160
v 14.714 0.368 11.160
v 30.750 -0.052 11.160
v 30.492 -10.023 11.160
v -11.631 -8.917 11.160
v -11.675 -10.553 11.160
v -12.985 -11.371 11.160
v -15.114 -11.040 11.160
v -16.264 -9.746 11.160
v -16.130 -3.280 11.160
v -29.618 -3.004 11.160
v -29.360 9.753 11.160
usemtl roof
f 28 29 30 31 32 33 34 35 36 37 38 39 40 41 42 43 44
usemtl teaching_building
f 27 26 25 24 23 22 21 20 19 18 17 16 15 14 13 12 11
f 11 12 29 28
f 12 13 30 29
f 13 14 31 30
f 14 15 32 31
f 15 16 33 32
f 16 17 34 33
f 17 18 35 34
f 18 19 36 35
f 19 20 37 36
f 20 21 38 37
f 21 22 39 38
f 22 23 40 39
f 23 24 41 40
f 24 25 42 41
f 25 26 43 42
f 26 27 44 43
f 27 11 28 44
