# school_id SD0588
# school_name 潍坊一中
# boundary_source footprint_convex_hull_buffer_20m
# adjacent_block_merge_distance_m 2.0
mtllib ../campus_materials.mtl
o SD0588_campus_boundary
usemtl campus_boundary
v -133.610 -383.917 0.050
v -150.367 -356.650 0.050
v -153.599 -289.173 0.050
v -41.042 153.295 0.050
v -19.102 163.705 0.050
v 36.616 169.021 0.050
v 51.868 169.021 0.050
v 98.758 131.274 0.050
v 94.494 83.618 0.050
v -42.612 -383.708 0.050
v -133.610 -383.917 0.050
l 1 2 3 4 5 6 7 8 9 10 11 1
o SD0588_T001_1hao
v -9.237 117.083 0.000
v 32.307 112.200 0.000
v 56.439 112.200 0.000
v 57.778 100.665 0.000
v 50.183 93.132 0.000
v 51.523 84.256 0.000
v 61.796 77.594 0.000
v 70.289 80.707 0.000
v 74.749 87.360 0.000
v 72.519 95.337 0.000
v 70.289 99.785 0.000
v 72.968 110.431 0.000
v 76.537 114.415 0.000
v 77.884 122.402 0.000
v 44.818 149.021 0.000
v 37.568 149.021 0.000
v 37.231 142.804 0.000
v -13.704 144.129 0.000
v -23.977 139.255 0.000
v -20.850 126.386 0.000
v -25.758 120.632 0.000
v -9.237 117.083 6.600
v 32.307 112.200 6.600
v 56.439 112.200 6.600
v 57.778 100.665 6.600
v 50.183 93.132 6.600
v 51.523 84.256 6.600
v 61.796 77.594 6.600
v 70.289 80.707 6.600
v 74.749 87.360 6.600
v 72.519 95.337 6.600
v 70.289 99.785 6.600
v 72.968 110.431 6.600
v 76.537 114.415 6.600
v 77.884 122.402 6.600
v 44.818 149.021 6.600
v 37.568 149.021 6.600
v 37.231 142.804 6.600
v -13.704 144.129 6.600
v -23.977 139.255 6.600
v -20.850 126.386 6.600
v -25.758 120.632 6.600
usemtl roof
f 33 34 35 36 37 38 39 40 41 42 43 44 45 46 47 48 49 50 51 52 53
usemtl teaching_building
f 32 31 30 29 28 27 26 25 24 23 22 21 20 19 18 17 16 15 14 13 12
f 12 13 34 33
f 13 14 35 34
f 14 15 36 35
f 15 16 37 36
f 16 17 38 37
f 17 18 39 38
f 18 19 40 39
f 19 20 41 40
f 20 21 42 41
f 21 22 43 42
f 22 23 44 43
f 23 24 45 44
f 24 25 46 45
f 25 26 47 46
f 26 27 48 47
f 27 28 49 48
f 28 29 50 49
f 29 30 51 50
f 30 31 52 51
f 31 32 53 52
f 32 12 33 53
o SD0588_T002_2hao
v -130.636 -350.558 0.000
v -122.442 -350.521 0.000
v -122.442 -363.891 0.000
v -57.597 -363.742 0.000
v -56.175 -240.346 0.000
v -119.726 -241.764 0.000
v -119.726 -291.204 0.000
v -133.479 -291.204 0.000
v -130.636 -350.558 6.600
v -122.442 -350.521 6.600
v -122.442 -363.891 6.600
v -57.597 -363.742 6.600
v -56.175 -240.346 6.600
v -119.726 -241.764 6.600
v -119.726 -291.204 6.600
v -133.479 -291.204 6.600
usemtl roof
f 62 63 64 65 66 67 68 69
usemtl teaching_building
f 61 60 59 58 57 56 55 54
f 54 55 63 62
f 55 56 64 63
f 56 57 65 64
f 57 58 66 65
f 58 59 67 66
f 59 60 68 67
f 60 61 69 68
f 61 54 62 69
