# school_id SD0543
# school_name 昌乐县高崖水库库区小学
# boundary_source footprint_convex_hull_buffer_20m
# adjacent_block_merge_distance_m 2.0
mtllib ../campus_materials.mtl
o SD0543_campus_boundary
usemtl campus_boundary
v 2.549 -69.816 0.050
v -9.063 -68.843 0.050
v -56.124 -58.192 0.050
v -50.317 10.423 0.050
v -49.575 17.524 0.050
v -24.893 87.211 0.050
v 64.461 78.838 0.050
v 60.594 38.100 0.050
v 55.586 -9.086 0.050
v 48.786 -67.229 0.050
v 2.549 -69.816 0.050
l 1 2 3 4 5 6 7 8 9 10 11 1
o SD0543_T001_1hao
v -13.807 38.596 0.000
v 8.960 36.706 0.000
v 9.561 43.018 0.000
v 40.694 40.100 0.000
v 42.658 60.793 0.000
v -11.243 65.844 0.000
v -13.807 38.596 10.500
v 8.960 36.706 10.500
v 9.561 43.018 10.500
v 40.694 40.100 10.500
v 42.658 60.793 10.500
v -11.243 65.844 10.500
usemtl roof
f 18 19 20 21 22 23
usemtl teaching_building
f 17 16 15 14 13 12
f 12 13 19 18
f 13 14 20 19
f 14 15 21 20
f 15 16 22 21
f 16 17 23 22
f 17 12 18 23
o SD0543_T002_2hao
v -28.639 12.951 0.000
v -29.930 13.084 0.000
v -30.405 8.540 0.000
v -29.132 8.408 0.000
v -30.002 0.128 0.000
v 0.522 -3.044 0.000
v 0.325 -4.934 0.000
v 7.274 -5.653 0.000
v 7.445 -3.962 0.000
v 35.709 -6.869 0.000
v 37.457 9.900 0.000
v 13.874 12.321 0.000
v 13.497 8.662 0.000
v -7.611 10.840 0.000
v -7.118 15.571 0.000
v -28.137 17.726 0.000
v -28.639 12.951 10.630
v -29.930 13.084 10.630
v -30.405 8.540 10.630
v -29.132 8.408 10.630
v -30.002 0.128 10.630
v 0.522 -3.044 10.630
v 0.325 -4.934 10.630
v 7.274 -5.653 10.630
v 7.445 -3.962 10.630
v 35.709 -6.869 10.630
v 37.457 9.900 10.630
v 13.874 12.321 10.630
v 13.497 8.662 10.630
v -7.611 10.840 10.630
v -7.118 15.571 10.630
v -28.137 17.726 10.630
usemtl roof
f 40 41 42 43 44 45 46 47 48 49 50 51 52 53 54 55
usemtl teaching_building
f 39 38 37 36 35 34 33 32 31 30 29 28 27 26 25 24
f 24 25 41 40
f 25 26 42 41
f 26 27 43 42
f 27 28 44 43
f 28 29 45 44
f 29 30 46 45
f 30 31 47 46
f 31 32 48 47
f 32 33 49 48
f 33 34 50 49
f 34 35 51 50
f 35 36 52 51
f 36 37 53 52
f 37 38 54 53
f 38 39 55 54
f 39 24 40 55
o SD0543_T003_3hao
v -34.727 -42.529 0.000
v -5.647 -45.281 0.000
v -6.006 -49.029 0.000
v 2.827 -49.769 0.000
v 3.167 -46.177 0.000
v 30.875 -48.200 0.000
v 32.723 -30.193 0.000
v 17.506 -28.756 0.000
v 17.721 -26.589 0.000
v -32.737 -21.803 0.000
v -34.727 -42.529 10.750
v -5.647 -45.281 10.750
v -6.006 -49.029 10.750
v 2.827 -49.769 10.750
v 3.167 -46.177 10.750
v 30.875 -48.200 10.750
v 32.723 -30.193 10.750
v 17.506 -28.756 10.750
v 17.721 -26.589 10.750
v -32.737 -21.803 10.750
usemtl roof
f 66 67 68 69 70 71 72 73 74 75
usemtl teaching_building
f 65 64 63 62 61 60 59 58 57 56
f 56 57 67 66
f 57 58 68 67
f 58 59 69 68
f 59 60 70 69
f 60 61 71 70
f 61 62 72 71
f 62 63 73 72
f 63 64 74 73
f 64 65 75 74
f 65 56 66 75
