# school_id SD0586
# school_name 洛城街道中心小学
# boundary_source footprint_convex_hull_buffer_20m
# adjacent_block_merge_distance_m 2.0
mtllib ../campus_materials.mtl
o SD0586_campus_boundary
usemtl campus_boundary
v -52.978 -89.449 0.050
v -55.129 72.217 0.050
v 83.840 74.233 0.050
v 84.535 26.506 0.050
v 15.643 -88.719 0.050
v -52.978 -89.449 0.050
l 1 2 3 4 5 6 1
o SD0586_T001_1hao
v -34.536 30.458 0.000
v 64.454 31.894 0.000
v 64.133 53.945 0.000
v -34.865 52.509 0.000
v -34.536 30.458 9.900
v 64.454 31.894 9.900
v 64.133 53.945 9.900
v -34.865 52.509 9.900
usemtl roof
f 11 12 13 14
usemtl teaching_building
f 10 9 8 7
f 7 8 12 11
f 8 9 13 12
f 9 10 14 13
f 10 7 11 14
o SD0586_T002_2hao
v -33.245 -69.238 0.000
v 4.227 -68.839 0.000
v 3.652 -15.165 0.000
v -33.820 -15.563 0.000
v -33.245 -69.238 9.900
v 4.227 -68.839 9.900
v 3.652 -15.165 9.900
v -33.820 -15.563 9.900
usemtl roof
f 19 20 21 22
usemtl teaching_building
f 18 17 16 15
f 15 16 20 19
f 16 17 21 20
f 17 18 22 21
f 18 15 19 22
