# school_id SD0556
# school_name 昌邑市围子街道密城小学
# boundary_source footprint_convex_hull_buffer_20m
# adjacent_block_merge_distance_m 2.0
mtllib ../campus_materials.mtl
o SD0556_campus_boundary
usemtl campus_boundary
v -74.310 -62.462 0.050
v -75.466 -35.331 0.050
v -76.499 -10.510 0.050
v -77.270 29.125 0.050
v -19.010 46.479 0.050
v 15.015 47.848 0.050
v 75.051 37.918 0.050
v 78.427 -3.028 0.050
v 78.770 -11.270 0.050
v 77.693 -56.280 0.050
v 31.675 -58.170 0.050
v -74.310 -62.462 0.050
l 1 2 3 4 5 6 7 8 9 10 11 12 1
o SD0556_T001_1hao
v -15.127 14.329 0.000
v -10.489 14.570 0.000
v -10.265 10.428 0.000
v 14.623 11.726 0.000
v 13.772 27.782 0.000
v 7.139 27.440 0.000
v 7.251 25.253 0.000
v 5.742 25.170 0.000
v 5.795 24.289 0.000
v -6.492 23.632 0.000
v -6.560 24.827 0.000
v -7.695 24.762 0.000
v -7.732 26.596 0.000
v -15.702 26.596 0.000
v -15.127 14.329 9.900
v -10.489 14.570 9.900
v -10.265 10.428 9.900
v 14.623 11.726 9.900
v 13.772 27.782 9.900
v 7.139 27.440 9.900
v 7.251 25.253 9.900
v 5.742 25.170 9.900
v 5.795 24.289 9.900
v -6.492 23.632 9.900
v -6.560 24.827 9.900
v -7.695 24.762 9.900
v -7.732 26.596 9.900
v -15.702 26.596 9.900
usemtl roof
f 27 28 29 30 31 32 33 34 35 36 37 38 39 40
usemtl teaching_building
f 26 25 24 23 22 21 20 19 18 17 16 15 14 13
f 13 14 28 27
f 14 15 29 28
f 15 16 30 29
f 16 17 31 30
f 17 18 32 31
f 18 19 33 32
f 19 20 34 33
f 20 21 35 34
f 21 22 36 35
f 22 23 37 36
f 23 24 38 37
f 24 25 39 38
f 25 26 40 39
f 26 13 27 40
o SD0556_T002_2hao
v -14.066 -16.302 0.000
v 17.910 -15.227 0.000
v 17.649 -7.259 0.000
v -14.343 -8.343 0.000
v -14.066 -16.302 9.900
v 17.910 -15.227 9.900
v 17.649 -7.259 9.900
v -14.343 -8.343 9.900
usemtl roof
f 45 46 47 48
usemtl teaching_building
f 44 43 42 41
f 41 42 46 45
f 42 43 47 46
f 43 44 48 47
f 44 41 45 48
