# school_id SD0515
# school_name 临朐县海岳中学
# boundary_source footprint_convex_hull_buffer_20m
# adjacent_block_merge_distance_m 2.0
mtllib ../campus_materials.mtl
o SD0515_campus_boundary
usemtl campus_boundary
v 55.068 -128.673 0.050
v -22.623 -127.442 0.050
v -63.364 -11.784 0.050
v -45.664 175.707 0.050
v -2.067 154.083 0.050
v 71.127 68.249 0.050
v 55.068 -128.673 0.050
l 1 2 3 4 5 6 7 1
o SD0515_T001_1hao
v 4.433 -18.912 0.000
v 2.183 -41.974 0.000
v -0.765 -52.638 0.000
v -6.998 -65.712 0.000
v -8.385 -107.665 0.000
v 36.657 -108.379 0.000
v 35.959 -71.215 0.000
v 50.518 61.594 0.000
v -20.859 72.620 0.000
v -14.626 137.987 0.000
v -28.487 144.862 0.000
v -36.851 56.248 0.000
v -43.039 -9.286 0.000
v 4.433 -18.912 9.900
v 2.183 -41.974 9.900
v -0.765 -52.638 9.900
v -6.998 -65.712 9.900
v -8.385 -107.665 9.900
v 36.657 -108.379 9.900
v 35.959 -71.215 9.900
v 50.518 61.594 9.900
v -20.859 72.620 9.900
v -14.626 137.987 9.900
v -28.487 144.862 9.900
v -36.851 56.248 9.900
v -43.039 -9.286 9.900
usemtl roof
f 21 22 23 24 25 26 27 28 29 30 31 32 33
usemtl teaching_building
f 20 19 18 17 16 15 14 13 12 11 10 9 8
f 8 9 22 21
f 9 10 23 22
f 10 11 24 23
f 11 12 25 24
f 12 13 26 25
f 13 14 27 26
f 14 15 28 27
f 15 16 29 28
f 16 17 30 29
f 17 18 31 30
f 18 19 32 31
f 19 20 33 32
f 20 8 21 33
