# school_id SD0527
# school_name 寿光中学-南区
# boundary_source footprint_convex_hull_buffer_20m
# adjacent_block_merge_distance_m 2.0
mtllib ../campus_materials.mtl
o SD0527_campus_boundary
usemtl campus_boundary
v -128.386 -58.400 0.050
v -131.125 32.933 0.050
v -41.304 57.946 0.050
v 39.690 59.377 0.050
v 130.476 38.409 0.050
v 128.835 -54.840 0.050
v -128.386 -58.400 0.050
l 1 2 3 4 5 6 7 1
o SD0527_T001_1hao
v 38.943 23.244 0.000
v 37.585 39.337 0.000
v -38.398 37.994 0.000
v -38.398 20.890 0.000
v 38.943 23.244 9.900
v 37.585 39.337 9.900
v -38.398 37.994 9.900
v -38.398 20.890 9.900
usemtl roof
f 12 13 14 15
usemtl teaching_building
f 11 10 9 8
f 8 9 13 12
f 9 10 14 13
f 10 11 15 14
f 11 8 12 15
o SD0527_T002_2hao
v 60.890 9.827 0.000
v 99.724 9.494 0.000
v 98.717 -20.350 0.000
v 60.890 -20.026 0.000
v 61.905 -34.776 0.000
v 109.179 -35.110 0.000
v 110.194 22.567 0.000
v 60.211 21.567 0.000
v 60.890 9.827 9.900
v 99.724 9.494 9.900
v 98.717 -20.350 9.900
v 60.890 -20.026 9.900
v 61.905 -34.776 9.900
v 109.179 -35.110 9.900
v 110.194 22.567 9.900
v 60.211 21.567 9.900
usemtl roof
f 24 25 26 27 28 29 30 31
usemtl teaching_building
f 23 22 21 20 19 18 17 16
f 16 17 25 24
f 17 18 26 25
f 18 19 27 26
f 19 20 28 27
f 20 21 29 28
f 21 22 30 29
f 22 23 31 30
f 23 16 24 31
o SD0527_T003_3hao
v -108.985 -38.130 0.000
v -61.696 -36.787 0.000
v -62.711 -24.047 0.000
v -97.836 -25.047 0.000
v -98.515 6.807 0.000
v -60.352 7.140 0.000
v -60.681 17.536 0.000
v -110.664 17.870 0.000
v -108.985 -38.130 9.900
v -61.696 -36.787 9.900
v -62.711 -24.047 9.900
v -97.836 -25.047 9.900
v -98.515 6.807 9.900
v -60.352 7.140 9.900
v -60.681 17.536 9.900
v -110.664 17.870 9.900
usemtl roof
f 40 41 42 43 44 45 46 47
usemtl teaching_building
f 39 38 37 36 35 34 33 32
f 32 33 41 40
f 33 34 42 41
f 34 35 43 42
f 35 36 44 43
f 36 37 45 44
f 37 38 46 45
f 38 39 47 46
f 39 32 40 47
