# school_id SD0551
# school_name 昌邑市卜庄镇侨乡学区小学
# boundary_source footprint_convex_hull_buffer_20m
# adjacent_block_merge_distance_m 2.0
mtllib ../campus_materials.mtl
o SD0551_campus_boundary
usemtl campus_boundary
v -28.270 -24.764 0.050
v -50.049 -17.611 0.050
v -51.091 31.695 0.050
v 48.388 33.760 0.050
v 49.759 -13.802 0.050
v 29.662 -23.564 0.050
v -28.270 -24.764 0.050
l 1 2 3 4 5 6 7 1
o SD0551_T001_1hao
v 28.968 13.353 0.000
v 29.395 -1.459 0.000
v 24.822 -1.437 0.000
v 24.866 -3.659 0.000
v -25.272 -4.698 0.000
v -25.308 -2.918 0.000
v -30.353 -3.029 0.000
v -30.673 12.115 0.000
v 28.968 13.353 9.240
v 29.395 -1.459 9.240
v 24.822 -1.437 9.240
v 24.866 -3.659 9.240
v -25.272 -4.698 9.240
v -25.308 -2.918 9.240
v -30.353 -3.029 9.240
v -30.673 12.115 9.240
usemtl roof
f 16 17 18 19 20 21 22 23
usemtl teaching_building
f 15 14 13 12 11 10 9 8
f 8 9 17 16
f 9 10 18 17
f 10 11 19 18
f 11 12 20 19
f 12 13 21 20
f 13 14 22 21
f 14 15 23 22
f 15 8 16 23
