# school_id SD0570
# school_name 昌邑市民兵训练基地
# boundary_source footprint_convex_hull_buffer_20m
# adjacent_block_merge_distance_m 2.0
mtllib ../campus_materials.mtl
o SD0570_campus_boundary
usemtl campus_boundary
v 136.051 -64.437 0.050
v 108.795 -64.022 0.050
v -134.929 -55.817 0.050
v -159.354 -48.125 0.050
v -159.578 8.829 0.050
v 11.217 136.420 0.050
v 75.299 139.677 0.050
v 139.965 140.381 0.050
v 140.389 102.850 0.050
v 136.051 -64.437 0.050
l 1 2 3 4 5 6 7 8 9 10 1
o SD0570_T001_1hao
v 76.102 102.505 0.000
v 120.386 102.996 0.000
v 120.192 120.165 0.000
v 75.916 119.683 0.000
v 76.102 102.505 9.900
v 120.386 102.996 9.900
v 120.192 120.165 9.900
v 75.916 119.683 9.900
usemtl roof
f 15 16 17 18
usemtl teaching_building
f 14 13 12 11
f 11 12 16 15
f 12 13 17 16
f 13 14 18 17
f 14 11 15 18
o SD0570_T002_2hao
v 18.513 99.586 0.000
v 62.789 100.077 0.000
v 62.603 117.227 0.000
v 18.311 116.755 0.000
v 18.513 99.586 9.900
v 62.789 100.077 9.900
v 62.603 117.227 9.900
v 18.311 116.755 9.900
usemtl roof
f 23 24 25 26
usemtl teaching_building
f 22 21 20 19
f 19 20 24 23
f 20 21 25 24
f 21 22 26 25
f 22 19 23 26
o SD0570_T003_3hao
v -139.412 -33.437 0.000
v -134.753 -33.205 0.000
v -134.633 -34.511 0.000
v -131.527 -34.511 0.000
v -131.527 -35.920 0.000
v -123.172 -35.920 0.000
v -123.172 -33.437 0.000
v -77.768 -33.084 0.000
v -77.895 -35.920 0.000
v -72.990 -36.040 0.000
v -72.878 -33.084 0.000
v -32.969 -32.603 0.000
v -32.857 -35.688 0.000
v -27.951 -35.568 0.000
v -27.951 -32.482 0.000
v -18.514 -32.482 0.000
v -18.394 -35.456 0.000
v -10.271 -35.336 0.000
v -10.271 -32.482 0.000
v -1.438 -32.482 0.000
v -1.677 -0.109 0.000
v -10.629 -0.220 0.000
v -10.629 2.745 0.000
v -18.753 2.624 0.000
v -18.753 -0.220 0.000
v -123.531 -1.165 0.000
v -123.404 2.041 0.000
v -131.527 1.920 0.000
v -131.654 -1.165 0.000
v -139.539 -1.165 0.000
v -139.412 -33.437 9.900
v -134.753 -33.205 9.900
v -134.633 -34.511 9.900
v -131.527 -34.511 9.900
v -131.527 -35.920 9.900
v -123.172 -35.920 9.900
v -123.172 -33.437 9.900
v -77.768 -33.084 9.900
v -77.895 -35.920 9.900
v -72.990 -36.040 9.900
v -72.878 -33.084 9.900
v -32.969 -32.603 9.900
v -32.857 -35.688 9.900
v -27.951 -35.568 9.900
v -27.951 -32.482 9.900
v -18.514 -32.482 9.900
v -18.394 -35.456 9.900
v -10.271 -35.336 9.900
v -10.271 -32.482 9.900
v -1.438 -32.482 9.900
v -1.677 -0.109 9.900
v -10.629 -0.220 9.900
v -10.629 2.745 9.900
v -18.753 2.624 9.900
v -18.753 -0.220 9.900
v -123.531 -1.165 9.900
v -123.404 2.041 9.900
v -131.527 1.920 9.900
v -131.654 -1.165 9.900
v -139.539 -1.165 9.900
usemtl roof
f 57 58 59 60 61 62 63 64 65 66 67 68 69 70 71 72 73 74 75 76 77 78 79 80 81 82 83 84 85 86
usemtl teaching_building
f 56 55 54 53 52 51 50 49 48 47 46 45 44 43 42 41 40 39 38 37 36 35 34 33 32 31 30 29 28 27
f 27 28 58 57
f 28 29 59 58
f 29 30 60 59
f 30 31 61 60
f 31 32 62 61
f 32 33 63 62
f 33 34 64 63
f 34 35 65 64
f 35 36 66 65
f 36 37 67 66
f 37 38 68 67
f 38 39 69 68
f 39 40 70 69
f 40 41 71 70
f 41 42 72 71
f 42 43 73 72
f 43 44 74 73
f 44 45 75 74
f 45 46 76 75
f 46 47 77 76
f 47 48 78 77
f 48 49 79 78
f 49 50 80 79
f 50 51 81 80
f 51 52 82 81
f 52 53 83 82
f 53 54 84 83
f 54 55 85 84
f 55 56 86 85
f 56 27 57 86
