# school_id SD0514
# school_name 东坝小学
# boundary_source footprint_convex_hull_buffer_20m
# adjacent_block_merge_distance_m 2.0
mtllib ../campus_materials.mtl
o SD0514_campus_boundary
usemtl campus_boundary
v 38.374 -30.952 0.050
v -38.967 -30.223 0.050
v -38.383 30.962 0.050
v 38.977 30.212 0.050
v 38.374 -30.952 0.050
l 1 2 3 4 5 1
o SD0514_T001_1hao
v 18.572 -10.764 0.000
v 18.781 10.407 0.000
v -18.575 10.769 0.000
v -18.777 -10.412 0.000
v 18.572 -10.764 9.900
v 18.781 10.407 9.900
v -18.575 10.769 9.900
v -18.777 -10.412 9.900
usemtl roof
f 10 11 12 13
usemtl teaching_building
f 9 8 7 6
f 6 7 11 10
f 7 8 12 11
f 8 9 13 12
f 9 6 10 13
