# school_id SD0550
# school_name 昌邑市北孟镇高阳小学
# boundary_source footprint_convex_hull_buffer_20m
# adjacent_block_merge_distance_m 2.0
mtllib ../campus_materials.mtl
o SD0550_campus_boundary
usemtl campus_boundary
v -60.539 -88.840 0.050
v -60.944 -59.466 0.050
v -61.636 66.811 0.050
v -61.691 77.135 0.050
v -59.350 119.147 0.050
v -6.155 119.460 0.050
v 67.344 33.444 0.050
v 69.409 4.781 0.050
v 69.803 -18.005 0.050
v 69.876 -27.561 0.050
v 67.928 -58.107 0.050
v 32.607 -87.156 0.050
v 10.953 -87.553 0.050
v -60.539 -88.840 0.050
l 1 2 3 4 5 6 7 8 9 10 11 12 13 14 1
o SD0550_T001_1hao
v -40.375 89.547 0.000
v -15.273 89.677 0.000
v -15.326 99.406 0.000
v -40.427 99.258 0.000
v -40.375 89.547 9.220
v -15.273 89.677 9.220
v -15.326 99.406 9.220
v -40.427 99.258 9.220
usemtl roof
f 19 20 21 22
usemtl teaching_building
f 18 17 16 15
f 15 16 20 19
f 16 17 21 20
f 17 18 22 21
f 18 15 19 22
o SD0550_T002_2hao
v -4.602 17.241 0.000
v 20.507 17.389 0.000
v 20.447 27.099 0.000
v -4.655 26.960 0.000
v -4.602 17.241 9.900
v 20.507 17.389 9.900
v 20.447 27.099 9.900
v -4.655 26.960 9.900
usemtl roof
f 27 28 29 30
usemtl teaching_building
f 26 25 24 23
f 23 24 28 27
f 24 25 29 28
f 25 26 30 29
f 26 23 27 30
o SD0550_T003_3hao
v -4.212 -5.478 0.000
v 20.897 -5.339 0.000
v 20.845 4.390 0.000
v -4.272 4.241 0.000
v -4.212 -5.478 9.900
v 20.897 -5.339 9.900
v 20.845 4.390 9.900
v -4.272 4.241 9.900
usemtl roof
f 35 36 37 38
usemtl teaching_building
f 34 33 32 31
f 31 32 36 35
f 32 33 37 36
f 33 34 38 37
f 34 31 35 38
o SD0550_T004_4hao
v -4.797 -27.428 0.000
v 20.320 -27.289 0.000
v 20.260 -17.569 0.000
v -4.850 -17.708 0.000
v -4.797 -27.428 9.900
v 20.320 -27.289 9.900
v 20.260 -17.569 9.900
v -4.850 -17.708 9.900
usemtl roof
f 43 44 45 46
usemtl teaching_building
f 42 41 40 39
f 39 40 44 43
f 40 41 45 44
f 41 42 46 45
f 42 39 43 46
o SD0550_T005_5hao
v -40.818 -68.482 0.000
v 3.323 -67.686 0.000
v 3.795 -58.624 0.000
v -40.945 -59.273 0.000
v -40.818 -68.482 9.900
v 3.323 -67.686 9.900
v 3.795 -58.624 9.900
v -40.945 -59.273 9.900
usemtl roof
f 51 52 53 54
usemtl teaching_building
f 50 49 48 47
f 47 48 52 51
f 48 49 53 52
f 49 50 54 53
f 50 47 51 54
