# school_id SD0529
# school_name 寿光市建桥学校
# boundary_source footprint_convex_hull_buffer_20m
# adjacent_block_merge_distance_m 2.0
mtllib ../campus_materials.mtl
o SD0529_campus_boundary
usemtl campus_boundary
v 12.154 -59.745 0.050
v -8.151 -59.509 0.050
v -26.468 -53.069 0.050
v -41.776 -41.257 0.050
v -52.569 -25.223 0.050
v -57.741 -6.585 0.050
v -56.729 12.712 0.050
v -49.668 30.717 0.050
v -37.252 45.546 0.050
v -20.750 55.763 0.050
v -0.954 60.338 0.050
v 19.315 58.115 0.050
v 37.739 49.328 0.050
v 52.185 34.930 0.050
v 61.041 16.585 0.050
v 63.269 -3.683 0.050
v 58.599 -23.535 0.050
v 47.579 -40.703 0.050
v 31.491 -53.229 0.050
v 12.154 -59.745 0.050
l 1 2 3 4 5 6 7 8 9 10 11 12 13 14 15 16 17 18 19 20 1
o SD0529_T001_1hao
v -34.165 -16.747 0.000
v -26.993 -27.402 0.000
v -16.798 -35.269 0.000
v -4.625 -39.549 0.000
v 8.988 -39.707 0.000
v 21.885 -35.361 0.000
v 32.595 -27.022 0.000
v 39.916 -15.617 0.000
v 43.013 -2.451 0.000
v 41.536 10.984 0.000
v 35.654 23.168 0.000
v 26.042 32.748 0.000
v 13.765 38.604 0.000
v 0.241 40.087 0.000
v -13.029 37.020 0.000
v -23.985 30.237 0.000
v -32.239 20.379 0.000
v -36.926 8.427 0.000
v -37.598 -4.378 0.000
v -34.165 -16.747 9.900
v -26.993 -27.402 9.900
v -16.798 -35.269 9.900
v -4.625 -39.549 9.900
v 8.988 -39.707 9.900
v 21.885 -35.361 9.900
v 32.595 -27.022 9.900
v 39.916 -15.617 9.900
v 43.013 -2.451 9.900
v 41.536 10.984 9.900
v 35.654 23.168 9.900
v 26.042 32.748 9.900
v 13.765 38.604 9.900
v 0.241 40.087 9.900
v -13.029 37.020 9.900
v -23.985 30.237 9.900
v -32.239 20.379 9.900
v -36.926 8.427 9.900
v -37.598 -4.378 9.900
usemtl roof
f 40 41 42 43 44 45 46 47 48 49 50 51 52 53 54 55 56 57 58
usemtl teaching_building
f 39 38 37 36 35 34 33 32 31 30 29 28 27 26 25 24 23 22 21
f 21 22 41 40
f 22 23 42 41
f 23 24 43 42
f 24 25 44 43
f 25 26 45 44
f 26 27 46 45
f 27 28 47 46
f 28 29 48 47
f 29 30 49 48
f 30 31 50 49
f 31 32 51 50
f 32 33 52 51
f 33 34 53 52
f 34 35 54 53
f 35 36 55 54
f 36 37 56 55
f 37 38 57 56
f 38 39 58 57
f 39 21 40 58
