# school_id SD0576
# school_name 昌邑市育秀学校
# boundary_source footprint_convex_hull_buffer_20m
# adjacent_block_merge_distance_m 2.0
mtllib ../campus_materials.mtl
o SD0576_campus_boundary
usemtl campus_boundary
v 58.381 -136.801 0.050
v -0.323 -133.808 0.050
v -104.669 -123.299 0.050
v -98.688 23.498 0.050
v -94.622 117.064 0.050
v -21.849 123.976 0.050
v -13.103 123.581 0.050
v 65.234 118.891 0.050
v 98.332 54.938 0.050
v 93.303 -53.137 0.050
v 58.381 -136.801 0.050
l 1 2 3 4 5 6 7 8 9 10 11 1
o SD0576_T001_1hao
v -19.544 7.490 0.000
v -19.111 18.219 0.000
v -16.572 18.117 0.000
v -15.347 48.072 0.000
v -17.543 48.164 0.000
v -17.214 56.198 0.000
v -14.369 56.086 0.000
v -13.151 86.078 0.000
v -16.676 86.217 0.000
v -16.258 96.418 0.000
v -75.397 98.800 0.000
v -75.860 87.366 0.000
v -23.914 85.272 0.000
v -24.997 58.894 0.000
v -76.973 60.988 0.000
v -77.473 48.822 0.000
v -24.989 46.701 0.000
v -26.057 20.526 0.000
v -78.706 22.657 0.000
v -79.221 9.899 0.000
v -19.544 7.490 9.900
v -19.111 18.219 9.900
v -16.572 18.117 9.900
v -15.347 48.072 9.900
v -17.543 48.164 9.900
v -17.214 56.198 9.900
v -14.369 56.086 9.900
v -13.151 86.078 9.900
v -16.676 86.217 9.900
v -16.258 96.418 9.900
v -75.397 98.800 9.900
v -75.860 87.366 9.900
v -23.914 85.272 9.900
v -24.997 58.894 9.900
v -76.973 60.988 9.900
v -77.473 48.822 9.900
v -24.989 46.701 9.900
v -26.057 20.526 9.900
v -78.706 22.657 9.900
v -79.221 9.899 9.900
usemtl roof
f 32 33 34 35 36 37 38 39 40 41 42 43 44 45 46 47 48 49 50 51
usemtl teaching_building
f 31 30 29 28 27 26 25 24 23 22 21 20 19 18 17 16 15 14 13 12
f 12 13 33 32
f 13 14 34 33
f 14 15 35 34
f 15 16 36 35
f 16 17 37 36
f 17 18 38 37
f 18 19 39 38
f 19 20 40 39
f 20 21 41 40
f 21 22 42 41
f 22 23 43 42
f 23 24 44 43
f 24 25 45 44
f 25 26 46 45
f 26 27 47 46
f 27 28 48 47
f 28 29 49 48
f 29 30 50 49
f 30 31 51 50
f 31 12 32 51
o SD0576_T002_2hao
v 5.021 28.198 0.000
v 4.931 26.428 0.000
v 53.441 24.056 0.000
v 53.531 25.807 0.000
v 54.674 25.742 0.000
v 55.361 39.650 0.000
v 50.999 39.872 0.000
v 51.059 41.076 0.000
v 8.344 43.143 0.000
v 8.292 41.994 0.000
v 3.781 42.216 0.000
v 3.094 28.290 0.000
v 5.021 28.198 6.600
v 4.931 26.428 6.600
v 53.441 24.056 6.600
v 53.531 25.807 6.600
v 54.674 25.742 6.600
v 55.361 39.650 6.600
v 50.999 39.872 6.600
v 51.059 41.076 6.600
v 8.344 43.143 6.600
v 8.292 41.994 6.600
v 3.781 42.216 6.600
v 3.094 28.290 6.600
usemtl roof
f 64 65 66 67 68 69 70 71 72 73 74 75
usemtl teaching_building
f 63 62 61 60 59 58 57 56 55 54 53 52
f 52 53 65 64
f 53 54 66 65
f 54 55 67 66
f 55 56 68 67
f 56 57 69 68
f 57 58 70 69
f 58 59 71 70
f 59 60 72 71
f 60 61 73 72
f 61 62 74 73
f 62 63 75 74
f 63 52 64 75
o SD0576_T003_3hao
v 45.375 -1.767 0.000
v 46.391 19.933 0.000
v 11.399 21.545 0.000
v 10.383 -0.154 0.000
v 45.375 -1.767 6.600
v 46.391 19.933 6.600
v 11.399 21.545 6.600
v 10.383 -0.154 6.600
usemtl roof
f 80 81 82 83
usemtl teaching_building
f 79 78 77 76
f 76 77 81 80
f 77 78 82 81
f 78 79 83 82
f 79 76 80 83
o SD0576_T004_4hao
v 73.488 -48.686 0.000
v 78.104 50.509 0.000
v 67.752 50.981 0.000
v 63.144 -48.205 0.000
v 73.488 -48.686 6.600
v 78.104 50.509 6.600
v 67.752 50.981 6.600
v 63.144 -48.205 6.600
usemtl roof
f 88 89 90 91
usemtl teaching_building
f 87 86 85 84
f 84 85 89 88
f 85 86 90 89
f 86 87 91 90
f 87 84 88 91
o SD0576_T005_5hao
v 13.326 -53.106 0.000
v 13.207 -57.025 0.000
v 39.355 -57.822 0.000
v 39.460 -54.236 0.000
v 47.907 -54.496 0.000
v 48.699 -28.923 0.000
v 40.348 -28.664 0.000
v 40.498 -24.198 0.000
v 14.148 -23.383 0.000
v 14.013 -27.682 0.000
v 5.245 -27.404 0.000
v 4.453 -52.828 0.000
v 13.326 -53.106 6.600
v 13.207 -57.025 6.600
v 39.355 -57.822 6.600
v 39.460 -54.236 6.600
v 47.907 -54.496 6.600
v 48.699 -28.923 6.600
v 40.348 -28.664 6.600
v 40.498 -24.198 6.600
v 14.148 -23.383 6.600
v 14.013 -27.682 6.600
v 5.245 -27.404 6.600
v 4.453 -52.828 6.600
usemtl roof
f 104 105 106 107 108 109 110 111 112 113 114 115
usemtl teaching_building
f 103 102 101 100 99 98 97 96 95 94 93 92
f 92 93 105 104
f 93 94 106 105
f 94 95 107 106
f 95 96 108 107
f 96 97 109 108
f 97 98 110 109
f 98 99 111 110
f 99 100 112 111
f 100 101 113 112
f 101 102 114 113
f 102 103 115 114
f 103 92 104 115
o SD0576_T006_6hao
v -24.242 -107.688 0.000
v -23.802 -96.977 0.000
v -21.255 -97.079 0.000
v -20.045 -67.106 0.000
v -22.226 -67.022 0.000
v -21.905 -58.999 0.000
v -19.066 -59.110 0.000
v -17.842 -29.118 0.000
v -21.367 -28.970 0.000
v -20.949 -18.768 0.000
v -25.729 -18.833 0.000
v -25.594 -15.841 0.000
v -79.915 -13.534 0.000
v -80.558 -27.811 0.000
v -28.612 -29.915 0.000
v -29.687 -56.302 0.000
v -81.663 -54.199 0.000
v -82.164 -66.374 0.000
v -29.680 -68.477 0.000
v -30.748 -94.661 0.000
v -83.389 -92.530 0.000
v -83.919 -105.288 0.000
v -24.242 -107.688 6.600
v -23.802 -96.977 6.600
v -21.255 -97.079 6.600
v -20.045 -67.106 6.600
v -22.226 -67.022 6.600
v -21.905 -58.999 6.600
v -19.066 -59.110 6.600
v -17.842 -29.118 6.600
v -21.367 -28.970 6.600
v -20.949 -18.768 6.600
v -25.729 -18.833 6.600
v -25.594 -15.841 6.600
v -79.915 -13.534 6.600
v -80.558 -27.811 6.600
v -28.612 -29.915 6.600
v -29.687 -56.302 6.600
v -81.663 -54.199 6.600
v -82.164 -66.374 6.600
v -29.680 -68.477 6.600
v -30.748 -94.661 6.600
v -83.389 -92.530 6.600
v -83.919 -105.288 6.600
usemtl roof
f 138 139 140 141 142 143 144 145 146 147 148 149 150 151 152 153 154 155 156 157 158 159
usemtl teaching_building
f 137 136 135 134 133 132 131 130 129 128 127 126 125 124 123 122 121 120 119 118 117 116
f 116 117 139 138
f 117 118 140 139
f 118 119 141 140
f 119 120 142 141
f 120 121 143 142
f 121 122 144 143
f 122 123 145 144
f 123 124 146 145
f 124 125 147 146
f 125 126 148 147
f 126 127 149 148
f 127 128 150 149
f 128 129 151 150
f 129 130 152 151
f 130 131 153 152
f 131 132 154 153
f 132 133 155 154
f 133 134 156 155
f 134 135 157 156
f 135 136 158 157
f 136 137 159 158
f 137 116 138 159
o SD0576_T007_7hao
v 45.345 -116.110 0.000
v 1.189 -113.859 0.000
v 1.854 -96.977 0.000
v 2.421 -82.032 0.000
v 12.624 -82.412 0.000
v 12.497 -85.655 0.000
v 36.390 -86.535 0.000
v 36.509 -83.228 0.000
v 46.503 -83.589 0.000
v 45.935 -98.590 0.000
v 45.345 -116.110 6.600
v 1.189 -113.859 6.600
v 1.854 -96.977 6.600
v 2.421 -82.032 6.600
v 12.624 -82.412 6.600
v 12.497 -85.655 6.600
v 36.390 -86.535 6.600
v 36.509 -83.228 6.600
v 46.503 -83.589 6.600
v 45.935 -98.590 6.600
usemtl roof
f 170 171 172 173 174 175 176 177 178 179
usemtl teaching_building
f 169 168 167 166 165 164 163 162 161 160
f 160 161 171 170
f 161 162 172 171
f 162 163 173 172
f 163 164 174 173
f 164 165 175 174
f 165 166 176 175
f 166 167 177 176
f 167 168 178 177
f 168 169 179 178
f 169 160 170 179
