# school_id SD0579
# school_name 昌邑市饮马镇赶仙庄学区小学
# boundary_source footprint_convex_hull_buffer_20m
# adjacent_block_merge_distance_m 2.0
mtllib ../campus_materials.mtl
o SD0579_campus_boundary
usemtl campus_boundary
v -10.984 -66.193 0.050
v -16.988 -65.959 0.050
v -46.930 -62.506 0.050
v -56.476 -44.993 0.050
v -55.899 -29.917 0.050
v -40.671 82.730 0.050
v 8.362 76.422 0.050
v 79.290 63.349 0.050
v 75.730 37.061 0.050
v 72.217 12.521 0.050
v 25.410 -55.750 0.050
v 15.288 -64.575 0.050
v -10.984 -66.193 0.050
l 1 2 3 4 5 6 7 8 9 10 11 12 13 1
o SD0579_T001_1hao
v 5.271 56.655 0.000
v 4.030 47.193 0.000
v -24.745 50.896 0.000
v -23.513 60.358 0.000
v 5.271 56.655 7.270
v 4.030 47.193 7.270
v -24.745 50.896 7.270
v -23.513 60.358 7.270
usemtl roof
f 18 19 20 21
usemtl teaching_building
f 17 16 15 14
f 14 15 19 18
f 15 16 20 19
f 16 17 21 20
f 17 14 18 21
o SD0579_T002_2hao
v 56.912 47.137 0.000
v 55.921 39.820 0.000
v 19.244 44.728 0.000
v 20.244 52.056 0.000
v 56.912 47.137 7.450
v 55.921 39.820 7.450
v 19.244 44.728 7.450
v 20.244 52.056 7.450
usemtl roof
f 26 27 28 29
usemtl teaching_building
f 25 24 23 22
f 22 23 27 26
f 23 24 28 27
f 24 25 29 28
f 25 22 26 29
o SD0579_T003_3hao
v 3.843 36.293 0.000
v 2.602 26.820 0.000
v -26.173 30.534 0.000
v -24.941 39.985 0.000
v 3.843 36.293 7.690
v 2.602 26.820 7.690
v -26.173 30.534 7.690
v -24.941 39.985 7.690
usemtl roof
f 34 35 36 37
usemtl teaching_building
f 33 32 31 30
f 30 31 35 34
f 31 32 36 35
f 32 33 37 36
f 33 30 34 37
o SD0579_T004_4hao
v -33.271 -31.744 0.000
v -33.378 -34.607 0.000
v 7.593 -36.166 0.000
v 7.682 -33.756 0.000
v 10.673 -33.866 0.000
v 10.352 -42.345 0.000
v 7.379 -42.234 0.000
v 7.271 -45.031 0.000
v -11.138 -44.334 0.000
v -11.210 -46.169 0.000
v -15.451 -46.004 0.000
v -15.388 -44.533 0.000
v -34.334 -43.826 0.000
v -34.209 -40.333 0.000
v -36.280 -40.256 0.000
v -35.950 -31.644 0.000
v -33.271 -31.744 9.070
v -33.378 -34.607 9.070
v 7.593 -36.166 9.070
v 7.682 -33.756 9.070
v 10.673 -33.866 9.070
v 10.352 -42.345 9.070
v 7.379 -42.234 9.070
v 7.271 -45.031 9.070
v -11.138 -44.334 9.070
v -11.210 -46.169 9.070
v -15.451 -46.004 9.070
v -15.388 -44.533 9.070
v -34.334 -43.826 9.070
v -34.209 -40.333 9.070
v -36.280 -40.256 9.070
v -35.950 -31.644 9.070
usemtl roof
f 54 55 56 57 58 59 60 61 62 63 64 65 66 67 68 69
usemtl teaching_building
f 53 52 51 50 49 48 47 46 45 44 43 42 41 40 39 38
f 38 39 55 54
f 39 40 56 55
f 40 41 57 56
f 41 42 58 57
f 42 43 59 58
f 43 44 60 59
f 44 45 61 60
f 45 46 62 61
f 46 47 63 62
f 47 48 64 63
f 48 49 65 64
f 49 50 66 65
f 50 51 67 66
f 51 52 68 67
f 52 53 69 68
f 53 38 54 69
