# school_id SD0538
# school_name 文家小学
# boundary_source footprint_convex_hull_buffer_20m
# adjacent_block_merge_distance_m 2.0
mtllib ../campus_materials.mtl
o SD0538_campus_boundary
usemtl campus_boundary
v 38.527 -53.872 0.050
v -41.610 -51.561 0.050
v -38.532 53.872 0.050
v 41.617 51.561 0.050
v 38.527 -53.872 0.050
l 1 2 3 4 5 1
o SD0538_T001_1hao
v 19.121 -33.304 0.000
v 21.039 32.146 0.000
v -19.124 33.304 0.000
v -21.035 -32.146 0.000
v 19.121 -33.304 9.900
v 21.039 32.146 9.900
v -19.124 33.304 9.900
v -21.035 -32.146 9.900
usemtl roof
f 10 11 12 13
usemtl teaching_building
f 9 8 7 6
f 6 7 11 10
f 7 8 12 11
f 8 9 13 12
f 9 6 10 13
