# school_id SD0554
# school_name 昌邑市围子街道办事处宋庄初级中学;昌邑市围子街道办事处宋庄小学
# boundary_source footprint_convex_hull_buffer_20m
# adjacent_block_merge_distance_m 2.0
mtllib ../campus_materials.mtl
o SD0554_campus_boundary
usemtl campus_boundary
v -4.882 -46.158 0.050
v -26.051 -45.851 0.050
v -104.108 -44.192 0.050
v -106.905 -16.883 0.050
v -106.789 -10.320 0.050
v -101.718 14.286 0.050
v -9.845 35.463 0.050
v 18.690 40.435 0.050
v 70.005 40.916 0.050
v 83.678 40.816 0.050
v 127.436 34.341 0.050
v 127.103 -10.091 0.050
v -4.882 -46.158 0.050
l 1 2 3 4 5 6 7 8 9 10 11 12 13 1
o SD0554_T001_1hao
v 7.771 15.742 0.000
v 7.753 13.819 0.000
v 20.459 13.719 0.000
v 20.512 20.451 0.000
v 32.371 20.352 0.000
v 32.327 14.349 0.000
v 45.523 14.250 0.000
v 45.541 16.836 0.000
v 51.925 16.781 0.000
v 51.907 14.482 0.000
v 69.972 14.349 0.000
v 70.026 20.915 0.000
v 82.134 20.827 0.000
v 82.090 15.212 0.000
v 100.253 15.079 0.000
v 100.271 17.157 0.000
v 107.306 17.102 0.000
v 107.217 5.208 0.000
v 43.446 5.694 0.000
v 43.419 2.942 0.000
v -5.979 3.328 0.000
v -5.880 15.853 0.000
v 7.771 15.742 11.750
v 7.753 13.819 11.750
v 20.459 13.719 11.750
v 20.512 20.451 11.750
v 32.371 20.352 11.750
v 32.327 14.349 11.750
v 45.523 14.250 11.750
v 45.541 16.836 11.750
v 51.925 16.781 11.750
v 51.907 14.482 11.750
v 69.972 14.349 11.750
v 70.026 20.915 11.750
v 82.134 20.827 11.750
v 82.090 15.212 11.750
v 100.253 15.079 11.750
v 100.271 17.157 11.750
v 107.306 17.102 11.750
v 107.217 5.208 11.750
v 43.446 5.694 11.750
v 43.419 2.942 11.750
v -5.979 3.328 11.750
v -5.880 15.853 11.750
usemtl roof
f 36 37 38 39 40 41 42 43 44 45 46 47 48 49 50 51 52 53 54 55 56 57
usemtl teaching_building
f 35 34 33 32 31 30 29 28 27 26 25 24 23 22 21 20 19 18 17 16 15 14
f 14 15 37 36
f 15 16 38 37
f 16 17 39 38
f 17 18 40 39
f 18 19 41 40
f 19 20 42 41
f 20 21 43 42
f 21 22 44 43
f 22 23 45 44
f 23 24 46 45
f 24 25 47 46
f 25 26 48 47
f 26 27 49 48
f 27 28 50 49
f 28 29 51 50
f 29 30 52 51
f 30 31 53 52
f 31 32 54 53
f 32 33 55 54
f 33 34 56 55
f 34 35 57 56
f 35 14 36 57
o SD0554_T002_2hao
v -84.881 -12.567 0.000
v -86.825 -12.534 0.000
v -86.887 -16.038 0.000
v -85.879 -16.049 0.000
v -86.013 -24.572 0.000
v -67.663 -24.848 0.000
v -67.645 -23.621 0.000
v -25.666 -24.229 0.000
v -25.693 -25.854 0.000
v -7.423 -26.119 0.000
v -7.307 -18.072 0.000
v -6.005 -18.094 0.000
v -5.961 -14.811 0.000
v -7.066 -14.789 0.000
v -6.906 -4.343 0.000
v -12.184 -4.266 0.000
v -12.211 -6.078 0.000
v -41.805 -5.625 0.000
v -41.769 -3.359 0.000
v -49.723 -3.238 0.000
v -49.759 -5.548 0.000
v -80.209 -5.073 0.000
v -80.164 -2.398 0.000
v -84.720 -2.320 0.000
v -84.881 -12.567 11.750
v -86.825 -12.534 11.750
v -86.887 -16.038 11.750
v -85.879 -16.049 11.750
v -86.013 -24.572 11.750
v -67.663 -24.848 11.750
v -67.645 -23.621 11.750
v -25.666 -24.229 11.750
v -25.693 -25.854 11.750
v -7.423 -26.119 11.750
v -7.307 -18.072 11.750
v -6.005 -18.094 11.750
v -5.961 -14.811 11.750
v -7.066 -14.789 11.750
v -6.906 -4.343 11.750
v -12.184 -4.266 11.750
v -12.211 -6.078 11.750
v -41.805 -5.625 11.750
v -41.769 -3.359 11.750
v -49.723 -3.238 11.750
v -49.759 -5.548 11.750
v -80.209 -5.073 11.750
v -80.164 -2.398 11.750
v -84.720 -2.320 11.750
usemtl roof
f 82 83 84 85 86 87 88 89 90 91 92 93 94 95 96 97 98 99 100 101 102 103 104 105
usemtl teaching_building
f 81 80 79 78 77 76 75 74 73 72 71 70 69 68 67 66 65 64 63 62 61 60 59 58
f 58 59 83 82
f 59 60 84 83
f 60 61 85 84
f 61 62 86 85
f 62 63 87 86
f 63 64 88 87
f 64 65 89 88
f 65 66 90 89
f 66 67 91 90
f 67 68 92 91
f 68 69 93 92
f 69 70 94 93
f 70 71 95 94
f 71 72 96 95
f 72 73 97 96
f 73 74 98 97
f 74 75 99 98
f 75 76 100 99
f 76 77 101 100
f 77 78 102 101
f 78 79 103 102
f 79 80 104 103
f 80 81 105 104
f 81 58 82 105
