# school_id SD0534
# school_name 山东省诸城实验中学(凤凰校区)
# boundary_source footprint_convex_hull_buffer_20m
# adjacent_block_merge_distance_m 2.0
mtllib ../campus_materials.mtl
o SD0534_campus_boundary
usemtl campus_boundary
v -59.368 -157.147 0.050
v -227.390 -66.783 0.050
v -235.049 -60.447 0.050
v -239.357 -48.466 0.050
v -243.161 -7.216 0.050
v -243.522 10.377 0.050
v -237.826 77.823 0.050
v -78.688 86.666 0.050
v 293.465 94.613 0.050
v 308.132 70.465 0.050
v 311.784 0.612 0.050
v 315.595 -77.330 0.050
v 317.226 -120.464 0.050
v 272.297 -150.794 0.050
v 199.480 -153.138 0.050
v 13.172 -157.147 0.050
v -59.368 -157.147 0.050
l 1 2 3 4 5 6 7 8 9 10 11 12 13 14 15 16 17 1
o SD0534_T001_1hao
v 182.067 70.668 0.000
v 182.698 58.973 0.000
v 171.760 58.973 0.000
v 171.336 54.795 0.000
v 144.621 54.375 0.000
v 143.990 58.973 0.000
v 134.521 59.183 0.000
v 134.097 69.629 0.000
v 182.067 70.668 7.040
v 182.698 58.973 7.040
v 171.760 58.973 7.040
v 171.336 54.795 7.040
v 144.621 54.375 7.040
v 143.990 58.973 7.040
v 134.521 59.183 7.040
v 134.097 69.629 7.040
usemtl roof
f 26 27 28 29 30 31 32 33
usemtl teaching_building
f 25 24 23 22 21 20 19 18
f 18 19 27 26
f 19 20 28 27
f 20 21 29 28
f 21 22 30 29
f 22 23 31 30
f 23 24 32 31
f 24 25 33 32
f 25 18 26 33
o SD0534_T002_2hao
v 67.161 67.739 0.000
v 66.612 55.889 0.000
v 57.169 55.613 0.000
v 57.448 51.744 0.000
v 32.463 51.478 0.000
v 32.463 55.060 0.000
v 19.975 55.060 0.000
v 19.696 67.462 0.000
v 67.161 67.739 9.190
v 66.612 55.889 9.190
v 57.169 55.613 9.190
v 57.448 51.744 9.190
v 32.463 51.478 9.190
v 32.463 55.060 9.190
v 19.975 55.060 9.190
v 19.696 67.462 9.190
usemtl roof
f 42 43 44 45 46 47 48 49
usemtl teaching_building
f 41 40 39 38 37 36 35 34
f 34 35 43 42
f 35 36 44 43
f 36 37 45 44
f 37 38 46 45
f 38 39 47 46
f 39 40 48 47
f 40 41 49 48
f 41 34 42 49
o SD0534_T003_3hao
v 181.860 50.196 0.000
v 182.698 29.105 0.000
v 169.868 29.105 0.000
v 169.237 49.157 0.000
v 181.860 50.196 8.060
v 182.698 29.105 8.060
v 169.868 29.105 8.060
v 169.237 49.157 8.060
usemtl roof
f 54 55 56 57
usemtl teaching_building
f 53 52 51 50
f 50 51 55 54
f 51 52 56 55
f 52 53 57 56
f 53 50 54 57
o SD0534_T004_4hao
v 146.928 49.986 0.000
v 147.558 27.845 0.000
v 134.305 28.265 0.000
v 134.305 49.157 0.000
v 146.928 49.986 7.040
v 147.558 27.845 7.040
v 134.305 28.265 7.040
v 134.305 49.157 7.040
usemtl roof
f 62 63 64 65
usemtl teaching_building
f 61 60 59 58
f 58 59 63 62
f 59 60 64 63
f 60 61 65 64
f 61 58 62 65
o SD0534_T005_5hao
v 33.022 47.333 0.000
v 34.130 24.462 0.000
v 19.975 24.462 0.000
v 18.858 46.515 0.000
v 33.022 47.333 9.190
v 34.130 24.462 9.190
v 19.975 24.462 9.190
v 18.858 46.515 9.190
usemtl roof
f 70 71 72 73
usemtl teaching_building
f 69 68 67 66
f 66 67 71 70
f 67 68 72 71
f 68 69 73 72
f 69 66 70 73
o SD0534_T006_6hao
v 67.441 46.792 0.000
v 68.549 24.739 0.000
v 55.502 24.739 0.000
v 54.953 46.239 0.000
v 67.441 46.792 8.810
v 68.549 24.739 8.810
v 55.502 24.739 8.810
v 54.953 46.239 8.810
usemtl roof
f 78 79 80 81
usemtl teaching_building
f 77 76 75 74
f 74 75 79 78
f 75 76 80 79
f 76 77 81 80
f 77 74 78 81
o SD0534_T007_7hao
v 287.080 -11.640 0.000
v 207.962 -12.734 0.000
v 207.404 7.937 0.000
v 285.413 9.042 0.000
v 287.080 -11.640 12.200
v 207.962 -12.734 12.200
v 207.404 7.937 12.200
v 285.413 9.042 12.200
usemtl roof
f 86 87 88 89
usemtl teaching_building
f 85 84 83 82
f 82 83 87 86
f 83 84 88 87
f 84 85 89 88
f 85 82 86 89
o SD0534_T007_7hao_seg02
v 206.016 72.713 0.000
v 282.359 74.371 0.000
v 283.188 52.871 0.000
v 206.295 53.424 0.000
v 206.016 72.713 12.200
v 282.359 74.371 12.200
v 283.188 52.871 12.200
v 206.295 53.424 12.200
usemtl roof
f 94 95 96 97
usemtl teaching_building
f 93 92 91 90
f 90 91 95 94
f 91 92 96 95
f 92 93 97 96
f 93 90 94 97
o SD0534_T007_7hao_seg03
v 288.422 64.389 0.000
v 291.810 -0.398 0.000
v 286.170 -0.332 0.000
v 282.764 63.903 0.000
v 288.422 64.389 12.200
v 291.810 -0.398 12.200
v 286.170 -0.332 12.200
v 282.764 63.903 12.200
usemtl roof
f 102 103 104 105
usemtl teaching_building
f 101 100 99 98
f 98 99 103 102
f 99 100 104 103
f 100 101 105 104
f 101 98 102 105
o SD0534_T008_8hao
v -4.289 43.033 0.000
v -77.550 43.033 0.000
v -77.919 66.678 0.000
v -4.289 66.678 0.000
v -4.289 43.033 13.810
v -77.550 43.033 13.810
v -77.919 66.678 13.810
v -4.289 66.678 13.810
usemtl roof
f 110 111 112 113
usemtl teaching_building
f 109 108 107 106
f 106 107 111 110
f 107 108 112 111
f 108 109 113 112
f 109 106 110 113
o SD0534_T008_8hao_seg02
v -0.991 -18.073 0.000
v -77.181 -20.627 0.000
v -77.415 0.619 0.000
v -1.721 3.382 0.000
v -0.991 -18.073 13.810
v -77.181 -20.627 13.810
v -77.415 0.619 13.810
v -1.721 3.382 13.810
usemtl roof
f 118 119 120 121
usemtl teaching_building
f 117 116 115 114
f 114 115 119 118
f 115 116 120 119
f 116 117 121 120
f 117 114 118 121
o SD0534_T008_8hao_seg03
v -85.605 56.851 0.000
v -77.766 56.873 0.000
v -77.343 -11.518 0.000
v -84.515 -11.750 0.000
v -85.605 56.851 13.810
v -77.766 56.873 13.810
v -77.343 -11.518 13.810
v -84.515 -11.750 13.810
usemtl roof
f 126 127 128 129
usemtl teaching_building
f 125 124 123 122
f 122 123 127 126
f 123 124 128 127
f 124 125 129 128
f 125 122 126 129
o SD0534_T009_9hao
v 180.806 22.837 0.000
v 181.860 9.252 0.000
v 134.305 9.042 0.000
v 133.890 21.367 0.000
v 180.806 22.837 7.040
v 181.860 9.252 7.040
v 134.305 9.042 7.040
v 133.890 21.367 7.040
usemtl roof
f 134 135 136 137
usemtl teaching_building
f 133 132 131 130
f 130 131 135 134
f 131 132 136 135
f 132 133 137 136
f 133 130 134 137
o SD0534_T010_10hao
v 66.612 18.946 0.000
v 66.891 6.820 0.000
v 20.804 7.097 0.000
v 20.525 18.394 0.000
v 66.612 18.946 8.880
v 66.891 6.820 8.880
v 20.804 7.097 8.880
v 20.525 18.394 8.880
usemtl roof
f 142 143 144 145
usemtl teaching_building
f 141 140 139 138
f 138 139 143 142
f 139 140 144 143
f 140 141 145 144
f 141 138 142 145
o SD0534_T011_11hao
v -156.217 50.274 0.000
v -156.857 55.966 0.000
v -167.056 55.657 0.000
v -166.741 50.274 0.000
v -201.178 49.953 0.000
v -201.178 59.448 0.000
v -219.360 58.818 0.000
v -218.396 45.520 0.000
v -208.836 45.841 0.000
v -208.197 35.384 0.000
v -215.215 35.384 0.000
v -214.891 17.974 0.000
v -208.512 17.974 0.000
v -208.512 9.739 0.000
v -223.505 9.739 0.000
v -223.180 -6.091 0.000
v -207.557 -5.140 0.000
v -206.602 -32.377 0.000
v -208.836 -35.859 0.000
v -213.936 -36.810 0.000
v -216.801 -38.711 0.000
v -219.675 -44.094 0.000
v -218.081 -48.527 0.000
v -216.170 -50.108 0.000
v -210.431 -51.379 0.000
v -204.367 -48.527 0.000
v -203.097 -44.404 0.000
v -180.770 -43.464 0.000
v -180.454 -52.009 0.000
v -145.693 -51.058 0.000
v -145.054 -64.677 0.000
v -109.022 -63.096 0.000
v -110.302 -47.576 0.000
v -116.357 -47.897 0.000
v -116.672 -42.514 0.000
v -125.925 -41.873 0.000
v -125.925 -13.375 0.000
v -111.897 -13.055 0.000
v -112.212 4.355 0.000
v -163.867 3.405 0.000
v -164.191 16.072 0.000
v -179.175 15.752 0.000
v -178.535 11.319 0.000
v -196.078 11.010 0.000
v -197.033 35.384 0.000
v -147.928 35.704 0.000
v -147.604 28.740 0.000
v -132.935 29.370 0.000
v -132.935 18.924 0.000
v -126.565 18.924 0.000
v -127.196 29.370 0.000
v -110.932 30.321 0.000
v -110.302 45.520 0.000
v -130.710 46.150 0.000
v -130.710 59.139 0.000
v -147.928 58.498 0.000
v -147.928 50.583 0.000
v -156.217 50.274 8.420
v -156.857 55.966 8.420
v -167.056 55.657 8.420
v -166.741 50.274 8.420
v -201.178 49.953 8.420
v -201.178 59.448 8.420
v -219.360 58.818 8.420
v -218.396 45.520 8.420
v -208.836 45.841 8.420
v -208.197 35.384 8.420
v -215.215 35.384 8.420
v -214.891 17.974 8.420
v -208.512 17.974 8.420
v -208.512 9.739 8.420
v -223.505 9.739 8.420
v -223.180 -6.091 8.420
v -207.557 -5.140 8.420
v -206.602 -32.377 8.420
v -208.836 -35.859 8.420
v -213.936 -36.810 8.420
v -216.801 -38.711 8.420
v -219.675 -44.094 8.420
v -218.081 -48.527 8.420
v -216.170 -50.108 8.420
v -210.431 -51.379 8.420
v -204.367 -48.527 8.420
v -203.097 -44.404 8.420
v -180.770 -43.464 8.420
v -180.454 -52.009 8.420
v -145.693 -51.058 8.420
v -145.054 -64.677 8.420
v -109.022 -63.096 8.420
v -110.302 -47.576 8.420
v -116.357 -47.897 8.420
v -116.672 -42.514 8.420
v -125.925 -41.873 8.420
v -125.925 -13.375 8.420
v -111.897 -13.055 8.420
v -112.212 4.355 8.420
v -163.867 3.405 8.420
v -164.191 16.072 8.420
v -179.175 15.752 8.420
v -178.535 11.319 8.420
v -196.078 11.010 8.420
v -197.033 35.384 8.420
v -147.928 35.704 8.420
v -147.604 28.740 8.420
v -132.935 29.370 8.420
v -132.935 18.924 8.420
v -126.565 18.924 8.420
v -127.196 29.370 8.420
v -110.932 30.321 8.420
v -110.302 45.520 8.420
v -130.710 46.150 8.420
v -130.710 59.139 8.420
v -147.928 58.498 8.420
v -147.928 50.583 8.420
usemtl roof
f 203 204 205 206 207 208 209 210 211 212 213 214 215 216 217 218 219 220 221 222 223 224 225 226 227 228 229 230 231 232 233 234 235 236 237 238 239 240 241 242 243 244 245 246 247 248 249 250 251 252 253 254 255 256 257 258 259
usemtl teaching_building
f 202 201 200 199 198 197 196 195 194 193 192 191 190 189 188 187 186 185 184 183 182 181 180 179 178 177 176 175 174 173 172 171 170 169 168 167 166 165 164 163 162 161 160 159 158 157 156 155 154 153 152 151 150 149 148 147 146
f 146 147 204 203
f 147 148 205 204
f 148 149 206 205
f 149 150 207 206
f 150 151 208 207
f 151 152 209 208
f 152 153 210 209
f 153 154 211 210
f 154 155 212 211
f 155 156 213 212
f 156 157 214 213
f 157 158 215 214
f 158 159 216 215
f 159 160 217 216
f 160 161 218 217
f 161 162 219 218
f 162 163 220 219
f 163 164 221 220
f 164 165 222 221
f 165 166 223 222
f 166 167 224 223
f 167 168 225 224
f 168 169 226 225
f 169 170 227 226
f 170 171 228 227
f 171 172 229 228
f 172 173 230 229
f 173 174 231 230
f 174 175 232 231
f 175 176 233 232
f 176 177 234 233
f 177 178 235 234
f 178 179 236 235
f 179 180 237 236
f 180 181 238 237
f 181 182 239 238
f 182 183 240 239
f 183 184 241 240
f 184 185 242 241
f 185 186 243 242
f 186 187 244 243
f 187 188 245 244
f 188 189 246 245
f 189 190 247 246
f 190 191 248 247
f 191 192 249 248
f 192 193 250 249
f 193 194 251 250
f 194 195 252 251
f 195 196 253 252
f 196 197 254 253
f 197 198 255 254
f 198 199 256 255
f 199 200 257 256
f 200 201 258 257
f 201 202 259 258
f 202 146 203 259
o SD0534_T012_12hao
v 91.615 -5.140 0.000
v 112.635 -4.665 0.000
v 112.635 -9.949 0.000
v 138.494 -9.705 0.000
v 138.981 -81.932 0.000
v 67.441 -82.419 0.000
v 66.963 -10.899 0.000
v 91.849 -10.424 0.000
v 91.615 -5.140 12.390
v 112.635 -4.665 12.390
v 112.635 -9.949 12.390
v 138.494 -9.705 12.390
v 138.981 -81.932 12.390
v 67.441 -82.419 12.390
v 66.963 -10.899 12.390
v 91.849 -10.424 12.390
usemtl roof
f 268 269 270 271 272 273 274 275
usemtl teaching_building
f 267 266 265 264 263 262 261 260
f 260 261 269 268
f 261 262 270 269
f 262 263 271 270
f 263 264 272 271
f 264 265 273 272
f 265 266 274 273
f 266 267 275 274
f 267 260 268 275
o SD0534_T013_13hao
v 263.834 -79.158 0.000
v 197.132 -79.390 0.000
v 197.132 -57.315 0.000
v 264.320 -56.121 0.000
v 263.834 -79.158 10.040
v 197.132 -79.390 10.040
v 197.132 -57.315 10.040
v 264.320 -56.121 10.040
usemtl roof
f 280 281 282 283
usemtl teaching_building
f 279 278 277 276
f 276 277 281 280
f 277 278 282 281
f 278 279 283 282
f 279 276 280 283
o SD0534_T013_13hao_seg02
v 296.820 -110.109 0.000
v 264.438 -110.109 0.000
v 263.834 -79.158 0.000
v 295.613 -78.196 0.000
v 296.820 -110.109 10.040
v 264.438 -110.109 10.040
v 263.834 -79.158 10.040
v 295.613 -78.196 10.040
usemtl roof
f 288 289 290 291
usemtl teaching_building
f 287 286 285 284
f 284 285 289 288
f 285 286 290 289
f 286 287 291 290
f 287 284 288 291
o SD0534_T014_14hao
v 11.830 -84.276 0.000
v -54.106 -84.641 0.000
v -55.574 -62.820 0.000
v 11.100 -61.361 0.000
v 11.830 -84.276 8.580
v -54.106 -84.641 8.580
v -55.574 -62.820 8.580
v 11.100 -61.361 8.580
usemtl roof
f 296 297 298 299
usemtl teaching_building
f 295 294 293 292
f 292 293 297 296
f 293 294 298 297
f 294 295 299 298
f 295 292 296 299
o SD0534_T014_14hao_seg02
v 12.957 -137.147 0.000
v -54.331 -137.147 0.000
v -53.691 -117.195 0.000
v 12.317 -115.503 0.000
v 12.957 -137.147 8.580
v -54.331 -137.147 8.580
v -53.691 -117.195 8.580
v 12.317 -115.503 8.580
usemtl roof
f 304 305 306 307
usemtl teaching_building
f 303 302 301 300
f 300 301 305 304
f 301 302 306 305
f 302 303 307 306
f 303 300 304 307
o SD0534_T014_14hao_seg03
v -87.488 -85.215 0.000
v -54.106 -84.641 0.000
v -53.691 -117.195 0.000
v -87.173 -117.825 0.000
v -87.488 -85.215 8.580
v -54.106 -84.641 8.580
v -53.691 -117.195 8.580
v -87.173 -117.825 8.580
usemtl roof
f 312 313 314 315
usemtl teaching_building
f 311 310 309 308
f 308 309 313 312
f 309 310 314 313
f 310 311 315 314
f 311 308 312 315
