# school_id SD0530
# school_name 寿光现代明德学校
# boundary_source footprint_convex_hull_buffer_20m
# adjacent_block_merge_distance_m 2.0
mtllib ../campus_materials.mtl
o SD0530_campus_boundary
usemtl campus_boundary
v -45.761 -34.346 0.050
v -47.454 34.578 0.050
v 54.102 41.545 0.050
v 57.581 -28.698 0.050
v -45.761 -34.346 0.050
l 1 2 3 4 5 1
o SD0530_T001_1hao
v -26.273 -13.251 0.000
v 36.621 -9.814 0.000
v 35.135 20.197 0.000
v -26.990 15.935 0.000
v -26.273 -13.251 9.900
v 36.621 -9.814 9.900
v 35.135 20.197 9.900
v -26.990 15.935 9.900
usemtl roof
f 10 11 12 13
usemtl teaching_building
f 9 8 7 6
f 6 7 11 10
f 7 8 12 11
f 8 9 13 12
f 9 6 10 13
