# school_id SD0510
# school_name 鲁东大学莱山实验中学(金滩校区)
# boundary_source footprint_convex_hull_buffer_20m
# adjacent_block_merge_distance_m 2.0
mtllib ../campus_materials.mtl
o SD0510_campus_boundary
usemtl campus_boundary
v 50.542 -98.688 0.050
v -14.844 -79.331 0.050
v -93.169 -51.345 0.050
v -109.239 -39.393 0.050
v -106.876 -18.892 0.050
v -78.968 39.383 0.050
v -42.758 89.087 0.050
v -33.193 100.471 0.050
v -15.883 103.494 0.050
v 73.833 72.977 0.050
v 86.934 58.833 0.050
v 61.181 -64.932 0.050
v 50.542 -98.688 0.050
l 1 2 3 4 5 6 7 8 9 10 11 12 13 1
o SD0510_T001_1hao
v -83.628 -33.516 0.000
v -45.358 -44.718 0.000
v -13.503 -46.034 0.000
v -8.636 -60.311 0.000
v 37.375 -73.932 0.000
v 41.805 -59.876 0.000
v 35.827 -55.262 0.000
v 13.047 -48.016 0.000
v 18.136 -45.163 0.000
v 19.240 -40.326 0.000
v 17.025 -35.499 0.000
v 14.151 -34.174 0.000
v 0.209 -35.712 0.000
v -1.999 -10.668 0.000
v 2.202 -7.156 0.000
v 6.847 -7.823 0.000
v 12.825 -13.095 0.000
v 24.100 -19.683 0.000
v 33.182 -21.656 0.000
v 41.361 -21.869 0.000
v 43.131 -19.460 0.000
v 48.443 -3.858 0.000
v 45.783 1.627 0.000
v 13.047 15.915 0.000
v 17.240 22.947 0.000
v 22.337 26.014 0.000
v 26.982 38.318 0.000
v 53.302 28.210 0.000
v 57.732 29.961 0.000
v 60.385 35.011 0.000
v 65.252 52.809 0.000
v 62.600 55.672 0.000
v 47.561 58.971 0.000
v 17.914 57.859 0.000
v -17.481 82.912 0.000
v -22.571 82.023 0.000
v -27.001 76.751 0.000
v -27.660 69.505 0.000
v -13.503 55.672 0.000
v 10.388 38.096 0.000
v 9.499 33.046 0.000
v -6.643 11.514 0.000
v -51.114 43.155 0.000
v -61.722 29.090 0.000
v -59.292 25.578 0.000
v -23.675 -1.662 0.000
v -22.134 -5.396 0.000
v -22.349 -11.548 0.000
v -24.341 -14.633 0.000
v -34.298 -20.776 0.000
v -40.269 -20.776 0.000
v -71.686 -6.063 0.000
v -87.391 -24.510 0.000
v -88.050 -30.227 0.000
v -83.628 -33.516 9.900
v -45.358 -44.718 9.900
v -13.503 -46.034 9.900
v -8.636 -60.311 9.900
v 37.375 -73.932 9.900
v 41.805 -59.876 9.900
v 35.827 -55.262 9.900
v 13.047 -48.016 9.900
v 18.136 -45.163 9.900
v 19.240 -40.326 9.900
v 17.025 -35.499 9.900
v 14.151 -34.174 9.900
v 0.209 -35.712 9.900
v -1.999 -10.668 9.900
v 2.202 -7.156 9.900
v 6.847 -7.823 9.900
v 12.825 -13.095 9.900
v 24.100 -19.683 9.900
v 33.182 -21.656 9.900
v 41.361 -21.869 9.900
v 43.131 -19.460 9.900
v 48.443 -3.858 9.900
v 45.783 1.627 9.900
v 13.047 15.915 9.900
v 17.240 22.947 9.900
v 22.337 26.014 9.900
v 26.982 38.318 9.900
v 53.302 28.210 9.900
v 57.732 29.961 9.900
v 60.385 35.011 9.900
v 65.252 52.809 9.900
v 62.600 55.672 9.900
v 47.561 58.971 9.900
v 17.914 57.859 9.900
v -17.481 82.912 9.900
v -22.571 82.023 9.900
v -27.001 76.751 9.900
v -27.660 69.505 9.900
v -13.503 55.672 9.900
v 10.388 38.096 9.900
v 9.499 33.046 9.900
v -6.643 11.514 9.900
v -51.114 43.155 9.900
v -61.722 29.090 9.900
v -59.292 25.578 9.900
v -23.675 -1.662 9.900
v -22.134 -5.396 9.900
v -22.349 -11.548 9.900
v -24.341 -14.633 9.900
v -34.298 -20.776 9.900
v -40.269 -20.776 9.900
v -71.686 -6.063 9.900
v -87.391 -24.510 9.900
v -88.050 -30.227 9.900
usemtl roof
f 68 69 70 71 72 73 74 75 76 77 78 79 80 81 82 83 84 85 86 87 88 89 90 91 92 93 94 95 96 97 98 99 100 101 102 103 104 105 106 107 108 109 110 111 112 113 114 115 116 117 118 119 120 121
usemtl teaching_building
f 67 66 65 64 63 62 61 60 59 58 57 56 55 54 53 52 51 50 49 48 47 46 45 44 43 42 41 40 39 38 37 36 35 34 33 32 31 30 29 28 27 26 25 24 23 22 21 20 19 18 17 16 15 14
f 14 15 69 68
f 15 16 70 69
f 16 17 71 70
f 17 18 72 71
f 18 19 73 72
f 19 20 74 73
f 20 21 75 74
f 21 22 76 75
f 22 23 77 76
f 23 24 78 77
f 24 25 79 78
f 25 26 80 79
f 26 27 81 80
f 27 28 82 81
f 28 29 83 82
f 29 30 84 83
f 30 31 85 84
f 31 32 86 85
f 32 33 87 86
f 33 34 88 87
f 34 35 89 88
f 35 36 90 89
f 36 37 91 90
f 37 38 92 91
f 38 39 93 92
f 39 40 94 93
f 40 41 95 94
f 41 42 96 95
f 42 43 97 96
f 43 44 98 97
f 44 45 99 98
f 45 46 100 99
f 46 47 101 100
f 47 48 102 101
f 48 49 103 102
f 49 50 104 103
f 50 51 105 104
f 51 52 106 105
f 52 53 107 106
f 53 54 108 107
f 54 55 109 108
f 55 56 110 109
f 56 57 111 110
f 57 58 112 111
f 58 59 113 112
f 59 60 114 113
f 60 61 115 114
f 61 62 116 115
f 62 63 117 116
f 63 64 118 117
f 64 65 119 118
f 65 66 120 119
f 66 67 121 120
f 67 14 68 121
