# school_id SD0584
# school_name 昌邑潍水学校小学部
# boundary_source footprint_convex_hull_buffer_20m
# adjacent_block_merge_distance_m 2.0
mtllib ../campus_materials.mtl
o SD0584_campus_boundary
usemtl campus_boundary
v -127.745 -97.907 0.050
v -234.607 13.631 0.050
v -244.025 24.215 0.050
v -244.025 61.253 0.050
v 158.508 63.592 0.050
v 246.680 63.282 0.050
v 248.455 -22.177 0.050
v 249.112 -92.111 0.050
v 47.682 -96.336 0.050
v -127.745 -97.907 0.050
l 1 2 3 4 5 6 7 8 9 10 1
o SD0584_T001_1hao
v 227.322 31.733 0.000
v 227.090 43.351 0.000
v 158.531 43.592 0.000
v 158.531 31.733 0.000
v 227.322 31.733 6.600
v 227.090 43.351 6.600
v 158.531 43.592 6.600
v 158.531 31.733 6.600
usemtl roof
f 15 16 17 18
usemtl teaching_building
f 14 13 12 11
f 11 12 16 15
f 12 13 17 16
f 13 14 18 17
f 14 11 15 18
o SD0584_T002_2hao
v -20.146 32.659 0.000
v -20.146 28.295 0.000
v 30.341 28.564 0.000
v 30.341 32.928 0.000
v 34.738 33.197 0.000
v 34.461 42.740 0.000
v -24.259 42.462 0.000
v -24.259 32.928 0.000
v -20.146 32.659 6.600
v -20.146 28.295 6.600
v 30.341 28.564 6.600
v 30.341 32.928 6.600
v 34.738 33.197 6.600
v 34.461 42.740 6.600
v -24.259 42.462 6.600
v -24.259 32.928 6.600
usemtl roof
f 27 28 29 30 31 32 33 34
usemtl teaching_building
f 26 25 24 23 22 21 20 19
f 19 20 28 27
f 20 21 29 28
f 21 22 30 29
f 22 23 31 30
f 23 24 32 31
f 24 25 33 32
f 25 26 34 33
f 26 19 27 34
o SD0584_T003_3hao
v -219.911 31.566 0.000
v -219.911 27.202 0.000
v -169.425 27.471 0.000
v -169.425 31.825 0.000
v -165.028 32.103 0.000
v -165.304 41.647 0.000
v -224.025 41.369 0.000
v -224.025 31.825 0.000
v -219.911 31.566 6.600
v -219.911 27.202 6.600
v -169.425 27.471 6.600
v -169.425 31.825 6.600
v -165.028 32.103 6.600
v -165.304 41.647 6.600
v -224.025 41.369 6.600
v -224.025 31.825 6.600
usemtl roof
f 43 44 45 46 47 48 49 50
usemtl teaching_building
f 42 41 40 39 38 37 36 35
f 35 36 44 43
f 36 37 45 44
f 37 38 46 45
f 38 39 47 46
f 39 40 48 47
f 40 41 49 48
f 41 42 50 49
f 42 35 43 50
o SD0584_T004_4hao
v -116.744 31.566 0.000
v -116.744 27.202 0.000
v -66.250 27.471 0.000
v -66.250 31.825 0.000
v -61.861 32.103 0.000
v -62.137 41.647 0.000
v -120.857 41.369 0.000
v -120.857 31.825 0.000
v -116.744 31.566 6.600
v -116.744 27.202 6.600
v -66.250 27.471 6.600
v -66.250 31.825 6.600
v -61.861 32.103 6.600
v -62.137 41.647 6.600
v -120.857 41.369 6.600
v -120.857 31.825 6.600
usemtl roof
f 59 60 61 62 63 64 65 66
usemtl teaching_building
f 58 57 56 55 54 53 52 51
f 51 52 60 59
f 52 53 61 60
f 53 54 62 61
f 54 55 63 62
f 55 56 64 63
f 56 57 65 64
f 57 58 66 65
f 58 51 59 66
o SD0584_T005_5hao
v 67.061 17.714 0.000
v 141.600 17.390 0.000
v 141.451 36.949 0.000
v 67.002 37.857 0.000
v 67.061 17.714 6.600
v 141.600 17.390 6.600
v 141.451 36.949 6.600
v 67.002 37.857 6.600
usemtl roof
f 71 72 73 74
usemtl teaching_building
f 70 69 68 67
f 67 68 72 71
f 68 69 73 72
f 69 70 74 73
f 70 67 71 74
o SD0584_T006_6hao
v 228.457 -22.479 0.000
v 228.210 -10.860 0.000
v 159.651 -10.619 0.000
v 159.651 -22.479 0.000
v 228.457 -22.479 6.600
v 228.210 -10.860 6.600
v 159.651 -10.619 6.600
v 159.651 -22.479 6.600
usemtl roof
f 79 80 81 82
usemtl teaching_building
f 78 77 76 75
f 75 76 80 79
f 76 77 81 80
f 77 78 82 81
f 78 75 79 82
o SD0584_T007_7hao
v 44.756 -24.137 0.000
v 44.517 -12.519 0.000
v -24.043 -12.287 0.000
v -24.043 -24.137 0.000
v 44.756 -24.137 6.600
v 44.517 -12.519 6.600
v -24.043 -12.287 6.600
v -24.043 -24.137 6.600
usemtl roof
f 87 88 89 90
usemtl teaching_building
f 86 85 84 83
f 83 84 88 87
f 84 85 89 88
f 85 86 90 89
f 86 83 87 90
o SD0584_T008_8hao
v -119.282 -77.830 0.000
v -59.076 -77.219 0.000
v -59.076 -63.756 0.000
v -54.343 -64.062 0.000
v -55.291 -29.641 0.000
v -60.330 -29.641 0.000
v -60.651 -16.818 0.000
v -119.588 -17.133 0.000
v -119.282 -77.830 6.600
v -59.076 -77.219 6.600
v -59.076 -63.756 6.600
v -54.343 -64.062 6.600
v -55.291 -29.641 6.600
v -60.330 -29.641 6.600
v -60.651 -16.818 6.600
v -119.588 -17.133 6.600
usemtl roof
f 99 100 101 102 103 104 105 106
usemtl teaching_building
f 98 97 96 95 94 93 92 91
f 91 92 100 99
f 92 93 101 100
f 93 94 102 101
f 94 95 103 102
f 95 96 104 103
f 96 97 105 104
f 97 98 106 105
f 98 91 99 106
o SD0584_T009_9hao
v 228.927 -72.530 0.000
v 228.695 -60.912 0.000
v 160.136 -60.671 0.000
v 160.136 -72.530 0.000
v 228.927 -72.530 6.600
v 228.695 -60.912 6.600
v 160.136 -60.671 6.600
v 160.136 -72.530 6.600
usemtl roof
f 111 112 113 114
usemtl teaching_building
f 110 109 108 107
f 107 108 112 111
f 108 109 113 112
f 109 110 114 113
f 110 107 111 114
o SD0584_T010_10hao
v 47.383 -76.338 0.000
v 47.145 -64.701 0.000
v -21.422 -64.470 0.000
v -21.422 -76.338 0.000
v 47.383 -76.338 6.600
v 47.145 -64.701 6.600
v -21.422 -64.470 6.600
v -21.422 -76.338 6.600
usemtl roof
f 119 120 121 122
usemtl teaching_building
f 118 117 116 115
f 115 116 120 119
f 116 117 121 120
f 117 118 122 121
f 118 115 119 122
