# school_id SD0547
# school_name 昌邑市北孟镇塔耳堡小学
# boundary_source footprint_convex_hull_buffer_20m
# adjacent_block_merge_distance_m 2.0
mtllib ../campus_materials.mtl
o SD0547_campus_boundary
usemtl campus_boundary
v -56.351 -30.224 0.050
v -57.563 20.936 0.050
v -12.156 26.423 0.050
v 11.421 26.788 0.050
v 56.906 22.685 0.050
v 57.596 -28.644 0.050
v -56.351 -30.224 0.050
l 1 2 3 4 5 6 7 1
o SD0547_T001_1hao
v -36.826 -9.951 0.000
v 37.329 -8.923 0.000
v 37.150 4.386 0.000
v 28.230 4.221 0.000
v 28.078 0.904 0.000
v 10.800 0.573 0.000
v 10.675 6.774 0.000
v -10.798 6.442 0.000
v -10.691 0.086 0.000
v -28.281 -0.212 0.000
v -28.344 3.369 0.000
v -37.139 3.259 0.000
v -36.826 -9.951 13.100
v 37.329 -8.923 13.100
v 37.150 4.386 13.100
v 28.230 4.221 13.100
v 28.078 0.904 13.100
v 10.800 0.573 13.100
v 10.675 6.774 13.100
v -10.798 6.442 13.100
v -10.691 0.086 13.100
v -28.281 -0.212 13.100
v -28.344 3.369 13.100
v -37.139 3.259 13.100
usemtl roof
f 20 21 22 23 24 25 26 27 28 29 30 31
usemtl teaching_building
f 19 18 17 16 15 14 13 12 11 10 9 8
f 8 9 21 20
f 9 10 22 21
f 10 11 23 22
f 11 12 24 23
f 12 13 25 24
f 13 14 26 25
f 14 15 27 26
f 15 16 28 27
f 16 17 29 28
f 17 18 30 29
f 18 19 31 30
f 19 8 20 31
