# school_id SD0523
# school_name 安丘市凌河镇慈埠小学
# boundary_source footprint_convex_hull_buffer_20m
# adjacent_block_merge_distance_m 2.0
mtllib ../campus_materials.mtl
o SD0523_campus_boundary
usemtl campus_boundary
v 71.135 -63.137 0.050
v -2.883 -61.950 0.050
v -51.122 -61.174 0.050
v -62.754 -32.774 0.050
v -63.662 42.543 0.050
v -63.281 77.537 0.050
v 79.228 76.001 0.050
v 78.822 40.551 0.050
v 71.135 -63.137 0.050
l 1 2 3 4 5 6 7 8 9 1
o SD0523_T001_1hao
v 59.000 56.218 0.000
v 58.830 41.406 0.000
v 11.191 41.925 0.000
v 11.164 40.046 0.000
v 5.295 40.112 0.000
v 5.313 42.036 0.000
v -43.661 42.555 0.000
v -43.500 57.323 0.000
v 59.000 56.218 13.090
v 58.830 41.406 13.090
v 11.191 41.925 13.090
v 11.164 40.046 13.090
v 5.295 40.112 13.090
v 5.313 42.036 13.090
v -43.661 42.555 13.090
v -43.500 57.323 13.090
usemtl roof
f 18 19 20 21 22 23 24 25
usemtl teaching_building
f 17 16 15 14 13 12 11 10
f 10 11 19 18
f 11 12 20 19
f 12 13 21 20
f 13 14 22 21
f 14 15 23 22
f 15 16 24 23
f 16 17 25 24
f 17 10 18 25
o SD0523_T002_2hao
v -42.801 -28.721 0.000
v -19.192 -28.710 0.000
v -19.201 2.396 0.000
v -42.801 2.396 0.000
v -42.801 -28.721 8.340
v -19.192 -28.710 8.340
v -19.201 2.396 8.340
v -42.801 2.396 8.340
usemtl roof
f 30 31 32 33
usemtl teaching_building
f 29 28 27 26
f 26 27 31 30
f 27 28 32 31
f 28 29 33 32
f 29 26 30 33
o SD0523_T003_3hao
v -2.446 -34.978 0.000
v -2.562 -41.953 0.000
v -37.613 -41.389 0.000
v -37.497 -34.403 0.000
v -2.446 -34.978 7.400
v -2.562 -41.953 7.400
v -37.613 -41.389 7.400
v -37.497 -34.403 7.400
usemtl roof
f 38 39 40 41
usemtl teaching_building
f 37 36 35 34
f 34 35 39 38
f 35 36 40 39
f 36 37 41 40
f 37 34 38 41
o SD0523_T004_4hao
v 52.701 -35.862 0.000
v 52.585 -42.837 0.000
v 17.543 -42.273 0.000
v 17.651 -35.287 0.000
v 52.701 -35.862 7.890
v 52.585 -42.837 7.890
v 17.543 -42.273 7.890
v 17.651 -35.287 7.890
usemtl roof
f 46 47 48 49
usemtl teaching_building
f 45 44 43 42
f 42 43 47 46
f 43 44 48 47
f 44 45 49 48
f 45 42 46 49
