# school_id SD0567
# school_name 昌邑市柳疃镇柳疃学区小学
# boundary_source footprint_convex_hull_buffer_20m
# adjacent_block_merge_distance_m 2.0
mtllib ../campus_materials.mtl
o SD0567_campus_boundary
usemtl campus_boundary
v -48.079 -54.431 0.050
v -50.652 15.642 0.050
v -51.666 51.585 0.050
v 48.075 54.423 0.050
v 50.647 -15.636 0.050
v 51.696 -51.578 0.050
v -48.079 -54.431 0.050
l 1 2 3 4 5 6 7 1
o SD0567_T001_1hao
v -30.662 16.291 0.000
v 29.279 18.005 0.000
v 28.816 33.867 0.000
v -31.110 32.162 0.000
v -30.662 16.291 9.900
v 29.279 18.005 9.900
v 28.816 33.867 9.900
v -31.110 32.162 9.900
usemtl roof
f 12 13 14 15
usemtl teaching_building
f 11 10 9 8
f 8 9 13 12
f 9 10 14 13
f 10 11 15 14
f 11 8 12 15
o SD0567_T002_2hao
v -28.820 -33.872 0.000
v 31.121 -32.158 0.000
v 30.658 -16.295 0.000
v -29.282 -18.000 0.000
v -28.820 -33.872 9.900
v 31.121 -32.158 9.900
v 30.658 -16.295 9.900
v -29.282 -18.000 9.900
usemtl roof
f 20 21 22 23
usemtl teaching_building
f 19 18 17 16
f 16 17 21 20
f 17 18 22 21
f 18 19 23 22
f 19 16 20 23
