# school_id SD0566
# school_name 昌邑市柳疃镇柳疃初级中学
# boundary_source footprint_convex_hull_buffer_20m
# adjacent_block_merge_distance_m 2.0
mtllib ../campus_materials.mtl
o SD0566_campus_boundary
usemtl campus_boundary
v -92.775 -94.091 0.050
v -93.187 -55.958 0.050
v -93.854 9.704 0.050
v -94.155 47.857 0.050
v -65.015 48.069 0.050
v -37.858 48.148 0.050
v -11.272 47.633 0.050
v 49.084 46.035 0.050
v 92.288 42.382 0.050
v 94.452 -56.711 0.050
v 95.046 -91.169 0.050
v -11.609 -93.239 0.050
v -92.775 -94.091 0.050
l 1 2 3 4 5 6 7 8 9 10 11 12 13 1
o SD0566_T001_1hao
v -64.913 28.069 0.000
v -64.851 20.243 0.000
v -45.551 20.398 0.000
v -45.613 28.091 0.000
v -38.023 28.147 0.000
v -37.961 20.155 0.000
v -19.489 20.298 0.000
v -19.551 27.583 0.000
v -11.730 27.638 0.000
v -11.587 10.383 0.000
v -73.855 9.885 0.000
v -73.998 28.003 0.000
v -64.913 28.069 13.700
v -64.851 20.243 13.700
v -45.551 20.398 13.700
v -45.613 28.091 13.700
v -38.023 28.147 13.700
v -37.961 20.155 13.700
v -19.489 20.298 13.700
v -19.551 27.583 13.700
v -11.730 27.638 13.700
v -11.587 10.383 13.700
v -73.855 9.885 13.700
v -73.998 28.003 13.700
usemtl roof
f 26 27 28 29 30 31 32 33 34 35 36 37
usemtl teaching_building
f 25 24 23 22 21 20 19 18 17 16 15 14
f 14 15 27 26
f 15 16 28 27
f 16 17 29 28
f 17 18 30 29
f 18 19 31 30
f 19 20 32 31
f 20 21 33 32
f 21 22 34 33
f 22 23 35 34
f 23 24 36 35
f 24 25 37 36
f 25 14 26 37
o SD0566_T002_2hao
v 17.607 23.117 0.000
v 17.651 19.458 0.000
v 36.204 19.657 0.000
v 36.132 25.925 0.000
v 47.976 26.057 0.000
v 48.047 19.536 0.000
v 66.884 19.734 0.000
v 66.830 23.913 0.000
v 72.685 23.968 0.000
v 72.819 12.395 0.000
v 11.503 11.709 0.000
v 11.378 23.051 0.000
v 17.607 23.117 14.190
v 17.651 19.458 14.190
v 36.204 19.657 14.190
v 36.132 25.925 14.190
v 47.976 26.057 14.190
v 48.047 19.536 14.190
v 66.884 19.734 14.190
v 66.830 23.913 14.190
v 72.685 23.968 14.190
v 72.819 12.395 14.190
v 11.503 11.709 14.190
v 11.378 23.051 14.190
usemtl roof
f 50 51 52 53 54 55 56 57 58 59 60 61
usemtl teaching_building
f 49 48 47 46 45 44 43 42 41 40 39 38
f 38 39 51 50
f 39 40 52 51
f 40 41 53 52
f 41 42 54 53
f 42 43 55 54
f 43 44 56 55
f 44 45 57 56
f 45 46 58 57
f 46 47 59 58
f 47 48 60 59
f 48 49 61 60
f 49 38 50 61
o SD0566_T003_3hao
v -12.103 -55.112 0.000
v -11.908 -73.241 0.000
v -72.992 -73.882 0.000
v -73.188 -55.742 0.000
v -12.103 -55.112 12.210
v -11.908 -73.241 12.210
v -72.992 -73.882 12.210
v -73.188 -55.742 12.210
usemtl roof
f 66 67 68 69
usemtl teaching_building
f 65 64 63 62
f 62 63 67 66
f 63 64 68 67
f 64 65 69 68
f 65 62 66 69
o SD0566_T004_4hao
v 74.456 -57.102 0.000
v 74.705 -71.560 0.000
v 11.343 -72.611 0.000
v 11.094 -58.163 0.000
v 74.456 -57.102 9.290
v 74.705 -71.560 9.290
v 11.343 -72.611 9.290
v 11.094 -58.163 9.290
usemtl roof
f 74 75 76 77
usemtl teaching_building
f 73 72 71 70
f 70 71 75 74
f 71 72 76 75
f 72 73 77 76
f 73 70 74 77
