# school_id SD0516
# school_name 临朐县蒋峪镇刘家庄小学
# boundary_source footprint_convex_hull_buffer_20m
# adjacent_block_merge_distance_m 2.0
mtllib ../campus_materials.mtl
o SD0516_campus_boundary
usemtl campus_boundary
v 15.032 -41.882 0.050
v -9.367 -28.290 0.050
v -43.372 -8.353 0.050
v -31.368 12.732 0.050
v -23.858 25.893 0.050
v -11.476 47.525 0.050
v 46.737 16.090 0.050
v 27.088 -20.562 0.050
v 15.032 -41.882 0.050
l 1 2 3 4 5 6 7 8 9 1
o SD0516_T001_1hao
v -3.811 20.656 0.000
v 19.689 7.966 0.000
v 17.087 3.213 0.000
v -6.494 15.969 0.000
v -3.811 20.656 6.430
v 19.689 7.966 6.430
v 17.087 3.213 6.430
v -6.494 15.969 6.430
usemtl roof
f 14 15 16 17
usemtl teaching_building
f 13 12 11 10
f 10 11 15 14
f 11 12 16 15
f 12 13 17 16
f 13 10 14 17
