# school_id SD0598
# school_name 潍坊市高新区智谷学校
# boundary_source footprint_convex_hull_buffer_20m
# adjacent_block_merge_distance_m 2.0
mtllib ../campus_materials.mtl
o SD0598_campus_boundary
usemtl campus_boundary
v -101.702 -188.880 0.050
v -102.507 53.385 0.050
v -95.400 110.243 0.050
v -90.108 121.465 0.050
v -82.941 129.918 0.050
v -68.224 137.781 0.050
v 68.935 143.153 0.050
v 116.960 143.405 0.050
v 121.367 1.505 0.050
v 121.367 -29.596 0.050
v 118.335 -39.215 0.050
v 7.977 -177.450 0.050
v -4.592 -186.119 0.050
v -101.702 -188.880 0.050
l 1 2 3 4 5 6 7 8 9 10 11 12 13 14 1
o SD0598_T001_1hao
v 58.458 86.029 0.000
v 73.524 86.103 0.000
v 73.501 90.282 0.000
v 84.760 90.337 0.000
v 84.738 94.831 0.000
v 97.709 94.896 0.000
v 97.575 123.303 0.000
v 69.379 123.155 0.000
v 69.417 115.743 0.000
v 58.308 115.687 0.000
v 58.458 86.029 6.600
v 73.524 86.103 6.600
v 73.501 90.282 6.600
v 84.760 90.337 6.600
v 84.738 94.831 6.600
v 97.709 94.896 6.600
v 97.575 123.303 6.600
v 69.379 123.155 6.600
v 69.417 115.743 6.600
v 58.308 115.687 6.600
usemtl roof
f 25 26 27 28 29 30 31 32 33 34
usemtl teaching_building
f 24 23 22 21 20 19 18 17 16 15
f 15 16 26 25
f 16 17 27 26
f 17 18 28 27
f 18 19 29 28
f 19 20 30 29
f 20 21 31 30
f 21 22 32 31
f 22 23 33 32
f 23 24 34 33
f 24 15 25 34
o SD0598_T002_2hao
v 58.742 48.282 0.000
v 60.298 46.577 0.000
v 86.413 46.679 0.000
v 86.391 49.912 0.000
v 96.123 49.949 0.000
v 96.041 70.213 0.000
v 58.652 70.065 0.000
v 58.742 48.282 6.600
v 60.298 46.577 6.600
v 86.413 46.679 6.600
v 86.391 49.912 6.600
v 96.123 49.949 6.600
v 96.041 70.213 6.600
v 58.652 70.065 6.600
usemtl roof
f 42 43 44 45 46 47 48
usemtl teaching_building
f 41 40 39 38 37 36 35
f 35 36 43 42
f 36 37 44 43
f 37 38 45 44
f 38 39 46 45
f 39 40 47 46
f 40 41 48 47
f 41 35 42 48
o SD0598_T003_3hao
v -8.264 -41.296 0.000
v -21.318 -41.564 0.000
v -31.499 -60.595 0.000
v -31.402 -49.144 0.000
v -27.003 -38.396 0.000
v -34.080 -32.892 0.000
v -20.749 -16.622 0.000
v -19.642 -13.314 0.000
v -19.365 -4.364 0.000
v -13.425 -4.336 0.000
v -55.924 -4.531 0.000
v -55.924 14.621 0.000
v -19.036 13.694 0.000
v -39.459 14.213 0.000
v -32.554 42.769 0.000
v -13.425 37.858 0.000
v -51.802 47.717 0.000
v -47.313 65.367 0.000
v -1.262 54.591 0.000
v 0.803 52.358 0.000
v 1.925 47.522 0.000
v -7.637 3.301 0.000
v -7.620 3.345 0.000
v 4.663 -0.278 0.000
v -1.351 -11.378 0.000
v 6.960 3.956 0.000
v 13.296 6.708 0.000
v 37.047 7.885 0.000
v 37.638 -18.846 0.000
v 36.053 -24.349 0.000
v 32.888 -28.482 0.000
v 28.138 -30.641 0.000
v 23.806 -30.916 0.000
v 23.657 -57.140 0.000
v -7.149 -56.732 0.000
v -8.264 -41.296 6.600
v -21.318 -41.564 6.600
v -31.499 -60.595 6.600
v -31.402 -49.144 6.600
v -27.003 -38.396 6.600
v -34.080 -32.892 6.600
v -20.749 -16.622 6.600
v -19.642 -13.314 6.600
v -19.365 -4.364 6.600
v -13.425 -4.336 6.600
v -55.924 -4.531 6.600
v -55.924 14.621 6.600
v -19.036 13.694 6.600
v -39.459 14.213 6.600
v -32.554 42.769 6.600
v -13.425 37.858 6.600
v -51.802 47.717 6.600
v -47.313 65.367 6.600
v -1.262 54.591 6.600
v 0.803 52.358 6.600
v 1.925 47.522 6.600
v -7.637 3.301 6.600
v -7.620 3.345 6.600
v 4.663 -0.278 6.600
v -1.351 -11.378 6.600
v 6.960 3.956 6.600
v 13.296 6.708 6.600
v 37.047 7.885 6.600
v 37.638 -18.846 6.600
v 36.053 -24.349 6.600
v 32.888 -28.482 6.600
v 28.138 -30.641 6.600
v 23.806 -30.916 6.600
v 23.657 -57.140 6.600
v -7.149 -56.732 6.600
usemtl roof
f 84 85 86 87 88 89 90 91 92 93 94 95 96 97 98 99 100 101 102 103 104 105 106 107 108 109 110 111 112 113 114 115 116 117 118
usemtl teaching_building
f 83 82 81 80 79 78 77 76 75 74 73 72 71 70 69 68 67 66 65 64 63 62 61 60 59 58 57 56 55 54 53 52 51 50 49
f 49 50 85 84
f 50 51 86 85
f 51 52 87 86
f 52 53 88 87
f 53 54 89 88
f 54 55 90 89
f 55 56 91 90
f 56 57 92 91
f 57 58 93 92
f 58 59 94 93
f 59 60 95 94
f 60 61 96 95
f 61 62 97 96
f 62 63 98 97
f 63 64 99 98
f 64 65 100 99
f 65 66 101 100
f 66 67 102 101
f 67 68 103 102
f 68 69 104 103
f 69 70 105 104
f 70 71 106 105
f 71 72 107 106
f 72 73 108 107
f 73 74 109 108
f 74 75 110 109
f 75 76 111 110
f 76 77 112 111
f 77 78 113 112
f 78 79 114 113
f 79 80 115 114
f 80 81 116 115
f 81 82 117 116
f 82 83 118 117
f 83 49 84 118
o SD0598_T003_3hao_seg02
v -1.262 54.591 0.000
v -21.527 59.335 0.000
v -11.361 69.277 0.000
v -11.922 97.898 0.000
v -48.249 97.898 0.000
v -52.363 96.786 0.000
v -55.737 94.377 0.000
v -57.794 90.652 0.000
v -62.664 50.311 0.000
v -82.503 52.173 0.000
v -75.950 104.597 0.000
v -73.145 110.545 0.000
v -70.152 114.075 0.000
v -62.851 117.976 0.000
v -4.628 118.726 0.000
v -4.246 97.898 0.000
v 0.803 97.898 0.000
v 1.364 62.031 0.000
v -1.262 54.591 6.600
v -21.527 59.335 6.600
v -11.361 69.277 6.600
v -11.922 97.898 6.600
v -48.249 97.898 6.600
v -52.363 96.786 6.600
v -55.737 94.377 6.600
v -57.794 90.652 6.600
v -62.664 50.311 6.600
v -82.503 52.173 6.600
v -75.950 104.597 6.600
v -73.145 110.545 6.600
v -70.152 114.075 6.600
v -62.851 117.976 6.600
v -4.628 118.726 6.600
v -4.246 97.898 6.600
v 0.803 97.898 6.600
v 1.364 62.031 6.600
usemtl roof
f 137 138 139 140 141 142 143 144 145 146 147 148 149 150 151 152 153 154
usemtl teaching_building
f 136 135 134 133 132 131 130 129 128 127 126 125 124 123 122 121 120 119
f 119 120 138 137
f 120 121 139 138
f 121 122 140 139
f 122 123 141 140
f 123 124 142 141
f 124 125 143 142
f 125 126 144 143
f 126 127 145 144
f 127 128 146 145
f 128 129 147 146
f 129 130 148 147
f 130 131 149 148
f 131 132 150 149
f 132 133 151 150
f 133 134 152 151
f 134 135 153 152
f 135 136 154 153
f 136 119 137 154
o SD0598_T003_3hao_seg03
v -63.973 -69.212 0.000
v -65.469 -94.118 0.000
v -32.150 -97.842 0.000
v -33.272 -116.799 0.000
v -74.080 -112.713 0.000
v -78.015 -109.924 0.000
v -79.892 -106.950 0.000
v -73.519 -53.415 0.000
v -70.152 -50.255 0.000
v -66.591 -49.144 0.000
v -31.402 -49.144 0.000
v -31.589 -69.954 0.000
v -63.973 -69.212 6.600
v -65.469 -94.118 6.600
v -32.150 -97.842 6.600
v -33.272 -116.799 6.600
v -74.080 -112.713 6.600
v -78.015 -109.924 6.600
v -79.892 -106.950 6.600
v -73.519 -53.415 6.600
v -70.152 -50.255 6.600
v -66.591 -49.144 6.600
v -31.402 -49.144 6.600
v -31.589 -69.954 6.600
usemtl roof
f 167 168 169 170 171 172 173 174 175 176 177 178
usemtl teaching_building
f 166 165 164 163 162 161 160 159 158 157 156 155
f 155 156 168 167
f 156 157 169 168
f 157 158 170 169
f 158 159 171 170
f 159 160 172 171
f 160 161 173 172
f 161 162 174 173
f 162 163 175 174
f 163 164 176 175
f 164 165 177 176
f 165 166 178 177
f 166 155 167 178
o SD0598_T004_4hao
v 50.109 -26.314 0.000
v 51.298 -28.278 0.000
v 55.854 -30.048 0.000
v 92.862 -32.799 0.000
v 100.380 -29.649 0.000
v 101.367 -26.518 0.000
v 101.367 1.195 0.000
v 98.405 6.106 0.000
v 95.435 8.672 0.000
v 48.329 7.690 0.000
v 50.109 -26.314 6.600
v 51.298 -28.278 6.600
v 55.854 -30.048 6.600
v 92.862 -32.799 6.600
v 100.380 -29.649 6.600
v 101.367 -26.518 6.600
v 101.367 1.195 6.600
v 98.405 6.106 6.600
v 95.435 8.672 6.600
v 48.329 7.690 6.600
usemtl roof
f 189 190 191 192 193 194 195 196 197 198
usemtl teaching_building
f 188 187 186 185 184 183 182 181 180 179
f 179 180 190 189
f 180 181 191 190
f 181 182 192 191
f 182 183 193 192
f 183 184 194 193
f 184 185 195 194
f 185 186 196 195
f 186 187 197 196
f 187 188 198 197
f 188 179 189 198
o SD0598_T005_5hao
v -11.076 -166.295 0.000
v -5.810 -162.663 0.000
v -3.386 -159.448 0.000
v -1.965 -154.815 0.000
v 1.678 -101.724 0.000
v -18.782 -100.918 0.000
v -24.048 -140.945 0.000
v -28.305 -144.966 0.000
v -81.164 -147.986 0.000
v -81.770 -168.305 0.000
v -11.076 -166.295 6.600
v -5.810 -162.663 6.600
v -3.386 -159.448 6.600
v -1.965 -154.815 6.600
v 1.678 -101.724 6.600
v -18.782 -100.918 6.600
v -24.048 -140.945 6.600
v -28.305 -144.966 6.600
v -81.164 -147.986 6.600
v -81.770 -168.305 6.600
usemtl roof
f 209 210 211 212 213 214 215 216 217 218
usemtl teaching_building
f 208 207 206 205 204 203 202 201 200 199
f 199 200 210 209
f 200 201 211 210
f 201 202 212 211
f 202 203 213 212
f 203 204 214 213
f 204 205 215 214
f 205 206 216 215
f 206 207 217 216
f 207 208 218 217
f 208 199 209 218
