# school_id SD0590
# school_name 潍坊体育运动学校
# boundary_source footprint_convex_hull_buffer_20m
# adjacent_block_merge_distance_m 2.0
mtllib ../campus_materials.mtl
o SD0590_campus_boundary
usemtl campus_boundary
v 5.024 -117.429 0.050
v -97.069 -116.375 0.050
v -97.799 -49.198 0.050
v -97.599 -29.330 0.050
v -58.681 276.886 0.050
v 34.641 275.947 0.050
v 168.019 -28.733 0.050
v 167.725 -64.916 0.050
v 5.024 -117.429 0.050
l 1 2 3 4 5 6 7 8 9 1
o SD0590_T001_1hao
v 21.506 256.078 0.000
v 21.337 239.121 0.000
v -41.254 239.729 0.000
v -41.085 256.708 0.000
v 21.506 256.078 23.550
v 21.337 239.121 23.550
v -41.254 239.729 23.550
v -41.085 256.708 23.550
usemtl roof
f 14 15 16 17
usemtl teaching_building
f 13 12 11 10
f 10 11 15 14
f 11 12 16 15
f 12 13 17 16
f 13 10 14 17
o SD0590_T002_2hao
v 15.218 172.288 0.000
v 15.858 108.308 0.000
v -33.954 107.810 0.000
v -34.585 171.791 0.000
v 15.218 172.288 19.350
v 15.858 108.308 19.350
v -33.954 107.810 19.350
v -34.585 171.791 19.350
usemtl roof
f 22 23 24 25
usemtl teaching_building
f 21 20 19 18
f 18 19 23 22
f 19 20 24 23
f 20 21 25 24
f 21 18 22 25
o SD0590_T003_3hao
v 147.985 -32.841 0.000
v 147.843 -50.317 0.000
v 54.498 -49.610 0.000
v 54.631 -32.111 0.000
v 147.985 -32.841 25.350
v 147.843 -50.317 25.350
v 54.498 -49.610 25.350
v 54.631 -32.111 25.350
usemtl roof
f 30 31 32 33
usemtl teaching_building
f 29 28 27 26
f 26 27 31 30
f 27 28 32 31
f 28 29 33 32
f 29 26 30 33
o SD0590_T004_4hao
v 1.977 -97.396 0.000
v -77.283 -96.578 0.000
v -77.088 -78.074 0.000
v -6.140 -78.813 0.000
v -5.358 -49.930 0.000
v 3.079 -50.008 0.000
v 2.492 -78.903 0.000
v 1.977 -97.396 24.750
v -77.283 -96.578 24.750
v -77.088 -78.074 24.750
v -6.140 -78.813 24.750
v -5.358 -49.930 24.750
v 3.079 -50.008 24.750
v 2.492 -78.903 24.750
usemtl roof
f 41 42 43 44 45 46 47
usemtl teaching_building
f 40 39 38 37 36 35 34
f 34 35 42 41
f 35 36 43 42
f 36 37 44 43
f 37 38 45 44
f 38 39 46 45
f 39 40 47 46
f 40 34 41 47
o SD0590_T004_4hao_seg02
v -77.798 -49.190 0.000
v -77.612 -30.696 0.000
v 3.274 -31.525 0.000
v 3.079 -50.008 0.000
v -77.798 -49.190 24.750
v -77.612 -30.696 24.750
v 3.274 -31.525 24.750
v 3.079 -50.008 24.750
usemtl roof
f 52 53 54 55
usemtl teaching_building
f 51 50 49 48
f 48 49 53 52
f 49 50 54 53
f 50 51 55 54
f 51 48 52 55
