# school_id SD0542
# school_name 昌乐县营丘镇崔家庄小学
# boundary_source footprint_convex_hull_buffer_20m
# adjacent_block_merge_distance_m 2.0
mtllib ../campus_materials.mtl
o SD0542_campus_boundary
usemtl campus_boundary
v -26.477 -88.936 0.050
v -35.217 -7.374 0.050
v -40.652 54.709 0.050
v -7.981 58.283 0.050
v 48.017 60.527 0.050
v 51.269 31.249 0.050
v 56.322 -20.529 0.050
v 21.300 -85.145 0.050
v -26.477 -88.936 0.050
l 1 2 3 4 5 6 7 8 9 1
o SD0542_T001_1hao
v -17.563 23.802 0.000
v 31.377 29.174 0.000
v 30.197 39.797 0.000
v -6.214 35.795 0.000
v -6.491 38.327 0.000
v -19.021 36.956 0.000
v -17.563 23.802 23.390
v 31.377 29.174 23.390
v 30.197 39.797 23.390
v -6.214 35.795 23.390
v -6.491 38.327 23.390
v -19.021 36.956 23.390
usemtl roof
f 16 17 18 19 20 21
usemtl teaching_building
f 15 14 13 12 11 10
f 10 11 17 16
f 11 12 18 17
f 12 13 19 18
f 13 14 20 19
f 14 15 21 20
f 15 10 16 21
o SD0542_T002_2hao
v -13.118 -21.741 0.000
v 35.822 -16.380 0.000
v 34.642 -5.757 0.000
v -1.769 -9.747 0.000
v -2.046 -7.216 0.000
v -14.576 -8.587 0.000
v -13.118 -21.741 9.830
v 35.822 -16.380 9.830
v 34.642 -5.757 9.830
v -1.769 -9.747 9.830
v -2.046 -7.216 9.830
v -14.576 -8.587 9.830
usemtl roof
f 28 29 30 31 32 33
usemtl teaching_building
f 27 26 25 24 23 22
f 22 23 29 28
f 23 24 30 29
f 24 25 31 30
f 25 26 32 31
f 26 27 33 32
f 27 22 28 33
o SD0542_T003_3hao
v -8.664 -67.460 0.000
v 8.892 -66.067 0.000
v 7.300 -46.259 0.000
v -10.265 -47.651 0.000
v -8.664 -67.460 8.980
v 8.892 -66.067 8.980
v 7.300 -46.259 8.980
v -10.265 -47.651 8.980
usemtl roof
f 38 39 40 41
usemtl teaching_building
f 37 36 35 34
f 34 35 39 38
f 35 36 40 39
f 36 37 41 40
f 37 34 38 41
