# school_id SD0500
# school_name 金东小学
# boundary_source footprint_convex_hull_buffer_20m
# adjacent_block_merge_distance_m 2.0
mtllib ../campus_materials.mtl
o SD0500_campus_boundary
usemtl campus_boundary
v 41.407 -36.799 0.050
v -45.851 -31.162 0.050
v -41.407 36.799 0.050
v 45.851 31.162 0.050
v 41.407 -36.799 0.050
l 1 2 3 4 5 1
o SD0500_T001_1hao
v 22.754 -15.552 0.000
v 24.588 12.494 0.000
v -22.754 15.552 0.000
v -24.588 -12.494 0.000
v 22.754 -15.552 9.900
v 24.588 12.494 9.900
v -22.754 15.552 9.900
v -24.588 -12.494 9.900
usemtl roof
f 10 11 12 13
usemtl teaching_building
f 9 8 7 6
f 6 7 11 10
f 7 8 12 11
f 8 9 13 12
f 9 6 10 13
