# school_id SD0594
# school_name 潍坊华洋水运学校(东校区)
# boundary_source footprint_convex_hull_buffer_20m
# adjacent_block_merge_distance_m 2.0
mtllib ../campus_materials.mtl
o SD0594_campus_boundary
usemtl campus_boundary
v 94.977 -90.550 0.050
v -95.700 -90.350 0.050
v -95.930 2.184 0.050
v -93.743 122.935 0.050
v 96.248 121.882 0.050
v 96.713 19.130 0.050
v 94.977 -90.550 0.050
l 1 2 3 4 5 6 7 1
o SD0594_T001_1hao
v -61.459 48.401 0.000
v -60.891 102.687 0.000
v -74.104 102.826 0.000
v -74.665 48.540 0.000
v -61.459 48.401 9.900
v -60.891 102.687 9.900
v -74.104 102.826 9.900
v -74.665 48.540 9.900
usemtl roof
f 12 13 14 15
usemtl teaching_building
f 11 10 9 8
f 8 9 13 12
f 9 10 14 13
f 10 11 15 14
f 11 8 12 15
o SD0594_T002_2hao
v 60.439 19.179 0.000
v 76.712 19.243 0.000
v 76.338 101.992 0.000
v 60.095 101.927 0.000
v 60.439 19.179 9.900
v 76.712 19.243 9.900
v 76.338 101.992 9.900
v 60.095 101.927 9.900
usemtl roof
f 20 21 22 23
usemtl teaching_building
f 19 18 17 16
f 16 17 21 20
f 17 18 22 21
f 18 19 23 22
f 19 16 20 23
o SD0594_T003_3hao
v -75.750 -70.371 0.000
v -18.580 -70.232 0.000
v -18.617 -54.805 0.000
v -58.878 -54.917 0.000
v -58.990 -14.362 0.000
v -17.629 -14.251 0.000
v -17.674 2.177 0.000
v -75.930 2.028 0.000
v -75.750 -70.371 9.900
v -18.580 -70.232 9.900
v -18.617 -54.805 9.900
v -58.878 -54.917 9.900
v -58.990 -14.362 9.900
v -17.629 -14.251 9.900
v -17.674 2.177 9.900
v -75.930 2.028 9.900
usemtl roof
f 32 33 34 35 36 37 38 39
usemtl teaching_building
f 31 30 29 28 27 26 25 24
f 24 25 33 32
f 25 26 34 33
f 26 27 35 34
f 27 28 36 35
f 28 29 37 36
f 29 30 38 37
f 30 31 39 38
f 31 24 32 39
o SD0594_T004_4hao
v 75.291 -70.529 0.000
v 75.612 2.121 0.000
v 18.210 2.362 0.000
v 18.135 -12.954 0.000
v 59.608 -13.148 0.000
v 59.421 -53.925 0.000
v 16.691 -53.721 0.000
v 16.616 -70.269 0.000
v 75.291 -70.529 9.900
v 75.612 2.121 9.900
v 18.210 2.362 9.900
v 18.135 -12.954 9.900
v 59.608 -13.148 9.900
v 59.421 -53.925 9.900
v 16.691 -53.721 9.900
v 16.616 -70.269 9.900
usemtl roof
f 48 49 50 51 52 53 54 55
usemtl teaching_building
f 47 46 45 44 43 42 41 40
f 40 41 49 48
f 41 42 50 49
f 42 43 51 50
f 43 44 52 51
f 44 45 53 52
f 45 46 54 53
f 46 47 55 54
f 47 40 48 55
