# school_id SD0522
# school_name 城关小学
# boundary_source footprint_convex_hull_buffer_20m
# adjacent_block_merge_distance_m 2.0
mtllib ../campus_materials.mtl
o SD0522_campus_boundary
usemtl campus_boundary
v -2.131 -104.756 0.050
v -65.026 -96.673 0.050
v -149.786 -45.073 0.050
v -143.429 15.080 0.050
v -140.512 32.924 0.050
v -131.119 88.984 0.050
v 19.610 78.220 0.050
v 50.720 74.276 0.050
v 105.039 64.692 0.050
v 122.469 12.291 0.050
v 119.099 -12.179 0.050
v 92.502 -49.738 0.050
v -2.131 -104.756 0.050
l 1 2 3 4 5 6 7 8 9 10 11 12 13 1
o SD0522_T001_1hao
v -117.219 50.484 0.000
v -66.438 42.315 0.000
v -63.619 59.570 0.000
v -114.400 67.739 0.000
v -117.219 50.484 16.300
v -66.438 42.315 16.300
v -63.619 59.570 16.300
v -114.400 67.739 16.300
usemtl roof
f 18 19 20 21
usemtl teaching_building
f 17 16 15 14
f 14 15 19 18
f 15 16 20 19
f 16 17 21 20
f 17 14 18 21
o SD0522_T002_2hao
v -24.883 -8.511 0.000
v -29.571 -7.892 0.000
v -28.865 -2.841 0.000
v -31.692 -2.542 0.000
v -30.189 11.375 0.000
v -48.201 13.298 0.000
v -46.421 29.835 0.000
v -29.938 28.088 0.000
v -28.312 43.133 0.000
v -34.833 43.133 0.000
v -32.489 61.405 0.000
v 17.236 55.115 0.000
v 17.639 58.310 0.000
v 47.723 54.496 0.000
v 47.454 52.440 0.000
v 89.824 47.068 0.000
v 87.345 27.768 0.000
v 84.061 27.469 0.000
v 46.819 32.908 0.000
v 46.327 29.017 0.000
v 14.677 33.030 0.000
v 15.160 36.810 0.000
v -23.326 43.133 0.000
v -25.088 26.817 0.000
v -17.706 26.032 0.000
v -20.936 -3.990 0.000
v -24.319 -3.637 0.000
v -24.883 -8.511 9.140
v -29.571 -7.892 9.140
v -28.865 -2.841 9.140
v -31.692 -2.542 9.140
v -30.189 11.375 9.140
v -48.201 13.298 9.140
v -46.421 29.835 9.140
v -29.938 28.088 9.140
v -28.312 43.133 9.140
v -34.833 43.133 9.140
v -32.489 61.405 9.140
v 17.236 55.115 9.140
v 17.639 58.310 9.140
v 47.723 54.496 9.140
v 47.454 52.440 9.140
v 89.824 47.068 9.140
v 87.345 27.768 9.140
v 84.061 27.469 9.140
v 46.819 32.908 9.140
v 46.327 29.017 9.140
v 14.677 33.030 9.140
v 15.160 36.810 9.140
v -23.326 43.133 9.140
v -25.088 26.817 9.140
v -17.706 26.032 9.140
v -20.936 -3.990 9.140
v -24.319 -3.637 9.140
usemtl roof
f 49 50 51 52 53 54 55 56 57 58 59 60 61 62 63 64 65 66 67 68 69 70 71 72 73 74 75
usemtl teaching_building
f 48 47 46 45 44 43 42 41 40 39 38 37 36 35 34 33 32 31 30 29 28 27 26 25 24 23 22
f 22 23 50 49
f 23 24 51 50
f 24 25 52 51
f 25 26 53 52
f 26 27 54 53
f 27 28 55 54
f 28 29 56 55
f 29 30 57 56
f 30 31 58 57
f 31 32 59 58
f 32 33 60 59
f 33 34 61 60
f 34 35 62 61
f 35 36 63 62
f 36 37 64 63
f 37 38 65 64
f 38 39 66 65
f 39 40 67 66
f 40 41 68 67
f 41 42 69 68
f 42 43 70 69
f 43 44 71 70
f 44 45 72 71
f 45 46 73 72
f 46 47 74 73
f 47 48 75 74
f 48 22 49 75
o SD0522_T002_2hao_seg02
v 81.905 -26.994 0.000
v 81.708 -29.846 0.000
v 78.692 -34.632 0.000
v 73.350 -36.589 0.000
v 67.919 -34.897 0.000
v 65.905 -32.852 0.000
v 64.321 -27.425 0.000
v 64.930 -24.628 0.000
v 68.617 -20.328 0.000
v 72.808 -19.488 0.000
v 71.301 -19.278 0.000
v 71.766 -15.840 0.000
v 67.462 -15.265 0.000
v 71.489 14.028 0.000
v 80.017 12.878 0.000
v 82.057 27.735 0.000
v 84.061 27.469 0.000
v 82.092 13.099 0.000
v 102.020 10.402 0.000
v 99.953 -4.609 0.000
v 82.522 -2.244 0.000
v 80.562 -16.537 0.000
v 77.815 -16.161 0.000
v 77.260 -20.107 0.000
v 75.756 -19.898 0.000
v 79.551 -21.843 0.000
v 81.905 -26.994 9.140
v 81.708 -29.846 9.140
v 78.692 -34.632 9.140
v 73.350 -36.589 9.140
v 67.919 -34.897 9.140
v 65.905 -32.852 9.140
v 64.321 -27.425 9.140
v 64.930 -24.628 9.140
v 68.617 -20.328 9.140
v 72.808 -19.488 9.140
v 71.301 -19.278 9.140
v 71.766 -15.840 9.140
v 67.462 -15.265 9.140
v 71.489 14.028 9.140
v 80.017 12.878 9.140
v 82.057 27.735 9.140
v 84.061 27.469 9.140
v 82.092 13.099 9.140
v 102.020 10.402 9.140
v 99.953 -4.609 9.140
v 82.522 -2.244 9.140
v 80.562 -16.537 9.140
v 77.815 -16.161 9.140
v 77.260 -20.107 9.140
v 75.756 -19.898 9.140
v 79.551 -21.843 9.140
usemtl roof
f 102 103 104 105 106 107 108 109 110 111 112 113 114 115 116 117 118 119 120 121 122 123 124 125 126 127
usemtl teaching_building
f 101 100 99 98 97 96 95 94 93 92 91 90 89 88 87 86 85 84 83 82 81 80 79 78 77 76
f 76 77 103 102
f 77 78 104 103
f 78 79 105 104
f 79 80 106 105
f 80 81 107 106
f 81 82 108 107
f 82 83 109 108
f 83 84 110 109
f 84 85 111 110
f 85 86 112 111
f 86 87 113 112
f 87 88 114 113
f 88 89 115 114
f 89 90 116 115
f 90 91 117 116
f 91 92 118 117
f 92 93 119 118
f 93 94 120 119
f 94 95 121 120
f 95 96 122 121
f 96 97 123 122
f 97 98 124 123
f 98 99 125 124
f 99 100 126 125
f 100 101 127 126
f 101 76 102 127
o SD0522_T003_3hao
v -123.599 12.414 0.000
v -72.818 4.245 0.000
v -69.999 21.500 0.000
v -120.780 29.658 0.000
v -123.599 12.414 12.570
v -72.818 4.245 12.570
v -69.999 21.500 12.570
v -120.780 29.658 12.570
usemtl roof
f 132 133 134 135
usemtl teaching_building
f 131 130 129 128
f 128 129 133 132
f 129 130 134 133
f 130 131 135 134
f 131 128 132 135
o SD0522_T004_4hao
v -125.719 -13.187 0.000
v -128.565 -34.577 0.000
v -91.197 -38.346 0.000
v -89.291 -17.277 0.000
v -125.719 -13.187 11.190
v -128.565 -34.577 11.190
v -91.197 -38.346 11.190
v -89.291 -17.277 11.190
usemtl roof
f 140 141 142 143
usemtl teaching_building
f 139 138 137 136
f 136 137 141 140
f 137 138 142 141
f 138 139 143 142
f 139 136 140 143
o SD0522_T005_5hao
v -58.259 -77.378 0.000
v -6.315 -84.054 0.000
v -3.658 -63.660 0.000
v -55.602 -56.994 0.000
v -58.259 -77.378 12.680
v -6.315 -84.054 12.680
v -3.658 -63.660 12.680
v -55.602 -56.994 12.680
usemtl roof
f 148 149 150 151
usemtl teaching_building
f 147 146 145 144
f 144 145 149 148
f 145 146 150 149
f 146 147 151 150
f 147 144 148 151
