# school_id SD0511
# school_name 鲁峰小学
# boundary_source footprint_convex_hull_buffer_20m
# adjacent_block_merge_distance_m 2.0
mtllib ../campus_materials.mtl
o SD0511_campus_boundary
usemtl campus_boundary
v 39.192 -51.706 0.050
v -38.260 -37.306 0.050
v -51.412 10.998 0.050
v -42.622 48.420 0.050
v 42.536 28.723 0.050
v 48.239 -3.770 0.050
v 39.192 -51.706 0.050
l 1 2 3 4 5 6 7 1
o SD0511_T001_1hao
v -22.261 -19.938 0.000
v -17.574 4.828 0.000
v 27.910 -3.640 0.000
v 23.238 -28.397 0.000
v -22.261 -19.938 9.900
v -17.574 4.828 9.900
v 27.910 -3.640 9.900
v 23.238 -28.397 9.900
usemtl roof
f 12 13 14 15
usemtl teaching_building
f 11 10 9 8
f 8 9 13 12
f 9 10 14 13
f 10 11 15 14
f 11 8 12 15
o SD0511_T001_1hao_seg02
v -30.783 11.360 0.000
v -27.710 24.443 0.000
v 25.126 12.222 0.000
v 22.053 -0.879 0.000
v -30.783 11.360 9.900
v -27.710 24.443 9.900
v 25.126 12.222 9.900
v 22.053 -0.879 9.900
usemtl roof
f 20 21 22 23
usemtl teaching_building
f 19 18 17 16
f 16 17 21 20
f 17 18 22 21
f 18 19 23 22
f 19 16 20 23
