# school_id SD0599
# school_name 潍坊新华中学
# boundary_source footprint_convex_hull_buffer_20m
# adjacent_block_merge_distance_m 2.0
mtllib ../campus_materials.mtl
o SD0599_campus_boundary
usemtl campus_boundary
v 20.958 -112.102 0.050
v 3.476 -111.316 0.050
v -61.772 -9.205 0.050
v -64.828 7.157 0.050
v -64.491 38.021 0.050
v -64.017 41.848 0.050
v -60.025 67.048 0.050
v -11.761 72.600 0.050
v 10.572 72.738 0.050
v 109.722 -4.031 0.050
v 109.917 -31.371 0.050
v 110.226 -111.943 0.050
v 20.958 -112.102 0.050
l 1 2 3 4 5 6 7 8 9 10 11 12 13 1
o SD0599_T001_1hao
v 18.212 7.197 0.000
v 17.945 -1.712 0.000
v -42.826 -1.712 0.000
v -42.469 6.965 0.000
v -44.237 7.319 0.000
v -44.808 8.900 0.000
v -43.514 10.768 0.000
v -33.616 10.768 0.000
v -33.616 7.352 0.000
v -15.864 7.441 0.000
v -15.748 32.323 0.000
v -11.989 32.317 0.000
v -38.524 32.522 0.000
v -38.524 35.783 0.000
v -44.504 36.679 0.000
v -44.210 39.055 0.000
v -41.987 39.475 0.000
v -42.648 48.915 0.000
v -23.200 49.037 0.000
v -23.263 48.329 0.000
v -20.210 48.329 0.000
v -19.068 50.584 0.000
v -17.336 51.237 0.000
v -15.542 49.512 0.000
v -12.740 49.490 0.000
v -12.517 51.281 0.000
v -10.553 52.607 0.000
v 3.789 52.696 0.000
v 5.557 51.027 0.000
v 5.557 41.586 0.000
v -15.658 41.675 0.000
v -7.099 41.609 0.000
v -7.072 32.279 0.000
v -8.866 32.293 0.000
v -8.866 7.087 0.000
v 18.212 7.197 16.260
v 17.945 -1.712 16.260
v -42.826 -1.712 16.260
v -42.469 6.965 16.260
v -44.237 7.319 16.260
v -44.808 8.900 16.260
v -43.514 10.768 16.260
v -33.616 10.768 16.260
v -33.616 7.352 16.260
v -15.864 7.441 16.260
v -15.748 32.323 16.260
v -11.989 32.317 16.260
v -38.524 32.522 16.260
v -38.524 35.783 16.260
v -44.504 36.679 16.260
v -44.210 39.055 16.260
v -41.987 39.475 16.260
v -42.648 48.915 16.260
v -23.200 49.037 16.260
v -23.263 48.329 16.260
v -20.210 48.329 16.260
v -19.068 50.584 16.260
v -17.336 51.237 16.260
v -15.542 49.512 16.260
v -12.740 49.490 16.260
v -12.517 51.281 16.260
v -10.553 52.607 16.260
v 3.789 52.696 16.260
v 5.557 51.027 16.260
v 5.557 41.586 16.260
v -15.658 41.675 16.260
v -7.099 41.609 16.260
v -7.072 32.279 16.260
v -8.866 32.293 16.260
v -8.866 7.087 16.260
usemtl roof
f 49 50 51 52 53 54 55 56 57 58 59 60 61 62 63 64 65 66 67 68 69 70 71 72 73 74 75 76 77 78 79 80 81 82 83
usemtl teaching_building
f 48 47 46 45 44 43 42 41 40 39 38 37 36 35 34 33 32 31 30 29 28 27 26 25 24 23 22 21 20 19 18 17 16 15 14
f 14 15 50 49
f 15 16 51 50
f 16 17 52 51
f 17 18 53 52
f 18 19 54 53
f 19 20 55 54
f 20 21 56 55
f 21 22 57 56
f 22 23 58 57
f 23 24 59 58
f 24 25 60 59
f 25 26 61 60
f 26 27 62 61
f 27 28 63 62
f 28 29 64 63
f 29 30 65 64
f 30 31 66 65
f 31 32 67 66
f 32 33 68 67
f 33 34 69 68
f 34 35 70 69
f 35 36 71 70
f 36 37 72 71
f 37 38 73 72
f 38 39 74 73
f 39 40 75 74
f 40 41 76 75
f 41 42 77 76
f 42 43 78 77
f 43 44 79 78
f 44 45 80 79
f 45 46 81 80
f 46 47 82 81
f 47 48 83 82
f 48 14 49 83
o SD0599_T002_2hao
v 29.824 -31.956 0.000
v 89.917 -31.480 0.000
v 89.792 -13.894 0.000
v 30.065 -14.247 0.000
v 29.824 -31.956 24.230
v 89.917 -31.480 24.230
v 89.792 -13.894 24.230
v 30.065 -14.247 24.230
usemtl roof
f 88 89 90 91
usemtl teaching_building
f 87 86 85 84
f 84 85 89 88
f 85 86 90 89
f 86 87 91 90
f 87 84 88 91
o SD0599_T003_3hao
v 14.741 -91.802 0.000
v 21.390 -92.101 0.000
v 21.390 -90.973 0.000
v 39.936 -90.973 0.000
v 39.936 -91.692 0.000
v 43.230 -91.802 0.000
v 83.330 -90.973 0.000
v 83.330 -91.868 0.000
v 90.149 -91.979 0.000
v 89.854 -69.396 0.000
v 15.160 -69.462 0.000
v 14.741 -91.802 25.400
v 21.390 -92.101 25.400
v 21.390 -90.973 25.400
v 39.936 -90.973 25.400
v 39.936 -91.692 25.400
v 43.230 -91.802 25.400
v 83.330 -90.973 25.400
v 83.330 -91.868 25.400
v 90.149 -91.979 25.400
v 89.854 -69.396 25.400
v 15.160 -69.462 25.400
usemtl roof
f 103 104 105 106 107 108 109 110 111 112 113
usemtl teaching_building
f 102 101 100 99 98 97 96 95 94 93 92
f 92 93 104 103
f 93 94 105 104
f 94 95 106 105
f 95 96 107 106
f 96 97 108 107
f 97 98 109 108
f 98 99 110 109
f 99 100 111 110
f 100 101 112 111
f 101 102 113 112
f 102 92 103 113
