# school_id SD0521
# school_name 城关中学
# boundary_source footprint_convex_hull_buffer_20m
# adjacent_block_merge_distance_m 2.0
mtllib ../campus_materials.mtl
o SD0521_campus_boundary
usemtl campus_boundary
v -0.457 -122.729 0.050
v -149.138 -117.417 0.050
v -210.901 -110.557 0.050
v -203.932 -48.755 0.050
v -89.015 109.905 0.050
v -25.257 106.652 0.050
v 82.207 95.923 0.050
v 77.627 -68.988 0.050
v 73.809 -108.831 0.050
v -0.457 -122.729 0.050
l 1 2 3 4 5 6 7 8 9 10 1
o SD0521_T001_1hao
v 33.924 -29.508 0.000
v 38.344 -29.773 0.000
v 38.236 -31.785 0.000
v 49.305 -32.758 0.000
v 47.909 -48.454 0.000
v -41.302 -40.628 0.000
v -40.407 -30.635 0.000
v -48.666 -29.906 0.000
v -48.499 -28.029 0.000
v -49.498 -36.007 0.000
v -91.518 -30.823 0.000
v -89.397 -13.833 0.000
v -59.287 -17.558 0.000
v -54.527 20.456 0.000
v -85.711 24.314 0.000
v -83.733 40.144 0.000
v -55.735 36.673 0.000
v -51.726 68.586 0.000
v -81.335 72.255 0.000
v -79.188 89.378 0.000
v -36.041 84.039 0.000
v -36.460 80.697 0.000
v -27.468 79.805 0.000
v -26.761 86.703 0.000
v 61.698 77.871 0.000
v 60.356 64.606 0.000
v 46.952 65.944 0.000
v 46.352 63.888 0.000
v 45.784 63.898 0.000
v 47.703 63.556 0.000
v 51.354 61.091 0.000
v 53.430 57.211 0.000
v 53.627 54.271 0.000
v 51.184 48.976 0.000
v 45.976 46.312 0.000
v 40.223 47.395 0.000
v 36.375 51.728 0.000
v 35.713 54.580 0.000
v 37.243 60.151 0.000
v 41.887 63.633 0.000
v 43.867 63.934 0.000
v 43.373 63.943 0.000
v 43.901 66.132 0.000
v -37.266 74.267 0.000
v -37.261 74.312 0.000
v -41.740 38.618 0.000
v -36.032 37.911 0.000
v -39.494 10.342 0.000
v -43.628 10.862 0.000
v -48.018 -24.192 0.000
v 33.825 -31.387 0.000
v 33.924 -29.508 13.190
v 38.344 -29.773 13.190
v 38.236 -31.785 13.190
v 49.305 -32.758 13.190
v 47.909 -48.454 13.190
v -41.302 -40.628 13.190
v -40.407 -30.635 13.190
v -48.666 -29.906 13.190
v -48.499 -28.029 13.190
v -49.498 -36.007 13.190
v -91.518 -30.823 13.190
v -89.397 -13.833 13.190
v -59.287 -17.558 13.190
v -54.527 20.456 13.190
v -85.711 24.314 13.190
v -83.733 40.144 13.190
v -55.735 36.673 13.190
v -51.726 68.586 13.190
v -81.335 72.255 13.190
v -79.188 89.378 13.190
v -36.041 84.039 13.190
v -36.460 80.697 13.190
v -27.468 79.805 13.190
v -26.761 86.703 13.190
v 61.698 77.871 13.190
v 60.356 64.606 13.190
v 46.952 65.944 13.190
v 46.352 63.888 13.190
v 45.784 63.898 13.190
v 47.703 63.556 13.190
v 51.354 61.091 13.190
v 53.430 57.211 13.190
v 53.627 54.271 13.190
v 51.184 48.976 13.190
v 45.976 46.312 13.190
v 40.223 47.395 13.190
v 36.375 51.728 13.190
v 35.713 54.580 13.190
v 37.243 60.151 13.190
v 41.887 63.633 13.190
v 43.867 63.934 13.190
v 43.373 63.943 13.190
v 43.901 66.132 13.190
v -37.266 74.267 13.190
v -37.261 74.312 13.190
v -41.740 38.618 13.190
v -36.032 37.911 13.190
v -39.494 10.342 13.190
v -43.628 10.862 13.190
v -48.018 -24.192 13.190
v 33.825 -31.387 13.190
usemtl roof
f 62 63 64 65 66 67 68 69 70 71 72 73 74 75 76 77 78 79 80 81 82 83 84 85 86 87 88 89 90 91 92 93 94 95 96 97 98 99 100 101 102 103 104 105 106 107 108 109 110 111 112
usemtl teaching_building
f 61 60 59 58 57 56 55 54 53 52 51 50 49 48 47 46 45 44 43 42 41 40 39 38 37 36 35 34 33 32 31 30 29 28 27 26 25 24 23 22 21 20 19 18 17 16 15 14 13 12 11
f 11 12 63 62
f 12 13 64 63
f 13 14 65 64
f 14 15 66 65
f 15 16 67 66
f 16 17 68 67
f 17 18 69 68
f 18 19 70 69
f 19 20 71 70
f 20 21 72 71
f 21 22 73 72
f 22 23 74 73
f 23 24 75 74
f 24 25 76 75
f 25 26 77 76
f 26 27 78 77
f 27 28 79 78
f 28 29 80 79
f 29 30 81 80
f 30 31 82 81
f 31 32 83 82
f 32 33 84 83
f 33 34 85 84
f 34 35 86 85
f 35 36 87 86
f 36 37 88 87
f 37 38 89 88
f 38 39 90 89
f 39 40 91 90
f 40 41 92 91
f 41 42 93 92
f 42 43 94 93
f 43 44 95 94
f 44 45 96 95
f 45 46 97 96
f 46 47 98 97
f 47 48 99 98
f 48 49 100 99
f 49 50 101 100
f 50 51 102 101
f 51 52 103 102
f 52 53 104 103
f 53 54 105 104
f 54 55 106 105
f 55 56 107 106
f 56 57 108 107
f 57 58 109 108
f 58 59 110 109
f 59 60 111 110
f 60 61 112 111
f 61 11 62 112
o SD0521_T002_2hao
v -103.204 -74.564 0.000
v -57.426 -79.284 0.000
v -55.171 -57.729 0.000
v -100.949 -53.008 0.000
v -103.204 -74.564 11.750
v -57.426 -79.284 11.750
v -55.171 -57.729 11.750
v -100.949 -53.008 11.750
usemtl roof
f 117 118 119 120
usemtl teaching_building
f 116 115 114 113
f 113 114 118 117
f 114 115 119 118
f 115 116 120 119
f 116 113 117 120
o SD0521_T003_3hao
v -143.541 -60.790 0.000
v -147.675 -97.457 0.000
v -188.782 -92.891 0.000
v -184.648 -56.225 0.000
v -143.541 -60.790 15.230
v -147.675 -97.457 15.230
v -188.782 -92.891 15.230
v -184.648 -56.225 15.230
usemtl roof
f 125 126 127 128
usemtl teaching_building
f 124 123 122 121
f 121 122 126 125
f 122 123 127 126
f 123 124 128 127
f 124 121 125 128
o SD0521_T004_4hao
v 10.936 -87.740 0.000
v 55.336 -91.941 0.000
v 57.654 -67.755 0.000
v 13.254 -63.565 0.000
v 10.936 -87.740 11.190
v 55.336 -91.941 11.190
v 57.654 -67.755 11.190
v 13.254 -63.565 11.190
usemtl roof
f 133 134 135 136
usemtl teaching_building
f 132 131 130 129
f 129 130 134 133
f 130 131 135 134
f 131 132 136 135
f 132 129 133 136
o SD0521_T005_5hao
v -7.792 -80.787 0.000
v -38.045 -78.079 0.000
v -39.244 -91.465 0.000
v -46.384 -90.835 0.000
v -47.082 -98.684 0.000
v -1.958 -102.663 0.000
v 0.038 -80.323 0.000
v -7.684 -79.638 0.000
v -7.792 -80.787 11.450
v -38.045 -78.079 11.450
v -39.244 -91.465 11.450
v -46.384 -90.835 11.450
v -47.082 -98.684 11.450
v -1.958 -102.663 11.450
v 0.038 -80.323 11.450
v -7.684 -79.638 11.450
usemtl roof
f 145 146 147 148 149 150 151 152
usemtl teaching_building
f 144 143 142 141 140 139 138 137
f 137 138 146 145
f 138 139 147 146
f 139 140 148 147
f 140 141 149 148
f 141 142 150 149
f 142 143 151 150
f 143 144 152 151
f 144 137 145 152
