# school_id SD0546
# school_name 昌邑市北孟镇塔耳堡初级中学
# boundary_source footprint_convex_hull_buffer_20m
# adjacent_block_merge_distance_m 2.0
mtllib ../campus_materials.mtl
o SD0546_campus_boundary
usemtl campus_boundary
v -56.258 -44.039 0.050
v -56.996 -17.004 0.050
v -57.537 27.240 0.050
v -11.454 33.257 0.050
v 65.279 35.300 0.050
v 76.302 19.070 0.050
v 77.038 -19.869 0.050
v -15.999 -42.931 0.050
v -56.258 -44.039 0.050
l 1 2 3 4 5 6 7 8 9 1
o SD0546_T001_1hao
v -11.866 -6.119 0.000
v 56.740 -4.295 0.000
v 56.418 12.750 0.000
v 54.923 12.717 0.000
v 54.879 15.016 0.000
v -9.889 13.292 0.000
v -9.826 11.048 0.000
v -12.108 10.993 0.000
v -11.866 -6.119 8.070
v 56.740 -4.295 8.070
v 56.418 12.750 8.070
v 54.923 12.717 8.070
v 54.879 15.016 8.070
v -9.889 13.292 8.070
v -9.826 11.048 8.070
v -12.108 10.993 8.070
usemtl roof
f 18 19 20 21 22 23 24 25
usemtl teaching_building
f 17 16 15 14 13 12 11 10
f 10 11 19 18
f 11 12 20 19
f 12 13 21 20
f 13 14 22 21
f 14 15 23 22
f 15 16 24 23
f 16 17 25 24
f 17 10 18 25
