# school_id SD0560
# school_name 昌邑市奎聚街道三台小学
# boundary_source footprint_convex_hull_buffer_20m
# adjacent_block_merge_distance_m 2.0
mtllib ../campus_materials.mtl
o SD0560_campus_boundary
usemtl campus_boundary
v 52.160 -29.963 0.050
v -52.517 -29.363 0.050
v -52.173 29.978 0.050
v 52.529 29.348 0.050
v 52.160 -29.963 0.050
l 1 2 3 4 5 1
o SD0560_T001_1hao
v 32.285 -9.849 0.000
v 32.405 9.469 0.000
v -32.289 9.858 0.000
v -32.401 -9.478 0.000
v 32.285 -9.849 9.900
v 32.405 9.469 9.900
v -32.289 9.858 9.900
v -32.401 -9.478 9.900
usemtl roof
f 10 11 12 13
usemtl teaching_building
f 9 8 7 6
f 6 7 11 10
f 7 8 12 11
f 8 9 13 12
f 9 6 10 13
