# school_id SD0513
# school_name 龙湖小学
# boundary_source footprint_convex_hull_buffer_20m
# adjacent_block_merge_distance_m 2.0
mtllib ../campus_materials.mtl
o SD0513_campus_boundary
usemtl campus_boundary
v -3.062 -55.948 0.050
v -16.715 -48.949 0.050
v -56.126 -21.339 0.050
v -64.495 -5.506 0.050
v -73.229 11.684 0.050
v -79.371 44.969 0.050
v 15.547 70.281 0.050
v 61.068 5.386 0.050
v 64.376 -9.547 0.050
v 62.191 -41.646 0.050
v -3.062 -55.948 0.050
l 1 2 3 4 5 6 7 8 9 10 11 1
o SD0513_T001_1hao
v -54.087 18.161 0.000
v -46.738 3.698 0.000
v -42.944 4.393 0.000
v -40.699 -7.727 0.000
v 15.726 3.457 0.000
v 12.644 15.455 0.000
v -32.750 6.162 0.000
v -41.648 20.996 0.000
v 10.754 35.830 0.000
v 7.198 47.356 0.000
v -56.347 30.410 0.000
v -54.087 18.161 4.950
v -46.738 3.698 4.950
v -42.944 4.393 4.950
v -40.699 -7.727 4.950
v 15.726 3.457 4.950
v 12.644 15.455 4.950
v -32.750 6.162 4.950
v -41.648 20.996 4.950
v 10.754 35.830 4.950
v 7.198 47.356 4.950
v -56.347 30.410 4.950
usemtl roof
f 23 24 25 26 27 28 29 30 31 32 33
usemtl teaching_building
f 22 21 20 19 18 17 16 15 14 13 12
f 12 13 24 23
f 13 14 25 24
f 14 15 26 25
f 15 16 27 26
f 16 17 28 27
f 17 18 29 28
f 18 19 30 29
f 19 20 31 30
f 20 21 32 31
f 21 22 33 32
f 22 12 23 33
