# school_id SD0549
# school_name 昌邑市北孟镇李戈庄学区小学
# boundary_source footprint_convex_hull_buffer_20m
# adjacent_block_merge_distance_m 2.0
mtllib ../campus_materials.mtl
o SD0549_campus_boundary
usemtl campus_boundary
v -56.981 -101.145 0.050
v -58.983 -54.291 0.050
v -61.125 0.204 0.050
v -61.347 8.627 0.050
v -61.928 34.403 0.050
v -62.533 91.105 0.050
v 5.892 93.944 0.050
v 61.879 95.383 0.050
v 67.082 -43.243 0.050
v 67.639 -63.676 0.050
v 3.704 -99.556 0.050
v -56.981 -101.145 0.050
l 1 2 3 4 5 6 7 8 9 10 11 12 1
o SD0549_T001_1hao
v -42.102 63.652 0.000
v -6.039 64.597 0.000
v -6.256 72.853 0.000
v -42.327 71.926 0.000
v -42.102 63.652 6.600
v -6.039 64.597 6.600
v -6.256 72.853 6.600
v -42.327 71.926 6.600
usemtl roof
f 17 18 19 20
usemtl teaching_building
f 16 15 14 13
f 13 14 18 17
f 14 15 19 18
f 15 16 20 19
f 16 13 17 20
