# school_id SD0565
# school_name 昌邑市实验中学新村校区
# boundary_source footprint_convex_hull_buffer_20m
# adjacent_block_merge_distance_m 2.0
mtllib ../campus_materials.mtl
o SD0565_campus_boundary
usemtl campus_boundary
v 93.155 -77.625 0.050
v -36.273 -75.814 0.050
v -116.312 -73.843 0.050
v -115.571 -9.002 0.050
v -114.057 117.844 0.050
v -27.988 117.103 0.050
v 97.905 35.582 0.050
v 93.155 -77.625 0.050
l 1 2 3 4 5 6 7 8 1
o SD0565_T001_1hao
v -34.095 81.987 0.000
v -33.976 97.154 0.000
v -94.296 97.673 0.000
v -94.430 82.496 0.000
v -34.095 81.987 9.900
v -33.976 97.154 9.900
v -94.296 97.673 9.900
v -94.430 82.496 9.900
usemtl roof
f 13 14 15 16
usemtl teaching_building
f 12 11 10 9
f 9 10 14 13
f 10 11 15 14
f 11 12 16 15
f 12 9 13 16
o SD0565_T002_2hao
v -41.926 28.563 0.000
v -41.292 56.498 0.000
v -89.033 57.563 0.000
v -89.675 29.647 0.000
v -41.926 28.563 9.900
v -41.292 56.498 9.900
v -89.033 57.563 9.900
v -89.675 29.647 9.900
usemtl roof
f 21 22 23 24
usemtl teaching_building
f 20 19 18 17
f 17 18 22 21
f 18 19 23 22
f 19 20 24 23
f 20 17 21 24
o SD0565_T003_3hao
v 53.869 -16.143 0.000
v 54.384 30.443 0.000
v 0.156 31.027 0.000
v -0.016 15.758 0.000
v 40.879 15.322 0.000
v 40.670 -3.032 0.000
v -1.099 -2.578 0.000
v -1.240 -15.531 0.000
v 53.869 -16.143 9.900
v 54.384 30.443 9.900
v 0.156 31.027 9.900
v -0.016 15.758 9.900
v 40.879 15.322 9.900
v 40.670 -3.032 9.900
v -1.099 -2.578 9.900
v -1.240 -15.531 9.900
usemtl roof
f 33 34 35 36 37 38 39 40
usemtl teaching_building
f 32 31 30 29 28 27 26 25
f 25 26 34 33
f 26 27 35 34
f 27 28 36 35
f 28 29 37 36
f 29 30 38 37
f 30 31 39 38
f 31 32 40 39
f 32 25 33 40
o SD0565_T004_4hao
v -35.364 -10.704 0.000
v -35.014 3.213 0.000
v -95.222 4.686 0.000
v -95.572 -9.231 0.000
v -35.364 -10.704 9.900
v -35.014 3.213 9.900
v -95.222 4.686 9.900
v -95.572 -9.231 9.900
usemtl roof
f 45 46 47 48
usemtl teaching_building
f 44 43 42 41
f 41 42 46 45
f 42 43 47 46
f 43 44 48 47
f 44 41 45 48
o SD0565_T005_5hao
v 73.988 -57.355 0.000
v 77.444 25.005 0.000
v 62.745 25.607 0.000
v 62.387 17.231 0.000
v 64.014 17.166 0.000
v 63.626 7.864 0.000
v 62.081 7.919 0.000
v 60.117 -38.046 0.000
v 61.715 -38.120 0.000
v 61.274 -48.618 0.000
v 59.841 -48.553 0.000
v 59.490 -56.744 0.000
v 73.988 -57.355 9.900
v 77.444 25.005 9.900
v 62.745 25.607 9.900
v 62.387 17.231 9.900
v 64.014 17.166 9.900
v 63.626 7.864 9.900
v 62.081 7.919 9.900
v 60.117 -38.046 9.900
v 61.715 -38.120 9.900
v 61.274 -48.618 9.900
v 59.841 -48.553 9.900
v 59.490 -56.744 9.900
usemtl roof
f 61 62 63 64 65 66 67 68 69 70 71 72
usemtl teaching_building
f 60 59 58 57 56 55 54 53 52 51 50 49
f 49 50 62 61
f 50 51 63 62
f 51 52 64 63
f 52 53 65 64
f 53 54 66 65
f 54 55 67 66
f 55 56 68 67
f 56 57 69 68
f 57 58 70 69
f 58 59 71 70
f 59 60 72 71
f 60 49 61 72
o SD0565_T006_6hao
v -35.887 -55.817 0.000
v -35.544 -41.882 0.000
v -95.744 -40.418 0.000
v -96.088 -54.335 0.000
v -35.887 -55.817 9.900
v -35.544 -41.882 9.900
v -95.744 -40.418 9.900
v -96.088 -54.335 9.900
usemtl roof
f 77 78 79 80
usemtl teaching_building
f 76 75 74 73
f 73 74 78 77
f 74 75 79 78
f 75 76 80 79
f 76 73 77 80
o SD0565_T007_7hao
v 47.135 -56.475 0.000
v 47.232 -41.706 0.000
v -3.719 -41.382 0.000
v -3.816 -56.151 0.000
v 47.135 -56.475 9.900
v 47.232 -41.706 9.900
v -3.719 -41.382 9.900
v -3.816 -56.151 9.900
usemtl roof
f 85 86 87 88
usemtl teaching_building
f 84 83 82 81
f 81 82 86 85
f 82 83 87 86
f 83 84 88 87
f 84 81 85 88
