# school_id SD0597
# school_name 潍坊市机动车驾驶人考试中心
# boundary_source footprint_convex_hull_buffer_20m
# adjacent_block_merge_distance_m 2.0
mtllib ../campus_materials.mtl
o SD0597_campus_boundary
usemtl campus_boundary
v 36.106 -76.401 0.050
v -20.066 -75.913 0.050
v -137.911 -71.838 0.050
v -138.101 -14.604 0.050
v 17.499 80.695 0.050
v 90.699 66.796 0.050
v 89.642 27.322 0.050
v 36.106 -76.401 0.050
l 1 2 3 4 5 6 7 8 1
o SD0597_T001_1hao
v -117.975 -52.515 0.000
v -29.408 -52.237 0.000
v -29.498 -25.497 0.000
v -118.064 -25.785 0.000
v -117.975 -52.515 4.950
v -29.408 -52.237 4.950
v -29.498 -25.497 4.950
v -118.064 -25.785 4.950
usemtl roof
f 13 14 15 16
usemtl teaching_building
f 12 11 10 9
f 9 10 14 13
f 10 11 15 14
f 11 12 16 15
f 12 9 13 16
