# school_id SD0562
# school_name 昌邑市奎聚街道南隅小学
# boundary_source footprint_convex_hull_buffer_20m
# adjacent_block_merge_distance_m 2.0
mtllib ../campus_materials.mtl
o SD0562_campus_boundary
usemtl campus_boundary
v 62.249 -69.138 0.050
v -91.867 -57.687 0.050
v -89.565 -22.948 0.050
v -87.942 0.866 0.050
v -85.608 28.899 0.050
v 31.071 81.735 0.050
v 73.463 79.995 0.050
v 71.454 53.187 0.050
v 62.249 -69.138 0.050
l 1 2 3 4 5 6 7 8 9 1
o SD0562_T001_1hao
v -12.974 11.150 0.000
v -14.310 -5.044 0.000
v -67.998 -0.644 0.000
v -66.652 15.528 0.000
v -12.974 11.150 14.790
v -14.310 -5.044 14.790
v -67.998 -0.644 14.790
v -66.652 15.528 14.790
usemtl roof
f 14 15 16 17
usemtl teaching_building
f 13 12 11 10
f 10 11 15 14
f 11 12 16 15
f 12 13 17 16
f 13 10 14 17
o SD0562_T002_2hao
v 45.310 -27.660 0.000
v 30.389 -26.511 0.000
v 34.157 16.799 0.000
v 48.561 15.528 0.000
v 45.310 -27.660 15.310
v 30.389 -26.511 15.310
v 34.157 16.799 15.310
v 48.561 15.528 15.310
usemtl roof
f 22 23 24 25
usemtl teaching_building
f 21 20 19 18
f 18 19 23 22
f 19 20 24 23
f 20 21 25 24
f 21 18 22 25
o SD0562_T003_3hao
v -70.599 -39.212 0.000
v -30.246 -41.843 0.000
v -29.293 -27.428 0.000
v -38.272 -26.842 0.000
v -38.530 -30.678 0.000
v -58.466 -29.385 0.000
v -58.181 -25.029 0.000
v -69.610 -24.289 0.000
v -70.599 -39.212 11.100
v -30.246 -41.843 11.100
v -29.293 -27.428 11.100
v -38.272 -26.842 11.100
v -38.530 -30.678 11.100
v -58.466 -29.385 11.100
v -58.181 -25.029 11.100
v -69.610 -24.289 11.100
usemtl roof
f 34 35 36 37 38 39 40 41
usemtl teaching_building
f 33 32 31 30 29 28 27 26
f 26 27 35 34
f 27 28 36 35
f 28 29 37 36
f 29 30 38 37
f 30 31 39 38
f 31 32 40 39
f 32 33 41 40
f 33 26 34 41
o SD0562_T004_4hao
v 43.805 -47.712 0.000
v 44.918 -32.889 0.000
v -16.617 -28.169 0.000
v -17.802 -42.826 0.000
v 43.805 -47.712 10.260
v 44.918 -32.889 10.260
v -16.617 -28.169 10.260
v -17.802 -42.826 10.260
usemtl roof
f 46 47 48 49
usemtl teaching_building
f 45 44 43 42
f 42 43 47 46
f 43 44 48 47
f 44 45 49 48
f 45 42 46 49
