# school_id SD0503
# school_name 长岛综合试验区第二实验学校
# boundary_source footprint_convex_hull_buffer_20m
# adjacent_block_merge_distance_m 2.0
mtllib ../campus_materials.mtl
o SD0503_campus_boundary
usemtl campus_boundary
v 79.529 -103.886 0.050
v 32.114 -99.689 0.050
v -140.497 -69.535 0.050
v -135.742 29.282 0.050
v -3.024 61.407 0.050
v 46.158 67.453 0.050
v 86.986 66.084 0.050
v 86.542 14.461 0.050
v 82.980 -56.842 0.050
v 79.529 -103.886 0.050
l 1 2 3 4 5 6 7 8 9 10 1
o SD0503_T001_1hao
v 46.881 42.570 0.000
v 36.258 42.935 0.000
v 35.994 35.352 0.000
v 28.119 35.617 0.000
v 27.988 31.804 0.000
v 13.036 32.323 0.000
v 13.352 41.244 0.000
v 0.561 41.697 0.000
v 0.139 29.903 0.000
v -7.297 30.168 0.000
v -7.815 16.074 0.000
v 43.378 15.179 0.000
v 44.633 10.691 0.000
v 48.531 4.854 0.000
v 51.077 7.319 0.000
v 57.284 5.263 0.000
v 62.253 6.446 0.000
v 65.194 9.486 0.000
v 66.546 15.046 0.000
v 65.291 23.978 0.000
v 62.455 29.217 0.000
v 66.213 29.096 0.000
v 66.819 46.749 0.000
v 47.048 47.412 0.000
v 46.881 42.570 13.550
v 36.258 42.935 13.550
v 35.994 35.352 13.550
v 28.119 35.617 13.550
v 27.988 31.804 13.550
v 13.036 32.323 13.550
v 13.352 41.244 13.550
v 0.561 41.697 13.550
v 0.139 29.903 13.550
v -7.297 30.168 13.550
v -7.815 16.074 13.550
v 43.378 15.179 13.550
v 44.633 10.691 13.550
v 48.531 4.854 13.550
v 51.077 7.319 13.550
v 57.284 5.263 13.550
v 62.253 6.446 13.550
v 65.194 9.486 13.550
v 66.546 15.046 13.550
v 65.291 23.978 13.550
v 62.455 29.217 13.550
v 66.213 29.096 13.550
v 66.819 46.749 13.550
v 47.048 47.412 13.550
usemtl roof
f 35 36 37 38 39 40 41 42 43 44 45 46 47 48 49 50 51 52 53 54 55 56 57 58
usemtl teaching_building
f 34 33 32 31 30 29 28 27 26 25 24 23 22 21 20 19 18 17 16 15 14 13 12 11
f 11 12 36 35
f 12 13 37 36
f 13 14 38 37
f 14 15 39 38
f 15 16 40 39
f 16 17 41 40
f 17 18 42 41
f 18 19 43 42
f 19 20 44 43
f 20 21 45 44
f 21 22 46 45
f 22 23 47 46
f 23 24 48 47
f 24 25 49 48
f 25 26 50 49
f 26 27 51 50
f 27 28 52 51
f 28 29 53 52
f 29 30 54 53
f 30 31 55 54
f 31 32 56 55
f 32 33 57 56
f 33 34 58 57
f 34 11 35 58
o SD0503_T002_2hao
v -103.773 4.003 0.000
v -46.277 1.273 0.000
v -46.698 -7.471 0.000
v -104.194 -4.752 0.000
v -103.773 4.003 9.520
v -46.277 1.273 9.520
v -46.698 -7.471 9.520
v -104.194 -4.752 9.520
usemtl roof
f 63 64 65 66
usemtl teaching_building
f 62 61 60 59
f 59 60 64 63
f 60 61 65 64
f 61 62 66 65
f 62 59 63 66
o SD0503_T002_2hao_seg02
v -116.485 13.366 0.000
v -104.186 12.868 0.000
v -104.967 -6.189 0.000
v -106.345 -6.134 0.000
v -106.565 -11.517 0.000
v -108.531 -11.428 0.000
v -108.584 -12.865 0.000
v -113.316 -12.677 0.000
v -113.263 -11.307 0.000
v -117.495 -11.130 0.000
v -116.485 13.366 9.520
v -104.186 12.868 9.520
v -104.967 -6.189 9.520
v -106.345 -6.134 9.520
v -106.565 -11.517 9.520
v -108.531 -11.428 9.520
v -108.584 -12.865 9.520
v -113.316 -12.677 9.520
v -113.263 -11.307 9.520
v -117.495 -11.130 9.520
usemtl roof
f 77 78 79 80 81 82 83 84 85 86
usemtl teaching_building
f 76 75 74 73 72 71 70 69 68 67
f 67 68 78 77
f 68 69 79 78
f 69 70 80 79
f 70 71 81 80
f 71 72 82 81
f 72 73 83 82
f 73 74 84 83
f 74 75 85 84
f 75 76 86 85
f 76 67 77 86
o SD0503_T003_3hao
v -37.225 -8.400 0.000
v 21.903 -11.948 0.000
v 22.430 -3.237 0.000
v -1.529 -1.800 0.000
v -1.450 -0.518 0.000
v -9.737 -0.021 0.000
v -9.799 -1.038 0.000
v -36.672 0.576 0.000
v -37.225 -8.400 10.300
v 21.903 -11.948 10.300
v 22.430 -3.237 10.300
v -1.529 -1.800 10.300
v -1.450 -0.518 10.300
v -9.737 -0.021 10.300
v -9.799 -1.038 10.300
v -36.672 0.576 10.300
usemtl roof
f 95 96 97 98 99 100 101 102
usemtl teaching_building
f 94 93 92 91 90 89 88 87
f 87 88 96 95
f 88 89 97 96
f 89 90 98 97
f 90 91 99 98
f 91 92 100 99
f 92 93 101 100
f 93 94 102 101
f 94 87 95 102
o SD0503_T004_4hao
v -118.022 -22.549 0.000
v -119.672 -52.870 0.000
v -110.726 -53.345 0.000
v -109.076 -23.035 0.000
v -118.022 -22.549 7.880
v -119.672 -52.870 7.880
v -110.726 -53.345 7.880
v -109.076 -23.035 7.880
usemtl roof
f 107 108 109 110
usemtl teaching_building
f 106 105 104 103
f 103 104 108 107
f 104 105 109 108
f 105 106 110 109
f 106 103 107 110
o SD0503_T005_5hao
v 19.858 -69.661 0.000
v 35.134 -70.578 0.000
v 34.721 -79.842 0.000
v 61.068 -82.174 0.000
v 63.017 -55.611 0.000
v 61.375 -49.808 0.000
v 61.779 -26.915 0.000
v 23.141 -25.589 0.000
v 19.858 -69.661 28.170
v 35.134 -70.578 28.170
v 34.721 -79.842 28.170
v 61.068 -82.174 28.170
v 63.017 -55.611 28.170
v 61.375 -49.808 28.170
v 61.779 -26.915 28.170
v 23.141 -25.589 28.170
usemtl roof
f 119 120 121 122 123 124 125 126
usemtl teaching_building
f 118 117 116 115 114 113 112 111
f 111 112 120 119
f 112 113 121 120
f 113 114 122 121
f 114 115 123 122
f 115 116 124 123
f 116 117 125 124
f 117 118 126 125
f 118 111 119 126
