# school_id SD0569
# school_name 昌邑市柳疃镇辛安小学
# boundary_source footprint_convex_hull_buffer_20m
# adjacent_block_merge_distance_m 2.0
mtllib ../campus_materials.mtl
o SD0569_campus_boundary
usemtl campus_boundary
v 33.085 -42.389 0.050
v -19.577 -39.677 0.050
v -37.886 -38.728 0.050
v -62.230 -9.930 0.050
v -60.946 25.598 0.050
v -30.300 31.239 0.050
v -8.903 32.486 0.050
v 13.275 31.713 0.050
v 34.269 27.555 0.050
v 62.001 15.367 0.050
v 60.945 -13.313 0.050
v 33.085 -42.389 0.050
l 1 2 3 4 5 6 7 8 9 10 11 12 1
o SD0569_T001_1hao
v -27.637 -3.433 0.000
v -28.203 -19.203 0.000
v -18.548 -19.703 0.000
v -17.997 -4.332 0.000
v 16.885 -5.564 0.000
v 16.311 -21.491 0.000
v 24.975 -21.945 0.000
v 25.616 -4.406 0.000
v 41.239 -4.971 0.000
v 41.515 2.524 0.000
v 28.030 2.997 0.000
v 28.231 8.362 0.000
v 16.505 8.779 0.000
v 16.348 4.294 0.000
v 10.709 4.479 0.000
v 10.969 11.781 0.000
v -8.669 12.466 0.000
v -8.885 6.360 0.000
v -14.070 6.546 0.000
v -13.914 10.854 0.000
v -27.898 11.345 0.000
v -28.010 8.352 0.000
v -41.539 8.834 0.000
v -41.964 -2.924 0.000
v -27.637 -3.433 6.600
v -28.203 -19.203 6.600
v -18.548 -19.703 6.600
v -17.997 -4.332 6.600
v 16.885 -5.564 6.600
v 16.311 -21.491 6.600
v 24.975 -21.945 6.600
v 25.616 -4.406 6.600
v 41.239 -4.971 6.600
v 41.515 2.524 6.600
v 28.030 2.997 6.600
v 28.231 8.362 6.600
v 16.505 8.779 6.600
v 16.348 4.294 6.600
v 10.709 4.479 6.600
v 10.969 11.781 6.600
v -8.669 12.466 6.600
v -8.885 6.360 6.600
v -14.070 6.546 6.600
v -13.914 10.854 6.600
v -27.898 11.345 6.600
v -28.010 8.352 6.600
v -41.539 8.834 6.600
v -41.964 -2.924 6.600
usemtl roof
f 37 38 39 40 41 42 43 44 45 46 47 48 49 50 51 52 53 54 55 56 57 58 59 60
usemtl teaching_building
f 36 35 34 33 32 31 30 29 28 27 26 25 24 23 22 21 20 19 18 17 16 15 14 13
f 13 14 38 37
f 14 15 39 38
f 15 16 40 39
f 16 17 41 40
f 17 18 42 41
f 18 19 43 42
f 19 20 44 43
f 20 21 45 44
f 21 22 46 45
f 22 23 47 46
f 23 24 48 47
f 24 25 49 48
f 25 26 50 49
f 26 27 51 50
f 27 28 52 51
f 28 29 53 52
f 29 30 54 53
f 30 31 55 54
f 31 32 56 55
f 32 33 57 56
f 33 34 58 57
f 34 35 59 58
f 35 36 60 59
f 36 13 37 60
