# school_id SD0583
# school_name 昌邑潍水学校初中部
# boundary_source footprint_convex_hull_buffer_20m
# adjacent_block_merge_distance_m 2.0
mtllib ../campus_materials.mtl
o SD0583_campus_boundary
usemtl campus_boundary
v -157.852 -96.669 0.050
v -215.345 -96.454 0.050
v -231.851 -80.716 0.050
v -233.003 -18.910 0.050
v -233.003 -1.568 0.050
v -130.779 113.067 0.050
v -23.857 113.906 0.050
v 241.211 115.495 0.050
v 295.240 59.308 0.050
v 296.156 -67.222 0.050
v -63.817 -96.062 0.050
v -157.852 -96.669 0.050
l 1 2 3 4 5 6 7 8 9 10 11 12 1
o SD0583_T001_1hao
v 163.714 84.288 0.000
v 233.463 84.761 0.000
v 232.746 95.444 0.000
v 163.228 94.962 0.000
v 163.714 84.288 6.600
v 233.463 84.761 6.600
v 232.746 95.444 6.600
v 163.228 94.962 6.600
usemtl roof
f 17 18 19 20
usemtl teaching_building
f 16 15 14 13
f 13 14 18 17
f 14 15 19 18
f 15 16 20 19
f 16 13 17 20
o SD0583_T002_2hao
v -23.405 83.260 0.000
v 50.711 83.214 0.000
v 50.681 93.813 0.000
v -23.719 93.906 0.000
v -23.405 83.260 6.600
v 50.711 83.214 6.600
v 50.681 93.813 6.600
v -23.719 93.906 6.600
usemtl roof
f 25 26 27 28
usemtl teaching_building
f 24 23 22 21
f 21 22 26 25
f 22 23 27 26
f 23 24 28 27
f 24 21 25 28
o SD0583_T003_3hao
v -121.440 32.430 0.000
v -61.232 33.042 0.000
v -61.232 46.504 0.000
v -56.507 46.189 0.000
v -57.447 80.619 0.000
v -62.486 80.619 0.000
v -62.807 93.452 0.000
v -121.754 93.137 0.000
v -121.440 32.430 6.600
v -61.232 33.042 6.600
v -61.232 46.504 6.600
v -56.507 46.189 6.600
v -57.447 80.619 6.600
v -62.486 80.619 6.600
v -62.807 93.452 6.600
v -121.754 93.137 6.600
usemtl roof
f 37 38 39 40 41 42 43 44
usemtl teaching_building
f 36 35 34 33 32 31 30 29
f 29 30 38 37
f 30 31 39 38
f 31 32 40 39
f 32 33 41 40
f 33 34 42 41
f 34 35 43 42
f 35 36 44 43
f 36 29 37 44
o SD0583_T004_4hao
v 235.142 31.152 0.000
v 234.903 41.353 0.000
v 164.423 41.594 0.000
v 164.184 31.624 0.000
v 235.142 31.152 6.600
v 234.903 41.353 6.600
v 164.423 41.594 6.600
v 164.184 31.624 6.600
usemtl roof
f 49 50 51 52
usemtl teaching_building
f 48 47 46 45
f 45 46 50 49
f 46 47 51 50
f 47 48 52 51
f 48 45 49 52
o SD0583_T005_5hao
v -21.681 30.494 0.000
v 51.584 30.772 0.000
v 51.039 41.677 0.000
v -21.957 41.677 0.000
v -21.681 30.494 6.600
v 51.584 30.772 6.600
v 51.039 41.677 6.600
v -21.957 41.677 6.600
usemtl roof
f 57 58 59 60
usemtl teaching_building
f 56 55 54 53
f 53 54 58 57
f 54 55 59 58
f 55 56 60 59
f 56 53 57 60
o SD0583_T006_6hao
v 264.444 -48.771 0.000
v 276.022 -48.771 0.000
v 275.298 51.192 0.000
v 262.271 50.470 0.000
v 264.444 -48.771 6.600
v 276.022 -48.771 6.600
v 275.298 51.192 6.600
v 262.271 50.470 6.600
usemtl roof
f 65 66 67 68
usemtl teaching_building
f 64 63 62 61
f 61 62 66 65
f 62 63 67 66
f 63 64 68 67
f 64 61 65 68
o SD0583_T007_7hao
v 64.671 -14.304 0.000
v 151.821 -13.999 0.000
v 151.351 5.246 0.000
v 127.238 5.246 0.000
v 127.238 7.126 0.000
v 115.734 6.978 0.000
v 115.734 5.570 0.000
v 103.282 5.246 0.000
v 103.439 6.821 0.000
v 91.464 6.821 0.000
v 91.464 5.412 0.000
v 64.604 5.839 0.000
v 64.671 -14.304 9.900
v 151.821 -13.999 9.900
v 151.351 5.246 9.900
v 127.238 5.246 9.900
v 127.238 7.126 9.900
v 115.734 6.978 9.900
v 115.734 5.570 9.900
v 103.282 5.246 9.900
v 103.439 6.821 9.900
v 91.464 6.821 9.900
v 91.464 5.412 9.900
v 64.604 5.839 9.900
usemtl roof
f 81 82 83 84 85 86 87 88 89 90 91 92
usemtl teaching_building
f 80 79 78 77 76 75 74 73 72 71 70 69
f 69 70 82 81
f 70 71 83 82
f 71 72 84 83
f 72 73 85 84
f 73 74 86 85
f 74 75 87 86
f 75 76 88 87
f 76 77 89 88
f 77 78 90 89
f 78 79 91 90
f 79 80 92 91
f 80 69 81 92
o SD0583_T008_8hao
v -208.882 -18.993 0.000
v -208.882 -23.357 0.000
v -158.394 -23.079 0.000
v -158.394 -18.724 0.000
v -154.004 -18.446 0.000
v -154.280 -8.912 0.000
v -213.003 -9.190 0.000
v -213.003 -18.724 0.000
v -208.882 -18.993 6.600
v -208.882 -23.357 6.600
v -158.394 -23.079 6.600
v -158.394 -18.724 6.600
v -154.004 -18.446 6.600
v -154.280 -8.912 6.600
v -213.003 -9.190 6.600
v -213.003 -18.724 6.600
usemtl roof
f 101 102 103 104 105 106 107 108
usemtl teaching_building
f 100 99 98 97 96 95 94 93
f 93 94 102 101
f 94 95 103 102
f 95 96 104 103
f 96 97 105 104
f 97 98 106 105
f 98 99 107 106
f 99 100 108 107
f 100 93 101 108
o SD0583_T009_9hao
v 237.046 -21.513 0.000
v 236.807 -11.312 0.000
v 165.617 -11.312 0.000
v 165.617 -21.985 0.000
v 237.046 -21.513 9.900
v 236.807 -11.312 9.900
v 165.617 -11.312 9.900
v 165.617 -21.985 9.900
usemtl roof
f 113 114 115 116
usemtl teaching_building
f 112 111 110 109
f 109 110 114 113
f 110 111 115 114
f 111 112 116 115
f 112 109 113 116
o SD0583_T010_10hao
v -111.870 -19.864 0.000
v -111.870 -24.543 0.000
v -62.442 -24.719 0.000
v -62.442 -19.687 0.000
v -57.918 -19.687 0.000
v -58.276 -10.163 0.000
v -116.536 -9.718 0.000
v -116.580 -20.049 0.000
v -111.870 -19.864 9.900
v -111.870 -24.543 9.900
v -62.442 -24.719 9.900
v -62.442 -19.687 9.900
v -57.918 -19.687 9.900
v -58.276 -10.163 9.900
v -116.536 -9.718 9.900
v -116.580 -20.049 9.900
usemtl roof
f 125 126 127 128 129 130 131 132
usemtl teaching_building
f 124 123 122 121 120 119 118 117
f 117 118 126 125
f 118 119 127 126
f 119 120 128 127
f 120 121 129 128
f 121 122 130 129
f 122 123 131 130
f 123 124 132 131
f 124 117 125 132
o SD0583_T011_11hao
v -22.509 -22.903 0.000
v 49.121 -22.643 0.000
v 48.844 -11.460 0.000
v -22.771 -12.007 0.000
v -22.509 -22.903 9.900
v 49.121 -22.643 9.900
v 48.844 -11.460 9.900
v -22.771 -12.007 9.900
usemtl roof
f 137 138 139 140
usemtl teaching_building
f 136 135 134 133
f 133 134 138 137
f 134 135 139 138
f 135 136 140 139
f 136 133 137 140
o SD0583_T012_12hao
v -114.102 -71.203 0.000
v -114.102 -75.873 0.000
v -64.681 -76.067 0.000
v -64.681 -71.027 0.000
v -60.150 -71.027 0.000
v -60.508 -61.493 0.000
v -118.768 -61.048 0.000
v -118.812 -71.388 0.000
v -114.102 -71.203 9.900
v -114.102 -75.873 9.900
v -64.681 -76.067 9.900
v -64.681 -71.027 9.900
v -60.150 -71.027 9.900
v -60.508 -61.493 9.900
v -118.768 -61.048 9.900
v -118.812 -71.388 9.900
usemtl roof
f 149 150 151 152 153 154 155 156
usemtl teaching_building
f 148 147 146 145 144 143 142 141
f 141 142 150 149
f 142 143 151 150
f 143 144 152 151
f 144 145 153 152
f 145 146 154 153
f 146 147 155 154
f 147 148 156 155
f 148 141 149 156
o SD0583_T013_13hao
v -207.307 -71.814 0.000
v -207.307 -76.484 0.000
v -157.879 -76.669 0.000
v -157.879 -71.629 0.000
v -153.355 -71.629 0.000
v -153.720 -62.104 0.000
v -211.965 -61.660 0.000
v -212.010 -72.000 0.000
v -207.307 -71.814 6.600
v -207.307 -76.484 6.600
v -157.879 -76.669 6.600
v -157.879 -71.629 6.600
v -153.355 -71.629 6.600
v -153.720 -62.104 6.600
v -211.965 -61.660 6.600
v -212.010 -72.000 6.600
usemtl roof
f 165 166 167 168 169 170 171 172
usemtl teaching_building
f 164 163 162 161 160 159 158 157
f 157 158 166 165
f 158 159 167 166
f 159 160 168 167
f 160 161 169 168
f 161 162 170 169
f 162 163 171 170
f 163 164 172 171
f 164 157 165 172
