# school_id SD0585
# school_name 枫香小学
# boundary_source footprint_convex_hull_buffer_20m
# adjacent_block_merge_distance_m 2.0
mtllib ../campus_materials.mtl
o SD0585_campus_boundary
usemtl campus_boundary
v -36.084 -129.037 0.050
v -44.111 -32.102 0.050
v -51.130 84.604 0.050
v -32.049 100.838 0.050
v 40.006 108.117 0.050
v 48.555 32.203 0.050
v 50.723 11.016 0.050
v 51.908 -54.471 0.050
v 36.240 -123.137 0.050
v -36.084 -129.037 0.050
l 1 2 3 4 5 6 7 8 9 10 1
o SD0585_T001_1hao
v -23.837 81.566 0.000
v -23.332 76.570 0.000
v -30.567 75.840 0.000
v -23.945 11.340 0.000
v -18.467 11.893 0.000
v -17.756 4.918 0.000
v 30.741 9.815 0.000
v 28.669 30.066 0.000
v -5.170 26.650 0.000
v -8.873 62.841 0.000
v 24.398 66.201 0.000
v 22.344 86.231 0.000
v -23.837 81.566 9.880
v -23.332 76.570 9.880
v -30.567 75.840 9.880
v -23.945 11.340 9.880
v -18.467 11.893 9.880
v -17.756 4.918 9.880
v 30.741 9.815 9.880
v 28.669 30.066 9.880
v -5.170 26.650 9.880
v -8.873 62.841 9.880
v 24.398 66.201 9.880
v 22.344 86.231 9.880
usemtl roof
f 23 24 25 26 27 28 29 30 31 32 33 34
usemtl teaching_building
f 22 21 20 19 18 17 16 15 14 13 12 11
f 11 12 24 23
f 12 13 25 24
f 13 14 26 25
f 14 15 27 26
f 15 16 28 27
f 16 17 29 28
f 17 18 30 29
f 18 19 31 30
f 19 20 32 31
f 20 21 33 32
f 21 22 34 33
f 22 11 23 34
o SD0585_T002_2hao
v -24.161 -30.676 0.000
v -17.801 -107.479 0.000
v 20.002 -104.395 0.000
v 18.200 -82.619 0.000
v -4.810 -84.498 0.000
v -7.206 -55.592 0.000
v 31.867 -52.397 0.000
v 29.705 -26.276 0.000
v -24.161 -30.676 11.520
v -17.801 -107.479 11.520
v 20.002 -104.395 11.520
v 18.200 -82.619 11.520
v -4.810 -84.498 11.520
v -7.206 -55.592 11.520
v 31.867 -52.397 11.520
v 29.705 -26.276 11.520
usemtl roof
f 43 44 45 46 47 48 49 50
usemtl teaching_building
f 42 41 40 39 38 37 36 35
f 35 36 44 43
f 36 37 45 44
f 37 38 46 45
f 38 39 47 46
f 39 40 48 47
f 40 41 49 48
f 41 42 50 49
f 42 35 43 50
