# school_id SD0577
# school_name 昌邑市都昌街道南逄学校
# boundary_source footprint_convex_hull_buffer_20m
# adjacent_block_merge_distance_m 2.0
mtllib ../campus_materials.mtl
o SD0577_campus_boundary
usemtl campus_boundary
v 88.557 -34.960 0.050
v 6.821 -31.167 0.050
v -91.331 -25.932 0.050
v -89.905 20.787 0.050
v -71.870 32.338 0.050
v -10.398 29.498 0.050
v 74.850 24.605 0.050
v 90.757 11.933 0.050
v 88.557 -34.960 0.050
l 1 2 3 4 5 6 7 8 9 1
o SD0577_T001_1hao
v -66.555 9.468 0.000
v -66.439 12.066 0.000
v -11.433 9.524 0.000
v -11.540 7.313 0.000
v -8.492 7.169 0.000
v -9.250 -9.567 0.000
v -70.744 -7.002 0.000
v -70.236 9.634 0.000
v -66.555 9.468 11.130
v -66.439 12.066 11.130
v -11.433 9.524 11.130
v -11.540 7.313 11.130
v -8.492 7.169 11.130
v -9.250 -9.567 11.130
v -70.744 -7.002 11.130
v -70.236 9.634 11.130
usemtl roof
f 18 19 20 21 22 23 24 25
usemtl teaching_building
f 17 16 15 14 13 12 11 10
f 10 11 19 18
f 11 12 20 19
f 12 13 21 20
f 13 14 22 21
f 14 15 23 22
f 15 16 24 23
f 16 17 25 24
f 17 10 18 25
o SD0577_T002_2hao
v 12.264 4.958 0.000
v 12.389 7.556 0.000
v 67.359 5.002 0.000
v 67.252 2.803 0.000
v 70.300 2.659 0.000
v 69.516 -14.055 0.000
v 7.817 -11.192 0.000
v 8.583 5.124 0.000
v 12.264 4.958 13.220
v 12.389 7.556 13.220
v 67.359 5.002 13.220
v 67.252 2.803 13.220
v 70.300 2.659 13.220
v 69.516 -14.055 13.220
v 7.817 -11.192 13.220
v 8.583 5.124 13.220
usemtl roof
f 34 35 36 37 38 39 40 41
usemtl teaching_building
f 33 32 31 30 29 28 27 26
f 26 27 35 34
f 27 28 36 35
f 28 29 37 36
f 29 30 38 37
f 30 31 39 38
f 31 32 40 39
f 32 33 41 40
f 33 26 34 41
