# school_id SD0502
# school_name 长岛综合试验区第一实验学校
# boundary_source footprint_convex_hull_buffer_20m
# adjacent_block_merge_distance_m 2.0
mtllib ../campus_materials.mtl
o SD0502_campus_boundary
usemtl campus_boundary
v 8.608 -49.137 0.050
v -30.362 -45.081 0.050
v -81.711 -36.752 0.050
v -82.222 -7.008 0.050
v -71.865 42.160 0.050
v 28.802 109.499 0.050
v 78.136 107.658 0.050
v 95.205 88.528 0.050
v 94.644 61.399 0.050
v 87.090 17.302 0.050
v 61.496 -44.197 0.050
v 8.608 -49.137 0.050
l 1 2 3 4 5 6 7 8 9 10 11 12 1
o SD0502_T001_1hao
v 75.047 81.080 0.000
v 74.679 63.305 0.000
v 28.738 64.378 0.000
v 29.511 82.849 0.000
v 34.283 82.664 0.000
v 34.534 89.271 0.000
v 68.882 87.989 0.000
v 68.629 81.329 0.000
v 75.047 81.080 12.070
v 74.679 63.305 12.070
v 28.738 64.378 12.070
v 29.511 82.849 12.070
v 34.283 82.664 12.070
v 34.534 89.271 12.070
v 68.882 87.989 12.070
v 68.629 81.329 12.070
usemtl roof
f 21 22 23 24 25 26 27 28
usemtl teaching_building
f 20 19 18 17 16 15 14 13
f 13 14 22 21
f 14 15 23 22
f 15 16 24 23
f 16 17 25 24
f 17 18 26 25
f 18 19 27 26
f 19 20 28 27
f 20 13 21 28
o SD0502_T002_2hao
v 19.306 22.892 0.000
v 67.758 22.903 0.000
v 67.960 37.892 0.000
v 39.154 37.516 0.000
v 39.180 40.092 0.000
v 29.204 40.015 0.000
v 29.248 37.384 0.000
v 19.543 37.251 0.000
v 19.306 22.892 15.010
v 67.758 22.903 15.010
v 67.960 37.892 15.010
v 39.154 37.516 15.010
v 39.180 40.092 15.010
v 29.204 40.015 15.010
v 29.248 37.384 15.010
v 19.543 37.251 15.010
usemtl roof
f 37 38 39 40 41 42 43 44
usemtl teaching_building
f 36 35 34 33 32 31 30 29
f 29 30 38 37
f 30 31 39 38
f 31 32 40 39
f 32 33 41 40
f 33 34 42 41
f 34 35 43 42
f 35 36 44 43
f 36 29 37 44
o SD0502_T003_3hao
v -54.721 16.834 0.000
v -48.064 16.425 0.000
v -45.798 17.409 0.000
v -15.815 14.668 0.000
v -15.059 27.900 0.000
v -53.974 30.066 0.000
v -54.721 16.834 17.250
v -48.064 16.425 17.250
v -45.798 17.409 17.250
v -15.815 14.668 17.250
v -15.059 27.900 17.250
v -53.974 30.066 17.250
usemtl roof
f 51 52 53 54 55 56
usemtl teaching_building
f 50 49 48 47 46 45
f 45 46 52 51
f 46 47 53 52
f 47 48 54 53
f 48 49 55 54
f 49 50 56 55
f 50 45 51 56
o SD0502_T004_4hao
v -62.001 -19.688 0.000
v -32.765 -20.672 0.000
v -31.649 -17.842 0.000
v -28.523 -16.316 0.000
v -28.312 -9.739 0.000
v -62.186 -8.921 0.000
v -62.001 -19.688 11.450
v -32.765 -20.672 11.450
v -31.649 -17.842 11.450
v -28.523 -16.316 11.450
v -28.312 -9.739 11.450
v -62.186 -8.921 11.450
usemtl roof
f 63 64 65 66 67 68
usemtl teaching_building
f 62 61 60 59 58 57
f 57 58 64 63
f 58 59 65 64
f 59 60 66 65
f 60 61 67 66
f 61 62 68 67
f 62 57 63 68
o SD0502_T005_5hao
v 9.531 -18.560 0.000
v 13.536 -20.285 0.000
v 14.888 -24.320 0.000
v 47.655 -25.403 0.000
v 48.024 -14.470 0.000
v 9.716 -13.188 0.000
v 9.531 -18.560 12.820
v 13.536 -20.285 12.820
v 14.888 -24.320 12.820
v 47.655 -25.403 12.820
v 48.024 -14.470 12.820
v 9.716 -13.188 12.820
usemtl roof
f 75 76 77 78 79 80
usemtl teaching_building
f 74 73 72 71 70 69
f 69 70 76 75
f 70 71 77 76
f 71 72 78 77
f 72 73 79 78
f 73 74 80 79
f 74 69 75 80
