# school_id SD0532
# school_name 山东省潍坊市寒亭区第六中学
# boundary_source footprint_convex_hull_buffer_20m
# adjacent_block_merge_distance_m 2.0
mtllib ../campus_materials.mtl
o SD0532_campus_boundary
usemtl campus_boundary
v -128.382 -67.170 0.050
v -137.761 17.781 0.050
v 11.107 100.303 0.050
v 71.465 105.721 0.050
v 97.985 -12.854 0.050
v 100.514 -46.755 0.050
v -128.382 -67.170 0.050
l 1 2 3 4 5 6 7 1
o SD0532_T001_1hao
v 55.777 84.232 0.000
v 57.980 60.079 0.000
v 60.450 60.300 0.000
v 60.833 56.177 0.000
v 56.535 55.790 0.000
v 56.348 57.835 0.000
v 21.430 54.684 0.000
v 21.600 52.860 0.000
v 17.418 52.485 0.000
v 17.061 56.309 0.000
v 19.317 56.519 0.000
v 17.106 80.761 0.000
v 55.777 84.232 17.300
v 57.980 60.079 17.300
v 60.450 60.300 17.300
v 60.833 56.177 17.300
v 56.535 55.790 17.300
v 56.348 57.835 17.300
v 21.430 54.684 17.300
v 21.600 52.860 17.300
v 17.418 52.485 17.300
v 17.061 56.309 17.300
v 19.317 56.519 17.300
v 17.106 80.761 17.300
usemtl roof
f 20 21 22 23 24 25 26 27 28 29 30 31
usemtl teaching_building
f 19 18 17 16 15 14 13 12 11 10 9 8
f 8 9 21 20
f 9 10 22 21
f 10 11 23 22
f 11 12 24 23
f 12 13 25 24
f 13 14 26 25
f 14 15 27 26
f 15 16 28 27
f 16 17 29 28
f 17 18 30 29
f 18 19 31 30
f 19 8 20 31
o SD0532_T002_2hao
v 78.149 -15.796 0.000
v 79.103 -28.585 0.000
v 35.510 -31.769 0.000
v 34.565 -18.991 0.000
v 78.149 -15.796 16.720
v 79.103 -28.585 16.720
v 35.510 -31.769 16.720
v 34.565 -18.991 16.720
usemtl roof
f 36 37 38 39
usemtl teaching_building
f 35 34 33 32
f 32 33 37 36
f 33 34 38 37
f 34 35 39 38
f 35 32 36 39
o SD0532_T003_3hao
v -31.142 -22.649 0.000
v -30.804 -26.297 0.000
v -9.885 -24.363 0.000
v -10.786 -14.735 0.000
v 3.820 -13.386 0.000
v 4.685 -22.594 0.000
v 22.054 -20.980 0.000
v 21.662 -16.780 0.000
v 29.562 -16.050 0.000
v 30.953 -30.851 0.000
v 8.144 -32.963 0.000
v 8.002 -31.448 0.000
v -14.112 -33.493 0.000
v -13.969 -35.052 0.000
v -36.269 -37.108 0.000
v -37.562 -23.246 0.000
v -31.142 -22.649 17.290
v -30.804 -26.297 17.290
v -9.885 -24.363 17.290
v -10.786 -14.735 17.290
v 3.820 -13.386 17.290
v 4.685 -22.594 17.290
v 22.054 -20.980 17.290
v 21.662 -16.780 17.290
v 29.562 -16.050 17.290
v 30.953 -30.851 17.290
v 8.144 -32.963 17.290
v 8.002 -31.448 17.290
v -14.112 -33.493 17.290
v -13.969 -35.052 17.290
v -36.269 -37.108 17.290
v -37.562 -23.246 17.290
usemtl roof
f 56 57 58 59 60 61 62 63 64 65 66 67 68 69 70 71
usemtl teaching_building
f 55 54 53 52 51 50 49 48 47 46 45 44 43 42 41 40
f 40 41 57 56
f 41 42 58 57
f 42 43 59 58
f 43 44 60 59
f 44 45 61 60
f 45 46 62 61
f 46 47 63 62
f 47 48 64 63
f 48 49 65 64
f 49 50 66 65
f 50 51 67 66
f 51 52 68 67
f 52 53 69 68
f 53 54 70 69
f 54 55 71 70
f 55 40 56 71
o SD0532_T004_4hao
v -105.846 7.937 0.000
v -101.522 -26.419 0.000
v -87.103 -32.863 0.000
v -44.562 -29.525 0.000
v -44.080 -38.832 0.000
v -110.652 -45.509 0.000
v -116.421 6.743 0.000
v -105.846 7.937 20.170
v -101.522 -26.419 20.170
v -87.103 -32.863 20.170
v -44.562 -29.525 20.170
v -44.080 -38.832 20.170
v -110.652 -45.509 20.170
v -116.421 6.743 20.170
usemtl roof
f 79 80 81 82 83 84 85
usemtl teaching_building
f 78 77 76 75 74 73 72
f 72 73 80 79
f 73 74 81 80
f 74 75 82 81
f 75 76 83 82
f 76 77 84 83
f 77 78 85 84
f 78 72 79 85
