# school_id SD0575
# school_name 昌邑市育新学校
# boundary_source footprint_convex_hull_buffer_20m
# adjacent_block_merge_distance_m 2.0
mtllib ../campus_materials.mtl
o SD0575_campus_boundary
usemtl campus_boundary
v -9.480 -121.035 0.050
v -79.698 -117.820 0.050
v -109.366 19.710 0.050
v -107.999 60.661 0.050
v -34.913 60.858 0.050
v 12.157 59.636 0.050
v 86.083 55.090 0.050
v 92.441 -23.699 0.050
v 91.131 -54.095 0.050
v -9.480 -121.035 0.050
l 1 2 3 4 5 6 7 8 9 10 1
o SD0575_T001_1hao
v -89.295 21.512 0.000
v 66.884 16.361 0.000
v 67.543 36.192 0.000
v 17.775 37.828 0.000
v 17.820 39.121 0.000
v 12.957 39.210 0.000
v 13.028 37.950 0.000
v 11.274 37.950 0.000
v 11.283 39.652 0.000
v -28.697 40.647 0.000
v -28.742 38.867 0.000
v -30.007 38.933 0.000
v -29.909 40.680 0.000
v -35.146 40.857 0.000
v -35.208 38.944 0.000
v -88.654 40.713 0.000
v -89.295 21.512 18.650
v 66.884 16.361 18.650
v 67.543 36.192 18.650
v 17.775 37.828 18.650
v 17.820 39.121 18.650
v 12.957 39.210 18.650
v 13.028 37.950 18.650
v 11.274 37.950 18.650
v 11.283 39.652 18.650
v -28.697 40.647 18.650
v -28.742 38.867 18.650
v -30.007 38.933 18.650
v -29.909 40.680 18.650
v -35.146 40.857 18.650
v -35.208 38.944 18.650
v -88.654 40.713 18.650
usemtl roof
f 27 28 29 30 31 32 33 34 35 36 37 38 39 40 41 42
usemtl teaching_building
f 26 25 24 23 22 21 20 19 18 17 16 15 14 13 12 11
f 11 12 28 27
f 12 13 29 28
f 13 14 30 29
f 14 15 31 30
f 15 16 32 31
f 16 17 33 32
f 17 18 34 33
f 18 19 35 34
f 19 20 36 35
f 20 21 37 36
f 21 22 38 37
f 22 23 39 38
f 23 24 40 39
f 24 25 41 40
f 25 26 42 41
f 26 11 27 42
o SD0575_T002_2hao
v 2.029 -40.136 0.000
v 71.587 -43.076 0.000
v 72.406 -24.074 0.000
v 2.848 -21.145 0.000
v 2.029 -40.136 28.510
v 71.587 -43.076 28.510
v 72.406 -24.074 28.510
v 2.848 -21.145 28.510
usemtl roof
f 47 48 49 50
usemtl teaching_building
f 46 45 44 43
f 43 44 48 47
f 44 45 49 48
f 45 46 50 49
f 46 43 47 50
o SD0575_T003_3hao
v -63.396 -98.545 0.000
v -15.107 -100.756 0.000
v -14.358 -84.650 0.000
v -62.648 -82.440 0.000
v -63.396 -98.545 17.920
v -15.107 -100.756 17.920
v -14.358 -84.650 17.920
v -62.648 -82.440 17.920
usemtl roof
f 55 56 57 58
usemtl teaching_building
f 54 53 52 51
f 51 52 56 55
f 52 53 57 56
f 53 54 58 57
f 54 51 55 58
