# school_id SD0520
# school_name 圣水学校
# boundary_source footprint_convex_hull_buffer_20m
# adjacent_block_merge_distance_m 2.0
mtllib ../campus_materials.mtl
o SD0520_campus_boundary
usemtl campus_boundary
v 128.425 -118.445 0.050
v -84.228 -110.141 0.050
v -82.621 -32.829 0.050
v -77.995 115.827 0.050
v 133.764 109.961 0.050
v 128.425 -118.445 0.050
l 1 2 3 4 5 6 1
o SD0520_T001_1hao
v 108.905 -97.668 0.000
v 113.304 90.520 0.000
v -58.625 95.283 0.000
v -60.226 36.531 0.000
v 12.545 34.150 0.000
v 10.548 -34.544 0.000
v -62.627 -33.348 0.000
v -63.824 -90.923 0.000
v 108.905 -97.668 4.950
v 113.304 90.520 4.950
v -58.625 95.283 4.950
v -60.226 36.531 4.950
v 12.545 34.150 4.950
v 10.548 -34.544 4.950
v -62.627 -33.348 4.950
v -63.824 -90.923 4.950
usemtl roof
f 15 16 17 18 19 20 21 22
usemtl teaching_building
f 14 13 12 11 10 9 8 7
f 7 8 16 15
f 8 9 17 16
f 9 10 18 17
f 10 11 19 18
f 11 12 20 19
f 12 13 21 20
f 13 14 22 21
f 14 7 15 22
