# school_id SD0505
# school_name 高新区第二实验小学
# boundary_source footprint_convex_hull_buffer_20m
# adjacent_block_merge_distance_m 2.0
mtllib ../campus_materials.mtl
o SD0505_campus_boundary
usemtl campus_boundary
v -26.905 -83.447 0.050
v -120.766 -48.194 0.050
v -121.928 75.351 0.050
v -92.440 75.634 0.050
v 49.537 66.527 0.050
v 69.802 46.402 0.050
v 69.429 29.862 0.050
v 68.263 -11.332 0.050
v 64.201 -81.447 0.050
v -26.905 -83.447 0.050
l 1 2 3 4 5 6 7 8 9 10 1
o SD0505_T001_1hao
v 38.894 -17.393 0.000
v 48.279 -10.471 0.000
v 48.554 1.184 0.000
v 44.442 1.286 0.000
v 45.124 30.472 0.000
v 49.435 30.370 0.000
v 49.613 38.264 0.000
v 40.768 47.048 0.000
v -9.130 48.188 0.000
v -10.619 -16.262 0.000
v 38.894 -17.393 9.900
v 48.279 -10.471 9.900
v 48.554 1.184 9.900
v 44.442 1.286 9.900
v 45.124 30.472 9.900
v 49.435 30.370 9.900
v 49.613 38.264 9.900
v 40.768 47.048 9.900
v -9.130 48.188 9.900
v -10.619 -16.262 9.900
usemtl roof
f 21 22 23 24 25 26 27 28 29 30
usemtl teaching_building
f 20 19 18 17 16 15 14 13 12 11
f 11 12 22 21
f 12 13 23 22
f 13 14 24 23
f 14 15 25 24
f 15 16 26 25
f 16 17 27 26
f 17 18 28 27
f 18 19 29 28
f 19 20 30 29
f 20 11 21 30
o SD0505_T002_2hao
v -100.896 -34.293 0.000
v -92.148 -34.209 0.000
v -92.985 55.628 0.000
v -101.741 55.544 0.000
v -100.896 -34.293 9.900
v -92.148 -34.209 9.900
v -92.985 55.628 9.900
v -101.741 55.544 9.900
usemtl roof
f 35 36 37 38
usemtl teaching_building
f 34 33 32 31
f 31 32 36 35
f 32 33 37 36
f 33 34 38 37
f 34 31 35 38
o SD0505_T003_3hao
v -23.486 -63.367 0.000
v 45.302 -61.857 0.000
v 44.687 -34.302 0.000
v -24.093 -35.831 0.000
v -23.486 -63.367 9.900
v 45.302 -61.857 9.900
v 44.687 -34.302 9.900
v -24.093 -35.831 9.900
usemtl roof
f 43 44 45 46
usemtl teaching_building
f 42 41 40 39
f 39 40 44 43
f 40 41 45 44
f 41 42 46 45
f 42 39 43 46
