# school_id SD0592
# school_name 潍坊北海学校
# boundary_source footprint_convex_hull_buffer_20m
# adjacent_block_merge_distance_m 2.0
mtllib ../campus_materials.mtl
o SD0592_campus_boundary
usemtl campus_boundary
v -10.422 -304.572 0.050
v -165.705 -13.066 0.050
v -169.832 71.509 0.050
v -169.266 141.550 0.050
v -23.475 141.788 0.050
v -13.524 137.307 0.050
v 34.973 106.484 0.050
v 39.592 98.938 0.050
v 104.396 -51.447 0.050
v 105.537 -79.024 0.050
v 102.403 -93.636 0.050
v 38.046 -302.775 0.050
v -10.422 -304.572 0.050
l 1 2 3 4 5 6 7 8 9 10 11 12 13 1
o SD0592_T001_1hao
v -149.828 71.916 0.000
v -122.166 71.784 0.000
v -121.925 121.593 0.000
v -149.427 121.582 0.000
v -149.828 71.916 12.310
v -122.166 71.784 12.310
v -121.925 121.593 12.310
v -149.427 121.582 12.310
usemtl roof
f 18 19 20 21
usemtl teaching_building
f 17 16 15 14
f 14 15 19 18
f 15 16 20 19
f 16 17 21 20
f 17 14 18 21
o SD0592_T002_2hao
v -25.212 17.907 0.000
v -27.077 13.341 0.000
v -14.637 6.665 0.000
v 4.647 34.466 0.000
v -16.252 47.056 0.000
v -17.743 57.193 0.000
v -8.069 73.143 0.000
v -35.509 88.509 0.000
v -39.266 83.866 0.000
v -36.634 71.331 0.000
v -40.730 63.316 0.000
v -56.658 60.089 0.000
v -64.814 65.793 0.000
v -66.483 75.675 0.000
v -61.807 84.032 0.000
v -52.348 85.458 0.000
v -54.320 86.983 0.000
v -50.117 91.747 0.000
v -55.087 94.555 0.000
v -42.666 112.341 0.000
v -38.463 110.296 0.000
v -34.608 116.431 0.000
v -33.412 115.657 0.000
v -33.412 117.194 0.000
v -30.583 121.195 0.000
v -27.755 121.781 0.000
v -23.043 119.659 0.000
v -23.302 117.448 0.000
v -18.671 114.894 0.000
v -19.527 113.623 0.000
v 14.748 93.538 0.000
v 14.766 92.433 0.000
v 18.273 93.118 0.000
v 20.334 92.090 0.000
v 21.789 89.713 0.000
v 21.360 86.220 0.000
v 20.245 83.921 0.000
v 17.336 82.816 0.000
v 18.790 81.965 0.000
v 2.764 52.782 0.000
v 24.957 39.340 0.000
v 28.901 38.743 0.000
v 29.757 36.444 0.000
v 29.499 33.891 0.000
v 26.420 31.680 0.000
v 23.243 26.661 0.000
v 20.504 27.855 0.000
v 2.255 -4.223 0.000
v 4.566 -5.583 0.000
v -3.661 -17.068 0.000
v -8.462 -16.991 0.000
v -9.221 -14.880 0.000
v -13.361 -12.823 0.000
v -14.325 -14.559 0.000
v -26.282 -6.644 0.000
v -25.167 -5.373 0.000
v -27.077 -4.268 0.000
v -28.040 -5.373 0.000
v -33.145 -1.261 0.000
v -31.547 0.640 0.000
v -33.457 2.066 0.000
v -34.260 0.640 0.000
v -38.561 3.968 0.000
v -36.973 6.344 0.000
v -43.032 5.394 0.000
v -50.206 8.400 0.000
v -52.598 16.801 0.000
v -48.930 23.456 0.000
v -34.099 27.888 0.000
v -27.201 23.588 0.000
v -25.212 17.907 32.300
v -27.077 13.341 32.300
v -14.637 6.665 32.300
v 4.647 34.466 32.300
v -16.252 47.056 32.300
v -17.743 57.193 32.300
v -8.069 73.143 32.300
v -35.509 88.509 32.300
v -39.266 83.866 32.300
v -36.634 71.331 32.300
v -40.730 63.316 32.300
v -56.658 60.089 32.300
v -64.814 65.793 32.300
v -66.483 75.675 32.300
v -61.807 84.032 32.300
v -52.348 85.458 32.300
v -54.320 86.983 32.300
v -50.117 91.747 32.300
v -55.087 94.555 32.300
v -42.666 112.341 32.300
v -38.463 110.296 32.300
v -34.608 116.431 32.300
v -33.412 115.657 32.300
v -33.412 117.194 32.300
v -30.583 121.195 32.300
v -27.755 121.781 32.300
v -23.043 119.659 32.300
v -23.302 117.448 32.300
v -18.671 114.894 32.300
v -19.527 113.623 32.300
v 14.748 93.538 32.300
v 14.766 92.433 32.300
v 18.273 93.118 32.300
v 20.334 92.090 32.300
v 21.789 89.713 32.300
v 21.360 86.220 32.300
v 20.245 83.921 32.300
v 17.336 82.816 32.300
v 18.790 81.965 32.300
v 2.764 52.782 32.300
v 24.957 39.340 32.300
v 28.901 38.743 32.300
v 29.757 36.444 32.300
v 29.499 33.891 32.300
v 26.420 31.680 32.300
v 23.243 26.661 32.300
v 20.504 27.855 32.300
v 2.255 -4.223 32.300
v 4.566 -5.583 32.300
v -3.661 -17.068 32.300
v -8.462 -16.991 32.300
v -9.221 -14.880 32.300
v -13.361 -12.823 32.300
v -14.325 -14.559 32.300
v -26.282 -6.644 32.300
v -25.167 -5.373 32.300
v -27.077 -4.268 32.300
v -28.040 -5.373 32.300
v -33.145 -1.261 32.300
v -31.547 0.640 32.300
v -33.457 2.066 32.300
v -34.260 0.640 32.300
v -38.561 3.968 32.300
v -36.973 6.344 32.300
v -43.032 5.394 32.300
v -50.206 8.400 32.300
v -52.598 16.801 32.300
v -48.930 23.456 32.300
v -34.099 27.888 32.300
v -27.201 23.588 32.300
usemtl roof
f 92 93 94 95 96 97 98 99 100 101 102 103 104 105 106 107 108 109 110 111 112 113 114 115 116 117 118 119 120 121 122 123 124 125 126 127 128 129 130 131 132 133 134 135 136 137 138 139 140 141 142 143 144 145 146 147 148 149 150 151 152 153 154 155 156 157 158 159 160 161
usemtl teaching_building
f 91 90 89 88 87 86 85 84 83 82 81 80 79 78 77 76 75 74 73 72 71 70 69 68 67 66 65 64 63 62 61 60 59 58 57 56 55 54 53 52 51 50 49 48 47 46 45 44 43 42 41 40 39 38 37 36 35 34 33 32 31 30 29 28 27 26 25 24 23 22
f 22 23 93 92
f 23 24 94 93
f 24 25 95 94
f 25 26 96 95
f 26 27 97 96
f 27 28 98 97
f 28 29 99 98
f 29 30 100 99
f 30 31 101 100
f 31 32 102 101
f 32 33 103 102
f 33 34 104 103
f 34 35 105 104
f 35 36 106 105
f 36 37 107 106
f 37 38 108 107
f 38 39 109 108
f 39 40 110 109
f 40 41 111 110
f 41 42 112 111
f 42 43 113 112
f 43 44 114 113
f 44 45 115 114
f 45 46 116 115
f 46 47 117 116
f 47 48 118 117
f 48 49 119 118
f 49 50 120 119
f 50 51 121 120
f 51 52 122 121
f 52 53 123 122
f 53 54 124 123
f 54 55 125 124
f 55 56 126 125
f 56 57 127 126
f 57 58 128 127
f 58 59 129 128
f 59 60 130 129
f 60 61 131 130
f 61 62 132 131
f 62 63 133 132
f 63 64 134 133
f 64 65 135 134
f 65 66 136 135
f 66 67 137 136
f 67 68 138 137
f 68 69 139 138
f 69 70 140 139
f 70 71 141 140
f 71 72 142 141
f 72 73 143 142
f 73 74 144 143
f 74 75 145 144
f 75 76 146 145
f 76 77 147 146
f 77 78 148 147
f 78 79 149 148
f 79 80 150 149
f 80 81 151 150
f 81 82 152 151
f 82 83 153 152
f 83 84 154 153
f 84 85 155 154
f 85 86 156 155
f 86 87 157 156
f 87 88 158 157
f 88 89 159 158
f 89 90 160 159
f 90 91 161 160
f 91 22 92 161
o SD0592_T003_3hao
v -145.947 -7.617 0.000
v -111.261 -7.374 0.000
v -111.725 57.380 0.000
v -146.393 57.137 0.000
v -145.947 -7.617 17.930
v -111.261 -7.374 17.930
v -111.725 57.380 17.930
v -146.393 57.137 17.930
usemtl roof
f 166 167 168 169
usemtl teaching_building
f 165 164 163 162
f 162 163 167 166
f 163 164 168 167
f 164 165 169 168
f 165 162 166 169
o SD0592_T004_4hao
v 32.318 -81.944 0.000
v 34.647 -81.624 0.000
v 33.122 -59.405 0.000
v 64.514 -58.289 0.000
v 64.871 -87.140 0.000
v 57.492 -88.057 0.000
v 57.581 -92.434 0.000
v 64.916 -91.384 0.000
v 79.649 -91.616 0.000
v 79.568 -88.665 0.000
v 83.031 -88.588 0.000
v 82.709 -77.313 0.000
v 85.449 -77.313 0.000
v 84.566 -55.967 0.000
v 77.561 -55.967 0.000
v 79.729 -50.971 0.000
v 78.810 -46.638 0.000
v 76.606 -44.847 0.000
v 73.884 -44.394 0.000
v 69.985 -46.527 0.000
v 64.434 -46.693 0.000
v 64.514 -44.294 0.000
v 60.731 -44.294 0.000
v 27.964 -45.090 0.000
v 28.294 -47.732 0.000
v 22.155 -46.284 0.000
v 19.228 -47.566 0.000
v 17.711 -51.468 0.000
v 18.862 -54.221 0.000
v 20.771 -55.569 0.000
v 20.968 -57.404 0.000
v 15.730 -57.559 0.000
v 17.015 -82.663 0.000
v 20.236 -83.226 0.000
v 16.372 -87.549 0.000
v 17.827 -89.936 0.000
v 18.710 -94.734 0.000
v 26.197 -100.570 0.000
v 32.970 -100.051 0.000
v 40.849 -91.141 0.000
v 32.318 -81.944 17.770
v 34.647 -81.624 17.770
v 33.122 -59.405 17.770
v 64.514 -58.289 17.770
v 64.871 -87.140 17.770
v 57.492 -88.057 17.770
v 57.581 -92.434 17.770
v 64.916 -91.384 17.770
v 79.649 -91.616 17.770
v 79.568 -88.665 17.770
v 83.031 -88.588 17.770
v 82.709 -77.313 17.770
v 85.449 -77.313 17.770
v 84.566 -55.967 17.770
v 77.561 -55.967 17.770
v 79.729 -50.971 17.770
v 78.810 -46.638 17.770
v 76.606 -44.847 17.770
v 73.884 -44.394 17.770
v 69.985 -46.527 17.770
v 64.434 -46.693 17.770
v 64.514 -44.294 17.770
v 60.731 -44.294 17.770
v 27.964 -45.090 17.770
v 28.294 -47.732 17.770
v 22.155 -46.284 17.770
v 19.228 -47.566 17.770
v 17.711 -51.468 17.770
v 18.862 -54.221 17.770
v 20.771 -55.569 17.770
v 20.968 -57.404 17.770
v 15.730 -57.559 17.770
v 17.015 -82.663 17.770
v 20.236 -83.226 17.770
v 16.372 -87.549 17.770
v 17.827 -89.936 17.770
v 18.710 -94.734 17.770
v 26.197 -100.570 17.770
v 32.970 -100.051 17.770
v 40.849 -91.141 17.770
usemtl roof
f 210 211 212 213 214 215 216 217 218 219 220 221 222 223 224 225 226 227 228 229 230 231 232 233 234 235 236 237 238 239 240 241 242 243 244 245 246 247 248 249
usemtl teaching_building
f 209 208 207 206 205 204 203 202 201 200 199 198 197 196 195 194 193 192 191 190 189 188 187 186 185 184 183 182 181 180 179 178 177 176 175 174 173 172 171 170
f 170 171 211 210
f 171 172 212 211
f 172 173 213 212
f 173 174 214 213
f 174 175 215 214
f 175 176 216 215
f 176 177 217 216
f 177 178 218 217
f 178 179 219 218
f 179 180 220 219
f 180 181 221 220
f 181 182 222 221
f 182 183 223 222
f 183 184 224 223
f 184 185 225 224
f 185 186 226 225
f 186 187 227 226
f 187 188 228 227
f 188 189 229 228
f 189 190 230 229
f 190 191 231 230
f 191 192 232 231
f 192 193 233 232
f 193 194 234 233
f 194 195 235 234
f 195 196 236 235
f 196 197 237 236
f 197 198 238 237
f 198 199 239 238
f 199 200 240 239
f 200 201 241 240
f 201 202 242 241
f 202 203 243 242
f 203 204 244 243
f 204 205 245 244
f 205 206 246 245
f 206 207 247 246
f 207 208 248 247
f 208 209 249 248
f 209 170 210 249
o SD0592_T005_5hao
v 1.345 -284.122 0.000
v 23.109 -283.315 0.000
v 22.449 -265.794 0.000
v 0.685 -266.612 0.000
v 1.345 -284.122 10.370
v 23.109 -283.315 10.370
v 22.449 -265.794 10.370
v 0.685 -266.612 10.370
usemtl roof
f 254 255 256 257
usemtl teaching_building
f 253 252 251 250
f 250 251 255 254
f 251 252 256 255
f 252 253 257 256
f 253 250 254 257
