# school_id SD0559
# school_name 昌邑市围子街道陶埠小学
# boundary_source footprint_convex_hull_buffer_20m
# adjacent_block_merge_distance_m 2.0
mtllib ../campus_materials.mtl
o SD0559_campus_boundary
usemtl campus_boundary
v -11.870 -80.365 0.050
v -88.028 17.344 0.050
v -89.015 50.551 0.050
v -32.886 53.707 0.050
v 3.721 55.321 0.050
v 50.095 56.684 0.050
v 54.155 12.722 0.050
v 57.638 -50.083 0.050
v 58.528 -78.199 0.050
v -11.870 -80.365 0.050
l 1 2 3 4 5 6 7 8 9 10 1
o SD0559_T001_1hao
v 35.543 -16.630 0.000
v -4.699 -17.857 0.000
v -4.949 -9.998 0.000
v 35.294 -8.760 0.000
v 35.543 -16.630 8.500
v -4.699 -17.857 8.500
v -4.949 -9.998 8.500
v 35.294 -8.760 8.500
usemtl roof
f 15 16 17 18
usemtl teaching_building
f 14 13 12 11
f 11 12 16 15
f 12 13 17 16
f 13 14 18 17
f 14 11 15 18
o SD0559_T002_2hao
v 36.693 -38.318 0.000
v -3.549 -39.556 0.000
v -3.799 -31.697 0.000
v 36.444 -30.448 0.000
v 36.693 -38.318 7.240
v -3.549 -39.556 7.240
v -3.799 -31.697 7.240
v 36.444 -30.448 7.240
usemtl roof
f 23 24 25 26
usemtl teaching_building
f 22 21 20 19
f 19 20 24 23
f 20 21 25 24
f 21 22 26 25
f 22 19 23 26
