# school_id SD0587
# school_name 洛城街道第一初级中学
# boundary_source footprint_convex_hull_buffer_20m
# adjacent_block_merge_distance_m 2.0
mtllib ../campus_materials.mtl
o SD0587_campus_boundary
usemtl campus_boundary
v 51.645 -188.334 0.050
v -5.777 -119.811 0.050
v -105.076 20.010 0.050
v -106.205 97.603 0.050
v -106.936 156.960 0.050
v 75.509 159.591 0.050
v 98.728 -25.636 0.050
v 100.850 -188.171 0.050
v 51.645 -188.334 0.050
l 1 2 3 4 5 6 7 8 9 1
o SD0587_T001_1hao
v -86.476 122.907 0.000
v 58.101 125.001 0.000
v 57.892 139.335 0.000
v -86.692 137.250 0.000
v -86.476 122.907 9.900
v 58.101 125.001 9.900
v 57.892 139.335 9.900
v -86.692 137.250 9.900
usemtl roof
f 14 15 16 17
usemtl teaching_building
f 13 12 11 10
f 10 11 15 14
f 11 12 16 15
f 12 13 17 16
f 13 10 14 17
o SD0587_T002_2hao
v -85.169 26.520 0.000
v -20.014 27.456 0.000
v -20.358 51.611 0.000
v -65.452 50.962 0.000
v -65.922 82.288 0.000
v -18.603 82.974 0.000
v -18.835 98.845 0.000
v -86.207 97.872 0.000
v -85.169 26.520 9.900
v -20.014 27.456 9.900
v -20.358 51.611 9.900
v -65.452 50.962 9.900
v -65.922 82.288 9.900
v -18.603 82.974 9.900
v -18.835 98.845 9.900
v -86.207 97.872 9.900
usemtl roof
f 26 27 28 29 30 31 32 33
usemtl teaching_building
f 25 24 23 22 21 20 19 18
f 18 19 27 26
f 19 20 28 27
f 20 21 29 28
f 21 22 30 29
f 22 23 31 30
f 23 24 32 31
f 24 25 33 32
f 25 18 26 33
o SD0587_T003_3hao
v 6.407 -55.173 0.000
v 56.892 -54.441 0.000
v 56.496 -27.136 0.000
v 6.004 -27.868 0.000
v 6.407 -55.173 9.900
v 56.892 -54.441 9.900
v 56.496 -27.136 9.900
v 6.004 -27.868 9.900
usemtl roof
f 38 39 40 41
usemtl teaching_building
f 37 36 35 34
f 34 35 39 38
f 35 36 40 39
f 36 37 41 40
f 37 34 38 41
o SD0587_T004_4hao
v 8.976 -80.004 0.000
v 54.629 -79.346 0.000
v 54.405 -64.457 0.000
v 8.759 -65.105 0.000
v 8.976 -80.004 9.900
v 54.629 -79.346 9.900
v 54.405 -64.457 9.900
v 8.759 -65.105 9.900
usemtl roof
f 46 47 48 49
usemtl teaching_building
f 45 44 43 42
f 42 43 47 46
f 43 44 48 47
f 44 45 49 48
f 45 42 46 49
o SD0587_T005_5hao
v 60.953 -168.303 0.000
v 80.588 -168.238 0.000
v 78.744 -27.015 0.000
v 58.885 -27.302 0.000
v 60.953 -168.303 9.900
v 80.588 -168.238 9.900
v 78.744 -27.015 9.900
v 58.885 -27.302 9.900
usemtl roof
f 54 55 56 57
usemtl teaching_building
f 53 52 51 50
f 50 51 55 54
f 51 52 56 55
f 52 53 57 56
f 53 50 54 57
o SD0587_T006_6hao
v 10.066 -107.578 0.000
v 54.935 -106.920 0.000
v 54.749 -94.291 0.000
v 9.879 -94.940 0.000
v 10.066 -107.578 9.900
v 54.935 -106.920 9.900
v 54.749 -94.291 9.900
v 9.879 -94.940 9.900
usemtl roof
f 62 63 64 65
usemtl teaching_building
f 61 60 59 58
f 58 59 63 62
f 59 60 64 63
f 60 61 65 64
f 61 58 62 65
