# school_id SD0555
# school_name 昌邑市围子街道宇翰小学
# boundary_source footprint_convex_hull_buffer_20m
# adjacent_block_merge_distance_m 2.0
mtllib ../campus_materials.mtl
o SD0555_campus_boundary
usemtl campus_boundary
v 48.714 -65.565 0.050
v -4.636 -65.376 0.050
v -61.188 -31.934 0.050
v -61.406 30.049 0.050
v -61.306 57.483 0.050
v -13.164 57.333 0.050
v 49.721 56.895 0.050
v 49.721 12.570 0.050
v 49.695 5.058 0.050
v 48.714 -65.565 0.050
l 1 2 3 4 5 6 7 8 9 10 1
o SD0555_T001_1hao
v 29.721 12.605 0.000
v 29.695 5.232 0.000
v 1.367 5.553 0.000
v 1.402 12.904 0.000
v 29.721 12.605 7.550
v 29.695 5.232 7.550
v 1.367 5.553 7.550
v 1.402 12.904 7.550
usemtl roof
f 15 16 17 18
usemtl teaching_building
f 14 13 12 11
f 11 12 16 15
f 12 13 17 16
f 13 14 18 17
f 14 11 15 18
