# school_id SD0581
# school_name 昌邑市龙池镇龙池小学
# boundary_source footprint_convex_hull_buffer_20m
# adjacent_block_merge_distance_m 2.0
mtllib ../campus_materials.mtl
o SD0581_campus_boundary
usemtl campus_boundary
v -81.900 -84.870 0.050
v -85.677 -30.464 0.050
v -86.702 -15.035 0.050
v -39.361 75.050 0.050
v -3.493 80.060 0.050
v 13.327 81.664 0.050
v 51.388 83.172 0.050
v 91.399 14.660 0.050
v 99.531 -74.798 0.050
v -81.900 -84.870 0.050
l 1 2 3 4 5 6 7 8 9 10 1
o SD0581_T001_1hao
v -24.947 41.198 0.000
v 41.638 47.507 0.000
v 40.176 62.712 0.000
v 33.576 62.091 0.000
v 33.912 58.598 0.000
v 15.142 56.801 0.000
v 14.673 61.702 0.000
v -1.159 60.192 0.000
v -0.682 55.337 0.000
v -19.161 53.576 0.000
v -19.526 57.310 0.000
v -26.431 56.662 0.000
v -24.947 41.198 9.900
v 41.638 47.507 9.900
v 40.176 62.712 9.900
v 33.576 62.091 9.900
v 33.912 58.598 9.900
v 15.142 56.801 9.900
v 14.673 61.702 9.900
v -1.159 60.192 9.900
v -0.682 55.337 9.900
v -19.161 53.576 9.900
v -19.526 57.310 9.900
v -26.431 56.662 9.900
usemtl roof
f 23 24 25 26 27 28 29 30 31 32 33 34
usemtl teaching_building
f 22 21 20 19 18 17 16 15 14 13 12 11
f 11 12 24 23
f 12 13 25 24
f 13 14 26 25
f 14 15 27 26
f 15 16 28 27
f 16 17 29 28
f 17 18 30 29
f 18 19 31 30
f 19 20 32 31
f 20 21 33 32
f 21 22 34 33
f 22 11 23 34
o SD0581_T002_2hao
v -16.260 -26.430 0.000
v 49.430 -21.714 0.000
v 48.737 -12.115 0.000
v -16.968 -16.840 0.000
v -16.260 -26.430 9.900
v 49.430 -21.714 9.900
v 48.737 -12.115 9.900
v -16.968 -16.840 9.900
usemtl roof
f 39 40 41 42
usemtl teaching_building
f 38 37 36 35
f 35 36 40 39
f 36 37 41 40
f 37 38 42 41
f 38 35 39 42
o SD0581_T003_3hao
v 66.522 -56.385 0.000
v 77.738 -55.977 0.000
v 71.884 8.417 0.000
v 60.668 7.537 0.000
v 66.522 -56.385 9.900
v 77.738 -55.977 9.900
v 71.884 8.417 9.900
v 60.668 7.537 9.900
usemtl roof
f 47 48 49 50
usemtl teaching_building
f 46 45 44 43
f 43 44 48 47
f 44 45 49 48
f 45 46 50 49
f 46 43 47 50
o SD0581_T004_4hao
v -65.723 -29.108 0.000
v -36.767 -27.208 0.000
v -35.007 -53.541 0.000
v -63.881 -55.440 0.000
v -63.314 -63.807 0.000
v -24.731 -61.259 0.000
v -25.604 -48.278 0.000
v -27.490 -48.398 0.000
v -28.840 -28.255 0.000
v -26.841 -28.126 0.000
v -27.595 -16.794 0.000
v -66.372 -19.342 0.000
v -65.723 -29.108 9.900
v -36.767 -27.208 9.900
v -35.007 -53.541 9.900
v -63.881 -55.440 9.900
v -63.314 -63.807 9.900
v -24.731 -61.259 9.900
v -25.604 -48.278 9.900
v -27.490 -48.398 9.900
v -28.840 -28.255 9.900
v -26.841 -28.126 9.900
v -27.595 -16.794 9.900
v -66.372 -19.342 9.900
usemtl roof
f 63 64 65 66 67 68 69 70 71 72 73 74
usemtl teaching_building
f 62 61 60 59 58 57 56 55 54 53 52 51
f 51 52 64 63
f 52 53 65 64
f 53 54 66 65
f 54 55 67 66
f 55 56 68 67
f 56 57 69 68
f 57 58 70 69
f 58 59 71 70
f 59 60 72 71
f 60 61 73 72
f 61 62 74 73
f 62 51 63 74
