# school_id SD0517
# school_name 临朐县蒋峪镇李子行小学
# boundary_source footprint_convex_hull_buffer_20m
# adjacent_block_merge_distance_m 2.0
mtllib ../campus_materials.mtl
o SD0517_campus_boundary
usemtl campus_boundary
v 28.791 -40.361 0.050
v -13.133 -37.777 0.050
v -32.384 -33.535 0.050
v -40.761 4.275 0.050
v -35.486 28.089 0.050
v -29.290 55.952 0.050
v 46.339 38.771 0.050
v 40.118 10.674 0.050
v 37.164 -2.652 0.050
v 34.659 -13.941 0.050
v 28.791 -40.361 0.050
l 1 2 3 4 5 6 7 8 9 10 11 1
o SD0517_T001_1hao
v -14.128 31.998 0.000
v 22.512 23.674 0.000
v 20.591 14.997 0.000
v -15.959 23.763 0.000
v -14.128 31.998 7.030
v 22.512 23.674 7.030
v 20.591 14.997 7.030
v -15.959 23.763 7.030
usemtl roof
f 16 17 18 19
usemtl teaching_building
f 15 14 13 12
f 12 13 17 16
f 13 14 18 17
f 14 15 19 18
f 15 12 16 19
