# school_id SD0568
# school_name 昌邑市柳疃镇潮海学区小学
# boundary_source footprint_convex_hull_buffer_20m
# adjacent_block_merge_distance_m 2.0
mtllib ../campus_materials.mtl
o SD0568_campus_boundary
usemtl campus_boundary
v 58.867 -24.422 0.050
v -65.351 -21.055 0.050
v -62.736 24.226 0.050
v 70.173 21.252 0.050
v 58.867 -24.422 0.050
l 1 2 3 4 5 1
o SD0568_T001_1hao
v 43.320 -3.993 0.000
v 44.758 1.816 0.000
v -43.882 3.799 0.000
v -44.195 -1.621 0.000
v 43.320 -3.993 6.600
v 44.758 1.816 6.600
v -43.882 3.799 6.600
v -44.195 -1.621 6.600
usemtl roof
f 10 11 12 13
usemtl teaching_building
f 9 8 7 6
f 6 7 11 10
f 7 8 12 11
f 8 9 13 12
f 9 6 10 13
