# school_id SD0519
# school_name 云门山路回民小学
# boundary_source footprint_convex_hull_buffer_20m
# adjacent_block_merge_distance_m 2.0
mtllib ../campus_materials.mtl
o SD0519_campus_boundary
usemtl campus_boundary
v 61.726 -97.583 0.050
v -39.276 -90.818 0.050
v -57.209 25.866 0.050
v -55.995 56.415 0.050
v -8.466 64.325 0.050
v 62.578 61.803 0.050
v 63.129 -63.301 0.050
v 61.726 -97.583 0.050
l 1 2 3 4 5 6 7 8 1
o SD0519_T001_1hao
v 42.663 42.497 0.000
v 42.047 25.397 0.000
v -7.783 27.165 0.000
v -7.166 44.266 0.000
v 42.663 42.497 13.770
v 42.047 25.397 13.770
v -7.783 27.165 13.770
v -7.166 44.266 13.770
usemtl roof
f 13 14 15 16
usemtl teaching_building
f 12 11 10 9
f 9 10 14 13
f 10 11 15 14
f 11 12 16 15
f 12 9 13 16
o SD0519_T002_2hao
v 43.127 -62.936 0.000
v 42.582 -76.256 0.000
v -21.943 -71.934 0.000
v -20.854 -59.520 0.000
v 43.127 -62.936 14.910
v 42.582 -76.256 14.910
v -21.943 -71.934 14.910
v -20.854 -59.520 14.910
usemtl roof
f 21 22 23 24
usemtl teaching_building
f 20 19 18 17
f 17 18 22 21
f 18 19 23 22
f 19 20 24 23
f 20 17 21 24
