# school_id SD0531
# school_name 山东省民族中等专业学校(山东青州技师学院)
# boundary_source footprint_convex_hull_buffer_20m
# adjacent_block_merge_distance_m 2.0
mtllib ../campus_materials.mtl
o SD0531_campus_boundary
usemtl campus_boundary
v 50.650 -60.789 0.050
v -46.081 -47.594 0.050
v -37.785 21.819 0.050
v -32.706 58.533 0.050
v 65.295 45.171 0.050
v 50.650 -60.789 0.050
l 1 2 3 4 5 6 1
o SD0531_T001_1hao
v -17.948 19.262 0.000
v -15.630 36.020 0.000
v 42.740 28.061 0.000
v 33.572 -38.274 0.000
v -23.888 -30.436 0.000
v -21.596 -13.922 0.000
v -14.256 -14.925 0.000
v -10.091 18.188 0.000
v -17.948 19.262 11.410
v -15.630 36.020 11.410
v 42.740 28.061 11.410
v 33.572 -38.274 11.410
v -23.888 -30.436 11.410
v -21.596 -13.922 11.410
v -14.256 -14.925 11.410
v -10.091 18.188 11.410
usemtl roof
f 15 16 17 18 19 20 21 22
usemtl teaching_building
f 14 13 12 11 10 9 8 7
f 7 8 16 15
f 8 9 17 16
f 9 10 18 17
f 10 11 19 18
f 11 12 20 19
f 12 13 21 20
f 13 14 22 21
f 14 7 15 22
