# school_id SD0558
# school_name 昌邑市围子街道辛赵小学
# boundary_source footprint_convex_hull_buffer_20m
# adjacent_block_merge_distance_m 2.0
mtllib ../campus_materials.mtl
o SD0558_campus_boundary
usemtl campus_boundary
v 39.132 -45.843 0.050
v -14.490 -41.971 0.050
v -73.229 -36.806 0.050
v -68.020 22.602 0.050
v -65.421 51.328 0.050
v -5.228 46.034 0.050
v 94.498 20.124 0.050
v 90.382 -15.477 0.050
v 39.132 -45.843 0.050
l 1 2 3 4 5 6 7 8 9 1
o SD0558_T001_1hao
v -9.434 17.408 0.000
v -8.642 26.257 0.000
v -47.300 29.657 0.000
v -48.099 20.827 0.000
v -9.434 17.408 6.600
v -8.642 26.257 6.600
v -47.300 29.657 6.600
v -48.099 20.827 6.600
usemtl roof
f 14 15 16 17
usemtl teaching_building
f 13 12 11 10
f 10 11 15 14
f 11 12 16 15
f 12 13 17 16
f 13 10 14 17
