# school_id SD0553
# school_name 昌邑市围子街道于郜小学
# boundary_source footprint_convex_hull_buffer_20m
# adjacent_block_merge_distance_m 2.0
mtllib ../campus_materials.mtl
o SD0553_campus_boundary
usemtl campus_boundary
v 58.298 -26.237 0.050
v -60.271 -23.163 0.050
v -58.278 27.012 0.050
v 60.250 22.384 0.050
v 58.298 -26.237 0.050
l 1 2 3 4 5 1
o SD0553_T001_1hao
v 39.105 -5.733 0.000
v 39.463 3.180 0.000
v -39.087 6.247 0.000
v -39.482 -3.695 0.000
v 39.105 -5.733 4.950
v 39.463 3.180 4.950
v -39.087 6.247 4.950
v -39.482 -3.695 4.950
usemtl roof
f 10 11 12 13
usemtl teaching_building
f 9 8 7 6
f 6 7 11 10
f 7 8 12 11
f 8 9 13 12
f 9 6 10 13
