# school_id SD0563
# school_name 昌邑市奎聚街道奎聚小学
# boundary_source footprint_convex_hull_buffer_20m
# adjacent_block_merge_distance_m 2.0
mtllib ../campus_materials.mtl
o SD0563_campus_boundary
usemtl campus_boundary
v 53.295 -56.892 0.050
v -10.991 -53.983 0.050
v -39.439 -47.381 0.050
v -38.303 -22.939 0.050
v -34.047 47.810 0.050
v -6.858 55.469 0.050
v 57.359 52.563 0.050
v 55.107 -17.345 0.050
v 53.295 -56.892 0.050
l 1 2 3 4 5 6 7 8 9 1
o SD0563_T001_1hao
v -17.066 -24.071 0.000
v -18.331 -24.004 0.000
v -18.687 -31.665 0.000
v -8.166 -32.140 0.000
v -8.255 -34.086 0.000
v 34.231 -36.009 0.000
v 35.122 -16.565 0.000
v -9.297 -14.553 0.000
v -7.872 16.707 0.000
v 35.870 14.729 0.000
v 36.734 33.476 0.000
v -4.540 35.344 0.000
v -4.700 31.951 0.000
v -14.937 32.415 0.000
v -17.066 -24.071 13.400
v -18.331 -24.004 13.400
v -18.687 -31.665 13.400
v -8.166 -32.140 13.400
v -8.255 -34.086 13.400
v 34.231 -36.009 13.400
v 35.122 -16.565 13.400
v -9.297 -14.553 13.400
v -7.872 16.707 13.400
v 35.870 14.729 13.400
v 36.734 33.476 13.400
v -4.540 35.344 13.400
v -4.700 31.951 13.400
v -14.937 32.415 13.400
usemtl roof
f 24 25 26 27 28 29 30 31 32 33 34 35 36 37
usemtl teaching_building
f 23 22 21 20 19 18 17 16 15 14 13 12 11 10
f 10 11 25 24
f 11 12 26 25
f 12 13 27 26
f 13 14 28 27
f 14 15 29 28
f 15 16 30 29
f 16 17 31 30
f 17 18 32 31
f 18 19 33 32
f 19 20 34 33
f 20 21 35 34
f 21 22 36 35
f 22 23 37 36
f 23 10 24 37
