# school_id SD0557
# school_name 昌邑市围子街道民丰小学
# boundary_source footprint_convex_hull_buffer_20m
# adjacent_block_merge_distance_m 2.0
mtllib ../campus_materials.mtl
o SD0557_campus_boundary
usemtl campus_boundary
v 41.233 -158.090 0.050
v -14.875 -155.285 0.050
v -61.685 -152.359 0.050
v -43.883 128.155 0.050
v -3.531 129.370 0.050
v 7.140 128.772 0.050
v 45.726 122.178 0.050
v 53.969 17.791 0.050
v 51.782 -36.378 0.050
v 51.345 -43.288 0.050
v 49.330 -72.796 0.050
v 46.108 -113.393 0.050
v 41.233 -158.090 0.050
l 1 2 3 4 5 6 7 8 9 10 11 12 13 1
o SD0557_T001_1hao
v -25.879 94.497 0.000
v -17.886 94.044 0.000
v -17.824 95.105 0.000
v -3.460 94.298 0.000
v -3.594 91.932 0.000
v 3.525 91.523 0.000
v 3.614 93.071 0.000
v 18.459 92.231 0.000
v 18.370 90.760 0.000
v 26.167 90.318 0.000
v 27.013 105.086 0.000
v 18.744 105.562 0.000
v 18.620 103.450 0.000
v 10.796 103.893 0.000
v 10.992 107.330 0.000
v 4.817 107.684 0.000
v 4.889 108.867 0.000
v -3.790 109.353 0.000
v -3.861 108.137 0.000
v -11.409 108.557 0.000
v -11.587 105.429 0.000
v -16.862 105.717 0.000
v -16.719 108.248 0.000
v -25.077 108.712 0.000
v -25.879 94.497 10.190
v -17.886 94.044 10.190
v -17.824 95.105 10.190
v -3.460 94.298 10.190
v -3.594 91.932 10.190
v 3.525 91.523 10.190
v 3.614 93.071 10.190
v 18.459 92.231 10.190
v 18.370 90.760 10.190
v 26.167 90.318 10.190
v 27.013 105.086 10.190
v 18.744 105.562 10.190
v 18.620 103.450 10.190
v 10.796 103.893 10.190
v 10.992 107.330 10.190
v 4.817 107.684 10.190
v 4.889 108.867 10.190
v -3.790 109.353 10.190
v -3.861 108.137 10.190
v -11.409 108.557 10.190
v -11.587 105.429 10.190
v -16.862 105.717 10.190
v -16.719 108.248 10.190
v -25.077 108.712 10.190
usemtl roof
f 38 39 40 41 42 43 44 45 46 47 48 49 50 51 52 53 54 55 56 57 58 59 60 61
usemtl teaching_building
f 37 36 35 34 33 32 31 30 29 28 27 26 25 24 23 22 21 20 19 18 17 16 15 14
f 14 15 39 38
f 15 16 40 39
f 16 17 41 40
f 17 18 42 41
f 18 19 43 42
f 19 20 44 43
f 20 21 45 44
f 21 22 46 45
f 22 23 47 46
f 23 24 48 47
f 24 25 49 48
f 25 26 50 49
f 26 27 51 50
f 27 28 52 51
f 28 29 53 52
f 29 30 54 53
f 30 31 55 54
f 31 32 56 55
f 32 33 57 56
f 33 34 58 57
f 34 35 59 58
f 35 36 60 59
f 36 37 61 60
f 37 14 38 61
