# school_id SD0596
# school_name 潍坊市十三中
# boundary_source footprint_convex_hull_buffer_20m
# adjacent_block_merge_distance_m 2.0
mtllib ../campus_materials.mtl
o SD0596_campus_boundary
usemtl campus_boundary
v -47.153 -85.735 0.050
v -63.174 49.125 0.050
v 10.400 55.902 0.050
v 29.627 49.564 0.050
v 39.990 33.627 0.050
v 46.378 -80.800 0.050
v -47.153 -85.735 0.050
l 1 2 3 4 5 6 7 1
o SD0596_T001_1hao
v -29.502 -64.776 0.000
v 25.291 -61.885 0.000
v 20.318 27.192 0.000
v 16.691 32.770 0.000
v 8.091 35.605 0.000
v -40.891 31.093 0.000
v -29.502 -64.776 9.900
v 25.291 -61.885 9.900
v 20.318 27.192 9.900
v 16.691 32.770 9.900
v 8.091 35.605 9.900
v -40.891 31.093 9.900
usemtl roof
f 14 15 16 17 18 19
usemtl teaching_building
f 13 12 11 10 9 8
f 8 9 15 14
f 9 10 16 15
f 10 11 17 16
f 11 12 18 17
f 12 13 19 18
f 13 8 14 19
