# school_id SD0533
# school_name 山东省诸城实验中学(东坡校区)
# boundary_source footprint_convex_hull_buffer_20m
# adjacent_block_merge_distance_m 2.0
mtllib ../campus_materials.mtl
o SD0533_campus_boundary
usemtl campus_boundary
v -81.920 -153.911 0.050
v -94.923 -38.275 0.050
v -99.089 7.790 0.050
v -57.555 126.394 0.050
v -7.924 130.215 0.050
v 121.129 102.999 0.050
v 126.720 60.185 0.050
v 27.272 -118.339 0.050
v -6.004 -147.912 0.050
v -81.920 -153.911 0.050
l 1 2 3 4 5 6 7 8 9 10 1
o SD0533_T001_1hao
v 50.190 94.490 0.000
v 53.081 72.282 0.000
v 8.857 66.611 0.000
v 5.966 88.808 0.000
v 50.190 94.490 14.100
v 53.081 72.282 14.100
v 8.857 66.611 14.100
v 5.966 88.808 14.100
usemtl roof
f 15 16 17 18
usemtl teaching_building
f 14 13 12 11
f 11 12 16 15
f 12 13 17 16
f 13 14 18 17
f 14 11 15 18
o SD0533_T002_2hao
v -9.247 110.054 0.000
v -4.077 44.061 0.000
v -37.844 41.464 0.000
v -42.996 107.456 0.000
v -9.247 110.054 13.300
v -4.077 44.061 13.300
v -37.844 41.464 13.300
v -42.996 107.456 13.300
usemtl roof
f 23 24 25 26
usemtl teaching_building
f 22 21 20 19
f 19 20 24 23
f 20 21 25 24
f 21 22 26 25
f 22 19 23 26
o SD0533_T003_3hao
v 103.133 86.354 0.000
v 106.033 64.146 0.000
v 61.809 58.465 0.000
v 58.918 80.672 0.000
v 103.133 86.354 20.430
v 106.033 64.146 20.430
v 61.809 58.465 20.430
v 58.918 80.672 20.430
usemtl roof
f 31 32 33 34
usemtl teaching_building
f 30 29 28 27
f 27 28 32 31
f 28 29 33 32
f 29 30 34 33
f 30 27 31 34
o SD0533_T004_4hao
v -0.330 10.877 0.000
v 3.129 -19.333 0.000
v -9.039 -20.704 0.000
v -12.489 9.506 0.000
v -0.330 10.877 9.000
v 3.129 -19.333 9.000
v -9.039 -20.704 9.000
v -12.489 9.506 9.000
usemtl roof
f 39 40 41 42
usemtl teaching_building
f 38 37 36 35
f 35 36 40 39
f 36 37 41 40
f 37 38 42 41
f 38 35 39 42
o SD0533_T005_5hao
v -17.668 10.722 0.000
v -13.912 -30.819 0.000
v -75.024 -36.257 0.000
v -78.780 5.273 0.000
v -17.668 10.722 9.960
v -13.912 -30.819 9.960
v -75.024 -36.257 9.960
v -78.780 5.273 9.960
usemtl roof
f 47 48 49 50
usemtl teaching_building
f 46 45 44 43
f 43 44 48 47
f 44 45 49 48
f 45 46 50 49
f 46 43 47 50
o SD0533_T006_6hao
v 8.002 -75.035 0.000
v 11.451 -105.643 0.000
v -2.681 -107.224 0.000
v -6.139 -76.604 0.000
v 8.002 -75.035 8.320
v 11.451 -105.643 8.320
v -2.681 -107.224 8.320
v -6.139 -76.604 8.320
usemtl roof
f 55 56 57 58
usemtl teaching_building
f 54 53 52 51
f 51 52 56 55
f 52 53 57 56
f 53 54 58 57
f 54 51 55 58
o SD0533_T007_7hao
v -15.966 -107.356 0.000
v -14.272 -128.503 0.000
v -64.207 -132.449 0.000
v -65.900 -111.314 0.000
v -15.966 -107.356 17.740
v -14.272 -128.503 17.740
v -64.207 -132.449 17.740
v -65.900 -111.314 17.740
usemtl roof
f 63 64 65 66
usemtl teaching_building
f 62 61 60 59
f 59 60 64 63
f 60 61 65 64
f 61 62 66 65
f 62 59 63 66
