# school_id SD0518
# school_name 临朐实验中学附属小学
# boundary_source footprint_convex_hull_buffer_20m
# adjacent_block_merge_distance_m 2.0
mtllib ../campus_materials.mtl
o SD0518_campus_boundary
usemtl campus_boundary
v 53.684 -70.572 0.050
v -57.485 -56.171 0.050
v -43.795 55.760 0.050
v 47.578 47.311 0.050
v 62.010 23.177 0.050
v 59.742 -24.498 0.050
v 53.684 -70.572 0.050
l 1 2 3 4 5 6 7 1
o SD0518_T001_1hao
v -28.484 12.535 0.000
v 40.636 5.947 0.000
v 41.746 18.095 0.000
v 34.891 18.604 0.000
v 35.625 28.331 0.000
v -26.300 34.057 0.000
v -28.484 12.535 10.580
v 40.636 5.947 10.580
v 41.746 18.095 10.580
v 34.891 18.604 10.580
v 35.625 28.331 10.580
v -26.300 34.057 10.580
usemtl roof
f 14 15 16 17 18 19
usemtl teaching_building
f 13 12 11 10 9 8
f 8 9 15 14
f 9 10 16 15
f 10 11 17 16
f 11 12 18 17
f 12 13 19 18
f 13 8 14 19
o SD0518_T002_2hao
v -35.222 -38.888 0.000
v 36.457 -48.173 0.000
v 39.804 -22.716 0.000
v -31.867 -13.409 0.000
v -35.222 -38.888 9.620
v 36.457 -48.173 9.620
v 39.804 -22.716 9.620
v -31.867 -13.409 9.620
usemtl roof
f 24 25 26 27
usemtl teaching_building
f 23 22 21 20
f 20 21 25 24
f 21 22 26 25
f 22 23 27 26
f 23 20 24 27
