# school_id SD0595
# school_name 潍坊工业学校
# boundary_source footprint_convex_hull_buffer_20m
# adjacent_block_merge_distance_m 2.0
mtllib ../campus_materials.mtl
o SD0595_campus_boundary
usemtl campus_boundary
v 48.434 -40.135 0.050
v -52.402 -27.122 0.050
v -48.996 38.453 0.050
v 52.931 28.738 0.050
v 48.434 -40.135 0.050
l 1 2 3 4 5 1
o SD0595_T001_1hao
v -31.468 -9.658 0.000
v 29.865 -17.573 0.000
v 31.709 10.670 0.000
v -30.106 16.562 0.000
v -31.468 -9.658 12.020
v 29.865 -17.573 12.020
v 31.709 10.670 12.020
v -30.106 16.562 12.020
usemtl roof
f 10 11 12 13
usemtl teaching_building
f 9 8 7 6
f 6 7 11 10
f 7 8 12 11
f 8 9 13 12
f 9 6 10 13
