# school_id SD0512
# school_name 龙口市龙矿学校
# boundary_source footprint_convex_hull_buffer_20m
# adjacent_block_merge_distance_m 2.0
mtllib ../campus_materials.mtl
o SD0512_campus_boundary
usemtl campus_boundary
v 79.971 -81.126 0.050
v -129.657 -63.832 0.050
v -124.676 -4.237 0.050
v -22.800 104.235 0.050
v 52.480 97.834 0.050
v 84.193 -30.654 0.050
v 79.971 -81.126 0.050
l 1 2 3 4 5 6 7 1
o SD0512_T001_1hao
v -16.754 61.446 0.000
v 34.595 57.068 0.000
v 36.499 79.121 0.000
v -14.849 83.487 0.000
v -16.754 61.446 13.270
v 34.595 57.068 13.270
v 36.499 79.121 13.270
v -14.849 83.487 13.270
usemtl roof
f 12 13 14 15
usemtl teaching_building
f 11 10 9 8
f 8 9 13 12
f 9 10 14 13
f 10 11 15 14
f 11 8 12 15
o SD0512_T002_2hao
v -19.707 21.662 0.000
v 31.712 18.269 0.000
v 33.193 40.355 0.000
v -18.235 43.737 0.000
v -19.707 21.662 12.510
v 31.712 18.269 12.510
v 33.193 40.355 12.510
v -18.235 43.737 12.510
usemtl roof
f 20 21 22 23
usemtl teaching_building
f 19 18 17 16
f 16 17 21 20
f 17 18 22 21
f 18 19 23 22
f 19 16 20 23
o SD0512_T003_3hao
v -32.491 -20.321 0.000
v 18.848 -24.776 0.000
v 20.788 -2.723 0.000
v -30.552 1.721 0.000
v -32.491 -20.321 18.240
v 18.848 -24.776 18.240
v 20.788 -2.723 18.240
v -30.552 1.721 18.240
usemtl roof
f 28 29 30 31
usemtl teaching_building
f 27 26 25 24
f 24 25 29 28
f 25 26 30 29
f 26 27 31 30
f 27 24 28 31
o SD0512_T004_4hao
v -108.059 -45.546 0.000
v 61.706 -59.551 0.000
v 63.989 -32.259 0.000
v 55.799 -31.585 0.000
v 54.450 -47.690 0.000
v 7.175 -43.799 0.000
v 7.845 -35.763 0.000
v -40.876 -31.751 0.000
v -39.748 -18.254 0.000
v -105.326 -12.848 0.000
v -108.059 -45.546 24.720
v 61.706 -59.551 24.720
v 63.989 -32.259 24.720
v 55.799 -31.585 24.720
v 54.450 -47.690 24.720
v 7.175 -43.799 24.720
v 7.845 -35.763 24.720
v -40.876 -31.751 24.720
v -39.748 -18.254 24.720
v -105.326 -12.848 24.720
usemtl roof
f 42 43 44 45 46 47 48 49 50 51
usemtl teaching_building
f 41 40 39 38 37 36 35 34 33 32
f 32 33 43 42
f 33 34 44 43
f 34 35 45 44
f 35 36 46 45
f 36 37 47 46
f 37 38 48 47
f 38 39 49 48
f 39 40 50 49
f 40 41 51 50
f 41 32 42 51
