# school_id SD0537
# school_name 峡山区王家庄实验学校
# boundary_source footprint_convex_hull_buffer_20m
# adjacent_block_merge_distance_m 2.0
mtllib ../campus_materials.mtl
o SD0537_campus_boundary
usemtl campus_boundary
v -18.547 -79.812 0.050
v -106.128 -0.389 0.050
v -106.128 48.080 0.050
v -5.574 54.273 0.050
v -1.658 54.239 0.050
v 63.604 53.582 0.050
v 86.374 53.349 0.050
v 85.868 10.875 0.050
v 8.117 -79.812 0.050
v -18.547 -79.812 0.050
l 1 2 3 4 5 6 7 8 9 10 1
o SD0537_T001_1hao
v 65.956 18.378 0.000
v 66.137 33.555 0.000
v 63.403 33.583 0.000
v 63.350 28.811 0.000
v 39.157 29.070 0.000
v 39.202 33.675 0.000
v 25.231 33.842 0.000
v 25.179 29.061 0.000
v -1.906 29.358 0.000
v -1.846 34.240 0.000
v -5.046 34.268 0.000
v -5.219 19.166 0.000
v 65.956 18.378 6.600
v 66.137 33.555 6.600
v 63.403 33.583 6.600
v 63.350 28.811 6.600
v 39.157 29.070 6.600
v 39.202 33.675 6.600
v 25.231 33.842 6.600
v 25.179 29.061 6.600
v -1.906 29.358 6.600
v -1.846 34.240 6.600
v -5.046 34.268 6.600
v -5.219 19.166 6.600
usemtl roof
f 23 24 25 26 27 28 29 30 31 32 33 34
usemtl teaching_building
f 22 21 20 19 18 17 16 15 14 13 12 11
f 11 12 24 23
f 12 13 25 24
f 13 14 26 25
f 14 15 27 26
f 15 16 28 27
f 16 17 29 28
f 17 18 30 29
f 18 19 31 30
f 19 20 32 31
f 20 21 33 32
f 21 22 34 33
f 22 11 23 34
o SD0537_T002_2hao
v -27.331 8.455 0.000
v -27.331 29.274 0.000
v -86.128 29.274 0.000
v -86.128 8.473 0.000
v -27.331 8.455 9.900
v -27.331 29.274 9.900
v -86.128 29.274 9.900
v -86.128 8.473 9.900
usemtl roof
f 39 40 41 42
usemtl teaching_building
f 38 37 36 35
f 35 36 40 39
f 36 37 41 40
f 37 38 42 41
f 38 35 39 42
o SD0537_T003_3hao
v -10.822 -43.718 0.000
v -10.829 -59.812 0.000
v -1.080 -59.812 0.000
v -1.073 -49.555 0.000
v -3.266 -49.555 0.000
v -3.228 -2.793 0.000
v -14.382 -2.784 0.000
v -14.382 -9.140 0.000
v -11.536 -9.140 0.000
v -11.543 -22.260 0.000
v -15.163 -22.260 0.000
v -15.163 -28.968 0.000
v -17.101 -28.968 0.000
v -17.109 -43.718 0.000
v -10.822 -43.718 9.900
v -10.829 -59.812 9.900
v -1.080 -59.812 9.900
v -1.073 -49.555 9.900
v -3.266 -49.555 9.900
v -3.228 -2.793 9.900
v -14.382 -2.784 9.900
v -14.382 -9.140 9.900
v -11.536 -9.140 9.900
v -11.543 -22.260 9.900
v -15.163 -22.260 9.900
v -15.163 -28.968 9.900
v -17.101 -28.968 9.900
v -17.109 -43.718 9.900
usemtl roof
f 57 58 59 60 61 62 63 64 65 66 67 68 69 70
usemtl teaching_building
f 56 55 54 53 52 51 50 49 48 47 46 45 44 43
f 43 44 58 57
f 44 45 59 58
f 45 46 60 59
f 46 47 61 60
f 47 48 62 61
f 48 49 63 62
f 49 50 64 63
f 50 51 65 64
f 51 52 66 65
f 52 53 67 66
f 53 54 68 67
f 54 55 69 68
f 55 56 70 69
f 56 43 57 70
