# school_id SD0536
# school_name 山东省青州实验中学
# boundary_source footprint_convex_hull_buffer_20m
# adjacent_block_merge_distance_m 2.0
mtllib ../campus_materials.mtl
o SD0536_campus_boundary
usemtl campus_boundary
v 33.416 -62.817 0.050
v -73.439 -49.672 0.050
v -73.583 -14.845 0.050
v -63.478 -0.334 0.050
v 22.938 96.797 0.050
v 48.756 96.610 0.050
v 66.573 70.116 0.050
v 65.893 -35.813 0.050
v 50.334 -62.817 0.050
v 33.416 -62.817 0.050
l 1 2 3 4 5 6 7 8 9 10 1
o SD0536_T001_1hao
v 38.052 76.687 0.000
v 38.195 64.119 0.000
v 46.534 64.075 0.000
v 45.927 -30.404 0.000
v 38.793 -30.360 0.000
v 38.775 -42.817 0.000
v 34.642 -42.817 0.000
v 34.669 -30.337 0.000
v 23.991 -30.271 0.000
v 24.580 64.207 0.000
v 32.008 64.163 0.000
v 31.856 76.732 0.000
v 38.052 76.687 12.490
v 38.195 64.119 12.490
v 46.534 64.075 12.490
v 45.927 -30.404 12.490
v 38.793 -30.360 12.490
v 38.775 -42.817 12.490
v 34.642 -42.817 12.490
v 34.669 -30.337 12.490
v 23.991 -30.271 12.490
v 24.580 64.207 12.490
v 32.008 64.163 12.490
v 31.856 76.732 12.490
usemtl roof
f 23 24 25 26 27 28 29 30 31 32 33 34
usemtl teaching_building
f 22 21 20 19 18 17 16 15 14 13 12 11
f 11 12 24 23
f 12 13 25 24
f 13 14 26 25
f 14 15 27 26
f 15 16 28 27
f 16 17 29 28
f 17 18 30 29
f 18 19 31 30
f 19 20 32 31
f 20 21 33 32
f 21 22 34 33
f 22 11 23 34
