# school_id SD0525
# school_name 寒亭区朱里街道周家庄小学
# boundary_source footprint_convex_hull_buffer_20m
# adjacent_block_merge_distance_m 2.0
mtllib ../campus_materials.mtl
o SD0525_campus_boundary
usemtl campus_boundary
v 55.439 -29.429 0.050
v -48.102 -26.487 0.050
v -46.913 15.370 0.050
v -13.697 27.146 0.050
v 4.280 26.641 0.050
v 56.736 16.004 0.050
v 55.439 -29.429 0.050
l 1 2 3 4 5 6 7 1
o SD0525_T001_1hao
v 36.018 -8.869 0.000
v 36.264 -0.252 0.000
v 1.823 0.702 0.000
v 1.995 6.697 0.000
v -10.530 7.049 0.000
v -10.717 0.637 0.000
v -27.310 1.100 0.000
v -27.542 -7.063 0.000
v 36.018 -8.869 9.900
v 36.264 -0.252 9.900
v 1.823 0.702 9.900
v 1.995 6.697 9.900
v -10.530 7.049 9.900
v -10.717 0.637 9.900
v -27.310 1.100 9.900
v -27.542 -7.063 9.900
usemtl roof
f 16 17 18 19 20 21 22 23
usemtl teaching_building
f 15 14 13 12 11 10 9 8
f 8 9 17 16
f 9 10 18 17
f 10 11 19 18
f 11 12 20 19
f 12 13 21 20
f 13 14 22 21
f 14 15 23 22
f 15 8 16 23
