# school_id SD0507
# school_name 鲁东大学实验小学
# boundary_source footprint_convex_hull_buffer_20m
# adjacent_block_merge_distance_m 2.0
mtllib ../campus_materials.mtl
o SD0507_campus_boundary
usemtl campus_boundary
v 64.750 -81.832 0.050
v -26.283 -61.384 0.050
v -84.091 21.138 0.050
v -72.490 75.400 0.050
v -13.130 62.861 0.050
v 88.717 23.390 0.050
v 64.750 -81.832 0.050
l 1 2 3 4 5 6 7 1
o SD0507_T001_1hao
v -62.711 25.477 0.000
v -24.456 17.407 0.000
v -18.848 43.627 0.000
v -57.103 51.708 0.000
v -62.711 25.477 10.270
v -24.456 17.407 10.270
v -18.848 43.627 10.270
v -57.103 51.708 10.270
usemtl roof
f 12 13 14 15
usemtl teaching_building
f 11 10 9 8
f 8 9 13 12
f 9 10 14 13
f 10 11 15 14
f 11 8 12 15
o SD0507_T002_2hao
v -14.345 -43.567 0.000
v 49.678 -57.948 0.000
v 65.379 10.985 0.000
v -0.816 25.853 0.000
v -5.594 4.861 0.000
v 44.115 -6.304 0.000
v 36.123 -41.389 0.000
v -11.422 -30.711 0.000
v -14.345 -43.567 10.950
v 49.678 -57.948 10.950
v 65.379 10.985 10.950
v -0.816 25.853 10.950
v -5.594 4.861 10.950
v 44.115 -6.304 10.950
v 36.123 -41.389 10.950
v -11.422 -30.711 10.950
usemtl roof
f 24 25 26 27 28 29 30 31
usemtl teaching_building
f 23 22 21 20 19 18 17 16
f 16 17 25 24
f 17 18 26 25
f 18 19 27 26
f 19 20 28 27
f 20 21 29 28
f 21 22 30 29
f 22 23 31 30
f 23 16 24 31
