# school_id SD0528
# school_name 寿光市圣城中学巨能校区
# boundary_source footprint_convex_hull_buffer_20m
# adjacent_block_merge_distance_m 2.0
mtllib ../campus_materials.mtl
o SD0528_campus_boundary
usemtl campus_boundary
v 41.846 -53.118 0.050
v -46.097 -49.607 0.050
v -39.000 51.380 0.050
v 43.205 51.380 0.050
v 41.846 -53.118 0.050
l 1 2 3 4 5 1
o SD0528_T001_1hao
v -24.701 -30.445 0.000
v 22.115 -32.314 0.000
v 22.943 31.380 0.000
v -20.356 31.380 0.000
v -24.701 -30.445 20.210
v 22.115 -32.314 20.210
v 22.943 31.380 20.210
v -20.356 31.380 20.210
usemtl roof
f 10 11 12 13
usemtl teaching_building
f 9 8 7 6
f 6 7 11 10
f 7 8 12 11
f 8 9 13 12
f 9 6 10 13
