# school_id SD0509
# school_name 鲁东大学莱山实验中学(观海校区)
# boundary_source footprint_convex_hull_buffer_20m
# adjacent_block_merge_distance_m 2.0
mtllib ../campus_materials.mtl
o SD0509_campus_boundary
usemtl campus_boundary
v -34.382 -54.895 0.050
v -54.217 9.865 0.050
v -53.842 52.295 0.050
v 54.631 51.340 0.050
v 54.242 9.020 0.050
v 34.668 -53.617 0.050
v -34.382 -54.895 0.050
l 1 2 3 4 5 6 7 1
o SD0509_T001_1hao
v 34.270 12.162 0.000
v 34.448 31.517 0.000
v -34.020 32.120 0.000
v -34.191 12.773 0.000
v 34.270 12.162 9.900
v 34.448 31.517 9.900
v -34.020 32.120 9.900
v -34.191 12.773 9.900
usemtl roof
f 12 13 14 15
usemtl teaching_building
f 11 10 9 8
f 8 9 13 12
f 9 10 14 13
f 10 11 15 14
f 11 8 12 15
o SD0509_T002_2hao
v -19.675 -34.619 0.000
v 19.880 -33.887 0.000
v 19.421 -9.667 0.000
v -20.134 -10.399 0.000
v -19.675 -34.619 9.900
v 19.880 -33.887 9.900
v 19.421 -9.667 9.900
v -20.134 -10.399 9.900
usemtl roof
f 20 21 22 23
usemtl teaching_building
f 19 18 17 16
f 16 17 21 20
f 17 18 22 21
f 18 19 23 22
f 19 16 20 23
