# school_id SD0580
# school_name 昌邑市龙池镇龙池初级中学
# boundary_source footprint_convex_hull_buffer_20m
# adjacent_block_merge_distance_m 2.0
mtllib ../campus_materials.mtl
o SD0580_campus_boundary
usemtl campus_boundary
v -60.940 -99.269 0.050
v -64.011 -67.648 0.050
v -73.176 49.732 0.050
v -35.764 142.506 0.050
v 10.928 146.716 0.050
v 60.338 43.282 0.050
v 91.381 -53.957 0.050
v 94.026 -87.188 0.050
v 35.119 -91.799 0.050
v -60.940 -99.269 0.050
l 1 2 3 4 5 6 7 8 9 10 1
o SD0580_T001_1hao
v -17.770 79.517 0.000
v 2.909 81.380 0.000
v -1.125 125.548 0.000
v -21.789 123.685 0.000
v -17.770 79.517 9.900
v 2.909 81.380 9.900
v -1.125 125.548 9.900
v -21.789 123.685 9.900
usemtl roof
f 15 16 17 18
usemtl teaching_building
f 14 13 12 11
f 11 12 16 15
f 12 13 17 16
f 13 14 18 17
f 14 11 15 18
o SD0580_T002_2hao
v -21.901 15.234 0.000
v 43.268 23.073 0.000
v 41.702 35.896 0.000
v 36.191 35.229 0.000
v 36.623 31.662 0.000
v 17.443 29.336 0.000
v 16.675 35.590 0.000
v 2.618 33.895 0.000
v 3.282 28.558 0.000
v -15.585 26.279 0.000
v -16.069 30.226 0.000
v -23.623 29.308 0.000
v -21.901 15.234 9.900
v 43.268 23.073 9.900
v 41.702 35.896 9.900
v 36.191 35.229 9.900
v 36.623 31.662 9.900
v 17.443 29.336 9.900
v 16.675 35.590 9.900
v 2.618 33.895 9.900
v 3.282 28.558 9.900
v -15.585 26.279 9.900
v -16.069 30.226 9.900
v -23.623 29.308 9.900
usemtl roof
f 31 32 33 34 35 36 37 38 39 40 41 42
usemtl teaching_building
f 30 29 28 27 26 25 24 23 22 21 20 19
f 19 20 32 31
f 20 21 33 32
f 21 22 34 33
f 22 23 35 34
f 23 24 36 35
f 24 25 37 36
f 25 26 38 37
f 26 27 39 38
f 27 28 40 39
f 28 29 41 40
f 29 30 42 41
f 30 19 31 42
o SD0580_T003_3hao
v -46.517 -17.741 0.000
v -33.728 -16.490 0.000
v -40.089 47.858 0.000
v -52.871 46.607 0.000
v -46.517 -17.741 9.900
v -33.728 -16.490 9.900
v -40.089 47.858 9.900
v -52.871 46.607 9.900
usemtl roof
f 47 48 49 50
usemtl teaching_building
f 46 45 44 43
f 43 44 48 47
f 44 45 49 48
f 45 46 50 49
f 46 43 47 50
o SD0580_T004_4hao
v -22.632 -22.346 0.000
v 52.022 -14.600 0.000
v 50.016 4.523 0.000
v 41.366 3.625 0.000
v 41.553 1.818 0.000
v 31.575 0.780 0.000
v 32.067 -4.001 0.000
v 25.818 -4.649 0.000
v 25.102 2.105 0.000
v 4.274 -0.072 0.000
v 4.781 -4.853 0.000
v -0.081 -5.363 0.000
v -0.491 -1.471 0.000
v -13.057 -2.768 0.000
v -13.221 -1.156 0.000
v -24.727 -2.351 0.000
v -22.632 -22.346 9.900
v 52.022 -14.600 9.900
v 50.016 4.523 9.900
v 41.366 3.625 9.900
v 41.553 1.818 9.900
v 31.575 0.780 9.900
v 32.067 -4.001 9.900
v 25.818 -4.649 9.900
v 25.102 2.105 9.900
v 4.274 -0.072 9.900
v 4.781 -4.853 9.900
v -0.081 -5.363 9.900
v -0.491 -1.471 9.900
v -13.057 -2.768 9.900
v -13.221 -1.156 9.900
v -24.727 -2.351 9.900
usemtl roof
f 67 68 69 70 71 72 73 74 75 76 77 78 79 80 81 82
usemtl teaching_building
f 66 65 64 63 62 61 60 59 58 57 56 55 54 53 52 51
f 51 52 68 67
f 52 53 69 68
f 53 54 70 69
f 54 55 71 70
f 55 56 72 71
f 56 57 73 72
f 57 58 74 73
f 58 59 75 74
f 59 60 76 75
f 60 61 77 76
f 61 62 78 77
f 62 63 79 78
f 63 64 80 79
f 64 65 81 80
f 65 66 82 81
f 66 51 67 82
o SD0580_T005_5hao
v 33.558 -71.860 0.000
v 72.500 -68.812 0.000
v 71.627 -57.842 0.000
v 32.686 -60.890 0.000
v 33.558 -71.860 9.900
v 72.500 -68.812 9.900
v 71.627 -57.842 9.900
v 32.686 -60.890 9.900
usemtl roof
f 87 88 89 90
usemtl teaching_building
f 86 85 84 83
f 83 84 88 87
f 84 85 89 88
f 85 86 90 89
f 86 83 87 90
o SD0580_T006_6hao
v -42.930 -77.808 0.000
v 8.219 -72.916 0.000
v 7.063 -61.001 0.000
v -44.086 -65.903 0.000
v -42.930 -77.808 9.900
v 8.219 -72.916 9.900
v 7.063 -61.001 9.900
v -44.086 -65.903 9.900
usemtl roof
f 95 96 97 98
usemtl teaching_building
f 94 93 92 91
f 91 92 96 95
f 92 93 97 96
f 93 94 98 97
f 94 91 95 98
