# school_id SD0574
# school_name 昌邑市第二实验小学
# boundary_source footprint_convex_hull_buffer_20m
# adjacent_block_merge_distance_m 2.0
mtllib ../campus_materials.mtl
o SD0574_campus_boundary
usemtl campus_boundary
v 58.685 -28.287 0.050
v -23.348 -27.467 0.050
v -42.708 -12.610 0.050
v -42.257 31.184 0.050
v 59.278 30.144 0.050
v 58.685 -28.287 0.050
l 1 2 3 4 5 6 1
o SD0574_T001_1hao
v -22.606 -2.826 0.000
v -16.425 -2.881 0.000
v -16.470 -7.535 0.000
v 38.889 -8.088 0.000
v 39.076 10.350 0.000
v -22.464 10.980 0.000
v -22.606 -2.826 11.330
v -16.425 -2.881 11.330
v -16.470 -7.535 11.330
v 38.889 -8.088 11.330
v 39.076 10.350 11.330
v -22.464 10.980 11.330
usemtl roof
f 13 14 15 16 17 18
usemtl teaching_building
f 12 11 10 9 8 7
f 7 8 14 13
f 8 9 15 14
f 9 10 16 15
f 10 11 17 16
f 11 12 18 17
f 12 7 13 18
