# school_id SD0504
# school_name 青华中学
# boundary_source footprint_convex_hull_buffer_20m
# adjacent_block_merge_distance_m 2.0
mtllib ../campus_materials.mtl
o SD0504_campus_boundary
usemtl campus_boundary
v 78.928 -132.701 0.050
v -112.492 -97.784 0.050
v -241.131 -60.897 0.050
v -225.444 15.733 0.050
v -211.437 66.812 0.050
v -201.356 98.990 0.050
v 87.511 49.846 0.050
v 144.546 35.890 0.050
v 138.222 -11.405 0.050
v 131.732 -41.993 0.050
v 130.041 -47.913 0.050
v 103.719 -130.886 0.050
v 78.928 -132.701 0.050
l 1 2 3 4 5 6 7 8 9 10 11 12 13 1
o SD0504_T001_1hao
v -153.407 49.187 0.000
v -148.655 64.354 0.000
v -187.492 76.344 0.000
v -192.244 61.176 0.000
v -153.407 49.187 9.900
v -148.655 64.354 9.900
v -187.492 76.344 9.900
v -192.244 61.176 9.900
usemtl roof
f 18 19 20 21
usemtl teaching_building
f 17 16 15 14
f 14 15 19 18
f 15 16 20 19
f 16 17 21 20
f 17 14 18 21
o SD0504_T002_2hao
v -10.581 17.898 0.000
v -5.370 18.611 0.000
v -4.652 24.309 0.000
v 0.322 25.894 0.000
v 4.526 21.483 0.000
v 9.855 22.493 0.000
v 14.770 19.075 0.000
v 18.856 20.084 0.000
v 22.527 16.378 0.000
v 27.198 17.722 0.000
v 31.113 14.080 0.000
v 37.094 15.257 0.000
v 39.581 11.903 0.000
v 45.562 12.607 0.000
v 48.693 25.551 0.000
v 52.667 25.894 0.000
v 53.548 32.370 0.000
v 36.383 36.836 0.000
v 35.606 34.835 0.000
v 39.633 30.721 0.000
v 38.626 25.894 0.000
v 24.000 29.368 0.000
v 23.238 37.364 0.000
v 10.862 40.070 0.000
v 7.242 34.307 0.000
v -0.863 36.308 0.000
v -0.448 40.487 0.000
v -4.060 43.767 0.000
v -9.634 42.368 0.000
v -11.558 36.188 0.000
v -7.384 32.602 0.000
v -8.390 27.663 0.000
v -13.712 26.959 0.000
v -15.311 21.317 0.000
v -10.581 17.898 9.900
v -5.370 18.611 9.900
v -4.652 24.309 9.900
v 0.322 25.894 9.900
v 4.526 21.483 9.900
v 9.855 22.493 9.900
v 14.770 19.075 9.900
v 18.856 20.084 9.900
v 22.527 16.378 9.900
v 27.198 17.722 9.900
v 31.113 14.080 9.900
v 37.094 15.257 9.900
v 39.581 11.903 9.900
v 45.562 12.607 9.900
v 48.693 25.551 9.900
v 52.667 25.894 9.900
v 53.548 32.370 9.900
v 36.383 36.836 9.900
v 35.606 34.835 9.900
v 39.633 30.721 9.900
v 38.626 25.894 9.900
v 24.000 29.368 9.900
v 23.238 37.364 9.900
v 10.862 40.070 9.900
v 7.242 34.307 9.900
v -0.863 36.308 9.900
v -0.448 40.487 9.900
v -4.060 43.767 9.900
v -9.634 42.368 9.900
v -11.558 36.188 9.900
v -7.384 32.602 9.900
v -8.390 27.663 9.900
v -13.712 26.959 9.900
v -15.311 21.317 9.900
usemtl roof
f 56 57 58 59 60 61 62 63 64 65 66 67 68 69 70 71 72 73 74 75 76 77 78 79 80 81 82 83 84 85 86 87 88 89
usemtl teaching_building
f 55 54 53 52 51 50 49 48 47 46 45 44 43 42 41 40 39 38 37 36 35 34 33 32 31 30 29 28 27 26 25 24 23 22
f 22 23 57 56
f 23 24 58 57
f 24 25 59 58
f 25 26 60 59
f 26 27 61 60
f 27 28 62 61
f 28 29 63 62
f 29 30 64 63
f 30 31 65 64
f 31 32 66 65
f 32 33 67 66
f 33 34 68 67
f 34 35 69 68
f 35 36 70 69
f 36 37 71 70
f 37 38 72 71
f 38 39 73 72
f 39 40 74 73
f 40 41 75 74
f 41 42 76 75
f 42 43 77 76
f 43 44 78 77
f 44 45 79 78
f 45 46 80 79
f 46 47 81 80
f 47 48 82 81
f 48 49 83 82
f 49 50 84 83
f 50 51 85 84
f 51 52 86 85
f 52 53 87 86
f 53 54 88 87
f 54 55 89 88
f 55 22 56 89
o SD0504_T003_3hao
v -106.842 35.465 0.000
v -105.184 41.052 0.000
v -97.530 38.810 0.000
v -103.881 17.453 0.000
v -91.550 13.849 0.000
v -96.198 -1.837 0.000
v -47.213 -16.189 0.000
v -43.275 -2.912 0.000
v -89.344 10.569 0.000
v -82.149 34.807 0.000
v -37.146 21.632 0.000
v -33.756 33.056 0.000
v -128.329 60.759 0.000
v -133.518 43.285 0.000
v -106.842 35.465 9.900
v -105.184 41.052 9.900
v -97.530 38.810 9.900
v -103.881 17.453 9.900
v -91.550 13.849 9.900
v -96.198 -1.837 9.900
v -47.213 -16.189 9.900
v -43.275 -2.912 9.900
v -89.344 10.569 9.900
v -82.149 34.807 9.900
v -37.146 21.632 9.900
v -33.756 33.056 9.900
v -128.329 60.759 9.900
v -133.518 43.285 9.900
usemtl roof
f 104 105 106 107 108 109 110 111 112 113 114 115 116 117
usemtl teaching_building
f 103 102 101 100 99 98 97 96 95 94 93 92 91 90
f 90 91 105 104
f 91 92 106 105
f 92 93 107 106
f 93 94 108 107
f 94 95 109 108
f 95 96 110 109
f 96 97 111 110
f 97 98 112 111
f 98 99 113 112
f 99 100 114 113
f 100 101 115 114
f 101 102 116 115
f 102 103 117 116
f 103 90 104 117
o SD0504_T004_4hao
v -165.716 -1.847 0.000
v -161.001 12.617 0.000
v -201.267 25.560 0.000
v -205.982 11.078 0.000
v -165.716 -1.847 9.900
v -161.001 12.617 9.900
v -201.267 25.560 9.900
v -205.982 11.078 9.900
usemtl roof
f 122 123 124 125
usemtl teaching_building
f 121 120 119 118
f 118 119 123 122
f 119 120 124 123
f 120 121 125 124
f 121 118 122 125
o SD0504_T005_5hao
v 91.046 -18.941 0.000
v 92.445 -13.326 0.000
v 115.761 -19.025 0.000
v 118.499 -7.999 0.000
v 103.636 -4.358 0.000
v 109.003 17.240 0.000
v 120.764 14.358 0.000
v 122.341 20.733 0.000
v 83.452 30.249 0.000
v 80.735 19.297 0.000
v 101.371 14.247 0.000
v 99.647 7.317 0.000
v 93.970 8.697 0.000
v 92.090 1.081 0.000
v 96.930 -0.105 0.000
v 95.428 -6.137 0.000
v 72.097 -0.429 0.000
v 68.855 -13.512 0.000
v 91.046 -18.941 9.900
v 92.445 -13.326 9.900
v 115.761 -19.025 9.900
v 118.499 -7.999 9.900
v 103.636 -4.358 9.900
v 109.003 17.240 9.900
v 120.764 14.358 9.900
v 122.341 20.733 9.900
v 83.452 30.249 9.900
v 80.735 19.297 9.900
v 101.371 14.247 9.900
v 99.647 7.317 9.900
v 93.970 8.697 9.900
v 92.090 1.081 9.900
v 96.930 -0.105 9.900
v 95.428 -6.137 9.900
v 72.097 -0.429 9.900
v 68.855 -13.512 9.900
usemtl roof
f 144 145 146 147 148 149 150 151 152 153 154 155 156 157 158 159 160 161
usemtl teaching_building
f 143 142 141 140 139 138 137 136 135 134 133 132 131 130 129 128 127 126
f 126 127 145 144
f 127 128 146 145
f 128 129 147 146
f 129 130 148 147
f 130 131 149 148
f 131 132 150 149
f 132 133 151 150
f 133 134 152 151
f 134 135 153 152
f 135 136 154 153
f 136 137 155 154
f 137 138 156 155
f 138 139 157 156
f 139 140 158 157
f 140 141 159 158
f 141 142 160 159
f 142 143 161 160
f 143 126 144 161
o SD0504_T006_6hao
v -107.930 -78.286 0.000
v -101.594 -56.522 0.000
v -211.496 -25.010 0.000
v -217.825 -46.774 0.000
v -107.930 -78.286 9.900
v -101.594 -56.522 9.900
v -211.496 -25.010 9.900
v -217.825 -46.774 9.900
usemtl roof
f 166 167 168 169
usemtl teaching_building
f 165 164 163 162
f 162 163 167 166
f 163 164 168 167
f 164 165 169 168
f 165 162 166 169
o SD0504_T007_7hao
v 36.835 -96.752 0.000
v 35.873 -100.124 0.000
v 80.010 -112.568 0.000
v 80.831 -109.695 0.000
v 88.751 -111.928 0.000
v 108.877 -41.577 0.000
v 110.890 -42.142 0.000
v 112.311 -37.166 0.000
v 78.811 -27.716 0.000
v 63.837 -80.037 0.000
v 34.237 -71.689 0.000
v 27.797 -94.194 0.000
v 36.835 -96.752 9.900
v 35.873 -100.124 9.900
v 80.010 -112.568 9.900
v 80.831 -109.695 9.900
v 88.751 -111.928 9.900
v 108.877 -41.577 9.900
v 110.890 -42.142 9.900
v 112.311 -37.166 9.900
v 78.811 -27.716 9.900
v 63.837 -80.037 9.900
v 34.237 -71.689 9.900
v 27.797 -94.194 9.900
usemtl roof
f 182 183 184 185 186 187 188 189 190 191 192 193
usemtl teaching_building
f 181 180 179 178 177 176 175 174 173 172 171 170
f 170 171 183 182
f 171 172 184 183
f 172 173 185 184
f 173 174 186 185
f 174 175 187 186
f 175 176 188 187
f 176 177 189 188
f 177 178 190 189
f 178 179 191 190
f 179 180 192 191
f 180 181 193 192
f 181 170 182 193
o SD0504_T008_8hao
v 21.905 -94.676 0.000
v 30.218 -68.057 0.000
v 18.989 -64.582 0.000
v 13.726 -81.408 0.000
v -37.265 -65.685 0.000
v -40.329 -75.478 0.000
v 21.905 -94.676 9.900
v 30.218 -68.057 9.900
v 18.989 -64.582 9.900
v 13.726 -81.408 9.900
v -37.265 -65.685 9.900
v -40.329 -75.478 9.900
usemtl roof
f 200 201 202 203 204 205
usemtl teaching_building
f 199 198 197 196 195 194
f 194 195 201 200
f 195 196 202 201
f 196 197 203 202
f 197 198 204 203
f 198 199 205 204
f 199 194 200 205
