# school_id SD0582
# school_name 昌邑树屏学校
# boundary_source footprint_convex_hull_buffer_20m
# adjacent_block_merge_distance_m 2.0
mtllib ../campus_materials.mtl
o SD0582_campus_boundary
usemtl campus_boundary
v -100.554 -67.460 0.050
v -105.967 -16.510 0.050
v -107.007 7.601 0.050
v -41.850 86.593 0.050
v 29.500 90.327 0.050
v 104.106 19.473 0.050
v 109.203 -23.260 0.050
v 110.699 -55.082 0.050
v -31.772 -64.260 0.050
v -100.554 -67.460 0.050
l 1 2 3 4 5 6 7 8 9 10 1
o SD0582_T001_1hao
v -31.075 49.290 0.000
v 22.904 52.135 0.000
v 21.961 69.905 0.000
v -32.019 67.080 0.000
v -31.075 49.290 6.600
v 22.904 52.135 6.600
v 21.961 69.905 6.600
v -32.019 67.080 6.600
usemtl roof
f 15 16 17 18
usemtl teaching_building
f 14 13 12 11
f 11 12 16 15
f 12 13 17 16
f 13 14 18 17
f 14 11 15 18
o SD0582_T002_2hao
v -27.584 17.880 0.000
v 26.538 21.003 0.000
v 25.414 40.256 0.000
v -28.715 37.115 0.000
v -27.584 17.880 6.600
v 26.538 21.003 6.600
v 25.414 40.256 6.600
v -28.715 37.115 6.600
usemtl roof
f 23 24 25 26
usemtl teaching_building
f 22 21 20 19
f 19 20 24 23
f 20 21 25 24
f 21 22 26 25
f 22 19 23 26
o SD0582_T003_3hao
v 36.478 -9.573 0.000
v 48.081 -9.072 0.000
v 48.014 -7.488 0.000
v 85.790 -5.885 0.000
v 85.101 9.940 0.000
v 35.721 7.837 0.000
v 36.478 -9.573 6.600
v 48.081 -9.072 6.600
v 48.014 -7.488 6.600
v 85.790 -5.885 6.600
v 85.101 9.940 6.600
v 35.721 7.837 6.600
usemtl roof
f 33 34 35 36 37 38
usemtl teaching_building
f 32 31 30 29 28 27
f 27 28 34 33
f 28 29 35 34
f 29 30 36 35
f 30 31 37 36
f 31 32 38 37
f 32 27 33 38
o SD0582_T004_4hao
v -86.013 -15.021 0.000
v -48.251 -13.418 0.000
v -48.177 -15.012 0.000
v -36.566 -14.530 0.000
v -37.315 2.889 0.000
v -86.695 0.795 0.000
v -86.013 -15.021 6.600
v -48.251 -13.418 6.600
v -48.177 -15.012 6.600
v -36.566 -14.530 6.600
v -37.315 2.889 6.600
v -86.695 0.795 6.600
usemtl roof
f 45 46 47 48 49 50
usemtl teaching_building
f 44 43 42 41 40 39
f 39 40 46 45
f 40 41 47 46
f 41 42 48 47
f 42 43 49 48
f 43 44 50 49
f 44 39 45 50
o SD0582_T005_5hao
v 40.021 -38.712 0.000
v 89.798 -36.387 0.000
v 89.259 -24.916 0.000
v 39.489 -27.251 0.000
v 40.021 -38.712 6.600
v 89.798 -36.387 6.600
v 89.259 -24.916 6.600
v 39.489 -27.251 6.600
usemtl roof
f 55 56 57 58
usemtl teaching_building
f 54 53 52 51
f 51 52 56 55
f 52 53 57 56
f 53 54 58 57
f 54 51 55 58
o SD0582_T006_6hao
v -82.657 -46.606 0.000
v -32.880 -44.290 0.000
v -33.419 -32.820 0.000
v -83.204 -35.145 0.000
v -82.657 -46.606 6.600
v -32.880 -44.290 6.600
v -33.419 -32.820 6.600
v -83.204 -35.145 6.600
usemtl roof
f 63 64 65 66
usemtl teaching_building
f 62 61 60 59
f 59 60 64 63
f 60 61 65 64
f 61 62 66 65
f 62 59 63 66
