# school_id SD0571
# school_name 昌邑市石埠经济发展区流河学区小学
# boundary_source footprint_convex_hull_buffer_20m
# adjacent_block_merge_distance_m 2.0
mtllib ../campus_materials.mtl
o SD0571_campus_boundary
usemtl campus_boundary
v -5.755 -29.558 0.050
v -53.361 -27.602 0.050
v -54.457 23.675 0.050
v -11.374 27.176 0.050
v 11.192 27.670 0.050
v 51.598 25.304 0.050
v 52.721 -24.406 0.050
v 8.245 -29.247 0.050
v -5.755 -29.558 0.050
l 1 2 3 4 5 6 7 8 9 1
o SD0571_T001_1hao
v -33.767 -8.390 0.000
v -5.596 -7.779 0.000
v -5.566 -9.549 0.000
v 6.938 -9.271 0.000
v 6.885 -7.075 0.000
v 32.312 -6.509 0.000
v 32.020 6.416 0.000
v 26.067 6.277 0.000
v 26.134 3.015 0.000
v 10.931 2.672 0.000
v 10.826 7.657 0.000
v -10.345 7.194 0.000
v -10.240 2.487 0.000
v -26.236 2.144 0.000
v -26.304 5.443 0.000
v -34.059 5.267 0.000
v -33.767 -8.390 4.950
v -5.596 -7.779 4.950
v -5.566 -9.549 4.950
v 6.938 -9.271 4.950
v 6.885 -7.075 4.950
v 32.312 -6.509 4.950
v 32.020 6.416 4.950
v 26.067 6.277 4.950
v 26.134 3.015 4.950
v 10.931 2.672 4.950
v 10.826 7.657 4.950
v -10.345 7.194 4.950
v -10.240 2.487 4.950
v -26.236 2.144 4.950
v -26.304 5.443 4.950
v -34.059 5.267 4.950
usemtl roof
f 26 27 28 29 30 31 32 33 34 35 36 37 38 39 40 41
usemtl teaching_building
f 25 24 23 22 21 20 19 18 17 16 15 14 13 12 11 10
f 10 11 27 26
f 11 12 28 27
f 12 13 29 28
f 13 14 30 29
f 14 15 31 30
f 15 16 32 31
f 16 17 33 32
f 17 18 34 33
f 18 19 35 34
f 19 20 36 35
f 20 21 37 36
f 21 22 38 37
f 22 23 39 38
f 23 24 40 39
f 24 25 41 40
f 25 10 26 41
