# school_id SD0541
# school_name 昌乐县一中
# boundary_source footprint_convex_hull_buffer_20m
# adjacent_block_merge_distance_m 2.0
mtllib ../campus_materials.mtl
o SD0541_campus_boundary
usemtl campus_boundary
v 16.284 -190.473 0.050
v -40.238 -186.733 0.050
v -117.706 -176.890 0.050
v -124.776 86.835 0.050
v -110.259 208.241 0.050
v -42.114 200.432 0.050
v 72.962 173.014 0.050
v 134.661 -123.010 0.050
v 132.767 -152.502 0.050
v 129.738 -187.018 0.050
v 16.284 -190.473 0.050
l 1 2 3 4 5 6 7 8 9 10 11 1
o SD0541_T001_1hao
v -45.583 180.699 0.000
v -48.118 161.233 0.000
v -94.576 167.003 0.000
v -92.763 186.105 0.000
v -45.583 180.699 15.460
v -48.118 161.233 15.460
v -94.576 167.003 15.460
v -92.763 186.105 15.460
usemtl roof
f 16 17 18 19
usemtl teaching_building
f 15 14 13 12
f 12 13 17 16
f 13 14 18 17
f 14 15 19 18
f 15 12 16 19
o SD0541_T002_2hao
v -39.084 149.052 0.000
v 4.696 143.668 0.000
v 6.776 162.294 0.000
v -36.575 167.269 0.000
v -39.084 149.052 12.280
v 4.696 143.668 12.280
v 6.776 162.294 12.280
v -36.575 167.269 12.280
usemtl roof
f 24 25 26 27
usemtl teaching_building
f 23 22 21 20
f 20 21 25 24
f 21 22 26 25
f 22 23 27 26
f 23 20 24 27
o SD0541_T003_3hao
v 11.784 144.077 0.000
v 53.475 139.114 0.000
v 55.974 156.502 0.000
v 13.864 161.056 0.000
v 11.784 144.077 8.880
v 53.475 139.114 8.880
v 55.974 156.502 8.880
v 13.864 161.056 8.880
usemtl roof
f 32 33 34 35
usemtl teaching_building
f 31 30 29 28
f 28 29 33 32
f 29 30 34 33
f 30 31 35 34
f 31 28 32 35
o SD0541_T004_4hao
v -48.484 143.934 0.000
v -51.028 123.030 0.000
v -98.932 129.154 0.000
v -96.754 148.985 0.000
v -48.484 143.934 22.550
v -51.028 123.030 22.550
v -98.932 129.154 22.550
v -96.754 148.985 22.550
usemtl roof
f 40 41 42 43
usemtl teaching_building
f 39 38 37 36
f 36 37 41 40
f 37 38 42 41
f 38 39 43 42
f 39 36 40 43
o SD0541_T005_5hao
v -43.663 105.576 0.000
v -0.723 100.204 0.000
v 0.946 118.001 0.000
v -41.164 123.384 0.000
v -43.663 105.576 11.570
v -0.723 100.204 11.570
v 0.946 118.001 11.570
v -41.164 123.384 11.570
usemtl roof
f 48 49 50 51
usemtl teaching_building
f 47 46 45 44
f 44 45 49 48
f 45 46 50 49
f 46 47 51 50
f 47 44 48 51
o SD0541_T006_6hao
v 7.196 99.784 0.000
v 48.886 96.059 0.000
v 50.136 112.209 0.000
v 8.865 116.763 0.000
v 7.196 99.784 11.740
v 48.886 96.059 11.740
v 50.136 112.209 11.740
v 8.865 116.763 11.740
usemtl roof
f 56 57 58 59
usemtl teaching_building
f 55 54 53 52
f 52 53 57 56
f 53 54 58 57
f 54 55 59 58
f 55 52 56 59
o SD0541_T007_7hao
v -104.744 85.911 0.000
v -55.019 80.870 0.000
v -53.207 98.889 0.000
v -102.565 103.929 0.000
v -104.744 85.911 12.140
v -55.019 80.870 12.140
v -53.207 98.889 12.140
v -102.565 103.929 12.140
usemtl roof
f 64 65 66 67
usemtl teaching_building
f 63 62 61 60
f 60 61 65 64
f 61 62 66 65
f 62 63 67 66
f 63 60 64 67
o SD0541_T008_8hao
v -48.671 62.941 0.000
v -6.142 57.558 0.000
v -4.892 74.946 0.000
v -46.163 79.091 0.000
v -48.671 62.941 11.410
v -6.142 57.558 11.410
v -4.892 74.946 11.410
v -46.163 79.091 11.410
usemtl roof
f 72 73 74 75
usemtl teaching_building
f 71 70 69 68
f 68 69 73 72
f 69 70 74 73
f 70 71 75 74
f 71 68 72 75
o SD0541_T009_9hao
v 2.607 56.729 0.000
v 43.467 52.174 0.000
v 45.136 69.153 0.000
v 3.866 74.116 0.000
v 2.607 56.729 13.070
v 43.467 52.174 13.070
v 45.136 69.153 13.070
v 3.866 74.116 13.070
usemtl roof
f 80 81 82 83
usemtl teaching_building
f 79 78 77 76
f 76 77 81 80
f 77 78 82 81
f 78 79 83 82
f 79 76 80 83
o SD0541_T010_10hao
v -57.411 -3.228 0.000
v -48.475 -4.389 0.000
v -47.511 5.106 0.000
v -11.471 1.138 0.000
v -10.373 13.430 0.000
v -55.206 17.255 0.000
v -57.411 -3.228 14.870
v -48.475 -4.389 14.870
v -47.511 5.106 14.870
v -11.471 1.138 14.870
v -10.373 13.430 14.870
v -55.206 17.255 14.870
usemtl roof
f 90 91 92 93 94 95
usemtl teaching_building
f 89 88 87 86 85 84
f 84 85 91 90
f 85 86 92 91
f 86 87 93 92
f 87 88 94 93
f 88 89 95 94
f 89 84 90 95
o SD0541_T011_11hao
v 41.878 8.080 0.000
v 39.977 -4.787 0.000
v -4.883 0.232 0.000
v -3.303 13.098 0.000
v 41.878 8.080 14.870
v 39.977 -4.787 14.870
v -4.883 0.232 14.870
v -3.303 13.098 14.870
usemtl roof
f 100 101 102 103
usemtl teaching_building
f 99 98 97 96
f 96 97 101 100
f 97 98 102 101
f 98 99 103 102
f 99 96 100 103
o SD0541_T012_12hao
v 52.082 -116.012 0.000
v 114.528 -124.435 0.000
v 113.430 -136.020 0.000
v 106.288 -134.915 0.000
v 105.565 -150.136 0.000
v 112.823 -150.987 0.000
v 111.368 -167.568 0.000
v 48.582 -160.361 0.000
v 49.814 -142.907 0.000
v 54.028 -143.305 0.000
v 55.349 -127.199 0.000
v 51.377 -126.580 0.000
v 51.388 -126.416 0.000
v 48.939 -152.070 0.000
v 30.433 -150.269 0.000
v 34.067 -116.034 0.000
v 51.962 -117.812 0.000
v 52.082 -116.012 10.740
v 114.528 -124.435 10.740
v 113.430 -136.020 10.740
v 106.288 -134.915 10.740
v 105.565 -150.136 10.740
v 112.823 -150.987 10.740
v 111.368 -167.568 10.740
v 48.582 -160.361 10.740
v 49.814 -142.907 10.740
v 54.028 -143.305 10.740
v 55.349 -127.199 10.740
v 51.377 -126.580 10.740
v 51.388 -126.416 10.740
v 48.939 -152.070 10.740
v 30.433 -150.269 10.740
v 34.067 -116.034 10.740
v 51.962 -117.812 10.740
usemtl roof
f 121 122 123 124 125 126 127 128 129 130 131 132 133 134 135 136 137
usemtl teaching_building
f 120 119 118 117 116 115 114 113 112 111 110 109 108 107 106 105 104
f 104 105 122 121
f 105 106 123 122
f 106 107 124 123
f 107 108 125 124
f 108 109 126 125
f 109 110 127 126
f 110 111 128 127
f 111 112 129 128
f 112 113 130 129
f 113 114 131 130
f 114 115 132 131
f 115 116 133 132
f 116 117 134 133
f 117 118 135 134
f 118 119 136 135
f 119 120 137 136
f 120 104 121 137
o SD0541_T013_13hao
v -98.173 -159.211 0.000
v -38.316 -166.816 0.000
v -35.441 -137.811 0.000
v -94.343 -130.681 0.000
v -98.173 -159.211 11.140
v -38.316 -166.816 11.140
v -35.441 -137.811 11.140
v -94.343 -130.681 11.140
usemtl roof
f 142 143 144 145
usemtl teaching_building
f 141 140 139 138
f 138 139 143 142
f 139 140 144 143
f 140 141 145 144
f 141 138 142 145
o SD0541_T014_14hao
v 18.096 -157.841 0.000
v -20.015 -153.519 0.000
v -17.837 -140.541 0.000
v 19.908 -144.863 0.000
v 20.997 -134.771 0.000
v -25.818 -130.084 0.000
v -29.817 -164.683 0.000
v 16.641 -170.453 0.000
v 18.096 -157.841 13.240
v -20.015 -153.519 13.240
v -17.837 -140.541 13.240
v 19.908 -144.863 13.240
v 20.997 -134.771 13.240
v -25.818 -130.084 13.240
v -29.817 -164.683 13.240
v 16.641 -170.453 13.240
usemtl roof
f 154 155 156 157 158 159 160 161
usemtl teaching_building
f 153 152 151 150 149 148 147 146
f 146 147 155 154
f 147 148 156 155
f 148 149 157 156
f 149 150 158 157
f 150 151 159 158
f 151 152 160 159
f 152 153 161 160
f 153 146 154 161
