# school_id SD0572
# school_name 昌邑市石埠经济发展区西金台学区小学
# boundary_source footprint_convex_hull_buffer_20m
# adjacent_block_merge_distance_m 2.0
mtllib ../campus_materials.mtl
o SD0572_campus_boundary
usemtl campus_boundary
v 26.713 -38.525 0.050
v -63.904 -37.311 0.050
v -63.336 3.175 0.050
v -24.035 41.764 0.050
v 95.052 40.633 0.050
v 94.719 1.459 0.050
v 26.713 -38.525 0.050
l 1 2 3 4 5 6 7 1
o SD0572_T001_1hao
v 12.955 12.939 0.000
v 74.816 12.958 0.000
v 74.883 20.824 0.000
v 12.940 21.408 0.000
v 12.955 12.939 9.900
v 74.816 12.958 9.900
v 74.883 20.824 9.900
v 12.940 21.408 9.900
usemtl roof
f 12 13 14 15
usemtl teaching_building
f 11 10 9 8
f 8 9 13 12
f 9 10 14 13
f 10 11 15 14
f 11 8 12 15
o SD0572_T002_2hao
v 21.393 -18.452 0.000
v 21.558 -6.749 0.000
v 14.683 -6.657 0.000
v 14.660 -8.908 0.000
v -3.489 -8.649 0.000
v -3.414 -3.312 0.000
v -16.409 -3.127 0.000
v -16.499 -9.029 0.000
v -36.735 -8.751 0.000
v -36.690 -5.434 0.000
v -43.453 -5.332 0.000
v -43.625 -17.581 0.000
v 21.393 -18.452 9.900
v 21.558 -6.749 9.900
v 14.683 -6.657 9.900
v 14.660 -8.908 9.900
v -3.489 -8.649 9.900
v -3.414 -3.312 9.900
v -16.409 -3.127 9.900
v -16.499 -9.029 9.900
v -36.735 -8.751 9.900
v -36.690 -5.434 9.900
v -43.453 -5.332 9.900
v -43.625 -17.581 9.900
usemtl roof
f 28 29 30 31 32 33 34 35 36 37 38 39
usemtl teaching_building
f 27 26 25 24 23 22 21 20 19 18 17 16
f 16 17 29 28
f 17 18 30 29
f 18 19 31 30
f 19 20 32 31
f 20 21 33 32
f 21 22 34 33
f 22 23 35 34
f 23 24 36 35
f 24 25 37 36
f 25 26 38 37
f 26 27 39 38
f 27 16 28 39
