# school_id SD0589
# school_name 潍坊中学
# boundary_source footprint_convex_hull_buffer_20m
# adjacent_block_merge_distance_m 2.0
mtllib ../campus_materials.mtl
o SD0589_campus_boundary
usemtl campus_boundary
v -54.838 -138.198 0.050
v -75.204 -131.431 0.050
v -88.145 19.354 0.050
v -73.133 72.453 0.050
v 25.772 104.796 0.050
v 77.410 108.662 0.050
v 116.324 111.370 0.050
v 127.087 -15.279 0.050
v 128.717 -47.538 0.050
v 40.448 -127.525 0.050
v 30.123 -131.695 0.050
v -9.347 -134.755 0.050
v -54.838 -138.198 0.050
l 1 2 3 4 5 6 7 8 9 10 11 12 13 1
o SD0589_T001_1hao
v 49.832 86.447 0.000
v 50.189 81.473 0.000
v 79.226 83.507 0.000
v 78.851 88.714 0.000
v 98.064 90.051 0.000
v 99.510 69.745 0.000
v 31.110 64.947 0.000
v 29.683 85.033 0.000
v 49.832 86.447 18.350
v 50.189 81.473 18.350
v 79.226 83.507 18.350
v 78.851 88.714 18.350
v 98.064 90.051 18.350
v 99.510 69.745 18.350
v 31.110 64.947 18.350
v 29.683 85.033 18.350
usemtl roof
f 22 23 24 25 26 27 28 29
usemtl teaching_building
f 21 20 19 18 17 16 15 14
f 14 15 23 22
f 15 16 24 23
f 16 17 25 24
f 17 18 26 25
f 18 19 27 26
f 19 20 28 27
f 20 21 29 28
f 21 14 22 29
o SD0589_T002_2hao
v -56.118 41.038 0.000
v -47.631 41.955 0.000
v -47.560 40.507 0.000
v -44.330 40.673 0.000
v -44.392 42.010 0.000
v -41.876 42.132 0.000
v -41.804 40.695 0.000
v -37.262 40.916 0.000
v -37.369 43.171 0.000
v -33.818 43.337 0.000
v -33.755 42.154 0.000
v -27.312 43.392 0.000
v -27.250 42.010 0.000
v -23.047 42.198 0.000
v -23.100 43.326 0.000
v -15.756 42.607 0.000
v -15.819 44.188 0.000
v -9.438 43.492 0.000
v -9.519 45.514 0.000
v -5.360 45.680 0.000
v -5.307 44.210 0.000
v -1.184 44.365 0.000
v -1.238 45.813 0.000
v 2.403 45.946 0.000
v 3.403 31.531 0.000
v 10.381 31.763 0.000
v 7.659 73.746 0.000
v 0.137 73.337 0.000
v 0.520 62.471 0.000
v -4.879 62.272 0.000
v -4.932 63.665 0.000
v -6.592 63.610 0.000
v -6.529 61.919 0.000
v -14.400 61.620 0.000
v -14.462 63.090 0.000
v -16.667 63.002 0.000
v -16.595 61.145 0.000
v -21.503 60.946 0.000
v -21.575 62.670 0.000
v -23.716 62.582 0.000
v -23.627 60.526 0.000
v -28.945 60.294 0.000
v -29.008 61.764 0.000
v -31.462 61.653 0.000
v -31.426 60.736 0.000
v -38.458 61.178 0.000
v -38.387 59.575 0.000
v -40.100 59.498 0.000
v -40.011 57.707 0.000
v -56.787 56.756 0.000
v -56.118 41.038 24.160
v -47.631 41.955 24.160
v -47.560 40.507 24.160
v -44.330 40.673 24.160
v -44.392 42.010 24.160
v -41.876 42.132 24.160
v -41.804 40.695 24.160
v -37.262 40.916 24.160
v -37.369 43.171 24.160
v -33.818 43.337 24.160
v -33.755 42.154 24.160
v -27.312 43.392 24.160
v -27.250 42.010 24.160
v -23.047 42.198 24.160
v -23.100 43.326 24.160
v -15.756 42.607 24.160
v -15.819 44.188 24.160
v -9.438 43.492 24.160
v -9.519 45.514 24.160
v -5.360 45.680 24.160
v -5.307 44.210 24.160
v -1.184 44.365 24.160
v -1.238 45.813 24.160
v 2.403 45.946 24.160
v 3.403 31.531 24.160
v 10.381 31.763 24.160
v 7.659 73.746 24.160
v 0.137 73.337 24.160
v 0.520 62.471 24.160
v -4.879 62.272 24.160
v -4.932 63.665 24.160
v -6.592 63.610 24.160
v -6.529 61.919 24.160
v -14.400 61.620 24.160
v -14.462 63.090 24.160
v -16.667 63.002 24.160
v -16.595 61.145 24.160
v -21.503 60.946 24.160
v -21.575 62.670 24.160
v -23.716 62.582 24.160
v -23.627 60.526 24.160
v -28.945 60.294 24.160
v -29.008 61.764 24.160
v -31.462 61.653 24.160
v -31.426 60.736 24.160
v -38.458 61.178 24.160
v -38.387 59.575 24.160
v -40.100 59.498 24.160
v -40.011 57.707 24.160
v -56.787 56.756 24.160
usemtl roof
f 80 81 82 83 84 85 86 87 88 89 90 91 92 93 94 95 96 97 98 99 100 101 102 103 104 105 106 107 108 109 110 111 112 113 114 115 116 117 118 119 120 121 122 123 124 125 126 127 128 129
usemtl teaching_building
f 79 78 77 76 75 74 73 72 71 70 69 68 67 66 65 64 63 62 61 60 59 58 57 56 55 54 53 52 51 50 49 48 47 46 45 44 43 42 41 40 39 38 37 36 35 34 33 32 31 30
f 30 31 81 80
f 31 32 82 81
f 32 33 83 82
f 33 34 84 83
f 34 35 85 84
f 35 36 86 85
f 36 37 87 86
f 37 38 88 87
f 38 39 89 88
f 39 40 90 89
f 40 41 91 90
f 41 42 92 91
f 42 43 93 92
f 43 44 94 93
f 44 45 95 94
f 45 46 96 95
f 46 47 97 96
f 47 48 98 97
f 48 49 99 98
f 49 50 100 99
f 50 51 101 100
f 51 52 102 101
f 52 53 103 102
f 53 54 104 103
f 54 55 105 104
f 55 56 106 105
f 56 57 107 106
f 57 58 108 107
f 58 59 109 108
f 59 60 110 109
f 60 61 111 110
f 61 62 112 111
f 62 63 113 112
f 63 64 114 113
f 64 65 115 114
f 65 66 116 115
f 66 67 117 116
f 67 68 118 117
f 68 69 119 118
f 69 70 120 119
f 70 71 121 120
f 71 72 122 121
f 72 73 123 122
f 73 74 124 123
f 74 75 125 124
f 75 76 126 125
f 76 77 127 126
f 77 78 128 127
f 78 79 129 128
f 79 30 80 129
o SD0589_T003_3hao
v 100.500 41.878 0.000
v 102.097 21.483 0.000
v 33.538 16.199 0.000
v 31.949 36.594 0.000
v 100.500 41.878 16.490
v 102.097 21.483 16.490
v 33.538 16.199 16.490
v 31.949 36.594 16.490
usemtl roof
f 134 135 136 137
usemtl teaching_building
f 133 132 131 130
f 130 131 135 134
f 131 132 136 135
f 132 133 137 136
f 133 130 134 137
o SD0589_T004_4hao
v 14.031 22.721 0.000
v 14.789 5.676 0.000
v -42.126 1.586 0.000
v -38.851 -27.420 0.000
v 13.923 -24.712 0.000
v 14.370 -43.150 0.000
v -62.302 -46.952 0.000
v -67.906 17.426 0.000
v 14.031 22.721 13.770
v 14.789 5.676 13.770
v -42.126 1.586 13.770
v -38.851 -27.420 13.770
v 13.923 -24.712 13.770
v 14.370 -43.150 13.770
v -62.302 -46.952 13.770
v -67.906 17.426 13.770
usemtl roof
f 146 147 148 149 150 151 152 153
usemtl teaching_building
f 145 144 143 142 141 140 139 138
f 138 139 147 146
f 139 140 148 147
f 140 141 149 148
f 141 142 150 149
f 142 143 151 150
f 143 144 152 151
f 144 145 153 152
f 145 138 146 153
o SD0589_T005_5hao
v 56.328 -19.594 0.000
v 56.498 -22.512 0.000
v 89.613 -20.644 0.000
v 89.435 -17.427 0.000
v 107.130 -16.631 0.000
v 108.264 -39.082 0.000
v 84.955 -40.773 0.000
v 85.053 -42.354 0.000
v 80.600 -42.608 0.000
v 80.520 -41.182 0.000
v 69.821 -41.790 0.000
v 69.901 -43.083 0.000
v 64.770 -43.371 0.000
v 64.672 -41.646 0.000
v 39.490 -43.061 0.000
v 38.205 -20.611 0.000
v 56.328 -19.594 18.160
v 56.498 -22.512 18.160
v 89.613 -20.644 18.160
v 89.435 -17.427 18.160
v 107.130 -16.631 18.160
v 108.264 -39.082 18.160
v 84.955 -40.773 18.160
v 85.053 -42.354 18.160
v 80.600 -42.608 18.160
v 80.520 -41.182 18.160
v 69.821 -41.790 18.160
v 69.901 -43.083 18.160
v 64.770 -43.371 18.160
v 64.672 -41.646 18.160
v 39.490 -43.061 18.160
v 38.205 -20.611 18.160
usemtl roof
f 170 171 172 173 174 175 176 177 178 179 180 181 182 183 184 185
usemtl teaching_building
f 169 168 167 166 165 164 163 162 161 160 159 158 157 156 155 154
f 154 155 171 170
f 155 156 172 171
f 156 157 173 172
f 157 158 174 173
f 158 159 175 174
f 159 160 176 175
f 160 161 177 176
f 161 162 178 177
f 162 163 179 178
f 163 164 180 179
f 164 165 181 180
f 165 166 182 181
f 166 167 183 182
f 167 168 184 183
f 168 169 185 184
f 169 154 170 185
o SD0589_T006_6hao
v 29.656 -110.314 0.000
v 25.390 -110.645 0.000
v 25.497 -111.994 0.000
v -10.875 -114.813 0.000
v -10.991 -113.265 0.000
v -18.023 -113.807 0.000
v -17.907 -115.288 0.000
v -52.343 -117.952 0.000
v -52.477 -116.305 0.000
v -56.403 -116.603 0.000
v -57.706 -97.016 0.000
v -59.045 -77.052 0.000
v -57.769 -76.964 0.000
v -57.983 -73.747 0.000
v -46.793 -73.007 0.000
v -46.471 -77.815 0.000
v -27.669 -76.577 0.000
v -27.937 -72.631 0.000
v -8.600 -71.359 0.000
v -8.368 -74.853 0.000
v 11.220 -73.559 0.000
v 10.818 -67.535 0.000
v 24.087 -66.662 0.000
v 24.195 -68.231 0.000
v 26.747 -68.054 0.000
v 28.299 -91.190 0.000
v 29.656 -110.314 16.250
v 25.390 -110.645 16.250
v 25.497 -111.994 16.250
v -10.875 -114.813 16.250
v -10.991 -113.265 16.250
v -18.023 -113.807 16.250
v -17.907 -115.288 16.250
v -52.343 -117.952 16.250
v -52.477 -116.305 16.250
v -56.403 -116.603 16.250
v -57.706 -97.016 16.250
v -59.045 -77.052 16.250
v -57.769 -76.964 16.250
v -57.983 -73.747 16.250
v -46.793 -73.007 16.250
v -46.471 -77.815 16.250
v -27.669 -76.577 16.250
v -27.937 -72.631 16.250
v -8.600 -71.359 16.250
v -8.368 -74.853 16.250
v 11.220 -73.559 16.250
v 10.818 -67.535 16.250
v 24.087 -66.662 16.250
v 24.195 -68.231 16.250
v 26.747 -68.054 16.250
v 28.299 -91.190 16.250
usemtl roof
f 212 213 214 215 216 217 218 219 220 221 222 223 224 225 226 227 228 229 230 231 232 233 234 235 236 237
usemtl teaching_building
f 211 210 209 208 207 206 205 204 203 202 201 200 199 198 197 196 195 194 193 192 191 190 189 188 187 186
f 186 187 213 212
f 187 188 214 213
f 188 189 215 214
f 189 190 216 215
f 190 191 217 216
f 191 192 218 217
f 192 193 219 218
f 193 194 220 219
f 194 195 221 220
f 195 196 222 221
f 196 197 223 222
f 197 198 224 223
f 198 199 225 224
f 199 200 226 225
f 200 201 227 226
f 201 202 228 227
f 202 203 229 228
f 203 204 230 229
f 204 205 231 230
f 205 206 232 231
f 206 207 233 232
f 207 208 234 233
f 208 209 235 234
f 209 210 236 235
f 210 211 237 236
f 211 186 212 237
