# school_id SD0508
# school_name 鲁东大学莱山实验中学(滨海校区)
# boundary_source footprint_convex_hull_buffer_20m
# adjacent_block_merge_distance_m 2.0
mtllib ../campus_materials.mtl
o SD0508_campus_boundary
usemtl campus_boundary
v 61.489 -96.827 0.050
v 2.384 -76.628 0.050
v -124.488 -30.886 0.050
v -95.886 47.898 0.050
v -67.535 104.826 0.050
v -12.405 85.128 0.050
v 57.892 56.846 0.050
v 109.485 29.918 0.050
v 101.493 6.825 0.050
v 61.489 -96.827 0.050
l 1 2 3 4 5 6 7 8 9 10 1
o SD0508_T001_1hao
v -32.188 31.441 0.000
v -19.505 66.427 0.000
v -57.546 80.019 0.000
v -70.229 45.033 0.000
v -32.188 31.441 9.900
v -19.505 66.427 9.900
v -57.546 80.019 9.900
v -70.229 45.033 9.900
usemtl roof
f 15 16 17 18
usemtl teaching_building
f 14 13 12 11
f 11 12 16 15
f 12 13 17 16
f 13 14 18 17
f 14 11 15 18
o SD0508_T002_2hao
v -65.881 -30.674 0.000
v -62.954 -22.613 0.000
v -78.282 -17.128 0.000
v -70.763 3.580 0.000
v -62.599 0.662 0.000
v -60.236 7.184 0.000
v -50.160 3.580 0.000
v -41.604 27.170 0.000
v -77.475 40.002 0.000
v -98.848 -18.870 0.000
v -65.881 -30.674 9.900
v -62.954 -22.613 9.900
v -78.282 -17.128 9.900
v -70.763 3.580 9.900
v -62.599 0.662 9.900
v -60.236 7.184 9.900
v -50.160 3.580 9.900
v -41.604 27.170 9.900
v -77.475 40.002 9.900
v -98.848 -18.870 9.900
usemtl roof
f 29 30 31 32 33 34 35 36 37 38
usemtl teaching_building
f 28 27 26 25 24 23 22 21 20 19
f 19 20 30 29
f 20 21 31 30
f 21 22 32 31
f 22 23 33 32
f 23 24 34 33
f 24 25 35 34
f 25 26 36 35
f 26 27 37 36
f 27 28 38 37
f 28 19 29 38
o SD0508_T003_3hao
v 6.002 -12.199 0.000
v 11.285 2.996 0.000
v -29.965 17.145 0.000
v -35.255 1.949 0.000
v 6.002 -12.199 9.900
v 11.285 2.996 9.900
v -29.965 17.145 9.900
v -35.255 1.949 9.900
usemtl roof
f 43 44 45 46
usemtl teaching_building
f 42 41 40 39
f 39 40 44 43
f 40 41 45 44
f 41 42 46 45
f 42 39 43 46
o SD0508_T004_4hao
v 49.756 -71.682 0.000
v 53.253 -61.583 0.000
v 18.960 -49.862 0.000
v 31.095 -14.858 0.000
v 63.425 -25.911 0.000
v 65.091 -21.112 0.000
v 33.665 -10.364 0.000
v 46.326 26.132 0.000
v 82.708 13.698 0.000
v 84.946 20.165 0.000
v 47.534 32.951 0.000
v 49.512 38.659 0.000
v 42.274 41.133 0.000
v 37.814 28.263 0.000
v 44.230 26.076 0.000
v 32.621 -7.381 0.000
v 26.879 -5.426 0.000
v 22.575 -17.860 0.000
v 25.146 -18.731 0.000
v 15.863 -45.526 0.000
v 13.522 -44.729 0.000
v 9.010 -57.757 0.000
v 49.756 -71.682 9.900
v 53.253 -61.583 9.900
v 18.960 -49.862 9.900
v 31.095 -14.858 9.900
v 63.425 -25.911 9.900
v 65.091 -21.112 9.900
v 33.665 -10.364 9.900
v 46.326 26.132 9.900
v 82.708 13.698 9.900
v 84.946 20.165 9.900
v 47.534 32.951 9.900
v 49.512 38.659 9.900
v 42.274 41.133 9.900
v 37.814 28.263 9.900
v 44.230 26.076 9.900
v 32.621 -7.381 9.900
v 26.879 -5.426 9.900
v 22.575 -17.860 9.900
v 25.146 -18.731 9.900
v 15.863 -45.526 9.900
v 13.522 -44.729 9.900
v 9.010 -57.757 9.900
usemtl roof
f 69 70 71 72 73 74 75 76 77 78 79 80 81 82 83 84 85 86 87 88 89 90
usemtl teaching_building
f 68 67 66 65 64 63 62 61 60 59 58 57 56 55 54 53 52 51 50 49 48 47
f 47 48 70 69
f 48 49 71 70
f 49 50 72 71
f 50 51 73 72
f 51 52 74 73
f 52 53 75 74
f 53 54 76 75
f 54 55 77 76
f 55 56 78 77
f 56 57 79 78
f 57 58 80 79
f 58 59 81 80
f 59 60 82 81
f 60 61 83 82
f 61 62 84 83
f 62 63 85 84
f 63 64 86 85
f 64 65 87 86
f 65 66 88 87
f 66 67 89 88
f 67 68 90 89
f 68 47 69 90
