# school_id SD0506
# school_name 高新区良才学区小学
# boundary_source footprint_convex_hull_buffer_20m
# adjacent_block_merge_distance_m 2.0
mtllib ../campus_materials.mtl
o SD0506_campus_boundary
usemtl campus_boundary
v -28.793 -69.756 0.050
v -33.600 -14.801 0.050
v -34.151 -7.684 0.050
v -39.525 64.789 0.050
v 34.301 71.633 0.050
v 36.985 43.003 0.050
v 37.130 -65.013 0.050
v -28.793 -69.756 0.050
l 1 2 3 4 5 6 7 8 1
o SD0506_T001_1hao
v -17.387 38.876 0.000
v 16.986 42.054 0.000
v 16.253 49.874 0.000
v -18.128 46.687 0.000
v -17.387 38.876 4.950
v 16.986 42.054 4.950
v 16.253 49.874 4.950
v -18.128 46.687 4.950
usemtl roof
f 13 14 15 16
usemtl teaching_building
f 12 11 10 9
f 9 10 14 13
f 10 11 15 14
f 11 12 16 15
f 12 9 13 16
