# school_id SD0573
# school_name 昌邑市第一中学
# boundary_source footprint_convex_hull_buffer_20m
# adjacent_block_merge_distance_m 2.0
mtllib ../campus_materials.mtl
o SD0573_campus_boundary
usemtl campus_boundary
v 35.422 -218.391 0.050
v 19.955 -215.332 0.050
v 4.678 -204.960 0.050
v -2.885 -194.715 0.050
v -38.966 -140.724 0.050
v -50.969 -84.211 0.050
v -57.172 -30.631 0.050
v -65.426 47.947 0.050
v -65.568 65.584 0.050
v -65.164 192.505 0.050
v 43.881 190.580 0.050
v 88.019 -167.314 0.050
v 87.212 -183.241 0.050
v 77.085 -201.197 0.050
v 68.631 -210.438 0.050
v 54.597 -218.391 0.050
v 35.422 -218.391 0.050
l 1 2 3 4 5 6 7 8 9 10 11 12 13 14 15 16 17 1
o SD0573_T001_1hao
v -40.458 119.672 0.000
v -33.187 119.699 0.000
v -33.169 115.918 0.000
v 13.145 116.073 0.000
v 13.128 120.251 0.000
v 26.559 120.295 0.000
v 26.612 103.836 0.000
v -40.571 103.619 0.000
v -40.838 65.711 0.000
v -45.568 65.633 0.000
v -45.007 154.154 0.000
v -45.229 172.150 0.000
v -33.882 171.918 0.000
v -33.909 167.706 0.000
v 13.519 167.441 0.000
v 13.537 170.978 0.000
v 26.158 170.890 0.000
v 26.212 153.491 0.000
v -40.215 154.109 0.000
v -40.458 119.672 15.010
v -33.187 119.699 15.010
v -33.169 115.918 15.010
v 13.145 116.073 15.010
v 13.128 120.251 15.010
v 26.559 120.295 15.010
v 26.612 103.836 15.010
v -40.571 103.619 15.010
v -40.838 65.711 15.010
v -45.568 65.633 15.010
v -45.007 154.154 15.010
v -45.229 172.150 15.010
v -33.882 171.918 15.010
v -33.909 167.706 15.010
v 13.519 167.441 15.010
v 13.537 170.978 15.010
v 26.158 170.890 15.010
v 26.212 153.491 15.010
v -40.215 154.109 15.010
usemtl roof
f 37 38 39 40 41 42 43 44 45 46 47 48 49 50 51 52 53 54 55
usemtl teaching_building
f 36 35 34 33 32 31 30 29 28 27 26 25 24 23 22 21 20 19 18
f 18 19 38 37
f 19 20 39 38
f 20 21 40 39
f 21 22 41 40
f 22 23 42 41
f 23 24 43 42
f 24 25 44 43
f 25 26 45 44
f 26 27 46 45
f 27 28 47 46
f 28 29 48 47
f 29 30 49 48
f 30 31 50 49
f 31 32 51 50
f 32 33 52 51
f 33 34 53 52
f 34 35 54 53
f 35 36 55 54
f 36 18 37 55
o SD0573_T001_1hao_seg02
v -34.728 61.908 0.000
v 11.934 62.140 0.000
v 11.747 66.374 0.000
v 26.880 66.595 0.000
v 27.067 48.898 0.000
v -45.434 49.075 0.000
v -45.568 65.633 0.000
v -34.701 65.788 0.000
v -34.728 61.908 15.010
v 11.934 62.140 15.010
v 11.747 66.374 15.010
v 26.880 66.595 15.010
v 27.067 48.898 15.010
v -45.434 49.075 15.010
v -45.568 65.633 15.010
v -34.701 65.788 15.010
usemtl roof
f 64 65 66 67 68 69 70 71
usemtl teaching_building
f 63 62 61 60 59 58 57 56
f 56 57 65 64
f 57 58 66 65
f 58 59 67 66
f 59 60 68 67
f 60 61 69 68
f 61 62 70 69
f 62 63 71 70
f 63 56 64 71
o SD0573_T002_2hao
v -26.721 -13.646 0.000
v -26.837 -17.714 0.000
v 16.690 -18.919 0.000
v 16.815 -14.442 0.000
v 33.248 -14.895 0.000
v 32.811 -30.371 0.000
v -37.293 -28.436 0.000
v -36.866 -13.358 0.000
v -26.721 -13.646 18.630
v -26.837 -17.714 18.630
v 16.690 -18.919 18.630
v 16.815 -14.442 18.630
v 33.248 -14.895 18.630
v 32.811 -30.371 18.630
v -37.293 -28.436 18.630
v -36.866 -13.358 18.630
usemtl roof
f 80 81 82 83 84 85 86 87
usemtl teaching_building
f 79 78 77 76 75 74 73 72
f 72 73 81 80
f 73 74 82 81
f 74 75 83 82
f 75 76 84 83
f 76 77 85 84
f 77 78 86 85
f 78 79 87 86
f 79 72 80 87
o SD0573_T003_3hao
v -20.834 -69.855 0.000
v -20.860 -64.085 0.000
v -31.281 -64.129 0.000
v -31.210 -80.976 0.000
v 41.754 -80.677 0.000
v 41.691 -64.671 0.000
v 26.265 -64.737 0.000
v 26.283 -69.679 0.000
v -20.834 -69.855 18.640
v -20.860 -64.085 18.640
v -31.281 -64.129 18.640
v -31.210 -80.976 18.640
v 41.754 -80.677 18.640
v 41.691 -64.671 18.640
v 26.265 -64.737 18.640
v 26.283 -69.679 18.640
usemtl roof
f 96 97 98 99 100 101 102 103
usemtl teaching_building
f 95 94 93 92 91 90 89 88
f 88 89 97 96
f 89 90 98 97
f 90 91 99 98
f 91 92 100 99
f 92 93 101 100
f 93 94 102 101
f 94 95 103 102
f 95 88 96 103
o SD0573_T004_4hao
v -20.201 -132.808 0.000
v 51.952 -132.808 0.000
v 51.952 -117.144 0.000
v 37.612 -117.144 0.000
v 37.612 -121.411 0.000
v -8.249 -121.411 0.000
v -8.249 -117.620 0.000
v -20.673 -117.620 0.000
v -20.201 -132.808 20.040
v 51.952 -132.808 20.040
v 51.952 -117.144 20.040
v 37.612 -117.144 20.040
v 37.612 -121.411 20.040
v -8.249 -121.411 20.040
v -8.249 -117.620 20.040
v -20.673 -117.620 20.040
usemtl roof
f 112 113 114 115 116 117 118 119
usemtl teaching_building
f 111 110 109 108 107 106 105 104
f 104 105 113 112
f 105 106 114 113
f 106 107 115 114
f 107 108 116 115
f 108 109 117 116
f 109 110 118 117
f 110 111 119 118
f 111 104 112 119
o SD0573_T005_5hao
v 24.956 -168.037 0.000
v 24.475 -161.869 0.000
v 33.079 -162.333 0.000
v 33.551 -166.611 0.000
v 50.758 -167.086 0.000
v 50.758 -163.284 0.000
v 58.881 -163.284 0.000
v 58.881 -168.037 0.000
v 67.957 -168.037 0.000
v 67.476 -177.521 0.000
v 60.787 -189.382 0.000
v 56.013 -194.600 0.000
v 49.324 -198.391 0.000
v 37.381 -198.391 0.000
v 27.824 -196.501 0.000
v 18.739 -190.333 0.000
v 13.484 -183.214 0.000
v 11.578 -176.571 0.000
v 11.578 -168.037 0.000
v 24.956 -168.037 8.070
v 24.475 -161.869 8.070
v 33.079 -162.333 8.070
v 33.551 -166.611 8.070
v 50.758 -167.086 8.070
v 50.758 -163.284 8.070
v 58.881 -163.284 8.070
v 58.881 -168.037 8.070
v 67.957 -168.037 8.070
v 67.476 -177.521 8.070
v 60.787 -189.382 8.070
v 56.013 -194.600 8.070
v 49.324 -198.391 8.070
v 37.381 -198.391 8.070
v 27.824 -196.501 8.070
v 18.739 -190.333 8.070
v 13.484 -183.214 8.070
v 11.578 -176.571 8.070
v 11.578 -168.037 8.070
usemtl roof
f 139 140 141 142 143 144 145 146 147 148 149 150 151 152 153 154 155 156 157
usemtl teaching_building
f 138 137 136 135 134 133 132 131 130 129 128 127 126 125 124 123 122 121 120
f 120 121 140 139
f 121 122 141 140
f 122 123 142 141
f 123 124 143 142
f 124 125 144 143
f 125 126 145 144
f 126 127 146 145
f 127 128 147 146
f 128 129 148 147
f 129 130 149 148
f 130 131 150 149
f 131 132 151 150
f 132 133 152 151
f 133 134 153 152
f 134 135 154 153
f 135 136 155 154
f 136 137 156 155
f 137 138 157 156
f 138 120 139 157
