# school_id SD0698
# school_name 七里小学
# boundary_source footprint_convex_hull_buffer_20m
# adjacent_block_merge_distance_m 2.0
mtllib ../campus_materials.mtl
o SD0698_campus_boundary
usemtl campus_boundary
v -31.961 -24.385 0.050
v -32.440 23.758 0.050
v 31.961 24.370 0.050
v 32.440 -23.744 0.050
v -31.961 -24.385 0.050
l 1 2 3 4 5 1
o SD0698_T001_1hao
v 12.161 4.181 0.000
v 12.242 -3.944 0.000
v -12.161 -4.187 0.000
v -12.242 3.949 0.000
v 12.161 4.181 8.110
v 12.242 -3.944 8.110
v -12.161 -4.187 8.110
v -12.242 3.949 8.110
usemtl roof
f 10 11 12 13
usemtl teaching_building
f 9 8 7 6
f 6 7 11 10
f 7 8 12 11
f 8 9 13 12
f 9 6 10 13
