# school_id SD0671
# school_name 济宁学院附属中学（高新校区）
# boundary_source footprint_convex_hull_buffer_20m
# adjacent_block_merge_distance_m 2.0
mtllib ../campus_materials.mtl
o SD0671_campus_boundary
usemtl campus_boundary
v 51.138 -57.831 0.050
v -54.094 -55.074 0.050
v -53.144 -18.809 0.050
v -51.138 57.831 0.050
v -14.872 56.881 0.050
v 54.094 55.074 0.050
v 53.144 18.809 0.050
v 51.138 -57.831 0.050
l 1 2 3 4 5 6 7 8 1
o SD0671_T001_1hao
v 31.668 -37.314 0.000
v -33.577 -35.605 0.000
v -33.151 -19.332 0.000
v -33.151 -19.332 0.000
v -31.668 37.314 0.000
v -15.395 36.888 0.000
v -15.395 36.888 0.000
v 33.577 35.605 0.000
v 33.151 19.332 0.000
v -15.821 20.615 0.000
v -16.136 8.565 0.000
v 27.942 7.410 0.000
v 27.516 -8.863 0.000
v -16.563 -7.708 0.000
v -16.878 -19.758 0.000
v 32.094 -21.041 0.000
v 31.668 -37.314 17.680
v -33.577 -35.605 17.680
v -33.151 -19.332 17.680
v -33.151 -19.332 17.680
v -31.668 37.314 17.680
v -15.395 36.888 17.680
v -15.395 36.888 17.680
v 33.577 35.605 17.680
v 33.151 19.332 17.680
v -15.821 20.615 17.680
v -16.136 8.565 17.680
v 27.942 7.410 17.680
v 27.516 -8.863 17.680
v -16.563 -7.708 17.680
v -16.878 -19.758 17.680
v 32.094 -21.041 17.680
usemtl roof
f 25 26 27 28 29 30 31 32 33 34 35 36 37 38 39 40
usemtl teaching_building
f 24 23 22 21 20 19 18 17 16 15 14 13 12 11 10 9
f 9 10 26 25
f 10 11 27 26
f 11 12 28 27
f 12 13 29 28
f 13 14 30 29
f 14 15 31 30
f 15 16 32 31
f 16 17 33 32
f 17 18 34 33
f 18 19 35 34
f 19 20 36 35
f 20 21 37 36
f 21 22 38 37
f 22 23 39 38
f 23 24 40 39
f 24 9 25 40
