# school_id SD0656
# school_name 实验小学教育集团荷韵校区
# boundary_source footprint_convex_hull_buffer_20m
# adjacent_block_merge_distance_m 2.0
mtllib ../campus_materials.mtl
o SD0656_campus_boundary
usemtl campus_boundary
v -61.966 -71.665 0.050
v -81.894 -24.151 0.050
v -37.107 23.583 0.050
v -10.990 35.379 0.050
v 64.783 65.332 0.050
v 92.178 -2.379 0.050
v -7.106 -48.282 0.050
v -61.966 -71.665 0.050
l 1 2 3 4 5 6 7 8 1
o SD0656_T001_1hao
v -3.193 16.955 0.000
v -0.752 11.494 0.000
v 35.938 25.865 0.000
v 33.698 31.336 0.000
v 53.684 39.439 0.000
v 66.493 7.780 0.000
v -12.693 -23.105 0.000
v -25.246 6.995 0.000
v -3.193 16.955 14.350
v -0.752 11.494 14.350
v 35.938 25.865 14.350
v 33.698 31.336 14.350
v 53.684 39.439 14.350
v 66.493 7.780 14.350
v -12.693 -23.105 14.350
v -25.246 6.995 14.350
usemtl roof
f 17 18 19 20 21 22 23 24
usemtl teaching_building
f 16 15 14 13 12 11 10 9
f 9 10 18 17
f 10 11 19 18
f 11 12 20 19
f 12 13 21 20
f 13 14 22 21
f 14 15 23 22
f 15 16 24 23
f 16 9 17 24
o SD0656_T002_2hao
v -22.969 -13.001 0.000
v -15.225 -30.002 0.000
v -51.303 -45.379 0.000
v -58.434 -28.377 0.000
v -22.969 -13.001 7.770
v -15.225 -30.002 7.770
v -51.303 -45.379 7.770
v -58.434 -28.377 7.770
usemtl roof
f 29 30 31 32
usemtl teaching_building
f 28 27 26 25
f 25 26 30 29
f 26 27 31 30
f 27 28 32 31
f 28 25 29 32
