# school_id SD0658
# school_name 微山县傅村街道中心小学
# boundary_source footprint_convex_hull_buffer_20m
# adjacent_block_merge_distance_m 2.0
mtllib ../campus_materials.mtl
o SD0658_campus_boundary
usemtl campus_boundary
v -93.157 -81.555 0.050
v -106.671 9.639 0.050
v 7.400 99.104 0.050
v 114.063 115.554 0.050
v 129.936 5.427 0.050
v -3.061 -65.451 0.050
v -93.157 -81.555 0.050
l 1 2 3 4 5 6 7 1
o SD0658_T001_1hao
v 22.400 38.525 0.000
v 29.115 4.160 0.000
v 108.137 16.473 0.000
v 97.149 92.709 0.000
v 15.623 80.136 0.000
v 22.400 38.525 9.900
v 29.115 4.160 9.900
v 108.137 16.473 9.900
v 97.149 92.709 9.900
v 15.623 80.136 9.900
usemtl roof
f 13 14 15 16 17
usemtl teaching_building
f 12 11 10 9 8
f 8 9 14 13
f 9 10 15 14
f 10 11 16 15
f 11 12 17 16
f 12 8 13 17
o SD0658_T002_2hao
v -76.393 -58.242 0.000
v -9.684 -46.318 0.000
v -11.552 -35.403 0.000
v -63.743 -44.622 0.000
v -68.422 -15.464 0.000
v -11.644 -7.014 0.000
v -0.633 -14.390 0.000
v 6.419 -14.844 0.000
v 11.725 -11.730 0.000
v 14.796 -7.172 0.000
v 14.712 -2.141 0.000
v 12.598 1.575 0.000
v 3.417 7.458 0.000
v -5.296 7.449 0.000
v -6.621 14.630 0.000
v -85.183 1.074 0.000
v -76.393 -58.242 9.900
v -9.684 -46.318 9.900
v -11.552 -35.403 9.900
v -63.743 -44.622 9.900
v -68.422 -15.464 9.900
v -11.644 -7.014 9.900
v -0.633 -14.390 9.900
v 6.419 -14.844 9.900
v 11.725 -11.730 9.900
v 14.796 -7.172 9.900
v 14.712 -2.141 9.900
v 12.598 1.575 9.900
v 3.417 7.458 9.900
v -5.296 7.449 9.900
v -6.621 14.630 9.900
v -85.183 1.074 9.900
usemtl roof
f 34 35 36 37 38 39 40 41 42 43 44 45 46 47 48 49
usemtl teaching_building
f 33 32 31 30 29 28 27 26 25 24 23 22 21 20 19 18
f 18 19 35 34
f 19 20 36 35
f 20 21 37 36
f 21 22 38 37
f 22 23 39 38
f 23 24 40 39
f 24 25 41 40
f 25 26 42 41
f 26 27 43 42
f 27 28 44 43
f 28 29 45 44
f 29 30 46 45
f 30 31 47 46
f 31 32 48 47
f 32 33 49 48
f 33 18 34 49
