# school_id SD0616
# school_name 诸城市府前街小学(兴华校区)
# boundary_source footprint_convex_hull_buffer_20m
# adjacent_block_merge_distance_m 2.0
mtllib ../campus_materials.mtl
o SD0616_campus_boundary
usemtl campus_boundary
v -105.726 -79.059 0.050
v -114.507 5.331 0.050
v -17.042 100.545 0.050
v 81.739 111.377 0.050
v 86.573 67.987 0.050
v 95.523 -20.592 0.050
v 99.469 -61.469 0.050
v 6.368 -70.351 0.050
v -105.726 -79.059 0.050
l 1 2 3 4 5 6 7 8 9 1
o SD0616_T001_1hao
v 64.073 89.320 0.000
v 66.685 65.874 0.000
v 52.157 64.283 0.000
v 51.751 67.964 0.000
v -5.804 61.652 0.000
v -8.002 81.416 0.000
v 64.073 89.320 13.550
v 66.685 65.874 13.550
v 52.157 64.283 13.550
v 51.751 67.964 13.550
v -5.804 61.652 13.550
v -8.002 81.416 13.550
usemtl roof
f 16 17 18 19 20 21
usemtl teaching_building
f 15 14 13 12 11 10
f 10 11 17 16
f 11 12 18 17
f 12 13 19 18
f 13 14 20 19
f 14 15 21 20
f 15 10 16 21
o SD0616_T002_2hao
v -0.445 7.808 0.000
v 9.508 8.427 0.000
v 9.679 5.840 0.000
v 31.143 7.178 0.000
v 30.864 11.599 0.000
v 43.078 12.351 0.000
v 43.384 7.553 0.000
v 61.686 8.692 0.000
v 61.479 11.964 0.000
v 70.216 12.506 0.000
v 71.351 -5.402 0.000
v 0.672 -9.801 0.000
v -0.445 7.808 14.640
v 9.508 8.427 14.640
v 9.679 5.840 14.640
v 31.143 7.178 14.640
v 30.864 11.599 14.640
v 43.078 12.351 14.640
v 43.384 7.553 14.640
v 61.686 8.692 14.640
v 61.479 11.964 14.640
v 70.216 12.506 14.640
v 71.351 -5.402 14.640
v 0.672 -9.801 14.640
usemtl roof
f 34 35 36 37 38 39 40 41 42 43 44 45
usemtl teaching_building
f 33 32 31 30 29 28 27 26 25 24 23 22
f 22 23 35 34
f 23 24 36 35
f 24 25 37 36
f 25 26 38 37
f 26 27 39 38
f 27 28 40 39
f 28 29 41 40
f 29 30 42 41
f 30 31 43 42
f 31 32 44 43
f 32 33 45 44
f 33 22 34 45
o SD0616_T003_3hao
v -20.801 6.205 0.000
v -28.196 5.453 0.000
v -27.808 1.673 0.000
v -82.797 -3.932 0.000
v -83.085 -1.146 0.000
v -93.614 -2.218 0.000
v -87.850 -57.610 0.000
v -12.685 -49.894 0.000
v -14.334 -34.032 0.000
v -27.178 -35.347 0.000
v -27.655 -30.782 0.000
v -40.851 -32.119 0.000
v -40.427 -36.276 0.000
v -74.690 -39.736 0.000
v -77.158 -15.571 0.000
v -28.205 -10.630 0.000
v -27.853 -14.101 0.000
v -18.810 -13.184 0.000
v -20.801 6.205 21.030
v -28.196 5.453 21.030
v -27.808 1.673 21.030
v -82.797 -3.932 21.030
v -83.085 -1.146 21.030
v -93.614 -2.218 21.030
v -87.850 -57.610 21.030
v -12.685 -49.894 21.030
v -14.334 -34.032 21.030
v -27.178 -35.347 21.030
v -27.655 -30.782 21.030
v -40.851 -32.119 21.030
v -40.427 -36.276 21.030
v -74.690 -39.736 21.030
v -77.158 -15.571 21.030
v -28.205 -10.630 21.030
v -27.853 -14.101 21.030
v -18.810 -13.184 21.030
usemtl roof
f 64 65 66 67 68 69 70 71 72 73 74 75 76 77 78 79 80 81
usemtl teaching_building
f 63 62 61 60 59 58 57 56 55 54 53 52 51 50 49 48 47 46
f 46 47 65 64
f 47 48 66 65
f 48 49 67 66
f 49 50 68 67
f 50 51 69 68
f 51 52 70 69
f 52 53 71 70
f 53 54 72 71
f 54 55 73 72
f 55 56 74 73
f 56 57 75 74
f 57 58 76 75
f 58 59 77 76
f 59 60 78 77
f 60 61 79 78
f 61 62 80 79
f 62 63 81 80
f 63 46 64 81
o SD0616_T004_4hao
v 75.620 -22.558 0.000
v 77.638 -43.461 0.000
v 4.644 -50.425 0.000
v 2.618 -29.533 0.000
v 75.620 -22.558 12.010
v 77.638 -43.461 12.010
v 4.644 -50.425 12.010
v 2.618 -29.533 12.010
usemtl roof
f 86 87 88 89
usemtl teaching_building
f 85 84 83 82
f 82 83 87 86
f 83 84 88 87
f 84 85 89 88
f 85 82 86 89
