# school_id SD0606
# school_name 潍坊高新双语学校
# boundary_source footprint_convex_hull_buffer_20m
# adjacent_block_merge_distance_m 2.0
mtllib ../campus_materials.mtl
o SD0606_campus_boundary
usemtl campus_boundary
v 34.641 -28.159 0.050
v -42.467 -26.926 0.050
v -41.102 26.510 0.050
v 34.751 24.641 0.050
v 34.641 -28.159 0.050
l 1 2 3 4 5 1
o SD0606_T001_1hao
v -21.958 -7.251 0.000
v 14.683 -7.837 0.000
v 14.710 5.129 0.000
v -21.619 6.024 0.000
v -21.958 -7.251 12.790
v 14.683 -7.837 12.790
v 14.710 5.129 12.790
v -21.619 6.024 12.790
usemtl roof
f 10 11 12 13
usemtl teaching_building
f 9 8 7 6
f 6 7 11 10
f 7 8 12 11
f 8 9 13 12
f 9 6 10 13
