# school_id SD0675
# school_name 济宁市泗水县泗河小学
# boundary_source footprint_convex_hull_buffer_20m
# adjacent_block_merge_distance_m 2.0
mtllib ../campus_materials.mtl
o SD0675_campus_boundary
usemtl campus_boundary
v -46.823 -50.075 0.050
v -46.823 50.075 0.050
v 43.982 50.075 0.050
v 46.823 8.599 0.050
v 46.823 -11.455 0.050
v 32.710 -50.075 0.050
v -46.823 -50.075 0.050
l 1 2 3 4 5 6 7 1
o SD0675_T001_1hao
v -25.305 7.915 0.000
v -18.725 7.915 0.000
v -9.476 7.915 0.000
v 9.476 7.915 0.000
v 9.476 14.246 0.000
v -26.823 14.246 0.000
v -26.823 30.075 0.000
v 9.476 30.075 0.000
v 18.725 30.075 0.000
v 25.305 30.075 0.000
v 25.305 7.915 0.000
v 26.823 7.915 0.000
v 26.823 -7.915 0.000
v 25.305 -7.915 0.000
v 9.476 -7.915 0.000
v -9.476 -7.915 0.000
v -9.476 -14.246 0.000
v 18.725 -14.246 0.000
v 18.725 -30.075 0.000
v -9.476 -30.075 0.000
v -25.305 -30.075 0.000
v -26.823 -30.075 0.000
v -26.823 -14.246 0.000
v -25.305 -14.246 0.000
v -25.305 7.915 16.600
v -18.725 7.915 16.600
v -9.476 7.915 16.600
v 9.476 7.915 16.600
v 9.476 14.246 16.600
v -26.823 14.246 16.600
v -26.823 30.075 16.600
v 9.476 30.075 16.600
v 18.725 30.075 16.600
v 25.305 30.075 16.600
v 25.305 7.915 16.600
v 26.823 7.915 16.600
v 26.823 -7.915 16.600
v 25.305 -7.915 16.600
v 9.476 -7.915 16.600
v -9.476 -7.915 16.600
v -9.476 -14.246 16.600
v 18.725 -14.246 16.600
v 18.725 -30.075 16.600
v -9.476 -30.075 16.600
v -25.305 -30.075 16.600
v -26.823 -30.075 16.600
v -26.823 -14.246 16.600
v -25.305 -14.246 16.600
usemtl roof
f 32 33 34 35 36 37 38 39 40 41 42 43 44 45 46 47 48 49 50 51 52 53 54 55
usemtl teaching_building
f 31 30 29 28 27 26 25 24 23 22 21 20 19 18 17 16 15 14 13 12 11 10 9 8
f 8 9 33 32
f 9 10 34 33
f 10 11 35 34
f 11 12 36 35
f 12 13 37 36
f 13 14 38 37
f 14 15 39 38
f 15 16 40 39
f 16 17 41 40
f 17 18 42 41
f 18 19 43 42
f 19 20 44 43
f 20 21 45 44
f 21 22 46 45
f 22 23 47 46
f 23 24 48 47
f 24 25 49 48
f 25 26 50 49
f 26 27 51 50
f 27 28 52 51
f 28 29 53 52
f 29 30 54 53
f 30 31 55 54
f 31 8 32 55
