# school_id SD0648
# school_name 兖州区兴隆庄煤矿学校
# boundary_source footprint_convex_hull_buffer_20m
# adjacent_block_merge_distance_m 2.0
mtllib ../campus_materials.mtl
o SD0648_campus_boundary
usemtl campus_boundary
v -103.247 -84.551 0.050
v -107.818 -54.685 0.050
v -108.563 -29.575 0.050
v -87.574 42.935 0.050
v 45.995 77.942 0.050
v 143.444 80.308 0.050
v 144.384 41.000 0.050
v 59.327 -53.781 0.050
v -48.645 -84.133 0.050
v -103.247 -84.551 0.050
l 1 2 3 4 5 6 7 8 9 10 1
o SD0648_T001_1hao
v 123.928 59.828 0.000
v 124.200 48.453 0.000
v 49.092 46.640 0.000
v 48.811 58.004 0.000
v 123.928 59.828 10.140
v 124.200 48.453 10.140
v 49.092 46.640 10.140
v 48.811 58.004 10.140
usemtl roof
f 15 16 17 18
usemtl teaching_building
f 14 13 12 11
f 11 12 16 15
f 12 13 17 16
f 13 14 18 17
f 14 11 15 18
o SD0648_T002_2hao
v 37.607 29.982 0.000
v 37.589 26.599 0.000
v 70.611 26.467 0.000
v 70.620 28.810 0.000
v 90.100 28.733 0.000
v 90.054 16.219 0.000
v 71.653 16.297 0.000
v 71.663 18.397 0.000
v 24.029 18.596 0.000
v 24.074 30.037 0.000
v 37.607 29.982 8.760
v 37.589 26.599 8.760
v 70.611 26.467 8.760
v 70.620 28.810 8.760
v 90.100 28.733 8.760
v 90.054 16.219 8.760
v 71.653 16.297 8.760
v 71.663 18.397 8.760
v 24.029 18.596 8.760
v 24.074 30.037 8.760
usemtl roof
f 29 30 31 32 33 34 35 36 37 38
usemtl teaching_building
f 28 27 26 25 24 23 22 21 20 19
f 19 20 30 29
f 20 21 31 30
f 21 22 32 31
f 22 23 33 32
f 23 24 34 33
f 24 25 35 34
f 25 26 36 35
f 26 27 37 36
f 27 28 38 37
f 28 19 29 38
o SD0648_T003_3hao
v -22.871 25.284 0.000
v -23.079 16.949 0.000
v -40.012 17.369 0.000
v -40.438 0.291 0.000
v -49.493 0.512 0.000
v -49.085 16.684 0.000
v -71.746 17.236 0.000
v -71.520 26.467 0.000
v -22.871 25.284 12.620
v -23.079 16.949 12.620
v -40.012 17.369 12.620
v -40.438 0.291 12.620
v -49.493 0.512 12.620
v -49.085 16.684 12.620
v -71.746 17.236 12.620
v -71.520 26.467 12.620
usemtl roof
f 47 48 49 50 51 52 53 54
usemtl teaching_building
f 46 45 44 43 42 41 40 39
f 39 40 48 47
f 40 41 49 48
f 41 42 50 49
f 42 43 51 50
f 43 44 52 51
f 44 45 53 52
f 45 46 54 53
f 46 39 47 54
o SD0648_T004_4hao
v 52.111 7.188 0.000
v 52.337 -1.611 0.000
v 47.397 -1.743 0.000
v 48.322 -36.099 0.000
v 37.199 -36.398 0.000
v 36.438 -7.967 0.000
v 28.824 -8.166 0.000
v 28.434 6.569 0.000
v 52.111 7.188 11.390
v 52.337 -1.611 11.390
v 47.397 -1.743 11.390
v 48.322 -36.099 11.390
v 37.199 -36.398 11.390
v 36.438 -7.967 11.390
v 28.824 -8.166 11.390
v 28.434 6.569 11.390
usemtl roof
f 63 64 65 66 67 68 69 70
usemtl teaching_building
f 62 61 60 59 58 57 56 55
f 55 56 64 63
f 56 57 65 64
f 57 58 66 65
f 58 59 67 66
f 59 60 68 67
f 60 61 69 68
f 61 62 70 69
f 62 55 63 70
o SD0648_T005_5hao
v -45.350 -26.239 0.000
v -36.159 -30.351 0.000
v -51.478 -64.154 0.000
v -86.095 -64.419 0.000
v -86.186 -53.564 0.000
v -57.624 -53.332 0.000
v -45.350 -26.239 12.390
v -36.159 -30.351 12.390
v -51.478 -64.154 12.390
v -86.095 -64.419 12.390
v -86.186 -53.564 12.390
v -57.624 -53.332 12.390
usemtl roof
f 77 78 79 80 81 82
usemtl teaching_building
f 76 75 74 73 72 71
f 71 72 78 77
f 72 73 79 78
f 73 74 80 79
f 74 75 81 80
f 75 76 82 81
f 76 71 77 82
o SD0648_T005_5hao_seg02
v -72.562 -52.426 0.000
v -87.863 -52.868 0.000
v -88.479 -32.120 0.000
v -73.160 -31.677 0.000
v -72.562 -52.426 12.390
v -87.863 -52.868 12.390
v -88.479 -32.120 12.390
v -73.160 -31.677 12.390
usemtl roof
f 87 88 89 90
usemtl teaching_building
f 86 85 84 83
f 83 84 88 87
f 84 85 89 88
f 85 86 90 89
f 86 83 87 90
