# school_id SD0677
# school_name 济宁市第一中学
# boundary_source footprint_convex_hull_buffer_20m
# adjacent_block_merge_distance_m 2.0
mtllib ../campus_materials.mtl
o SD0677_campus_boundary
usemtl campus_boundary
v -153.140 -214.453 0.050
v -161.218 -187.213 0.050
v -163.757 -158.422 0.050
v -142.851 103.008 0.050
v -130.874 221.895 0.050
v -19.333 234.040 0.050
v 74.853 243.391 0.050
v 108.808 127.916 0.050
v 144.950 -104.188 0.050
v 145.285 -123.159 0.050
v 111.337 -173.735 0.050
v 99.972 -187.391 0.050
v -153.140 -214.453 0.050
l 1 2 3 4 5 6 7 8 9 10 11 12 13 1
o SD0677_T001_1hao
v -112.599 203.767 0.000
v -111.237 190.458 0.000
v -94.975 192.105 0.000
v -92.097 164.128 0.000
v -105.344 162.790 0.000
v -104.000 149.669 0.000
v -46.826 155.472 0.000
v -48.170 168.538 0.000
v -78.705 165.443 0.000
v -81.601 193.664 0.000
v -43.703 197.489 0.000
v -43.358 194.139 0.000
v -2.500 198.207 0.000
v -2.972 202.883 0.000
v 38.540 206.984 0.000
v 41.600 176.497 0.000
v 6.253 173.015 0.000
v 7.379 161.817 0.000
v 59.359 166.946 0.000
v 58.052 179.968 0.000
v 52.650 179.437 0.000
v 49.826 207.548 0.000
v 61.666 208.719 0.000
v 60.340 221.852 0.000
v -17.263 214.147 0.000
v -16.818 209.747 0.000
v -33.043 208.122 0.000
v -33.416 211.792 0.000
v -112.599 203.767 20.010
v -111.237 190.458 20.010
v -94.975 192.105 20.010
v -92.097 164.128 20.010
v -105.344 162.790 20.010
v -104.000 149.669 20.010
v -46.826 155.472 20.010
v -48.170 168.538 20.010
v -78.705 165.443 20.010
v -81.601 193.664 20.010
v -43.703 197.489 20.010
v -43.358 194.139 20.010
v -2.500 198.207 20.010
v -2.972 202.883 20.010
v 38.540 206.984 20.010
v 41.600 176.497 20.010
v 6.253 173.015 20.010
v 7.379 161.817 20.010
v 59.359 166.946 20.010
v 58.052 179.968 20.010
v 52.650 179.437 20.010
v 49.826 207.548 20.010
v 61.666 208.719 20.010
v 60.340 221.852 20.010
v -17.263 214.147 20.010
v -16.818 209.747 20.010
v -33.043 208.122 20.010
v -33.416 211.792 20.010
usemtl roof
f 42 43 44 45 46 47 48 49 50 51 52 53 54 55 56 57 58 59 60 61 62 63 64 65 66 67 68 69
usemtl teaching_building
f 41 40 39 38 37 36 35 34 33 32 31 30 29 28 27 26 25 24 23 22 21 20 19 18 17 16 15 14
f 14 15 43 42
f 15 16 44 43
f 16 17 45 44
f 17 18 46 45
f 18 19 47 46
f 19 20 48 47
f 20 21 49 48
f 21 22 50 49
f 22 23 51 50
f 23 24 52 51
f 24 25 53 52
f 25 26 54 53
f 26 27 55 54
f 27 28 56 55
f 28 29 57 56
f 29 30 58 57
f 30 31 59 58
f 31 32 60 59
f 32 33 61 60
f 33 34 62 61
f 34 35 63 62
f 35 36 64 63
f 36 37 65 64
f 37 38 66 65
f 38 39 67 66
f 39 40 68 67
f 40 41 69 68
f 41 14 42 69
o SD0677_T002_2hao
v 84.201 140.417 0.000
v 5.027 132.756 0.000
v 6.280 120.000 0.000
v 85.445 127.638 0.000
v 84.201 140.417 6.830
v 5.027 132.756 6.830
v 6.280 120.000 6.830
v 85.445 127.638 6.830
usemtl roof
f 74 75 76 77
usemtl teaching_building
f 73 72 71 70
f 70 71 75 74
f 71 72 76 75
f 72 73 77 76
f 73 70 74 77
o SD0677_T003_3hao
v -120.262 120.365 0.000
v -37.084 127.683 0.000
v -35.858 113.965 0.000
v -119.036 106.636 0.000
v -120.262 120.365 9.090
v -37.084 127.683 9.090
v -35.858 113.965 9.090
v -119.036 106.636 9.090
usemtl roof
f 82 83 84 85
usemtl teaching_building
f 81 80 79 78
f 78 79 83 82
f 79 80 84 83
f 80 81 85 84
f 81 78 82 85
o SD0677_T004_4hao
v -121.869 83.334 0.000
v -109.348 84.063 0.000
v -110.410 101.949 0.000
v -122.931 101.208 0.000
v -121.869 83.334 12.350
v -109.348 84.063 12.350
v -110.410 101.949 12.350
v -122.931 101.208 12.350
usemtl roof
f 90 91 92 93
usemtl teaching_building
f 89 88 87 86
f 86 87 91 90
f 87 88 92 91
f 88 89 93 92
f 89 86 90 93
o SD0677_T005_5hao
v 89.549 101.838 0.000
v 8.804 93.669 0.000
v 10.266 79.354 0.000
v 91.020 87.512 0.000
v 89.549 101.838 8.890
v 8.804 93.669 8.890
v 10.266 79.354 8.890
v 91.020 87.512 8.890
usemtl roof
f 98 99 100 101
usemtl teaching_building
f 97 96 95 94
f 94 95 99 98
f 95 96 100 99
f 96 97 101 100
f 97 94 98 101
o SD0677_T006_6hao
v -116.775 78.923 0.000
v -33.933 87.711 0.000
v -32.426 73.750 0.000
v -115.277 64.962 0.000
v -116.775 78.923 13.400
v -33.933 87.711 13.400
v -32.426 73.750 13.400
v -115.277 64.962 13.400
usemtl roof
f 106 107 108 109
usemtl teaching_building
f 105 104 103 102
f 102 103 107 106
f 103 104 108 107
f 104 105 109 108
f 105 102 106 109
o SD0677_T007_7hao
v 81.931 64.177 0.000
v 94.452 64.918 0.000
v 93.390 82.792 0.000
v 80.860 82.063 0.000
v 81.931 64.177 8.910
v 94.452 64.918 8.910
v 93.390 82.792 8.910
v 80.860 82.063 8.910
usemtl roof
f 114 115 116 117
usemtl teaching_building
f 113 112 111 110
f 110 111 115 114
f 111 112 116 115
f 112 113 117 116
f 113 110 114 117
o SD0677_T008_8hao
v -117.674 42.710 0.000
v -105.153 43.440 0.000
v -106.216 61.325 0.000
v -118.745 60.585 0.000
v -117.674 42.710 30.260
v -105.153 43.440 30.260
v -106.216 61.325 30.260
v -118.745 60.585 30.260
usemtl roof
f 122 123 124 125
usemtl teaching_building
f 121 120 119 118
f 118 119 123 122
f 119 120 124 123
f 120 121 125 124
f 121 118 122 125
o SD0677_T009_9hao
v 95.224 60.198 0.000
v 13.471 52.250 0.000
v 14.869 38.090 0.000
v 96.613 46.060 0.000
v 95.224 60.198 9.840
v 13.471 52.250 9.840
v 14.869 38.090 9.840
v 96.613 46.060 9.840
usemtl roof
f 130 131 132 133
usemtl teaching_building
f 129 128 127 126
f 126 127 131 130
f 127 128 132 131
f 128 129 133 132
f 129 126 130 133
o SD0677_T010_10hao
v -112.526 38.654 0.000
v -28.994 48.260 0.000
v -27.196 32.828 0.000
v -110.728 23.233 0.000
v -112.526 38.654 9.900
v -28.994 48.260 9.900
v -27.196 32.828 9.900
v -110.728 23.233 9.900
usemtl roof
f 138 139 140 141
usemtl teaching_building
f 137 136 135 134
f 134 135 139 138
f 135 136 140 139
f 136 137 141 140
f 137 134 138 141
o SD0677_T011_11hao
v -47.198 -16.992 0.000
v -39.181 -16.506 0.000
v -38.655 -25.670 0.000
v -48.615 -30.091 0.000
v -43.367 -41.223 0.000
v -39.381 -39.797 0.000
v -38.609 -42.836 0.000
v -24.127 -36.934 0.000
v -4.733 -32.822 0.000
v -4.733 -31.241 0.000
v 12.354 -29.649 0.000
v 12.500 -30.964 0.000
v 33.428 -31.031 0.000
v 49.272 -33.772 0.000
v 49.435 -30.102 0.000
v 54.574 -31.020 0.000
v 56.681 -18.617 0.000
v 43.806 -16.384 0.000
v 43.325 -7.607 0.000
v 51.224 -6.955 0.000
v 50.952 5.790 0.000
v 32.457 3.811 0.000
v 29.669 3.900 0.000
v 29.560 6.995 0.000
v 15.396 5.613 0.000
v 15.469 1.800 0.000
v -12.814 -0.632 0.000
v -12.905 2.286 0.000
v -26.978 1.435 0.000
v -26.951 -2.920 0.000
v -48.097 -4.125 0.000
v -47.198 -16.992 8.670
v -39.181 -16.506 8.670
v -38.655 -25.670 8.670
v -48.615 -30.091 8.670
v -43.367 -41.223 8.670
v -39.381 -39.797 8.670
v -38.609 -42.836 8.670
v -24.127 -36.934 8.670
v -4.733 -32.822 8.670
v -4.733 -31.241 8.670
v 12.354 -29.649 8.670
v 12.500 -30.964 8.670
v 33.428 -31.031 8.670
v 49.272 -33.772 8.670
v 49.435 -30.102 8.670
v 54.574 -31.020 8.670
v 56.681 -18.617 8.670
v 43.806 -16.384 8.670
v 43.325 -7.607 8.670
v 51.224 -6.955 8.670
v 50.952 5.790 8.670
v 32.457 3.811 8.670
v 29.669 3.900 8.670
v 29.560 6.995 8.670
v 15.396 5.613 8.670
v 15.469 1.800 8.670
v -12.814 -0.632 8.670
v -12.905 2.286 8.670
v -26.978 1.435 8.670
v -26.951 -2.920 8.670
v -48.097 -4.125 8.670
usemtl roof
f 173 174 175 176 177 178 179 180 181 182 183 184 185 186 187 188 189 190 191 192 193 194 195 196 197 198 199 200 201 202 203
usemtl teaching_building
f 172 171 170 169 168 167 166 165 164 163 162 161 160 159 158 157 156 155 154 153 152 151 150 149 148 147 146 145 144 143 142
f 142 143 174 173
f 143 144 175 174
f 144 145 176 175
f 145 146 177 176
f 146 147 178 177
f 147 148 179 178
f 148 149 180 179
f 149 150 181 180
f 150 151 182 181
f 151 152 183 182
f 152 153 184 183
f 153 154 185 184
f 154 155 186 185
f 155 156 187 186
f 156 157 188 187
f 157 158 189 188
f 158 159 190 189
f 159 160 191 190
f 160 161 192 191
f 161 162 193 192
f 162 163 194 193
f 163 164 195 194
f 164 165 196 195
f 165 166 197 196
f 166 167 198 197
f 167 168 199 198
f 168 169 200 199
f 169 170 201 200
f 170 171 202 201
f 171 172 203 202
f 172 142 173 203
o SD0677_T012_12hao
v 78.899 -117.495 0.000
v 92.799 -116.069 0.000
v 105.474 -111.349 0.000
v 116.624 -104.927 0.000
v 117.087 -105.524 0.000
v 122.027 -101.810 0.000
v 124.977 -105.911 0.000
v 119.884 -109.547 0.000
v 125.177 -117.230 0.000
v 117.087 -123.155 0.000
v 106.319 -127.742 0.000
v 93.617 -131.379 0.000
v 67.295 -133.015 0.000
v 67.713 -123.851 0.000
v 61.720 -123.995 0.000
v 61.847 -116.732 0.000
v 78.899 -117.495 8.810
v 92.799 -116.069 8.810
v 105.474 -111.349 8.810
v 116.624 -104.927 8.810
v 117.087 -105.524 8.810
v 122.027 -101.810 8.810
v 124.977 -105.911 8.810
v 119.884 -109.547 8.810
v 125.177 -117.230 8.810
v 117.087 -123.155 8.810
v 106.319 -127.742 8.810
v 93.617 -131.379 8.810
v 67.295 -133.015 8.810
v 67.713 -123.851 8.810
v 61.720 -123.995 8.810
v 61.847 -116.732 8.810
usemtl roof
f 220 221 222 223 224 225 226 227 228 229 230 231 232 233 234 235
usemtl teaching_building
f 219 218 217 216 215 214 213 212 211 210 209 208 207 206 205 204
f 204 205 221 220
f 205 206 222 221
f 206 207 223 222
f 207 208 224 223
f 208 209 225 224
f 209 210 226 225
f 210 211 227 226
f 211 212 228 227
f 212 213 229 228
f 213 214 230 229
f 214 215 231 230
f 215 216 232 231
f 216 217 233 232
f 217 218 234 233
f 218 219 235 234
f 219 204 220 235
o SD0677_T013_13hao
v 87.034 -141.206 0.000
v 94.025 -146.357 0.000
v 95.305 -161.733 0.000
v 89.785 -168.366 0.000
v 70.818 -169.935 0.000
v 63.817 -164.994 0.000
v 62.864 -149.729 0.000
v 68.584 -143.096 0.000
v 87.034 -141.206 10.920
v 94.025 -146.357 10.920
v 95.305 -161.733 10.920
v 89.785 -168.366 10.920
v 70.818 -169.935 10.920
v 63.817 -164.994 10.920
v 62.864 -149.729 10.920
v 68.584 -143.096 10.920
usemtl roof
f 244 245 246 247 248 249 250 251
usemtl teaching_building
f 243 242 241 240 239 238 237 236
f 236 237 245 244
f 237 238 246 245
f 238 239 247 246
f 239 240 248 247
f 240 241 249 248
f 241 242 250 249
f 242 243 251 250
f 243 236 244 251
o SD0677_T014_14hao
v -73.547 -184.549 0.000
v -138.702 -192.795 0.000
v -139.438 -183.631 0.000
v -141.472 -183.454 0.000
v -143.687 -158.340 0.000
v -132.610 -146.424 0.000
v -122.459 -154.681 0.000
v -116.185 -148.082 0.000
v -107.877 -155.963 0.000
v -100.495 -148.999 0.000
v -79.086 -168.233 0.000
v -81.855 -173.008 0.000
v -73.723 -172.257 0.000
v -74.119 -167.901 0.000
v -97.290 -145.793 0.000
v -88.175 -136.398 0.000
v -88.238 -129.124 0.000
v -65.003 -128.173 0.000
v -47.326 -123.641 0.000
v -47.017 -134.154 0.000
v -38.337 -134.308 0.000
v -34.805 -166.376 0.000
v -35.123 -170.687 0.000
v -36.566 -174.202 0.000
v -38.818 -176.910 0.000
v -41.869 -178.668 0.000
v -59.547 -181.222 0.000
v -60.509 -182.813 0.000
v -72.721 -183.289 0.000
v -73.547 -184.549 11.450
v -138.702 -192.795 11.450
v -139.438 -183.631 11.450
v -141.472 -183.454 11.450
v -143.687 -158.340 11.450
v -132.610 -146.424 11.450
v -122.459 -154.681 11.450
v -116.185 -148.082 11.450
v -107.877 -155.963 11.450
v -100.495 -148.999 11.450
v -79.086 -168.233 11.450
v -81.855 -173.008 11.450
v -73.723 -172.257 11.450
v -74.119 -167.901 11.450
v -97.290 -145.793 11.450
v -88.175 -136.398 11.450
v -88.238 -129.124 11.450
v -65.003 -128.173 11.450
v -47.326 -123.641 11.450
v -47.017 -134.154 11.450
v -38.337 -134.308 11.450
v -34.805 -166.376 11.450
v -35.123 -170.687 11.450
v -36.566 -174.202 11.450
v -38.818 -176.910 11.450
v -41.869 -178.668 11.450
v -59.547 -181.222 11.450
v -60.509 -182.813 11.450
v -72.721 -183.289 11.450
usemtl roof
f 281 282 283 284 285 286 287 288 289 290 291 292 293 294 295 296 297 298 299 300 301 302 303 304 305 306 307 308 309
usemtl teaching_building
f 280 279 278 277 276 275 274 273 272 271 270 269 268 267 266 265 264 263 262 261 260 259 258 257 256 255 254 253 252
f 252 253 282 281
f 253 254 283 282
f 254 255 284 283
f 255 256 285 284
f 256 257 286 285
f 257 258 287 286
f 258 259 288 287
f 259 260 289 288
f 260 261 290 289
f 261 262 291 290
f 262 263 292 291
f 263 264 293 292
f 264 265 294 293
f 265 266 295 294
f 266 267 296 295
f 267 268 297 296
f 268 269 298 297
f 269 270 299 298
f 270 271 300 299
f 271 272 301 300
f 272 273 302 301
f 273 274 303 302
f 274 275 304 303
f 275 276 305 304
f 276 277 306 305
f 277 278 307 306
f 278 279 308 307
f 279 280 309 308
f 280 252 281 309
