# school_id SD0643
# school_name 傅村街道第一中学
# boundary_source footprint_convex_hull_buffer_20m
# adjacent_block_merge_distance_m 2.0
mtllib ../campus_materials.mtl
o SD0643_campus_boundary
usemtl campus_boundary
v -90.069 -38.456 0.050
v -90.380 11.089 0.050
v -10.190 28.579 0.050
v -4.757 28.658 0.050
v 13.467 28.325 0.050
v 87.652 11.004 0.050
v 87.652 -36.246 0.050
v -90.069 -38.456 0.050
l 1 2 3 4 5 6 7 8 1
o SD0643_T001_1hao
v -23.084 -4.765 0.000
v -23.056 1.326 0.000
v -8.046 1.801 0.000
v -7.891 8.610 0.000
v -4.794 8.655 0.000
v -4.849 5.173 0.000
v 7.676 5.128 0.000
v 7.630 8.411 0.000
v 10.983 8.367 0.000
v 11.084 0.873 0.000
v 23.728 0.574 0.000
v 23.728 -4.765 0.000
v 67.652 -4.864 0.000
v 67.652 -16.493 0.000
v -70.196 -18.207 0.000
v -70.279 -4.997 0.000
v -23.084 -4.765 14.040
v -23.056 1.326 14.040
v -8.046 1.801 14.040
v -7.891 8.610 14.040
v -4.794 8.655 14.040
v -4.849 5.173 14.040
v 7.676 5.128 14.040
v 7.630 8.411 14.040
v 10.983 8.367 14.040
v 11.084 0.873 14.040
v 23.728 0.574 14.040
v 23.728 -4.765 14.040
v 67.652 -4.864 14.040
v 67.652 -16.493 14.040
v -70.196 -18.207 14.040
v -70.279 -4.997 14.040
usemtl roof
f 25 26 27 28 29 30 31 32 33 34 35 36 37 38 39 40
usemtl teaching_building
f 24 23 22 21 20 19 18 17 16 15 14 13 12 11 10 9
f 9 10 26 25
f 10 11 27 26
f 11 12 28 27
f 12 13 29 28
f 13 14 30 29
f 14 15 31 30
f 15 16 32 31
f 16 17 33 32
f 17 18 34 33
f 18 19 35 34
f 19 20 36 35
f 20 21 37 36
f 21 22 38 37
f 22 23 39 38
f 23 24 40 39
f 24 9 25 40
