# school_id SD0600
# school_name 潍坊日向友好学校
# boundary_source footprint_convex_hull_buffer_20m
# adjacent_block_merge_distance_m 2.0
mtllib ../campus_materials.mtl
o SD0600_campus_boundary
usemtl campus_boundary
v -47.035 -114.069 0.050
v -57.751 -2.730 0.050
v -57.905 14.745 0.050
v -56.602 25.160 0.050
v -55.422 33.038 0.050
v -46.685 45.946 0.050
v -32.495 50.237 0.050
v 29.760 50.228 0.050
v 39.349 49.825 0.050
v 54.999 37.880 0.050
v 57.172 25.290 0.050
v 58.740 14.510 0.050
v 59.086 -0.703 0.050
v 59.484 -84.847 0.050
v 58.892 -113.782 0.050
v -47.035 -114.069 0.050
l 1 2 3 4 5 6 7 8 9 10 11 12 13 14 15 16 1
o SD0600_T001_1hao
v -37.759 -1.682 0.000
v -28.707 -1.700 0.000
v -28.707 -0.505 0.000
v 39.087 -0.978 0.000
v 38.773 12.837 0.000
v 31.291 13.050 0.000
v 31.269 16.228 0.000
v 37.418 22.149 0.000
v 36.625 26.744 0.000
v 32.219 30.107 0.000
v 29.339 30.228 0.000
v 14.511 15.542 0.000
v 11.556 19.230 0.000
v 7.838 18.591 0.000
v 7.861 21.898 0.000
v -6.922 21.778 0.000
v -6.960 18.618 0.000
v -10.618 19.063 0.000
v -13.446 15.422 0.000
v -29.538 30.237 0.000
v -34.101 28.857 0.000
v -36.315 25.586 0.000
v -36.787 22.436 0.000
v -31.191 15.867 0.000
v -30.839 12.540 0.000
v -36.787 12.633 0.000
v -36.847 13.643 0.000
v -37.894 13.587 0.000
v -37.759 -1.682 16.500
v -28.707 -1.700 16.500
v -28.707 -0.505 16.500
v 39.087 -0.978 16.500
v 38.773 12.837 16.500
v 31.291 13.050 16.500
v 31.269 16.228 16.500
v 37.418 22.149 16.500
v 36.625 26.744 16.500
v 32.219 30.107 16.500
v 29.339 30.228 16.500
v 14.511 15.542 16.500
v 11.556 19.230 16.500
v 7.838 18.591 16.500
v 7.861 21.898 16.500
v -6.922 21.778 16.500
v -6.960 18.618 16.500
v -10.618 19.063 16.500
v -13.446 15.422 16.500
v -29.538 30.237 16.500
v -34.101 28.857 16.500
v -36.315 25.586 16.500
v -36.787 22.436 16.500
v -31.191 15.867 16.500
v -30.839 12.540 16.500
v -36.787 12.633 16.500
v -36.847 13.643 16.500
v -37.894 13.587 16.500
usemtl roof
f 45 46 47 48 49 50 51 52 53 54 55 56 57 58 59 60 61 62 63 64 65 66 67 68 69 70 71 72
usemtl teaching_building
f 44 43 42 41 40 39 38 37 36 35 34 33 32 31 30 29 28 27 26 25 24 23 22 21 20 19 18 17
f 17 18 46 45
f 18 19 47 46
f 19 20 48 47
f 20 21 49 48
f 21 22 50 49
f 22 23 51 50
f 23 24 52 51
f 24 25 53 52
f 25 26 54 53
f 26 27 55 54
f 27 28 56 55
f 28 29 57 56
f 29 30 58 57
f 30 31 59 58
f 31 32 60 59
f 32 33 61 60
f 33 34 62 61
f 34 35 63 62
f 35 36 64 63
f 36 37 65 64
f 37 38 66 65
f 38 39 67 66
f 39 40 68 67
f 40 41 69 68
f 41 42 70 69
f 42 43 71 70
f 43 44 72 71
f 44 17 45 72
o SD0600_T002_2hao
v 39.296 -93.835 0.000
v 39.483 -84.690 0.000
v 19.015 -83.578 0.000
v 19.015 -80.039 0.000
v -5.957 -80.039 0.000
v -6.144 -84.329 0.000
v -28.483 -84.329 0.000
v -28.872 -94.020 0.000
v 39.296 -93.835 13.200
v 39.483 -84.690 13.200
v 19.015 -83.578 13.200
v 19.015 -80.039 13.200
v -5.957 -80.039 13.200
v -6.144 -84.329 13.200
v -28.483 -84.329 13.200
v -28.872 -94.020 13.200
usemtl roof
f 81 82 83 84 85 86 87 88
usemtl teaching_building
f 80 79 78 77 76 75 74 73
f 73 74 82 81
f 74 75 83 82
f 75 76 84 83
f 76 77 85 84
f 77 78 86 85
f 78 79 87 86
f 79 80 88 87
f 80 73 81 88
