# school_id SD0665
# school_name 水上运动学校
# boundary_source footprint_convex_hull_buffer_20m
# adjacent_block_merge_distance_m 2.0
mtllib ../campus_materials.mtl
o SD0665_campus_boundary
usemtl campus_boundary
v -32.532 -35.161 0.050
v -42.237 22.770 0.050
v 32.531 35.150 0.050
v 42.238 -22.759 0.050
v -32.532 -35.161 0.050
l 1 2 3 4 5 1
o SD0665_T001_1hao
v -16.106 -12.163 0.000
v 19.201 -6.307 0.000
v 16.106 12.158 0.000
v -19.201 6.312 0.000
v -16.106 -12.163 4.950
v 19.201 -6.307 4.950
v 16.106 12.158 4.950
v -19.201 6.312 4.950
usemtl roof
f 10 11 12 13
usemtl teaching_building
f 9 8 7 6
f 6 7 11 10
f 7 8 12 11
f 8 9 13 12
f 9 6 10 13
