# school_id SD0653
# school_name 嘉祥县实验小学(嘉北校区)
# boundary_source footprint_convex_hull_buffer_20m
# adjacent_block_merge_distance_m 2.0
mtllib ../campus_materials.mtl
o SD0653_campus_boundary
usemtl campus_boundary
v -67.768 -34.798 0.050
v -70.145 27.546 0.050
v 1.490 32.209 0.050
v 82.088 34.317 0.050
v 83.699 -27.047 0.050
v -15.238 -32.843 0.050
v -67.768 -34.798 0.050
l 1 2 3 4 5 6 7 1
o SD0653_T001_1hao
v 2.994 -9.789 0.000
v 63.198 -8.214 0.000
v 62.620 13.801 0.000
v 2.401 12.226 0.000
v 2.994 -9.789 6.600
v 63.198 -8.214 6.600
v 62.620 13.801 6.600
v 2.401 12.226 6.600
usemtl roof
f 12 13 14 15
usemtl teaching_building
f 11 10 9 8
f 8 9 13 12
f 9 10 14 13
f 10 11 15 14
f 11 8 12 15
o SD0653_T002_2hao
v -48.544 -14.069 0.000
v -16.195 -12.865 0.000
v -17.054 10.058 0.000
v -49.418 8.853 0.000
v -48.544 -14.069 6.600
v -16.195 -12.865 6.600
v -17.054 10.058 6.600
v -49.418 8.853 6.600
usemtl roof
f 20 21 22 23
usemtl teaching_building
f 19 18 17 16
f 16 17 21 20
f 17 18 22 21
f 18 19 23 22
f 19 16 20 23
