# school_id SD0627
# school_name 青州市东关回民初级中学
# boundary_source footprint_convex_hull_buffer_20m
# adjacent_block_merge_distance_m 2.0
mtllib ../campus_materials.mtl
o SD0627_campus_boundary
usemtl campus_boundary
v -168.853 -314.017 0.050
v -240.840 -291.810 0.050
v -229.272 -254.853 0.050
v 21.009 123.258 0.050
v 47.956 123.160 0.050
v 85.679 119.327 0.050
v 131.336 111.196 0.050
v 131.213 77.939 0.050
v -168.853 -314.017 0.050
l 1 2 3 4 5 6 7 8 9 1
o SD0627_T001_1hao
v 31.613 77.574 0.000
v 39.264 77.541 0.000
v 39.290 85.036 0.000
v 111.238 84.748 0.000
v 111.274 94.454 0.000
v 82.911 94.575 0.000
v 82.911 99.505 0.000
v 75.260 99.516 0.000
v 75.331 94.608 0.000
v 46.870 94.730 0.000
v 46.906 103.164 0.000
v 31.729 103.219 0.000
v 31.613 77.574 11.050
v 39.264 77.541 11.050
v 39.290 85.036 11.050
v 111.238 84.748 11.050
v 111.274 94.454 11.050
v 82.911 94.575 11.050
v 82.911 99.505 11.050
v 75.260 99.516 11.050
v 75.331 94.608 11.050
v 46.870 94.730 11.050
v 46.906 103.164 11.050
v 31.729 103.219 11.050
usemtl roof
f 22 23 24 25 26 27 28 29 30 31 32 33
usemtl teaching_building
f 21 20 19 18 17 16 15 14 13 12 11 10
f 10 11 23 22
f 11 12 24 23
f 12 13 25 24
f 13 14 26 25
f 14 15 27 26
f 15 16 28 27
f 16 17 29 28
f 17 18 30 29
f 18 19 31 30
f 19 20 32 31
f 20 21 33 32
f 21 10 22 33
o SD0627_T002_2hao
v -176.267 -290.800 0.000
v -215.754 -278.619 0.000
v -211.031 -263.530 0.000
v -171.544 -275.723 0.000
v -176.267 -290.800 15.060
v -215.754 -278.619 15.060
v -211.031 -263.530 15.060
v -171.544 -275.723 15.060
usemtl roof
f 38 39 40 41
usemtl teaching_building
f 37 36 35 34
f 34 35 39 38
f 35 36 40 39
f 36 37 41 40
f 37 34 38 41
