# school_id SD0618
# school_name 诸城市技工学校;诸城市福田汽车职业中等专科学校
# boundary_source footprint_convex_hull_buffer_20m
# adjacent_block_merge_distance_m 2.0
mtllib ../campus_materials.mtl
o SD0618_campus_boundary
usemtl campus_boundary
v -217.346 -160.298 0.050
v -234.535 -30.080 0.050
v -244.395 53.482 0.050
v -127.254 118.977 0.050
v -23.066 134.704 0.050
v 173.202 122.947 0.050
v 180.307 65.587 0.050
v 149.087 -126.354 0.050
v 122.337 -130.309 0.050
v 40.532 -142.384 0.050
v -217.346 -160.298 0.050
l 1 2 3 4 5 6 7 8 9 10 11 1
o SD0618_T001_1hao
v 113.519 59.921 0.000
v 113.519 62.395 0.000
v 74.416 57.438 0.000
v 74.695 54.964 0.000
v 69.701 54.140 0.000
v 65.544 91.590 0.000
v 69.701 92.415 0.000
v 70.071 90.228 0.000
v 109.642 95.167 0.000
v 109.083 97.372 0.000
v 120.181 99.012 0.000
v 138.477 101.782 0.000
v 155.399 103.978 0.000
v 160.107 65.971 0.000
v 144.301 63.775 0.000
v 124.889 61.561 0.000
v 113.519 59.921 9.900
v 113.519 62.395 9.900
v 74.416 57.438 9.900
v 74.695 54.964 9.900
v 69.701 54.140 9.900
v 65.544 91.590 9.900
v 69.701 92.415 9.900
v 70.071 90.228 9.900
v 109.642 95.167 9.900
v 109.083 97.372 9.900
v 120.181 99.012 9.900
v 138.477 101.782 9.900
v 155.399 103.978 9.900
v 160.107 65.971 9.900
v 144.301 63.775 9.900
v 124.889 61.561 9.900
usemtl roof
f 28 29 30 31 32 33 34 35 36 37 38 39 40 41 42 43
usemtl teaching_building
f 27 26 25 24 23 22 21 20 19 18 17 16 15 14 13 12
f 12 13 29 28
f 13 14 30 29
f 14 15 31 30
f 15 16 32 31
f 16 17 33 32
f 17 18 34 33
f 18 19 35 34
f 19 20 36 35
f 20 21 37 36
f 21 22 38 37
f 22 23 39 38
f 23 24 40 39
f 24 25 41 40
f 25 26 42 41
f 26 27 43 42
f 27 12 28 43
o SD0618_T002_2hao
v -124.532 51.805 0.000
v -14.556 66.972 0.000
v -2.583 68.527 0.000
v -6.989 105.581 0.000
v 12.144 108.712 0.000
v 12.449 105.822 0.000
v 49.753 109.129 0.000
v 53.329 84.715 0.000
v 15.159 80.132 0.000
v 16.127 70.958 0.000
v 52.914 75.737 0.000
v 54.386 60.505 0.000
v -12.451 51.527 0.000
v -122.118 35.989 0.000
v -124.532 51.805 9.900
v -14.556 66.972 9.900
v -2.583 68.527 9.900
v -6.989 105.581 9.900
v 12.144 108.712 9.900
v 12.449 105.822 9.900
v 49.753 109.129 9.900
v 53.329 84.715 9.900
v 15.159 80.132 9.900
v 16.127 70.958 9.900
v 52.914 75.737 9.900
v 54.386 60.505 9.900
v -12.451 51.527 9.900
v -122.118 35.989 9.900
usemtl roof
f 58 59 60 61 62 63 64 65 66 67 68 69 70 71
usemtl teaching_building
f 57 56 55 54 53 52 51 50 49 48 47 46 45 44
f 44 45 59 58
f 45 46 60 59
f 46 47 61 60
f 47 48 62 61
f 48 49 63 62
f 49 50 64 63
f 50 51 65 64
f 51 52 66 65
f 52 53 67 66
f 53 54 68 67
f 54 55 69 68
f 55 56 70 69
f 56 57 71 70
f 57 44 58 71
o SD0618_T002_2hao_seg02
v -113.419 53.713 0.000
v -124.532 51.805 0.000
v -129.361 86.800 0.000
v -118.935 88.551 0.000
v -120.670 99.744 0.000
v -22.161 114.614 0.000
v -18.789 95.908 0.000
v -117.748 81.059 0.000
v -113.419 53.713 9.900
v -124.532 51.805 9.900
v -129.361 86.800 9.900
v -118.935 88.551 9.900
v -120.670 99.744 9.900
v -22.161 114.614 9.900
v -18.789 95.908 9.900
v -117.748 81.059 9.900
usemtl roof
f 80 81 82 83 84 85 86 87
usemtl teaching_building
f 79 78 77 76 75 74 73 72
f 72 73 81 80
f 73 74 82 81
f 74 75 83 82
f 75 76 84 83
f 76 77 85 84
f 77 78 86 85
f 78 79 87 86
f 79 72 80 87
o SD0618_T003_3hao
v -219.390 21.683 0.000
v -222.966 42.549 0.000
v -148.562 53.408 0.000
v -148.139 49.646 0.000
v -145.619 49.016 0.000
v -142.888 42.132 0.000
v -143.612 39.593 0.000
v -145.823 37.545 0.000
v -145.197 33.997 0.000
v -178.166 28.525 0.000
v -189.664 26.612 0.000
v -189.665 26.617 0.000
v -219.390 21.683 9.900
v -222.966 42.549 9.900
v -148.562 53.408 9.900
v -148.139 49.646 9.900
v -145.619 49.016 9.900
v -142.888 42.132 9.900
v -143.612 39.593 9.900
v -145.823 37.545 9.900
v -145.197 33.997 9.900
v -178.166 28.525 9.900
v -189.664 26.612 9.900
v -189.665 26.617 9.900
usemtl roof
f 100 101 102 103 104 105 106 107 108 109 110 111
usemtl teaching_building
f 99 98 97 96 95 94 93 92 91 90 89 88
f 88 89 101 100
f 89 90 102 101
f 90 91 103 102
f 91 92 104 103
f 92 93 105 104
f 93 94 106 105
f 94 95 107 106
f 95 96 108 107
f 96 97 109 108
f 97 98 110 109
f 98 99 111 110
f 99 88 100 111
o SD0618_T004_4hao
v 21.145 -4.779 0.000
v 115.300 8.989 0.000
v 113.618 19.422 0.000
v 19.462 7.322 0.000
v 21.145 -4.779 9.900
v 115.300 8.989 9.900
v 113.618 19.422 9.900
v 19.462 7.322 9.900
usemtl roof
f 116 117 118 119
usemtl teaching_building
f 115 114 113 112
f 112 113 117 116
f 113 114 118 117
f 114 115 119 118
f 115 112 116 119
o SD0618_T005_5hao
v 95.541 -93.272 0.000
v 124.542 -89.511 0.000
v 112.358 -1.443 0.000
v 84.194 -4.779 0.000
v 95.541 -93.272 9.900
v 124.542 -89.511 9.900
v 112.358 -1.443 9.900
v 84.194 -4.779 9.900
usemtl roof
f 124 125 126 127
usemtl teaching_building
f 123 122 121 120
f 120 121 125 124
f 121 122 126 125
f 122 123 127 126
f 123 120 124 127
o SD0618_T006_6hao
v 40.474 -98.693 0.000
v 68.215 -95.357 0.000
v 56.030 -8.124 0.000
v 29.549 -11.876 0.000
v 40.474 -98.693 9.900
v 68.215 -95.357 9.900
v 56.030 -8.124 9.900
v 29.549 -11.876 9.900
usemtl roof
f 132 133 134 135
usemtl teaching_building
f 131 130 129 128
f 128 129 133 132
f 129 130 134 133
f 130 131 135 134
f 131 128 132 135
o SD0618_T007_7hao
v -213.422 -36.781 0.000
v -197.458 -35.114 0.000
v -191.565 -72.889 0.000
v -194.093 -73.305 0.000
v -192.403 -88.130 0.000
v -189.468 -87.500 0.000
v -185.266 -125.692 0.000
v -200.815 -129.454 0.000
v -199.978 -139.043 0.000
v -111.707 -125.275 0.000
v -113.389 -115.676 0.000
v -174.334 -124.858 0.000
v -179.381 -85.202 0.000
v -181.901 -85.619 0.000
v -183.795 -72.055 0.000
v -181.901 -71.425 0.000
v -187.363 -33.446 0.000
v -123.891 -22.170 0.000
v -124.736 -12.571 0.000
v -214.689 -27.599 0.000
v -213.422 -36.781 9.900
v -197.458 -35.114 9.900
v -191.565 -72.889 9.900
v -194.093 -73.305 9.900
v -192.403 -88.130 9.900
v -189.468 -87.500 9.900
v -185.266 -125.692 9.900
v -200.815 -129.454 9.900
v -199.978 -139.043 9.900
v -111.707 -125.275 9.900
v -113.389 -115.676 9.900
v -174.334 -124.858 9.900
v -179.381 -85.202 9.900
v -181.901 -85.619 9.900
v -183.795 -72.055 9.900
v -181.901 -71.425 9.900
v -187.363 -33.446 9.900
v -123.891 -22.170 9.900
v -124.736 -12.571 9.900
v -214.689 -27.599 9.900
usemtl roof
f 156 157 158 159 160 161 162 163 164 165 166 167 168 169 170 171 172 173 174 175
usemtl teaching_building
f 155 154 153 152 151 150 149 148 147 146 145 144 143 142 141 140 139 138 137 136
f 136 137 157 156
f 137 138 158 157
f 138 139 159 158
f 139 140 160 159
f 140 141 161 160
f 141 142 162 161
f 142 143 163 162
f 143 144 164 163
f 144 145 165 164
f 145 146 166 165
f 146 147 167 166
f 147 148 168 167
f 148 149 169 168
f 149 150 170 169
f 150 151 171 170
f 151 152 172 171
f 152 153 173 172
f 153 154 174 173
f 154 155 175 174
f 155 136 156 175
o SD0618_T008_8hao
v 38.376 -122.486 0.000
v 131.694 -108.708 0.000
v 129.597 -97.025 0.000
v 36.271 -109.959 0.000
v 38.376 -122.486 9.900
v 131.694 -108.708 9.900
v 129.597 -97.025 9.900
v 36.271 -109.959 9.900
usemtl roof
f 180 181 182 183
usemtl teaching_building
f 179 178 177 176
f 176 177 181 180
f 177 178 182 181
f 178 179 183 182
f 179 176 180 183
