# school_id SD0642
# school_name 任城区实验初中（任和校区）
# boundary_source footprint_convex_hull_buffer_20m
# adjacent_block_merge_distance_m 2.0
mtllib ../campus_materials.mtl
o SD0642_campus_boundary
usemtl campus_boundary
v 42.472 -130.536 0.050
v -51.020 -116.939 0.050
v -74.766 -55.303 0.050
v -76.105 -50.171 0.050
v -92.037 63.572 0.050
v -93.159 116.313 0.050
v 3.385 194.513 0.050
v 33.201 194.884 0.050
v 88.817 187.004 0.050
v 180.181 -73.635 0.050
v 180.741 -113.190 0.050
v 82.222 -130.260 0.050
v 42.472 -130.536 0.050
l 1 2 3 4 5 6 7 8 9 10 11 12 13 1
o SD0642_T001_1hao
v 31.915 174.866 0.000
v 57.380 169.019 0.000
v 73.967 168.908 0.000
v 74.067 155.002 0.000
v 53.100 155.422 0.000
v 28.070 162.110 0.000
v 10.631 161.900 0.000
v 10.577 174.601 0.000
v 31.915 174.866 9.730
v 57.380 169.019 9.730
v 73.967 168.908 9.730
v 74.067 155.002 9.730
v 53.100 155.422 9.730
v 28.070 162.110 9.730
v 10.631 161.900 9.730
v 10.577 174.601 9.730
usemtl roof
f 22 23 24 25 26 27 28 29
usemtl teaching_building
f 21 20 19 18 17 16 15 14
f 14 15 23 22
f 15 16 24 23
f 16 17 25 24
f 17 18 26 25
f 18 19 27 26
f 19 20 28 27
f 20 21 29 28
f 21 14 22 29
o SD0642_T002_2hao
v 31.915 140.920 0.000
v 57.380 135.083 0.000
v 73.967 134.972 0.000
v 74.067 121.055 0.000
v 53.100 121.476 0.000
v 28.070 128.174 0.000
v 10.631 127.964 0.000
v 10.577 140.654 0.000
v 31.915 140.920 8.450
v 57.380 135.083 8.450
v 73.967 134.972 8.450
v 74.067 121.055 8.450
v 53.100 121.476 8.450
v 28.070 128.174 8.450
v 10.631 127.964 8.450
v 10.577 140.654 8.450
usemtl roof
f 38 39 40 41 42 43 44 45
usemtl teaching_building
f 37 36 35 34 33 32 31 30
f 30 31 39 38
f 31 32 40 39
f 32 33 41 40
f 33 34 42 41
f 34 35 43 42
f 35 36 44 43
f 36 37 45 44
f 37 30 38 45
o SD0642_T003_3hao
v -16.893 108.111 0.000
v -16.222 76.486 0.000
v -26.487 68.626 0.000
v -41.097 68.328 0.000
v -43.546 64.194 0.000
v -48.452 62.945 0.000
v -53.376 63.497 0.000
v -61.529 67.897 0.000
v -65.918 67.808 0.000
v -65.864 65.310 0.000
v -72.067 65.177 0.000
v -72.955 106.940 0.000
v -16.893 108.111 22.650
v -16.222 76.486 22.650
v -26.487 68.626 22.650
v -41.097 68.328 22.650
v -43.546 64.194 22.650
v -48.452 62.945 22.650
v -53.376 63.497 22.650
v -61.529 67.897 22.650
v -65.918 67.808 22.650
v -65.864 65.310 22.650
v -72.067 65.177 22.650
v -72.955 106.940 22.650
usemtl roof
f 58 59 60 61 62 63 64 65 66 67 68 69
usemtl teaching_building
f 57 56 55 54 53 52 51 50 49 48 47 46
f 46 47 59 58
f 47 48 60 59
f 48 49 61 60
f 49 50 62 61
f 50 51 63 62
f 51 52 64 63
f 52 53 65 64
f 53 54 66 65
f 54 55 67 66
f 55 56 68 67
f 56 57 69 68
f 57 46 58 69
o SD0642_T004_4hao
v 66.694 92.039 0.000
v 72.044 88.855 0.000
v 77.712 81.736 0.000
v 81.032 73.877 0.000
v 82.746 62.823 0.000
v 81.675 52.841 0.000
v 77.613 44.451 0.000
v 72.579 37.753 0.000
v 67.655 34.348 0.000
v 59.847 33.077 0.000
v 52.792 34.569 0.000
v 47.541 37.753 0.000
v 41.338 44.131 0.000
v 37.592 52.090 0.000
v 35.987 62.292 0.000
v 37.275 71.965 0.000
v 40.376 80.034 0.000
v 45.836 87.683 0.000
v 51.930 91.508 0.000
v 59.421 93.210 0.000
v 66.694 92.039 16.500
v 72.044 88.855 16.500
v 77.712 81.736 16.500
v 81.032 73.877 16.500
v 82.746 62.823 16.500
v 81.675 52.841 16.500
v 77.613 44.451 16.500
v 72.579 37.753 16.500
v 67.655 34.348 16.500
v 59.847 33.077 16.500
v 52.792 34.569 16.500
v 47.541 37.753 16.500
v 41.338 44.131 16.500
v 37.592 52.090 16.500
v 35.987 62.292 16.500
v 37.275 71.965 16.500
v 40.376 80.034 16.500
v 45.836 87.683 16.500
v 51.930 91.508 16.500
v 59.421 93.210 16.500
usemtl roof
f 90 91 92 93 94 95 96 97 98 99 100 101 102 103 104 105 106 107 108 109
usemtl teaching_building
f 89 88 87 86 85 84 83 82 81 80 79 78 77 76 75 74 73 72 71 70
f 70 71 91 90
f 71 72 92 91
f 72 73 93 92
f 73 74 94 93
f 74 75 95 94
f 75 76 96 95
f 76 77 97 96
f 77 78 98 97
f 78 79 99 98
f 79 80 100 99
f 80 81 101 100
f 81 82 102 101
f 82 83 103 102
f 83 84 104 103
f 84 85 105 104
f 85 86 106 105
f 86 87 107 106
f 87 88 108 107
f 88 89 109 108
f 89 70 90 109
o SD0642_T005_5hao
v -52.088 30.324 0.000
v -53.594 32.137 0.000
v -54.346 35.044 0.000
v -51.463 39.709 0.000
v -42.349 39.809 0.000
v -42.367 41.555 0.000
v 22.330 42.240 0.000
v 22.466 29.296 0.000
v -42.421 28.611 0.000
v -42.439 30.435 0.000
v -52.088 30.324 26.650
v -53.594 32.137 26.650
v -54.346 35.044 26.650
v -51.463 39.709 26.650
v -42.349 39.809 26.650
v -42.367 41.555 26.650
v 22.330 42.240 26.650
v 22.466 29.296 26.650
v -42.421 28.611 26.650
v -42.439 30.435 26.650
usemtl roof
f 120 121 122 123 124 125 126 127 128 129
usemtl teaching_building
f 119 118 117 116 115 114 113 112 111 110
f 110 111 121 120
f 111 112 122 121
f 112 113 123 122
f 113 114 124 123
f 114 115 125 124
f 115 116 126 125
f 116 117 127 126
f 117 118 128 127
f 118 119 129 128
f 119 110 120 129
o SD0642_T006_6hao
v -59.307 -10.321 0.000
v -60.812 -8.520 0.000
v -61.565 -5.601 0.000
v -58.681 -0.936 0.000
v -49.567 -0.837 0.000
v -49.585 0.910 0.000
v 15.111 1.595 0.000
v 15.247 -11.349 0.000
v -49.640 -12.035 0.000
v -49.658 -10.211 0.000
v -59.307 -10.321 17.450
v -60.812 -8.520 17.450
v -61.565 -5.601 17.450
v -58.681 -0.936 17.450
v -49.567 -0.837 17.450
v -49.585 0.910 17.450
v 15.111 1.595 17.450
v 15.247 -11.349 17.450
v -49.640 -12.035 17.450
v -49.658 -10.211 17.450
usemtl roof
f 140 141 142 143 144 145 146 147 148 149
usemtl teaching_building
f 139 138 137 136 135 134 133 132 131 130
f 130 131 141 140
f 131 132 142 141
f 132 133 143 142
f 133 134 144 143
f 134 135 145 144
f 135 136 146 145
f 136 137 147 146
f 137 138 148 147
f 138 139 149 148
f 139 130 140 149
o SD0642_T007_7hao
v -54.201 -50.967 0.000
v -55.698 -49.165 0.000
v -56.459 -46.247 0.000
v -53.576 -41.582 0.000
v -44.462 -41.483 0.000
v -44.480 -39.736 0.000
v 20.217 -39.051 0.000
v 20.353 -51.995 0.000
v -44.534 -52.680 0.000
v -44.552 -50.856 0.000
v -54.201 -50.967 15.490
v -55.698 -49.165 15.490
v -56.459 -46.247 15.490
v -53.576 -41.582 15.490
v -44.462 -41.483 15.490
v -44.480 -39.736 15.490
v 20.217 -39.051 15.490
v 20.353 -51.995 15.490
v -44.534 -52.680 15.490
v -44.552 -50.856 15.490
usemtl roof
f 160 161 162 163 164 165 166 167 168 169
usemtl teaching_building
f 159 158 157 156 155 154 153 152 151 150
f 150 151 161 160
f 151 152 162 161
f 152 153 163 162
f 153 154 164 163
f 154 155 165 164
f 155 156 166 165
f 156 157 167 166
f 157 158 168 167
f 158 159 169 168
f 159 150 160 169
o SD0642_T008_8hao
v 49.717 -96.034 0.000
v 49.572 -82.968 0.000
v 74.096 -82.473 0.000
v 74.021 -78.348 0.000
v 160.229 -77.176 0.000
v 160.501 -96.399 0.000
v 113.398 -97.029 0.000
v 98.180 -105.463 0.000
v 80.433 -110.272 0.000
v 80.364 -102.843 0.000
v 43.804 -103.484 0.000
v 43.723 -96.100 0.000
v 43.850 -110.526 0.000
v 25.975 -106.215 0.000
v 10.540 -98.190 0.000
v -36.563 -98.831 0.000
v -36.835 -79.619 0.000
v 49.382 -78.447 0.000
v 49.717 -96.034 13.310
v 49.572 -82.968 13.310
v 74.096 -82.473 13.310
v 74.021 -78.348 13.310
v 160.229 -77.176 13.310
v 160.501 -96.399 13.310
v 113.398 -97.029 13.310
v 98.180 -105.463 13.310
v 80.433 -110.272 13.310
v 80.364 -102.843 13.310
v 43.804 -103.484 13.310
v 43.723 -96.100 13.310
v 43.850 -110.526 13.310
v 25.975 -106.215 13.310
v 10.540 -98.190 13.310
v -36.563 -98.831 13.310
v -36.835 -79.619 13.310
v 49.382 -78.447 13.310
usemtl roof
f 188 189 190 191 192 193 194 195 196 197 198 199 200 201 202 203 204 205
usemtl teaching_building
f 187 186 185 184 183 182 181 180 179 178 177 176 175 174 173 172 171 170
f 170 171 189 188
f 171 172 190 189
f 172 173 191 190
f 173 174 192 191
f 174 175 193 192
f 175 176 194 193
f 176 177 195 194
f 177 178 196 195
f 178 179 197 196
f 179 180 198 197
f 180 181 199 198
f 181 182 200 199
f 182 183 201 200
f 183 184 202 201
f 184 185 203 202
f 185 186 204 203
f 186 187 205 204
f 187 170 188 205
