# school_id SD0654
# school_name 嘉祥县特殊教育学校
# boundary_source footprint_convex_hull_buffer_20m
# adjacent_block_merge_distance_m 2.0
mtllib ../campus_materials.mtl
o SD0654_campus_boundary
usemtl campus_boundary
v 48.563 -94.703 0.050
v -60.533 -79.406 0.050
v -50.573 90.965 0.050
v 62.509 83.047 0.050
v 48.563 -94.703 0.050
l 1 2 3 4 5 1
o SD0654_T001_1hao
v 30.287 -71.945 0.000
v 40.993 64.505 0.000
v -31.788 69.601 0.000
v -39.491 -62.161 0.000
v 30.287 -71.945 6.600
v 40.993 64.505 6.600
v -31.788 69.601 6.600
v -39.491 -62.161 6.600
usemtl roof
f 10 11 12 13
usemtl teaching_building
f 9 8 7 6
f 6 7 11 10
f 7 8 12 11
f 8 9 13 12
f 9 6 10 13
