# school_id SD0608
# school_name 瀚声国际学校
# boundary_source footprint_convex_hull_buffer_20m
# adjacent_block_merge_distance_m 2.0
mtllib ../campus_materials.mtl
o SD0608_campus_boundary
usemtl campus_boundary
v 117.218 -149.564 0.050
v -87.115 -144.597 0.050
v -212.737 62.479 0.050
v -213.306 113.020 0.050
v -199.829 167.713 0.050
v -106.050 178.013 0.050
v -49.351 176.535 0.050
v 109.312 162.895 0.050
v 121.394 95.915 0.050
v 120.861 -16.656 0.050
v 117.218 -149.564 0.050
l 1 2 3 4 5 6 7 8 9 10 11 1
o SD0608_T001_1hao
v -183.335 135.367 0.000
v -163.859 134.959 0.000
v -164.278 149.358 0.000
v -183.754 149.358 0.000
v -183.335 135.367 9.900
v -163.859 134.959 9.900
v -164.278 149.358 9.900
v -183.754 149.358 9.900
usemtl roof
f 16 17 18 19
usemtl teaching_building
f 15 14 13 12
f 12 13 17 16
f 13 14 18 17
f 14 15 19 18
f 15 12 16 19
o SD0608_T002_2hao
v -62.366 104.560 0.000
v -59.508 107.877 0.000
v -58.079 112.130 0.000
v -48.569 112.593 0.000
v -48.569 152.304 0.000
v -50.469 156.557 0.000
v -105.215 157.984 0.000
v -105.215 104.096 0.000
v -62.366 104.560 9.900
v -59.508 107.877 9.900
v -58.079 112.130 9.900
v -48.569 112.593 9.900
v -48.569 152.304 9.900
v -50.469 156.557 9.900
v -105.215 157.984 9.900
v -105.215 104.096 9.900
usemtl roof
f 28 29 30 31 32 33 34 35
usemtl teaching_building
f 27 26 25 24 23 22 21 20
f 20 21 29 28
f 21 22 30 29
f 22 23 31 30
f 23 24 32 31
f 24 25 33 32
f 25 26 34 33
f 26 27 35 34
f 27 20 28 35
o SD0608_T003_3hao
v 31.885 125.842 0.000
v 34.264 122.998 0.000
v 29.506 38.868 0.000
v 30.456 33.661 0.000
v 33.314 30.826 0.000
v 100.907 24.683 0.000
v 99.964 33.661 0.000
v 95.205 34.606 0.000
v 95.677 45.956 0.000
v 40.931 51.627 0.000
v 44.260 80.461 0.000
v 95.205 76.208 0.000
v 95.677 84.704 0.000
v 101.386 94.173 0.000
v 46.168 99.844 0.000
v 48.548 131.985 0.000
v 91.861 129.622 0.000
v 92.347 144.280 0.000
v -35.715 151.841 0.000
v -36.186 132.448 0.000
v 31.885 125.842 9.900
v 34.264 122.998 9.900
v 29.506 38.868 9.900
v 30.456 33.661 9.900
v 33.314 30.826 9.900
v 100.907 24.683 9.900
v 99.964 33.661 9.900
v 95.205 34.606 9.900
v 95.677 45.956 9.900
v 40.931 51.627 9.900
v 44.260 80.461 9.900
v 95.205 76.208 9.900
v 95.677 84.704 9.900
v 101.386 94.173 9.900
v 46.168 99.844 9.900
v 48.548 131.985 9.900
v 91.861 129.622 9.900
v 92.347 144.280 9.900
v -35.715 151.841 9.900
v -36.186 132.448 9.900
usemtl roof
f 56 57 58 59 60 61 62 63 64 65 66 67 68 69 70 71 72 73 74 75
usemtl teaching_building
f 55 54 53 52 51 50 49 48 47 46 45 44 43 42 41 40 39 38 37 36
f 36 37 57 56
f 37 38 58 57
f 38 39 59 58
f 39 40 60 59
f 40 41 61 60
f 41 42 62 61
f 42 43 63 62
f 43 44 64 63
f 44 45 65 64
f 45 46 66 65
f 46 47 67 66
f 47 48 68 67
f 48 49 69 68
f 49 50 70 69
f 50 51 71 70
f 51 52 72 71
f 52 53 73 72
f 53 54 74 73
f 54 55 75 74
f 55 36 56 75
o SD0608_T004_4hao
v -192.800 68.175 0.000
v -120.920 69.110 0.000
v -121.870 111.184 0.000
v -193.279 110.703 0.000
v -192.800 68.175 9.900
v -120.920 69.110 9.900
v -121.870 111.184 9.900
v -193.279 110.703 9.900
usemtl roof
f 80 81 82 83
usemtl teaching_building
f 79 78 77 76
f 76 77 81 80
f 77 78 82 81
f 78 79 83 82
f 79 76 80 83
o SD0608_T005_5hao
v -74.277 37.441 0.000
v -73.319 21.366 0.000
v -10.957 29.881 0.000
v -15.715 71.473 0.000
v -83.787 73.845 0.000
v -83.787 35.551 0.000
v -74.277 37.441 9.900
v -73.319 21.366 9.900
v -10.957 29.881 9.900
v -15.715 71.473 9.900
v -83.787 73.845 9.900
v -83.787 35.551 9.900
usemtl roof
f 90 91 92 93 94 95
usemtl teaching_building
f 89 88 87 86 85 84
f 84 85 91 90
f 85 86 92 91
f 86 87 93 92
f 87 88 94 93
f 88 89 95 94
f 89 84 90 95
o SD0608_T006_6hao
v 68.016 -101.761 0.000
v 68.570 -69.883 0.000
v 38.395 -69.175 0.000
v 41.754 -95.804 0.000
v 98.258 -108.636 0.000
v 97.772 -129.085 0.000
v 32.648 -112.444 0.000
v 29.296 -107.209 0.000
v 25.944 -99.130 0.000
v 24.979 -86.927 0.000
v -9.661 -87.085 0.000
v -13.800 -103.410 0.000
v -17.145 -107.673 0.000
v -21.940 -111.490 0.000
v -63.122 -122.896 0.000
v -75.691 -124.869 0.000
v -75.916 -26.351 0.000
v -72.691 -27.512 0.000
v -72.691 -8.311 0.000
v -54.502 -12.119 0.000
v -49.235 -14.963 0.000
v -45.875 -18.771 0.000
v -44.925 -26.378 0.000
v -7.704 -25.869 0.000
v -4.702 -14.963 0.000
v -0.572 -10.785 0.000
v 100.151 3.567 0.000
v 100.862 -16.335 0.000
v 32.648 -28.278 0.000
v 36.479 -51.098 0.000
v 68.061 -51.343 0.000
v 68.450 -22.088 0.000
v 95.856 -17.345 0.000
v 94.712 -51.543 0.000
v 80.889 -51.442 0.000
v 98.730 -51.580 0.000
v 99.208 -70.602 0.000
v 94.195 -70.484 0.000
v 94.098 -107.691 0.000
v 68.016 -101.761 9.900
v 68.570 -69.883 9.900
v 38.395 -69.175 9.900
v 41.754 -95.804 9.900
v 98.258 -108.636 9.900
v 97.772 -129.085 9.900
v 32.648 -112.444 9.900
v 29.296 -107.209 9.900
v 25.944 -99.130 9.900
v 24.979 -86.927 9.900
v -9.661 -87.085 9.900
v -13.800 -103.410 9.900
v -17.145 -107.673 9.900
v -21.940 -111.490 9.900
v -63.122 -122.896 9.900
v -75.691 -124.869 9.900
v -75.916 -26.351 9.900
v -72.691 -27.512 9.900
v -72.691 -8.311 9.900
v -54.502 -12.119 9.900
v -49.235 -14.963 9.900
v -45.875 -18.771 9.900
v -44.925 -26.378 9.900
v -7.704 -25.869 9.900
v -4.702 -14.963 9.900
v -0.572 -10.785 9.900
v 100.151 3.567 9.900
v 100.862 -16.335 9.900
v 32.648 -28.278 9.900
v 36.479 -51.098 9.900
v 68.061 -51.343 9.900
v 68.450 -22.088 9.900
v 95.856 -17.345 9.900
v 94.712 -51.543 9.900
v 80.889 -51.442 9.900
v 98.730 -51.580 9.900
v 99.208 -70.602 9.900
v 94.195 -70.484 9.900
v 94.098 -107.691 9.900
usemtl roof
f 135 136 137 138 139 140 141 142 143 144 145 146 147 148 149 150 151 152 153 154 155 156 157 158 159 160 161 162 163 164 165 166 167 168 169 170 171 172 173
usemtl teaching_building
f 134 133 132 131 130 129 128 127 126 125 124 123 122 121 120 119 118 117 116 115 114 113 112 111 110 109 108 107 106 105 104 103 102 101 100 99 98 97 96
f 96 97 136 135
f 97 98 137 136
f 98 99 138 137
f 99 100 139 138
f 100 101 140 139
f 101 102 141 140
f 102 103 142 141
f 103 104 143 142
f 104 105 144 143
f 105 106 145 144
f 106 107 146 145
f 107 108 147 146
f 108 109 148 147
f 109 110 149 148
f 110 111 150 149
f 111 112 151 150
f 112 113 152 151
f 113 114 153 152
f 114 115 154 153
f 115 116 155 154
f 116 117 156 155
f 117 118 157 156
f 118 119 158 157
f 119 120 159 158
f 120 121 160 159
f 121 122 161 160
f 122 123 162 161
f 123 124 163 162
f 124 125 164 163
f 125 126 165 164
f 126 127 166 165
f 127 128 167 166
f 128 129 168 167
f 129 130 169 168
f 130 131 170 169
f 131 132 171 170
f 132 133 172 171
f 133 134 173 172
f 134 96 135 173
