# school_id SD0694
# school_name 鱼台县第三实验中学
# boundary_source footprint_convex_hull_buffer_20m
# adjacent_block_merge_distance_m 2.0
mtllib ../campus_materials.mtl
o SD0694_campus_boundary
usemtl campus_boundary
v -24.017 -89.603 0.050
v -132.051 -72.532 0.050
v -131.668 -16.372 0.050
v -116.533 31.096 0.050
v -36.339 93.232 0.050
v 58.331 93.245 0.050
v 61.980 -88.003 0.050
v -24.017 -89.603 0.050
l 1 2 3 4 5 6 7 8 1
o SD0694_T001_1hao
v 33.188 61.521 0.000
v 33.211 73.075 0.000
v -29.496 73.233 0.000
v -29.527 61.679 0.000
v 33.188 61.521 6.600
v 33.211 73.075 6.600
v -29.496 73.233 6.600
v -29.527 61.679 6.600
usemtl roof
f 13 14 15 16
usemtl teaching_building
f 12 11 10 9
f 9 10 14 13
f 10 11 15 14
f 11 12 16 15
f 12 9 13 16
o SD0694_T002_2hao
v -15.805 21.986 0.000
v 33.486 22.449 0.000
v 33.356 35.087 0.000
v -15.935 34.615 0.000
v -15.805 21.986 6.600
v 33.486 22.449 6.600
v 33.356 35.087 6.600
v -15.935 34.615 6.600
usemtl roof
f 21 22 23 24
usemtl teaching_building
f 20 19 18 17
f 17 18 22 21
f 18 19 23 22
f 19 20 24 23
f 20 17 21 24
o SD0694_T003_3hao
v -23.832 -5.347 0.000
v 39.342 -4.096 0.000
v 39.579 -17.920 0.000
v -9.116 -19.254 0.000
v -8.421 -56.714 0.000
v 40.802 -55.305 0.000
v 41.581 -68.379 0.000
v -22.632 -69.574 0.000
v -23.832 -5.347 6.600
v 39.342 -4.096 6.600
v 39.579 -17.920 6.600
v -9.116 -19.254 6.600
v -8.421 -56.714 6.600
v 40.802 -55.305 6.600
v 41.581 -68.379 6.600
v -22.632 -69.574 6.600
usemtl roof
f 33 34 35 36 37 38 39 40
usemtl teaching_building
f 32 31 30 29 28 27 26 25
f 25 26 34 33
f 26 27 35 34
f 27 28 36 35
f 28 29 37 36
f 29 30 38 37
f 30 31 39 38
f 31 32 40 39
f 32 25 33 40
o SD0694_T003_3hao_seg02
v -99.451 -3.494 0.000
v -99.367 19.095 0.000
v -20.369 18.836 0.000
v -20.453 -3.771 0.000
v -99.451 -3.494 6.600
v -99.367 19.095 6.600
v -20.369 18.836 6.600
v -20.453 -3.771 6.600
usemtl roof
f 45 46 47 48
usemtl teaching_building
f 44 43 42 41
f 41 42 46 45
f 42 43 47 46
f 43 44 48 47
f 44 41 45 48
o SD0694_T004_4hao
v -87.365 -55.630 0.000
v -87.128 -19.717 0.000
v -111.689 -19.550 0.000
v -111.934 -55.463 0.000
v -87.365 -55.630 6.600
v -87.128 -19.717 6.600
v -111.689 -19.550 6.600
v -111.934 -55.463 6.600
usemtl roof
f 53 54 55 56
usemtl teaching_building
f 52 51 50 49
f 49 50 54 53
f 50 51 55 54
f 51 52 56 55
f 52 49 53 56
