# school_id SD0652
# school_name 嘉祥一中洪山校区综合教研楼（有光伏）
# boundary_source footprint_convex_hull_buffer_20m
# adjacent_block_merge_distance_m 2.0
mtllib ../campus_materials.mtl
o SD0652_campus_boundary
usemtl campus_boundary
v -160.553 -45.023 0.050
v -162.163 38.826 0.050
v 160.553 45.023 0.050
v 162.163 -38.826 0.050
v -160.553 -45.023 0.050
l 1 2 3 4 5 1
o SD0652_T001_1hao
v -141.783 19.214 0.000
v 140.941 24.643 0.000
v 141.783 -19.214 0.000
v -140.941 -24.643 0.000
v -141.783 19.214 12.940
v 140.941 24.643 12.940
v 141.783 -19.214 12.940
v -140.941 -24.643 12.940
usemtl roof
f 10 11 12 13
usemtl teaching_building
f 9 8 7 6
f 6 7 11 10
f 7 8 12 11
f 8 9 13 12
f 9 6 10 13
