# school_id SD0691
# school_name 长安驾校
# boundary_source footprint_convex_hull_buffer_20m
# adjacent_block_merge_distance_m 2.0
mtllib ../campus_materials.mtl
o SD0691_campus_boundary
usemtl campus_boundary
v 52.111 -45.930 0.050
v -69.329 -7.082 0.050
v -52.089 45.934 0.050
v 69.307 7.078 0.050
v 52.111 -45.930 0.050
l 1 2 3 4 5 1
o SD0691_T001_1hao
v 39.233 -20.812 0.000
v 44.087 -5.849 0.000
v -39.226 20.817 0.000
v -44.095 5.844 0.000
v 39.233 -20.812 9.900
v 44.087 -5.849 9.900
v -39.226 20.817 9.900
v -44.095 5.844 9.900
usemtl roof
f 10 11 12 13
usemtl teaching_building
f 9 8 7 6
f 6 7 11 10
f 7 8 12 11
f 8 9 13 12
f 9 6 10 13
