# school_id SD0635
# school_name 青州市第一中学
# boundary_source footprint_convex_hull_buffer_20m
# adjacent_block_merge_distance_m 2.0
mtllib ../campus_materials.mtl
o SD0635_campus_boundary
usemtl campus_boundary
v 260.153 -274.829 0.050
v 202.799 -274.399 0.050
v -170.668 -13.624 0.050
v -169.921 23.457 0.050
v -147.536 145.587 0.050
v -42.192 143.123 0.050
v 16.987 133.906 0.050
v 259.951 -195.089 0.050
v 260.153 -274.829 0.050
l 1 2 3 4 5 6 7 8 9 1
o SD0635_T001_1hao
v -43.972 123.159 0.000
v -43.972 96.264 0.000
v -132.583 98.309 0.000
v -130.941 125.193 0.000
v -43.972 123.159 15.240
v -43.972 96.264 15.240
v -132.583 98.309 15.240
v -130.941 125.193 15.240
usemtl roof
f 14 15 16 17
usemtl teaching_building
f 13 12 11 10
f 10 11 15 14
f 11 12 16 15
f 12 13 17 16
f 13 10 14 17
o SD0635_T002_2hao
v 5.784 115.410 0.000
v 5.043 100.189 0.000
v -41.802 102.433 0.000
v -41.061 117.654 0.000
v 5.784 115.410 18.600
v 5.043 100.189 18.600
v -41.802 102.433 18.600
v -41.061 117.654 18.600
usemtl roof
f 22 23 24 25
usemtl teaching_building
f 21 20 19 18
f 18 19 23 22
f 19 20 24 23
f 20 21 25 24
f 21 18 22 25
o SD0635_T003_3hao
v -87.068 20.456 0.000
v -87.318 -4.327 0.000
v -150.457 -3.343 0.000
v -149.958 21.440 0.000
v -87.068 20.456 10.800
v -87.318 -4.327 10.800
v -150.457 -3.343 10.800
v -149.958 21.440 10.800
usemtl roof
f 30 31 32 33
usemtl teaching_building
f 29 28 27 26
f 26 27 31 30
f 27 28 32 31
f 28 29 33 32
f 29 26 30 33
o SD0635_T004_4hao
v 239.968 -201.696 0.000
v 240.102 -254.678 0.000
v 209.158 -254.446 0.000
v 209.077 -202.017 0.000
v 239.968 -201.696 9.030
v 240.102 -254.678 9.030
v 209.158 -254.446 9.030
v 209.077 -202.017 9.030
usemtl roof
f 38 39 40 41
usemtl teaching_building
f 37 36 35 34
f 34 35 39 38
f 35 36 40 39
f 36 37 41 40
f 37 34 38 41
