# school_id SD0663
# school_name 梁山县韩垓中学
# boundary_source footprint_convex_hull_buffer_20m
# adjacent_block_merge_distance_m 2.0
mtllib ../campus_materials.mtl
o SD0663_campus_boundary
usemtl campus_boundary
v -69.135 -29.348 0.050
v -72.127 20.956 0.050
v 69.135 29.348 0.050
v 72.127 -20.956 0.050
v -69.135 -29.348 0.050
l 1 2 3 4 5 1
o SD0663_T001_1hao
v -50.975 2.177 0.000
v 50.358 8.197 0.000
v 50.975 -2.177 0.000
v -50.358 -8.197 0.000
v -50.975 2.177 10.480
v 50.358 8.197 10.480
v 50.975 -2.177 10.480
v -50.358 -8.197 10.480
usemtl roof
f 10 11 12 13
usemtl teaching_building
f 9 8 7 6
f 6 7 11 10
f 7 8 12 11
f 8 9 13 12
f 9 6 10 13
