# school_id SD0649
# school_name 兖州区实验小学(徐州南路)
# boundary_source footprint_convex_hull_buffer_20m
# adjacent_block_merge_distance_m 2.0
mtllib ../campus_materials.mtl
o SD0649_campus_boundary
usemtl campus_boundary
v -44.313 -91.137 0.050
v -44.202 -50.697 0.050
v -39.189 91.749 0.050
v 59.964 92.754 0.050
v 61.147 -91.031 0.050
v -44.313 -91.137 0.050
l 1 2 3 4 5 6 1
o SD0649_T001_1hao
v 40.094 72.552 0.000
v 41.018 -71.051 0.000
v -24.258 -71.117 0.000
v -24.203 -51.076 0.000
v 13.439 -51.176 0.000
v 13.484 -34.506 0.000
v -22.718 -34.407 0.000
v -22.655 -12.984 0.000
v 15.359 -13.084 0.000
v 15.422 12.274 0.000
v -19.992 12.363 0.000
v -19.937 30.756 0.000
v 17.333 30.657 0.000
v 17.406 54.379 0.000
v -19.919 54.478 0.000
v -19.874 71.944 0.000
v 40.094 72.552 25.900
v 41.018 -71.051 25.900
v -24.258 -71.117 25.900
v -24.203 -51.076 25.900
v 13.439 -51.176 25.900
v 13.484 -34.506 25.900
v -22.718 -34.407 25.900
v -22.655 -12.984 25.900
v 15.359 -13.084 25.900
v 15.422 12.274 25.900
v -19.992 12.363 25.900
v -19.937 30.756 25.900
v 17.333 30.657 25.900
v 17.406 54.379 25.900
v -19.919 54.478 25.900
v -19.874 71.944 25.900
usemtl roof
f 23 24 25 26 27 28 29 30 31 32 33 34 35 36 37 38
usemtl teaching_building
f 22 21 20 19 18 17 16 15 14 13 12 11 10 9 8 7
f 7 8 24 23
f 8 9 25 24
f 9 10 26 25
f 10 11 27 26
f 11 12 28 27
f 12 13 29 28
f 13 14 30 29
f 14 15 31 30
f 15 16 32 31
f 16 17 33 32
f 17 18 34 33
f 18 19 35 34
f 19 20 36 35
f 20 21 37 36
f 21 22 38 37
f 22 7 23 38
