# school_id SD0647
# school_name 兖州区东方中学
# boundary_source footprint_convex_hull_buffer_20m
# adjacent_block_merge_distance_m 2.0
mtllib ../campus_materials.mtl
o SD0647_campus_boundary
usemtl campus_boundary
v 148.016 -156.893 0.050
v 97.704 -156.010 0.050
v -140.512 -1.333 0.050
v -140.540 29.630 0.050
v -139.481 94.226 0.050
v 51.725 94.399 0.050
v 148.736 -115.726 0.050
v 148.016 -156.893 0.050
l 1 2 3 4 5 6 7 8 1
o SD0647_T001_1hao
v 38.935 74.387 0.000
v 38.953 55.618 0.000
v -5.718 55.573 0.000
v -5.981 30.613 0.000
v 40.149 30.669 0.000
v 40.176 9.743 0.000
v -120.522 9.533 0.000
v -120.540 29.475 0.000
v -65.652 30.105 0.000
v -65.108 56.115 0.000
v -119.788 56.060 0.000
v -119.806 74.244 0.000
v 38.935 74.387 21.130
v 38.953 55.618 21.130
v -5.718 55.573 21.130
v -5.981 30.613 21.130
v 40.149 30.669 21.130
v 40.176 9.743 21.130
v -120.522 9.533 21.130
v -120.540 29.475 21.130
v -65.652 30.105 21.130
v -65.108 56.115 21.130
v -119.788 56.060 21.130
v -119.806 74.244 21.130
usemtl roof
f 21 22 23 24 25 26 27 28 29 30 31 32
usemtl teaching_building
f 20 19 18 17 16 15 14 13 12 11 10 9
f 9 10 22 21
f 10 11 23 22
f 11 12 24 23
f 12 13 25 24
f 13 14 26 25
f 14 15 27 26
f 15 16 28 27
f 16 17 29 28
f 17 18 30 29
f 18 19 31 30
f 19 20 32 31
f 20 9 21 32
o SD0647_T002_2hao
v 128.659 -119.953 0.000
v 128.369 -136.545 0.000
v 103.787 -136.114 0.000
v 104.086 -119.522 0.000
v 128.659 -119.953 10.290
v 128.369 -136.545 10.290
v 103.787 -136.114 10.290
v 104.086 -119.522 10.290
usemtl roof
f 37 38 39 40
usemtl teaching_building
f 36 35 34 33
f 33 34 38 37
f 34 35 39 38
f 35 36 40 39
f 36 33 37 40
