# school_id SD0626
# school_name 青州一中东校区
# boundary_source footprint_convex_hull_buffer_20m
# adjacent_block_merge_distance_m 2.0
mtllib ../campus_materials.mtl
o SD0626_campus_boundary
usemtl campus_boundary
v 155.051 -238.258 0.050
v 58.092 -237.413 0.050
v -157.611 -95.047 0.050
v -168.050 -37.223 0.050
v -172.026 13.186 0.050
v -172.660 110.083 0.050
v -158.449 178.676 0.050
v -141.036 189.803 0.050
v -90.672 189.219 0.050
v 149.020 173.990 0.050
v 155.264 115.633 0.050
v 156.284 62.020 0.050
v 156.311 43.689 0.050
v 155.051 -238.258 0.050
l 1 2 3 4 5 6 7 8 9 10 11 12 13 14 1
o SD0626_T001_1hao
v 130.927 155.099 0.000
v 130.641 134.207 0.000
v 79.516 134.871 0.000
v 79.792 155.774 0.000
v 130.927 155.099 12.640
v 130.641 134.207 12.640
v 79.516 134.871 12.640
v 79.792 155.774 12.640
usemtl roof
f 19 20 21 22
usemtl teaching_building
f 18 17 16 15
f 15 16 20 19
f 16 17 21 20
f 17 18 22 21
f 18 15 19 22
o SD0626_T002_2hao
v -135.468 166.363 0.000
v -140.575 166.363 0.000
v -152.647 108.098 0.000
v -83.762 107.589 0.000
v -83.762 118.898 0.000
v -130.709 119.074 0.000
v -122.888 157.410 0.000
v -91.244 157.410 0.000
v -91.423 169.226 0.000
v -135.298 169.735 0.000
v -135.468 166.363 8.850
v -140.575 166.363 8.850
v -152.647 108.098 8.850
v -83.762 107.589 8.850
v -83.762 118.898 8.850
v -130.709 119.074 8.850
v -122.888 157.410 8.850
v -91.244 157.410 8.850
v -91.423 169.226 8.850
v -135.298 169.735 8.850
usemtl roof
f 33 34 35 36 37 38 39 40 41 42
usemtl teaching_building
f 32 31 30 29 28 27 26 25 24 23
f 23 24 34 33
f 24 25 35 34
f 25 26 36 35
f 26 27 37 36
f 27 28 38 37
f 28 29 39 38
f 29 30 40 39
f 30 31 41 40
f 31 32 42 41
f 32 23 33 42
o SD0626_T003_3hao
v 32.801 115.206 0.000
v 32.328 94.247 0.000
v -36.387 94.921 0.000
v -36.182 115.891 0.000
v 32.801 115.206 15.700
v 32.328 94.247 15.700
v -36.387 94.921 15.700
v -36.182 115.891 15.700
usemtl roof
f 47 48 49 50
usemtl teaching_building
f 46 45 44 43
f 43 44 48 47
f 44 45 49 48
f 45 46 50 49
f 46 43 47 50
o SD0626_T004_4hao
v 73.828 114.951 0.000
v 73.587 89.803 0.000
v 75.025 86.288 0.000
v 78.328 82.453 0.000
v 83.132 79.645 0.000
v 134.954 79.170 0.000
v 135.284 114.377 0.000
v 73.828 114.951 11.620
v 73.587 89.803 11.620
v 75.025 86.288 11.620
v 78.328 82.453 11.620
v 83.132 79.645 11.620
v 134.954 79.170 11.620
v 135.284 114.377 11.620
usemtl roof
f 58 59 60 61 62 63 64
usemtl teaching_building
f 57 56 55 54 53 52 51
f 51 52 59 58
f 52 53 60 59
f 53 54 61 60
f 54 55 62 61
f 55 56 63 62
f 56 57 64 63
f 57 51 58 64
o SD0626_T005_5hao
v -151.950 71.863 0.000
v -96.084 71.432 0.000
v -96.102 69.044 0.000
v -88.673 68.989 0.000
v -88.700 65.418 0.000
v -84.307 65.374 0.000
v -84.414 52.419 0.000
v -102.486 52.574 0.000
v -102.432 59.228 0.000
v -152.048 59.604 0.000
v -151.950 71.863 10.190
v -96.084 71.432 10.190
v -96.102 69.044 10.190
v -88.673 68.989 10.190
v -88.700 65.418 10.190
v -84.307 65.374 10.190
v -84.414 52.419 10.190
v -102.486 52.574 10.190
v -102.432 59.228 10.190
v -152.048 59.604 10.190
usemtl roof
f 75 76 77 78 79 80 81 82 83 84
usemtl teaching_building
f 74 73 72 71 70 69 68 67 66 65
f 65 66 76 75
f 66 67 77 76
f 67 68 78 77
f 68 69 79 78
f 69 70 80 79
f 70 71 81 80
f 71 72 82 81
f 72 73 83 82
f 73 74 84 83
f 74 65 75 84
o SD0626_T006_6hao
v 33.881 58.664 0.000
v 33.872 60.212 0.000
v 40.899 60.223 0.000
v 40.899 61.881 0.000
v 75.569 61.914 0.000
v 75.587 43.830 0.000
v 26.721 43.775 0.000
v 26.712 58.653 0.000
v 33.881 58.664 9.360
v 33.872 60.212 9.360
v 40.899 60.223 9.360
v 40.899 61.881 9.360
v 75.569 61.914 9.360
v 75.587 43.830 9.360
v 26.721 43.775 9.360
v 26.712 58.653 9.360
usemtl roof
f 93 94 95 96 97 98 99 100
usemtl teaching_building
f 92 91 90 89 88 87 86 85
f 85 86 94 93
f 86 87 95 94
f 87 88 96 95
f 88 89 97 96
f 89 90 98 97
f 90 91 99 98
f 91 92 100 99
f 92 85 93 100
o SD0626_T007_7hao
v 94.596 58.565 0.000
v 94.596 60.112 0.000
v 101.623 60.123 0.000
v 101.623 61.782 0.000
v 136.284 61.815 0.000
v 136.311 43.719 0.000
v 87.444 43.675 0.000
v 87.426 58.554 0.000
v 94.596 58.565 10.730
v 94.596 60.112 10.730
v 101.623 60.123 10.730
v 101.623 61.782 10.730
v 136.284 61.815 10.730
v 136.311 43.719 10.730
v 87.444 43.675 10.730
v 87.426 58.554 10.730
usemtl roof
f 109 110 111 112 113 114 115 116
usemtl teaching_building
f 108 107 106 105 104 103 102 101
f 101 102 110 109
f 102 103 111 110
f 103 104 112 111
f 104 105 113 112
f 105 106 114 113
f 106 107 115 114
f 107 108 116 115
f 108 101 109 116
o SD0626_T008_8hao
v -151.932 26.298 0.000
v -96.075 25.856 0.000
v -96.093 23.479 0.000
v -88.655 23.413 0.000
v -88.682 19.843 0.000
v -84.298 19.810 0.000
v -84.405 6.843 0.000
v -103.664 7.009 0.000
v -103.611 13.652 0.000
v -152.031 14.039 0.000
v -151.932 26.298 10.850
v -96.075 25.856 10.850
v -96.093 23.479 10.850
v -88.655 23.413 10.850
v -88.682 19.843 10.850
v -84.298 19.810 10.850
v -84.405 6.843 10.850
v -103.664 7.009 10.850
v -103.611 13.652 10.850
v -152.031 14.039 10.850
usemtl roof
f 127 128 129 130 131 132 133 134 135 136
usemtl teaching_building
f 126 125 124 123 122 121 120 119 118 117
f 117 118 128 127
f 118 119 129 128
f 119 120 130 129
f 120 121 131 130
f 121 122 132 131
f 122 123 133 132
f 123 124 134 133
f 124 125 135 134
f 125 126 136 135
f 126 117 127 136
o SD0626_T009_9hao
v 91.837 6.268 0.000
v 91.828 7.816 0.000
v 98.855 7.816 0.000
v 98.855 9.474 0.000
v 133.525 9.518 0.000
v 133.543 -8.577 0.000
v 84.676 -8.632 0.000
v 84.667 6.257 0.000
v 91.837 6.268 7.820
v 91.828 7.816 7.820
v 98.855 7.816 7.820
v 98.855 9.474 7.820
v 133.525 9.518 7.820
v 133.543 -8.577 7.820
v 84.676 -8.632 7.820
v 84.667 6.257 7.820
usemtl roof
f 145 146 147 148 149 150 151 152
usemtl teaching_building
f 144 143 142 141 140 139 138 137
f 137 138 146 145
f 138 139 147 146
f 139 140 148 147
f 140 141 149 148
f 141 142 150 149
f 142 143 151 150
f 143 144 152 151
f 144 137 145 152
o SD0626_T010_10hao
v 31.560 5.716 0.000
v 31.560 7.263 0.000
v 38.587 7.274 0.000
v 38.587 8.932 0.000
v 73.248 8.966 0.000
v 73.275 -9.130 0.000
v 24.408 -9.174 0.000
v 24.390 5.705 0.000
v 31.560 5.716 10.020
v 31.560 7.263 10.020
v 38.587 7.274 10.020
v 38.587 8.932 10.020
v 73.248 8.966 10.020
v 73.275 -9.130 10.020
v 24.408 -9.174 10.020
v 24.390 5.705 10.020
usemtl roof
f 161 162 163 164 165 166 167 168
usemtl teaching_building
f 160 159 158 157 156 155 154 153
f 153 154 162 161
f 154 155 163 162
f 155 156 164 163
f 156 157 165 164
f 157 158 166 165
f 158 159 167 166
f 159 160 168 167
f 160 153 161 168
o SD0626_T011_11hao
v -148.093 -22.395 0.000
v -92.227 -22.826 0.000
v -92.244 -25.213 0.000
v -84.807 -25.269 0.000
v -84.843 -28.839 0.000
v -80.450 -28.883 0.000
v -80.557 -41.839 0.000
v -99.825 -41.684 0.000
v -99.762 -35.029 0.000
v -148.191 -34.654 0.000
v -148.093 -22.395 9.540
v -92.227 -22.826 9.540
v -92.244 -25.213 9.540
v -84.807 -25.269 9.540
v -84.843 -28.839 9.540
v -80.450 -28.883 9.540
v -80.557 -41.839 9.540
v -99.825 -41.684 9.540
v -99.762 -35.029 9.540
v -148.191 -34.654 9.540
usemtl roof
f 179 180 181 182 183 184 185 186 187 188
usemtl teaching_building
f 178 177 176 175 174 173 172 171 170 169
f 169 170 180 179
f 170 171 181 180
f 171 172 182 181
f 172 173 183 182
f 173 174 184 183
f 174 175 185 184
f 175 176 186 185
f 176 177 187 186
f 177 178 188 187
f 178 169 179 188
o SD0626_T012_12hao
v 51.640 -46.360 0.000
v 51.640 -44.812 0.000
v 58.676 -44.834 0.000
v 58.685 -42.347 0.000
v 127.552 -42.557 0.000
v 127.489 -60.509 0.000
v 44.417 -60.255 0.000
v 44.462 -46.338 0.000
v 51.640 -46.360 11.080
v 51.640 -44.812 11.080
v 58.676 -44.834 11.080
v 58.685 -42.347 11.080
v 127.552 -42.557 11.080
v 127.489 -60.509 11.080
v 44.417 -60.255 11.080
v 44.462 -46.338 11.080
usemtl roof
f 197 198 199 200 201 202 203 204
usemtl teaching_building
f 196 195 194 193 192 191 190 189
f 189 190 198 197
f 190 191 199 198
f 191 192 200 199
f 192 193 201 200
f 193 194 202 201
f 194 195 203 202
f 195 196 204 203
f 196 189 197 204
o SD0626_T013_13hao
v -82.512 -54.728 0.000
v -86.030 -62.432 0.000
v -86.744 -70.855 0.000
v -84.575 -79.024 0.000
v -79.771 -85.999 0.000
v -72.887 -90.974 0.000
v -64.726 -93.372 0.000
v -56.226 -92.919 0.000
v -48.378 -89.658 0.000
v -42.074 -83.976 0.000
v -38.253 -77.079 0.000
v -36.798 -69.330 0.000
v -37.851 -61.526 0.000
v -41.316 -54.429 0.000
v -46.842 -48.781 0.000
v -53.869 -45.133 0.000
v -61.700 -43.839 0.000
v -69.539 -45.055 0.000
v -76.602 -48.648 0.000
v -82.512 -54.728 9.510
v -86.030 -62.432 9.510
v -86.744 -70.855 9.510
v -84.575 -79.024 9.510
v -79.771 -85.999 9.510
v -72.887 -90.974 9.510
v -64.726 -93.372 9.510
v -56.226 -92.919 9.510
v -48.378 -89.658 9.510
v -42.074 -83.976 9.510
v -38.253 -77.079 9.510
v -36.798 -69.330 9.510
v -37.851 -61.526 9.510
v -41.316 -54.429 9.510
v -46.842 -48.781 9.510
v -53.869 -45.133 9.510
v -61.700 -43.839 9.510
v -69.539 -45.055 9.510
v -76.602 -48.648 9.510
usemtl roof
f 224 225 226 227 228 229 230 231 232 233 234 235 236 237 238 239 240 241 242
usemtl teaching_building
f 223 222 221 220 219 218 217 216 215 214 213 212 211 210 209 208 207 206 205
f 205 206 225 224
f 206 207 226 225
f 207 208 227 226
f 208 209 228 227
f 209 210 229 228
f 210 211 230 229
f 211 212 231 230
f 212 213 232 231
f 213 214 233 232
f 214 215 234 233
f 215 216 235 234
f 216 217 236 235
f 217 218 237 236
f 218 219 238 237
f 219 220 239 238
f 220 221 240 239
f 221 222 241 240
f 222 223 242 241
f 223 205 224 242
o SD0626_T014_14hao
v -96.593 -72.491 0.000
v -96.548 -70.347 0.000
v -89.361 -70.468 0.000
v -89.611 -83.976 0.000
v -139.450 -83.070 0.000
v -139.236 -71.707 0.000
v -96.593 -72.491 10.190
v -96.548 -70.347 10.190
v -89.361 -70.468 10.190
v -89.611 -83.976 10.190
v -139.450 -83.070 10.190
v -139.236 -71.707 10.190
usemtl roof
f 249 250 251 252 253 254
usemtl teaching_building
f 248 247 246 245 244 243
f 243 244 250 249
f 244 245 251 250
f 245 246 252 251
f 246 247 253 252
f 247 248 254 253
f 248 243 249 254
o SD0626_T015_15hao
v 107.043 -99.165 0.000
v 134.721 -99.308 0.000
v 134.811 -83.203 0.000
v 107.141 -83.048 0.000
v 107.043 -99.165 8.140
v 134.721 -99.308 8.140
v 134.811 -83.203 8.140
v 107.141 -83.048 8.140
usemtl roof
f 259 260 261 262
usemtl teaching_building
f 258 257 256 255
f 255 256 260 259
f 256 257 261 260
f 257 258 262 261
f 258 255 259 262
o SD0626_T016_16hao
v 38.989 -128.469 0.000
v 39.587 -96.689 0.000
v 41.185 -93.140 0.000
v 45.712 -87.790 0.000
v 53.373 -84.253 0.000
v 93.185 -84.275 0.000
v 93.168 -128.480 0.000
v 38.989 -128.469 9.010
v 39.587 -96.689 9.010
v 41.185 -93.140 9.010
v 45.712 -87.790 9.010
v 53.373 -84.253 9.010
v 93.185 -84.275 9.010
v 93.168 -128.480 9.010
usemtl roof
f 270 271 272 273 274 275 276
usemtl teaching_building
f 269 268 267 266 265 264 263
f 263 264 271 270
f 264 265 272 271
f 265 266 273 272
f 266 267 274 273
f 267 268 275 274
f 268 269 276 275
f 269 263 270 276
o SD0626_T017_17hao
v 98.123 -130.470 0.000
v 133.587 -130.646 0.000
v 133.668 -113.491 0.000
v 98.212 -113.325 0.000
v 98.123 -130.470 9.550
v 133.587 -130.646 9.550
v 133.668 -113.491 9.550
v 98.212 -113.325 9.550
usemtl roof
f 281 282 283 284
usemtl teaching_building
f 280 279 278 277
f 277 278 282 281
f 278 279 283 282
f 279 280 284 283
f 280 277 281 284
o SD0626_T018_18hao
v 134.525 -198.993 0.000
v 135.141 -218.084 0.000
v 64.176 -217.465 0.000
v 63.971 -198.993 0.000
v 134.525 -198.993 12.470
v 135.141 -218.084 12.470
v 64.176 -217.465 12.470
v 63.971 -198.993 12.470
usemtl roof
f 289 290 291 292
usemtl teaching_building
f 288 287 286 285
f 285 286 290 289
f 286 287 291 290
f 287 288 292 291
f 288 285 289 292
