# school_id SD0650
# school_name 北宿镇东沙小学
# boundary_source footprint_convex_hull_buffer_20m
# adjacent_block_merge_distance_m 2.0
mtllib ../campus_materials.mtl
o SD0650_campus_boundary
usemtl campus_boundary
v -80.008 -41.919 0.050
v -85.029 39.613 0.050
v 63.113 43.156 0.050
v 60.395 -33.592 0.050
v -80.008 -41.919 0.050
l 1 2 3 4 5 1
o SD0650_T001_1hao
v -61.272 -20.773 0.000
v 41.051 -14.704 0.000
v 42.374 22.654 0.000
v -63.790 20.115 0.000
v -61.272 -20.773 9.900
v 41.051 -14.704 9.900
v 42.374 22.654 9.900
v -63.790 20.115 9.900
usemtl roof
f 10 11 12 13
usemtl teaching_building
f 9 8 7 6
f 6 7 11 10
f 7 8 12 11
f 8 9 13 12
f 9 6 10 13
