# school_id SD0679
# school_name 济宁市育才中学
# boundary_source footprint_convex_hull_buffer_20m
# adjacent_block_merge_distance_m 2.0
mtllib ../campus_materials.mtl
o SD0679_campus_boundary
usemtl campus_boundary
v -138.634 -210.041 0.050
v -137.878 -178.227 0.050
v -133.642 -128.496 0.050
v -91.287 39.187 0.050
v -43.125 99.097 0.050
v 64.622 101.433 0.050
v 151.746 45.326 0.050
v 152.036 3.042 0.050
v -36.597 -209.807 0.050
v -138.634 -210.041 0.050
l 1 2 3 4 5 6 7 8 9 10 1
o SD0679_T001_1hao
v 58.938 81.305 0.000
v 59.238 66.161 0.000
v 70.777 66.161 0.000
v 71.793 6.038 0.000
v 46.701 5.386 0.000
v 46.564 17.844 0.000
v 43.825 19.668 0.000
v 7.483 19.148 0.000
v 7.347 17.324 0.000
v -35.263 17.324 0.000
v -33.830 36.403 0.000
v 46.047 37.840 0.000
v 45.258 57.693 0.000
v -0.754 56.787 0.000
v -0.754 55.604 0.000
v -17.628 55.748 0.000
v -18.009 51.791 0.000
v -33.757 51.791 0.000
v -33.376 79.304 0.000
v 58.938 81.305 22.250
v 59.238 66.161 22.250
v 70.777 66.161 22.250
v 71.793 6.038 22.250
v 46.701 5.386 22.250
v 46.564 17.844 22.250
v 43.825 19.668 22.250
v 7.483 19.148 22.250
v 7.347 17.324 22.250
v -35.263 17.324 22.250
v -33.830 36.403 22.250
v 46.047 37.840 22.250
v 45.258 57.693 22.250
v -0.754 56.787 22.250
v -0.754 55.604 22.250
v -17.628 55.748 22.250
v -18.009 51.791 22.250
v -33.757 51.791 22.250
v -33.376 79.304 22.250
usemtl roof
f 30 31 32 33 34 35 36 37 38 39 40 41 42 43 44 45 46 47 48
usemtl teaching_building
f 29 28 27 26 25 24 23 22 21 20 19 18 17 16 15 14 13 12 11
f 11 12 31 30
f 12 13 32 31
f 13 14 33 32
f 14 15 34 33
f 15 16 35 34
f 16 17 36 35
f 17 18 37 36
f 18 19 38 37
f 19 20 39 38
f 20 21 40 39
f 21 22 41 40
f 22 23 42 41
f 23 24 43 42
f 24 25 44 43
f 25 26 45 44
f 26 27 46 45
f 27 28 47 46
f 28 29 48 47
f 29 11 30 48
o SD0679_T002_2hao
v 131.821 34.369 0.000
v 131.984 10.570 0.000
v 79.531 10.239 0.000
v 79.867 33.209 0.000
v 131.821 34.369 28.040
v 131.984 10.570 28.040
v 79.531 10.239 28.040
v 79.867 33.209 28.040
usemtl roof
f 53 54 55 56
usemtl teaching_building
f 52 51 50 49
f 49 50 54 53
f 50 51 55 54
f 51 52 56 55
f 52 49 53 56
o SD0679_T003_3hao
v -62.234 30.722 0.000
v -61.399 2.589 0.000
v -72.122 2.589 0.000
v -72.965 30.058 0.000
v -62.234 30.722 14.380
v -61.399 2.589 14.380
v -72.122 2.589 14.380
v -72.965 30.058 14.380
usemtl roof
f 61 62 63 64
usemtl teaching_building
f 60 59 58 57
f 57 58 62 61
f 58 59 63 62
f 59 60 64 63
f 60 57 61 64
o SD0679_T004_4hao
v -114.659 -179.161 0.000
v -117.898 -179.315 0.000
v -118.152 -189.994 0.000
v -45.614 -189.828 0.000
v -46.131 -131.341 0.000
v -113.852 -131.816 0.000
v -114.659 -179.161 19.700
v -117.898 -179.315 19.700
v -118.152 -189.994 19.700
v -45.614 -189.828 19.700
v -46.131 -131.341 19.700
v -113.852 -131.816 19.700
usemtl roof
f 71 72 73 74 75 76
usemtl teaching_building
f 70 69 68 67 66 65
f 65 66 72 71
f 66 67 73 72
f 67 68 74 73
f 68 69 75 74
f 69 70 76 75
f 70 65 71 76
