# school_id SD0629
# school_name 青州市夏庄小学
# boundary_source footprint_convex_hull_buffer_20m
# adjacent_block_merge_distance_m 2.0
mtllib ../campus_materials.mtl
o SD0629_campus_boundary
usemtl campus_boundary
v 45.885 -29.348 0.050
v -44.290 -24.566 0.050
v -41.394 29.125 0.050
v 48.783 24.303 0.050
v 45.885 -29.348 0.050
l 1 2 3 4 5 1
o SD0629_T001_1hao
v 27.733 5.400 0.000
v 26.992 -8.318 0.000
v -23.241 -5.654 0.000
v -22.500 8.086 0.000
v 27.733 5.400 14.360
v 26.992 -8.318 14.360
v -23.241 -5.654 14.360
v -22.500 8.086 14.360
usemtl roof
f 10 11 12 13
usemtl teaching_building
f 9 8 7 6
f 6 7 11 10
f 7 8 12 11
f 8 9 13 12
f 9 6 10 13
