# school_id SD0692
# school_name 鱼台县实验中学
# boundary_source footprint_convex_hull_buffer_20m
# adjacent_block_merge_distance_m 2.0
mtllib ../campus_materials.mtl
o SD0692_campus_boundary
usemtl campus_boundary
v -58.032 -83.181 0.050
v -60.079 -47.781 0.050
v -58.495 29.728 0.050
v -44.150 41.217 0.050
v -7.637 45.324 0.050
v 9.205 46.377 0.050
v 42.716 46.986 0.050
v 61.424 39.825 0.050
v 62.962 16.609 0.050
v 66.807 -76.072 0.050
v -58.032 -83.181 0.050
l 1 2 3 4 5 6 7 8 9 10 11 1
o SD0692_T001_1hao
v -38.097 10.625 0.000
v -34.823 10.835 0.000
v -34.759 9.863 0.000
v -27.116 10.349 0.000
v -27.299 13.079 0.000
v -3.651 14.605 0.000
v -3.450 11.443 0.000
v 9.756 12.295 0.000
v 9.519 15.987 0.000
v 31.480 17.424 0.000
v 31.653 14.782 0.000
v 42.989 15.533 0.000
v 42.314 25.725 0.000
v 39.286 25.526 0.000
v 39.195 26.919 0.000
v 10.102 25.040 0.000
v 10.011 26.388 0.000
v -5.894 25.394 0.000
v -5.803 23.868 0.000
v -36.164 21.989 0.000
v -36.045 20.121 0.000
v -38.690 19.966 0.000
v -38.097 10.625 28.870
v -34.823 10.835 28.870
v -34.759 9.863 28.870
v -27.116 10.349 28.870
v -27.299 13.079 28.870
v -3.651 14.605 28.870
v -3.450 11.443 28.870
v 9.756 12.295 28.870
v 9.519 15.987 28.870
v 31.480 17.424 28.870
v 31.653 14.782 28.870
v 42.989 15.533 28.870
v 42.314 25.725 28.870
v 39.286 25.526 28.870
v 39.195 26.919 28.870
v 10.102 25.040 28.870
v 10.011 26.388 28.870
v -5.894 25.394 28.870
v -5.803 23.868 28.870
v -36.164 21.989 28.870
v -36.045 20.121 28.870
v -38.690 19.966 28.870
usemtl roof
f 34 35 36 37 38 39 40 41 42 43 44 45 46 47 48 49 50 51 52 53 54 55
usemtl teaching_building
f 33 32 31 30 29 28 27 26 25 24 23 22 21 20 19 18 17 16 15 14 13 12
f 12 13 35 34
f 13 14 36 35
f 14 15 37 36
f 15 16 38 37
f 16 17 39 38
f 17 18 40 39
f 18 19 41 40
f 19 20 42 41
f 20 21 43 42
f 21 22 44 43
f 22 23 45 44
f 23 24 46 45
f 24 25 47 46
f 25 26 48 47
f 26 27 49 48
f 27 28 50 49
f 28 29 51 50
f 29 30 52 51
f 30 31 53 52
f 31 32 54 53
f 32 33 55 54
f 33 12 34 55
o SD0692_T002_2hao
v -39.219 -62.077 0.000
v 46.008 -57.224 0.000
v 45.169 -42.666 0.000
v 33.687 -43.318 0.000
v 33.924 -47.463 0.000
v -26.879 -50.934 0.000
v -27.135 -46.667 0.000
v -40.067 -47.408 0.000
v -39.219 -62.077 11.090
v 46.008 -57.224 11.090
v 45.169 -42.666 11.090
v 33.687 -43.318 11.090
v 33.924 -47.463 11.090
v -26.879 -50.934 11.090
v -27.135 -46.667 11.090
v -40.067 -47.408 11.090
usemtl roof
f 64 65 66 67 68 69 70 71
usemtl teaching_building
f 63 62 61 60 59 58 57 56
f 56 57 65 64
f 57 58 66 65
f 58 59 67 66
f 59 60 68 67
f 60 61 69 68
f 61 62 70 69
f 62 63 71 70
f 63 56 64 71
