# school_id SD0625
# school_name 诸城繁华中学南湖校区
# boundary_source footprint_convex_hull_buffer_20m
# adjacent_block_merge_distance_m 2.0
mtllib ../campus_materials.mtl
o SD0625_campus_boundary
usemtl campus_boundary
v 119.830 -178.481 0.050
v -15.404 -159.154 0.050
v -224.978 -91.875 0.050
v -317.828 -19.311 0.050
v -324.991 80.978 0.050
v -326.806 109.468 0.050
v -273.070 172.966 0.050
v -210.344 176.650 0.050
v -141.674 179.624 0.050
v -66.355 180.223 0.050
v 167.479 150.808 0.050
v 220.225 127.546 0.050
v 224.999 58.994 0.050
v 234.637 -146.368 0.050
v 179.367 -175.413 0.050
v 119.830 -178.481 0.050
l 1 2 3 4 5 6 7 8 9 10 11 12 13 14 15 16 1
o SD0625_T001_1hao
v -141.162 159.627 0.000
v -140.189 141.056 0.000
v -196.042 138.193 0.000
v -197.006 156.764 0.000
v -141.162 159.627 8.960
v -140.189 141.056 8.960
v -196.042 138.193 8.960
v -197.006 156.764 8.960
usemtl roof
f 21 22 23 24
usemtl teaching_building
f 20 19 18 17
f 17 18 22 21
f 18 19 23 22
f 19 20 24 23
f 20 17 21 24
o SD0625_T002_2hao
v -209.325 156.675 0.000
v -208.126 136.458 0.000
v -262.132 133.296 0.000
v -263.340 153.503 0.000
v -209.325 156.675 8.510
v -208.126 136.458 8.510
v -262.132 133.296 8.510
v -263.340 153.503 8.510
usemtl roof
f 29 30 31 32
usemtl teaching_building
f 28 27 26 25
f 25 26 30 29
f 26 27 31 30
f 27 28 32 31
f 28 25 29 32
o SD0625_T003_3hao
v -67.529 160.213 0.000
v -61.942 61.810 0.000
v -119.381 58.593 0.000
v -124.977 156.996 0.000
v -67.529 160.213 12.480
v -61.942 61.810 12.480
v -119.381 58.593 12.480
v -124.977 156.996 12.480
usemtl roof
f 37 38 39 40
usemtl teaching_building
f 36 35 34 33
f 33 34 38 37
f 34 35 39 38
f 35 36 40 39
f 36 33 37 40
o SD0625_T004_4hao
v -139.504 111.752 0.000
v -138.314 90.451 0.000
v -192.888 87.455 0.000
v -194.077 108.745 0.000
v -139.504 111.752 9.930
v -138.314 90.451 9.930
v -192.888 87.455 9.930
v -194.077 108.745 9.930
usemtl roof
f 45 46 47 48
usemtl teaching_building
f 44 43 42 41
f 41 42 46 45
f 42 43 47 46
f 43 44 48 47
f 44 41 45 48
o SD0625_T005_5hao
v -251.391 106.147 0.000
v -250.093 85.764 0.000
v -305.036 82.326 0.000
v -306.334 102.699 0.000
v -251.391 106.147 11.840
v -250.093 85.764 11.840
v -305.036 82.326 11.840
v -306.334 102.699 11.840
usemtl roof
f 53 54 55 56
usemtl teaching_building
f 52 51 50 49
f 49 50 54 53
f 50 51 55 54
f 51 52 56 55
f 52 49 53 56
o SD0625_T006_6hao
v 173.546 55.675 0.000
v 205.032 57.830 0.000
v 201.112 114.117 0.000
v 169.626 111.951 0.000
v 173.546 55.675 14.330
v 205.032 57.830 14.330
v 201.112 114.117 14.330
v 169.626 111.951 14.330
usemtl roof
f 61 62 63 64
usemtl teaching_building
f 60 59 58 57
f 57 58 62 61
f 58 59 63 62
f 59 60 64 63
f 60 57 61 64
o SD0625_T007_7hao
v -1.529 91.645 0.000
v 0.030 70.377 0.000
v -26.806 68.442 0.000
v -28.356 89.710 0.000
v -1.529 91.645 10.620
v 0.030 70.377 10.620
v -26.806 68.442 10.620
v -28.356 89.710 10.620
usemtl roof
f 69 70 71 72
usemtl teaching_building
f 68 67 66 65
f 65 66 70 69
f 66 67 71 70
f 67 68 72 71
f 68 65 69 72
o SD0625_T008_8hao
v -27.527 41.880 0.000
v 15.091 44.143 0.000
v 12.916 72.864 0.000
v 17.010 73.169 0.000
v 9.402 72.698 0.000
v 8.014 94.762 0.000
v 82.458 99.382 0.000
v 83.846 77.308 0.000
v 21.373 73.439 0.000
v 23.558 44.593 0.000
v 26.154 44.731 0.000
v 86.901 47.627 0.000
v 86.270 60.019 0.000
v 81.007 118.528 0.000
v 108.295 120.970 0.000
v 107.861 128.045 0.000
v 162.083 131.329 0.000
v 163.417 109.563 0.000
v 109.195 106.291 0.000
v 108.584 116.263 0.000
v 108.600 115.986 0.000
v 87.450 114.095 0.000
v 92.325 60.341 0.000
v 165.724 64.242 0.000
v 166.868 43.107 0.000
v 87.342 38.961 0.000
v 26.658 36.069 0.000
v 27.380 23.663 0.000
v -26.473 20.965 0.000
v -27.527 41.880 12.450
v 15.091 44.143 12.450
v 12.916 72.864 12.450
v 17.010 73.169 12.450
v 9.402 72.698 12.450
v 8.014 94.762 12.450
v 82.458 99.382 12.450
v 83.846 77.308 12.450
v 21.373 73.439 12.450
v 23.558 44.593 12.450
v 26.154 44.731 12.450
v 86.901 47.627 12.450
v 86.270 60.019 12.450
v 81.007 118.528 12.450
v 108.295 120.970 12.450
v 107.861 128.045 12.450
v 162.083 131.329 12.450
v 163.417 109.563 12.450
v 109.195 106.291 12.450
v 108.584 116.263 12.450
v 108.600 115.986 12.450
v 87.450 114.095 12.450
v 92.325 60.341 12.450
v 165.724 64.242 12.450
v 166.868 43.107 12.450
v 87.342 38.961 12.450
v 26.658 36.069 12.450
v 27.380 23.663 12.450
v -26.473 20.965 12.450
usemtl roof
f 102 103 104 105 106 107 108 109 110 111 112 113 114 115 116 117 118 119 120 121 122 123 124 125 126 127 128 129 130
usemtl teaching_building
f 101 100 99 98 97 96 95 94 93 92 91 90 89 88 87 86 85 84 83 82 81 80 79 78 77 76 75 74 73
f 73 74 103 102
f 74 75 104 103
f 75 76 105 104
f 76 77 106 105
f 77 78 107 106
f 78 79 108 107
f 79 80 109 108
f 80 81 110 109
f 81 82 111 110
f 82 83 112 111
f 83 84 113 112
f 84 85 114 113
f 85 86 115 114
f 86 87 116 115
f 87 88 117 116
f 88 89 118 117
f 89 90 119 118
f 90 91 120 119
f 91 92 121 120
f 92 93 122 121
f 93 94 123 122
f 94 95 124 123
f 95 96 125 124
f 96 97 126 125
f 97 98 127 126
f 98 99 128 127
f 99 100 129 128
f 100 101 130 129
f 101 73 102 130
o SD0625_T008_8hao_seg02
v 149.828 108.734 0.000
v 158.136 109.243 0.000
v 161.326 64.010 0.000
v 153.018 63.567 0.000
v 149.828 108.734 12.450
v 158.136 109.243 12.450
v 161.326 64.010 12.450
v 153.018 63.567 12.450
usemtl roof
f 135 136 137 138
usemtl teaching_building
f 134 133 132 131
f 131 132 136 135
f 132 133 137 136
f 133 134 138 137
f 134 131 135 138
o SD0625_T009_9hao
v -137.413 65.867 0.000
v -135.890 44.367 0.000
v -189.896 40.597 0.000
v -191.410 62.108 0.000
v -137.413 65.867 20.350
v -135.890 44.367 20.350
v -189.896 40.597 20.350
v -191.410 62.108 20.350
usemtl roof
f 143 144 145 146
usemtl teaching_building
f 142 141 140 139
f 139 140 144 143
f 140 141 145 144
f 141 142 146 145
f 142 139 143 146
o SD0625_T010_10hao
v -248.336 57.178 0.000
v -247.480 38.431 0.000
v -301.512 36.010 0.000
v -302.368 54.746 0.000
v -248.336 57.178 11.560
v -247.480 38.431 11.560
v -301.512 36.010 11.560
v -302.368 54.746 11.560
usemtl roof
f 151 152 153 154
usemtl teaching_building
f 150 149 148 147
f 147 148 152 151
f 148 149 153 152
f 149 150 154 153
f 150 147 151 154
o SD0625_T011_11hao
v -244.010 14.200 0.000
v -242.848 -5.818 0.000
v -298.512 -9.024 0.000
v -299.683 11.006 0.000
v -244.010 14.200 9.420
v -242.848 -5.818 9.420
v -298.512 -9.024 9.420
v -299.683 11.006 9.420
usemtl roof
f 159 160 161 162
usemtl teaching_building
f 158 157 156 155
f 155 156 160 159
f 156 157 161 160
f 157 158 162 161
f 158 155 159 162
o SD0625_T012_12hao
v -148.236 14.068 0.000
v -143.757 -69.655 0.000
v -215.471 -73.922 0.000
v -220.679 9.668 0.000
v -148.236 14.068 11.200
v -143.757 -69.655 11.200
v -215.471 -73.922 11.200
v -220.679 9.668 11.200
usemtl roof
f 167 168 169 170
usemtl teaching_building
f 166 165 164 163
f 163 164 168 167
f 164 165 169 168
f 165 166 170 169
f 166 163 167 170
o SD0625_T013_13hao
v 120.250 -149.046 0.000
v 97.877 -150.128 0.000
v 96.984 -131.913 0.000
v 17.467 -136.024 0.000
v 16.287 -113.628 0.000
v 25.180 -113.168 0.000
v 22.546 -79.006 0.000
v -19.615 -81.682 0.000
v -19.923 -77.243 0.000
v -46.532 -79.062 0.000
v -47.911 -59.242 0.000
v -42.928 -58.900 0.000
v -41.964 -72.795 0.000
v -20.333 -71.318 0.000
v -21.138 -59.707 0.000
v 33.102 -56.004 0.000
v 33.786 -67.972 0.000
v 93.173 -64.305 0.000
v 173.789 -59.331 0.000
v 175.186 -82.975 0.000
v 163.371 -83.661 0.000
v 167.040 -83.473 0.000
v 169.563 -132.007 0.000
v 172.717 -131.845 0.000
v 173.951 -155.666 0.000
v 120.739 -158.408 0.000
v 120.250 -149.046 16.890
v 97.877 -150.128 16.890
v 96.984 -131.913 16.890
v 17.467 -136.024 16.890
v 16.287 -113.628 16.890
v 25.180 -113.168 16.890
v 22.546 -79.006 16.890
v -19.615 -81.682 16.890
v -19.923 -77.243 16.890
v -46.532 -79.062 16.890
v -47.911 -59.242 16.890
v -42.928 -58.900 16.890
v -41.964 -72.795 16.890
v -20.333 -71.318 16.890
v -21.138 -59.707 16.890
v 33.102 -56.004 16.890
v 33.786 -67.972 16.890
v 93.173 -64.305 16.890
v 173.789 -59.331 16.890
v 175.186 -82.975 16.890
v 163.371 -83.661 16.890
v 167.040 -83.473 16.890
v 169.563 -132.007 16.890
v 172.717 -131.845 16.890
v 173.951 -155.666 16.890
v 120.739 -158.408 16.890
usemtl roof
f 197 198 199 200 201 202 203 204 205 206 207 208 209 210 211 212 213 214 215 216 217 218 219 220 221 222
usemtl teaching_building
f 196 195 194 193 192 191 190 189 188 187 186 185 184 183 182 181 180 179 178 177 176 175 174 173 172 171
f 171 172 198 197
f 172 173 199 198
f 173 174 200 199
f 174 175 201 200
f 175 176 202 201
f 176 177 203 202
f 177 178 204 203
f 178 179 205 204
f 179 180 206 205
f 180 181 207 206
f 181 182 208 207
f 182 183 209 208
f 183 184 210 209
f 184 185 211 210
f 185 186 212 211
f 186 187 213 212
f 187 188 214 213
f 188 189 215 214
f 189 190 216 215
f 190 191 217 216
f 191 192 218 217
f 192 193 219 218
f 193 194 220 219
f 194 195 221 220
f 195 196 222 221
f 196 171 197 222
o SD0625_T013_13hao_seg02
v -34.980 16.621 0.000
v -30.402 -57.618 0.000
v -100.268 -61.531 0.000
v -105.143 12.321 0.000
v -34.980 16.621 16.890
v -30.402 -57.618 16.890
v -100.268 -61.531 16.890
v -105.143 12.321 16.890
usemtl roof
f 227 228 229 230
usemtl teaching_building
f 226 225 224 223
f 223 224 228 227
f 224 225 229 228
f 225 226 230 229
f 226 223 227 230
o SD0625_T014_14hao
v 210.619 -79.980 0.000
v 214.062 -134.587 0.000
v 185.081 -136.377 0.000
v 181.638 -81.782 0.000
v 210.619 -79.980 9.620
v 214.062 -134.587 9.620
v 185.081 -136.377 9.620
v 181.638 -81.782 9.620
usemtl roof
f 235 236 237 238
usemtl teaching_building
f 234 233 232 231
f 231 232 236 235
f 232 233 237 236
f 233 234 238 237
f 234 231 235 238
o SD0625_T015_15hao
v 9.195 -114.081 0.000
v 10.456 -138.500 0.000
v -10.901 -139.594 0.000
v -12.163 -115.176 0.000
v 9.195 -114.081 10.790
v 10.456 -138.500 10.790
v -10.901 -139.594 10.790
v -12.163 -115.176 10.790
usemtl roof
f 243 244 245 246
usemtl teaching_building
f 242 241 240 239
f 239 240 244 243
f 240 241 245 244
f 241 242 246 245
f 242 239 243 246
