# school_id SD0620
# school_name 诸城市文化路小学(南校区)
# boundary_source footprint_convex_hull_buffer_20m
# adjacent_block_merge_distance_m 2.0
mtllib ../campus_materials.mtl
o SD0620_campus_boundary
usemtl campus_boundary
v -61.379 -110.981 0.050
v -67.618 -31.266 0.050
v -75.511 107.906 0.050
v 48.362 118.753 0.050
v 63.586 -36.126 0.050
v 64.680 -50.030 0.050
v 67.322 -87.448 0.050
v 16.696 -105.558 0.050
v -61.379 -110.981 0.050
l 1 2 3 4 5 6 7 8 9 1
o SD0620_T001_1hao
v 43.663 -37.889 0.000
v -46.113 -46.257 0.000
v -47.662 -29.919 0.000
v 33.700 -22.325 0.000
v 28.205 35.764 0.000
v -50.230 28.446 0.000
v -51.221 38.837 0.000
v 34.781 47.691 0.000
v 43.663 -37.889 23.880
v -46.113 -46.257 23.880
v -47.662 -29.919 23.880
v 33.700 -22.325 23.880
v 28.205 35.764 23.880
v -50.230 28.446 23.880
v -51.221 38.837 23.880
v 34.781 47.691 23.880
usemtl roof
f 18 19 20 21 22 23 24 25
usemtl teaching_building
f 17 16 15 14 13 12 11 10
f 10 11 19 18
f 11 12 20 19
f 12 13 21 20
f 13 14 22 21
f 14 15 23 22
f 15 16 24 23
f 16 17 25 24
f 17 10 18 25
o SD0620_T001_1hao_seg02
v 34.781 47.691 0.000
v 15.864 46.033 0.000
v 12.783 80.665 0.000
v -53.130 74.884 0.000
v -54.445 89.674 0.000
v 30.394 97.103 0.000
v 34.781 47.691 23.880
v 15.864 46.033 23.880
v 12.783 80.665 23.880
v -53.130 74.884 23.880
v -54.445 89.674 23.880
v 30.394 97.103 23.880
usemtl roof
f 32 33 34 35 36 37
usemtl teaching_building
f 31 30 29 28 27 26
f 26 27 33 32
f 27 28 34 33
f 28 29 35 34
f 29 30 36 35
f 30 31 37 36
f 31 26 32 37
o SD0620_T002_2hao
v 44.735 -51.518 0.000
v 46.303 -73.726 0.000
v 11.873 -76.114 0.000
v 12.558 -85.797 0.000
v -42.987 -89.655 0.000
v -45.230 -57.775 0.000
v 44.735 -51.518 25.060
v 46.303 -73.726 25.060
v 11.873 -76.114 25.060
v 12.558 -85.797 25.060
v -42.987 -89.655 25.060
v -45.230 -57.775 25.060
usemtl roof
f 44 45 46 47 48 49
usemtl teaching_building
f 43 42 41 40 39 38
f 38 39 45 44
f 39 40 46 45
f 40 41 47 46
f 41 42 48 47
f 42 43 49 48
f 43 38 44 49
