# school_id SD0666
# school_name 汶上县圣泽中学（有光伏）
# boundary_source footprint_convex_hull_buffer_20m
# adjacent_block_merge_distance_m 2.0
mtllib ../campus_materials.mtl
o SD0666_campus_boundary
usemtl campus_boundary
v 76.358 -39.682 0.050
v -84.028 -18.567 0.050
v -76.358 39.682 0.050
v 84.028 18.567 0.050
v 76.358 -39.682 0.050
l 1 2 3 4 5 1
o SD0666_T001_1hao
v -59.140 17.243 0.000
v 61.588 1.349 0.000
v 59.140 -17.243 0.000
v -61.588 -1.349 0.000
v -59.140 17.243 12.940
v 61.588 1.349 12.940
v 59.140 -17.243 12.940
v -61.588 -1.349 12.940
usemtl roof
f 10 11 12 13
usemtl teaching_building
f 9 8 7 6
f 6 7 11 10
f 7 8 12 11
f 8 9 13 12
f 9 6 10 13
