# school_id SD0615
# school_name 诸城市府前街小学
# boundary_source footprint_convex_hull_buffer_20m
# adjacent_block_merge_distance_m 2.0
mtllib ../campus_materials.mtl
o SD0615_campus_boundary
usemtl campus_boundary
v -78.711 -52.216 0.050
v -79.716 4.582 0.050
v -0.368 52.450 0.050
v 27.459 53.304 0.050
v 58.906 41.647 0.050
v 59.724 16.055 0.050
v 40.825 -50.490 0.050
v -11.133 -51.746 0.050
v -78.711 -52.216 0.050
l 1 2 3 4 5 6 7 8 9 1
o SD0615_T001_1hao
v 24.169 33.194 0.000
v 24.368 27.093 0.000
v 39.346 27.568 0.000
v 39.635 18.526 0.000
v 5.957 17.487 0.000
v 5.480 32.620 0.000
v 24.169 33.194 9.700
v 24.368 27.093 9.700
v 39.346 27.568 9.700
v 39.635 18.526 9.700
v 5.957 17.487 9.700
v 5.480 32.620 9.700
usemtl roof
f 16 17 18 19 20 21
usemtl teaching_building
f 15 14 13 12 11 10
f 10 11 17 16
f 11 12 18 17
f 12 13 19 18
f 13 14 20 19
f 14 15 21 20
f 15 10 16 21
o SD0615_T002_2hao
v 24.989 -5.660 0.000
v 25.611 -30.852 0.000
v -11.444 -31.748 0.000
v -12.066 -6.567 0.000
v 24.989 -5.660 9.900
v 25.611 -30.852 9.900
v -11.444 -31.748 9.900
v -12.066 -6.567 9.900
usemtl roof
f 26 27 28 29
usemtl teaching_building
f 25 24 23 22
f 22 23 27 26
f 23 24 28 27
f 24 25 29 28
f 25 22 26 29
o SD0615_T003_3hao
v -15.110 -5.815 0.000
v -14.660 -31.317 0.000
v -59.064 -32.079 0.000
v -59.515 -6.589 0.000
v -15.110 -5.815 9.900
v -14.660 -31.317 9.900
v -59.064 -32.079 9.900
v -59.515 -6.589 9.900
usemtl roof
f 34 35 36 37
usemtl teaching_building
f 33 32 31 30
f 30 31 35 34
f 31 32 36 35
f 32 33 37 36
f 33 30 34 37
