# school_id SD0662
# school_name 梁山县第一中学
# boundary_source footprint_convex_hull_buffer_20m
# adjacent_block_merge_distance_m 2.0
mtllib ../campus_materials.mtl
o SD0662_campus_boundary
usemtl campus_boundary
v -87.458 -63.551 0.050
v -88.452 -22.908 0.050
v -90.459 59.202 0.050
v 87.458 63.551 0.050
v 88.452 22.908 0.050
v 90.459 -59.202 0.050
v -87.458 -63.551 0.050
l 1 2 3 4 5 6 7 1
o SD0662_T001_1hao
v -69.976 39.697 0.000
v 67.953 43.068 0.000
v 68.458 22.419 0.000
v 68.458 22.419 0.000
v 69.976 -39.697 0.000
v -67.953 -43.068 0.000
v -68.458 -22.419 0.000
v -68.458 -22.419 0.000
v -69.976 39.697 13.310
v 67.953 43.068 13.310
v 68.458 22.419 13.310
v 68.458 22.419 13.310
v 69.976 -39.697 13.310
v -67.953 -43.068 13.310
v -68.458 -22.419 13.310
v -68.458 -22.419 13.310
usemtl roof
f 16 17 18 19 20 21 22 23
usemtl teaching_building
f 15 14 13 12 11 10 9 8
f 8 9 17 16
f 9 10 18 17
f 10 11 19 18
f 11 12 20 19
f 12 13 21 20
f 13 14 22 21
f 14 15 23 22
f 15 8 16 23
