# school_id SD0607
# school_name 潍柴技师学院
# boundary_source footprint_convex_hull_buffer_20m
# adjacent_block_merge_distance_m 2.0
mtllib ../campus_materials.mtl
o SD0607_campus_boundary
usemtl campus_boundary
v 121.975 -106.980 0.050
v -132.543 -103.120 0.050
v -132.961 -63.659 0.050
v -132.781 -15.201 0.050
v -132.079 45.239 0.050
v -55.129 85.029 0.050
v 10.315 84.567 0.050
v 32.676 84.366 0.050
v 117.556 48.927 0.050
v 123.037 -11.379 0.050
v 122.573 -67.735 0.050
v 121.975 -106.980 0.050
l 1 2 3 4 5 6 7 8 9 10 11 12 1
o SD0607_T001_1hao
v 26.518 45.408 0.000
v 26.309 23.569 0.000
v 2.600 23.773 0.000
v 2.906 57.379 0.000
v 4.320 60.760 0.000
v 6.885 63.160 0.000
v 10.154 64.568 0.000
v 28.582 64.402 0.000
v 28.538 59.704 0.000
v 32.606 59.667 0.000
v 32.479 45.352 0.000
v 28.029 45.394 0.000
v 28.029 45.389 0.000
v 27.835 45.396 0.000
v 26.518 45.408 9.900
v 26.309 23.569 9.900
v 2.600 23.773 9.900
v 2.906 57.379 9.900
v 4.320 60.760 9.900
v 6.885 63.160 9.900
v 10.154 64.568 9.900
v 28.582 64.402 9.900
v 28.538 59.704 9.900
v 32.606 59.667 9.900
v 32.479 45.352 9.900
v 28.029 45.394 9.900
v 28.029 45.389 9.900
v 27.835 45.396 9.900
usemtl roof
f 27 28 29 30 31 32 33 34 35 36 37 38 39 40
usemtl teaching_building
f 26 25 24 23 22 21 20 19 18 17 16 15 14 13
f 13 14 28 27
f 14 15 29 28
f 15 16 30 29
f 16 17 31 30
f 17 18 32 31
f 18 19 33 32
f 19 20 34 33
f 20 21 35 34
f 21 22 36 35
f 22 23 37 36
f 23 24 38 37
f 24 25 39 38
f 25 26 40 39
f 26 13 27 40
o SD0607_T002_2hao
v -111.659 12.831 0.000
v -74.458 13.544 0.000
v -41.101 45.686 0.000
v -15.118 44.982 0.000
v -15.694 64.003 0.000
v -50.330 64.995 0.000
v -83.410 33.557 0.000
v -112.220 32.992 0.000
v -111.659 12.831 9.900
v -74.458 13.544 9.900
v -41.101 45.686 9.900
v -15.118 44.982 9.900
v -15.694 64.003 9.900
v -50.330 64.995 9.900
v -83.410 33.557 9.900
v -112.220 32.992 9.900
usemtl roof
f 49 50 51 52 53 54 55 56
usemtl teaching_building
f 48 47 46 45 44 43 42 41
f 41 42 50 49
f 42 43 51 50
f 43 44 52 51
f 44 45 53 52
f 45 46 54 53
f 46 47 55 54
f 47 48 56 55
f 48 41 49 56
o SD0607_T003_3hao
v 98.655 9.532 0.000
v 98.729 35.114 0.000
v 55.590 35.244 0.000
v 55.507 9.671 0.000
v 98.655 9.532 9.900
v 98.729 35.114 9.900
v 55.590 35.244 9.900
v 55.507 9.671 9.900
usemtl roof
f 61 62 63 64
usemtl teaching_building
f 60 59 58 57
f 57 58 62 61
f 58 59 63 62
f 59 60 64 63
f 60 57 61 64
o SD0607_T004_4hao
v 102.738 -31.384 0.000
v 103.030 -12.204 0.000
v 52.987 -11.454 0.000
v 52.695 -30.624 0.000
v 102.738 -31.384 9.900
v 103.030 -12.204 9.900
v 52.987 -11.454 9.900
v 52.695 -30.624 9.900
usemtl roof
f 69 70 71 72
usemtl teaching_building
f 68 67 66 65
f 65 66 70 69
f 66 67 71 70
f 67 68 72 71
f 68 65 69 72
o SD0607_T005_5hao
v -112.587 -35.164 0.000
v -41.744 -34.441 0.000
v -41.953 -14.650 0.000
v -112.781 -15.354 0.000
v -112.587 -35.164 9.900
v -41.744 -34.441 9.900
v -41.953 -14.650 9.900
v -112.781 -15.354 9.900
usemtl roof
f 77 78 79 80
usemtl teaching_building
f 76 75 74 73
f 73 74 78 77
f 74 75 79 78
f 75 76 80 79
f 76 73 77 80
o SD0607_T006_6hao
v -28.970 -61.802 0.000
v -28.820 -34.460 0.000
v -28.461 -14.511 0.000
v 31.656 -15.568 0.000
v 31.305 -35.516 0.000
v -18.678 -34.638 0.000
v -18.678 -61.978 0.000
v -28.970 -61.802 9.900
v -28.820 -34.460 9.900
v -28.461 -14.511 9.900
v 31.656 -15.568 9.900
v 31.305 -35.516 9.900
v -18.678 -34.638 9.900
v -18.678 -61.978 9.900
usemtl roof
f 88 89 90 91 92 93 94
usemtl teaching_building
f 87 86 85 84 83 82 81
f 81 82 89 88
f 82 83 90 89
f 83 84 91 90
f 84 85 92 91
f 85 86 93 92
f 86 87 94 93
f 87 81 88 94
o SD0607_T006_6hao_seg02
v 31.155 -62.858 0.000
v 30.796 -82.806 0.000
v -29.314 -81.741 0.000
v -28.970 -61.802 0.000
v 31.155 -62.858 9.900
v 30.796 -82.806 9.900
v -29.314 -81.741 9.900
v -28.970 -61.802 9.900
usemtl roof
f 99 100 101 102
usemtl teaching_building
f 98 97 96 95
f 95 96 100 99
f 96 97 101 100
f 97 98 102 101
f 98 95 99 102
o SD0607_T007_7hao
v -112.751 -83.418 0.000
v -41.924 -82.695 0.000
v -42.133 -62.886 0.000
v -112.961 -63.590 0.000
v -112.751 -83.418 9.900
v -41.924 -82.695 9.900
v -42.133 -62.886 9.900
v -112.961 -63.590 9.900
usemtl roof
f 107 108 109 110
usemtl teaching_building
f 106 105 104 103
f 103 104 108 107
f 104 105 109 108
f 105 106 110 109
f 106 103 107 110
o SD0607_T008_8hao
v 102.282 -86.679 0.000
v 102.574 -67.500 0.000
v 52.531 -66.740 0.000
v 52.239 -85.910 0.000
v 102.282 -86.679 9.900
v 102.574 -67.500 9.900
v 52.531 -66.740 9.900
v 52.239 -85.910 9.900
usemtl roof
f 115 116 117 118
usemtl teaching_building
f 114 113 112 111
f 111 112 116 115
f 112 113 117 116
f 113 114 118 117
f 114 111 115 118
