# school_id SD0693
# school_name 鱼台县第一中学
# boundary_source footprint_convex_hull_buffer_20m
# adjacent_block_merge_distance_m 2.0
mtllib ../campus_materials.mtl
o SD0693_campus_boundary
usemtl campus_boundary
v -52.616 -156.456 0.050
v -127.406 -152.839 0.050
v -133.846 -18.753 0.050
v -134.768 28.890 0.050
v -132.063 165.679 0.050
v -99.710 188.662 0.050
v 202.439 198.405 0.050
v 203.795 157.551 0.050
v 204.929 96.165 0.050
v 115.337 -146.995 0.050
v 46.452 -154.123 0.050
v -52.616 -156.456 0.050
l 1 2 3 4 5 6 7 8 9 10 11 12 1
o SD0693_T001_1hao
v 115.223 97.292 0.000
v 184.863 99.553 0.000
v 184.175 120.279 0.000
v 114.542 118.009 0.000
v 115.223 97.292 6.600
v 184.863 99.553 6.600
v 184.175 120.279 6.600
v 114.542 118.009 6.600
usemtl roof
f 17 18 19 20
usemtl teaching_building
f 16 15 14 13
f 13 14 18 17
f 14 15 19 18
f 15 16 20 19
f 16 13 17 20
o SD0693_T002_2hao
v -37.086 30.860 0.000
v 97.343 34.927 0.000
v 96.739 54.820 0.000
v 73.380 54.116 0.000
v 73.518 49.761 0.000
v -19.832 46.907 0.000
v -19.947 50.854 0.000
v -37.690 50.326 0.000
v -37.086 30.860 6.600
v 97.343 34.927 6.600
v 96.739 54.820 6.600
v 73.380 54.116 6.600
v 73.518 49.761 6.600
v -19.832 46.907 6.600
v -19.947 50.854 6.600
v -37.690 50.326 6.600
usemtl roof
f 29 30 31 32 33 34 35 36
usemtl teaching_building
f 28 27 26 25 24 23 22 21
f 21 22 30 29
f 22 23 31 30
f 23 24 32 31
f 24 25 33 32
f 25 26 34 33
f 26 27 35 34
f 27 28 36 35
f 28 21 29 36
o SD0693_T003_3hao
v 28.650 -24.427 0.000
v 100.009 -23.278 0.000
v 99.627 0.432 0.000
v 75.879 0.061 0.000
v 75.925 -2.737 0.000
v 28.314 -3.496 0.000
v 28.650 -24.427 6.600
v 100.009 -23.278 6.600
v 99.627 0.432 6.600
v 75.879 0.061 6.600
v 75.925 -2.737 6.600
v 28.314 -3.496 6.600
usemtl roof
f 43 44 45 46 47 48
usemtl teaching_building
f 42 41 40 39 38 37
f 37 38 44 43
f 38 39 45 44
f 39 40 46 45
f 40 41 47 46
f 41 42 48 47
f 42 37 43 48
o SD0693_T004_4hao
v -96.159 -20.823 0.000
v -88.288 -29.282 0.000
v -82.963 -32.664 0.000
v -76.154 -32.664 0.000
v -67.635 -29.921 0.000
v -61.881 -23.158 0.000
v -61.675 -18.923 0.000
v -58.274 -17.450 0.000
v -59.329 -4.553 0.000
v -68.277 5.167 0.000
v -82.535 6.853 0.000
v -88.930 3.499 0.000
v -88.434 -17.691 0.000
v -96.235 -17.886 0.000
v -96.159 -20.823 6.600
v -88.288 -29.282 6.600
v -82.963 -32.664 6.600
v -76.154 -32.664 6.600
v -67.635 -29.921 6.600
v -61.881 -23.158 6.600
v -61.675 -18.923 6.600
v -58.274 -17.450 6.600
v -59.329 -4.553 6.600
v -68.277 5.167 6.600
v -82.535 6.853 6.600
v -88.930 3.499 6.600
v -88.434 -17.691 6.600
v -96.235 -17.886 6.600
usemtl roof
f 63 64 65 66 67 68 69 70 71 72 73 74 75 76
usemtl teaching_building
f 62 61 60 59 58 57 56 55 54 53 52 51 50 49
f 49 50 64 63
f 50 51 65 64
f 51 52 66 65
f 52 53 67 66
f 53 54 68 67
f 54 55 69 68
f 55 56 70 69
f 56 57 71 70
f 57 58 72 71
f 58 59 73 72
f 59 60 74 73
f 60 61 75 74
f 61 62 76 75
f 62 49 63 76
o SD0693_T005_5hao
v 30.789 -79.194 0.000
v 99.199 -75.664 0.000
v 98.046 -53.594 0.000
v 76.437 -54.715 0.000
v 76.719 -60.126 0.000
v 29.926 -62.526 0.000
v 30.789 -79.194 6.600
v 99.199 -75.664 6.600
v 98.046 -53.594 6.600
v 76.437 -54.715 6.600
v 76.719 -60.126 6.600
v 29.926 -62.526 6.600
usemtl roof
f 83 84 85 86 87 88
usemtl teaching_building
f 82 81 80 79 78 77
f 77 78 84 83
f 78 79 85 84
f 79 80 86 85
f 80 81 87 86
f 81 82 88 87
f 82 77 83 88
o SD0693_T006_6hao
v -109.064 -83.419 0.000
v -40.654 -79.899 0.000
v -41.518 -63.239 0.000
v -88.319 -65.658 0.000
v -88.602 -60.237 0.000
v -110.210 -61.349 0.000
v -109.064 -83.419 6.600
v -40.654 -79.899 6.600
v -41.518 -63.239 6.600
v -88.319 -65.658 6.600
v -88.602 -60.237 6.600
v -110.210 -61.349 6.600
usemtl roof
f 95 96 97 98 99 100
usemtl teaching_building
f 94 93 92 91 90 89
f 89 90 96 95
f 90 91 97 96
f 91 92 98 97
f 92 93 99 98
f 93 94 100 99
f 94 89 95 100
o SD0693_T007_7hao
v -42.091 -136.186 0.000
v -52.368 -136.445 0.000
v -52.559 -131.581 0.000
v -108.300 -133.740 0.000
v -109.179 -111.262 0.000
v -87.532 -110.428 0.000
v -87.333 -115.200 0.000
v -50.144 -113.754 0.000
v -49.923 -119.452 0.000
v -42.496 -119.304 0.000
v 34.434 -117.488 0.000
v 41.800 -117.312 0.000
v 41.708 -111.605 0.000
v 78.928 -111.021 0.000
v 78.851 -106.249 0.000
v 100.521 -105.906 0.000
v 100.880 -128.384 0.000
v 45.101 -129.274 0.000
v 45.185 -134.147 0.000
v 34.839 -134.370 0.000
v -42.091 -136.186 6.600
v -52.368 -136.445 6.600
v -52.559 -131.581 6.600
v -108.300 -133.740 6.600
v -109.179 -111.262 6.600
v -87.532 -110.428 6.600
v -87.333 -115.200 6.600
v -50.144 -113.754 6.600
v -49.923 -119.452 6.600
v -42.496 -119.304 6.600
v 34.434 -117.488 6.600
v 41.800 -117.312 6.600
v 41.708 -111.605 6.600
v 78.928 -111.021 6.600
v 78.851 -106.249 6.600
v 100.521 -105.906 6.600
v 100.880 -128.384 6.600
v 45.101 -129.274 6.600
v 45.185 -134.147 6.600
v 34.839 -134.370 6.600
usemtl roof
f 121 122 123 124 125 126 127 128 129 130 131 132 133 134 135 136 137 138 139 140
usemtl teaching_building
f 120 119 118 117 116 115 114 113 112 111 110 109 108 107 106 105 104 103 102 101
f 101 102 122 121
f 102 103 123 122
f 103 104 124 123
f 104 105 125 124
f 105 106 126 125
f 106 107 127 126
f 107 108 128 127
f 108 109 129 128
f 109 110 130 129
f 110 111 131 130
f 111 112 132 131
f 112 113 133 132
f 113 114 134 133
f 114 115 135 134
f 115 116 136 135
f 116 117 137 136
f 117 118 138 137
f 118 119 139 138
f 119 120 140 139
f 120 101 121 140
