# school_id SD0631
# school_name 青州市实验小学
# boundary_source footprint_convex_hull_buffer_20m
# adjacent_block_merge_distance_m 2.0
mtllib ../campus_materials.mtl
o SD0631_campus_boundary
usemtl campus_boundary
v 17.197 -74.074 0.050
v -43.032 -69.996 0.050
v -44.984 -19.005 0.050
v -44.355 7.700 0.050
v -42.952 32.442 0.050
v -24.069 64.162 0.050
v 69.738 54.743 0.050
v 70.076 20.546 0.050
v 68.628 3.412 0.050
v 17.197 -74.074 0.050
l 1 2 3 4 5 6 7 8 9 10 1
o SD0631_T001_1hao
v 49.916 36.633 0.000
v 49.202 29.647 0.000
v -14.102 36.026 0.000
v -13.397 42.990 0.000
v 49.916 36.633 12.650
v 49.202 29.647 12.650
v -14.102 36.026 12.650
v -13.397 42.990 12.650
usemtl roof
f 15 16 17 18
usemtl teaching_building
f 14 13 12 11
f 11 12 16 15
f 12 13 17 16
f 13 14 18 17
f 14 11 15 18
o SD0631_T002_2hao
v 50.068 21.291 0.000
v 49.131 10.203 0.000
v -9.951 15.111 0.000
v -9.013 26.210 0.000
v 50.068 21.291 15.510
v 49.131 10.203 15.510
v -9.951 15.111 15.510
v -9.013 26.210 15.510
usemtl roof
f 23 24 25 26
usemtl teaching_building
f 22 21 20 19
f 19 20 24 23
f 20 21 25 24
f 21 22 26 25
f 22 19 23 26
o SD0631_T003_3hao
v 14.109 -4.830 0.000
v 12.645 -22.030 0.000
v -24.975 -18.858 0.000
v -23.511 -1.658 0.000
v 14.109 -4.830 25.600
v 12.645 -22.030 25.600
v -24.975 -18.858 25.600
v -23.511 -1.658 25.600
usemtl roof
f 31 32 33 34
usemtl teaching_building
f 30 29 28 27
f 27 28 32 31
f 28 29 33 32
f 29 30 34 33
f 30 27 31 34
o SD0631_T004_4hao
v 7.654 -43.199 0.000
v 6.958 -53.335 0.000
v -23.735 -51.257 0.000
v -23.047 -41.120 0.000
v 7.654 -43.199 8.610
v 6.958 -53.335 8.610
v -23.735 -51.257 8.610
v -23.047 -41.120 8.610
usemtl roof
f 39 40 41 42
usemtl teaching_building
f 38 37 36 35
f 35 36 40 39
f 36 37 41 40
f 37 38 42 41
f 38 35 39 42
