# school_id SD0661
# school_name 曲阜市第一中学
# boundary_source footprint_convex_hull_buffer_20m
# adjacent_block_merge_distance_m 2.0
mtllib ../campus_materials.mtl
o SD0661_campus_boundary
usemtl campus_boundary
v -53.143 -74.643 0.050
v -56.816 71.927 0.050
v 53.143 74.635 0.050
v 56.816 -71.920 0.050
v -53.143 -74.643 0.050
l 1 2 3 4 5 1
o SD0661_T001_1hao
v -33.650 -54.154 0.000
v 36.321 -52.421 0.000
v 33.650 54.149 0.000
v -36.321 52.426 0.000
v -33.650 -54.154 9.900
v 36.321 -52.421 9.900
v 33.650 54.149 9.900
v -36.321 52.426 9.900
usemtl roof
f 10 11 12 13
usemtl teaching_building
f 9 8 7 6
f 6 7 11 10
f 7 8 12 11
f 8 9 13 12
f 9 6 10 13
