# school_id SD0602
# school_name 潍坊聋哑学校
# boundary_source footprint_convex_hull_buffer_20m
# adjacent_block_merge_distance_m 2.0
mtllib ../campus_materials.mtl
o SD0602_campus_boundary
usemtl campus_boundary
v 12.087 -34.256 0.050
v -0.142 -33.209 0.050
v -76.942 -20.089 0.050
v -73.781 72.429 0.050
v 48.803 68.297 0.050
v 46.595 -1.509 0.050
v 38.291 -17.878 0.050
v 27.229 -28.919 0.050
v 12.087 -34.256 0.050
l 1 2 3 4 5 6 7 8 9 1
o SD0602_T001_1hao
v -56.357 -3.316 0.000
v -35.677 -4.012 0.000
v -34.598 27.912 0.000
v -16.701 27.315 0.000
v -16.853 5.373 0.000
v -9.136 4.986 0.000
v -8.378 -3.006 0.000
v -5.915 -7.328 0.000
v -1.945 -11.098 0.000
v 2.399 -13.353 0.000
v 9.501 -13.961 0.000
v 16.308 -11.562 0.000
v 21.901 -5.980 0.000
v 23.864 -1.060 0.000
v 24.301 3.560 0.000
v 26.746 3.571 0.000
v 28.182 48.981 0.000
v -54.475 51.767 0.000
v -56.357 -3.316 15.150
v -35.677 -4.012 15.150
v -34.598 27.912 15.150
v -16.701 27.315 15.150
v -16.853 5.373 15.150
v -9.136 4.986 15.150
v -8.378 -3.006 15.150
v -5.915 -7.328 15.150
v -1.945 -11.098 15.150
v 2.399 -13.353 15.150
v 9.501 -13.961 15.150
v 16.308 -11.562 15.150
v 21.901 -5.980 15.150
v 23.864 -1.060 15.150
v 24.301 3.560 15.150
v 26.746 3.571 15.150
v 28.182 48.981 15.150
v -54.475 51.767 15.150
usemtl roof
f 28 29 30 31 32 33 34 35 36 37 38 39 40 41 42 43 44 45
usemtl teaching_building
f 27 26 25 24 23 22 21 20 19 18 17 16 15 14 13 12 11 10
f 10 11 29 28
f 11 12 30 29
f 12 13 31 30
f 13 14 32 31
f 14 15 33 32
f 15 16 34 33
f 16 17 35 34
f 17 18 36 35
f 18 19 37 36
f 19 20 38 37
f 20 21 39 38
f 21 22 40 39
f 22 23 41 40
f 23 24 42 41
f 24 25 43 42
f 25 26 44 43
f 26 27 45 44
f 27 10 28 45
