# school_id SD0633
# school_name 青州市海岱学校
# boundary_source footprint_convex_hull_buffer_20m
# adjacent_block_merge_distance_m 2.0
mtllib ../campus_materials.mtl
o SD0633_campus_boundary
usemtl campus_boundary
v -112.616 -81.853 0.050
v -114.520 -49.086 0.050
v -116.350 -13.876 0.050
v -116.781 49.622 0.050
v 22.584 84.569 0.050
v 83.725 88.019 0.050
v 86.936 35.805 0.050
v 87.589 22.315 0.050
v 89.645 -26.379 0.050
v 5.707 -75.076 0.050
v -112.616 -81.853 0.050
l 1 2 3 4 5 6 7 8 9 10 11 1
o SD0633_T001_1hao
v 64.984 66.930 0.000
v 66.145 46.657 0.000
v 26.768 44.435 0.000
v 25.607 64.708 0.000
v 64.984 66.930 12.280
v 66.145 46.657 12.280
v 26.768 44.435 12.280
v 25.607 64.708 12.280
usemtl roof
f 16 17 18 19
usemtl teaching_building
f 15 14 13 12
f 12 13 17 16
f 13 14 18 17
f 14 15 19 18
f 15 12 16 19
o SD0633_T002_2hao
v 66.966 34.708 0.000
v 67.609 21.410 0.000
v 9.610 18.668 0.000
v 8.976 31.955 0.000
v 66.966 34.708 19.430
v 67.609 21.410 19.430
v 9.610 18.668 19.430
v 8.976 31.955 19.430
usemtl roof
f 24 25 26 27
usemtl teaching_building
f 23 22 21 20
f 20 21 25 24
f 21 22 26 25
f 22 23 27 26
f 23 20 24 27
o SD0633_T003_3hao
v -96.675 34.045 0.000
v -95.684 13.816 0.000
v -5.129 18.149 0.000
v -6.111 38.389 0.000
v -96.675 34.045 13.810
v -95.684 13.816 13.810
v -5.129 18.149 13.810
v -6.111 38.389 13.810
usemtl roof
f 32 33 34 35
usemtl teaching_building
f 31 30 29 28
f 28 29 33 32
f 29 30 34 33
f 30 31 35 34
f 31 28 32 35
o SD0633_T004_4hao
v 56.923 -1.406 0.000
v 57.128 -4.667 0.000
v 33.677 -6.126 0.000
v 33.311 -0.367 0.000
v 13.565 -1.594 0.000
v 13.948 -7.596 0.000
v 11.511 -7.751 0.000
v 12.199 -18.705 0.000
v 69.153 -15.146 0.000
v 68.242 -0.698 0.000
v 56.923 -1.406 15.020
v 57.128 -4.667 15.020
v 33.677 -6.126 15.020
v 33.311 -0.367 15.020
v 13.565 -1.594 15.020
v 13.948 -7.596 15.020
v 11.511 -7.751 15.020
v 12.199 -18.705 15.020
v 69.153 -15.146 15.020
v 68.242 -0.698 15.020
usemtl roof
f 46 47 48 49 50 51 52 53 54 55
usemtl teaching_building
f 45 44 43 42 41 40 39 38 37 36
f 36 37 47 46
f 37 38 48 47
f 38 39 49 48
f 39 40 50 49
f 40 41 51 50
f 41 42 52 51
f 42 43 53 52
f 43 44 54 53
f 44 45 55 54
f 45 36 46 55
o SD0633_T005_5hao
v -1.531 -8.126 0.000
v -0.933 -18.926 0.000
v -95.756 -24.099 0.000
v -96.354 -13.289 0.000
v -1.531 -8.126 11.660
v -0.933 -18.926 11.660
v -95.756 -24.099 11.660
v -96.354 -13.289 11.660
usemtl roof
f 60 61 62 63
usemtl teaching_building
f 59 58 57 56
f 56 57 61 60
f 57 58 62 61
f 58 59 63 62
f 59 56 60 63
o SD0633_T006_6hao
v -59.324 -49.325 0.000
v -59.512 -45.975 0.000
v -94.550 -47.987 0.000
v -93.809 -60.743 0.000
v -0.201 -55.382 0.000
v -0.754 -45.964 0.000
v -59.324 -49.325 8.490
v -59.512 -45.975 8.490
v -94.550 -47.987 8.490
v -93.809 -60.743 8.490
v -0.201 -55.382 8.490
v -0.754 -45.964 8.490
usemtl roof
f 70 71 72 73 74 75
usemtl teaching_building
f 69 68 67 66 65 64
f 64 65 71 70
f 65 66 72 71
f 66 67 73 72
f 67 68 74 73
f 68 69 75 74
f 69 64 70 75
