# school_id SD0660
# school_name 微山县第二实验中学
# boundary_source footprint_convex_hull_buffer_20m
# adjacent_block_merge_distance_m 2.0
mtllib ../campus_materials.mtl
o SD0660_campus_boundary
usemtl campus_boundary
v 46.090 -98.211 0.050
v -93.519 -90.345 0.050
v -84.964 21.361 0.050
v -73.342 116.720 0.050
v 79.900 109.076 0.050
v 73.917 -4.472 0.050
v 46.090 -98.211 0.050
l 1 2 3 4 5 6 7 1
o SD0660_T001_1hao
v 31.419 -77.353 0.000
v 37.401 -1.053 0.000
v 54.069 -1.053 0.000
v 58.872 90.100 0.000
v -55.742 95.817 0.000
v -60.254 19.025 0.000
v -65.057 19.387 0.000
v -72.019 -71.525 0.000
v 31.419 -77.353 9.900
v 37.401 -1.053 9.900
v 54.069 -1.053 9.900
v 58.872 90.100 9.900
v -55.742 95.817 9.900
v -60.254 19.025 9.900
v -65.057 19.387 9.900
v -72.019 -71.525 9.900
usemtl roof
f 16 17 18 19 20 21 22 23
usemtl teaching_building
f 15 14 13 12 11 10 9 8
f 8 9 17 16
f 9 10 18 17
f 10 11 19 18
f 11 12 20 19
f 12 13 21 20
f 13 14 22 21
f 14 15 23 22
f 15 8 16 23
