# school_id SD0687
# school_name 职业教育中心新校
# boundary_source footprint_convex_hull_buffer_20m
# adjacent_block_merge_distance_m 2.0
mtllib ../campus_materials.mtl
o SD0687_campus_boundary
usemtl campus_boundary
v -178.522 -121.310 0.050
v -201.701 107.968 0.050
v 200.966 119.514 0.050
v 179.508 -106.180 0.050
v -178.522 -121.310 0.050
l 1 2 3 4 5 1
o SD0687_T001_1hao
v 178.913 98.873 0.000
v 161.248 -86.934 0.000
v -160.521 -100.531 0.000
v -179.640 88.592 0.000
v 178.913 98.873 7.930
v 161.248 -86.934 7.930
v -160.521 -100.531 7.930
v -179.640 88.592 7.930
usemtl roof
f 10 11 12 13
usemtl teaching_building
f 9 8 7 6
f 6 7 11 10
f 7 8 12 11
f 8 9 13 12
f 9 6 10 13
