# school_id SD0640
# school_name 中心店镇小赵小学
# boundary_source footprint_convex_hull_buffer_20m
# adjacent_block_merge_distance_m 2.0
mtllib ../campus_materials.mtl
o SD0640_campus_boundary
usemtl campus_boundary
v 7.261 -59.317 0.050
v -63.407 -10.706 0.050
v -42.132 19.807 0.050
v -7.259 59.326 0.050
v 63.411 10.692 0.050
v 42.130 -19.805 0.050
v 7.261 -59.317 0.050
l 1 2 3 4 5 6 7 1
o SD0640_T001_1hao
v 26.380 -7.426 0.000
v 35.490 5.629 0.000
v -3.993 32.800 0.000
v -13.102 19.734 0.000
v 26.380 -7.426 7.760
v 35.490 5.629 7.760
v -3.993 32.800 7.760
v -13.102 19.734 7.760
usemtl roof
f 12 13 14 15
usemtl teaching_building
f 11 10 9 8
f 8 9 13 12
f 9 10 14 13
f 10 11 15 14
f 11 8 12 15
o SD0640_T002_2hao
v 3.993 -32.794 0.000
v 13.102 -19.740 0.000
v -26.380 7.431 0.000
v -35.490 -5.635 0.000
v 3.993 -32.794 10.340
v 13.102 -19.740 10.340
v -26.380 7.431 10.340
v -35.490 -5.635 10.340
usemtl roof
f 20 21 22 23
usemtl teaching_building
f 19 18 17 16
f 16 17 21 20
f 17 18 22 21
f 18 19 23 22
f 19 16 20 23
