# school_id SD0624
# school_name 诸城市龙城中学
# boundary_source footprint_convex_hull_buffer_20m
# adjacent_block_merge_distance_m 2.0
mtllib ../campus_materials.mtl
o SD0624_campus_boundary
usemtl campus_boundary
v -156.607 -137.769 0.050
v -194.167 -57.746 0.050
v -202.214 16.597 0.050
v 135.761 227.783 0.050
v 212.842 233.201 0.050
v 263.193 177.890 0.050
v 267.565 141.688 0.050
v 249.410 71.835 0.050
v 105.622 -11.475 0.050
v -104.295 -126.569 0.050
v -119.526 -132.022 0.050
v -156.607 -137.769 0.050
l 1 2 3 4 5 6 7 8 9 10 11 12 1
o SD0624_T001_1hao
v 204.576 212.571 0.000
v 207.520 176.656 0.000
v 145.915 172.069 0.000
v 142.134 208.182 0.000
v 204.576 212.571 17.370
v 207.520 176.656 17.370
v 145.915 172.069 17.370
v 142.134 208.182 17.370
usemtl roof
f 17 18 19 20
usemtl teaching_building
f 16 15 14 13
f 13 14 18 17
f 14 15 19 18
f 15 16 20 19
f 16 13 17 20
o SD0624_T002_2hao
v 148.229 161.844 0.000
v 244.103 169.150 0.000
v 247.255 143.052 0.000
v 237.161 142.013 0.000
v 234.847 159.124 0.000
v 182.084 154.747 0.000
v 185.866 123.431 0.000
v 229.598 125.719 0.000
v 230.228 118.214 0.000
v 181.031 114.654 0.000
v 155.171 96.492 0.000
v 151.597 103.180 0.000
v 176.826 121.552 0.000
v 173.044 153.907 0.000
v 149.076 152.238 0.000
v 148.229 161.844 14.530
v 244.103 169.150 14.530
v 247.255 143.052 14.530
v 237.161 142.013 14.530
v 234.847 159.124 14.530
v 182.084 154.747 14.530
v 185.866 123.431 14.530
v 229.598 125.719 14.530
v 230.228 118.214 14.530
v 181.031 114.654 14.530
v 155.171 96.492 14.530
v 151.597 103.180 14.530
v 176.826 121.552 14.530
v 173.044 153.907 14.530
v 149.076 152.238 14.530
usemtl roof
f 36 37 38 39 40 41 42 43 44 45 46 47 48 49 50
usemtl teaching_building
f 35 34 33 32 31 30 29 28 27 26 25 24 23 22 21
f 21 22 37 36
f 22 23 38 37
f 23 24 39 38
f 24 25 40 39
f 25 26 41 40
f 26 27 42 41
f 27 28 43 42
f 28 29 44 43
f 29 30 45 44
f 30 31 46 45
f 31 32 47 46
f 32 33 48 47
f 33 34 49 48
f 34 35 50 49
f 35 21 36 50
o SD0624_T003_3hao
v 204.999 99.212 0.000
v 208.781 91.695 0.000
v 228.968 99.632 0.000
v 233.173 92.325 0.000
v 229.598 90.656 0.000
v 232.155 84.952 0.000
v 204.576 71.864 0.000
v 205.206 69.985 0.000
v 189.648 64.768 0.000
v 179.977 88.567 0.000
v 204.999 99.212 16.600
v 208.781 91.695 16.600
v 228.968 99.632 16.600
v 233.173 92.325 16.600
v 229.598 90.656 16.600
v 232.155 84.952 16.600
v 204.576 71.864 16.600
v 205.206 69.985 16.600
v 189.648 64.768 16.600
v 179.977 88.567 16.600
usemtl roof
f 61 62 63 64 65 66 67 68 69 70
usemtl teaching_building
f 60 59 58 57 56 55 54 53 52 51
f 51 52 62 61
f 52 53 63 62
f 53 54 64 63
f 54 55 65 64
f 55 56 66 65
f 56 57 67 66
f 57 58 68 67
f 58 59 69 68
f 59 60 70 69
f 60 51 61 70
o SD0624_T004_4hao
v 92.477 38.459 0.000
v 94.413 36.525 0.000
v 132.977 64.071 0.000
v 131.311 66.558 0.000
v 156.837 85.007 0.000
v 176.250 57.461 0.000
v 149.895 39.288 0.000
v 147.680 41.488 0.000
v 95.800 5.949 0.000
v 78.881 29.362 0.000
v 92.477 38.459 15.970
v 94.413 36.525 15.970
v 132.977 64.071 15.970
v 131.311 66.558 15.970
v 156.837 85.007 15.970
v 176.250 57.461 15.970
v 149.895 39.288 15.970
v 147.680 41.488 15.970
v 95.800 5.949 15.970
v 78.881 29.362 15.970
usemtl roof
f 81 82 83 84 85 86 87 88 89 90
usemtl teaching_building
f 80 79 78 77 76 75 74 73 72 71
f 71 72 82 81
f 72 73 83 82
f 73 74 84 83
f 74 75 85 84
f 75 76 86 85
f 76 77 87 86
f 77 78 88 87
f 78 79 89 88
f 79 80 90 89
f 80 71 81 90
o SD0624_T005_5hao
v -129.731 -90.784 0.000
v -121.447 -86.197 0.000
v -116.504 -78.758 0.000
v -115.226 -69.903 0.000
v -116.504 -65.150 0.000
v -122.078 -56.771 0.000
v -123.833 -55.345 0.000
v -127.498 -54.870 0.000
v -128.280 -47.590 0.000
v -174.643 -52.272 0.000
v -180.981 6.281 0.000
v -127.489 12.195 0.000
v -117.621 -46.513 0.000
v -119.944 -32.662 0.000
v -115.550 -32.088 0.000
v -116.819 -20.691 0.000
v -18.361 -8.509 0.000
v -16.453 -22.758 0.000
v -25.375 -24.494 0.000
v -24.574 -29.081 0.000
v -50.703 -32.242 0.000
v -51.658 -34.464 0.000
v -54.683 -35.415 0.000
v -53.576 -43.639 0.000
v -78.427 -46.325 0.000
v -79.543 -49.177 0.000
v -82.884 -49.807 0.000
v -81.776 -58.186 0.000
v -107.266 -60.717 0.000
v -106.627 -77.111 0.000
v -108.698 -83.433 0.000
v -114.748 -91.823 0.000
v -104.871 -101.319 0.000
v -106.942 -104.480 0.000
v -112.525 -108.272 0.000
v -124.473 -112.550 0.000
v -144.867 -115.711 0.000
v -148.207 -93.150 0.000
v -129.731 -90.784 20.420
v -121.447 -86.197 20.420
v -116.504 -78.758 20.420
v -115.226 -69.903 20.420
v -116.504 -65.150 20.420
v -122.078 -56.771 20.420
v -123.833 -55.345 20.420
v -127.498 -54.870 20.420
v -128.280 -47.590 20.420
v -174.643 -52.272 20.420
v -180.981 6.281 20.420
v -127.489 12.195 20.420
v -117.621 -46.513 20.420
v -119.944 -32.662 20.420
v -115.550 -32.088 20.420
v -116.819 -20.691 20.420
v -18.361 -8.509 20.420
v -16.453 -22.758 20.420
v -25.375 -24.494 20.420
v -24.574 -29.081 20.420
v -50.703 -32.242 20.420
v -51.658 -34.464 20.420
v -54.683 -35.415 20.420
v -53.576 -43.639 20.420
v -78.427 -46.325 20.420
v -79.543 -49.177 20.420
v -82.884 -49.807 20.420
v -81.776 -58.186 20.420
v -107.266 -60.717 20.420
v -106.627 -77.111 20.420
v -108.698 -83.433 20.420
v -114.748 -91.823 20.420
v -104.871 -101.319 20.420
v -106.942 -104.480 20.420
v -112.525 -108.272 20.420
v -124.473 -112.550 20.420
v -144.867 -115.711 20.420
v -148.207 -93.150 20.420
usemtl roof
f 129 130 131 132 133 134 135 136 137 138 139 140 141 142 143 144 145 146 147 148 149 150 151 152 153 154 155 156 157 158 159 160 161 162 163 164 165 166
usemtl teaching_building
f 128 127 126 125 124 123 122 121 120 119 118 117 116 115 114 113 112 111 110 109 108 107 106 105 104 103 102 101 100 99 98 97 96 95 94 93 92 91
f 91 92 130 129
f 92 93 131 130
f 93 94 132 131
f 94 95 133 132
f 95 96 134 133
f 96 97 135 134
f 97 98 136 135
f 98 99 137 136
f 99 100 138 137
f 100 101 139 138
f 101 102 140 139
f 102 103 141 140
f 103 104 142 141
f 104 105 143 142
f 105 106 144 143
f 106 107 145 144
f 107 108 146 145
f 108 109 147 146
f 109 110 148 147
f 110 111 149 148
f 111 112 150 149
f 112 113 151 150
f 113 114 152 151
f 114 115 153 152
f 115 116 154 153
f 116 117 155 154
f 117 118 156 155
f 118 119 157 156
f 119 120 158 157
f 120 121 159 158
f 121 122 160 159
f 122 123 161 160
f 123 124 162 161
f 124 125 163 162
f 125 126 164 163
f 126 127 165 164
f 127 128 166 165
f 128 91 129 166
