# school_id SD0670
# school_name 济宁学院附属中学（红星校区）
# boundary_source footprint_convex_hull_buffer_20m
# adjacent_block_merge_distance_m 2.0
mtllib ../campus_materials.mtl
o SD0670_campus_boundary
usemtl campus_boundary
v -46.740 -99.600 0.050
v -114.028 -98.907 0.050
v -113.984 32.154 0.050
v -111.076 192.802 0.050
v -52.315 192.689 0.050
v 213.504 57.593 0.050
v 216.639 4.960 0.050
v 54.026 -97.688 0.050
v -46.740 -99.600 0.050
l 1 2 3 4 5 6 7 8 9 1
o SD0670_T001_1hao
v -57.124 172.698 0.000
v -57.242 112.830 0.000
v -91.553 112.896 0.000
v -91.435 172.764 0.000
v -57.124 172.698 12.190
v -57.242 112.830 12.190
v -91.553 112.896 12.190
v -91.435 172.764 12.190
usemtl roof
f 14 15 16 17
usemtl teaching_building
f 13 12 11 10
f 10 11 15 14
f 11 12 16 15
f 12 13 17 16
f 13 10 14 17
o SD0670_T002_2hao
v 194.221 44.958 0.000
v 195.972 15.565 0.000
v 189.041 15.156 0.000
v 188.478 24.641 0.000
v 113.197 20.230 0.000
v 112.018 40.150 0.000
v 194.221 44.958 22.790
v 195.972 15.565 22.790
v 189.041 15.156 22.790
v 188.478 24.641 22.790
v 113.197 20.230 22.790
v 112.018 40.150 22.790
usemtl roof
f 24 25 26 27 28 29
usemtl teaching_building
f 23 22 21 20 19 18
f 18 19 25 24
f 19 20 26 25
f 20 21 27 26
f 21 22 28 27
f 22 23 29 28
f 23 18 24 29
o SD0670_T003_3hao
v 50.127 -41.097 0.000
v -13.378 -41.495 0.000
v -13.505 -21.200 0.000
v 44.947 -20.834 0.000
v 44.956 -14.667 0.000
v 33.072 -14.645 0.000
v 33.117 4.047 0.000
v 44.856 4.025 0.000
v 44.874 12.249 0.000
v -12.226 12.249 0.000
v -12.226 33.639 0.000
v 49.919 33.639 0.000
v 50.173 12.249 0.000
v 49.991 -20.802 0.000
v 50.127 -41.097 17.930
v -13.378 -41.495 17.930
v -13.505 -21.200 17.930
v 44.947 -20.834 17.930
v 44.956 -14.667 17.930
v 33.072 -14.645 17.930
v 33.117 4.047 17.930
v 44.856 4.025 17.930
v 44.874 12.249 17.930
v -12.226 12.249 17.930
v -12.226 33.639 17.930
v 49.919 33.639 17.930
v 50.173 12.249 17.930
v 49.991 -20.802 17.930
usemtl roof
f 44 45 46 47 48 49 50 51 52 53 54 55 56 57
usemtl teaching_building
f 43 42 41 40 39 38 37 36 35 34 33 32 31 30
f 30 31 45 44
f 31 32 46 45
f 32 33 47 46
f 33 34 48 47
f 34 35 49 48
f 35 36 50 49
f 36 37 51 50
f 37 38 52 51
f 38 39 53 52
f 39 40 54 53
f 40 41 55 54
f 41 42 56 55
f 42 43 57 56
f 43 30 44 57
o SD0670_T004_4hao
v -77.165 -7.327 0.000
v -77.110 -26.241 0.000
v -88.351 -26.274 0.000
v -88.296 -46.657 0.000
v -93.685 -46.602 0.000
v -93.894 10.558 0.000
v -93.984 31.970 0.000
v -34.725 32.224 0.000
v -34.625 10.812 0.000
v -88.786 10.580 0.000
v -88.732 -7.361 0.000
v -77.165 -7.327 13.750
v -77.110 -26.241 13.750
v -88.351 -26.274 13.750
v -88.296 -46.657 13.750
v -93.685 -46.602 13.750
v -93.894 10.558 13.750
v -93.984 31.970 13.750
v -34.725 32.224 13.750
v -34.625 10.812 13.750
v -88.786 10.580 13.750
v -88.732 -7.361 13.750
usemtl roof
f 69 70 71 72 73 74 75 76 77 78 79
usemtl teaching_building
f 68 67 66 65 64 63 62 61 60 59 58
f 58 59 70 69
f 59 60 71 70
f 60 61 72 71
f 61 62 73 72
f 62 63 74 73
f 63 64 75 74
f 64 65 76 75
f 65 66 77 76
f 66 67 78 77
f 67 68 79 78
f 68 58 69 79
o SD0670_T004_4hao_seg02
v -46.827 -79.598 0.000
v -94.021 -79.112 0.000
v -93.685 -46.602 0.000
v -46.492 -47.089 0.000
v -46.827 -79.598 13.750
v -94.021 -79.112 13.750
v -93.685 -46.602 13.750
v -46.492 -47.089 13.750
usemtl roof
f 84 85 86 87
usemtl teaching_building
f 83 82 81 80
f 80 81 85 84
f 81 82 86 85
f 82 83 87 86
f 83 80 84 87
o SD0670_T005_5hao
v -16.780 -78.261 0.000
v 48.068 -77.797 0.000
v 47.923 -59.148 0.000
v -16.916 -59.624 0.000
v -16.780 -78.261 10.560
v 48.068 -77.797 10.560
v 47.923 -59.148 10.560
v -16.916 -59.624 10.560
usemtl roof
f 92 93 94 95
usemtl teaching_building
f 91 90 89 88
f 88 89 93 92
f 89 90 94 93
f 90 91 95 94
f 91 88 92 95
