# school_id SD0636
# school_name 青州市第二中学
# boundary_source footprint_convex_hull_buffer_20m
# adjacent_block_merge_distance_m 2.0
mtllib ../campus_materials.mtl
o SD0636_campus_boundary
usemtl campus_boundary
v 49.085 -337.880 0.050
v -15.119 -304.900 0.050
v -65.497 3.113 0.050
v -65.102 126.091 0.050
v -38.556 144.985 0.050
v 35.024 145.103 0.050
v 54.644 135.269 0.050
v 115.383 -251.452 0.050
v 117.205 -335.752 0.050
v 49.085 -337.880 0.050
l 1 2 3 4 5 6 7 8 9 10 1
o SD0636_T001_1hao
v -32.133 115.776 0.000
v -45.135 115.754 0.000
v -45.126 111.167 0.000
v -36.836 111.178 0.000
v -36.827 102.699 0.000
v 7.239 102.755 0.000
v 7.230 106.060 0.000
v 30.147 106.093 0.000
v 36.501 109.299 0.000
v 36.483 122.000 0.000
v 30.316 121.989 0.000
v 30.308 125.095 0.000
v -32.151 124.995 0.000
v -32.133 115.776 16.590
v -45.135 115.754 16.590
v -45.126 111.167 16.590
v -36.836 111.178 16.590
v -36.827 102.699 16.590
v 7.239 102.755 16.590
v 7.230 106.060 16.590
v 30.147 106.093 16.590
v 36.501 109.299 16.590
v 36.483 122.000 16.590
v 30.316 121.989 16.590
v 30.308 125.095 16.590
v -32.151 124.995 16.590
usemtl roof
f 24 25 26 27 28 29 30 31 32 33 34 35 36
usemtl teaching_building
f 23 22 21 20 19 18 17 16 15 14 13 12 11
f 11 12 25 24
f 12 13 26 25
f 13 14 27 26
f 14 15 28 27
f 15 16 29 28
f 16 17 30 29
f 17 18 31 30
f 18 19 32 31
f 19 20 33 32
f 20 21 34 33
f 21 22 35 34
f 22 23 36 35
f 23 11 24 36
o SD0636_T002_2hao
v -28.805 80.912 0.000
v -41.753 81.111 0.000
v -41.825 76.291 0.000
v -33.499 76.159 0.000
v -33.641 67.714 0.000
v 10.327 67.006 0.000
v 10.380 70.322 0.000
v 32.244 69.969 0.000
v 37.224 72.953 0.000
v 37.420 85.687 0.000
v 30.406 85.798 0.000
v 30.459 89.225 0.000
v -28.653 90.164 0.000
v -28.805 80.912 14.550
v -41.753 81.111 14.550
v -41.825 76.291 14.550
v -33.499 76.159 14.550
v -33.641 67.714 14.550
v 10.327 67.006 14.550
v 10.380 70.322 14.550
v 32.244 69.969 14.550
v 37.224 72.953 14.550
v 37.420 85.687 14.550
v 30.406 85.798 14.550
v 30.459 89.225 14.550
v -28.653 90.164 14.550
usemtl roof
f 50 51 52 53 54 55 56 57 58 59 60 61 62
usemtl teaching_building
f 49 48 47 46 45 44 43 42 41 40 39 38 37
f 37 38 51 50
f 38 39 52 51
f 39 40 53 52
f 40 41 54 53
f 41 42 55 54
f 42 43 56 55
f 43 44 57 56
f 44 45 58 57
f 45 46 59 58
f 46 47 60 59
f 47 48 61 60
f 48 49 62 61
f 49 37 50 62
o SD0636_T003_3hao
v -26.475 44.279 0.000
v -39.246 44.301 0.000
v -39.263 39.493 0.000
v -30.821 39.471 0.000
v -30.839 31.147 0.000
v 9.881 31.047 0.000
v 9.890 35.889 0.000
v 14.691 35.878 0.000
v 14.717 47.684 0.000
v 8.248 47.695 0.000
v 8.257 51.741 0.000
v -26.458 51.829 0.000
v -26.475 44.279 11.680
v -39.246 44.301 11.680
v -39.263 39.493 11.680
v -30.821 39.471 11.680
v -30.839 31.147 11.680
v 9.881 31.047 11.680
v 9.890 35.889 11.680
v 14.691 35.878 11.680
v 14.717 47.684 11.680
v 8.248 47.695 11.680
v 8.257 51.741 11.680
v -26.458 51.829 11.680
usemtl roof
f 75 76 77 78 79 80 81 82 83 84 85 86
usemtl teaching_building
f 74 73 72 71 70 69 68 67 66 65 64 63
f 63 64 76 75
f 64 65 77 76
f 65 66 78 77
f 66 67 79 78
f 67 68 80 79
f 68 69 81 80
f 69 70 82 81
f 70 71 83 82
f 71 72 84 83
f 72 73 85 84
f 73 74 86 85
f 74 63 75 86
o SD0636_T004_4hao
v -32.312 8.287 0.000
v -45.028 9.503 0.000
v -45.492 4.706 0.000
v -38.068 3.910 0.000
v -39.013 -4.381 0.000
v 2.634 -8.250 0.000
v 8.997 -3.883 0.000
v 11.112 8.144 0.000
v 4.955 8.619 0.000
v 5.347 11.250 0.000
v -31.723 15.660 0.000
v -32.312 8.287 11.870
v -45.028 9.503 11.870
v -45.492 4.706 11.870
v -38.068 3.910 11.870
v -39.013 -4.381 11.870
v 2.634 -8.250 11.870
v 8.997 -3.883 11.870
v 11.112 8.144 11.870
v 4.955 8.619 11.870
v 5.347 11.250 11.870
v -31.723 15.660 11.870
usemtl roof
f 98 99 100 101 102 103 104 105 106 107 108
usemtl teaching_building
f 97 96 95 94 93 92 91 90 89 88 87
f 87 88 99 98
f 88 89 100 99
f 89 90 101 100
f 90 91 102 101
f 91 92 103 102
f 92 93 104 103
f 93 94 105 104
f 94 95 106 105
f 95 96 107 106
f 96 97 108 107
f 97 87 98 108
o SD0636_T005_5hao
v 23.989 -226.179 0.000
v 23.615 -250.012 0.000
v 17.993 -290.967 0.000
v 2.991 -291.718 0.000
v 10.488 -250.752 0.000
v 10.488 -226.920 0.000
v -1.515 -181.864 0.000
v 10.488 -181.864 0.000
v 23.989 -226.179 27.810
v 23.615 -250.012 27.810
v 17.993 -290.967 27.810
v 2.991 -291.718 27.810
v 10.488 -250.752 27.810
v 10.488 -226.920 27.810
v -1.515 -181.864 27.810
v 10.488 -181.864 27.810
usemtl roof
f 117 118 119 120 121 122 123 124
usemtl teaching_building
f 116 115 114 113 112 111 110 109
f 109 110 118 117
f 110 111 119 118
f 111 112 120 119
f 112 113 121 120
f 113 114 122 121
f 114 115 123 122
f 115 116 124 123
f 116 109 117 124
o SD0636_T006_6hao
v 51.350 -254.577 0.000
v 53.626 -317.728 0.000
v 96.782 -316.380 0.000
v 95.417 -253.228 0.000
v 51.350 -254.577 10.430
v 53.626 -317.728 10.430
v 96.782 -316.380 10.430
v 95.417 -253.228 10.430
usemtl roof
f 129 130 131 132
usemtl teaching_building
f 128 127 126 125
f 125 126 130 129
f 126 127 131 130
f 127 128 132 131
f 128 125 129 132
