# school_id SD0674
# school_name 济宁市汶上县东南片区实验学校
# boundary_source footprint_convex_hull_buffer_20m
# adjacent_block_merge_distance_m 2.0
mtllib ../campus_materials.mtl
o SD0674_campus_boundary
usemtl campus_boundary
v -49.211 -64.061 0.050
v -50.978 -30.358 0.050
v -55.638 58.570 0.050
v 19.441 62.505 0.050
v 46.338 63.914 0.050
v 52.037 10.147 0.050
v 52.930 -6.903 0.050
v 40.957 -59.339 0.050
v -27.401 -62.922 0.050
v -49.211 -64.061 0.050
l 1 2 3 4 5 6 7 8 9 10 1
o SD0674_T001_1hao
v -30.975 5.263 0.000
v -17.240 5.983 0.000
v -17.240 5.983 0.000
v 16.520 7.752 0.000
v 15.434 28.494 0.000
v -33.899 25.909 0.000
v -34.619 39.644 0.000
v 20.488 42.532 0.000
v 20.488 42.532 0.000
v 28.448 42.949 0.000
v 30.255 8.472 0.000
v 32.092 8.568 0.000
v 32.812 -5.167 0.000
v -16.520 -7.752 0.000
v -15.434 -28.495 0.000
v 24.102 -26.423 0.000
v 24.822 -40.157 0.000
v -14.714 -42.229 0.000
v -14.714 -42.229 0.000
v -28.448 -42.949 0.000
v -28.448 -42.949 0.000
v -30.285 -43.045 0.000
v -31.005 -29.311 0.000
v -29.168 -29.215 0.000
v -30.975 5.263 19.500
v -17.240 5.983 19.500
v -17.240 5.983 19.500
v 16.520 7.752 19.500
v 15.434 28.494 19.500
v -33.899 25.909 19.500
v -34.619 39.644 19.500
v 20.488 42.532 19.500
v 20.488 42.532 19.500
v 28.448 42.949 19.500
v 30.255 8.472 19.500
v 32.092 8.568 19.500
v 32.812 -5.167 19.500
v -16.520 -7.752 19.500
v -15.434 -28.495 19.500
v 24.102 -26.423 19.500
v 24.822 -40.157 19.500
v -14.714 -42.229 19.500
v -14.714 -42.229 19.500
v -28.448 -42.949 19.500
v -28.448 -42.949 19.500
v -30.285 -43.045 19.500
v -31.005 -29.311 19.500
v -29.168 -29.215 19.500
usemtl roof
f 35 36 37 38 39 40 41 42 43 44 45 46 47 48 49 50 51 52 53 54 55 56 57 58
usemtl teaching_building
f 34 33 32 31 30 29 28 27 26 25 24 23 22 21 20 19 18 17 16 15 14 13 12 11
f 11 12 36 35
f 12 13 37 36
f 13 14 38 37
f 14 15 39 38
f 15 16 40 39
f 16 17 41 40
f 17 18 42 41
f 18 19 43 42
f 19 20 44 43
f 20 21 45 44
f 21 22 46 45
f 22 23 47 46
f 23 24 48 47
f 24 25 49 48
f 25 26 50 49
f 26 27 51 50
f 27 28 52 51
f 28 29 53 52
f 29 30 54 53
f 30 31 55 54
f 31 32 56 55
f 32 33 57 56
f 33 34 58 57
f 34 11 35 58
