# school_id SD0614
# school_name 诸城市实验小学
# boundary_source footprint_convex_hull_buffer_20m
# adjacent_block_merge_distance_m 2.0
mtllib ../campus_materials.mtl
o SD0614_campus_boundary
usemtl campus_boundary
v -5.809 -49.868 0.050
v -76.127 -18.793 0.050
v -74.946 31.869 0.050
v -5.595 39.252 0.050
v 81.413 42.444 0.050
v 93.013 -46.752 0.050
v -5.809 -49.868 0.050
l 1 2 3 4 5 6 7 1
o SD0614_T001_1hao
v -8.743 14.526 0.000
v -8.284 -6.355 0.000
v -55.821 -5.901 0.000
v -55.361 13.841 0.000
v -8.743 14.526 18.870
v -8.284 -6.355 18.870
v -55.821 -5.901 18.870
v -55.361 13.841 18.870
usemtl roof
f 12 13 14 15
usemtl teaching_building
f 11 10 9 8
f 8 9 13 12
f 9 10 14 13
f 10 11 15 14
f 11 8 12 15
o SD0614_T002_2hao
v 63.931 21.789 0.000
v 70.335 -27.457 0.000
v -1.889 -29.734 0.000
v -4.168 19.291 0.000
v 63.931 21.789 11.780
v 70.335 -27.457 11.780
v -1.889 -29.734 11.780
v -4.168 19.291 11.780
usemtl roof
f 20 21 22 23
usemtl teaching_building
f 19 18 17 16
f 16 17 21 20
f 17 18 22 21
f 18 19 23 22
f 19 16 20 23
