# school_id SD0611
# school_name 诸城市兴华初级中学
# boundary_source footprint_convex_hull_buffer_20m
# adjacent_block_merge_distance_m 2.0
mtllib ../campus_materials.mtl
o SD0611_campus_boundary
usemtl campus_boundary
v -81.872 -138.819 0.050
v -106.444 0.704 0.050
v -109.119 32.428 0.050
v -91.625 56.475 0.050
v -63.550 58.827 0.050
v 99.526 58.093 0.050
v 123.768 45.086 0.050
v 126.449 16.077 0.050
v 118.378 4.728 0.050
v 15.619 -130.325 0.050
v -81.872 -138.819 0.050
l 1 2 3 4 5 6 7 8 9 10 11 1
o SD0611_T001_1hao
v 21.122 31.461 0.000
v 21.834 23.779 0.000
v 26.328 24.199 0.000
v 25.527 32.810 0.000
v 49.936 35.032 0.000
v 50.530 28.642 0.000
v 75.614 30.930 0.000
v 75.110 36.358 0.000
v 94.457 38.116 0.000
v 95.051 31.660 0.000
v 104.842 32.544 0.000
v 105.851 21.623 0.000
v 101.833 21.258 0.000
v 102.266 16.582 0.000
v 2.406 7.551 0.000
v 2.181 9.983 0.000
v -4.331 9.397 0.000
v -5.466 21.656 0.000
v -1.557 22.010 0.000
v -2.233 29.339 0.000
v 21.122 31.461 14.680
v 21.834 23.779 14.680
v 26.328 24.199 14.680
v 25.527 32.810 14.680
v 49.936 35.032 14.680
v 50.530 28.642 14.680
v 75.614 30.930 14.680
v 75.110 36.358 14.680
v 94.457 38.116 14.680
v 95.051 31.660 14.680
v 104.842 32.544 14.680
v 105.851 21.623 14.680
v 101.833 21.258 14.680
v 102.266 16.582 14.680
v 2.406 7.551 14.680
v 2.181 9.983 14.680
v -4.331 9.397 14.680
v -5.466 21.656 14.680
v -1.557 22.010 14.680
v -2.233 29.339 14.680
usemtl roof
f 32 33 34 35 36 37 38 39 40 41 42 43 44 45 46 47 48 49 50 51
usemtl teaching_building
f 31 30 29 28 27 26 25 24 23 22 21 20 19 18 17 16 15 14 13 12
f 12 13 33 32
f 13 14 34 33
f 14 15 35 34
f 15 16 36 35
f 16 17 37 36
f 17 18 38 37
f 18 19 39 38
f 19 20 40 39
f 20 21 41 40
f 21 22 42 41
f 22 23 43 42
f 23 24 44 43
f 24 25 45 44
f 25 26 46 45
f 26 27 47 46
f 27 28 48 47
f 28 29 49 48
f 29 30 50 49
f 30 31 51 50
f 31 12 32 51
o SD0611_T002_2hao
v -88.564 26.686 0.000
v -79.989 27.404 0.000
v -80.836 37.309 0.000
v -62.759 38.823 0.000
v -61.552 24.530 0.000
v -11.789 28.687 0.000
v -10.177 9.663 0.000
v -86.591 3.284 0.000
v -88.564 26.686 13.010
v -79.989 27.404 13.010
v -80.836 37.309 13.010
v -62.759 38.823 13.010
v -61.552 24.530 13.010
v -11.789 28.687 13.010
v -10.177 9.663 13.010
v -86.591 3.284 13.010
usemtl roof
f 60 61 62 63 64 65 66 67
usemtl teaching_building
f 59 58 57 56 55 54 53 52
f 52 53 61 60
f 53 54 62 61
f 54 55 63 62
f 55 56 64 63
f 56 57 65 64
f 57 58 66 65
f 58 59 67 66
f 59 52 60 67
o SD0611_T003_3hao
v -24.020 -1.204 0.000
v -22.291 -19.376 0.000
v -73.135 -24.130 0.000
v -74.855 -5.968 0.000
v -24.020 -1.204 10.510
v -22.291 -19.376 10.510
v -73.135 -24.130 10.510
v -74.855 -5.968 10.510
usemtl roof
f 72 73 74 75
usemtl teaching_building
f 71 70 69 68
f 68 69 73 72
f 69 70 74 73
f 70 71 75 74
f 71 68 72 75
o SD0611_T004_4hao
v -0.044 -43.098 0.000
v 1.379 -61.171 0.000
v -70.883 -66.765 0.000
v -72.306 -48.714 0.000
v -0.044 -43.098 7.370
v 1.379 -61.171 7.370
v -70.883 -66.765 7.370
v -72.306 -48.714 7.370
usemtl roof
f 80 81 82 83
usemtl teaching_building
f 79 78 77 76
f 76 77 81 80
f 77 78 82 81
f 78 79 83 82
f 79 76 80 83
o SD0611_T005_5hao
v 3.910 -98.136 0.000
v 5.063 -111.169 0.000
v -65.353 -117.304 0.000
v -66.506 -104.282 0.000
v 3.910 -98.136 12.060
v 5.063 -111.169 12.060
v -65.353 -117.304 12.060
v -66.506 -104.282 12.060
usemtl roof
f 88 89 90 91
usemtl teaching_building
f 87 86 85 84
f 84 85 89 88
f 85 86 90 89
f 86 87 91 90
f 87 84 88 91
