# school_id SD0659
# school_name 微山县第一中学
# boundary_source footprint_convex_hull_buffer_20m
# adjacent_block_merge_distance_m 2.0
mtllib ../campus_materials.mtl
o SD0659_campus_boundary
usemtl campus_boundary
v -210.900 -182.454 0.050
v -312.727 -182.427 0.050
v -315.367 -103.549 0.050
v -303.863 -15.757 0.050
v -289.359 10.432 0.050
v 139.893 197.118 0.050
v 196.309 198.405 0.050
v 276.502 5.479 0.050
v 276.865 -23.134 0.050
v 247.537 -76.532 0.050
v 239.429 -84.480 0.050
v 126.919 -160.010 0.050
v -30.775 -174.372 0.050
v -120.622 -178.974 0.050
v -210.900 -182.454 0.050
l 1 2 3 4 5 6 7 8 9 10 11 12 13 14 15 1
o SD0659_T001_1hao
v 182.963 166.856 0.000
v 179.407 166.723 0.000
v 179.407 158.344 0.000
v 183.228 157.957 0.000
v 184.143 143.178 0.000
v 172.156 143.830 0.000
v 171.763 159.781 0.000
v 174.131 159.770 0.000
v 173.875 167.707 0.000
v 152.920 167.641 0.000
v 152.920 163.186 0.000
v 145.021 163.186 0.000
v 145.286 149.457 0.000
v 137.908 149.192 0.000
v 137.716 170.172 0.000
v 144.271 170.249 0.000
v 144.271 177.213 0.000
v 183.091 178.098 0.000
v 182.963 166.856 13.870
v 179.407 166.723 13.870
v 179.407 158.344 13.870
v 183.228 157.957 13.870
v 184.143 143.178 13.870
v 172.156 143.830 13.870
v 171.763 159.781 13.870
v 174.131 159.770 13.870
v 173.875 167.707 13.870
v 152.920 167.641 13.870
v 152.920 163.186 13.870
v 145.021 163.186 13.870
v 145.286 149.457 13.870
v 137.908 149.192 13.870
v 137.716 170.172 13.870
v 144.271 170.249 13.870
v 144.271 177.213 13.870
v 183.091 178.098 13.870
usemtl roof
f 34 35 36 37 38 39 40 41 42 43 44 45 46 47 48 49 50 51
usemtl teaching_building
f 33 32 31 30 29 28 27 26 25 24 23 22 21 20 19 18 17 16
f 16 17 35 34
f 17 18 36 35
f 18 19 37 36
f 19 20 38 37
f 20 21 39 38
f 21 22 40 39
f 22 23 41 40
f 23 24 42 41
f 24 25 43 42
f 25 26 44 43
f 26 27 45 44
f 27 28 46 45
f 28 29 47 46
f 29 30 48 47
f 30 31 49 48
f 31 32 50 49
f 32 33 51 50
f 33 16 34 51
o SD0659_T002_2hao
v 72.957 106.545 0.000
v 69.364 102.234 0.000
v 69.410 61.135 0.000
v 3.874 61.799 0.000
v 4.213 77.064 0.000
v -7.444 77.573 0.000
v -6.942 95.679 0.000
v 4.889 96.022 0.000
v 5.054 100.709 0.000
v 2.649 100.709 0.000
v 2.649 107.606 0.000
v 65.945 105.639 0.000
v 69.739 109.629 0.000
v 72.957 106.545 12.980
v 69.364 102.234 12.980
v 69.410 61.135 12.980
v 3.874 61.799 12.980
v 4.213 77.064 12.980
v -7.444 77.573 12.980
v -6.942 95.679 12.980
v 4.889 96.022 12.980
v 5.054 100.709 12.980
v 2.649 100.709 12.980
v 2.649 107.606 12.980
v 65.945 105.639 12.980
v 69.739 109.629 12.980
usemtl roof
f 65 66 67 68 69 70 71 72 73 74 75 76 77
usemtl teaching_building
f 64 63 62 61 60 59 58 57 56 55 54 53 52
f 52 53 66 65
f 53 54 67 66
f 54 55 68 67
f 55 56 69 68
f 56 57 70 69
f 57 58 71 70
f 58 59 72 71
f 59 60 73 72
f 60 61 74 73
f 61 62 75 74
f 62 63 76 75
f 63 64 77 76
f 64 52 65 77
o SD0659_T003_3hao
v 122.758 92.252 0.000
v 127.064 95.834 0.000
v 126.598 101.847 0.000
v 120.198 107.617 0.000
v 125.318 112.470 0.000
v 134.854 104.036 0.000
v 197.290 103.925 0.000
v 197.372 98.675 0.000
v 193.697 98.564 0.000
v 193.825 94.717 0.000
v 187.498 94.717 0.000
v 187.407 90.263 0.000
v 201.596 89.798 0.000
v 201.404 77.352 0.000
v 187.215 78.280 0.000
v 187.215 61.644 0.000
v 122.877 62.683 0.000
v 122.758 92.252 10.690
v 127.064 95.834 10.690
v 126.598 101.847 10.690
v 120.198 107.617 10.690
v 125.318 112.470 10.690
v 134.854 104.036 10.690
v 197.290 103.925 10.690
v 197.372 98.675 10.690
v 193.697 98.564 10.690
v 193.825 94.717 10.690
v 187.498 94.717 10.690
v 187.407 90.263 10.690
v 201.596 89.798 10.690
v 201.404 77.352 10.690
v 187.215 78.280 10.690
v 187.215 61.644 10.690
v 122.877 62.683 10.690
usemtl roof
f 95 96 97 98 99 100 101 102 103 104 105 106 107 108 109 110 111
usemtl teaching_building
f 94 93 92 91 90 89 88 87 86 85 84 83 82 81 80 79 78
f 78 79 96 95
f 79 80 97 96
f 80 81 98 97
f 81 82 99 98
f 82 83 100 99
f 83 84 101 100
f 84 85 102 101
f 85 86 103 102
f 86 87 104 103
f 87 88 105 104
f 88 89 106 105
f 89 90 107 106
f 90 91 108 107
f 91 92 109 108
f 92 93 110 109
f 93 94 111 110
f 94 78 95 111
o SD0659_T004_4hao
v -12.382 3.511 0.000
v -26.087 3.378 0.000
v -25.291 21.562 0.000
v -12.884 21.639 0.000
v -12.647 27.222 0.000
v -15.417 27.321 0.000
v -15.152 33.655 0.000
v 52.551 32.660 0.000
v 53.291 -11.932 0.000
v -12.766 -11.500 0.000
v -12.382 3.511 16.240
v -26.087 3.378 16.240
v -25.291 21.562 16.240
v -12.884 21.639 16.240
v -12.647 27.222 16.240
v -15.417 27.321 16.240
v -15.152 33.655 16.240
v 52.551 32.660 16.240
v 53.291 -11.932 16.240
v -12.766 -11.500 16.240
usemtl roof
f 122 123 124 125 126 127 128 129 130 131
usemtl teaching_building
f 121 120 119 118 117 116 115 114 113 112
f 112 113 123 122
f 113 114 124 123
f 114 115 125 124
f 115 116 126 125
f 116 117 127 126
f 117 118 128 127
f 118 119 129 128
f 119 120 130 129
f 120 121 131 130
f 121 112 122 131
o SD0659_T005_5hao
v 169.094 -17.016 0.000
v 168.929 -49.394 0.000
v 226.702 -49.051 0.000
v 227.031 -52.411 0.000
v 231.429 -52.069 0.000
v 231.429 -64.316 0.000
v 226.867 -64.151 0.000
v 226.748 -68.904 0.000
v 155.489 -69.335 0.000
v 155.709 -50.201 0.000
v 152.243 -49.979 0.000
v 152.463 -43.955 0.000
v 149.647 -44.176 0.000
v 149.391 -1.563 0.000
v 153.066 -1.077 0.000
v 152.819 1.853 0.000
v 256.553 1.366 0.000
v 256.800 -18.122 0.000
v 169.094 -17.016 8.910
v 168.929 -49.394 8.910
v 226.702 -49.051 8.910
v 227.031 -52.411 8.910
v 231.429 -52.069 8.910
v 231.429 -64.316 8.910
v 226.867 -64.151 8.910
v 226.748 -68.904 8.910
v 155.489 -69.335 8.910
v 155.709 -50.201 8.910
v 152.243 -49.979 8.910
v 152.463 -43.955 8.910
v 149.647 -44.176 8.910
v 149.391 -1.563 8.910
v 153.066 -1.077 8.910
v 152.819 1.853 8.910
v 256.553 1.366 8.910
v 256.800 -18.122 8.910
usemtl roof
f 150 151 152 153 154 155 156 157 158 159 160 161 162 163 164 165 166 167
usemtl teaching_building
f 149 148 147 146 145 144 143 142 141 140 139 138 137 136 135 134 133 132
f 132 133 151 150
f 133 134 152 151
f 134 135 153 152
f 135 136 154 153
f 136 137 155 154
f 137 138 156 155
f 138 139 157 156
f 139 140 158 157
f 140 141 159 158
f 141 142 160 159
f 142 143 161 160
f 143 144 162 161
f 144 145 163 162
f 145 146 164 163
f 146 147 165 164
f 147 148 166 165
f 148 149 167 166
f 149 132 150 167
o SD0659_T006_6hao
v -282.880 -37.278 0.000
v -280.421 -37.124 0.000
v -282.194 -26.899 0.000
v -285.047 -26.235 0.000
v -284.526 -22.123 0.000
v -279.040 -16.530 0.000
v -275.721 -16.431 0.000
v -275.154 -5.200 0.000
v -269.394 -5.034 0.000
v -266.231 -6.206 0.000
v -261.495 -10.705 0.000
v -269.312 -18.851 0.000
v -266.359 -20.454 0.000
v -264.567 -22.975 0.000
v -265.865 -26.899 0.000
v -214.547 -26.291 0.000
v -213.989 -38.693 0.000
v -216.769 -55.517 0.000
v -219.822 -66.815 0.000
v -225.098 -76.741 0.000
v -284.526 -75.923 0.000
v -282.880 -37.278 9.290
v -280.421 -37.124 9.290
v -282.194 -26.899 9.290
v -285.047 -26.235 9.290
v -284.526 -22.123 9.290
v -279.040 -16.530 9.290
v -275.721 -16.431 9.290
v -275.154 -5.200 9.290
v -269.394 -5.034 9.290
v -266.231 -6.206 9.290
v -261.495 -10.705 9.290
v -269.312 -18.851 9.290
v -266.359 -20.454 9.290
v -264.567 -22.975 9.290
v -265.865 -26.899 9.290
v -214.547 -26.291 9.290
v -213.989 -38.693 9.290
v -216.769 -55.517 9.290
v -219.822 -66.815 9.290
v -225.098 -76.741 9.290
v -284.526 -75.923 9.290
usemtl roof
f 189 190 191 192 193 194 195 196 197 198 199 200 201 202 203 204 205 206 207 208 209
usemtl teaching_building
f 188 187 186 185 184 183 182 181 180 179 178 177 176 175 174 173 172 171 170 169 168
f 168 169 190 189
f 169 170 191 190
f 170 171 192 191
f 171 172 193 192
f 172 173 194 193
f 173 174 195 194
f 174 175 196 195
f 175 176 197 196
f 176 177 198 197
f 177 178 199 198
f 178 179 200 199
f 179 180 201 200
f 180 181 202 201
f 181 182 203 202
f 182 183 204 203
f 183 184 205 204
f 184 185 206 205
f 185 186 207 206
f 186 187 208 207
f 187 188 209 208
f 188 168 189 209
o SD0659_T007_7hao
v 73.012 -60.989 0.000
v 73.213 -51.837 0.000
v 122.136 -51.638 0.000
v 122.054 -60.127 0.000
v 129.322 -60.127 0.000
v 129.972 -102.066 0.000
v 119.796 -101.845 0.000
v 120.015 -140.556 0.000
v 70.635 -139.263 0.000
v 71.284 -100.551 0.000
v 63.056 -100.773 0.000
v 63.915 -60.934 0.000
v 73.012 -60.989 16.260
v 73.213 -51.837 16.260
v 122.136 -51.638 16.260
v 122.054 -60.127 16.260
v 129.322 -60.127 16.260
v 129.972 -102.066 16.260
v 119.796 -101.845 16.260
v 120.015 -140.556 16.260
v 70.635 -139.263 16.260
v 71.284 -100.551 16.260
v 63.056 -100.773 16.260
v 63.915 -60.934 16.260
usemtl roof
f 222 223 224 225 226 227 228 229 230 231 232 233
usemtl teaching_building
f 221 220 219 218 217 216 215 214 213 212 211 210
f 210 211 223 222
f 211 212 224 223
f 212 213 225 224
f 213 214 226 225
f 214 215 227 226
f 215 216 228 227
f 216 217 229 228
f 217 218 230 229
f 218 219 231 230
f 219 220 232 231
f 220 221 233 232
f 221 210 222 233
o SD0659_T008_8hao
v 38.443 -125.335 0.000
v 37.684 -71.015 0.000
v 0.574 -71.203 0.000
v 0.574 -126.473 0.000
v 38.443 -125.335 8.430
v 37.684 -71.015 8.430
v 0.574 -71.203 8.430
v 0.574 -126.473 8.430
usemtl roof
f 238 239 240 241
usemtl teaching_building
f 237 236 235 234
f 234 235 239 238
f 235 236 240 239
f 236 237 241 240
f 237 234 238 241
o SD0659_T009_9hao
v -33.730 -97.246 0.000
v -32.194 -154.418 0.000
v -114.817 -154.230 0.000
v -115.009 -140.932 0.000
v -46.731 -140.556 0.000
v -48.258 -112.634 0.000
v -90.534 -111.871 0.000
v -90.534 -97.633 0.000
v -33.730 -97.246 13.470
v -32.194 -154.418 13.470
v -114.817 -154.230 13.470
v -115.009 -140.932 13.470
v -46.731 -140.556 13.470
v -48.258 -112.634 13.470
v -90.534 -111.871 13.470
v -90.534 -97.633 13.470
usemtl roof
f 250 251 252 253 254 255 256 257
usemtl teaching_building
f 249 248 247 246 245 244 243 242
f 242 243 251 250
f 243 244 252 251
f 244 245 253 252
f 245 246 254 253
f 246 247 255 254
f 247 248 256 255
f 248 249 257 256
f 249 242 250 257
o SD0659_T010_10hao
v -123.302 -100.485 0.000
v -121.519 -158.994 0.000
v -205.294 -159.735 0.000
v -205.477 -143.209 0.000
v -135.864 -142.457 0.000
v -136.623 -114.911 0.000
v -178.707 -114.535 0.000
v -178.899 -100.673 0.000
v -123.302 -100.485 15.370
v -121.519 -158.994 15.370
v -205.294 -159.735 15.370
v -205.477 -143.209 15.370
v -135.864 -142.457 15.370
v -136.623 -114.911 15.370
v -178.707 -114.535 15.370
v -178.899 -100.673 15.370
usemtl roof
f 266 267 268 269 270 271 272 273
usemtl teaching_building
f 265 264 263 262 261 260 259 258
f 258 259 267 266
f 259 260 268 267
f 260 261 269 268
f 261 262 270 269
f 262 263 271 270
f 263 264 272 271
f 264 265 273 272
f 265 258 266 273
o SD0659_T011_11hao
v -238.940 -104.365 0.000
v -295.323 -104.520 0.000
v -293.385 -162.432 0.000
v -211.283 -162.454 0.000
v -210.268 -144.281 0.000
v -278.345 -144.281 0.000
v -278.912 -118.581 0.000
v -238.647 -118.282 0.000
v -238.940 -104.365 12.650
v -295.323 -104.520 12.650
v -293.385 -162.432 12.650
v -211.283 -162.454 12.650
v -210.268 -144.281 12.650
v -278.345 -144.281 12.650
v -278.912 -118.581 12.650
v -238.647 -118.282 12.650
usemtl roof
f 282 283 284 285 286 287 288 289
usemtl teaching_building
f 281 280 279 278 277 276 275 274
f 274 275 283 282
f 275 276 284 283
f 276 277 285 284
f 277 278 286 285
f 278 279 287 286
f 279 280 288 287
f 280 281 289 288
f 281 274 282 289
