# school_id SD0644
# school_name 兖州一中
# boundary_source footprint_convex_hull_buffer_20m
# adjacent_block_merge_distance_m 2.0
mtllib ../campus_materials.mtl
o SD0644_campus_boundary
usemtl campus_boundary
v 117.376 -250.988 0.050
v -118.812 -237.414 0.050
v -128.722 -215.100 0.050
v -161.125 26.661 0.050
v -167.787 79.965 0.050
v -167.748 105.636 0.050
v -136.752 151.828 0.050
v -63.607 151.789 0.050
v 85.304 151.266 0.050
v 114.615 107.499 0.050
v 166.229 -73.965 0.050
v 186.201 -182.984 0.050
v 185.585 -227.926 0.050
v 166.200 -250.380 0.050
v 117.376 -250.988 0.050
l 1 2 3 4 5 6 7 8 9 10 11 12 13 14 15 1
o SD0644_T001_1hao
v -63.647 127.931 0.000
v -63.647 131.789 0.000
v -126.091 131.822 0.000
v -126.091 114.987 0.000
v -113.284 114.987 0.000
v -113.293 119.796 0.000
v -76.219 119.829 0.000
v -76.210 112.367 0.000
v -78.864 112.367 0.000
v -78.837 101.800 0.000
v -75.920 101.811 0.000
v -75.875 92.747 0.000
v -126.109 92.525 0.000
v -126.137 99.025 0.000
v -129.053 103.126 0.000
v -143.383 102.905 0.000
v -147.757 99.534 0.000
v -147.785 81.195 0.000
v -140.982 75.878 0.000
v -128.591 77.072 0.000
v -125.919 81.903 0.000
v -125.964 75.093 0.000
v -112.939 75.005 0.000
v -112.903 80.068 0.000
v -60.024 79.725 0.000
v -60.051 75.834 0.000
v -42.560 75.723 0.000
v -42.479 87.916 0.000
v -52.877 87.982 0.000
v -52.841 93.321 0.000
v -72.424 93.443 0.000
v -72.379 101.568 0.000
v -64.562 101.523 0.000
v -64.498 112.378 0.000
v -72.505 112.423 0.000
v -72.460 121.211 0.000
v -68.013 121.189 0.000
v -68.013 118.779 0.000
v -52.506 118.746 0.000
v -52.488 127.909 0.000
v -63.647 127.931 13.640
v -63.647 131.789 13.640
v -126.091 131.822 13.640
v -126.091 114.987 13.640
v -113.284 114.987 13.640
v -113.293 119.796 13.640
v -76.219 119.829 13.640
v -76.210 112.367 13.640
v -78.864 112.367 13.640
v -78.837 101.800 13.640
v -75.920 101.811 13.640
v -75.875 92.747 13.640
v -126.109 92.525 13.640
v -126.137 99.025 13.640
v -129.053 103.126 13.640
v -143.383 102.905 13.640
v -147.757 99.534 13.640
v -147.785 81.195 13.640
v -140.982 75.878 13.640
v -128.591 77.072 13.640
v -125.919 81.903 13.640
v -125.964 75.093 13.640
v -112.939 75.005 13.640
v -112.903 80.068 13.640
v -60.024 79.725 13.640
v -60.051 75.834 13.640
v -42.560 75.723 13.640
v -42.479 87.916 13.640
v -52.877 87.982 13.640
v -52.841 93.321 13.640
v -72.424 93.443 13.640
v -72.379 101.568 13.640
v -64.562 101.523 13.640
v -64.498 112.378 13.640
v -72.505 112.423 13.640
v -72.460 121.211 13.640
v -68.013 121.189 13.640
v -68.013 118.779 13.640
v -52.506 118.746 13.640
v -52.488 127.909 13.640
usemtl roof
f 56 57 58 59 60 61 62 63 64 65 66 67 68 69 70 71 72 73 74 75 76 77 78 79 80 81 82 83 84 85 86 87 88 89 90 91 92 93 94 95
usemtl teaching_building
f 55 54 53 52 51 50 49 48 47 46 45 44 43 42 41 40 39 38 37 36 35 34 33 32 31 30 29 28 27 26 25 24 23 22 21 20 19 18 17 16
f 16 17 57 56
f 17 18 58 57
f 18 19 59 58
f 19 20 60 59
f 20 21 61 60
f 21 22 62 61
f 22 23 63 62
f 23 24 64 63
f 24 25 65 64
f 25 26 66 65
f 26 27 67 66
f 27 28 68 67
f 28 29 69 68
f 29 30 70 69
f 30 31 71 70
f 31 32 72 71
f 32 33 73 72
f 33 34 74 73
f 34 35 75 74
f 35 36 76 75
f 36 37 77 76
f 37 38 78 77
f 38 39 79 78
f 39 40 80 79
f 40 41 81 80
f 41 42 82 81
f 42 43 83 82
f 43 44 84 83
f 44 45 85 84
f 45 46 86 85
f 46 47 87 86
f 47 48 88 87
f 48 49 89 88
f 49 50 90 89
f 50 51 91 90
f 51 52 92 91
f 52 53 93 92
f 53 54 94 93
f 54 55 95 94
f 55 16 56 95
o SD0644_T002_2hao
v 12.158 127.478 0.000
v 12.158 131.336 0.000
v 74.602 131.303 0.000
v 74.593 114.468 0.000
v 61.785 114.479 0.000
v 61.794 119.298 0.000
v 24.721 119.376 0.000
v 24.703 111.903 0.000
v 27.357 111.903 0.000
v 27.320 101.336 0.000
v 24.395 101.347 0.000
v 24.349 92.282 0.000
v 74.584 92.006 0.000
v 74.620 98.506 0.000
v 77.537 102.607 0.000
v 91.866 102.375 0.000
v 96.241 98.992 0.000
v 96.241 80.653 0.000
v 89.439 75.348 0.000
v 77.048 76.552 0.000
v 74.376 81.383 0.000
v 74.412 74.574 0.000
v 61.387 74.507 0.000
v 61.359 79.570 0.000
v 8.480 79.272 0.000
v 8.498 75.392 0.000
v -8.992 75.303 0.000
v -9.056 87.496 0.000
v 1.343 87.551 0.000
v 1.315 92.890 0.000
v 20.898 92.979 0.000
v 20.862 101.114 0.000
v 13.036 101.081 0.000
v 12.991 111.936 0.000
v 20.998 111.958 0.000
v 20.962 120.757 0.000
v 16.514 120.735 0.000
v 16.514 118.326 0.000
v 1.008 118.303 0.000
v 0.998 127.467 0.000
v 12.158 127.478 17.320
v 12.158 131.336 17.320
v 74.602 131.303 17.320
v 74.593 114.468 17.320
v 61.785 114.479 17.320
v 61.794 119.298 17.320
v 24.721 119.376 17.320
v 24.703 111.903 17.320
v 27.357 111.903 17.320
v 27.320 101.336 17.320
v 24.395 101.347 17.320
v 24.349 92.282 17.320
v 74.584 92.006 17.320
v 74.620 98.506 17.320
v 77.537 102.607 17.320
v 91.866 102.375 17.320
v 96.241 98.992 17.320
v 96.241 80.653 17.320
v 89.439 75.348 17.320
v 77.048 76.552 17.320
v 74.376 81.383 17.320
v 74.412 74.574 17.320
v 61.387 74.507 17.320
v 61.359 79.570 17.320
v 8.480 79.272 17.320
v 8.498 75.392 17.320
v -8.992 75.303 17.320
v -9.056 87.496 17.320
v 1.343 87.551 17.320
v 1.315 92.890 17.320
v 20.898 92.979 17.320
v 20.862 101.114 17.320
v 13.036 101.081 17.320
v 12.991 111.936 17.320
v 20.998 111.958 17.320
v 20.962 120.757 17.320
v 16.514 120.735 17.320
v 16.514 118.326 17.320
v 1.008 118.303 17.320
v 0.998 127.467 17.320
usemtl roof
f 136 137 138 139 140 141 142 143 144 145 146 147 148 149 150 151 152 153 154 155 156 157 158 159 160 161 162 163 164 165 166 167 168 169 170 171 172 173 174 175
usemtl teaching_building
f 135 134 133 132 131 130 129 128 127 126 125 124 123 122 121 120 119 118 117 116 115 114 113 112 111 110 109 108 107 106 105 104 103 102 101 100 99 98 97 96
f 96 97 137 136
f 97 98 138 137
f 98 99 139 138
f 99 100 140 139
f 100 101 141 140
f 101 102 142 141
f 102 103 143 142
f 103 104 144 143
f 104 105 145 144
f 105 106 146 145
f 106 107 147 146
f 107 108 148 147
f 108 109 149 148
f 109 110 150 149
f 110 111 151 150
f 111 112 152 151
f 112 113 153 152
f 113 114 154 153
f 114 115 155 154
f 115 116 156 155
f 116 117 157 156
f 117 118 158 157
f 118 119 159 158
f 119 120 160 159
f 120 121 161 160
f 121 122 162 161
f 122 123 163 162
f 123 124 164 163
f 124 125 165 164
f 125 126 166 165
f 126 127 167 166
f 127 128 168 167
f 128 129 169 168
f 129 130 170 169
f 130 131 171 170
f 131 132 172 171
f 132 133 173 172
f 133 134 174 173
f 134 135 175 174
f 135 96 136 175
o SD0644_T003_3hao
v -48.077 48.520 0.000
v -48.013 52.919 0.000
v -119.126 53.947 0.000
v -119.216 48.254 0.000
v -120.330 51.515 0.000
v -141.444 51.360 0.000
v -141.290 29.230 0.000
v -137.785 25.406 0.000
v -119.262 26.124 0.000
v -116.399 30.822 0.000
v -116.354 34.956 0.000
v -110.249 34.890 0.000
v -110.186 40.583 0.000
v -71.509 40.163 0.000
v -71.582 33.298 0.000
v -77.125 33.364 0.000
v -77.279 19.934 0.000
v -73.438 19.890 0.000
v -73.502 15.324 0.000
v -123.401 15.943 0.000
v -123.664 -5.258 0.000
v -113.827 -5.380 0.000
v -113.736 1.684 0.000
v -64.598 1.054 0.000
v -64.643 -2.307 0.000
v -50.413 -2.495 0.000
v -50.278 7.089 0.000
v -62.062 7.244 0.000
v -61.998 11.964 0.000
v -67.823 12.041 0.000
v -67.696 20.630 0.000
v -62.107 20.553 0.000
v -61.944 32.436 0.000
v -66.627 32.502 0.000
v -66.518 40.185 0.000
v -58.258 40.063 0.000
v -58.303 36.979 0.000
v -40.640 36.736 0.000
v -40.468 48.409 0.000
v -48.077 48.520 17.960
v -48.013 52.919 17.960
v -119.126 53.947 17.960
v -119.216 48.254 17.960
v -120.330 51.515 17.960
v -141.444 51.360 17.960
v -141.290 29.230 17.960
v -137.785 25.406 17.960
v -119.262 26.124 17.960
v -116.399 30.822 17.960
v -116.354 34.956 17.960
v -110.249 34.890 17.960
v -110.186 40.583 17.960
v -71.509 40.163 17.960
v -71.582 33.298 17.960
v -77.125 33.364 17.960
v -77.279 19.934 17.960
v -73.438 19.890 17.960
v -73.502 15.324 17.960
v -123.401 15.943 17.960
v -123.664 -5.258 17.960
v -113.827 -5.380 17.960
v -113.736 1.684 17.960
v -64.598 1.054 17.960
v -64.643 -2.307 17.960
v -50.413 -2.495 17.960
v -50.278 7.089 17.960
v -62.062 7.244 17.960
v -61.998 11.964 17.960
v -67.823 12.041 17.960
v -67.696 20.630 17.960
v -62.107 20.553 17.960
v -61.944 32.436 17.960
v -66.627 32.502 17.960
v -66.518 40.185 17.960
v -58.258 40.063 17.960
v -58.303 36.979 17.960
v -40.640 36.736 17.960
v -40.468 48.409 17.960
usemtl roof
f 215 216 217 218 219 220 221 222 223 224 225 226 227 228 229 230 231 232 233 234 235 236 237 238 239 240 241 242 243 244 245 246 247 248 249 250 251 252 253
usemtl teaching_building
f 214 213 212 211 210 209 208 207 206 205 204 203 202 201 200 199 198 197 196 195 194 193 192 191 190 189 188 187 186 185 184 183 182 181 180 179 178 177 176
f 176 177 216 215
f 177 178 217 216
f 178 179 218 217
f 179 180 219 218
f 180 181 220 219
f 181 182 221 220
f 182 183 222 221
f 183 184 223 222
f 184 185 224 223
f 185 186 225 224
f 186 187 226 225
f 187 188 227 226
f 188 189 228 227
f 189 190 229 228
f 190 191 230 229
f 191 192 231 230
f 192 193 232 231
f 193 194 233 232
f 194 195 234 233
f 195 196 235 234
f 196 197 236 235
f 197 198 237 236
f 198 199 238 237
f 199 200 239 238
f 200 201 240 239
f 201 202 241 240
f 202 203 242 241
f 203 204 243 242
f 204 205 244 243
f 205 206 245 244
f 206 207 246 245
f 207 208 247 246
f 208 209 248 247
f 209 210 249 248
f 210 211 250 249
f 211 212 251 250
f 212 213 252 251
f 213 214 253 252
f 214 176 215 253
o SD0644_T004_4hao
v -2.634 49.260 0.000
v -2.588 53.649 0.000
v 68.533 52.897 0.000
v 68.470 47.204 0.000
v 69.675 50.432 0.000
v 90.779 49.758 0.000
v 90.055 27.639 0.000
v 86.459 23.891 0.000
v 67.954 25.085 0.000
v 65.218 29.849 0.000
v 65.272 33.984 0.000
v 59.177 34.072 0.000
v 59.258 39.754 0.000
v 20.581 40.306 0.000
v 20.482 33.453 0.000
v 26.025 33.376 0.000
v 25.835 19.945 0.000
v 21.994 20.000 0.000
v 21.931 15.435 0.000
v 71.830 14.805 0.000
v 71.559 -6.397 0.000
v 61.722 -6.275 0.000
v 61.812 0.788 0.000
v 12.683 1.385 0.000
v 12.638 -1.975 0.000
v -1.601 -1.798 0.000
v -1.483 7.774 0.000
v 10.292 7.642 0.000
v 10.346 12.362 0.000
v 16.170 12.296 0.000
v 16.270 20.885 0.000
v 10.681 20.951 0.000
v 10.817 32.834 0.000
v 15.500 32.779 0.000
v 15.591 40.461 0.000
v 7.330 40.550 0.000
v 7.294 37.466 0.000
v -10.369 37.653 0.000
v -10.242 49.338 0.000
v -2.634 49.260 15.070
v -2.588 53.649 15.070
v 68.533 52.897 15.070
v 68.470 47.204 15.070
v 69.675 50.432 15.070
v 90.779 49.758 15.070
v 90.055 27.639 15.070
v 86.459 23.891 15.070
v 67.954 25.085 15.070
v 65.218 29.849 15.070
v 65.272 33.984 15.070
v 59.177 34.072 15.070
v 59.258 39.754 15.070
v 20.581 40.306 15.070
v 20.482 33.453 15.070
v 26.025 33.376 15.070
v 25.835 19.945 15.070
v 21.994 20.000 15.070
v 21.931 15.435 15.070
v 71.830 14.805 15.070
v 71.559 -6.397 15.070
v 61.722 -6.275 15.070
v 61.812 0.788 15.070
v 12.683 1.385 15.070
v 12.638 -1.975 15.070
v -1.601 -1.798 15.070
v -1.483 7.774 15.070
v 10.292 7.642 15.070
v 10.346 12.362 15.070
v 16.170 12.296 15.070
v 16.270 20.885 15.070
v 10.681 20.951 15.070
v 10.817 32.834 15.070
v 15.500 32.779 15.070
v 15.591 40.461 15.070
v 7.330 40.550 15.070
v 7.294 37.466 15.070
v -10.369 37.653 15.070
v -10.242 49.338 15.070
usemtl roof
f 293 294 295 296 297 298 299 300 301 302 303 304 305 306 307 308 309 310 311 312 313 314 315 316 317 318 319 320 321 322 323 324 325 326 327 328 329 330 331
usemtl teaching_building
f 292 291 290 289 288 287 286 285 284 283 282 281 280 279 278 277 276 275 274 273 272 271 270 269 268 267 266 265 264 263 262 261 260 259 258 257 256 255 254
f 254 255 294 293
f 255 256 295 294
f 256 257 296 295
f 257 258 297 296
f 258 259 298 297
f 259 260 299 298
f 260 261 300 299
f 261 262 301 300
f 262 263 302 301
f 263 264 303 302
f 264 265 304 303
f 265 266 305 304
f 266 267 306 305
f 267 268 307 306
f 268 269 308 307
f 269 270 309 308
f 270 271 310 309
f 271 272 311 310
f 272 273 312 311
f 273 274 313 312
f 274 275 314 313
f 275 276 315 314
f 276 277 316 315
f 277 278 317 316
f 278 279 318 317
f 279 280 319 318
f 280 281 320 319
f 281 282 321 320
f 282 283 322 321
f 283 284 323 322
f 284 285 324 323
f 285 286 325 324
f 286 287 326 325
f 287 288 327 326
f 288 289 328 327
f 289 290 329 328
f 290 291 330 329
f 291 292 331 330
f 292 254 293 331
o SD0644_T005_5hao
v 17.321 -23.497 0.000
v 18.045 -44.489 0.000
v 27.520 -60.407 0.000
v 4.930 -70.057 0.000
v -10.378 -73.196 0.000
v -46.573 -70.786 0.000
v -63.339 -64.994 0.000
v -78.647 -55.344 0.000
v -67.714 -43.041 0.000
v -66.745 -22.292 0.000
v 17.321 -23.497 10.430
v 18.045 -44.489 10.430
v 27.520 -60.407 10.430
v 4.930 -70.057 10.430
v -10.378 -73.196 10.430
v -46.573 -70.786 10.430
v -63.339 -64.994 10.430
v -78.647 -55.344 10.430
v -67.714 -43.041 10.430
v -66.745 -22.292 10.430
usemtl roof
f 342 343 344 345 346 347 348 349 350 351
usemtl teaching_building
f 341 340 339 338 337 336 335 334 333 332
f 332 333 343 342
f 333 334 344 343
f 334 335 345 344
f 335 336 346 345
f 336 337 347 346
f 337 338 348 347
f 338 339 349 348
f 339 340 350 349
f 340 341 351 350
f 341 332 342 351
o SD0644_T006_6hao
v 97.554 -108.215 0.000
v 97.101 -103.705 0.000
v 95.100 -103.274 0.000
v 95.326 -91.734 0.000
v 104.484 -91.479 0.000
v 104.139 -86.571 0.000
v 101.359 -86.361 0.000
v 101.132 -74.080 0.000
v 132.961 -74.301 0.000
v 132.934 -78.403 0.000
v 146.729 -78.513 0.000
v 146.448 -83.742 0.000
v 143.812 -95.205 0.000
v 137.581 -109.464 0.000
v 134.429 -114.483 0.000
v 126.358 -122.685 0.000
v 114.194 -131.097 0.000
v 105.353 -134.877 0.000
v 96.232 -136.657 0.000
v 96.015 -124.531 0.000
v 89.339 -124.487 0.000
v 89.529 -119.811 0.000
v 87.917 -119.700 0.000
v 87.817 -108.326 0.000
v 97.554 -108.215 15.910
v 97.101 -103.705 15.910
v 95.100 -103.274 15.910
v 95.326 -91.734 15.910
v 104.484 -91.479 15.910
v 104.139 -86.571 15.910
v 101.359 -86.361 15.910
v 101.132 -74.080 15.910
v 132.961 -74.301 15.910
v 132.934 -78.403 15.910
v 146.729 -78.513 15.910
v 146.448 -83.742 15.910
v 143.812 -95.205 15.910
v 137.581 -109.464 15.910
v 134.429 -114.483 15.910
v 126.358 -122.685 15.910
v 114.194 -131.097 15.910
v 105.353 -134.877 15.910
v 96.232 -136.657 15.910
v 96.015 -124.531 15.910
v 89.339 -124.487 15.910
v 89.529 -119.811 15.910
v 87.917 -119.700 15.910
v 87.817 -108.326 15.910
usemtl roof
f 376 377 378 379 380 381 382 383 384 385 386 387 388 389 390 391 392 393 394 395 396 397 398 399
usemtl teaching_building
f 375 374 373 372 371 370 369 368 367 366 365 364 363 362 361 360 359 358 357 356 355 354 353 352
f 352 353 377 376
f 353 354 378 377
f 354 355 379 378
f 355 356 380 379
f 356 357 381 380
f 357 358 382 381
f 358 359 383 382
f 359 360 384 383
f 360 361 385 384
f 361 362 386 385
f 362 363 387 386
f 363 364 388 387
f 364 365 389 388
f 365 366 390 389
f 366 367 391 390
f 367 368 392 391
f 368 369 393 392
f 369 370 394 393
f 370 371 395 394
f 371 372 396 395
f 372 373 397 396
f 373 374 398 397
f 374 375 399 398
f 375 352 376 399
o SD0644_T007_7hao
v 117.101 -171.389 0.000
v 157.671 -172.118 0.000
v 166.176 -184.665 0.000
v 165.687 -220.369 0.000
v 156.946 -230.494 0.000
v 117.826 -230.981 0.000
v 105.924 -218.921 0.000
v 107.138 -184.665 0.000
v 117.101 -171.389 12.140
v 157.671 -172.118 12.140
v 166.176 -184.665 12.140
v 165.687 -220.369 12.140
v 156.946 -230.494 12.140
v 117.826 -230.981 12.140
v 105.924 -218.921 12.140
v 107.138 -184.665 12.140
usemtl roof
f 408 409 410 411 412 413 414 415
usemtl teaching_building
f 407 406 405 404 403 402 401 400
f 400 401 409 408
f 401 402 410 409
f 402 403 411 410
f 403 404 412 411
f 404 405 413 412
f 405 406 414 413
f 406 407 415 414
f 407 400 408 415
o SD0644_T008_8hao
v -64.870 -197.653 0.000
v -64.770 -184.974 0.000
v -61.111 -184.996 0.000
v -61.029 -173.710 0.000
v -43.865 -173.843 0.000
v -43.955 -185.394 0.000
v -48.158 -185.361 0.000
v -48.412 -218.567 0.000
v -105.485 -218.147 0.000
v -105.421 -209.636 0.000
v -109.280 -209.602 0.000
v -109.189 -197.310 0.000
v -64.870 -197.653 18.980
v -64.770 -184.974 18.980
v -61.111 -184.996 18.980
v -61.029 -173.710 18.980
v -43.865 -173.843 18.980
v -43.955 -185.394 18.980
v -48.158 -185.361 18.980
v -48.412 -218.567 18.980
v -105.485 -218.147 18.980
v -105.421 -209.636 18.980
v -109.280 -209.602 18.980
v -109.189 -197.310 18.980
usemtl roof
f 428 429 430 431 432 433 434 435 436 437 438 439
usemtl teaching_building
f 427 426 425 424 423 422 421 420 419 418 417 416
f 416 417 429 428
f 417 418 430 429
f 418 419 431 430
f 419 420 432 431
f 420 421 433 432
f 421 422 434 433
f 422 423 435 434
f 423 424 436 435
f 424 425 437 436
f 425 426 438 437
f 426 427 439 438
f 427 416 428 439
o SD0644_T009_9hao
v 16.578 -175.545 0.000
v 16.650 -197.719 0.000
v 60.282 -197.565 0.000
v 60.327 -210.255 0.000
v 55.463 -210.277 0.000
v 55.490 -218.247 0.000
v 0.102 -218.457 0.000
v -0.016 -186.024 0.000
v -3.675 -186.035 0.000
v -3.712 -175.622 0.000
v 16.578 -175.545 14.290
v 16.650 -197.719 14.290
v 60.282 -197.565 14.290
v 60.327 -210.255 14.290
v 55.463 -210.277 14.290
v 55.490 -218.247 14.290
v 0.102 -218.457 14.290
v -0.016 -186.024 14.290
v -3.675 -186.035 14.290
v -3.712 -175.622 14.290
usemtl roof
f 450 451 452 453 454 455 456 457 458 459
usemtl teaching_building
f 449 448 447 446 445 444 443 442 441 440
f 440 441 451 450
f 441 442 452 451
f 442 443 453 452
f 443 444 454 453
f 444 445 455 454
f 445 446 456 455
f 446 447 457 456
f 447 448 458 457
f 448 449 459 458
f 449 440 450 459
