# school_id SD0610
# school_name 诸城一中
# boundary_source footprint_convex_hull_buffer_20m
# adjacent_block_merge_distance_m 2.0
mtllib ../campus_materials.mtl
o SD0610_campus_boundary
usemtl campus_boundary
v -89.344 -88.253 0.050
v -92.321 -48.689 0.050
v -101.538 73.901 0.050
v 89.344 88.253 0.050
v 92.321 48.689 0.050
v 101.538 -73.901 0.050
v -49.780 -85.279 0.050
v -89.344 -88.253 0.050
l 1 2 3 4 5 6 7 8 1
o SD0610_T001_1hao
v -72.376 -47.189 0.000
v -80.095 55.457 0.000
v 70.901 66.810 0.000
v 72.377 47.189 0.000
v -58.998 37.310 0.000
v -52.755 -45.714 0.000
v 78.619 -35.835 0.000
v 80.095 -55.457 0.000
v -51.280 -65.335 0.000
v -51.280 -65.335 0.000
v -70.901 -66.810 0.000
v -72.377 -47.189 0.000
v -72.376 -47.189 12.370
v -80.095 55.457 12.370
v 70.901 66.810 12.370
v 72.377 47.189 12.370
v -58.998 37.310 12.370
v -52.755 -45.714 12.370
v 78.619 -35.835 12.370
v 80.095 -55.457 12.370
v -51.280 -65.335 12.370
v -51.280 -65.335 12.370
v -70.901 -66.810 12.370
v -72.377 -47.189 12.370
usemtl roof
f 21 22 23 24 25 26 27 28 29 30 31 32
usemtl teaching_building
f 20 19 18 17 16 15 14 13 12 11 10 9
f 9 10 22 21
f 10 11 23 22
f 11 12 24 23
f 12 13 25 24
f 13 14 26 25
f 14 15 27 26
f 15 16 28 27
f 16 17 29 28
f 17 18 30 29
f 18 19 31 30
f 19 20 32 31
f 20 9 21 32
