# school_id SD0604
# school_name 潍坊锦华学校
# boundary_source footprint_convex_hull_buffer_20m
# adjacent_block_merge_distance_m 2.0
mtllib ../campus_materials.mtl
o SD0604_campus_boundary
usemtl campus_boundary
v -81.311 -39.688 0.050
v -81.693 23.997 0.050
v -23.694 24.722 0.050
v 41.311 25.088 0.050
v 79.792 25.294 0.050
v 80.149 -38.762 0.050
v -81.311 -39.688 0.050
l 1 2 3 4 5 6 7 1
o SD0604_T001_1hao
v -40.202 4.369 0.000
v -40.193 2.236 0.000
v -23.504 2.324 0.000
v -23.513 4.723 0.000
v 23.797 4.977 0.000
v 23.815 2.600 0.000
v 41.440 2.700 0.000
v 41.423 5.088 0.000
v 59.904 5.187 0.000
v 60.038 -18.877 0.000
v -61.431 -19.574 0.000
v -61.574 4.247 0.000
v -40.202 4.369 19.760
v -40.193 2.236 19.760
v -23.504 2.324 19.760
v -23.513 4.723 19.760
v 23.797 4.977 19.760
v 23.815 2.600 19.760
v 41.440 2.700 19.760
v 41.423 5.088 19.760
v 59.904 5.187 19.760
v 60.038 -18.877 19.760
v -61.431 -19.574 19.760
v -61.574 4.247 19.760
usemtl roof
f 20 21 22 23 24 25 26 27 28 29 30 31
usemtl teaching_building
f 19 18 17 16 15 14 13 12 11 10 9 8
f 8 9 21 20
f 9 10 22 21
f 10 11 23 22
f 11 12 24 23
f 12 13 25 24
f 13 14 26 25
f 14 15 27 26
f 15 16 28 27
f 16 17 29 28
f 17 18 30 29
f 18 19 31 30
f 19 8 20 31
