# school_id SD0676
# school_name 济宁市洙泗小学
# boundary_source footprint_convex_hull_buffer_20m
# adjacent_block_merge_distance_m 2.0
mtllib ../campus_materials.mtl
o SD0676_campus_boundary
usemtl campus_boundary
v 38.558 -38.379 0.050
v -43.065 -33.245 0.050
v -40.512 7.351 0.050
v -38.558 38.379 0.050
v -7.531 36.428 0.050
v 43.065 33.245 0.050
v 40.512 -7.351 0.050
v 38.558 -38.379 0.050
l 1 2 3 4 5 6 7 8 1
o SD0676_T001_1hao
v 20.551 -6.095 0.000
v 19.854 -17.163 0.000
v -21.849 -14.540 0.000
v -20.550 6.095 0.000
v -20.551 6.095 0.000
v -19.854 17.163 0.000
v -8.786 16.467 0.000
v -8.786 16.467 0.000
v 21.849 14.540 0.000
v 21.152 3.471 0.000
v -9.483 5.399 0.000
v -10.084 -4.167 0.000
v 20.551 -6.095 15.600
v 19.854 -17.163 15.600
v -21.849 -14.540 15.600
v -20.550 6.095 15.600
v -20.551 6.095 15.600
v -19.854 17.163 15.600
v -8.786 16.467 15.600
v -8.786 16.467 15.600
v 21.849 14.540 15.600
v 21.152 3.471 15.600
v -9.483 5.399 15.600
v -10.084 -4.167 15.600
usemtl roof
f 21 22 23 24 25 26 27 28 29 30 31 32
usemtl teaching_building
f 20 19 18 17 16 15 14 13 12 11 10 9
f 9 10 22 21
f 10 11 23 22
f 11 12 24 23
f 12 13 25 24
f 13 14 26 25
f 14 15 27 26
f 15 16 28 27
f 16 17 29 28
f 17 18 30 29
f 18 19 31 30
f 19 20 32 31
f 20 9 21 32
