# school_id SD0689
# school_name 邹城市东滩煤矿学校
# boundary_source footprint_convex_hull_buffer_20m
# adjacent_block_merge_distance_m 2.0
mtllib ../campus_materials.mtl
o SD0689_campus_boundary
usemtl campus_boundary
v -43.246 -34.154 0.050
v -48.664 4.772 0.050
v -46.054 66.337 0.050
v 21.452 71.930 0.050
v 32.889 -9.843 0.050
v 26.553 -26.816 0.050
v 10.927 -31.715 0.050
v -43.246 -34.154 0.050
l 1 2 3 4 5 6 7 8 1
o SD0689_T001_1hao
v 4.263 50.437 0.000
v 9.605 -3.705 0.000
v 11.246 -4.800 0.000
v 12.380 -7.596 0.000
v 11.237 -10.658 0.000
v 7.428 -11.852 0.000
v 3.428 -9.685 0.000
v -25.948 -13.355 0.000
v -28.605 5.735 0.000
v -21.957 6.597 0.000
v -26.819 47.862 0.000
v 4.263 50.437 9.900
v 9.605 -3.705 9.900
v 11.246 -4.800 9.900
v 12.380 -7.596 9.900
v 11.237 -10.658 9.900
v 7.428 -11.852 9.900
v 3.428 -9.685 9.900
v -25.948 -13.355 9.900
v -28.605 5.735 9.900
v -21.957 6.597 9.900
v -26.819 47.862 9.900
usemtl roof
f 20 21 22 23 24 25 26 27 28 29 30
usemtl teaching_building
f 19 18 17 16 15 14 13 12 11 10 9
f 9 10 21 20
f 10 11 22 21
f 11 12 23 22
f 12 13 24 23
f 13 14 25 24
f 14 15 26 25
f 15 16 27 26
f 16 17 28 27
f 17 18 29 28
f 18 19 30 29
f 19 9 20 30
