# school_id SD0603
# school_name 潍坊职业学院潍城校区
# boundary_source footprint_convex_hull_buffer_20m
# adjacent_block_merge_distance_m 2.0
mtllib ../campus_materials.mtl
o SD0603_campus_boundary
usemtl campus_boundary
v 45.524 -34.000 0.050
v 13.180 -31.557 0.050
v -53.404 -21.333 0.050
v -47.172 27.996 0.050
v 18.203 23.373 0.050
v 49.876 20.907 0.050
v 45.524 -34.000 0.050
l 1 2 3 4 5 6 7 1
o SD0603_T001_1hao
v -31.121 -4.520 0.000
v 15.624 -9.649 0.000
v 16.534 1.217 0.000
v 4.194 2.500 0.000
v 4.007 0.952 0.000
v -0.785 1.516 0.000
v -0.597 3.130 0.000
v -13.419 4.633 0.000
v -13.633 2.798 0.000
v -19.513 3.494 0.000
v -19.281 5.495 0.000
v -29.702 6.711 0.000
v -31.121 -4.520 20.060
v 15.624 -9.649 20.060
v 16.534 1.217 20.060
v 4.194 2.500 20.060
v 4.007 0.952 20.060
v -0.785 1.516 20.060
v -0.597 3.130 20.060
v -13.419 4.633 20.060
v -13.633 2.798 20.060
v -19.513 3.494 20.060
v -19.281 5.495 20.060
v -29.702 6.711 20.060
usemtl roof
f 20 21 22 23 24 25 26 27 28 29 30 31
usemtl teaching_building
f 19 18 17 16 15 14 13 12 11 10 9 8
f 8 9 21 20
f 9 10 22 21
f 10 11 23 22
f 11 12 24 23
f 12 13 25 24
f 13 14 26 25
f 14 15 27 26
f 15 16 28 27
f 16 17 29 28
f 17 18 30 29
f 18 19 31 30
f 19 8 20 31
