# school_id SD0641
# school_name 二十里铺小学-教学楼
# boundary_source footprint_convex_hull_buffer_20m
# adjacent_block_merge_distance_m 2.0
mtllib ../campus_materials.mtl
o SD0641_campus_boundary
usemtl campus_boundary
v -51.884 -70.913 0.050
v -56.704 67.122 0.050
v 16.593 69.682 0.050
v 49.046 70.814 0.050
v 54.045 9.034 0.050
v 54.611 -7.193 0.050
v 42.049 -67.634 0.050
v -16.593 -69.682 0.050
v -51.884 -70.913 0.050
l 1 2 3 4 5 6 7 8 9 1
o SD0641_T001_1hao
v -32.597 5.550 0.000
v -19.237 6.017 0.000
v -19.237 6.017 0.000
v 18.770 7.344 0.000
v 17.758 36.333 0.000
v -35.551 34.472 0.000
v -36.018 47.832 0.000
v 17.291 49.693 0.000
v 17.291 49.694 0.000
v 30.652 50.160 0.000
v 32.131 7.810 0.000
v 34.073 7.878 0.000
v 34.539 -5.482 0.000
v 32.597 -5.550 0.000
v 32.597 -5.550 0.000
v 19.237 -6.017 0.000
v 19.237 -6.017 0.000
v -18.770 -7.344 0.000
v -17.758 -36.333 0.000
v 25.195 -34.833 0.000
v 25.662 -48.194 0.000
v -17.291 -49.694 0.000
v -17.291 -49.694 0.000
v -25.405 -49.977 0.000
v -32.594 -50.228 0.000
v -33.060 -36.868 0.000
v -31.118 -36.800 0.000
v -32.597 5.550 21.350
v -19.237 6.017 21.350
v -19.237 6.017 21.350
v 18.770 7.344 21.350
v 17.758 36.333 21.350
v -35.551 34.472 21.350
v -36.018 47.832 21.350
v 17.291 49.693 21.350
v 17.291 49.694 21.350
v 30.652 50.160 21.350
v 32.131 7.810 21.350
v 34.073 7.878 21.350
v 34.539 -5.482 21.350
v 32.597 -5.550 21.350
v 32.597 -5.550 21.350
v 19.237 -6.017 21.350
v 19.237 -6.017 21.350
v -18.770 -7.344 21.350
v -17.758 -36.333 21.350
v 25.195 -34.833 21.350
v 25.662 -48.194 21.350
v -17.291 -49.694 21.350
v -17.291 -49.694 21.350
v -25.405 -49.977 21.350
v -32.594 -50.228 21.350
v -33.060 -36.868 21.350
v -31.118 -36.800 21.350
usemtl roof
f 37 38 39 40 41 42 43 44 45 46 47 48 49 50 51 52 53 54 55 56 57 58 59 60 61 62 63
usemtl teaching_building
f 36 35 34 33 32 31 30 29 28 27 26 25 24 23 22 21 20 19 18 17 16 15 14 13 12 11 10
f 10 11 38 37
f 11 12 39 38
f 12 13 40 39
f 13 14 41 40
f 14 15 42 41
f 15 16 43 42
f 16 17 44 43
f 17 18 45 44
f 18 19 46 45
f 19 20 47 46
f 20 21 48 47
f 21 22 49 48
f 22 23 50 49
f 23 24 51 50
f 24 25 52 51
f 25 26 53 52
f 26 27 54 53
f 27 28 55 54
f 28 29 56 55
f 29 30 57 56
f 30 31 58 57
f 31 32 59 58
f 32 33 60 59
f 33 34 61 60
f 34 35 62 61
f 35 36 63 62
f 36 10 37 63
