# school_id SD0622
# school_name 诸城市繁华初级中学
# boundary_source footprint_convex_hull_buffer_20m
# adjacent_block_merge_distance_m 2.0
mtllib ../campus_materials.mtl
o SD0622_campus_boundary
usemtl campus_boundary
v -42.038 -140.928 0.050
v -81.739 -139.499 0.050
v -74.821 120.230 0.050
v -12.474 120.214 0.050
v 2.217 120.016 0.050
v 85.067 113.784 0.050
v 85.994 64.226 0.050
v 85.155 37.726 0.050
v 76.586 -49.748 0.050
v 68.669 -121.603 0.050
v -42.038 -140.928 0.050
l 1 2 3 4 5 6 7 8 9 10 11 1
o SD0622_T001_1hao
v 65.411 95.206 0.000
v 65.060 77.874 0.000
v 8.401 79.001 0.000
v 8.752 96.323 0.000
v 65.411 95.206 16.130
v 65.060 77.874 16.130
v 8.401 79.001 16.130
v 8.752 96.323 16.130
usemtl roof
f 16 17 18 19
usemtl teaching_building
f 15 14 13 12
f 12 13 17 16
f 13 14 18 17
f 14 15 19 18
f 15 12 16 19
o SD0622_T002_2hao
v -55.347 100.225 0.000
v -41.179 100.037 0.000
v -41.306 90.917 0.000
v -12.746 90.531 0.000
v -12.611 100.214 0.000
v 1.331 100.026 0.000
v 0.961 73.231 0.000
v -55.707 73.994 0.000
v -55.347 100.225 33.080
v -41.179 100.037 33.080
v -41.306 90.917 33.080
v -12.746 90.531 33.080
v -12.611 100.214 33.080
v 1.331 100.026 33.080
v 0.961 73.231 33.080
v -55.707 73.994 33.080
usemtl roof
f 28 29 30 31 32 33 34 35
usemtl teaching_building
f 27 26 25 24 23 22 21 20
f 20 21 29 28
f 21 22 30 29
f 22 23 31 30
f 23 24 32 31
f 24 25 33 32
f 25 26 34 33
f 26 27 35 34
f 27 20 28 35
o SD0622_T003_3hao
v 65.988 64.355 0.000
v 65.186 39.019 0.000
v 10.706 40.710 0.000
v 11.499 66.035 0.000
v 65.988 64.355 27.450
v 65.186 39.019 27.450
v 10.706 40.710 27.450
v 11.499 66.035 27.450
usemtl roof
f 40 41 42 43
usemtl teaching_building
f 39 38 37 36
f 36 37 41 40
f 37 38 42 41
f 38 39 43 42
f 39 36 40 43
o SD0622_T004_4hao
v 57.450 -1.428 0.000
v 56.693 -47.678 0.000
v 7.059 -46.871 0.000
v 7.824 -0.621 0.000
v 57.450 -1.428 21.670
v 56.693 -47.678 21.670
v 7.059 -46.871 21.670
v 7.824 -0.621 21.670
usemtl roof
f 48 49 50 51
usemtl teaching_building
f 47 46 45 44
f 44 45 49 48
f 45 46 50 49
f 46 47 51 50
f 47 44 48 51
o SD0622_T005_5hao
v 51.235 -77.767 0.000
v 50.434 -104.484 0.000
v 6.374 -103.180 0.000
v 7.176 -76.473 0.000
v 51.235 -77.767 17.910
v 50.434 -104.484 17.910
v 6.374 -103.180 17.910
v 7.176 -76.473 17.910
usemtl roof
f 56 57 58 59
usemtl teaching_building
f 55 54 53 52
f 52 53 57 56
f 53 54 58 57
f 54 55 59 58
f 55 52 56 59
o SD0622_T006_6hao
v -9.639 -79.789 0.000
v -59.688 -77.999 0.000
v -61.219 -120.225 0.000
v -43.413 -120.866 0.000
v -43.143 -113.604 0.000
v -50.762 -113.338 0.000
v -50.312 -100.969 0.000
v -10.468 -102.406 0.000
v -9.639 -79.789 17.860
v -59.688 -77.999 17.860
v -61.219 -120.225 17.860
v -43.413 -120.866 17.860
v -43.143 -113.604 17.860
v -50.762 -113.338 17.860
v -50.312 -100.969 17.860
v -10.468 -102.406 17.860
usemtl roof
f 68 69 70 71 72 73 74 75
usemtl teaching_building
f 67 66 65 64 63 62 61 60
f 60 61 69 68
f 61 62 70 69
f 62 63 71 70
f 63 64 72 71
f 64 65 73 72
f 65 66 74 73
f 66 67 75 74
f 67 60 68 75
