# school_id SD0667
# school_name 汶上县第一中学
# boundary_source footprint_convex_hull_buffer_20m
# adjacent_block_merge_distance_m 2.0
mtllib ../campus_materials.mtl
o SD0667_campus_boundary
usemtl campus_boundary
v -63.502 -56.845 0.050
v -78.027 -34.724 0.050
v -102.420 17.666 0.050
v -100.705 49.876 0.050
v -22.040 55.081 0.050
v 80.758 56.906 0.050
v 84.839 28.476 0.050
v 89.981 -24.273 0.050
v 76.005 -52.050 0.050
v -63.502 -56.845 0.050
l 1 2 3 4 5 6 7 8 9 10 1
o SD0667_T001_1hao
v -56.442 -23.239 0.000
v -57.807 23.166 0.000
v -49.971 23.674 0.000
v -48.046 -19.700 0.000
v -40.354 -16.452 0.000
v -1.038 -10.450 0.000
v 30.207 -12.450 0.000
v 55.912 -15.954 0.000
v 54.186 25.769 0.000
v -20.696 23.586 0.000
v -21.202 35.093 0.000
v 63.468 36.596 0.000
v 64.977 26.084 0.000
v 64.733 -18.872 0.000
v 69.514 -20.453 0.000
v 63.468 -32.469 0.000
v 56.915 -30.468 0.000
v 26.673 -26.467 0.000
v -11.622 -26.964 0.000
v -52.954 -36.471 0.000
v -60.510 -24.963 0.000
v -50.082 -20.560 0.000
v -56.442 -23.239 13.760
v -57.807 23.166 13.760
v -49.971 23.674 13.760
v -48.046 -19.700 13.760
v -40.354 -16.452 13.760
v -1.038 -10.450 13.760
v 30.207 -12.450 13.760
v 55.912 -15.954 13.760
v 54.186 25.769 13.760
v -20.696 23.586 13.760
v -21.202 35.093 13.760
v 63.468 36.596 13.760
v 64.977 26.084 13.760
v 64.733 -18.872 13.760
v 69.514 -20.453 13.760
v 63.468 -32.469 13.760
v 56.915 -30.468 13.760
v 26.673 -26.467 13.760
v -11.622 -26.964 13.760
v -52.954 -36.471 13.760
v -60.510 -24.963 13.760
v -50.082 -20.560 13.760
usemtl roof
f 33 34 35 36 37 38 39 40 41 42 43 44 45 46 47 48 49 50 51 52 53 54
usemtl teaching_building
f 32 31 30 29 28 27 26 25 24 23 22 21 20 19 18 17 16 15 14 13 12 11
f 11 12 34 33
f 12 13 35 34
f 13 14 36 35
f 14 15 37 36
f 15 16 38 37
f 16 17 39 38
f 17 18 40 39
f 18 19 41 40
f 19 20 42 41
f 20 21 43 42
f 21 22 44 43
f 22 23 45 44
f 23 24 46 45
f 24 25 47 46
f 25 26 48 47
f 26 27 49 48
f 27 28 50 49
f 28 29 51 50
f 29 30 52 51
f 30 31 53 52
f 31 32 54 53
f 32 11 33 54
o SD0667_T001_1hao_seg02
v -28.261 25.089 0.000
v -82.183 21.585 0.000
v -81.677 31.091 0.000
v -29.771 33.092 0.000
v -28.261 25.089 13.760
v -82.183 21.585 13.760
v -81.677 31.091 13.760
v -29.771 33.092 13.760
usemtl roof
f 59 60 61 62
usemtl teaching_building
f 58 57 56 55
f 55 56 60 59
f 56 57 61 60
f 57 58 62 61
f 58 55 59 62
