# school_id SD0646
# school_name 兖州一中附属学校
# boundary_source footprint_convex_hull_buffer_20m
# adjacent_block_merge_distance_m 2.0
mtllib ../campus_materials.mtl
o SD0646_campus_boundary
usemtl campus_boundary
v -21.236 -85.517 0.050
v -48.269 -84.908 0.050
v -55.254 -28.793 0.050
v -59.662 160.282 0.050
v 32.687 170.810 0.050
v 56.381 -15.009 0.050
v 63.193 -68.954 0.050
v 42.158 -77.371 0.050
v 17.620 -80.776 0.050
v -1.373 -83.143 0.050
v -21.236 -85.517 0.050
l 1 2 3 4 5 6 7 8 9 10 11 1
o SD0646_T001_1hao
v 15.344 148.703 0.000
v 32.147 3.244 0.000
v -25.002 -3.267 0.000
v -27.502 18.365 0.000
v 19.891 23.771 0.000
v 17.038 48.477 0.000
v -28.208 43.325 0.000
v -29.603 55.441 0.000
v 17.138 60.769 0.000
v 13.940 88.470 0.000
v -31.406 83.308 0.000
v -32.810 95.467 0.000
v 12.029 100.563 0.000
v 9.112 125.821 0.000
v -36.723 120.604 0.000
v -39.242 142.480 0.000
v 15.344 148.703 12.360
v 32.147 3.244 12.360
v -25.002 -3.267 12.360
v -27.502 18.365 12.360
v 19.891 23.771 12.360
v 17.038 48.477 12.360
v -28.208 43.325 12.360
v -29.603 55.441 12.360
v 17.138 60.769 12.360
v 13.940 88.470 12.360
v -31.406 83.308 12.360
v -32.810 95.467 12.360
v 12.029 100.563 12.360
v 9.112 125.821 12.360
v -36.723 120.604 12.360
v -39.242 142.480 12.360
usemtl roof
f 28 29 30 31 32 33 34 35 36 37 38 39 40 41 42 43
usemtl teaching_building
f 27 26 25 24 23 22 21 20 19 18 17 16 15 14 13 12
f 12 13 29 28
f 13 14 30 29
f 14 15 31 30
f 15 16 32 31
f 16 17 33 32
f 17 18 34 33
f 18 19 35 34
f 19 20 36 35
f 20 21 37 36
f 21 22 38 37
f 22 23 39 38
f 23 24 40 39
f 24 25 41 40
f 25 26 42 41
f 26 27 43 42
f 27 12 28 43
o SD0646_T002_2hao
v -26.560 -26.248 0.000
v -26.813 -24.170 0.000
v -17.275 -22.999 0.000
v -17.021 -24.988 0.000
v -9.104 -24.027 0.000
v -9.431 -21.374 0.000
v 9.818 -19.019 0.000
v 10.081 -21.119 0.000
v 21.658 -19.693 0.000
v 21.431 -17.858 0.000
v 32.020 -16.543 0.000
v 32.211 -18.057 0.000
v 36.540 -17.527 0.000
v 41.414 -56.127 0.000
v 36.839 -56.691 0.000
v 36.993 -57.896 0.000
v 26.948 -59.145 0.000
v 26.767 -57.708 0.000
v 14.791 -59.200 0.000
v 15.009 -60.947 0.000
v -3.796 -63.290 0.000
v -4.005 -61.621 0.000
v -12.239 -62.649 0.000
v -12.030 -64.241 0.000
v -22.203 -65.490 0.000
v -22.348 -64.285 0.000
v -30.555 -65.302 0.000
v -35.283 -27.321 0.000
v -26.560 -26.248 9.100
v -26.813 -24.170 9.100
v -17.275 -22.999 9.100
v -17.021 -24.988 9.100
v -9.104 -24.027 9.100
v -9.431 -21.374 9.100
v 9.818 -19.019 9.100
v 10.081 -21.119 9.100
v 21.658 -19.693 9.100
v 21.431 -17.858 9.100
v 32.020 -16.543 9.100
v 32.211 -18.057 9.100
v 36.540 -17.527 9.100
v 41.414 -56.127 9.100
v 36.839 -56.691 9.100
v 36.993 -57.896 9.100
v 26.948 -59.145 9.100
v 26.767 -57.708 9.100
v 14.791 -59.200 9.100
v 15.009 -60.947 9.100
v -3.796 -63.290 9.100
v -4.005 -61.621 9.100
v -12.239 -62.649 9.100
v -12.030 -64.241 9.100
v -22.203 -65.490 9.100
v -22.348 -64.285 9.100
v -30.555 -65.302 9.100
v -35.283 -27.321 9.100
usemtl roof
f 72 73 74 75 76 77 78 79 80 81 82 83 84 85 86 87 88 89 90 91 92 93 94 95 96 97 98 99
usemtl teaching_building
f 71 70 69 68 67 66 65 64 63 62 61 60 59 58 57 56 55 54 53 52 51 50 49 48 47 46 45 44
f 44 45 73 72
f 45 46 74 73
f 46 47 75 74
f 47 48 76 75
f 48 49 77 76
f 49 50 78 77
f 50 51 79 78
f 51 52 80 79
f 52 53 81 80
f 53 54 82 81
f 54 55 83 82
f 55 56 84 83
f 56 57 85 84
f 57 58 86 85
f 58 59 87 86
f 59 60 88 87
f 60 61 89 88
f 61 62 90 89
f 62 63 91 90
f 63 64 92 91
f 64 65 93 92
f 65 66 94 93
f 66 67 95 94
f 67 68 96 95
f 68 69 97 96
f 69 70 98 97
f 70 71 99 98
f 71 44 72 99
