# school_id SD0639
# school_name 高密市崇文中学
# boundary_source footprint_convex_hull_buffer_20m
# adjacent_block_merge_distance_m 2.0
mtllib ../campus_materials.mtl
o SD0639_campus_boundary
usemtl campus_boundary
v -23.406 -49.883 0.050
v -78.926 -47.972 0.050
v -82.703 -14.883 0.050
v -82.840 -6.755 0.050
v -77.381 12.856 0.050
v 2.435 96.911 0.050
v 67.175 97.582 0.050
v 67.552 61.151 0.050
v 63.608 9.620 0.050
v 61.168 -16.720 0.050
v 54.292 -47.108 0.050
v 1.510 -49.713 0.050
v -23.406 -49.883 0.050
l 1 2 3 4 5 6 7 8 9 10 11 12 13 1
o SD0639_T001_1hao
v 47.383 77.376 0.000
v 47.544 61.812 0.000
v 11.279 61.425 0.000
v 11.108 77.000 0.000
v 47.383 77.376 9.930
v 47.544 61.812 9.930
v 11.279 61.425 9.930
v 11.108 77.000 9.930
usemtl roof
f 18 19 20 21
usemtl teaching_building
f 17 16 15 14
f 14 15 19 18
f 15 16 20 19
f 16 17 21 20
f 17 14 18 21
o SD0639_T002_2hao
v 10.337 10.808 0.000
v 43.679 11.306 0.000
v 43.473 25.565 0.000
v 38.558 25.488 0.000
v 38.460 31.745 0.000
v 41.536 31.789 0.000
v 41.491 35.094 0.000
v 38.576 35.061 0.000
v 38.487 40.964 0.000
v 9.898 40.544 0.000
v 10.337 10.808 9.620
v 43.679 11.306 9.620
v 43.473 25.565 9.620
v 38.558 25.488 9.620
v 38.460 31.745 9.620
v 41.536 31.789 9.620
v 41.491 35.094 9.620
v 38.576 35.061 9.620
v 38.487 40.964 9.620
v 9.898 40.544 9.620
usemtl roof
f 32 33 34 35 36 37 38 39 40 41
usemtl teaching_building
f 31 30 29 28 27 26 25 24 23 22
f 22 23 33 32
f 23 24 34 33
f 24 25 35 34
f 25 26 36 35
f 26 27 37 36
f 27 28 38 37
f 28 29 39 38
f 29 30 40 39
f 30 31 41 40
f 31 22 32 41
o SD0639_T003_3hao
v 38.074 -17.788 0.000
v 38.137 -27.881 0.000
v 0.939 -28.124 0.000
v 0.948 -29.716 0.000
v -23.130 -29.881 0.000
v -23.139 -28.312 0.000
v -61.010 -28.577 0.000
v -61.081 -18.352 0.000
v -59.432 -18.340 0.000
v -59.494 -13.533 0.000
v -62.722 -13.577 0.000
v -62.794 -9.321 0.000
v -59.584 -9.266 0.000
v -59.449 2.695 0.000
v -40.994 2.971 0.000
v -40.671 -18.142 0.000
v -48.947 -18.264 0.000
v -36.743 -18.175 0.000
v -36.797 -11.266 0.000
v -22.332 -11.167 0.000
v -22.341 -9.266 0.000
v -15.095 -9.210 0.000
v -15.104 -7.475 0.000
v -7.490 -7.420 0.000
v -7.482 -9.299 0.000
v -0.469 -9.244 0.000
v -0.451 -10.990 0.000
v 9.602 -10.924 0.000
v 9.647 -17.965 0.000
v 17.746 -17.915 0.000
v 17.861 3.126 0.000
v 36.245 3.026 0.000
v 36.173 -9.266 0.000
v 41.401 -9.288 0.000
v 41.374 -13.577 0.000
v 36.747 -13.555 0.000
v 36.730 -17.796 0.000
v 38.074 -17.788 9.440
v 38.137 -27.881 9.440
v 0.939 -28.124 9.440
v 0.948 -29.716 9.440
v -23.130 -29.881 9.440
v -23.139 -28.312 9.440
v -61.010 -28.577 9.440
v -61.081 -18.352 9.440
v -59.432 -18.340 9.440
v -59.494 -13.533 9.440
v -62.722 -13.577 9.440
v -62.794 -9.321 9.440
v -59.584 -9.266 9.440
v -59.449 2.695 9.440
v -40.994 2.971 9.440
v -40.671 -18.142 9.440
v -48.947 -18.264 9.440
v -36.743 -18.175 9.440
v -36.797 -11.266 9.440
v -22.332 -11.167 9.440
v -22.341 -9.266 9.440
v -15.095 -9.210 9.440
v -15.104 -7.475 9.440
v -7.490 -7.420 9.440
v -7.482 -9.299 9.440
v -0.469 -9.244 9.440
v -0.451 -10.990 9.440
v 9.602 -10.924 9.440
v 9.647 -17.965 9.440
v 17.746 -17.915 9.440
v 17.861 3.126 9.440
v 36.245 3.026 9.440
v 36.173 -9.266 9.440
v 41.401 -9.288 9.440
v 41.374 -13.577 9.440
v 36.747 -13.555 9.440
v 36.730 -17.796 9.440
usemtl roof
f 79 80 81 82 83 84 85 86 87 88 89 90 91 92 93 94 95 96 97 98 99 100 101 102 103 104 105 106 107 108 109 110 111 112 113 114 115
usemtl teaching_building
f 78 77 76 75 74 73 72 71 70 69 68 67 66 65 64 63 62 61 60 59 58 57 56 55 54 53 52 51 50 49 48 47 46 45 44 43 42
f 42 43 80 79
f 43 44 81 80
f 44 45 82 81
f 45 46 83 82
f 46 47 84 83
f 47 48 85 84
f 48 49 86 85
f 49 50 87 86
f 50 51 88 87
f 51 52 89 88
f 52 53 90 89
f 53 54 91 90
f 54 55 92 91
f 55 56 93 92
f 56 57 94 93
f 57 58 95 94
f 58 59 96 95
f 59 60 97 96
f 60 61 98 97
f 61 62 99 98
f 62 63 100 99
f 63 64 101 100
f 64 65 102 101
f 65 66 103 102
f 66 67 104 103
f 67 68 105 104
f 68 69 106 105
f 69 70 107 106
f 70 71 108 107
f 71 72 109 108
f 72 73 110 109
f 73 74 111 110
f 74 75 112 111
f 75 76 113 112
f 76 77 114 113
f 77 78 115 114
f 78 42 79 115
