# school_id SD0690
# school_name 金乡县实验中学
# boundary_source footprint_convex_hull_buffer_20m
# adjacent_block_merge_distance_m 2.0
mtllib ../campus_materials.mtl
o SD0690_campus_boundary
usemtl campus_boundary
v 38.871 -38.465 0.050
v -45.666 -30.217 0.050
v -38.871 38.473 0.050
v 45.667 30.208 0.050
v 38.871 -38.465 0.050
l 1 2 3 4 5 1
o SD0690_T001_1hao
v 20.935 -16.620 0.000
v 23.792 12.251 0.000
v -20.935 16.624 0.000
v -23.792 -12.256 0.000
v 20.935 -16.620 6.600
v 23.792 12.251 6.600
v -20.935 16.624 6.600
v -23.792 -12.256 6.600
usemtl roof
f 10 11 12 13
usemtl teaching_building
f 9 8 7 6
f 6 7 11 10
f 7 8 12 11
f 8 9 13 12
f 9 6 10 13
