# school_id SD0605
# school_name 潍坊高新区东华学校
# boundary_source footprint_convex_hull_buffer_20m
# adjacent_block_merge_distance_m 2.0
mtllib ../campus_materials.mtl
o SD0605_campus_boundary
usemtl campus_boundary
v -68.224 -136.989 0.050
v -73.207 64.279 0.050
v 10.694 72.566 0.050
v 68.322 62.355 0.050
v 72.450 -136.512 0.050
v -68.224 -136.989 0.050
l 1 2 3 4 5 6 1
o SD0605_T001_1hao
v -48.715 -116.923 0.000
v 52.032 -116.581 0.000
v 48.667 45.526 0.000
v 12.437 45.359 0.000
v 9.918 52.392 0.000
v -21.586 44.025 0.000
v -52.753 46.202 0.000
v -48.715 -116.923 9.900
v 52.032 -116.581 9.900
v 48.667 45.526 9.900
v 12.437 45.359 9.900
v 9.918 52.392 9.900
v -21.586 44.025 9.900
v -52.753 46.202 9.900
usemtl roof
f 14 15 16 17 18 19 20
usemtl teaching_building
f 13 12 11 10 9 8 7
f 7 8 15 14
f 8 9 16 15
f 9 10 17 16
f 10 11 18 17
f 11 12 19 18
f 12 13 20 19
f 13 7 14 20
