# school_id SD0657
# school_name 微山县亚马逊高级中学
# boundary_source footprint_convex_hull_buffer_20m
# adjacent_block_merge_distance_m 2.0
mtllib ../campus_materials.mtl
o SD0657_campus_boundary
usemtl campus_boundary
v -85.810 -124.710 0.050
v -78.550 66.446 0.050
v -32.481 145.675 0.050
v 96.336 46.205 0.050
v 50.155 -124.168 0.050
v -85.810 -124.710 0.050
l 1 2 3 4 5 6 1
o SD0657_T001_1hao
v 34.838 -104.229 0.000
v 42.067 -6.294 0.000
v 73.537 38.541 0.000
v -26.655 115.907 0.000
v -58.754 60.704 0.000
v -65.033 -104.627 0.000
v 34.838 -104.229 9.900
v 42.067 -6.294 9.900
v 73.537 38.541 9.900
v -26.655 115.907 9.900
v -58.754 60.704 9.900
v -65.033 -104.627 9.900
usemtl roof
f 13 14 15 16 17 18
usemtl teaching_building
f 12 11 10 9 8 7
f 7 8 14 13
f 8 9 15 14
f 9 10 16 15
f 10 11 17 16
f 11 12 18 17
f 12 7 13 18
