# school_id SD0601
# school_name 潍坊未来实验学校
# boundary_source footprint_convex_hull_buffer_20m
# adjacent_block_merge_distance_m 2.0
mtllib ../campus_materials.mtl
o SD0601_campus_boundary
usemtl campus_boundary
v -26.822 -187.402 0.050
v -192.985 -146.692 0.050
v -194.864 59.377 0.050
v -194.733 122.062 0.050
v -188.274 133.627 0.050
v -179.310 142.156 0.050
v -168.516 145.419 0.050
v 135.120 165.272 0.050
v 190.107 167.604 0.050
v 208.273 156.075 0.050
v 208.603 82.596 0.050
v 117.246 -120.511 0.050
v 113.254 -126.897 0.050
v 38.901 -179.252 0.050
v 28.952 -182.379 0.050
v -26.822 -187.402 0.050
l 1 2 3 4 5 6 7 8 9 10 11 12 13 14 15 16 1
o SD0601_T001_1hao
v -75.465 103.670 0.000
v -72.773 103.188 0.000
v 32.392 94.414 0.000
v 34.486 95.878 0.000
v 35.585 98.065 0.000
v 35.832 102.216 0.000
v 31.285 133.894 0.000
v 27.239 136.942 0.000
v -73.505 130.234 0.000
v -75.958 128.650 0.000
v -78.658 124.990 0.000
v -79.025 107.330 0.000
v -75.465 103.670 9.900
v -72.773 103.188 9.900
v 32.392 94.414 9.900
v 34.486 95.878 9.900
v 35.585 98.065 9.900
v 35.832 102.216 9.900
v 31.285 133.894 9.900
v 27.239 136.942 9.900
v -73.505 130.234 9.900
v -75.958 128.650 9.900
v -78.658 124.990 9.900
v -79.025 107.330 9.900
usemtl roof
f 29 30 31 32 33 34 35 36 37 38 39 40
usemtl teaching_building
f 28 27 26 25 24 23 22 21 20 19 18 17
f 17 18 30 29
f 18 19 31 30
f 19 20 32 31
f 20 21 33 32
f 21 22 34 33
f 22 23 35 34
f 23 24 36 35
f 24 25 37 36
f 25 26 38 37
f 26 27 39 38
f 27 28 40 39
f 28 17 29 40
o SD0601_T002_2hao
v 126.601 88.651 0.000
v 183.648 82.990 0.000
v 188.584 86.844 0.000
v 188.322 145.049 0.000
v 184.687 147.356 0.000
v 136.196 145.300 0.000
v 132.307 140.148 0.000
v 122.966 93.024 0.000
v 126.601 88.651 7.540
v 183.648 82.990 7.540
v 188.584 86.844 7.540
v 188.322 145.049 7.540
v 184.687 147.356 7.540
v 136.196 145.300 7.540
v 132.307 140.148 7.540
v 122.966 93.024 7.540
usemtl roof
f 49 50 51 52 53 54 55 56
usemtl teaching_building
f 48 47 46 45 44 43 42 41
f 41 42 50 49
f 42 43 51 50
f 43 44 52 51
f 44 45 53 52
f 45 46 54 53
f 46 47 55 54
f 47 48 56 55
f 48 41 49 56
o SD0601_T003_3hao
v -172.538 56.639 0.000
v -168.851 54.323 0.000
v -164.924 53.600 0.000
v -114.242 58.103 0.000
v -111.422 60.049 0.000
v -110.196 63.709 0.000
v -110.076 116.104 0.000
v -113.023 119.634 0.000
v -118.422 121.469 0.000
v -164.924 125.611 0.000
v -168.970 124.388 0.000
v -172.291 121.228 0.000
v -174.744 116.836 0.000
v -174.864 59.447 0.000
v -172.538 56.639 9.900
v -168.851 54.323 9.900
v -164.924 53.600 9.900
v -114.242 58.103 9.900
v -111.422 60.049 9.900
v -110.196 63.709 9.900
v -110.076 116.104 9.900
v -113.023 119.634 9.900
v -118.422 121.469 9.900
v -164.924 125.611 9.900
v -168.970 124.388 9.900
v -172.291 121.228 9.900
v -174.744 116.836 9.900
v -174.864 59.447 9.900
usemtl roof
f 71 72 73 74 75 76 77 78 79 80 81 82 83 84
usemtl teaching_building
f 70 69 68 67 66 65 64 63 62 61 60 59 58 57
f 57 58 72 71
f 58 59 73 72
f 59 60 74 73
f 60 61 75 74
f 61 62 76 75
f 62 63 77 76
f 63 64 78 77
f 64 65 79 78
f 65 66 80 79
f 66 67 81 80
f 67 68 82 81
f 68 69 83 82
f 69 70 84 83
f 70 57 71 84
o SD0601_T004_4hao
v -86.346 -1.853 0.000
v -86.369 -4.104 0.000
v -48.071 -4.558 0.000
v -47.899 9.701 0.000
v -86.301 10.155 0.000
v -86.002 34.653 0.000
v -48.317 34.208 0.000
v -48.145 48.106 0.000
v -86.219 48.541 0.000
v -86.249 45.929 0.000
v -96.944 46.049 0.000
v -97.504 -1.732 0.000
v -86.346 -1.853 9.900
v -86.369 -4.104 9.900
v -48.071 -4.558 9.900
v -47.899 9.701 9.900
v -86.301 10.155 9.900
v -86.002 34.653 9.900
v -48.317 34.208 9.900
v -48.145 48.106 9.900
v -86.219 48.541 9.900
v -86.249 45.929 9.900
v -96.944 46.049 9.900
v -97.504 -1.732 9.900
usemtl roof
f 97 98 99 100 101 102 103 104 105 106 107 108
usemtl teaching_building
f 96 95 94 93 92 91 90 89 88 87 86 85
f 85 86 98 97
f 86 87 99 98
f 87 88 100 99
f 88 89 101 100
f 89 90 102 101
f 90 91 103 102
f 91 92 104 103
f 92 93 105 104
f 93 94 106 105
f 94 95 107 106
f 95 96 108 107
f 96 85 97 108
o SD0601_T005_5hao
v -109.022 -131.540 0.000
v -108.229 -44.455 0.000
v -172.336 -43.871 0.000
v -173.128 -130.966 0.000
v -109.022 -131.540 9.900
v -108.229 -44.455 9.900
v -172.336 -43.871 9.900
v -173.128 -130.966 9.900
usemtl roof
f 113 114 115 116
usemtl teaching_building
f 112 111 110 109
f 109 110 114 113
f 110 111 115 114
f 111 112 116 115
f 112 109 113 116
