# school_id SD0695
# school_name 鱼台县第三实验小学
# boundary_source footprint_convex_hull_buffer_20m
# adjacent_block_merge_distance_m 2.0
mtllib ../campus_materials.mtl
o SD0695_campus_boundary
usemtl campus_boundary
v 155.135 -68.351 0.050
v 8.355 -68.105 0.050
v -89.174 -67.417 0.050
v -88.916 -32.966 0.050
v -86.195 90.084 0.050
v 14.319 89.938 0.050
v 63.035 66.751 0.050
v 155.895 -9.297 0.050
v 155.135 -68.351 0.050
l 1 2 3 4 5 6 7 8 9 1
o SD0695_T001_1hao
v 135.391 -48.318 0.000
v 135.773 -18.669 0.000
v 67.686 -17.798 0.000
v 67.296 -47.429 0.000
v 135.391 -48.318 6.600
v 135.773 -18.669 6.600
v 67.686 -17.798 6.600
v 67.296 -47.429 6.600
usemtl roof
f 14 15 16 17
usemtl teaching_building
f 13 12 11 10
f 10 11 15 14
f 11 12 16 15
f 12 13 17 16
f 13 10 14 17
