# school_id SD0612
# school_name 诸城市实验初级中学
# boundary_source footprint_convex_hull_buffer_20m
# adjacent_block_merge_distance_m 2.0
mtllib ../campus_materials.mtl
o SD0612_campus_boundary
usemtl campus_boundary
v 26.717 -115.225 0.050
v -35.989 -114.747 0.050
v -92.172 -109.977 0.050
v -91.072 -45.870 0.050
v -81.442 91.787 0.050
v 51.260 99.481 0.050
v 170.666 97.755 0.050
v 170.034 54.586 0.050
v 158.134 11.172 0.050
v 76.399 -109.331 0.050
v 26.717 -115.225 0.050
l 1 2 3 4 5 6 7 8 9 10 11 1
o SD0612_T001_1hao
v 150.073 57.421 0.000
v 150.375 78.046 0.000
v 51.695 79.473 0.000
v 51.400 58.839 0.000
v 150.073 57.421 9.900
v 150.375 78.046 9.900
v 51.695 79.473 9.900
v 51.400 58.839 9.900
usemtl roof
f 16 17 18 19
usemtl teaching_building
f 15 14 13 12
f 12 13 17 16
f 13 14 18 17
f 14 15 19 18
f 15 12 16 19
o SD0612_T002_2hao
v -32.437 59.997 0.000
v 26.200 60.182 0.000
v 26.155 73.710 0.000
v -32.483 73.515 0.000
v -32.437 59.997 9.900
v 26.200 60.182 9.900
v 26.155 73.710 9.900
v -32.483 73.515 9.900
usemtl roof
f 24 25 26 27
usemtl teaching_building
f 23 22 21 20
f 20 21 25 24
f 21 22 26 25
f 22 23 27 26
f 23 20 24 27
o SD0612_T003_3hao
v -50.722 38.761 0.000
v -50.337 60.868 0.000
v -36.514 60.627 0.000
v -36.310 72.385 0.000
v -62.719 72.839 0.000
v -63.308 38.983 0.000
v -50.722 38.761 9.900
v -50.337 60.868 9.900
v -36.514 60.627 9.900
v -36.310 72.385 9.900
v -62.719 72.839 9.900
v -63.308 38.983 9.900
usemtl roof
f 34 35 36 37 38 39
usemtl teaching_building
f 33 32 31 30 29 28
f 28 29 35 34
f 29 30 36 35
f 30 31 37 36
f 31 32 38 37
f 32 33 39 38
f 33 28 34 39
o SD0612_T004_4hao
v 139.722 19.656 0.000
v 140.092 39.511 0.000
v 85.283 40.503 0.000
v 84.913 20.666 0.000
v 139.722 19.656 9.900
v 140.092 39.511 9.900
v 85.283 40.503 9.900
v 84.913 20.666 9.900
usemtl roof
f 44 45 46 47
usemtl teaching_building
f 43 42 41 40
f 40 41 45 44
f 41 42 46 45
f 42 43 47 46
f 43 40 44 47
o SD0612_T005_5hao
v 26.502 14.791 0.000
v 26.781 40.438 0.000
v -33.645 41.068 0.000
v -33.917 15.440 0.000
v 26.502 14.791 9.900
v 26.781 40.438 9.900
v -33.645 41.068 9.900
v -33.917 15.440 9.900
usemtl roof
f 52 53 54 55
usemtl teaching_building
f 51 50 49 48
f 48 49 53 52
f 49 50 54 53
f 50 51 55 54
f 51 48 52 55
o SD0612_T006_6hao
v 66.764 -33.120 0.000
v 67.171 37.232 0.000
v 39.698 37.390 0.000
v 39.306 -32.972 0.000
v 66.764 -33.120 9.900
v 67.171 37.232 9.900
v 39.698 37.390 9.900
v 39.306 -32.972 9.900
usemtl roof
f 60 61 62 63
usemtl teaching_building
f 59 58 57 56
f 56 57 61 60
f 57 58 62 61
f 58 59 63 62
f 59 56 60 63
o SD0612_T007_7hao
v -64.123 7.046 0.000
v -60.733 7.073 0.000
v -60.695 -3.137 0.000
v -64.025 -3.146 0.000
v -63.904 -30.600 0.000
v -43.739 -30.516 0.000
v -43.807 -16.757 0.000
v -48.299 -16.776 0.000
v -48.458 21.722 0.000
v -44.789 21.750 0.000
v -44.834 32.470 0.000
v -64.221 32.396 0.000
v -64.123 7.046 9.900
v -60.733 7.073 9.900
v -60.695 -3.137 9.900
v -64.025 -3.146 9.900
v -63.904 -30.600 9.900
v -43.739 -30.516 9.900
v -43.807 -16.757 9.900
v -48.299 -16.776 9.900
v -48.458 21.722 9.900
v -44.789 21.750 9.900
v -44.834 32.470 9.900
v -64.221 32.396 9.900
usemtl roof
f 76 77 78 79 80 81 82 83 84 85 86 87
usemtl teaching_building
f 75 74 73 72 71 70 69 68 67 66 65 64
f 64 65 77 76
f 65 66 78 77
f 66 67 79 78
f 67 68 80 79
f 68 69 81 80
f 69 70 82 81
f 70 71 83 82
f 71 72 84 83
f 72 73 85 84
f 73 74 86 85
f 74 75 87 86
f 75 64 76 87
o SD0612_T008_8hao
v 26.245 -31.211 0.000
v 26.328 -21.269 0.000
v 15.880 -21.186 0.000
v 15.932 -13.570 0.000
v 7.084 -13.514 0.000
v 7.047 -19.611 0.000
v -13.028 -19.463 0.000
v -12.982 -12.439 0.000
v -22.027 -12.375 0.000
v -22.072 -19.027 0.000
v -33.593 -18.944 0.000
v -33.683 -30.748 0.000
v 26.245 -31.211 9.900
v 26.328 -21.269 9.900
v 15.880 -21.186 9.900
v 15.932 -13.570 9.900
v 7.084 -13.514 9.900
v 7.047 -19.611 9.900
v -13.028 -19.463 9.900
v -12.982 -12.439 9.900
v -22.027 -12.375 9.900
v -22.072 -19.027 9.900
v -33.593 -18.944 9.900
v -33.683 -30.748 9.900
usemtl roof
f 100 101 102 103 104 105 106 107 108 109 110 111
usemtl teaching_building
f 99 98 97 96 95 94 93 92 91 90 89 88
f 88 89 101 100
f 89 90 102 101
f 90 91 103 102
f 91 92 104 103
f 92 93 105 104
f 93 94 106 105
f 94 95 107 106
f 95 96 108 107
f 96 97 109 108
f 97 98 110 109
f 98 99 111 110
f 99 88 100 111
o SD0612_T009_9hao
v -48.616 -92.020 0.000
v -47.846 -47.129 0.000
v -71.084 -46.740 0.000
v -71.854 -91.630 0.000
v -48.616 -92.020 9.900
v -47.846 -47.129 9.900
v -71.084 -46.740 9.900
v -71.854 -91.630 9.900
usemtl roof
f 116 117 118 119
usemtl teaching_building
f 115 114 113 112
f 112 113 117 116
f 113 114 118 117
f 114 115 119 118
f 115 112 116 119
o SD0612_T010_10hao
v 39.804 -90.760 0.000
v 64.974 -90.546 0.000
v 64.635 -49.436 0.000
v 39.472 -49.640 0.000
v 39.804 -90.760 9.900
v 64.974 -90.546 9.900
v 64.635 -49.436 9.900
v 39.472 -49.640 9.900
usemtl roof
f 124 125 126 127
usemtl teaching_building
f 123 122 121 120
f 120 121 125 124
f 121 122 126 125
f 122 123 127 126
f 123 120 124 127
o SD0612_T011_11hao
v 25.611 -95.216 0.000
v 25.702 -83.496 0.000
v -34.974 -83.051 0.000
v -35.065 -94.753 0.000
v 25.611 -95.216 9.900
v 25.702 -83.496 9.900
v -34.974 -83.051 9.900
v -35.065 -94.753 9.900
usemtl roof
f 132 133 134 135
usemtl teaching_building
f 131 130 129 128
f 128 129 133 132
f 129 130 134 133
f 130 131 135 134
f 131 128 132 135
