# school_id SD0696
# school_name 鱼台县第二中学
# boundary_source footprint_convex_hull_buffer_20m
# adjacent_block_merge_distance_m 2.0
mtllib ../campus_materials.mtl
o SD0696_campus_boundary
usemtl campus_boundary
v -31.425 -61.767 0.050
v -53.739 -56.329 0.050
v -58.267 -34.313 0.050
v -58.475 -25.342 0.050
v -59.463 61.180 0.050
v 88.465 68.095 0.050
v 91.051 33.672 0.050
v 48.285 -58.403 0.050
v -31.425 -61.767 0.050
l 1 2 3 4 5 6 7 8 9 1
o SD0696_T001_1hao
v -39.053 29.921 0.000
v -29.568 30.197 0.000
v -29.641 33.823 0.000
v 2.252 34.940 0.000
v 2.252 31.734 0.000
v 11.527 31.867 0.000
v 11.454 35.150 0.000
v 17.218 35.150 0.000
v 19.389 32.077 0.000
v 21.569 32.010 0.000
v 23.119 33.337 0.000
v 23.675 35.570 0.000
v 70.717 37.371 0.000
v 69.978 47.209 0.000
v -39.244 42.103 0.000
v -39.053 29.921 18.270
v -29.568 30.197 18.270
v -29.641 33.823 18.270
v 2.252 34.940 18.270
v 2.252 31.734 18.270
v 11.527 31.867 18.270
v 11.454 35.150 18.270
v 17.218 35.150 18.270
v 19.389 32.077 18.270
v 21.569 32.010 18.270
v 23.119 33.337 18.270
v 23.675 35.570 18.270
v 70.717 37.371 18.270
v 69.978 47.209 18.270
v -39.244 42.103 18.270
usemtl roof
f 25 26 27 28 29 30 31 32 33 34 35 36 37 38 39
usemtl teaching_building
f 24 23 22 21 20 19 18 17 16 15 14 13 12 11 10
f 10 11 26 25
f 11 12 27 26
f 12 13 28 27
f 13 14 29 28
f 14 15 30 29
f 15 16 31 30
f 16 17 32 31
f 17 18 33 32
f 18 19 34 33
f 19 20 35 34
f 20 21 36 35
f 21 22 37 36
f 22 23 38 37
f 23 24 39 38
f 24 10 25 39
o SD0696_T002_2hao
v -32.988 -24.675 0.000
v -38.478 -24.995 0.000
v -38.314 -32.048 0.000
v -36.864 -32.048 0.000
v -36.700 -39.896 0.000
v -29.759 -39.741 0.000
v -29.440 -41.665 0.000
v -1.031 -40.382 0.000
v -1.195 -32.689 0.000
v 9.776 -32.214 0.000
v 10.269 -39.896 0.000
v 35.276 -38.934 0.000
v 34.638 -19.711 0.000
v 24.624 -19.866 0.000
v 24.140 -13.621 0.000
v 15.102 -13.941 0.000
v 15.431 -20.353 0.000
v -22.172 -21.314 0.000
v -22.655 -13.775 0.000
v -33.152 -14.096 0.000
v -32.988 -24.675 14.650
v -38.478 -24.995 14.650
v -38.314 -32.048 14.650
v -36.864 -32.048 14.650
v -36.700 -39.896 14.650
v -29.759 -39.741 14.650
v -29.440 -41.665 14.650
v -1.031 -40.382 14.650
v -1.195 -32.689 14.650
v 9.776 -32.214 14.650
v 10.269 -39.896 14.650
v 35.276 -38.934 14.650
v 34.638 -19.711 14.650
v 24.624 -19.866 14.650
v 24.140 -13.621 14.650
v 15.102 -13.941 14.650
v 15.431 -20.353 14.650
v -22.172 -21.314 14.650
v -22.655 -13.775 14.650
v -33.152 -14.096 14.650
usemtl roof
f 60 61 62 63 64 65 66 67 68 69 70 71 72 73 74 75 76 77 78 79
usemtl teaching_building
f 59 58 57 56 55 54 53 52 51 50 49 48 47 46 45 44 43 42 41 40
f 40 41 61 60
f 41 42 62 61
f 42 43 63 62
f 43 44 64 63
f 44 45 65 64
f 45 46 66 65
f 46 47 67 66
f 47 48 68 67
f 48 49 69 68
f 49 50 70 69
f 50 51 71 70
f 51 52 72 71
f 52 53 73 72
f 53 54 74 73
f 54 55 75 74
f 55 56 76 75
f 56 57 77 76
f 57 58 78 77
f 58 59 79 78
f 59 40 60 79
