# school_id SD0632
# school_name 青州市旗城学校
# boundary_source footprint_convex_hull_buffer_20m
# adjacent_block_merge_distance_m 2.0
mtllib ../campus_materials.mtl
o SD0632_campus_boundary
usemtl campus_boundary
v -45.074 -79.697 0.050
v -279.262 100.075 0.050
v -281.738 194.878 0.050
v -246.143 194.878 0.050
v 121.618 41.225 0.050
v 126.578 -4.704 0.050
v 127.178 -33.086 0.050
v 35.608 -78.755 0.050
v 23.673 -78.996 0.050
v -45.074 -79.697 0.050
l 1 2 3 4 5 6 7 8 9 10 1
o SD0632_T001_1hao
v -259.518 110.132 0.000
v -248.171 110.984 0.000
v -250.153 174.878 0.000
v -261.209 174.878 0.000
v -259.518 110.132 9.900
v -248.171 110.984 9.900
v -250.153 174.878 9.900
v -261.209 174.878 9.900
usemtl roof
f 15 16 17 18
usemtl teaching_building
f 14 13 12 11
f 11 12 16 15
f 12 13 17 16
f 13 14 18 17
f 14 11 15 18
o SD0632_T002_2hao
v 63.754 -21.733 0.000
v 106.915 -20.843 0.000
v 106.601 -5.991 0.000
v 103.691 -6.047 0.000
v 103.003 27.327 0.000
v 64.390 26.540 0.000
v 65.086 -7.047 0.000
v 63.455 -7.084 0.000
v 63.754 -21.733 9.900
v 106.915 -20.843 9.900
v 106.601 -5.991 9.900
v 103.691 -6.047 9.900
v 103.003 27.327 9.900
v 64.390 26.540 9.900
v 65.086 -7.047 9.900
v 63.455 -7.084 9.900
usemtl roof
f 27 28 29 30 31 32 33 34
usemtl teaching_building
f 26 25 24 23 22 21 20 19
f 19 20 28 27
f 20 21 29 28
f 21 22 30 29
f 22 23 31 30
f 23 24 32 31
f 24 25 33 32
f 25 26 34 33
f 26 19 27 34
o SD0632_T003_3hao
v 26.840 -30.405 0.000
v 25.082 17.525 0.000
v -41.919 15.662 0.000
v -42.210 26.206 0.000
v 34.080 28.309 0.000
v 34.387 17.784 0.000
v 36.152 -30.062 0.000
v 26.840 -30.405 9.900
v 25.082 17.525 9.900
v -41.919 15.662 9.900
v -42.210 26.206 9.900
v 34.080 28.309 9.900
v 34.387 17.784 9.900
v 36.152 -30.062 9.900
usemtl roof
f 42 43 44 45 46 47 48
usemtl teaching_building
f 41 40 39 38 37 36 35
f 35 36 43 42
f 36 37 44 43
f 37 38 45 44
f 38 39 46 45
f 39 40 47 46
f 40 41 48 47
f 41 35 42 48
o SD0632_T003_3hao_seg02
v -40.654 -12.310 0.000
v 25.239 -9.614 0.000
v 25.680 -20.130 0.000
v -40.221 -22.835 0.000
v -40.654 -12.310 9.900
v 25.239 -9.614 9.900
v 25.680 -20.130 9.900
v -40.221 -22.835 9.900
usemtl roof
f 53 54 55 56
usemtl teaching_building
f 52 51 50 49
f 49 50 54 53
f 50 51 55 54
f 51 52 56 55
f 52 49 53 56
o SD0632_T004_4hao
v 17.923 -53.819 0.000
v 23.369 -58.998 0.000
v 30.707 -58.850 0.000
v 35.913 -52.883 0.000
v 35.442 -45.369 0.000
v 30.236 -39.958 0.000
v 22.187 -40.421 0.000
v 17.452 -45.832 0.000
v 17.923 -53.819 9.900
v 23.369 -58.998 9.900
v 30.707 -58.850 9.900
v 35.913 -52.883 9.900
v 35.442 -45.369 9.900
v 30.236 -39.958 9.900
v 22.187 -40.421 9.900
v 17.452 -45.832 9.900
usemtl roof
f 65 66 67 68 69 70 71 72
usemtl teaching_building
f 64 63 62 61 60 59 58 57
f 57 58 66 65
f 58 59 67 66
f 59 60 68 67
f 60 61 69 68
f 61 62 70 69
f 62 63 71 70
f 63 64 72 71
f 64 57 65 72
o SD0632_T005_5hao
v -38.373 -59.628 0.000
v 7.638 -57.645 0.000
v 7.189 -47.129 0.000
v -38.829 -49.103 0.000
v -38.373 -59.628 9.900
v 7.638 -57.645 9.900
v 7.189 -47.129 9.900
v -38.829 -49.103 9.900
usemtl roof
f 77 78 79 80
usemtl teaching_building
f 76 75 74 73
f 73 74 78 77
f 74 75 79 78
f 75 76 80 79
f 76 73 77 80
