# school_id SD0655
# school_name 嘉祥镇中心小学
# boundary_source footprint_convex_hull_buffer_20m
# adjacent_block_merge_distance_m 2.0
mtllib ../campus_materials.mtl
o SD0655_campus_boundary
usemtl campus_boundary
v 46.513 -48.997 0.050
v -56.265 -31.113 0.050
v -49.969 4.571 0.050
v -33.147 58.028 0.050
v 31.939 49.401 0.050
v 53.579 -8.886 0.050
v 46.513 -48.997 0.050
l 1 2 3 4 5 6 7 1
o SD0655_T001_1hao
v 15.683 18.583 0.000
v 17.379 31.156 0.000
v -19.114 35.993 0.000
v -20.803 23.429 0.000
v 15.683 18.583 9.900
v 17.379 31.156 9.900
v -19.114 35.993 9.900
v -20.803 23.429 9.900
usemtl roof
f 12 13 14 15
usemtl teaching_building
f 11 10 9 8
f 8 9 13 12
f 9 10 14 13
f 10 11 15 14
f 11 8 12 15
o SD0655_T002_2hao
v 30.279 -25.872 0.000
v 32.941 -10.760 0.000
v 24.765 -9.333 0.000
v 24.034 -13.484 0.000
v 11.332 -11.270 0.000
v 12.298 -5.784 0.000
v -8.154 -2.227 0.000
v -9.227 -8.305 0.000
v -24.294 -5.692 0.000
v -23.533 -1.402 0.000
v -30.500 -0.188 0.000
v -33.086 -14.846 0.000
v 30.279 -25.872 9.900
v 32.941 -10.760 9.900
v 24.765 -9.333 9.900
v 24.034 -13.484 9.900
v 11.332 -11.270 9.900
v 12.298 -5.784 9.900
v -8.154 -2.227 9.900
v -9.227 -8.305 9.900
v -24.294 -5.692 9.900
v -23.533 -1.402 9.900
v -30.500 -0.188 9.900
v -33.086 -14.846 9.900
usemtl roof
f 28 29 30 31 32 33 34 35 36 37 38 39
usemtl teaching_building
f 27 26 25 24 23 22 21 20 19 18 17 16
f 16 17 29 28
f 17 18 30 29
f 18 19 31 30
f 19 20 32 31
f 20 21 33 32
f 21 22 34 33
f 22 23 35 34
f 23 24 36 35
f 24 25 37 36
f 25 26 38 37
f 26 27 39 38
f 27 16 28 39
