# school_id SD0613
# school_name 诸城市实验初级中学东坡校区
# boundary_source footprint_convex_hull_buffer_20m
# adjacent_block_merge_distance_m 2.0
mtllib ../campus_materials.mtl
o SD0613_campus_boundary
usemtl campus_boundary
v -83.049 -114.997 0.050
v -169.103 56.526 0.050
v -171.560 99.638 0.050
v -80.656 105.331 0.050
v -40.693 105.988 0.050
v 63.712 95.450 0.050
v 139.791 26.565 0.050
v 146.785 -67.177 0.050
v 148.574 -103.854 0.050
v 68.853 -107.719 0.050
v -83.049 -114.997 0.050
l 1 2 3 4 5 6 7 8 9 10 11 1
o SD0613_T001_1hao
v -117.745 82.755 0.000
v -116.654 63.620 0.000
v -149.371 61.796 0.000
v -150.461 80.920 0.000
v -117.745 82.755 10.590
v -116.654 63.620 10.590
v -149.371 61.796 10.590
v -150.461 80.920 10.590
usemtl roof
f 16 17 18 19
usemtl teaching_building
f 15 14 13 12
f 12 13 17 16
f 13 14 18 17
f 14 15 19 18
f 15 12 16 19
o SD0613_T002_2hao
v -41.536 85.971 0.000
v -41.067 57.220 0.000
v -79.388 56.601 0.000
v -79.866 85.341 0.000
v -41.536 85.971 10.470
v -41.067 57.220 10.470
v -79.388 56.601 10.470
v -79.866 85.341 10.470
usemtl roof
f 24 25 26 27
usemtl teaching_building
f 23 22 21 20
f 20 21 25 24
f 21 22 26 25
f 22 23 27 26
f 23 20 24 27
o SD0613_T003_3hao
v 45.981 39.047 0.000
v 45.197 54.622 0.000
v 56.225 55.175 0.000
v 55.162 76.211 0.000
v -16.433 72.629 0.000
v -15.370 51.494 0.000
v -3.378 52.091 0.000
v -2.594 36.637 0.000
v 45.981 39.047 13.570
v 45.197 54.622 13.570
v 56.225 55.175 13.570
v 55.162 76.211 13.570
v -16.433 72.629 13.570
v -15.370 51.494 13.570
v -3.378 52.091 13.570
v -2.594 36.637 13.570
usemtl roof
f 36 37 38 39 40 41 42 43
usemtl teaching_building
f 35 34 33 32 31 30 29 28
f 28 29 37 36
f 29 30 38 37
f 30 31 39 38
f 31 32 40 39
f 32 33 41 40
f 33 34 42 41
f 34 35 43 42
f 35 28 36 43
o SD0613_T004_4hao
v 120.441 17.105 0.000
v 121.207 0.634 0.000
v 63.866 -1.974 0.000
v 63.100 14.474 0.000
v 120.441 17.105 10.920
v 121.207 0.634 10.920
v 63.866 -1.974 10.920
v 63.100 14.474 10.920
usemtl roof
f 48 49 50 51
usemtl teaching_building
f 47 46 45 44
f 44 45 49 48
f 45 46 50 49
f 46 47 51 50
f 47 44 48 51
o SD0613_T005_5hao
v -15.532 9.754 0.000
v -14.766 -6.705 0.000
v -72.108 -9.314 0.000
v -72.874 7.134 0.000
v -15.532 9.754 8.330
v -14.766 -6.705 8.330
v -72.108 -9.314 8.330
v -72.874 7.134 8.330
usemtl roof
f 56 57 58 59
usemtl teaching_building
f 55 54 53 52
f 52 53 57 56
f 53 54 58 57
f 54 55 59 58
f 55 52 56 59
o SD0613_T006_6hao
v 119.757 -44.289 0.000
v 119.000 -28.891 0.000
v 65.118 -31.500 0.000
v 67.885 -87.742 0.000
v 127.623 -84.846 0.000
v 126.821 -68.409 0.000
v 82.031 -70.575 0.000
v 80.832 -46.168 0.000
v 119.757 -44.289 11.460
v 119.000 -28.891 11.460
v 65.118 -31.500 11.460
v 67.885 -87.742 11.460
v 127.623 -84.846 11.460
v 126.821 -68.409 11.460
v 82.031 -70.575 11.460
v 80.832 -46.168 11.460
usemtl roof
f 68 69 70 71 72 73 74 75
usemtl teaching_building
f 67 66 65 64 63 62 61 60
f 60 61 69 68
f 61 62 70 69
f 62 63 71 70
f 63 64 72 71
f 64 65 73 72
f 65 66 74 73
f 66 67 75 74
f 67 60 68 75
o SD0613_T007_7hao
v -67.161 -53.276 0.000
v -67.918 -37.878 0.000
v -14.037 -35.258 0.000
v -11.271 -91.501 0.000
v -71.008 -94.397 0.000
v -71.810 -77.971 0.000
v -27.020 -75.782 0.000
v -28.228 -51.375 0.000
v -67.161 -53.276 11.280
v -67.918 -37.878 11.280
v -14.037 -35.258 11.280
v -11.271 -91.501 11.280
v -71.008 -94.397 11.280
v -71.810 -77.971 11.280
v -27.020 -75.782 11.280
v -28.228 -51.375 11.280
usemtl roof
f 84 85 86 87 88 89 90 91
usemtl teaching_building
f 83 82 81 80 79 78 77 76
f 76 77 85 84
f 77 78 86 85
f 78 79 87 86
f 79 80 88 87
f 80 81 89 88
f 81 82 90 89
f 82 83 91 90
f 83 76 84 91
