# school_id SD0680
# school_name 济宁市金乡县第一中学
# boundary_source footprint_convex_hull_buffer_20m
# adjacent_block_merge_distance_m 2.0
mtllib ../campus_materials.mtl
o SD0680_campus_boundary
usemtl campus_boundary
v -81.609 -98.720 0.050
v -112.362 -95.827 0.050
v -96.682 64.226 0.050
v 53.564 66.496 0.050
v 137.007 58.229 0.050
v 128.401 -27.356 0.050
v -81.609 -98.720 0.050
l 1 2 3 4 5 6 7 1
o SD0680_T001_1hao
v 109.788 -12.558 0.000
v 115.103 40.301 0.000
v 52.726 46.481 0.000
v 47.419 -6.387 0.000
v 109.788 -12.558 6.600
v 115.103 40.301 6.600
v 52.726 46.481 6.600
v 47.419 -6.387 6.600
usemtl roof
f 12 13 14 15
usemtl teaching_building
f 11 10 9 8
f 8 9 13 12
f 9 10 14 13
f 10 11 15 14
f 11 8 12 15
o SD0680_T002_2hao
v -83.994 -78.407 0.000
v -72.021 43.868 0.000
v -78.519 44.498 0.000
v -90.500 -77.795 0.000
v -83.994 -78.407 6.600
v -72.021 43.868 6.600
v -78.519 44.498 6.600
v -90.500 -77.795 6.600
usemtl roof
f 20 21 22 23
usemtl teaching_building
f 19 18 17 16
f 16 17 21 20
f 17 18 22 21
f 18 19 23 22
f 19 16 20 23
