# school_id SD0668
# school_name 泗水一中
# boundary_source footprint_convex_hull_buffer_20m
# adjacent_block_merge_distance_m 2.0
mtllib ../campus_materials.mtl
o SD0668_campus_boundary
usemtl campus_boundary
v 112.224 -56.581 0.050
v -116.067 -48.211 0.050
v -112.224 56.581 0.050
v -73.741 55.171 0.050
v 116.067 48.211 0.050
v 112.224 -56.581 0.050
l 1 2 3 4 5 6 1
o SD0668_T001_1hao
v 93.648 -17.367 0.000
v 92.970 -35.862 0.000
v -95.347 -28.957 0.000
v -92.970 35.862 0.000
v -74.474 35.184 0.000
v -74.474 35.184 0.000
v 95.347 28.957 0.000
v 94.668 10.461 0.000
v -75.152 16.689 0.000
v -76.173 -11.139 0.000
v 93.648 -17.367 15.380
v 92.970 -35.862 15.380
v -95.347 -28.957 15.380
v -92.970 35.862 15.380
v -74.474 35.184 15.380
v -74.474 35.184 15.380
v 95.347 28.957 15.380
v 94.668 10.461 15.380
v -75.152 16.689 15.380
v -76.173 -11.139 15.380
usemtl roof
f 17 18 19 20 21 22 23 24 25 26
usemtl teaching_building
f 16 15 14 13 12 11 10 9 8 7
f 7 8 18 17
f 8 9 19 18
f 9 10 20 19
f 10 11 21 20
f 11 12 22 21
f 12 13 23 22
f 13 14 24 23
f 14 15 25 24
f 15 16 26 25
f 16 7 17 26
