# school_id SD0669
# school_name 济宁嘉祥县第一中学(萌山校区)
# boundary_source footprint_convex_hull_buffer_20m
# adjacent_block_merge_distance_m 2.0
mtllib ../campus_materials.mtl
o SD0669_campus_boundary
usemtl campus_boundary
v -198.021 -152.239 0.050
v -200.998 -89.423 0.050
v -177.143 57.709 0.050
v -32.841 69.074 0.050
v -24.273 69.701 0.050
v 151.770 75.270 0.050
v 154.374 38.854 0.050
v 150.565 28.055 0.050
v 98.016 -110.113 0.050
v -141.651 -149.585 0.050
v -198.021 -152.239 0.050
l 1 2 3 4 5 6 7 8 9 10 11 1
o SD0669_T001_1hao
v 64.620 44.508 0.000
v 67.677 41.951 0.000
v 68.004 37.253 0.000
v 71.799 37.522 0.000
v 72.278 30.768 0.000
v 131.785 34.937 0.000
v 131.321 41.376 0.000
v 134.128 41.580 0.000
v 133.192 54.672 0.000
v 74.735 50.568 0.000
v 71.913 52.235 0.000
v 66.962 51.800 0.000
v 63.988 48.020 0.000
v 64.620 44.508 9.900
v 67.677 41.951 9.900
v 68.004 37.253 9.900
v 71.799 37.522 9.900
v 72.278 30.768 9.900
v 131.785 34.937 9.900
v 131.321 41.376 9.900
v 134.128 41.580 9.900
v 133.192 54.672 9.900
v 74.735 50.568 9.900
v 71.913 52.235 9.900
v 66.962 51.800 9.900
v 63.988 48.020 9.900
usemtl roof
f 25 26 27 28 29 30 31 32 33 34 35 36 37
usemtl teaching_building
f 24 23 22 21 20 19 18 17 16 15 14 13 12
f 12 13 26 25
f 13 14 27 26
f 14 15 28 27
f 15 16 29 28
f 16 17 30 29
f 17 18 31 30
f 18 19 32 31
f 19 20 33 32
f 20 21 34 33
f 21 22 35 34
f 22 23 36 35
f 23 24 37 36
f 24 12 25 37
o SD0669_T002_2hao
v -30.375 36.216 0.000
v 4.618 38.782 0.000
v 3.896 48.335 0.000
v -22.967 46.352 0.000
v -23.226 49.724 0.000
v -31.326 49.131 0.000
v -30.375 36.216 9.900
v 4.618 38.782 9.900
v 3.896 48.335 9.900
v -22.967 46.352 9.900
v -23.226 49.724 9.900
v -31.326 49.131 9.900
usemtl roof
f 44 45 46 47 48 49
usemtl teaching_building
f 43 42 41 40 39 38
f 38 39 45 44
f 39 40 46 45
f 40 41 47 46
f 41 42 48 47
f 42 43 49 48
f 43 38 44 49
o SD0669_T003_3hao
v -76.572 29.452 0.000
v -33.425 31.935 0.000
v -34.277 46.556 0.000
v -77.424 44.073 0.000
v -76.572 29.452 9.900
v -33.425 31.935 9.900
v -34.277 46.556 9.900
v -77.424 44.073 9.900
usemtl roof
f 54 55 56 57
usemtl teaching_building
f 53 52 51 50
f 50 51 55 54
f 51 52 56 55
f 52 53 57 56
f 53 50 54 57
o SD0669_T004_4hao
v -158.926 24.884 0.000
v -86.627 29.869 0.000
v -87.616 43.989 0.000
v -159.915 39.004 0.000
v -158.926 24.884 9.900
v -86.627 29.869 9.900
v -87.616 43.989 9.900
v -159.915 39.004 9.900
usemtl roof
f 62 63 64 65
usemtl teaching_building
f 61 60 59 58
f 58 59 63 62
f 59 60 64 63
f 60 61 65 64
f 61 58 62 65
o SD0669_T005_5hao
v -24.405 10.634 0.000
v 34.395 14.099 0.000
v 33.482 29.341 0.000
v 26.538 28.942 0.000
v 25.960 38.717 0.000
v 10.117 37.791 0.000
v 10.634 29.155 0.000
v -17.377 27.506 0.000
v -17.507 29.591 0.000
v -25.508 29.118 0.000
v -24.405 10.634 9.900
v 34.395 14.099 9.900
v 33.482 29.341 9.900
v 26.538 28.942 9.900
v 25.960 38.717 9.900
v 10.117 37.791 9.900
v 10.634 29.155 9.900
v -17.377 27.506 9.900
v -17.507 29.591 9.900
v -25.508 29.118 9.900
usemtl roof
f 76 77 78 79 80 81 82 83 84 85
usemtl teaching_building
f 75 74 73 72 71 70 69 68 67 66
f 66 67 77 76
f 67 68 78 77
f 68 69 79 78
f 69 70 80 79
f 70 71 81 80
f 71 72 82 81
f 72 73 83 82
f 73 74 84 83
f 74 75 85 84
f 75 66 76 85
o SD0669_T006_6hao
v 21.754 -13.901 0.000
v 106.953 -9.546 0.000
v 106.146 6.048 0.000
v 95.871 5.519 0.000
v 96.168 -0.160 0.000
v 76.279 -1.179 0.000
v 75.891 6.363 0.000
v 51.933 5.140 0.000
v 52.283 -1.420 0.000
v 31.618 -2.486 0.000
v 31.390 1.878 0.000
v 20.963 1.350 0.000
v 21.754 -13.901 9.900
v 106.953 -9.546 9.900
v 106.146 6.048 9.900
v 95.871 5.519 9.900
v 96.168 -0.160 9.900
v 76.279 -1.179 9.900
v 75.891 6.363 9.900
v 51.933 5.140 9.900
v 52.283 -1.420 9.900
v 31.618 -2.486 9.900
v 31.390 1.878 9.900
v 20.963 1.350 9.900
usemtl roof
f 98 99 100 101 102 103 104 105 106 107 108 109
usemtl teaching_building
f 97 96 95 94 93 92 91 90 89 88 87 86
f 86 87 99 98
f 87 88 100 99
f 88 89 101 100
f 89 90 102 101
f 90 91 103 102
f 91 92 104 103
f 92 93 105 104
f 93 94 106 105
f 94 95 107 106
f 95 96 108 107
f 96 97 109 108
f 97 86 98 109
o SD0669_T007_7hao
v -136.984 -20.099 0.000
v -116.738 -18.941 0.000
v -116.540 -22.360 0.000
v -101.466 -21.489 0.000
v -101.679 -17.913 0.000
v -79.546 -16.643 0.000
v -80.329 -3.310 0.000
v -137.767 -6.618 0.000
v -136.984 -20.099 9.900
v -116.738 -18.941 9.900
v -116.540 -22.360 9.900
v -101.466 -21.489 9.900
v -101.679 -17.913 9.900
v -79.546 -16.643 9.900
v -80.329 -3.310 9.900
v -137.767 -6.618 9.900
usemtl roof
f 118 119 120 121 122 123 124 125
usemtl teaching_building
f 117 116 115 114 113 112 111 110
f 110 111 119 118
f 111 112 120 119
f 112 113 121 120
f 113 114 122 121
f 114 115 123 122
f 115 116 124 123
f 116 117 125 124
f 117 110 118 125
o SD0669_T008_8hao
v -71.514 -25.557 0.000
v 12.011 -21.730 0.000
v 11.327 -7.026 0.000
v -0.797 -7.591 0.000
v -0.614 -11.427 0.000
v -24.679 -12.529 0.000
v -24.899 -7.637 0.000
v -33.486 -8.017 0.000
v -33.189 -14.410 0.000
v -62.502 -15.745 0.000
v -62.692 -11.640 0.000
v -72.138 -12.066 0.000
v -71.514 -25.557 9.900
v 12.011 -21.730 9.900
v 11.327 -7.026 9.900
v -0.797 -7.591 9.900
v -0.614 -11.427 9.900
v -24.679 -12.529 9.900
v -24.899 -7.637 9.900
v -33.486 -8.017 9.900
v -33.189 -14.410 9.900
v -62.502 -15.745 9.900
v -62.692 -11.640 9.900
v -72.138 -12.066 9.900
usemtl roof
f 138 139 140 141 142 143 144 145 146 147 148 149
usemtl teaching_building
f 137 136 135 134 133 132 131 130 129 128 127 126
f 126 127 139 138
f 127 128 140 139
f 128 129 141 140
f 129 130 142 141
f 130 131 143 142
f 131 132 144 143
f 132 133 145 144
f 133 134 146 145
f 134 135 147 146
f 135 136 148 147
f 136 137 149 148
f 137 126 138 149
o SD0669_T009_9hao
v 23.830 -42.355 0.000
v 54.420 -41.141 0.000
v 53.804 -25.686 0.000
v 23.207 -26.900 0.000
v 23.830 -42.355 9.900
v 54.420 -41.141 9.900
v 53.804 -25.686 9.900
v 23.207 -26.900 9.900
usemtl roof
f 154 155 156 157
usemtl teaching_building
f 153 152 151 150
f 150 151 155 154
f 151 152 156 155
f 152 153 157 156
f 153 150 154 157
o SD0669_T010_10hao
v 57.052 -62.627 0.000
v 94.190 -60.607 0.000
v 93.179 -42.225 0.000
v 56.040 -44.245 0.000
v 57.052 -62.627 9.900
v 94.190 -60.607 9.900
v 93.179 -42.225 9.900
v 56.040 -44.245 9.900
usemtl roof
f 162 163 164 165
usemtl teaching_building
f 161 160 159 158
f 158 159 163 162
f 159 160 164 163
f 160 161 165 164
f 161 158 162 165
o SD0669_T011_11hao
v 50.732 -93.926 0.000
v 83.413 -92.249 0.000
v 82.287 -70.577 0.000
v 49.606 -72.245 0.000
v 50.732 -93.926 9.900
v 83.413 -92.249 9.900
v 82.287 -70.577 9.900
v 49.606 -72.245 9.900
usemtl roof
f 170 171 172 173
usemtl teaching_building
f 169 168 167 166
f 166 167 171 170
f 167 168 172 171
f 168 169 173 172
f 169 166 170 173
o SD0669_T012_12hao
v -178.990 -131.321 0.000
v -143.753 -129.662 0.000
v -145.693 -88.913 0.000
v -180.922 -90.562 0.000
v -178.990 -131.321 9.900
v -143.753 -129.662 9.900
v -145.693 -88.913 9.900
v -180.922 -90.562 9.900
usemtl roof
f 178 179 180 181
usemtl teaching_building
f 177 176 175 174
f 174 175 179 178
f 175 176 180 179
f 176 177 181 180
f 177 174 178 181
