# school_id SD0684
# school_name 甄庄联校
# boundary_source footprint_convex_hull_buffer_20m
# adjacent_block_merge_distance_m 2.0
mtllib ../campus_materials.mtl
o SD0684_campus_boundary
usemtl campus_boundary
v 36.704 -55.852 0.050
v -57.039 -49.105 0.050
v -58.794 13.622 0.050
v -57.004 40.695 0.050
v 15.062 51.532 0.050
v 28.466 50.867 0.050
v 47.864 35.245 0.050
v 47.587 18.187 0.050
v 46.817 6.564 0.050
v 36.704 -55.852 0.050
l 1 2 3 4 5 6 7 8 9 10 1
o SD0684_T001_1hao
v -38.776 13.241 0.000
v -8.144 11.240 0.000
v -8.445 6.697 0.000
v -1.209 6.221 0.000
v -0.917 10.643 0.000
v 26.923 8.830 0.000
v 27.598 19.011 0.000
v -38.110 23.311 0.000
v -38.776 13.241 8.440
v -8.144 11.240 8.440
v -8.445 6.697 8.440
v -1.209 6.221 8.440
v -0.917 10.643 8.440
v 26.923 8.830 8.440
v 27.598 19.011 8.440
v -38.110 23.311 8.440
usemtl roof
f 19 20 21 22 23 24 25 26
usemtl teaching_building
f 18 17 16 15 14 13 12 11
f 11 12 20 19
f 12 13 21 20
f 13 14 22 21
f 14 15 23 22
f 15 16 24 23
f 16 17 25 24
f 17 18 26 25
f 18 11 19 26
