# school_id SD0697
# school_name 鱼台职业中学
# boundary_source footprint_convex_hull_buffer_20m
# adjacent_block_merge_distance_m 2.0
mtllib ../campus_materials.mtl
o SD0697_campus_boundary
usemtl campus_boundary
v -80.791 -132.864 0.050
v -171.020 -118.381 0.050
v -165.675 -85.466 0.050
v -139.155 31.467 0.050
v 41.915 168.912 0.050
v 124.693 156.325 0.050
v 118.876 118.670 0.050
v 85.528 -87.775 0.050
v 81.551 -111.411 0.050
v -80.791 -132.864 0.050
l 1 2 3 4 5 6 7 8 9 10 1
o SD0697_T001_1hao
v 101.867 139.566 0.000
v 99.121 121.791 0.000
v 44.534 130.104 0.000
v 47.270 147.868 0.000
v 101.867 139.566 11.140
v 99.121 121.791 11.140
v 44.534 130.104 11.140
v 47.270 147.868 11.140
usemtl roof
f 15 16 17 18
usemtl teaching_building
f 14 13 12 11
f 11 12 16 15
f 12 13 17 16
f 13 14 18 17
f 14 11 15 18
o SD0697_T002_2hao
v 43.987 70.567 0.000
v 89.545 63.890 0.000
v 93.959 93.526 0.000
v 62.183 98.180 0.000
v 61.553 93.968 0.000
v 47.772 95.991 0.000
v 43.987 70.567 9.470
v 89.545 63.890 9.470
v 93.959 93.526 9.470
v 62.183 98.180 9.470
v 61.553 93.968 9.470
v 47.772 95.991 9.470
usemtl roof
f 25 26 27 28 29 30
usemtl teaching_building
f 24 23 22 21 20 19
f 19 20 26 25
f 20 21 27 26
f 21 22 28 27
f 22 23 29 28
f 23 24 30 29
f 24 19 25 30
o SD0697_T003_3hao
v 64.499 -50.397 0.000
v 50.627 -48.286 0.000
v 55.204 -18.645 0.000
v -32.034 -5.440 0.000
v -36.895 -35.209 0.000
v -51.178 -32.910 0.000
v -46.308 -3.141 0.000
v -44.365 9.062 0.000
v 70.865 -8.425 0.000
v 68.968 -20.728 0.000
v 64.499 -50.397 8.140
v 50.627 -48.286 8.140
v 55.204 -18.645 8.140
v -32.034 -5.440 8.140
v -36.895 -35.209 8.140
v -51.178 -32.910 8.140
v -46.308 -3.141 8.140
v -44.365 9.062 8.140
v 70.865 -8.425 8.140
v 68.968 -20.728 8.140
usemtl roof
f 41 42 43 44 45 46 47 48 49 50
usemtl teaching_building
f 40 39 38 37 36 35 34 33 32 31
f 31 32 42 41
f 32 33 43 42
f 33 34 44 43
f 34 35 45 44
f 35 36 46 45
f 36 37 47 46
f 37 38 48 47
f 38 39 49 48
f 39 40 50 49
f 40 31 41 50
o SD0697_T004_4hao
v -121.261 19.940 0.000
v -131.622 -49.181 0.000
v -74.144 -57.682 0.000
v -63.765 11.428 0.000
v -121.261 19.940 8.620
v -131.622 -49.181 8.620
v -74.144 -57.682 8.620
v -63.765 11.428 8.620
usemtl roof
f 55 56 57 58
usemtl teaching_building
f 54 53 52 51
f 51 52 56 55
f 52 53 57 56
f 53 54 58 57
f 54 51 55 58
o SD0697_T005_5hao
v 65.794 -84.521 0.000
v 64.280 -93.519 0.000
v -62.369 -72.494 0.000
v -60.846 -63.474 0.000
v 65.794 -84.521 12.310
v 64.280 -93.519 12.310
v -62.369 -72.494 12.310
v -60.846 -63.474 12.310
usemtl roof
f 63 64 65 66
usemtl teaching_building
f 62 61 60 59
f 59 60 64 63
f 60 61 65 64
f 61 62 66 65
f 62 59 63 66
o SD0697_T006_6hao
v -146.033 -89.285 0.000
v -148.067 -101.809 0.000
v -80.510 -112.653 0.000
v -78.467 -100.140 0.000
v -146.033 -89.285 8.960
v -148.067 -101.809 8.960
v -80.510 -112.653 8.960
v -78.467 -100.140 8.960
usemtl roof
f 71 72 73 74
usemtl teaching_building
f 70 69 68 67
f 67 68 72 71
f 68 69 73 72
f 69 70 74 73
f 70 67 71 74
