# school_id SD0699
# school_name 东平县东原实验学校
# boundary_source footprint_convex_hull_buffer_20m
# adjacent_block_merge_distance_m 2.0
mtllib ../campus_materials.mtl
o SD0699_campus_boundary
usemtl campus_boundary
v 55.035 -33.639 0.050
v -60.975 -21.036 0.050
v -55.035 33.639 0.050
v 60.975 21.036 0.050
v 55.035 -33.639 0.050
l 1 2 3 4 5 1
o SD0699_T001_1hao
v -37.312 11.596 0.000
v 38.932 3.313 0.000
v 37.312 -11.596 0.000
v -38.932 -3.313 0.000
v -37.312 11.596 10.530
v 38.932 3.313 10.530
v 37.312 -11.596 10.530
v -38.932 -3.313 10.530
usemtl roof
f 10 11 12 13
usemtl teaching_building
f 9 8 7 6
f 6 7 11 10
f 7 8 12 11
f 8 9 13 12
f 9 6 10 13
