# school_id SD0621
# school_name 诸城市明德学校
# boundary_source footprint_convex_hull_buffer_20m
# adjacent_block_merge_distance_m 2.0
mtllib ../campus_materials.mtl
o SD0621_campus_boundary
usemtl campus_boundary
v -56.538 -135.654 0.050
v -140.506 -98.302 0.050
v -178.470 -56.870 0.050
v -178.045 -34.587 0.050
v -115.866 131.123 0.050
v 65.963 144.583 0.050
v 139.954 149.763 0.050
v 145.685 83.616 0.050
v 149.840 -33.537 0.050
v 111.434 -124.864 0.050
v 17.847 -131.849 0.050
v -56.538 -135.654 0.050
l 1 2 3 4 5 6 7 8 9 10 11 12 1
o SD0621_T001_1hao
v 26.775 120.368 0.000
v 28.846 90.467 0.000
v 37.769 91.263 0.000
v 37.607 94.734 0.000
v 42.072 94.734 0.000
v 42.388 92.203 0.000
v 57.847 93.153 0.000
v 57.685 96.326 0.000
v 61.826 96.326 0.000
v 62.304 93.153 0.000
v 69.470 93.474 0.000
v 67.400 124.635 0.000
v 121.727 128.438 0.000
v 125.716 82.398 0.000
v 74.251 77.656 0.000
v 74.089 79.866 0.000
v 24.542 76.230 0.000
v 24.542 74.494 0.000
v -24.680 71.012 0.000
v -28.984 116.566 0.000
v 26.775 120.368 25.760
v 28.846 90.467 25.760
v 37.769 91.263 25.760
v 37.607 94.734 25.760
v 42.072 94.734 25.760
v 42.388 92.203 25.760
v 57.847 93.153 25.760
v 57.685 96.326 25.760
v 61.826 96.326 25.760
v 62.304 93.153 25.760
v 69.470 93.474 25.760
v 67.400 124.635 25.760
v 121.727 128.438 25.760
v 125.716 82.398 25.760
v 74.251 77.656 25.760
v 74.089 79.866 25.760
v 24.542 76.230 25.760
v 24.542 74.494 25.760
v -24.680 71.012 25.760
v -28.984 116.566 25.760
usemtl roof
f 33 34 35 36 37 38 39 40 41 42 43 44 45 46 47 48 49 50 51 52
usemtl teaching_building
f 32 31 30 29 28 27 26 25 24 23 22 21 20 19 18 17 16 15 14 13
f 13 14 34 33
f 14 15 35 34
f 15 16 36 35
f 16 17 37 36
f 17 18 38 37
f 18 19 39 38
f 19 20 40 39
f 20 21 41 40
f 21 22 42 41
f 22 23 43 42
f 23 24 44 43
f 24 25 45 44
f 25 26 46 45
f 26 27 47 46
f 27 28 48 47
f 28 29 49 48
f 29 30 50 49
f 30 31 51 50
f 31 32 52 51
f 32 13 33 52
o SD0621_T002_2hao
v -40.545 115.482 0.000
v -36.682 69.686 0.000
v -66.862 68.006 0.000
v -70.725 113.802 0.000
v -40.545 115.482 13.900
v -36.682 69.686 13.900
v -66.862 68.006 13.900
v -70.725 113.802 13.900
usemtl roof
f 57 58 59 60
usemtl teaching_building
f 56 55 54 53
f 53 54 58 57
f 54 55 59 58
f 55 56 60 59
f 56 53 57 60
o SD0621_T003_3hao
v -72.904 68.724 0.000
v -76.523 113.559 0.000
v -101.634 112.122 0.000
v -98.501 67.044 0.000
v -72.904 68.724 13.920
v -76.523 113.559 13.920
v -101.634 112.122 13.920
v -98.501 67.044 13.920
usemtl roof
f 65 66 67 68
usemtl teaching_building
f 64 63 62 61
f 61 62 66 65
f 62 63 67 66
f 63 64 68 67
f 64 61 65 68
o SD0621_T004_4hao
v 128.435 -15.441 0.000
v 129.696 -29.844 0.000
v 98.165 -31.514 0.000
v 97.535 -17.740 0.000
v 128.435 -15.441 13.350
v 129.696 -29.844 13.350
v 98.165 -31.514 13.350
v 97.535 -17.740 13.350
usemtl roof
f 73 74 75 76
usemtl teaching_building
f 72 71 70 69
f 69 70 74 73
f 70 71 75 74
f 71 72 76 75
f 72 69 73 76
o SD0621_T005_5hao
v 91.646 -22.118 0.000
v 93.114 -33.183 0.000
v 19.960 -37.781 0.000
v 19.113 -27.125 0.000
v 91.646 -22.118 13.350
v 93.114 -33.183 13.350
v 19.960 -37.781 13.350
v 19.113 -27.125 13.350
usemtl roof
f 81 82 83 84
usemtl teaching_building
f 80 79 78 77
f 77 78 82 81
f 78 79 83 82
f 79 80 84 83
f 80 77 81 84
o SD0621_T006_6hao
v 5.869 -27.545 0.000
v 7.345 -38.400 0.000
v -91.676 -45.707 0.000
v -92.523 -35.272 0.000
v 5.869 -27.545 16.360
v 7.345 -38.400 16.360
v -91.676 -45.707 16.360
v -92.523 -35.272 16.360
usemtl roof
f 89 90 91 92
usemtl teaching_building
f 88 87 86 85
f 85 86 90 89
f 86 87 91 90
f 87 88 92 91
f 88 85 89 92
o SD0621_T007_7hao
v -158.114 -38.400 0.000
v -104.290 -36.521 0.000
v -103.453 -46.757 0.000
v -158.321 -49.255 0.000
v -158.114 -38.400 17.490
v -104.290 -36.521 17.490
v -103.453 -46.757 17.490
v -158.321 -49.255 17.490
usemtl roof
f 97 98 99 100
usemtl teaching_building
f 96 95 94 93
f 93 94 98 97
f 94 95 99 98
f 95 96 100 99
f 96 93 97 100
o SD0621_T008_8hao
v 12.532 -62.166 0.000
v 13.360 -72.214 0.000
v -56.265 -75.243 0.000
v -56.958 -65.472 0.000
v 12.532 -62.166 15.490
v 13.360 -72.214 15.490
v -56.265 -75.243 15.490
v -56.958 -65.472 15.490
usemtl roof
f 105 106 107 108
usemtl teaching_building
f 104 103 102 101
f 101 102 106 105
f 102 103 107 106
f 103 104 108 107
f 104 101 105 108
o SD0621_T009_9hao
v -89.263 -79.952 0.000
v -128.573 -81.721 0.000
v -129.095 -69.617 0.000
v -89.894 -68.467 0.000
v -89.263 -79.952 27.080
v -128.573 -81.721 27.080
v -129.095 -69.617 27.080
v -89.894 -68.467 27.080
usemtl roof
f 113 114 115 116
usemtl teaching_building
f 112 111 110 109
f 109 110 114 113
f 110 111 115 114
f 111 112 116 115
f 112 109 113 116
o SD0621_T009_9hao_seg02
v -62.667 -77.543 0.000
v -87.264 -78.482 0.000
v -88.417 -67.528 0.000
v -64.134 -66.687 0.000
v -62.667 -77.543 27.080
v -87.264 -78.482 27.080
v -88.417 -67.528 27.080
v -64.134 -66.687 27.080
usemtl roof
f 121 122 123 124
usemtl teaching_building
f 120 119 118 117
f 117 118 122 121
f 118 119 123 122
f 119 120 124 123
f 120 117 121 124
o SD0621_T010_10hao
v 55.911 -97.274 0.000
v 55.065 -90.387 0.000
v 72.514 -89.757 0.000
v 72.730 -96.854 0.000
v 96.688 -95.605 0.000
v 97.742 -105.830 0.000
v 25.209 -109.798 0.000
v 24.371 -99.153 0.000
v 55.911 -97.274 13.350
v 55.065 -90.387 13.350
v 72.514 -89.757 13.350
v 72.730 -96.854 13.350
v 96.688 -95.605 13.350
v 97.742 -105.830 13.350
v 25.209 -109.798 13.350
v 24.371 -99.153 13.350
usemtl roof
f 133 134 135 136 137 138 139 140
usemtl teaching_building
f 132 131 130 129 128 127 126 125
f 125 126 134 133
f 126 127 135 134
f 127 128 136 135
f 128 129 137 136
f 129 130 138 137
f 130 131 139 138
f 131 132 140 139
f 132 125 133 140
o SD0621_T011_11hao
v 15.332 -101.242 0.000
v 16.592 -111.887 0.000
v -52.781 -115.436 0.000
v -54.050 -105.001 0.000
v 15.332 -101.242 24.110
v 16.592 -111.887 24.110
v -52.781 -115.436 24.110
v -54.050 -105.001 24.110
usemtl roof
f 145 146 147 148
usemtl teaching_building
f 144 143 142 141
f 141 142 146 145
f 142 143 147 146
f 143 144 148 147
f 144 141 145 148
