# school_id SD0645
# school_name 兖州一中附属中学扬州路校区
# boundary_source footprint_convex_hull_buffer_20m
# adjacent_block_merge_distance_m 2.0
mtllib ../campus_materials.mtl
o SD0645_campus_boundary
usemtl campus_boundary
v -64.842 -78.000 0.050
v -65.392 35.315 0.050
v -65.526 73.025 0.050
v -23.231 73.175 0.050
v 39.725 70.835 0.050
v 71.885 66.435 0.050
v 78.590 6.854 0.050
v 78.652 -6.459 0.050
v 76.128 -77.970 0.050
v -64.842 -78.000 0.050
l 1 2 3 4 5 6 7 8 9 10 1
o SD0645_T001_1hao
v -23.567 53.174 0.000
v -23.558 50.565 0.000
v 37.994 50.886 0.000
v 38.003 48.642 0.000
v 53.751 48.730 0.000
v 53.850 30.712 0.000
v 34.652 30.612 0.000
v 34.634 35.255 0.000
v -24.020 34.968 0.000
v -23.875 5.288 0.000
v 58.595 5.686 0.000
v 58.650 -6.153 0.000
v 54.022 -6.164 0.000
v 54.040 -12.598 0.000
v 35.322 -12.642 0.000
v 35.313 -8.917 0.000
v -24.129 -8.983 0.000
v -24.102 -41.824 0.000
v 33.810 -41.780 0.000
v 33.810 -36.596 0.000
v 51.677 -36.585 0.000
v 51.686 -41.990 0.000
v 56.811 -41.990 0.000
v 56.821 -57.974 0.000
v -44.939 -57.996 0.000
v -44.939 -43.129 0.000
v -31.908 -43.118 0.000
v -31.908 -35.336 0.000
v -44.540 -35.347 0.000
v -44.550 -14.952 0.000
v -30.287 -14.941 0.000
v -30.296 -6.573 0.000
v -44.061 -6.595 0.000
v -44.079 5.022 0.000
v -29.807 5.045 0.000
v -29.825 11.257 0.000
v -44.142 11.224 0.000
v -44.187 30.568 0.000
v -29.934 30.601 0.000
v -29.943 35.454 0.000
v -45.392 35.399 0.000
v -45.455 53.096 0.000
v -23.567 53.174 11.360
v -23.558 50.565 11.360
v 37.994 50.886 11.360
v 38.003 48.642 11.360
v 53.751 48.730 11.360
v 53.850 30.712 11.360
v 34.652 30.612 11.360
v 34.634 35.255 11.360
v -24.020 34.968 11.360
v -23.875 5.288 11.360
v 58.595 5.686 11.360
v 58.650 -6.153 11.360
v 54.022 -6.164 11.360
v 54.040 -12.598 11.360
v 35.322 -12.642 11.360
v 35.313 -8.917 11.360
v -24.129 -8.983 11.360
v -24.102 -41.824 11.360
v 33.810 -41.780 11.360
v 33.810 -36.596 11.360
v 51.677 -36.585 11.360
v 51.686 -41.990 11.360
v 56.811 -41.990 11.360
v 56.821 -57.974 11.360
v -44.939 -57.996 11.360
v -44.939 -43.129 11.360
v -31.908 -43.118 11.360
v -31.908 -35.336 11.360
v -44.540 -35.347 11.360
v -44.550 -14.952 11.360
v -30.287 -14.941 11.360
v -30.296 -6.573 11.360
v -44.061 -6.595 11.360
v -44.079 5.022 11.360
v -29.807 5.045 11.360
v -29.825 11.257 11.360
v -44.142 11.224 11.360
v -44.187 30.568 11.360
v -29.934 30.601 11.360
v -29.943 35.454 11.360
v -45.392 35.399 11.360
v -45.455 53.096 11.360
usemtl roof
f 53 54 55 56 57 58 59 60 61 62 63 64 65 66 67 68 69 70 71 72 73 74 75 76 77 78 79 80 81 82 83 84 85 86 87 88 89 90 91 92 93 94
usemtl teaching_building
f 52 51 50 49 48 47 46 45 44 43 42 41 40 39 38 37 36 35 34 33 32 31 30 29 28 27 26 25 24 23 22 21 20 19 18 17 16 15 14 13 12 11
f 11 12 54 53
f 12 13 55 54
f 13 14 56 55
f 14 15 57 56
f 15 16 58 57
f 16 17 59 58
f 17 18 60 59
f 18 19 61 60
f 19 20 62 61
f 20 21 63 62
f 21 22 64 63
f 22 23 65 64
f 23 24 66 65
f 24 25 67 66
f 25 26 68 67
f 26 27 69 68
f 27 28 70 69
f 28 29 71 70
f 29 30 72 71
f 30 31 73 72
f 31 32 74 73
f 32 33 75 74
f 33 34 76 75
f 34 35 77 76
f 35 36 78 77
f 36 37 79 78
f 37 38 80 79
f 38 39 81 80
f 39 40 82 81
f 40 41 83 82
f 41 42 84 83
f 42 43 85 84
f 43 44 86 85
f 44 45 87 86
f 45 46 88 87
f 46 47 89 88
f 47 48 90 89
f 48 49 91 90
f 49 50 92 91
f 50 51 93 92
f 51 52 94 93
f 52 11 53 94
