# school_id SD0617
# school_name 诸城市府前街小学(北校区)
# boundary_source footprint_convex_hull_buffer_20m
# adjacent_block_merge_distance_m 2.0
mtllib ../campus_materials.mtl
o SD0617_campus_boundary
usemtl campus_boundary
v -55.633 -46.433 0.050
v -63.211 44.516 0.050
v 54.333 54.204 0.050
v 61.747 -34.738 0.050
v -23.791 -43.811 0.050
v -55.633 -46.433 0.050
l 1 2 3 4 5 6 1
o SD0617_T001_1hao
v -37.361 -24.861 0.000
v -25.667 -23.898 0.000
v -28.498 10.004 0.000
v 27.101 14.581 0.000
v 29.789 -17.773 0.000
v 40.192 -16.912 0.000
v 36.062 32.630 0.000
v -41.618 26.228 0.000
v -37.361 -24.861 9.900
v -25.667 -23.898 9.900
v -28.498 10.004 9.900
v 27.101 14.581 9.900
v 29.789 -17.773 9.900
v 40.192 -16.912 9.900
v 36.062 32.630 9.900
v -41.618 26.228 9.900
usemtl roof
f 15 16 17 18 19 20 21 22
usemtl teaching_building
f 14 13 12 11 10 9 8 7
f 7 8 16 15
f 8 9 17 16
f 9 10 18 17
f 10 11 19 18
f 11 12 20 19
f 12 13 21 20
f 13 14 22 21
f 14 7 15 22
