# school_id SD0623
# school_name 诸城市邱家庄子小学
# boundary_source footprint_convex_hull_buffer_20m
# adjacent_block_merge_distance_m 2.0
mtllib ../campus_materials.mtl
o SD0623_campus_boundary
usemtl campus_boundary
v 43.141 -28.718 0.050
v -43.141 -27.234 0.050
v -43.141 27.428 0.050
v 43.141 28.521 0.050
v 43.141 -28.718 0.050
l 1 2 3 4 5 1
o SD0623_T001_1hao
v 23.141 8.266 0.000
v 23.141 -8.371 0.000
v -23.141 -7.575 0.000
v -23.141 7.680 0.000
v 23.141 8.266 11.880
v 23.141 -8.371 11.880
v -23.141 -7.575 11.880
v -23.141 7.680 11.880
usemtl roof
f 10 11 12 13
usemtl teaching_building
f 9 8 7 6
f 6 7 11 10
f 7 8 12 11
f 8 9 13 12
f 9 6 10 13
