# school_id SD0637
# school_name 青龙回小
# boundary_source footprint_convex_hull_buffer_20m
# adjacent_block_merge_distance_m 2.0
mtllib ../campus_materials.mtl
o SD0637_campus_boundary
usemtl campus_boundary
v 82.069 -32.509 0.050
v 29.312 -30.699 0.050
v -86.536 -25.222 0.050
v -84.310 27.561 0.050
v -21.911 27.276 0.050
v 25.137 25.176 0.050
v 83.952 20.473 0.050
v 82.069 -32.509 0.050
l 1 2 3 4 5 6 7 8 1
o SD0637_T001_1hao
v -29.580 -7.676 0.000
v -29.026 5.611 0.000
v -35.888 5.898 0.000
v -35.985 3.600 0.000
v -57.491 4.490 0.000
v -57.387 7.158 0.000
v -65.139 7.473 0.000
v -65.715 -6.184 0.000
v -29.580 -7.676 9.900
v -29.026 5.611 9.900
v -35.888 5.898 9.900
v -35.985 3.600 9.900
v -57.491 4.490 9.900
v -57.387 7.158 9.900
v -65.139 7.473 9.900
v -65.715 -6.184 9.900
usemtl roof
f 17 18 19 20 21 22 23 24
usemtl teaching_building
f 16 15 14 13 12 11 10 9
f 9 10 18 17
f 10 11 19 18
f 11 12 20 19
f 12 13 21 20
f 13 14 22 21
f 14 15 23 22
f 15 16 24 23
f 16 9 17 24
o SD0637_T002_2hao
v 23.206 -9.992 0.000
v 23.894 5.212 0.000
v -22.403 7.278 0.000
v -23.084 -7.935 0.000
v 23.206 -9.992 9.900
v 23.894 5.212 9.900
v -22.403 7.278 9.900
v -23.084 -7.935 9.900
usemtl roof
f 29 30 31 32
usemtl teaching_building
f 28 27 26 25
f 25 26 30 29
f 26 27 31 30
f 27 28 32 31
f 28 25 29 32
o SD0637_T003_3hao
v 62.791 -11.836 0.000
v 63.285 2.062 0.000
v 54.829 2.358 0.000
v 54.679 -1.867 0.000
v 39.062 -1.320 0.000
v 39.212 3.044 0.000
v 30.614 3.341 0.000
v 30.127 -10.715 0.000
v 62.791 -11.836 9.900
v 63.285 2.062 9.900
v 54.829 2.358 9.900
v 54.679 -1.867 9.900
v 39.062 -1.320 9.900
v 39.212 3.044 9.900
v 30.614 3.341 9.900
v 30.127 -10.715 9.900
usemtl roof
f 41 42 43 44 45 46 47 48
usemtl teaching_building
f 40 39 38 37 36 35 34 33
f 33 34 42 41
f 34 35 43 42
f 35 36 44 43
f 36 37 45 44
f 37 38 46 45
f 38 39 47 46
f 39 40 48 47
f 40 33 41 48
