# school_id SD0638
# school_name 饮马镇中心学校
# boundary_source footprint_convex_hull_buffer_20m
# adjacent_block_merge_distance_m 2.0
mtllib ../campus_materials.mtl
o SD0638_campus_boundary
usemtl campus_boundary
v 22.783 -84.501 0.050
v -77.542 -83.218 0.050
v -81.528 -19.953 0.050
v -83.749 23.076 0.050
v -85.131 65.938 0.050
v 50.204 72.374 0.050
v 80.334 73.324 0.050
v 86.793 -81.785 0.050
v 22.783 -84.501 0.050
l 1 2 3 4 5 6 7 8 9 1
o SD0638_T001_1hao
v 50.994 52.389 0.000
v 51.217 45.514 0.000
v 17.039 44.430 0.000
v 17.271 37.356 0.000
v 15.297 37.290 0.000
v 15.440 32.780 0.000
v 51.556 33.940 0.000
v 51.699 29.408 0.000
v 61.916 29.729 0.000
v 61.175 52.710 0.000
v 50.994 52.389 12.100
v 51.217 45.514 12.100
v 17.039 44.430 12.100
v 17.271 37.356 12.100
v 15.297 37.290 12.100
v 15.440 32.780 12.100
v 51.556 33.940 12.100
v 51.699 29.408 12.100
v 61.916 29.729 12.100
v 61.175 52.710 12.100
usemtl roof
f 20 21 22 23 24 25 26 27 28 29
usemtl teaching_building
f 19 18 17 16 15 14 13 12 11 10
f 10 11 21 20
f 11 12 22 21
f 12 13 23 22
f 13 14 24 23
f 14 15 25 24
f 15 16 26 25
f 16 17 27 26
f 17 18 28 27
f 18 19 29 28
f 19 10 20 29
o SD0638_T002_2hao
v -54.335 47.216 0.000
v -54.112 40.352 0.000
v -19.934 41.446 0.000
v -19.702 34.371 0.000
v -17.737 34.427 0.000
v -17.585 29.917 0.000
v -53.701 28.778 0.000
v -53.549 24.235 0.000
v -63.766 23.914 0.000
v -64.507 46.896 0.000
v -54.335 47.216 13.670
v -54.112 40.352 13.670
v -19.934 41.446 13.670
v -19.702 34.371 13.670
v -17.737 34.427 13.670
v -17.585 29.917 13.670
v -53.701 28.778 13.670
v -53.549 24.235 13.670
v -63.766 23.914 13.670
v -64.507 46.896 13.670
usemtl roof
f 40 41 42 43 44 45 46 47 48 49
usemtl teaching_building
f 39 38 37 36 35 34 33 32 31 30
f 30 31 41 40
f 31 32 42 41
f 32 33 43 42
f 33 34 44 43
f 34 35 45 44
f 35 36 46 45
f 36 37 47 46
f 37 38 48 47
f 38 39 49 48
f 39 30 40 49
o SD0638_T003_3hao
v 53.780 5.288 0.000
v 54.110 -1.974 0.000
v 17.646 -3.411 0.000
v 17.807 -7.413 0.000
v 19.799 -7.335 0.000
v 20.093 -14.742 0.000
v 62.443 -13.415 0.000
v 61.800 4.946 0.000
v 53.780 5.288 13.770
v 54.110 -1.974 13.770
v 17.646 -3.411 13.770
v 17.807 -7.413 13.770
v 19.799 -7.335 13.770
v 20.093 -14.742 13.770
v 62.443 -13.415 13.770
v 61.800 4.946 13.770
usemtl roof
f 58 59 60 61 62 63 64 65
usemtl teaching_building
f 57 56 55 54 53 52 51 50
f 50 51 59 58
f 51 52 60 59
f 52 53 61 60
f 53 54 62 61
f 54 55 63 62
f 55 56 64 63
f 56 57 65 64
f 57 50 58 65
o SD0638_T004_4hao
v -53.942 -0.007 0.000
v -53.666 -6.971 0.000
v -16.353 -5.589 0.000
v -16.183 -9.590 0.000
v -18.175 -9.668 0.000
v -17.880 -17.085 0.000
v -61.560 -18.809 0.000
v -62.302 -0.449 0.000
v -53.942 -0.007 13.400
v -53.666 -6.971 13.400
v -16.353 -5.589 13.400
v -16.183 -9.590 13.400
v -18.175 -9.668 13.400
v -17.880 -17.085 13.400
v -61.560 -18.809 13.400
v -62.302 -0.449 13.400
usemtl roof
f 74 75 76 77 78 79 80 81
usemtl teaching_building
f 73 72 71 70 69 68 67 66
f 66 67 75 74
f 67 68 76 75
f 68 69 77 76
f 69 70 78 77
f 70 71 79 78
f 71 72 80 79
f 72 73 81 80
f 73 66 74 81
o SD0638_T005_5hao
v 65.086 -41.835 0.000
v 65.979 -62.650 0.000
v 22.487 -64.496 0.000
v 21.594 -43.692 0.000
v 65.086 -41.835 8.920
v 65.979 -62.650 8.920
v 22.487 -64.496 8.920
v 21.594 -43.692 8.920
usemtl roof
f 86 87 88 89
usemtl teaching_building
f 85 84 83 82
f 82 83 87 86
f 83 84 88 87
f 84 85 89 88
f 85 82 86 89
o SD0638_T006_6hao
v -16.621 -46.201 0.000
v -15.906 -61.478 0.000
v -58.747 -63.457 0.000
v -59.453 -48.169 0.000
v -16.621 -46.201 13.460
v -15.906 -61.478 13.460
v -58.747 -63.457 13.460
v -59.453 -48.169 13.460
usemtl roof
f 94 95 96 97
usemtl teaching_building
f 93 92 91 90
f 90 91 95 94
f 91 92 96 95
f 92 93 97 96
f 93 90 94 97
