# school_id SD0683
# school_name 爱国小学西校区
# boundary_source footprint_convex_hull_buffer_20m
# adjacent_block_merge_distance_m 2.0
mtllib ../campus_materials.mtl
o SD0683_campus_boundary
usemtl campus_boundary
v -47.506 -67.436 0.050
v -102.925 -63.580 0.050
v -80.805 49.515 0.050
v 7.012 77.114 0.050
v 125.395 78.479 0.050
v 129.460 -43.975 0.050
v -47.506 -67.436 0.050
l 1 2 3 4 5 6 7 1
o SD0683_T001_1hao
v 10.193 57.149 0.000
v 4.920 24.275 0.000
v -63.460 34.002 0.000
v -78.951 -45.200 0.000
v -48.133 -47.344 0.000
v -47.247 -27.469 0.000
v 108.870 -26.530 0.000
v 106.055 58.255 0.000
v 10.193 57.149 7.740
v 4.920 24.275 7.740
v -63.460 34.002 7.740
v -78.951 -45.200 7.740
v -48.133 -47.344 7.740
v -47.247 -27.469 7.740
v 108.870 -26.530 7.740
v 106.055 58.255 7.740
usemtl roof
f 16 17 18 19 20 21 22 23
usemtl teaching_building
f 15 14 13 12 11 10 9 8
f 8 9 17 16
f 9 10 18 17
f 10 11 19 18
f 11 12 20 19
f 12 13 21 20
f 13 14 22 21
f 14 15 23 22
f 15 8 16 23
