# school_id SD0634
# school_name 青州市海岱小学
# boundary_source footprint_convex_hull_buffer_20m
# adjacent_block_merge_distance_m 2.0
mtllib ../campus_materials.mtl
o SD0634_campus_boundary
usemtl campus_boundary
v 51.029 -47.894 0.050
v -46.671 -47.483 0.050
v -46.517 -9.864 0.050
v -44.891 47.222 0.050
v 51.431 46.810 0.050
v 51.029 -47.894 0.050
l 1 2 3 4 5 6 1
o SD0634_T001_1hao
v 31.346 26.896 0.000
v 31.114 -27.810 0.000
v -26.589 -27.567 0.000
v -26.518 -10.190 0.000
v 20.766 -10.389 0.000
v 20.855 10.867 0.000
v -25.518 11.055 0.000
v -25.455 27.139 0.000
v 31.346 26.896 8.130
v 31.114 -27.810 8.130
v -26.589 -27.567 8.130
v -26.518 -10.190 8.130
v 20.766 -10.389 8.130
v 20.855 10.867 8.130
v -25.518 11.055 8.130
v -25.455 27.139 8.130
usemtl roof
f 15 16 17 18 19 20 21 22
usemtl teaching_building
f 14 13 12 11 10 9 8 7
f 7 8 16 15
f 8 9 17 16
f 9 10 18 17
f 10 11 19 18
f 11 12 20 19
f 12 13 21 20
f 13 14 22 21
f 14 7 15 22
