# school_id SD0619
# school_name 诸城市文化路小学
# boundary_source footprint_convex_hull_buffer_20m
# adjacent_block_merge_distance_m 2.0
mtllib ../campus_materials.mtl
o SD0619_campus_boundary
usemtl campus_boundary
v -49.002 -80.334 0.050
v -56.790 39.433 0.050
v -29.465 52.141 0.050
v 38.898 56.503 0.050
v 59.028 40.675 0.050
v 60.449 18.608 0.050
v 61.078 -73.268 0.050
v -49.002 -80.334 0.050
l 1 2 3 4 5 6 7 8 1
o SD0619_T001_1hao
v 40.453 17.896 0.000
v 39.643 30.475 0.000
v 32.932 30.055 0.000
v 32.544 36.057 0.000
v -24.440 32.421 0.000
v -24.143 27.833 0.000
v -35.944 27.071 0.000
v -30.341 -59.095 0.000
v 40.949 -54.519 0.000
v 39.507 -32.267 0.000
v -19.072 -36.015 0.000
v -20.117 -19.986 0.000
v -14.135 -19.599 0.000
v -15.604 3.028 0.000
v -20.756 2.696 0.000
v -21.477 13.949 0.000
v 40.453 17.896 11.800
v 39.643 30.475 11.800
v 32.932 30.055 11.800
v 32.544 36.057 11.800
v -24.440 32.421 11.800
v -24.143 27.833 11.800
v -35.944 27.071 11.800
v -30.341 -59.095 11.800
v 40.949 -54.519 11.800
v 39.507 -32.267 11.800
v -19.072 -36.015 11.800
v -20.117 -19.986 11.800
v -14.135 -19.599 11.800
v -15.604 3.028 11.800
v -20.756 2.696 11.800
v -21.477 13.949 11.800
usemtl roof
f 25 26 27 28 29 30 31 32 33 34 35 36 37 38 39 40
usemtl teaching_building
f 24 23 22 21 20 19 18 17 16 15 14 13 12 11 10 9
f 9 10 26 25
f 10 11 27 26
f 11 12 28 27
f 12 13 29 28
f 13 14 30 29
f 14 15 31 30
f 15 16 32 31
f 16 17 33 32
f 17 18 34 33
f 18 19 35 34
f 19 20 36 35
f 20 21 37 36
f 21 22 38 37
f 22 23 39 38
f 23 24 40 39
f 24 9 25 40
