# school_id SD0713
# school_name 山东省商务技术学校
# boundary_source footprint_convex_hull_buffer_20m
# adjacent_block_merge_distance_m 2.0
mtllib ../campus_materials.mtl
o SD0713_campus_boundary
usemtl campus_boundary
v 44.949 -98.256 0.050
v -2.775 -73.457 0.050
v -70.882 -34.858 0.050
v -77.105 10.668 0.050
v -76.823 51.825 0.050
v -64.087 79.259 0.050
v 29.422 66.732 0.050
v 79.749 41.944 0.050
v 60.604 -60.287 0.050
v 44.949 -98.256 0.050
l 1 2 3 4 5 6 7 8 9 10 1
o SD0713_T001_1hao
v 57.297 30.708 0.000
v 53.371 15.100 0.000
v 18.285 33.560 0.000
v 23.522 47.344 0.000
v 57.297 30.708 19.430
v 53.371 15.100 19.430
v 18.285 33.560 19.430
v 23.522 47.344 19.430
usemtl roof
f 15 16 17 18
usemtl teaching_building
f 14 13 12 11
f 11 12 16 15
f 12 13 17 16
f 13 14 18 17
f 14 11 15 18
o SD0713_T002_2hao
v 41.065 14.326 0.000
v 35.828 -0.752 0.000
v 25.615 4.178 0.000
v 26.666 9.120 0.000
v 4.407 21.345 0.000
v 2.314 17.178 0.000
v -4.755 21.080 0.000
v -7.108 24.208 0.000
v -56.853 47.344 0.000
v -52.147 57.481 0.000
v 41.065 14.326 13.420
v 35.828 -0.752 13.420
v 25.615 4.178 13.420
v 26.666 9.120 13.420
v 4.407 21.345 13.420
v 2.314 17.178 13.420
v -4.755 21.080 13.420
v -7.108 24.208 13.420
v -56.853 47.344 13.420
v -52.147 57.481 13.420
usemtl roof
f 29 30 31 32 33 34 35 36 37 38
usemtl teaching_building
f 28 27 26 25 24 23 22 21 20 19
f 19 20 30 29
f 20 21 31 30
f 21 22 32 31
f 22 23 33 32
f 23 24 34 33
f 24 25 35 34
f 25 26 36 35
f 26 27 37 36
f 27 28 38 37
f 28 19 29 38
o SD0713_T003_3hao
v 29.280 -37.672 0.000
v -23.340 -9.341 0.000
v -16.540 4.178 0.000
v 33.996 -21.036 0.000
v 29.280 -37.672 13.830
v -23.340 -9.341 13.830
v -16.540 4.178 13.830
v 33.996 -21.036 13.830
usemtl roof
f 43 44 45 46
usemtl teaching_building
f 42 41 40 39
f 39 40 44 43
f 40 41 45 44
f 41 42 46 45
f 42 39 43 46
o SD0713_T003_3hao_seg02
v -23.888 -6.887 0.000
v -57.096 11.960 0.000
v -50.629 29.945 0.000
v -16.558 11.960 0.000
v -23.888 -6.887 13.830
v -57.096 11.960 13.830
v -50.629 29.945 13.830
v -16.558 11.960 13.830
usemtl roof
f 51 52 53 54
usemtl teaching_building
f 50 49 48 47
f 47 48 52 51
f 48 49 53 52
f 49 50 54 53
f 50 47 51 54
o SD0713_T004_4hao
v -17.582 -30.133 0.000
v -20.986 -40.015 0.000
v -52.407 -22.340 0.000
v -48.482 -11.673 0.000
v -17.582 -30.133 9.890
v -20.986 -40.015 9.890
v -52.407 -22.340 9.890
v -48.482 -11.673 9.890
usemtl roof
f 59 60 61 62
usemtl teaching_building
f 58 57 56 55
f 55 56 60 59
f 56 57 61 60
f 57 58 62 61
f 58 55 59 62
o SD0713_T005_5hao
v 41.326 -54.574 0.000
v 34.786 -70.436 0.000
v 6.770 -55.878 0.000
v 13.839 -40.281 0.000
v 41.326 -54.574 19.530
v 34.786 -70.436 19.530
v 6.770 -55.878 19.530
v 13.839 -40.281 19.530
usemtl roof
f 67 68 69 70
usemtl teaching_building
f 66 65 64 63
f 63 64 68 67
f 64 65 69 68
f 65 66 70 69
f 66 63 67 70
