# school_id SD0718
# school_name 杜家庄小学
# boundary_source footprint_convex_hull_buffer_20m
# adjacent_block_merge_distance_m 2.0
mtllib ../campus_materials.mtl
o SD0718_campus_boundary
usemtl campus_boundary
v -51.013 -234.458 0.050
v -56.206 267.851 0.050
v 3.477 283.421 0.050
v 57.824 283.821 0.050
v 61.805 224.146 0.050
v 41.830 -177.036 0.050
v 38.727 -229.286 0.050
v -0.213 -233.419 0.050
v -51.013 -234.458 0.050
l 1 2 3 4 5 6 7 8 9 1
o SD0718_T001_1hao
v -35.085 226.608 0.000
v 8.046 229.957 0.000
v 8.764 221.346 0.000
v 41.772 223.977 0.000
v 39.123 263.683 0.000
v 6.115 263.440 0.000
v 6.357 255.072 0.000
v -36.046 252.441 0.000
v -35.085 226.608 8.020
v 8.046 229.957 8.020
v 8.764 221.346 8.020
v 41.772 223.977 8.020
v 39.123 263.683 8.020
v 6.115 263.440 8.020
v 6.357 255.072 8.020
v -36.046 252.441 8.020
usemtl roof
f 18 19 20 21 22 23 24 25
usemtl teaching_building
f 17 16 15 14 13 12 11 10
f 10 11 19 18
f 11 12 20 19
f 12 13 21 20
f 13 14 22 21
f 14 15 23 22
f 15 16 24 23
f 16 17 25 24
f 17 10 18 25
o SD0718_T002_2hao
v -28.546 -174.310 0.000
v 21.860 -175.946 0.000
v 22.138 -167.423 0.000
v -28.268 -165.787 0.000
v -28.546 -174.310 8.240
v 21.860 -175.946 8.240
v 22.138 -167.423 8.240
v -28.268 -165.787 8.240
usemtl roof
f 30 31 32 33
usemtl teaching_building
f 29 28 27 26
f 26 27 31 30
f 27 28 32 31
f 28 29 33 32
f 29 26 30 33
o SD0718_T003_3hao
v -31.034 -203.139 0.000
v 19.327 -200.663 0.000
v 19.767 -211.186 0.000
v -1.592 -210.578 0.000
v -1.475 -213.441 0.000
v -31.223 -214.049 0.000
v -31.034 -203.139 11.300
v 19.327 -200.663 11.300
v 19.767 -211.186 11.300
v -1.592 -210.578 11.300
v -1.475 -213.441 11.300
v -31.223 -214.049 11.300
usemtl roof
f 40 41 42 43 44 45
usemtl teaching_building
f 39 38 37 36 35 34
f 34 35 41 40
f 35 36 42 41
f 36 37 43 42
f 37 38 44 43
f 38 39 45 44
f 39 34 40 45
