# school_id SD0702
# school_name 东平县清河实验学校
# boundary_source footprint_convex_hull_buffer_20m
# adjacent_block_merge_distance_m 2.0
mtllib ../campus_materials.mtl
o SD0702_campus_boundary
usemtl campus_boundary
v -58.077 -65.887 0.050
v -59.322 68.810 0.050
v 48.987 69.800 0.050
v 51.519 6.166 0.050
v 51.661 -8.659 0.050
v 45.349 -64.947 0.050
v -58.077 -65.887 0.050
l 1 2 3 4 5 6 7 1
o SD0702_T001_1hao
v -39.138 48.994 0.000
v -38.263 -45.706 0.000
v 27.448 -45.109 0.000
v 27.295 -29.058 0.000
v -26.145 -29.556 0.000
v -26.353 -8.177 0.000
v 31.650 -7.636 0.000
v 31.523 5.673 0.000
v -23.774 5.143 0.000
v -23.990 27.649 0.000
v 29.973 28.157 0.000
v 29.774 49.624 0.000
v -39.138 48.994 10.320
v -38.263 -45.706 10.320
v 27.448 -45.109 10.320
v 27.295 -29.058 10.320
v -26.145 -29.556 10.320
v -26.353 -8.177 10.320
v 31.650 -7.636 10.320
v 31.523 5.673 10.320
v -23.774 5.143 10.320
v -23.990 27.649 10.320
v 29.973 28.157 10.320
v 29.774 49.624 10.320
usemtl roof
f 20 21 22 23 24 25 26 27 28 29 30 31
usemtl teaching_building
f 19 18 17 16 15 14 13 12 11 10 9 8
f 8 9 21 20
f 9 10 22 21
f 10 11 23 22
f 11 12 24 23
f 12 13 25 24
f 13 14 26 25
f 14 15 27 26
f 15 16 28 27
f 16 17 29 28
f 17 18 30 29
f 18 19 31 30
f 19 8 20 31
