# school_id SD0726
# school_name 泰安一中
# boundary_source footprint_convex_hull_buffer_20m
# adjacent_block_merge_distance_m 2.0
mtllib ../campus_materials.mtl
o SD0726_campus_boundary
usemtl campus_boundary
v -4.520 -75.372 0.050
v -90.868 15.865 0.050
v -99.836 63.665 0.050
v 54.152 92.173 0.050
v 62.559 47.397 0.050
v 50.301 -69.759 0.050
v -4.520 -75.372 0.050
l 1 2 3 4 5 6 7 1
o SD0726_T001_1hao
v -72.296 25.338 0.000
v 42.364 46.575 0.000
v 38.177 68.876 0.000
v -76.482 47.649 0.000
v -72.296 25.338 9.900
v 42.364 46.575 9.900
v 38.177 68.876 9.900
v -76.482 47.649 9.900
usemtl roof
f 12 13 14 15
usemtl teaching_building
f 11 10 9 8
f 8 9 13 12
f 9 10 14 13
f 10 11 15 14
f 11 8 12 15
o SD0726_T002_2hao
v 3.238 -54.473 0.000
v 32.100 -51.518 0.000
v 30.881 -39.751 0.000
v 2.018 -42.697 0.000
v 3.238 -54.473 9.900
v 32.100 -51.518 9.900
v 30.881 -39.751 9.900
v 2.018 -42.697 9.900
usemtl roof
f 20 21 22 23
usemtl teaching_building
f 19 18 17 16
f 16 17 21 20
f 17 18 22 21
f 18 19 23 22
f 19 16 20 23
