# school_id SD0733
# school_name 泰山中学
# boundary_source footprint_convex_hull_buffer_20m
# adjacent_block_merge_distance_m 2.0
mtllib ../campus_materials.mtl
o SD0733_campus_boundary
usemtl campus_boundary
v -84.145 -169.933 0.050
v -97.831 24.702 0.050
v -98.962 45.104 0.050
v -53.522 141.839 0.050
v 21.963 146.763 0.050
v 78.313 147.620 0.050
v 82.200 100.945 0.050
v 96.247 -160.780 0.050
v -9.845 -167.191 0.050
v -84.145 -169.933 0.050
l 1 2 3 4 5 6 7 8 9 10 1
o SD0733_T001_1hao
v -40.439 122.650 0.000
v 22.766 126.773 0.000
v 23.941 109.104 0.000
v -39.257 104.971 0.000
v -40.439 122.650 9.900
v 22.766 126.773 9.900
v 23.941 109.104 9.900
v -39.257 104.971 9.900
usemtl roof
f 15 16 17 18
usemtl teaching_building
f 14 13 12 11
f 11 12 16 15
f 12 13 17 16
f 13 14 18 17
f 14 11 15 18
o SD0733_T001_1hao_seg02
v 24.475 124.429 0.000
v 59.933 127.338 0.000
v 62.245 99.579 0.000
v 26.787 96.670 0.000
v 24.475 124.429 9.900
v 59.933 127.338 9.900
v 62.245 99.579 9.900
v 26.787 96.670 9.900
usemtl roof
f 23 24 25 26
usemtl teaching_building
f 22 21 20 19
f 19 20 24 23
f 20 21 25 24
f 21 22 26 25
f 22 19 23 26
o SD0733_T002_2hao
v -39.852 66.261 0.000
v 49.813 73.460 0.000
v 48.556 88.840 0.000
v -41.102 81.641 0.000
v -39.852 66.261 9.900
v 49.813 73.460 9.900
v 48.556 88.840 9.900
v -41.102 81.641 9.900
usemtl roof
f 31 32 33 34
usemtl teaching_building
f 30 29 28 27
f 27 28 32 31
f 28 29 33 32
f 29 30 34 33
f 30 27 31 34
o SD0733_T003_3hao
v -7.308 30.487 0.000
v 52.795 34.777 0.000
v 51.718 49.611 0.000
v -8.385 45.312 0.000
v -7.308 30.487 9.900
v 52.795 34.777 9.900
v 51.718 49.611 9.900
v -8.385 45.312 9.900
usemtl roof
f 39 40 41 42
usemtl teaching_building
f 38 37 36 35
f 35 36 40 39
f 36 37 41 40
f 37 38 42 41
f 38 35 39 42
o SD0733_T004_4hao
v -77.870 25.957 0.000
v -12.451 29.551 0.000
v -13.294 44.737 0.000
v -78.713 41.170 0.000
v -77.870 25.957 9.900
v -12.451 29.551 9.900
v -13.294 44.737 9.900
v -78.713 41.170 9.900
usemtl roof
f 47 48 49 50
usemtl teaching_building
f 46 45 44 43
f 43 44 48 47
f 44 45 49 48
f 45 46 50 49
f 46 43 47 50
o SD0733_T005_5hao
v 23.655 4.535 0.000
v 34.468 5.953 0.000
v 35.258 -2.099 0.000
v 39.392 -1.941 0.000
v 39.550 -6.676 0.000
v 54.181 -4.786 0.000
v 52.901 22.213 0.000
v 22.698 19.063 0.000
v 23.655 4.535 9.900
v 34.468 5.953 9.900
v 35.258 -2.099 9.900
v 39.392 -1.941 9.900
v 39.550 -6.676 9.900
v 54.181 -4.786 9.900
v 52.901 22.213 9.900
v 22.698 19.063 9.900
usemtl roof
f 59 60 61 62 63 64 65 66
usemtl teaching_building
f 58 57 56 55 54 53 52 51
f 51 52 60 59
f 52 53 61 60
f 53 54 62 61
f 54 55 63 62
f 55 56 64 63
f 56 57 65 64
f 57 58 66 65
f 58 51 59 66
o SD0733_T006_6hao
v -62.509 -14.885 0.000
v -48.195 -13.616 0.000
v -48.360 -8.575 0.000
v -43.112 -7.779 0.000
v -43.428 -0.209 0.000
v -32.781 1.218 0.000
v -33.896 15.264 0.000
v -65.363 12.272 0.000
v -62.509 -14.885 9.900
v -48.195 -13.616 9.900
v -48.360 -8.575 9.900
v -43.112 -7.779 9.900
v -43.428 -0.209 9.900
v -32.781 1.218 9.900
v -33.896 15.264 9.900
v -65.363 12.272 9.900
usemtl roof
f 75 76 77 78 79 80 81 82
usemtl teaching_building
f 74 73 72 71 70 69 68 67
f 67 68 76 75
f 68 69 77 76
f 69 70 78 77
f 70 71 79 78
f 71 72 80 79
f 72 73 81 80
f 73 74 82 81
f 74 67 75 82
o SD0733_T007_7hao
v -60.755 -39.040 0.000
v -46.606 -37.613 0.000
v -47.080 -33.990 0.000
v -16.246 -30.979 0.000
v -15.613 -34.620 0.000
v 12.684 -32.406 0.000
v 12.209 -28.941 0.000
v 44.482 -25.624 0.000
v 45.115 -29.719 0.000
v 57.358 -28.311 0.000
v 56.244 -8.733 0.000
v -62.185 -19.138 0.000
v -60.755 -39.040 9.900
v -46.606 -37.613 9.900
v -47.080 -33.990 9.900
v -16.246 -30.979 9.900
v -15.613 -34.620 9.900
v 12.684 -32.406 9.900
v 12.209 -28.941 9.900
v 44.482 -25.624 9.900
v 45.115 -29.719 9.900
v 57.358 -28.311 9.900
v 56.244 -8.733 9.900
v -62.185 -19.138 9.900
usemtl roof
f 95 96 97 98 99 100 101 102 103 104 105 106
usemtl teaching_building
f 94 93 92 91 90 89 88 87 86 85 84 83
f 83 84 96 95
f 84 85 97 96
f 85 86 98 97
f 86 87 99 98
f 87 88 100 99
f 88 89 101 100
f 89 90 102 101
f 90 91 103 102
f 91 92 104 103
f 92 93 105 104
f 93 94 106 105
f 94 83 95 106
o SD0733_T008_8hao
v 21.388 -145.184 0.000
v 75.211 -142.015 0.000
v 74.263 -126.320 0.000
v 20.455 -129.507 0.000
v 21.388 -145.184 9.900
v 75.211 -142.015 9.900
v 74.263 -126.320 9.900
v 20.455 -129.507 9.900
usemtl roof
f 111 112 113 114
usemtl teaching_building
f 110 109 108 107
f 107 108 112 111
f 108 109 113 112
f 109 110 114 113
f 110 107 111 114
o SD0733_T009_9hao
v -65.551 -149.233 0.000
v -10.817 -147.213 0.000
v -11.246 -135.835 0.000
v -65.988 -137.855 0.000
v -65.551 -149.233 9.900
v -10.817 -147.213 9.900
v -11.246 -135.835 9.900
v -65.988 -137.855 9.900
usemtl roof
f 119 120 121 122
usemtl teaching_building
f 118 117 116 115
f 115 116 120 119
f 116 117 121 120
f 117 118 122 121
f 118 115 119 122
