# school_id SD0759
# school_name 威海市第一中学东院
# boundary_source footprint_convex_hull_buffer_20m
# adjacent_block_merge_distance_m 2.0
mtllib ../campus_materials.mtl
o SD0759_campus_boundary
usemtl campus_boundary
v 20.347 -191.714 0.050
v -58.650 -158.198 0.050
v -111.385 -134.534 0.050
v -118.872 155.780 0.050
v -99.688 198.792 0.050
v 22.282 145.168 0.050
v 76.277 117.705 0.050
v 86.427 15.438 0.050
v 33.544 -162.808 0.050
v 20.347 -191.714 0.050
l 1 2 3 4 5 6 7 8 9 10 1
o SD0759_T001_1hao
v -27.832 120.591 0.000
v -43.655 85.105 0.000
v -11.335 70.901 0.000
v 13.717 127.086 0.000
v -89.526 172.477 0.000
v -98.762 151.769 0.000
v -27.832 120.591 9.900
v -43.655 85.105 9.900
v -11.335 70.901 9.900
v 13.717 127.086 9.900
v -89.526 172.477 9.900
v -98.762 151.769 9.900
usemtl roof
f 17 18 19 20 21 22
usemtl teaching_building
f 16 15 14 13 12 11
f 11 12 18 17
f 12 13 19 18
f 13 14 20 19
f 14 15 21 20
f 15 16 22 21
f 16 11 17 22
o SD0759_T002_2hao
v 53.733 90.608 0.000
v 57.456 104.840 0.000
v 21.724 114.059 0.000
v 18.002 99.827 0.000
v 53.733 90.608 9.900
v 57.456 104.840 9.900
v 21.724 114.059 9.900
v 18.002 99.827 9.900
usemtl roof
f 27 28 29 30
usemtl teaching_building
f 26 25 24 23
f 23 24 28 27
f 24 25 29 28
f 25 26 30 29
f 26 23 27 30
o SD0759_T003_3hao
v -19.202 -8.012 0.000
v 5.627 47.969 0.000
v -23.288 60.607 0.000
v -48.110 4.626 0.000
v -19.202 -8.012 9.900
v 5.627 47.969 9.900
v -23.288 60.607 9.900
v -48.110 4.626 9.900
usemtl roof
f 35 36 37 38
usemtl teaching_building
f 34 33 32 31
f 31 32 36 35
f 32 33 37 36
f 33 34 38 37
f 34 31 35 38
o SD0759_T004_4hao
v 14.753 -9.476 0.000
v 32.951 -8.605 0.000
v 41.781 -20.650 0.000
v 53.726 -12.015 0.000
v 44.319 0.818 0.000
v 50.632 15.633 0.000
v 66.137 17.366 0.000
v 64.287 33.719 0.000
v 49.381 32.060 0.000
v 39.568 44.439 0.000
v 26.002 33.839 0.000
v 35.749 21.535 0.000
v 28.955 5.626 0.000
v 14.050 4.922 0.000
v 14.753 -9.476 9.900
v 32.951 -8.605 9.900
v 41.781 -20.650 9.900
v 53.726 -12.015 9.900
v 44.319 0.818 9.900
v 50.632 15.633 9.900
v 66.137 17.366 9.900
v 64.287 33.719 9.900
v 49.381 32.060 9.900
v 39.568 44.439 9.900
v 26.002 33.839 9.900
v 35.749 21.535 9.900
v 28.955 5.626 9.900
v 14.050 4.922 9.900
usemtl roof
f 53 54 55 56 57 58 59 60 61 62 63 64 65 66
usemtl teaching_building
f 52 51 50 49 48 47 46 45 44 43 42 41 40 39
f 39 40 54 53
f 40 41 55 54
f 41 42 56 55
f 42 43 57 56
f 43 44 58 57
f 44 45 59 58
f 45 46 60 59
f 46 47 61 60
f 47 48 62 61
f 48 49 63 62
f 49 50 64 63
f 50 51 65 64
f 51 52 66 65
f 52 39 53 66
o SD0759_T005_5hao
v 22.050 -104.335 0.000
v 31.479 -84.433 0.000
v -46.475 -48.029 0.000
v -55.903 -67.941 0.000
v 22.050 -104.335 9.900
v 31.479 -84.433 9.900
v -46.475 -48.029 9.900
v -55.903 -67.941 9.900
usemtl roof
f 71 72 73 74
usemtl teaching_building
f 70 69 68 67
f 67 68 72 71
f 68 69 73 72
f 69 70 74 73
f 70 67 71 74
o SD0759_T006_6hao
v -50.649 -139.867 0.000
v -45.098 -127.665 0.000
v -86.166 -109.236 0.000
v -91.716 -121.439 0.000
v -50.649 -139.867 9.900
v -45.098 -127.665 9.900
v -86.166 -109.236 9.900
v -91.716 -121.439 9.900
usemtl roof
f 79 80 81 82
usemtl teaching_building
f 78 77 76 75
f 75 76 80 79
f 76 77 81 80
f 77 78 82 81
f 78 75 79 82
o SD0759_T007_7hao
v 10.238 -165.699 0.000
v 14.768 -155.776 0.000
v -34.419 -133.650 0.000
v -38.948 -143.592 0.000
v 10.238 -165.699 9.900
v 14.768 -155.776 9.900
v -34.419 -133.650 9.900
v -38.948 -143.592 9.900
usemtl roof
f 87 88 89 90
usemtl teaching_building
f 86 85 84 83
f 83 84 88 87
f 84 85 89 88
f 85 86 90 89
f 86 83 87 90
