# school_id SD0761
# school_name 威海市第九中学
# boundary_source footprint_convex_hull_buffer_20m
# adjacent_block_merge_distance_m 2.0
mtllib ../campus_materials.mtl
o SD0761_campus_boundary
usemtl campus_boundary
v -65.254 -169.689 0.050
v -71.438 -77.777 0.050
v -73.959 -16.970 0.050
v -74.532 114.163 0.050
v -4.107 150.718 0.050
v 52.813 148.628 0.050
v 132.642 144.327 0.050
v 129.977 95.456 0.050
v 69.960 -161.648 0.050
v 11.778 -165.459 0.050
v -65.254 -169.689 0.050
l 1 2 3 4 5 6 7 8 9 10 11 1
o SD0761_T001_1hao
v 45.757 117.372 0.000
v 46.379 127.879 0.000
v 0.428 130.538 0.000
v -0.186 120.013 0.000
v 45.757 117.372 9.900
v 46.379 127.879 9.900
v 0.428 130.538 9.900
v -0.186 120.013 9.900
usemtl roof
f 16 17 18 19
usemtl teaching_building
f 15 14 13 12
f 12 13 17 16
f 13 14 18 17
f 14 15 19 18
f 15 12 16 19
o SD0761_T002_2hao
v 110.102 98.295 0.000
v 111.582 125.433 0.000
v 51.908 128.648 0.000
v 50.421 101.510 0.000
v 110.102 98.295 9.900
v 111.582 125.433 9.900
v 51.908 128.648 9.900
v 50.421 101.510 9.900
usemtl roof
f 24 25 26 27
usemtl teaching_building
f 23 22 21 20
f 20 21 25 24
f 21 22 26 25
f 22 23 27 26
f 23 20 24 27
o SD0761_T003_3hao
v -52.865 77.114 0.000
v -44.205 69.526 0.000
v -2.192 72.213 0.000
v -2.917 83.489 0.000
v -40.178 81.117 0.000
v -41.592 102.872 0.000
v -54.479 102.038 0.000
v -52.865 77.114 9.900
v -44.205 69.526 9.900
v -2.192 72.213 9.900
v -2.917 83.489 9.900
v -40.178 81.117 9.900
v -41.592 102.872 9.900
v -54.479 102.038 9.900
usemtl roof
f 35 36 37 38 39 40 41
usemtl teaching_building
f 34 33 32 31 30 29 28
f 28 29 36 35
f 29 30 37 36
f 30 31 38 37
f 31 32 39 38
f 32 33 40 39
f 33 34 41 40
f 34 28 35 41
o SD0761_T004_4hao
v -51.466 -76.691 0.000
v -10.304 -75.023 0.000
v -12.799 -14.835 0.000
v -53.961 -16.512 0.000
v -51.466 -76.691 9.900
v -10.304 -75.023 9.900
v -12.799 -14.835 9.900
v -53.961 -16.512 9.900
usemtl roof
f 46 47 48 49
usemtl teaching_building
f 45 44 43 42
f 42 43 47 46
f 43 44 48 47
f 44 45 49 48
f 45 42 46 49
o SD0761_T005_5hao
v 10.576 -145.495 0.000
v 53.855 -142.660 0.000
v 52.649 -124.509 0.000
v 9.370 -127.354 0.000
v 10.576 -145.495 9.900
v 53.855 -142.660 9.900
v 52.649 -124.509 9.900
v 9.370 -127.354 9.900
usemtl roof
f 54 55 56 57
usemtl teaching_building
f 53 52 51 50
f 50 51 55 54
f 51 52 56 55
f 52 53 57 56
f 53 50 54 57
o SD0761_T006_6hao
v -46.625 -148.636 0.000
v -1.400 -145.829 0.000
v -1.992 -136.406 0.000
v -38.298 -138.667 0.000
v -39.320 -122.443 0.000
v -48.247 -122.999 0.000
v -46.625 -148.636 9.900
v -1.400 -145.829 9.900
v -1.992 -136.406 9.900
v -38.298 -138.667 9.900
v -39.320 -122.443 9.900
v -48.247 -122.999 9.900
usemtl roof
f 64 65 66 67 68 69
usemtl teaching_building
f 63 62 61 60 59 58
f 58 59 65 64
f 59 60 66 65
f 60 61 67 66
f 61 62 68 67
f 62 63 69 68
f 63 58 64 69
