# school_id SD0727
# school_name 泰安六中
# boundary_source footprint_convex_hull_buffer_20m
# adjacent_block_merge_distance_m 2.0
mtllib ../campus_materials.mtl
o SD0727_campus_boundary
usemtl campus_boundary
v -24.386 -33.791 0.050
v -68.957 -32.816 0.050
v -71.908 23.121 0.050
v 28.970 37.154 0.050
v 63.727 38.982 0.050
v 67.525 -24.306 0.050
v 28.088 -31.072 0.050
v -24.386 -33.791 0.050
l 1 2 3 4 5 6 7 8 1
o SD0727_T001_1hao
v -42.732 6.272 0.000
v -42.588 3.443 0.000
v 15.056 6.438 0.000
v 15.182 4.183 0.000
v 31.549 5.034 0.000
v 30.876 17.227 0.000
v 44.952 17.967 0.000
v 46.488 -7.623 0.000
v 25.746 -8.695 0.000
v 25.872 -11.160 0.000
v -24.685 -13.780 0.000
v -24.784 -11.923 0.000
v -49.963 -13.227 0.000
v -50.969 5.841 0.000
v -42.732 6.272 10.710
v -42.588 3.443 10.710
v 15.056 6.438 10.710
v 15.182 4.183 10.710
v 31.549 5.034 10.710
v 30.876 17.227 10.710
v 44.952 17.967 10.710
v 46.488 -7.623 10.710
v 25.746 -8.695 10.710
v 25.872 -11.160 10.710
v -24.685 -13.780 10.710
v -24.784 -11.923 10.710
v -49.963 -13.227 10.710
v -50.969 5.841 10.710
usemtl roof
f 23 24 25 26 27 28 29 30 31 32 33 34 35 36
usemtl teaching_building
f 22 21 20 19 18 17 16 15 14 13 12 11 10 9
f 9 10 24 23
f 10 11 25 24
f 11 12 26 25
f 12 13 27 26
f 13 14 28 27
f 14 15 29 28
f 15 16 30 29
f 16 17 31 30
f 17 18 32 31
f 18 19 33 32
f 19 20 34 33
f 20 21 35 34
f 21 22 36 35
f 22 9 23 36
