# school_id SD0706
# school_name 东平滨河实验高级中学
# boundary_source footprint_convex_hull_buffer_20m
# adjacent_block_merge_distance_m 2.0
mtllib ../campus_materials.mtl
o SD0706_campus_boundary
usemtl campus_boundary
v 93.984 -105.833 0.050
v 17.878 -93.588 0.050
v -116.944 -67.045 0.050
v -112.014 -37.223 0.050
v -68.475 170.161 0.050
v 5.894 157.960 0.050
v 123.430 103.870 0.050
v 99.694 -70.840 0.050
v 93.984 -105.833 0.050
l 1 2 3 4 5 6 7 8 9 1
o SD0706_T001_1hao
v -55.854 129.143 0.000
v -3.023 120.499 0.000
v -0.011 138.661 0.000
v -52.833 147.327 0.000
v -55.854 129.143 9.290
v -3.023 120.499 9.290
v -0.011 138.661 9.290
v -52.833 147.327 9.290
usemtl roof
f 14 15 16 17
usemtl teaching_building
f 13 12 11 10
f 10 11 15 14
f 11 12 16 15
f 12 13 17 16
f 13 10 14 17
o SD0706_T002_2hao
v -65.756 78.328 0.000
v -11.203 69.529 0.000
v -8.073 88.664 0.000
v -62.636 97.452 0.000
v -65.756 78.328 8.930
v -11.203 69.529 8.930
v -8.073 88.664 8.930
v -62.636 97.452 8.930
usemtl roof
f 22 23 24 25
usemtl teaching_building
f 21 20 19 18
f 18 19 23 22
f 19 20 24 23
f 20 21 25 24
f 21 18 22 25
o SD0706_T003_3hao
v 37.398 66.025 0.000
v 95.956 56.718 0.000
v 101.619 91.891 0.000
v 43.062 101.188 0.000
v 37.398 66.025 10.510
v 95.956 56.718 10.510
v 101.619 91.891 10.510
v 43.062 101.188 10.510
usemtl roof
f 30 31 32 33
usemtl teaching_building
f 29 28 27 26
f 26 27 31 30
f 27 28 32 31
f 28 29 33 32
f 29 26 30 33
o SD0706_T004_4hao
v -34.561 23.445 0.000
v -26.273 22.085 0.000
v -28.266 10.103 0.000
v -35.941 11.363 0.000
v -37.636 1.204 0.000
v -30.097 -0.034 0.000
v -31.414 -7.959 0.000
v -77.408 -0.410 0.000
v -79.266 -11.585 0.000
v -40.171 -18.007 0.000
v -42.488 -31.958 0.000
v -51.678 -30.443 0.000
v -53.347 -40.502 0.000
v -47.412 -41.464 0.000
v -48.504 -48.052 0.000
v -92.352 -40.911 0.000
v -94.048 -51.169 0.000
v -41.713 -59.692 0.000
v -40.387 -51.645 0.000
v -45.455 -50.816 0.000
v -40.026 -17.676 0.000
v -23.116 -20.406 0.000
v -21.692 -11.696 0.000
v -27.950 -10.690 0.000
v -22.720 21.367 0.000
v 34.224 12.203 0.000
v 28.921 -20.318 0.000
v 19.803 -18.848 0.000
v 18.297 -28.078 0.000
v 37.065 -31.095 0.000
v 32.194 -60.952 0.000
v 23.726 -59.582 0.000
v 21.399 -73.897 0.000
v 77.459 -82.917 0.000
v 79.912 -67.883 0.000
v 40.456 -61.527 0.000
v 41.565 -54.729 0.000
v 48.410 -55.834 0.000
v 50.214 -44.824 0.000
v 42.692 -43.609 0.000
v 44.306 -33.793 0.000
v 76.115 -38.955 0.000
v 78.839 -22.396 0.000
v 36.632 -15.553 0.000
v 37.326 -11.342 0.000
v 44.721 -12.558 0.000
v 46.949 0.873 0.000
v 37.065 2.487 0.000
v 38.426 10.722 0.000
v 43.296 9.926 0.000
v 46.624 29.901 0.000
v -31.359 42.701 0.000
v -34.561 23.445 10.310
v -26.273 22.085 10.310
v -28.266 10.103 10.310
v -35.941 11.363 10.310
v -37.636 1.204 10.310
v -30.097 -0.034 10.310
v -31.414 -7.959 10.310
v -77.408 -0.410 10.310
v -79.266 -11.585 10.310
v -40.171 -18.007 10.310
v -42.488 -31.958 10.310
v -51.678 -30.443 10.310
v -53.347 -40.502 10.310
v -47.412 -41.464 10.310
v -48.504 -48.052 10.310
v -92.352 -40.911 10.310
v -94.048 -51.169 10.310
v -41.713 -59.692 10.310
v -40.387 -51.645 10.310
v -45.455 -50.816 10.310
v -40.026 -17.676 10.310
v -23.116 -20.406 10.310
v -21.692 -11.696 10.310
v -27.950 -10.690 10.310
v -22.720 21.367 10.310
v 34.224 12.203 10.310
v 28.921 -20.318 10.310
v 19.803 -18.848 10.310
v 18.297 -28.078 10.310
v 37.065 -31.095 10.310
v 32.194 -60.952 10.310
v 23.726 -59.582 10.310
v 21.399 -73.897 10.310
v 77.459 -82.917 10.310
v 79.912 -67.883 10.310
v 40.456 -61.527 10.310
v 41.565 -54.729 10.310
v 48.410 -55.834 10.310
v 50.214 -44.824 10.310
v 42.692 -43.609 10.310
v 44.306 -33.793 10.310
v 76.115 -38.955 10.310
v 78.839 -22.396 10.310
v 36.632 -15.553 10.310
v 37.326 -11.342 10.310
v 44.721 -12.558 10.310
v 46.949 0.873 10.310
v 37.065 2.487 10.310
v 38.426 10.722 10.310
v 43.296 9.926 10.310
v 46.624 29.901 10.310
v -31.359 42.701 10.310
usemtl roof
f 86 87 88 89 90 91 92 93 94 95 96 97 98 99 100 101 102 103 104 105 106 107 108 109 110 111 112 113 114 115 116 117 118 119 120 121 122 123 124 125 126 127 128 129 130 131 132 133 134 135 136 137
usemtl teaching_building
f 85 84 83 82 81 80 79 78 77 76 75 74 73 72 71 70 69 68 67 66 65 64 63 62 61 60 59 58 57 56 55 54 53 52 51 50 49 48 47 46 45 44 43 42 41 40 39 38 37 36 35 34
f 34 35 87 86
f 35 36 88 87
f 36 37 89 88
f 37 38 90 89
f 38 39 91 90
f 39 40 92 91
f 40 41 93 92
f 41 42 94 93
f 42 43 95 94
f 43 44 96 95
f 44 45 97 96
f 45 46 98 97
f 46 47 99 98
f 47 48 100 99
f 48 49 101 100
f 49 50 102 101
f 50 51 103 102
f 51 52 104 103
f 52 53 105 104
f 53 54 106 105
f 54 55 107 106
f 55 56 108 107
f 56 57 109 108
f 57 58 110 109
f 58 59 111 110
f 59 60 112 111
f 60 61 113 112
f 61 62 114 113
f 62 63 115 114
f 63 64 116 115
f 64 65 117 116
f 65 66 118 117
f 66 67 119 118
f 67 68 120 119
f 68 69 121 120
f 69 70 122 121
f 70 71 123 122
f 71 72 124 123
f 72 73 125 124
f 73 74 126 125
f 74 75 127 126
f 75 76 128 127
f 76 77 129 128
f 77 78 130 129
f 78 79 131 130
f 79 80 132 131
f 80 81 133 132
f 81 82 134 133
f 82 83 135 134
f 83 84 136 135
f 84 85 137 136
f 85 34 86 137
