# school_id SD0791
# school_name 山东省日照第一中学（海曲校区）
# boundary_source footprint_convex_hull_buffer_20m
# adjacent_block_merge_distance_m 2.0
mtllib ../campus_materials.mtl
o SD0791_campus_boundary
usemtl campus_boundary
v -23.838 -84.544 0.050
v -137.951 -83.204 0.050
v -141.445 1.359 0.050
v -60.320 52.310 0.050
v -37.408 59.000 0.050
v -6.384 63.867 0.050
v 31.024 64.274 0.050
v 67.913 55.631 0.050
v 79.468 51.146 0.050
v 157.862 3.142 0.050
v 156.131 -84.091 0.050
v 41.532 -84.544 0.050
v -23.838 -84.544 0.050
l 1 2 3 4 5 6 7 8 9 10 11 12 13 1
o SD0791_T001_1hao
v -43.841 14.647 0.000
v -31.177 18.350 0.000
v -22.605 22.042 0.000
v 0.871 25.380 0.000
v 10.559 25.380 0.000
v 27.332 23.523 0.000
v 60.124 13.530 0.000
v 70.556 33.151 0.000
v 61.984 36.478 0.000
v 28.820 44.249 0.000
v -4.717 43.884 0.000
v -33.037 39.441 0.000
v -52.041 33.892 0.000
v -43.841 14.647 6.810
v -31.177 18.350 6.810
v -22.605 22.042 6.810
v 0.871 25.380 6.810
v 10.559 25.380 6.810
v 27.332 23.523 6.810
v 60.124 13.530 6.810
v 70.556 33.151 6.810
v 61.984 36.478 6.810
v 28.820 44.249 6.810
v -4.717 43.884 6.810
v -33.037 39.441 6.810
v -52.041 33.892 6.810
usemtl roof
f 27 28 29 30 31 32 33 34 35 36 37 38 39
usemtl teaching_building
f 26 25 24 23 22 21 20 19 18 17 16 15 14
f 14 15 28 27
f 15 16 29 28
f 16 17 30 29
f 17 18 31 30
f 18 19 32 31
f 19 20 33 32
f 20 21 34 33
f 21 22 35 34
f 22 23 36 35
f 23 24 37 36
f 24 25 38 37
f 25 26 39 38
f 26 14 27 39
o SD0791_T002_2hao
v 137.638 -7.926 0.000
v 136.522 -64.168 0.000
v 41.492 -64.544 0.000
v 40.004 -7.561 0.000
v 137.638 -7.926 14.670
v 136.522 -64.168 14.670
v 41.492 -64.544 14.670
v 40.004 -7.561 14.670
usemtl roof
f 44 45 46 47
usemtl teaching_building
f 43 42 41 40
f 40 41 45 44
f 41 42 46 45
f 42 43 47 46
f 43 40 44 47
o SD0791_T003_3hao
v -25.145 -50.119 0.000
v -25.209 -28.276 0.000
v -24.129 -9.429 0.000
v -120.983 -9.407 0.000
v -118.751 -63.428 0.000
v -23.721 -64.544 0.000
v -25.145 -50.119 12.180
v -25.209 -28.276 12.180
v -24.129 -9.429 12.180
v -120.983 -9.407 12.180
v -118.751 -63.428 12.180
v -23.721 -64.544 12.180
usemtl roof
f 54 55 56 57 58 59
usemtl teaching_building
f 53 52 51 50 49 48
f 48 49 55 54
f 49 50 56 55
f 50 51 57 56
f 51 52 58 57
f 52 53 59 58
f 53 48 54 59
