# school_id SD0762
# school_name 威海市第二中学南校区
# boundary_source footprint_convex_hull_buffer_20m
# adjacent_block_merge_distance_m 2.0
mtllib ../campus_materials.mtl
o SD0762_campus_boundary
usemtl campus_boundary
v -33.386 -66.716 0.050
v -41.490 -31.326 0.050
v -44.451 -2.301 0.050
v -44.451 14.385 0.050
v -5.043 40.357 0.050
v 14.969 43.402 0.050
v 34.199 35.607 0.050
v 51.360 -47.574 0.050
v -33.386 -66.716 0.050
l 1 2 3 4 5 6 7 8 9 1
o SD0762_T001_1hao
v 12.547 22.803 0.000
v 7.155 19.387 0.000
v 2.301 21.244 0.000
v -2.703 17.519 0.000
v -2.004 11.849 0.000
v -6.849 9.439 0.000
v -18.899 6.874 0.000
v -24.451 3.613 0.000
v -24.451 -1.284 0.000
v -16.706 -8.115 0.000
v -12.330 -4.390 0.000
v -8.184 -7.032 0.000
v -3.489 -2.444 0.000
v 1.833 -3.837 0.000
v 6.368 -0.035 0.000
v 10.594 -3.295 0.000
v 15.916 3.536 0.000
v 15.049 5.714 0.000
v 19.355 8.278 0.000
v 16.773 21.090 0.000
v 12.547 22.803 29.420
v 7.155 19.387 29.420
v 2.301 21.244 29.420
v -2.703 17.519 29.420
v -2.004 11.849 29.420
v -6.849 9.439 29.420
v -18.899 6.874 29.420
v -24.451 3.613 29.420
v -24.451 -1.284 29.420
v -16.706 -8.115 29.420
v -12.330 -4.390 29.420
v -8.184 -7.032 29.420
v -3.489 -2.444 29.420
v 1.833 -3.837 29.420
v 6.368 -0.035 29.420
v 10.594 -3.295 29.420
v 15.916 3.536 29.420
v 15.049 5.714 29.420
v 19.355 8.278 29.420
v 16.773 21.090 29.420
usemtl roof
f 30 31 32 33 34 35 36 37 38 39 40 41 42 43 44 45 46 47 48 49
usemtl teaching_building
f 29 28 27 26 25 24 23 22 21 20 19 18 17 16 15 14 13 12 11 10
f 10 11 31 30
f 11 12 32 31
f 12 13 33 32
f 13 14 34 33
f 14 15 35 34
f 15 16 36 35
f 16 17 37 36
f 17 18 38 37
f 18 19 39 38
f 19 20 40 39
f 20 21 41 40
f 21 22 42 41
f 22 23 43 42
f 23 24 44 43
f 24 25 45 44
f 25 26 46 45
f 26 27 47 46
f 27 28 48 47
f 28 29 49 48
f 29 10 30 49
o SD0762_T002_2hao
v 24.429 -17.644 0.000
v 27.806 -32.390 0.000
v -18.342 -42.814 0.000
v -21.719 -28.067 0.000
v 24.429 -17.644 29.420
v 27.806 -32.390 29.420
v -18.342 -42.814 29.420
v -21.719 -28.067 29.420
usemtl roof
f 54 55 56 57
usemtl teaching_building
f 53 52 51 50
f 50 51 55 54
f 51 52 56 55
f 52 53 57 56
f 53 50 54 57
