# school_id SD0798
# school_name 日照市山海天旅游度假区卧龙山小学
# boundary_source footprint_convex_hull_buffer_20m
# adjacent_block_merge_distance_m 2.0
mtllib ../campus_materials.mtl
o SD0798_campus_boundary
usemtl campus_boundary
v -37.592 -63.829 0.050
v -42.779 -24.384 0.050
v -49.035 51.595 0.050
v 42.158 63.370 0.050
v 57.212 -51.580 0.050
v -37.592 -63.829 0.050
l 1 2 3 4 5 6 1
o SD0798_T001_1hao
v -25.286 17.083 0.000
v 15.629 22.374 0.000
v 20.742 -16.634 0.000
v -22.886 -22.258 0.000
v -20.364 -41.437 0.000
v 34.780 -34.312 0.000
v 24.920 40.978 0.000
v -27.535 34.205 0.000
v -25.286 17.083 6.600
v 15.629 22.374 6.600
v 20.742 -16.634 6.600
v -22.886 -22.258 6.600
v -20.364 -41.437 6.600
v 34.780 -34.312 6.600
v 24.920 40.978 6.600
v -27.535 34.205 6.600
usemtl roof
f 15 16 17 18 19 20 21 22
usemtl teaching_building
f 14 13 12 11 10 9 8 7
f 7 8 16 15
f 8 9 17 16
f 9 10 18 17
f 10 11 19 18
f 11 12 20 19
f 12 13 21 20
f 13 14 22 21
f 14 7 15 22
