# school_id SD0793
# school_name 岚山区安东卫实验中学
# boundary_source footprint_convex_hull_buffer_20m
# adjacent_block_merge_distance_m 2.0
mtllib ../campus_materials.mtl
o SD0793_campus_boundary
usemtl campus_boundary
v 71.221 -104.784 0.050
v -63.266 -79.838 0.050
v -117.054 -68.023 0.050
v -102.327 -1.956 0.050
v 39.348 189.915 0.050
v 132.430 170.636 0.050
v 105.465 42.468 0.050
v 71.221 -104.784 0.050
l 1 2 3 4 5 6 7 8 1
o SD0793_T001_1hao
v 26.014 58.764 0.000
v 85.937 46.792 0.000
v 108.728 155.121 0.000
v 47.831 167.734 0.000
v 26.014 58.764 17.460
v 85.937 46.792 17.460
v 108.728 155.121 17.460
v 47.831 167.734 17.460
usemtl roof
f 13 14 15 16
usemtl teaching_building
f 12 11 10 9
f 9 10 14 13
f 10 11 15 14
f 11 12 16 15
f 12 9 13 16
o SD0793_T002_2hao
v -0.784 -69.938 0.000
v 56.071 -81.633 0.000
v 75.074 9.529 0.000
v 18.220 21.213 0.000
v -0.784 -69.938 15.120
v 56.071 -81.633 15.120
v 75.074 9.529 15.120
v 18.220 21.213 15.120
usemtl roof
f 21 22 23 24
usemtl teaching_building
f 20 19 18 17
f 17 18 22 21
f 18 19 23 22
f 19 20 24 23
f 20 17 21 24
o SD0793_T003_3hao
v -93.168 -52.793 0.000
v -59.296 -60.233 0.000
v -50.509 -18.194 0.000
v -83.726 -10.434 0.000
v -93.168 -52.793 8.100
v -59.296 -60.233 8.100
v -50.509 -18.194 8.100
v -83.726 -10.434 8.100
usemtl roof
f 29 30 31 32
usemtl teaching_building
f 28 27 26 25
f 25 26 30 29
f 26 27 31 30
f 27 28 32 31
f 28 25 29 32
o SD0793_T004_4hao
v -49.853 -54.418 0.000
v -22.828 -59.912 0.000
v -15.016 -28.872 0.000
v -42.696 -22.726 0.000
v -49.853 -54.418 9.940
v -22.828 -59.912 9.940
v -15.016 -28.872 9.940
v -42.696 -22.726 9.940
usemtl roof
f 37 38 39 40
usemtl teaching_building
f 36 35 34 33
f 33 34 38 37
f 34 35 39 38
f 35 36 40 39
f 36 33 37 40
