# school_id SD0769
# school_name 威海市锦华小学
# boundary_source footprint_convex_hull_buffer_20m
# adjacent_block_merge_distance_m 2.0
mtllib ../campus_materials.mtl
o SD0769_campus_boundary
usemtl campus_boundary
v 93.821 -36.881 0.050
v 16.658 -29.601 0.050
v -22.670 -25.362 0.050
v -99.026 -17.126 0.050
v -93.594 32.388 0.050
v 21.697 28.734 0.050
v 99.410 21.389 0.050
v 93.821 -36.881 0.050
l 1 2 3 4 5 6 7 8 1
o SD0769_T001_1hao
v -20.527 -5.477 0.000
v -19.298 5.725 0.000
v -75.731 11.812 0.000
v -76.960 0.610 0.000
v -20.527 -5.477 9.900
v -19.298 5.725 9.900
v -75.731 11.812 9.900
v -76.960 0.610 9.900
usemtl roof
f 13 14 15 16
usemtl teaching_building
f 12 11 10 9
f 9 10 14 13
f 10 11 15 14
f 11 12 16 15
f 12 9 13 16
o SD0769_T002_2hao
v 75.819 -15.094 0.000
v 77.589 3.362 0.000
v 20.438 8.764 0.000
v 18.669 -9.702 0.000
v 75.819 -15.094 9.900
v 77.589 3.362 9.900
v 20.438 8.764 9.900
v 18.669 -9.702 9.900
usemtl roof
f 21 22 23 24
usemtl teaching_building
f 20 19 18 17
f 17 18 22 21
f 18 19 23 22
f 19 20 24 23
f 20 17 21 24
