# school_id SD0747
# school_name 好运角中学
# boundary_source footprint_convex_hull_buffer_20m
# adjacent_block_merge_distance_m 2.0
mtllib ../campus_materials.mtl
o SD0747_campus_boundary
usemtl campus_boundary
v -82.238 -90.766 0.050
v -90.695 -48.448 0.050
v -100.617 12.632 0.050
v -1.467 124.772 0.050
v 55.544 137.423 0.050
v 90.236 -11.893 0.050
v 97.770 -49.718 0.050
v -11.879 -76.915 0.050
v -82.238 -90.766 0.050
l 1 2 3 4 5 6 7 8 9 1
o SD0747_T001_1hao
v 21.174 53.496 0.000
v 52.507 60.449 0.000
v 40.544 113.608 0.000
v 9.211 106.655 0.000
v 21.174 53.496 6.600
v 52.507 60.449 6.600
v 40.544 113.608 6.600
v 9.211 106.655 6.600
usemtl roof
f 14 15 16 17
usemtl teaching_building
f 13 12 11 10
f 10 11 15 14
f 11 12 16 15
f 12 13 17 16
f 13 10 14 17
o SD0747_T002_2hao
v 26.377 -24.976 0.000
v 18.920 6.643 0.000
v -1.983 1.830 0.000
v -6.956 23.142 0.000
v 57.755 38.043 0.000
v 62.728 16.731 0.000
v 27.953 8.723 0.000
v 35.403 -22.876 0.000
v 26.377 -24.976 15.960
v 18.920 6.643 15.960
v -1.983 1.830 15.960
v -6.956 23.142 15.960
v 57.755 38.043 15.960
v 62.728 16.731 15.960
v 27.953 8.723 15.960
v 35.403 -22.876 15.960
usemtl roof
f 26 27 28 29 30 31 32 33
usemtl teaching_building
f 25 24 23 22 21 20 19 18
f 18 19 27 26
f 19 20 28 27
f 20 21 29 28
f 21 22 30 29
f 22 23 31 30
f 23 24 32 31
f 24 25 33 32
f 25 18 26 33
o SD0747_T002_2hao_seg02
v 70.683 -16.111 0.000
v 74.426 -34.902 0.000
v 30.040 -43.624 0.000
v 26.377 -24.976 0.000
v 70.683 -16.111 15.960
v 74.426 -34.902 15.960
v 30.040 -43.624 15.960
v 26.377 -24.976 15.960
usemtl roof
f 38 39 40 41
usemtl teaching_building
f 37 36 35 34
f 34 35 39 38
f 35 36 40 39
f 36 37 41 40
f 37 34 38 41
o SD0747_T003_3hao
v -16.221 -57.386 0.000
v -66.534 -67.291 0.000
v -71.012 -44.884 0.000
v -31.998 -37.191 0.000
v -38.280 -6.518 0.000
v -74.383 -14.828 0.000
v -79.356 6.484 0.000
v -16.398 20.976 0.000
v -11.425 -0.337 0.000
v -35.853 -5.960 0.000
v -27.140 -3.962 0.000
v -20.786 -34.980 0.000
v -16.221 -57.386 14.060
v -66.534 -67.291 14.060
v -71.012 -44.884 14.060
v -31.998 -37.191 14.060
v -38.280 -6.518 14.060
v -74.383 -14.828 14.060
v -79.356 6.484 14.060
v -16.398 20.976 14.060
v -11.425 -0.337 14.060
v -35.853 -5.960 14.060
v -27.140 -3.962 14.060
v -20.786 -34.980 14.060
usemtl roof
f 54 55 56 57 58 59 60 61 62 63 64 65
usemtl teaching_building
f 53 52 51 50 49 48 47 46 45 44 43 42
f 42 43 55 54
f 43 44 56 55
f 44 45 57 56
f 45 46 58 57
f 46 47 59 58
f 47 48 60 59
f 48 49 61 60
f 49 50 62 61
f 50 51 63 62
f 51 52 64 63
f 52 53 65 64
f 53 42 54 65
