# school_id SD0781
# school_name 高区第一小学东校区
# boundary_source footprint_convex_hull_buffer_20m
# adjacent_block_merge_distance_m 2.0
mtllib ../campus_materials.mtl
o SD0781_campus_boundary
usemtl campus_boundary
v 22.566 -48.438 0.050
v 6.344 -43.664 0.050
v -37.993 -22.070 0.050
v -47.278 -9.999 0.050
v -48.909 5.031 0.050
v -46.069 20.882 0.050
v -6.645 44.149 0.050
v 14.582 46.612 0.050
v 36.515 35.033 0.050
v 46.954 18.247 0.050
v 50.332 -28.698 0.050
v 22.566 -48.438 0.050
l 1 2 3 4 5 6 7 8 9 10 11 12 1
o SD0781_T001_1hao
v -26.818 5.271 0.000
v -28.001 8.322 0.000
v -3.591 9.638 0.000
v -0.130 24.771 0.000
v 8.477 22.350 0.000
v 10.728 26.031 0.000
v 22.390 19.874 0.000
v 20.598 16.458 0.000
v 27.360 11.882 0.000
v 17.641 0.264 0.000
v 29.576 -18.915 0.000
v 18.894 -26.509 0.000
v 13.597 -24.950 0.000
v 6.570 -14.482 0.000
v 3.657 -15.543 0.000
v 0.179 -14.482 0.000
v -7.873 -10.956 0.000
v -11.307 -7.131 0.000
v -20.223 -7.817 0.000
v -25.008 -6.148 0.000
v -28.001 -2.257 0.000
v -28.716 4.332 0.000
v -26.818 5.271 14.860
v -28.001 8.322 14.860
v -3.591 9.638 14.860
v -0.130 24.771 14.860
v 8.477 22.350 14.860
v 10.728 26.031 14.860
v 22.390 19.874 14.860
v 20.598 16.458 14.860
v 27.360 11.882 14.860
v 17.641 0.264 14.860
v 29.576 -18.915 14.860
v 18.894 -26.509 14.860
v 13.597 -24.950 14.860
v 6.570 -14.482 14.860
v 3.657 -15.543 14.860
v 0.179 -14.482 14.860
v -7.873 -10.956 14.860
v -11.307 -7.131 14.860
v -20.223 -7.817 14.860
v -25.008 -6.148 14.860
v -28.001 -2.257 14.860
v -28.716 4.332 14.860
usemtl roof
f 35 36 37 38 39 40 41 42 43 44 45 46 47 48 49 50 51 52 53 54 55 56
usemtl teaching_building
f 34 33 32 31 30 29 28 27 26 25 24 23 22 21 20 19 18 17 16 15 14 13
f 13 14 36 35
f 14 15 37 36
f 15 16 38 37
f 16 17 39 38
f 17 18 40 39
f 18 19 41 40
f 19 20 42 41
f 20 21 43 42
f 21 22 44 43
f 22 23 45 44
f 23 24 46 45
f 24 25 47 46
f 25 26 48 47
f 26 27 49 48
f 27 28 50 49
f 28 29 51 50
f 29 30 52 51
f 30 31 53 52
f 31 32 54 53
f 32 33 55 54
f 33 34 56 55
f 34 13 35 56
