# school_id SD0736
# school_name 肥城市第一高级中学
# boundary_source footprint_convex_hull_buffer_20m
# adjacent_block_merge_distance_m 2.0
mtllib ../campus_materials.mtl
o SD0736_campus_boundary
usemtl campus_boundary
v 58.648 -25.184 0.050
v -58.900 -24.581 0.050
v -58.625 25.193 0.050
v 58.877 24.573 0.050
v 58.648 -25.184 0.050
l 1 2 3 4 5 1
o SD0736_T001_1hao
v 38.785 4.679 0.000
v 38.740 -5.082 0.000
v -38.790 -4.684 0.000
v -38.736 5.088 0.000
v 38.785 4.679 11.750
v 38.740 -5.082 11.750
v -38.790 -4.684 11.750
v -38.736 5.088 11.750
usemtl roof
f 10 11 12 13
usemtl teaching_building
f 9 8 7 6
f 6 7 11 10
f 7 8 12 11
f 8 9 13 12
f 9 6 10 13
