# school_id SD0739
# school_name 逯家庄小学
# boundary_source footprint_convex_hull_buffer_20m
# adjacent_block_merge_distance_m 2.0
mtllib ../campus_materials.mtl
o SD0739_campus_boundary
usemtl campus_boundary
v 65.971 -26.715 0.050
v -66.644 -26.092 0.050
v -65.986 33.546 0.050
v 64.628 32.012 0.050
v 65.971 -26.715 0.050
l 1 2 3 4 5 1
o SD0739_T001_1hao
v 45.075 12.240 0.000
v 45.506 -6.619 0.000
v 37.740 -6.187 0.000
v 37.740 -0.395 0.000
v -36.715 0.025 0.000
v -36.715 -6.187 0.000
v -46.423 -6.187 0.000
v -46.208 13.312 0.000
v 45.075 12.240 9.400
v 45.506 -6.619 9.400
v 37.740 -6.187 9.400
v 37.740 -0.395 9.400
v -36.715 0.025 9.400
v -36.715 -6.187 9.400
v -46.423 -6.187 9.400
v -46.208 13.312 9.400
usemtl roof
f 14 15 16 17 18 19 20 21
usemtl teaching_building
f 13 12 11 10 9 8 7 6
f 6 7 15 14
f 7 8 16 15
f 8 9 17 16
f 9 10 18 17
f 10 11 19 18
f 11 12 20 19
f 12 13 21 20
f 13 6 14 21
