# school_id SD0790
# school_name 山东省日照第一中学东校
# boundary_source footprint_convex_hull_buffer_20m
# adjacent_block_merge_distance_m 2.0
mtllib ../campus_materials.mtl
o SD0790_campus_boundary
usemtl campus_boundary
v 104.176 -131.554 0.050
v 37.933 -126.905 0.050
v -117.685 -112.129 0.050
v -188.038 -99.732 0.050
v -185.214 -50.316 0.050
v -180.614 -13.778 0.050
v -35.297 265.550 0.050
v -14.209 276.012 0.050
v 11.066 272.537 0.050
v 23.700 268.572 0.050
v 144.543 203.960 0.050
v 135.554 103.076 0.050
v 115.072 -72.506 0.050
v 104.176 -131.554 0.050
l 1 2 3 4 5 6 7 8 9 10 11 12 13 14 1
o SD0790_T001_1hao
v 13.012 150.532 0.000
v 21.282 238.942 0.000
v 15.923 250.051 0.000
v 6.679 252.952 0.000
v -10.835 255.360 0.000
v -20.565 250.533 0.000
v -25.917 237.488 0.000
v -33.214 154.878 0.000
v 13.012 150.532 9.900
v 21.282 238.942 9.900
v 15.923 250.051 9.900
v 6.679 252.952 9.900
v -10.835 255.360 9.900
v -20.565 250.533 9.900
v -25.917 237.488 9.900
v -33.214 154.878 9.900
usemtl roof
f 23 24 25 26 27 28 29 30
usemtl teaching_building
f 22 21 20 19 18 17 16 15
f 15 16 24 23
f 16 17 25 24
f 17 18 26 25
f 18 19 27 26
f 19 20 28 27
f 20 21 29 28
f 21 22 30 29
f 22 15 23 30
o SD0790_T002_2hao
v 120.522 171.796 0.000
v 123.448 192.560 0.000
v 58.735 200.167 0.000
v 56.691 179.487 0.000
v 120.522 171.796 9.900
v 123.448 192.560 9.900
v 58.735 200.167 9.900
v 56.691 179.487 9.900
usemtl roof
f 35 36 37 38
usemtl teaching_building
f 34 33 32 31
f 31 32 36 35
f 32 33 37 36
f 33 34 38 37
f 34 31 35 38
o SD0790_T003_3hao
v 116.637 129.278 0.000
v 119.062 150.050 0.000
v 54.608 158.630 0.000
v 52.563 137.913 0.000
v 116.637 129.278 9.900
v 119.062 150.050 9.900
v 54.608 158.630 9.900
v 52.563 137.913 9.900
usemtl roof
f 43 44 45 46
usemtl teaching_building
f 42 41 40 39
f 39 40 44 43
f 40 41 45 44
f 41 42 46 45
f 42 39 43 46
o SD0790_T004_4hao
v 112.251 83.386 0.000
v 115.657 105.123 0.000
v 49.606 113.063 0.000
v 46.573 91.002 0.000
v 112.251 83.386 9.900
v 115.657 105.123 9.900
v 49.606 113.063 9.900
v 46.573 91.002 9.900
usemtl roof
f 51 52 53 54
usemtl teaching_building
f 50 49 48 47
f 47 48 52 51
f 48 49 53 52
f 49 50 54 53
f 50 47 51 54
o SD0790_T005_5hao
v 105.934 41.840 0.000
v 108.846 66.959 0.000
v 44.270 74.807 0.000
v 41.221 49.568 0.000
v 105.934 41.840 9.900
v 108.846 66.959 9.900
v 44.270 74.807 9.900
v 41.221 49.568 9.900
usemtl roof
f 59 60 61 62
usemtl teaching_building
f 58 57 56 55
f 55 56 60 59
f 56 57 61 60
f 57 58 62 61
f 58 55 59 62
o SD0790_T006_6hao
v -69.208 -43.670 0.000
v -57.539 -38.842 0.000
v -41.964 -37.869 0.000
v -15.213 -38.351 0.000
v -3.051 -43.188 0.000
v 8.139 -45.597 0.000
v 23.221 -34.969 0.000
v 11.058 -18.060 0.000
v 3.281 -21.924 0.000
v -8.881 -3.078 0.000
v 7.652 9.949 0.000
v -0.611 16.240 0.000
v -23.484 5.122 0.000
v -35.153 4.649 0.000
v -46.836 20.104 0.000
v -58.018 19.140 0.000
v -43.917 0.776 0.000
v -63.856 -17.097 0.000
v -67.748 -13.233 0.000
v -81.371 -22.887 0.000
v -69.208 -43.670 9.900
v -57.539 -38.842 9.900
v -41.964 -37.869 9.900
v -15.213 -38.351 9.900
v -3.051 -43.188 9.900
v 8.139 -45.597 9.900
v 23.221 -34.969 9.900
v 11.058 -18.060 9.900
v 3.281 -21.924 9.900
v -8.881 -3.078 9.900
v 7.652 9.949 9.900
v -0.611 16.240 9.900
v -23.484 5.122 9.900
v -35.153 4.649 9.900
v -46.836 20.104 9.900
v -58.018 19.140 9.900
v -43.917 0.776 9.900
v -63.856 -17.097 9.900
v -67.748 -13.233 9.900
v -81.371 -22.887 9.900
usemtl roof
f 83 84 85 86 87 88 89 90 91 92 93 94 95 96 97 98 99 100 101 102
usemtl teaching_building
f 82 81 80 79 78 77 76 75 74 73 72 71 70 69 68 67 66 65 64 63
f 63 64 84 83
f 64 65 85 84
f 65 66 86 85
f 66 67 87 86
f 67 68 88 87
f 68 69 89 88
f 69 70 90 89
f 70 71 91 90
f 71 72 92 91
f 72 73 93 92
f 73 74 94 93
f 74 75 95 94
f 75 76 96 95
f 76 77 97 96
f 77 78 98 97
f 78 79 99 98
f 79 80 100 99
f 80 81 101 100
f 81 82 102 101
f 82 63 83 102
o SD0790_T007_7hao
v -155.137 -62.830 0.000
v -99.919 -69.594 0.000
v -102.351 -87.467 0.000
v -108.676 -88.912 0.000
v -115.000 -92.294 0.000
v -124.730 -88.912 0.000
v -167.056 -83.121 0.000
v -165.285 -52.138 0.000
v -161.218 -19.830 0.000
v -96.521 -29.975 0.000
v -98.946 -46.885 0.000
v -104.791 -49.785 0.000
v -111.602 -51.230 0.000
v -117.433 -45.439 0.000
v -152.469 -43.021 0.000
v -154.134 -53.130 0.000
v -155.137 -62.830 9.900
v -99.919 -69.594 9.900
v -102.351 -87.467 9.900
v -108.676 -88.912 9.900
v -115.000 -92.294 9.900
v -124.730 -88.912 9.900
v -167.056 -83.121 9.900
v -165.285 -52.138 9.900
v -161.218 -19.830 9.900
v -96.521 -29.975 9.900
v -98.946 -46.885 9.900
v -104.791 -49.785 9.900
v -111.602 -51.230 9.900
v -117.433 -45.439 9.900
v -152.469 -43.021 9.900
v -154.134 -53.130 9.900
usemtl roof
f 119 120 121 122 123 124 125 126 127 128 129 130 131 132 133 134
usemtl teaching_building
f 118 117 116 115 114 113 112 111 110 109 108 107 106 105 104 103
f 103 104 120 119
f 104 105 121 120
f 105 106 122 121
f 106 107 123 122
f 107 108 124 123
f 108 109 125 124
f 109 110 126 125
f 110 111 127 126
f 111 112 128 127
f 112 113 129 128
f 113 114 130 129
f 114 115 131 130
f 115 116 132 131
f 116 117 133 132
f 117 118 134 133
f 118 103 119 134
o SD0790_T008_8hao
v 92.130 -80.879 0.000
v 87.751 -84.502 0.000
v 86.291 -91.998 0.000
v 89.933 -94.166 0.000
v 87.751 -110.352 0.000
v 47.363 -105.043 0.000
v 39.579 -106.971 0.000
v 31.065 -105.043 0.000
v 27.424 -101.170 0.000
v 28.390 -84.752 0.000
v 75.094 -87.170 0.000
v 74.851 -90.552 0.000
v 81.662 -91.757 0.000
v 82.156 -84.752 0.000
v 83.859 -79.916 0.000
v 88.237 -74.125 0.000
v 89.454 -67.120 0.000
v 51.263 -63.488 0.000
v 42.992 -65.916 0.000
v 36.425 -64.461 0.000
v 31.309 -60.106 0.000
v 32.525 -42.965 0.000
v 78.751 -47.552 0.000
v 95.049 -51.656 0.000
v 95.284 -69.529 0.000
v 93.589 -76.293 0.000
v 92.130 -80.879 9.900
v 87.751 -84.502 9.900
v 86.291 -91.998 9.900
v 89.933 -94.166 9.900
v 87.751 -110.352 9.900
v 47.363 -105.043 9.900
v 39.579 -106.971 9.900
v 31.065 -105.043 9.900
v 27.424 -101.170 9.900
v 28.390 -84.752 9.900
v 75.094 -87.170 9.900
v 74.851 -90.552 9.900
v 81.662 -91.757 9.900
v 82.156 -84.752 9.900
v 83.859 -79.916 9.900
v 88.237 -74.125 9.900
v 89.454 -67.120 9.900
v 51.263 -63.488 9.900
v 42.992 -65.916 9.900
v 36.425 -64.461 9.900
v 31.309 -60.106 9.900
v 32.525 -42.965 9.900
v 78.751 -47.552 9.900
v 95.049 -51.656 9.900
v 95.284 -69.529 9.900
v 93.589 -76.293 9.900
usemtl roof
f 161 162 163 164 165 166 167 168 169 170 171 172 173 174 175 176 177 178 179 180 181 182 183 184 185 186
usemtl teaching_building
f 160 159 158 157 156 155 154 153 152 151 150 149 148 147 146 145 144 143 142 141 140 139 138 137 136 135
f 135 136 162 161
f 136 137 163 162
f 137 138 164 163
f 138 139 165 164
f 139 140 166 165
f 140 141 167 166
f 141 142 168 167
f 142 143 169 168
f 143 144 170 169
f 144 145 171 170
f 145 146 172 171
f 146 147 173 172
f 147 148 174 173
f 148 149 175 174
f 149 150 176 175
f 150 151 177 176
f 151 152 178 177
f 152 153 179 178
f 153 154 180 179
f 154 155 181 180
f 155 156 182 181
f 156 157 183 182
f 157 158 184 183
f 158 159 185 184
f 159 160 186 185
f 160 135 161 186
