# school_id SD0724
# school_name 楼德镇辛庄联办小学
# boundary_source footprint_convex_hull_buffer_20m
# adjacent_block_merge_distance_m 2.0
mtllib ../campus_materials.mtl
o SD0724_campus_boundary
usemtl campus_boundary
v 32.033 -78.894 0.050
v -16.120 -74.639 0.050
v -77.682 20.273 0.050
v -74.879 46.047 0.050
v 5.383 82.639 0.050
v 51.706 77.707 0.050
v 48.007 43.508 0.050
v 44.072 10.194 0.050
v 41.647 -10.318 0.050
v 32.033 -78.894 0.050
l 1 2 3 4 5 6 7 8 9 10 1
o SD0724_T001_1hao
v 29.668 59.940 0.000
v 28.134 45.757 0.000
v 7.179 48.001 0.000
v 8.704 62.172 0.000
v 29.668 59.940 7.700
v 28.134 45.757 7.700
v 7.179 48.001 7.700
v 8.704 62.172 7.700
usemtl roof
f 15 16 17 18
usemtl teaching_building
f 14 13 12 11
f 11 12 16 15
f 12 13 17 16
f 13 14 18 17
f 14 11 15 18
o SD0724_T002_2hao
v 3.851 26.081 0.000
v 2.912 17.581 0.000
v -18.412 19.880 0.000
v -18.854 15.845 0.000
v -34.695 17.547 0.000
v -34.135 22.721 0.000
v -57.030 25.186 0.000
v -56.227 32.570 0.000
v 3.851 26.081 10.800
v 2.912 17.581 10.800
v -18.412 19.880 10.800
v -18.854 15.845 10.800
v -34.695 17.547 10.800
v -34.135 22.721 10.800
v -57.030 25.186 10.800
v -56.227 32.570 10.800
usemtl roof
f 27 28 29 30 31 32 33 34
usemtl teaching_building
f 26 25 24 23 22 21 20 19
f 19 20 28 27
f 20 21 29 28
f 21 22 30 29
f 22 23 31 30
f 23 24 32 31
f 24 25 33 32
f 25 26 34 33
f 26 19 27 34
o SD0724_T003_3hao
v 24.210 12.540 0.000
v 21.811 -7.755 0.000
v 9.615 -6.451 0.000
v 11.554 13.690 0.000
v 24.210 12.540 7.980
v 21.811 -7.755 7.980
v 9.615 -6.451 7.980
v 11.554 13.690 7.980
usemtl roof
f 39 40 41 42
usemtl teaching_building
f 38 37 36 35
f 35 36 40 39
f 36 37 41 40
f 37 38 42 41
f 38 35 39 42
