# school_id SD0786
# school_name 山东省日照实验高级中学
# boundary_source footprint_convex_hull_buffer_20m
# adjacent_block_merge_distance_m 2.0
mtllib ../campus_materials.mtl
o SD0786_campus_boundary
usemtl campus_boundary
v -37.276 -195.634 0.050
v -117.855 -181.383 0.050
v -132.257 -150.919 0.050
v -132.492 -127.480 0.050
v -134.248 170.276 0.050
v 27.903 177.774 0.050
v 77.274 178.811 0.050
v 102.276 178.933 0.050
v 119.556 150.669 0.050
v 116.878 -21.739 0.050
v 114.958 -106.516 0.050
v -6.115 -195.316 0.050
v -37.276 -195.634 0.050
l 1 2 3 4 5 6 7 8 9 10 11 12 13 1
o SD0786_T001_1hao
v -40.693 151.992 0.000
v -40.557 139.954 0.000
v -113.998 139.125 0.000
v -114.135 151.185 0.000
v -40.693 151.992 24.620
v -40.557 139.954 24.620
v -113.998 139.125 24.620
v -114.135 151.185 24.620
usemtl roof
f 18 19 20 21
usemtl teaching_building
f 17 16 15 14
f 14 15 19 18
f 15 16 20 19
f 16 17 21 20
f 17 14 18 21
o SD0786_T002_2hao
v 99.468 145.183 0.000
v 98.497 105.919 0.000
v 80.599 106.350 0.000
v 80.881 117.525 0.000
v 89.897 117.304 0.000
v 90.354 135.671 0.000
v 28.702 135.333 0.000
v 28.575 157.784 0.000
v 50.655 157.906 0.000
v 50.718 146.398 0.000
v 77.597 146.531 0.000
v 77.533 158.812 0.000
v 91.095 158.878 0.000
v 90.596 145.393 0.000
v 99.468 145.183 22.470
v 98.497 105.919 22.470
v 80.599 106.350 22.470
v 80.881 117.525 22.470
v 89.897 117.304 22.470
v 90.354 135.671 22.470
v 28.702 135.333 22.470
v 28.575 157.784 22.470
v 50.655 157.906 22.470
v 50.718 146.398 22.470
v 77.597 146.531 22.470
v 77.533 158.812 22.470
v 91.095 158.878 22.470
v 90.596 145.393 22.470
usemtl roof
f 36 37 38 39 40 41 42 43 44 45 46 47 48 49
usemtl teaching_building
f 35 34 33 32 31 30 29 28 27 26 25 24 23 22
f 22 23 37 36
f 23 24 38 37
f 24 25 39 38
f 25 26 40 39
f 26 27 41 40
f 27 28 42 41
f 28 29 43 42
f 29 30 44 43
f 30 31 45 44
f 31 32 46 45
f 32 33 47 46
f 33 34 48 47
f 34 35 49 48
f 35 22 36 49
o SD0786_T003_3hao
v 39.107 118.432 0.000
v 39.261 102.182 0.000
v -44.258 101.409 0.000
v -44.412 117.647 0.000
v 39.107 118.432 15.100
v 39.261 102.182 15.100
v -44.258 101.409 15.100
v -44.412 117.647 15.100
usemtl roof
f 54 55 56 57
usemtl teaching_building
f 53 52 51 50
f 50 51 55 54
f 51 52 56 55
f 52 53 57 56
f 53 50 54 57
o SD0786_T004_4hao
v 65.741 73.818 0.000
v 66.031 25.247 0.000
v 15.349 24.948 0.000
v 15.059 73.519 0.000
v 65.741 73.818 17.620
v 66.031 25.247 17.620
v 15.349 24.948 17.620
v 15.059 73.519 17.620
usemtl roof
f 62 63 64 65
usemtl teaching_building
f 61 60 59 58
f 58 59 63 62
f 59 60 64 63
f 60 61 65 64
f 61 58 62 65
o SD0786_T005_5hao
v 96.302 66.334 0.000
v 96.882 -21.357 0.000
v 51.045 -21.667 0.000
v 50.891 0.784 0.000
v 85.743 1.016 0.000
v 85.289 66.257 0.000
v 96.302 66.334 21.470
v 96.882 -21.357 21.470
v 51.045 -21.667 21.470
v 50.891 0.784 21.470
v 85.743 1.016 21.470
v 85.289 66.257 21.470
usemtl roof
f 72 73 74 75 76 77
usemtl teaching_building
f 71 70 69 68 67 66
f 66 67 73 72
f 67 68 74 73
f 68 69 75 74
f 69 70 76 75
f 70 71 77 76
f 71 66 72 77
o SD0786_T006_6hao
v -66.392 -1.703 0.000
v -66.129 -15.620 0.000
v -110.143 -16.449 0.000
v -110.406 -2.532 0.000
v -66.392 -1.703 16.240
v -66.129 -15.620 16.240
v -110.143 -16.449 16.240
v -110.406 -2.532 16.240
usemtl roof
f 82 83 84 85
usemtl teaching_building
f 81 80 79 78
f 78 79 83 82
f 79 80 84 83
f 80 81 85 84
f 81 78 82 85
o SD0786_T007_7hao
v -16.019 -3.007 0.000
v -15.756 -16.924 0.000
v -59.770 -17.753 0.000
v -60.042 -3.836 0.000
v -16.019 -3.007 16.240
v -15.756 -16.924 16.240
v -59.770 -17.753 16.240
v -60.042 -3.836 16.240
usemtl roof
f 90 91 92 93
usemtl teaching_building
f 89 88 87 86
f 86 87 91 90
f 87 88 92 91
f 88 89 93 92
f 89 86 90 93
o SD0786_T008_8hao
v 35.660 -3.007 0.000
v 35.923 -16.924 0.000
v -8.091 -17.753 0.000
v -8.363 -3.836 0.000
v 35.660 -3.007 17.180
v 35.923 -16.924 17.180
v -8.091 -17.753 17.180
v -8.363 -3.836 17.180
usemtl roof
f 98 99 100 101
usemtl teaching_building
f 97 96 95 94
f 94 95 99 98
f 95 96 100 99
f 96 97 101 100
f 97 94 98 101
o SD0786_T009_9hao
v -44.685 -48.616 0.000
v -44.612 -65.429 0.000
v -25.880 -65.352 0.000
v -25.943 -49.191 0.000
v 34.526 -48.959 0.000
v 34.644 -80.186 0.000
v -23.403 -80.408 0.000
v -29.254 -73.576 0.000
v -45.936 -72.228 0.000
v -51.461 -79.313 0.000
v -110.306 -79.567 0.000
v -110.433 -48.904 0.000
v -44.685 -48.616 24.310
v -44.612 -65.429 24.310
v -25.880 -65.352 24.310
v -25.943 -49.191 24.310
v 34.526 -48.959 24.310
v 34.644 -80.186 24.310
v -23.403 -80.408 24.310
v -29.254 -73.576 24.310
v -45.936 -72.228 24.310
v -51.461 -79.313 24.310
v -110.306 -79.567 24.310
v -110.433 -48.904 24.310
usemtl roof
f 114 115 116 117 118 119 120 121 122 123 124 125
usemtl teaching_building
f 113 112 111 110 109 108 107 106 105 104 103 102
f 102 103 115 114
f 103 104 116 115
f 104 105 117 116
f 105 106 118 117
f 106 107 119 118
f 107 108 120 119
f 108 109 121 120
f 109 110 122 121
f 110 111 123 122
f 111 112 124 123
f 112 113 125 124
f 113 102 114 125
o SD0786_T010_10hao
v 94.823 -49.058 0.000
v 95.186 -96.215 0.000
v 56.705 -96.513 0.000
v 56.343 -49.346 0.000
v 94.823 -49.058 37.510
v 95.186 -96.215 37.510
v 56.705 -96.513 37.510
v 56.343 -49.346 37.510
usemtl roof
f 130 131 132 133
usemtl teaching_building
f 129 128 127 126
f 126 127 131 130
f 127 128 132 131
f 128 129 133 132
f 129 126 130 133
o SD0786_T011_11hao
v -103.040 -127.232 0.000
v -112.493 -127.321 0.000
v -112.302 -146.334 0.000
v -104.365 -146.256 0.000
v -104.192 -163.489 0.000
v -35.749 -162.793 0.000
v -35.622 -175.616 0.000
v -12.754 -175.383 0.000
v -12.980 -153.209 0.000
v -21.008 -153.298 0.000
v -21.308 -123.131 0.000
v -7.710 -122.999 0.000
v -7.955 -98.569 0.000
v -25.716 -98.735 0.000
v -25.635 -106.948 0.000
v -103.231 -107.689 0.000
v -103.040 -127.232 19.370
v -112.493 -127.321 19.370
v -112.302 -146.334 19.370
v -104.365 -146.256 19.370
v -104.192 -163.489 19.370
v -35.749 -162.793 19.370
v -35.622 -175.616 19.370
v -12.754 -175.383 19.370
v -12.980 -153.209 19.370
v -21.008 -153.298 19.370
v -21.308 -123.131 19.370
v -7.710 -122.999 19.370
v -7.955 -98.569 19.370
v -25.716 -98.735 19.370
v -25.635 -106.948 19.370
v -103.231 -107.689 19.370
usemtl roof
f 150 151 152 153 154 155 156 157 158 159 160 161 162 163 164 165
usemtl teaching_building
f 149 148 147 146 145 144 143 142 141 140 139 138 137 136 135 134
f 134 135 151 150
f 135 136 152 151
f 136 137 153 152
f 137 138 154 153
f 138 139 155 154
f 139 140 156 155
f 140 141 157 156
f 141 142 158 157
f 142 143 159 158
f 143 144 160 159
f 144 145 161 160
f 145 146 162 161
f 146 147 163 162
f 147 148 164 163
f 148 149 165 164
f 149 134 150 165
