# school_id SD0714
# school_name 岱道庵小学
# boundary_source footprint_convex_hull_buffer_20m
# adjacent_block_merge_distance_m 2.0
mtllib ../campus_materials.mtl
o SD0714_campus_boundary
usemtl campus_boundary
v -46.950 -75.332 0.050
v -55.800 63.425 0.050
v 77.644 72.716 0.050
v 73.769 19.204 0.050
v -5.407 -74.380 0.050
v -46.950 -75.332 0.050
l 1 2 3 4 5 6 1
o SD0714_T001_1hao
v -28.213 -54.897 0.000
v -14.863 -54.591 0.000
v -14.863 -44.483 0.000
v -18.997 -44.483 0.000
v -19.637 24.340 0.000
v 54.292 27.147 0.000
v 56.031 51.163 0.000
v -34.575 44.854 0.000
v -28.213 -54.897 9.900
v -14.863 -54.591 9.900
v -14.863 -44.483 9.900
v -18.997 -44.483 9.900
v -19.637 24.340 9.900
v 54.292 27.147 9.900
v 56.031 51.163 9.900
v -34.575 44.854 9.900
usemtl roof
f 15 16 17 18 19 20 21 22
usemtl teaching_building
f 14 13 12 11 10 9 8 7
f 7 8 16 15
f 8 9 17 16
f 9 10 18 17
f 10 11 19 18
f 11 12 20 19
f 12 13 21 20
f 13 14 22 21
f 14 7 15 22
