# school_id SD0712
# school_name 山东东平明湖中学
# boundary_source footprint_convex_hull_buffer_20m
# adjacent_block_merge_distance_m 2.0
mtllib ../campus_materials.mtl
o SD0712_campus_boundary
usemtl campus_boundary
v -50.740 -63.858 0.050
v -115.205 -42.410 0.050
v -121.297 13.303 0.050
v -122.099 45.121 0.050
v 108.711 52.344 0.050
v 191.100 54.347 0.050
v 192.198 9.192 0.050
v 130.255 -14.828 0.050
v -30.779 -63.361 0.050
v -50.740 -63.858 0.050
l 1 2 3 4 5 6 7 8 9 10 1
o SD0712_T001_1hao
v 123.329 21.574 0.000
v 123.744 4.098 0.000
v 109.970 3.778 0.000
v 109.267 32.352 0.000
v 171.592 33.867 0.000
v 171.862 22.757 0.000
v 123.329 21.574 15.250
v 123.744 4.098 15.250
v 109.970 3.778 15.250
v 109.267 32.352 15.250
v 171.592 33.867 15.250
v 171.862 22.757 15.250
usemtl roof
f 17 18 19 20 21 22
usemtl teaching_building
f 16 15 14 13 12 11
f 11 12 18 17
f 12 13 19 18
f 13 14 20 19
f 14 15 21 20
f 15 16 22 21
f 16 11 17 22
o SD0712_T002_2hao
v -52.791 15.826 0.000
v -52.350 -1.650 0.000
v -38.576 -1.307 0.000
v -39.279 27.267 0.000
v -101.604 25.753 0.000
v -101.324 14.644 0.000
v -52.791 15.826 15.960
v -52.350 -1.650 15.960
v -38.576 -1.307 15.960
v -39.279 27.267 15.960
v -101.604 25.753 15.960
v -101.324 14.644 15.960
usemtl roof
f 29 30 31 32 33 34
usemtl teaching_building
f 28 27 26 25 24 23
f 23 24 30 29
f 24 25 31 30
f 25 26 32 31
f 26 27 33 32
f 27 28 34 33
f 28 23 29 34
o SD0712_T003_3hao
v -48.185 -26.300 0.000
v -47.743 -43.777 0.000
v -33.970 -43.434 0.000
v -34.673 -14.859 0.000
v -96.997 -16.374 0.000
v -96.718 -27.483 0.000
v -48.185 -26.300 15.630
v -47.743 -43.777 15.630
v -33.970 -43.434 15.630
v -34.673 -14.859 15.630
v -96.997 -16.374 15.630
v -96.718 -27.483 15.630
usemtl roof
f 41 42 43 44 45 46
usemtl teaching_building
f 40 39 38 37 36 35
f 35 36 42 41
f 36 37 43 42
f 37 38 44 43
f 38 39 45 44
f 39 40 46 45
f 40 35 41 46
