# school_id SD0748
# school_name 威海一中
# boundary_source footprint_convex_hull_buffer_20m
# adjacent_block_merge_distance_m 2.0
mtllib ../campus_materials.mtl
o SD0748_campus_boundary
usemtl campus_boundary
v 38.938 -152.434 0.050
v -28.040 -122.999 0.050
v -101.226 -89.849 0.050
v -152.120 46.043 0.050
v -133.577 87.629 0.050
v -3.791 109.047 0.050
v 46.054 87.138 0.050
v 127.392 50.362 0.050
v 84.009 -50.377 0.050
v 53.719 -119.270 0.050
v 38.938 -152.434 0.050
l 1 2 3 4 5 6 7 8 9 10 11 1
o SD0748_T001_1hao
v 28.874 48.598 0.000
v 37.910 68.871 0.000
v -6.398 88.346 0.000
v -15.442 68.092 0.000
v 28.874 48.598 9.900
v 37.910 68.871 9.900
v -6.398 88.346 9.900
v -15.442 68.092 9.900
usemtl roof
f 16 17 18 19
usemtl teaching_building
f 15 14 13 12
f 12 13 17 16
f 13 14 18 17
f 14 15 19 18
f 15 12 16 19
o SD0748_T002_2hao
v -67.602 17.735 0.000
v -54.622 46.847 0.000
v -106.974 69.853 0.000
v -109.135 65.007 0.000
v -119.696 69.649 0.000
v -130.516 45.383 0.000
v -67.602 17.735 9.900
v -54.622 46.847 9.900
v -106.974 69.853 9.900
v -109.135 65.007 9.900
v -119.696 69.649 9.900
v -130.516 45.383 9.900
usemtl roof
f 26 27 28 29 30 31
usemtl teaching_building
f 25 24 23 22 21 20
f 20 21 27 26
f 21 22 28 27
f 22 23 29 28
f 23 24 30 29
f 24 25 31 30
f 25 20 26 31
o SD0748_T003_3hao
v 93.519 22.868 0.000
v 101.253 40.231 0.000
v 57.751 59.355 0.000
v 50.003 41.992 0.000
v 93.519 22.868 9.900
v 101.253 40.231 9.900
v 57.751 59.355 9.900
v 50.003 41.992 9.900
usemtl roof
f 36 37 38 39
usemtl teaching_building
f 35 34 33 32
f 32 33 37 36
f 33 34 38 37
f 34 35 39 38
f 35 32 36 39
o SD0748_T004_4hao
v 11.378 22.627 0.000
v 17.010 35.247 0.000
v 4.444 40.778 0.000
v 6.620 45.652 0.000
v -7.671 51.924 0.000
v -9.840 47.051 0.000
v -23.568 53.092 0.000
v -29.193 40.454 0.000
v 11.378 22.627 9.900
v 17.010 35.247 9.900
v 4.444 40.778 9.900
v 6.620 45.652 9.900
v -7.671 51.924 9.900
v -9.840 47.051 9.900
v -23.568 53.092 9.900
v -29.193 40.454 9.900
usemtl roof
f 48 49 50 51 52 53 54 55
usemtl teaching_building
f 47 46 45 44 43 42 41 40
f 40 41 49 48
f 41 42 50 49
f 42 43 51 50
f 43 44 52 51
f 44 45 53 52
f 45 46 54 53
f 46 47 55 54
f 47 40 48 55
o SD0748_T005_5hao
v 78.481 -7.837 0.000
v 83.669 3.809 0.000
v 70.925 9.415 0.000
v 73.078 14.242 0.000
v 59.794 20.079 0.000
v 57.640 15.252 0.000
v 43.845 21.321 0.000
v 38.650 9.665 0.000
v 78.481 -7.837 9.900
v 83.669 3.809 9.900
v 70.925 9.415 9.900
v 73.078 14.242 9.900
v 59.794 20.079 9.900
v 57.640 15.252 9.900
v 43.845 21.321 9.900
v 38.650 9.665 9.900
usemtl roof
f 64 65 66 67 68 69 70 71
usemtl teaching_building
f 63 62 61 60 59 58 57 56
f 56 57 65 64
f 57 58 66 65
f 58 59 67 66
f 59 60 68 67
f 60 61 69 68
f 61 62 70 69
f 62 63 71 70
f 63 56 64 71
o SD0748_T006_6hao
v -49.404 -38.431 0.000
v -37.356 -11.386 0.000
v 4.977 -30.009 0.000
v 10.979 -16.528 0.000
v -46.207 8.609 0.000
v -52.216 -4.854 0.000
v -48.605 -6.447 0.000
v -60.661 -33.474 0.000
v -49.404 -38.431 9.900
v -37.356 -11.386 9.900
v 4.977 -30.009 9.900
v 10.979 -16.528 9.900
v -46.207 8.609 9.900
v -52.216 -4.854 9.900
v -48.605 -6.447 9.900
v -60.661 -33.474 9.900
usemtl roof
f 80 81 82 83 84 85 86 87
usemtl teaching_building
f 79 78 77 76 75 74 73 72
f 72 73 81 80
f 73 74 82 81
f 74 75 83 82
f 75 76 84 83
f 76 77 85 84
f 77 78 86 85
f 78 79 87 86
f 79 72 80 87
o SD0748_T007_7hao
v 48.382 -48.410 0.000
v 36.733 -74.529 0.000
v 48.944 -79.903 0.000
v 65.670 -42.397 0.000
v 17.447 -21.207 0.000
v 12.370 -32.585 0.000
v 48.382 -48.410 9.900
v 36.733 -74.529 9.900
v 48.944 -79.903 9.900
v 65.670 -42.397 9.900
v 17.447 -21.207 9.900
v 12.370 -32.585 9.900
usemtl roof
f 94 95 96 97 98 99
usemtl teaching_building
f 93 92 91 90 89 88
f 88 89 95 94
f 89 90 96 95
f 90 91 97 96
f 91 92 98 97
f 92 93 99 98
f 93 88 94 99
o SD0748_T008_8hao
v -30.784 -99.073 0.000
v -22.747 -81.052 0.000
v -77.379 -57.046 0.000
v -85.409 -75.057 0.000
v -30.784 -99.073 9.900
v -22.747 -81.052 9.900
v -77.379 -57.046 9.900
v -85.409 -75.057 9.900
usemtl roof
f 104 105 106 107
usemtl teaching_building
f 103 102 101 100
f 100 101 105 104
f 101 102 106 105
f 102 103 107 106
f 103 100 104 107
o SD0748_T009_9hao
v 28.770 -126.119 0.000
v 35.431 -111.174 0.000
v -13.229 -89.789 0.000
v -19.890 -104.734 0.000
v 28.770 -126.119 9.900
v 35.431 -111.174 9.900
v -13.229 -89.789 9.900
v -19.890 -104.734 9.900
usemtl roof
f 112 113 114 115
usemtl teaching_building
f 111 110 109 108
f 108 109 113 112
f 109 110 114 113
f 110 111 115 114
f 111 108 112 115
