# school_id SD0723
# school_name 楼德镇实验学校
# boundary_source footprint_convex_hull_buffer_20m
# adjacent_block_merge_distance_m 2.0
mtllib ../campus_materials.mtl
o SD0723_campus_boundary
usemtl campus_boundary
v 63.910 -83.463 0.050
v -54.336 -64.399 0.050
v -96.467 54.486 0.050
v -89.647 87.698 0.050
v 77.973 54.886 0.050
v 69.888 -47.307 0.050
v 63.910 -83.463 0.050
l 1 2 3 4 5 6 7 1
o SD0723_T001_1hao
v 10.576 37.513 0.000
v -39.464 47.805 0.000
v -75.756 55.918 0.000
v -74.042 64.264 0.000
v -37.524 56.803 0.000
v 11.974 47.329 0.000
v 10.576 37.513 9.350
v -39.464 47.805 9.350
v -75.756 55.918 9.350
v -74.042 64.264 9.350
v -37.524 56.803 9.350
v 11.974 47.329 9.350
usemtl roof
f 14 15 16 17 18 19
usemtl teaching_building
f 13 12 11 10 9 8
f 8 9 15 14
f 9 10 16 15
f 10 11 17 16
f 11 12 18 17
f 12 13 19 18
f 13 8 14 19
o SD0723_T002_2hao
v 56.629 38.685 0.000
v 55.565 28.117 0.000
v 23.765 33.855 0.000
v 25.984 44.068 0.000
v 56.629 38.685 9.550
v 55.565 28.117 9.550
v 23.765 33.855 9.550
v 25.984 44.068 9.550
usemtl roof
f 24 25 26 27
usemtl teaching_building
f 23 22 21 20
f 20 21 25 24
f 21 22 26 25
f 22 23 27 26
f 23 20 24 27
o SD0723_T003_3hao
v 5.678 -3.696 0.000
v 6.192 -0.468 0.000
v 15.583 -1.938 0.000
v 14.951 -5.885 0.000
v 33.715 -8.814 0.000
v 32.308 -17.701 0.000
v -14.169 -10.428 0.000
v -12.644 -0.833 0.000
v 5.678 -3.696 13.220
v 6.192 -0.468 13.220
v 15.583 -1.938 13.220
v 14.951 -5.885 13.220
v 33.715 -8.814 13.220
v 32.308 -17.701 13.220
v -14.169 -10.428 13.220
v -12.644 -0.833 13.220
usemtl roof
f 36 37 38 39 40 41 42 43
usemtl teaching_building
f 35 34 33 32 31 30 29 28
f 28 29 37 36
f 29 30 38 37
f 30 31 39 38
f 31 32 40 39
f 32 33 41 40
f 33 34 42 41
f 34 35 43 42
f 35 28 36 43
o SD0723_T004_4hao
v -20.078 -35.476 0.000
v -20.763 -38.958 0.000
v -0.538 -42.418 0.000
v -0.348 -39.588 0.000
v 13.797 -41.490 0.000
v 13.544 -44.087 0.000
v 34.924 -47.094 0.000
v 35.483 -42.551 0.000
v 50.017 -44.883 0.000
v 47.427 -60.547 0.000
v -39.446 -46.541 0.000
v -37.777 -33.066 0.000
v -20.078 -35.476 11.150
v -20.763 -38.958 11.150
v -0.538 -42.418 11.150
v -0.348 -39.588 11.150
v 13.797 -41.490 11.150
v 13.544 -44.087 11.150
v 34.924 -47.094 11.150
v 35.483 -42.551 11.150
v 50.017 -44.883 11.150
v 47.427 -60.547 11.150
v -39.446 -46.541 11.150
v -37.777 -33.066 11.150
usemtl roof
f 56 57 58 59 60 61 62 63 64 65 66 67
usemtl teaching_building
f 55 54 53 52 51 50 49 48 47 46 45 44
f 44 45 57 56
f 45 46 58 57
f 46 47 59 58
f 47 48 60 59
f 48 49 61 60
f 49 50 62 61
f 50 51 63 62
f 51 52 64 63
f 52 53 65 64
f 53 54 66 65
f 54 55 67 66
f 55 44 56 67
