# school_id SD0796
# school_name 日照市博文高级中学
# boundary_source footprint_convex_hull_buffer_20m
# adjacent_block_merge_distance_m 2.0
mtllib ../campus_materials.mtl
o SD0796_campus_boundary
usemtl campus_boundary
v 62.663 -123.593 0.050
v -45.080 -99.674 0.050
v -114.094 -46.639 0.050
v -112.106 -18.350 0.050
v -67.062 154.800 0.050
v 26.843 156.330 0.050
v 95.918 152.447 0.050
v 93.122 103.273 0.050
v 76.739 -48.169 0.050
v 72.226 -81.156 0.050
v 62.663 -123.593 0.050
l 1 2 3 4 5 6 7 8 9 10 11 1
o SD0796_T001_1hao
v -52.023 120.094 0.000
v -48.137 117.198 0.000
v 13.099 111.892 0.000
v 14.068 130.230 0.000
v -51.534 135.050 0.000
v -52.023 120.094 19.220
v -48.137 117.198 19.220
v 13.099 111.892 19.220
v 14.068 130.230 19.220
v -51.534 135.050 19.220
usemtl roof
f 17 18 19 20 21
usemtl teaching_building
f 16 15 14 13 12
f 12 13 18 17
f 13 14 19 18
f 14 15 20 19
f 15 16 21 20
f 16 12 17 21
o SD0796_T002_2hao
v 24.804 107.636 0.000
v 73.183 104.917 0.000
v 74.814 133.602 0.000
v 26.444 136.321 0.000
v 24.804 107.636 10.580
v 73.183 104.917 10.580
v 74.814 133.602 10.580
v 26.444 136.321 10.580
usemtl roof
f 26 27 28 29
usemtl teaching_building
f 25 24 23 22
f 22 23 27 26
f 23 24 28 27
f 24 25 29 28
f 25 22 26 29
o SD0796_T003_3hao
v -25.252 -25.985 0.000
v -23.775 -20.502 0.000
v -2.049 -23.431 0.000
v -3.889 -42.809 0.000
v -23.413 -41.350 0.000
v -23.775 -38.420 0.000
v -45.138 -36.961 0.000
v -50.293 -32.208 0.000
v -59.135 -31.114 0.000
v -61.346 -42.079 0.000
v -93.390 -37.326 0.000
v -92.285 -21.596 0.000
v -25.252 -25.985 12.410
v -23.775 -20.502 12.410
v -2.049 -23.431 12.410
v -3.889 -42.809 12.410
v -23.413 -41.350 12.410
v -23.775 -38.420 12.410
v -45.138 -36.961 12.410
v -50.293 -32.208 12.410
v -59.135 -31.114 12.410
v -61.346 -42.079 12.410
v -93.390 -37.326 12.410
v -92.285 -21.596 12.410
usemtl roof
f 42 43 44 45 46 47 48 49 50 51 52 53
usemtl teaching_building
f 41 40 39 38 37 36 35 34 33 32 31 30
f 30 31 43 42
f 31 32 44 43
f 32 33 45 44
f 33 34 46 45
f 34 35 47 46
f 35 36 48 47
f 36 37 49 48
f 37 38 50 49
f 38 39 51 50
f 39 40 52 51
f 40 41 53 52
f 41 30 42 53
o SD0796_T004_4hao
v 21.896 -45.009 0.000
v 56.885 -45.738 0.000
v 57.256 -31.114 0.000
v 53.569 -30.749 0.000
v 53.206 -36.232 0.000
v 43.992 -34.397 0.000
v 43.992 -31.114 0.000
v 32.940 -29.644 0.000
v 32.206 -24.890 0.000
v 23.735 -24.161 0.000
v 21.896 -45.009 9.790
v 56.885 -45.738 9.790
v 57.256 -31.114 9.790
v 53.569 -30.749 9.790
v 53.206 -36.232 9.790
v 43.992 -34.397 9.790
v 43.992 -31.114 9.790
v 32.940 -29.644 9.790
v 32.206 -24.890 9.790
v 23.735 -24.161 9.790
usemtl roof
f 64 65 66 67 68 69 70 71 72 73
usemtl teaching_building
f 63 62 61 60 59 58 57 56 55 54
f 54 55 65 64
f 55 56 66 65
f 56 57 67 66
f 57 58 68 67
f 58 59 69 68
f 59 60 70 69
f 60 61 71 70
f 61 62 72 71
f 62 63 73 72
f 63 54 64 73
o SD0796_T005_5hao
v -31.421 -58.948 0.000
v -36.413 -81.111 0.000
v 47.535 -99.748 0.000
v 52.527 -77.596 0.000
v -31.421 -58.948 9.030
v -36.413 -81.111 9.030
v 47.535 -99.748 9.030
v 52.527 -77.596 9.030
usemtl roof
f 78 79 80 81
usemtl teaching_building
f 77 76 75 74
f 74 75 79 78
f 75 76 80 79
f 76 77 81 80
f 77 74 78 81
