# school_id SD0715
# school_name 新师中学
# boundary_source footprint_convex_hull_buffer_20m
# adjacent_block_merge_distance_m 2.0
mtllib ../campus_materials.mtl
o SD0715_campus_boundary
usemtl campus_boundary
v 87.006 -105.397 0.050
v 23.105 -98.735 0.050
v -22.335 -91.981 0.050
v -133.179 27.209 0.050
v -127.605 65.360 0.050
v -107.831 74.661 0.050
v 4.921 106.774 0.050
v 139.436 88.951 0.050
v 134.917 55.218 0.050
v 87.006 -105.397 0.050
l 1 2 3 4 5 6 7 8 9 10 1
o SD0715_T001_1hao
v 116.954 71.755 0.000
v 115.303 59.430 0.000
v 4.749 74.055 0.000
v 6.408 86.402 0.000
v 116.954 71.755 13.230
v 115.303 59.430 13.230
v 4.749 74.055 13.230
v 6.408 86.402 13.230
usemtl roof
f 15 16 17 18
usemtl teaching_building
f 14 13 12 11
f 11 12 16 15
f 12 13 17 16
f 13 14 18 17
f 14 11 15 18
o SD0715_T002_2hao
v -9.639 48.133 0.000
v -11.795 32.691 0.000
v -53.000 38.361 0.000
v -50.853 53.793 0.000
v -9.639 48.133 11.590
v -11.795 32.691 11.590
v -53.000 38.361 11.590
v -50.853 53.793 11.590
usemtl roof
f 23 24 25 26
usemtl teaching_building
f 22 21 20 19
f 19 20 24 23
f 20 21 25 24
f 21 22 26 25
f 22 19 23 26
o SD0715_T003_3hao
v -101.539 50.709 0.000
v -100.790 55.871 0.000
v -70.915 51.582 0.000
v -71.781 45.591 0.000
v -66.350 44.806 0.000
v -68.858 27.595 0.000
v -112.003 33.807 0.000
v -109.369 51.836 0.000
v -101.539 50.709 7.790
v -100.790 55.871 7.790
v -70.915 51.582 7.790
v -71.781 45.591 7.790
v -66.350 44.806 7.790
v -68.858 27.595 7.790
v -112.003 33.807 7.790
v -109.369 51.836 7.790
usemtl roof
f 35 36 37 38 39 40 41 42
usemtl teaching_building
f 34 33 32 31 30 29 28 27
f 27 28 36 35
f 28 29 37 36
f 29 30 38 37
f 30 31 39 38
f 31 32 40 39
f 32 33 41 40
f 33 34 42 41
f 34 27 35 42
o SD0715_T004_4hao
v 81.197 -16.864 0.000
v 78.283 -33.147 0.000
v 38.954 -28.040 0.000
v 40.623 -12.719 0.000
v 81.197 -16.864 11.560
v 78.283 -33.147 11.560
v 38.954 -28.040 11.560
v 40.623 -12.719 11.560
usemtl roof
f 47 48 49 50
usemtl teaching_building
f 46 45 44 43
f 43 44 48 47
f 44 45 49 48
f 45 46 50 49
f 46 43 47 50
o SD0715_T005_5hao
v 78.698 -56.471 0.000
v 76.470 -68.476 0.000
v 37.430 -62.816 0.000
v 39.090 -51.088 0.000
v 78.698 -56.471 8.830
v 76.470 -68.476 8.830
v 37.430 -62.816 8.830
v 39.090 -51.088 8.830
usemtl roof
f 55 56 57 58
usemtl teaching_building
f 54 53 52 51
f 51 52 56 55
f 52 53 57 56
f 53 54 58 57
f 54 51 55 58
