# school_id SD0743
# school_name 乳山市教学研究中心
# boundary_source footprint_convex_hull_buffer_20m
# adjacent_block_merge_distance_m 2.0
mtllib ../campus_materials.mtl
o SD0743_campus_boundary
usemtl campus_boundary
v -45.952 -152.371 0.050
v -86.060 8.115 0.050
v -88.727 35.468 0.050
v -55.692 47.760 0.050
v 19.779 57.466 0.050
v 27.268 58.375 0.050
v 74.902 61.873 0.050
v 78.545 23.228 0.050
v 28.759 -144.078 0.050
v -45.952 -152.371 0.050
l 1 2 3 4 5 6 7 8 9 10 1
o SD0743_T001_1hao
v 0.366 18.385 0.000
v 58.269 25.214 0.000
v 56.829 40.492 0.000
v 46.331 39.408 0.000
v 46.331 34.377 0.000
v 33.295 32.589 0.000
v 33.116 35.999 0.000
v 29.497 35.637 0.000
v 29.206 38.463 0.000
v 22.259 37.620 0.000
v 22.445 34.683 0.000
v 18.998 34.322 0.000
v 19.185 31.570 0.000
v 6.582 30.189 0.000
v 5.977 32.886 0.000
v -1.447 32.052 0.000
v 0.366 18.385 9.900
v 58.269 25.214 9.900
v 56.829 40.492 9.900
v 46.331 39.408 9.900
v 46.331 34.377 9.900
v 33.295 32.589 9.900
v 33.116 35.999 9.900
v 29.497 35.637 9.900
v 29.206 38.463 9.900
v 22.259 37.620 9.900
v 22.445 34.683 9.900
v 18.998 34.322 9.900
v 19.185 31.570 9.900
v 6.582 30.189 9.900
v 5.977 32.886 9.900
v -1.447 32.052 9.900
usemtl roof
f 27 28 29 30 31 32 33 34 35 36 37 38 39 40 41 42
usemtl teaching_building
f 26 25 24 23 22 21 20 19 18 17 16 15 14 13 12 11
f 11 12 28 27
f 12 13 29 28
f 13 14 30 29
f 14 15 31 30
f 15 16 32 31
f 16 17 33 32
f 17 18 34 33
f 18 19 35 34
f 19 20 36 35
f 20 21 37 36
f 21 22 38 37
f 22 23 39 38
f 23 24 40 39
f 24 25 41 40
f 25 26 42 41
f 26 11 27 42
o SD0743_T002_2hao
v -66.298 11.529 0.000
v -20.341 16.931 0.000
v -21.654 27.132 0.000
v -41.547 24.954 0.000
v -41.950 29.161 0.000
v -50.867 28.216 0.000
v -50.598 23.991 0.000
v -67.328 22.091 0.000
v -66.298 11.529 9.900
v -20.341 16.931 9.900
v -21.654 27.132 9.900
v -41.547 24.954 9.900
v -41.950 29.161 9.900
v -50.867 28.216 9.900
v -50.598 23.991 9.900
v -67.328 22.091 9.900
usemtl roof
f 51 52 53 54 55 56 57 58
usemtl teaching_building
f 50 49 48 47 46 45 44 43
f 43 44 52 51
f 44 45 53 52
f 45 46 54 53
f 46 47 55 54
f 47 48 56 55
f 48 49 57 56
f 49 50 58 57
f 50 43 51 58
o SD0743_T003_3hao
v -30.787 -130.565 0.000
v 13.372 -125.663 0.000
v 11.857 -109.597 0.000
v -14.879 -112.729 0.000
v -14.200 -118.714 0.000
v -32.018 -120.623 0.000
v -30.787 -130.565 9.900
v 13.372 -125.663 9.900
v 11.857 -109.597 9.900
v -14.879 -112.729 9.900
v -14.200 -118.714 9.900
v -32.018 -120.623 9.900
usemtl roof
f 65 66 67 68 69 70
usemtl teaching_building
f 64 63 62 61 60 59
f 59 60 66 65
f 60 61 67 66
f 61 62 68 67
f 62 63 69 68
f 63 64 70 69
f 64 59 65 70
