# school_id SD0719
# school_name 柴城联小旧址
# boundary_source footprint_convex_hull_buffer_20m
# adjacent_block_merge_distance_m 2.0
mtllib ../campus_materials.mtl
o SD0719_campus_boundary
usemtl campus_boundary
v 50.852 -95.577 0.050
v 6.887 -85.976 0.050
v -66.865 16.417 0.050
v -58.395 51.784 0.050
v 20.246 35.725 0.050
v 65.636 22.519 0.050
v 50.852 -95.577 0.050
l 1 2 3 4 5 6 7 1
o SD0719_T001_1hao
v 15.444 16.293 0.000
v 13.242 8.466 0.000
v -7.677 12.103 0.000
v -8.408 8.466 0.000
v -24.552 11.009 0.000
v -23.271 15.928 0.000
v -45.281 20.670 0.000
v -43.449 28.319 0.000
v 15.444 16.293 9.960
v 13.242 8.466 9.960
v -7.677 12.103 9.960
v -8.408 8.466 9.960
v -24.552 11.009 9.960
v -23.271 15.928 9.960
v -45.281 20.670 9.960
v -43.449 28.319 9.960
usemtl roof
f 16 17 18 19 20 21 22 23
usemtl teaching_building
f 15 14 13 12 11 10 9 8
f 8 9 17 16
f 9 10 18 17
f 10 11 19 18
f 11 12 20 19
f 12 13 21 20
f 13 14 22 21
f 14 15 23 22
f 15 8 16 23
o SD0719_T002_2hao
v 43.672 8.080 0.000
v 33.727 -71.366 0.000
v 18.638 -68.071 0.000
v 27.915 10.102 0.000
v 43.672 8.080 7.910
v 33.727 -71.366 7.910
v 18.638 -68.071 7.910
v 27.915 10.102 7.910
usemtl roof
f 28 29 30 31
usemtl teaching_building
f 27 26 25 24
f 24 25 29 28
f 25 26 30 29
f 26 27 31 30
f 27 24 28 31
