# school_id SD0731
# school_name 泰安市第三中学
# boundary_source footprint_convex_hull_buffer_20m
# adjacent_block_merge_distance_m 2.0
mtllib ../campus_materials.mtl
o SD0731_campus_boundary
usemtl campus_boundary
v 58.065 -60.880 0.050
v -7.697 -53.497 0.050
v -105.561 -40.790 0.050
v -100.492 27.362 0.050
v -97.048 63.211 0.050
v 0.420 63.662 0.050
v 80.100 58.621 0.050
v 80.100 26.832 0.050
v 76.907 -22.731 0.050
v 74.651 -41.730 0.050
v 58.065 -60.880 0.050
l 1 2 3 4 5 6 7 8 9 10 11 1
o SD0731_T001_1hao
v -13.755 37.127 0.000
v -15.449 19.484 0.000
v -23.928 20.291 0.000
v -23.351 27.963 0.000
v -70.642 31.997 0.000
v -71.723 24.868 0.000
v -80.563 25.664 0.000
v -78.869 43.295 0.000
v -13.755 37.127 9.550
v -15.449 19.484 9.550
v -23.928 20.291 9.550
v -23.351 27.963 9.550
v -70.642 31.997 9.550
v -71.723 24.868 9.550
v -80.563 25.664 9.550
v -78.869 43.295 9.550
usemtl roof
f 20 21 22 23 24 25 26 27
usemtl teaching_building
f 19 18 17 16 15 14 13 12
f 12 13 21 20
f 13 14 22 21
f 14 15 23 22
f 15 16 24 23
f 16 17 25 24
f 17 18 26 25
f 18 19 27 26
f 19 12 20 27
o SD0731_T002_2hao
v 60.100 39.846 0.000
v 60.100 27.476 0.000
v 50.756 28.018 0.000
v 49.287 6.551 0.000
v 54.964 6.010 0.000
v 52.585 -15.634 0.000
v 45.809 -15.093 0.000
v 45.439 -19.636 0.000
v 56.983 -20.907 0.000
v 55.514 -33.276 0.000
v 50.206 -32.735 0.000
v 49.837 -39.831 0.000
v -5.293 -33.641 0.000
v -3.644 -19.271 0.000
v 11.927 -20.365 0.000
v 12.107 -23.096 0.000
v 25.110 -24.002 0.000
v 25.660 -14.728 0.000
v 21.082 -14.175 0.000
v 23.101 9.281 0.000
v 26.759 8.917 0.000
v 28.589 30.196 0.000
v -1.085 32.196 0.000
v -0.166 43.659 0.000
v 60.100 39.846 15.570
v 60.100 27.476 15.570
v 50.756 28.018 15.570
v 49.287 6.551 15.570
v 54.964 6.010 15.570
v 52.585 -15.634 15.570
v 45.809 -15.093 15.570
v 45.439 -19.636 15.570
v 56.983 -20.907 15.570
v 55.514 -33.276 15.570
v 50.206 -32.735 15.570
v 49.837 -39.831 15.570
v -5.293 -33.641 15.570
v -3.644 -19.271 15.570
v 11.927 -20.365 15.570
v 12.107 -23.096 15.570
v 25.110 -24.002 15.570
v 25.660 -14.728 15.570
v 21.082 -14.175 15.570
v 23.101 9.281 15.570
v 26.759 8.917 15.570
v 28.589 30.196 15.570
v -1.085 32.196 15.570
v -0.166 43.659 15.570
usemtl roof
f 52 53 54 55 56 57 58 59 60 61 62 63 64 65 66 67 68 69 70 71 72 73 74 75
usemtl teaching_building
f 51 50 49 48 47 46 45 44 43 42 41 40 39 38 37 36 35 34 33 32 31 30 29 28
f 28 29 53 52
f 29 30 54 53
f 30 31 55 54
f 31 32 56 55
f 32 33 57 56
f 33 34 58 57
f 34 35 59 58
f 35 36 60 59
f 36 37 61 60
f 37 38 62 61
f 38 39 63 62
f 39 40 64 63
f 40 41 65 64
f 41 42 66 65
f 42 43 67 66
f 43 44 68 67
f 44 45 69 68
f 45 46 70 69
f 46 47 71 70
f 47 48 72 71
f 48 49 73 72
f 49 50 74 73
f 50 51 75 74
f 51 28 52 75
o SD0731_T003_3hao
v -62.279 -14.573 0.000
v -62.000 -10.439 0.000
v -38.959 -12.373 0.000
v -38.679 -16.507 0.000
v -23.694 -17.602 0.000
v -24.523 -28.910 0.000
v -84.212 -23.394 0.000
v -83.104 -12.650 0.000
v -62.279 -14.573 7.370
v -62.000 -10.439 7.370
v -38.959 -12.373 7.370
v -38.679 -16.507 7.370
v -23.694 -17.602 7.370
v -24.523 -28.910 7.370
v -84.212 -23.394 7.370
v -83.104 -12.650 7.370
usemtl roof
f 84 85 86 87 88 89 90 91
usemtl teaching_building
f 83 82 81 80 79 78 77 76
f 76 77 85 84
f 77 78 86 85
f 78 79 87 86
f 79 80 88 87
f 80 81 89 88
f 81 82 90 89
f 82 83 91 90
f 83 76 84 91
