# school_id SD0770
# school_name 威海市高区第一中学
# boundary_source footprint_convex_hull_buffer_20m
# adjacent_block_merge_distance_m 2.0
mtllib ../campus_materials.mtl
o SD0770_campus_boundary
usemtl campus_boundary
v 51.002 -109.465 0.050
v -86.834 -68.833 0.050
v -89.798 36.120 0.050
v 37.050 137.243 0.050
v 72.108 138.759 0.050
v 82.910 -108.122 0.050
v 51.002 -109.465 0.050
l 1 2 3 4 5 6 7 1
o SD0770_T001_1hao
v -4.454 14.095 0.000
v 25.735 15.077 0.000
v 25.232 30.625 0.000
v 30.442 30.791 0.000
v 29.695 53.603 0.000
v 14.967 53.130 0.000
v 15.618 33.247 0.000
v -5.053 32.580 0.000
v -4.454 14.095 9.900
v 25.735 15.077 9.900
v 25.232 30.625 9.900
v 30.442 30.791 9.900
v 29.695 53.603 9.900
v 14.967 53.130 9.900
v 15.618 33.247 9.900
v -5.053 32.580 9.900
usemtl roof
f 16 17 18 19 20 21 22 23
usemtl teaching_building
f 15 14 13 12 11 10 9 8
f 8 9 17 16
f 9 10 18 17
f 10 11 19 18
f 11 12 20 19
f 12 13 21 20
f 13 14 22 21
f 14 15 23 22
f 15 8 16 23
o SD0770_T002_2hao
v -69.035 12.372 0.000
v -30.809 13.669 0.000
v -31.305 28.012 0.000
v -69.524 26.705 0.000
v -69.035 12.372 9.900
v -30.809 13.669 9.900
v -31.305 28.012 9.900
v -69.524 26.705 9.900
usemtl roof
f 28 29 30 31
usemtl teaching_building
f 27 26 25 24
f 24 25 29 28
f 25 26 30 29
f 26 27 31 30
f 27 24 28 31
o SD0770_T003_3hao
v 53.475 -89.343 0.000
v 62.053 -88.982 0.000
v 53.001 117.914 0.000
v 44.423 117.543 0.000
v 53.475 -89.343 9.900
v 62.053 -88.982 9.900
v 53.001 117.914 9.900
v 44.423 117.543 9.900
usemtl roof
f 36 37 38 39
usemtl teaching_building
f 35 34 33 32
f 32 33 37 36
f 33 34 38 37
f 34 35 39 38
f 35 32 36 39
o SD0770_T004_4hao
v -48.978 -23.411 0.000
v 47.983 -20.316 0.000
v 47.450 -3.759 0.000
v -49.519 -6.854 0.000
v -48.978 -23.411 9.900
v 47.983 -20.316 9.900
v 47.450 -3.759 9.900
v -49.519 -6.854 9.900
usemtl roof
f 44 45 46 47
usemtl teaching_building
f 43 42 41 40
f 40 41 45 44
f 41 42 46 45
f 42 43 47 46
f 43 40 44 47
o SD0770_T005_5hao
v -6.474 -51.485 0.000
v 32.256 -51.003 0.000
v 32.026 -33.399 0.000
v -6.696 -33.899 0.000
v -6.474 -51.485 9.900
v 32.256 -51.003 9.900
v 32.026 -33.399 9.900
v -6.696 -33.899 9.900
usemtl roof
f 52 53 54 55
usemtl teaching_building
f 51 50 49 48
f 48 49 53 52
f 49 50 54 53
f 50 51 55 54
f 51 48 52 55
o SD0770_T006_6hao
v -67.252 -53.755 0.000
v -28.692 -53.097 0.000
v -29.010 -34.705 0.000
v -67.555 -35.354 0.000
v -67.252 -53.755 9.900
v -28.692 -53.097 9.900
v -29.010 -34.705 9.900
v -67.555 -35.354 9.900
usemtl roof
f 60 61 62 63
usemtl teaching_building
f 59 58 57 56
f 56 57 61 60
f 57 58 62 61
f 58 59 63 62
f 59 56 60 63
