# school_id SD0775
# school_name 荣成市好运角小学
# boundary_source footprint_convex_hull_buffer_20m
# adjacent_block_merge_distance_m 2.0
mtllib ../campus_materials.mtl
o SD0775_campus_boundary
usemtl campus_boundary
v 53.999 -181.763 0.050
v -78.886 -141.568 0.050
v -96.900 -81.365 0.050
v -102.926 -56.024 0.050
v -26.562 103.329 0.050
v -16.354 117.270 0.050
v -2.840 128.270 0.050
v 29.149 132.919 0.050
v 40.471 115.262 0.050
v 92.543 -109.975 0.050
v 105.840 -170.543 0.050
v 53.999 -181.763 0.050
l 1 2 3 4 5 6 7 8 9 10 11 12 1
o SD0775_T001_1hao
v 8.351 107.625 0.000
v 19.270 111.273 0.000
v 21.765 107.382 0.000
v 23.420 97.842 0.000
v 22.234 92.072 0.000
v 11.200 93.122 0.000
v 11.200 86.291 0.000
v 18.916 81.460 0.000
v 21.172 77.105 0.000
v 18.199 72.385 0.000
v 14.642 74.043 0.000
v 13.333 69.920 0.000
v 17.252 66.140 0.000
v 14.164 61.784 0.000
v 12.147 64.260 0.000
v 8.705 60.491 0.000
v 11.439 55.063 0.000
v 7.050 52.002 0.000
v 5.502 54.478 0.000
v 1.591 52.477 0.000
v 3.130 45.170 0.000
v -1.612 42.340 0.000
v -3.754 44.584 0.000
v -7.549 42.572 0.000
v -9.452 35.277 0.000
v -14.433 35.387 0.000
v -14.787 45.292 0.000
v -20.362 45.292 0.000
v -20.247 48.232 0.000
v -18.468 54.478 0.000
v -12.416 65.432 0.000
v -14.548 69.677 0.000
v -17.159 67.444 0.000
v -19.176 69.677 0.000
v -14.672 74.507 0.000
v -12.770 78.631 0.000
v -9.328 93.012 0.000
v -1.736 103.381 0.000
v 5.502 109.272 0.000
v 8.351 107.625 9.900
v 19.270 111.273 9.900
v 21.765 107.382 9.900
v 23.420 97.842 9.900
v 22.234 92.072 9.900
v 11.200 93.122 9.900
v 11.200 86.291 9.900
v 18.916 81.460 9.900
v 21.172 77.105 9.900
v 18.199 72.385 9.900
v 14.642 74.043 9.900
v 13.333 69.920 9.900
v 17.252 66.140 9.900
v 14.164 61.784 9.900
v 12.147 64.260 9.900
v 8.705 60.491 9.900
v 11.439 55.063 9.900
v 7.050 52.002 9.900
v 5.502 54.478 9.900
v 1.591 52.477 9.900
v 3.130 45.170 9.900
v -1.612 42.340 9.900
v -3.754 44.584 9.900
v -7.549 42.572 9.900
v -9.452 35.277 9.900
v -14.433 35.387 9.900
v -14.787 45.292 9.900
v -20.362 45.292 9.900
v -20.247 48.232 9.900
v -18.468 54.478 9.900
v -12.416 65.432 9.900
v -14.548 69.677 9.900
v -17.159 67.444 9.900
v -19.176 69.677 9.900
v -14.672 74.507 9.900
v -12.770 78.631 9.900
v -9.328 93.012 9.900
v -1.736 103.381 9.900
v 5.502 109.272 9.900
usemtl roof
f 52 53 54 55 56 57 58 59 60 61 62 63 64 65 66 67 68 69 70 71 72 73 74 75 76 77 78 79 80 81 82 83 84 85 86 87 88 89 90
usemtl teaching_building
f 51 50 49 48 47 46 45 44 43 42 41 40 39 38 37 36 35 34 33 32 31 30 29 28 27 26 25 24 23 22 21 20 19 18 17 16 15 14 13
f 13 14 53 52
f 14 15 54 53
f 15 16 55 54
f 16 17 56 55
f 17 18 57 56
f 18 19 58 57
f 19 20 59 58
f 20 21 60 59
f 21 22 61 60
f 22 23 62 61
f 23 24 63 62
f 24 25 64 63
f 25 26 65 64
f 26 27 66 65
f 27 28 67 66
f 28 29 68 67
f 29 30 69 68
f 30 31 70 69
f 31 32 71 70
f 32 33 72 71
f 33 34 73 72
f 34 35 74 73
f 35 36 75 74
f 36 37 76 75
f 37 38 77 76
f 38 39 78 77
f 39 40 79 78
f 40 41 80 79
f 41 42 81 80
f 42 43 82 81
f 43 44 83 82
f 44 45 84 83
f 45 46 85 84
f 46 47 86 85
f 47 48 87 86
f 48 49 88 87
f 49 50 89 88
f 50 51 90 89
f 51 13 52 90
o SD0775_T002_2hao
v 1.263 -47.341 0.000
v 37.665 -39.548 0.000
v 30.755 -7.723 0.000
v -5.647 -15.516 0.000
v 1.263 -47.341 10.390
v 37.665 -39.548 10.390
v 30.755 -7.723 10.390
v -5.647 -15.516 10.390
usemtl roof
f 95 96 97 98
usemtl teaching_building
f 94 93 92 91
f 91 92 96 95
f 92 93 97 96
f 93 94 98 97
f 94 91 95 98
o SD0775_T003_3hao
v -16.123 -100.223 0.000
v -24.786 -63.789 0.000
v -77.575 -76.181 0.000
v -81.831 -58.284 0.000
v -21.547 -44.146 0.000
v -17.300 -62.032 0.000
v -8.629 -98.466 0.000
v -16.123 -100.223 16.990
v -24.786 -63.789 16.990
v -77.575 -76.181 16.990
v -81.831 -58.284 16.990
v -21.547 -44.146 16.990
v -17.300 -62.032 16.990
v -8.629 -98.466 16.990
usemtl roof
f 106 107 108 109 110 111 112
usemtl teaching_building
f 105 104 103 102 101 100 99
f 99 100 107 106
f 100 101 108 107
f 101 102 109 108
f 102 103 110 109
f 103 104 111 110
f 104 105 112 111
f 105 99 106 112
o SD0775_T003_3hao_seg02
v -5.399 -112.062 0.000
v -62.807 -125.537 0.000
v -67.054 -107.685 0.000
v -39.474 -101.207 0.000
v -38.465 -105.463 0.000
v -8.629 -98.466 0.000
v -5.399 -112.062 16.990
v -62.807 -125.537 16.990
v -67.054 -107.685 16.990
v -39.474 -101.207 16.990
v -38.465 -105.463 16.990
v -8.629 -98.466 16.990
usemtl roof
f 119 120 121 122 123 124
usemtl teaching_building
f 118 117 116 115 114 113
f 113 114 120 119
f 114 115 121 120
f 115 116 122 121
f 116 117 123 122
f 117 118 124 123
f 118 113 119 124
o SD0775_T004_4hao
v 73.032 -114.372 0.000
v 68.466 -115.356 0.000
v 61.989 -85.864 0.000
v 15.713 -95.879 0.000
v 20.783 -119.004 0.000
v 44.461 -113.886 0.000
v 54.831 -161.120 0.000
v 82.004 -155.239 0.000
v 73.032 -114.372 6.600
v 68.466 -115.356 6.600
v 61.989 -85.864 6.600
v 15.713 -95.879 6.600
v 20.783 -119.004 6.600
v 44.461 -113.886 6.600
v 54.831 -161.120 6.600
v 82.004 -155.239 6.600
usemtl roof
f 133 134 135 136 137 138 139 140
usemtl teaching_building
f 132 131 130 129 128 127 126 125
f 125 126 134 133
f 126 127 135 134
f 127 128 136 135
f 128 129 137 136
f 129 130 138 137
f 130 131 139 138
f 131 132 140 139
f 132 125 133 140
