# school_id SD0749
# school_name 威海南海新区第二实验小学
# boundary_source footprint_convex_hull_buffer_20m
# adjacent_block_merge_distance_m 2.0
mtllib ../campus_materials.mtl
o SD0749_campus_boundary
usemtl campus_boundary
v 25.254 -31.645 0.050
v -26.677 -30.040 0.050
v -23.317 33.534 0.050
v 24.852 28.285 0.050
v 25.254 -31.645 0.050
l 1 2 3 4 5 1
o SD0749_T001_1hao
v 4.972 10.333 0.000
v 5.115 -11.013 0.000
v -5.626 -10.681 0.000
v -4.461 11.361 0.000
v 4.972 10.333 11.750
v 5.115 -11.013 11.750
v -5.626 -10.681 11.750
v -4.461 11.361 11.750
usemtl roof
f 10 11 12 13
usemtl teaching_building
f 9 8 7 6
f 6 7 11 10
f 7 8 12 11
f 8 9 13 12
f 9 6 10 13
