# school_id SD0746
# school_name 后峰西小学
# boundary_source footprint_convex_hull_buffer_20m
# adjacent_block_merge_distance_m 2.0
mtllib ../campus_materials.mtl
o SD0746_campus_boundary
usemtl campus_boundary
v -55.997 -104.267 0.050
v -56.733 -29.341 0.050
v -57.235 55.766 0.050
v 18.257 61.969 0.050
v 53.830 62.171 0.050
v 54.402 -35.798 0.050
v -0.764 -103.930 0.050
v -55.997 -104.267 0.050
l 1 2 3 4 5 6 7 8 1
o SD0746_T001_1hao
v -36.734 -29.184 0.000
v 34.361 -28.767 0.000
v 34.272 -13.840 0.000
v 23.176 -13.905 0.000
v 23.198 -17.787 0.000
v -27.096 -18.084 0.000
v -27.347 22.276 0.000
v 19.112 22.535 0.000
v 19.126 20.534 0.000
v 34.072 20.627 0.000
v 33.947 42.058 0.000
v 19.134 41.974 0.000
v 19.156 37.684 0.000
v 8.815 37.629 0.000
v 8.822 35.248 0.000
v -27.695 35.044 0.000
v -27.703 37.406 0.000
v -37.126 37.351 0.000
v -36.734 -29.184 9.900
v 34.361 -28.767 9.900
v 34.272 -13.840 9.900
v 23.176 -13.905 9.900
v 23.198 -17.787 9.900
v -27.096 -18.084 9.900
v -27.347 22.276 9.900
v 19.112 22.535 9.900
v 19.126 20.534 9.900
v 34.072 20.627 9.900
v 33.947 42.058 9.900
v 19.134 41.974 9.900
v 19.156 37.684 9.900
v 8.815 37.629 9.900
v 8.822 35.248 9.900
v -27.695 35.044 9.900
v -27.703 37.406 9.900
v -37.126 37.351 9.900
usemtl roof
f 27 28 29 30 31 32 33 34 35 36 37 38 39 40 41 42 43 44
usemtl teaching_building
f 26 25 24 23 22 21 20 19 18 17 16 15 14 13 12 11 10 9
f 9 10 28 27
f 10 11 29 28
f 11 12 30 29
f 12 13 31 30
f 13 14 32 31
f 14 15 33 32
f 15 16 34 33
f 16 17 35 34
f 17 18 36 35
f 18 19 37 36
f 19 20 38 37
f 20 21 39 38
f 21 22 40 39
f 22 23 41 40
f 23 24 42 41
f 24 25 43 42
f 25 26 44 43
f 26 9 27 44
o SD0746_T002_2hao
v -36.194 -84.146 0.000
v -10.351 -83.988 0.000
v -10.558 -50.253 0.000
v -36.386 -50.411 0.000
v -36.194 -84.146 9.900
v -10.351 -83.988 9.900
v -10.558 -50.253 9.900
v -36.386 -50.411 9.900
usemtl roof
f 49 50 51 52
usemtl teaching_building
f 48 47 46 45
f 45 46 50 49
f 46 47 51 50
f 47 48 52 51
f 48 45 49 52
