# school_id SD0760
# school_name 威海市第七中学
# boundary_source footprint_convex_hull_buffer_20m
# adjacent_block_merge_distance_m 2.0
mtllib ../campus_materials.mtl
o SD0760_campus_boundary
usemtl campus_boundary
v 50.722 -105.634 0.050
v -40.911 -66.123 0.050
v -142.643 76.507 0.050
v -146.545 140.068 0.050
v -47.266 146.068 0.050
v 55.519 36.047 0.050
v 133.825 -56.353 0.050
v 134.196 -104.982 0.050
v 50.722 -105.634 0.050
l 1 2 3 4 5 6 7 8 9 1
o SD0760_T001_1hao
v -123.032 83.454 0.000
v -53.138 87.679 0.000
v -55.455 125.537 0.000
v -125.356 121.312 0.000
v -123.032 83.454 6.600
v -53.138 87.679 6.600
v -55.455 125.537 6.600
v -125.356 121.312 6.600
usemtl roof
f 14 15 16 17
usemtl teaching_building
f 13 12 11 10
f 10 11 15 14
f 11 12 16 15
f 12 13 17 16
f 13 10 14 17
o SD0760_T002_2hao
v -28.638 -5.179 0.000
v 25.381 -4.271 0.000
v 25.766 -27.230 0.000
v -28.238 -28.148 0.000
v -27.868 -49.967 0.000
v 41.789 -48.791 0.000
v 40.574 22.747 0.000
v -29.090 21.580 0.000
v -28.638 -5.179 9.900
v 25.381 -4.271 9.900
v 25.766 -27.230 9.900
v -28.238 -28.148 9.900
v -27.868 -49.967 9.900
v 41.789 -48.791 9.900
v 40.574 22.747 9.900
v -29.090 21.580 9.900
usemtl roof
f 26 27 28 29 30 31 32 33
usemtl teaching_building
f 25 24 23 22 21 20 19 18
f 18 19 27 26
f 19 20 28 27
f 20 21 29 28
f 21 22 30 29
f 22 23 31 30
f 23 24 32 31
f 24 25 33 32
f 25 18 26 33
o SD0760_T003_3hao
v 54.775 -85.602 0.000
v 114.044 -85.139 0.000
v 113.881 -63.754 0.000
v 54.605 -64.227 0.000
v 54.775 -85.602 9.900
v 114.044 -85.139 9.900
v 113.881 -63.754 9.900
v 54.605 -64.227 9.900
usemtl roof
f 38 39 40 41
usemtl teaching_building
f 37 36 35 34
f 34 35 39 38
f 35 36 40 39
f 36 37 41 40
f 37 34 38 41
