# school_id SD0705
# school_name 东平实验小学
# boundary_source footprint_convex_hull_buffer_20m
# adjacent_block_merge_distance_m 2.0
mtllib ../campus_materials.mtl
o SD0705_campus_boundary
usemtl campus_boundary
v -27.673 -100.628 0.050
v -88.841 3.194 0.050
v -92.605 91.254 0.050
v 6.889 95.452 0.050
v 68.203 41.883 0.050
v 69.269 -32.488 0.050
v 55.584 -58.888 0.050
v -27.673 -100.628 0.050
l 1 2 3 4 5 6 7 8 1
o SD0705_T001_1hao
v -69.073 9.041 0.000
v -41.824 10.190 0.000
v -42.383 23.345 0.000
v -56.328 22.759 0.000
v -57.995 61.978 0.000
v 0.208 64.421 0.000
v -0.252 75.133 0.000
v -71.769 72.115 0.000
v -69.073 9.041 10.900
v -41.824 10.190 10.900
v -42.383 23.345 10.900
v -56.328 22.759 10.900
v -57.995 61.978 10.900
v 0.208 64.421 10.900
v -0.252 75.133 10.900
v -71.769 72.115 10.900
usemtl roof
f 17 18 19 20 21 22 23 24
usemtl teaching_building
f 16 15 14 13 12 11 10 9
f 9 10 18 17
f 10 11 19 18
f 11 12 20 19
f 12 13 21 20
f 13 14 22 21
f 14 15 23 22
f 15 16 24 23
f 16 9 17 24
o SD0705_T002_2hao
v -9.068 22.914 0.000
v -22.940 22.405 0.000
v -22.462 9.372 0.000
v 3.092 10.301 0.000
v 2.272 32.674 0.000
v -9.410 32.254 0.000
v -9.068 22.914 9.080
v -22.940 22.405 9.080
v -22.462 9.372 9.080
v 3.092 10.301 9.080
v 2.272 32.674 9.080
v -9.410 32.254 9.080
usemtl roof
f 31 32 33 34 35 36
usemtl teaching_building
f 30 29 28 27 26 25
f 25 26 32 31
f 26 27 33 32
f 27 28 34 33
f 28 29 35 34
f 29 30 36 35
f 30 25 31 36
o SD0705_T003_3hao
v 17.722 19.984 0.000
v 34.659 20.228 0.000
v 37.958 16.956 0.000
v 38.616 -12.282 0.000
v 32.685 -15.996 0.000
v 15.135 -16.240 0.000
v 15.306 -28.233 0.000
v 49.199 -27.747 0.000
v 48.333 32.685 0.000
v 17.551 32.254 0.000
v 17.722 19.984 11.400
v 34.659 20.228 11.400
v 37.958 16.956 11.400
v 38.616 -12.282 11.400
v 32.685 -15.996 11.400
v 15.135 -16.240 11.400
v 15.306 -28.233 11.400
v 49.199 -27.747 11.400
v 48.333 32.685 11.400
v 17.551 32.254 11.400
usemtl roof
f 47 48 49 50 51 52 53 54 55 56
usemtl teaching_building
f 46 45 44 43 42 41 40 39 38 37
f 37 38 48 47
f 38 39 49 48
f 39 40 50 49
f 40 41 51 50
f 41 42 52 51
f 42 43 53 52
f 43 44 54 53
f 44 45 55 54
f 45 46 56 55
f 46 37 47 56
o SD0705_T004_4hao
v 2.560 -52.453 0.000
v 2.840 -43.631 0.000
v 11.592 -44.040 0.000
v 11.448 -55.901 0.000
v -19.929 -74.373 0.000
v -23.823 -67.066 0.000
v 2.560 -52.453 8.590
v 2.840 -43.631 8.590
v 11.592 -44.040 8.590
v 11.448 -55.901 8.590
v -19.929 -74.373 8.590
v -23.823 -67.066 8.590
usemtl roof
f 63 64 65 66 67 68
usemtl teaching_building
f 62 61 60 59 58 57
f 57 58 64 63
f 58 59 65 64
f 59 60 66 65
f 60 61 67 66
f 61 62 68 67
f 62 57 63 68
o SD0705_T004_4hao_seg02
v 12.223 -32.611 0.000
v 40.518 -31.903 0.000
v 40.816 -43.919 0.000
v 12.521 -44.615 0.000
v 12.223 -32.611 8.590
v 40.518 -31.903 8.590
v 40.816 -43.919 8.590
v 12.521 -44.615 8.590
usemtl roof
f 73 74 75 76
usemtl teaching_building
f 72 71 70 69
f 69 70 74 73
f 70 71 75 74
f 71 72 76 75
f 72 69 73 76
