# school_id SD0782
# school_name 龙须岛小学
# boundary_source footprint_convex_hull_buffer_20m
# adjacent_block_merge_distance_m 2.0
mtllib ../campus_materials.mtl
o SD0782_campus_boundary
usemtl campus_boundary
v -79.033 -110.314 0.050
v -114.967 166.414 0.050
v -115.690 199.672 0.050
v -27.140 201.572 0.050
v 28.036 196.933 0.050
v 66.306 108.566 0.050
v 68.415 87.136 0.050
v 72.813 -34.121 0.050
v 73.949 -90.725 0.050
v 44.803 -107.103 0.050
v 13.138 -109.127 0.050
v -38.877 -109.897 0.050
v -79.033 -110.314 0.050
l 1 2 3 4 5 6 7 8 9 10 11 12 13 1
o SD0782_T001_1hao
v -27.499 169.372 0.000
v -94.995 167.924 0.000
v -95.260 180.106 0.000
v -27.765 181.554 0.000
v -27.499 169.372 6.750
v -94.995 167.924 6.750
v -95.260 180.106 6.750
v -27.765 181.554 6.750
usemtl roof
f 18 19 20 21
usemtl teaching_building
f 17 16 15 14
f 14 15 19 18
f 15 16 20 19
f 16 17 21 20
f 17 14 18 21
o SD0782_T002_2hao
v -50.555 127.655 0.000
v -6.283 128.848 0.000
v -7.601 177.409 0.000
v 14.438 178.006 0.000
v 16.171 114.080 0.000
v -82.658 111.438 0.000
v -83.180 130.717 0.000
v -50.661 131.590 0.000
v -50.555 127.655 7.160
v -6.283 128.848 7.160
v -7.601 177.409 7.160
v 14.438 178.006 7.160
v 16.171 114.080 7.160
v -82.658 111.438 7.160
v -83.180 130.717 7.160
v -50.661 131.590 7.160
usemtl roof
f 30 31 32 33 34 35 36 37
usemtl teaching_building
f 29 28 27 26 25 24 23 22
f 22 23 31 30
f 23 24 32 31
f 24 25 33 32
f 25 26 34 33
f 26 27 35 34
f 27 28 36 35
f 28 29 37 36
f 29 22 30 37
o SD0782_T003_3hao
v -26.845 -79.752 0.000
v 6.487 -79.254 0.000
v 6.434 -75.816 0.000
v 17.100 -75.662 0.000
v 17.064 -73.108 0.000
v 28.429 -72.942 0.000
v 28.491 -76.811 0.000
v 38.820 -76.656 0.000
v 38.979 -87.434 0.000
v 35.601 -87.478 0.000
v 35.557 -84.792 0.000
v 18.435 -85.046 0.000
v 18.453 -86.528 0.000
v 12.315 -86.616 0.000
v 12.351 -89.136 0.000
v -39.129 -89.899 0.000
v -39.155 -87.733 0.000
v -57.542 -88.009 0.000
v -57.506 -90.076 0.000
v -61.486 -90.131 0.000
v -61.627 -80.260 0.000
v -47.584 -80.050 0.000
v -47.663 -74.501 0.000
v -40.287 -74.390 0.000
v -40.252 -76.723 0.000
v -26.889 -76.524 0.000
v -26.845 -79.752 12.980
v 6.487 -79.254 12.980
v 6.434 -75.816 12.980
v 17.100 -75.662 12.980
v 17.064 -73.108 12.980
v 28.429 -72.942 12.980
v 28.491 -76.811 12.980
v 38.820 -76.656 12.980
v 38.979 -87.434 12.980
v 35.601 -87.478 12.980
v 35.557 -84.792 12.980
v 18.435 -85.046 12.980
v 18.453 -86.528 12.980
v 12.315 -86.616 12.980
v 12.351 -89.136 12.980
v -39.129 -89.899 12.980
v -39.155 -87.733 12.980
v -57.542 -88.009 12.980
v -57.506 -90.076 12.980
v -61.486 -90.131 12.980
v -61.627 -80.260 12.980
v -47.584 -80.050 12.980
v -47.663 -74.501 12.980
v -40.287 -74.390 12.980
v -40.252 -76.723 12.980
v -26.889 -76.524 12.980
usemtl roof
f 64 65 66 67 68 69 70 71 72 73 74 75 76 77 78 79 80 81 82 83 84 85 86 87 88 89
usemtl teaching_building
f 63 62 61 60 59 58 57 56 55 54 53 52 51 50 49 48 47 46 45 44 43 42 41 40 39 38
f 38 39 65 64
f 39 40 66 65
f 40 41 67 66
f 41 42 68 67
f 42 43 69 68
f 43 44 70 69
f 44 45 71 70
f 45 46 72 71
f 46 47 73 72
f 47 48 74 73
f 48 49 75 74
f 49 50 76 75
f 50 51 77 76
f 51 52 78 77
f 52 53 79 78
f 53 54 80 79
f 54 55 81 80
f 55 56 82 81
f 56 57 83 82
f 57 58 84 83
f 58 59 85 84
f 59 60 86 85
f 60 61 87 86
f 61 62 88 87
f 62 63 89 88
f 63 38 64 89
