# school_id SD0794
# school_name 日照实验小学北校区
# boundary_source footprint_convex_hull_buffer_20m
# adjacent_block_merge_distance_m 2.0
mtllib ../campus_materials.mtl
o SD0794_campus_boundary
usemtl campus_boundary
v 36.943 -58.362 0.050
v -62.153 -30.134 0.050
v -48.361 18.283 0.050
v -36.943 58.362 0.050
v 62.153 30.134 0.050
v 48.361 -18.283 0.050
v 36.943 -58.362 0.050
l 1 2 3 4 5 6 7 1
o SD0794_T001_1hao
v 29.126 -12.804 0.000
v 23.188 -33.648 0.000
v -37.439 -16.378 0.000
v -29.126 12.804 0.000
v -29.126 12.804 0.000
v -23.188 33.648 0.000
v 37.439 16.378 0.000
v 31.501 -4.466 0.000
v -8.282 6.867 0.000
v -10.658 -1.471 0.000
v 29.126 -12.804 16.310
v 23.188 -33.648 16.310
v -37.439 -16.378 16.310
v -29.126 12.804 16.310
v -29.126 12.804 16.310
v -23.188 33.648 16.310
v 37.439 16.378 16.310
v 31.501 -4.466 16.310
v -8.282 6.867 16.310
v -10.658 -1.471 16.310
usemtl roof
f 18 19 20 21 22 23 24 25 26 27
usemtl teaching_building
f 17 16 15 14 13 12 11 10 9 8
f 8 9 19 18
f 9 10 20 19
f 10 11 21 20
f 11 12 22 21
f 12 13 23 22
f 13 14 24 23
f 14 15 25 24
f 15 16 26 25
f 16 17 27 26
f 17 8 18 27
