# school_id SD0783
# school_name 南湖镇中心小学
# boundary_source footprint_convex_hull_buffer_20m
# adjacent_block_merge_distance_m 2.0
mtllib ../campus_materials.mtl
o SD0783_campus_boundary
usemtl campus_boundary
v -29.904 -66.819 0.050
v -48.676 17.069 0.050
v -53.988 48.351 0.050
v 43.491 64.638 0.050
v 63.126 -51.256 0.050
v -29.904 -66.819 0.050
l 1 2 3 4 5 6 1
o SD0783_T001_1hao
v 27.105 41.623 0.000
v 40.059 -34.837 0.000
v -14.523 -43.968 0.000
v -16.644 -31.455 0.000
v 27.885 -24.026 0.000
v 19.835 23.539 0.000
v -23.760 16.265 0.000
v -29.045 20.930 0.000
v -30.913 31.929 0.000
v 27.105 41.623 24.830
v 40.059 -34.837 24.830
v -14.523 -43.968 24.830
v -16.644 -31.455 24.830
v 27.885 -24.026 24.830
v 19.835 23.539 24.830
v -23.760 16.265 24.830
v -29.045 20.930 24.830
v -30.913 31.929 24.830
usemtl roof
f 16 17 18 19 20 21 22 23 24
usemtl teaching_building
f 15 14 13 12 11 10 9 8 7
f 7 8 17 16
f 8 9 18 17
f 9 10 19 18
f 10 11 20 19
f 11 12 21 20
f 12 13 22 21
f 13 14 23 22
f 14 15 24 23
f 15 7 16 24
