# school_id SD0763
# school_name 威海市第二实验小学
# boundary_source footprint_convex_hull_buffer_20m
# adjacent_block_merge_distance_m 2.0
mtllib ../campus_materials.mtl
o SD0763_campus_boundary
usemtl campus_boundary
v 16.530 -125.961 0.050
v -39.048 -91.796 0.050
v -100.178 -53.889 0.050
v -58.788 60.347 0.050
v -34.115 100.902 0.050
v -15.058 131.473 0.050
v 53.707 89.767 0.050
v 99.839 61.393 0.050
v 56.912 -46.765 0.050
v 39.203 -89.605 0.050
v 16.530 -125.961 0.050
l 1 2 3 4 5 6 7 8 9 10 11 1
o SD0763_T001_1hao
v 24.595 64.786 0.000
v 33.143 78.489 0.000
v -8.537 104.127 0.000
v -17.085 90.414 0.000
v 24.595 64.786 9.900
v 33.143 78.489 9.900
v -8.537 104.127 9.900
v -17.085 90.414 9.900
usemtl roof
f 16 17 18 19
usemtl teaching_building
f 15 14 13 12
f 12 13 17 16
f 13 14 18 17
f 14 15 19 18
f 15 12 16 19
o SD0763_T002_2hao
v 65.950 38.565 0.000
v 75.053 53.158 0.000
v 43.282 72.699 0.000
v 34.179 58.106 0.000
v 65.950 38.565 9.900
v 75.053 53.158 9.900
v 43.282 72.699 9.900
v 34.179 58.106 9.900
usemtl roof
f 24 25 26 27
usemtl teaching_building
f 23 22 21 20
f 20 21 25 24
f 21 22 26 25
f 22 23 27 26
f 23 20 24 27
o SD0763_T003_3hao
v 41.787 0.957 0.000
v 50.742 15.318 0.000
v -31.709 66.018 0.000
v -40.664 51.657 0.000
v 41.787 0.957 9.900
v 50.742 15.318 9.900
v -31.709 66.018 9.900
v -40.664 51.657 9.900
usemtl roof
f 32 33 34 35
usemtl teaching_building
f 31 30 29 28
f 28 29 33 32
f 29 30 34 33
f 30 31 35 34
f 31 28 32 35
o SD0763_T004_4hao
v -15.553 -30.601 0.000
v -4.267 -12.506 0.000
v -42.884 11.232 0.000
v -54.170 -6.844 0.000
v -15.553 -30.601 9.900
v -4.267 -12.506 9.900
v -42.884 11.232 9.900
v -54.170 -6.844 9.900
usemtl roof
f 40 41 42 43
usemtl teaching_building
f 39 38 37 36
f 36 37 41 40
f 37 38 42 41
f 38 39 43 42
f 39 36 40 43
o SD0763_T005_5hao
v 27.097 -57.341 0.000
v 38.375 -39.255 0.000
v 4.954 -18.695 0.000
v -6.332 -36.781 0.000
v 27.097 -57.341 9.900
v 38.375 -39.255 9.900
v 4.954 -18.695 9.900
v -6.332 -36.781 9.900
usemtl roof
f 48 49 50 51
usemtl teaching_building
f 47 46 45 44
f 44 45 49 48
f 45 46 50 49
f 46 47 51 50
f 47 44 48 51
o SD0763_T006_6hao
v -37.230 -69.191 0.000
v -25.944 -51.105 0.000
v -64.560 -27.349 0.000
v -75.846 -45.444 0.000
v -37.230 -69.191 9.900
v -25.944 -51.105 9.900
v -64.560 -27.349 9.900
v -75.846 -45.444 9.900
usemtl roof
f 56 57 58 59
usemtl teaching_building
f 55 54 53 52
f 52 53 57 56
f 53 54 58 57
f 54 55 59 58
f 55 52 56 59
o SD0763_T007_7hao
v 10.075 -98.516 0.000
v 21.354 -80.430 0.000
v -17.263 -56.692 0.000
v -28.541 -74.778 0.000
v 10.075 -98.516 9.900
v 21.354 -80.430 9.900
v -17.263 -56.692 9.900
v -28.541 -74.778 9.900
usemtl roof
f 64 65 66 67
usemtl teaching_building
f 63 62 61 60
f 60 61 65 64
f 61 62 66 65
f 62 63 67 66
f 63 60 64 67
