# school_id SD0732
# school_name 泰安护理职业学院
# boundary_source footprint_convex_hull_buffer_20m
# adjacent_block_merge_distance_m 2.0
mtllib ../campus_materials.mtl
o SD0732_campus_boundary
usemtl campus_boundary
v -10.513 -87.503 0.050
v -116.650 54.769 0.050
v -116.739 100.291 0.050
v -21.104 100.460 0.050
v 81.343 6.826 0.050
v 84.649 -46.978 0.050
v 85.088 -86.447 0.050
v -10.513 -87.503 0.050
l 1 2 3 4 5 6 7 8 1
o SD0732_T001_1hao
v -96.663 61.425 0.000
v -28.821 61.545 0.000
v -28.852 80.446 0.000
v -96.700 80.326 0.000
v -96.663 61.425 9.900
v -28.821 61.545 9.900
v -28.852 80.446 9.900
v -96.700 80.326 9.900
usemtl roof
f 13 14 15 16
usemtl teaching_building
f 12 11 10 9
f 9 10 14 13
f 10 11 15 14
f 11 12 16 15
f 12 9 13 16
o SD0732_T002_2hao
v -0.451 -24.298 0.000
v 62.088 -23.696 0.000
v 61.877 -2.478 0.000
v -0.655 -3.081 0.000
v -0.451 -24.298 9.900
v 62.088 -23.696 9.900
v 61.877 -2.478 9.900
v -0.655 -3.081 9.900
usemtl roof
f 21 22 23 24
usemtl teaching_building
f 20 19 18 17
f 17 18 22 21
f 18 19 23 22
f 19 20 24 23
f 20 17 21 24
o SD0732_T003_3hao
v -0.564 -67.392 0.000
v 64.867 -66.669 0.000
v 64.656 -47.703 0.000
v -0.783 -48.425 0.000
v -0.564 -67.392 9.900
v 64.867 -66.669 9.900
v 64.656 -47.703 9.900
v -0.783 -48.425 9.900
usemtl roof
f 29 30 31 32
usemtl teaching_building
f 28 27 26 25
f 25 26 30 29
f 26 27 31 30
f 27 28 32 31
f 28 25 29 32
