# school_id SD0752
# school_name 威海市北竹岛小学
# boundary_source footprint_convex_hull_buffer_20m
# adjacent_block_merge_distance_m 2.0
mtllib ../campus_materials.mtl
o SD0752_campus_boundary
usemtl campus_boundary
v -18.049 -111.384 0.050
v -61.291 -39.233 0.050
v -71.935 -11.894 0.050
v -42.950 49.423 0.050
v -32.768 64.909 0.050
v 49.449 96.984 0.050
v 61.890 65.556 0.050
v 66.334 1.823 0.050
v 39.949 -89.997 0.050
v -18.049 -111.384 0.050
l 1 2 3 4 5 6 7 8 9 10 1
o SD0752_T001_1hao
v -50.175 -12.659 0.000
v 39.229 21.688 0.000
v 46.137 3.954 0.000
v -43.267 -30.402 0.000
v -50.175 -12.659 9.900
v 39.229 21.688 9.900
v 46.137 3.954 9.900
v -43.267 -30.402 9.900
usemtl roof
f 15 16 17 18
usemtl teaching_building
f 14 13 12 11
f 11 12 16 15
f 12 13 17 16
f 13 14 18 17
f 14 11 15 18
o SD0752_T001_1hao_seg02
v -25.468 39.607 0.000
v -17.272 42.813 0.000
v -19.559 48.594 0.000
v 38.178 71.119 0.000
v 42.154 61.075 0.000
v -14.576 38.940 0.000
v -1.975 7.095 0.000
v -11.178 3.509 0.000
v -25.468 39.607 9.900
v -17.272 42.813 9.900
v -19.559 48.594 9.900
v 38.178 71.119 9.900
v 42.154 61.075 9.900
v -14.576 38.940 9.900
v -1.975 7.095 9.900
v -11.178 3.509 9.900
usemtl roof
f 27 28 29 30 31 32 33 34
usemtl teaching_building
f 26 25 24 23 22 21 20 19
f 19 20 28 27
f 20 21 29 28
f 21 22 30 29
f 22 23 31 30
f 23 24 32 31
f 24 25 33 32
f 25 26 34 33
f 26 19 27 34
o SD0752_T002_2hao
v -9.416 -86.884 0.000
v 23.525 -74.737 0.000
v 18.298 -60.783 0.000
v -14.636 -72.930 0.000
v -9.416 -86.884 9.900
v 23.525 -74.737 9.900
v 18.298 -60.783 9.900
v -14.636 -72.930 9.900
usemtl roof
f 39 40 41 42
usemtl teaching_building
f 38 37 36 35
f 35 36 40 39
f 36 37 41 40
f 37 38 42 41
f 38 35 39 42
