# school_id SD0776
# school_name 荣成市第五中学
# boundary_source footprint_convex_hull_buffer_20m
# adjacent_block_merge_distance_m 2.0
mtllib ../campus_materials.mtl
o SD0776_campus_boundary
usemtl campus_boundary
v 58.188 -109.928 0.050
v -60.561 -108.915 0.050
v -183.688 0.447 0.050
v -181.662 71.908 0.050
v -110.412 107.437 0.050
v -63.537 108.224 0.050
v -4.782 106.801 0.050
v 106.339 101.859 0.050
v 126.876 -70.765 0.050
v 130.318 -107.230 0.050
v 58.188 -109.928 0.050
l 1 2 3 4 5 6 7 8 9 10 11 1
o SD0776_T001_1hao
v 108.417 -88.035 0.000
v 106.987 -72.886 0.000
v 63.617 -72.886 0.000
v 63.141 -87.562 0.000
v 108.417 -88.035 6.600
v 106.987 -72.886 6.600
v 63.617 -72.886 6.600
v 63.141 -87.562 6.600
usemtl roof
f 16 17 18 19
usemtl teaching_building
f 15 14 13 12
f 12 13 17 16
f 13 14 18 17
f 14 15 19 18
f 15 12 16 19
o SD0776_T002_2hao
v 57.899 -89.925 0.000
v 57.661 -79.983 0.000
v 39.077 -79.279 0.000
v 39.077 -75.258 0.000
v 25.973 -75.026 0.000
v 25.735 -79.279 0.000
v 10.963 -79.047 0.000
v 10.963 -75.499 0.000
v 2.624 -74.544 0.000
v 2.393 -78.093 0.000
v -2.379 -77.861 0.000
v -2.379 -74.544 0.000
v -11.671 -74.313 0.000
v -11.671 -77.148 0.000
v -32.876 -76.916 0.000
v -32.638 -74.544 0.000
v -46.695 -74.072 0.000
v -46.926 -76.916 0.000
v -52.889 -77.148 0.000
v -52.889 -88.980 0.000
v 57.899 -89.925 6.600
v 57.661 -79.983 6.600
v 39.077 -79.279 6.600
v 39.077 -75.258 6.600
v 25.973 -75.026 6.600
v 25.735 -79.279 6.600
v 10.963 -79.047 6.600
v 10.963 -75.499 6.600
v 2.624 -74.544 6.600
v 2.393 -78.093 6.600
v -2.379 -77.861 6.600
v -2.379 -74.544 6.600
v -11.671 -74.313 6.600
v -11.671 -77.148 6.600
v -32.876 -76.916 6.600
v -32.638 -74.544 6.600
v -46.695 -74.072 6.600
v -46.926 -76.916 6.600
v -52.889 -77.148 6.600
v -52.889 -88.980 6.600
usemtl roof
f 40 41 42 43 44 45 46 47 48 49 50 51 52 53 54 55 56 57 58 59
usemtl teaching_building
f 39 38 37 36 35 34 33 32 31 30 29 28 27 26 25 24 23 22 21 20
f 20 21 41 40
f 21 22 42 41
f 22 23 43 42
f 23 24 44 43
f 24 25 45 44
f 25 26 46 45
f 26 27 47 46
f 27 28 48 47
f 28 29 49 48
f 29 30 50 49
f 30 31 51 50
f 31 32 52 51
f 32 33 53 52
f 33 34 54 53
f 34 35 55 54
f 35 36 56 55
f 36 37 57 56
f 37 38 58 57
f 38 39 59 58
f 39 20 40 59
