# school_id SD0787
# school_name 山东省日照实验高级中学（黄海校区）
# boundary_source footprint_convex_hull_buffer_20m
# adjacent_block_merge_distance_m 2.0
mtllib ../campus_materials.mtl
o SD0787_campus_boundary
usemtl campus_boundary
v -109.785 -169.814 0.050
v -116.970 -38.471 0.050
v -124.869 259.671 0.050
v -28.051 263.463 0.050
v 112.992 -11.292 0.050
v 115.893 -22.819 0.050
v 120.916 -152.811 0.050
v -16.530 -167.443 0.050
v -109.785 -169.814 0.050
l 1 2 3 4 5 6 7 8 9 1
o SD0787_T001_1hao
v -40.017 242.979 0.000
v -39.209 222.507 0.000
v -103.536 219.998 0.000
v -104.353 240.459 0.000
v -40.017 242.979 16.030
v -39.209 222.507 16.030
v -103.536 219.998 16.030
v -104.353 240.459 16.030
usemtl roof
f 14 15 16 17
usemtl teaching_building
f 13 12 11 10
f 10 11 15 14
f 11 12 16 15
f 12 13 17 16
f 13 10 14 17
o SD0787_T002_2hao
v -31.876 203.826 0.000
v -31.876 181.972 0.000
v -99.706 181.375 0.000
v -100.323 202.610 0.000
v -31.876 203.826 9.970
v -31.876 181.972 9.970
v -99.706 181.375 9.970
v -100.323 202.610 9.970
usemtl roof
f 22 23 24 25
usemtl teaching_building
f 21 20 19 18
f 18 19 23 22
f 19 20 24 23
f 20 21 25 24
f 21 18 22 25
o SD0787_T003_3hao
v -30.714 161.909 0.000
v -30.315 144.035 0.000
v -94.152 142.609 0.000
v -94.560 160.494 0.000
v -30.714 161.909 8.950
v -30.315 144.035 8.950
v -94.152 142.609 8.950
v -94.560 160.494 8.950
usemtl roof
f 30 31 32 33
usemtl teaching_building
f 29 28 27 26
f 26 27 31 30
f 27 28 32 31
f 28 29 33 32
f 29 26 30 33
o SD0787_T004_4hao
v -31.014 125.144 0.000
v -27.810 77.998 0.000
v -76.246 74.749 0.000
v -77.435 92.214 0.000
v -95.740 90.976 0.000
v -97.764 120.667 0.000
v -31.014 125.144 11.870
v -27.810 77.998 11.870
v -76.246 74.749 11.870
v -77.435 92.214 11.870
v -95.740 90.976 11.870
v -97.764 120.667 11.870
usemtl roof
f 40 41 42 43 44 45
usemtl teaching_building
f 39 38 37 36 35 34
f 34 35 41 40
f 35 36 42 41
f 36 37 43 42
f 37 38 44 43
f 38 39 45 44
f 39 34 40 45
o SD0787_T005_5hao
v 51.809 1.538 0.000
v 53.779 -21.653 0.000
v 25.272 -24.052 0.000
v 28.485 -61.868 0.000
v 10.361 -63.382 0.000
v 5.179 -2.364 0.000
v 51.809 1.538 15.590
v 53.779 -21.653 15.590
v 25.272 -24.052 15.590
v 28.485 -61.868 15.590
v 10.361 -63.382 15.590
v 5.179 -2.364 15.590
usemtl roof
f 52 53 54 55 56 57
usemtl teaching_building
f 51 50 49 48 47 46
f 46 47 53 52
f 47 48 54 53
f 48 49 55 54
f 49 50 56 55
f 50 51 57 56
f 51 46 52 57
o SD0787_T006_6hao
v -24.534 -13.064 0.000
v -23.953 -35.814 0.000
v -96.984 -37.660 0.000
v -97.573 -14.910 0.000
v -24.534 -13.064 13.440
v -23.953 -35.814 13.440
v -96.984 -37.660 13.440
v -97.573 -14.910 13.440
usemtl roof
f 62 63 64 65
usemtl teaching_building
f 61 60 59 58
f 58 59 63 62
f 59 60 64 63
f 60 61 65 64
f 61 58 62 65
o SD0787_T007_7hao
v 57.490 -35.382 0.000
v 62.373 -45.088 0.000
v 69.098 -48.736 0.000
v 75.823 -49.344 0.000
v 85.597 -42.667 0.000
v 92.930 -34.166 0.000
v 95.989 -25.677 0.000
v 94.155 -18.392 0.000
v 89.881 -11.716 0.000
v 75.823 -11.716 0.000
v 61.157 -24.461 0.000
v 57.490 -35.382 9.900
v 62.373 -45.088 9.900
v 69.098 -48.736 9.900
v 75.823 -49.344 9.900
v 85.597 -42.667 9.900
v 92.930 -34.166 9.900
v 95.989 -25.677 9.900
v 94.155 -18.392 9.900
v 89.881 -11.716 9.900
v 75.823 -11.716 9.900
v 61.157 -24.461 9.900
usemtl roof
f 77 78 79 80 81 82 83 84 85 86 87
usemtl teaching_building
f 76 75 74 73 72 71 70 69 68 67 66
f 66 67 78 77
f 67 68 79 78
f 68 69 80 79
f 69 70 81 80
f 70 71 82 81
f 71 72 83 82
f 72 73 84 83
f 73 74 85 84
f 74 75 86 85
f 75 76 87 86
f 76 66 77 87
o SD0787_T008_8hao
v 39.766 -74.281 0.000
v 95.834 -72.004 0.000
v 95.244 -57.700 0.000
v 39.176 -59.978 0.000
v 39.766 -74.281 13.330
v 95.834 -72.004 13.330
v 95.244 -57.700 13.330
v 39.176 -59.978 13.330
usemtl roof
f 92 93 94 95
usemtl teaching_building
f 91 90 89 88
f 88 89 93 92
f 89 90 94 93
f 90 91 95 94
f 91 88 92 95
o SD0787_T009_9hao
v -20.259 -70.114 0.000
v -19.679 -92.852 0.000
v -92.709 -94.709 0.000
v -93.290 -71.949 0.000
v -20.259 -70.114 11.120
v -19.679 -92.852 11.120
v -92.709 -94.709 11.120
v -93.290 -71.949 11.120
usemtl roof
f 100 101 102 103
usemtl teaching_building
f 99 98 97 96
f 96 97 101 100
f 97 98 102 101
f 98 99 103 102
f 99 96 100 103
o SD0787_T010_10hao
v 78.237 -114.098 0.000
v 18.774 -118.099 0.000
v 18.956 -120.741 0.000
v 15.298 -120.985 0.000
v 16.524 -138.848 0.000
v 100.209 -134.902 0.000
v 97.232 -91.437 0.000
v 83.238 -92.388 0.000
v 83.492 -96.168 0.000
v 77.048 -96.599 0.000
v 78.237 -114.098 19.030
v 18.774 -118.099 19.030
v 18.956 -120.741 19.030
v 15.298 -120.985 19.030
v 16.524 -138.848 19.030
v 100.209 -134.902 19.030
v 97.232 -91.437 19.030
v 83.238 -92.388 19.030
v 83.492 -96.168 19.030
v 77.048 -96.599 19.030
usemtl roof
f 114 115 116 117 118 119 120 121 122 123
usemtl teaching_building
f 113 112 111 110 109 108 107 106 105 104
f 104 105 115 114
f 105 106 116 115
f 106 107 117 116
f 107 108 118 117
f 108 109 119 118
f 109 110 120 119
f 110 111 121 120
f 111 112 122 121
f 112 113 123 122
f 113 104 114 123
o SD0787_T011_11hao
v -18.426 -124.732 0.000
v -17.845 -147.470 0.000
v -90.876 -149.327 0.000
v -91.457 -126.567 0.000
v -18.426 -124.732 10.450
v -17.845 -147.470 10.450
v -90.876 -149.327 10.450
v -91.457 -126.567 10.450
usemtl roof
f 128 129 130 131
usemtl teaching_building
f 127 126 125 124
f 124 125 129 128
f 125 126 130 129
f 126 127 131 130
f 127 124 128 131
