# school_id SD0717
# school_name 新泰二中
# boundary_source footprint_convex_hull_buffer_20m
# adjacent_block_merge_distance_m 2.0
mtllib ../campus_materials.mtl
o SD0717_campus_boundary
usemtl campus_boundary
v 9.726 -136.366 0.050
v -60.187 -129.266 0.050
v -73.935 -18.203 0.050
v -77.477 18.588 0.050
v -78.299 27.741 0.050
v -79.297 41.056 0.050
v -84.091 110.397 0.050
v -56.247 154.657 0.050
v 59.745 158.098 0.050
v 62.140 78.944 0.050
v 63.127 15.890 0.050
v 64.053 -43.807 0.050
v 61.818 -135.151 0.050
v 9.726 -136.366 0.050
l 1 2 3 4 5 6 7 8 9 10 11 12 13 14 1
o SD0717_T001_1hao
v -9.459 46.053 0.000
v -59.349 42.493 0.000
v -61.063 69.896 0.000
v -63.689 105.269 0.000
v -14.430 108.884 0.000
v -11.805 73.511 0.000
v -9.459 46.053 9.240
v -59.349 42.493 9.240
v -61.063 69.896 9.240
v -63.689 105.269 9.240
v -14.430 108.884 9.240
v -11.805 73.511 9.240
usemtl roof
f 21 22 23 24 25 26
usemtl teaching_building
f 20 19 18 17 16 15
f 15 16 22 21
f 16 17 23 22
f 17 18 24 23
f 18 19 25 24
f 19 20 26 25
f 20 15 21 26
o SD0717_T002_2hao
v 28.026 127.598 0.000
v 22.821 127.443 0.000
v 23.073 119.098 0.000
v -44.454 117.075 0.000
v -44.996 134.982 0.000
v 40.359 137.514 0.000
v 42.145 78.485 0.000
v 29.524 78.109 0.000
v 28.026 127.598 11.090
v 22.821 127.443 11.090
v 23.073 119.098 11.090
v -44.454 117.075 11.090
v -44.996 134.982 11.090
v 40.359 137.514 11.090
v 42.145 78.485 11.090
v 29.524 78.109 11.090
usemtl roof
f 35 36 37 38 39 40 41 42
usemtl teaching_building
f 34 33 32 31 30 29 28 27
f 27 28 36 35
f 28 29 37 36
f 29 30 38 37
f 30 31 39 38
f 31 32 40 39
f 32 33 41 40
f 33 34 42 41
f 34 27 35 42
o SD0717_T002_2hao_seg02
v 30.399 0.930 0.000
v 31.256 -8.565 0.000
v -6.193 -11.881 0.000
v -5.832 -15.905 0.000
v -17.795 -16.955 0.000
v -19.148 -12.909 0.000
v -54.053 -16.016 0.000
v -55.055 -4.862 0.000
v -17.687 -1.557 0.000
v -19.969 23.779 0.000
v -57.563 20.441 0.000
v -58.366 29.383 0.000
v -10.172 33.661 0.000
v -6.924 -2.386 0.000
v 30.399 0.930 11.090
v 31.256 -8.565 11.090
v -6.193 -11.881 11.090
v -5.832 -15.905 11.090
v -17.795 -16.955 11.090
v -19.148 -12.909 11.090
v -54.053 -16.016 11.090
v -55.055 -4.862 11.090
v -17.687 -1.557 11.090
v -19.969 23.779 11.090
v -57.563 20.441 11.090
v -58.366 29.383 11.090
v -10.172 33.661 11.090
v -6.924 -2.386 11.090
usemtl roof
f 57 58 59 60 61 62 63 64 65 66 67 68 69 70
usemtl teaching_building
f 56 55 54 53 52 51 50 49 48 47 46 45 44 43
f 43 44 58 57
f 44 45 59 58
f 45 46 60 59
f 46 47 61 60
f 47 48 62 61
f 48 49 63 62
f 49 50 64 63
f 50 51 65 64
f 51 52 66 65
f 52 53 67 66
f 53 54 68 67
f 54 55 69 68
f 55 56 70 69
f 56 43 57 70
o SD0717_T002_2hao_seg03
v 17.597 77.501 0.000
v 42.145 78.485 0.000
v 43.129 15.577 0.000
v 18.968 14.637 0.000
v 17.597 77.501 11.090
v 42.145 78.485 11.090
v 43.129 15.577 11.090
v 18.968 14.637 11.090
usemtl roof
f 75 76 77 78
usemtl teaching_building
f 74 73 72 71
f 71 72 76 75
f 72 73 77 76
f 73 74 78 77
f 74 71 75 78
o SD0717_T002_2hao_seg04
v 44.049 -43.717 0.000
v 33.078 -43.827 0.000
v 30.751 14.814 0.000
v 43.129 15.577 0.000
v 44.049 -43.717 11.090
v 33.078 -43.827 11.090
v 30.751 14.814 11.090
v 43.129 15.577 11.090
usemtl roof
f 83 84 85 86
usemtl teaching_building
f 82 81 80 79
f 79 80 84 83
f 80 81 85 84
f 81 82 86 85
f 82 79 83 86
o SD0717_T003_3hao
v -33.276 -101.496 0.000
v -10.921 -100.335 0.000
v -11.426 -90.597 0.000
v 21.946 -88.883 0.000
v 23.353 -115.678 0.000
v 10.506 -116.342 0.000
v 10.082 -108.261 0.000
v -42.298 -110.980 0.000
v -42.975 -98.003 0.000
v -33.484 -97.506 0.000
v -33.276 -101.496 9.350
v -10.921 -100.335 9.350
v -11.426 -90.597 9.350
v 21.946 -88.883 9.350
v 23.353 -115.678 9.350
v 10.506 -116.342 9.350
v 10.082 -108.261 9.350
v -42.298 -110.980 9.350
v -42.975 -98.003 9.350
v -33.484 -97.506 9.350
usemtl roof
f 97 98 99 100 101 102 103 104 105 106
usemtl teaching_building
f 96 95 94 93 92 91 90 89 88 87
f 87 88 98 97
f 88 89 99 98
f 89 90 100 99
f 90 91 101 100
f 91 92 102 101
f 92 93 103 102
f 93 94 104 103
f 94 95 105 104
f 95 96 106 105
f 96 87 97 106
o SD0717_T003_3hao_seg02
v 29.298 -64.178 0.000
v 37.842 -64.111 0.000
v 37.878 -68.909 0.000
v 41.902 -68.876 0.000
v 42.290 -115.601 0.000
v 24.968 -115.745 0.000
v 24.616 -72.689 0.000
v 29.370 -72.645 0.000
v 29.298 -64.178 9.350
v 37.842 -64.111 9.350
v 37.878 -68.909 9.350
v 41.902 -68.876 9.350
v 42.290 -115.601 9.350
v 24.968 -115.745 9.350
v 24.616 -72.689 9.350
v 29.370 -72.645 9.350
usemtl roof
f 115 116 117 118 119 120 121 122
usemtl teaching_building
f 114 113 112 111 110 109 108 107
f 107 108 116 115
f 108 109 117 116
f 109 110 118 117
f 110 111 119 118
f 111 112 120 119
f 112 113 121 120
f 113 114 122 121
f 114 107 115 122
