# school_id SD0754
# school_name 威海市实验中学
# boundary_source footprint_convex_hull_buffer_20m
# adjacent_block_merge_distance_m 2.0
mtllib ../campus_materials.mtl
o SD0754_campus_boundary
usemtl campus_boundary
v -73.147 -91.018 0.050
v -97.482 -77.079 0.050
v -104.244 -50.572 0.050
v -98.382 -27.762 0.050
v -71.742 56.117 0.050
v 83.149 86.194 0.050
v 106.993 -13.242 0.050
v 114.794 -46.397 0.050
v -73.147 -91.018 0.050
l 1 2 3 4 5 6 7 8 9 1
o SD0754_T001_1hao
v -52.225 18.187 0.000
v -43.588 19.864 0.000
v -44.594 24.997 0.000
v -38.622 27.434 0.000
v -33.885 32.252 0.000
v -6.056 37.663 0.000
v -2.000 35.310 0.000
v 3.411 34.142 0.000
v 10.842 35.597 0.000
v 16.415 38.376 0.000
v 18.983 42.527 0.000
v 47.412 48.040 0.000
v 52.881 44.871 0.000
v 58.262 44.955 0.000
v 58.876 41.805 0.000
v 71.829 44.315 0.000
v 68.165 62.911 0.000
v -56.274 38.747 0.000
v -52.225 18.187 9.900
v -43.588 19.864 9.900
v -44.594 24.997 9.900
v -38.622 27.434 9.900
v -33.885 32.252 9.900
v -6.056 37.663 9.900
v -2.000 35.310 9.900
v 3.411 34.142 9.900
v 10.842 35.597 9.900
v 16.415 38.376 9.900
v 18.983 42.527 9.900
v 47.412 48.040 9.900
v 52.881 44.871 9.900
v 58.262 44.955 9.900
v 58.876 41.805 9.900
v 71.829 44.315 9.900
v 68.165 62.911 9.900
v -56.274 38.747 9.900
usemtl roof
f 28 29 30 31 32 33 34 35 36 37 38 39 40 41 42 43 44 45
usemtl teaching_building
f 27 26 25 24 23 22 21 20 19 18 17 16 15 14 13 12 11 10
f 10 11 29 28
f 11 12 30 29
f 12 13 31 30
f 13 14 32 31
f 14 15 33 32
f 15 16 34 33
f 16 17 35 34
f 17 18 36 35
f 18 19 37 36
f 19 20 38 37
f 20 21 39 38
f 21 22 40 39
f 22 23 41 40
f 23 24 42 41
f 24 25 43 42
f 25 26 44 43
f 26 27 45 44
f 27 10 28 45
o SD0754_T002_2hao
v 67.721 -22.432 0.000
v 54.258 32.641 0.000
v 73.871 37.422 0.000
v 87.534 -17.864 0.000
v 67.721 -22.432 9.900
v 54.258 32.641 9.900
v 73.871 37.422 9.900
v 87.534 -17.864 9.900
usemtl roof
f 50 51 52 53
usemtl teaching_building
f 49 48 47 46
f 46 47 51 50
f 47 48 52 51
f 48 49 53 52
f 49 46 50 53
o SD0754_T002_2hao_seg02
v 90.754 -31.549 0.000
v 25.008 -46.837 0.000
v 21.781 -33.152 0.000
v 87.534 -17.864 0.000
v 90.754 -31.549 9.900
v 25.008 -46.837 9.900
v 21.781 -33.152 9.900
v 87.534 -17.864 9.900
usemtl roof
f 58 59 60 61
usemtl teaching_building
f 57 56 55 54
f 54 55 59 58
f 55 56 60 59
f 56 57 61 60
f 57 54 58 61
o SD0754_T003_3hao
v -80.195 -63.932 0.000
v -70.070 -69.732 0.000
v -25.529 -58.539 0.000
v -28.119 -48.412 0.000
v -67.154 -58.224 0.000
v -69.974 -47.171 0.000
v -83.599 -50.590 0.000
v -80.195 -63.932 9.900
v -70.070 -69.732 9.900
v -25.529 -58.539 9.900
v -28.119 -48.412 9.900
v -67.154 -58.224 9.900
v -69.974 -47.171 9.900
v -83.599 -50.590 9.900
usemtl roof
f 69 70 71 72 73 74 75
usemtl teaching_building
f 68 67 66 65 64 63 62
f 62 63 70 69
f 63 64 71 70
f 64 65 72 71
f 65 66 73 72
f 66 67 74 73
f 67 68 75 74
f 68 62 69 75
