# school_id SD0735
# school_name 肥城市第一高级中学
# boundary_source footprint_convex_hull_buffer_20m
# adjacent_block_merge_distance_m 2.0
mtllib ../campus_materials.mtl
o SD0735_campus_boundary
usemtl campus_boundary
v 64.419 -83.455 0.050
v -79.131 -79.572 0.050
v -98.020 -15.607 0.050
v -98.020 4.095 0.050
v -22.030 159.454 0.050
v 57.208 160.508 0.050
v 131.288 2.169 0.050
v 131.232 -15.747 0.050
v 117.867 -83.230 0.050
v 64.419 -83.455 0.050
l 1 2 3 4 5 6 7 8 9 10 1
o SD0735_T001_1hao
v 44.564 140.338 0.000
v 44.789 124.232 0.000
v -9.252 123.503 0.000
v -9.467 139.619 0.000
v 44.564 140.338 9.420
v 44.789 124.232 9.420
v -9.252 123.503 9.420
v -9.467 139.619 9.420
usemtl roof
f 15 16 17 18
usemtl teaching_building
f 14 13 12 11
f 11 12 16 15
f 12 13 17 16
f 13 14 18 17
f 14 11 15 18
o SD0735_T002_2hao
v -38.375 31.578 0.000
v -38.393 26.603 0.000
v -26.370 26.559 0.000
v -26.361 29.566 0.000
v -8.218 29.511 0.000
v -8.209 32.307 0.000
v 9.825 32.252 0.000
v 9.852 40.553 0.000
v 21.974 40.520 0.000
v 21.947 32.274 0.000
v 40.646 32.219 0.000
v 40.637 28.195 0.000
v 59.624 28.140 0.000
v 59.615 25.807 0.000
v 72.016 25.763 0.000
v 72.034 30.450 0.000
v 82.439 30.417 0.000
v 82.385 15.118 0.000
v 51.151 15.240 0.000
v 51.169 20.314 0.000
v -24.590 20.612 0.000
v -24.608 16.953 0.000
v -52.473 17.053 0.000
v -52.419 31.622 0.000
v -38.375 31.578 19.800
v -38.393 26.603 19.800
v -26.370 26.559 19.800
v -26.361 29.566 19.800
v -8.218 29.511 19.800
v -8.209 32.307 19.800
v 9.825 32.252 19.800
v 9.852 40.553 19.800
v 21.974 40.520 19.800
v 21.947 32.274 19.800
v 40.646 32.219 19.800
v 40.637 28.195 19.800
v 59.624 28.140 19.800
v 59.615 25.807 19.800
v 72.016 25.763 19.800
v 72.034 30.450 19.800
v 82.439 30.417 19.800
v 82.385 15.118 19.800
v 51.151 15.240 19.800
v 51.169 20.314 19.800
v -24.590 20.612 19.800
v -24.608 16.953 19.800
v -52.473 17.053 19.800
v -52.419 31.622 19.800
usemtl roof
f 43 44 45 46 47 48 49 50 51 52 53 54 55 56 57 58 59 60 61 62 63 64 65 66
usemtl teaching_building
f 42 41 40 39 38 37 36 35 34 33 32 31 30 29 28 27 26 25 24 23 22 21 20 19
f 19 20 44 43
f 20 21 45 44
f 21 22 46 45
f 22 23 47 46
f 23 24 48 47
f 24 25 49 48
f 25 26 50 49
f 26 27 51 50
f 27 28 52 51
f 28 29 53 52
f 29 30 54 53
f 30 31 55 54
f 31 32 56 55
f 32 33 57 56
f 33 34 58 57
f 34 35 59 58
f 35 36 60 59
f 36 37 61 60
f 37 38 62 61
f 38 39 63 62
f 39 40 64 63
f 40 41 65 64
f 41 42 66 65
f 42 19 43 66
o SD0735_T003_3hao
v -78.020 -0.534 0.000
v -78.020 -12.716 0.000
v -20.691 -12.716 0.000
v -20.691 -0.523 0.000
v -78.020 -0.534 7.640
v -78.020 -12.716 7.640
v -20.691 -12.716 7.640
v -20.691 -0.523 7.640
usemtl roof
f 71 72 73 74
usemtl teaching_building
f 70 69 68 67
f 67 68 72 71
f 68 69 73 72
f 69 70 74 73
f 70 67 71 74
o SD0735_T004_4hao
v 63.299 5.501 0.000
v 63.272 -2.082 0.000
v 111.274 -2.248 0.000
v 111.238 -13.755 0.000
v 54.161 -13.578 0.000
v 54.215 5.534 0.000
v 63.299 5.501 8.570
v 63.272 -2.082 8.570
v 111.274 -2.248 8.570
v 111.238 -13.755 8.570
v 54.161 -13.578 8.570
v 54.215 5.534 8.570
usemtl roof
f 81 82 83 84 85 86
usemtl teaching_building
f 80 79 78 77 76 75
f 75 76 82 81
f 76 77 83 82
f 77 78 84 83
f 78 79 85 84
f 79 80 86 85
f 80 75 81 86
o SD0735_T005_5hao
v -34.115 -35.609 0.000
v -39.543 -39.853 0.000
v -46.731 -39.776 0.000
v -49.867 -37.941 0.000
v -52.204 -35.155 0.000
v -53.435 -31.751 0.000
v -53.435 -28.125 0.000
v -52.195 -24.720 0.000
v -47.262 -20.321 0.000
v -40.657 -19.702 0.000
v -34.978 -23.118 0.000
v -32.471 -29.219 0.000
v -34.115 -35.609 9.900
v -39.543 -39.853 9.900
v -46.731 -39.776 9.900
v -49.867 -37.941 9.900
v -52.204 -35.155 9.900
v -53.435 -31.751 9.900
v -53.435 -28.125 9.900
v -52.195 -24.720 9.900
v -47.262 -20.321 9.900
v -40.657 -19.702 9.900
v -34.978 -23.118 9.900
v -32.471 -29.219 9.900
usemtl roof
f 99 100 101 102 103 104 105 106 107 108 109 110
usemtl teaching_building
f 98 97 96 95 94 93 92 91 90 89 88 87
f 87 88 100 99
f 88 89 101 100
f 89 90 102 101
f 90 91 103 102
f 91 92 104 103
f 92 93 105 104
f 93 94 106 105
f 94 95 107 106
f 95 96 108 107
f 96 97 109 108
f 97 98 110 109
f 98 87 99 110
o SD0735_T006_6hao
v -19.612 -20.465 0.000
v -19.496 -49.382 0.000
v -29.811 -59.629 0.000
v -64.065 -59.972 0.000
v -64.182 -48.210 0.000
v -35.463 -47.912 0.000
v -29.569 -38.881 0.000
v -29.640 -20.509 0.000
v -19.612 -20.465 9.900
v -19.496 -49.382 9.900
v -29.811 -59.629 9.900
v -64.065 -59.972 9.900
v -64.182 -48.210 9.900
v -35.463 -47.912 9.900
v -29.569 -38.881 9.900
v -29.640 -20.509 9.900
usemtl roof
f 119 120 121 122 123 124 125 126
usemtl teaching_building
f 118 117 116 115 114 113 112 111
f 111 112 120 119
f 112 113 121 120
f 113 114 122 121
f 114 115 123 122
f 115 116 124 123
f 116 117 125 124
f 117 118 126 125
f 118 111 119 126
o SD0735_T007_7hao
v 101.300 -31.673 0.000
v 101.426 -63.299 0.000
v 64.647 -63.454 0.000
v 64.548 -40.108 0.000
v 67.990 -31.806 0.000
v 101.300 -31.673 11.100
v 101.426 -63.299 11.100
v 64.647 -63.454 11.100
v 64.548 -40.108 11.100
v 67.990 -31.806 11.100
usemtl roof
f 132 133 134 135 136
usemtl teaching_building
f 131 130 129 128 127
f 127 128 133 132
f 128 129 134 133
f 129 130 135 134
f 130 131 136 135
f 131 127 132 136
