# school_id SD0784
# school_name 宁波路学校
# boundary_source footprint_convex_hull_buffer_20m
# adjacent_block_merge_distance_m 2.0
mtllib ../campus_materials.mtl
o SD0784_campus_boundary
usemtl campus_boundary
v -49.582 -56.480 0.050
v -55.872 -21.400 0.050
v -61.005 12.061 0.050
v -66.660 50.808 0.050
v 23.642 63.814 0.050
v 44.250 32.018 0.050
v 50.887 -1.702 0.050
v 42.803 -44.496 0.050
v -16.400 -54.950 0.050
v -49.582 -56.480 0.050
l 1 2 3 4 5 6 7 8 9 10 1
o SD0784_T001_1hao
v 14.903 34.775 0.000
v 16.637 35.030 0.000
v 18.307 23.600 0.000
v -41.225 15.022 0.000
v -43.976 33.869 0.000
v 13.822 42.193 0.000
v 14.903 34.775 20.220
v 16.637 35.030 20.220
v 18.307 23.600 20.220
v -41.225 15.022 20.220
v -43.976 33.869 20.220
v 13.822 42.193 20.220
usemtl roof
f 17 18 19 20 21 22
usemtl teaching_building
f 16 15 14 13 12 11
f 11 12 18 17
f 12 13 19 18
f 13 14 20 19
f 14 15 21 20
f 15 16 22 21
f 16 11 17 22
o SD0784_T001_1hao_seg02
v 25.371 24.374 0.000
v 30.519 -1.780 0.000
v 16.074 -4.577 0.000
v 10.926 21.577 0.000
v 25.371 24.374 20.220
v 30.519 -1.780 20.220
v 16.074 -4.577 20.220
v 10.926 21.577 20.220
usemtl roof
f 27 28 29 30
usemtl teaching_building
f 26 25 24 23
f 23 24 28 27
f 24 25 29 28
f 25 26 30 29
f 26 23 27 30
o SD0784_T002_2hao
v -26.944 -16.493 0.000
v -27.234 -14.868 0.000
v 23.628 -5.892 0.000
v 25.916 -18.638 0.000
v 24.236 -18.936 0.000
v 25.716 -27.204 0.000
v -18.609 -35.031 0.000
v -18.936 -33.207 0.000
v -32.990 -35.694 0.000
v -36.141 -18.118 0.000
v -26.944 -16.493 32.220
v -27.234 -14.868 32.220
v 23.628 -5.892 32.220
v 25.916 -18.638 32.220
v 24.236 -18.936 32.220
v 25.716 -27.204 32.220
v -18.609 -35.031 32.220
v -18.936 -33.207 32.220
v -32.990 -35.694 32.220
v -36.141 -18.118 32.220
usemtl roof
f 41 42 43 44 45 46 47 48 49 50
usemtl teaching_building
f 40 39 38 37 36 35 34 33 32 31
f 31 32 42 41
f 32 33 43 42
f 33 34 44 43
f 34 35 45 44
f 35 36 46 45
f 36 37 47 46
f 37 38 48 47
f 38 39 49 48
f 39 40 50 49
f 40 31 41 50
