# school_id SD0758
# school_name 威海市码头小学
# boundary_source footprint_convex_hull_buffer_20m
# adjacent_block_merge_distance_m 2.0
mtllib ../campus_materials.mtl
o SD0758_campus_boundary
usemtl campus_boundary
v -79.246 -31.356 0.050
v -79.525 30.638 0.050
v -11.138 30.948 0.050
v 30.858 31.137 0.050
v 31.137 -30.857 0.050
v -79.246 -31.356 0.050
l 1 2 3 4 5 6 1
o SD0758_T001_1hao
v -59.435 10.729 0.000
v -11.047 10.948 0.000
v -11.047 10.948 0.000
v 10.948 11.047 0.000
v 11.047 -10.948 0.000
v -59.336 -11.266 0.000
v -59.435 10.729 21.030
v -11.047 10.948 21.030
v -11.047 10.948 21.030
v 10.948 11.047 21.030
v 11.047 -10.948 21.030
v -59.336 -11.266 21.030
usemtl roof
f 13 14 15 16 17 18
usemtl teaching_building
f 12 11 10 9 8 7
f 7 8 14 13
f 8 9 15 14
f 9 10 16 15
f 10 11 17 16
f 11 12 18 17
f 12 7 13 18
