# school_id SD0745
# school_name 乳山市第一中学
# boundary_source footprint_convex_hull_buffer_20m
# adjacent_block_merge_distance_m 2.0
mtllib ../campus_materials.mtl
o SD0745_campus_boundary
usemtl campus_boundary
v -91.880 -99.125 0.050
v -96.612 -57.694 0.050
v 23.392 113.187 0.050
v 87.367 121.777 0.050
v 98.538 33.745 0.050
v -27.127 -91.839 0.050
v -91.880 -99.125 0.050
l 1 2 3 4 5 6 7 1
o SD0745_T001_1hao
v 42.137 36.686 0.000
v 77.462 40.958 0.000
v 70.062 99.274 0.000
v 34.729 94.530 0.000
v 42.137 36.686 9.900
v 77.462 40.958 9.900
v 70.062 99.274 9.900
v 34.729 94.530 9.900
usemtl roof
f 12 13 14 15
usemtl teaching_building
f 11 10 9 8
f 8 9 13 12
f 9 10 14 13
f 10 11 15 14
f 11 8 12 15
o SD0745_T002_2hao
v -74.275 -77.018 0.000
v -36.316 -72.747 0.000
v -37.920 -58.710 0.000
v -75.879 -62.972 0.000
v -74.275 -77.018 9.900
v -36.316 -72.747 9.900
v -37.920 -58.710 9.900
v -75.879 -62.972 9.900
usemtl roof
f 20 21 22 23
usemtl teaching_building
f 19 18 17 16
f 16 17 21 20
f 17 18 22 21
f 18 19 23 22
f 19 16 20 23
