# school_id SD0777
# school_name 荣成市第六中学
# boundary_source footprint_convex_hull_buffer_20m
# adjacent_block_merge_distance_m 2.0
mtllib ../campus_materials.mtl
o SD0777_campus_boundary
usemtl campus_boundary
v -41.501 -239.113 0.050
v -80.403 -69.680 0.050
v -83.098 -57.507 0.050
v -102.709 35.719 0.050
v -108.723 68.398 0.050
v 63.573 141.202 0.050
v 136.049 155.003 0.050
v 149.110 87.313 0.050
v 102.925 -207.561 0.050
v -41.501 -239.113 0.050
l 1 2 3 4 5 6 7 8 9 10 1
o SD0777_T001_1hao
v 120.191 131.624 0.000
v 128.810 86.955 0.000
v 78.019 77.293 0.000
v 69.401 121.952 0.000
v 120.191 131.624 13.010
v 128.810 86.955 13.010
v 78.019 77.293 13.010
v 69.401 121.952 13.010
usemtl roof
f 15 16 17 18
usemtl teaching_building
f 14 13 12 11
f 11 12 16 15
f 12 13 17 16
f 13 14 18 17
f 14 11 15 18
o SD0777_T002_2hao
v -42.099 65.643 0.000
v -50.036 64.194 0.000
v -49.036 58.767 0.000
v -71.459 54.699 0.000
v -72.202 58.756 0.000
v -86.147 56.225 0.000
v -83.085 39.588 0.000
v -7.139 53.373 0.000
v -10.501 71.656 0.000
v -26.535 68.749 0.000
v -25.482 63.045 0.000
v -41.099 60.204 0.000
v -42.099 65.643 32.280
v -50.036 64.194 32.280
v -49.036 58.767 32.280
v -71.459 54.699 32.280
v -72.202 58.756 32.280
v -86.147 56.225 32.280
v -83.085 39.588 32.280
v -7.139 53.373 32.280
v -10.501 71.656 32.280
v -26.535 68.749 32.280
v -25.482 63.045 32.280
v -41.099 60.204 32.280
usemtl roof
f 31 32 33 34 35 36 37 38 39 40 41 42
usemtl teaching_building
f 30 29 28 27 26 25 24 23 22 21 20 19
f 19 20 32 31
f 20 21 33 32
f 21 22 34 33
f 22 23 35 34
f 23 24 36 35
f 24 25 37 36
f 25 26 38 37
f 26 27 39 38
f 27 28 40 39
f 28 29 41 40
f 29 30 42 41
f 30 19 31 42
o SD0777_T003_3hao
v 27.999 69.567 0.000
v 26.344 78.543 0.000
v 6.913 75.016 0.000
v 7.992 69.114 0.000
v 3.568 68.318 0.000
v 10.956 28.158 0.000
v 16.690 29.198 0.000
v 17.885 22.709 0.000
v 37.325 26.246 0.000
v 35.237 37.576 0.000
v 18.734 34.581 0.000
v 16.956 44.220 0.000
v 32.184 46.983 0.000
v 29.866 59.552 0.000
v 14.646 56.788 0.000
v 12.797 66.814 0.000
v 27.999 69.567 9.900
v 26.344 78.543 9.900
v 6.913 75.016 9.900
v 7.992 69.114 9.900
v 3.568 68.318 9.900
v 10.956 28.158 9.900
v 16.690 29.198 9.900
v 17.885 22.709 9.900
v 37.325 26.246 9.900
v 35.237 37.576 9.900
v 18.734 34.581 9.900
v 16.956 44.220 9.900
v 32.184 46.983 9.900
v 29.866 59.552 9.900
v 14.646 56.788 9.900
v 12.797 66.814 9.900
usemtl roof
f 59 60 61 62 63 64 65 66 67 68 69 70 71 72 73 74
usemtl teaching_building
f 58 57 56 55 54 53 52 51 50 49 48 47 46 45 44 43
f 43 44 60 59
f 44 45 61 60
f 45 46 62 61
f 46 47 63 62
f 47 48 64 63
f 48 49 65 64
f 49 50 66 65
f 50 51 67 66
f 51 52 68 67
f 52 53 69 68
f 53 54 70 69
f 54 55 71 70
f 55 56 72 71
f 56 57 73 72
f 57 58 74 73
f 58 43 59 74
o SD0777_T004_4hao
v 8.143 -35.015 0.000
v 7.700 -32.992 0.000
v 1.427 -34.363 0.000
v 2.427 -38.873 0.000
v -31.109 -46.191 0.000
v -32.180 -41.349 0.000
v -44.639 -44.079 0.000
v -43.559 -48.921 0.000
v -63.548 -53.287 0.000
v -60.893 -65.281 0.000
v -39.684 -60.649 0.000
v -39.409 -61.865 0.000
v -17.253 -55.752 0.000
v -16.863 -57.510 0.000
v 11.744 -51.253 0.000
v 11.116 -48.435 0.000
v 30.352 -44.223 0.000
v 30.839 -46.434 0.000
v 51.031 -42.023 0.000
v 47.572 -26.404 0.000
v 8.143 -35.015 17.070
v 7.700 -32.992 17.070
v 1.427 -34.363 17.070
v 2.427 -38.873 17.070
v -31.109 -46.191 17.070
v -32.180 -41.349 17.070
v -44.639 -44.079 17.070
v -43.559 -48.921 17.070
v -63.548 -53.287 17.070
v -60.893 -65.281 17.070
v -39.684 -60.649 17.070
v -39.409 -61.865 17.070
v -17.253 -55.752 17.070
v -16.863 -57.510 17.070
v 11.744 -51.253 17.070
v 11.116 -48.435 17.070
v 30.352 -44.223 17.070
v 30.839 -46.434 17.070
v 51.031 -42.023 17.070
v 47.572 -26.404 17.070
usemtl roof
f 95 96 97 98 99 100 101 102 103 104 105 106 107 108 109 110 111 112 113 114
usemtl teaching_building
f 94 93 92 91 90 89 88 87 86 85 84 83 82 81 80 79 78 77 76 75
f 75 76 96 95
f 76 77 97 96
f 77 78 98 97
f 78 79 99 98
f 79 80 100 99
f 80 81 101 100
f 81 82 102 101
f 82 83 103 102
f 83 84 104 103
f 84 85 105 104
f 85 86 106 105
f 86 87 107 106
f 87 88 108 107
f 88 89 109 108
f 89 90 110 109
f 90 91 111 110
f 91 92 112 111
f 92 93 113 112
f 93 94 114 113
f 94 75 95 114
o SD0777_T005_5hao
v 80.904 -171.145 0.000
v 4.771 -187.770 0.000
v -7.847 -130.798 0.000
v -43.444 -138.580 0.000
v -26.437 -215.350 0.000
v 85.284 -190.943 0.000
v 80.904 -171.145 14.820
v 4.771 -187.770 14.820
v -7.847 -130.798 14.820
v -43.444 -138.580 14.820
v -26.437 -215.350 14.820
v 85.284 -190.943 14.820
usemtl roof
f 121 122 123 124 125 126
usemtl teaching_building
f 120 119 118 117 116 115
f 115 116 122 121
f 116 117 123 122
f 117 118 124 123
f 118 119 125 124
f 119 120 126 125
f 120 115 121 126
