# school_id SD0764
# school_name 威海市第八中学
# boundary_source footprint_convex_hull_buffer_20m
# adjacent_block_merge_distance_m 2.0
mtllib ../campus_materials.mtl
o SD0764_campus_boundary
usemtl campus_boundary
v 0.005 -99.161 0.050
v -30.044 -82.792 0.050
v -54.108 -59.875 0.050
v -123.714 93.424 0.050
v -123.434 132.195 0.050
v -24.750 131.496 0.050
v 49.677 39.716 0.050
v 70.508 -9.802 0.050
v 70.331 -38.796 0.050
v 0.005 -99.161 0.050
l 1 2 3 4 5 6 7 8 9 10 1
o SD0764_T001_1hao
v -34.432 97.192 0.000
v -34.336 111.563 0.000
v -103.579 112.054 0.000
v -103.683 97.683 0.000
v -34.432 97.192 9.900
v -34.336 111.563 9.900
v -103.579 112.054 9.900
v -103.683 97.683 9.900
usemtl roof
f 15 16 17 18
usemtl teaching_building
f 14 13 12 11
f 11 12 16 15
f 12 13 17 16
f 13 14 18 17
f 14 11 15 18
o SD0764_T002_2hao
v -18.161 -66.490 0.000
v -14.964 -63.173 0.000
v -2.548 -74.995 0.000
v 19.036 -51.350 0.000
v 10.697 -43.410 0.000
v 23.490 -29.391 0.000
v 50.387 -29.558 0.000
v 50.483 -13.779 0.000
v 24.459 -13.631 0.000
v 24.482 -9.962 0.000
v 37.134 -10.036 0.000
v 37.268 12.007 0.000
v 24.615 12.081 0.000
v 24.637 15.759 0.000
v 32.273 15.713 0.000
v 32.347 29.333 0.000
v -17.147 29.620 0.000
v -17.229 16.491 0.000
v 19.354 16.287 0.000
v 19.176 -12.926 0.000
v 0.411 -33.218 0.000
v -12.360 -21.043 0.000
v -37.503 -48.070 0.000
v -18.161 -66.490 9.900
v -14.964 -63.173 9.900
v -2.548 -74.995 9.900
v 19.036 -51.350 9.900
v 10.697 -43.410 9.900
v 23.490 -29.391 9.900
v 50.387 -29.558 9.900
v 50.483 -13.779 9.900
v 24.459 -13.631 9.900
v 24.482 -9.962 9.900
v 37.134 -10.036 9.900
v 37.268 12.007 9.900
v 24.615 12.081 9.900
v 24.637 15.759 9.900
v 32.273 15.713 9.900
v 32.347 29.333 9.900
v -17.147 29.620 9.900
v -17.229 16.491 9.900
v 19.354 16.287 9.900
v 19.176 -12.926 9.900
v 0.411 -33.218 9.900
v -12.360 -21.043 9.900
v -37.503 -48.070 9.900
usemtl roof
f 42 43 44 45 46 47 48 49 50 51 52 53 54 55 56 57 58 59 60 61 62 63 64
usemtl teaching_building
f 41 40 39 38 37 36 35 34 33 32 31 30 29 28 27 26 25 24 23 22 21 20 19
f 19 20 43 42
f 20 21 44 43
f 21 22 45 44
f 22 23 46 45
f 23 24 47 46
f 24 25 48 47
f 25 26 49 48
f 26 27 50 49
f 27 28 51 50
f 28 29 52 51
f 29 30 53 52
f 30 31 54 53
f 31 32 55 54
f 32 33 56 55
f 33 34 57 56
f 34 35 58 57
f 35 36 59 58
f 36 37 60 59
f 37 38 61 60
f 38 39 62 61
f 39 40 63 62
f 40 41 64 63
f 41 19 42 64
