# school_id SD0730
# school_name 泰安市体育学校
# boundary_source footprint_convex_hull_buffer_20m
# adjacent_block_merge_distance_m 2.0
mtllib ../campus_materials.mtl
o SD0730_campus_boundary
usemtl campus_boundary
v 80.546 -85.029 0.050
v -16.010 -53.057 0.050
v -71.654 -34.285 0.050
v -39.691 64.192 0.050
v -26.848 101.757 0.050
v 40.629 78.987 0.050
v 95.168 -42.290 0.050
v 80.546 -85.029 0.050
l 1 2 3 4 5 6 7 8 1
o SD0730_T001_1hao
v 19.604 44.260 0.000
v 25.967 62.827 0.000
v -14.368 76.438 0.000
v -20.716 57.870 0.000
v 19.604 44.260 9.900
v 25.967 62.827 9.900
v -14.368 76.438 9.900
v -20.716 57.870 9.900
usemtl roof
f 13 14 15 16
usemtl teaching_building
f 12 11 10 9
f 9 10 14 13
f 10 11 15 14
f 11 12 16 15
f 12 9 13 16
o SD0730_T002_2hao
v 2.987 -0.353 0.000
v 11.729 25.182 0.000
v -12.192 33.252 0.000
v -20.934 7.717 0.000
v 2.987 -0.353 9.900
v 11.729 25.182 9.900
v -12.192 33.252 9.900
v -20.934 7.717 9.900
usemtl roof
f 21 22 23 24
usemtl teaching_building
f 20 19 18 17
f 17 18 22 21
f 18 19 23 22
f 19 20 24 23
f 20 17 21 24
o SD0730_T003_3hao
v 33.797 -6.033 0.000
v 38.526 7.773 0.000
v 17.112 15.000 0.000
v 12.384 1.194 0.000
v 33.797 -6.033 9.900
v 38.526 7.773 9.900
v 17.112 15.000 9.900
v 12.384 1.194 9.900
usemtl roof
f 29 30 31 32
usemtl teaching_building
f 28 27 26 25
f 25 26 30 29
f 26 27 31 30
f 27 28 32 31
f 28 25 29 32
o SD0730_T004_4hao
v -3.872 -17.179 0.000
v -9.670 -34.088 0.000
v -46.527 -21.654 0.000
v -40.744 -4.745 0.000
v -40.743 -4.745 0.000
v -38.568 1.611 0.000
v -1.704 -10.832 0.000
v -3.877 -17.177 0.000
v -3.872 -17.179 9.900
v -9.670 -34.088 9.900
v -46.527 -21.654 9.900
v -40.744 -4.745 9.900
v -40.743 -4.745 9.900
v -38.568 1.611 9.900
v -1.704 -10.832 9.900
v -3.877 -17.177 9.900
usemtl roof
f 41 42 43 44 45 46 47 48
usemtl teaching_building
f 40 39 38 37 36 35 34 33
f 33 34 42 41
f 34 35 43 42
f 35 36 44 43
f 36 37 45 44
f 37 38 46 45
f 38 39 47 46
f 39 40 48 47
f 40 33 41 48
o SD0730_T005_5hao
v 68.033 -59.818 0.000
v 73.688 -43.289 0.000
v 5.961 -20.468 0.000
v 0.321 -36.998 0.000
v 68.033 -59.818 9.900
v 73.688 -43.289 9.900
v 5.961 -20.468 9.900
v 0.321 -36.998 9.900
usemtl roof
f 53 54 55 56
usemtl teaching_building
f 52 51 50 49
f 49 50 54 53
f 50 51 55 54
f 51 52 56 55
f 52 49 53 56
