# school_id SD0757
# school_name 威海市田村小学
# boundary_source footprint_convex_hull_buffer_20m
# adjacent_block_merge_distance_m 2.0
mtllib ../campus_materials.mtl
o SD0757_campus_boundary
usemtl campus_boundary
v -40.821 -67.682 0.050
v -44.199 -23.046 0.050
v -46.317 50.408 0.050
v 6.860 54.401 0.050
v 70.217 30.612 0.050
v 73.431 -11.860 0.050
v -3.520 -64.914 0.050
v -40.821 -67.682 0.050
l 1 2 3 4 5 6 7 8 1
o SD0757_T001_1hao
v -24.583 16.152 0.000
v 5.151 18.367 0.000
v 3.959 34.127 0.000
v -25.775 31.894 0.000
v -24.583 16.152 9.900
v 5.151 18.367 9.900
v 3.959 34.127 9.900
v -25.775 31.894 9.900
usemtl roof
f 13 14 15 16
usemtl teaching_building
f 12 11 10 9
f 9 10 14 13
f 10 11 15 14
f 11 12 16 15
f 12 9 13 16
o SD0757_T002_2hao
v 17.439 -4.537 0.000
v 52.621 -1.915 0.000
v 51.237 16.375 0.000
v 16.054 13.743 0.000
v 17.439 -4.537 9.900
v 52.621 -1.915 9.900
v 51.237 16.375 9.900
v 16.054 13.743 9.900
usemtl roof
f 21 22 23 24
usemtl teaching_building
f 20 19 18 17
f 17 18 22 21
f 18 19 23 22
f 19 20 24 23
f 20 17 21 24
o SD0757_T003_3hao
v -23.059 -7.539 0.000
v 10.991 -5.000 0.000
v 9.637 12.808 0.000
v -24.413 10.260 0.000
v -23.059 -7.539 9.900
v 10.991 -5.000 9.900
v 9.637 12.808 9.900
v -24.413 10.260 9.900
usemtl roof
f 29 30 31 32
usemtl teaching_building
f 28 27 26 25
f 25 26 30 29
f 26 27 31 30
f 27 28 32 31
f 28 25 29 32
o SD0757_T004_4hao
v -22.385 -46.259 0.000
v -10.408 -45.370 0.000
v -12.244 -21.104 0.000
v -24.221 -22.002 0.000
v -22.385 -46.259 9.900
v -10.408 -45.370 9.900
v -12.244 -21.104 9.900
v -24.221 -22.002 9.900
usemtl roof
f 37 38 39 40
usemtl teaching_building
f 36 35 34 33
f 33 34 38 37
f 34 35 39 38
f 35 36 40 39
f 36 33 37 40
