# school_id SD0737
# school_name 西村小学
# boundary_source footprint_convex_hull_buffer_20m
# adjacent_block_merge_distance_m 2.0
mtllib ../campus_materials.mtl
o SD0737_campus_boundary
usemtl campus_boundary
v 69.801 -68.770 0.050
v -69.628 -65.423 0.050
v -69.155 -33.054 0.050
v -63.756 20.901 0.050
v 3.221 78.665 0.050
v 62.333 74.936 0.050
v 71.035 -36.621 0.050
v 69.801 -68.770 0.050
l 1 2 3 4 5 6 7 8 1
o SD0737_T001_1hao
v -3.678 9.067 0.000
v -4.129 -0.495 0.000
v -45.101 1.418 0.000
v -44.650 10.968 0.000
v -3.678 9.067 8.270
v -4.129 -0.495 8.270
v -45.101 1.418 8.270
v -44.650 10.968 8.270
usemtl roof
f 13 14 15 16
usemtl teaching_building
f 12 11 10 9
f 9 10 14 13
f 10 11 15 14
f 11 12 16 15
f 12 9 13 16
o SD0737_T002_2hao
v -3.173 -18.988 0.000
v -3.624 -28.550 0.000
v -44.596 -26.637 0.000
v -44.145 -17.087 0.000
v -3.173 -18.988 7.680
v -3.624 -28.550 7.680
v -44.596 -26.637 7.680
v -44.145 -17.087 7.680
usemtl roof
f 21 22 23 24
usemtl teaching_building
f 20 19 18 17
f 17 18 22 21
f 18 19 23 22
f 19 20 24 23
f 20 17 21 24
o SD0737_T003_3hao
v -6.294 -34.806 0.000
v -6.466 -46.524 0.000
v -49.341 -45.904 0.000
v -49.170 -34.198 0.000
v -6.294 -34.806 9.290
v -6.466 -46.524 9.290
v -49.341 -45.904 9.290
v -49.170 -34.198 9.290
usemtl roof
f 29 30 31 32
usemtl teaching_building
f 28 27 26 25
f 25 26 30 29
f 26 27 31 30
f 27 28 32 31
f 28 25 29 32
o SD0737_T004_4hao
v 51.005 -37.017 0.000
v 50.572 -48.303 0.000
v 7.282 -46.689 0.000
v 7.706 -35.414 0.000
v 51.005 -37.017 7.260
v 50.572 -48.303 7.260
v 7.282 -46.689 7.260
v 7.706 -35.414 7.260
usemtl roof
f 37 38 39 40
usemtl teaching_building
f 36 35 34 33
f 33 34 38 37
f 34 35 39 38
f 35 36 40 39
f 36 33 37 40
