# school_id SD0778
# school_name 蒲家泊小学
# boundary_source footprint_convex_hull_buffer_20m
# adjacent_block_merge_distance_m 2.0
mtllib ../campus_materials.mtl
o SD0778_campus_boundary
usemtl campus_boundary
v -18.588 -75.104 0.050
v -50.023 3.479 0.050
v -60.041 39.751 0.050
v -37.021 46.019 0.050
v 27.846 60.213 0.050
v 42.011 24.274 0.050
v 64.463 -50.299 0.050
v -18.588 -75.104 0.050
l 1 2 3 4 5 6 7 8 1
o SD0778_T001_1hao
v 37.049 -28.648 0.000
v 39.534 -36.872 0.000
v -6.805 -50.712 0.000
v -9.300 -42.488 0.000
v 37.049 -28.648 6.600
v 39.534 -36.872 6.600
v -6.805 -50.712 6.600
v -9.300 -42.488 6.600
usemtl roof
f 13 14 15 16
usemtl teaching_building
f 12 11 10 9
f 9 10 14 13
f 10 11 15 14
f 11 12 16 15
f 12 9 13 16
