# school_id SD0709
# school_name 力里联小
# boundary_source footprint_convex_hull_buffer_20m
# adjacent_block_merge_distance_m 2.0
mtllib ../campus_materials.mtl
o SD0709_campus_boundary
usemtl campus_boundary
v 60.576 -77.544 0.050
v 30.429 -73.919 0.050
v -62.736 -16.270 0.050
v -72.774 19.547 0.050
v -68.122 52.336 0.050
v 9.041 41.939 0.050
v 73.451 32.928 0.050
v 68.078 -29.907 0.050
v 60.576 -77.544 0.050
l 1 2 3 4 5 6 7 8 9 1
o SD0709_T001_1hao
v 6.320 22.125 0.000
v 51.909 15.747 0.000
v 50.637 6.771 0.000
v 5.048 13.160 0.000
v 6.320 22.125 8.640
v 51.909 15.747 8.640
v 50.637 6.771 8.640
v 5.048 13.160 8.640
usemtl roof
f 14 15 16 17
usemtl teaching_building
f 13 12 11 10
f 10 11 15 14
f 11 12 16 15
f 12 13 17 16
f 13 10 14 17
