# school_id SD0789
# school_name 山东省日照第一中学
# boundary_source footprint_convex_hull_buffer_20m
# adjacent_block_merge_distance_m 2.0
mtllib ../campus_materials.mtl
o SD0789_campus_boundary
usemtl campus_boundary
v -87.600 -119.600 0.050
v -95.475 73.073 0.050
v -13.892 82.580 0.050
v 88.406 84.868 0.050
v 92.643 -50.719 0.050
v -9.357 -116.637 0.050
v -87.600 -119.600 0.050
l 1 2 3 4 5 6 7 1
o SD0789_T001_1hao
v 69.035 64.430 0.000
v 69.371 52.713 0.000
v -12.164 46.379 0.000
v -12.508 62.606 0.000
v 69.035 64.430 17.810
v 69.371 52.713 17.810
v -12.164 46.379 17.810
v -12.508 62.606 17.810
usemtl roof
f 12 13 14 15
usemtl teaching_building
f 11 10 9 8
f 8 9 13 12
f 9 10 14 13
f 10 11 15 14
f 11 8 12 15
o SD0789_T002_2hao
v -71.949 -0.910 0.000
v -22.938 1.511 0.000
v -25.722 59.157 0.000
v -74.734 55.355 0.000
v -71.949 -0.910 16.570
v -22.938 1.511 16.570
v -25.722 59.157 16.570
v -74.734 55.355 16.570
usemtl roof
f 20 21 22 23
usemtl teaching_building
f 19 18 17 16
f 16 17 21 20
f 17 18 22 21
f 18 19 23 22
f 19 16 20 23
o SD0789_T003_3hao
v 70.205 23.607 0.000
v 70.577 10.475 0.000
v -12.164 8.066 0.000
v -11.810 19.108 0.000
v 70.205 23.607 13.130
v 70.577 10.475 13.130
v -12.164 8.066 13.130
v -11.810 19.108 13.130
usemtl roof
f 28 29 30 31
usemtl teaching_building
f 27 26 25 24
f 24 25 29 28
f 25 26 30 29
f 26 27 31 30
f 27 24 28 31
o SD0789_T004_4hao
v -2.178 -44.861 0.000
v 72.300 -40.053 0.000
v 70.759 -16.585 0.000
v -3.720 -21.404 0.000
v -2.178 -44.861 20.170
v 72.300 -40.053 20.170
v 70.759 -16.585 20.170
v -3.720 -21.404 20.170
usemtl roof
f 36 37 38 39
usemtl teaching_building
f 35 34 33 32
f 32 33 37 36
f 33 34 38 37
f 34 35 39 38
f 35 32 36 39
o SD0789_T005_5hao
v -68.431 -98.860 0.000
v -15.601 -96.859 0.000
v -17.750 -40.937 0.000
v -70.580 -42.938 0.000
v -68.431 -98.860 13.790
v -15.601 -96.859 13.790
v -17.750 -40.937 13.790
v -70.580 -42.938 13.790
usemtl roof
f 44 45 46 47
usemtl teaching_building
f 43 42 41 40
f 40 41 45 44
f 41 42 46 45
f 42 43 47 46
f 43 40 44 47
