# school_id SD0738
# school_name 过驾院小学
# boundary_source footprint_convex_hull_buffer_20m
# adjacent_block_merge_distance_m 2.0
mtllib ../campus_materials.mtl
o SD0738_campus_boundary
usemtl campus_boundary
v 28.409 -36.777 0.050
v -29.934 -35.541 0.050
v -28.417 36.777 0.050
v 29.941 35.541 0.050
v 28.409 -36.777 0.050
l 1 2 3 4 5 1
o SD0738_T001_1hao
v 8.837 -16.358 0.000
v 9.522 15.969 0.000
v -8.841 16.358 0.000
v -9.519 -15.969 0.000
v 8.837 -16.358 9.900
v 9.522 15.969 9.900
v -8.841 16.358 9.900
v -9.519 -15.969 9.900
usemtl roof
f 10 11 12 13
usemtl teaching_building
f 9 8 7 6
f 6 7 11 10
f 7 8 12 11
f 8 9 13 12
f 9 6 10 13
