# school_id SD0711
# school_name 大河学校
# boundary_source footprint_convex_hull_buffer_20m
# adjacent_block_merge_distance_m 2.0
mtllib ../campus_materials.mtl
o SD0711_campus_boundary
usemtl campus_boundary
v -61.989 -46.239 0.050
v -69.237 12.337 0.050
v -71.028 43.167 0.050
v -5.477 50.083 0.050
v 46.311 45.415 0.050
v 52.859 -2.644 0.050
v 46.901 -32.406 0.050
v 6.137 -38.659 0.050
v -61.989 -46.239 0.050
l 1 2 3 4 5 6 7 8 9 1
o SD0711_T001_1hao
v -49.955 25.279 0.000
v -5.324 29.988 0.000
v -6.187 18.425 0.000
v -49.308 14.147 0.000
v -49.955 25.279 12.620
v -5.324 29.988 12.620
v -6.187 18.425 12.620
v -49.308 14.147 12.620
usemtl roof
f 14 15 16 17
usemtl teaching_building
f 13 12 11 10
f 10 11 15 14
f 11 12 16 15
f 12 13 17 16
f 13 10 14 17
o SD0711_T002_2hao
v -0.582 -8.337 0.000
v 3.514 -18.827 0.000
v -44.566 -24.177 0.000
v -45.644 -12.183 0.000
v -0.582 -8.337 13.640
v 3.514 -18.827 13.640
v -44.566 -24.177 13.640
v -45.644 -12.183 13.640
usemtl roof
f 22 23 24 25
usemtl teaching_building
f 21 20 19 18
f 18 19 23 22
f 19 20 24 23
f 20 21 25 24
f 21 18 22 25
