# school_id SD0725
# school_name 泰安一中
# boundary_source footprint_convex_hull_buffer_20m
# adjacent_block_merge_distance_m 2.0
mtllib ../campus_materials.mtl
o SD0725_campus_boundary
usemtl campus_boundary
v -7.723 -53.511 0.050
v -25.054 -47.887 0.050
v -39.509 -36.800 0.050
v -49.378 -21.467 0.050
v -53.473 -3.696 0.050
v -51.318 14.259 0.050
v -43.942 29.492 0.050
v -32.285 41.554 0.050
v -17.463 49.401 0.050
v -0.933 52.281 0.050
v 15.682 49.900 0.050
v 30.734 42.498 0.050
v 42.744 30.802 0.050
v 50.526 15.925 0.050
v 53.273 -0.777 0.050
v 50.237 -18.606 0.050
v 41.272 -34.473 0.050
v 27.483 -46.391 0.050
v 10.500 -52.977 0.050
v -7.723 -53.511 0.050
l 1 2 3 4 5 6 7 8 9 10 11 12 13 14 15 16 17 18 19 20 1
o SD0725_T001_1hao
v -27.336 17.895 0.000
v -20.115 25.367 0.000
v -10.907 30.242 0.000
v -0.628 32.033 0.000
v 9.704 30.552 0.000
v 19.057 25.953 0.000
v 26.502 18.702 0.000
v 31.313 9.505 0.000
v 32.995 -0.720 0.000
v 31.107 -11.807 0.000
v 25.567 -21.612 0.000
v 17.024 -28.996 0.000
v 6.476 -33.086 0.000
v -4.846 -33.418 0.000
v -15.610 -29.925 0.000
v -24.575 -23.049 0.000
v -30.672 -13.576 0.000
v -33.199 -2.610 0.000
v -31.859 8.554 0.000
v -27.336 17.895 28.520
v -20.115 25.367 28.520
v -10.907 30.242 28.520
v -0.628 32.033 28.520
v 9.704 30.552 28.520
v 19.057 25.953 28.520
v 26.502 18.702 28.520
v 31.313 9.505 28.520
v 32.995 -0.720 28.520
v 31.107 -11.807 28.520
v 25.567 -21.612 28.520
v 17.024 -28.996 28.520
v 6.476 -33.086 28.520
v -4.846 -33.418 28.520
v -15.610 -29.925 28.520
v -24.575 -23.049 28.520
v -30.672 -13.576 28.520
v -33.199 -2.610 28.520
v -31.859 8.554 28.520
usemtl roof
f 40 41 42 43 44 45 46 47 48 49 50 51 52 53 54 55 56 57 58
usemtl teaching_building
f 39 38 37 36 35 34 33 32 31 30 29 28 27 26 25 24 23 22 21
f 21 22 41 40
f 22 23 42 41
f 23 24 43 42
f 24 25 44 43
f 25 26 45 44
f 26 27 46 45
f 27 28 47 46
f 28 29 48 47
f 29 30 49 48
f 30 31 50 49
f 31 32 51 50
f 32 33 52 51
f 33 34 53 52
f 34 35 54 53
f 35 36 55 54
f 36 37 56 55
f 37 38 57 56
f 38 39 58 57
f 39 21 40 58
