# school_id SD0766
# school_name 威海市经济技术开发区泊于学校
# boundary_source footprint_convex_hull_buffer_20m
# adjacent_block_merge_distance_m 2.0
mtllib ../campus_materials.mtl
o SD0766_campus_boundary
usemtl campus_boundary
v 46.597 -34.908 0.050
v -52.751 -24.641 0.050
v -46.597 34.908 0.050
v 52.751 24.641 0.050
v 46.597 -34.908 0.050
l 1 2 3 4 5 1
o SD0766_T001_1hao
v -28.759 12.958 0.000
v 30.801 6.803 0.000
v 28.759 -12.958 0.000
v -30.801 -6.803 0.000
v -28.759 12.958 15.530
v 30.801 6.803 15.530
v 28.759 -12.958 15.530
v -30.801 -6.803 15.530
usemtl roof
f 10 11 12 13
usemtl teaching_building
f 9 8 7 6
f 6 7 11 10
f 7 8 12 11
f 8 9 13 12
f 9 6 10 13
