# school_id SD0741
# school_name 龙山中学
# boundary_source footprint_convex_hull_buffer_20m
# adjacent_block_merge_distance_m 2.0
mtllib ../campus_materials.mtl
o SD0741_campus_boundary
usemtl campus_boundary
v 81.909 -145.529 0.050
v 6.506 -135.784 0.050
v -134.264 -113.612 0.050
v -141.023 -80.065 0.050
v -139.854 -70.849 0.050
v -133.036 -26.784 0.050
v -124.628 5.919 0.050
v 23.919 204.141 0.050
v 120.052 193.386 0.050
v 114.866 56.316 0.050
v 104.552 -17.459 0.050
v 81.909 -145.529 0.050
l 1 2 3 4 5 6 7 8 9 10 11 12 1
o SD0741_T001_1hao
v 88.509 90.913 0.000
v 76.888 92.207 0.000
v 79.893 118.706 0.000
v 26.284 124.694 0.000
v 28.303 141.927 0.000
v 94.532 134.455 0.000
v 92.584 117.288 0.000
v 91.505 117.409 0.000
v 88.509 90.913 9.400
v 76.888 92.207 9.400
v 79.893 118.706 9.400
v 26.284 124.694 9.400
v 28.303 141.927 9.400
v 94.532 134.455 9.400
v 92.584 117.288 9.400
v 91.505 117.409 9.400
usemtl roof
f 21 22 23 24 25 26 27 28
usemtl teaching_building
f 20 19 18 17 16 15 14 13
f 13 14 22 21
f 14 15 23 22
f 15 16 24 23
f 16 17 25 24
f 17 18 26 25
f 18 19 27 26
f 19 20 28 27
f 20 13 21 28
o SD0741_T001_1hao_seg02
v 31.035 165.915 0.000
v 33.064 182.993 0.000
v 99.364 175.576 0.000
v 97.417 158.409 0.000
v 43.106 164.550 0.000
v 40.366 140.579 0.000
v 28.303 141.927 0.000
v 31.035 165.915 9.400
v 33.064 182.993 9.400
v 99.364 175.576 9.400
v 97.417 158.409 9.400
v 43.106 164.550 9.400
v 40.366 140.579 9.400
v 28.303 141.927 9.400
usemtl roof
f 36 37 38 39 40 41 42
usemtl teaching_building
f 35 34 33 32 31 30 29
f 29 30 37 36
f 30 31 38 37
f 31 32 39 38
f 32 33 40 39
f 33 34 41 40
f 34 35 42 41
f 35 29 36 42
o SD0741_T001_1hao_seg03
v 21.262 80.898 0.000
v 23.219 98.076 0.000
v 89.519 90.659 0.000
v 87.572 73.492 0.000
v 21.262 80.898 9.400
v 23.219 98.076 9.400
v 89.519 90.659 9.400
v 87.572 73.492 9.400
usemtl roof
f 47 48 49 50
usemtl teaching_building
f 46 45 44 43
f 43 44 48 47
f 44 45 49 48
f 45 46 50 49
f 46 43 47 50
o SD0741_T002_2hao
v 39.474 -5.654 0.000
v 84.795 -14.332 0.000
v 94.919 58.083 0.000
v 47.984 63.334 0.000
v 39.474 -5.654 8.460
v 84.795 -14.332 8.460
v 94.919 58.083 8.460
v 47.984 63.334 8.460
usemtl roof
f 55 56 57 58
usemtl teaching_building
f 54 53 52 51
f 51 52 56 55
f 52 53 57 56
f 53 54 58 57
f 54 51 55 58
o SD0741_T003_3hao
v -40.007 -21.196 0.000
v -52.413 -19.605 0.000
v -51.160 -9.977 0.000
v -106.245 -2.902 0.000
v -109.932 -31.256 0.000
v -113.421 -30.813 0.000
v -114.503 -39.170 0.000
v -111.266 -39.579 0.000
v -115.702 -74.189 0.000
v -120.047 -73.637 0.000
v -120.769 -79.329 0.000
v -115.368 -80.004 0.000
v -117.406 -96.021 0.000
v -66.414 -102.410 0.000
v -65.071 -91.854 0.000
v -109.382 -86.316 0.000
v -108.742 -81.264 0.000
v -100.862 -82.248 0.000
v -98.897 -66.761 0.000
v -107.272 -65.722 0.000
v -106.704 -61.256 0.000
v -57.362 -67.402 0.000
v -55.676 -54.038 0.000
v -106.957 -47.660 0.000
v -106.055 -40.486 0.000
v -96.409 -41.679 0.000
v -95.408 -33.732 0.000
v -105.352 -32.494 0.000
v -104.405 -24.988 0.000
v -51.692 -31.488 0.000
v -50.907 -25.209 0.000
v -41.315 -26.392 0.000
v -44.209 -49.561 0.000
v 9.542 -56.171 0.000
v 12.427 -33.024 0.000
v 20.316 -33.986 0.000
v 19.603 -39.668 0.000
v 72.137 -46.123 0.000
v 71.317 -52.700 0.000
v 62.923 -51.661 0.000
v 61.652 -61.798 0.000
v 66.926 -62.450 0.000
v 66.737 -63.898 0.000
v 17.827 -57.730 0.000
v 15.781 -73.659 0.000
v 68.414 -80.313 0.000
v 67.287 -89.068 0.000
v 56.820 -87.741 0.000
v 55.007 -101.758 0.000
v 62.941 -102.764 0.000
v 62.418 -106.799 0.000
v 11.408 -100.221 0.000
v 9.344 -115.984 0.000
v 65.538 -123.247 0.000
v 77.772 -29.929 0.000
v 28.015 -23.496 0.000
v 26.825 -32.615 0.000
v 12.436 -31.057 0.000
v 13.734 -20.389 0.000
v -39.079 -14.033 0.000
v -40.007 -21.196 7.780
v -52.413 -19.605 7.780
v -51.160 -9.977 7.780
v -106.245 -2.902 7.780
v -109.932 -31.256 7.780
v -113.421 -30.813 7.780
v -114.503 -39.170 7.780
v -111.266 -39.579 7.780
v -115.702 -74.189 7.780
v -120.047 -73.637 7.780
v -120.769 -79.329 7.780
v -115.368 -80.004 7.780
v -117.406 -96.021 7.780
v -66.414 -102.410 7.780
v -65.071 -91.854 7.780
v -109.382 -86.316 7.780
v -108.742 -81.264 7.780
v -100.862 -82.248 7.780
v -98.897 -66.761 7.780
v -107.272 -65.722 7.780
v -106.704 -61.256 7.780
v -57.362 -67.402 7.780
v -55.676 -54.038 7.780
v -106.957 -47.660 7.780
v -106.055 -40.486 7.780
v -96.409 -41.679 7.780
v -95.408 -33.732 7.780
v -105.352 -32.494 7.780
v -104.405 -24.988 7.780
v -51.692 -31.488 7.780
v -50.907 -25.209 7.780
v -41.315 -26.392 7.780
v -44.209 -49.561 7.780
v 9.542 -56.171 7.780
v 12.427 -33.024 7.780
v 20.316 -33.986 7.780
v 19.603 -39.668 7.780
v 72.137 -46.123 7.780
v 71.317 -52.700 7.780
v 62.923 -51.661 7.780
v 61.652 -61.798 7.780
v 66.926 -62.450 7.780
v 66.737 -63.898 7.780
v 17.827 -57.730 7.780
v 15.781 -73.659 7.780
v 68.414 -80.313 7.780
v 67.287 -89.068 7.780
v 56.820 -87.741 7.780
v 55.007 -101.758 7.780
v 62.941 -102.764 7.780
v 62.418 -106.799 7.780
v 11.408 -100.221 7.780
v 9.344 -115.984 7.780
v 65.538 -123.247 7.780
v 77.772 -29.929 7.780
v 28.015 -23.496 7.780
v 26.825 -32.615 7.780
v 12.436 -31.057 7.780
v 13.734 -20.389 7.780
v -39.079 -14.033 7.780
usemtl roof
f 119 120 121 122 123 124 125 126 127 128 129 130 131 132 133 134 135 136 137 138 139 140 141 142 143 144 145 146 147 148 149 150 151 152 153 154 155 156 157 158 159 160 161 162 163 164 165 166 167 168 169 170 171 172 173 174 175 176 177 178
usemtl teaching_building
f 118 117 116 115 114 113 112 111 110 109 108 107 106 105 104 103 102 101 100 99 98 97 96 95 94 93 92 91 90 89 88 87 86 85 84 83 82 81 80 79 78 77 76 75 74 73 72 71 70 69 68 67 66 65 64 63 62 61 60 59
f 59 60 120 119
f 60 61 121 120
f 61 62 122 121
f 62 63 123 122
f 63 64 124 123
f 64 65 125 124
f 65 66 126 125
f 66 67 127 126
f 67 68 128 127
f 68 69 129 128
f 69 70 130 129
f 70 71 131 130
f 71 72 132 131
f 72 73 133 132
f 73 74 134 133
f 74 75 135 134
f 75 76 136 135
f 76 77 137 136
f 77 78 138 137
f 78 79 139 138
f 79 80 140 139
f 80 81 141 140
f 81 82 142 141
f 82 83 143 142
f 83 84 144 143
f 84 85 145 144
f 85 86 146 145
f 86 87 147 146
f 87 88 148 147
f 88 89 149 148
f 89 90 150 149
f 90 91 151 150
f 91 92 152 151
f 92 93 153 152
f 93 94 154 153
f 94 95 155 154
f 95 96 156 155
f 96 97 157 156
f 97 98 158 157
f 98 99 159 158
f 99 100 160 159
f 100 101 161 160
f 101 102 162 161
f 102 103 163 162
f 103 104 164 163
f 104 105 165 164
f 105 106 166 165
f 106 107 167 166
f 107 108 168 167
f 108 109 169 168
f 109 110 170 169
f 110 111 171 170
f 111 112 172 171
f 112 113 173 172
f 113 114 174 173
f 114 115 175 174
f 115 116 176 175
f 116 117 177 176
f 117 118 178 177
f 118 59 119 178
