# school_id SD0729
# school_name 泰安市东平县青峰山实验学校
# boundary_source footprint_convex_hull_buffer_20m
# adjacent_block_merge_distance_m 2.0
mtllib ../campus_materials.mtl
o SD0729_campus_boundary
usemtl campus_boundary
v -43.613 -66.823 0.050
v -72.161 34.062 0.050
v 43.613 66.823 0.050
v 72.161 -34.062 0.050
v -43.613 -66.823 0.050
l 1 2 3 4 5 1
o SD0729_T001_1hao
v 43.648 -6.756 0.000
v 47.471 -20.263 0.000
v -29.814 -42.133 0.000
v -47.471 20.263 0.000
v 29.814 42.133 0.000
v 33.636 28.626 0.000
v -30.142 10.578 0.000
v -20.130 -24.804 0.000
v 43.648 -6.756 16.900
v 47.471 -20.263 16.900
v -29.814 -42.133 16.900
v -47.471 20.263 16.900
v 29.814 42.133 16.900
v 33.636 28.626 16.900
v -30.142 10.578 16.900
v -20.130 -24.804 16.900
usemtl roof
f 14 15 16 17 18 19 20 21
usemtl teaching_building
f 13 12 11 10 9 8 7 6
f 6 7 15 14
f 7 8 16 15
f 8 9 17 16
f 9 10 18 17
f 10 11 19 18
f 11 12 20 19
f 12 13 21 20
f 13 6 14 21
