# school_id SD0708
# school_name 中化山东省泰安市钾盐地质勘察院行政楼
# boundary_source footprint_convex_hull_buffer_20m
# adjacent_block_merge_distance_m 2.0
mtllib ../campus_materials.mtl
o SD0708_campus_boundary
usemtl campus_boundary
v -31.816 -55.533 0.050
v -84.266 9.676 0.050
v -88.416 52.939 0.050
v 4.708 63.896 0.050
v 40.399 44.295 0.050
v 72.667 16.806 0.050
v 75.539 -13.623 0.050
v 77.873 -38.812 0.050
v 11.666 -51.382 0.050
v -31.816 -55.533 0.050
l 1 2 3 4 5 6 7 8 9 10 1
o SD0708_T001_1hao
v -54.562 4.853 0.000
v -35.432 6.974 0.000
v -35.718 10.412 0.000
v 1.458 14.970 0.000
v 0.690 43.285 0.000
v -12.033 41.516 0.000
v -11.272 27.358 0.000
v -56.482 22.605 0.000
v -54.562 4.853 9.900
v -35.432 6.974 9.900
v -35.718 10.412 9.900
v 1.458 14.970 9.900
v 0.690 43.285 9.900
v -12.033 41.516 9.900
v -11.272 27.358 9.900
v -56.482 22.605 9.900
usemtl roof
f 19 20 21 22 23 24 25 26
usemtl teaching_building
f 18 17 16 15 14 13 12 11
f 11 12 20 19
f 12 13 21 20
f 13 14 22 21
f 14 15 23 22
f 15 16 24 23
f 16 17 25 24
f 17 18 26 25
f 18 11 19 26
o SD0708_T002_2hao
v 14.189 -18.793 0.000
v 34.215 -16.458 0.000
v 28.983 27.747 0.000
v 8.964 25.412 0.000
v 14.189 -18.793 9.900
v 34.215 -16.458 9.900
v 28.983 27.747 9.900
v 8.964 25.412 9.900
usemtl roof
f 31 32 33 34
usemtl teaching_building
f 30 29 28 27
f 27 28 32 31
f 28 29 33 32
f 29 30 34 33
f 30 27 31 34
o SD0708_T003_3hao
v -22.987 -34.599 0.000
v 8.844 -31.560 0.000
v 8.083 -27.270 0.000
v -0.981 -28.660 0.000
v -1.598 -20.692 0.000
v -24.109 -23.166 0.000
v -22.987 -34.599 9.900
v 8.844 -31.560 9.900
v 8.083 -27.270 9.900
v -0.981 -28.660 9.900
v -1.598 -20.692 9.900
v -24.109 -23.166 9.900
usemtl roof
f 41 42 43 44 45 46
usemtl teaching_building
f 40 39 38 37 36 35
f 35 36 42 41
f 36 37 43 42
f 37 38 44 43
f 38 39 45 44
f 39 40 46 45
f 40 35 41 46
