# school_id SD0779
# school_name 蒿泊小学
# boundary_source footprint_convex_hull_buffer_20m
# adjacent_block_merge_distance_m 2.0
mtllib ../campus_materials.mtl
o SD0779_campus_boundary
usemtl campus_boundary
v -32.440 -43.977 0.050
v -47.845 26.690 0.050
v 32.440 43.977 0.050
v 47.845 -26.690 0.050
v -32.440 -43.977 0.050
l 1 2 3 4 5 1
o SD0779_T001_1hao
v -17.148 -20.226 0.000
v 24.033 -11.359 0.000
v 17.148 20.226 0.000
v -24.033 11.359 0.000
v -17.148 -20.226 9.900
v 24.033 -11.359 9.900
v 17.148 20.226 9.900
v -24.033 11.359 9.900
usemtl roof
f 10 11 12 13
usemtl teaching_building
f 9 8 7 6
f 6 7 11 10
f 7 8 12 11
f 8 9 13 12
f 9 6 10 13
