# school_id SD0756
# school_name 威海市普陀路小学
# boundary_source footprint_convex_hull_buffer_20m
# adjacent_block_merge_distance_m 2.0
mtllib ../campus_materials.mtl
o SD0756_campus_boundary
usemtl campus_boundary
v -50.913 -74.750 0.050
v -69.725 34.734 0.050
v -69.964 73.016 0.050
v -13.833 73.396 0.050
v 63.411 70.165 0.050
v 64.482 26.110 0.050
v 65.942 -71.277 0.050
v -50.913 -74.750 0.050
l 1 2 3 4 5 6 7 8 1
o SD0756_T001_1hao
v -49.736 36.502 0.000
v -14.079 36.733 0.000
v -14.183 53.393 0.000
v -49.840 53.152 0.000
v -49.736 36.502 9.900
v -14.079 36.733 9.900
v -14.183 53.393 9.900
v -49.840 53.152 9.900
usemtl roof
f 13 14 15 16
usemtl teaching_building
f 12 11 10 9
f 9 10 14 13
f 10 11 15 14
f 11 12 16 15
f 12 9 13 16
o SD0756_T002_2hao
v -4.395 24.540 0.000
v 44.486 25.717 0.000
v 43.872 50.965 0.000
v -5.002 49.788 0.000
v -4.395 24.540 9.900
v 44.486 25.717 9.900
v 43.872 50.965 9.900
v -5.002 49.788 9.900
usemtl roof
f 21 22 23 24
usemtl teaching_building
f 20 19 18 17
f 17 18 22 21
f 18 19 23 22
f 19 20 24 23
f 20 17 21 24
o SD0756_T003_3hao
v -36.742 -18.127 0.000
v -4.580 -17.172 0.000
v -3.943 -38.353 0.000
v -34.595 -39.261 0.000
v -34.144 -54.243 0.000
v 45.649 -51.871 0.000
v 45.197 -36.889 0.000
v 13.027 -37.843 0.000
v 12.390 -16.672 0.000
v 42.124 -15.783 0.000
v 41.680 -1.116 0.000
v -37.187 -3.460 0.000
v -36.742 -18.127 9.900
v -4.580 -17.172 9.900
v -3.943 -38.353 9.900
v -34.595 -39.261 9.900
v -34.144 -54.243 9.900
v 45.649 -51.871 9.900
v 45.197 -36.889 9.900
v 13.027 -37.843 9.900
v 12.390 -16.672 9.900
v 42.124 -15.783 9.900
v 41.680 -1.116 9.900
v -37.187 -3.460 9.900
usemtl roof
f 37 38 39 40 41 42 43 44 45 46 47 48
usemtl teaching_building
f 36 35 34 33 32 31 30 29 28 27 26 25
f 25 26 38 37
f 26 27 39 38
f 27 28 40 39
f 28 29 41 40
f 29 30 42 41
f 30 31 43 42
f 31 32 44 43
f 32 33 45 44
f 33 34 46 45
f 34 35 47 46
f 35 36 48 47
f 36 25 37 48
