# school_id SD0774
# school_name 神道口中学
# boundary_source footprint_convex_hull_buffer_20m
# adjacent_block_merge_distance_m 2.0
mtllib ../campus_materials.mtl
o SD0774_campus_boundary
usemtl campus_boundary
v 36.265 -204.440 0.050
v -36.056 -187.121 0.050
v -153.365 -74.310 0.050
v -159.885 -44.600 0.050
v -112.711 151.231 0.050
v 85.989 114.931 0.050
v 144.220 101.206 0.050
v 118.434 -6.712 0.050
v 36.265 -204.440 0.050
l 1 2 3 4 5 6 7 8 9 1
o SD0774_T001_1hao
v 35.322 25.478 0.000
v 44.677 64.624 0.000
v 96.178 52.496 0.000
v 89.214 23.338 0.000
v 45.950 33.520 0.000
v 41.102 13.220 0.000
v 99.353 -0.511 0.000
v 120.105 86.342 0.000
v 81.895 95.348 0.000
v 77.417 76.614 0.000
v 8.495 92.847 0.000
v -5.307 35.049 0.000
v 35.322 25.478 9.900
v 44.677 64.624 9.900
v 96.178 52.496 9.900
v 89.214 23.338 9.900
v 45.950 33.520 9.900
v 41.102 13.220 9.900
v 99.353 -0.511 9.900
v 120.105 86.342 9.900
v 81.895 95.348 9.900
v 77.417 76.614 9.900
v 8.495 92.847 9.900
v -5.307 35.049 9.900
usemtl roof
f 22 23 24 25 26 27 28 29 30 31 32 33
usemtl teaching_building
f 21 20 19 18 17 16 15 14 13 12 11 10
f 10 11 23 22
f 11 12 24 23
f 12 13 25 24
f 13 14 26 25
f 14 15 27 26
f 15 16 28 27
f 16 17 29 28
f 17 18 30 29
f 18 19 31 30
f 19 20 32 31
f 20 21 33 32
f 21 10 22 33
o SD0774_T002_2hao
v -129.935 -47.042 0.000
v -88.269 125.915 0.000
v -97.697 128.157 0.000
v -139.363 -44.809 0.000
v -129.935 -47.042 9.900
v -88.269 125.915 9.900
v -97.697 128.157 9.900
v -139.363 -44.809 9.900
usemtl roof
f 38 39 40 41
usemtl teaching_building
f 37 36 35 34
f 34 35 39 38
f 35 36 40 39
f 36 37 41 40
f 37 34 38 41
o SD0774_T003_3hao
v -26.111 -168.937 0.000
v 24.340 -181.019 0.000
v 40.000 -117.607 0.000
v -32.564 -99.854 0.000
v -26.732 -77.479 0.000
v -122.941 -51.591 0.000
v -135.130 -64.099 0.000
v -26.111 -168.937 9.900
v 24.340 -181.019 9.900
v 40.000 -117.607 9.900
v -32.564 -99.854 9.900
v -26.732 -77.479 9.900
v -122.941 -51.591 9.900
v -135.130 -64.099 9.900
usemtl roof
f 49 50 51 52 53 54 55
usemtl teaching_building
f 48 47 46 45 44 43 42
f 42 43 50 49
f 43 44 51 50
f 44 45 52 51
f 45 46 53 52
f 46 47 54 53
f 47 48 55 54
f 48 42 49 55
