# school_id SD0780
# school_name 高区沈阳路小学
# boundary_source footprint_convex_hull_buffer_20m
# adjacent_block_merge_distance_m 2.0
mtllib ../campus_materials.mtl
o SD0780_campus_boundary
usemtl campus_boundary
v -70.519 -70.495 0.050
v -70.519 -25.631 0.050
v 59.088 249.188 0.050
v 99.708 250.940 0.050
v 110.065 14.203 0.050
v 8.826 -70.495 0.050
v -70.519 -70.495 0.050
l 1 2 3 4 5 6 7 1
o SD0780_T001_1hao
v 81.074 22.841 0.000
v 89.652 23.202 0.000
v 80.601 230.097 0.000
v 72.023 229.727 0.000
v 81.074 22.841 9.900
v 89.652 23.202 9.900
v 80.601 230.097 9.900
v 72.023 229.727 9.900
usemtl roof
f 12 13 14 15
usemtl teaching_building
f 11 10 9 8
f 8 9 13 12
f 9 10 14 13
f 10 11 15 14
f 11 8 12 15
o SD0780_T002_2hao
v 1.563 -50.495 0.000
v 1.563 -30.111 0.000
v -2.493 -30.111 0.000
v -2.493 -35.299 0.000
v -6.904 -35.299 0.000
v -6.904 -39.441 0.000
v -30.691 -39.441 0.000
v -30.691 -35.299 0.000
v -34.170 -35.299 0.000
v -34.170 -32.177 0.000
v -38.462 -32.177 0.000
v -38.462 -30.111 0.000
v -50.519 -30.111 0.000
v -50.519 -50.495 0.000
v 1.563 -50.495 9.900
v 1.563 -30.111 9.900
v -2.493 -30.111 9.900
v -2.493 -35.299 9.900
v -6.904 -35.299 9.900
v -6.904 -39.441 9.900
v -30.691 -39.441 9.900
v -30.691 -35.299 9.900
v -34.170 -35.299 9.900
v -34.170 -32.177 9.900
v -38.462 -32.177 9.900
v -38.462 -30.111 9.900
v -50.519 -30.111 9.900
v -50.519 -50.495 9.900
usemtl roof
f 30 31 32 33 34 35 36 37 38 39 40 41 42 43
usemtl teaching_building
f 29 28 27 26 25 24 23 22 21 20 19 18 17 16
f 16 17 31 30
f 17 18 32 31
f 18 19 33 32
f 19 20 34 33
f 20 21 35 34
f 21 22 36 35
f 22 23 37 36
f 23 24 38 37
f 24 25 39 38
f 25 26 40 39
f 26 27 41 40
f 27 28 42 41
f 28 29 43 42
f 29 16 30 43
