# school_id SD0785
# school_name 山东外国语职业技术大学
# boundary_source footprint_convex_hull_buffer_20m
# adjacent_block_merge_distance_m 2.0
mtllib ../campus_materials.mtl
o SD0785_campus_boundary
usemtl campus_boundary
v 107.722 -453.007 0.050
v 17.249 -446.671 0.050
v -20.599 -441.407 0.050
v -225.293 -376.661 0.050
v -403.206 -54.203 0.050
v -392.887 31.692 0.050
v -343.854 83.456 0.050
v -38.648 373.202 0.050
v -3.812 375.441 0.050
v 55.816 368.524 0.050
v 95.673 357.525 0.050
v 310.876 248.174 0.050
v 332.381 196.211 0.050
v 317.766 -319.493 0.050
v 310.064 -383.517 0.050
v 107.722 -453.007 0.050
l 1 2 3 4 5 6 7 8 9 10 11 12 13 14 15 16 1
o SD0785_T001_1hao
v 50.370 328.599 0.000
v 51.981 348.835 0.000
v -4.327 355.367 0.000
v -6.896 335.928 0.000
v 50.370 328.599 7.410
v 51.981 348.835 7.410
v -4.327 355.367 7.410
v -6.896 335.928 7.410
usemtl roof
f 21 22 23 24
usemtl teaching_building
f 20 19 18 17
f 17 18 22 21
f 18 19 23 22
f 19 20 24 23
f 20 17 21 24
o SD0785_T002_2hao
v 82.704 326.385 0.000
v 115.303 309.568 0.000
v 121.230 320.714 0.000
v 88.410 338.782 0.000
v 58.995 342.154 0.000
v 57.506 329.544 0.000
v 82.704 326.385 7.410
v 115.303 309.568 7.410
v 121.230 320.714 7.410
v 88.410 338.782 7.410
v 58.995 342.154 7.410
v 57.506 329.544 7.410
usemtl roof
f 31 32 33 34 35 36
usemtl teaching_building
f 30 29 28 27 26 25
f 25 26 32 31
f 26 27 33 32
f 27 28 34 33
f 28 29 35 34
f 29 30 36 35
f 30 25 31 36
o SD0785_T003_3hao
v -56.585 293.381 0.000
v -55.954 304.111 0.000
v -23.773 340.042 0.000
v -15.733 338.782 0.000
v -14.464 351.818 0.000
v -30.133 353.708 0.000
v -69.078 308.938 0.000
v -70.567 295.068 0.000
v -56.585 293.381 7.410
v -55.954 304.111 7.410
v -23.773 340.042 7.410
v -15.733 338.782 7.410
v -14.464 351.818 7.410
v -30.133 353.708 7.410
v -69.078 308.938 7.410
v -70.567 295.068 7.410
usemtl roof
f 45 46 47 48 49 50 51 52
usemtl teaching_building
f 44 43 42 41 40 39 38 37
f 37 38 46 45
f 38 39 47 46
f 39 40 48 47
f 40 41 49 48
f 41 42 50 49
f 42 43 51 50
f 43 44 52 51
f 44 37 45 52
o SD0785_T004_4hao
v 166.528 284.135 0.000
v 171.824 295.068 0.000
v 137.523 312.505 0.000
v 132.021 302.637 0.000
v 166.528 284.135 7.410
v 171.824 295.068 7.410
v 137.523 312.505 7.410
v 132.021 302.637 7.410
usemtl roof
f 57 58 59 60
usemtl teaching_building
f 56 55 54 53
f 53 54 58 57
f 54 55 59 58
f 55 56 60 59
f 56 53 57 60
o SD0785_T005_5hao
v 4.419 273.730 0.000
v 6.646 293.974 0.000
v -48.378 300.627 0.000
v -50.894 281.494 0.000
v 4.419 273.730 7.410
v 6.646 293.974 7.410
v -48.378 300.627 7.410
v -50.894 281.494 7.410
usemtl roof
f 65 66 67 68
usemtl teaching_building
f 64 63 62 61
f 61 62 66 65
f 62 63 67 66
f 63 64 68 67
f 64 61 65 68
o SD0785_T006_6hao
v 78.995 261.527 0.000
v 81.222 284.542 0.000
v 23.409 292.038 0.000
v 20.894 270.959 0.000
v 78.995 261.527 7.410
v 81.222 284.542 7.410
v 23.409 292.038 7.410
v 20.894 270.959 7.410
usemtl roof
f 73 74 75 76
usemtl teaching_building
f 72 71 70 69
f 69 70 74 73
f 70 71 75 74
f 71 72 76 75
f 72 69 73 76
o SD0785_T007_7hao
v 204.690 234.908 0.000
v 206.369 249.612 0.000
v 92.119 265.419 0.000
v 89.892 249.612 0.000
v 204.690 234.908 7.410
v 206.369 249.612 7.410
v 92.119 265.419 7.410
v 89.892 249.612 7.410
usemtl roof
f 81 82 83 84
usemtl teaching_building
f 80 79 78 77
f 77 78 82 81
f 78 79 83 82
f 79 80 84 83
f 80 77 81 84
o SD0785_T008_8hao
v -66.441 224.947 0.000
v -64.108 245.554 0.000
v -122.111 252.484 0.000
v -124.444 233.147 0.000
v -66.441 224.947 6.600
v -64.108 245.554 6.600
v -122.111 252.484 6.600
v -124.444 233.147 6.600
usemtl roof
f 89 90 91 92
usemtl teaching_building
f 88 87 86 85
f 85 86 90 89
f 86 87 91 90
f 87 88 92 91
f 88 85 89 92
o SD0785_T009_9hao
v 271.728 227.180 0.000
v 270.884 219.611 0.000
v 293.529 217.090 0.000
v 295.224 233.694 0.000
v 238.915 259.757 0.000
v 232.783 246.304 0.000
v 271.728 227.180 6.600
v 270.884 219.611 6.600
v 293.529 217.090 6.600
v 295.224 233.694 6.600
v 238.915 259.757 6.600
v 232.783 246.304 6.600
usemtl roof
f 99 100 101 102 103 104
usemtl teaching_building
f 98 97 96 95 94 93
f 93 94 100 99
f 94 95 101 100
f 95 96 102 101
f 96 97 103 102
f 97 98 104 103
f 98 93 99 104
o SD0785_T010_10hao
v 10.400 214.644 0.000
v 12.520 235.037 0.000
v -49.298 242.811 0.000
v -51.410 223.270 0.000
v 10.400 214.644 6.600
v 12.520 235.037 6.600
v -49.298 242.811 6.600
v -51.410 223.270 6.600
usemtl roof
f 109 110 111 112
usemtl teaching_building
f 108 107 106 105
f 105 106 110 109
f 106 107 111 110
f 107 108 112 111
f 108 105 109 112
o SD0785_T011_11hao
v 79.558 197.466 0.000
v 81.784 216.331 0.000
v 29.557 222.427 0.000
v 27.041 204.128 0.000
v 79.558 197.466 6.600
v 81.784 216.331 6.600
v 29.557 222.427 6.600
v 27.041 204.128 6.600
usemtl roof
f 117 118 119 120
usemtl teaching_building
f 116 115 114 113
f 113 114 118 117
f 114 115 119 118
f 115 116 120 119
f 116 113 117 120
o SD0785_T012_12hao
v 310.368 180.520 0.000
v 312.268 192.509 0.000
v 123.662 218.786 0.000
v 121.747 206.380 0.000
v 310.368 180.520 6.600
v 312.268 192.509 6.600
v 123.662 218.786 6.600
v 121.747 206.380 6.600
usemtl roof
f 125 126 127 128
usemtl teaching_building
f 124 123 122 121
f 121 122 126 125
f 122 123 127 126
f 123 124 128 127
f 124 121 125 128
o SD0785_T013_13hao
v -76.039 174.498 0.000
v -73.455 195.354 0.000
v -128.745 202.321 0.000
v -131.503 181.271 0.000
v -76.039 174.498 6.600
v -73.455 195.354 6.600
v -128.745 202.321 6.600
v -131.503 181.271 6.600
usemtl roof
f 133 134 135 136
usemtl teaching_building
f 132 131 130 129
f 129 130 134 133
f 130 131 135 134
f 131 132 136 135
f 132 129 133 136
o SD0785_T014_14hao
v -4.168 164.806 0.000
v -1.584 185.301 0.000
v -54.663 191.703 0.000
v -57.056 171.570 0.000
v -4.168 164.806 6.600
v -1.584 185.301 6.600
v -54.663 191.703 6.600
v -57.056 171.570 6.600
usemtl roof
f 141 142 143 144
usemtl teaching_building
f 140 139 138 137
f 137 138 142 141
f 138 139 143 142
f 139 140 144 143
f 140 137 141 144
o SD0785_T015_15hao
v 176.581 160.970 0.000
v 178.481 174.840 0.000
v 116.466 184.300 0.000
v 114.771 172.107 0.000
v 176.581 160.970 6.600
v 178.481 174.840 6.600
v 116.466 184.300 6.600
v 114.771 172.107 6.600
usemtl roof
f 149 150 151 152
usemtl teaching_building
f 148 147 146 145
f 145 146 150 149
f 146 147 151 150
f 147 148 152 151
f 148 145 149 152
o SD0785_T016_16hao
v 73.691 145.608 0.000
v 76.199 165.853 0.000
v 21.175 172.784 0.000
v 18.379 151.983 0.000
v 73.691 145.608 6.600
v 76.199 165.853 6.600
v 21.175 172.784 6.600
v 18.379 151.983 6.600
usemtl roof
f 157 158 159 160
usemtl teaching_building
f 156 155 154 153
f 153 154 158 157
f 154 155 159 158
f 155 156 160 159
f 156 153 157 160
o SD0785_T017_17hao
v -83.919 123.047 0.000
v -81.487 142.838 0.000
v -135.956 150.324 0.000
v -138.388 131.015 0.000
v -83.919 123.047 6.600
v -81.487 142.838 6.600
v -135.956 150.324 6.600
v -138.388 131.015 6.600
usemtl roof
f 165 166 167 168
usemtl teaching_building
f 164 163 162 161
f 161 162 166 165
f 162 163 167 166
f 163 164 168 167
f 164 161 165 168
o SD0785_T018_18hao
v 174.248 125.030 0.000
v 176.581 138.909 0.000
v 114.346 147.304 0.000
v 112.644 133.220 0.000
v 174.248 125.030 6.600
v 176.581 138.909 6.600
v 114.346 147.304 6.600
v 112.644 133.220 6.600
usemtl roof
f 173 174 175 176
usemtl teaching_building
f 172 171 170 169
f 169 170 174 173
f 170 171 175 174
f 171 172 176 175
f 172 169 173 176
o SD0785_T019_19hao
v 67.544 94.843 0.000
v 70.059 113.152 0.000
v 17.261 120.916 0.000
v 14.754 101.496 0.000
v 67.544 94.843 6.600
v 70.059 113.152 6.600
v 17.261 120.916 6.600
v 14.754 101.496 6.600
usemtl roof
f 181 182 183 184
usemtl teaching_building
f 180 179 178 177
f 177 178 182 181
f 178 179 183 182
f 179 180 184 183
f 180 177 181 184
o SD0785_T020_20hao
v 156.900 90.553 0.000
v 158.268 102.219 0.000
v 108.206 109.686 0.000
v 106.937 99.383 0.000
v 156.900 90.553 6.600
v 158.268 102.219 6.600
v 108.206 109.686 6.600
v 106.937 99.383 6.600
usemtl roof
f 189 190 191 192
usemtl teaching_building
f 188 187 186 185
f 185 186 190 189
f 186 187 191 190
f 187 188 192 191
f 188 185 189 192
o SD0785_T021_21hao
v 226.749 78.360 0.000
v 228.444 91.397 0.000
v 164.088 99.810 0.000
v 162.181 88.450 0.000
v 226.749 78.360 6.600
v 228.444 91.397 6.600
v 164.088 99.810 6.600
v 162.181 88.450 6.600
usemtl roof
f 197 198 199 200
usemtl teaching_building
f 196 195 194 193
f 193 194 198 197
f 194 195 199 198
f 195 196 200 199
f 196 193 197 200
o SD0785_T022_22hao
v 280.094 77.313 0.000
v 281.158 90.980 0.000
v 236.279 95.594 0.000
v 235.427 83.410 0.000
v 280.094 77.313 6.600
v 281.158 90.980 6.600
v 236.279 95.594 6.600
v 235.427 83.410 6.600
usemtl roof
f 205 206 207 208
usemtl teaching_building
f 204 203 202 201
f 201 202 206 205
f 202 203 207 206
f 203 204 208 207
f 204 201 205 208
o SD0785_T023_23hao
v -89.755 61.470 0.000
v -85.872 92.138 0.000
v -139.125 98.411 0.000
v -143.008 68.224 0.000
v -89.755 61.470 6.600
v -85.872 92.138 6.600
v -139.125 98.411 6.600
v -143.008 68.224 6.600
usemtl roof
f 213 214 215 216
usemtl teaching_building
f 212 211 210 209
f 209 210 214 213
f 210 211 215 214
f 211 212 216 215
f 212 209 213 216
o SD0785_T024_24hao
v 264.645 36.740 0.000
v 265.914 52.084 0.000
v 134.453 68.483 0.000
v 132.545 53.974 0.000
v 264.645 36.740 6.600
v 265.914 52.084 6.600
v 134.453 68.483 6.600
v 132.545 53.974 6.600
usemtl roof
f 221 222 223 224
usemtl teaching_building
f 220 219 218 217
f 217 218 222 221
f 218 219 223 222
f 219 220 224 223
f 220 217 221 224
o SD0785_T025_25hao
v -280.823 43.245 0.000
v -281.545 36.249 0.000
v -218.808 27.317 0.000
v -216.384 48.072 0.000
v -270.602 53.390 0.000
v -269.637 61.590 0.000
v -329.699 69.317 0.000
v -331.880 50.008 0.000
v -280.823 43.245 6.600
v -281.545 36.249 6.600
v -218.808 27.317 6.600
v -216.384 48.072 6.600
v -270.602 53.390 6.600
v -269.637 61.590 6.600
v -329.699 69.317 6.600
v -331.880 50.008 6.600
usemtl roof
f 233 234 235 236 237 238 239 240
usemtl teaching_building
f 232 231 230 229 228 227 226 225
f 225 226 234 233
f 226 227 235 234
f 227 228 236 235
f 228 229 237 236
f 229 230 238 237
f 230 231 239 238
f 231 232 240 239
f 232 225 233 240
o SD0785_T026_26hao
v -141.800 24.529 0.000
v -139.125 44.570 0.000
v -195.053 52.297 0.000
v -196.991 31.283 0.000
v -141.800 24.529 6.600
v -139.125 44.570 6.600
v -195.053 52.297 6.600
v -196.991 31.283 6.600
usemtl roof
f 245 246 247 248
usemtl teaching_building
f 244 243 242 241
f 241 242 246 245
f 242 243 247 246
f 243 244 248 247
f 244 241 245 248
o SD0785_T027_27hao
v -77.604 12.215 0.000
v -75.172 31.524 0.000
v -125.508 38.538 0.000
v -128.426 19.210 0.000
v -77.604 12.215 6.600
v -75.172 31.524 6.600
v -125.508 38.538 6.600
v -128.426 19.210 6.600
usemtl roof
f 253 254 255 256
usemtl teaching_building
f 252 251 250 249
f 249 250 254 253
f 250 251 255 254
f 251 252 256 255
f 252 249 253 256
o SD0785_T028_28hao
v -316.925 -5.992 0.000
v -314.251 14.290 0.000
v -373.819 22.740 0.000
v -376.015 3.181 0.000
v -316.925 -5.992 6.600
v -314.251 14.290 6.600
v -373.819 22.740 6.600
v -376.015 3.181 6.600
usemtl roof
f 261 262 263 264
usemtl teaching_building
f 260 259 258 257
f 257 258 262 261
f 258 259 263 262
f 259 260 264 263
f 260 257 261 264
o SD0785_T029_29hao
v 71.480 -50.317 0.000
v 73.182 -32.694 0.000
v 49.101 -29.312 0.000
v 52.027 -8.299 0.000
v 87.278 26.706 0.000
v 72.453 40.715 0.000
v 12.877 48.442 0.000
v -1.956 39.020 0.000
v 20.164 -2.508 0.000
v 17.254 -24.244 0.000
v -2.937 -22.076 0.000
v -5.361 -40.422 0.000
v 71.480 -50.317 6.600
v 73.182 -32.694 6.600
v 49.101 -29.312 6.600
v 52.027 -8.299 6.600
v 87.278 26.706 6.600
v 72.453 40.715 6.600
v 12.877 48.442 6.600
v -1.956 39.020 6.600
v 20.164 -2.508 6.600
v 17.254 -24.244 6.600
v -2.937 -22.076 6.600
v -5.361 -40.422 6.600
usemtl roof
f 277 278 279 280 281 282 283 284 285 286 287 288
usemtl teaching_building
f 276 275 274 273 272 271 270 269 268 267 266 265
f 265 266 278 277
f 266 267 279 278
f 267 268 280 279
f 268 269 281 280
f 269 270 282 281
f 270 271 283 282
f 271 272 284 283
f 272 273 285 284
f 273 274 286 285
f 274 275 287 286
f 275 276 288 287
f 276 265 277 288
o SD0785_T030_30hao
v -148.358 -27.635 0.000
v -145.683 -7.103 0.000
v -201.125 -0.340 0.000
v -203.564 -20.381 0.000
v -148.358 -27.635 6.600
v -145.683 -7.103 6.600
v -201.125 -0.340 6.600
v -203.564 -20.381 6.600
usemtl roof
f 293 294 295 296
usemtl teaching_building
f 292 291 290 289
f 289 290 294 293
f 290 291 295 294
f 291 292 296 295
f 292 289 293 296
o SD0785_T031_31hao
v -82.946 -40.422 0.000
v -80.028 -19.908 0.000
v -131.822 -12.422 0.000
v -134.740 -32.944 0.000
v -82.946 -40.422 6.600
v -80.028 -19.908 6.600
v -131.822 -12.422 6.600
v -134.740 -32.944 6.600
usemtl roof
f 301 302 303 304
usemtl teaching_building
f 300 299 298 297
f 297 298 302 301
f 298 299 303 302
f 299 300 304 303
f 300 297 301 304
o SD0785_T032_32hao
v -233.899 -58.545 0.000
v -228.633 -17.657 0.000
v -274.364 -11.847 0.000
v -279.622 -52.745 0.000
v -233.899 -58.545 6.600
v -228.633 -17.657 6.600
v -274.364 -11.847 6.600
v -279.622 -52.745 6.600
usemtl roof
f 309 310 311 312
usemtl teaching_building
f 308 307 306 305
f 305 306 310 309
f 306 307 311 310
f 307 308 312 311
f 308 305 309 312
o SD0785_T033_33hao
v -141.800 -81.717 0.000
v -138.874 -60.231 0.000
v -192.622 -53.226 0.000
v -195.775 -74.954 0.000
v -141.800 -81.717 6.600
v -138.874 -60.231 6.600
v -192.622 -53.226 6.600
v -195.775 -74.954 6.600
usemtl roof
f 317 318 319 320
usemtl teaching_building
f 316 315 314 313
f 313 314 318 317
f 314 315 319 318
f 315 316 320 319
f 316 313 317 320
o SD0785_T034_34hao
v -42.162 -179.504 0.000
v -34.123 -122.744 0.000
v -97.202 -114.341 0.000
v -103.972 -170.674 0.000
v -42.162 -179.504 6.600
v -34.123 -122.744 6.600
v -97.202 -114.341 6.600
v -103.972 -170.674 6.600
usemtl roof
f 325 326 327 328
usemtl teaching_building
f 324 323 322 321
f 321 322 326 325
f 322 323 327 326
f 323 324 328 327
f 324 321 325 328
o SD0785_T035_35hao
v -148.487 -206.800 0.000
v -142.058 -155.757 0.000
v -204.354 -147.158 0.000
v -211.611 -197.089 0.000
v -148.487 -206.800 6.600
v -142.058 -155.757 6.600
v -204.354 -147.158 6.600
v -211.611 -197.089 6.600
usemtl roof
f 333 334 335 336
usemtl teaching_building
f 332 331 330 329
f 329 330 334 333
f 330 331 335 334
f 331 332 336 335
f 332 329 333 336
o SD0785_T036_36hao
v 47.589 -210.191 0.000
v 54.375 -155.117 0.000
v -8.719 -147.548 0.000
v -15.916 -202.213 0.000
v 47.589 -210.191 6.600
v 54.375 -155.117 6.600
v -8.719 -147.548 6.600
v -15.916 -202.213 6.600
usemtl roof
f 341 342 343 344
usemtl teaching_building
f 340 339 338 337
f 337 338 342 341
f 338 339 343 342
f 339 340 344 343
f 340 337 341 344
o SD0785_T037_37hao
v 169.529 -251.403 0.000
v 174.187 -216.927 0.000
v 84.854 -205.993 0.000
v 81.883 -237.950 0.000
v 169.529 -251.403 9.900
v 174.187 -216.927 9.900
v 84.854 -205.993 9.900
v 81.883 -237.950 9.900
usemtl roof
f 349 350 351 352
usemtl teaching_building
f 348 347 346 345
f 345 346 350 349
f 346 347 351 350
f 347 348 352 351
f 348 345 349 352
o SD0785_T038_38hao
v 215.138 -272.982 0.000
v 219.166 -238.293 0.000
v 176.619 -233.039 0.000
v 171.748 -266.255 0.000
v 215.138 -272.982 9.900
v 219.166 -238.293 9.900
v 176.619 -233.039 9.900
v 171.748 -266.255 9.900
usemtl roof
f 357 358 359 360
usemtl teaching_building
f 356 355 354 353
f 353 354 358 357
f 354 355 359 358
f 355 356 360 359
f 356 353 357 360
o SD0785_T039_39hao
v -156.717 -287.167 0.000
v -148.988 -236.662 0.000
v -214.226 -227.878 0.000
v -221.954 -276.558 0.000
v -156.717 -287.167 6.600
v -148.988 -236.662 6.600
v -214.226 -227.878 6.600
v -221.954 -276.558 6.600
usemtl roof
f 365 366 367 368
usemtl teaching_building
f 364 363 362 361
f 361 362 366 365
f 362 363 367 366
f 363 364 368 367
f 364 361 365 368
o SD0785_T040_40hao
v -86.578 -310.924 0.000
v -86.084 -306.337 0.000
v -73.204 -308.264 0.000
v -76.852 -330.965 0.000
v -63.234 -333.624 0.000
v -59.822 -310.924 0.000
v -44.267 -313.092 0.000
v -39.890 -283.146 0.000
v -80.248 -278.087 0.000
v -78.060 -264.551 0.000
v -111.381 -259.492 0.000
v -119.163 -306.337 0.000
v -86.578 -310.924 9.900
v -86.084 -306.337 9.900
v -73.204 -308.264 9.900
v -76.852 -330.965 9.900
v -63.234 -333.624 9.900
v -59.822 -310.924 9.900
v -44.267 -313.092 9.900
v -39.890 -283.146 9.900
v -80.248 -278.087 9.900
v -78.060 -264.551 9.900
v -111.381 -259.492 9.900
v -119.163 -306.337 9.900
usemtl roof
f 381 382 383 384 385 386 387 388 389 390 391 392
usemtl teaching_building
f 380 379 378 377 376 375 374 373 372 371 370 369
f 369 370 382 381
f 370 371 383 382
f 371 372 384 383
f 372 373 385 384
f 373 374 386 385
f 374 375 387 386
f 375 376 388 387
f 376 377 389 388
f 377 378 390 389
f 378 379 391 390
f 379 380 392 391
f 380 369 381 392
o SD0785_T041_41hao
v 121.550 -345.761 0.000
v 128.525 -296.192 0.000
v 62.293 -287.102 0.000
v 56.518 -337.441 0.000
v 121.550 -345.761 9.900
v 128.525 -296.192 9.900
v 62.293 -287.102 9.900
v 56.518 -337.441 9.900
usemtl roof
f 397 398 399 400
usemtl teaching_building
f 396 395 394 393
f 393 394 398 397
f 394 395 399 398
f 395 396 400 399
f 396 393 397 400
o SD0785_T042_42hao
v -28.461 -347.503 0.000
v -25.057 -325.896 0.000
v 12.634 -331.446 0.000
v 14.830 -314.787 0.000
v -30.528 -308.626 0.000
v -32.109 -320.226 0.000
v -27.610 -320.699 0.000
v -29.069 -330.603 0.000
v -58.614 -325.776 0.000
v -61.167 -342.917 0.000
v -28.461 -347.503 9.900
v -25.057 -325.896 9.900
v 12.634 -331.446 9.900
v 14.830 -314.787 9.900
v -30.528 -308.626 9.900
v -32.109 -320.226 9.900
v -27.610 -320.699 9.900
v -29.069 -330.603 9.900
v -58.614 -325.776 9.900
v -61.167 -342.917 9.900
usemtl roof
f 411 412 413 414 415 416 417 418 419 420
usemtl teaching_building
f 410 409 408 407 406 405 404 403 402 401
f 401 402 412 411
f 402 403 413 412
f 403 404 414 413
f 404 405 415 414
f 405 406 416 415
f 406 407 417 416
f 407 408 418 417
f 408 409 419 418
f 409 410 420 419
f 410 401 411 420
o SD0785_T043_43hao
v 291.705 -368.675 0.000
v 297.800 -318.012 0.000
v 231.066 -308.144 0.000
v 223.368 -359.752 0.000
v 291.705 -368.675 9.900
v 297.800 -318.012 9.900
v 231.066 -308.144 9.900
v 223.368 -359.752 9.900
usemtl roof
f 425 426 427 428
usemtl teaching_building
f 424 423 422 421
f 421 422 426 425
f 422 423 427 426
f 423 424 428 427
f 424 421 425 428
o SD0785_T044_44hao
v -151.200 -369.888 0.000
v -143.084 -318.651 0.000
v -204.271 -310.961 0.000
v -211.642 -360.002 0.000
v -151.200 -369.888 6.600
v -143.084 -318.651 6.600
v -204.271 -310.961 6.600
v -211.642 -360.002 6.600
usemtl roof
f 433 434 435 436
usemtl teaching_building
f 432 431 430 429
f 429 430 434 433
f 430 431 435 434
f 431 432 436 435
f 432 429 433 436
o SD0785_T045_45hao
v 115.615 -400.807 0.000
v 117.644 -384.157 0.000
v 51.297 -375.373 0.000
v 49.086 -390.383 0.000
v 115.615 -400.807 9.900
v 117.644 -384.157 9.900
v 51.297 -375.373 9.900
v 49.086 -390.383 9.900
usemtl roof
f 441 442 443 444
usemtl teaching_building
f 440 439 438 437
f 437 438 442 441
f 438 439 443 442
f 439 440 444 443
f 440 437 441 444
o SD0785_T046_46hao
v 63.319 -421.330 0.000
v 66.138 -404.513 0.000
v 32.756 -399.445 0.000
v 30.689 -417.068 0.000
v 63.319 -421.330 9.900
v 66.138 -404.513 9.900
v 32.756 -399.445 9.900
v 30.689 -417.068 9.900
usemtl roof
f 449 450 451 452
usemtl teaching_building
f 448 447 446 445
f 445 446 450 449
f 446 447 451 450
f 447 448 452 451
f 448 445 449 452
o SD0785_T047_47hao
v 19.328 -426.768 0.000
v 22.003 -407.098 0.000
v -13.613 -402.512 0.000
v -16.174 -421.830 0.000
v 19.328 -426.768 9.900
v 22.003 -407.098 9.900
v -13.613 -402.512 9.900
v -16.174 -421.830 9.900
usemtl roof
f 457 458 459 460
usemtl teaching_building
f 456 455 454 453
f 453 454 458 457
f 454 455 459 458
f 455 456 460 459
f 456 453 457 460
o SD0785_T048_48hao
v 105.067 -432.772 0.000
v 107.096 -418.680 0.000
v 86.093 -415.752 0.000
v 84.246 -429.659 0.000
v 105.067 -432.772 9.900
v 107.096 -418.680 9.900
v 86.093 -415.752 9.900
v 84.246 -429.659 9.900
usemtl roof
f 465 466 467 468
usemtl teaching_building
f 464 463 462 461
f 461 462 466 465
f 462 463 467 466
f 463 464 468 467
f 464 461 465 468
