# school_id SD0740
# school_name 高新区一中
# boundary_source footprint_convex_hull_buffer_20m
# adjacent_block_merge_distance_m 2.0
mtllib ../campus_materials.mtl
o SD0740_campus_boundary
usemtl campus_boundary
v 73.511 -61.448 0.050
v -158.694 -60.130 0.050
v -160.252 61.966 0.050
v -77.074 63.020 0.050
v 33.867 60.001 0.050
v 156.323 55.796 0.050
v 157.895 -60.329 0.050
v 73.511 -61.448 0.050
l 1 2 3 4 5 6 7 8 1
o SD0740_T001_1hao
v -77.219 43.017 0.000
v -76.805 10.795 0.000
v -59.263 11.016 0.000
v -59.461 26.723 0.000
v -43.150 26.933 0.000
v -42.952 11.789 0.000
v -26.399 12.010 0.000
v -26.758 39.225 0.000
v 33.252 40.010 0.000
v 33.647 9.755 0.000
v 41.425 9.855 0.000
v 41.191 27.497 0.000
v 58.914 27.729 0.000
v 59.156 9.125 0.000
v 77.553 9.369 0.000
v 77.194 35.677 0.000
v 136.583 36.462 0.000
v 137.626 -40.596 0.000
v 73.435 -41.447 0.000
v 73.021 -11.325 0.000
v 60.793 -11.490 0.000
v 60.964 -24.379 0.000
v 40.912 -24.645 0.000
v 40.733 -10.938 0.000
v 30.860 -11.070 0.000
v 31.220 -38.772 0.000
v -28.170 -39.534 0.000
v -28.539 -11.634 0.000
v -43.411 -11.833 0.000
v -43.249 -24.611 0.000
v -62.841 -24.855 0.000
v -63.012 -11.137 0.000
v -74.333 -11.280 0.000
v -73.973 -39.424 0.000
v -138.946 -40.242 0.000
v -139.998 42.221 0.000
v -77.219 43.017 9.570
v -76.805 10.795 9.570
v -59.263 11.016 9.570
v -59.461 26.723 9.570
v -43.150 26.933 9.570
v -42.952 11.789 9.570
v -26.399 12.010 9.570
v -26.758 39.225 9.570
v 33.252 40.010 9.570
v 33.647 9.755 9.570
v 41.425 9.855 9.570
v 41.191 27.497 9.570
v 58.914 27.729 9.570
v 59.156 9.125 9.570
v 77.553 9.369 9.570
v 77.194 35.677 9.570
v 136.583 36.462 9.570
v 137.626 -40.596 9.570
v 73.435 -41.447 9.570
v 73.021 -11.325 9.570
v 60.793 -11.490 9.570
v 60.964 -24.379 9.570
v 40.912 -24.645 9.570
v 40.733 -10.938 9.570
v 30.860 -11.070 9.570
v 31.220 -38.772 9.570
v -28.170 -39.534 9.570
v -28.539 -11.634 9.570
v -43.411 -11.833 9.570
v -43.249 -24.611 9.570
v -62.841 -24.855 9.570
v -63.012 -11.137 9.570
v -74.333 -11.280 9.570
v -73.973 -39.424 9.570
v -138.946 -40.242 9.570
v -139.998 42.221 9.570
usemtl roof
f 45 46 47 48 49 50 51 52 53 54 55 56 57 58 59 60 61 62 63 64 65 66 67 68 69 70 71 72 73 74 75 76 77 78 79 80
usemtl teaching_building
f 44 43 42 41 40 39 38 37 36 35 34 33 32 31 30 29 28 27 26 25 24 23 22 21 20 19 18 17 16 15 14 13 12 11 10 9
f 9 10 46 45
f 10 11 47 46
f 11 12 48 47
f 12 13 49 48
f 13 14 50 49
f 14 15 51 50
f 15 16 52 51
f 16 17 53 52
f 17 18 54 53
f 18 19 55 54
f 19 20 56 55
f 20 21 57 56
f 21 22 58 57
f 22 23 59 58
f 23 24 60 59
f 24 25 61 60
f 25 26 62 61
f 26 27 63 62
f 27 28 64 63
f 28 29 65 64
f 29 30 66 65
f 30 31 67 66
f 31 32 68 67
f 32 33 69 68
f 33 34 70 69
f 34 35 71 70
f 35 36 72 71
f 36 37 73 72
f 37 38 74 73
f 38 39 75 74
f 39 40 76 75
f 40 41 77 76
f 41 42 78 77
f 42 43 79 78
f 43 44 80 79
f 44 9 45 80
