# school_id SD0767
# school_name 威海市翠竹小学教学楼
# boundary_source footprint_convex_hull_buffer_20m
# adjacent_block_merge_distance_m 2.0
mtllib ../campus_materials.mtl
o SD0767_campus_boundary
usemtl campus_boundary
v -61.695 -47.805 0.050
v -72.005 -4.862 0.050
v -89.084 66.278 0.050
v -40.151 78.024 0.050
v 63.894 38.649 0.050
v 76.674 -14.585 0.050
v -61.695 -47.805 0.050
l 1 2 3 4 5 6 7 1
o SD0767_T001_1hao
v -52.558 -0.193 0.000
v -64.968 51.499 0.000
v -41.471 57.139 0.000
v -29.062 5.448 0.000
v 46.917 23.689 0.000
v 52.558 0.193 0.000
v -46.917 -23.689 0.000
v -52.558 -0.193 0.000
v -52.558 -0.193 19.110
v -64.968 51.499 19.110
v -41.471 57.139 19.110
v -29.062 5.448 19.110
v 46.917 23.689 19.110
v 52.558 0.193 19.110
v -46.917 -23.689 19.110
v -52.558 -0.193 19.110
usemtl roof
f 16 17 18 19 20 21 22 23
usemtl teaching_building
f 15 14 13 12 11 10 9 8
f 8 9 17 16
f 9 10 18 17
f 10 11 19 18
f 11 12 20 19
f 12 13 21 20
f 13 14 22 21
f 14 15 23 22
f 15 8 16 23
