# school_id SD0788
# school_name 山东省日照市第五中学（原）
# boundary_source footprint_convex_hull_buffer_20m
# adjacent_block_merge_distance_m 2.0
mtllib ../campus_materials.mtl
o SD0788_campus_boundary
usemtl campus_boundary
v 48.810 -322.812 0.050
v -16.225 -298.798 0.050
v -134.292 -233.697 0.050
v -182.998 136.162 0.050
v -149.598 222.887 0.050
v -18.096 248.315 0.050
v 70.896 216.011 0.050
v 136.651 190.510 0.050
v 169.839 171.148 0.050
v 100.979 -177.587 0.050
v 48.810 -322.812 0.050
l 1 2 3 4 5 6 7 8 9 10 11 1
o SD0788_T001_1hao
v -27.366 205.720 0.000
v 47.321 176.648 0.000
v 50.710 184.231 0.000
v 58.052 181.213 0.000
v 55.254 172.723 0.000
v 117.757 149.256 0.000
v 107.144 117.652 0.000
v -37.970 167.793 0.000
v -45.184 146.304 0.000
v 112.659 92.372 0.000
v 114.786 98.695 0.000
v 124.971 93.223 0.000
v 147.459 161.050 0.000
v 126.243 168.213 0.000
v 127.942 172.436 0.000
v 63.867 197.285 0.000
v 60.469 186.751 0.000
v 53.136 189.890 0.000
v 56.426 199.706 0.000
v -19.725 227.629 0.000
v -27.366 205.720 7.240
v 47.321 176.648 7.240
v 50.710 184.231 7.240
v 58.052 181.213 7.240
v 55.254 172.723 7.240
v 117.757 149.256 7.240
v 107.144 117.652 7.240
v -37.970 167.793 7.240
v -45.184 146.304 7.240
v 112.659 92.372 7.240
v 114.786 98.695 7.240
v 124.971 93.223 7.240
v 147.459 161.050 7.240
v 126.243 168.213 7.240
v 127.942 172.436 7.240
v 63.867 197.285 7.240
v 60.469 186.751 7.240
v 53.136 189.890 7.240
v 56.426 199.706 7.240
v -19.725 227.629 7.240
usemtl roof
f 32 33 34 35 36 37 38 39 40 41 42 43 44 45 46 47 48 49 50 51
usemtl teaching_building
f 31 30 29 28 27 26 25 24 23 22 21 20 19 18 17 16 15 14 13 12
f 12 13 33 32
f 13 14 34 33
f 14 15 35 34
f 15 16 36 35
f 16 17 37 36
f 17 18 38 37
f 18 19 39 38
f 19 20 40 39
f 20 21 41 40
f 21 22 42 41
f 22 23 43 42
f 23 24 44 43
f 24 25 45 44
f 25 26 46 45
f 26 27 47 46
f 27 28 48 47
f 28 29 49 48
f 29 30 50 49
f 30 31 51 50
f 31 12 32 51
o SD0788_T002_2hao
v -91.214 105.073 0.000
v -162.504 133.725 0.000
v -134.918 205.355 0.000
v -54.297 177.543 0.000
v -61.512 152.262 0.000
v -124.315 175.443 0.000
v -134.918 147.631 0.000
v -83.573 128.253 0.000
v -81.029 135.416 0.000
v -58.114 125.302 0.000
v -117.100 -37.336 0.000
v -135.772 -29.333 0.000
v -91.214 105.073 6.340
v -162.504 133.725 6.340
v -134.918 205.355 6.340
v -54.297 177.543 6.340
v -61.512 152.262 6.340
v -124.315 175.443 6.340
v -134.918 147.631 6.340
v -83.573 128.253 6.340
v -81.029 135.416 6.340
v -58.114 125.302 6.340
v -117.100 -37.336 6.340
v -135.772 -29.333 6.340
usemtl roof
f 64 65 66 67 68 69 70 71 72 73 74 75
usemtl teaching_building
f 63 62 61 60 59 58 57 56 55 54 53 52
f 52 53 65 64
f 53 54 66 65
f 54 55 67 66
f 55 56 68 67
f 56 57 69 68
f 57 58 70 69
f 58 59 71 70
f 59 60 72 71
f 60 61 73 72
f 61 62 74 73
f 62 63 75 74
f 63 52 64 75
o SD0788_T003_3hao
v -23.559 -2.593 0.000
v -27.375 -0.493 0.000
v -37.561 -33.776 0.000
v -34.590 -49.783 0.000
v -23.977 -65.380 0.000
v -11.248 -74.223 0.000
v 20.145 -85.598 0.000
v 25.660 -69.171 0.000
v 39.671 -73.383 0.000
v 35.428 -88.969 0.000
v 54.945 -97.403 0.000
v 79.977 -21.982 0.000
v 76.579 -2.593 0.000
v 63.849 10.462 0.000
v -6.159 37.433 0.000
v -13.374 17.205 0.000
v 1.900 10.462 0.000
v -2.343 1.198 0.000
v -22.287 7.521 0.000
v -23.559 -2.593 7.370
v -27.375 -0.493 7.370
v -37.561 -33.776 7.370
v -34.590 -49.783 7.370
v -23.977 -65.380 7.370
v -11.248 -74.223 7.370
v 20.145 -85.598 7.370
v 25.660 -69.171 7.370
v 39.671 -73.383 7.370
v 35.428 -88.969 7.370
v 54.945 -97.403 7.370
v 79.977 -21.982 7.370
v 76.579 -2.593 7.370
v 63.849 10.462 7.370
v -6.159 37.433 7.370
v -13.374 17.205 7.370
v 1.900 10.462 7.370
v -2.343 1.198 7.370
v -22.287 7.521 7.370
usemtl roof
f 95 96 97 98 99 100 101 102 103 104 105 106 107 108 109 110 111 112 113
usemtl teaching_building
f 94 93 92 91 90 89 88 87 86 85 84 83 82 81 80 79 78 77 76
f 76 77 96 95
f 77 78 97 96
f 78 79 98 97
f 79 80 99 98
f 80 81 100 99
f 81 82 101 100
f 82 83 102 101
f 83 84 103 102
f 84 85 104 103
f 85 86 105 104
f 86 87 106 105
f 87 88 107 106
f 88 89 108 107
f 89 90 109 108
f 90 91 110 109
f 91 92 111 110
f 92 93 112 111
f 93 94 113 112
f 94 76 95 113
o SD0788_T004_4hao
v 17.801 -228.868 0.000
v 53.872 -242.907 0.000
v 81.649 -172.239 0.000
v 42.660 -159.659 0.000
v 17.801 -228.868 7.030
v 53.872 -242.907 7.030
v 81.649 -172.239 7.030
v 42.660 -159.659 7.030
usemtl roof
f 118 119 120 121
usemtl teaching_building
f 117 116 115 114
f 114 115 119 118
f 115 116 120 119
f 116 117 121 120
f 117 114 118 121
o SD0788_T005_5hao
v -109.014 -204.329 0.000
v -76.467 -217.306 0.000
v -69.662 -200.460 0.000
v -53.098 -207.059 0.000
v -59.667 -223.319 0.000
v -36.534 -232.549 0.000
v -43.549 -249.882 0.000
v -115.783 -221.064 0.000
v -109.014 -204.329 7.240
v -76.467 -217.306 7.240
v -69.662 -200.460 7.240
v -53.098 -207.059 7.240
v -59.667 -223.319 7.240
v -36.534 -232.549 7.240
v -43.549 -249.882 7.240
v -115.783 -221.064 7.240
usemtl roof
f 130 131 132 133 134 135 136 137
usemtl teaching_building
f 129 128 127 126 125 124 123 122
f 122 123 131 130
f 123 124 132 131
f 124 125 133 132
f 125 126 134 133
f 126 127 135 134
f 127 128 136 135
f 128 129 137 136
f 129 122 130 137
o SD0788_T006_6hao
v -7.886 -280.557 0.000
v 36.809 -297.061 0.000
v 51.219 -253.408 0.000
v 17.601 -240.575 0.000
v 14.275 -249.738 0.000
v 5.407 -246.080 0.000
v -7.886 -280.557 7.340
v 36.809 -297.061 7.340
v 51.219 -253.408 7.340
v 17.601 -240.575 7.340
v 14.275 -249.738 7.340
v 5.407 -246.080 7.340
usemtl roof
f 144 145 146 147 148 149
usemtl teaching_building
f 143 142 141 140 139 138
f 138 139 145 144
f 139 140 146 145
f 140 141 147 146
f 141 142 148 147
f 142 143 149 148
f 143 138 144 149
