# school_id SD0707
# school_name 东平高级中学
# boundary_source footprint_convex_hull_buffer_20m
# adjacent_block_merge_distance_m 2.0
mtllib ../campus_materials.mtl
o SD0707_campus_boundary
usemtl campus_boundary
v 60.718 -124.454 0.050
v -154.391 -15.499 0.050
v -160.260 27.211 0.050
v -162.966 65.086 0.050
v -162.252 88.078 0.050
v -156.838 136.659 0.050
v -68.047 143.768 0.050
v 152.554 58.313 0.050
v 171.657 -66.676 0.050
v 175.345 -117.338 0.050
v 60.718 -124.454 0.050
l 1 2 3 4 5 6 7 8 9 10 11 1
o SD0707_T001_1hao
v -71.008 123.467 0.000
v -66.249 69.635 0.000
v -142.944 65.489 0.000
v -142.286 86.658 0.000
v -84.267 85.342 0.000
v -85.592 107.826 0.000
v -135.472 102.144 0.000
v -138.789 118.040 0.000
v -71.008 123.467 16.200
v -66.249 69.635 16.200
v -142.944 65.489 16.200
v -142.286 86.658 16.200
v -84.267 85.342 16.200
v -85.592 107.826 16.200
v -135.472 102.144 16.200
v -138.789 118.040 16.200
usemtl roof
f 20 21 22 23 24 25 26 27
usemtl teaching_building
f 19 18 17 16 15 14 13 12
f 12 13 21 20
f 13 14 22 21
f 14 15 23 22
f 15 16 24 23
f 16 17 25 24
f 17 18 26 25
f 18 19 27 26
f 19 12 20 27
o SD0707_T002_2hao
v -140.357 29.287 0.000
v -75.569 34.096 0.000
v -76.534 50.412 0.000
v -140.357 45.614 0.000
v -140.357 29.287 8.100
v -75.569 34.096 8.100
v -76.534 50.412 8.100
v -140.357 45.614 8.100
usemtl roof
f 32 33 34 35
usemtl teaching_building
f 31 30 29 28
f 28 29 33 32
f 29 30 34 33
f 30 31 35 34
f 31 28 32 35
o SD0707_T003_3hao
v 54.134 -18.698 0.000
v 139.004 -12.010 0.000
v 134.533 43.846 0.000
v 49.663 37.147 0.000
v 54.134 -18.698 6.670
v 139.004 -12.010 6.670
v 134.533 43.846 6.670
v 49.663 37.147 6.670
usemtl roof
f 40 41 42 43
usemtl teaching_building
f 39 38 37 36
f 36 37 41 40
f 37 38 42 41
f 38 39 43 42
f 39 36 40 43
o SD0707_T004_4hao
v -136.004 -2.393 0.000
v -79.436 1.929 0.000
v -79.923 15.370 0.000
v -137.455 12.485 0.000
v -136.004 -2.393 8.790
v -79.436 1.929 8.790
v -79.923 15.370 8.790
v -137.455 12.485 8.790
usemtl roof
f 48 49 50 51
usemtl teaching_building
f 47 46 45 44
f 44 45 49 48
f 45 46 50 49
f 46 47 51 50
f 47 44 48 51
o SD0707_T005_5hao
v 63.769 -63.389 0.000
v 144.727 -58.039 0.000
v 143.294 -36.583 0.000
v 62.336 -41.956 0.000
v 63.769 -63.389 8.980
v 144.727 -58.039 8.980
v 143.294 -36.583 8.980
v 62.336 -41.956 8.980
usemtl roof
f 56 57 58 59
usemtl teaching_building
f 55 54 53 52
f 52 53 57 56
f 53 54 58 57
f 54 55 59 58
f 55 52 56 59
o SD0707_T006_6hao
v 100.580 -72.608 0.000
v 151.767 -68.916 0.000
v 153.930 -98.629 0.000
v 102.148 -101.780 0.000
v 100.580 -72.608 7.110
v 151.767 -68.916 7.110
v 153.930 -98.629 7.110
v 102.148 -101.780 7.110
usemtl roof
f 64 65 66 67
usemtl teaching_building
f 63 62 61 60
f 60 61 65 64
f 61 62 66 65
f 62 63 67 66
f 63 60 64 67
o SD0707_T006_6hao_seg02
v 64.905 -104.156 0.000
v 63.607 -84.215 0.000
v 100.850 -81.816 0.000
v 102.148 -101.780 0.000
v 64.905 -104.156 7.110
v 63.607 -84.215 7.110
v 100.850 -81.816 7.110
v 102.148 -101.780 7.110
usemtl roof
f 72 73 74 75
usemtl teaching_building
f 71 70 69 68
f 68 69 73 72
f 69 70 74 73
f 70 71 75 74
f 71 68 72 75
