# school_id SD0734
# school_name 肥城市石横特钢厂学校
# boundary_source footprint_convex_hull_buffer_20m
# adjacent_block_merge_distance_m 2.0
mtllib ../campus_materials.mtl
o SD0734_campus_boundary
usemtl campus_boundary
v -82.519 -42.451 0.050
v -84.944 -5.922 0.050
v -47.731 48.430 0.050
v 79.837 56.611 0.050
v 82.148 21.177 0.050
v 80.045 -32.914 0.050
v -1.649 -38.482 0.050
v -82.519 -42.451 0.050
l 1 2 3 4 5 6 7 8 1
o SD0734_T001_1hao
v 61.180 35.373 0.000
v 62.123 20.914 0.000
v -35.789 14.647 0.000
v -36.731 29.094 0.000
v 61.180 35.373 9.900
v 62.123 20.914 9.900
v -35.789 14.647 9.900
v -36.731 29.094 9.900
usemtl roof
f 13 14 15 16
usemtl teaching_building
f 12 11 10 9
f 9 10 14 13
f 10 11 15 14
f 11 12 16 15
f 12 9 13 16
o SD0734_T002_2hao
v 59.878 -1.481 0.000
v 60.758 -14.182 0.000
v -2.819 -18.515 0.000
v -3.699 -5.837 0.000
v 59.878 -1.481 7.020
v 60.758 -14.182 7.020
v -2.819 -18.515 7.020
v -3.699 -5.837 7.020
usemtl roof
f 21 22 23 24
usemtl teaching_building
f 20 19 18 17
f 17 18 22 21
f 18 19 23 22
f 19 20 24 23
f 20 17 21 24
o SD0734_T003_3hao
v -18.586 -8.489 0.000
v -17.921 -18.504 0.000
v -63.865 -21.511 0.000
v -64.529 -11.507 0.000
v -18.586 -8.489 9.900
v -17.921 -18.504 9.900
v -63.865 -21.511 9.900
v -64.529 -11.507 9.900
usemtl roof
f 29 30 31 32
usemtl teaching_building
f 28 27 26 25
f 25 26 30 29
f 26 27 31 30
f 27 28 32 31
f 28 25 29 32
