# school_id SD0722
# school_name 楼德镇中心小学
# boundary_source footprint_convex_hull_buffer_20m
# adjacent_block_merge_distance_m 2.0
mtllib ../campus_materials.mtl
o SD0722_campus_boundary
usemtl campus_boundary
v -24.981 -81.361 0.050
v -48.061 -80.994 0.050
v -67.730 -54.012 0.050
v -67.199 -37.838 0.050
v -61.222 64.533 0.050
v -6.601 64.052 0.050
v 6.611 63.361 0.050
v 65.142 58.518 0.050
v 64.864 32.375 0.050
v 52.254 -44.103 0.050
v -24.981 -81.361 0.050
l 1 2 3 4 5 6 7 8 9 10 11 1
o SD0722_T001_1hao
v -43.510 22.568 0.000
v -42.365 44.366 0.000
v -7.293 42.553 0.000
v -7.212 44.057 0.000
v 5.263 43.404 0.000
v 5.164 41.658 0.000
v 25.388 40.597 0.000
v 24.838 30.184 0.000
v -32.415 33.168 0.000
v -33.002 22.026 0.000
v -43.510 22.568 13.590
v -42.365 44.366 13.590
v -7.293 42.553 13.590
v -7.212 44.057 13.590
v 5.263 43.404 13.590
v 5.164 41.658 13.590
v 25.388 40.597 13.590
v 24.838 30.184 13.590
v -32.415 33.168 13.590
v -33.002 22.026 13.590
usemtl roof
f 22 23 24 25 26 27 28 29 30 31
usemtl teaching_building
f 21 20 19 18 17 16 15 14 13 12
f 12 13 23 22
f 13 14 24 23
f 14 15 25 24
f 15 16 26 25
f 16 17 27 26
f 17 18 28 27
f 18 19 29 28
f 19 20 30 29
f 20 21 31 30
f 21 12 22 31
o SD0722_T002_2hao
v 34.580 -5.067 0.000
v 34.282 -14.132 0.000
v 4.939 -13.181 0.000
v 5.236 -4.128 0.000
v 34.580 -5.067 7.530
v 34.282 -14.132 7.530
v 4.939 -13.181 7.530
v 5.236 -4.128 7.530
usemtl roof
f 36 37 38 39
usemtl teaching_building
f 35 34 33 32
f 32 33 37 36
f 33 34 38 37
f 34 35 39 38
f 35 32 36 39
o SD0722_T003_3hao
v 34.508 -21.549 0.000
v 34.210 -30.602 0.000
v 4.867 -29.651 0.000
v 5.164 -20.598 0.000
v 34.508 -21.549 7.530
v 34.210 -30.602 7.530
v 4.867 -29.651 7.530
v 5.164 -20.598 7.530
usemtl roof
f 44 45 46 47
usemtl teaching_building
f 43 42 41 40
f 40 41 45 44
f 41 42 46 45
f 42 43 47 46
f 43 40 44 47
