# school_id SD0701
# school_name 东平县实验小学（汶河街校区）
# boundary_source footprint_convex_hull_buffer_20m
# adjacent_block_merge_distance_m 2.0
mtllib ../campus_materials.mtl
o SD0701_campus_boundary
usemtl campus_boundary
v -50.900 -34.278 0.050
v -54.672 27.959 0.050
v 50.900 34.270 0.050
v 54.673 -27.950 0.050
v -50.900 -34.278 0.050
l 1 2 3 4 5 1
o SD0701_T001_1hao
v -32.146 -13.118 0.000
v 33.498 -9.183 0.000
v 32.146 13.113 0.000
v -33.498 9.189 0.000
v -32.146 -13.118 9.440
v 33.498 -9.183 9.440
v 32.146 13.113 9.440
v -33.498 9.189 9.440
usemtl roof
f 10 11 12 13
usemtl teaching_building
f 9 8 7 6
f 6 7 11 10
f 7 8 12 11
f 8 9 13 12
f 9 6 10 13
