# school_id SD0700
# school_name 东平县实验中学
# boundary_source footprint_convex_hull_buffer_20m
# adjacent_block_merge_distance_m 2.0
mtllib ../campus_materials.mtl
o SD0700_campus_boundary
usemtl campus_boundary
v 111.521 -103.647 0.050
v 38.000 -99.255 0.050
v -73.830 -68.011 0.050
v -74.445 49.246 0.050
v -71.896 86.768 0.050
v 36.114 79.536 0.050
v 114.622 -52.372 0.050
v 111.521 -103.647 0.050
l 1 2 3 4 5 6 7 8 1
o SD0700_T001_1hao
v -54.441 48.620 0.000
v -44.797 47.968 0.000
v -44.382 54.004 0.000
v 14.096 50.080 0.000
v 13.636 43.337 0.000
v 23.109 42.707 0.000
v 24.299 60.282 0.000
v -53.296 65.478 0.000
v -54.441 48.620 16.700
v -44.797 47.968 16.700
v -44.382 54.004 16.700
v 14.096 50.080 16.700
v 13.636 43.337 16.700
v 23.109 42.707 16.700
v 24.299 60.282 16.700
v -53.296 65.478 16.700
usemtl roof
f 17 18 19 20 21 22 23 24
usemtl teaching_building
f 16 15 14 13 12 11 10 9
f 9 10 18 17
f 10 11 19 18
f 11 12 20 19
f 12 13 21 20
f 13 14 22 21
f 14 15 23 22
f 15 16 24 23
f 16 9 17 24
o SD0700_T002_2hao
v -48.240 -6.130 0.000
v 6.155 -10.552 0.000
v 4.587 -29.609 0.000
v -51.620 -25.054 0.000
v -53.909 -52.811 0.000
v 16.448 -58.515 0.000
v 22.830 19.040 0.000
v -45.707 24.600 0.000
v -48.240 -6.130 12.410
v 6.155 -10.552 12.410
v 4.587 -29.609 12.410
v -51.620 -25.054 12.410
v -53.909 -52.811 12.410
v 16.448 -58.515 12.410
v 22.830 19.040 12.410
v -45.707 24.600 12.410
usemtl roof
f 33 34 35 36 37 38 39 40
usemtl teaching_building
f 32 31 30 29 28 27 26 25
f 25 26 34 33
f 26 27 35 34
f 27 28 36 35
f 28 29 37 36
f 29 30 38 37
f 30 31 39 38
f 31 32 40 39
f 32 25 33 40
o SD0700_T003_3hao
v 41.325 -79.418 0.000
v 92.764 -82.491 0.000
v 94.287 -57.310 0.000
v 42.857 -54.226 0.000
v 41.325 -79.418 12.020
v 92.764 -82.491 12.020
v 94.287 -57.310 12.020
v 42.857 -54.226 12.020
usemtl roof
f 45 46 47 48
usemtl teaching_building
f 44 43 42 41
f 41 42 46 45
f 42 43 47 46
f 43 44 48 47
f 44 41 45 48
