# school_id SD0721
# school_name 楼德怀德中学
# boundary_source footprint_convex_hull_buffer_20m
# adjacent_block_merge_distance_m 2.0
mtllib ../campus_materials.mtl
o SD0721_campus_boundary
usemtl campus_boundary
v 38.826 -79.826 0.050
v 3.617 -74.906 0.050
v -58.620 3.004 0.050
v -57.488 32.250 0.050
v -26.203 43.685 0.050
v 58.933 30.807 0.050
v 38.826 -79.826 0.050
l 1 2 3 4 5 6 7 1
o SD0721_T001_1hao
v -38.022 18.071 0.000
v -25.411 16.335 0.000
v -24.139 23.145 0.000
v 35.571 14.113 0.000
v 33.018 4.286 0.000
v -8.650 10.620 0.000
v -9.606 7.934 0.000
v -14.558 6.508 0.000
v -38.347 9.670 0.000
v -38.022 18.071 12.770
v -25.411 16.335 12.770
v -24.139 23.145 12.770
v 35.571 14.113 12.770
v 33.018 4.286 12.770
v -8.650 10.620 12.770
v -9.606 7.934 12.770
v -14.558 6.508 12.770
v -38.347 9.670 12.770
usemtl roof
f 17 18 19 20 21 22 23 24 25
usemtl teaching_building
f 16 15 14 13 12 11 10 9 8
f 8 9 18 17
f 9 10 19 18
f 10 11 20 19
f 11 12 21 20
f 12 13 22 21
f 13 14 23 22
f 14 15 24 23
f 15 16 25 24
f 16 8 17 25
o SD0721_T002_2hao
v 14.273 -56.201 0.000
v 22.581 -57.362 0.000
v 30.808 0.860 0.000
v 22.482 2.020 0.000
v 14.273 -56.201 10.420
v 22.581 -57.362 10.420
v 30.808 0.860 10.420
v 22.482 2.020 10.420
usemtl roof
f 30 31 32 33
usemtl teaching_building
f 29 28 27 26
f 26 27 31 30
f 27 28 32 31
f 28 29 33 32
f 29 26 30 33
