# school_id SD0750
# school_name 威海四中
# boundary_source footprint_convex_hull_buffer_20m
# adjacent_block_merge_distance_m 2.0
mtllib ../campus_materials.mtl
o SD0750_campus_boundary
usemtl campus_boundary
v 55.130 -68.861 0.050
v -45.539 -43.762 0.050
v -81.004 -34.919 0.050
v -72.162 0.546 0.050
v -55.130 68.861 0.050
v -19.664 60.019 0.050
v 81.004 34.920 0.050
v 72.162 -0.546 0.050
v 55.130 -68.861 0.050
l 1 2 3 4 5 6 7 8 9 1
o SD0750_T001_1hao
v -52.756 -4.292 0.000
v -40.562 44.617 0.000
v -24.502 40.613 0.000
v -24.502 40.613 0.000
v 56.760 20.352 0.000
v 52.756 4.292 0.000
v -28.506 24.553 0.000
v -36.697 -8.296 0.000
v 44.566 -28.557 0.000
v 40.562 -44.617 0.000
v -40.701 -24.356 0.000
v -40.701 -24.356 0.000
v -56.760 -20.352 0.000
v -52.756 -4.292 0.000
v -52.756 -4.292 13.810
v -40.562 44.617 13.810
v -24.502 40.613 13.810
v -24.502 40.613 13.810
v 56.760 20.352 13.810
v 52.756 4.292 13.810
v -28.506 24.553 13.810
v -36.697 -8.296 13.810
v 44.566 -28.557 13.810
v 40.562 -44.617 13.810
v -40.701 -24.356 13.810
v -40.701 -24.356 13.810
v -56.760 -20.352 13.810
v -52.756 -4.292 13.810
usemtl roof
f 24 25 26 27 28 29 30 31 32 33 34 35 36 37
usemtl teaching_building
f 23 22 21 20 19 18 17 16 15 14 13 12 11 10
f 10 11 25 24
f 11 12 26 25
f 12 13 27 26
f 13 14 28 27
f 14 15 29 28
f 15 16 30 29
f 16 17 31 30
f 17 18 32 31
f 18 19 33 32
f 19 20 34 33
f 20 21 35 34
f 21 22 36 35
f 22 23 37 36
f 23 10 24 37
