# school_id SD0773
# school_name 海埠小学
# boundary_source footprint_convex_hull_buffer_20m
# adjacent_block_merge_distance_m 2.0
mtllib ../campus_materials.mtl
o SD0773_campus_boundary
usemtl campus_boundary
v -7.412 -52.111 0.050
v -37.325 -50.539 0.050
v -46.864 -16.949 0.050
v -47.773 0.559 0.050
v -38.837 17.330 0.050
v -9.682 41.894 0.050
v 73.568 37.080 0.050
v 75.491 -2.191 0.050
v -7.412 -52.111 0.050
l 1 2 3 4 5 6 7 8 9 1
o SD0773_T001_1hao
v -1.975 11.193 0.000
v 10.953 11.044 0.000
v 11.872 3.641 0.000
v 20.088 4.253 0.000
v 22.518 9.534 0.000
v 54.930 8.774 0.000
v 54.471 18.151 0.000
v -2.886 21.468 0.000
v -1.975 11.193 9.900
v 10.953 11.044 9.900
v 11.872 3.641 9.900
v 20.088 4.253 9.900
v 22.518 9.534 9.900
v 54.930 8.774 9.900
v 54.471 18.151 9.900
v -2.886 21.468 9.900
usemtl roof
f 18 19 20 21 22 23 24 25
usemtl teaching_building
f 17 16 15 14 13 12 11 10
f 10 11 19 18
f 11 12 20 19
f 12 13 21 20
f 13 14 22 21
f 14 15 23 22
f 15 16 24 23
f 16 17 25 24
f 17 10 18 25
o SD0773_T002_2hao
v -27.008 -13.657 0.000
v -22.496 -12.656 0.000
v -21.993 -31.317 0.000
v -12.480 -31.817 0.000
v -12.984 3.771 0.000
v -23.000 4.521 0.000
v -22.496 -2.956 0.000
v -27.512 -3.947 0.000
v -27.008 -13.657 9.900
v -22.496 -12.656 9.900
v -21.993 -31.317 9.900
v -12.480 -31.817 9.900
v -12.984 3.771 9.900
v -23.000 4.521 9.900
v -22.496 -2.956 9.900
v -27.512 -3.947 9.900
usemtl roof
f 34 35 36 37 38 39 40 41
usemtl teaching_building
f 33 32 31 30 29 28 27 26
f 26 27 35 34
f 27 28 36 35
f 28 29 37 36
f 29 30 38 37
f 30 31 39 38
f 31 32 40 39
f 32 33 41 40
f 33 26 34 41
