# school_id SD0795
# school_name 日照市东港实验学校
# boundary_source footprint_convex_hull_buffer_20m
# adjacent_block_merge_distance_m 2.0
mtllib ../campus_materials.mtl
o SD0795_campus_boundary
usemtl campus_boundary
v 1.319 -45.596 0.050
v -26.247 -39.016 0.050
v -46.503 -23.364 0.050
v -59.322 2.081 0.050
v -44.335 27.902 0.050
v -21.626 41.782 0.050
v 3.678 43.980 0.050
v 26.673 37.446 0.050
v 43.583 23.661 0.050
v 57.731 -5.163 0.050
v 43.545 -25.371 0.050
v 28.216 -38.338 0.050
v 1.319 -45.596 0.050
l 1 2 3 4 5 6 7 8 9 10 11 12 13 1
o SD0795_T001_1hao
v -30.683 -10.313 0.000
v -17.421 -20.561 0.000
v 1.017 -24.962 0.000
v 18.702 -20.190 0.000
v 28.658 -11.768 0.000
v 34.564 -3.355 0.000
v 27.556 10.923 0.000
v 17.236 19.336 0.000
v 1.747 23.737 0.000
v -15.209 22.264 0.000
v -29.581 13.480 0.000
v -36.588 1.408 0.000
v -30.683 -10.313 9.900
v -17.421 -20.561 9.900
v 1.017 -24.962 9.900
v 18.702 -20.190 9.900
v 28.658 -11.768 9.900
v 34.564 -3.355 9.900
v 27.556 10.923 9.900
v 17.236 19.336 9.900
v 1.747 23.737 9.900
v -15.209 22.264 9.900
v -29.581 13.480 9.900
v -36.588 1.408 9.900
usemtl roof
f 26 27 28 29 30 31 32 33 34 35 36 37
usemtl teaching_building
f 25 24 23 22 21 20 19 18 17 16 15 14
f 14 15 27 26
f 15 16 28 27
f 16 17 29 28
f 17 18 30 29
f 18 19 31 30
f 19 20 32 31
f 20 21 33 32
f 21 22 34 33
f 22 23 35 34
f 23 24 36 35
f 24 25 37 36
f 25 14 26 37
