# school_id SD0797
# school_name 日照市实验小学
# boundary_source footprint_convex_hull_buffer_20m
# adjacent_block_merge_distance_m 2.0
mtllib ../campus_materials.mtl
o SD0797_campus_boundary
usemtl campus_boundary
v -3.315 -67.413 0.050
v -55.856 -63.051 0.050
v -48.914 19.461 0.050
v -15.174 52.171 0.050
v 76.783 42.448 0.050
v 71.280 -8.860 0.050
v -3.315 -67.413 0.050
l 1 2 3 4 5 6 7 1
o SD0797_T001_1hao
v 52.294 1.662 0.000
v -10.438 8.294 0.000
v -7.971 31.298 0.000
v 54.761 24.665 0.000
v 52.294 1.662 18.140
v -10.438 8.294 18.140
v -7.971 31.298 18.140
v 54.761 24.665 18.140
usemtl roof
f 12 13 14 15
usemtl teaching_building
f 11 10 9 8
f 8 9 13 12
f 9 10 14 13
f 10 11 15 14
f 11 8 12 15
o SD0797_T001_1hao_seg02
v -9.486 -46.832 0.000
v -34.248 -44.776 0.000
v -29.613 10.317 0.000
v -4.860 7.078 0.000
v -9.486 -46.832 18.140
v -34.248 -44.776 18.140
v -29.613 10.317 18.140
v -4.860 7.078 18.140
usemtl roof
f 20 21 22 23
usemtl teaching_building
f 19 18 17 16
f 16 17 21 20
f 17 18 22 21
f 18 19 23 22
f 19 16 20 23
