# school_id SD0765
# school_name 威海市第十中学
# boundary_source footprint_convex_hull_buffer_20m
# adjacent_block_merge_distance_m 2.0
mtllib ../campus_materials.mtl
o SD0765_campus_boundary
usemtl campus_boundary
v -87.356 -136.688 0.050
v -91.382 -93.325 0.050
v -38.177 154.675 0.050
v 17.282 174.458 0.050
v 39.744 112.337 0.050
v 71.159 7.955 0.050
v 72.542 -58.574 0.050
v 14.898 -127.310 0.050
v -87.356 -136.688 0.050
l 1 2 3 4 5 6 7 8 9 1
o SD0765_T001_1hao
v -5.462 96.711 0.000
v 20.750 106.050 0.000
v 5.245 148.930 0.000
v -20.960 139.582 0.000
v -5.462 96.711 9.900
v 20.750 106.050 9.900
v 5.245 148.930 9.900
v -20.960 139.582 9.900
usemtl roof
f 14 15 16 17
usemtl teaching_building
f 13 12 11 10
f 10 11 15 14
f 11 12 16 15
f 12 13 17 16
f 13 10 14 17
o SD0765_T002_2hao
v -3.633 27.397 0.000
v 15.130 28.119 0.000
v 12.768 88.613 0.000
v -6.003 87.900 0.000
v -3.633 27.397 9.900
v 15.130 28.119 9.900
v 12.768 88.613 9.900
v -6.003 87.900 9.900
usemtl roof
f 22 23 24 25
usemtl teaching_building
f 21 20 19 18
f 18 19 23 22
f 19 20 24 23
f 20 21 25 24
f 21 18 22 25
o SD0765_T003_3hao
v 33.671 -51.868 0.000
v 52.390 -51.479 0.000
v 51.220 4.808 0.000
v 32.494 4.419 0.000
v 33.671 -51.868 9.900
v 52.390 -51.479 9.900
v 51.220 4.808 9.900
v 32.494 4.419 9.900
usemtl roof
f 30 31 32 33
usemtl teaching_building
f 29 28 27 26
f 26 27 31 30
f 27 28 32 31
f 28 29 33 32
f 29 26 30 33
o SD0765_T004_4hao
v 13.723 -64.460 0.000
v 13.805 -47.690 0.000
v -41.211 -47.458 0.000
v -41.285 -64.228 0.000
v 13.723 -64.460 9.900
v 13.805 -47.690 9.900
v -41.211 -47.458 9.900
v -41.285 -64.228 9.900
usemtl roof
f 38 39 40 41
usemtl teaching_building
f 37 36 35 34
f 34 35 39 38
f 35 36 40 39
f 36 37 41 40
f 37 34 38 41
o SD0765_T005_5hao
v -69.289 -114.947 0.000
v 4.867 -108.146 0.000
v 2.964 -87.725 0.000
v -71.185 -94.526 0.000
v -69.289 -114.947 9.900
v 4.867 -108.146 9.900
v 2.964 -87.725 9.900
v -71.185 -94.526 9.900
usemtl roof
f 46 47 48 49
usemtl teaching_building
f 45 44 43 42
f 42 43 47 46
f 43 44 48 47
f 44 45 49 48
f 45 42 46 49
