# school_id SD0799
# school_name 日照市岚山区黄墩镇初级中学
# boundary_source footprint_convex_hull_buffer_20m
# adjacent_block_merge_distance_m 2.0
mtllib ../campus_materials.mtl
o SD0799_campus_boundary
usemtl campus_boundary
v 18.742 -62.574 0.050
v -61.628 -21.811 0.050
v -20.606 62.011 0.050
v 62.369 25.304 0.050
v 45.883 -11.373 0.050
v 18.742 -62.574 0.050
l 1 2 3 4 5 6 1
o SD0799_T001_1hao
v 27.908 -2.580 0.000
v 35.879 15.153 0.000
v -11.100 35.936 0.000
v -19.056 18.202 0.000
v 27.908 -2.580 6.600
v 35.879 15.153 6.600
v -11.100 35.936 6.600
v -19.056 18.202 6.600
usemtl roof
f 11 12 13 14
usemtl teaching_building
f 10 9 8 7
f 7 8 12 11
f 8 9 13 12
f 9 10 14 13
f 10 7 11 14
o SD0799_T002_2hao
v 10.271 -35.852 0.000
v 18.181 -20.463 0.000
v -27.087 2.497 0.000
v -34.997 -12.893 0.000
v 10.271 -35.852 6.600
v 18.181 -20.463 6.600
v -27.087 2.497 6.600
v -34.997 -12.893 6.600
usemtl roof
f 19 20 21 22
usemtl teaching_building
f 18 17 16 15
f 15 16 20 19
f 16 17 21 20
f 17 18 22 21
f 18 15 19 22
