# school_id SD0710
# school_name 南泉小学
# boundary_source footprint_convex_hull_buffer_20m
# adjacent_block_merge_distance_m 2.0
mtllib ../campus_materials.mtl
o SD0710_campus_boundary
usemtl campus_boundary
v 8.856 -38.589 0.050
v -15.004 -33.587 0.050
v -46.752 -26.815 0.050
v -39.658 5.767 0.050
v -11.536 49.278 0.050
v 63.609 36.094 0.050
v 56.957 -1.247 0.050
v 8.856 -38.589 0.050
l 1 2 3 4 5 6 7 8 1
o SD0710_T001_1hao
v -1.935 27.288 0.000
v 40.402 19.860 0.000
v 38.616 9.834 0.000
v -3.378 16.798 0.000
v -1.935 27.288 11.640
v 40.402 19.860 11.640
v 38.616 9.834 11.640
v -3.378 16.798 11.640
usemtl roof
f 13 14 15 16
usemtl teaching_building
f 12 11 10 9
f 9 10 14 13
f 10 11 15 14
f 11 12 16 15
f 12 9 13 16
