# school_id SD0753
# school_name 威海市卫生学校南海校区
# boundary_source footprint_convex_hull_buffer_20m
# adjacent_block_merge_distance_m 2.0
mtllib ../campus_materials.mtl
o SD0753_campus_boundary
usemtl campus_boundary
v -152.195 -228.146 0.050
v -163.606 -189.808 0.050
v -164.598 -79.433 0.050
v -158.024 25.317 0.050
v -36.430 298.893 0.050
v 27.077 299.785 0.050
v 107.419 297.846 0.050
v 108.264 262.162 0.050
v 109.701 159.216 0.050
v 107.394 -19.961 0.050
v 105.110 -184.679 0.050
v 99.758 -225.204 0.050
v 17.368 -226.338 0.050
v -152.195 -228.146 0.050
l 1 2 3 4 5 6 7 8 9 10 11 12 13 14 1
o SD0753_T001_1hao
v 87.876 278.312 0.000
v 88.267 261.786 0.000
v 38.900 260.836 0.000
v 38.420 279.075 0.000
v 87.876 278.312 7.470
v 88.267 261.786 7.470
v 38.900 260.836 7.470
v 38.420 279.075 7.470
usemtl roof
f 19 20 21 22
usemtl teaching_building
f 18 17 16 15
f 15 16 20 19
f 16 17 21 20
f 17 18 22 21
f 18 15 19 22
o SD0753_T002_2hao
v 26.976 279.782 0.000
v 27.216 260.836 0.000
v -23.112 259.653 0.000
v -23.352 279.075 0.000
v 26.976 279.782 7.470
v 27.216 260.836 7.470
v -23.112 259.653 7.470
v -23.352 279.075 7.470
usemtl roof
f 27 28 29 30
usemtl teaching_building
f 26 25 24 23
f 23 24 28 27
f 24 25 29 28
f 25 26 30 29
f 26 23 27 30
o SD0753_T003_3hao
v 88.036 217.460 0.000
v 88.987 200.171 0.000
v 39.140 199.232 0.000
v 40.331 219.593 0.000
v 88.036 217.460 7.470
v 88.987 200.171 7.470
v 39.140 199.232 7.470
v 40.331 219.593 7.470
usemtl roof
f 35 36 37 38
usemtl teaching_building
f 34 33 32 31
f 31 32 36 35
f 32 33 37 36
f 33 34 38 37
f 34 31 35 38
o SD0753_T004_4hao
v 28.167 217.935 0.000
v 27.216 198.989 0.000
v -22.872 197.574 0.000
v -23.343 217.460 0.000
v 28.167 217.935 7.470
v 27.216 198.989 7.470
v -22.872 197.574 7.470
v -23.343 217.460 7.470
usemtl roof
f 43 44 45 46
usemtl teaching_building
f 42 41 40 39
f 39 40 44 43
f 40 41 45 44
f 41 42 46 45
f 42 39 43 46
o SD0753_T005_5hao
v 89.699 159.205 0.000
v 89.468 142.867 0.000
v 41.523 141.685 0.000
v 40.091 160.631 0.000
v 89.699 159.205 7.320
v 89.468 142.867 7.320
v 41.523 141.685 7.320
v 40.091 160.631 7.320
usemtl roof
f 51 52 53 54
usemtl teaching_building
f 50 49 48 47
f 47 48 52 51
f 48 49 53 52
f 49 50 54 53
f 50 47 51 54
o SD0753_T006_6hao
v 28.167 159.681 0.000
v 27.456 140.966 0.000
v -23.103 139.551 0.000
v -23.823 159.205 0.000
v 28.167 159.681 7.020
v 27.456 140.966 7.020
v -23.103 139.551 7.020
v -23.823 159.205 7.020
usemtl roof
f 59 60 61 62
usemtl teaching_building
f 58 57 56 55
f 55 56 60 59
f 56 57 61 60
f 57 58 62 61
f 58 55 59 62
o SD0753_T007_7hao
v 88.276 98.342 0.000
v 86.845 79.628 0.000
v 41.052 79.628 0.000
v 42.483 96.684 0.000
v 88.276 98.342 7.950
v 86.845 79.628 7.950
v 41.052 79.628 7.950
v 42.483 96.684 7.950
usemtl roof
f 67 68 69 70
usemtl teaching_building
f 66 65 64 63
f 63 64 68 67
f 64 65 69 68
f 65 66 70 69
f 66 63 67 70
o SD0753_T008_8hao
v 28.647 98.574 0.000
v 28.167 80.578 0.000
v -20.960 78.688 0.000
v -21.672 95.976 0.000
v 28.647 98.574 6.860
v 28.167 80.578 6.860
v -20.960 78.688 6.860
v -21.672 95.976 6.860
usemtl roof
f 75 76 77 78
usemtl teaching_building
f 74 73 72 71
f 71 72 76 75
f 72 73 77 76
f 73 74 78 77
f 74 71 75 78
o SD0753_T009_9hao
v -138.288 20.478 0.000
v -137.283 -24.015 0.000
v -76.908 -22.666 0.000
v -77.913 21.815 0.000
v -138.288 20.478 9.900
v -137.283 -24.015 9.900
v -76.908 -22.666 9.900
v -77.913 21.815 9.900
usemtl roof
f 83 84 85 86
usemtl teaching_building
f 82 81 80 79
f 79 80 84 83
f 80 81 85 84
f 81 82 86 85
f 82 79 83 86
o SD0753_T010_10hao
v 68.910 17.482 0.000
v 69.265 13.447 0.000
v 87.751 13.569 0.000
v 87.396 -19.704 0.000
v 69.150 -20.057 0.000
v 68.198 -33.079 0.000
v 25.144 -34.030 0.000
v 25.509 15.702 0.000
v 68.910 17.482 7.630
v 69.265 13.447 7.630
v 87.751 13.569 7.630
v 87.396 -19.704 7.630
v 69.150 -20.057 7.630
v 68.198 -33.079 7.630
v 25.144 -34.030 7.630
v 25.509 15.702 7.630
usemtl roof
f 95 96 97 98 99 100 101 102
usemtl teaching_building
f 94 93 92 91 90 89 88 87
f 87 88 96 95
f 88 89 97 96
f 89 90 98 97
f 90 91 99 98
f 91 92 100 99
f 92 93 101 100
f 93 94 102 101
f 94 87 95 102
o SD0753_T011_11hao
v 80.745 -51.484 0.000
v 80.745 -77.527 0.000
v 84.310 -77.671 0.000
v 85.128 -183.226 0.000
v 82.247 -183.491 0.000
v 82.194 -205.444 0.000
v 17.124 -206.339 0.000
v 17.488 -183.004 0.000
v 69.185 -181.755 0.000
v 69.363 -156.088 0.000
v 50.744 -156.619 0.000
v 50.388 -109.783 0.000
v 67.558 -109.783 0.000
v 68.456 -75.681 0.000
v 16.225 -76.577 0.000
v 15.319 -50.732 0.000
v 80.745 -51.484 6.980
v 80.745 -77.527 6.980
v 84.310 -77.671 6.980
v 85.128 -183.226 6.980
v 82.247 -183.491 6.980
v 82.194 -205.444 6.980
v 17.124 -206.339 6.980
v 17.488 -183.004 6.980
v 69.185 -181.755 6.980
v 69.363 -156.088 6.980
v 50.744 -156.619 6.980
v 50.388 -109.783 6.980
v 67.558 -109.783 6.980
v 68.456 -75.681 6.980
v 16.225 -76.577 6.980
v 15.319 -50.732 6.980
usemtl roof
f 119 120 121 122 123 124 125 126 127 128 129 130 131 132 133 134
usemtl teaching_building
f 118 117 116 115 114 113 112 111 110 109 108 107 106 105 104 103
f 103 104 120 119
f 104 105 121 120
f 105 106 122 121
f 106 107 123 122
f 107 108 124 123
f 108 109 125 124
f 109 110 126 125
f 110 111 127 126
f 111 112 128 127
f 112 113 129 128
f 113 114 130 129
f 114 115 131 130
f 115 116 132 131
f 116 117 133 132
f 117 118 134 133
f 118 103 119 134
o SD0753_T012_12hao
v -139.186 -79.274 0.000
v -144.592 -79.970 0.000
v -143.632 -186.807 0.000
v -138.386 -186.708 0.000
v -137.328 -207.986 0.000
v -73.636 -207.124 0.000
v -73.680 -182.551 0.000
v -128.996 -183.712 0.000
v -128.587 -157.326 0.000
v -111.995 -156.309 0.000
v -112.528 -111.562 0.000
v -129.370 -111.883 0.000
v -128.818 -77.306 0.000
v -74.551 -76.698 0.000
v -74.925 -51.650 0.000
v -139.080 -52.600 0.000
v -139.186 -79.274 8.750
v -144.592 -79.970 8.750
v -143.632 -186.807 8.750
v -138.386 -186.708 8.750
v -137.328 -207.986 8.750
v -73.636 -207.124 8.750
v -73.680 -182.551 8.750
v -128.996 -183.712 8.750
v -128.587 -157.326 8.750
v -111.995 -156.309 8.750
v -112.528 -111.562 8.750
v -129.370 -111.883 8.750
v -128.818 -77.306 8.750
v -74.551 -76.698 8.750
v -74.925 -51.650 8.750
v -139.080 -52.600 8.750
usemtl roof
f 151 152 153 154 155 156 157 158 159 160 161 162 163 164 165 166
usemtl teaching_building
f 150 149 148 147 146 145 144 143 142 141 140 139 138 137 136 135
f 135 136 152 151
f 136 137 153 152
f 137 138 154 153
f 138 139 155 154
f 139 140 156 155
f 140 141 157 156
f 141 142 158 157
f 142 143 159 158
f 143 144 160 159
f 144 145 161 160
f 145 146 162 161
f 146 147 163 162
f 147 148 164 163
f 148 149 165 164
f 149 150 166 165
f 150 135 151 166
o SD0753_T013_13hao
v -4.021 -101.525 0.000
v -3.843 -153.391 0.000
v 1.225 -153.756 0.000
v 0.683 -164.876 0.000
v -55.718 -166.136 0.000
v -55.354 -145.321 0.000
v -49.565 -143.884 0.000
v -50.472 -102.775 0.000
v -4.021 -101.525 7.470
v -3.843 -153.391 7.470
v 1.225 -153.756 7.470
v 0.683 -164.876 7.470
v -55.718 -166.136 7.470
v -55.354 -145.321 7.470
v -49.565 -143.884 7.470
v -50.472 -102.775 7.470
usemtl roof
f 175 176 177 178 179 180 181 182
usemtl teaching_building
f 174 173 172 171 170 169 168 167
f 167 168 176 175
f 168 169 177 176
f 169 170 178 177
f 170 171 179 178
f 171 172 180 179
f 172 173 181 180
f 173 174 182 181
f 174 167 175 182
