# school_id SD0742
# school_name 乳山市府前路学校
# boundary_source footprint_convex_hull_buffer_20m
# adjacent_block_merge_distance_m 2.0
mtllib ../campus_materials.mtl
o SD0742_campus_boundary
usemtl campus_boundary
v -93.451 -80.512 0.050
v -112.049 18.239 0.050
v 45.796 59.714 0.050
v 67.630 64.505 0.050
v 99.585 64.160 0.050
v 106.597 31.535 0.050
v 59.523 -51.232 0.050
v -3.885 -64.269 0.050
v -93.451 -80.512 0.050
l 1 2 3 4 5 6 7 8 9 1
o SD0742_T001_1hao
v 42.604 25.099 0.000
v 85.440 34.791 0.000
v 83.389 44.334 0.000
v 70.475 41.360 0.000
v 69.692 44.482 0.000
v 50.482 40.267 0.000
v 51.102 37.292 0.000
v 40.083 34.633 0.000
v 42.604 25.099 9.900
v 85.440 34.791 9.900
v 83.389 44.334 9.900
v 70.475 41.360 9.900
v 69.692 44.482 9.900
v 50.482 40.267 9.900
v 51.102 37.292 9.900
v 40.083 34.633 9.900
usemtl roof
f 18 19 20 21 22 23 24 25
usemtl teaching_building
f 17 16 15 14 13 12 11 10
f 10 11 19 18
f 11 12 20 19
f 12 13 21 20
f 13 14 22 21
f 14 15 23 22
f 15 16 24 23
f 16 17 25 24
f 17 10 18 25
o SD0742_T002_2hao
v -18.576 6.494 0.000
v 35.711 17.659 0.000
v 33.526 27.869 0.000
v -20.911 17.112 0.000
v -18.576 6.494 9.900
v 35.711 17.659 9.900
v 33.526 27.869 9.900
v -20.911 17.112 9.900
usemtl roof
f 30 31 32 33
usemtl teaching_building
f 29 28 27 26
f 26 27 31 30
f 27 28 32 31
f 28 29 33 32
f 29 26 30 33
o SD0742_T003_3hao
v -86.738 -7.005 0.000
v -34.294 3.465 0.000
v -36.181 14.259 0.000
v -88.946 3.631 0.000
v -86.738 -7.005 9.900
v -34.294 3.465 9.900
v -36.181 14.259 9.900
v -88.946 3.631 9.900
usemtl roof
f 38 39 40 41
usemtl teaching_building
f 37 36 35 34
f 34 35 39 38
f 35 36 40 39
f 36 37 41 40
f 37 34 38 41
o SD0742_T004_4hao
v -7.684 -44.632 0.000
v 46.618 -33.467 0.000
v 44.417 -23.257 0.000
v -10.019 -34.014 0.000
v -7.684 -44.632 9.900
v 46.618 -33.467 9.900
v 44.417 -23.257 9.900
v -10.019 -34.014 9.900
usemtl roof
f 46 47 48 49
usemtl teaching_building
f 45 44 43 42
f 42 43 47 46
f 43 44 48 47
f 44 45 49 48
f 45 42 46 49
o SD0742_T005_5hao
v -77.473 -57.288 0.000
v -24.133 -47.087 0.000
v -26.737 -34.153 0.000
v -69.789 -42.455 0.000
v -71.027 -33.875 0.000
v -81.031 -35.515 0.000
v -77.473 -57.288 9.900
v -24.133 -47.087 9.900
v -26.737 -34.153 9.900
v -69.789 -42.455 9.900
v -71.027 -33.875 9.900
v -81.031 -35.515 9.900
usemtl roof
f 56 57 58 59 60 61
usemtl teaching_building
f 55 54 53 52 51 50
f 50 51 57 56
f 51 52 58 57
f 52 53 59 58
f 53 54 60 59
f 54 55 61 60
f 55 50 56 61
