# school_id SD0720
# school_name 楼德一中
# boundary_source footprint_convex_hull_buffer_20m
# adjacent_block_merge_distance_m 2.0
mtllib ../campus_materials.mtl
o SD0720_campus_boundary
usemtl campus_boundary
v -124.709 -122.605 0.050
v -124.550 -71.326 0.050
v -113.660 22.506 0.050
v -102.873 55.417 0.050
v 79.465 110.870 0.050
v 120.179 117.726 0.050
v 150.261 117.956 0.050
v 153.554 -35.844 0.050
v -85.774 -121.438 0.050
v -124.709 -122.605 0.050
l 1 2 3 4 5 6 7 8 9 10 1
o SD0720_T001_1hao
v 122.009 88.167 0.000
v 117.552 88.122 0.000
v 117.534 90.035 0.000
v 106.915 89.946 0.000
v 106.933 88.111 0.000
v 91.741 87.979 0.000
v 91.705 91.428 0.000
v 84.054 91.361 0.000
v 84.162 78.992 0.000
v 130.850 79.379 0.000
v 130.688 97.806 0.000
v 121.927 97.739 0.000
v 122.009 88.167 7.820
v 117.552 88.122 7.820
v 117.534 90.035 7.820
v 106.915 89.946 7.820
v 106.933 88.111 7.820
v 91.741 87.979 7.820
v 91.705 91.428 7.820
v 84.054 91.361 7.820
v 84.162 78.992 7.820
v 130.850 79.379 7.820
v 130.688 97.806 7.820
v 121.927 97.739 7.820
usemtl roof
f 23 24 25 26 27 28 29 30 31 32 33 34
usemtl teaching_building
f 22 21 20 19 18 17 16 15 14 13 12 11
f 11 12 24 23
f 12 13 25 24
f 13 14 26 25
f 14 15 27 26
f 15 16 28 27
f 16 17 29 28
f 17 18 30 29
f 18 19 31 30
f 19 20 32 31
f 20 21 33 32
f 21 22 34 33
f 22 11 23 34
o SD0720_T002_2hao
v -37.893 39.164 0.000
v -37.884 41.883 0.000
v -25.623 41.850 0.000
v -25.632 39.651 0.000
v 20.433 39.496 0.000
v 20.397 27.712 0.000
v 11.086 27.745 0.000
v 11.095 31.426 0.000
v -26.020 31.537 0.000
v -26.038 24.142 0.000
v -42.313 24.186 0.000
v -42.295 30.664 0.000
v -75.477 30.763 0.000
v -75.486 26.961 0.000
v -87.151 26.994 0.000
v -87.106 39.308 0.000
v -37.893 39.164 16.700
v -37.884 41.883 16.700
v -25.623 41.850 16.700
v -25.632 39.651 16.700
v 20.433 39.496 16.700
v 20.397 27.712 16.700
v 11.086 27.745 16.700
v 11.095 31.426 16.700
v -26.020 31.537 16.700
v -26.038 24.142 16.700
v -42.313 24.186 16.700
v -42.295 30.664 16.700
v -75.477 30.763 16.700
v -75.486 26.961 16.700
v -87.151 26.994 16.700
v -87.106 39.308 16.700
usemtl roof
f 51 52 53 54 55 56 57 58 59 60 61 62 63 64 65 66
usemtl teaching_building
f 50 49 48 47 46 45 44 43 42 41 40 39 38 37 36 35
f 35 36 52 51
f 36 37 53 52
f 37 38 54 53
f 38 39 55 54
f 39 40 56 55
f 40 41 57 56
f 41 42 58 57
f 42 43 59 58
f 43 44 60 59
f 44 45 61 60
f 45 46 62 61
f 46 47 63 62
f 47 48 64 63
f 48 49 65 64
f 49 50 66 65
f 50 35 51 66
o SD0720_T003_3hao
v 49.708 -3.692 0.000
v 26.495 -2.753 0.000
v 26.342 40.026 0.000
v 49.799 39.452 0.000
v 49.708 -3.692 8.420
v 26.495 -2.753 8.420
v 26.342 40.026 8.420
v 49.799 39.452 8.420
usemtl roof
f 71 72 73 74
usemtl teaching_building
f 70 69 68 67
f 67 68 72 71
f 68 69 73 72
f 69 70 74 73
f 70 67 71 74
o SD0720_T003_3hao_seg02
v 50.159 28.033 0.000
v 65.460 27.823 0.000
v 65.000 -3.913 0.000
v 49.708 -3.692 0.000
v 50.159 28.033 8.420
v 65.460 27.823 8.420
v 65.000 -3.913 8.420
v 49.708 -3.692 8.420
usemtl roof
f 79 80 81 82
usemtl teaching_building
f 78 77 76 75
f 75 76 80 79
f 76 77 81 80
f 77 78 82 81
f 78 75 79 82
o SD0720_T004_4hao
v 124.544 25.822 0.000
v 92.291 25.059 0.000
v 93.094 -8.766 0.000
v 122.036 -8.081 0.000
v 122.369 -22.119 0.000
v 133.250 -21.865 0.000
v 131.869 37.086 0.000
v 124.282 36.909 0.000
v 124.544 25.822 9.440
v 92.291 25.059 9.440
v 93.094 -8.766 9.440
v 122.036 -8.081 9.440
v 122.369 -22.119 9.440
v 133.250 -21.865 9.440
v 131.869 37.086 9.440
v 124.282 36.909 9.440
usemtl roof
f 91 92 93 94 95 96 97 98
usemtl teaching_building
f 90 89 88 87 86 85 84 83
f 83 84 92 91
f 84 85 93 92
f 85 86 94 93
f 86 87 95 94
f 87 88 96 95
f 88 89 97 96
f 89 90 98 97
f 90 83 91 98
o SD0720_T005_5hao
v -42.395 -22.318 0.000
v -94.107 -22.694 0.000
v -94.279 -4.322 0.000
v -94.026 18.195 0.000
v -81.143 18.051 0.000
v -81.393 -4.217 0.000
v -42.530 -3.902 0.000
v -42.395 -22.318 11.620
v -94.107 -22.694 11.620
v -94.279 -4.322 11.620
v -94.026 18.195 11.620
v -81.143 18.051 11.620
v -81.393 -4.217 11.620
v -42.530 -3.902 11.620
usemtl roof
f 106 107 108 109 110 111 112
usemtl teaching_building
f 105 104 103 102 101 100 99
f 99 100 107 106
f 100 101 108 107
f 101 102 109 108
f 102 103 110 109
f 103 104 111 110
f 104 105 112 111
f 105 99 106 112
o SD0720_T006_6hao
v 61.184 -19.886 0.000
v 61.130 -28.619 0.000
v 14.542 -28.320 0.000
v 14.596 -19.599 0.000
v 61.184 -19.886 9.440
v 61.130 -28.619 9.440
v 14.542 -28.320 9.440
v 14.596 -19.599 9.440
usemtl roof
f 117 118 119 120
usemtl teaching_building
f 116 115 114 113
f 113 114 118 117
f 114 115 119 118
f 115 116 120 119
f 116 113 117 120
o SD0720_T007_7hao
v -44.659 -27.116 0.000
v -44.524 -34.853 0.000
v -91.689 -35.660 0.000
v -91.825 -27.934 0.000
v -44.659 -27.116 11.700
v -44.524 -34.853 11.700
v -91.689 -35.660 11.700
v -91.825 -27.934 11.700
usemtl roof
f 125 126 127 128
usemtl teaching_building
f 124 123 122 121
f 121 122 126 125
f 122 123 127 126
f 123 124 128 127
f 124 121 125 128
o SD0720_T008_8hao
v -50.189 -46.350 0.000
v -50.180 -51.589 0.000
v -42.088 -51.578 0.000
v -42.079 -58.454 0.000
v -46.833 -58.454 0.000
v -46.824 -64.511 0.000
v -86.078 -64.578 0.000
v -86.105 -46.405 0.000
v -50.189 -46.350 9.890
v -50.180 -51.589 9.890
v -42.088 -51.578 9.890
v -42.079 -58.454 9.890
v -46.833 -58.454 9.890
v -46.824 -64.511 9.890
v -86.078 -64.578 9.890
v -86.105 -46.405 9.890
usemtl roof
f 137 138 139 140 141 142 143 144
usemtl teaching_building
f 136 135 134 133 132 131 130 129
f 129 130 138 137
f 130 131 139 138
f 131 132 140 139
f 132 133 141 140
f 133 134 142 141
f 134 135 143 142
f 135 136 144 143
f 136 129 137 144
o SD0720_T009_9hao
v 4.816 -49.213 0.000
v 4.924 -61.980 0.000
v -23.305 -62.389 0.000
v -23.837 -49.423 0.000
v 4.816 -49.213 9.900
v 4.924 -61.980 9.900
v -23.305 -62.389 9.900
v -23.837 -49.423 9.900
usemtl roof
f 149 150 151 152
usemtl teaching_building
f 148 147 146 145
f 145 146 150 149
f 146 147 151 150
f 147 148 152 151
f 148 145 149 152
o SD0720_T010_10hao
v -104.645 -101.995 0.000
v -104.554 -72.514 0.000
v -90.345 -72.747 0.000
v -43.188 -71.929 0.000
v -43.053 -79.666 0.000
v -90.127 -80.471 0.000
v -89.533 -101.542 0.000
v -104.645 -101.995 9.630
v -104.554 -72.514 9.630
v -90.345 -72.747 9.630
v -43.188 -71.929 9.630
v -43.053 -79.666 9.630
v -90.127 -80.471 9.630
v -89.533 -101.542 9.630
usemtl roof
f 160 161 162 163 164 165 166
usemtl teaching_building
f 159 158 157 156 155 154 153
f 153 154 161 160
f 154 155 162 161
f 155 156 163 162
f 156 157 164 163
f 157 158 165 164
f 158 159 166 165
f 159 153 160 166
