# school_id SD0772
# school_name 水师学堂
# boundary_source footprint_convex_hull_buffer_20m
# adjacent_block_merge_distance_m 2.0
mtllib ../campus_materials.mtl
o SD0772_campus_boundary
usemtl campus_boundary
v -55.241 -100.428 0.050
v -92.112 -89.238 0.050
v -48.547 69.113 0.050
v -40.510 96.168 0.050
v 41.903 75.277 0.050
v 86.797 62.375 0.050
v 78.271 33.057 0.050
v 53.773 -35.385 0.050
v 28.042 -80.468 0.050
v -55.241 -100.428 0.050
l 1 2 3 4 5 6 7 8 9 10 1
o SD0772_T001_1hao
v 4.800 -33.795 0.000
v 11.218 -12.976 0.000
v 4.408 -10.909 0.000
v 0.840 -22.500 0.000
v -31.093 -12.781 0.000
v -27.525 -1.199 0.000
v -35.209 1.145 0.000
v -41.627 -19.684 0.000
v 4.800 -33.795 4.950
v 11.218 -12.976 4.950
v 4.408 -10.909 4.950
v 0.840 -22.500 4.950
v -31.093 -12.781 4.950
v -27.525 -1.199 4.950
v -35.209 1.145 4.950
v -41.627 -19.684 4.950
usemtl roof
f 19 20 21 22 23 24 25 26
usemtl teaching_building
f 18 17 16 15 14 13 12 11
f 11 12 20 19
f 12 13 21 20
f 13 14 22 21
f 14 15 23 22
f 15 16 24 23
f 16 17 25 24
f 17 18 26 25
f 18 11 19 26
