# school_id SD0751
# school_name 威海大光华国际学校
# boundary_source footprint_convex_hull_buffer_20m
# adjacent_block_merge_distance_m 2.0
mtllib ../campus_materials.mtl
o SD0751_campus_boundary
usemtl campus_boundary
v -57.131 -110.971 0.050
v -119.919 -102.877 0.050
v -160.934 29.509 0.050
v -156.626 59.877 0.050
v 100.081 109.323 0.050
v 144.304 103.014 0.050
v 149.781 -10.465 0.050
v 148.041 -26.530 0.050
v 139.856 -80.386 0.050
v -57.131 -110.971 0.050
l 1 2 3 4 5 6 7 8 9 10 1
o SD0751_T001_1hao
v 120.882 56.251 0.000
v 125.124 85.548 0.000
v 100.574 89.050 0.000
v 96.325 59.753 0.000
v 120.882 56.251 6.600
v 125.124 85.548 6.600
v 100.574 89.050 6.600
v 96.325 59.753 6.600
usemtl roof
f 15 16 17 18
usemtl teaching_building
f 14 13 12 11
f 11 12 16 15
f 12 13 17 16
f 13 14 18 17
f 14 11 15 18
o SD0751_T002_2hao
v -85.021 16.141 0.000
v -82.963 28.510 0.000
v -104.448 32.031 0.000
v -106.499 19.662 0.000
v -85.021 16.141 9.900
v -82.963 28.510 9.900
v -104.448 32.031 9.900
v -106.499 19.662 9.900
usemtl roof
f 23 24 25 26
usemtl teaching_building
f 22 21 20 19
f 19 20 24 23
f 20 21 25 24
f 21 22 26 25
f 22 19 23 26
o SD0751_T003_3hao
v -34.249 1.835 0.000
v -31.606 16.892 0.000
v -77.655 24.860 0.000
v -80.291 9.813 0.000
v -34.249 1.835 6.600
v -31.606 16.892 6.600
v -77.655 24.860 6.600
v -80.291 9.813 6.600
usemtl roof
f 31 32 33 34
usemtl teaching_building
f 30 29 28 27
f 27 28 32 31
f 28 29 33 32
f 29 30 34 33
f 30 27 31 34
o SD0751_T004_4hao
v 56.554 -36.319 0.000
v 64.816 16.901 0.000
v 29.975 22.238 0.000
v 21.706 -30.982 0.000
v 56.554 -36.319 6.600
v 64.816 16.901 6.600
v 29.975 22.238 6.600
v 21.706 -30.982 6.600
usemtl roof
f 39 40 41 42
usemtl teaching_building
f 38 37 36 35
f 35 36 40 39
f 36 37 41 40
f 37 38 42 41
f 38 35 39 42
o SD0751_T005_5hao
v 128.204 -23.950 0.000
v 129.729 -9.867 0.000
v 77.068 -4.243 0.000
v 75.543 -18.326 0.000
v 128.204 -23.950 9.900
v 129.729 -9.867 9.900
v 77.068 -4.243 9.900
v 75.543 -18.326 9.900
usemtl roof
f 47 48 49 50
usemtl teaching_building
f 46 45 44 43
f 43 44 48 47
f 44 45 49 48
f 45 46 50 49
f 46 43 47 50
o SD0751_T006_6hao
v 122.288 -62.874 0.000
v 124.191 -48.244 0.000
v 74.603 -41.925 0.000
v 72.715 -56.536 0.000
v 122.288 -62.874 9.900
v 124.191 -48.244 9.900
v 74.603 -41.925 9.900
v 72.715 -56.536 9.900
usemtl roof
f 55 56 57 58
usemtl teaching_building
f 54 53 52 51
f 51 52 56 55
f 52 53 57 56
f 53 54 58 57
f 54 51 55 58
o SD0751_T007_7hao
v -57.392 -90.772 0.000
v -53.165 -58.528 0.000
v -100.398 -52.423 0.000
v -104.618 -84.684 0.000
v -57.392 -90.772 9.900
v -53.165 -58.528 9.900
v -100.398 -52.423 9.900
v -104.618 -84.684 9.900
usemtl roof
f 63 64 65 66
usemtl teaching_building
f 62 61 60 59
f 59 60 64 63
f 60 61 65 64
f 61 62 66 65
f 62 59 63 66
