# school_id SD0755
# school_name 威海市新都中学
# boundary_source footprint_convex_hull_buffer_20m
# adjacent_block_merge_distance_m 2.0
mtllib ../campus_materials.mtl
o SD0755_campus_boundary
usemtl campus_boundary
v 71.928 -37.904 0.050
v -75.907 -21.015 0.050
v -70.437 36.064 0.050
v 74.486 22.817 0.050
v 71.928 -37.904 0.050
l 1 2 3 4 5 1
o SD0755_T001_1hao
v 52.850 -15.594 0.000
v 53.702 4.633 0.000
v -52.428 14.334 0.000
v -54.125 -3.373 0.000
v 52.850 -15.594 9.900
v 53.702 4.633 9.900
v -52.428 14.334 9.900
v -54.125 -3.373 9.900
usemtl roof
f 10 11 12 13
usemtl teaching_building
f 9 8 7 6
f 6 7 11 10
f 7 8 12 11
f 8 9 13 12
f 9 6 10 13
