# school_id SD0728
# school_name 泰安市东平县佛山小学
# boundary_source footprint_convex_hull_buffer_20m
# adjacent_block_merge_distance_m 2.0
mtllib ../campus_materials.mtl
o SD0728_campus_boundary
usemtl campus_boundary
v 66.529 -53.269 0.050
v -30.319 -48.870 0.050
v -71.084 -47.019 0.050
v -69.232 -6.255 0.050
v -66.529 53.269 0.050
v 71.084 47.019 0.050
v 69.232 6.255 0.050
v 66.529 -53.269 0.050
l 1 2 3 4 5 6 7 8 1
o SD0728_T001_1hao
v -49.253 -7.162 0.000
v -47.457 32.382 0.000
v 50.197 27.947 0.000
v 49.253 7.162 0.000
v -27.616 10.653 0.000
v -28.468 -8.106 0.000
v 48.401 -11.597 0.000
v 47.457 -32.382 0.000
v -29.412 -28.891 0.000
v -29.412 -28.891 0.000
v -50.197 -27.947 0.000
v -49.253 -7.162 0.000
v -49.253 -7.162 14.130
v -47.457 32.382 14.130
v 50.197 27.947 14.130
v 49.253 7.162 14.130
v -27.616 10.653 14.130
v -28.468 -8.106 14.130
v 48.401 -11.597 14.130
v 47.457 -32.382 14.130
v -29.412 -28.891 14.130
v -29.412 -28.891 14.130
v -50.197 -27.947 14.130
v -49.253 -7.162 14.130
usemtl roof
f 21 22 23 24 25 26 27 28 29 30 31 32
usemtl teaching_building
f 20 19 18 17 16 15 14 13 12 11 10 9
f 9 10 22 21
f 10 11 23 22
f 11 12 24 23
f 12 13 25 24
f 13 14 26 25
f 14 15 27 26
f 15 16 28 27
f 16 17 29 28
f 17 18 30 29
f 18 19 31 30
f 19 20 32 31
f 20 9 21 32
