# school_id SD0716
# school_name 新泰中学（新泰一中老校）
# boundary_source footprint_convex_hull_buffer_20m
# adjacent_block_merge_distance_m 2.0
mtllib ../campus_materials.mtl
o SD0716_campus_boundary
usemtl campus_boundary
v 44.756 -119.258 0.050
v -102.003 -91.392 0.050
v -160.298 -80.034 0.050
v -151.175 -43.104 0.050
v -84.972 55.518 0.050
v -15.257 109.200 0.050
v 42.064 146.422 0.050
v 79.490 167.334 0.050
v 114.044 160.220 0.050
v 104.050 96.305 0.050
v 91.112 24.281 0.050
v 72.197 -79.382 0.050
v 44.756 -119.258 0.050
l 1 2 3 4 5 6 7 8 9 10 11 12 13 1
o SD0716_T001_1hao
v 36.521 86.751 0.000
v 32.302 55.844 0.000
v -7.739 62.919 0.000
v -3.691 92.864 0.000
v 36.521 86.751 9.040
v 32.302 55.844 9.040
v -7.739 62.919 9.040
v -3.691 92.864 9.040
usemtl roof
f 18 19 20 21
usemtl teaching_building
f 17 16 15 14
f 14 15 19 18
f 15 16 20 19
f 16 17 21 20
f 17 14 18 21
o SD0716_T002_2hao
v 45.979 -70.205 0.000
v 62.352 29.613 0.000
v 67.528 63.737 0.000
v 42.400 66.246 0.000
v 44.708 83.424 0.000
v 60.928 81.489 0.000
v 61.847 84.562 0.000
v 72.387 82.948 0.000
v 75.300 101.597 0.000
v 84.325 99.618 0.000
v 71.432 27.844 0.000
v 53.291 -71.575 0.000
v 45.979 -70.205 14.040
v 62.352 29.613 14.040
v 67.528 63.737 14.040
v 42.400 66.246 14.040
v 44.708 83.424 14.040
v 60.928 81.489 14.040
v 61.847 84.562 14.040
v 72.387 82.948 14.040
v 75.300 101.597 14.040
v 84.325 99.618 14.040
v 71.432 27.844 14.040
v 53.291 -71.575 14.040
usemtl roof
f 34 35 36 37 38 39 40 41 42 43 44 45
usemtl teaching_building
f 33 32 31 30 29 28 27 26 25 24 23 22
f 22 23 35 34
f 23 24 36 35
f 24 25 37 36
f 25 26 38 37
f 26 27 39 38
f 27 28 40 39
f 28 29 41 40
f 29 30 42 41
f 30 31 43 42
f 31 32 44 43
f 32 33 45 44
f 33 22 34 45
o SD0716_T002_2hao_seg02
v 91.339 144.475 0.000
v 84.325 99.618 0.000
v 48.990 107.389 0.000
v 52.399 129.287 0.000
v 78.852 124.511 0.000
v 82.747 146.244 0.000
v 91.339 144.475 14.040
v 84.325 99.618 14.040
v 48.990 107.389 14.040
v 52.399 129.287 14.040
v 78.852 124.511 14.040
v 82.747 146.244 14.040
usemtl roof
f 52 53 54 55 56 57
usemtl teaching_building
f 51 50 49 48 47 46
f 46 47 53 52
f 47 48 54 53
f 48 49 55 54
f 49 50 56 55
f 50 51 57 56
f 51 46 52 57
o SD0716_T003_3hao
v -70.185 41.662 0.000
v -72.529 24.296 0.000
v -26.790 18.216 0.000
v -24.446 35.582 0.000
v -70.185 41.662 16.680
v -72.529 24.296 16.680
v -26.790 18.216 16.680
v -24.446 35.582 16.680
usemtl roof
f 62 63 64 65
usemtl teaching_building
f 61 60 59 58
f 58 59 63 62
f 59 60 64 63
f 60 61 65 64
f 61 58 62 65
o SD0716_T004_4hao
v 44.708 25.633 0.000
v 43.455 13.739 0.000
v -12.418 19.521 0.000
v -11.174 31.415 0.000
v 44.708 25.633 10.090
v 43.455 13.739 10.090
v -12.418 19.521 10.090
v -11.174 31.415 10.090
usemtl roof
f 70 71 72 73
usemtl teaching_building
f 69 68 67 66
f 66 67 71 70
f 67 68 72 71
f 68 69 73 72
f 69 66 70 73
o SD0716_T005_5hao
v -30.054 -6.843 0.000
v -31.578 -24.695 0.000
v -78.227 -20.782 0.000
v -76.713 -2.919 0.000
v -30.054 -6.843 9.900
v -31.578 -24.695 9.900
v -78.227 -20.782 9.900
v -76.713 -2.919 9.900
usemtl roof
f 78 79 80 81
usemtl teaching_building
f 77 76 75 74
f 74 75 79 78
f 75 76 80 79
f 76 77 81 80
f 77 74 78 81
o SD0716_T006_6hao
v -7.847 -5.196 0.000
v -5.846 -15.377 0.000
v 29.759 -21.446 0.000
v 31.761 -9.883 0.000
v 40.290 -11.331 0.000
v 36.242 -34.788 0.000
v -6.342 -27.536 0.000
v -7.396 -33.649 0.000
v -22.255 -31.129 0.000
v -17.504 -3.560 0.000
v -7.847 -5.196 8.950
v -5.846 -15.377 8.950
v 29.759 -21.446 8.950
v 31.761 -9.883 8.950
v 40.290 -11.331 8.950
v 36.242 -34.788 8.950
v -6.342 -27.536 8.950
v -7.396 -33.649 8.950
v -22.255 -31.129 8.950
v -17.504 -3.560 8.950
usemtl roof
f 92 93 94 95 96 97 98 99 100 101
usemtl teaching_building
f 91 90 89 88 87 86 85 84 83 82
f 82 83 93 92
f 83 84 94 93
f 84 85 95 94
f 85 86 96 95
f 86 87 97 96
f 87 88 98 97
f 88 89 99 98
f 89 90 100 99
f 90 91 101 100
f 91 82 92 101
o SD0716_T007_7hao
v -95.430 -58.631 0.000
v -98.225 -71.752 0.000
v -135.840 -64.423 0.000
v -132.604 -51.324 0.000
v -95.430 -58.631 11.300
v -98.225 -71.752 11.300
v -135.840 -64.423 11.300
v -132.604 -51.324 11.300
usemtl roof
f 106 107 108 109
usemtl teaching_building
f 105 104 103 102
f 102 103 107 106
f 103 104 108 107
f 104 105 109 108
f 105 102 106 109
o SD0716_T008_8hao
v 40.425 -55.215 0.000
v 37.883 -76.660 0.000
v 5.605 -72.128 0.000
v 5.828 -69.055 0.000
v -21.471 -66.093 0.000
v -18.928 -47.411 0.000
v 7.129 -51.170 0.000
v 40.425 -55.215 17.840
v 37.883 -76.660 17.840
v 5.605 -72.128 17.840
v 5.828 -69.055 17.840
v -21.471 -66.093 17.840
v -18.928 -47.411 17.840
v 7.129 -51.170 17.840
usemtl roof
f 117 118 119 120 121 122 123
usemtl teaching_building
f 116 115 114 113 112 111 110
f 110 111 118 117
f 111 112 119 118
f 112 113 120 119
f 113 114 121 120
f 114 115 122 121
f 115 116 123 122
f 116 110 117 123
o SD0716_T009_9hao
v -0.373 -80.408 0.000
v -2.654 -89.616 0.000
v 35.674 -97.176 0.000
v 37.071 -87.968 0.000
v -0.373 -80.408 18.450
v -2.654 -89.616 18.450
v 35.674 -97.176 18.450
v 37.071 -87.968 18.450
usemtl roof
f 128 129 130 131
usemtl teaching_building
f 127 126 125 124
f 124 125 129 128
f 125 126 130 129
f 126 127 131 130
f 127 124 128 131
