# school_id SD0703
# school_name 东平县第三实验小学
# boundary_source footprint_convex_hull_buffer_20m
# adjacent_block_merge_distance_m 2.0
mtllib ../campus_materials.mtl
o SD0703_campus_boundary
usemtl campus_boundary
v 68.674 -38.482 0.050
v 36.241 -33.645 0.050
v -76.798 -14.087 0.050
v -68.304 42.377 0.050
v 77.591 20.717 0.050
v 68.674 -38.482 0.050
l 1 2 3 4 5 6 1
o SD0703_T001_1hao
v -54.110 2.285 0.000
v -41.255 0.373 0.000
v -40.137 7.746 0.000
v 40.874 -4.292 0.000
v 39.422 -13.898 0.000
v 51.872 -15.755 0.000
v 54.829 3.877 0.000
v -51.496 19.662 0.000
v -54.110 2.285 7.500
v -41.255 0.373 7.500
v -40.137 7.746 7.500
v 40.874 -4.292 7.500
v 39.422 -13.898 7.500
v 51.872 -15.755 7.500
v 54.829 3.877 7.500
v -51.496 19.662 7.500
usemtl roof
f 15 16 17 18 19 20 21 22
usemtl teaching_building
f 14 13 12 11 10 9 8 7
f 7 8 16 15
f 8 9 17 16
f 9 10 18 17
f 10 11 19 18
f 11 12 20 19
f 12 13 21 20
f 13 14 22 21
f 14 7 15 22
