# school_id SD0771
# school_name 威海高新区山大实验学校
# boundary_source footprint_convex_hull_buffer_20m
# adjacent_block_merge_distance_m 2.0
mtllib ../campus_materials.mtl
o SD0771_campus_boundary
usemtl campus_boundary
v -16.191 -127.145 0.050
v -28.537 -125.804 0.050
v -39.192 -121.295 0.050
v -104.820 -67.853 0.050
v -110.579 -58.072 0.050
v -112.045 -48.829 0.050
v -110.857 -37.047 0.050
v -79.078 120.269 0.050
v -64.891 165.716 0.050
v -42.925 201.517 0.050
v 96.187 266.759 0.050
v 123.302 242.059 0.050
v 239.895 62.959 0.050
v 294.292 -31.240 0.050
v 250.734 -62.979 0.050
v -6.145 -125.180 0.050
v -16.191 -127.145 0.050
l 1 2 3 4 5 6 7 8 9 10 11 12 13 14 15 16 17 1
o SD0771_T001_1hao
v 73.600 191.846 0.000
v 107.939 229.000 0.000
v 92.590 242.982 0.000
v 58.259 205.828 0.000
v 73.600 191.846 8.690
v 107.939 229.000 8.690
v 92.590 242.982 8.690
v 58.259 205.828 8.690
usemtl roof
f 22 23 24 25
usemtl teaching_building
f 21 20 19 18
f 18 19 23 22
f 19 20 24 23
f 20 21 25 24
f 21 18 22 25
o SD0771_T002_2hao
v -14.919 136.810 0.000
v -2.967 154.451 0.000
v 17.644 159.269 0.000
v 22.735 143.045 0.000
v 63.469 156.684 0.000
v 52.220 184.193 0.000
v 5.085 170.786 0.000
v -24.281 185.370 0.000
v -29.010 185.953 0.000
v -46.542 157.379 0.000
v -14.919 136.810 9.900
v -2.967 154.451 9.900
v 17.644 159.269 9.900
v 22.735 143.045 9.900
v 63.469 156.684 9.900
v 52.220 184.193 9.900
v 5.085 170.786 9.900
v -24.281 185.370 9.900
v -29.010 185.953 9.900
v -46.542 157.379 9.900
usemtl roof
f 36 37 38 39 40 41 42 43 44 45
usemtl teaching_building
f 35 34 33 32 31 30 29 28 27 26
f 26 27 37 36
f 27 28 38 37
f 28 29 39 38
f 29 30 40 39
f 30 31 41 40
f 31 32 42 41
f 32 33 43 42
f 33 34 44 43
f 34 35 45 44
f 35 26 36 45
o SD0771_T003_3hao
v -21.447 81.598 0.000
v -20.847 114.592 0.000
v -59.679 115.296 0.000
v -60.285 82.302 0.000
v -21.447 81.598 9.900
v -20.847 114.592 9.900
v -59.679 115.296 9.900
v -60.285 82.302 9.900
usemtl roof
f 50 51 52 53
usemtl teaching_building
f 49 48 47 46
f 46 47 51 50
f 47 48 52 51
f 48 49 53 52
f 49 46 50 53
o SD0771_T004_4hao
v 32.645 55.506 0.000
v 54.936 85.183 0.000
v 26.044 106.586 0.000
v 3.745 76.909 0.000
v 32.645 55.506 8.690
v 54.936 85.183 8.690
v 26.044 106.586 8.690
v 3.745 76.909 8.690
usemtl roof
f 58 59 60 61
usemtl teaching_building
f 57 56 55 54
f 54 55 59 58
f 55 56 60 59
f 56 57 61 60
f 57 54 58 61
o SD0771_T005_5hao
v -63.941 10.523 0.000
v -60.396 4.186 0.000
v -53.640 -2.282 0.000
v -36.477 -13.687 0.000
v -31.859 -15.457 0.000
v -27.478 -15.689 0.000
v -23.090 -14.521 0.000
v -16.340 -7.702 0.000
v -13.735 -2.523 0.000
v -10.893 16.175 0.000
v -13.387 32.408 0.000
v -16.932 39.459 0.000
v -30.431 47.927 0.000
v -43.219 49.215 0.000
v -49.850 46.862 0.000
v -57.436 42.044 0.000
v -62.409 34.159 0.000
v -65.362 27.219 0.000
v -65.843 16.286 0.000
v -63.941 10.523 9.900
v -60.396 4.186 9.900
v -53.640 -2.282 9.900
v -36.477 -13.687 9.900
v -31.859 -15.457 9.900
v -27.478 -15.689 9.900
v -23.090 -14.521 9.900
v -16.340 -7.702 9.900
v -13.735 -2.523 9.900
v -10.893 16.175 9.900
v -13.387 32.408 9.900
v -16.932 39.459 9.900
v -30.431 47.927 9.900
v -43.219 49.215 9.900
v -49.850 46.862 9.900
v -57.436 42.044 9.900
v -62.409 34.159 9.900
v -65.362 27.219 9.900
v -65.843 16.286 9.900
usemtl roof
f 81 82 83 84 85 86 87 88 89 90 91 92 93 94 95 96 97 98 99
usemtl teaching_building
f 80 79 78 77 76 75 74 73 72 71 70 69 68 67 66 65 64 63 62
f 62 63 82 81
f 63 64 83 82
f 64 65 84 83
f 65 66 85 84
f 66 67 86 85
f 67 68 87 86
f 68 69 88 87
f 69 70 89 88
f 70 71 90 89
f 71 72 91 90
f 72 73 92 91
f 73 74 93 92
f 74 75 94 93
f 75 76 95 94
f 76 77 96 95
f 77 78 97 96
f 78 79 98 97
f 79 80 99 98
f 80 62 81 99
o SD0771_T006_6hao
v 55.217 -7.192 0.000
v 77.204 19.585 0.000
v 49.023 42.396 0.000
v 27.043 15.610 0.000
v 55.217 -7.192 8.690
v 77.204 19.585 8.690
v 49.023 42.396 8.690
v 27.043 15.610 8.690
usemtl roof
f 104 105 106 107
usemtl teaching_building
f 103 102 101 100
f 100 101 105 104
f 101 102 106 105
f 102 103 107 106
f 103 100 104 107
o SD0771_T007_7hao
v -91.420 -51.193 0.000
v -89.407 -54.612 0.000
v -79.808 -60.496 0.000
v -70.572 -62.729 0.000
v -60.041 -63.313 0.000
v -49.614 -59.551 0.000
v -39.667 -58.263 0.000
v -34.938 -59.551 0.000
v -31.378 -62.256 0.000
v -26.997 -68.714 0.000
v -27.116 -74.487 0.000
v -32.799 -88.005 0.000
v -33.280 -93.295 0.000
v -32.562 -98.122 0.000
v -31.267 -101.523 0.000
v -28.773 -103.987 0.000
v -23.452 -106.239 0.000
v -17.051 -106.934 0.000
v -10.420 -105.637 0.000
v 2.961 -97.168 0.000
v 9.473 -91.766 0.000
v 16.104 -85.772 0.000
v 20.841 -78.832 0.000
v 21.551 -69.548 0.000
v 20.722 -64.610 0.000
v 18.946 -59.078 0.000
v 16.223 -56.030 0.000
v 8.881 -50.841 0.000
v 3.198 -49.090 0.000
v -2.012 -48.025 0.000
v -19.064 -47.793 0.000
v -28.418 -45.560 0.000
v -36.944 -37.323 0.000
v -44.877 -26.390 0.000
v -51.035 -22.749 0.000
v -58.620 -21.693 0.000
v -67.856 -23.221 0.000
v -78.158 -27.687 0.000
v -88.452 -35.090 0.000
v -91.057 -40.038 0.000
v -91.886 -48.256 0.000
v -91.420 -51.193 9.900
v -89.407 -54.612 9.900
v -79.808 -60.496 9.900
v -70.572 -62.729 9.900
v -60.041 -63.313 9.900
v -49.614 -59.551 9.900
v -39.667 -58.263 9.900
v -34.938 -59.551 9.900
v -31.378 -62.256 9.900
v -26.997 -68.714 9.900
v -27.116 -74.487 9.900
v -32.799 -88.005 9.900
v -33.280 -93.295 9.900
v -32.562 -98.122 9.900
v -31.267 -101.523 9.900
v -28.773 -103.987 9.900
v -23.452 -106.239 9.900
v -17.051 -106.934 9.900
v -10.420 -105.637 9.900
v 2.961 -97.168 9.900
v 9.473 -91.766 9.900
v 16.104 -85.772 9.900
v 20.841 -78.832 9.900
v 21.551 -69.548 9.900
v 20.722 -64.610 9.900
v 18.946 -59.078 9.900
v 16.223 -56.030 9.900
v 8.881 -50.841 9.900
v 3.198 -49.090 9.900
v -2.012 -48.025 9.900
v -19.064 -47.793 9.900
v -28.418 -45.560 9.900
v -36.944 -37.323 9.900
v -44.877 -26.390 9.900
v -51.035 -22.749 9.900
v -58.620 -21.693 9.900
v -67.856 -23.221 9.900
v -78.158 -27.687 9.900
v -88.452 -35.090 9.900
v -91.057 -40.038 9.900
v -91.886 -48.256 9.900
usemtl roof
f 149 150 151 152 153 154 155 156 157 158 159 160 161 162 163 164 165 166 167 168 169 170 171 172 173 174 175 176 177 178 179 180 181 182 183 184 185 186 187 188 189
usemtl teaching_building
f 148 147 146 145 144 143 142 141 140 139 138 137 136 135 134 133 132 131 130 129 128 127 126 125 124 123 122 121 120 119 118 117 116 115 114 113 112 111 110 109 108
f 108 109 150 149
f 109 110 151 150
f 110 111 152 151
f 111 112 153 152
f 112 113 154 153
f 113 114 155 154
f 114 115 156 155
f 115 116 157 156
f 116 117 158 157
f 117 118 159 158
f 118 119 160 159
f 119 120 161 160
f 120 121 162 161
f 121 122 163 162
f 122 123 164 163
f 123 124 165 164
f 124 125 166 165
f 125 126 167 166
f 126 127 168 167
f 127 128 169 168
f 128 129 170 169
f 129 130 171 170
f 130 131 172 171
f 131 132 173 172
f 132 133 174 173
f 133 134 175 174
f 134 135 176 175
f 135 136 177 176
f 136 137 178 177
f 137 138 179 178
f 138 139 180 179
f 139 140 181 180
f 140 141 182 181
f 141 142 183 182
f 142 143 184 183
f 143 144 185 184
f 144 145 186 185
f 145 146 187 186
f 146 147 188 187
f 147 148 189 188
f 148 108 149 189
