# school_id SD0857
# school_name 临沂西郊实验学校柳青校区北区
# boundary_source footprint_convex_hull_buffer_20m
# adjacent_block_merge_distance_m 2.0
mtllib ../campus_materials.mtl
o SD0857_campus_boundary
usemtl campus_boundary
v 36.013 -65.325 0.050
v -45.393 -63.522 0.050
v -49.480 26.995 0.050
v -49.202 65.544 0.050
v -8.993 65.262 0.050
v 52.450 62.406 0.050
v 52.206 25.125 0.050
v 36.013 -65.325 0.050
l 1 2 3 4 5 6 7 8 1
o SD0857_T001_1hao
v 32.218 26.966 0.000
v 32.325 43.320 0.000
v 25.487 43.366 0.000
v 25.448 37.566 0.000
v -9.574 37.798 0.000
v -9.528 45.265 0.000
v -29.347 45.404 0.000
v -29.477 27.374 0.000
v 32.218 26.966 13.200
v 32.325 43.320 13.200
v 25.487 43.366 13.200
v 25.448 37.566 13.200
v -9.574 37.798 13.200
v -9.528 45.265 13.200
v -29.347 45.404 13.200
v -29.477 27.374 13.200
usemtl roof
f 17 18 19 20 21 22 23 24
usemtl teaching_building
f 16 15 14 13 12 11 10 9
f 9 10 18 17
f 10 11 19 18
f 11 12 20 19
f 12 13 21 20
f 13 14 22 21
f 14 15 23 22
f 15 16 24 23
f 16 9 17 24
o SD0857_T002_2hao
v -27.333 -17.072 0.000
v 18.809 -16.386 0.000
v 18.511 2.441 0.000
v -27.615 1.746 0.000
v -27.333 -17.072 9.900
v 18.809 -16.386 9.900
v 18.511 2.441 9.900
v -27.615 1.746 9.900
usemtl roof
f 29 30 31 32
usemtl teaching_building
f 28 27 26 25
f 25 26 30 29
f 26 27 31 30
f 27 28 32 31
f 28 25 29 32
o SD0857_T003_3hao
v 19.343 -44.951 0.000
v 19.671 -30.201 0.000
v 11.017 -30.006 0.000
v 10.933 -34.111 0.000
v -14.374 -33.536 0.000
v -14.313 -30.646 0.000
v -25.944 -30.395 0.000
v -26.257 -43.941 0.000
v 19.343 -44.951 9.900
v 19.671 -30.201 9.900
v 11.017 -30.006 9.900
v 10.933 -34.111 9.900
v -14.374 -33.536 9.900
v -14.313 -30.646 9.900
v -25.944 -30.395 9.900
v -26.257 -43.941 9.900
usemtl roof
f 41 42 43 44 45 46 47 48
usemtl teaching_building
f 40 39 38 37 36 35 34 33
f 33 34 42 41
f 34 35 43 42
f 35 36 44 43
f 36 37 45 44
f 37 38 46 45
f 38 39 47 46
f 39 40 48 47
f 40 33 41 48
