# school_id SD0806
# school_name 日照香河实验学校
# boundary_source footprint_convex_hull_buffer_20m
# adjacent_block_merge_distance_m 2.0
mtllib ../campus_materials.mtl
o SD0806_campus_boundary
usemtl campus_boundary
v 46.464 -87.440 0.050
v -16.410 -86.984 0.050
v -99.511 -29.044 0.050
v -99.874 14.583 0.050
v -97.040 93.226 0.050
v -10.173 95.484 0.050
v 52.233 93.934 0.050
v 126.011 -33.052 0.050
v 124.966 -85.852 0.050
v 46.464 -87.440 0.050
l 1 2 3 4 5 6 7 8 9 10 1
o SD0806_T001_1hao
v 40.557 74.218 0.000
v 41.346 49.811 0.000
v -10.569 52.254 0.000
v -10.161 75.478 0.000
v 40.557 74.218 19.630
v 41.346 49.811 19.630
v -10.569 52.254 19.630
v -10.161 75.478 19.630
usemtl roof
f 15 16 17 18
usemtl teaching_building
f 14 13 12 11
f 11 12 16 15
f 12 13 17 16
f 13 14 18 17
f 14 11 15 18
o SD0806_T002_2hao
v -16.238 72.704 0.000
v -17.290 37.630 0.000
v -78.456 38.757 0.000
v -77.730 73.721 0.000
v -16.238 72.704 17.440
v -17.290 37.630 17.440
v -78.456 38.757 17.440
v -77.730 73.721 17.440
usemtl roof
f 23 24 25 26
usemtl teaching_building
f 22 21 20 19
f 19 20 24 23
f 20 21 25 24
f 21 22 26 25
f 22 19 23 26
o SD0806_T003_3hao
v 39.223 29.693 0.000
v 40.139 5.949 0.000
v -10.614 7.010 0.000
v -9.961 29.538 0.000
v 39.223 29.693 13.670
v 40.139 5.949 13.670
v -10.614 7.010 13.670
v -9.961 29.538 13.670
usemtl roof
f 31 32 33 34
usemtl teaching_building
f 30 29 28 27
f 27 28 32 31
f 28 29 33 32
f 29 30 34 33
f 30 27 31 34
o SD0806_T004_4hao
v -14.424 12.415 0.000
v -15.693 -5.105 0.000
v -56.153 -2.883 0.000
v -55.546 -18.182 0.000
v -79.598 -18.547 0.000
v -79.871 14.306 0.000
v -14.424 12.415 11.020
v -15.693 -5.105 11.020
v -56.153 -2.883 11.020
v -55.546 -18.182 11.020
v -79.598 -18.547 11.020
v -79.871 14.306 11.020
usemtl roof
f 41 42 43 44 45 46
usemtl teaching_building
f 40 39 38 37 36 35
f 35 36 42 41
f 36 37 43 42
f 37 38 44 43
f 38 39 45 44
f 39 40 46 45
f 40 35 41 46
o SD0806_T005_5hao
v 39.414 -14.258 0.000
v 40.611 -35.979 0.000
v -9.599 -34.874 0.000
v -9.726 -14.556 0.000
v 39.414 -14.258 13.760
v 40.611 -35.979 13.760
v -9.599 -34.874 13.760
v -9.726 -14.556 13.760
usemtl roof
f 51 52 53 54
usemtl teaching_building
f 50 49 48 47
f 47 48 52 51
f 48 49 53 52
f 49 50 54 53
f 50 47 51 54
o SD0806_T006_6hao
v 105.904 -38.256 0.000
v 105.350 -66.245 0.000
v 53.916 -66.654 0.000
v 53.109 -40.500 0.000
v 105.904 -38.256 11.810
v 105.350 -66.245 11.810
v 53.916 -66.654 11.810
v 53.109 -40.500 11.810
usemtl roof
f 59 60 61 62
usemtl teaching_building
f 58 57 56 55
f 55 56 60 59
f 56 57 61 60
f 57 58 62 61
f 58 55 59 62
o SD0806_T007_7hao
v 45.336 -45.994 0.000
v 46.334 -67.439 0.000
v -10.061 -67.030 0.000
v -9.961 -47.519 0.000
v 45.336 -45.994 18.320
v 46.334 -67.439 18.320
v -10.061 -67.030 18.320
v -9.961 -47.519 18.320
usemtl roof
f 67 68 69 70
usemtl teaching_building
f 66 65 64 63
f 63 64 68 67
f 64 65 69 68
f 65 66 70 69
f 66 63 67 70
