# school_id SD0805
# school_name 日照第二中学
# boundary_source footprint_convex_hull_buffer_20m
# adjacent_block_merge_distance_m 2.0
mtllib ../campus_materials.mtl
o SD0805_campus_boundary
usemtl campus_boundary
v -40.122 -75.360 0.050
v -57.309 14.703 0.050
v -60.430 56.427 0.050
v 48.511 64.425 0.050
v 51.549 23.608 0.050
v 55.854 -67.075 0.050
v -40.122 -75.360 0.050
l 1 2 3 4 5 6 7 1
o SD0805_T001_1hao
v -37.450 17.332 0.000
v 31.584 22.391 0.000
v 30.049 43.016 0.000
v -38.992 37.947 0.000
v -37.450 17.332 6.600
v 31.584 22.391 6.600
v 30.049 43.016 6.600
v -38.992 37.947 6.600
usemtl roof
f 12 13 14 15
usemtl teaching_building
f 11 10 9 8
f 8 9 13 12
f 9 10 14 13
f 10 11 15 14
f 11 8 12 15
o SD0805_T002_2hao
v -23.860 -53.882 0.000
v 34.964 -48.804 0.000
v 31.265 -6.471 0.000
v -27.560 -11.530 0.000
v -23.860 -53.882 6.600
v 34.964 -48.804 6.600
v 31.265 -6.471 6.600
v -27.560 -11.530 6.600
usemtl roof
f 20 21 22 23
usemtl teaching_building
f 19 18 17 16
f 16 17 21 20
f 17 18 22 21
f 18 19 23 22
f 19 16 20 23
