# school_id SD0821
# school_name 临沂市高级财经学校
# boundary_source footprint_convex_hull_buffer_20m
# adjacent_block_merge_distance_m 2.0
mtllib ../campus_materials.mtl
o SD0821_campus_boundary
usemtl campus_boundary
v -214.610 -173.280 0.050
v -214.695 -127.508 0.050
v -40.729 167.349 0.050
v 73.564 168.408 0.050
v 73.943 128.056 0.050
v 75.167 -35.458 0.050
v 73.704 -99.475 0.050
v 60.250 -172.756 0.050
v -214.610 -173.280 0.050
l 1 2 3 4 5 6 7 8 9 1
o SD0821_T001_1hao
v -29.054 127.109 0.000
v 53.944 127.887 0.000
v 53.753 148.224 0.000
v -29.245 147.455 0.000
v -29.054 127.109 9.900
v 53.944 127.887 9.900
v 53.753 148.224 9.900
v -29.245 147.455 9.900
usemtl roof
f 14 15 16 17
usemtl teaching_building
f 13 12 11 10
f 10 11 15 14
f 11 12 16 15
f 12 13 17 16
f 13 10 14 17
o SD0821_T002_2hao
v -28.802 71.581 0.000
v 54.196 72.350 0.000
v 54.005 92.688 0.000
v -28.993 91.919 0.000
v -28.802 71.581 9.900
v 54.196 72.350 9.900
v 54.005 92.688 9.900
v -28.993 91.919 9.900
usemtl roof
f 22 23 24 25
usemtl teaching_building
f 21 20 19 18
f 18 19 23 22
f 19 20 24 23
f 20 21 25 24
f 21 18 22 25
o SD0821_T003_3hao
v -28.314 18.232 0.000
v 54.684 19.001 0.000
v 54.486 39.357 0.000
v -28.513 38.569 0.000
v -28.314 18.232 9.900
v 54.684 19.001 9.900
v 54.486 39.357 9.900
v -28.513 38.569 9.900
usemtl roof
f 30 31 32 33
usemtl teaching_building
f 29 28 27 26
f 26 27 31 30
f 27 28 32 31
f 28 29 33 32
f 29 26 30 33
o SD0821_T004_4hao
v -27.833 -36.073 0.000
v 55.165 -35.304 0.000
v 54.974 -14.966 0.000
v -28.024 -15.735 0.000
v -27.833 -36.073 9.900
v 55.165 -35.304 9.900
v 54.974 -14.966 9.900
v -28.024 -15.735 9.900
usemtl roof
f 38 39 40 41
usemtl teaching_building
f 37 36 35 34
f 34 35 39 38
f 35 36 40 39
f 36 37 41 40
f 37 34 38 41
o SD0821_T005_5hao
v -5.582 -97.891 0.000
v 53.746 -97.428 0.000
v 53.471 -62.507 0.000
v -5.857 -62.970 0.000
v -5.582 -97.891 9.900
v 53.746 -97.428 9.900
v 53.471 -62.507 9.900
v -5.857 -62.970 9.900
usemtl roof
f 46 47 48 49
usemtl teaching_building
f 45 44 43 42
f 42 43 47 46
f 43 44 48 47
f 44 45 49 48
f 45 42 46 49
o SD0821_T006_6hao
v -194.647 -153.242 0.000
v 43.582 -152.788 0.000
v 43.544 -132.516 0.000
v -194.685 -132.951 0.000
v -194.647 -153.242 9.900
v 43.582 -152.788 9.900
v 43.544 -132.516 9.900
v -194.685 -132.951 9.900
usemtl roof
f 54 55 56 57
usemtl teaching_building
f 53 52 51 50
f 50 51 55 54
f 51 52 56 55
f 52 53 57 56
f 53 50 54 57
