# school_id SD0809
# school_name 下肖家沟小学
# boundary_source footprint_convex_hull_buffer_20m
# adjacent_block_merge_distance_m 2.0
mtllib ../campus_materials.mtl
o SD0809_campus_boundary
usemtl campus_boundary
v 2.949 -57.642 0.050
v -45.735 -40.845 0.050
v -46.657 -5.376 0.050
v -46.503 2.774 0.050
v -40.017 55.524 0.050
v -19.547 68.636 0.050
v 15.440 68.588 0.050
v 37.199 57.104 0.050
v 40.916 1.853 0.050
v 41.806 -33.531 0.050
v 41.983 -57.337 0.050
v 2.949 -57.642 0.050
l 1 2 3 4 5 6 7 8 9 10 11 12 1
o SD0809_T001_1hao
v -21.323 36.778 0.000
v 17.984 36.734 0.000
v 17.993 44.626 0.000
v 10.464 44.637 0.000
v 10.473 48.595 0.000
v -13.703 48.628 0.000
v -13.703 43.742 0.000
v -21.314 43.753 0.000
v -21.323 36.778 10.890
v 17.984 36.734 10.890
v 17.993 44.626 10.890
v 10.464 44.637 10.890
v 10.473 48.595 10.890
v -13.703 48.628 10.890
v -13.703 43.742 10.890
v -21.314 43.753 10.890
usemtl roof
f 21 22 23 24 25 26 27 28
usemtl teaching_building
f 20 19 18 17 16 15 14 13
f 13 14 22 21
f 14 15 23 22
f 15 16 24 23
f 16 17 25 24
f 17 18 26 25
f 18 19 27 26
f 19 20 28 27
f 20 13 21 28
