# school_id SD0880
# school_name 教学楼
# boundary_source footprint_convex_hull_buffer_20m
# adjacent_block_merge_distance_m 2.0
mtllib ../campus_materials.mtl
o SD0880_campus_boundary
usemtl campus_boundary
v 57.576 -32.864 0.050
v -26.738 -32.486 0.050
v -43.530 -10.862 0.050
v -43.399 26.206 0.050
v 56.803 25.821 0.050
v 57.576 -32.864 0.050
l 1 2 3 4 5 6 1
o SD0880_T001_1hao
v -8.608 5.897 0.000
v -8.608 -0.890 0.000
v 27.784 -1.133 0.000
v 27.538 5.654 0.000
v 37.064 5.897 0.000
v 37.310 -12.773 0.000
v -16.913 -12.530 0.000
v -17.022 -4.096 0.000
v -23.506 -4.040 0.000
v -23.470 6.129 0.000
v -8.608 5.897 13.670
v -8.608 -0.890 13.670
v 27.784 -1.133 13.670
v 27.538 5.654 13.670
v 37.064 5.897 13.670
v 37.310 -12.773 13.670
v -16.913 -12.530 13.670
v -17.022 -4.096 13.670
v -23.506 -4.040 13.670
v -23.470 6.129 13.670
usemtl roof
f 17 18 19 20 21 22 23 24 25 26
usemtl teaching_building
f 16 15 14 13 12 11 10 9 8 7
f 7 8 18 17
f 8 9 19 18
f 9 10 20 19
f 10 11 21 20
f 11 12 22 21
f 12 13 23 22
f 13 14 24 23
f 14 15 25 24
f 15 16 26 25
f 16 7 17 26
