# school_id SD0813
# school_name 临沂佳和小学
# boundary_source footprint_convex_hull_buffer_20m
# adjacent_block_merge_distance_m 2.0
mtllib ../campus_materials.mtl
o SD0813_campus_boundary
usemtl campus_boundary
v 44.875 -78.557 0.050
v -66.217 -78.004 0.050
v -83.166 67.818 0.050
v -82.876 110.575 0.050
v -19.820 110.151 0.050
v 103.603 6.917 0.050
v 103.673 -76.631 0.050
v 44.875 -78.557 0.050
l 1 2 3 4 5 6 7 8 1
o SD0813_T001_1hao
v -31.872 68.695 0.000
v -31.803 78.100 0.000
v -27.216 78.063 0.000
v -27.140 90.200 0.000
v -63.012 90.441 0.000
v -63.158 68.909 0.000
v -31.872 68.695 9.900
v -31.803 78.100 9.900
v -27.216 78.063 9.900
v -27.140 90.200 9.900
v -63.012 90.441 9.900
v -63.158 68.909 9.900
usemtl roof
f 15 16 17 18 19 20
usemtl teaching_building
f 14 13 12 11 10 9
f 9 10 16 15
f 10 11 17 16
f 11 12 18 17
f 12 13 19 18
f 13 14 20 19
f 14 9 15 20
o SD0813_T002_2hao
v 56.017 -57.295 0.000
v 83.657 -57.276 0.000
v 83.611 -2.435 0.000
v 55.971 -2.453 0.000
v 56.017 -57.295 9.900
v 83.657 -57.276 9.900
v 83.611 -2.435 9.900
v 55.971 -2.453 9.900
usemtl roof
f 25 26 27 28
usemtl teaching_building
f 24 23 22 21
f 21 22 26 25
f 22 23 27 26
f 23 24 28 27
f 24 21 25 28
o SD0813_T003_3hao
v 44.597 -58.555 0.000
v 44.666 -44.972 0.000
v 2.464 -44.759 0.000
v 2.617 -13.989 0.000
v 44.559 -14.192 0.000
v 44.620 -1.573 0.000
v -47.541 -1.110 0.000
v -47.603 -14.220 0.000
v -13.274 -14.387 0.000
v -13.435 -44.638 0.000
v -48.329 -44.462 0.000
v -48.397 -58.092 0.000
v 44.597 -58.555 9.900
v 44.666 -44.972 9.900
v 2.464 -44.759 9.900
v 2.617 -13.989 9.900
v 44.559 -14.192 9.900
v 44.620 -1.573 9.900
v -47.541 -1.110 9.900
v -47.603 -14.220 9.900
v -13.274 -14.387 9.900
v -13.435 -44.638 9.900
v -48.329 -44.462 9.900
v -48.397 -58.092 9.900
usemtl roof
f 41 42 43 44 45 46 47 48 49 50 51 52
usemtl teaching_building
f 40 39 38 37 36 35 34 33 32 31 30 29
f 29 30 42 41
f 30 31 43 42
f 31 32 44 43
f 32 33 45 44
f 33 34 46 45
f 34 35 47 46
f 35 36 48 47
f 36 37 49 48
f 37 38 50 49
f 38 39 51 50
f 39 40 52 51
f 40 29 41 52
