# school_id SD0828
# school_name 临沂第一实验小学岔河校区
# boundary_source footprint_convex_hull_buffer_20m
# adjacent_block_merge_distance_m 2.0
mtllib ../campus_materials.mtl
o SD0828_campus_boundary
usemtl campus_boundary
v 32.486 -71.061 0.050
v -26.221 -40.624 0.050
v -72.049 -3.836 0.050
v -72.327 42.655 0.050
v -72.327 73.559 0.050
v 1.186 73.544 0.050
v 92.326 -21.593 0.050
v 92.825 -70.476 0.050
v 32.486 -71.061 0.050
l 1 2 3 4 5 6 7 8 9 1
o SD0828_T001_1hao
v -7.352 42.715 0.000
v -7.352 53.546 0.000
v -52.327 53.555 0.000
v -52.327 42.715 0.000
v -7.352 42.715 13.200
v -7.352 53.546 13.200
v -52.327 53.555 13.200
v -52.327 42.715 13.200
usemtl roof
f 14 15 16 17
usemtl teaching_building
f 13 12 11 10
f 10 11 15 14
f 11 12 16 15
f 12 13 17 16
f 13 10 14 17
o SD0828_T002_2hao
v -52.106 5.802 0.000
v -6.025 6.089 0.000
v -6.101 19.144 0.000
v -52.182 18.857 0.000
v -52.106 5.802 13.200
v -6.025 6.089 13.200
v -6.101 19.144 13.200
v -52.182 18.857 13.200
usemtl roof
f 22 23 24 25
usemtl teaching_building
f 21 20 19 18
f 18 19 23 22
f 19 20 24 23
f 20 21 25 24
f 21 18 22 25
o SD0828_T003_3hao
v -15.251 -23.783 0.000
v 35.378 -23.245 0.000
v 35.172 -4.566 0.000
v -11.794 -5.067 0.000
v -11.718 -12.136 0.000
v -15.381 -12.173 0.000
v -15.251 -23.783 13.200
v 35.378 -23.245 13.200
v 35.172 -4.566 13.200
v -11.794 -5.067 13.200
v -11.718 -12.136 13.200
v -15.381 -12.173 13.200
usemtl roof
f 32 33 34 35 36 37
usemtl teaching_building
f 31 30 29 28 27 26
f 26 27 33 32
f 27 28 34 33
f 28 29 35 34
f 29 30 36 35
f 30 31 37 36
f 31 26 32 37
o SD0828_T004_4hao
v 37.271 -51.014 0.000
v 72.622 -50.671 0.000
v 72.408 -29.712 0.000
v 37.065 -30.055 0.000
v 37.271 -51.014 9.900
v 72.622 -50.671 9.900
v 72.408 -29.712 9.900
v 37.065 -30.055 9.900
usemtl roof
f 42 43 44 45
usemtl teaching_building
f 41 40 39 38
f 38 39 43 42
f 39 40 44 43
f 40 41 45 44
f 41 38 42 45
