# school_id SD0804
# school_name 日照文理中等职业学校
# boundary_source footprint_convex_hull_buffer_20m
# adjacent_block_merge_distance_m 2.0
mtllib ../campus_materials.mtl
o SD0804_campus_boundary
usemtl campus_boundary
v -43.198 -81.261 0.050
v -76.762 9.121 0.050
v -77.880 56.857 0.050
v -4.204 58.564 0.050
v 109.213 42.489 0.050
v 108.944 -27.621 0.050
v -1.574 -80.583 0.050
v -43.198 -81.261 0.050
l 1 2 3 4 5 6 7 8 1
o SD0804_T001_1hao
v -5.384 38.531 0.000
v -4.813 14.134 0.000
v -56.846 12.941 0.000
v -57.417 37.326 0.000
v -5.384 38.531 8.010
v -4.813 14.134 8.010
v -56.846 12.941 8.010
v -57.417 37.326 8.010
usemtl roof
f 13 14 15 16
usemtl teaching_building
f 12 11 10 9
f 9 10 14 13
f 10 11 15 14
f 11 12 16 15
f 12 9 13 16
o SD0804_T002_2hao
v 89.146 25.133 0.000
v 88.992 -15.004 0.000
v 9.697 -14.694 0.000
v 9.851 25.421 0.000
v 89.146 25.133 8.050
v 88.992 -15.004 8.050
v 9.697 -14.694 8.050
v 9.851 25.421 8.050
usemtl roof
f 21 22 23 24
usemtl teaching_building
f 20 19 18 17
f 17 18 22 21
f 18 19 23 22
f 19 20 24 23
f 20 17 21 24
o SD0804_T003_3hao
v -29.375 -61.033 0.000
v -6.273 -60.657 0.000
v -7.242 -0.866 0.000
v -30.336 -1.231 0.000
v -29.375 -61.033 7.970
v -6.273 -60.657 7.970
v -7.242 -0.866 7.970
v -30.336 -1.231 7.970
usemtl roof
f 29 30 31 32
usemtl teaching_building
f 28 27 26 25
f 25 26 30 29
f 26 27 31 30
f 27 28 32 31
f 28 25 29 32
