# school_id SD0819
# school_name 临沂市商业学校
# boundary_source footprint_convex_hull_buffer_20m
# adjacent_block_merge_distance_m 2.0
mtllib ../campus_materials.mtl
o SD0819_campus_boundary
usemtl campus_boundary
v -72.314 -208.526 0.050
v -135.710 -129.143 0.050
v -141.638 -104.070 0.050
v -141.860 -86.703 0.050
v -141.637 -45.473 0.050
v -140.702 -3.646 0.050
v -138.362 96.073 0.050
v -55.061 144.092 0.050
v 70.605 145.822 0.050
v 123.167 146.500 0.050
v 205.275 147.100 0.050
v 205.674 116.375 0.050
v 205.438 83.904 0.050
v 199.402 6.944 0.050
v 88.466 -206.747 0.050
v -72.314 -208.526 0.050
l 1 2 3 4 5 6 7 8 9 10 11 12 13 14 15 16 1
o SD0819_T001_1hao
v -49.444 113.548 0.000
v 3.045 114.196 0.000
v 2.907 124.842 0.000
v -49.582 124.166 0.000
v -49.444 113.548 9.900
v 3.045 114.196 9.900
v 2.907 124.842 9.900
v -49.582 124.166 9.900
usemtl roof
f 21 22 23 24
usemtl teaching_building
f 20 19 18 17
f 17 18 22 21
f 18 19 23 22
f 19 20 24 23
f 20 17 21 24
o SD0819_T002_2hao
v -117.997 41.630 0.000
v -67.355 42.371 0.000
v -67.981 85.103 0.000
v -118.631 84.362 0.000
v -117.997 41.630 6.600
v -67.355 42.371 6.600
v -67.981 85.103 6.600
v -118.631 84.362 6.600
usemtl roof
f 29 30 31 32
usemtl teaching_building
f 28 27 26 25
f 25 26 30 29
f 26 27 31 30
f 27 28 32 31
f 28 25 29 32
o SD0819_T003_3hao
v -121.668 -101.612 0.000
v -117.501 -101.557 0.000
v -117.280 -120.171 0.000
v -87.991 -119.828 0.000
v -88.197 -102.131 0.000
v -79.672 -102.029 0.000
v -79.848 -87.510 0.000
v -89.380 -87.622 0.000
v -89.708 -59.668 0.000
v -82.664 -59.594 0.000
v -82.801 -47.762 0.000
v -90.028 -47.845 0.000
v -90.395 -16.927 0.000
v -82.443 -16.834 0.000
v -82.595 -3.659 0.000
v -120.707 -4.104 0.000
v -120.562 -16.325 0.000
v -117.494 -16.297 0.000
v -117.143 -45.696 0.000
v -121.638 -45.751 0.000
v -121.508 -56.629 0.000
v -116.448 -56.564 0.000
v -116.074 -86.565 0.000
v -121.859 -86.630 0.000
v -121.668 -101.612 6.600
v -117.501 -101.557 6.600
v -117.280 -120.171 6.600
v -87.991 -119.828 6.600
v -88.197 -102.131 6.600
v -79.672 -102.029 6.600
v -79.848 -87.510 6.600
v -89.380 -87.622 6.600
v -89.708 -59.668 6.600
v -82.664 -59.594 6.600
v -82.801 -47.762 6.600
v -90.028 -47.845 6.600
v -90.395 -16.927 6.600
v -82.443 -16.834 6.600
v -82.595 -3.659 6.600
v -120.707 -4.104 6.600
v -120.562 -16.325 6.600
v -117.494 -16.297 6.600
v -117.143 -45.696 6.600
v -121.638 -45.751 6.600
v -121.508 -56.629 6.600
v -116.448 -56.564 6.600
v -116.074 -86.565 6.600
v -121.859 -86.630 6.600
usemtl roof
f 57 58 59 60 61 62 63 64 65 66 67 68 69 70 71 72 73 74 75 76 77 78 79 80
usemtl teaching_building
f 56 55 54 53 52 51 50 49 48 47 46 45 44 43 42 41 40 39 38 37 36 35 34 33
f 33 34 58 57
f 34 35 59 58
f 35 36 60 59
f 36 37 61 60
f 37 38 62 61
f 38 39 63 62
f 39 40 64 63
f 40 41 65 64
f 41 42 66 65
f 42 43 67 66
f 43 44 68 67
f 44 45 69 68
f 45 46 70 69
f 46 47 71 70
f 47 48 72 71
f 48 49 73 72
f 49 50 74 73
f 50 51 75 74
f 51 52 76 75
f 52 53 77 76
f 53 54 78 77
f 54 55 79 78
f 55 56 80 79
f 56 33 57 80
o SD0819_T004_4hao
v -61.075 -101.909 0.000
v 70.774 -101.390 0.000
v 70.728 -89.150 0.000
v 37.462 -89.280 0.000
v 37.432 -80.117 0.000
v -27.863 -80.348 0.000
v -27.824 -91.420 0.000
v -61.120 -91.541 0.000
v -61.075 -101.909 6.600
v 70.774 -101.390 6.600
v 70.728 -89.150 6.600
v 37.462 -89.280 6.600
v 37.432 -80.117 6.600
v -27.863 -80.348 6.600
v -27.824 -91.420 6.600
v -61.120 -91.541 6.600
usemtl roof
f 89 90 91 92 93 94 95 96
usemtl teaching_building
f 88 87 86 85 84 83 82 81
f 81 82 90 89
f 82 83 91 90
f 83 84 92 91
f 84 85 93 92
f 85 86 94 93
f 86 87 95 94
f 87 88 96 95
f 88 81 89 96
