# school_id SD0830
# school_name 临沂第七中学
# boundary_source footprint_convex_hull_buffer_20m
# adjacent_block_merge_distance_m 2.0
mtllib ../campus_materials.mtl
o SD0830_campus_boundary
usemtl campus_boundary
v -63.763 -105.128 0.050
v -65.749 -65.334 0.050
v -68.905 59.990 0.050
v -69.503 101.192 0.050
v 31.915 102.663 0.050
v 95.028 -54.311 0.050
v 97.151 -97.291 0.050
v -63.763 -105.128 0.050
l 1 2 3 4 5 6 7 8 1
o SD0830_T001_1hao
v -48.909 60.387 0.000
v 18.784 61.369 0.000
v 18.479 82.466 0.000
v -49.215 81.484 0.000
v -48.909 60.387 9.900
v 18.784 61.369 9.900
v 18.479 82.466 9.900
v -49.215 81.484 9.900
usemtl roof
f 13 14 15 16
usemtl teaching_building
f 12 11 10 9
f 9 10 14 13
f 10 11 15 14
f 11 12 16 15
f 12 9 13 16
o SD0830_T002_2hao
v -44.784 -84.180 0.000
v 76.188 -78.288 0.000
v 75.218 -58.654 0.000
v -45.762 -64.584 0.000
v -44.784 -84.180 9.900
v 76.188 -78.288 9.900
v 75.218 -58.654 9.900
v -45.762 -64.584 9.900
usemtl roof
f 21 22 23 24
usemtl teaching_building
f 20 19 18 17
f 17 18 22 21
f 18 19 23 22
f 19 20 24 23
f 20 17 21 24
