# school_id SD0829
# school_name 临沂第一实验小学蒙河路校区教学综合楼
# boundary_source footprint_convex_hull_buffer_20m
# adjacent_block_merge_distance_m 2.0
mtllib ../campus_materials.mtl
o SD0829_campus_boundary
usemtl campus_boundary
v 9.438 -68.078 0.050
v -103.252 -67.207 0.050
v -102.805 -7.728 0.050
v -19.517 118.419 0.050
v 143.616 103.452 0.050
v 140.595 70.945 0.050
v 117.099 -50.639 0.050
v 9.438 -68.078 0.050
l 1 2 3 4 5 6 7 8 1
o SD0829_T001_1hao
v 120.772 73.774 0.000
v 121.849 85.365 0.000
v -9.423 97.409 0.000
v -10.508 85.828 0.000
v 120.772 73.774 9.900
v 121.849 85.365 9.900
v -9.423 97.409 9.900
v -10.508 85.828 9.900
usemtl roof
f 13 14 15 16
usemtl teaching_building
f 12 11 10 9
f 9 10 14 13
f 10 11 15 14
f 11 12 16 15
f 12 9 13 16
o SD0829_T002_2hao
v 1.063 20.044 0.000
v 5.706 77.962 0.000
v -12.929 79.444 0.000
v -17.573 21.517 0.000
v 1.063 20.044 9.900
v 5.706 77.962 9.900
v -12.929 79.444 9.900
v -17.573 21.517 9.900
usemtl roof
f 21 22 23 24
usemtl teaching_building
f 20 19 18 17
f 17 18 22 21
f 18 19 23 22
f 19 20 24 23
f 20 17 21 24
o SD0829_T003_3hao
v -19.635 -17.898 0.000
v -26.172 -23.930 0.000
v -73.571 -23.550 0.000
v -73.693 -38.198 0.000
v -43.410 -38.439 0.000
v -43.372 -33.519 0.000
v -22.797 -33.677 0.000
v -22.827 -38.300 0.000
v 7.982 -38.541 0.000
v 7.906 -48.066 0.000
v -83.102 -47.362 0.000
v -82.850 -13.803 0.000
v -30.885 -14.201 0.000
v -30.640 17.375 0.000
v -19.352 17.283 0.000
v -19.514 -2.830 0.000
v 53.372 -2.323 0.000
v 53.517 -23.642 0.000
v -19.589 -24.143 0.000
v -19.634 -17.821 0.000
v -19.635 -17.898 9.900
v -26.172 -23.930 9.900
v -73.571 -23.550 9.900
v -73.693 -38.198 9.900
v -43.410 -38.439 9.900
v -43.372 -33.519 9.900
v -22.797 -33.677 9.900
v -22.827 -38.300 9.900
v 7.982 -38.541 9.900
v 7.906 -48.066 9.900
v -83.102 -47.362 9.900
v -82.850 -13.803 9.900
v -30.885 -14.201 9.900
v -30.640 17.375 9.900
v -19.352 17.283 9.900
v -19.514 -2.830 9.900
v 53.372 -2.323 9.900
v 53.517 -23.642 9.900
v -19.589 -24.143 9.900
v -19.634 -17.821 9.900
usemtl roof
f 45 46 47 48 49 50 51 52 53 54 55 56 57 58 59 60 61 62 63 64
usemtl teaching_building
f 44 43 42 41 40 39 38 37 36 35 34 33 32 31 30 29 28 27 26 25
f 25 26 46 45
f 26 27 47 46
f 27 28 48 47
f 28 29 49 48
f 29 30 50 49
f 30 31 51 50
f 31 32 52 51
f 32 33 53 52
f 33 34 54 53
f 34 35 55 54
f 35 36 56 55
f 36 37 57 56
f 37 38 58 57
f 38 39 59 58
f 39 40 60 59
f 40 41 61 60
f 41 42 62 61
f 42 43 63 62
f 43 44 64 63
f 44 25 45 64
o SD0829_T004_4hao
v 100.113 -33.130 0.000
v 102.259 -18.861 0.000
v 64.522 -13.293 0.000
v 62.384 -27.562 0.000
v 100.113 -33.130 9.900
v 102.259 -18.861 9.900
v 64.522 -13.293 9.900
v 62.384 -27.562 9.900
usemtl roof
f 69 70 71 72
usemtl teaching_building
f 68 67 66 65
f 65 66 70 69
f 66 67 71 70
f 67 68 72 71
f 68 65 69 72
