# school_id SD0870
# school_name 如意小学
# boundary_source footprint_convex_hull_buffer_20m
# adjacent_block_merge_distance_m 2.0
mtllib ../campus_materials.mtl
o SD0870_campus_boundary
usemtl campus_boundary
v -27.034 -60.804 0.050
v -63.295 0.127 0.050
v -63.333 42.592 0.050
v -25.333 42.592 0.050
v 56.677 41.975 0.050
v 59.241 -19.632 0.050
v 59.241 -60.790 0.050
v -27.034 -60.804 0.050
l 1 2 3 4 5 6 7 8 1
o SD0870_T001_1hao
v -43.300 5.636 0.000
v -9.713 5.636 0.000
v -9.713 -0.618 0.000
v -15.672 -0.618 0.000
v -15.664 -40.802 0.000
v 39.241 -40.793 0.000
v 39.241 -20.048 0.000
v -1.557 -20.057 0.000
v -1.564 -9.077 0.000
v -6.272 -9.077 0.000
v -6.272 4.839 0.000
v 37.494 4.839 0.000
v 37.486 22.119 0.000
v 25.194 22.119 0.000
v 25.194 15.365 0.000
v -25.400 15.355 0.000
v -25.408 22.592 0.000
v -43.315 22.592 0.000
v -43.300 5.636 9.900
v -9.713 5.636 9.900
v -9.713 -0.618 9.900
v -15.672 -0.618 9.900
v -15.664 -40.802 9.900
v 39.241 -40.793 9.900
v 39.241 -20.048 9.900
v -1.557 -20.057 9.900
v -1.564 -9.077 9.900
v -6.272 -9.077 9.900
v -6.272 4.839 9.900
v 37.494 4.839 9.900
v 37.486 22.119 9.900
v 25.194 22.119 9.900
v 25.194 15.365 9.900
v -25.400 15.355 9.900
v -25.408 22.592 9.900
v -43.315 22.592 9.900
usemtl roof
f 27 28 29 30 31 32 33 34 35 36 37 38 39 40 41 42 43 44
usemtl teaching_building
f 26 25 24 23 22 21 20 19 18 17 16 15 14 13 12 11 10 9
f 9 10 28 27
f 10 11 29 28
f 11 12 30 29
f 12 13 31 30
f 13 14 32 31
f 14 15 33 32
f 15 16 34 33
f 16 17 35 34
f 17 18 36 35
f 18 19 37 36
f 19 20 38 37
f 20 21 39 38
f 21 22 40 39
f 22 23 41 40
f 23 24 42 41
f 24 25 43 42
f 25 26 44 43
f 26 9 27 44
