# school_id SD0884
# school_name 朝阳小学
# boundary_source footprint_convex_hull_buffer_20m
# adjacent_block_merge_distance_m 2.0
mtllib ../campus_materials.mtl
o SD0884_campus_boundary
usemtl campus_boundary
v 29.542 -82.196 0.050
v -85.824 -81.357 0.050
v -193.826 53.280 0.050
v -193.826 120.615 0.050
v -111.381 120.615 0.050
v 43.837 104.076 0.050
v 116.963 43.628 0.050
v 119.207 20.114 0.050
v 119.254 -38.618 0.050
v 119.282 -82.173 0.050
v 29.542 -82.196 0.050
l 1 2 3 4 5 6 7 8 9 10 11 1
o SD0884_T001_1hao
v -112.444 60.310 0.000
v -112.444 100.615 0.000
v -173.826 100.615 0.000
v -173.826 60.310 0.000
v -112.444 60.310 6.600
v -112.444 100.615 6.600
v -173.826 100.615 6.600
v -173.826 60.310 6.600
usemtl roof
f 16 17 18 19
usemtl teaching_building
f 15 14 13 12
f 12 13 17 16
f 13 14 18 17
f 14 15 19 18
f 15 12 16 19
o SD0884_T002_2hao
v -32.251 60.069 0.000
v -85.548 60.069 0.000
v -85.548 81.435 0.000
v -32.251 81.435 0.000
v -32.251 84.826 0.000
v 35.733 84.826 0.000
v 35.733 63.461 0.000
v -32.251 63.461 0.000
v -32.251 60.069 9.900
v -85.548 60.069 9.900
v -85.548 81.435 9.900
v -32.251 81.435 9.900
v -32.251 84.826 9.900
v 35.733 84.826 9.900
v 35.733 63.461 9.900
v -32.251 63.461 9.900
usemtl roof
f 28 29 30 31 32 33 34 35
usemtl teaching_building
f 27 26 25 24 23 22 21 20
f 20 21 29 28
f 21 22 30 29
f 22 23 31 30
f 23 24 32 31
f 24 25 33 32
f 25 26 34 33
f 26 27 35 34
f 27 20 28 35
o SD0884_T003_3hao
v -51.927 25.473 0.000
v -51.927 35.905 0.000
v -75.767 35.905 0.000
v -75.767 25.473 0.000
v -51.927 25.473 9.060
v -51.927 35.905 9.060
v -75.767 35.905 9.060
v -75.767 25.473 9.060
usemtl roof
f 40 41 42 43
usemtl teaching_building
f 39 38 37 36
f 36 37 41 40
f 37 38 42 41
f 38 39 43 42
f 39 36 40 43
o SD0884_T004_4hao
v 97.840 21.581 0.000
v 97.840 33.487 0.000
v 74.367 33.487 0.000
v 74.367 21.581 0.000
v 97.840 21.581 9.900
v 97.840 33.487 9.900
v 74.367 33.487 9.900
v 74.367 21.581 9.900
usemtl roof
f 48 49 50 51
usemtl teaching_building
f 47 46 45 44
f 44 45 49 48
f 45 46 50 49
f 46 47 51 50
f 47 44 48 51
o SD0884_T005_5hao
v -76.218 -3.926 0.000
v -7.180 -3.899 0.000
v -7.188 -0.276 0.000
v -3.634 -0.276 0.000
v -3.642 19.404 0.000
v -19.169 19.385 0.000
v -19.169 10.657 0.000
v -34.444 10.657 0.000
v -34.444 19.283 0.000
v -46.058 19.265 0.000
v -46.058 10.657 0.000
v -64.886 10.657 0.000
v -64.894 19.645 0.000
v -76.233 19.635 0.000
v -76.218 -3.926 9.900
v -7.180 -3.899 9.900
v -7.188 -0.276 9.900
v -3.634 -0.276 9.900
v -3.642 19.404 9.900
v -19.169 19.385 9.900
v -19.169 10.657 9.900
v -34.444 10.657 9.900
v -34.444 19.283 9.900
v -46.058 19.265 9.900
v -46.058 10.657 9.900
v -64.886 10.657 9.900
v -64.894 19.645 9.900
v -76.233 19.635 9.900
usemtl roof
f 66 67 68 69 70 71 72 73 74 75 76 77 78 79
usemtl teaching_building
f 65 64 63 62 61 60 59 58 57 56 55 54 53 52
f 52 53 67 66
f 53 54 68 67
f 54 55 69 68
f 55 56 70 69
f 56 57 71 70
f 57 58 72 71
f 58 59 73 72
f 59 60 74 73
f 60 61 75 74
f 61 62 76 75
f 62 63 77 76
f 63 64 78 77
f 64 65 79 78
f 65 52 66 79
o SD0884_T006_6hao
v 30.109 -0.748 0.000
v 30.109 -4.408 0.000
v 99.216 -4.390 0.000
v 99.208 19.154 0.000
v 87.815 19.144 0.000
v 87.815 10.166 0.000
v 68.987 10.166 0.000
v 68.980 18.792 0.000
v 57.365 18.792 0.000
v 57.373 10.166 0.000
v 42.083 10.166 0.000
v 42.083 18.913 0.000
v 26.563 18.903 0.000
v 26.563 -0.758 0.000
v 30.109 -0.748 9.900
v 30.109 -4.408 9.900
v 99.216 -4.390 9.900
v 99.208 19.154 9.900
v 87.815 19.144 9.900
v 87.815 10.166 9.900
v 68.987 10.166 9.900
v 68.980 18.792 9.900
v 57.365 18.792 9.900
v 57.373 10.166 9.900
v 42.083 10.166 9.900
v 42.083 18.913 9.900
v 26.563 18.903 9.900
v 26.563 -0.758 9.900
usemtl roof
f 94 95 96 97 98 99 100 101 102 103 104 105 106 107
usemtl teaching_building
f 93 92 91 90 89 88 87 86 85 84 83 82 81 80
f 80 81 95 94
f 81 82 96 95
f 82 83 97 96
f 83 84 98 97
f 84 85 99 98
f 85 86 100 99
f 86 87 101 100
f 87 88 102 101
f 88 89 103 102
f 89 90 104 103
f 90 91 105 104
f 91 92 106 105
f 92 93 107 106
f 93 80 94 107
o SD0884_T007_7hao
v -76.172 -61.427 0.000
v -6.813 -61.436 0.000
v -6.813 -57.814 0.000
v -3.275 -57.814 0.000
v -3.268 -38.143 0.000
v -18.794 -38.143 0.000
v -18.802 -46.890 0.000
v -34.077 -46.890 0.000
v -34.077 -38.264 0.000
v -45.691 -38.264 0.000
v -45.691 -46.890 0.000
v -64.519 -46.890 0.000
v -64.519 -37.902 0.000
v -76.187 -37.902 0.000
v -76.172 -61.427 9.900
v -6.813 -61.436 9.900
v -6.813 -57.814 9.900
v -3.275 -57.814 9.900
v -3.268 -38.143 9.900
v -18.794 -38.143 9.900
v -18.802 -46.890 9.900
v -34.077 -46.890 9.900
v -34.077 -38.264 9.900
v -45.691 -38.264 9.900
v -45.691 -46.890 9.900
v -64.519 -46.890 9.900
v -64.519 -37.902 9.900
v -76.187 -37.902 9.900
usemtl roof
f 122 123 124 125 126 127 128 129 130 131 132 133 134 135
usemtl teaching_building
f 121 120 119 118 117 116 115 114 113 112 111 110 109 108
f 108 109 123 122
f 109 110 124 123
f 110 111 125 124
f 111 112 126 125
f 112 113 127 126
f 113 114 128 127
f 114 115 129 128
f 115 116 130 129
f 116 117 131 130
f 117 118 132 131
f 118 119 133 132
f 119 120 134 133
f 120 121 135 134
f 121 108 122 135
o SD0884_T008_8hao
v 26.074 -58.546 0.000
v 29.612 -58.546 0.000
v 29.612 -62.196 0.000
v 99.269 -62.178 0.000
v 99.254 -38.634 0.000
v 87.318 -38.634 0.000
v 87.318 -47.622 0.000
v 68.498 -47.622 0.000
v 68.498 -38.996 0.000
v 56.884 -38.996 0.000
v 56.884 -47.622 0.000
v 41.601 -47.622 0.000
v 41.594 -38.875 0.000
v 26.067 -38.875 0.000
v 26.074 -58.546 9.060
v 29.612 -58.546 9.060
v 29.612 -62.196 9.060
v 99.269 -62.178 9.060
v 99.254 -38.634 9.060
v 87.318 -38.634 9.060
v 87.318 -47.622 9.060
v 68.498 -47.622 9.060
v 68.498 -38.996 9.060
v 56.884 -38.996 9.060
v 56.884 -47.622 9.060
v 41.601 -47.622 9.060
v 41.594 -38.875 9.060
v 26.067 -38.875 9.060
usemtl roof
f 150 151 152 153 154 155 156 157 158 159 160 161 162 163
usemtl teaching_building
f 149 148 147 146 145 144 143 142 141 140 139 138 137 136
f 136 137 151 150
f 137 138 152 151
f 138 139 153 152
f 139 140 154 153
f 140 141 155 154
f 141 142 156 155
f 142 143 157 156
f 143 144 158 157
f 144 145 159 158
f 145 146 160 159
f 146 147 161 160
f 147 148 162 161
f 148 149 163 162
f 149 136 150 163
