# school_id SD0869
# school_name 原转山前小学-大队院（已废弃）
# boundary_source footprint_convex_hull_buffer_20m
# adjacent_block_merge_distance_m 2.0
mtllib ../campus_materials.mtl
o SD0869_campus_boundary
usemtl campus_boundary
v -33.300 -48.212 0.050
v -48.452 -7.131 0.050
v -40.257 33.110 0.050
v 27.768 48.702 0.050
v 39.511 13.752 0.050
v 40.255 -12.274 0.050
v 31.735 -30.843 0.050
v -33.300 -48.212 0.050
l 1 2 3 4 5 6 7 8 1
o SD0869_T001_1hao
v 14.579 25.160 0.000
v 19.604 10.204 0.000
v 20.130 -8.178 0.000
v 17.482 -13.949 0.000
v -20.845 -24.185 0.000
v -27.719 -5.548 0.000
v -23.230 16.494 0.000
v 14.579 25.160 4.950
v 19.604 10.204 4.950
v 20.130 -8.178 4.950
v 17.482 -13.949 4.950
v -20.845 -24.185 4.950
v -27.719 -5.548 4.950
v -23.230 16.494 4.950
usemtl roof
f 16 17 18 19 20 21 22
usemtl teaching_building
f 15 14 13 12 11 10 9
f 9 10 17 16
f 10 11 18 17
f 11 12 19 18
f 12 13 20 19
f 13 14 21 20
f 14 15 22 21
f 15 9 16 22
