# school_id SD0877
# school_name 徐贺小学
# boundary_source footprint_convex_hull_buffer_20m
# adjacent_block_merge_distance_m 2.0
mtllib ../campus_materials.mtl
o SD0877_campus_boundary
usemtl campus_boundary
v 47.708 -32.180 0.050
v -1.257 -31.038 0.050
v -62.325 -29.411 0.050
v -60.830 25.328 0.050
v 12.754 35.063 0.050
v 49.499 34.098 0.050
v 47.708 -32.180 0.050
l 1 2 3 4 5 6 7 1
o SD0877_T001_1hao
v -0.757 -11.044 0.000
v -0.282 6.643 0.000
v -41.303 7.737 0.000
v -41.786 -9.951 0.000
v -0.757 -11.044 6.600
v -0.282 6.643 6.600
v -41.303 7.737 6.600
v -41.786 -9.951 6.600
usemtl roof
f 12 13 14 15
usemtl teaching_building
f 11 10 9 8
f 8 9 13 12
f 9 10 14 13
f 10 11 15 14
f 11 8 12 15
