# school_id SD0847
# school_name 临沂第六中学 北校区
# boundary_source footprint_convex_hull_buffer_20m
# adjacent_block_merge_distance_m 2.0
mtllib ../campus_materials.mtl
o SD0847_campus_boundary
usemtl campus_boundary
v -37.205 -89.551 0.050
v -60.371 -36.970 0.050
v -74.386 4.377 0.050
v -74.445 35.871 0.050
v -48.039 92.556 0.050
v 27.399 94.543 0.050
v 76.195 39.236 0.050
v 76.261 5.383 0.050
v 51.908 -89.406 0.050
v -37.205 -89.551 0.050
l 1 2 3 4 5 6 7 8 9 10 1
o SD0847_T001_1hao
v 18.584 74.304 0.000
v 19.103 54.927 0.000
v -34.609 53.501 0.000
v -35.137 72.889 0.000
v 18.584 74.304 12.040
v 19.103 54.927 12.040
v -34.609 53.501 12.040
v -35.137 72.889 12.040
usemtl roof
f 15 16 17 18
usemtl teaching_building
f 14 13 12 11
f 11 12 16 15
f 12 13 17 16
f 13 14 18 17
f 14 11 15 18
o SD0847_T002_2hao
v 56.210 31.658 0.000
v 56.256 7.892 0.000
v -54.392 7.693 0.000
v -54.437 31.459 0.000
v 56.210 31.658 12.190
v 56.256 7.892 12.190
v -54.392 7.693 12.190
v -54.437 31.459 12.190
usemtl roof
f 23 24 25 26
usemtl teaching_building
f 22 21 20 19
f 19 20 24 23
f 20 21 25 24
f 21 22 26 25
f 22 19 23 26
o SD0847_T003_3hao
v 43.732 -14.150 0.000
v 43.732 -29.714 0.000
v -41.713 -29.714 0.000
v -41.713 -14.150 0.000
v 43.732 -14.150 15.300
v 43.732 -29.714 15.300
v -41.713 -29.714 15.300
v -41.713 -14.150 15.300
usemtl roof
f 31 32 33 34
usemtl teaching_building
f 30 29 28 27
f 27 28 32 31
f 28 29 33 32
f 29 30 34 33
f 30 27 31 34
o SD0847_T004_4hao
v 36.363 -53.767 0.000
v 36.390 -69.431 0.000
v -24.171 -69.530 0.000
v -24.198 -53.867 0.000
v 36.363 -53.767 15.270
v 36.390 -69.431 15.270
v -24.171 -69.530 15.270
v -24.198 -53.867 15.270
usemtl roof
f 39 40 41 42
usemtl teaching_building
f 38 37 36 35
f 35 36 40 39
f 36 37 41 40
f 37 38 42 41
f 38 35 39 42
