# school_id SD0875
# school_name 平邑县实验小学
# boundary_source footprint_convex_hull_buffer_20m
# adjacent_block_merge_distance_m 2.0
mtllib ../campus_materials.mtl
o SD0875_campus_boundary
usemtl campus_boundary
v 21.815 -138.081 0.050
v -35.617 -125.151 0.050
v -79.732 -113.516 0.050
v -84.882 -62.123 0.050
v -75.167 -22.311 0.050
v -12.270 114.208 0.050
v 10.735 108.709 0.050
v 39.370 101.798 0.050
v 76.097 92.244 0.050
v 29.474 -107.327 0.050
v 21.815 -138.081 0.050
l 1 2 3 4 5 6 7 8 9 10 11 1
o SD0875_T001_1hao
v 6.064 89.262 0.000
v 5.103 85.294 0.000
v 16.176 82.652 0.000
v 17.118 86.543 0.000
v 34.506 82.398 0.000
v 33.591 78.617 0.000
v 44.936 75.898 0.000
v 45.769 79.325 0.000
v 52.184 77.799 0.000
v 46.693 55.117 0.000
v 41.365 56.399 0.000
v 41.683 57.692 0.000
v 30.945 60.257 0.000
v 30.347 57.803 0.000
v 13.512 61.826 0.000
v 14.119 64.302 0.000
v 4.496 66.602 0.000
v 4.088 64.910 0.000
v -6.649 67.475 0.000
v -0.968 90.943 0.000
v 6.064 89.262 8.870
v 5.103 85.294 8.870
v 16.176 82.652 8.870
v 17.118 86.543 8.870
v 34.506 82.398 8.870
v 33.591 78.617 8.870
v 44.936 75.898 8.870
v 45.769 79.325 8.870
v 52.184 77.799 8.870
v 46.693 55.117 8.870
v 41.365 56.399 8.870
v 41.683 57.692 8.870
v 30.945 60.257 8.870
v 30.347 57.803 8.870
v 13.512 61.826 8.870
v 14.119 64.302 8.870
v 4.496 66.602 8.870
v 4.088 64.910 8.870
v -6.649 67.475 8.870
v -0.968 90.943 8.870
usemtl roof
f 32 33 34 35 36 37 38 39 40 41 42 43 44 45 46 47 48 49 50 51
usemtl teaching_building
f 31 30 29 28 27 26 25 24 23 22 21 20 19 18 17 16 15 14 13 12
f 12 13 33 32
f 13 14 34 33
f 14 15 35 34
f 15 16 36 35
f 16 17 37 36
f 17 18 38 37
f 18 19 39 38
f 19 20 40 39
f 20 21 41 40
f 21 22 42 41
f 22 23 43 42
f 23 24 44 43
f 24 25 45 44
f 25 26 46 45
f 26 27 47 46
f 27 28 48 47
f 28 29 49 48
f 29 30 50 49
f 30 31 51 50
f 31 12 32 51
o SD0875_T002_2hao
v 20.888 -47.476 0.000
v 17.444 -61.580 0.000
v -7.492 -55.589 0.000
v -8.960 -61.592 0.000
v -17.821 -59.458 0.000
v -16.190 -52.759 0.000
v -48.864 -44.889 0.000
v -54.047 -66.079 0.000
v -64.640 -63.537 0.000
v -56.195 -28.927 0.000
v 20.888 -47.476 9.900
v 17.444 -61.580 9.900
v -7.492 -55.589 9.900
v -8.960 -61.592 9.900
v -17.821 -59.458 9.900
v -16.190 -52.759 9.900
v -48.864 -44.889 9.900
v -54.047 -66.079 9.900
v -64.640 -63.537 9.900
v -56.195 -28.927 9.900
usemtl roof
f 62 63 64 65 66 67 68 69 70 71
usemtl teaching_building
f 61 60 59 58 57 56 55 54 53 52
f 52 53 63 62
f 53 54 64 63
f 54 55 65 64
f 55 56 66 65
f 56 57 67 66
f 57 58 68 67
f 58 59 69 68
f 59 60 70 69
f 60 61 71 70
f 61 52 62 71
o SD0875_T003_3hao
v -27.607 -93.549 0.000
v -30.869 -105.719 0.000
v -61.215 -97.716 0.000
v -57.962 -85.546 0.000
v -27.607 -93.549 13.960
v -30.869 -105.719 13.960
v -61.215 -97.716 13.960
v -57.962 -85.546 13.960
usemtl roof
f 76 77 78 79
usemtl teaching_building
f 75 74 73 72
f 72 73 77 76
f 73 74 78 77
f 74 75 79 78
f 75 72 76 79
o SD0875_T004_4hao
v 10.032 -102.635 0.000
v 7.133 -114.275 0.000
v -20.811 -107.421 0.000
v -17.921 -95.793 0.000
v 10.032 -102.635 12.570
v 7.133 -114.275 12.570
v -20.811 -107.421 12.570
v -17.921 -95.793 12.570
usemtl roof
f 84 85 86 87
usemtl teaching_building
f 83 82 81 80
f 80 81 85 84
f 81 82 86 85
f 82 83 87 86
f 83 80 84 87
