# school_id SD0845
# school_name 临沂第八中学
# boundary_source footprint_convex_hull_buffer_20m
# adjacent_block_merge_distance_m 2.0
mtllib ../campus_materials.mtl
o SD0845_campus_boundary
usemtl campus_boundary
v 191.597 -68.455 0.050
v 117.341 -68.265 0.050
v -133.825 -64.679 0.050
v -135.753 29.437 0.050
v -135.538 72.375 0.050
v 96.676 73.900 0.050
v 152.494 23.311 0.050
v 191.754 -19.302 0.050
v 191.597 -68.455 0.050
l 1 2 3 4 5 6 7 8 9 1
o SD0845_T001_1hao
v 57.042 28.147 0.000
v 89.406 28.638 0.000
v 89.017 53.849 0.000
v 56.645 53.349 0.000
v 57.042 28.147 16.500
v 89.406 28.638 16.500
v 89.017 53.849 16.500
v 56.645 53.349 16.500
usemtl roof
f 14 15 16 17
usemtl teaching_building
f 13 12 11 10
f 10 11 15 14
f 11 12 16 15
f 12 13 17 16
f 13 10 14 17
o SD0845_T002_2hao
v -106.512 29.546 0.000
v -106.527 25.710 0.000
v -113.049 25.747 0.000
v -113.270 -17.707 0.000
v -104.381 -17.754 0.000
v -104.412 -24.369 0.000
v -114.125 -24.332 0.000
v -114.225 -44.957 0.000
v -23.822 -45.420 0.000
v -23.708 -24.684 0.000
v -99.516 -24.286 0.000
v -99.486 -17.893 0.000
v -90.505 -17.939 0.000
v -90.291 25.015 0.000
v -100.273 25.071 0.000
v -100.234 31.529 0.000
v -34.460 31.214 0.000
v -34.361 52.135 0.000
v -115.637 52.505 0.000
v -115.752 29.592 0.000
v -106.512 29.546 16.500
v -106.527 25.710 16.500
v -113.049 25.747 16.500
v -113.270 -17.707 16.500
v -104.381 -17.754 16.500
v -104.412 -24.369 16.500
v -114.125 -24.332 16.500
v -114.225 -44.957 16.500
v -23.822 -45.420 16.500
v -23.708 -24.684 16.500
v -99.516 -24.286 16.500
v -99.486 -17.893 16.500
v -90.505 -17.939 16.500
v -90.291 25.015 16.500
v -100.273 25.071 16.500
v -100.234 31.529 16.500
v -34.460 31.214 16.500
v -34.361 52.135 16.500
v -115.637 52.505 16.500
v -115.752 29.592 16.500
usemtl roof
f 38 39 40 41 42 43 44 45 46 47 48 49 50 51 52 53 54 55 56 57
usemtl teaching_building
f 37 36 35 34 33 32 31 30 29 28 27 26 25 24 23 22 21 20 19 18
f 18 19 39 38
f 19 20 40 39
f 20 21 41 40
f 21 22 42 41
f 22 23 43 42
f 23 24 44 43
f 24 25 45 44
f 25 26 46 45
f 26 27 47 46
f 27 28 48 47
f 28 29 49 48
f 29 30 50 49
f 30 31 51 50
f 31 32 52 51
f 32 33 53 52
f 33 34 54 53
f 34 35 55 54
f 35 36 56 55
f 36 37 57 56
f 37 18 38 57
o SD0845_T003_3hao
v 128.025 -10.453 0.000
v 127.964 -28.464 0.000
v 117.563 -28.427 0.000
v 117.509 -48.265 0.000
v 171.661 -48.404 0.000
v 171.729 -27.084 0.000
v 133.928 -26.982 0.000
v 133.974 -11.361 0.000
v 138.342 -11.370 0.000
v 138.395 9.097 0.000
v 66.703 9.283 0.000
v 66.642 -10.277 0.000
v 128.025 -10.453 16.500
v 127.964 -28.464 16.500
v 117.563 -28.427 16.500
v 117.509 -48.265 16.500
v 171.661 -48.404 16.500
v 171.729 -27.084 16.500
v 133.928 -26.982 16.500
v 133.974 -11.361 16.500
v 138.342 -11.370 16.500
v 138.395 9.097 16.500
v 66.703 9.283 16.500
v 66.642 -10.277 16.500
usemtl roof
f 70 71 72 73 74 75 76 77 78 79 80 81
usemtl teaching_building
f 69 68 67 66 65 64 63 62 61 60 59 58
f 58 59 71 70
f 59 60 72 71
f 60 61 73 72
f 61 62 74 73
f 62 63 75 74
f 63 64 76 75
f 64 65 77 76
f 65 66 78 77
f 66 67 79 78
f 67 68 80 79
f 68 69 81 80
f 69 58 70 81
