# school_id SD0899
# school_name 沂水县第三实验中学
# boundary_source footprint_convex_hull_buffer_20m
# adjacent_block_merge_distance_m 2.0
mtllib ../campus_materials.mtl
o SD0899_campus_boundary
usemtl campus_boundary
v 106.074 -131.572 0.050
v 2.876 -126.934 0.050
v -31.256 -125.092 0.050
v -213.039 3.949 0.050
v -205.791 115.929 0.050
v -107.856 109.694 0.050
v 151.288 87.603 0.050
v 185.771 78.734 0.050
v 198.178 -11.746 0.050
v 195.307 -53.385 0.050
v 178.766 -74.237 0.050
v 106.074 -131.572 0.050
l 1 2 3 4 5 6 7 8 9 10 11 12 1
o SD0899_T001_1hao
v 21.165 15.951 0.000
v 31.866 15.266 0.000
v 30.954 -0.364 0.000
v 107.571 -5.151 0.000
v 109.006 5.638 0.000
v 110.857 37.175 0.000
v 102.099 37.728 0.000
v 102.929 50.628 0.000
v 143.879 47.908 0.000
v 143.220 36.666 0.000
v 165.957 35.351 0.000
v 167.781 62.710 0.000
v 147.681 63.981 0.000
v 147.924 67.817 0.000
v 89.854 71.476 0.000
v 88.464 49.777 0.000
v 96.916 49.235 0.000
v 94.595 13.354 0.000
v 48.679 16.272 0.000
v 49.166 23.811 0.000
v 45.121 24.065 0.000
v 46.385 43.608 0.000
v 87.163 41.011 0.000
v 89.105 71.310 0.000
v 37.121 74.615 0.000
v 36.579 66.313 0.000
v 24.470 67.087 0.000
v 21.165 15.951 10.620
v 31.866 15.266 10.620
v 30.954 -0.364 10.620
v 107.571 -5.151 10.620
v 109.006 5.638 10.620
v 110.857 37.175 10.620
v 102.099 37.728 10.620
v 102.929 50.628 10.620
v 143.879 47.908 10.620
v 143.220 36.666 10.620
v 165.957 35.351 10.620
v 167.781 62.710 10.620
v 147.681 63.981 10.620
v 147.924 67.817 10.620
v 89.854 71.476 10.620
v 88.464 49.777 10.620
v 96.916 49.235 10.620
v 94.595 13.354 10.620
v 48.679 16.272 10.620
v 49.166 23.811 10.620
v 45.121 24.065 10.620
v 46.385 43.608 10.620
v 87.163 41.011 10.620
v 89.105 71.310 10.620
v 37.121 74.615 10.620
v 36.579 66.313 10.620
v 24.470 67.087 10.620
usemtl roof
f 40 41 42 43 44 45 46 47 48 49 50 51 52 53 54 55 56 57 58 59 60 61 62 63 64 65 66
usemtl teaching_building
f 39 38 37 36 35 34 33 32 31 30 29 28 27 26 25 24 23 22 21 20 19 18 17 16 15 14 13
f 13 14 41 40
f 14 15 42 41
f 15 16 43 42
f 16 17 44 43
f 17 18 45 44
f 18 19 46 45
f 19 20 47 46
f 20 21 48 47
f 21 22 49 48
f 22 23 50 49
f 23 24 51 50
f 24 25 52 51
f 25 26 53 52
f 26 27 54 53
f 27 28 55 54
f 28 29 56 55
f 29 30 57 56
f 30 31 58 57
f 31 32 59 58
f 32 33 60 59
f 33 34 61 60
f 34 35 62 61
f 35 36 63 62
f 36 37 64 63
f 37 38 65 64
f 38 39 66 65
f 39 13 40 66
o SD0899_T002_2hao
v -51.343 54.994 0.000
v -97.982 57.945 0.000
v -96.465 76.804 0.000
v -39.045 73.653 0.000
v -39.280 69.431 0.000
v -26.710 68.734 0.000
v -29.663 15.996 0.000
v -40.833 16.615 0.000
v -41.546 3.858 0.000
v -44.291 3.195 0.000
v -102.018 7.197 0.000
v -99.354 36.534 0.000
v -52.716 33.582 0.000
v -51.343 54.994 10.790
v -97.982 57.945 10.790
v -96.465 76.804 10.790
v -39.045 73.653 10.790
v -39.280 69.431 10.790
v -26.710 68.734 10.790
v -29.663 15.996 10.790
v -40.833 16.615 10.790
v -41.546 3.858 10.790
v -44.291 3.195 10.790
v -102.018 7.197 10.790
v -99.354 36.534 10.790
v -52.716 33.582 10.790
usemtl roof
f 80 81 82 83 84 85 86 87 88 89 90 91 92
usemtl teaching_building
f 79 78 77 76 75 74 73 72 71 70 69 68 67
f 67 68 81 80
f 68 69 82 81
f 69 70 83 82
f 70 71 84 83
f 71 72 85 84
f 72 73 86 85
f 73 74 87 86
f 74 75 88 87
f 75 76 89 88
f 76 77 90 89
f 77 78 91 90
f 78 79 92 91
f 79 67 80 92
o SD0899_T002_2hao_seg02
v -118.786 28.387 0.000
v -100.492 27.005 0.000
v -102.199 4.853 0.000
v -116.547 5.947 0.000
v -116.195 10.612 0.000
v -118.387 10.776 0.000
v -118.506 8.888 0.000
v -192.360 13.796 0.000
v -187.123 94.700 0.000
v -109.341 89.748 0.000
v -110.497 71.873 0.000
v -172.865 75.831 0.000
v -175.998 27.204 0.000
v -117.585 23.479 0.000
v -119.156 23.601 0.000
v -118.786 28.387 10.790
v -100.492 27.005 10.790
v -102.199 4.853 10.790
v -116.547 5.947 10.790
v -116.195 10.612 10.790
v -118.387 10.776 10.790
v -118.506 8.888 10.790
v -192.360 13.796 10.790
v -187.123 94.700 10.790
v -109.341 89.748 10.790
v -110.497 71.873 10.790
v -172.865 75.831 10.790
v -175.998 27.204 10.790
v -117.585 23.479 10.790
v -119.156 23.601 10.790
usemtl roof
f 108 109 110 111 112 113 114 115 116 117 118 119 120 121 122
usemtl teaching_building
f 107 106 105 104 103 102 101 100 99 98 97 96 95 94 93
f 93 94 109 108
f 94 95 110 109
f 95 96 111 110
f 96 97 112 111
f 97 98 113 112
f 98 99 114 113
f 99 100 115 114
f 100 101 116 115
f 101 102 117 116
f 102 103 118 117
f 103 104 119 118
f 104 105 120 119
f 105 106 121 120
f 106 107 122 121
f 107 93 108 122
o SD0899_T002_2hao_seg03
v -20.263 -46.393 0.000
v -19.622 -34.731 0.000
v 6.871 -36.157 0.000
v 6.203 -48.549 0.000
v 25.816 -49.599 0.000
v 24.317 -77.179 0.000
v 5.472 -76.294 0.000
v 3.864 -106.958 0.000
v -24.399 -105.433 0.000
v -22.629 -72.978 0.000
v -42.187 -71.928 0.000
v -40.733 -45.288 0.000
v -20.263 -46.393 10.790
v -19.622 -34.731 10.790
v 6.871 -36.157 10.790
v 6.203 -48.549 10.790
v 25.816 -49.599 10.790
v 24.317 -77.179 10.790
v 5.472 -76.294 10.790
v 3.864 -106.958 10.790
v -24.399 -105.433 10.790
v -22.629 -72.978 10.790
v -42.187 -71.928 10.790
v -40.733 -45.288 10.790
usemtl roof
f 135 136 137 138 139 140 141 142 143 144 145 146
usemtl teaching_building
f 134 133 132 131 130 129 128 127 126 125 124 123
f 123 124 136 135
f 124 125 137 136
f 125 126 138 137
f 126 127 139 138
f 127 128 140 139
f 128 129 141 140
f 129 130 142 141
f 130 131 143 142
f 131 132 144 143
f 132 133 145 144
f 133 134 146 145
f 134 123 135 146
o SD0899_T002_2hao_seg04
v -44.291 3.195 0.000
v -44.887 -7.141 0.000
v -41.853 -7.317 0.000
v -42.991 -27.005 0.000
v -45.934 -26.839 0.000
v -47.488 -53.413 0.000
v -41.275 -53.766 0.000
v -41.781 -62.377 0.000
v -46.819 -62.090 0.000
v -47.325 -72.293 0.000
v -52.770 -72.238 0.000
v -50.260 -27.546 0.000
v -52.653 -27.414 0.000
v -51.506 -6.842 0.000
v -48.192 -7.030 0.000
v -47.605 3.383 0.000
v -44.291 3.195 10.790
v -44.887 -7.141 10.790
v -41.853 -7.317 10.790
v -42.991 -27.005 10.790
v -45.934 -26.839 10.790
v -47.488 -53.413 10.790
v -41.275 -53.766 10.790
v -41.781 -62.377 10.790
v -46.819 -62.090 10.790
v -47.325 -72.293 10.790
v -52.770 -72.238 10.790
v -50.260 -27.546 10.790
v -52.653 -27.414 10.790
v -51.506 -6.842 10.790
v -48.192 -7.030 10.790
v -47.605 3.383 10.790
usemtl roof
f 163 164 165 166 167 168 169 170 171 172 173 174 175 176 177 178
usemtl teaching_building
f 162 161 160 159 158 157 156 155 154 153 152 151 150 149 148 147
f 147 148 164 163
f 148 149 165 164
f 149 150 166 165
f 150 151 167 166
f 151 152 168 167
f 152 153 169 168
f 153 154 170 169
f 154 155 171 170
f 155 156 172 171
f 156 157 173 172
f 157 158 174 173
f 158 159 175 174
f 159 160 176 175
f 160 161 177 176
f 161 162 178 177
f 162 147 163 178
o SD0899_T003_3hao
v 133.739 -0.619 0.000
v 168.810 -3.017 0.000
v 168.205 -11.750 0.000
v 178.084 -12.424 0.000
v 175.781 -45.818 0.000
v 165.577 -45.122 0.000
v 164.548 -59.979 0.000
v 129.793 -57.613 0.000
v 133.739 -0.619 7.060
v 168.810 -3.017 7.060
v 168.205 -11.750 7.060
v 178.084 -12.424 7.060
v 175.781 -45.818 7.060
v 165.577 -45.122 7.060
v 164.548 -59.979 7.060
v 129.793 -57.613 7.060
usemtl roof
f 187 188 189 190 191 192 193 194
usemtl teaching_building
f 186 185 184 183 182 181 180 179
f 179 180 188 187
f 180 181 189 188
f 181 182 190 189
f 182 183 191 190
f 183 184 192 191
f 184 185 193 192
f 185 186 194 193
f 186 179 187 194
o SD0899_T004_4hao
v 50.918 -66.688 0.000
v 88.653 -68.800 0.000
v 86.947 -98.701 0.000
v 49.609 -96.612 0.000
v 48.941 -108.428 0.000
v 99.534 -111.258 0.000
v 102.947 -51.058 0.000
v 51.966 -48.206 0.000
v 50.918 -66.688 10.890
v 88.653 -68.800 10.890
v 86.947 -98.701 10.890
v 49.609 -96.612 10.890
v 48.941 -108.428 10.890
v 99.534 -111.258 10.890
v 102.947 -51.058 10.890
v 51.966 -48.206 10.890
usemtl roof
f 203 204 205 206 207 208 209 210
usemtl teaching_building
f 202 201 200 199 198 197 196 195
f 195 196 204 203
f 196 197 205 204
f 197 198 206 205
f 198 199 207 206
f 199 200 208 207
f 200 201 209 208
f 201 202 210 209
f 202 195 203 210
