# school_id SD0838
# school_name 临沂第九中学
# boundary_source footprint_convex_hull_buffer_20m
# adjacent_block_merge_distance_m 2.0
mtllib ../campus_materials.mtl
o SD0838_campus_boundary
usemtl campus_boundary
v -78.688 -148.370 0.050
v -123.209 -147.913 0.050
v -122.186 -68.918 0.050
v -111.786 -28.129 0.050
v -100.590 13.352 0.050
v -15.465 115.835 0.050
v 82.383 201.767 0.050
v 113.070 206.255 0.050
v 132.059 160.035 0.050
v 141.733 119.799 0.050
v 143.266 102.553 0.050
v 103.164 5.030 0.050
v 21.754 -139.324 0.050
v -78.688 -148.370 0.050
l 1 2 3 4 5 6 7 8 9 10 11 12 13 14 1
o SD0838_T001_1hao
v 92.853 151.276 0.000
v 102.134 151.999 0.000
v 104.342 117.050 0.000
v 94.564 116.318 0.000
v 95.289 104.422 0.000
v 122.912 105.645 0.000
v 121.942 116.559 0.000
v 114.853 116.077 0.000
v 112.974 153.861 0.000
v 102.737 153.000 0.000
v 100.507 184.205 0.000
v 91.134 182.834 0.000
v 92.853 151.276 9.900
v 102.134 151.999 9.900
v 104.342 117.050 9.900
v 94.564 116.318 9.900
v 95.289 104.422 9.900
v 122.912 105.645 9.900
v 121.942 116.559 9.900
v 114.853 116.077 9.900
v 112.974 153.861 9.900
v 102.737 153.000 9.900
v 100.507 184.205 9.900
v 91.134 182.834 9.900
usemtl roof
f 27 28 29 30 31 32 33 34 35 36 37 38
usemtl teaching_building
f 26 25 24 23 22 21 20 19 18 17 16 15
f 15 16 28 27
f 16 17 29 28
f 17 18 30 29
f 18 19 31 30
f 19 20 32 31
f 20 21 33 32
f 21 22 34 33
f 22 23 35 34
f 23 24 36 35
f 24 25 37 36
f 25 26 38 37
f 26 15 27 38
o SD0838_T002_2hao
v 1.726 68.629 0.000
v 54.718 73.068 0.000
v 51.892 106.284 0.000
v -1.085 101.846 0.000
v 1.726 68.629 9.900
v 54.718 73.068 9.900
v 51.892 106.284 9.900
v -1.085 101.846 9.900
usemtl roof
f 43 44 45 46
usemtl teaching_building
f 42 41 40 39
f 39 40 44 43
f 40 41 45 44
f 41 42 46 45
f 42 39 43 46
o SD0838_T003_3hao
v 67.972 12.917 0.000
v 85.137 13.779 0.000
v 80.706 101.095 0.000
v 63.542 100.234 0.000
v 67.972 12.917 9.900
v 85.137 13.779 9.900
v 80.706 101.095 9.900
v 63.542 100.234 9.900
usemtl roof
f 51 52 53 54
usemtl teaching_building
f 50 49 48 47
f 47 48 52 51
f 48 49 53 52
f 49 50 54 53
f 50 47 51 54
o SD0838_T004_4hao
v -79.484 -128.361 0.000
v -79.484 -121.320 0.000
v 9.495 -120.347 0.000
v 9.740 -110.396 0.000
v -24.246 -110.396 0.000
v -24.246 -107.005 0.000
v -53.328 -106.523 0.000
v -53.328 -110.155 0.000
v -79.484 -109.673 0.000
v -79.247 -85.148 0.000
v 12.429 -85.639 0.000
v 12.429 -72.037 0.000
v -27.905 -72.528 0.000
v -27.905 -68.164 0.000
v -44.780 -68.164 0.000
v -45.017 -71.555 0.000
v -79.247 -71.314 0.000
v -79.484 -47.049 0.000
v 14.377 -47.762 0.000
v 14.132 -32.724 0.000
v -27.661 -33.697 0.000
v -27.661 -30.287 0.000
v -44.528 -30.287 0.000
v -44.528 -34.179 0.000
v -69.469 -33.206 0.000
v -68.973 -9.663 0.000
v 13.651 -8.690 0.000
v 13.407 4.421 0.000
v -27.905 4.902 0.000
v -28.158 7.571 0.000
v -44.284 7.571 0.000
v -44.284 4.180 0.000
v -82.418 3.929 0.000
v -82.907 -33.206 0.000
v -92.440 -33.206 0.000
v -92.937 -71.314 0.000
v -102.218 -71.555 0.000
v -102.951 -128.120 0.000
v -79.484 -128.361 9.900
v -79.484 -121.320 9.900
v 9.495 -120.347 9.900
v 9.740 -110.396 9.900
v -24.246 -110.396 9.900
v -24.246 -107.005 9.900
v -53.328 -106.523 9.900
v -53.328 -110.155 9.900
v -79.484 -109.673 9.900
v -79.247 -85.148 9.900
v 12.429 -85.639 9.900
v 12.429 -72.037 9.900
v -27.905 -72.528 9.900
v -27.905 -68.164 9.900
v -44.780 -68.164 9.900
v -45.017 -71.555 9.900
v -79.247 -71.314 9.900
v -79.484 -47.049 9.900
v 14.377 -47.762 9.900
v 14.132 -32.724 9.900
v -27.661 -33.697 9.900
v -27.661 -30.287 9.900
v -44.528 -30.287 9.900
v -44.528 -34.179 9.900
v -69.469 -33.206 9.900
v -68.973 -9.663 9.900
v 13.651 -8.690 9.900
v 13.407 4.421 9.900
v -27.905 4.902 9.900
v -28.158 7.571 9.900
v -44.284 7.571 9.900
v -44.284 4.180 9.900
v -82.418 3.929 9.900
v -82.907 -33.206 9.900
v -92.440 -33.206 9.900
v -92.937 -71.314 9.900
v -102.218 -71.555 9.900
v -102.951 -128.120 9.900
usemtl roof
f 93 94 95 96 97 98 99 100 101 102 103 104 105 106 107 108 109 110 111 112 113 114 115 116 117 118 119 120 121 122 123 124 125 126 127 128 129 130
usemtl teaching_building
f 92 91 90 89 88 87 86 85 84 83 82 81 80 79 78 77 76 75 74 73 72 71 70 69 68 67 66 65 64 63 62 61 60 59 58 57 56 55
f 55 56 94 93
f 56 57 95 94
f 57 58 96 95
f 58 59 97 96
f 59 60 98 97
f 60 61 99 98
f 61 62 100 99
f 62 63 101 100
f 63 64 102 101
f 64 65 103 102
f 65 66 104 103
f 66 67 105 104
f 67 68 106 105
f 68 69 107 106
f 69 70 108 107
f 70 71 109 108
f 71 72 110 109
f 72 73 111 110
f 73 74 112 111
f 74 75 113 112
f 75 76 114 113
f 76 77 115 114
f 77 78 116 115
f 78 79 117 116
f 79 80 118 117
f 80 81 119 118
f 81 82 120 119
f 82 83 121 120
f 83 84 122 121
f 84 85 123 122
f 85 86 124 123
f 86 87 125 124
f 87 88 126 125
f 88 89 127 126
f 89 90 128 127
f 90 91 129 128
f 91 92 130 129
f 92 55 93 130
