# school_id SD0824
# school_name 临沂童星实验学校滨河校区
# boundary_source footprint_convex_hull_buffer_20m
# adjacent_block_merge_distance_m 2.0
mtllib ../campus_materials.mtl
o SD0824_campus_boundary
usemtl campus_boundary
v -51.141 -60.139 0.050
v -53.162 -28.265 0.050
v -54.296 53.829 0.050
v 69.959 64.666 0.050
v 73.626 23.192 0.050
v 25.737 -55.318 0.050
v -51.141 -60.139 0.050
l 1 2 3 4 5 6 7 1
o SD0824_T001_1hao
v -32.713 20.491 0.000
v 53.124 27.987 0.000
v 51.796 43.006 0.000
v -34.041 35.520 0.000
v -32.713 20.491 9.900
v 53.124 27.987 9.900
v 51.796 43.006 9.900
v -34.041 35.520 9.900
usemtl roof
f 12 13 14 15
usemtl teaching_building
f 11 10 9 8
f 8 9 13 12
f 9 10 14 13
f 10 11 15 14
f 11 8 12 15
o SD0824_T002_2hao
v -32.446 -38.927 0.000
v 14.088 -36.009 0.000
v 13.363 -24.575 0.000
v -33.171 -27.494 0.000
v -32.446 -38.927 9.900
v 14.088 -36.009 9.900
v 13.363 -24.575 9.900
v -33.171 -27.494 9.900
usemtl roof
f 20 21 22 23
usemtl teaching_building
f 19 18 17 16
f 16 17 21 20
f 17 18 22 21
f 18 19 23 22
f 19 16 20 23
