# school_id SD0883
# school_name 新时代医药卫生中等职业学校
# boundary_source footprint_convex_hull_buffer_20m
# adjacent_block_merge_distance_m 2.0
mtllib ../campus_materials.mtl
o SD0883_campus_boundary
usemtl campus_boundary
v 149.189 -52.645 0.050
v 47.805 -51.480 0.050
v -228.204 -46.277 0.050
v -227.490 13.778 0.050
v 46.055 87.892 0.050
v 151.348 86.686 0.050
v 150.767 36.010 0.050
v 149.189 -52.645 0.050
l 1 2 3 4 5 6 7 8 1
o SD0883_T001_1hao
v 130.769 36.303 0.000
v 131.120 66.916 0.000
v 48.604 67.861 0.000
v 48.237 37.258 0.000
v 130.769 36.303 9.900
v 131.120 66.916 9.900
v 48.604 67.861 9.900
v 48.237 37.258 9.900
usemtl roof
f 13 14 15 16
usemtl teaching_building
f 12 11 10 9
f 9 10 14 13
f 10 11 15 14
f 11 12 16 15
f 12 9 13 16
o SD0883_T002_2hao
v -108.633 -27.804 0.000
v -108.343 -2.722 0.000
v -207.671 -1.573 0.000
v -207.969 -26.655 0.000
v -108.633 -27.804 6.600
v -108.343 -2.722 6.600
v -207.671 -1.573 6.600
v -207.969 -26.655 6.600
usemtl roof
f 21 22 23 24
usemtl teaching_building
f 20 19 18 17
f 17 18 22 21
f 18 19 23 22
f 19 20 24 23
f 20 17 21 24
o SD0883_T003_3hao
v 27.077 -29.981 0.000
v 27.391 -3.899 0.000
v -68.048 -2.796 0.000
v -68.346 -28.888 0.000
v 27.077 -29.981 9.900
v 27.391 -3.899 9.900
v -68.048 -2.796 9.900
v -68.346 -28.888 9.900
usemtl roof
f 29 30 31 32
usemtl teaching_building
f 28 27 26 25
f 25 26 30 29
f 26 27 31 30
f 27 28 32 31
f 28 25 29 32
o SD0883_T004_4hao
v 129.546 -32.418 0.000
v 129.798 -10.533 0.000
v 48.360 -9.588 0.000
v 48.108 -31.482 0.000
v 129.546 -32.418 6.600
v 129.798 -10.533 6.600
v 48.360 -9.588 6.600
v 48.108 -31.482 6.600
usemtl roof
f 37 38 39 40
usemtl teaching_building
f 36 35 34 33
f 33 34 38 37
f 34 35 39 38
f 35 36 40 39
f 36 33 37 40
