# school_id SD0898
# school_name 沂水县第三中学
# boundary_source footprint_convex_hull_buffer_20m
# adjacent_block_merge_distance_m 2.0
mtllib ../campus_materials.mtl
o SD0898_campus_boundary
usemtl campus_boundary
v 91.894 -145.434 0.050
v -111.890 -139.549 0.050
v -155.064 -132.165 0.050
v -140.429 123.895 0.050
v -134.111 158.355 0.050
v -93.695 298.438 0.050
v -40.895 289.356 0.050
v 106.642 159.056 0.050
v 139.172 120.391 0.050
v 129.912 60.635 0.050
v 126.050 39.370 0.050
v 111.310 -40.479 0.050
v 91.894 -145.434 0.050
l 1 2 3 4 5 6 7 8 9 10 11 12 13 1
o SD0898_T001_1hao
v 40.772 138.778 0.000
v 50.018 137.087 0.000
v 48.185 127.194 0.000
v 118.016 114.471 0.000
v 111.786 80.833 0.000
v 32.718 95.259 0.000
v 40.772 138.778 8.090
v 50.018 137.087 8.090
v 48.185 127.194 8.090
v 118.016 114.471 8.090
v 111.786 80.833 8.090
v 32.718 95.259 8.090
usemtl roof
f 20 21 22 23 24 25
usemtl teaching_building
f 19 18 17 16 15 14
f 14 15 21 20
f 15 16 22 21
f 16 17 23 22
f 17 18 24 23
f 18 19 25 24
f 19 14 20 25
o SD0898_T002_2hao
v 29.133 78.457 0.000
v 110.188 63.954 0.000
v 106.377 42.973 0.000
v 25.323 57.454 0.000
v 29.133 78.457 15.690
v 110.188 63.954 15.690
v 106.377 42.973 15.690
v 25.323 57.454 15.690
usemtl roof
f 30 31 32 33
usemtl teaching_building
f 29 28 27 26
f 26 27 31 30
f 27 28 32 31
f 28 29 33 32
f 29 26 30 33
o SD0898_T003_3hao
v 70.712 31.820 0.000
v 70.035 27.840 0.000
v 93.574 23.850 0.000
v 94.071 26.735 0.000
v 102.233 25.353 0.000
v 98.287 2.449 0.000
v 58.613 9.181 0.000
v 62.740 33.168 0.000
v 70.712 31.820 12.260
v 70.035 27.840 12.260
v 93.574 23.850 12.260
v 94.071 26.735 12.260
v 102.233 25.353 12.260
v 98.287 2.449 12.260
v 58.613 9.181 12.260
v 62.740 33.168 12.260
usemtl roof
f 42 43 44 45 46 47 48 49
usemtl teaching_building
f 41 40 39 38 37 36 35 34
f 34 35 43 42
f 35 36 44 43
f 36 37 45 44
f 37 38 46 45
f 38 39 47 46
f 39 40 48 47
f 40 41 49 48
f 41 34 42 49
o SD0898_T003_3hao_seg02
v 25.097 35.888 0.000
v 24.637 33.235 0.000
v 30.578 32.218 0.000
v 30.876 33.942 0.000
v 38.180 32.693 0.000
v 37.810 30.549 0.000
v 43.481 29.565 0.000
v 43.751 31.090 0.000
v 51.164 29.819 0.000
v 50.839 27.907 0.000
v 56.428 26.945 0.000
v 56.672 28.316 0.000
v 60.211 27.697 0.000
v 57.403 11.768 0.000
v 54.117 12.332 0.000
v 53.855 10.861 0.000
v 47.381 11.989 0.000
v 47.661 13.548 0.000
v 41.630 14.598 0.000
v 41.214 12.232 0.000
v 34.343 13.426 0.000
v 34.668 15.283 0.000
v 29.115 16.245 0.000
v 28.754 14.178 0.000
v 20.664 15.570 0.000
v 20.971 17.295 0.000
v 18.416 17.726 0.000
v 21.684 36.474 0.000
v 25.097 35.888 12.260
v 24.637 33.235 12.260
v 30.578 32.218 12.260
v 30.876 33.942 12.260
v 38.180 32.693 12.260
v 37.810 30.549 12.260
v 43.481 29.565 12.260
v 43.751 31.090 12.260
v 51.164 29.819 12.260
v 50.839 27.907 12.260
v 56.428 26.945 12.260
v 56.672 28.316 12.260
v 60.211 27.697 12.260
v 57.403 11.768 12.260
v 54.117 12.332 12.260
v 53.855 10.861 12.260
v 47.381 11.989 12.260
v 47.661 13.548 12.260
v 41.630 14.598 12.260
v 41.214 12.232 12.260
v 34.343 13.426 12.260
v 34.668 15.283 12.260
v 29.115 16.245 12.260
v 28.754 14.178 12.260
v 20.664 15.570 12.260
v 20.971 17.295 12.260
v 18.416 17.726 12.260
v 21.684 36.474 12.260
usemtl roof
f 78 79 80 81 82 83 84 85 86 87 88 89 90 91 92 93 94 95 96 97 98 99 100 101 102 103 104 105
usemtl teaching_building
f 77 76 75 74 73 72 71 70 69 68 67 66 65 64 63 62 61 60 59 58 57 56 55 54 53 52 51 50
f 50 51 79 78
f 51 52 80 79
f 52 53 81 80
f 53 54 82 81
f 54 55 83 82
f 55 56 84 83
f 56 57 85 84
f 57 58 86 85
f 58 59 87 86
f 59 60 88 87
f 60 61 89 88
f 61 62 90 89
f 62 63 91 90
f 63 64 92 91
f 64 65 93 92
f 65 66 94 93
f 66 67 95 94
f 67 68 96 95
f 68 69 97 96
f 69 70 98 97
f 70 71 99 98
f 71 72 100 99
f 72 73 101 100
f 73 74 102 101
f 74 75 103 102
f 75 76 104 103
f 76 77 105 104
f 77 50 78 105
o SD0898_T004_4hao
v 15.671 -3.774 0.000
v 95.064 -18.012 0.000
v 91.642 -36.848 0.000
v 12.240 -22.632 0.000
v 15.671 -3.774 13.590
v 95.064 -18.012 13.590
v 91.642 -36.848 13.590
v 12.240 -22.632 13.590
usemtl roof
f 110 111 112 113
usemtl teaching_building
f 109 108 107 106
f 106 107 111 110
f 107 108 112 111
f 108 109 113 112
f 109 106 110 113
o SD0898_T005_5hao
v -29.258 -36.085 0.000
v -31.922 -51.483 0.000
v -115.071 -37.268 0.000
v -120.912 -70.905 0.000
v -114.953 -71.922 0.000
v -115.721 -76.355 0.000
v -85.058 -81.616 0.000
v -83.947 -75.249 0.000
v -76.363 -76.543 0.000
v -77.365 -82.335 0.000
v -52.589 -86.580 0.000
v -51.713 -81.561 0.000
v -36.951 -84.092 0.000
v -40.653 -105.382 0.000
v -105.518 -94.273 0.000
v -109.906 -119.598 0.000
v -134.077 -115.464 0.000
v -128.741 -84.734 0.000
v -126.303 -85.143 0.000
v -124.479 -74.564 0.000
v -129.815 -73.657 0.000
v -122.538 -31.265 0.000
v -116.398 -32.304 0.000
v -114.917 -23.671 0.000
v -112.524 -24.069 0.000
v -111.703 -19.283 0.000
v -103.540 -20.653 0.000
v -104.218 -24.611 0.000
v -74.503 -29.629 0.000
v -73.555 -24.069 0.000
v -64.381 -25.617 0.000
v -65.392 -31.531 0.000
v -42.052 -35.488 0.000
v -41.763 -33.821 0.000
v -46.973 -32.879 0.000
v -36.138 26.149 0.000
v -16.942 22.667 0.000
v -27.786 -36.350 0.000
v -33.505 -35.315 0.000
v -29.258 -36.085 17.060
v -31.922 -51.483 17.060
v -115.071 -37.268 17.060
v -120.912 -70.905 17.060
v -114.953 -71.922 17.060
v -115.721 -76.355 17.060
v -85.058 -81.616 17.060
v -83.947 -75.249 17.060
v -76.363 -76.543 17.060
v -77.365 -82.335 17.060
v -52.589 -86.580 17.060
v -51.713 -81.561 17.060
v -36.951 -84.092 17.060
v -40.653 -105.382 17.060
v -105.518 -94.273 17.060
v -109.906 -119.598 17.060
v -134.077 -115.464 17.060
v -128.741 -84.734 17.060
v -126.303 -85.143 17.060
v -124.479 -74.564 17.060
v -129.815 -73.657 17.060
v -122.538 -31.265 17.060
v -116.398 -32.304 17.060
v -114.917 -23.671 17.060
v -112.524 -24.069 17.060
v -111.703 -19.283 17.060
v -103.540 -20.653 17.060
v -104.218 -24.611 17.060
v -74.503 -29.629 17.060
v -73.555 -24.069 17.060
v -64.381 -25.617 17.060
v -65.392 -31.531 17.060
v -42.052 -35.488 17.060
v -41.763 -33.821 17.060
v -46.973 -32.879 17.060
v -36.138 26.149 17.060
v -16.942 22.667 17.060
v -27.786 -36.350 17.060
v -33.505 -35.315 17.060
usemtl roof
f 153 154 155 156 157 158 159 160 161 162 163 164 165 166 167 168 169 170 171 172 173 174 175 176 177 178 179 180 181 182 183 184 185 186 187 188 189 190 191
usemtl teaching_building
f 152 151 150 149 148 147 146 145 144 143 142 141 140 139 138 137 136 135 134 133 132 131 130 129 128 127 126 125 124 123 122 121 120 119 118 117 116 115 114
f 114 115 154 153
f 115 116 155 154
f 116 117 156 155
f 117 118 157 156
f 118 119 158 157
f 119 120 159 158
f 120 121 160 159
f 121 122 161 160
f 122 123 162 161
f 123 124 163 162
f 124 125 164 163
f 125 126 165 164
f 126 127 166 165
f 127 128 167 166
f 128 129 168 167
f 129 130 169 168
f 130 131 170 169
f 131 132 171 170
f 132 133 172 171
f 133 134 173 172
f 134 135 174 173
f 135 136 175 174
f 136 137 176 175
f 137 138 177 176
f 138 139 178 177
f 139 140 179 178
f 140 141 180 179
f 141 142 181 180
f 142 143 182 181
f 143 144 183 182
f 144 145 184 183
f 145 146 185 184
f 146 147 186 185
f 147 148 187 186
f 148 149 188 187
f 149 150 189 188
f 150 151 190 189
f 151 152 191 190
f 152 114 153 191
o SD0898_T006_6hao
v 6.768 -38.672 0.000
v 16.502 -40.385 0.000
v 15.445 -46.310 0.000
v 40.682 -50.731 0.000
v 41.657 -45.227 0.000
v 49.530 -46.608 0.000
v 48.510 -52.312 0.000
v 62.496 -54.777 0.000
v 64.166 -45.426 0.000
v 80.220 -48.244 0.000
v 79.191 -53.992 0.000
v 87.100 -55.374 0.000
v 84.048 -72.508 0.000
v 3.265 -58.326 0.000
v 6.768 -38.672 16.920
v 16.502 -40.385 16.920
v 15.445 -46.310 16.920
v 40.682 -50.731 16.920
v 41.657 -45.227 16.920
v 49.530 -46.608 16.920
v 48.510 -52.312 16.920
v 62.496 -54.777 16.920
v 64.166 -45.426 16.920
v 80.220 -48.244 16.920
v 79.191 -53.992 16.920
v 87.100 -55.374 16.920
v 84.048 -72.508 16.920
v 3.265 -58.326 16.920
usemtl roof
f 206 207 208 209 210 211 212 213 214 215 216 217 218 219
usemtl teaching_building
f 205 204 203 202 201 200 199 198 197 196 195 194 193 192
f 192 193 207 206
f 193 194 208 207
f 194 195 209 208
f 195 196 210 209
f 196 197 211 210
f 197 198 212 211
f 198 199 213 212
f 199 200 214 213
f 200 201 215 214
f 201 202 216 215
f 202 203 217 216
f 203 204 218 217
f 204 205 219 218
f 205 192 206 219
o SD0898_T007_7hao
v -2.992 -92.560 0.000
v 9.576 -94.815 0.000
v 8.800 -99.082 0.000
v 35.481 -103.868 0.000
v 36.474 -98.407 0.000
v 42.749 -99.535 0.000
v 41.711 -105.261 0.000
v 64.193 -109.307 0.000
v 64.970 -105.073 0.000
v 78.523 -107.505 0.000
v 75.344 -124.948 0.000
v -6.216 -110.290 0.000
v -2.992 -92.560 10.740
v 9.576 -94.815 10.740
v 8.800 -99.082 10.740
v 35.481 -103.868 10.740
v 36.474 -98.407 10.740
v 42.749 -99.535 10.740
v 41.711 -105.261 10.740
v 64.193 -109.307 10.740
v 64.970 -105.073 10.740
v 78.523 -107.505 10.740
v 75.344 -124.948 10.740
v -6.216 -110.290 10.740
usemtl roof
f 232 233 234 235 236 237 238 239 240 241 242 243
usemtl teaching_building
f 231 230 229 228 227 226 225 224 223 222 221 220
f 220 221 233 232
f 221 222 234 233
f 222 223 235 234
f 223 224 236 235
f 224 225 237 236
f 225 226 238 237
f 226 227 239 238
f 227 228 240 239
f 228 229 241 240
f 229 230 242 241
f 230 231 243 242
f 231 220 232 243
