# school_id SD0864
# school_name 凤凰实验学校
# boundary_source footprint_convex_hull_buffer_20m
# adjacent_block_merge_distance_m 2.0
mtllib ../campus_materials.mtl
o SD0864_campus_boundary
usemtl campus_boundary
v -66.541 -42.335 0.050
v -67.155 46.477 0.050
v 63.964 47.367 0.050
v 64.237 7.988 0.050
v 49.047 -34.611 0.050
v -30.682 -42.096 0.050
v -66.541 -42.335 0.050
l 1 2 3 4 5 6 7 1
o SD0864_T001_1hao
v -46.680 -22.202 0.000
v -31.685 -22.102 0.000
v -31.721 -16.343 0.000
v 34.489 -15.890 0.000
v 34.298 11.314 0.000
v 44.213 11.380 0.000
v 44.103 27.232 0.000
v -47.017 26.613 0.000
v -46.680 -22.202 17.790
v -31.685 -22.102 17.790
v -31.721 -16.343 17.790
v 34.489 -15.890 17.790
v 34.298 11.314 17.790
v 44.213 11.380 17.790
v 44.103 27.232 17.790
v -47.017 26.613 17.790
usemtl roof
f 16 17 18 19 20 21 22 23
usemtl teaching_building
f 15 14 13 12 11 10 9 8
f 8 9 17 16
f 9 10 18 17
f 10 11 19 18
f 11 12 20 19
f 12 13 21 20
f 13 14 22 21
f 14 15 23 22
f 15 8 16 23
