# school_id SD0832
# school_name 临沂第三十三中学
# boundary_source footprint_convex_hull_buffer_20m
# adjacent_block_merge_distance_m 2.0
mtllib ../campus_materials.mtl
o SD0832_campus_boundary
usemtl campus_boundary
v 21.845 -126.305 0.050
v -157.893 -34.371 0.050
v -158.788 -5.663 0.050
v -75.441 103.826 0.050
v -12.838 106.754 0.050
v 84.410 44.877 0.050
v 96.235 -3.066 0.050
v 96.670 -20.123 0.050
v 94.141 -124.497 0.050
v 21.845 -126.305 0.050
l 1 2 3 4 5 6 7 8 9 10 1
o SD0832_T001_1hao
v -64.777 75.667 0.000
v -17.818 77.854 0.000
v -18.231 86.480 0.000
v -65.182 84.284 0.000
v -64.777 75.667 9.900
v -17.818 77.854 9.900
v -18.231 86.480 9.900
v -65.182 84.284 9.900
usemtl roof
f 15 16 17 18
usemtl teaching_building
f 14 13 12 11
f 11 12 16 15
f 12 13 17 16
f 13 14 18 17
f 14 11 15 18
o SD0832_T002_2hao
v -8.960 12.181 0.000
v 67.370 14.108 0.000
v 66.911 32.306 0.000
v -9.419 30.378 0.000
v -8.960 12.181 9.900
v 67.370 14.108 9.900
v 66.911 32.306 9.900
v -9.419 30.378 9.900
usemtl roof
f 23 24 25 26
usemtl teaching_building
f 22 21 20 19
f 19 20 24 23
f 20 21 25 24
f 21 22 26 25
f 22 19 23 26
o SD0832_T003_3hao
v 26.167 -21.406 0.000
v 76.664 -20.136 0.000
v 76.297 -5.747 0.000
v 25.792 -7.026 0.000
v 26.167 -21.406 9.900
v 76.664 -20.136 9.900
v 76.297 -5.747 9.900
v 25.792 -7.026 9.900
usemtl roof
f 31 32 33 34
usemtl teaching_building
f 30 29 28 27
f 27 28 32 31
f 28 29 33 32
f 29 30 34 33
f 30 27 31 34
o SD0832_T004_4hao
v -138.271 -21.943 0.000
v -38.263 -18.913 0.000
v -38.561 -9.111 0.000
v -138.577 -12.131 0.000
v -138.271 -21.943 9.900
v -38.263 -18.913 9.900
v -38.561 -9.111 9.900
v -138.577 -12.131 9.900
usemtl roof
f 39 40 41 42
usemtl teaching_building
f 38 37 36 35
f 35 36 40 39
f 36 37 41 40
f 37 38 42 41
f 38 35 39 42
o SD0832_T005_5hao
v 26.427 -106.184 0.000
v 74.608 -104.979 0.000
v 73.003 -42.234 0.000
v 24.822 -43.448 0.000
v 26.427 -106.184 9.900
v 74.608 -104.979 9.900
v 73.003 -42.234 9.900
v 24.822 -43.448 9.900
usemtl roof
f 47 48 49 50
usemtl teaching_building
f 46 45 44 43
f 43 44 48 47
f 44 45 49 48
f 45 46 50 49
f 46 43 47 50
