# school_id SD0825
# school_name 临沂第一中学（北校区）
# boundary_source footprint_convex_hull_buffer_20m
# adjacent_block_merge_distance_m 2.0
mtllib ../campus_materials.mtl
o SD0825_campus_boundary
usemtl campus_boundary
v 163.241 -227.068 0.050
v -352.819 -168.631 0.050
v -353.165 -88.359 0.050
v -284.996 206.372 0.050
v -191.922 207.835 0.050
v 46.666 206.434 0.050
v 119.882 205.599 0.050
v 204.037 204.068 0.050
v 237.641 134.466 0.050
v 241.751 -96.199 0.050
v 242.039 -226.828 0.050
v 163.241 -227.068 0.050
l 1 2 3 4 5 6 7 8 9 10 11 12 1
o SD0825_T001_1hao
v 61.129 167.913 0.000
v 119.647 168.071 0.000
v 119.586 185.601 0.000
v 61.083 185.453 0.000
v 61.129 167.913 9.900
v 119.647 168.071 9.900
v 119.586 185.601 9.900
v 61.083 185.453 9.900
usemtl roof
f 17 18 19 20
usemtl teaching_building
f 16 15 14 13
f 13 14 18 17
f 14 15 19 18
f 15 16 20 19
f 16 13 17 20
o SD0825_T002_2hao
v 131.848 168.831 0.000
v 191.580 169.655 0.000
v 191.374 184.295 0.000
v 131.642 183.488 0.000
v 131.848 168.831 9.900
v 191.580 169.655 9.900
v 191.374 184.295 9.900
v 131.642 183.488 9.900
usemtl roof
f 25 26 27 28
usemtl teaching_building
f 24 23 22 21
f 21 22 26 25
f 22 23 27 26
f 23 24 28 27
f 24 21 25 28
o SD0825_T003_3hao
v -268.876 165.226 0.000
v -204.413 165.680 0.000
v -204.573 187.083 0.000
v -269.036 186.620 0.000
v -268.876 165.226 9.900
v -204.413 165.680 9.900
v -204.573 187.083 9.900
v -269.036 186.620 9.900
usemtl roof
f 33 34 35 36
usemtl teaching_building
f 32 31 30 29
f 29 30 34 33
f 30 31 35 34
f 31 32 36 35
f 32 29 33 36
o SD0825_T004_4hao
v -1.945 134.289 0.000
v 5.601 134.401 0.000
v 5.685 129.212 0.000
v 12.835 129.323 0.000
v 12.911 124.097 0.000
v 28.180 124.338 0.000
v 28.081 130.555 0.000
v 38.542 130.722 0.000
v 38.489 134.132 0.000
v 47.333 134.271 0.000
v 46.493 186.435 0.000
v -2.762 185.647 0.000
v -1.945 134.289 9.900
v 5.601 134.401 9.900
v 5.685 129.212 9.900
v 12.835 129.323 9.900
v 12.911 124.097 9.900
v 28.180 124.338 9.900
v 28.081 130.555 9.900
v 38.542 130.722 9.900
v 38.489 134.132 9.900
v 47.333 134.271 9.900
v 46.493 186.435 9.900
v -2.762 185.647 9.900
usemtl roof
f 49 50 51 52 53 54 55 56 57 58 59 60
usemtl teaching_building
f 48 47 46 45 44 43 42 41 40 39 38 37
f 37 38 50 49
f 38 39 51 50
f 39 40 52 51
f 40 41 53 52
f 41 42 54 53
f 42 43 55 54
f 43 44 56 55
f 44 45 57 56
f 45 46 58 57
f 46 47 59 58
f 47 48 60 59
f 48 37 49 60
o SD0825_T005_5hao
v -111.756 132.585 0.000
v -105.354 132.640 0.000
v -105.308 127.414 0.000
v -96.632 127.489 0.000
v -96.594 123.829 0.000
v -79.868 123.977 0.000
v -79.921 129.722 0.000
v -72.581 129.777 0.000
v -72.627 135.123 0.000
v -63.676 135.197 0.000
v -64.103 185.462 0.000
v -112.206 185.054 0.000
v -111.756 132.585 9.900
v -105.354 132.640 9.900
v -105.308 127.414 9.900
v -96.632 127.489 9.900
v -96.594 123.829 9.900
v -79.868 123.977 9.900
v -79.921 129.722 9.900
v -72.581 129.777 9.900
v -72.627 135.123 9.900
v -63.676 135.197 9.900
v -64.103 185.462 9.900
v -112.206 185.054 9.900
usemtl roof
f 73 74 75 76 77 78 79 80 81 82 83 84
usemtl teaching_building
f 72 71 70 69 68 67 66 65 64 63 62 61
f 61 62 74 73
f 62 63 75 74
f 63 64 76 75
f 64 65 77 76
f 65 66 78 77
f 66 67 79 78
f 67 68 80 79
f 68 69 81 80
f 69 70 82 81
f 70 71 83 82
f 71 72 84 83
f 72 61 73 84
o SD0825_T006_6hao
v -191.434 138.542 0.000
v -191.479 135.225 0.000
v -188.633 135.197 0.000
v -188.732 126.849 0.000
v -192.471 126.896 0.000
v -192.693 107.531 0.000
v -129.108 106.808 0.000
v -128.871 128.091 0.000
v -184.505 128.712 0.000
v -184.414 136.847 0.000
v -177.363 136.763 0.000
v -177.188 151.875 0.000
v -184.498 151.958 0.000
v -184.345 166.162 0.000
v -127.925 165.569 0.000
v -127.696 187.176 0.000
v -191.823 187.834 0.000
v -192.059 165.245 0.000
v -188.786 164.420 0.000
v -188.938 152.820 0.000
v -191.579 152.848 0.000
v -191.632 148.438 0.000
v -195.340 148.484 0.000
v -195.478 138.598 0.000
v -191.434 138.542 9.900
v -191.479 135.225 9.900
v -188.633 135.197 9.900
v -188.732 126.849 9.900
v -192.471 126.896 9.900
v -192.693 107.531 9.900
v -129.108 106.808 9.900
v -128.871 128.091 9.900
v -184.505 128.712 9.900
v -184.414 136.847 9.900
v -177.363 136.763 9.900
v -177.188 151.875 9.900
v -184.498 151.958 9.900
v -184.345 166.162 9.900
v -127.925 165.569 9.900
v -127.696 187.176 9.900
v -191.823 187.834 9.900
v -192.059 165.245 9.900
v -188.786 164.420 9.900
v -188.938 152.820 9.900
v -191.579 152.848 9.900
v -191.632 148.438 9.900
v -195.340 148.484 9.900
v -195.478 138.598 9.900
usemtl roof
f 109 110 111 112 113 114 115 116 117 118 119 120 121 122 123 124 125 126 127 128 129 130 131 132
usemtl teaching_building
f 108 107 106 105 104 103 102 101 100 99 98 97 96 95 94 93 92 91 90 89 88 87 86 85
f 85 86 110 109
f 86 87 111 110
f 87 88 112 111
f 88 89 113 112
f 89 90 114 113
f 90 91 115 114
f 91 92 116 115
f 92 93 117 116
f 93 94 118 117
f 94 95 119 118
f 95 96 120 119
f 96 97 121 120
f 97 98 122 121
f 98 99 123 122
f 99 100 124 123
f 100 101 125 124
f 101 102 126 125
f 102 103 127 126
f 103 104 128 127
f 104 105 129 128
f 105 106 130 129
f 106 107 131 130
f 107 108 132 131
f 108 85 109 132
o SD0825_T007_7hao
v 77.557 108.791 0.000
v 141.821 108.939 0.000
v 141.775 130.148 0.000
v 77.504 129.990 0.000
v 77.557 108.791 9.900
v 141.821 108.939 9.900
v 141.775 130.148 9.900
v 77.504 129.990 9.900
usemtl roof
f 137 138 139 140
usemtl teaching_building
f 136 135 134 133
f 133 134 138 137
f 134 135 139 138
f 135 136 140 139
f 136 133 137 140
o SD0825_T008_8hao
v 149.383 82.616 0.000
v 153.061 82.644 0.000
v 153.099 78.984 0.000
v 156.807 79.012 0.000
v 156.861 71.165 0.000
v 153.198 71.137 0.000
v 153.351 50.707 0.000
v 217.226 51.188 0.000
v 217.081 70.766 0.000
v 162.050 70.358 0.000
v 161.973 79.133 0.000
v 168.925 79.188 0.000
v 168.795 96.227 0.000
v 161.775 96.172 0.000
v 161.668 110.051 0.000
v 217.882 110.477 0.000
v 217.722 129.722 0.000
v 154.274 129.230 0.000
v 154.419 109.699 0.000
v 157.342 109.718 0.000
v 157.456 95.468 0.000
v 153.389 95.440 0.000
v 153.419 91.752 0.000
v 149.314 91.724 0.000
v 149.383 82.616 9.900
v 153.061 82.644 9.900
v 153.099 78.984 9.900
v 156.807 79.012 9.900
v 156.861 71.165 9.900
v 153.198 71.137 9.900
v 153.351 50.707 9.900
v 217.226 51.188 9.900
v 217.081 70.766 9.900
v 162.050 70.358 9.900
v 161.973 79.133 9.900
v 168.925 79.188 9.900
v 168.795 96.227 9.900
v 161.775 96.172 9.900
v 161.668 110.051 9.900
v 217.882 110.477 9.900
v 217.722 129.722 9.900
v 154.274 129.230 9.900
v 154.419 109.699 9.900
v 157.342 109.718 9.900
v 157.456 95.468 9.900
v 153.389 95.440 9.900
v 153.419 91.752 9.900
v 149.314 91.724 9.900
usemtl roof
f 165 166 167 168 169 170 171 172 173 174 175 176 177 178 179 180 181 182 183 184 185 186 187 188
usemtl teaching_building
f 164 163 162 161 160 159 158 157 156 155 154 153 152 151 150 149 148 147 146 145 144 143 142 141
f 141 142 166 165
f 142 143 167 166
f 143 144 168 167
f 144 145 169 168
f 145 146 170 169
f 146 147 171 170
f 147 148 172 171
f 148 149 173 172
f 149 150 174 173
f 150 151 175 174
f 151 152 176 175
f 152 153 177 176
f 153 154 178 177
f 154 155 179 178
f 155 156 180 179
f 156 157 181 180
f 157 158 182 181
f 158 159 183 182
f 159 160 184 183
f 160 161 185 184
f 161 162 186 185
f 162 163 187 186
f 163 164 188 187
f 164 141 165 188
o SD0825_T009_9hao
v -167.771 -4.339 0.000
v -158.149 -4.339 0.000
v -155.563 -1.031 0.000
v -152.289 -1.087 0.000
v -152.449 -10.371 0.000
v -157.745 -10.287 0.000
v -157.806 -13.891 0.000
v -162.697 -13.799 0.000
v -162.949 -28.577 0.000
v -157.852 -28.670 0.000
v -157.936 -33.154 0.000
v -101.523 -34.108 0.000
v -102.264 -31.162 0.000
v -98.097 -31.236 0.000
v -97.983 -24.723 0.000
v -89.284 -24.880 0.000
v -88.872 -1.124 0.000
v -85.057 -1.189 0.000
v -84.988 2.768 0.000
v -65.813 2.453 0.000
v -65.980 -7.267 0.000
v 0.733 -8.128 0.000
v 0.855 2.036 0.000
v 19.023 1.841 0.000
v 18.985 -1.893 0.000
v 22.274 -1.930 0.000
v 22.053 -25.705 0.000
v 33.460 -25.807 0.000
v 33.430 -29.865 0.000
v 38.191 -29.893 0.000
v 38.168 -33.210 0.000
v 92.566 -33.543 0.000
v 92.597 -29.522 0.000
v 96.305 -29.541 0.000
v 96.397 -11.751 0.000
v 92.726 -11.742 0.000
v 92.734 -8.397 0.000
v 34.780 -8.128 0.000
v 34.773 -11.408 0.000
v 33.117 -11.399 0.000
v 33.384 27.784 0.000
v 35.528 27.766 0.000
v 35.498 24.069 0.000
v 94.306 23.522 0.000
v 94.344 27.497 0.000
v 96.992 27.478 0.000
v 97.183 46.722 0.000
v 92.398 46.769 0.000
v 92.688 77.196 0.000
v 89.392 77.233 0.000
v 89.430 80.930 0.000
v 73.360 81.069 0.000
v 73.337 77.067 0.000
v 69.591 77.094 0.000
v 69.385 48.288 0.000
v 37.329 48.520 0.000
v 37.314 45.286 0.000
v 33.178 45.305 0.000
v 33.147 41.979 0.000
v 20.153 42.062 0.000
v 19.977 17.574 0.000
v 16.643 17.592 0.000
v 16.620 13.182 0.000
v 1.336 13.293 0.000
v 1.435 25.875 0.000
v -23.883 26.061 0.000
v -9.690 26.348 0.000
v -9.637 31.036 0.000
v -5.532 30.971 0.000
v -1.381 98.145 0.000
v -4.723 98.201 0.000
v -4.692 102.324 0.000
v -18.938 102.398 0.000
v -18.931 106.762 0.000
v -46.111 106.762 0.000
v -46.103 102.769 0.000
v -61.852 102.695 0.000
v -60.715 98.340 0.000
v -64.615 98.312 0.000
v -59.159 29.795 0.000
v -53.970 29.461 0.000
v -53.932 25.885 0.000
v -41.288 25.143 0.000
v -67.926 25.153 0.000
v -67.926 13.775 0.000
v -83.630 13.793 0.000
v -83.630 17.481 0.000
v -87.674 17.490 0.000
v -87.575 41.858 0.000
v -98.242 41.905 0.000
v -98.219 46.722 0.000
v -102.622 46.750 0.000
v -102.599 49.011 0.000
v -158.676 49.539 0.000
v -158.745 43.313 0.000
v -162.560 43.350 0.000
v -162.720 28.275 0.000
v -157.524 28.220 0.000
v -157.577 23.791 0.000
v -152.831 23.735 0.000
v -152.938 15.091 0.000
v -156.677 15.137 0.000
v -158.897 18.454 0.000
v -168.145 18.454 0.000
v -174.074 12.200 0.000
v -174.074 1.545 0.000
v -167.771 -4.339 9.900
v -158.149 -4.339 9.900
v -155.563 -1.031 9.900
v -152.289 -1.087 9.900
v -152.449 -10.371 9.900
v -157.745 -10.287 9.900
v -157.806 -13.891 9.900
v -162.697 -13.799 9.900
v -162.949 -28.577 9.900
v -157.852 -28.670 9.900
v -157.936 -33.154 9.900
v -101.523 -34.108 9.900
v -102.264 -31.162 9.900
v -98.097 -31.236 9.900
v -97.983 -24.723 9.900
v -89.284 -24.880 9.900
v -88.872 -1.124 9.900
v -85.057 -1.189 9.900
v -84.988 2.768 9.900
v -65.813 2.453 9.900
v -65.980 -7.267 9.900
v 0.733 -8.128 9.900
v 0.855 2.036 9.900
v 19.023 1.841 9.900
v 18.985 -1.893 9.900
v 22.274 -1.930 9.900
v 22.053 -25.705 9.900
v 33.460 -25.807 9.900
v 33.430 -29.865 9.900
v 38.191 -29.893 9.900
v 38.168 -33.210 9.900
v 92.566 -33.543 9.900
v 92.597 -29.522 9.900
v 96.305 -29.541 9.900
v 96.397 -11.751 9.900
v 92.726 -11.742 9.900
v 92.734 -8.397 9.900
v 34.780 -8.128 9.900
v 34.773 -11.408 9.900
v 33.117 -11.399 9.900
v 33.384 27.784 9.900
v 35.528 27.766 9.900
v 35.498 24.069 9.900
v 94.306 23.522 9.900
v 94.344 27.497 9.900
v 96.992 27.478 9.900
v 97.183 46.722 9.900
v 92.398 46.769 9.900
v 92.688 77.196 9.900
v 89.392 77.233 9.900
v 89.430 80.930 9.900
v 73.360 81.069 9.900
v 73.337 77.067 9.900
v 69.591 77.094 9.900
v 69.385 48.288 9.900
v 37.329 48.520 9.900
v 37.314 45.286 9.900
v 33.178 45.305 9.900
v 33.147 41.979 9.900
v 20.153 42.062 9.900
v 19.977 17.574 9.900
v 16.643 17.592 9.900
v 16.620 13.182 9.900
v 1.336 13.293 9.900
v 1.435 25.875 9.900
v -23.883 26.061 9.900
v -9.690 26.348 9.900
v -9.637 31.036 9.900
v -5.532 30.971 9.900
v -1.381 98.145 9.900
v -4.723 98.201 9.900
v -4.692 102.324 9.900
v -18.938 102.398 9.900
v -18.931 106.762 9.900
v -46.111 106.762 9.900
v -46.103 102.769 9.900
v -61.852 102.695 9.900
v -60.715 98.340 9.900
v -64.615 98.312 9.900
v -59.159 29.795 9.900
v -53.970 29.461 9.900
v -53.932 25.885 9.900
v -41.288 25.143 9.900
v -67.926 25.153 9.900
v -67.926 13.775 9.900
v -83.630 13.793 9.900
v -83.630 17.481 9.900
v -87.674 17.490 9.900
v -87.575 41.858 9.900
v -98.242 41.905 9.900
v -98.219 46.722 9.900
v -102.622 46.750 9.900
v -102.599 49.011 9.900
v -158.676 49.539 9.900
v -158.745 43.313 9.900
v -162.560 43.350 9.900
v -162.720 28.275 9.900
v -157.524 28.220 9.900
v -157.577 23.791 9.900
v -152.831 23.735 9.900
v -152.938 15.091 9.900
v -156.677 15.137 9.900
v -158.897 18.454 9.900
v -168.145 18.454 9.900
v -174.074 12.200 9.900
v -174.074 1.545 9.900
usemtl roof
f 295 296 297 298 299 300 301 302 303 304 305 306 307 308 309 310 311 312 313 314 315 316 317 318 319 320 321 322 323 324 325 326 327 328 329 330 331 332 333 334 335 336 337 338 339 340 341 342 343 344 345 346 347 348 349 350 351 352 353 354 355 356 357 358 359 360 361 362 363 364 365 366 367 368 369 370 371 372 373 374 375 376 377 378 379 380 381 382 383 384 385 386 387 388 389 390 391 392 393 394 395 396 397 398 399 400
usemtl teaching_building
f 294 293 292 291 290 289 288 287 286 285 284 283 282 281 280 279 278 277 276 275 274 273 272 271 270 269 268 267 266 265 264 263 262 261 260 259 258 257 256 255 254 253 252 251 250 249 248 247 246 245 244 243 242 241 240 239 238 237 236 235 234 233 232 231 230 229 228 227 226 225 224 223 222 221 220 219 218 217 216 215 214 213 212 211 210 209 208 207 206 205 204 203 202 201 200 199 198 197 196 195 194 193 192 191 190 189
f 189 190 296 295
f 190 191 297 296
f 191 192 298 297
f 192 193 299 298
f 193 194 300 299
f 194 195 301 300
f 195 196 302 301
f 196 197 303 302
f 197 198 304 303
f 198 199 305 304
f 199 200 306 305
f 200 201 307 306
f 201 202 308 307
f 202 203 309 308
f 203 204 310 309
f 204 205 311 310
f 205 206 312 311
f 206 207 313 312
f 207 208 314 313
f 208 209 315 314
f 209 210 316 315
f 210 211 317 316
f 211 212 318 317
f 212 213 319 318
f 213 214 320 319
f 214 215 321 320
f 215 216 322 321
f 216 217 323 322
f 217 218 324 323
f 218 219 325 324
f 219 220 326 325
f 220 221 327 326
f 221 222 328 327
f 222 223 329 328
f 223 224 330 329
f 224 225 331 330
f 225 226 332 331
f 226 227 333 332
f 227 228 334 333
f 228 229 335 334
f 229 230 336 335
f 230 231 337 336
f 231 232 338 337
f 232 233 339 338
f 233 234 340 339
f 234 235 341 340
f 235 236 342 341
f 236 237 343 342
f 237 238 344 343
f 238 239 345 344
f 239 240 346 345
f 240 241 347 346
f 241 242 348 347
f 242 243 349 348
f 243 244 350 349
f 244 245 351 350
f 245 246 352 351
f 246 247 353 352
f 247 248 354 353
f 248 249 355 354
f 249 250 356 355
f 250 251 357 356
f 251 252 358 357
f 252 253 359 358
f 253 254 360 359
f 254 255 361 360
f 255 256 362 361
f 256 257 363 362
f 257 258 364 363
f 258 259 365 364
f 259 260 366 365
f 260 261 367 366
f 261 262 368 367
f 262 263 369 368
f 263 264 370 369
f 264 265 371 370
f 265 266 372 371
f 266 267 373 372
f 267 268 374 373
f 268 269 375 374
f 269 270 376 375
f 270 271 377 376
f 271 272 378 377
f 272 273 379 378
f 273 274 380 379
f 274 275 381 380
f 275 276 382 381
f 276 277 383 382
f 277 278 384 383
f 278 279 385 384
f 279 280 386 385
f 280 281 387 386
f 281 282 388 387
f 282 283 389 388
f 283 284 390 389
f 284 285 391 390
f 285 286 392 391
f 286 287 393 392
f 287 288 394 393
f 288 289 395 394
f 289 290 396 395
f 290 291 397 396
f 291 292 398 397
f 292 293 399 398
f 293 294 400 399
f 294 189 295 400
o SD0825_T010_10hao
v 23.472 -121.675 0.000
v 23.403 -148.925 0.000
v 33.018 -148.943 0.000
v 33.002 -154.095 0.000
v 93.810 -154.206 0.000
v 93.818 -149.434 0.000
v 98.259 -149.434 0.000
v 98.289 -132.275 0.000
v 87.553 -132.266 0.000
v 87.568 -119.368 0.000
v 90.559 -119.368 0.000
v 93.520 -122.667 0.000
v 102.402 -123.408 0.000
v 109.804 -116.793 0.000
v 109.430 -106.499 0.000
v 102.402 -101.356 0.000
v 91.666 -101.727 0.000
v 89.071 -105.025 0.000
v 85.760 -105.016 0.000
v 85.806 -95.176 0.000
v 92.513 -95.213 0.000
v 92.543 -89.728 0.000
v 97.747 -89.765 0.000
v 97.831 -72.819 0.000
v 32.262 -72.495 0.000
v 32.224 -81.288 0.000
v 22.190 -81.241 0.000
v 22.083 -105.396 0.000
v 18.718 -105.387 0.000
v 18.665 -121.657 0.000
v 23.472 -121.675 9.900
v 23.403 -148.925 9.900
v 33.018 -148.943 9.900
v 33.002 -154.095 9.900
v 93.810 -154.206 9.900
v 93.818 -149.434 9.900
v 98.259 -149.434 9.900
v 98.289 -132.275 9.900
v 87.553 -132.266 9.900
v 87.568 -119.368 9.900
v 90.559 -119.368 9.900
v 93.520 -122.667 9.900
v 102.402 -123.408 9.900
v 109.804 -116.793 9.900
v 109.430 -106.499 9.900
v 102.402 -101.356 9.900
v 91.666 -101.727 9.900
v 89.071 -105.025 9.900
v 85.760 -105.016 9.900
v 85.806 -95.176 9.900
v 92.513 -95.213 9.900
v 92.543 -89.728 9.900
v 97.747 -89.765 9.900
v 97.831 -72.819 9.900
v 32.262 -72.495 9.900
v 32.224 -81.288 9.900
v 22.190 -81.241 9.900
v 22.083 -105.396 9.900
v 18.718 -105.387 9.900
v 18.665 -121.657 9.900
usemtl roof
f 431 432 433 434 435 436 437 438 439 440 441 442 443 444 445 446 447 448 449 450 451 452 453 454 455 456 457 458 459 460
usemtl teaching_building
f 430 429 428 427 426 425 424 423 422 421 420 419 418 417 416 415 414 413 412 411 410 409 408 407 406 405 404 403 402 401
f 401 402 432 431
f 402 403 433 432
f 403 404 434 433
f 404 405 435 434
f 405 406 436 435
f 406 407 437 436
f 407 408 438 437
f 408 409 439 438
f 409 410 440 439
f 410 411 441 440
f 411 412 442 441
f 412 413 443 442
f 413 414 444 443
f 414 415 445 444
f 415 416 446 445
f 416 417 447 446
f 417 418 448 447
f 418 419 449 448
f 419 420 450 449
f 420 421 451 450
f 421 422 452 451
f 422 423 453 452
f 423 424 454 453
f 424 425 455 454
f 425 426 456 455
f 426 427 457 456
f 427 428 458 457
f 428 429 459 458
f 429 430 460 459
f 430 401 431 460
o SD0825_T011_11hao
v -167.413 -124.140 0.000
v -157.791 -124.140 0.000
v -155.189 -120.471 0.000
v -151.473 -120.452 0.000
v -151.396 -133.053 0.000
v -158.035 -133.100 0.000
v -157.898 -155.874 0.000
v -98.044 -155.522 0.000
v -98.074 -150.352 0.000
v -87.392 -150.296 0.000
v -87.529 -124.084 0.000
v -80.517 -124.038 0.000
v -80.623 -102.274 0.000
v -87.682 -102.311 0.000
v -87.773 -80.713 0.000
v -97.433 -80.750 0.000
v -97.464 -71.957 0.000
v -158.668 -72.180 0.000
v -158.661 -75.506 0.000
v -162.712 -75.515 0.000
v -162.667 -91.146 0.000
v -157.852 -91.127 0.000
v -157.829 -96.251 0.000
v -152.640 -96.242 0.000
v -152.617 -104.284 0.000
v -156.677 -104.303 0.000
v -159.263 -102.468 0.000
v -166.665 -102.088 0.000
v -173.326 -107.972 0.000
v -174.074 -118.256 0.000
v -167.413 -124.140 9.900
v -157.791 -124.140 9.900
v -155.189 -120.471 9.900
v -151.473 -120.452 9.900
v -151.396 -133.053 9.900
v -158.035 -133.100 9.900
v -157.898 -155.874 9.900
v -98.044 -155.522 9.900
v -98.074 -150.352 9.900
v -87.392 -150.296 9.900
v -87.529 -124.084 9.900
v -80.517 -124.038 9.900
v -80.623 -102.274 9.900
v -87.682 -102.311 9.900
v -87.773 -80.713 9.900
v -97.433 -80.750 9.900
v -97.464 -71.957 9.900
v -158.668 -72.180 9.900
v -158.661 -75.506 9.900
v -162.712 -75.515 9.900
v -162.667 -91.146 9.900
v -157.852 -91.127 9.900
v -157.829 -96.251 9.900
v -152.640 -96.242 9.900
v -152.617 -104.284 9.900
v -156.677 -104.303 9.900
v -159.263 -102.468 9.900
v -166.665 -102.088 9.900
v -173.326 -107.972 9.900
v -174.074 -118.256 9.900
usemtl roof
f 491 492 493 494 495 496 497 498 499 500 501 502 503 504 505 506 507 508 509 510 511 512 513 514 515 516 517 518 519 520
usemtl teaching_building
f 490 489 488 487 486 485 484 483 482 481 480 479 478 477 476 475 474 473 472 471 470 469 468 467 466 465 464 463 462 461
f 461 462 492 491
f 462 463 493 492
f 463 464 494 493
f 464 465 495 494
f 465 466 496 495
f 466 467 497 496
f 467 468 498 497
f 468 469 499 498
f 469 470 500 499
f 470 471 501 500
f 471 472 502 501
f 472 473 503 502
f 473 474 504 503
f 474 475 505 504
f 475 476 506 505
f 476 477 507 506
f 477 478 508 507
f 478 479 509 508
f 479 480 510 509
f 480 481 511 510
f 481 482 512 511
f 482 483 513 512
f 483 484 514 513
f 484 485 515 514
f 485 486 516 515
f 486 487 517 516
f 487 488 518 517
f 488 489 519 518
f 489 490 520 519
f 490 461 491 520
o SD0825_T012_12hao
v -332.896 -150.759 0.000
v -249.952 -150.407 0.000
v -250.219 -90.247 0.000
v -333.155 -90.599 0.000
v -332.896 -150.759 9.900
v -249.952 -150.407 9.900
v -250.219 -90.247 9.900
v -333.155 -90.599 9.900
usemtl roof
f 525 526 527 528
usemtl teaching_building
f 524 523 522 521
f 521 522 526 525
f 522 523 527 526
f 523 524 528 527
f 524 521 525 528
o SD0825_T013_13hao
v 172.038 -116.737 0.000
v 171.931 -135.861 0.000
v 165.987 -135.824 0.000
v 165.934 -145.941 0.000
v 169.230 -145.960 0.000
v 169.192 -152.631 0.000
v 164.804 -152.594 0.000
v 164.774 -158.264 0.000
v 161.851 -158.246 0.000
v 161.783 -167.344 0.000
v 165.453 -167.372 0.000
v 165.407 -172.931 0.000
v 168.711 -172.968 0.000
v 168.650 -181.113 0.000
v 165.315 -181.845 0.000
v 165.346 -189.535 0.000
v 172.763 -189.516 0.000
v 172.778 -195.140 0.000
v 164.293 -195.159 0.000
v 164.339 -207.065 0.000
v 221.995 -206.889 0.000
v 221.941 -189.563 0.000
v 218.981 -186.255 0.000
v 213.792 -186.255 0.000
v 213.792 -179.630 0.000
v 178.646 -179.667 0.000
v 178.646 -172.681 0.000
v 181.599 -172.672 0.000
v 181.599 -170.078 0.000
v 185.674 -167.502 0.000
v 185.727 -156.383 0.000
v 181.278 -156.365 0.000
v 181.294 -153.103 0.000
v 177.623 -153.085 0.000
v 177.662 -145.200 0.000
v 221.514 -145.395 0.000
v 221.751 -96.399 0.000
v 192.747 -96.260 0.000
v 192.671 -111.252 0.000
v 176.128 -111.178 0.000
v 176.197 -97.530 0.000
v 130.146 -97.298 0.000
v 130.047 -116.524 0.000
v 172.038 -116.737 9.900
v 171.931 -135.861 9.900
v 165.987 -135.824 9.900
v 165.934 -145.941 9.900
v 169.230 -145.960 9.900
v 169.192 -152.631 9.900
v 164.804 -152.594 9.900
v 164.774 -158.264 9.900
v 161.851 -158.246 9.900
v 161.783 -167.344 9.900
v 165.453 -167.372 9.900
v 165.407 -172.931 9.900
v 168.711 -172.968 9.900
v 168.650 -181.113 9.900
v 165.315 -181.845 9.900
v 165.346 -189.535 9.900
v 172.763 -189.516 9.900
v 172.778 -195.140 9.900
v 164.293 -195.159 9.900
v 164.339 -207.065 9.900
v 221.995 -206.889 9.900
v 221.941 -189.563 9.900
v 218.981 -186.255 9.900
v 213.792 -186.255 9.900
v 213.792 -179.630 9.900
v 178.646 -179.667 9.900
v 178.646 -172.681 9.900
v 181.599 -172.672 9.900
v 181.599 -170.078 9.900
v 185.674 -167.502 9.900
v 185.727 -156.383 9.900
v 181.278 -156.365 9.900
v 181.294 -153.103 9.900
v 177.623 -153.085 9.900
v 177.662 -145.200 9.900
v 221.514 -145.395 9.900
v 221.751 -96.399 9.900
v 192.747 -96.260 9.900
v 192.671 -111.252 9.900
v 176.128 -111.178 9.900
v 176.197 -97.530 9.900
v 130.146 -97.298 9.900
v 130.047 -116.524 9.900
usemtl roof
f 572 573 574 575 576 577 578 579 580 581 582 583 584 585 586 587 588 589 590 591 592 593 594 595 596 597 598 599 600 601 602 603 604 605 606 607 608 609 610 611 612 613 614
usemtl teaching_building
f 571 570 569 568 567 566 565 564 563 562 561 560 559 558 557 556 555 554 553 552 551 550 549 548 547 546 545 544 543 542 541 540 539 538 537 536 535 534 533 532 531 530 529
f 529 530 573 572
f 530 531 574 573
f 531 532 575 574
f 532 533 576 575
f 533 534 577 576
f 534 535 578 577
f 535 536 579 578
f 536 537 580 579
f 537 538 581 580
f 538 539 582 581
f 539 540 583 582
f 540 541 584 583
f 541 542 585 584
f 542 543 586 585
f 543 544 587 586
f 544 545 588 587
f 545 546 589 588
f 546 547 590 589
f 547 548 591 590
f 548 549 592 591
f 549 550 593 592
f 550 551 594 593
f 551 552 595 594
f 552 553 596 595
f 553 554 597 596
f 554 555 598 597
f 555 556 599 598
f 556 557 600 599
f 557 558 601 600
f 558 559 602 601
f 559 560 603 602
f 560 561 604 603
f 561 562 605 604
f 562 563 606 605
f 563 564 607 606
f 564 565 608 607
f 565 566 609 608
f 566 567 610 609
f 567 568 611 610
f 568 569 612 611
f 569 570 613 612
f 570 571 614 613
f 571 529 572 614
