# school_id SD0887
# school_name 杏花小学
# boundary_source footprint_convex_hull_buffer_20m
# adjacent_block_merge_distance_m 2.0
mtllib ../campus_materials.mtl
o SD0887_campus_boundary
usemtl campus_boundary
v 83.260 -33.000 0.050
v 22.578 -32.945 0.050
v -74.401 -32.723 0.050
v -74.374 22.524 0.050
v 21.994 27.636 0.050
v 52.584 27.994 0.050
v 83.327 27.968 0.050
v 83.260 -33.000 0.050
l 1 2 3 4 5 6 7 8 1
o SD0887_T001_1hao
v 63.282 -12.982 0.000
v 63.305 7.985 0.000
v 52.693 7.994 0.000
v 52.693 4.409 0.000
v 32.856 4.427 0.000
v 32.856 7.633 0.000
v 22.641 7.642 0.000
v 22.610 -12.945 0.000
v 63.282 -12.982 6.600
v 63.305 7.985 6.600
v 52.693 7.994 6.600
v 52.693 4.409 6.600
v 32.856 4.427 6.600
v 32.856 7.633 6.600
v 22.641 7.642 6.600
v 22.610 -12.945 6.600
usemtl roof
f 17 18 19 20 21 22 23 24
usemtl teaching_building
f 16 15 14 13 12 11 10 9
f 9 10 18 17
f 10 11 19 18
f 11 12 20 19
f 12 13 21 20
f 13 14 22 21
f 14 15 23 22
f 15 16 24 23
f 16 9 17 24
o SD0887_T002_2hao
v 5.241 -12.806 0.000
v 5.257 3.584 0.000
v -3.831 3.603 0.000
v -3.847 -2.253 0.000
v -20.667 -2.235 0.000
v -20.667 3.528 0.000
v -27.690 3.528 0.000
v -27.690 -0.307 0.000
v -29.839 -0.307 0.000
v -29.839 -2.429 0.000
v -40.298 -2.411 0.000
v -40.290 3.556 0.000
v -54.383 3.556 0.000
v -54.391 -12.769 0.000
v 5.241 -12.806 6.600
v 5.257 3.584 6.600
v -3.831 3.603 6.600
v -3.847 -2.253 6.600
v -20.667 -2.235 6.600
v -20.667 3.528 6.600
v -27.690 3.528 6.600
v -27.690 -0.307 6.600
v -29.839 -0.307 6.600
v -29.839 -2.429 6.600
v -40.298 -2.411 6.600
v -40.290 3.556 6.600
v -54.383 3.556 6.600
v -54.391 -12.769 6.600
usemtl roof
f 39 40 41 42 43 44 45 46 47 48 49 50 51 52
usemtl teaching_building
f 38 37 36 35 34 33 32 31 30 29 28 27 26 25
f 25 26 40 39
f 26 27 41 40
f 27 28 42 41
f 28 29 43 42
f 29 30 44 43
f 30 31 45 44
f 31 32 46 45
f 32 33 47 46
f 33 34 48 47
f 34 35 49 48
f 35 36 50 49
f 36 37 51 50
f 37 38 52 51
f 38 25 39 52
