# school_id SD0885
# school_name 李公河小学
# boundary_source footprint_convex_hull_buffer_20m
# adjacent_block_merge_distance_m 2.0
mtllib ../campus_materials.mtl
o SD0885_campus_boundary
usemtl campus_boundary
v -91.277 -172.948 0.050
v -91.804 -120.004 0.050
v -76.417 60.676 0.050
v -51.602 69.992 0.050
v -13.960 71.759 0.050
v 10.023 72.077 0.050
v 29.005 66.799 0.050
v 110.833 17.945 0.050
v 110.980 -18.310 0.050
v -10.085 -172.166 0.050
v -91.277 -172.948 0.050
l 1 2 3 4 5 6 7 8 9 10 11 1
o SD0885_T001_1hao
v -47.465 46.525 0.000
v -57.561 46.392 0.000
v -57.406 34.178 0.000
v 8.620 35.051 0.000
v 9.012 5.415 0.000
v 21.634 5.581 0.000
v 21.059 48.250 0.000
v 7.471 48.073 0.000
v 7.425 52.041 0.000
v -13.358 51.765 0.000
v -13.294 47.476 0.000
v -27.585 47.288 0.000
v -27.630 50.427 0.000
v -47.520 50.162 0.000
v -47.465 46.525 11.400
v -57.561 46.392 11.400
v -57.406 34.178 11.400
v 8.620 35.051 11.400
v 9.012 5.415 11.400
v 21.634 5.581 11.400
v 21.059 48.250 11.400
v 7.471 48.073 11.400
v 7.425 52.041 11.400
v -13.358 51.765 11.400
v -13.294 47.476 11.400
v -27.585 47.288 11.400
v -27.630 50.427 11.400
v -47.520 50.162 11.400
usemtl roof
f 26 27 28 29 30 31 32 33 34 35 36 37 38 39
usemtl teaching_building
f 25 24 23 22 21 20 19 18 17 16 15 14 13 12
f 12 13 27 26
f 13 14 28 27
f 14 15 29 28
f 15 16 30 29
f 16 17 31 30
f 17 18 32 31
f 18 19 33 32
f 19 20 34 33
f 20 21 35 34
f 21 22 36 35
f 22 23 37 36
f 23 24 38 37
f 24 25 39 38
f 25 12 26 39
o SD0885_T002_2hao
v 26.485 4.343 0.000
v 35.058 4.376 0.000
v 35.076 -1.283 0.000
v 47.269 -1.239 0.000
v 47.241 5.327 0.000
v 53.890 5.349 0.000
v 53.908 -0.145 0.000
v 79.716 -0.056 0.000
v 79.698 6.521 0.000
v 90.879 6.565 0.000
v 90.952 -11.420 0.000
v 26.549 -11.663 0.000
v 26.485 4.343 12.660
v 35.058 4.376 12.660
v 35.076 -1.283 12.660
v 47.269 -1.239 12.660
v 47.241 5.327 12.660
v 53.890 5.349 12.660
v 53.908 -0.145 12.660
v 79.716 -0.056 12.660
v 79.698 6.521 12.660
v 90.879 6.565 12.660
v 90.952 -11.420 12.660
v 26.549 -11.663 12.660
usemtl roof
f 52 53 54 55 56 57 58 59 60 61 62 63
usemtl teaching_building
f 51 50 49 48 47 46 45 44 43 42 41 40
f 40 41 53 52
f 41 42 54 53
f 42 43 55 54
f 43 44 56 55
f 44 45 57 56
f 45 46 58 57
f 46 47 59 58
f 47 48 60 59
f 48 49 61 60
f 49 50 62 61
f 50 51 63 62
f 51 40 52 63
o SD0885_T003_3hao
v 14.283 -2.942 0.000
v 14.201 1.171 0.000
v 6.103 1.016 0.000
v 6.149 -1.505 0.000
v -14.526 -1.902 0.000
v -14.626 3.713 0.000
v -22.532 3.558 0.000
v -22.414 -2.455 0.000
v -37.334 -2.732 0.000
v -37.416 1.613 0.000
v -47.019 1.436 0.000
v -46.955 -2.013 0.000
v -50.922 -2.079 0.000
v -50.730 -12.282 0.000
v 18.551 -11.011 0.000
v 18.396 -2.864 0.000
v 14.283 -2.942 14.460
v 14.201 1.171 14.460
v 6.103 1.016 14.460
v 6.149 -1.505 14.460
v -14.526 -1.902 14.460
v -14.626 3.713 14.460
v -22.532 3.558 14.460
v -22.414 -2.455 14.460
v -37.334 -2.732 14.460
v -37.416 1.613 14.460
v -47.019 1.436 14.460
v -46.955 -2.013 14.460
v -50.922 -2.079 14.460
v -50.730 -12.282 14.460
v 18.551 -11.011 14.460
v 18.396 -2.864 14.460
usemtl roof
f 80 81 82 83 84 85 86 87 88 89 90 91 92 93 94 95
usemtl teaching_building
f 79 78 77 76 75 74 73 72 71 70 69 68 67 66 65 64
f 64 65 81 80
f 65 66 82 81
f 66 67 83 82
f 67 68 84 83
f 68 69 85 84
f 69 70 86 85
f 70 71 87 86
f 71 72 88 87
f 72 73 89 88
f 73 74 90 89
f 74 75 91 90
f 75 76 92 91
f 76 77 93 92
f 77 78 94 93
f 78 79 95 94
f 79 64 80 95
o SD0885_T004_4hao
v -71.477 -152.756 0.000
v -19.870 -152.259 0.000
v -20.189 -120.247 0.000
v -71.796 -120.755 0.000
v -71.477 -152.756 10.750
v -19.870 -152.259 10.750
v -20.189 -120.247 10.750
v -71.796 -120.755 10.750
usemtl roof
f 100 101 102 103
usemtl teaching_building
f 99 98 97 96
f 96 97 101 100
f 97 98 102 101
f 98 99 103 102
f 99 96 100 103
