# school_id SD0834
# school_name 临沂第三十二中学
# boundary_source footprint_convex_hull_buffer_20m
# adjacent_block_merge_distance_m 2.0
mtllib ../campus_materials.mtl
o SD0834_campus_boundary
usemtl campus_boundary
v 78.211 -80.001 0.050
v 12.001 -79.923 0.050
v -82.840 -79.787 0.050
v -95.720 52.357 0.050
v -95.837 117.133 0.050
v 1.312 126.062 0.050
v 69.354 126.231 0.050
v 79.648 1.777 0.050
v 79.648 -15.731 0.050
v 78.211 -80.001 0.050
l 1 2 3 4 5 6 7 8 9 10 1
o SD0834_T001_1hao
v 2.391 52.408 0.000
v 51.081 52.529 0.000
v 50.944 106.185 0.000
v 2.254 106.064 0.000
v 2.391 52.408 8.990
v 51.081 52.529 8.990
v 50.944 106.185 8.990
v 2.254 106.064 8.990
usemtl roof
f 15 16 17 18
usemtl teaching_building
f 14 13 12 11
f 11 12 16 15
f 12 13 17 16
f 13 14 18 17
f 14 11 15 18
o SD0834_T002_2hao
v -75.722 53.347 0.000
v -6.842 53.469 0.000
v -6.924 99.011 0.000
v -75.804 98.890 0.000
v -75.722 53.347 16.540
v -6.842 53.469 16.540
v -6.924 99.011 16.540
v -75.804 98.890 16.540
usemtl roof
f 23 24 25 26
usemtl teaching_building
f 22 21 20 19
f 19 20 24 23
f 20 21 25 24
f 21 22 26 25
f 22 19 23 26
o SD0834_T003_3hao
v 39.203 33.384 0.000
v -41.665 33.439 0.000
v -41.674 21.246 0.000
v 39.203 21.191 0.000
v 39.203 33.384 8.710
v -41.665 33.439 8.710
v -41.674 21.246 8.710
v 39.203 21.191 8.710
usemtl roof
f 31 32 33 34
usemtl teaching_building
f 30 29 28 27
f 27 28 32 31
f 28 29 33 32
f 29 30 34 33
f 30 27 31 34
o SD0834_T004_4hao
v -11.513 -3.404 0.000
v -14.378 -3.382 0.000
v -14.341 0.211 0.000
v -28.692 0.343 0.000
v -28.719 -3.338 0.000
v -53.069 -3.106 0.000
v -53.033 0.940 0.000
v -63.369 1.040 0.000
v -63.515 -14.381 0.000
v -11.586 -14.834 0.000
v -11.513 -3.404 11.830
v -14.378 -3.382 11.830
v -14.341 0.211 11.830
v -28.692 0.343 11.830
v -28.719 -3.338 11.830
v -53.069 -3.106 11.830
v -53.033 0.940 11.830
v -63.369 1.040 11.830
v -63.515 -14.381 11.830
v -11.586 -14.834 11.830
usemtl roof
f 45 46 47 48 49 50 51 52 53 54
usemtl teaching_building
f 44 43 42 41 40 39 38 37 36 35
f 35 36 46 45
f 36 37 47 46
f 37 38 48 47
f 38 39 49 48
f 39 40 50 49
f 40 41 51 50
f 41 42 52 51
f 42 43 53 52
f 43 44 54 53
f 44 35 45 54
o SD0834_T005_5hao
v 12.299 -15.497 0.000
v 59.648 -15.508 0.000
v 59.648 0.951 0.000
v 49.540 0.951 0.000
v 49.540 -3.404 0.000
v 12.299 -3.393 0.000
v 12.299 -15.497 12.430
v 59.648 -15.508 12.430
v 59.648 0.951 12.430
v 49.540 0.951 12.430
v 49.540 -3.404 12.430
v 12.299 -3.393 12.430
usemtl roof
f 61 62 63 64 65 66
usemtl teaching_building
f 60 59 58 57 56 55
f 55 56 62 61
f 56 57 63 62
f 57 58 64 63
f 58 59 65 64
f 59 60 66 65
f 60 55 61 66
o SD0834_T006_6hao
v -64.656 -38.799 0.000
v -64.692 -59.813 0.000
v -9.752 -59.890 0.000
v -9.725 -38.865 0.000
v -64.656 -38.799 10.780
v -64.692 -59.813 10.780
v -9.752 -59.890 10.780
v -9.725 -38.865 10.780
usemtl roof
f 71 72 73 74
usemtl teaching_building
f 70 69 68 67
f 67 68 72 71
f 68 69 73 72
f 69 70 74 73
f 70 67 71 74
o SD0834_T007_7hao
v 58.654 -59.978 0.000
v 58.663 -38.932 0.000
v 12.061 -38.898 0.000
v 12.025 -59.923 0.000
v 58.654 -59.978 10.780
v 58.663 -38.932 10.780
v 12.061 -38.898 10.780
v 12.025 -59.923 10.780
usemtl roof
f 79 80 81 82
usemtl teaching_building
f 78 77 76 75
f 75 76 80 79
f 76 77 81 80
f 77 78 82 81
f 78 75 79 82
