# school_id SD0873
# school_name 山东省临沂第一中学
# boundary_source footprint_convex_hull_buffer_20m
# adjacent_block_merge_distance_m 2.0
mtllib ../campus_materials.mtl
o SD0873_campus_boundary
usemtl campus_boundary
v 101.317 -109.938 0.050
v -130.039 -79.703 0.050
v -168.572 -72.902 0.050
v -156.518 -5.527 0.050
v -130.794 23.856 0.050
v -3.310 159.173 0.050
v 86.199 142.984 0.050
v 147.390 109.709 0.050
v 144.554 63.172 0.050
v 101.317 -109.938 0.050
l 1 2 3 4 5 6 7 8 9 10 1
o SD0873_T001_1hao
v 3.807 137.561 0.000
v 79.472 123.876 0.000
v 75.627 102.906 0.000
v -0.038 116.580 0.000
v 3.807 137.561 32.200
v 79.472 123.876 32.200
v 75.627 102.906 32.200
v -0.038 116.580 32.200
usemtl roof
f 15 16 17 18
usemtl teaching_building
f 14 13 12 11
f 11 12 16 15
f 12 13 17 16
f 13 14 18 17
f 14 11 15 18
o SD0873_T002_2hao
v 70.651 79.837 0.000
v 114.434 77.880 0.000
v 115.536 98.794 0.000
v 126.653 98.220 0.000
v 124.703 66.229 0.000
v 69.959 68.175 0.000
v 70.651 79.837 14.380
v 114.434 77.880 14.380
v 115.536 98.794 14.380
v 126.653 98.220 14.380
v 124.703 66.229 14.380
v 69.959 68.175 14.380
usemtl roof
f 25 26 27 28 29 30
usemtl teaching_building
f 24 23 22 21 20 19
f 19 20 26 25
f 20 21 27 26
f 21 22 28 27
f 22 23 29 28
f 23 24 30 29
f 24 19 25 30
o SD0873_T003_3hao
v -129.855 -15.924 0.000
v -127.449 -2.880 0.000
v -115.986 10.407 0.000
v -0.740 -9.446 0.000
v -4.576 -31.400 0.000
v -14.344 -29.719 0.000
v -15.237 -34.848 0.000
v -7.191 -36.230 0.000
v -13.332 -71.592 0.000
v -35.875 -67.734 0.000
v -30.125 -34.572 0.000
v -21.870 -35.987 0.000
v -20.358 -27.265 0.000
v -126.037 -8.993 0.000
v -127.212 -15.581 0.000
v -119.312 -16.974 0.000
v -127.003 -59.930 0.000
v -145.354 -56.691 0.000
v -137.809 -14.520 0.000
v -129.855 -15.924 21.270
v -127.449 -2.880 21.270
v -115.986 10.407 21.270
v -0.740 -9.446 21.270
v -4.576 -31.400 21.270
v -14.344 -29.719 21.270
v -15.237 -34.848 21.270
v -7.191 -36.230 21.270
v -13.332 -71.592 21.270
v -35.875 -67.734 21.270
v -30.125 -34.572 21.270
v -21.870 -35.987 21.270
v -20.358 -27.265 21.270
v -126.037 -8.993 21.270
v -127.212 -15.581 21.270
v -119.312 -16.974 21.270
v -127.003 -59.930 21.270
v -145.354 -56.691 21.270
v -137.809 -14.520 21.270
usemtl roof
f 50 51 52 53 54 55 56 57 58 59 60 61 62 63 64 65 66 67 68
usemtl teaching_building
f 49 48 47 46 45 44 43 42 41 40 39 38 37 36 35 34 33 32 31
f 31 32 51 50
f 32 33 52 51
f 33 34 53 52
f 34 35 54 53
f 35 36 55 54
f 36 37 56 55
f 37 38 57 56
f 38 39 58 57
f 39 40 59 58
f 40 41 60 59
f 41 42 61 60
f 42 43 62 61
f 43 44 63 62
f 44 45 64 63
f 45 46 65 64
f 46 47 66 65
f 47 48 67 66
f 48 49 68 67
f 49 31 50 68
o SD0873_T004_4hao
v 97.167 -25.309 0.000
v 86.233 -87.797 0.000
v 67.326 -84.536 0.000
v 70.989 -63.578 0.000
v 77.094 -64.639 0.000
v 81.431 -39.856 0.000
v 27.844 -30.604 0.000
v 30.778 -13.857 0.000
v 97.167 -25.309 13.380
v 86.233 -87.797 13.380
v 67.326 -84.536 13.380
v 70.989 -63.578 13.380
v 77.094 -64.639 13.380
v 81.431 -39.856 13.380
v 27.844 -30.604 13.380
v 30.778 -13.857 13.380
usemtl roof
f 77 78 79 80 81 82 83 84
usemtl teaching_building
f 76 75 74 73 72 71 70 69
f 69 70 78 77
f 70 71 79 78
f 71 72 80 79
f 72 73 81 80
f 73 74 82 81
f 74 75 83 82
f 75 76 84 83
f 76 69 77 84
