# school_id SD0822
# school_name 临沂朴园小学温凉河路校区
# boundary_source footprint_convex_hull_buffer_20m
# adjacent_block_merge_distance_m 2.0
mtllib ../campus_materials.mtl
o SD0822_campus_boundary
usemtl campus_boundary
v -82.841 -48.927 0.050
v -83.979 5.317 0.050
v -84.818 45.416 0.050
v 82.841 48.927 0.050
v 83.979 -5.317 0.050
v 84.818 -45.416 0.050
v -42.743 -48.088 0.050
v -82.841 -48.927 0.050
l 1 2 3 4 5 6 7 8 1
o SD0822_T001_1hao
v 63.983 -5.736 0.000
v 64.404 -25.839 0.000
v -43.162 -28.092 0.000
v -43.162 -28.092 0.000
v -63.265 -28.513 0.000
v -63.983 5.736 0.000
v -63.983 5.736 0.000
v -64.404 25.839 0.000
v 63.265 28.513 0.000
v 63.686 8.411 0.000
v -43.880 6.157 0.000
v -43.583 -7.990 0.000
v 63.983 -5.736 18.330
v 64.404 -25.839 18.330
v -43.162 -28.092 18.330
v -43.162 -28.092 18.330
v -63.265 -28.513 18.330
v -63.983 5.736 18.330
v -63.983 5.736 18.330
v -64.404 25.839 18.330
v 63.265 28.513 18.330
v 63.686 8.411 18.330
v -43.880 6.157 18.330
v -43.583 -7.990 18.330
usemtl roof
f 21 22 23 24 25 26 27 28 29 30 31 32
usemtl teaching_building
f 20 19 18 17 16 15 14 13 12 11 10 9
f 9 10 22 21
f 10 11 23 22
f 11 12 24 23
f 12 13 25 24
f 13 14 26 25
f 14 15 27 26
f 15 16 28 27
f 16 17 29 28
f 17 18 30 29
f 18 19 31 30
f 19 20 32 31
f 20 9 21 32
