# school_id SD0803
# school_name 日照师范学校
# boundary_source footprint_convex_hull_buffer_20m
# adjacent_block_merge_distance_m 2.0
mtllib ../campus_materials.mtl
o SD0803_campus_boundary
usemtl campus_boundary
v 26.162 -128.250 0.050
v -94.563 -67.437 0.050
v -137.064 28.624 0.050
v -137.561 57.271 0.050
v -100.677 65.633 0.050
v 6.290 74.975 0.050
v 56.530 74.004 0.050
v 104.342 59.304 0.050
v 107.369 2.774 0.050
v 107.801 -30.586 0.050
v 108.190 -127.934 0.050
v 26.162 -128.250 0.050
l 1 2 3 4 5 6 7 8 9 10 11 12 1
o SD0803_T001_1hao
v 53.336 54.062 0.000
v 52.918 32.728 0.000
v 6.552 33.613 0.000
v 6.969 54.958 0.000
v 53.336 54.062 31.890
v 52.918 32.728 31.890
v 6.552 33.613 31.890
v 6.969 54.958 31.890
usemtl roof
f 17 18 19 20
usemtl teaching_building
f 16 15 14 13
f 13 14 18 17
f 14 15 19 18
f 15 16 20 19
f 16 13 17 20
o SD0803_T002_2hao
v -20.958 48.337 0.000
v -20.568 34.806 0.000
v -55.415 33.823 0.000
v -55.805 47.353 0.000
v -20.958 48.337 22.000
v -20.568 34.806 22.000
v -55.415 33.823 22.000
v -55.805 47.353 22.000
usemtl roof
f 25 26 27 28
usemtl teaching_building
f 24 23 22 21
f 21 22 26 25
f 22 23 27 26
f 23 24 28 27
f 24 21 25 28
o SD0803_T003_3hao
v -97.509 41.715 0.000
v -97.582 45.827 0.000
v -70.607 46.303 0.000
v -70.544 42.854 0.000
v -58.834 43.064 0.000
v -58.671 34.044 0.000
v -117.137 33.016 0.000
v -117.282 41.361 0.000
v -97.509 41.715 15.300
v -97.582 45.827 15.300
v -70.607 46.303 15.300
v -70.544 42.854 15.300
v -58.834 43.064 15.300
v -58.671 34.044 15.300
v -117.137 33.016 15.300
v -117.282 41.361 15.300
usemtl roof
f 37 38 39 40 41 42 43 44
usemtl teaching_building
f 36 35 34 33 32 31 30 29
f 29 30 38 37
f 30 31 39 38
f 31 32 40 39
f 32 33 41 40
f 33 34 42 41
f 34 35 43 42
f 35 36 44 43
f 36 29 37 44
o SD0803_T004_4hao
v 60.011 0.661 0.000
v 87.376 2.109 0.000
v 85.117 44.291 0.000
v 57.744 42.843 0.000
v 60.011 0.661 16.070
v 87.376 2.109 16.070
v 85.117 44.291 16.070
v 57.744 42.843 16.070
usemtl roof
f 49 50 51 52
usemtl teaching_building
f 48 47 46 45
f 45 46 50 49
f 46 47 51 50
f 47 48 52 51
f 48 45 49 52
o SD0803_T005_5hao
v 45.544 15.418 0.000
v 45.853 -2.832 0.000
v 24.211 -3.186 0.000
v 23.912 15.075 0.000
v 45.544 15.418 42.550
v 45.853 -2.832 42.550
v 24.211 -3.186 42.550
v 23.912 15.075 42.550
usemtl roof
f 57 58 59 60
usemtl teaching_building
f 56 55 54 53
f 53 54 58 57
f 54 55 59 58
f 55 56 60 59
f 56 53 57 60
o SD0803_T006_6hao
v 48.610 -31.584 0.000
v 48.320 -53.526 0.000
v 3.441 -52.940 0.000
v 3.731 -30.998 0.000
v 48.610 -31.584 22.680
v 48.320 -53.526 22.680
v 3.441 -52.940 22.680
v 3.731 -30.998 22.680
usemtl roof
f 65 66 67 68
usemtl teaching_building
f 64 63 62 61
f 61 62 66 65
f 62 63 67 66
f 63 64 68 67
f 64 61 65 68
o SD0803_T007_7hao
v -16.350 -33.452 0.000
v -16.350 -52.785 0.000
v -79.170 -52.797 0.000
v -79.170 -33.441 0.000
v -16.350 -33.452 14.790
v -16.350 -52.785 14.790
v -79.170 -52.797 14.790
v -79.170 -33.441 14.790
usemtl roof
f 73 74 75 76
usemtl teaching_building
f 72 71 70 69
f 69 70 74 73
f 70 71 75 74
f 71 72 76 75
f 72 69 73 76
o SD0803_T008_8hao
v 70.478 -81.360 0.000
v 30.769 -81.526 0.000
v 30.878 -108.232 0.000
v 88.110 -108.011 0.000
v 87.802 -30.755 0.000
v 70.269 -30.832 0.000
v 70.478 -81.360 13.010
v 30.769 -81.526 13.010
v 30.878 -108.232 13.010
v 88.110 -108.011 13.010
v 87.802 -30.755 13.010
v 70.269 -30.832 13.010
usemtl roof
f 83 84 85 86 87 88
usemtl teaching_building
f 82 81 80 79 78 77
f 77 78 84 83
f 78 79 85 84
f 79 80 86 85
f 80 81 87 86
f 81 82 88 87
f 82 77 83 88
