# school_id SD0897
# school_name 沂水县第一中学
# boundary_source footprint_convex_hull_buffer_20m
# adjacent_block_merge_distance_m 2.0
mtllib ../campus_materials.mtl
o SD0897_campus_boundary
usemtl campus_boundary
v 23.080 -186.900 0.050
v -19.781 -183.704 0.050
v -152.121 -66.449 0.050
v -142.495 -10.352 0.050
v -130.150 52.518 0.050
v -38.703 165.324 0.050
v -18.363 168.717 0.050
v 16.082 162.611 0.050
v 87.601 148.483 0.050
v 125.242 2.674 0.050
v 121.285 -21.709 0.050
v 100.817 -115.030 0.050
v 33.747 -177.221 0.050
v 23.080 -186.900 0.050
l 1 2 3 4 5 6 7 8 9 10 11 12 13 14 1
o SD0897_T001_1hao
v -38.476 85.040 0.000
v -29.257 83.382 0.000
v -28.552 87.295 0.000
v 0.921 82.000 0.000
v 0.208 78.109 0.000
v 18.060 74.903 0.000
v 18.864 79.303 0.000
v 47.768 74.107 0.000
v 47.010 69.929 0.000
v 55.715 68.359 0.000
v 58.451 83.337 0.000
v 55.164 83.923 0.000
v 56.861 93.264 0.000
v 60.049 92.689 0.000
v 62.839 107.999 0.000
v -25.762 123.872 0.000
v -26.195 121.474 0.000
v -32.327 122.568 0.000
v -27.938 146.843 0.000
v -19.035 145.262 0.000
v -18.466 148.423 0.000
v 12.398 142.952 0.000
v 11.288 136.772 0.000
v 28.778 133.677 0.000
v 29.699 138.773 0.000
v 58.902 133.600 0.000
v 58.460 131.124 0.000
v 66.424 129.709 0.000
v 66.848 132.108 0.000
v 71.381 131.301 0.000
v 56.482 48.561 0.000
v 29.257 53.392 0.000
v 28.914 51.502 0.000
v 23.252 52.508 0.000
v 23.532 54.066 0.000
v -36.381 64.778 0.000
v -36.769 62.666 0.000
v -42.359 63.672 0.000
v -38.476 85.040 10.890
v -29.257 83.382 10.890
v -28.552 87.295 10.890
v 0.921 82.000 10.890
v 0.208 78.109 10.890
v 18.060 74.903 10.890
v 18.864 79.303 10.890
v 47.768 74.107 10.890
v 47.010 69.929 10.890
v 55.715 68.359 10.890
v 58.451 83.337 10.890
v 55.164 83.923 10.890
v 56.861 93.264 10.890
v 60.049 92.689 10.890
v 62.839 107.999 10.890
v -25.762 123.872 10.890
v -26.195 121.474 10.890
v -32.327 122.568 10.890
v -27.938 146.843 10.890
v -19.035 145.262 10.890
v -18.466 148.423 10.890
v 12.398 142.952 10.890
v 11.288 136.772 10.890
v 28.778 133.677 10.890
v 29.699 138.773 10.890
v 58.902 133.600 10.890
v 58.460 131.124 10.890
v 66.424 129.709 10.890
v 66.848 132.108 10.890
v 71.381 131.301 10.890
v 56.482 48.561 10.890
v 29.257 53.392 10.890
v 28.914 51.502 10.890
v 23.252 52.508 10.890
v 23.532 54.066 10.890
v -36.381 64.778 10.890
v -36.769 62.666 10.890
v -42.359 63.672 10.890
usemtl roof
f 53 54 55 56 57 58 59 60 61 62 63 64 65 66 67 68 69 70 71 72 73 74 75 76 77 78 79 80 81 82 83 84 85 86 87 88 89 90
usemtl teaching_building
f 52 51 50 49 48 47 46 45 44 43 42 41 40 39 38 37 36 35 34 33 32 31 30 29 28 27 26 25 24 23 22 21 20 19 18 17 16 15
f 15 16 54 53
f 16 17 55 54
f 17 18 56 55
f 18 19 57 56
f 19 20 58 57
f 20 21 59 58
f 21 22 60 59
f 22 23 61 60
f 23 24 62 61
f 24 25 63 62
f 25 26 64 63
f 26 27 65 64
f 27 28 66 65
f 28 29 67 66
f 29 30 68 67
f 30 31 69 68
f 31 32 70 69
f 32 33 71 70
f 33 34 72 71
f 34 35 73 72
f 35 36 74 73
f 36 37 75 74
f 37 38 76 75
f 38 39 77 76
f 39 40 78 77
f 40 41 79 78
f 41 42 80 79
f 42 43 81 80
f 43 44 82 81
f 44 45 83 82
f 45 46 84 83
f 46 47 85 84
f 47 48 86 85
f 48 49 87 86
f 49 50 88 87
f 50 51 89 88
f 51 52 90 89
f 52 15 53 90
o SD0897_T002_2hao
v -117.767 3.959 0.000
v -116.350 -1.093 0.000
v -113.569 -5.415 0.000
v -109.117 -7.504 0.000
v -103.401 -6.355 0.000
v -99.933 -2.917 0.000
v -96.872 3.505 0.000
v -94.642 17.621 0.000
v -67.381 13.365 0.000
v -63.751 36.358 0.000
v -111.483 43.786 0.000
v -117.767 3.959 9.250
v -116.350 -1.093 9.250
v -113.569 -5.415 9.250
v -109.117 -7.504 9.250
v -103.401 -6.355 9.250
v -99.933 -2.917 9.250
v -96.872 3.505 9.250
v -94.642 17.621 9.250
v -67.381 13.365 9.250
v -63.751 36.358 9.250
v -111.483 43.786 9.250
usemtl roof
f 102 103 104 105 106 107 108 109 110 111 112
usemtl teaching_building
f 101 100 99 98 97 96 95 94 93 92 91
f 91 92 103 102
f 92 93 104 103
f 93 94 105 104
f 94 95 106 105
f 95 96 107 106
f 96 97 108 107
f 97 98 109 108
f 98 99 110 109
f 99 100 111 110
f 100 101 112 111
f 101 91 102 112
o SD0897_T003_3hao
v -55.615 10.558 0.000
v -10.953 3.163 0.000
v -7.964 20.993 0.000
v -14.177 22.021 0.000
v -14.899 17.699 0.000
v -24.606 19.313 0.000
v -23.685 24.784 0.000
v -32.887 26.310 0.000
v -33.708 21.468 0.000
v -47.271 23.712 0.000
v -46.747 26.807 0.000
v -52.716 27.802 0.000
v -55.615 10.558 10.590
v -10.953 3.163 10.590
v -7.964 20.993 10.590
v -14.177 22.021 10.590
v -14.899 17.699 10.590
v -24.606 19.313 10.590
v -23.685 24.784 10.590
v -32.887 26.310 10.590
v -33.708 21.468 10.590
v -47.271 23.712 10.590
v -46.747 26.807 10.590
v -52.716 27.802 10.590
usemtl roof
f 125 126 127 128 129 130 131 132 133 134 135 136
usemtl teaching_building
f 124 123 122 121 120 119 118 117 116 115 114 113
f 113 114 126 125
f 114 115 127 126
f 115 116 128 127
f 116 117 129 128
f 117 118 130 129
f 118 119 131 130
f 119 120 132 131
f 120 121 133 132
f 121 122 134 133
f 122 123 135 134
f 123 124 136 135
f 124 113 125 136
o SD0897_T004_4hao
v 17.943 -7.504 0.000
v 27.442 -9.638 0.000
v 46.053 -7.748 0.000
v 44.057 7.142 0.000
v 41.953 6.788 0.000
v 42.206 2.079 0.000
v 31.912 1.527 0.000
v 31.641 6.523 0.000
v 22.764 7.197 0.000
v 18.647 8.999 0.000
v 17.003 5.816 0.000
v 8.380 9.110 0.000
v 9.554 12.702 0.000
v 8.687 14.084 0.000
v 5.626 12.702 0.000
v 4.407 9.839 0.000
v 2.890 10.469 0.000
v -1.318 0.543 0.000
v 17.943 -7.504 11.380
v 27.442 -9.638 11.380
v 46.053 -7.748 11.380
v 44.057 7.142 11.380
v 41.953 6.788 11.380
v 42.206 2.079 11.380
v 31.912 1.527 11.380
v 31.641 6.523 11.380
v 22.764 7.197 11.380
v 18.647 8.999 11.380
v 17.003 5.816 11.380
v 8.380 9.110 11.380
v 9.554 12.702 11.380
v 8.687 14.084 11.380
v 5.626 12.702 11.380
v 4.407 9.839 11.380
v 2.890 10.469 11.380
v -1.318 0.543 11.380
usemtl roof
f 155 156 157 158 159 160 161 162 163 164 165 166 167 168 169 170 171 172
usemtl teaching_building
f 154 153 152 151 150 149 148 147 146 145 144 143 142 141 140 139 138 137
f 137 138 156 155
f 138 139 157 156
f 139 140 158 157
f 140 141 159 158
f 141 142 160 159
f 142 143 161 160
f 143 144 162 161
f 144 145 163 162
f 145 146 164 163
f 146 147 165 164
f 147 148 166 165
f 148 149 167 166
f 149 150 168 167
f 150 151 169 168
f 151 152 170 169
f 152 153 171 170
f 153 154 172 171
f 154 137 155 172
o SD0897_T005_5hao
v 55.895 -10.644 0.000
v 101.631 -17.962 0.000
v 104.828 1.737 0.000
v 97.956 2.842 0.000
v 97.126 -2.221 0.000
v 83.843 -0.098 0.000
v 84.664 4.987 0.000
v 76.944 6.225 0.000
v 76.158 1.394 0.000
v 65.358 3.129 0.000
v 65.891 6.413 0.000
v 58.848 7.540 0.000
v 55.895 -10.644 11.550
v 101.631 -17.962 11.550
v 104.828 1.737 11.550
v 97.956 2.842 11.550
v 97.126 -2.221 11.550
v 83.843 -0.098 11.550
v 84.664 4.987 11.550
v 76.944 6.225 11.550
v 76.158 1.394 11.550
v 65.358 3.129 11.550
v 65.891 6.413 11.550
v 58.848 7.540 11.550
usemtl roof
f 185 186 187 188 189 190 191 192 193 194 195 196
usemtl teaching_building
f 184 183 182 181 180 179 178 177 176 175 174 173
f 173 174 186 185
f 174 175 187 186
f 175 176 188 187
f 176 177 189 188
f 177 178 190 189
f 178 179 191 190
f 179 180 192 191
f 180 181 193 192
f 181 182 194 193
f 182 183 195 194
f 183 184 196 195
f 184 173 185 196
o SD0897_T006_6hao
v -130.527 -58.861 0.000
v -111.781 -62.034 0.000
v -109.659 -49.675 0.000
v -90.199 -52.970 0.000
v -89.712 -50.162 0.000
v -78.677 -52.030 0.000
v -73.575 -22.306 0.000
v -122.824 -13.971 0.000
v -130.527 -58.861 10.560
v -111.781 -62.034 10.560
v -109.659 -49.675 10.560
v -90.199 -52.970 10.560
v -89.712 -50.162 10.560
v -78.677 -52.030 10.560
v -73.575 -22.306 10.560
v -122.824 -13.971 10.560
usemtl roof
f 205 206 207 208 209 210 211 212
usemtl teaching_building
f 204 203 202 201 200 199 198 197
f 197 198 206 205
f 198 199 207 206
f 199 200 208 207
f 200 201 209 208
f 201 202 210 209
f 202 203 211 210
f 203 204 212 211
f 204 197 205 212
o SD0897_T007_7hao
v -61.511 -42.501 0.000
v -66.026 -41.750 0.000
v -70.026 -65.383 0.000
v -47.244 -69.186 0.000
v -45.239 -57.347 0.000
v -26.015 -60.553 0.000
v -25.536 -57.690 0.000
v -21.491 -58.364 0.000
v -17.744 -36.201 0.000
v -56.130 -29.811 0.000
v -56.789 -33.702 0.000
v -59.931 -33.183 0.000
v -61.511 -42.501 8.240
v -66.026 -41.750 8.240
v -70.026 -65.383 8.240
v -47.244 -69.186 8.240
v -45.239 -57.347 8.240
v -26.015 -60.553 8.240
v -25.536 -57.690 8.240
v -21.491 -58.364 8.240
v -17.744 -36.201 8.240
v -56.130 -29.811 8.240
v -56.789 -33.702 8.240
v -59.931 -33.183 8.240
usemtl roof
f 225 226 227 228 229 230 231 232 233 234 235 236
usemtl teaching_building
f 224 223 222 221 220 219 218 217 216 215 214 213
f 213 214 226 225
f 214 215 227 226
f 215 216 228 227
f 216 217 229 228
f 217 218 230 229
f 218 219 231 230
f 219 220 232 231
f 220 221 233 232
f 221 222 234 233
f 222 223 235 234
f 223 224 236 235
f 224 213 225 236
o SD0897_T008_8hao
v -11.495 -63.847 0.000
v 15.261 -68.511 0.000
v 14.475 -72.988 0.000
v 24.607 -74.768 0.000
v 25.338 -70.634 0.000
v 76.122 -79.521 0.000
v 71.995 -102.768 0.000
v 82.624 -104.625 0.000
v 90.588 -59.757 0.000
v 78.984 -57.723 0.000
v 77.269 -67.395 0.000
v 25.139 -58.275 0.000
v 26.340 -51.477 0.000
v 19.893 -50.350 0.000
v 18.683 -57.181 0.000
v -2.284 -53.522 0.000
v -1.165 -47.210 0.000
v -8.325 -45.961 0.000
v -11.495 -63.847 7.660
v 15.261 -68.511 7.660
v 14.475 -72.988 7.660
v 24.607 -74.768 7.660
v 25.338 -70.634 7.660
v 76.122 -79.521 7.660
v 71.995 -102.768 7.660
v 82.624 -104.625 7.660
v 90.588 -59.757 7.660
v 78.984 -57.723 7.660
v 77.269 -67.395 7.660
v 25.139 -58.275 7.660
v 26.340 -51.477 7.660
v 19.893 -50.350 7.660
v 18.683 -57.181 7.660
v -2.284 -53.522 7.660
v -1.165 -47.210 7.660
v -8.325 -45.961 7.660
usemtl roof
f 255 256 257 258 259 260 261 262 263 264 265 266 267 268 269 270 271 272
usemtl teaching_building
f 254 253 252 251 250 249 248 247 246 245 244 243 242 241 240 239 238 237
f 237 238 256 255
f 238 239 257 256
f 239 240 258 257
f 240 241 259 258
f 241 242 260 259
f 242 243 261 260
f 243 244 262 261
f 244 245 263 262
f 245 246 264 263
f 246 247 265 264
f 247 248 266 265
f 248 249 267 266
f 249 250 268 267
f 250 251 269 268
f 251 252 270 269
f 252 253 271 270
f 253 254 272 271
f 254 237 255 272
