# school_id SD0891
# school_name 永泰小学
# boundary_source footprint_convex_hull_buffer_20m
# adjacent_block_merge_distance_m 2.0
mtllib ../campus_materials.mtl
o SD0891_campus_boundary
usemtl campus_boundary
v 47.308 -55.854 0.050
v -64.090 -33.272 0.050
v -52.582 26.605 0.050
v -46.162 56.762 0.050
v 62.805 33.863 0.050
v 53.287 -26.777 0.050
v 47.308 -55.854 0.050
l 1 2 3 4 5 6 7 1
o SD0891_T001_1hao
v 37.869 7.737 0.000
v 40.101 18.197 0.000
v -30.754 33.087 0.000
v -32.979 22.635 0.000
v 37.869 7.737 9.900
v 40.101 18.197 9.900
v -30.754 33.087 9.900
v -32.979 22.635 9.900
usemtl roof
f 12 13 14 15
usemtl teaching_building
f 11 10 9 8
f 8 9 13 12
f 9 10 14 13
f 10 11 15 14
f 11 8 12 15
o SD0891_T002_2hao
v 31.735 -32.290 0.000
v 33.602 -23.210 0.000
v -38.861 -8.552 0.000
v -40.713 -17.604 0.000
v 31.735 -32.290 9.900
v 33.602 -23.210 9.900
v -38.861 -8.552 9.900
v -40.713 -17.604 9.900
usemtl roof
f 20 21 22 23
usemtl teaching_building
f 19 18 17 16
f 16 17 21 20
f 17 18 22 21
f 18 19 23 22
f 19 16 20 23
