# school_id SD0826
# school_name 临沂第一中学（南校区）
# boundary_source footprint_convex_hull_buffer_20m
# adjacent_block_merge_distance_m 2.0
mtllib ../campus_materials.mtl
o SD0826_campus_boundary
usemtl campus_boundary
v -92.044 -274.701 0.050
v -231.201 -70.312 0.050
v -231.069 -43.991 0.050
v -230.175 -13.127 0.050
v -229.459 7.279 0.050
v -214.887 106.305 0.050
v -93.138 115.571 0.050
v 127.506 114.826 0.050
v 202.995 113.696 0.050
v 202.522 83.821 0.050
v 200.426 -8.999 0.050
v 6.630 -272.644 0.050
v -92.044 -274.701 0.050
l 1 2 3 4 5 6 7 8 9 10 11 12 13 1
o SD0826_T001_1hao
v 127.323 94.827 0.000
v 127.168 85.034 0.000
v 182.526 84.205 0.000
v 182.681 93.998 0.000
v 127.323 94.827 9.900
v 127.168 85.034 9.900
v 182.526 84.205 9.900
v 182.681 93.998 9.900
usemtl roof
f 18 19 20 21
usemtl teaching_building
f 17 16 15 14
f 14 15 19 18
f 15 16 20 19
f 16 17 21 20
f 17 14 18 21
o SD0826_T002_2hao
v -92.412 95.568 0.000
v -92.567 84.238 0.000
v -7.465 83.132 0.000
v -7.319 94.452 0.000
v -92.412 95.568 6.600
v -92.567 84.238 6.600
v -7.465 83.132 6.600
v -7.319 94.452 6.600
usemtl roof
f 26 27 28 29
usemtl teaching_building
f 25 24 23 22
f 22 23 27 26
f 23 24 28 27
f 24 25 29 28
f 25 22 26 29
o SD0826_T003_3hao
v 62.746 94.352 0.000
v 62.601 84.547 0.000
v 117.958 83.729 0.000
v 118.104 93.523 0.000
v 62.746 94.352 9.900
v 62.601 84.547 9.900
v 117.958 83.729 9.900
v 118.104 93.523 9.900
usemtl roof
f 34 35 36 37
usemtl teaching_building
f 33 32 31 30
f 30 31 35 34
f 31 32 36 35
f 32 33 37 36
f 33 30 34 37
o SD0826_T004_4hao
v -197.428 87.576 0.000
v -198.951 29.421 0.000
v -144.460 28.017 0.000
v -142.928 86.161 0.000
v -197.428 87.576 11.960
v -198.951 29.421 11.960
v -144.460 28.017 11.960
v -142.928 86.161 11.960
usemtl roof
f 42 43 44 45
usemtl teaching_building
f 41 40 39 38
f 38 39 43 42
f 39 40 44 43
f 40 41 45 44
f 41 38 42 45
o SD0826_T005_5hao
v 60.057 51.617 0.000
v 59.911 41.812 0.000
v 115.268 40.994 0.000
v 115.414 50.788 0.000
v 60.057 51.617 9.900
v 59.911 41.812 9.900
v 115.268 40.994 9.900
v 115.414 50.788 9.900
usemtl roof
f 50 51 52 53
usemtl teaching_building
f 49 48 47 46
f 46 47 51 50
f 47 48 52 51
f 48 49 53 52
f 49 46 50 53
o SD0826_T006_6hao
v 126.092 51.131 0.000
v 125.946 41.326 0.000
v 181.304 40.508 0.000
v 181.450 50.302 0.000
v 126.092 51.131 9.900
v 125.946 41.326 9.900
v 181.304 40.508 9.900
v 181.450 50.302 9.900
usemtl roof
f 58 59 60 61
usemtl teaching_building
f 57 56 55 54
f 54 55 59 58
f 55 56 60 59
f 56 57 61 60
f 57 54 58 61
o SD0826_T007_7hao
v 60.303 9.115 0.000
v 60.157 -0.690 0.000
v 115.515 -1.508 0.000
v 115.660 8.286 0.000
v 60.303 9.115 9.900
v 60.157 -0.690 9.900
v 115.515 -1.508 9.900
v 115.660 8.286 9.900
usemtl roof
f 66 67 68 69
usemtl teaching_building
f 65 64 63 62
f 62 63 67 66
f 63 64 68 67
f 64 65 69 68
f 65 62 66 69
o SD0826_T008_8hao
v 125.362 8.385 0.000
v 125.217 -1.420 0.000
v 180.574 -2.238 0.000
v 180.720 7.556 0.000
v 125.362 8.385 9.900
v 125.217 -1.420 9.900
v 180.574 -2.238 9.900
v 180.720 7.556 9.900
usemtl roof
f 74 75 76 77
usemtl teaching_building
f 73 72 71 70
f 70 71 75 74
f 71 72 76 75
f 72 73 77 76
f 73 70 74 77
o SD0826_T009_9hao
v -209.510 5.467 0.000
v -210.185 -13.767 0.000
v -143.566 -16.055 0.000
v -142.891 3.168 0.000
v -209.510 5.467 11.290
v -210.185 -13.767 11.290
v -143.566 -16.055 11.290
v -142.891 3.168 11.290
usemtl roof
f 82 83 84 85
usemtl teaching_building
f 81 80 79 78
f 78 79 83 82
f 79 80 84 83
f 80 81 85 84
f 81 78 82 85
o SD0826_T010_10hao
v -211.070 -44.331 0.000
v -211.170 -64.195 0.000
v -145.809 -64.516 0.000
v -145.709 -44.652 0.000
v -211.070 -44.331 9.230
v -211.170 -64.195 9.230
v -145.809 -64.516 9.230
v -145.709 -44.652 9.230
usemtl roof
f 90 91 92 93
usemtl teaching_building
f 89 88 87 86
f 86 87 91 90
f 87 88 92 91
f 88 89 93 92
f 89 86 90 93
o SD0826_T011_11hao
v -126.168 -153.799 0.000
v -90.944 -153.578 0.000
v -91.318 -95.235 0.000
v -126.551 -95.467 0.000
v -126.168 -153.799 9.000
v -90.944 -153.578 9.000
v -91.318 -95.235 9.000
v -126.551 -95.467 9.000
usemtl roof
f 98 99 100 101
usemtl teaching_building
f 97 96 95 94
f 94 95 99 98
f 95 96 100 99
f 96 97 101 100
f 97 94 98 101
o SD0826_T012_12hao
v -81.616 -254.479 0.000
v -3.645 -252.854 0.000
v -4.201 -226.424 0.000
v -82.172 -228.027 0.000
v -81.616 -254.479 11.130
v -3.645 -252.854 11.130
v -4.201 -226.424 11.130
v -82.172 -228.027 11.130
usemtl roof
f 106 107 108 109
usemtl teaching_building
f 105 104 103 102
f 102 103 107 106
f 103 104 108 107
f 104 105 109 108
f 105 102 106 109
