# school_id SD0893
# school_name 沂南县卫生学校
# boundary_source footprint_convex_hull_buffer_20m
# adjacent_block_merge_distance_m 2.0
mtllib ../campus_materials.mtl
o SD0893_campus_boundary
usemtl campus_boundary
v 46.216 -45.225 0.050
v -51.774 -36.211 0.050
v -46.575 45.119 0.050
v 52.126 36.315 0.050
v 46.216 -45.225 0.050
l 1 2 3 4 5 1
o SD0893_T001_1hao
v 27.742 -23.441 0.000
v 30.756 18.142 0.000
v -27.924 23.376 0.000
v -30.574 -18.077 0.000
v 27.742 -23.441 9.900
v 30.756 18.142 9.900
v -27.924 23.376 9.900
v -30.574 -18.077 9.900
usemtl roof
f 10 11 12 13
usemtl teaching_building
f 9 8 7 6
f 6 7 11 10
f 7 8 12 11
f 8 9 13 12
f 9 6 10 13
