# school_id SD0890
# school_name 枣园中心小学
# boundary_source footprint_convex_hull_buffer_20m
# adjacent_block_merge_distance_m 2.0
mtllib ../campus_materials.mtl
o SD0890_campus_boundary
usemtl campus_boundary
v -93.076 -109.681 0.050
v -109.888 -98.455 0.050
v -113.849 -81.275 0.050
v -136.135 85.372 0.050
v 58.063 109.853 0.050
v 101.564 114.909 0.050
v 104.782 87.946 0.050
v 112.069 -93.619 0.050
v -21.141 -106.466 0.050
v -56.580 -108.976 0.050
v -93.076 -109.681 0.050
l 1 2 3 4 5 6 7 8 9 10 11 1
o SD0890_T001_1hao
v -54.422 53.965 0.000
v 2.043 58.209 0.000
v 1.555 77.444 0.000
v -55.215 73.738 0.000
v -54.422 53.965 9.900
v 2.043 58.209 9.900
v 1.555 77.444 9.900
v -55.215 73.738 9.900
usemtl roof
f 16 17 18 19
usemtl teaching_building
f 15 14 13 12
f 12 13 17 16
f 13 14 18 17
f 14 15 19 18
f 15 12 16 19
o SD0890_T002_2hao
v 23.363 25.160 0.000
v 85.700 28.273 0.000
v 85.235 40.364 0.000
v 78.967 40.596 0.000
v 79.310 36.917 0.000
v 61.787 36.797 0.000
v 60.971 42.097 0.000
v 47.040 41.976 0.000
v 47.162 35.416 0.000
v 28.937 34.712 0.000
v 28.701 37.723 0.000
v 22.555 37.492 0.000
v 23.363 25.160 9.900
v 85.700 28.273 9.900
v 85.235 40.364 9.900
v 78.967 40.596 9.900
v 79.310 36.917 9.900
v 61.787 36.797 9.900
v 60.971 42.097 9.900
v 47.040 41.976 9.900
v 47.162 35.416 9.900
v 28.937 34.712 9.900
v 28.701 37.723 9.900
v 22.555 37.492 9.900
usemtl roof
f 32 33 34 35 36 37 38 39 40 41 42 43
usemtl teaching_building
f 31 30 29 28 27 26 25 24 23 22 21 20
f 20 21 33 32
f 21 22 34 33
f 22 23 35 34
f 23 24 36 35
f 24 25 37 36
f 25 26 38 37
f 26 27 39 38
f 27 28 40 39
f 28 29 41 40
f 29 30 42 41
f 30 31 43 42
f 31 20 32 43
o SD0890_T003_3hao
v -49.938 21.750 0.000
v 2.996 24.168 0.000
v 2.882 36.046 0.000
v -4.202 36.046 0.000
v -4.202 31.895 0.000
v -17.668 31.895 0.000
v -17.668 36.630 0.000
v -29.846 36.167 0.000
v -29.846 30.978 0.000
v -43.312 30.515 0.000
v -43.671 33.748 0.000
v -50.396 33.406 0.000
v -49.938 21.750 9.900
v 2.996 24.168 9.900
v 2.882 36.046 9.900
v -4.202 36.046 9.900
v -4.202 31.895 9.900
v -17.668 31.895 9.900
v -17.668 36.630 9.900
v -29.846 36.167 9.900
v -29.846 30.978 9.900
v -43.312 30.515 9.900
v -43.671 33.748 9.900
v -50.396 33.406 9.900
usemtl roof
f 56 57 58 59 60 61 62 63 64 65 66 67
usemtl teaching_building
f 55 54 53 52 51 50 49 48 47 46 45 44
f 44 45 57 56
f 45 46 58 57
f 46 47 59 58
f 47 48 60 59
f 48 49 61 60
f 49 50 62 61
f 50 51 63 62
f 51 52 64 63
f 52 53 65 64
f 53 54 66 65
f 54 55 67 66
f 55 44 56 67
o SD0890_T004_4hao
v -94.150 -77.695 0.000
v -92.182 -86.229 0.000
v -87.188 -89.564 0.000
v -57.480 -88.990 0.000
v -57.480 -76.648 0.000
v -82.193 -77.352 0.000
v -98.961 45.117 0.000
v -94.203 45.803 0.000
v -98.031 69.809 0.000
v -113.640 68.049 0.000
v -94.150 -77.695 9.900
v -92.182 -86.229 9.900
v -87.188 -89.564 9.900
v -57.480 -88.990 9.900
v -57.480 -76.648 9.900
v -82.193 -77.352 9.900
v -98.961 45.117 9.900
v -94.203 45.803 9.900
v -98.031 69.809 9.900
v -113.640 68.049 9.900
usemtl roof
f 78 79 80 81 82 83 84 85 86 87
usemtl teaching_building
f 77 76 75 74 73 72 71 70 69 68
f 68 69 79 78
f 69 70 80 79
f 70 71 81 80
f 71 72 82 81
f 72 73 83 82
f 73 74 84 83
f 74 75 85 84
f 75 76 86 85
f 76 77 87 86
f 77 68 78 87
o SD0890_T005_5hao
v 88.422 -22.047 0.000
v 87.728 -9.132 0.000
v 80.995 -9.474 0.000
v 81.338 -12.476 0.000
v 63.472 -12.708 0.000
v 59.286 -7.408 0.000
v 52.446 -7.751 0.000
v 48.382 -13.857 0.000
v 30.851 -14.441 0.000
v 30.737 -12.022 0.000
v 24.583 -12.245 0.000
v 24.583 -24.697 0.000
v 88.422 -22.047 9.900
v 87.728 -9.132 9.900
v 80.995 -9.474 9.900
v 81.338 -12.476 9.900
v 63.472 -12.708 9.900
v 59.286 -7.408 9.900
v 52.446 -7.751 9.900
v 48.382 -13.857 9.900
v 30.851 -14.441 9.900
v 30.737 -12.022 9.900
v 24.583 -12.245 9.900
v 24.583 -24.697 9.900
usemtl roof
f 100 101 102 103 104 105 106 107 108 109 110 111
usemtl teaching_building
f 99 98 97 96 95 94 93 92 91 90 89 88
f 88 89 101 100
f 89 90 102 101
f 90 91 103 102
f 91 92 104 103
f 92 93 105 104
f 93 94 106 105
f 94 95 107 106
f 95 96 108 107
f 96 97 109 108
f 97 98 110 109
f 98 99 111 110
f 99 88 100 111
o SD0890_T006_6hao
v -46.972 -28.848 0.000
v 5.962 -26.421 0.000
v 5.375 -18.462 0.000
v -14.702 -18.693 0.000
v -14.702 -13.977 0.000
v -26.895 -14.441 0.000
v -26.895 -19.629 0.000
v -47.430 -20.306 0.000
v -46.972 -28.848 9.900
v 5.962 -26.421 9.900
v 5.375 -18.462 9.900
v -14.702 -18.693 9.900
v -14.702 -13.977 9.900
v -26.895 -14.441 9.900
v -26.895 -19.629 9.900
v -47.430 -20.306 9.900
usemtl roof
f 120 121 122 123 124 125 126 127
usemtl teaching_building
f 119 118 117 116 115 114 113 112
f 112 113 121 120
f 113 114 122 121
f 114 115 123 122
f 115 116 124 123
f 116 117 125 124
f 117 118 126 125
f 118 119 127 126
f 119 112 120 127
o SD0890_T007_7hao
v 28.525 -78.399 0.000
v 91.327 -75.527 0.000
v 90.397 -54.541 0.000
v 27.717 -57.080 0.000
v 28.525 -78.399 9.900
v 91.327 -75.527 9.900
v 90.397 -54.541 9.900
v 27.717 -57.080 9.900
usemtl roof
f 132 133 134 135
usemtl teaching_building
f 131 130 129 128
f 128 129 133 132
f 129 130 134 133
f 130 131 135 134
f 131 128 132 135
