# school_id SD0895
# school_name 沂水县实验中学
# boundary_source footprint_convex_hull_buffer_20m
# adjacent_block_merge_distance_m 2.0
mtllib ../campus_materials.mtl
o SD0895_campus_boundary
usemtl campus_boundary
v -133.270 -73.551 0.050
v -140.785 -19.406 0.050
v -142.354 3.015 0.050
v -69.936 83.638 0.050
v -16.672 87.681 0.050
v 166.412 83.372 0.050
v 172.374 0.096 0.050
v 161.733 -17.374 0.050
v -4.964 -63.690 0.050
v -61.185 -68.157 0.050
v -133.270 -73.551 0.050
l 1 2 3 4 5 6 7 8 9 10 11 1
o SD0895_T001_1hao
v -58.677 41.565 0.000
v -14.397 44.925 0.000
v -16.149 67.663 0.000
v -60.420 64.303 0.000
v -58.677 41.565 8.930
v -14.397 44.925 8.930
v -16.149 67.663 8.930
v -60.420 64.303 8.930
usemtl roof
f 16 17 18 19
usemtl teaching_building
f 15 14 13 12
f 12 13 17 16
f 13 14 18 17
f 14 15 19 18
f 15 12 16 19
o SD0895_T002_2hao
v 130.624 49.214 0.000
v 90.082 46.351 0.000
v 89.125 59.671 0.000
v 147.762 63.805 0.000
v 151.969 5.042 0.000
v 148.403 4.788 0.000
v 148.764 -0.220 0.000
v 87.671 -4.608 0.000
v 86.181 15.422 0.000
v 132.818 18.727 0.000
v 130.624 49.214 18.220
v 90.082 46.351 18.220
v 89.125 59.671 18.220
v 147.762 63.805 18.220
v 151.969 5.042 18.220
v 148.403 4.788 18.220
v 148.764 -0.220 18.220
v 87.671 -4.608 18.220
v 86.181 15.422 18.220
v 132.818 18.727 18.220
usemtl roof
f 30 31 32 33 34 35 36 37 38 39
usemtl teaching_building
f 29 28 27 26 25 24 23 22 21 20
f 20 21 31 30
f 21 22 32 31
f 22 23 33 32
f 23 24 34 33
f 24 25 35 34
f 25 26 36 35
f 26 27 37 36
f 27 28 38 37
f 28 29 39 38
f 29 20 30 39
o SD0895_T003_3hao
v 14.704 -9.660 0.000
v 14.506 -7.040 0.000
v 48.212 -4.497 0.000
v 47.996 -1.712 0.000
v 79.544 0.687 0.000
v 78.687 11.332 0.000
v 70.795 10.735 0.000
v 70.623 12.979 0.000
v 61.946 12.316 0.000
v 62.271 8.148 0.000
v 52.890 7.430 0.000
v 52.510 12.338 0.000
v 44.781 11.741 0.000
v 44.926 9.895 0.000
v 37.549 9.320 0.000
v 37.395 11.210 0.000
v 28.628 10.536 0.000
v 28.890 7.231 0.000
v 21.169 6.634 0.000
v 20.917 9.917 0.000
v 13.088 9.309 0.000
v 12.953 11.011 0.000
v 0.781 10.083 0.000
v 2.379 -10.599 0.000
v 14.704 -9.660 29.050
v 14.506 -7.040 29.050
v 48.212 -4.497 29.050
v 47.996 -1.712 29.050
v 79.544 0.687 29.050
v 78.687 11.332 29.050
v 70.795 10.735 29.050
v 70.623 12.979 29.050
v 61.946 12.316 29.050
v 62.271 8.148 29.050
v 52.890 7.430 29.050
v 52.510 12.338 29.050
v 44.781 11.741 29.050
v 44.926 9.895 29.050
v 37.549 9.320 29.050
v 37.395 11.210 29.050
v 28.628 10.536 29.050
v 28.890 7.231 29.050
v 21.169 6.634 29.050
v 20.917 9.917 29.050
v 13.088 9.309 29.050
v 12.953 11.011 29.050
v 0.781 10.083 29.050
v 2.379 -10.599 29.050
usemtl roof
f 64 65 66 67 68 69 70 71 72 73 74 75 76 77 78 79 80 81 82 83 84 85 86 87
usemtl teaching_building
f 63 62 61 60 59 58 57 56 55 54 53 52 51 50 49 48 47 46 45 44 43 42 41 40
f 40 41 65 64
f 41 42 66 65
f 42 43 67 66
f 43 44 68 67
f 44 45 69 68
f 45 46 70 69
f 46 47 71 70
f 47 48 72 71
f 48 49 73 72
f 49 50 74 73
f 50 51 75 74
f 51 52 76 75
f 52 53 77 76
f 53 54 78 77
f 54 55 79 78
f 55 56 80 79
f 56 57 81 80
f 57 58 82 81
f 58 59 83 82
f 59 60 84 83
f 60 61 85 84
f 61 62 86 85
f 62 63 87 86
f 63 40 64 87
o SD0895_T004_4hao
v -112.971 -3.403 0.000
v -113.522 4.036 0.000
v -75.589 6.778 0.000
v -75.066 -0.452 0.000
v -66.777 0.156 0.000
v -57.603 0.621 0.000
v -58.082 7.695 0.000
v -20.393 10.215 0.000
v -19.833 1.914 0.000
v -12.582 2.400 0.000
v -11.770 -9.516 0.000
v -65.784 -13.385 0.000
v -120.881 -17.331 0.000
v -121.811 -4.044 0.000
v -112.971 -3.403 15.030
v -113.522 4.036 15.030
v -75.589 6.778 15.030
v -75.066 -0.452 15.030
v -66.777 0.156 15.030
v -57.603 0.621 15.030
v -58.082 7.695 15.030
v -20.393 10.215 15.030
v -19.833 1.914 15.030
v -12.582 2.400 15.030
v -11.770 -9.516 15.030
v -65.784 -13.385 15.030
v -120.881 -17.331 15.030
v -121.811 -4.044 15.030
usemtl roof
f 102 103 104 105 106 107 108 109 110 111 112 113 114 115
usemtl teaching_building
f 101 100 99 98 97 96 95 94 93 92 91 90 89 88
f 88 89 103 102
f 89 90 104 103
f 90 91 105 104
f 91 92 106 105
f 92 93 107 106
f 93 94 108 107
f 94 95 109 108
f 95 96 110 109
f 96 97 111 110
f 97 98 112 111
f 98 99 113 112
f 99 100 114 113
f 100 101 115 114
f 101 88 102 115
o SD0895_T005_5hao
v -109.396 -37.261 0.000
v -109.865 -31.182 0.000
v -72.682 -28.363 0.000
v -72.240 -34.089 0.000
v -63.906 -33.459 0.000
v -64.267 -28.960 0.000
v -51.364 -27.932 0.000
v -50.894 -33.813 0.000
v -39.391 -32.895 0.000
v -39.806 -27.821 0.000
v -22.894 -26.473 0.000
v -22.415 -32.420 0.000
v -9.467 -31.392 0.000
v -8.465 -43.905 0.000
v -62.723 -48.216 0.000
v -116.041 -52.206 0.000
v -117.152 -37.847 0.000
v -109.396 -37.261 11.570
v -109.865 -31.182 11.570
v -72.682 -28.363 11.570
v -72.240 -34.089 11.570
v -63.906 -33.459 11.570
v -64.267 -28.960 11.570
v -51.364 -27.932 11.570
v -50.894 -33.813 11.570
v -39.391 -32.895 11.570
v -39.806 -27.821 11.570
v -22.894 -26.473 11.570
v -22.415 -32.420 11.570
v -9.467 -31.392 11.570
v -8.465 -43.905 11.570
v -62.723 -48.216 11.570
v -116.041 -52.206 11.570
v -117.152 -37.847 11.570
usemtl roof
f 133 134 135 136 137 138 139 140 141 142 143 144 145 146 147 148 149
usemtl teaching_building
f 132 131 130 129 128 127 126 125 124 123 122 121 120 119 118 117 116
f 116 117 134 133
f 117 118 135 134
f 118 119 136 135
f 119 120 137 136
f 120 121 138 137
f 121 122 139 138
f 122 123 140 139
f 123 124 141 140
f 124 125 142 141
f 125 126 143 142
f 126 127 144 143
f 127 128 145 144
f 128 129 146 145
f 129 130 147 146
f 130 131 148 147
f 131 132 149 148
f 132 116 133 149
