# school_id SD0814
# school_name 临沂外国语学校
# boundary_source footprint_convex_hull_buffer_20m
# adjacent_block_merge_distance_m 2.0
mtllib ../campus_materials.mtl
o SD0814_campus_boundary
usemtl campus_boundary
v 78.283 -170.111 0.050
v -28.909 -169.294 0.050
v -186.535 -134.075 0.050
v -197.964 -90.032 0.050
v -201.782 11.345 0.050
v -201.589 47.165 0.050
v -193.511 70.900 0.050
v -96.502 173.048 0.050
v -33.501 178.770 0.050
v 38.469 179.129 0.050
v 80.660 179.219 0.050
v 144.113 174.250 0.050
v 199.123 61.079 0.050
v 237.464 -31.611 0.050
v 244.800 -67.730 0.050
v 244.944 -92.064 0.050
v 234.516 -139.033 0.050
v 78.283 -170.111 0.050
l 1 2 3 4 5 6 7 8 9 10 11 12 13 14 15 16 17 18 1
o SD0814_T001_1hao
v 38.585 137.596 0.000
v 79.489 137.684 0.000
v 79.498 132.831 0.000
v 131.179 132.953 0.000
v 131.133 155.205 0.000
v 79.908 155.083 0.000
v 79.899 159.217 0.000
v 38.540 159.129 0.000
v 38.585 137.596 8.350
v 79.489 137.684 8.350
v 79.498 132.831 8.350
v 131.179 132.953 8.350
v 131.133 155.205 8.350
v 79.908 155.083 8.350
v 79.899 159.217 8.350
v 38.540 159.129 8.350
usemtl roof
f 27 28 29 30 31 32 33 34
usemtl teaching_building
f 26 25 24 23 22 21 20 19
f 19 20 28 27
f 20 21 29 28
f 21 22 30 29
f 22 23 31 30
f 23 24 32 31
f 24 25 33 32
f 25 26 34 33
f 26 19 27 34
o SD0814_T002_2hao
v -87.144 132.478 0.000
v -37.450 132.577 0.000
v -37.459 137.198 0.000
v 8.167 137.297 0.000
v 8.122 158.864 0.000
v -32.545 158.775 0.000
v -32.536 153.911 0.000
v -87.189 153.812 0.000
v -87.144 132.478 10.680
v -37.450 132.577 10.680
v -37.459 137.198 10.680
v 8.167 137.297 10.680
v 8.122 158.864 10.680
v -32.545 158.775 10.680
v -32.536 153.911 10.680
v -87.189 153.812 10.680
usemtl roof
f 43 44 45 46 47 48 49 50
usemtl teaching_building
f 42 41 40 39 38 37 36 35
f 35 36 44 43
f 36 37 45 44
f 37 38 46 45
f 38 39 47 46
f 39 40 48 47
f 40 41 49 48
f 41 42 50 49
f 42 35 43 50
o SD0814_T003_3hao
v 38.695 88.792 0.000
v 79.598 88.881 0.000
v 79.607 84.028 0.000
v 131.288 84.150 0.000
v 131.243 106.412 0.000
v 80.018 106.291 0.000
v 80.008 110.414 0.000
v 38.649 110.325 0.000
v 38.695 88.792 11.080
v 79.598 88.881 11.080
v 79.607 84.028 11.080
v 131.288 84.150 11.080
v 131.243 106.412 11.080
v 80.018 106.291 11.080
v 80.008 110.414 11.080
v 38.649 110.325 11.080
usemtl roof
f 59 60 61 62 63 64 65 66
usemtl teaching_building
f 58 57 56 55 54 53 52 51
f 51 52 60 59
f 52 53 61 60
f 53 54 62 61
f 54 55 63 62
f 55 56 64 63
f 56 57 65 64
f 57 58 66 65
f 58 51 59 66
o SD0814_T004_4hao
v -87.144 83.542 0.000
v -37.450 83.641 0.000
v -37.459 88.262 0.000
v 8.167 88.361 0.000
v 8.122 109.928 0.000
v -32.545 109.839 0.000
v -32.536 104.975 0.000
v -87.189 104.876 0.000
v -87.144 83.542 9.910
v -37.450 83.641 9.910
v -37.459 88.262 9.910
v 8.167 88.361 9.910
v 8.122 109.928 9.910
v -32.545 109.839 9.910
v -32.536 104.975 9.910
v -87.189 104.876 9.910
usemtl roof
f 75 76 77 78 79 80 81 82
usemtl teaching_building
f 74 73 72 71 70 69 68 67
f 67 68 76 75
f 68 69 77 76
f 69 70 78 77
f 70 71 79 78
f 71 72 80 79
f 72 73 81 80
f 73 74 82 81
f 74 67 75 82
o SD0814_T005_5hao
v -8.455 38.751 0.000
v 58.773 38.574 0.000
v 58.845 63.103 0.000
v -8.391 63.291 0.000
v -8.455 38.751 6.600
v 58.773 38.574 6.600
v 58.845 63.103 6.600
v -8.391 63.291 6.600
usemtl roof
f 87 88 89 90
usemtl teaching_building
f 86 85 84 83
f 83 84 88 87
f 84 85 89 88
f 85 86 90 89
f 86 83 87 90
o SD0814_T006_6hao
v -176.081 43.769 0.000
v -181.607 43.802 0.000
v -181.780 11.668 0.000
v -177.057 11.646 0.000
v -177.112 0.924 0.000
v -168.212 0.869 0.000
v -168.231 -2.768 0.000
v -142.490 -2.912 0.000
v -142.472 1.643 0.000
v -134.065 1.598 0.000
v -133.992 14.321 0.000
v -126.898 14.288 0.000
v -126.716 47.251 0.000
v -130.190 47.262 0.000
v -130.126 58.814 0.000
v -139.016 58.869 0.000
v -138.989 63.865 0.000
v -168.997 64.020 0.000
v -169.015 60.273 0.000
v -175.990 60.306 0.000
v -176.081 43.769 9.180
v -181.607 43.802 9.180
v -181.780 11.668 9.180
v -177.057 11.646 9.180
v -177.112 0.924 9.180
v -168.212 0.869 9.180
v -168.231 -2.768 9.180
v -142.490 -2.912 9.180
v -142.472 1.643 9.180
v -134.065 1.598 9.180
v -133.992 14.321 9.180
v -126.898 14.288 9.180
v -126.716 47.251 9.180
v -130.190 47.262 9.180
v -130.126 58.814 9.180
v -139.016 58.869 9.180
v -138.989 63.865 9.180
v -168.997 64.020 9.180
v -169.015 60.273 9.180
v -175.990 60.306 9.180
usemtl roof
f 111 112 113 114 115 116 117 118 119 120 121 122 123 124 125 126 127 128 129 130
usemtl teaching_building
f 110 109 108 107 106 105 104 103 102 101 100 99 98 97 96 95 94 93 92 91
f 91 92 112 111
f 92 93 113 112
f 93 94 114 113
f 94 95 115 114
f 95 96 116 115
f 96 97 117 116
f 97 98 118 117
f 98 99 119 118
f 99 100 120 119
f 100 101 121 120
f 101 102 122 121
f 102 103 123 122
f 103 104 124 123
f 104 105 125 124
f 105 106 126 125
f 106 107 127 126
f 107 108 128 127
f 108 109 129 128
f 109 110 130 129
f 110 91 111 130
o SD0814_T007_7hao
v 70.152 7.114 0.000
v 80.510 7.136 0.000
v 80.519 2.516 0.000
v 95.208 2.549 0.000
v 95.227 -3.011 0.000
v 147.610 -2.868 0.000
v 147.601 2.250 0.000
v 181.009 2.339 0.000
v 180.872 52.878 0.000
v 148.987 52.789 0.000
v 148.968 59.820 0.000
v 94.160 59.687 0.000
v 94.178 53.331 0.000
v 80.036 53.298 0.000
v 80.063 42.819 0.000
v 70.070 42.786 0.000
v 70.152 7.114 9.980
v 80.510 7.136 9.980
v 80.519 2.516 9.980
v 95.208 2.549 9.980
v 95.227 -3.011 9.980
v 147.610 -2.868 9.980
v 147.601 2.250 9.980
v 181.009 2.339 9.980
v 180.872 52.878 9.980
v 148.987 52.789 9.980
v 148.968 59.820 9.980
v 94.160 59.687 9.980
v 94.178 53.331 9.980
v 80.036 53.298 9.980
v 80.063 42.819 9.980
v 70.070 42.786 9.980
usemtl roof
f 147 148 149 150 151 152 153 154 155 156 157 158 159 160 161 162
usemtl teaching_building
f 146 145 144 143 142 141 140 139 138 137 136 135 134 133 132 131
f 131 132 148 147
f 132 133 149 148
f 133 134 150 149
f 134 135 151 150
f 135 136 152 151
f 136 137 153 152
f 137 138 154 153
f 138 139 155 154
f 139 140 156 155
f 140 141 157 156
f 141 142 158 157
f 142 143 159 158
f 143 144 160 159
f 144 145 161 160
f 145 146 162 161
f 146 131 147 162
o SD0814_T008_8hao
v -116.112 40.464 0.000
v -116.066 11.613 0.000
v -107.076 11.635 0.000
v -107.058 3.621 0.000
v -82.813 3.654 0.000
v -82.804 -0.071 0.000
v -58.285 -0.016 0.000
v -58.294 3.997 0.000
v -29.609 4.063 0.000
v -29.618 9.413 0.000
v -21.767 9.425 0.000
v -21.858 42.664 0.000
v -31.241 42.642 0.000
v -31.259 49.374 0.000
v -55.577 49.318 0.000
v -55.595 54.149 0.000
v -87.618 54.083 0.000
v -87.609 49.871 0.000
v -109.912 49.827 0.000
v -109.893 40.475 0.000
v -116.112 40.464 6.600
v -116.066 11.613 6.600
v -107.076 11.635 6.600
v -107.058 3.621 6.600
v -82.813 3.654 6.600
v -82.804 -0.071 6.600
v -58.285 -0.016 6.600
v -58.294 3.997 6.600
v -29.609 4.063 6.600
v -29.618 9.413 6.600
v -21.767 9.425 6.600
v -21.858 42.664 6.600
v -31.241 42.642 6.600
v -31.259 49.374 6.600
v -55.577 49.318 6.600
v -55.595 54.149 6.600
v -87.618 54.083 6.600
v -87.609 49.871 6.600
v -109.912 49.827 6.600
v -109.893 40.475 6.600
usemtl roof
f 183 184 185 186 187 188 189 190 191 192 193 194 195 196 197 198 199 200 201 202
usemtl teaching_building
f 182 181 180 179 178 177 176 175 174 173 172 171 170 169 168 167 166 165 164 163
f 163 164 184 183
f 164 165 185 184
f 165 166 186 185
f 166 167 187 186
f 167 168 188 187
f 168 169 189 188
f 169 170 190 189
f 170 171 191 190
f 171 172 192 191
f 172 173 193 192
f 173 174 194 193
f 174 175 195 194
f 175 176 196 195
f 176 177 197 196
f 177 178 198 197
f 178 179 199 198
f 179 180 200 199
f 180 181 201 200
f 181 182 202 201
f 182 163 183 202
o SD0814_T009_9hao
v -173.802 -59.829 0.000
v -165.048 -59.762 0.000
v -164.985 -68.528 0.000
v -173.091 -68.584 0.000
v -173.054 -73.503 0.000
v -178.160 -73.547 0.000
v -178.060 -87.110 0.000
v -172.379 -87.066 0.000
v -172.343 -91.974 0.000
v -161.192 -91.885 0.000
v -161.119 -101.823 0.000
v -170.364 -101.889 0.000
v -170.246 -117.221 0.000
v -113.021 -116.801 0.000
v -113.130 -102.685 0.000
v -28.934 -102.066 0.000
v -29.126 -75.968 0.000
v -33.393 -76.001 0.000
v -33.457 -67.014 0.000
v -16.734 -66.892 0.000
v -16.652 -78.101 0.000
v 8.915 -77.924 0.000
v 8.961 -83.739 0.000
v 31.510 -83.595 0.000
v 31.464 -77.548 0.000
v 58.499 -77.383 0.000
v 58.435 -67.633 0.000
v 76.799 -67.522 0.000
v 76.835 -73.901 0.000
v 71.884 -73.934 0.000
v 72.067 -104.940 0.000
v 142.330 -104.542 0.000
v 142.385 -113.452 0.000
v 150.290 -113.408 0.000
v 150.336 -122.317 0.000
v 217.819 -121.963 0.000
v 217.691 -98.474 0.000
v 210.379 -98.518 0.000
v 210.351 -93.787 0.000
v 217.554 -93.754 0.000
v 217.527 -89.973 0.000
v 224.931 -89.929 0.000
v 224.812 -69.799 0.000
v 217.992 -69.844 0.000
v 217.974 -66.516 0.000
v 211.445 -66.561 0.000
v 211.418 -61.432 0.000
v 218.402 -61.387 0.000
v 218.247 -37.478 0.000
v 146.443 -37.942 0.000
v 146.388 -29.209 0.000
v 71.401 -29.696 0.000
v 71.538 -51.372 0.000
v 76.197 -51.350 0.000
v 76.243 -56.933 0.000
v 59.010 -57.054 0.000
v 58.937 -47.194 0.000
v 33.406 -47.371 0.000
v 33.361 -40.175 0.000
v 7.593 -40.363 0.000
v 7.638 -47.382 0.000
v -19.005 -47.570 0.000
v -18.922 -59.652 0.000
v -32.682 -59.740 0.000
v -32.745 -51.958 0.000
v -27.521 -51.925 0.000
v -27.676 -30.646 0.000
v -101.231 -31.177 0.000
v -101.167 -39.047 0.000
v -173.957 -39.578 0.000
v -173.802 -59.829 9.140
v -165.048 -59.762 9.140
v -164.985 -68.528 9.140
v -173.091 -68.584 9.140
v -173.054 -73.503 9.140
v -178.160 -73.547 9.140
v -178.060 -87.110 9.140
v -172.379 -87.066 9.140
v -172.343 -91.974 9.140
v -161.192 -91.885 9.140
v -161.119 -101.823 9.140
v -170.364 -101.889 9.140
v -170.246 -117.221 9.140
v -113.021 -116.801 9.140
v -113.130 -102.685 9.140
v -28.934 -102.066 9.140
v -29.126 -75.968 9.140
v -33.393 -76.001 9.140
v -33.457 -67.014 9.140
v -16.734 -66.892 9.140
v -16.652 -78.101 9.140
v 8.915 -77.924 9.140
v 8.961 -83.739 9.140
v 31.510 -83.595 9.140
v 31.464 -77.548 9.140
v 58.499 -77.383 9.140
v 58.435 -67.633 9.140
v 76.799 -67.522 9.140
v 76.835 -73.901 9.140
v 71.884 -73.934 9.140
v 72.067 -104.940 9.140
v 142.330 -104.542 9.140
v 142.385 -113.452 9.140
v 150.290 -113.408 9.140
v 150.336 -122.317 9.140
v 217.819 -121.963 9.140
v 217.691 -98.474 9.140
v 210.379 -98.518 9.140
v 210.351 -93.787 9.140
v 217.554 -93.754 9.140
v 217.527 -89.973 9.140
v 224.931 -89.929 9.140
v 224.812 -69.799 9.140
v 217.992 -69.844 9.140
v 217.974 -66.516 9.140
v 211.445 -66.561 9.140
v 211.418 -61.432 9.140
v 218.402 -61.387 9.140
v 218.247 -37.478 9.140
v 146.443 -37.942 9.140
v 146.388 -29.209 9.140
v 71.401 -29.696 9.140
v 71.538 -51.372 9.140
v 76.197 -51.350 9.140
v 76.243 -56.933 9.140
v 59.010 -57.054 9.140
v 58.937 -47.194 9.140
v 33.406 -47.371 9.140
v 33.361 -40.175 9.140
v 7.593 -40.363 9.140
v 7.638 -47.382 9.140
v -19.005 -47.570 9.140
v -18.922 -59.652 9.140
v -32.682 -59.740 9.140
v -32.745 -51.958 9.140
v -27.521 -51.925 9.140
v -27.676 -30.646 9.140
v -101.231 -31.177 9.140
v -101.167 -39.047 9.140
v -173.957 -39.578 9.140
usemtl roof
f 273 274 275 276 277 278 279 280 281 282 283 284 285 286 287 288 289 290 291 292 293 294 295 296 297 298 299 300 301 302 303 304 305 306 307 308 309 310 311 312 313 314 315 316 317 318 319 320 321 322 323 324 325 326 327 328 329 330 331 332 333 334 335 336 337 338 339 340 341 342
usemtl teaching_building
f 272 271 270 269 268 267 266 265 264 263 262 261 260 259 258 257 256 255 254 253 252 251 250 249 248 247 246 245 244 243 242 241 240 239 238 237 236 235 234 233 232 231 230 229 228 227 226 225 224 223 222 221 220 219 218 217 216 215 214 213 212 211 210 209 208 207 206 205 204 203
f 203 204 274 273
f 204 205 275 274
f 205 206 276 275
f 206 207 277 276
f 207 208 278 277
f 208 209 279 278
f 209 210 280 279
f 210 211 281 280
f 211 212 282 281
f 212 213 283 282
f 213 214 284 283
f 214 215 285 284
f 215 216 286 285
f 216 217 287 286
f 217 218 288 287
f 218 219 289 288
f 219 220 290 289
f 220 221 291 290
f 221 222 292 291
f 222 223 293 292
f 223 224 294 293
f 224 225 295 294
f 225 226 296 295
f 226 227 297 296
f 227 228 298 297
f 228 229 299 298
f 229 230 300 299
f 230 231 301 300
f 231 232 302 301
f 232 233 303 302
f 233 234 304 303
f 234 235 305 304
f 235 236 306 305
f 236 237 307 306
f 237 238 308 307
f 238 239 309 308
f 239 240 310 309
f 240 241 311 310
f 241 242 312 311
f 242 243 313 312
f 243 244 314 313
f 244 245 315 314
f 245 246 316 315
f 246 247 317 316
f 247 248 318 317
f 248 249 319 318
f 249 250 320 319
f 250 251 321 320
f 251 252 322 321
f 252 253 323 322
f 253 254 324 323
f 254 255 325 324
f 255 256 326 325
f 256 257 327 326
f 257 258 328 327
f 258 259 329 328
f 259 260 330 329
f 260 261 331 330
f 261 262 332 331
f 262 263 333 332
f 263 264 334 333
f 264 265 335 334
f 265 266 336 335
f 266 267 337 336
f 267 268 338 337
f 268 269 339 338
f 269 270 340 339
f 270 271 341 340
f 271 272 342 341
f 272 203 273 342
o SD0814_T010_10hao
v -26.627 -149.311 0.000
v 76.389 -150.096 0.000
v 76.471 -140.357 0.000
v -26.554 -139.594 0.000
v -26.627 -149.311 6.600
v 76.389 -150.096 6.600
v 76.471 -140.357 6.600
v -26.554 -139.594 6.600
usemtl roof
f 347 348 349 350
usemtl teaching_building
f 346 345 344 343
f 343 344 348 347
f 344 345 349 348
f 345 346 350 349
f 346 343 347 350
