# school_id SD0840
# school_name 临沂第九中学南校区
# boundary_source footprint_convex_hull_buffer_20m
# adjacent_block_merge_distance_m 2.0
mtllib ../campus_materials.mtl
o SD0840_campus_boundary
usemtl campus_boundary
v 17.985 -91.455 0.050
v -72.481 -63.699 0.050
v -73.262 -32.778 0.050
v -73.485 22.091 0.050
v -12.347 119.667 0.050
v 20.223 119.447 0.050
v 38.193 76.114 0.050
v 50.840 36.497 0.050
v 62.681 -51.248 0.050
v 63.661 -90.323 0.050
v 17.985 -91.455 0.050
l 1 2 3 4 5 6 7 8 9 10 11 1
o SD0840_T001_1hao
v 23.079 29.509 0.000
v 31.254 32.085 0.000
v 19.396 69.230 0.000
v 11.221 66.654 0.000
v 23.079 29.509 9.900
v 31.254 32.085 9.900
v 19.396 69.230 9.900
v 11.221 66.654 9.900
usemtl roof
f 16 17 18 19
usemtl teaching_building
f 15 14 13 12
f 12 13 17 16
f 13 14 18 17
f 14 15 19 18
f 15 12 16 19
o SD0840_T002_2hao
v -53.080 1.509 0.000
v 16.570 3.288 0.000
v 17.548 -34.348 0.000
v -10.897 -35.080 0.000
v -11.050 -28.918 0.000
v -30.036 -29.409 0.000
v -29.861 -36.201 0.000
v -44.286 -36.562 0.000
v -44.393 -32.263 0.000
v -53.263 -32.485 0.000
v -52.851 -48.802 0.000
v 20.130 -46.986 0.000
v 20.741 -71.381 0.000
v 43.166 -70.825 0.000
v 42.715 -52.841 0.000
v 38.910 -52.934 0.000
v 38.520 -37.146 0.000
v 30.910 -37.331 0.000
v 29.994 -0.335 0.000
v 26.212 -0.427 0.000
v 25.830 14.990 0.000
v 15.951 14.749 0.000
v 15.859 18.344 0.000
v -3.494 17.853 0.000
v -3.372 12.961 0.000
v -44.286 11.933 0.000
v -44.416 16.612 0.000
v -53.462 16.380 0.000
v -53.080 1.509 9.900
v 16.570 3.288 9.900
v 17.548 -34.348 9.900
v -10.897 -35.080 9.900
v -11.050 -28.918 9.900
v -30.036 -29.409 9.900
v -29.861 -36.201 9.900
v -44.286 -36.562 9.900
v -44.393 -32.263 9.900
v -53.263 -32.485 9.900
v -52.851 -48.802 9.900
v 20.130 -46.986 9.900
v 20.741 -71.381 9.900
v 43.166 -70.825 9.900
v 42.715 -52.841 9.900
v 38.910 -52.934 9.900
v 38.520 -37.146 9.900
v 30.910 -37.331 9.900
v 29.994 -0.335 9.900
v 26.212 -0.427 9.900
v 25.830 14.990 9.900
v 15.951 14.749 9.900
v 15.859 18.344 9.900
v -3.494 17.853 9.900
v -3.372 12.961 9.900
v -44.286 11.933 9.900
v -44.416 16.612 9.900
v -53.462 16.380 9.900
usemtl roof
f 48 49 50 51 52 53 54 55 56 57 58 59 60 61 62 63 64 65 66 67 68 69 70 71 72 73 74 75
usemtl teaching_building
f 47 46 45 44 43 42 41 40 39 38 37 36 35 34 33 32 31 30 29 28 27 26 25 24 23 22 21 20
f 20 21 49 48
f 21 22 50 49
f 22 23 51 50
f 23 24 52 51
f 24 25 53 52
f 25 26 54 53
f 26 27 55 54
f 27 28 56 55
f 28 29 57 56
f 29 30 58 57
f 30 31 59 58
f 31 32 60 59
f 32 33 61 60
f 33 34 62 61
f 34 35 63 62
f 35 36 64 63
f 36 37 65 64
f 37 38 66 65
f 38 39 67 66
f 39 40 68 67
f 40 41 69 68
f 41 42 70 69
f 42 43 71 70
f 43 44 72 71
f 44 45 73 72
f 45 46 74 73
f 46 47 75 74
f 47 20 48 75
