# school_id SD0817
# school_name 临沂市人民警察训练基地
# boundary_source footprint_convex_hull_buffer_20m
# adjacent_block_merge_distance_m 2.0
mtllib ../campus_materials.mtl
o SD0817_campus_boundary
usemtl campus_boundary
v -84.600 -61.227 0.050
v -85.054 55.379 0.050
v -7.541 55.680 0.050
v 86.089 54.927 0.050
v 86.519 -60.561 0.050
v -84.600 -61.227 0.050
l 1 2 3 4 5 6 1
o SD0817_T001_1hao
v -64.678 -41.149 0.000
v 66.445 -40.639 0.000
v 66.163 35.087 0.000
v 5.855 34.855 0.000
v 6.099 -29.623 0.000
v -7.324 -29.669 0.000
v -7.583 35.680 0.000
v -64.976 35.457 0.000
v -64.678 -41.149 6.600
v 66.445 -40.639 6.600
v 66.163 35.087 6.600
v 5.855 34.855 6.600
v 6.099 -29.623 6.600
v -7.324 -29.669 6.600
v -7.583 35.680 6.600
v -64.976 35.457 6.600
usemtl roof
f 15 16 17 18 19 20 21 22
usemtl teaching_building
f 14 13 12 11 10 9 8 7
f 7 8 16 15
f 8 9 17 16
f 9 10 18 17
f 10 11 19 18
f 11 12 20 19
f 12 13 21 20
f 13 14 22 21
f 14 7 15 22
