# school_id SD0865
# school_name 北城小学
# boundary_source footprint_convex_hull_buffer_20m
# adjacent_block_merge_distance_m 2.0
mtllib ../campus_materials.mtl
o SD0865_campus_boundary
usemtl campus_boundary
v -98.401 -88.850 0.050
v -98.535 -46.534 0.050
v -96.231 -0.097 0.050
v -90.971 40.077 0.050
v 41.390 120.247 0.050
v 112.658 120.132 0.050
v 112.581 68.561 0.050
v 103.401 -31.980 0.050
v 31.293 -87.587 0.050
v -33.433 -88.622 0.050
v -98.401 -88.850 0.050
l 1 2 3 4 5 6 7 8 9 10 11 1
o SD0865_T001_1hao
v 92.582 69.487 0.000
v 92.628 100.164 0.000
v 46.960 100.238 0.000
v 46.906 69.561 0.000
v 92.582 69.487 6.600
v 92.628 100.164 6.600
v 46.960 100.238 6.600
v 46.906 69.561 6.600
usemtl roof
f 16 17 18 19
usemtl teaching_building
f 15 14 13 12
f 12 13 17 16
f 13 14 18 17
f 14 15 19 18
f 15 12 16 19
o SD0865_T002_2hao
v 42.838 28.682 0.000
v 85.208 29.544 0.000
v 84.850 46.861 0.000
v 42.479 46.008 0.000
v 42.838 28.682 9.210
v 85.208 29.544 9.210
v 84.850 46.861 9.210
v 42.479 46.008 9.210
usemtl roof
f 24 25 26 27
usemtl teaching_building
f 23 22 21 20
f 20 21 25 24
f 21 22 26 25
f 22 23 27 26
f 23 20 24 27
o SD0865_T003_3hao
v -72.114 7.344 0.000
v -39.315 7.779 0.000
v -39.590 28.376 0.000
v -72.388 27.950 0.000
v -72.114 7.344 9.900
v -39.315 7.779 9.900
v -39.590 28.376 9.900
v -72.388 27.950 9.900
usemtl roof
f 32 33 34 35
usemtl teaching_building
f 31 30 29 28
f 28 29 33 32
f 29 30 34 33
f 30 31 35 34
f 31 28 32 35
o SD0865_T004_4hao
v 84.277 -21.471 0.000
v 84.315 -2.672 0.000
v -21.813 -2.468 0.000
v -21.851 -21.258 0.000
v 84.277 -21.471 9.900
v 84.315 -2.672 9.900
v -21.813 -2.468 9.900
v -21.851 -21.258 9.900
usemtl roof
f 40 41 42 43
usemtl teaching_building
f 39 38 37 36
f 36 37 41 40
f 37 38 42 41
f 38 39 43 42
f 39 36 40 43
o SD0865_T005_5hao
v -76.212 -22.509 0.000
v -33.987 -22.342 0.000
v -34.071 -1.746 0.000
v -76.296 -1.894 0.000
v -76.212 -22.509 9.900
v -33.987 -22.342 9.900
v -34.071 -1.746 9.900
v -76.296 -1.894 9.900
usemtl roof
f 48 49 50 51
usemtl teaching_building
f 47 46 45 44
f 44 45 49 48
f 45 46 50 49
f 46 47 51 50
f 47 44 48 51
o SD0865_T006_6hao
v -78.464 -68.780 0.000
v -33.628 -68.623 0.000
v -33.712 -46.840 0.000
v -78.533 -46.998 0.000
v -78.464 -68.780 9.900
v -33.628 -68.623 9.900
v -33.712 -46.840 9.900
v -78.533 -46.998 9.900
usemtl roof
f 56 57 58 59
usemtl teaching_building
f 55 54 53 52
f 52 53 57 56
f 53 54 58 57
f 54 55 59 58
f 55 52 56 59
o SD0865_T007_7hao
v -19.614 -68.299 0.000
v 24.336 -67.696 0.000
v 24.084 -48.897 0.000
v -19.874 -49.499 0.000
v -19.614 -68.299 9.900
v 24.336 -67.696 9.900
v 24.084 -48.897 9.900
v -19.874 -49.499 9.900
usemtl roof
f 64 65 66 67
usemtl teaching_building
f 63 62 61 60
f 60 61 65 64
f 61 62 66 65
f 62 63 67 66
f 63 60 64 67
