# school_id SD0871
# school_name 山东省临沂卫生学校
# boundary_source footprint_convex_hull_buffer_20m
# adjacent_block_merge_distance_m 2.0
mtllib ../campus_materials.mtl
o SD0871_campus_boundary
usemtl campus_boundary
v -125.964 -191.035 0.050
v -128.794 -98.357 0.050
v -128.641 -42.599 0.050
v -128.558 -18.685 0.050
v -41.442 184.429 0.050
v 39.853 184.190 0.050
v 132.854 138.877 0.050
v 132.854 76.407 0.050
v 132.801 56.715 0.050
v 131.126 -189.650 0.050
v -20.759 -191.035 0.050
v -125.964 -191.035 0.050
l 1 2 3 4 5 6 7 8 9 10 11 12 1
o SD0871_T001_1hao
v 35.144 144.580 0.000
v 35.212 164.204 0.000
v -28.275 164.390 0.000
v -28.328 144.766 0.000
v 35.144 144.580 9.900
v 35.212 164.204 9.900
v -28.275 164.390 9.900
v -28.328 144.766 9.900
usemtl roof
f 17 18 19 20
usemtl teaching_building
f 16 15 14 13
f 13 14 18 17
f 14 15 19 18
f 15 16 20 19
f 16 13 17 20
o SD0871_T002_2hao
v 34.533 107.602 0.000
v 34.602 127.226 0.000
v -28.878 127.412 0.000
v -28.939 107.778 0.000
v 34.533 107.602 9.900
v 34.602 127.226 9.900
v -28.878 127.412 9.900
v -28.939 107.778 9.900
usemtl roof
f 25 26 27 28
usemtl teaching_building
f 24 23 22 21
f 21 22 26 25
f 22 23 27 26
f 23 24 28 27
f 24 21 25 28
o SD0871_T003_3hao
v 112.801 106.750 0.000
v 112.854 126.374 0.000
v 49.383 126.559 0.000
v 49.322 106.944 0.000
v 112.801 106.750 9.900
v 112.854 126.374 9.900
v 49.383 126.559 9.900
v 49.322 106.944 9.900
usemtl roof
f 33 34 35 36
usemtl teaching_building
f 32 31 30 29
f 29 30 34 33
f 30 31 35 34
f 31 32 36 35
f 32 29 33 36
o SD0871_T004_4hao
v 36.128 56.810 0.000
v 36.182 76.434 0.000
v -27.290 76.619 0.000
v -27.351 56.986 0.000
v 36.128 56.810 9.900
v 36.182 76.434 9.900
v -27.290 76.619 9.900
v -27.351 56.986 9.900
usemtl roof
f 41 42 43 44
usemtl teaching_building
f 40 39 38 37
f 37 38 42 41
f 38 39 43 42
f 39 40 44 43
f 40 37 41 44
o SD0871_T005_5hao
v 112.801 56.810 0.000
v 112.854 76.434 0.000
v 49.383 76.619 0.000
v 49.322 56.986 0.000
v 112.801 56.810 9.900
v 112.854 76.434 9.900
v 49.383 76.619 9.900
v 49.322 56.986 9.900
usemtl roof
f 49 50 51 52
usemtl teaching_building
f 48 47 46 45
f 45 46 50 49
f 46 47 51 50
f 47 48 52 51
f 48 45 49 52
o SD0871_T006_6hao
v 38.860 -10.142 0.000
v 110.161 -9.679 0.000
v 109.886 30.811 0.000
v 38.593 30.348 0.000
v 38.860 -10.142 9.900
v 110.161 -9.679 9.900
v 109.886 30.811 9.900
v 38.593 30.348 9.900
usemtl roof
f 57 58 59 60
usemtl teaching_building
f 56 55 54 53
f 53 54 58 57
f 54 55 59 58
f 55 56 60 59
f 56 53 57 60
o SD0871_T007_7hao
v -26.436 -11.930 0.000
v 26.307 -11.754 0.000
v 26.231 7.870 0.000
v -26.504 7.713 0.000
v -26.436 -11.930 9.900
v 26.307 -11.754 9.900
v 26.231 7.870 9.900
v -26.504 7.713 9.900
usemtl roof
f 65 66 67 68
usemtl teaching_building
f 64 63 62 61
f 61 62 66 65
f 62 63 67 66
f 63 64 68 67
f 64 61 65 68
o SD0871_T008_8hao
v -43.803 -98.302 0.000
v -43.696 -67.383 0.000
v -37.790 -67.392 0.000
v -37.721 -46.916 0.000
v -45.535 -46.888 0.000
v -45.444 -23.039 0.000
v -108.572 -22.826 0.000
v -108.641 -42.654 0.000
v -50.259 -42.849 0.000
v -50.274 -49.195 0.000
v -54.684 -49.186 0.000
v -54.753 -70.608 0.000
v -49.900 -70.635 0.000
v -49.931 -76.222 0.000
v -108.717 -76.028 0.000
v -108.793 -98.079 0.000
v -43.803 -98.302 9.900
v -43.696 -67.383 9.900
v -37.790 -67.392 9.900
v -37.721 -46.916 9.900
v -45.535 -46.888 9.900
v -45.444 -23.039 9.900
v -108.572 -22.826 9.900
v -108.641 -42.654 9.900
v -50.259 -42.849 9.900
v -50.274 -49.195 9.900
v -54.684 -49.186 9.900
v -54.753 -70.608 9.900
v -49.900 -70.635 9.900
v -49.931 -76.222 9.900
v -108.717 -76.028 9.900
v -108.793 -98.079 9.900
usemtl roof
f 85 86 87 88 89 90 91 92 93 94 95 96 97 98 99 100
usemtl teaching_building
f 84 83 82 81 80 79 78 77 76 75 74 73 72 71 70 69
f 69 70 86 85
f 70 71 87 86
f 71 72 88 87
f 72 73 89 88
f 73 74 90 89
f 74 75 91 90
f 75 76 92 91
f 76 77 93 92
f 77 78 94 93
f 78 79 95 94
f 79 80 96 95
f 80 81 97 96
f 81 82 98 97
f 82 83 99 98
f 83 84 100 99
f 84 69 85 100
o SD0871_T009_9hao
v 111.260 -169.830 0.000
v 111.481 -98.070 0.000
v 21.134 -97.792 0.000
v 20.913 -169.552 0.000
v 111.260 -169.830 9.900
v 111.481 -98.070 9.900
v 21.134 -97.792 9.900
v 20.913 -169.552 9.900
usemtl roof
f 105 106 107 108
usemtl teaching_building
f 104 103 102 101
f 101 102 106 105
f 102 103 107 106
f 103 104 108 107
f 104 101 105 108
o SD0871_T010_10hao
v -20.850 -171.035 0.000
v -20.850 -148.001 0.000
v -106.565 -148.001 0.000
v -106.565 -171.035 0.000
v -20.850 -171.035 9.900
v -20.850 -148.001 9.900
v -106.565 -148.001 9.900
v -106.565 -171.035 9.900
usemtl roof
f 113 114 115 116
usemtl teaching_building
f 112 111 110 109
f 109 110 114 113
f 110 111 115 114
f 111 112 116 115
f 112 109 113 116
