# school_id SD0818
# school_name 临沂市兰山区中小学生综合实践基地
# boundary_source footprint_convex_hull_buffer_20m
# adjacent_block_merge_distance_m 2.0
mtllib ../campus_materials.mtl
o SD0818_campus_boundary
usemtl campus_boundary
v -5.860 -292.399 0.050
v -55.971 -288.635 0.050
v -137.851 -279.323 0.050
v -118.814 -58.488 0.050
v -42.310 254.360 0.050
v 41.218 248.324 0.050
v 146.003 240.740 0.050
v 148.544 174.226 0.050
v 149.289 142.582 0.050
v 146.817 95.031 0.050
v -5.860 -292.399 0.050
l 1 2 3 4 5 6 7 8 9 10 11 1
o SD0818_T001_1hao
v 38.313 215.747 0.000
v 39.777 228.376 0.000
v -26.897 233.194 0.000
v -28.177 221.140 0.000
v 38.313 215.747 9.900
v 39.777 228.376 9.900
v -26.897 233.194 9.900
v -28.177 221.140 9.900
usemtl roof
f 16 17 18 19
usemtl teaching_building
f 15 14 13 12
f 12 13 17 16
f 13 14 18 17
f 14 15 19 18
f 15 12 16 19
o SD0818_T002_2hao
v 126.594 208.974 0.000
v 126.701 222.085 0.000
v 67.131 226.393 0.000
v 66.117 212.847 0.000
v 126.594 208.974 9.900
v 126.701 222.085 9.900
v 67.131 226.393 9.900
v 66.117 212.847 9.900
usemtl roof
f 24 25 26 27
usemtl teaching_building
f 23 22 21 20
f 20 21 25 24
f 21 22 26 25
f 22 23 27 26
f 23 20 24 27
o SD0818_T003_3hao
v 32.452 156.662 0.000
v 33.428 177.973 0.000
v -27.049 181.845 0.000
v -29.001 160.535 0.000
v 32.452 156.662 9.900
v 33.428 177.973 9.900
v -27.049 181.845 9.900
v -29.001 160.535 9.900
usemtl roof
f 32 33 34 35
usemtl teaching_building
f 31 30 29 28
f 28 29 33 32
f 29 30 34 33
f 30 31 35 34
f 31 28 32 35
o SD0818_T004_4hao
v 127.577 151.335 0.000
v 128.553 173.609 0.000
v 71.483 176.518 0.000
v 70.499 156.180 0.000
v 127.577 151.335 9.900
v 128.553 173.609 9.900
v 71.483 176.518 9.900
v 70.499 156.180 9.900
usemtl roof
f 40 41 42 43
usemtl teaching_building
f 39 38 37 36
f 36 37 41 40
f 37 38 42 41
f 38 39 43 42
f 39 36 40 43
o SD0818_T005_5hao
v 14.122 106.083 0.000
v 14.458 112.809 0.000
v 8.017 113.124 0.000
v 9.267 138.595 0.000
v 16.424 138.233 0.000
v 16.958 148.981 0.000
v -25.982 151.075 0.000
v -28.101 108.140 0.000
v 14.122 106.083 9.900
v 14.458 112.809 9.900
v 8.017 113.124 9.900
v 9.267 138.595 9.900
v 16.424 138.233 9.900
v 16.958 148.981 9.900
v -25.982 151.075 9.900
v -28.101 108.140 9.900
usemtl roof
f 52 53 54 55 56 57 58 59
usemtl teaching_building
f 51 50 49 48 47 46 45 44
f 44 45 53 52
f 45 46 54 53
f 46 47 55 54
f 47 48 56 55
f 48 49 57 56
f 49 50 58 57
f 50 51 59 58
f 51 44 52 59
o SD0818_T006_6hao
v 127.013 99.328 0.000
v 129.277 142.866 0.000
v 85.461 145.127 0.000
v 83.205 101.570 0.000
v 127.013 99.328 9.900
v 129.277 142.866 9.900
v 85.461 145.127 9.900
v 83.205 101.570 9.900
usemtl roof
f 64 65 66 67
usemtl teaching_building
f 63 62 61 60
f 60 61 65 64
f 61 62 66 65
f 62 63 67 66
f 63 60 64 67
o SD0818_T007_7hao
v 94.012 24.798 0.000
v 95.430 52.529 0.000
v 77.465 53.428 0.000
v 77.092 46.089 0.000
v 54.166 47.248 0.000
v 54.463 52.937 0.000
v 25.783 54.391 0.000
v 25.326 45.561 0.000
v 6.607 46.516 0.000
v 6.950 53.103 0.000
v -6.547 53.770 0.000
v -7.759 29.940 0.000
v 94.012 24.798 9.900
v 95.430 52.529 9.900
v 77.465 53.428 9.900
v 77.092 46.089 9.900
v 54.166 47.248 9.900
v 54.463 52.937 9.900
v 25.783 54.391 9.900
v 25.326 45.561 9.900
v 6.607 46.516 9.900
v 6.950 53.103 9.900
v -6.547 53.770 9.900
v -7.759 29.940 9.900
usemtl roof
f 80 81 82 83 84 85 86 87 88 89 90 91
usemtl teaching_building
f 79 78 77 76 75 74 73 72 71 70 69 68
f 68 69 81 80
f 69 70 82 81
f 70 71 83 82
f 71 72 84 83
f 72 73 85 84
f 73 74 86 85
f 74 75 87 86
f 75 76 88 87
f 76 77 89 88
f 77 78 90 89
f 78 79 91 90
f 79 68 80 91
o SD0818_T008_8hao
v -1.723 -75.426 0.000
v -0.252 -55.385 0.000
v -36.843 -52.939 0.000
v -38.154 -72.980 0.000
v -1.723 -75.426 9.900
v -0.252 -55.385 9.900
v -36.843 -52.939 9.900
v -38.154 -72.980 9.900
usemtl roof
f 96 97 98 99
usemtl teaching_building
f 95 94 93 92
f 92 93 97 96
f 93 94 98 97
f 94 95 99 98
f 95 92 96 99
o SD0818_T009_9hao
v -52.102 -104.102 0.000
v -49.305 -64.669 0.000
v -99.020 -61.741 0.000
v -101.650 -101.007 0.000
v -52.102 -104.102 9.900
v -49.305 -64.669 9.900
v -99.020 -61.741 9.900
v -101.650 -101.007 9.900
usemtl roof
f 104 105 106 107
usemtl teaching_building
f 103 102 101 100
f 100 101 105 104
f 101 102 106 105
f 102 103 107 106
f 103 100 104 107
o SD0818_T010_10hao
v -71.133 -146.306 0.000
v -68.503 -108.660 0.000
v -102.305 -106.705 0.000
v -104.439 -144.666 0.000
v -71.133 -146.306 9.900
v -68.503 -108.660 9.900
v -102.305 -106.705 9.900
v -104.439 -144.666 9.900
usemtl roof
f 112 113 114 115
usemtl teaching_building
f 111 110 109 108
f 108 109 113 112
f 109 110 114 113
f 110 111 115 114
f 111 108 112 115
o SD0818_T011_11hao
v 3.361 -166.337 0.000
v 5.335 -140.431 0.000
v -41.927 -136.855 0.000
v -44.053 -163.243 0.000
v 3.361 -166.337 9.900
v 5.335 -140.431 9.900
v -41.927 -136.855 9.900
v -44.053 -163.243 9.900
usemtl roof
f 120 121 122 123
usemtl teaching_building
f 119 118 117 116
f 116 117 121 120
f 117 118 122 121
f 118 119 123 122
f 119 116 120 123
o SD0818_T012_12hao
v -56.202 -170.081 0.000
v -55.547 -159.657 0.000
v -105.582 -156.396 0.000
v -106.733 -166.828 0.000
v -56.202 -170.081 9.900
v -55.547 -159.657 9.900
v -105.582 -156.396 9.900
v -106.733 -166.828 9.900
usemtl roof
f 128 129 130 131
usemtl teaching_building
f 127 126 125 124
f 124 125 129 128
f 125 126 130 129
f 126 127 131 130
f 127 124 128 131
o SD0818_T013_13hao
v -21.082 -222.393 0.000
v -18.628 -181.004 0.000
v -41.431 -179.698 0.000
v -43.886 -220.920 0.000
v -21.082 -222.393 9.900
v -18.628 -181.004 9.900
v -41.431 -179.698 9.900
v -43.886 -220.920 9.900
usemtl roof
f 136 137 138 139
usemtl teaching_building
f 135 134 133 132
f 132 133 137 136
f 133 134 138 137
f 134 135 139 138
f 135 132 136 139
o SD0818_T014_14hao
v -19.062 -271.351 0.000
v -14.695 -231.343 0.000
v -50.128 -228.082 0.000
v -54.091 -268.720 0.000
v -19.062 -271.351 9.900
v -14.695 -231.343 9.900
v -50.128 -228.082 9.900
v -54.091 -268.720 9.900
usemtl roof
f 144 145 146 147
usemtl teaching_building
f 143 142 141 140
f 140 141 145 144
f 141 142 146 145
f 142 143 147 146
f 143 140 144 147
o SD0818_T015_15hao
v -76.049 -264.902 0.000
v -74.250 -244.055 0.000
v -114.279 -241.127 0.000
v -116.253 -261.650 0.000
v -76.049 -264.902 9.900
v -74.250 -244.055 9.900
v -114.279 -241.127 9.900
v -116.253 -261.650 9.900
usemtl roof
f 152 153 154 155
usemtl teaching_building
f 151 150 149 148
f 148 149 153 152
f 149 150 154 153
f 150 151 155 154
f 151 148 152 155
