# school_id SD0833
# school_name 临沂第三十九中学
# boundary_source footprint_convex_hull_buffer_20m
# adjacent_block_merge_distance_m 2.0
mtllib ../campus_materials.mtl
o SD0833_campus_boundary
usemtl campus_boundary
v -91.873 -149.629 0.050
v -101.515 -42.829 0.050
v -103.531 -18.155 0.050
v -79.106 69.276 0.050
v 1.815 141.278 0.050
v 64.515 147.287 0.050
v 145.569 -9.482 0.050
v 146.629 -33.769 0.050
v -4.134 -142.374 0.050
v -91.873 -149.629 0.050
l 1 2 3 4 5 6 7 8 9 10 1
o SD0833_T001_1hao
v 13.137 92.029 0.000
v 55.861 96.115 0.000
v 52.960 126.088 0.000
v 10.228 121.993 0.000
v 13.137 92.029 9.900
v 55.861 96.115 9.900
v 52.960 126.088 9.900
v 10.228 121.993 9.900
usemtl roof
f 15 16 17 18
usemtl teaching_building
f 14 13 12 11
f 11 12 16 15
f 12 13 17 16
f 13 14 18 17
f 14 11 15 18
o SD0833_T002_2hao
v -59.752 37.289 0.000
v 46.081 45.693 0.000
v 44.409 66.614 0.000
v -61.424 58.238 0.000
v -59.752 37.289 9.900
v 46.081 45.693 9.900
v 44.409 66.614 9.900
v -61.424 58.238 9.900
usemtl roof
f 23 24 25 26
usemtl teaching_building
f 22 21 20 19
f 19 20 24 23
f 20 21 25 24
f 21 22 26 25
f 22 19 23 26
o SD0833_T003_3hao
v 10.717 -33.193 0.000
v 126.177 -23.853 0.000
v 125.780 -14.755 0.000
v 10.610 -24.094 0.000
v 10.717 -33.193 9.900
v 126.177 -23.853 9.900
v 125.780 -14.755 9.900
v 10.610 -24.094 9.900
usemtl roof
f 31 32 33 34
usemtl teaching_building
f 30 29 28 27
f 27 28 32 31
f 28 29 33 32
f 29 30 34 33
f 30 27 31 34
o SD0833_T004_4hao
v -81.588 -41.115 0.000
v -16.272 -35.861 0.000
v -17.990 -14.819 0.000
v -83.306 -20.091 0.000
v -81.588 -41.115 9.900
v -16.272 -35.861 9.900
v -17.990 -14.819 9.900
v -83.306 -20.091 9.900
usemtl roof
f 39 40 41 42
usemtl teaching_building
f 38 37 36 35
f 35 36 40 39
f 36 37 41 40
f 37 38 42 41
f 38 35 39 42
o SD0833_T005_5hao
v -73.739 -128.061 0.000
v -11.317 -122.900 0.000
v -14.074 -90.073 0.000
v -76.495 -95.243 0.000
v -73.739 -128.061 9.900
v -11.317 -122.900 9.900
v -14.074 -90.073 9.900
v -76.495 -95.243 9.900
usemtl roof
f 47 48 49 50
usemtl teaching_building
f 46 45 44 43
f 43 44 48 47
f 44 45 49 48
f 45 46 50 49
f 46 43 47 50
