# school_id SD0808
# school_name 海曲中学
# boundary_source footprint_convex_hull_buffer_20m
# adjacent_block_merge_distance_m 2.0
mtllib ../campus_materials.mtl
o SD0808_campus_boundary
usemtl campus_boundary
v -76.248 -62.038 0.050
v -81.822 22.060 0.050
v -82.244 58.205 0.050
v -20.008 58.920 0.050
v 65.669 44.487 0.050
v 67.128 -13.701 0.050
v 67.727 -56.447 0.050
v -16.130 -60.699 0.050
v -76.248 -62.038 0.050
l 1 2 3 4 5 6 7 8 9 1
o SD0808_T001_1hao
v -21.567 38.901 0.000
v -21.386 23.303 0.000
v -61.830 22.839 0.000
v -62.012 38.436 0.000
v -21.567 38.901 19.090
v -21.386 23.303 19.090
v -61.830 22.839 19.090
v -62.012 38.436 19.090
usemtl roof
f 14 15 16 17
usemtl teaching_building
f 13 12 11 10
f 10 11 15 14
f 11 12 16 15
f 12 13 17 16
f 13 10 14 17
o SD0808_T002_2hao
v 8.991 24.641 0.000
v 8.982 20.219 0.000
v 34.588 20.153 0.000
v 34.606 27.526 0.000
v 46.089 27.504 0.000
v 46.044 10.061 0.000
v -10.755 10.193 0.000
v -10.719 24.685 0.000
v 8.991 24.641 19.870
v 8.982 20.219 19.870
v 34.588 20.153 19.870
v 34.606 27.526 19.870
v 46.089 27.504 19.870
v 46.044 10.061 19.870
v -10.755 10.193 19.870
v -10.719 24.685 19.870
usemtl roof
f 26 27 28 29 30 31 32 33
usemtl teaching_building
f 25 24 23 22 21 20 19 18
f 18 19 27 26
f 19 20 28 27
f 20 21 29 28
f 21 22 30 29
f 22 23 31 30
f 23 24 32 31
f 24 25 33 32
f 25 18 26 33
o SD0808_T003_3hao
v 39.985 -27.401 0.000
v 39.794 -14.192 0.000
v 47.132 -14.092 0.000
v 47.459 -37.449 0.000
v -7.816 -38.201 0.000
v -7.952 -28.076 0.000
v 39.985 -27.401 19.190
v 39.794 -14.192 19.190
v 47.132 -14.092 19.190
v 47.459 -37.449 19.190
v -7.816 -38.201 19.190
v -7.952 -28.076 19.190
usemtl roof
f 40 41 42 43 44 45
usemtl teaching_building
f 39 38 37 36 35 34
f 34 35 41 40
f 35 36 42 41
f 36 37 43 42
f 37 38 44 43
f 38 39 45 44
f 39 34 40 45
o SD0808_T004_4hao
v -17.258 -22.913 0.000
v -16.859 -40.710 0.000
v -57.558 -41.617 0.000
v -57.957 -23.809 0.000
v -17.258 -22.913 17.730
v -16.859 -40.710 17.730
v -57.558 -41.617 17.730
v -57.957 -23.809 17.730
usemtl roof
f 50 51 52 53
usemtl teaching_building
f 49 48 47 46
f 46 47 51 50
f 47 48 52 51
f 48 49 53 52
f 49 46 50 53
