# school_id SD0862
# school_name 兰陵县第二实验小学
# boundary_source footprint_convex_hull_buffer_20m
# adjacent_block_merge_distance_m 2.0
mtllib ../campus_materials.mtl
o SD0862_campus_boundary
usemtl campus_boundary
v 29.897 -92.527 0.050
v -6.316 -86.749 0.050
v -23.241 -77.147 0.050
v -116.820 4.874 0.050
v -111.162 36.341 0.050
v -85.454 75.388 0.050
v 17.309 123.397 0.050
v 71.167 113.140 0.050
v 65.918 84.201 0.050
v 29.897 -92.527 0.050
l 1 2 3 4 5 6 7 8 9 10 1
o SD0862_T001_1hao
v 47.950 97.202 0.000
v 46.278 87.983 0.000
v 18.429 92.957 0.000
v 19.918 102.541 0.000
v 47.950 97.202 10.180
v 46.278 87.983 10.180
v 18.429 92.957 10.180
v 19.918 102.541 10.180
usemtl roof
f 15 16 17 18
usemtl teaching_building
f 14 13 12 11
f 11 12 16 15
f 12 13 17 16
f 13 14 18 17
f 14 11 15 18
o SD0862_T002_2hao
v 20.986 -7.479 0.000
v 17.808 -6.993 0.000
v 16.090 -19.893 0.000
v 10.701 -19.163 0.000
v 12.903 -6.263 0.000
v -95.135 12.462 0.000
v -92.203 28.767 0.000
v 9.557 11.459 0.000
v 11.432 22.201 0.000
v -75.780 37.765 0.000
v -71.861 59.663 0.000
v 13.149 45.071 0.000
v 11.679 38.008 0.000
v 19.278 36.549 0.000
v 14.951 10.542 0.000
v 23.681 9.057 0.000
v 20.986 -7.479 10.910
v 17.808 -6.993 10.910
v 16.090 -19.893 10.910
v 10.701 -19.163 10.910
v 12.903 -6.263 10.910
v -95.135 12.462 10.910
v -92.203 28.767 10.910
v 9.557 11.459 10.910
v 11.432 22.201 10.910
v -75.780 37.765 10.910
v -71.861 59.663 10.910
v 13.149 45.071 10.910
v 11.679 38.008 10.910
v 19.278 36.549 10.910
v 14.951 10.542 10.910
v 23.681 9.057 10.910
usemtl roof
f 35 36 37 38 39 40 41 42 43 44 45 46 47 48 49 50
usemtl teaching_building
f 34 33 32 31 30 29 28 27 26 25 24 23 22 21 20 19
f 19 20 36 35
f 20 21 37 36
f 21 22 38 37
f 22 23 39 38
f 23 24 40 39
f 24 25 41 40
f 25 26 42 41
f 26 27 43 42
f 27 28 44 43
f 28 29 45 44
f 29 30 46 45
f 30 31 47 46
f 31 32 48 47
f 32 33 49 48
f 33 34 50 49
f 34 19 35 50
o SD0862_T002_2hao_seg02
v 8.738 -18.920 0.000
v 21.973 -21.109 0.000
v 14.127 -69.758 0.000
v 0.407 -67.569 0.000
v 1.147 -63.191 0.000
v -11.595 -60.760 0.000
v -9.394 -52.491 0.000
v -4.982 -43.969 0.000
v 2.124 -37.159 0.000
v 6.043 -35.214 0.000
v 8.738 -18.920 10.910
v 21.973 -21.109 10.910
v 14.127 -69.758 10.910
v 0.407 -67.569 10.910
v 1.147 -63.191 10.910
v -11.595 -60.760 10.910
v -9.394 -52.491 10.910
v -4.982 -43.969 10.910
v 2.124 -37.159 10.910
v 6.043 -35.214 10.910
usemtl roof
f 61 62 63 64 65 66 67 68 69 70
usemtl teaching_building
f 60 59 58 57 56 55 54 53 52 51
f 51 52 62 61
f 52 53 63 62
f 53 54 64 63
f 54 55 65 64
f 55 56 66 65
f 56 57 67 66
f 57 58 68 67
f 58 59 69 68
f 59 60 70 69
f 60 51 61 70
