# school_id SD0896
# school_name 沂水县矿山小学
# boundary_source footprint_convex_hull_buffer_20m
# adjacent_block_merge_distance_m 2.0
mtllib ../campus_materials.mtl
o SD0896_campus_boundary
usemtl campus_boundary
v 5.582 -39.706 0.050
v -36.011 -38.265 0.050
v -61.634 -19.754 0.050
v -60.733 17.163 0.050
v -26.061 44.404 0.050
v 30.770 47.319 0.050
v 59.668 46.770 0.050
v 58.995 14.118 0.050
v 51.031 -39.453 0.050
v 5.582 -39.706 0.050
l 1 2 3 4 5 6 7 8 9 10 1
o SD0896_T001_1hao
v -18.697 9.777 0.000
v 26.523 9.777 0.000
v 26.523 24.755 0.000
v -18.697 24.755 0.000
v -18.697 9.777 12.860
v 26.523 9.777 12.860
v 26.523 24.755 12.860
v -18.697 24.755 12.860
usemtl roof
f 15 16 17 18
usemtl teaching_building
f 14 13 12 11
f 11 12 16 15
f 12 13 17 16
f 13 14 18 17
f 14 11 15 18
o SD0896_T002_2hao
v -29.071 -9.402 0.000
v -11.757 -9.711 0.000
v -11.685 -5.688 0.000
v 1.277 -5.920 0.000
v 1.033 -19.030 0.000
v -29.234 -18.488 0.000
v -29.071 -9.402 8.060
v -11.757 -9.711 8.060
v -11.685 -5.688 8.060
v 1.277 -5.920 8.060
v 1.033 -19.030 8.060
v -29.234 -18.488 8.060
usemtl roof
f 25 26 27 28 29 30
usemtl teaching_building
f 24 23 22 21 20 19
f 19 20 26 25
f 20 21 27 26
f 21 22 28 27
f 22 23 29 28
f 23 24 30 29
f 24 19 25 30
o SD0896_T003_3hao
v 5.873 -19.704 0.000
v 33.770 -19.549 0.000
v 33.716 -10.264 0.000
v 14.247 -10.374 0.000
v 14.220 -5.986 0.000
v 5.801 -6.030 0.000
v 5.873 -19.704 11.190
v 33.770 -19.549 11.190
v 33.716 -10.264 11.190
v 14.247 -10.374 11.190
v 14.220 -5.986 11.190
v 5.801 -6.030 11.190
usemtl roof
f 37 38 39 40 41 42
usemtl teaching_building
f 36 35 34 33 32 31
f 31 32 38 37
f 32 33 39 38
f 33 34 40 39
f 34 35 41 40
f 35 36 42 41
f 36 31 37 42
