# school_id SD0850
# school_name 临沂第十七中学
# boundary_source footprint_convex_hull_buffer_20m
# adjacent_block_merge_distance_m 2.0
mtllib ../campus_materials.mtl
o SD0850_campus_boundary
usemtl campus_boundary
v 4.349 -102.925 0.050
v -84.322 -88.963 0.050
v -70.530 -2.535 0.050
v -47.033 114.051 0.050
v 23.606 102.188 0.050
v 118.763 33.394 0.050
v 112.856 -5.183 0.050
v 4.349 -102.925 0.050
l 1 2 3 4 5 6 7 8 1
o SD0850_T001_1hao
v 15.680 83.239 0.000
v 9.653 47.889 0.000
v -37.270 55.770 0.000
v -31.252 91.121 0.000
v 15.680 83.239 21.100
v 9.653 47.889 21.100
v -37.270 55.770 21.100
v -31.252 91.121 21.100
usemtl roof
f 13 14 15 16
usemtl teaching_building
f 12 11 10 9
f 9 10 14 13
f 10 11 15 14
f 11 12 16 15
f 12 9 13 16
o SD0850_T002_2hao
v -0.807 39.300 0.000
v -1.827 32.656 0.000
v 35.136 27.074 0.000
v 36.483 35.873 0.000
v 49.247 33.950 0.000
v 48.046 26.101 0.000
v 81.950 20.972 0.000
v 82.796 26.510 0.000
v 97.144 24.344 0.000
v 94.167 4.900 0.000
v -16.904 21.680 0.000
v -13.908 41.278 0.000
v -0.807 39.300 16.970
v -1.827 32.656 16.970
v 35.136 27.074 16.970
v 36.483 35.873 16.970
v 49.247 33.950 16.970
v 48.046 26.101 16.970
v 81.950 20.972 16.970
v 82.796 26.510 16.970
v 97.144 24.344 16.970
v 94.167 4.900 16.970
v -16.904 21.680 16.970
v -13.908 41.278 16.970
usemtl roof
f 29 30 31 32 33 34 35 36 37 38 39 40
usemtl teaching_building
f 28 27 26 25 24 23 22 21 20 19 18 17
f 17 18 30 29
f 18 19 31 30
f 19 20 32 31
f 20 21 33 32
f 21 22 34 33
f 22 23 35 34
f 23 24 36 35
f 24 25 37 36
f 25 26 38 37
f 26 27 39 38
f 27 28 40 39
f 28 17 29 40
o SD0850_T003_3hao
v -37.415 -8.199 0.000
v -36.414 -1.921 0.000
v -15.802 -5.171 0.000
v -16.995 -12.632 0.000
v 6.813 -16.379 0.000
v 5.110 -27.035 0.000
v -46.829 -18.855 0.000
v -53.302 -59.357 0.000
v -46.956 -60.352 0.000
v -45.855 -53.410 0.000
v -22.785 -57.047 0.000
v -23.923 -64.199 0.000
v 0.230 -68.001 0.000
v -1.955 -81.686 0.000
v -61.414 -72.324 0.000
v -50.844 -6.088 0.000
v -37.415 -8.199 18.350
v -36.414 -1.921 18.350
v -15.802 -5.171 18.350
v -16.995 -12.632 18.350
v 6.813 -16.379 18.350
v 5.110 -27.035 18.350
v -46.829 -18.855 18.350
v -53.302 -59.357 18.350
v -46.956 -60.352 18.350
v -45.855 -53.410 18.350
v -22.785 -57.047 18.350
v -23.923 -64.199 18.350
v 0.230 -68.001 18.350
v -1.955 -81.686 18.350
v -61.414 -72.324 18.350
v -50.844 -6.088 18.350
usemtl roof
f 57 58 59 60 61 62 63 64 65 66 67 68 69 70 71 72
usemtl teaching_building
f 56 55 54 53 52 51 50 49 48 47 46 45 44 43 42 41
f 41 42 58 57
f 42 43 59 58
f 43 44 60 59
f 44 45 61 60
f 45 46 62 61
f 46 47 63 62
f 47 48 64 63
f 48 49 65 64
f 49 50 66 65
f 50 51 67 66
f 51 52 68 67
f 52 53 69 68
f 53 54 70 69
f 54 55 71 70
f 55 56 72 71
f 56 41 57 72
