# school_id SD0863
# school_name 兰陵县第二实验小学柞城校区
# boundary_source footprint_convex_hull_buffer_20m
# adjacent_block_merge_distance_m 2.0
mtllib ../campus_materials.mtl
o SD0863_campus_boundary
usemtl campus_boundary
v 49.088 -37.104 0.050
v -59.592 -20.360 0.050
v -48.844 36.972 0.050
v 59.338 20.495 0.050
v 49.088 -37.104 0.050
l 1 2 3 4 5 1
o SD0863_T001_1hao
v -36.128 -3.739 0.000
v 32.821 -14.362 0.000
v 36.055 3.811 0.000
v -32.748 14.290 0.000
v -36.128 -3.739 9.610
v 32.821 -14.362 9.610
v 36.055 3.811 9.610
v -32.748 14.290 9.610
usemtl roof
f 10 11 12 13
usemtl teaching_building
f 9 8 7 6
f 6 7 11 10
f 7 8 12 11
f 8 9 13 12
f 9 6 10 13
