# school_id SD0802
# school_name 日照市涛雒中心小学
# boundary_source footprint_convex_hull_buffer_20m
# adjacent_block_merge_distance_m 2.0
mtllib ../campus_materials.mtl
o SD0802_campus_boundary
usemtl campus_boundary
v 166.753 -356.318 0.050
v 98.742 -325.744 0.050
v -219.163 10.469 0.050
v -265.957 85.090 0.050
v -236.800 146.474 0.050
v -228.572 162.975 0.050
v -195.920 223.099 0.050
v 165.850 48.901 0.050
v 230.198 17.259 0.050
v 292.520 -82.303 0.050
v 166.753 -356.318 0.050
l 1 2 3 4 5 6 7 8 9 10 11 1
o SD0802_T001_1hao
v -235.198 102.437 0.000
v -176.032 73.343 0.000
v -151.665 124.644 0.000
v -136.814 151.983 0.000
v -195.421 180.788 0.000
v -187.435 196.816 0.000
v -128.270 167.711 0.000
v -104.820 156.834 0.000
v -113.106 139.899 0.000
v -127.243 146.675 0.000
v -141.862 117.150 0.000
v -130.650 111.346 0.000
v -138.936 93.439 0.000
v -149.657 101.663 0.000
v -174.515 52.296 0.000
v -163.303 46.979 0.000
v -165.257 37.782 0.000
v -178.413 44.072 0.000
v -190.115 17.940 0.000
v -203.271 22.771 0.000
v -184.525 57.574 0.000
v -243.184 86.420 0.000
v -235.198 102.437 6.840
v -176.032 73.343 6.840
v -151.665 124.644 6.840
v -136.814 151.983 6.840
v -195.421 180.788 6.840
v -187.435 196.816 6.840
v -128.270 167.711 6.840
v -104.820 156.834 6.840
v -113.106 139.899 6.840
v -127.243 146.675 6.840
v -141.862 117.150 6.840
v -130.650 111.346 6.840
v -138.936 93.439 6.840
v -149.657 101.663 6.840
v -174.515 52.296 6.840
v -163.303 46.979 6.840
v -165.257 37.782 6.840
v -178.413 44.072 6.840
v -190.115 17.940 6.840
v -203.271 22.771 6.840
v -184.525 57.574 6.840
v -243.184 86.420 6.840
usemtl roof
f 34 35 36 37 38 39 40 41 42 43 44 45 46 47 48 49 50 51 52 53 54 55
usemtl teaching_building
f 33 32 31 30 29 28 27 26 25 24 23 22 21 20 19 18 17 16 15 14 13 12
f 12 13 35 34
f 13 14 36 35
f 14 15 37 36
f 15 16 38 37
f 16 17 39 38
f 17 18 40 39
f 18 19 41 40
f 19 20 42 41
f 20 21 43 42
f 21 22 44 43
f 22 23 45 44
f 23 24 46 45
f 24 25 47 46
f 25 26 48 47
f 26 27 49 48
f 27 28 50 49
f 28 29 51 50
f 29 30 52 51
f 30 31 53 52
f 31 32 54 53
f 32 33 55 54
f 33 12 34 55
o SD0802_T001_1hao_seg02
v -151.665 124.644 0.000
v -159.642 108.627 0.000
v -218.816 137.721 0.000
v -210.830 153.738 0.000
v -151.665 124.644 6.840
v -159.642 108.627 6.840
v -218.816 137.721 6.840
v -210.830 153.738 6.840
usemtl roof
f 60 61 62 63
usemtl teaching_building
f 59 58 57 56
f 56 57 61 60
f 57 58 62 61
f 58 59 63 62
f 59 56 60 63
o SD0802_T002_2hao
v 149.104 14.900 0.000
v 208.278 -14.194 0.000
v 216.265 1.823 0.000
v 157.099 30.917 0.000
v 149.104 14.900 6.840
v 208.278 -14.194 6.840
v 216.265 1.823 6.840
v 157.099 30.917 6.840
usemtl roof
f 68 69 70 71
usemtl teaching_building
f 67 66 65 64
f 64 65 69 68
f 65 66 70 69
f 66 67 71 70
f 67 64 68 71
o SD0802_T003_3hao
v 122.783 -32.532 0.000
v 181.957 -61.616 0.000
v 189.944 -45.609 0.000
v 130.778 -16.515 0.000
v 122.783 -32.532 6.910
v 181.957 -61.616 6.910
v 189.944 -45.609 6.910
v 130.778 -16.515 6.910
usemtl roof
f 76 77 78 79
usemtl teaching_building
f 75 74 73 72
f 72 73 77 76
f 73 74 78 77
f 74 75 79 78
f 75 72 76 79
o SD0802_T004_4hao
v 202.682 -70.691 0.000
v 261.856 -99.774 0.000
v 269.842 -83.768 0.000
v 210.677 -54.663 0.000
v 202.682 -70.691 7.510
v 261.856 -99.774 7.510
v 269.842 -83.768 7.510
v 210.677 -54.663 7.510
usemtl roof
f 84 85 86 87
usemtl teaching_building
f 83 82 81 80
f 80 81 85 84
f 81 82 86 85
f 82 83 87 86
f 83 80 84 87
o SD0802_T005_5hao
v 178.841 -118.687 0.000
v 238.006 -147.770 0.000
v 245.993 -131.753 0.000
v 186.827 -102.659 0.000
v 178.841 -118.687 6.770
v 238.006 -147.770 6.770
v 245.993 -131.753 6.770
v 186.827 -102.659 6.770
usemtl roof
f 92 93 94 95
usemtl teaching_building
f 91 90 89 88
f 88 89 93 92
f 89 90 94 93
f 90 91 95 94
f 91 88 92 95
o SD0802_T006_6hao
v 155.927 -168.043 0.000
v 215.102 -197.138 0.000
v 223.088 -181.120 0.000
v 163.923 -152.026 0.000
v 155.927 -168.043 6.840
v 215.102 -197.138 6.840
v 223.088 -181.120 6.840
v 163.923 -152.026 6.840
usemtl roof
f 100 101 102 103
usemtl teaching_building
f 99 98 97 96
f 96 97 101 100
f 97 98 102 101
f 98 99 103 102
f 99 96 100 103
o SD0802_T007_7hao
v 110.554 -309.126 0.000
v 156.854 -329.940 0.000
v 191.461 -234.589 0.000
v 145.642 -215.719 0.000
v 110.554 -309.126 6.840
v 156.854 -329.940 6.840
v 191.461 -234.589 6.840
v 145.642 -215.719 6.840
usemtl roof
f 108 109 110 111
usemtl teaching_building
f 107 106 105 104
f 104 105 109 108
f 105 106 110 109
f 106 107 111 110
f 107 104 108 111
