# school_id SD0816
# school_name 临沂实验中学 北校区
# boundary_source footprint_convex_hull_buffer_20m
# adjacent_block_merge_distance_m 2.0
mtllib ../campus_materials.mtl
o SD0816_campus_boundary
usemtl campus_boundary
v -34.722 -138.740 0.050
v -162.281 -21.210 0.050
v -162.281 22.153 0.050
v -88.676 115.470 0.050
v -21.100 117.300 0.050
v 84.566 93.977 0.050
v 86.467 37.145 0.050
v 87.270 -51.370 0.050
v 87.431 -77.163 0.050
v 35.571 -138.105 0.050
v -34.722 -138.740 0.050
l 1 2 3 4 5 6 7 8 9 10 11 1
o SD0816_T001_1hao
v -22.594 75.357 0.000
v -23.013 97.241 0.000
v -78.773 95.731 0.000
v -78.773 74.875 0.000
v -22.594 75.357 9.900
v -23.013 97.241 9.900
v -78.773 95.731 9.900
v -78.773 74.875 9.900
usemtl roof
f 16 17 18 19
usemtl teaching_building
f 15 14 13 12
f 12 13 17 16
f 13 14 18 17
f 14 15 19 18
f 15 12 16 19
o SD0816_T002_2hao
v 67.271 -51.523 0.000
v 67.385 -69.859 0.000
v 13.779 -70.690 0.000
v 13.778 -70.795 0.000
v 8.809 -70.767 0.000
v 9.131 -27.325 0.000
v 8.351 -27.322 0.000
v 8.427 -8.773 0.000
v 9.268 -8.776 0.000
v 9.908 77.543 0.000
v 14.839 77.571 0.000
v 14.839 77.565 0.000
v 65.096 77.793 0.000
v 65.180 60.393 0.000
v 14.715 60.173 0.000
v 14.548 36.847 0.000
v 66.470 36.720 0.000
v 66.424 16.679 0.000
v 14.404 16.806 0.000
v 14.221 -8.794 0.000
v 66.118 -8.986 0.000
v 66.042 -27.535 0.000
v 14.089 -27.343 0.000
v 13.914 -51.822 0.000
v 67.271 -51.523 9.900
v 67.385 -69.859 9.900
v 13.779 -70.690 9.900
v 13.778 -70.795 9.900
v 8.809 -70.767 9.900
v 9.131 -27.325 9.900
v 8.351 -27.322 9.900
v 8.427 -8.773 9.900
v 9.268 -8.776 9.900
v 9.908 77.543 9.900
v 14.839 77.571 9.900
v 14.839 77.565 9.900
v 65.096 77.793 9.900
v 65.180 60.393 9.900
v 14.715 60.173 9.900
v 14.548 36.847 9.900
v 66.470 36.720 9.900
v 66.424 16.679 9.900
v 14.404 16.806 9.900
v 14.221 -8.794 9.900
v 66.118 -8.986 9.900
v 66.042 -27.535 9.900
v 14.089 -27.343 9.900
v 13.914 -51.822 9.900
usemtl roof
f 44 45 46 47 48 49 50 51 52 53 54 55 56 57 58 59 60 61 62 63 64 65 66 67
usemtl teaching_building
f 43 42 41 40 39 38 37 36 35 34 33 32 31 30 29 28 27 26 25 24 23 22 21 20
f 20 21 45 44
f 21 22 46 45
f 22 23 47 46
f 23 24 48 47
f 24 25 49 48
f 25 26 50 49
f 26 27 51 50
f 27 28 52 51
f 28 29 53 52
f 29 30 54 53
f 30 31 55 54
f 31 32 56 55
f 32 33 57 56
f 33 34 58 57
f 34 35 59 58
f 35 36 60 59
f 36 37 61 60
f 37 38 62 61
f 38 39 63 62
f 39 40 64 63
f 40 41 65 64
f 41 42 66 65
f 42 43 67 66
f 43 20 44 67
o SD0816_T003_3hao
v -94.887 -12.933 0.000
v -94.887 15.697 0.000
v -142.281 15.215 0.000
v -142.281 -12.442 0.000
v -94.887 -12.933 9.900
v -94.887 15.697 9.900
v -142.281 15.215 9.900
v -142.281 -12.442 9.900
usemtl roof
f 72 73 74 75
usemtl teaching_building
f 71 70 69 68
f 68 69 73 72
f 69 70 74 73
f 70 71 75 74
f 71 68 72 75
o SD0816_T004_4hao
v -26.990 -118.669 0.000
v 26.258 -118.188 0.000
v 25.777 -99.277 0.000
v -27.471 -99.277 0.000
v -26.990 -118.669 9.900
v 26.258 -118.188 9.900
v 25.777 -99.277 9.900
v -27.471 -99.277 9.900
usemtl roof
f 80 81 82 83
usemtl teaching_building
f 79 78 77 76
f 76 77 81 80
f 77 78 82 81
f 78 79 83 82
f 79 76 80 83
