# school_id SD0876
# school_name 开发区第一实验小学
# boundary_source footprint_convex_hull_buffer_20m
# adjacent_block_merge_distance_m 2.0
mtllib ../campus_materials.mtl
o SD0876_campus_boundary
usemtl campus_boundary
v -25.452 -145.653 0.050
v -43.355 -145.378 0.050
v -84.673 -144.246 0.050
v -128.006 -77.088 0.050
v -127.627 -54.521 0.050
v -24.692 218.411 0.050
v 145.071 219.639 0.050
v 145.548 154.241 0.050
v 142.767 42.188 0.050
v -25.452 -145.653 0.050
l 1 2 3 4 5 6 7 8 9 10 1
o SD0876_T001_1hao
v -9.281 112.643 0.000
v 122.737 113.627 0.000
v 122.600 131.535 0.000
v 70.607 131.159 0.000
v 70.442 154.030 0.000
v 125.546 154.416 0.000
v 125.217 199.495 0.000
v -10.822 198.511 0.000
v -10.494 153.831 0.000
v 47.701 154.262 0.000
v 47.883 130.606 0.000
v -9.408 130.175 0.000
v -9.281 112.643 12.210
v 122.737 113.627 12.210
v 122.600 131.535 12.210
v 70.607 131.159 12.210
v 70.442 154.030 12.210
v 125.546 154.416 12.210
v 125.217 199.495 12.210
v -10.822 198.511 12.210
v -10.494 153.831 12.210
v 47.701 154.262 12.210
v 47.883 130.606 12.210
v -9.408 130.175 12.210
usemtl roof
f 23 24 25 26 27 28 29 30 31 32 33 34
usemtl teaching_building
f 22 21 20 19 18 17 16 15 14 13 12 11
f 11 12 24 23
f 12 13 25 24
f 13 14 26 25
f 14 15 27 26
f 15 16 28 27
f 16 17 29 28
f 17 18 30 29
f 18 19 31 30
f 19 20 32 31
f 20 21 33 32
f 21 22 34 33
f 22 11 23 34
o SD0876_T002_2hao
v 93.375 49.359 0.000
v 122.956 50.045 0.000
v 121.725 102.894 0.000
v 92.144 102.219 0.000
v 93.375 49.359 13.010
v 122.956 50.045 13.010
v 121.725 102.894 13.010
v 92.144 102.219 13.010
usemtl roof
f 39 40 41 42
usemtl teaching_building
f 38 37 36 35
f 35 36 40 39
f 36 37 41 40
f 37 38 42 41
f 38 35 39 42
o SD0876_T003_3hao
v -107.907 -71.350 0.000
v -55.603 -72.235 0.000
v -56.241 -109.630 0.000
v -73.329 -109.343 0.000
v -73.585 -124.542 0.000
v -63.582 -121.370 0.000
v -42.928 -125.382 0.000
v -34.266 -125.515 0.000
v -33.983 -106.812 0.000
v -42.864 -106.679 0.000
v -42.591 -88.517 0.000
v -37.092 -87.943 0.000
v -33.281 -86.008 0.000
v -31.266 -83.488 0.000
v -30.290 -80.282 0.000
v -30.573 -76.977 0.000
v -32.269 -73.782 0.000
v -34.694 -71.737 0.000
v -40.949 -70.510 0.000
v -40.758 -59.456 0.000
v -107.688 -58.329 0.000
v -107.907 -71.350 8.080
v -55.603 -72.235 8.080
v -56.241 -109.630 8.080
v -73.329 -109.343 8.080
v -73.585 -124.542 8.080
v -63.582 -121.370 8.080
v -42.928 -125.382 8.080
v -34.266 -125.515 8.080
v -33.983 -106.812 8.080
v -42.864 -106.679 8.080
v -42.591 -88.517 8.080
v -37.092 -87.943 8.080
v -33.281 -86.008 8.080
v -31.266 -83.488 8.080
v -30.290 -80.282 8.080
v -30.573 -76.977 8.080
v -32.269 -73.782 8.080
v -34.694 -71.737 8.080
v -40.949 -70.510 8.080
v -40.758 -59.456 8.080
v -107.688 -58.329 8.080
usemtl roof
f 64 65 66 67 68 69 70 71 72 73 74 75 76 77 78 79 80 81 82 83 84
usemtl teaching_building
f 63 62 61 60 59 58 57 56 55 54 53 52 51 50 49 48 47 46 45 44 43
f 43 44 65 64
f 44 45 66 65
f 45 46 67 66
f 46 47 68 67
f 47 48 69 68
f 48 49 70 69
f 49 50 71 70
f 50 51 72 71
f 51 52 73 72
f 52 53 74 73
f 53 54 75 74
f 54 55 76 75
f 55 56 77 76
f 56 57 78 77
f 57 58 79 78
f 58 59 80 79
f 59 60 81 80
f 60 61 82 81
f 61 62 83 82
f 62 63 84 83
f 63 43 64 84
