# school_id SD0861
# school_name 兰陵县第二实验中学
# boundary_source footprint_convex_hull_buffer_20m
# adjacent_block_merge_distance_m 2.0
mtllib ../campus_materials.mtl
o SD0861_campus_boundary
usemtl campus_boundary
v -115.927 -86.458 0.050
v -129.315 -46.081 0.050
v -132.161 -8.904 0.050
v -133.349 21.121 0.050
v 0.928 78.803 0.050
v 17.979 79.431 0.050
v 86.759 81.381 0.050
v 119.518 82.006 0.050
v 120.481 38.760 0.050
v 110.201 -69.139 0.050
v -53.484 -82.188 0.050
v -115.927 -86.458 0.050
l 1 2 3 4 5 6 7 8 9 10 11 12 1
o SD0861_T001_1hao
v 6.371 36.084 0.000
v 100.460 39.488 0.000
v 99.967 61.629 0.000
v 87.233 61.386 0.000
v 87.233 56.766 0.000
v 67.383 56.036 0.000
v 67.136 59.927 0.000
v 37.000 58.954 0.000
v 37.000 55.307 0.000
v 18.630 55.307 0.000
v 18.630 59.441 0.000
v 5.393 58.954 0.000
v 6.371 36.084 9.900
v 100.460 39.488 9.900
v 99.967 61.629 9.900
v 87.233 61.386 9.900
v 87.233 56.766 9.900
v 67.383 56.036 9.900
v 67.136 59.927 9.900
v 37.000 58.954 9.900
v 37.000 55.307 9.900
v 18.630 55.307 9.900
v 18.630 59.441 9.900
v 5.393 58.954 9.900
usemtl roof
f 25 26 27 28 29 30 31 32 33 34 35 36
usemtl teaching_building
f 24 23 22 21 20 19 18 17 16 15 14 13
f 13 14 26 25
f 14 15 27 26
f 15 16 28 27
f 16 17 29 28
f 17 18 30 29
f 18 19 31 30
f 19 20 32 31
f 20 21 33 32
f 21 22 34 33
f 22 23 35 34
f 23 24 36 35
f 24 13 25 36
o SD0861_T002_2hao
v -47.772 3.729 0.000
v -16.165 4.215 0.000
v -16.165 1.042 0.000
v 5.640 1.529 0.000
v 4.900 17.347 0.000
v -16.905 17.104 0.000
v -16.658 11.754 0.000
v -41.405 11.511 0.000
v -41.405 16.861 0.000
v -48.265 16.618 0.000
v -47.772 3.729 15.090
v -16.165 4.215 15.090
v -16.165 1.042 15.090
v 5.640 1.529 15.090
v 4.900 17.347 15.090
v -16.905 17.104 15.090
v -16.658 11.754 15.090
v -41.405 11.511 15.090
v -41.405 16.861 15.090
v -48.265 16.618 15.090
usemtl roof
f 47 48 49 50 51 52 53 54 55 56
usemtl teaching_building
f 46 45 44 43 42 41 40 39 38 37
f 37 38 48 47
f 38 39 49 48
f 39 40 50 49
f 40 41 51 50
f 41 42 52 51
f 42 43 53 52
f 43 44 54 53
f 44 45 55 54
f 45 46 56 55
f 46 37 47 56
o SD0861_T003_3hao
v -112.821 8.172 0.000
v -112.191 -7.745 0.000
v -56.788 -4.385 0.000
v -57.491 10.571 0.000
v -112.821 8.172 22.510
v -112.191 -7.745 22.510
v -56.788 -4.385 22.510
v -57.491 10.571 22.510
usemtl roof
f 61 62 63 64
usemtl teaching_building
f 60 59 58 57
f 57 58 62 61
f 58 59 63 62
f 59 60 64 63
f 60 57 61 64
o SD0861_T004_4hao
v 73.750 -50.536 0.000
v 91.883 -50.536 0.000
v 91.398 -35.447 0.000
v 86.493 -35.933 0.000
v 85.762 -10.874 0.000
v 91.152 -10.874 0.000
v 90.905 -3.578 0.000
v 72.042 -3.578 0.000
v 73.750 -50.536 9.900
v 91.883 -50.536 9.900
v 91.398 -35.447 9.900
v 86.493 -35.933 9.900
v 85.762 -10.874 9.900
v 91.152 -10.874 9.900
v 90.905 -3.578 9.900
v 72.042 -3.578 9.900
usemtl roof
f 73 74 75 76 77 78 79 80
usemtl teaching_building
f 72 71 70 69 68 67 66 65
f 65 66 74 73
f 66 67 75 74
f 67 68 76 75
f 68 69 77 76
f 69 70 78 77
f 70 71 79 78
f 71 72 80 79
f 72 65 73 80
o SD0861_T005_5hao
v -110.264 -28.007 0.000
v -109.560 -42.112 0.000
v -55.381 -37.503 0.000
v -56.934 -23.674 0.000
v -110.264 -28.007 15.090
v -109.560 -42.112 15.090
v -55.381 -37.503 15.090
v -56.934 -23.674 15.090
usemtl roof
f 85 86 87 88
usemtl teaching_building
f 84 83 82 81
f 81 82 86 85
f 82 83 87 86
f 83 84 88 87
f 84 81 85 88
o SD0861_T006_6hao
v -44.675 -59.600 0.000
v -1.796 -57.411 0.000
v -2.536 -43.549 0.000
v -45.652 -45.981 0.000
v -44.675 -59.600 15.090
v -1.796 -57.411 15.090
v -2.536 -43.549 15.090
v -45.652 -45.981 15.090
usemtl roof
f 93 94 95 96
usemtl teaching_building
f 92 91 90 89
f 89 90 94 93
f 90 91 95 94
f 91 92 96 95
f 92 89 93 96
o SD0861_T007_7hao
v -101.823 -65.447 0.000
v -54.961 -62.242 0.000
v -56.085 -48.546 0.000
v -102.663 -52.172 0.000
v -101.823 -65.447 15.090
v -54.961 -62.242 15.090
v -56.085 -48.546 15.090
v -102.663 -52.172 15.090
usemtl roof
f 101 102 103 104
usemtl teaching_building
f 100 99 98 97
f 97 98 102 101
f 98 99 103 102
f 99 100 104 103
f 100 97 101 104
