# school_id SD0872
# school_name 山东省临沂技师学院 北校区
# boundary_source footprint_convex_hull_buffer_20m
# adjacent_block_merge_distance_m 2.0
mtllib ../campus_materials.mtl
o SD0872_campus_boundary
usemtl campus_boundary
v -288.243 -212.177 0.050
v -367.809 -193.903 0.050
v -373.389 -107.099 0.050
v -209.609 217.415 0.050
v -188.587 218.775 0.050
v -129.592 220.746 0.050
v -26.822 222.585 0.050
v 244.088 211.369 0.050
v 246.185 181.366 0.050
v 247.057 156.183 0.050
v 250.147 6.622 0.050
v 250.447 -52.706 0.050
v 248.035 -157.336 0.050
v 134.008 -180.516 0.050
v -130.991 -202.291 0.050
v -288.243 -212.177 0.050
l 1 2 3 4 5 6 7 8 9 10 11 12 13 14 15 16 1
o SD0872_T001_1hao
v -102.457 181.100 0.000
v -26.003 185.826 0.000
v -27.057 202.578 0.000
v -103.503 197.843 0.000
v -102.457 181.100 9.900
v -26.003 185.826 9.900
v -27.057 202.578 9.900
v -103.503 197.843 9.900
usemtl roof
f 21 22 23 24
usemtl teaching_building
f 20 19 18 17
f 17 18 22 21
f 18 19 23 22
f 19 20 24 23
f 20 17 21 24
o SD0872_T002_2hao
v -195.837 181.805 0.000
v -186.065 182.435 0.000
v -185.736 177.376 0.000
v -137.516 180.489 0.000
v -137.775 184.621 0.000
v -128.064 185.251 0.000
v -129.079 200.752 0.000
v -143.432 199.826 0.000
v -143.180 195.869 0.000
v -187.225 193.016 0.000
v -187.607 198.797 0.000
v -196.906 198.195 0.000
v -195.837 181.805 9.900
v -186.065 182.435 9.900
v -185.736 177.376 9.900
v -137.516 180.489 9.900
v -137.775 184.621 9.900
v -128.064 185.251 9.900
v -129.079 200.752 9.900
v -143.432 199.826 9.900
v -143.180 195.869 9.900
v -187.225 193.016 9.900
v -187.607 198.797 9.900
v -196.906 198.195 9.900
usemtl roof
f 37 38 39 40 41 42 43 44 45 46 47 48
usemtl teaching_building
f 36 35 34 33 32 31 30 29 28 27 26 25
f 25 26 38 37
f 26 27 39 38
f 27 28 40 39
f 28 29 41 40
f 29 30 42 41
f 30 31 43 42
f 31 32 44 43
f 32 33 45 44
f 33 34 46 45
f 34 35 47 46
f 35 36 48 47
f 36 25 37 48
o SD0872_T003_3hao
v 159.298 175.689 0.000
v 226.209 180.322 0.000
v 225.384 192.126 0.000
v 158.466 187.503 0.000
v 159.298 175.689 9.900
v 226.209 180.322 9.900
v 225.384 192.126 9.900
v 158.466 187.503 9.900
usemtl roof
f 53 54 55 56
usemtl teaching_building
f 52 51 50 49
f 49 50 54 53
f 50 51 55 54
f 51 52 56 55
f 52 49 53 56
o SD0872_T004_4hao
v 10.292 171.307 0.000
v 75.401 174.800 0.000
v 74.339 194.331 0.000
v 9.223 190.838 0.000
v 10.292 171.307 9.900
v 75.401 174.800 9.900
v 74.339 194.331 9.900
v 9.223 190.838 9.900
usemtl roof
f 61 62 63 64
usemtl teaching_building
f 60 59 58 57
f 57 58 62 61
f 58 59 63 62
f 59 60 64 63
f 60 57 61 64
o SD0872_T005_5hao
v 83.799 171.724 0.000
v 150.205 174.744 0.000
v 149.572 188.476 0.000
v 83.158 185.455 0.000
v 83.799 171.724 9.900
v 150.205 174.744 9.900
v 149.572 188.476 9.900
v 83.158 185.455 9.900
usemtl roof
f 69 70 71 72
usemtl teaching_building
f 68 67 66 65
f 65 66 70 69
f 66 67 71 70
f 67 68 72 71
f 68 65 69 72
o SD0872_T006_6hao
v 161.054 150.590 0.000
v 227.064 155.630 0.000
v 226.239 166.322 0.000
v 160.230 161.282 0.000
v 161.054 150.590 9.900
v 227.064 155.630 9.900
v 226.239 166.322 9.900
v 160.230 161.282 9.900
usemtl roof
f 77 78 79 80
usemtl teaching_building
f 76 75 74 73
f 73 74 78 77
f 74 75 79 78
f 75 76 80 79
f 76 73 77 80
o SD0872_T007_7hao
v 89.487 143.678 0.000
v 146.083 146.680 0.000
v 145.434 158.817 0.000
v 88.838 155.825 0.000
v 89.487 143.678 9.900
v 146.083 146.680 9.900
v 145.434 158.817 9.900
v 88.838 155.825 9.900
usemtl roof
f 85 86 87 88
usemtl teaching_building
f 84 83 82 81
f 81 82 86 85
f 82 83 87 86
f 83 84 88 87
f 84 81 85 88
o SD0872_T008_8hao
v 3.283 137.572 0.000
v 74.523 141.926 0.000
v 73.614 156.714 0.000
v 2.367 152.369 0.000
v 3.283 137.572 9.900
v 74.523 141.926 9.900
v 73.614 156.714 9.900
v 2.367 152.369 9.900
usemtl roof
f 93 94 95 96
usemtl teaching_building
f 92 91 90 89
f 89 90 94 93
f 90 91 95 94
f 91 92 96 95
f 92 89 93 96
o SD0872_T009_9hao
v -189.935 135.478 0.000
v -123.697 140.361 0.000
v -125.056 158.502 0.000
v -191.287 153.619 0.000
v -189.935 135.478 9.900
v -123.697 140.361 9.900
v -125.056 158.502 9.900
v -191.287 153.619 9.900
usemtl roof
f 101 102 103 104
usemtl teaching_building
f 100 99 98 97
f 97 98 102 101
f 98 99 103 102
f 99 100 104 103
f 100 97 101 104
o SD0872_T010_10hao
v -92.372 121.682 0.000
v -70.613 123.470 0.000
v -70.262 119.263 0.000
v -46.976 121.172 0.000
v -47.411 126.481 0.000
v -25.461 128.279 0.000
v -25.973 134.366 0.000
v -21.896 134.690 0.000
v -22.667 143.909 0.000
v -27.645 143.502 0.000
v -29.622 167.406 0.000
v -78.797 163.376 0.000
v -79.225 168.444 0.000
v -84.103 168.046 0.000
v -83.607 162.199 0.000
v -91.982 161.513 0.000
v -90.837 147.745 0.000
v -94.509 147.449 0.000
v -92.372 121.682 9.900
v -70.613 123.470 9.900
v -70.262 119.263 9.900
v -46.976 121.172 9.900
v -47.411 126.481 9.900
v -25.461 128.279 9.900
v -25.973 134.366 9.900
v -21.896 134.690 9.900
v -22.667 143.909 9.900
v -27.645 143.502 9.900
v -29.622 167.406 9.900
v -78.797 163.376 9.900
v -79.225 168.444 9.900
v -84.103 168.046 9.900
v -83.607 162.199 9.900
v -91.982 161.513 9.900
v -90.837 147.745 9.900
v -94.509 147.449 9.900
usemtl roof
f 123 124 125 126 127 128 129 130 131 132 133 134 135 136 137 138 139 140
usemtl teaching_building
f 122 121 120 119 118 117 116 115 114 113 112 111 110 109 108 107 106 105
f 105 106 124 123
f 106 107 125 124
f 107 108 126 125
f 108 109 127 126
f 109 110 128 127
f 110 111 129 128
f 111 112 130 129
f 112 113 131 130
f 113 114 132 131
f 114 115 133 132
f 115 116 134 133
f 116 117 135 134
f 117 118 136 135
f 118 119 137 136
f 119 120 138 137
f 120 121 139 138
f 121 122 140 139
f 122 105 123 140
o SD0872_T011_11hao
v 162.597 121.793 0.000
v 224.796 127.222 0.000
v 223.842 137.970 0.000
v 161.650 132.541 0.000
v 162.597 121.793 9.900
v 224.796 127.222 9.900
v 223.842 137.970 9.900
v 161.650 132.541 9.900
usemtl roof
f 145 146 147 148
usemtl teaching_building
f 144 143 142 141
f 141 142 146 145
f 142 143 147 146
f 143 144 148 147
f 144 141 145 148
o SD0872_T012_12hao
v 91.082 116.011 0.000
v 147.800 119.680 0.000
v 147.014 131.716 0.000
v 90.304 128.047 0.000
v 91.082 116.011 9.900
v 147.800 119.680 9.900
v 147.014 131.716 9.900
v 90.304 128.047 9.900
usemtl roof
f 153 154 155 156
usemtl teaching_building
f 152 151 150 149
f 149 150 154 153
f 150 151 155 154
f 151 152 156 155
f 152 149 153 156
o SD0872_T013_13hao
v 5.803 109.600 0.000
v 75.737 113.371 0.000
v 74.950 127.750 0.000
v 5.016 123.979 0.000
v 5.803 109.600 9.900
v 75.737 113.371 9.900
v 74.950 127.750 9.900
v 5.016 123.979 9.900
usemtl roof
f 161 162 163 164
usemtl teaching_building
f 160 159 158 157
f 157 158 162 161
f 158 159 163 162
f 159 160 164 163
f 160 157 161 164
o SD0872_T014_14hao
v 165.818 94.173 0.000
v 224.163 97.833 0.000
v 223.468 108.747 0.000
v 165.131 105.087 0.000
v 165.818 94.173 9.900
v 224.163 97.833 9.900
v 223.468 108.747 9.900
v 165.131 105.087 9.900
usemtl roof
f 169 170 171 172
usemtl teaching_building
f 168 167 166 165
f 165 166 170 169
f 166 167 171 170
f 167 168 172 171
f 168 165 169 172
o SD0872_T015_15hao
v 96.686 86.640 0.000
v 150.366 91.857 0.000
v 149.213 103.568 0.000
v 95.526 98.352 0.000
v 96.686 86.640 9.900
v 150.366 91.857 9.900
v 149.213 103.568 9.900
v 95.526 98.352 9.900
usemtl roof
f 177 178 179 180
usemtl teaching_building
f 176 175 174 173
f 173 174 178 177
f 174 175 179 178
f 175 176 180 179
f 176 173 177 180
o SD0872_T016_16hao
v -185.439 83.583 0.000
v -120.322 87.011 0.000
v -121.162 102.706 0.000
v -186.278 99.278 0.000
v -185.439 83.583 9.900
v -120.322 87.011 9.900
v -121.162 102.706 9.900
v -186.278 99.278 9.900
usemtl roof
f 185 186 187 188
usemtl teaching_building
f 184 183 182 181
f 181 182 186 185
f 182 183 187 186
f 183 184 188 187
f 184 181 185 188
o SD0872_T017_17hao
v -93.731 74.336 0.000
v -20.827 78.579 0.000
v -22.362 104.717 0.000
v -95.273 100.473 0.000
v -93.731 74.336 9.900
v -20.827 78.579 9.900
v -22.362 104.717 9.900
v -95.273 100.473 9.900
usemtl roof
f 193 194 195 196
usemtl teaching_building
f 192 191 190 189
f 189 190 194 193
f 190 191 195 194
f 191 192 196 195
f 192 189 193 196
o SD0872_T018_18hao
v 6.765 68.712 0.000
v 66.880 71.992 0.000
v 69.125 75.429 0.000
v 77.821 75.911 0.000
v 76.408 101.474 0.000
v 5.162 97.583 0.000
v 6.765 68.712 9.900
v 66.880 71.992 9.900
v 69.125 75.429 9.900
v 77.821 75.911 9.900
v 76.408 101.474 9.900
v 5.162 97.583 9.900
usemtl roof
f 203 204 205 206 207 208
usemtl teaching_building
f 202 201 200 199 198 197
f 197 198 204 203
f 198 199 205 204
f 199 200 206 205
f 200 201 207 206
f 201 202 208 207
f 202 197 203 208
o SD0872_T019_19hao
v 167.742 64.431 0.000
v 225.086 68.990 0.000
v 224.079 81.516 0.000
v 166.742 76.958 0.000
v 167.742 64.431 9.900
v 225.086 68.990 9.900
v 224.079 81.516 9.900
v 166.742 76.958 9.900
usemtl roof
f 213 214 215 216
usemtl teaching_building
f 212 211 210 209
f 209 210 214 213
f 210 211 215 214
f 211 212 216 215
f 212 209 213 216
o SD0872_T020_20hao
v 96.526 58.983 0.000
v 150.480 63.217 0.000
v 149.549 74.845 0.000
v 95.594 70.611 0.000
v 96.526 58.983 9.900
v 150.480 63.217 9.900
v 149.549 74.845 9.900
v 95.594 70.611 9.900
usemtl roof
f 221 222 223 224
usemtl teaching_building
f 220 219 218 217
f 217 218 222 221
f 218 219 223 222
f 219 220 224 223
f 220 217 221 224
o SD0872_T021_21hao
v -183.377 48.374 0.000
v -119.299 53.831 0.000
v -120.551 68.369 0.000
v -184.629 62.912 0.000
v -183.377 48.374 9.900
v -119.299 53.831 9.900
v -120.551 68.369 9.900
v -184.629 62.912 9.900
usemtl roof
f 229 230 231 232
usemtl teaching_building
f 228 227 226 225
f 225 226 230 229
f 226 227 231 230
f 227 228 232 231
f 228 225 229 232
o SD0872_T022_22hao
v 169.895 34.708 0.000
v 229.446 39.544 0.000
v 228.316 53.285 0.000
v 168.750 48.439 0.000
v 169.895 34.708 9.900
v 229.446 39.544 9.900
v 228.316 53.285 9.900
v 168.750 48.439 9.900
usemtl roof
f 237 238 239 240
usemtl teaching_building
f 236 235 234 233
f 233 234 238 237
f 234 235 239 238
f 235 236 240 239
f 236 233 237 240
o SD0872_T023_23hao
v 8.483 18.855 0.000
v 83.303 23.626 0.000
v 81.997 43.936 0.000
v 7.169 39.174 0.000
v 8.483 18.855 9.900
v 83.303 23.626 9.900
v 81.997 43.936 9.900
v 7.169 39.174 9.900
usemtl roof
f 245 246 247 248
usemtl teaching_building
f 244 243 242 241
f 241 242 246 245
f 242 243 247 246
f 243 244 248 247
f 244 241 245 248
o SD0872_T024_24hao
v -179.369 16.779 0.000
v -164.703 17.511 0.000
v -164.435 12.295 0.000
v -129.369 14.046 0.000
v -129.621 19.114 0.000
v -118.956 19.642 0.000
v -119.330 26.906 0.000
v -179.720 23.877 0.000
v -179.369 16.779 9.900
v -164.703 17.511 9.900
v -164.435 12.295 9.900
v -129.369 14.046 9.900
v -129.621 19.114 9.900
v -118.956 19.642 9.900
v -119.330 26.906 9.900
v -179.720 23.877 9.900
usemtl roof
f 257 258 259 260 261 262 263 264
usemtl teaching_building
f 256 255 254 253 252 251 250 249
f 249 250 258 257
f 250 251 259 258
f 251 252 260 259
f 252 253 261 260
f 253 254 262 261
f 254 255 263 262
f 255 256 264 263
f 256 249 257 264
o SD0872_T025_25hao
v -91.967 3.039 0.000
v -9.329 7.903 0.000
v -10.764 32.021 0.000
v -93.410 27.157 0.000
v -91.967 3.039 9.900
v -9.329 7.903 9.900
v -10.764 32.021 9.900
v -93.410 27.157 9.900
usemtl roof
f 269 270 271 272
usemtl teaching_building
f 268 267 266 265
f 265 266 270 269
f 266 267 271 270
f 267 268 272 271
f 268 265 269 272
o SD0872_T026_26hao
v -289.560 -11.990 0.000
v -199.860 -6.097 0.000
v -203.021 41.407 0.000
v -226.834 39.850 0.000
v -226.330 32.336 0.000
v -281.254 28.732 0.000
v -280.109 11.563 0.000
v -291.080 10.831 0.000
v -289.560 -11.990 9.900
v -199.860 -6.097 9.900
v -203.021 41.407 9.900
v -226.834 39.850 9.900
v -226.330 32.336 9.900
v -281.254 28.732 9.900
v -280.109 11.563 9.900
v -291.080 10.831 9.900
usemtl roof
f 281 282 283 284 285 286 287 288
usemtl teaching_building
f 280 279 278 277 276 275 274 273
f 273 274 282 281
f 274 275 283 282
f 275 276 284 283
f 276 277 285 284
f 277 278 286 285
f 278 279 287 286
f 279 280 288 287
f 280 273 281 288
o SD0872_T027_27hao
v 172.285 2.177 0.000
v 230.148 6.365 0.000
v 229.163 19.791 0.000
v 171.300 15.612 0.000
v 172.285 2.177 9.900
v 230.148 6.365 9.900
v 229.163 19.791 9.900
v 171.300 15.612 9.900
usemtl roof
f 293 294 295 296
usemtl teaching_building
f 292 291 290 289
f 289 290 294 293
f 290 291 295 294
f 291 292 296 295
f 292 289 293 296
o SD0872_T028_28hao
v -177.338 -5.615 0.000
v -117.749 -1.325 0.000
v -118.696 11.619 0.000
v -178.277 7.338 0.000
v -177.338 -5.615 9.900
v -117.749 -1.325 9.900
v -118.696 11.619 9.900
v -178.277 7.338 9.900
usemtl roof
f 301 302 303 304
usemtl teaching_building
f 300 299 298 297
f 297 298 302 301
f 298 299 303 302
f 299 300 304 303
f 300 297 301 304
o SD0872_T029_29hao
v 175.064 -25.498 0.000
v 230.225 -21.070 0.000
v 229.095 -7.181 0.000
v 173.934 -11.628 0.000
v 175.064 -25.498 9.900
v 230.225 -21.070 9.900
v 229.095 -7.181 9.900
v 173.934 -11.628 9.900
usemtl roof
f 309 310 311 312
usemtl teaching_building
f 308 307 306 305
f 305 306 310 309
f 306 307 311 310
f 307 308 312 311
f 308 305 309 312
o SD0872_T030_30hao
v 153.114 -73.549 0.000
v 127.698 -74.809 0.000
v 127.217 -65.228 0.000
v 107.405 -66.210 0.000
v 106.260 -43.306 0.000
v 113.185 -40.073 0.000
v 112.543 -30.289 0.000
v 103.061 -27.778 0.000
v 102.191 -2.743 0.000
v 122.721 -2.029 0.000
v 122.430 6.523 0.000
v 147.930 7.403 0.000
v 148.190 2.532 0.000
v 156.565 -0.843 0.000
v 159.413 -59.484 0.000
v 152.618 -63.746 0.000
v 152.278 -58.754 0.000
v 153.114 -73.549 9.900
v 127.698 -74.809 9.900
v 127.217 -65.228 9.900
v 107.405 -66.210 9.900
v 106.260 -43.306 9.900
v 113.185 -40.073 9.900
v 112.543 -30.289 9.900
v 103.061 -27.778 9.900
v 102.191 -2.743 9.900
v 122.721 -2.029 9.900
v 122.430 6.523 9.900
v 147.930 7.403 9.900
v 148.190 2.532 9.900
v 156.565 -0.843 9.900
v 159.413 -59.484 9.900
v 152.618 -63.746 9.900
v 152.278 -58.754 9.900
usemtl roof
f 330 331 332 333 334 335 336 337 338 339 340 341 342 343 344 345 346
usemtl teaching_building
f 329 328 327 326 325 324 323 322 321 320 319 318 317 316 315 314 313
f 313 314 331 330
f 314 315 332 331
f 315 316 333 332
f 316 317 334 333
f 317 318 335 334
f 318 319 336 335
f 319 320 337 336
f 320 321 338 337
f 321 322 339 338
f 322 323 340 339
f 323 324 341 340
f 324 325 342 341
f 325 326 343 342
f 326 327 344 343
f 327 328 345 344
f 328 329 346 345
f 329 313 330 346
o SD0872_T031_31hao
v 176.744 -56.269 0.000
v 230.446 -52.526 0.000
v 229.415 -38.016 0.000
v 175.713 -41.750 0.000
v 176.744 -56.269 9.900
v 230.446 -52.526 9.900
v 229.415 -38.016 9.900
v 175.713 -41.750 9.900
usemtl roof
f 351 352 353 354
usemtl teaching_building
f 350 349 348 347
f 347 348 352 351
f 348 349 353 352
f 349 350 354 353
f 350 347 351 354
o SD0872_T032_32hao
v 179.973 -84.250 0.000
v 229.454 -82.138 0.000
v 228.827 -67.684 0.000
v 179.347 -69.787 0.000
v 179.973 -84.250 9.900
v 229.454 -82.138 9.900
v 228.827 -67.684 9.900
v 179.347 -69.787 9.900
usemtl roof
f 359 360 361 362
usemtl teaching_building
f 358 357 356 355
f 355 356 360 359
f 356 357 361 360
f 357 358 362 361
f 358 355 359 362
o SD0872_T033_33hao
v -84.798 -120.932 0.000
v -67.261 -119.727 0.000
v -67.544 -115.632 0.000
v -50.472 -114.464 0.000
v -50.236 -117.865 0.000
v -33.195 -116.697 0.000
v -33.432 -113.306 0.000
v -20.041 -112.389 0.000
v -19.766 -116.382 0.000
v -0.374 -115.057 0.000
v -1.824 -94.155 0.000
v -15.910 -89.022 0.000
v -22.812 -92.153 0.000
v -68.368 -96.017 0.000
v -74.835 -93.293 0.000
v -86.195 -101.011 0.000
v -84.798 -120.932 9.900
v -67.261 -119.727 9.900
v -67.544 -115.632 9.900
v -50.472 -114.464 9.900
v -50.236 -117.865 9.900
v -33.195 -116.697 9.900
v -33.432 -113.306 9.900
v -20.041 -112.389 9.900
v -19.766 -116.382 9.900
v -0.374 -115.057 9.900
v -1.824 -94.155 9.900
v -15.910 -89.022 9.900
v -22.812 -92.153 9.900
v -68.368 -96.017 9.900
v -74.835 -93.293 9.900
v -86.195 -101.011 9.900
usemtl roof
f 379 380 381 382 383 384 385 386 387 388 389 390 391 392 393 394
usemtl teaching_building
f 378 377 376 375 374 373 372 371 370 369 368 367 366 365 364 363
f 363 364 380 379
f 364 365 381 380
f 365 366 382 381
f 366 367 383 382
f 367 368 384 383
f 368 369 385 384
f 369 370 386 385
f 370 371 387 386
f 371 372 388 387
f 372 373 389 388
f 373 374 390 389
f 374 375 391 390
f 375 376 392 391
f 376 377 393 392
f 377 378 394 393
f 378 363 379 394
o SD0872_T034_34hao
v 165.085 -116.633 0.000
v 223.743 -113.890 0.000
v 223.147 -101.261 0.000
v 164.490 -104.004 0.000
v 165.085 -116.633 9.900
v 223.743 -113.890 9.900
v 223.147 -101.261 9.900
v 164.490 -104.004 9.900
usemtl roof
f 399 400 401 402
usemtl teaching_building
f 398 397 396 395
f 395 396 400 399
f 396 397 401 400
f 397 398 402 401
f 398 395 399 402
o SD0872_T035_35hao
v -151.174 -118.171 0.000
v -145.372 -121.877 0.000
v -132.454 -112.769 0.000
v -124.850 -112.889 0.000
v -107.229 -122.247 0.000
v -103.121 -118.291 0.000
v -102.869 -107.849 0.000
v -124.124 -96.823 0.000
v -135.355 -96.944 0.000
v -151.296 -107.729 0.000
v -151.174 -118.171 9.900
v -145.372 -121.877 9.900
v -132.454 -112.769 9.900
v -124.850 -112.889 9.900
v -107.229 -122.247 9.900
v -103.121 -118.291 9.900
v -102.869 -107.849 9.900
v -124.124 -96.823 9.900
v -135.355 -96.944 9.900
v -151.296 -107.729 9.900
usemtl roof
f 413 414 415 416 417 418 419 420 421 422
usemtl teaching_building
f 412 411 410 409 408 407 406 405 404 403
f 403 404 414 413
f 404 405 415 414
f 405 406 416 415
f 406 407 417 416
f 407 408 418 417
f 408 409 419 418
f 409 410 420 419
f 410 411 421 420
f 411 412 422 421
f 412 403 413 422
o SD0872_T036_36hao
v 19.599 -132.977 0.000
v 37.891 -131.911 0.000
v 37.701 -128.733 0.000
v 53.329 -127.825 0.000
v 52.962 -121.664 0.000
v 85.425 -119.783 0.000
v 85.097 -114.205 0.000
v 100.519 -113.325 0.000
v 99.488 -95.563 0.000
v 83.066 -96.499 0.000
v 82.944 -94.331 0.000
v 73.607 -94.868 0.000
v 73.752 -97.518 0.000
v 42.678 -99.232 0.000
v 42.549 -96.879 0.000
v 30.768 -97.518 0.000
v 17.850 -103.689 0.000
v 19.599 -132.977 9.900
v 37.891 -131.911 9.900
v 37.701 -128.733 9.900
v 53.329 -127.825 9.900
v 52.962 -121.664 9.900
v 85.425 -119.783 9.900
v 85.097 -114.205 9.900
v 100.519 -113.325 9.900
v 99.488 -95.563 9.900
v 83.066 -96.499 9.900
v 82.944 -94.331 9.900
v 73.607 -94.868 9.900
v 73.752 -97.518 9.900
v 42.678 -99.232 9.900
v 42.549 -96.879 9.900
v 30.768 -97.518 9.900
v 17.850 -103.689 9.900
usemtl roof
f 440 441 442 443 444 445 446 447 448 449 450 451 452 453 454 455 456
usemtl teaching_building
f 439 438 437 436 435 434 433 432 431 430 429 428 427 426 425 424 423
f 423 424 441 440
f 424 425 442 441
f 425 426 443 442
f 426 427 444 443
f 427 428 445 444
f 428 429 446 445
f 429 430 447 446
f 430 431 448 447
f 431 432 449 448
f 432 433 450 449
f 433 434 451 450
f 434 435 452 451
f 435 436 453 452
f 436 437 454 453
f 437 438 455 454
f 438 439 456 455
f 439 423 440 456
o SD0872_T037_37hao
v 165.513 -144.697 0.000
v 228.408 -140.917 0.000
v 227.728 -129.817 0.000
v 164.833 -133.597 0.000
v 165.513 -144.697 9.900
v 228.408 -140.917 9.900
v 227.728 -129.817 9.900
v 164.833 -133.597 9.900
usemtl roof
f 461 462 463 464
usemtl teaching_building
f 460 459 458 457
f 457 458 462 461
f 458 459 463 462
f 459 460 464 463
f 460 457 461 464
o SD0872_T038_38hao
v -348.806 -177.747 0.000
v -336.392 -176.959 0.000
v -336.728 -171.724 0.000
v -316.091 -170.418 0.000
v -317.297 -151.646 0.000
v -338.377 -152.990 0.000
v -341.110 -110.480 0.000
v -353.081 -111.249 0.000
v -348.806 -177.747 9.900
v -336.392 -176.959 9.900
v -336.728 -171.724 9.900
v -316.091 -170.418 9.900
v -317.297 -151.646 9.900
v -338.377 -152.990 9.900
v -341.110 -110.480 9.900
v -353.081 -111.249 9.900
usemtl roof
f 473 474 475 476 477 478 479 480
usemtl teaching_building
f 472 471 470 469 468 467 466 465
f 465 466 474 473
f 466 467 475 474
f 467 468 476 475
f 468 469 477 476
f 469 470 478 477
f 470 471 479 478
f 471 472 480 479
f 472 465 473 480
o SD0872_T039_39hao
v -230.857 -187.114 0.000
v -153.907 -182.046 0.000
v -155.236 -162.181 0.000
v -161.107 -162.570 0.000
v -164.558 -110.925 0.000
v -187.233 -112.417 0.000
v -186.316 -126.185 0.000
v -228.788 -128.974 0.000
v -227.238 -152.165 0.000
v -205.342 -150.720 0.000
v -206.106 -139.221 0.000
v -185.080 -137.841 0.000
v -183.476 -161.838 0.000
v -232.323 -165.053 0.000
v -230.857 -187.114 9.900
v -153.907 -182.046 9.900
v -155.236 -162.181 9.900
v -161.107 -162.570 9.900
v -164.558 -110.925 9.900
v -187.233 -112.417 9.900
v -186.316 -126.185 9.900
v -228.788 -128.974 9.900
v -227.238 -152.165 9.900
v -205.342 -150.720 9.900
v -206.106 -139.221 9.900
v -185.080 -137.841 9.900
v -183.476 -161.838 9.900
v -232.323 -165.053 9.900
usemtl roof
f 495 496 497 498 499 500 501 502 503 504 505 506 507 508
usemtl teaching_building
f 494 493 492 491 490 489 488 487 486 485 484 483 482 481
f 481 482 496 495
f 482 483 497 496
f 483 484 498 497
f 484 485 499 498
f 485 486 500 499
f 486 487 501 500
f 487 488 502 501
f 488 489 503 502
f 489 490 504 503
f 490 491 505 504
f 491 492 506 505
f 492 493 507 506
f 493 494 508 507
f 494 481 495 508
o SD0872_T040_40hao
v -132.438 -182.342 0.000
v 131.187 -160.680 0.000
v 130.271 -149.626 0.000
v 110.230 -151.266 0.000
v 109.963 -148.116 0.000
v 92.846 -149.506 0.000
v 92.640 -147.069 0.000
v 81.890 -147.949 0.000
v 81.592 -144.345 0.000
v 67.285 -145.494 0.000
v 67.652 -149.923 0.000
v 40.335 -152.110 0.000
v 40.098 -149.219 0.000
v 26.104 -150.349 0.000
v 25.623 -153.944 0.000
v -22.690 -158.141 0.000
v -23.018 -154.398 0.000
v -37.547 -155.649 0.000
v -37.272 -158.753 0.000
v -78.446 -162.274 0.000
v -78.728 -158.984 0.000
v -94.861 -160.346 0.000
v -94.593 -163.441 0.000
v -107.893 -164.553 0.000
v -107.191 -172.910 0.000
v -133.049 -175.041 0.000
v -132.438 -182.342 9.900
v 131.187 -160.680 9.900
v 130.271 -149.626 9.900
v 110.230 -151.266 9.900
v 109.963 -148.116 9.900
v 92.846 -149.506 9.900
v 92.640 -147.069 9.900
v 81.890 -147.949 9.900
v 81.592 -144.345 9.900
v 67.285 -145.494 9.900
v 67.652 -149.923 9.900
v 40.335 -152.110 9.900
v 40.098 -149.219 9.900
v 26.104 -150.349 9.900
v 25.623 -153.944 9.900
v -22.690 -158.141 9.900
v -23.018 -154.398 9.900
v -37.547 -155.649 9.900
v -37.272 -158.753 9.900
v -78.446 -162.274 9.900
v -78.728 -158.984 9.900
v -94.861 -160.346 9.900
v -94.593 -163.441 9.900
v -107.893 -164.553 9.900
v -107.191 -172.910 9.900
v -133.049 -175.041 9.900
usemtl roof
f 535 536 537 538 539 540 541 542 543 544 545 546 547 548 549 550 551 552 553 554 555 556 557 558 559 560
usemtl teaching_building
f 534 533 532 531 530 529 528 527 526 525 524 523 522 521 520 519 518 517 516 515 514 513 512 511 510 509
f 509 510 536 535
f 510 511 537 536
f 511 512 538 537
f 512 513 539 538
f 513 514 540 539
f 514 515 541 540
f 515 516 542 541
f 516 517 543 542
f 517 518 544 543
f 518 519 545 544
f 519 520 546 545
f 520 521 547 546
f 521 522 548 547
f 522 523 549 548
f 523 524 550 549
f 524 525 551 550
f 525 526 552 551
f 526 527 553 552
f 527 528 554 553
f 528 529 555 554
f 529 530 556 555
f 530 531 557 556
f 531 532 558 557
f 532 533 559 558
f 533 534 560 559
f 534 509 535 560
o SD0872_T041_41hao
v -286.598 -192.034 0.000
v -240.286 -188.430 0.000
v -242.180 -164.423 0.000
v -288.499 -168.046 0.000
v -286.598 -192.034 9.900
v -240.286 -188.430 9.900
v -242.180 -164.423 9.900
v -288.499 -168.046 9.900
usemtl roof
f 565 566 567 568
usemtl teaching_building
f 564 563 562 561
f 561 562 566 565
f 562 563 567 566
f 563 564 568 567
f 564 561 565 568
