# school_id SD0837
# school_name 临沂第三实验小学金盾校区
# boundary_source footprint_convex_hull_buffer_20m
# adjacent_block_merge_distance_m 2.0
mtllib ../campus_materials.mtl
o SD0837_campus_boundary
usemtl campus_boundary
v 79.838 -83.727 0.050
v 70.472 -81.444 0.050
v -67.689 -41.447 0.050
v -79.020 -26.864 0.050
v -102.537 12.481 0.050
v -102.362 34.577 0.050
v -77.308 80.955 0.050
v -51.320 91.029 0.050
v -16.498 91.029 0.050
v 8.349 81.447 0.050
v 113.311 -20.030 0.050
v 119.760 -30.882 0.050
v 122.305 -44.074 0.050
v 120.221 -57.336 0.050
v 113.762 -69.144 0.050
v 103.811 -77.931 0.050
v 92.230 -82.772 0.050
v 79.838 -83.727 0.050
l 1 2 3 4 5 6 7 8 9 10 11 12 13 14 15 16 17 18 1
o SD0837_T001_1hao
v -2.145 53.082 0.000
v -2.634 64.247 0.000
v -20.221 64.488 0.000
v -20.221 71.029 0.000
v -47.579 71.029 0.000
v -47.579 64.729 0.000
v -63.212 64.969 0.000
v -63.463 53.082 0.000
v -2.145 53.082 13.200
v -2.634 64.247 13.200
v -20.221 64.488 13.200
v -20.221 71.029 13.200
v -47.579 71.029 13.200
v -47.579 64.729 13.200
v -63.212 64.969 13.200
v -63.463 53.082 13.200
usemtl roof
f 27 28 29 30 31 32 33 34
usemtl teaching_building
f 26 25 24 23 22 21 20 19
f 19 20 28 27
f 20 21 29 28
f 21 22 30 29
f 22 23 31 30
f 23 24 32 31
f 24 25 33 32
f 25 26 34 33
f 26 19 27 34
o SD0837_T002_2hao
v -2.252 17.281 0.000
v -2.160 28.816 0.000
v -82.402 29.446 0.000
v -82.493 17.929 0.000
v -2.252 17.281 13.200
v -2.160 28.816 13.200
v -82.402 29.446 13.200
v -82.493 17.929 13.200
usemtl roof
f 39 40 41 42
usemtl teaching_building
f 38 37 36 35
f 35 36 40 39
f 36 37 41 40
f 37 38 42 41
f 38 35 39 42
o SD0837_T003_3hao
v 34.335 -43.611 0.000
v 9.221 -20.374 0.000
v 9.045 31.281 0.000
v 29.319 31.355 0.000
v 29.503 -20.309 0.000
v 44.349 -32.697 0.000
v 34.335 -43.611 15.630
v 9.221 -20.374 15.630
v 9.045 31.281 15.630
v 29.319 31.355 15.630
v 29.503 -20.309 15.630
v 44.349 -32.697 15.630
usemtl roof
f 49 50 51 52 53 54
usemtl teaching_building
f 48 47 46 45 44 43
f 43 44 50 49
f 44 45 51 50
f 45 46 52 51
f 46 47 53 52
f 47 48 54 53
f 48 43 49 54
o SD0837_T003_3hao_seg02
v 42.059 12.333 0.000
v 65.028 -10.960 0.000
v 44.349 -32.697 0.000
v 36.800 -25.933 0.000
v 51.830 -10.710 0.000
v 35.960 5.792 0.000
v 42.059 12.333 15.630
v 65.028 -10.960 15.630
v 44.349 -32.697 15.630
v 36.800 -25.933 15.630
v 51.830 -10.710 15.630
v 35.960 5.792 15.630
usemtl roof
f 61 62 63 64 65 66
usemtl teaching_building
f 60 59 58 57 56 55
f 55 56 62 61
f 56 57 63 62
f 57 58 64 63
f 58 59 65 64
f 59 60 66 65
f 60 55 61 66
o SD0837_T004_4hao
v -55.990 -15.611 0.000
v -55.884 -24.043 0.000
v -1.664 -24.293 0.000
v -1.908 -5.614 0.000
v -11.435 -5.864 0.000
v -11.191 -12.646 0.000
v -47.579 -12.406 0.000
v -47.579 -5.614 0.000
v -62.441 -5.382 0.000
v -62.479 -15.556 0.000
v -55.990 -15.611 13.200
v -55.884 -24.043 13.200
v -1.664 -24.293 13.200
v -1.908 -5.614 13.200
v -11.435 -5.864 13.200
v -11.191 -12.646 13.200
v -47.579 -12.406 13.200
v -47.579 -5.614 13.200
v -62.441 -5.382 13.200
v -62.479 -15.556 13.200
usemtl roof
f 77 78 79 80 81 82 83 84 85 86
usemtl teaching_building
f 76 75 74 73 72 71 70 69 68 67
f 67 68 78 77
f 68 69 79 78
f 69 70 80 79
f 70 71 81 80
f 71 72 82 81
f 72 73 83 82
f 73 74 84 83
f 74 75 85 84
f 75 76 86 85
f 76 67 77 86
o SD0837_T005_5hao
v 64.471 -48.753 0.000
v 66.669 -54.322 0.000
v 70.516 -58.936 0.000
v 75.623 -62.114 0.000
v 81.478 -63.541 0.000
v 87.485 -63.078 0.000
v 93.050 -60.752 0.000
v 97.897 -56.472 0.000
v 101.004 -50.792 0.000
v 102.004 -44.427 0.000
v 100.783 -38.098 0.000
v 97.485 -32.548 0.000
v 92.493 -28.416 0.000
v 86.394 -26.202 0.000
v 79.898 -26.155 0.000
v 73.768 -28.286 0.000
v 69.043 -31.992 0.000
v 65.723 -36.986 0.000
v 64.143 -42.768 0.000
v 64.471 -48.753 6.600
v 66.669 -54.322 6.600
v 70.516 -58.936 6.600
v 75.623 -62.114 6.600
v 81.478 -63.541 6.600
v 87.485 -63.078 6.600
v 93.050 -60.752 6.600
v 97.897 -56.472 6.600
v 101.004 -50.792 6.600
v 102.004 -44.427 6.600
v 100.783 -38.098 6.600
v 97.485 -32.548 6.600
v 92.493 -28.416 6.600
v 86.394 -26.202 6.600
v 79.898 -26.155 6.600
v 73.768 -28.286 6.600
v 69.043 -31.992 6.600
v 65.723 -36.986 6.600
v 64.143 -42.768 6.600
usemtl roof
f 106 107 108 109 110 111 112 113 114 115 116 117 118 119 120 121 122 123 124
usemtl teaching_building
f 105 104 103 102 101 100 99 98 97 96 95 94 93 92 91 90 89 88 87
f 87 88 107 106
f 88 89 108 107
f 89 90 109 108
f 90 91 110 109
f 91 92 111 110
f 92 93 112 111
f 93 94 113 112
f 94 95 114 113
f 95 96 115 114
f 96 97 116 115
f 97 98 117 116
f 98 99 118 117
f 99 100 119 118
f 100 101 120 119
f 101 102 121 120
f 102 103 122 121
f 103 104 123 122
f 104 105 124 123
f 105 87 106 124
