# school_id SD0812
# school_name 临沂义堂中学 东校区
# boundary_source footprint_convex_hull_buffer_20m
# adjacent_block_merge_distance_m 2.0
mtllib ../campus_materials.mtl
o SD0812_campus_boundary
usemtl campus_boundary
v 42.753 -25.437 0.050
v -42.935 -25.107 0.050
v -42.753 25.437 0.050
v 42.935 25.107 0.050
v 42.753 -25.437 0.050
l 1 2 3 4 5 1
o SD0812_T001_1hao
v 22.825 -5.360 0.000
v 22.863 5.184 0.000
v -22.825 5.360 0.000
v -22.863 -5.184 0.000
v 22.825 -5.360 9.900
v 22.863 5.184 9.900
v -22.825 5.360 9.900
v -22.863 -5.184 9.900
usemtl roof
f 10 11 12 13
usemtl teaching_building
f 9 8 7 6
f 6 7 11 10
f 7 8 12 11
f 8 9 13 12
f 9 6 10 13
