# school_id SD0800
# school_name 日照市新营中学
# boundary_source footprint_convex_hull_buffer_20m
# adjacent_block_merge_distance_m 2.0
mtllib ../campus_materials.mtl
o SD0800_campus_boundary
usemtl campus_boundary
v 98.020 -68.411 0.050
v -10.646 -67.471 0.050
v -96.369 -27.947 0.050
v -93.467 51.164 0.050
v 9.804 52.401 0.050
v 99.067 51.629 0.050
v 98.020 -68.411 0.050
l 1 2 3 4 5 6 7 1
o SD0800_T001_1hao
v -23.240 29.703 0.000
v -23.240 10.148 0.000
v -63.910 11.840 0.000
v -63.048 -14.933 0.000
v -75.894 -15.364 0.000
v -74.179 31.394 0.000
v -23.240 29.703 26.040
v -23.240 10.148 26.040
v -63.910 11.840 26.040
v -63.048 -14.933 26.040
v -75.894 -15.364 26.040
v -74.179 31.394 26.040
usemtl roof
f 14 15 16 17 18 19
usemtl teaching_building
f 13 12 11 10 9 8
f 8 9 15 14
f 9 10 16 15
f 10 11 17 16
f 11 12 18 17
f 12 13 19 18
f 13 8 14 19
o SD0800_T002_2hao
v 10.554 3.018 0.000
v 10.281 -29.071 0.000
v 68.796 -29.558 0.000
v 69.177 15.355 0.000
v 9.692 15.852 0.000
v 9.837 32.400 0.000
v 78.893 31.803 0.000
v 78.195 -48.239 0.000
v -6.175 -47.509 0.000
v -5.740 3.162 0.000
v 10.554 3.018 22.300
v 10.281 -29.071 22.300
v 68.796 -29.558 22.300
v 69.177 15.355 22.300
v 9.692 15.852 22.300
v 9.837 32.400 22.300
v 78.893 31.803 22.300
v 78.195 -48.239 22.300
v -6.175 -47.509 22.300
v -5.740 3.162 22.300
usemtl roof
f 30 31 32 33 34 35 36 37 38 39
usemtl teaching_building
f 29 28 27 26 25 24 23 22 21 20
f 20 21 31 30
f 21 22 32 31
f 22 23 33 32
f 23 24 34 33
f 24 25 35 34
f 25 26 36 35
f 26 27 37 36
f 27 28 38 37
f 28 29 39 38
f 29 20 30 39
