# school_id SD0831
# school_name 临沂第三中学北校区
# boundary_source footprint_convex_hull_buffer_20m
# adjacent_block_merge_distance_m 2.0
mtllib ../campus_materials.mtl
o SD0831_campus_boundary
usemtl campus_boundary
v -102.536 -47.510 0.050
v -102.536 47.510 0.050
v 102.536 47.510 0.050
v 102.536 -47.510 0.050
v -102.536 -47.510 0.050
l 1 2 3 4 5 1
o SD0831_T001_1hao
v 82.536 -5.853 0.000
v 82.536 -27.510 0.000
v -60.879 -27.510 0.000
v -82.536 -27.510 0.000
v -82.536 -5.853 0.000
v -82.536 5.853 0.000
v -82.536 27.510 0.000
v -60.879 27.510 0.000
v 82.536 27.510 0.000
v 82.536 5.853 0.000
v -60.879 5.853 0.000
v -60.879 -5.853 0.000
v 82.536 -5.853 21.350
v 82.536 -27.510 21.350
v -60.879 -27.510 21.350
v -82.536 -27.510 21.350
v -82.536 -5.853 21.350
v -82.536 5.853 21.350
v -82.536 27.510 21.350
v -60.879 27.510 21.350
v 82.536 27.510 21.350
v 82.536 5.853 21.350
v -60.879 5.853 21.350
v -60.879 -5.853 21.350
usemtl roof
f 18 19 20 21 22 23 24 25 26 27 28 29
usemtl teaching_building
f 17 16 15 14 13 12 11 10 9 8 7 6
f 6 7 19 18
f 7 8 20 19
f 8 9 21 20
f 9 10 22 21
f 10 11 23 22
f 11 12 24 23
f 12 13 25 24
f 13 14 26 25
f 14 15 27 26
f 15 16 28 27
f 16 17 29 28
f 17 6 18 29
