# school_id SD0815
# school_name 临沂外国语学校（东校区）
# boundary_source footprint_convex_hull_buffer_20m
# adjacent_block_merge_distance_m 2.0
mtllib ../campus_materials.mtl
o SD0815_campus_boundary
usemtl campus_boundary
v 77.366 -99.135 0.050
v -28.522 -95.365 0.050
v -130.778 -46.068 0.050
v -128.742 42.847 0.050
v -114.181 140.940 0.050
v 83.407 134.004 0.050
v 81.897 69.582 0.050
v 78.828 -58.391 0.050
v 77.366 -99.135 0.050
l 1 2 3 4 5 6 7 8 9 1
o SD0815_T001_1hao
v -43.365 92.918 0.000
v -42.241 117.897 0.000
v -97.022 120.325 0.000
v -98.153 95.345 0.000
v -43.365 92.918 9.900
v -42.241 117.897 9.900
v -97.022 120.325 9.900
v -98.153 95.345 9.900
usemtl roof
f 14 15 16 17
usemtl teaching_building
f 13 12 11 10
f 10 11 15 14
f 11 12 16 15
f 12 13 17 16
f 13 10 14 17
o SD0815_T002_2hao
v 62.070 89.517 0.000
v 62.949 114.710 0.000
v 6.525 116.655 0.000
v 5.654 91.454 0.000
v 62.070 89.517 9.900
v 62.949 114.710 9.900
v 6.525 116.655 9.900
v 5.654 91.454 9.900
usemtl roof
f 22 23 24 25
usemtl teaching_building
f 21 20 19 18
f 18 19 23 22
f 19 20 24 23
f 20 21 25 24
f 21 18 22 25
o SD0815_T003_3hao
v 61.466 53.049 0.000
v 61.902 70.051 0.000
v -17.067 72.006 0.000
v -17.503 55.004 0.000
v 61.466 53.049 9.900
v 61.902 70.051 9.900
v -17.067 72.006 9.900
v -17.503 55.004 9.900
usemtl roof
f 30 31 32 33
usemtl teaching_building
f 29 28 27 26
f 26 27 31 30
f 27 28 32 31
f 28 29 33 32
f 29 26 30 33
o SD0815_T004_4hao
v -100.209 -33.879 0.000
v -98.489 40.911 0.000
v -108.776 41.143 0.000
v -110.488 -33.647 0.000
v -100.209 -33.879 9.900
v -98.489 40.911 9.900
v -108.776 41.143 9.900
v -110.488 -33.647 9.900
usemtl roof
f 38 39 40 41
usemtl teaching_building
f 37 36 35 34
f 34 35 39 38
f 35 36 40 39
f 36 37 41 40
f 37 34 38 41
o SD0815_T005_5hao
v 58.096 -78.436 0.000
v 58.837 -57.793 0.000
v 42.131 -57.190 0.000
v 41.810 -66.039 0.000
v 25.081 -65.446 0.000
v 25.394 -56.783 0.000
v 19.792 -56.588 0.000
v 20.396 -31.989 0.000
v 57.676 -32.915 0.000
v 58.104 -15.913 0.000
v 20.816 -14.996 0.000
v 21.451 11.234 0.000
v 58.654 10.317 0.000
v 59.082 27.310 0.000
v -19.887 29.265 0.000
v -20.315 12.272 0.000
v 16.055 11.364 0.000
v 15.413 -14.857 0.000
v -20.865 -13.958 0.000
v -21.293 -30.951 0.000
v 15.000 -31.859 0.000
v 14.397 -56.394 0.000
v 9.597 -56.218 0.000
v 9.292 -64.881 0.000
v -7.377 -64.288 0.000
v -7.071 -55.560 0.000
v -22.677 -55.004 0.000
v -23.617 -75.527 0.000
v 58.096 -78.436 9.900
v 58.837 -57.793 9.900
v 42.131 -57.190 9.900
v 41.810 -66.039 9.900
v 25.081 -65.446 9.900
v 25.394 -56.783 9.900
v 19.792 -56.588 9.900
v 20.396 -31.989 9.900
v 57.676 -32.915 9.900
v 58.104 -15.913 9.900
v 20.816 -14.996 9.900
v 21.451 11.234 9.900
v 58.654 10.317 9.900
v 59.082 27.310 9.900
v -19.887 29.265 9.900
v -20.315 12.272 9.900
v 16.055 11.364 9.900
v 15.413 -14.857 9.900
v -20.865 -13.958 9.900
v -21.293 -30.951 9.900
v 15.000 -31.859 9.900
v 14.397 -56.394 9.900
v 9.597 -56.218 9.900
v 9.292 -64.881 9.900
v -7.377 -64.288 9.900
v -7.071 -55.560 9.900
v -22.677 -55.004 9.900
v -23.617 -75.527 9.900
usemtl roof
f 70 71 72 73 74 75 76 77 78 79 80 81 82 83 84 85 86 87 88 89 90 91 92 93 94 95 96 97
usemtl teaching_building
f 69 68 67 66 65 64 63 62 61 60 59 58 57 56 55 54 53 52 51 50 49 48 47 46 45 44 43 42
f 42 43 71 70
f 43 44 72 71
f 44 45 73 72
f 45 46 74 73
f 46 47 75 74
f 47 48 76 75
f 48 49 77 76
f 49 50 78 77
f 50 51 79 78
f 51 52 80 79
f 52 53 81 80
f 53 54 82 81
f 54 55 83 82
f 55 56 84 83
f 56 57 85 84
f 57 58 86 85
f 58 59 87 86
f 59 60 88 87
f 60 61 89 88
f 61 62 90 89
f 62 63 91 90
f 63 64 92 91
f 64 65 93 92
f 65 66 94 93
f 66 67 95 94
f 67 68 96 95
f 68 69 97 96
f 69 42 70 97
