# school_id SD0894
# school_name 沂南县第二实验小学
# boundary_source footprint_convex_hull_buffer_20m
# adjacent_block_merge_distance_m 2.0
mtllib ../campus_materials.mtl
o SD0894_campus_boundary
usemtl campus_boundary
v 70.024 -52.446 0.050
v -78.584 -42.094 0.050
v -77.181 21.469 0.050
v -74.398 55.730 0.050
v -3.344 54.404 0.050
v 10.415 53.091 0.050
v 78.013 44.078 0.050
v 75.956 8.549 0.050
v 73.725 -23.747 0.050
v 70.024 -52.446 0.050
l 1 2 3 4 5 6 7 8 9 10 1
o SD0894_T001_1hao
v -57.199 20.438 0.000
v -43.596 19.466 0.000
v -43.352 25.744 0.000
v 43.851 18.504 0.000
v 43.127 10.788 0.000
v 55.996 9.816 0.000
v 56.974 26.706 0.000
v 7.907 29.845 0.000
v 8.142 33.217 0.000
v -4.482 34.422 0.000
v -4.971 31.050 0.000
v -55.985 35.383 0.000
v -57.199 20.438 16.470
v -43.596 19.466 16.470
v -43.352 25.744 16.470
v 43.851 18.504 16.470
v 43.127 10.788 16.470
v 55.996 9.816 16.470
v 56.974 26.706 16.470
v 7.907 29.845 16.470
v 8.142 33.217 16.470
v -4.482 34.422 16.470
v -4.971 31.050 16.470
v -55.985 35.383 16.470
usemtl roof
f 23 24 25 26 27 28 29 30 31 32 33 34
usemtl teaching_building
f 22 21 20 19 18 17 16 15 14 13 12 11
f 11 12 24 23
f 12 13 25 24
f 13 14 26 25
f 14 15 27 26
f 15 16 28 27
f 16 17 29 28
f 17 18 30 29
f 18 19 31 30
f 19 20 32 31
f 20 21 33 32
f 21 22 34 33
f 22 11 23 34
o SD0894_T002_2hao
v -58.168 -23.468 0.000
v -12.742 -26.596 0.000
v -12.497 -16.714 0.000
v -28.047 -15.752 0.000
v -27.558 -8.026 0.000
v -39.947 -7.307 0.000
v -40.191 -15.023 0.000
v -57.199 -12.856 0.000
v -58.168 -23.468 16.470
v -12.742 -26.596 16.470
v -12.497 -16.714 16.470
v -28.047 -15.752 16.470
v -27.558 -8.026 16.470
v -39.947 -7.307 16.470
v -40.191 -15.023 16.470
v -57.199 -12.856 16.470
usemtl roof
f 43 44 45 46 47 48 49 50
usemtl teaching_building
f 42 41 40 39 38 37 36 35
f 35 36 44 43
f 36 37 45 44
f 37 38 46 45
f 38 39 47 46
f 39 40 48 47
f 40 41 49 48
f 41 42 50 49
f 42 35 43 50
o SD0894_T003_3hao
v 11.303 -18.637 0.000
v 29.280 -20.815 0.000
v 29.769 -13.818 0.000
v 41.180 -14.780 0.000
v 41.180 -20.815 0.000
v 53.813 -21.777 0.000
v 52.600 -31.184 0.000
v 10.814 -27.812 0.000
v 11.303 -18.637 16.470
v 29.280 -20.815 16.470
v 29.769 -13.818 16.470
v 41.180 -14.780 16.470
v 41.180 -20.815 16.470
v 53.813 -21.777 16.470
v 52.600 -31.184 16.470
v 10.814 -27.812 16.470
usemtl roof
f 59 60 61 62 63 64 65 66
usemtl teaching_building
f 58 57 56 55 54 53 52 51
f 51 52 60 59
f 52 53 61 60
f 53 54 62 61
f 54 55 63 62
f 55 56 64 63
f 56 57 65 64
f 57 58 66 65
f 58 51 59 66
