# school_id SD0881
# school_name 教学楼
# boundary_source footprint_convex_hull_buffer_20m
# adjacent_block_merge_distance_m 2.0
mtllib ../campus_materials.mtl
o SD0881_campus_boundary
usemtl campus_boundary
v 8.869 -31.857 0.050
v -24.954 -31.591 0.050
v -24.249 32.083 0.050
v 10.906 32.083 0.050
v 24.924 10.765 0.050
v 25.011 -12.167 0.050
v 8.869 -31.857 0.050
l 1 2 3 4 5 6 7 1
o SD0881_T001_1hao
v 0.121 12.083 0.000
v 0.048 4.732 0.000
v 4.947 4.744 0.000
v 4.984 -5.050 0.000
v -0.362 -5.061 0.000
v -0.535 -11.782 0.000
v -4.733 -11.749 0.000
v -4.469 12.083 0.000
v 0.121 12.083 14.290
v 0.048 4.732 14.290
v 4.947 4.744 14.290
v 4.984 -5.050 14.290
v -0.362 -5.061 14.290
v -0.535 -11.782 14.290
v -4.733 -11.749 14.290
v -4.469 12.083 14.290
usemtl roof
f 16 17 18 19 20 21 22 23
usemtl teaching_building
f 15 14 13 12 11 10 9 8
f 8 9 17 16
f 9 10 18 17
f 10 11 19 18
f 11 12 20 19
f 12 13 21 20
f 13 14 22 21
f 14 15 23 22
f 15 8 16 23
