# school_id SD0859
# school_name 兰山区职业中等专业学校
# boundary_source footprint_convex_hull_buffer_20m
# adjacent_block_merge_distance_m 2.0
mtllib ../campus_materials.mtl
o SD0859_campus_boundary
usemtl campus_boundary
v -48.047 -47.764 0.050
v -48.934 46.881 0.050
v 48.061 47.764 0.050
v 48.920 -46.881 0.050
v -48.047 -47.764 0.050
l 1 2 3 4 5 1
o SD0859_T001_1hao
v -28.235 -27.583 0.000
v 28.739 -27.064 0.000
v 28.243 27.583 0.000
v -28.747 27.064 0.000
v -28.235 -27.583 9.900
v 28.739 -27.064 9.900
v 28.243 27.583 9.900
v -28.747 27.064 9.900
usemtl roof
f 10 11 12 13
usemtl teaching_building
f 9 8 7 6
f 6 7 11 10
f 7 8 12 11
f 8 9 13 12
f 9 6 10 13
