# school_id SD0842
# school_name 临沂第二十四中学北校区
# boundary_source footprint_convex_hull_buffer_20m
# adjacent_block_merge_distance_m 2.0
mtllib ../campus_materials.mtl
o SD0842_campus_boundary
usemtl campus_boundary
v 117.009 -127.435 0.050
v 51.325 -127.201 0.050
v -259.378 -111.948 0.050
v -240.958 -14.383 0.050
v -224.630 65.086 0.050
v -169.347 297.954 0.050
v 247.886 119.954 0.050
v 249.070 -12.184 0.050
v 226.767 -80.702 0.050
v 215.659 -93.742 0.050
v 198.491 -101.893 0.050
v 117.009 -127.435 0.050
l 1 2 3 4 5 6 7 8 9 10 11 12 1
o SD0842_T001_1hao
v -107.732 249.455 0.000
v -124.485 207.869 0.000
v -148.568 215.663 0.000
v -153.803 193.831 0.000
v -170.028 200.596 0.000
v -155.369 270.247 0.000
v -107.732 249.455 15.760
v -124.485 207.869 15.760
v -148.568 215.663 15.760
v -153.803 193.831 15.760
v -170.028 200.596 15.760
v -155.369 270.247 15.760
usemtl roof
f 19 20 21 22 23 24
usemtl teaching_building
f 18 17 16 15 14 13
f 13 14 20 19
f 14 15 21 20
f 15 16 22 21
f 16 17 23 22
f 17 18 24 23
f 18 13 19 24
o SD0842_T002_2hao
v 164.588 79.057 0.000
v 172.510 79.135 0.000
v 173.101 12.700 0.000
v 149.228 12.490 0.000
v 149.428 -9.795 0.000
v 229.042 -9.098 0.000
v 228.004 106.692 0.000
v 164.352 106.128 0.000
v 164.588 79.057 13.490
v 172.510 79.135 13.490
v 173.101 12.700 13.490
v 149.228 12.490 13.490
v 149.428 -9.795 13.490
v 229.042 -9.098 13.490
v 228.004 106.692 13.490
v 164.352 106.128 13.490
usemtl roof
f 33 34 35 36 37 38 39 40
usemtl teaching_building
f 32 31 30 29 28 27 26 25
f 25 26 34 33
f 26 27 35 34
f 27 28 36 35
f 28 29 37 36
f 29 30 38 37
f 30 31 39 38
f 31 32 40 39
f 32 25 33 40
o SD0842_T003_3hao
v 50.020 -14.404 0.000
v 118.426 -14.614 0.000
v 118.499 9.395 0.000
v 96.064 9.461 0.000
v 96.137 32.454 0.000
v 121.349 32.376 0.000
v 121.431 58.574 0.000
v 50.248 58.795 0.000
v 50.020 -14.404 14.400
v 118.426 -14.614 14.400
v 118.499 9.395 14.400
v 96.064 9.461 14.400
v 96.137 32.454 14.400
v 121.349 32.376 14.400
v 121.431 58.574 14.400
v 50.248 58.795 14.400
usemtl roof
f 49 50 51 52 53 54 55 56
usemtl teaching_building
f 48 47 46 45 44 43 42 41
f 41 42 50 49
f 42 43 51 50
f 43 44 52 51
f 44 45 53 52
f 45 46 54 53
f 46 47 55 54
f 47 48 56 55
f 48 41 49 56
o SD0842_T004_4hao
v -221.335 -18.251 0.000
v -208.242 -18.251 0.000
v -206.148 -13.056 0.000
v -172.123 -12.006 0.000
v -172.123 -18.251 0.000
v -160.605 -17.732 0.000
v -160.086 61.802 0.000
v -172.651 61.282 0.000
v -172.651 53.489 0.000
v -192.545 53.489 0.000
v -191.498 60.763 0.000
v -205.101 60.763 0.000
v -221.335 -18.251 16.000
v -208.242 -18.251 16.000
v -206.148 -13.056 16.000
v -172.123 -12.006 16.000
v -172.123 -18.251 16.000
v -160.605 -17.732 16.000
v -160.086 61.802 16.000
v -172.651 61.282 16.000
v -172.651 53.489 16.000
v -192.545 53.489 16.000
v -191.498 60.763 16.000
v -205.101 60.763 16.000
usemtl roof
f 69 70 71 72 73 74 75 76 77 78 79 80
usemtl teaching_building
f 68 67 66 65 64 63 62 61 60 59 58 57
f 57 58 70 69
f 58 59 71 70
f 59 60 72 71
f 60 61 73 72
f 61 62 74 73
f 62 63 75 74
f 63 64 76 75
f 64 65 77 76
f 65 66 78 77
f 66 67 79 78
f 67 68 80 79
f 68 57 69 80
o SD0842_T005_5hao
v 147.726 -46.837 0.000
v 141.962 -50.474 0.000
v 143.009 -57.758 0.000
v 147.726 -61.914 0.000
v 155.055 -60.875 0.000
v 169.714 -77.512 0.000
v 180.176 -83.227 0.000
v 191.175 -83.227 0.000
v 203.212 -77.512 0.000
v 208.975 -70.747 0.000
v 211.069 -60.356 0.000
v 207.400 -47.876 0.000
v 196.410 -37.485 0.000
v 144.585 -37.485 0.000
v 147.726 -46.837 20.430
v 141.962 -50.474 20.430
v 143.009 -57.758 20.430
v 147.726 -61.914 20.430
v 155.055 -60.875 20.430
v 169.714 -77.512 20.430
v 180.176 -83.227 20.430
v 191.175 -83.227 20.430
v 203.212 -77.512 20.430
v 208.975 -70.747 20.430
v 211.069 -60.356 20.430
v 207.400 -47.876 20.430
v 196.410 -37.485 20.430
v 144.585 -37.485 20.430
usemtl roof
f 95 96 97 98 99 100 101 102 103 104 105 106 107 108
usemtl teaching_building
f 94 93 92 91 90 89 88 87 86 85 84 83 82 81
f 81 82 96 95
f 82 83 97 96
f 83 84 98 97
f 84 85 99 98
f 85 86 100 99
f 86 87 101 100
f 87 88 102 101
f 88 89 103 102
f 89 90 104 103
f 90 91 105 104
f 91 92 106 105
f 92 93 107 106
f 93 94 108 107
f 94 81 95 108
o SD0842_T006_6hao
v -235.466 -93.098 0.000
v -222.382 -93.098 0.000
v -219.241 -86.863 0.000
v -171.604 -86.344 0.000
v -171.076 -94.137 0.000
v -158.511 -93.098 0.000
v -159.558 -26.044 0.000
v -172.651 -26.564 0.000
v -172.651 -33.848 0.000
v -205.101 -33.848 0.000
v -201.960 -26.564 0.000
v -217.666 -26.044 0.000
v -235.466 -93.098 17.590
v -222.382 -93.098 17.590
v -219.241 -86.863 17.590
v -171.604 -86.344 17.590
v -171.076 -94.137 17.590
v -158.511 -93.098 17.590
v -159.558 -26.044 17.590
v -172.651 -26.564 17.590
v -172.651 -33.848 17.590
v -205.101 -33.848 17.590
v -201.960 -26.564 17.590
v -217.666 -26.044 17.590
usemtl roof
f 121 122 123 124 125 126 127 128 129 130 131 132
usemtl teaching_building
f 120 119 118 117 116 115 114 113 112 111 110 109
f 109 110 122 121
f 110 111 123 122
f 111 112 124 123
f 112 113 125 124
f 113 114 126 125
f 114 115 127 126
f 115 116 128 127
f 116 117 129 128
f 117 118 130 129
f 118 119 131 130
f 119 120 132 131
f 120 109 121 132
o SD0842_T007_7hao
v 51.851 -107.203 0.000
v 113.983 -107.424 0.000
v 114.074 -81.292 0.000
v 96.337 -81.237 0.000
v 96.410 -60.345 0.000
v 113.746 -60.400 0.000
v 113.837 -35.263 0.000
v 52.096 -35.053 0.000
v 51.851 -107.203 9.680
v 113.983 -107.424 9.680
v 114.074 -81.292 9.680
v 96.337 -81.237 9.680
v 96.410 -60.345 9.680
v 113.746 -60.400 9.680
v 113.837 -35.263 9.680
v 52.096 -35.053 9.680
usemtl roof
f 141 142 143 144 145 146 147 148
usemtl teaching_building
f 140 139 138 137 136 135 134 133
f 133 134 142 141
f 134 135 143 142
f 135 136 144 143
f 136 137 145 144
f 137 138 146 145
f 138 139 147 146
f 139 140 148 147
f 140 133 141 148
