# school_id SD0846
# school_name 临沂第六中学
# boundary_source footprint_convex_hull_buffer_20m
# adjacent_block_merge_distance_m 2.0
mtllib ../campus_materials.mtl
o SD0846_campus_boundary
usemtl campus_boundary
v 67.590 -96.643 0.050
v -108.231 -92.171 0.050
v -87.836 103.032 0.050
v 47.088 91.638 0.050
v 70.664 -1.375 0.050
v 67.590 -96.643 0.050
l 1 2 3 4 5 6 1
o SD0846_T001_1hao
v 31.203 72.908 0.000
v 26.046 -1.938 0.000
v 50.583 -3.552 0.000
v 48.241 -76.144 0.000
v -86.091 -72.728 0.000
v -69.982 81.453 0.000
v 31.203 72.908 43.010
v 26.046 -1.938 43.010
v 50.583 -3.552 43.010
v 48.241 -76.144 43.010
v -86.091 -72.728 43.010
v -69.982 81.453 43.010
usemtl roof
f 13 14 15 16 17 18
usemtl teaching_building
f 12 11 10 9 8 7
f 7 8 14 13
f 8 9 15 14
f 9 10 16 15
f 10 11 17 16
f 11 12 18 17
f 12 7 13 18
