# school_id SD0852
# school_name 临沂第十六中学
# boundary_source footprint_convex_hull_buffer_20m
# adjacent_block_merge_distance_m 2.0
mtllib ../campus_materials.mtl
o SD0852_campus_boundary
usemtl campus_boundary
v 65.574 -80.935 0.050
v -5.323 -80.319 0.050
v -140.703 -71.440 0.050
v -140.994 -34.265 0.050
v -141.048 24.999 0.050
v -140.718 65.022 0.050
v -20.596 72.734 0.050
v 55.928 73.465 0.050
v 124.471 71.804 0.050
v 124.962 33.538 0.050
v 111.948 -24.955 0.050
v 65.574 -80.935 0.050
l 1 2 3 4 5 6 7 8 9 10 11 12 1
o SD0852_T001_1hao
v 62.825 41.455 0.000
v 71.593 41.566 0.000
v 74.791 35.229 0.000
v 104.934 35.609 0.000
v 104.720 52.277 0.000
v 62.695 51.749 0.000
v 62.825 41.455 9.900
v 71.593 41.566 9.900
v 74.791 35.229 9.900
v 104.934 35.609 9.900
v 104.720 52.277 9.900
v 62.695 51.749 9.900
usemtl roof
f 19 20 21 22 23 24
usemtl teaching_building
f 18 17 16 15 14 13
f 13 14 20 19
f 14 15 21 20
f 15 16 22 21
f 16 17 23 22
f 17 18 24 23
f 18 13 19 24
o SD0852_T002_2hao
v -19.675 33.737 0.000
v 55.957 34.460 0.000
v 55.781 53.463 0.000
v -19.859 52.740 0.000
v -19.675 33.737 9.900
v 55.957 34.460 9.900
v 55.781 53.463 9.900
v -19.859 52.740 9.900
usemtl roof
f 29 30 31 32
usemtl teaching_building
f 28 27 26 25
f 25 26 30 29
f 26 27 31 30
f 27 28 32 31
f 28 25 29 32
o SD0852_T003_3hao
v -48.247 24.370 0.000
v -42.332 19.394 0.000
v -42.332 13.057 0.000
v -36.861 13.057 0.000
v -36.853 -16.361 0.000
v -43.240 -16.361 0.000
v -43.240 -30.388 0.000
v -46.881 -35.355 0.000
v -55.473 -35.429 0.000
v -55.443 -40.441 0.000
v -104.313 -40.812 0.000
v -104.358 -34.057 0.000
v -120.994 -34.178 0.000
v -120.849 -52.699 0.000
v -40.959 -52.106 0.000
v -27.291 -36.717 0.000
v -27.742 30.698 0.000
v -41.417 45.634 0.000
v -120.872 46.255 0.000
v -121.048 24.926 0.000
v -48.247 24.370 9.900
v -42.332 19.394 9.900
v -42.332 13.057 9.900
v -36.861 13.057 9.900
v -36.853 -16.361 9.900
v -43.240 -16.361 9.900
v -43.240 -30.388 9.900
v -46.881 -35.355 9.900
v -55.473 -35.429 9.900
v -55.443 -40.441 9.900
v -104.313 -40.812 9.900
v -104.358 -34.057 9.900
v -120.994 -34.178 9.900
v -120.849 -52.699 9.900
v -40.959 -52.106 9.900
v -27.291 -36.717 9.900
v -27.742 30.698 9.900
v -41.417 45.634 9.900
v -120.872 46.255 9.900
v -121.048 24.926 9.900
usemtl roof
f 53 54 55 56 57 58 59 60 61 62 63 64 65 66 67 68 69 70 71 72
usemtl teaching_building
f 52 51 50 49 48 47 46 45 44 43 42 41 40 39 38 37 36 35 34 33
f 33 34 54 53
f 34 35 55 54
f 35 36 56 55
f 36 37 57 56
f 37 38 58 57
f 38 39 59 58
f 39 40 60 59
f 40 41 61 60
f 41 42 62 61
f 42 43 63 62
f 43 44 64 63
f 44 45 65 64
f 45 46 66 65
f 46 47 67 66
f 47 48 68 67
f 48 49 69 68
f 49 50 70 69
f 50 51 71 70
f 51 52 72 71
f 52 33 53 72
o SD0852_T004_4hao
v 62.932 -15.907 0.000
v 67.953 -22.689 0.000
v 88.000 -22.235 0.000
v 93.472 -15.907 0.000
v 93.472 12.149 0.000
v 87.542 17.578 0.000
v 67.953 17.578 0.000
v 62.024 9.888 0.000
v 62.932 -15.907 9.900
v 67.953 -22.689 9.900
v 88.000 -22.235 9.900
v 93.472 -15.907 9.900
v 93.472 12.149 9.900
v 87.542 17.578 9.900
v 67.953 17.578 9.900
v 62.024 9.888 9.900
usemtl roof
f 81 82 83 84 85 86 87 88
usemtl teaching_building
f 80 79 78 77 76 75 74 73
f 73 74 82 81
f 74 75 83 82
f 75 76 84 83
f 76 77 85 84
f 77 78 86 85
f 78 79 87 86
f 79 80 88 87
f 80 73 81 88
o SD0852_T005_5hao
v 56.239 -60.853 0.000
v 56.399 -42.285 0.000
v -4.421 -41.766 0.000
v -4.581 -60.325 0.000
v 56.239 -60.853 9.900
v 56.399 -42.285 9.900
v -4.421 -41.766 9.900
v -4.581 -60.325 9.900
usemtl roof
f 93 94 95 96
usemtl teaching_building
f 92 91 90 89
f 89 90 94 93
f 90 91 95 94
f 91 92 96 95
f 92 89 93 96
