# school_id SD0843
# school_name 临沂第二实验小学七里校区
# boundary_source footprint_convex_hull_buffer_20m
# adjacent_block_merge_distance_m 2.0
mtllib ../campus_materials.mtl
o SD0843_campus_boundary
usemtl campus_boundary
v -77.372 -58.256 0.050
v -80.184 -16.607 0.050
v -83.625 53.028 0.050
v 24.172 57.158 0.050
v 78.012 58.316 0.050
v 84.719 -51.523 0.050
v 19.639 -54.755 0.050
v -77.372 -58.256 0.050
l 1 2 3 4 5 6 7 8 1
o SD0843_T001_1hao
v 15.228 36.415 0.000
v 16.723 12.251 0.000
v -61.338 9.841 0.000
v -62.651 33.817 0.000
v 15.228 36.415 11.750
v 16.723 12.251 11.750
v -61.338 9.841 11.750
v -62.651 33.817 11.750
usemtl roof
f 13 14 15 16
usemtl teaching_building
f 12 11 10 9
f 9 10 14 13
f 10 11 15 14
f 11 12 16 15
f 12 9 13 16
o SD0843_T002_2hao
v 59.221 37.907 0.000
v 63.523 -32.551 0.000
v 27.769 -34.033 0.000
v 24.770 37.166 0.000
v 59.221 37.907 11.750
v 63.523 -32.551 11.750
v 27.769 -34.033 11.750
v 24.770 37.166 11.750
usemtl roof
f 21 22 23 24
usemtl teaching_building
f 20 19 18 17
f 17 18 22 21
f 18 19 23 22
f 19 20 24 23
f 20 17 21 24
o SD0843_T003_3hao
v -60.217 -15.440 0.000
v -58.723 -37.570 0.000
v 18.782 -34.773 0.000
v 16.914 -13.030 0.000
v -60.217 -15.440 11.750
v -58.723 -37.570 11.750
v 18.782 -34.773 11.750
v 16.914 -13.030 11.750
usemtl roof
f 29 30 31 32
usemtl teaching_building
f 28 27 26 25
f 25 26 30 29
f 26 27 31 30
f 27 28 32 31
f 28 25 29 32
