# school_id SD0858
# school_name 临沂西郊实验学校柳青校区南区
# boundary_source footprint_convex_hull_buffer_20m
# adjacent_block_merge_distance_m 2.0
mtllib ../campus_materials.mtl
o SD0858_campus_boundary
usemtl campus_boundary
v -21.879 -94.423 0.050
v -56.114 -30.659 0.050
v -56.406 27.686 0.050
v -56.301 68.928 0.050
v 55.178 68.623 0.050
v 54.905 -26.342 0.050
v 51.273 -94.183 0.050
v -21.879 -94.423 0.050
l 1 2 3 4 5 6 7 8 1
o SD0858_T001_1hao
v 23.993 27.535 0.000
v 23.902 -4.764 0.000
v -36.077 -4.597 0.000
v -36.139 -25.583 0.000
v 34.907 -25.778 0.000
v 35.121 48.678 0.000
v -36.352 48.873 0.000
v -36.406 27.711 0.000
v 23.993 27.535 13.200
v 23.902 -4.764 13.200
v -36.077 -4.597 13.200
v -36.139 -25.583 13.200
v 34.907 -25.778 13.200
v 35.121 48.678 13.200
v -36.352 48.873 13.200
v -36.406 27.711 13.200
usemtl roof
f 17 18 19 20 21 22 23 24
usemtl teaching_building
f 16 15 14 13 12 11 10 9
f 9 10 18 17
f 10 11 19 18
f 11 12 20 19
f 12 13 21 20
f 13 14 22 21
f 14 15 23 22
f 15 16 24 23
f 16 9 17 24
o SD0858_T002_2hao
v -9.938 -74.384 0.000
v 32.312 -74.245 0.000
v 32.205 -48.043 0.000
v -10.030 -48.200 0.000
v -9.938 -74.384 6.600
v 32.312 -74.245 6.600
v 32.205 -48.043 6.600
v -10.030 -48.200 6.600
usemtl roof
f 29 30 31 32
usemtl teaching_building
f 28 27 26 25
f 25 26 30 29
f 26 27 31 30
f 27 28 32 31
f 28 25 29 32
