# school_id SD0866
# school_name 半程中学
# boundary_source footprint_convex_hull_buffer_20m
# adjacent_block_merge_distance_m 2.0
mtllib ../campus_materials.mtl
o SD0866_campus_boundary
usemtl campus_boundary
v 86.399 -112.937 0.050
v 24.960 -109.004 0.050
v -73.055 -102.516 0.050
v -143.203 -97.869 0.050
v -140.765 -49.959 0.050
v -100.108 19.396 0.050
v 2.441 141.166 0.050
v 101.380 134.195 0.050
v 104.319 78.419 0.050
v 98.925 15.606 0.050
v 86.399 -112.937 0.050
l 1 2 3 4 5 6 7 8 9 10 11 1
o SD0866_T001_1hao
v 78.970 93.788 0.000
v 82.338 115.487 0.000
v 11.185 120.500 0.000
v 9.501 98.800 0.000
v 78.970 93.788 9.900
v 82.338 115.487 9.900
v 11.185 120.500 9.900
v 9.501 98.800 9.900
usemtl roof
f 16 17 18 19
usemtl teaching_building
f 15 14 13 12
f 12 13 17 16
f 13 14 18 17
f 14 15 19 18
f 15 12 16 19
o SD0866_T002_2hao
v 79.008 17.432 0.000
v 84.274 78.750 0.000
v 48.716 81.557 0.000
v 44.228 19.794 0.000
v 79.008 17.432 9.900
v 84.274 78.750 9.900
v 48.716 81.557 9.900
v 44.228 19.794 9.900
usemtl roof
f 24 25 26 27
usemtl teaching_building
f 23 22 21 20
f 20 21 25 24
f 21 22 26 25
f 22 23 27 26
f 23 20 24 27
o SD0866_T003_3hao
v 47.596 -23.781 0.000
v 49.196 -2.044 0.000
v 28.331 -0.534 0.000
v 27.905 -6.260 0.000
v -3.370 -3.990 0.000
v -2.753 4.321 0.000
v -39.796 7.008 0.000
v -40.414 -1.386 0.000
v -71.216 0.847 0.000
v -70.766 6.869 0.000
v -83.714 7.814 0.000
v -85.337 -14.135 0.000
v 47.596 -23.781 9.900
v 49.196 -2.044 9.900
v 28.331 -0.534 9.900
v 27.905 -6.260 9.900
v -3.370 -3.990 9.900
v -2.753 4.321 9.900
v -39.796 7.008 9.900
v -40.414 -1.386 9.900
v -71.216 0.847 9.900
v -70.766 6.869 9.900
v -83.714 7.814 9.900
v -85.337 -14.135 9.900
usemtl roof
f 40 41 42 43 44 45 46 47 48 49 50 51
usemtl teaching_building
f 39 38 37 36 35 34 33 32 31 30 29 28
f 28 29 41 40
f 29 30 42 41
f 30 31 43 42
f 31 32 44 43
f 32 33 45 44
f 33 34 46 45
f 34 35 47 46
f 35 36 48 47
f 36 37 49 48
f 37 38 50 49
f 38 39 51 50
f 39 28 40 51
o SD0866_T004_4hao
v -71.734 -82.560 0.000
v -70.614 -59.749 0.000
v -121.039 -55.857 0.000
v -122.228 -79.215 0.000
v -71.734 -82.560 9.900
v -70.614 -59.749 9.900
v -121.039 -55.857 9.900
v -122.228 -79.215 9.900
usemtl roof
f 56 57 58 59
usemtl teaching_building
f 55 54 53 52
f 52 53 57 56
f 53 54 58 57
f 54 55 59 58
f 55 52 56 59
o SD0866_T005_5hao
v 68.370 -91.742 0.000
v 69.612 -72.683 0.000
v 27.493 -69.987 0.000
v 26.259 -89.046 0.000
v 68.370 -91.742 9.900
v 69.612 -72.683 9.900
v 27.493 -69.987 9.900
v 26.259 -89.046 9.900
usemtl roof
f 64 65 66 67
usemtl teaching_building
f 63 62 61 60
f 60 61 65 64
f 61 62 66 65
f 62 63 67 66
f 63 60 64 67
