# school_id SD0889
# school_name 枣园中学
# boundary_source footprint_convex_hull_buffer_20m
# adjacent_block_merge_distance_m 2.0
mtllib ../campus_materials.mtl
o SD0889_campus_boundary
usemtl campus_boundary
v 48.376 -224.762 0.050
v -6.214 -219.833 0.050
v -145.767 -128.446 0.050
v -137.410 219.099 0.050
v -135.649 256.226 0.050
v -128.111 288.102 0.050
v 85.452 240.613 0.050
v 95.250 231.651 0.050
v 99.415 219.539 0.050
v 62.723 -108.093 0.050
v 58.888 -140.649 0.050
v 48.376 -224.762 0.050
l 1 2 3 4 5 6 7 8 9 10 11 12 1
o SD0889_T001_1hao
v 65.433 213.298 0.000
v 62.299 201.226 0.000
v 74.767 198.585 0.000
v 78.717 214.734 0.000
v 79.038 217.292 0.000
v 77.993 220.331 0.000
v 75.896 222.249 0.000
v -113.189 264.295 0.000
v -115.759 253.427 0.000
v 65.433 213.298 9.900
v 62.299 201.226 9.900
v 74.767 198.585 9.900
v 78.717 214.734 9.900
v 79.038 217.292 9.900
v 77.993 220.331 9.900
v 75.896 222.249 9.900
v -113.189 264.295 9.900
v -115.759 253.427 9.900
usemtl roof
f 22 23 24 25 26 27 28 29 30
usemtl teaching_building
f 21 20 19 18 17 16 15 14 13
f 13 14 23 22
f 14 15 24 23
f 15 16 25 24
f 16 17 26 25
f 17 18 27 26
f 18 19 28 27
f 19 20 29 28
f 20 21 30 29
f 21 13 22 30
o SD0889_T002_2hao
v -76.868 213.984 0.000
v -75.724 224.250 0.000
v -116.110 228.651 0.000
v -117.421 218.385 0.000
v -76.868 213.984 9.900
v -75.724 224.250 9.900
v -116.110 228.651 9.900
v -117.421 218.385 9.900
usemtl roof
f 35 36 37 38
usemtl teaching_building
f 34 33 32 31
f 31 32 36 35
f 32 33 37 36
f 33 34 38 37
f 34 31 35 38
o SD0889_T003_3hao
v 24.087 159.374 0.000
v 26.383 180.731 0.000
v -72.766 192.303 0.000
v -75.557 171.280 0.000
v 24.087 159.374 9.900
v 26.383 180.731 9.900
v -72.766 192.303 9.900
v -75.557 171.280 9.900
usemtl roof
f 43 44 45 46
usemtl teaching_building
f 42 41 40 39
f 39 40 44 43
f 40 41 45 44
f 41 42 46 45
f 42 39 43 46
o SD0889_T004_4hao
v 70.870 154.658 0.000
v 71.854 164.109 0.000
v 61.354 165.248 0.000
v 62.010 170.298 0.000
v 41.649 172.253 0.000
v 41.321 167.036 0.000
v 35.739 167.036 0.000
v 35.083 158.244 0.000
v 70.870 154.658 9.900
v 71.854 164.109 9.900
v 61.354 165.248 9.900
v 62.010 170.298 9.900
v 41.649 172.253 9.900
v 41.321 167.036 9.900
v 35.739 167.036 9.900
v 35.083 158.244 9.900
usemtl roof
f 55 56 57 58 59 60 61 62
usemtl teaching_building
f 54 53 52 51 50 49 48 47
f 47 48 56 55
f 48 49 57 56
f 49 50 58 57
f 50 51 59 58
f 51 52 60 59
f 52 53 61 60
f 53 54 62 61
f 54 47 55 62
o SD0889_T005_5hao
v -44.703 130.531 0.000
v -43.056 145.198 0.000
v -53.725 146.013 0.000
v -54.052 140.473 0.000
v -102.315 146.180 0.000
v -101.987 151.721 0.000
v -111.176 152.536 0.000
v -112.823 138.675 0.000
v -44.703 130.531 9.900
v -43.056 145.198 9.900
v -53.725 146.013 9.900
v -54.052 140.473 9.900
v -102.315 146.180 9.900
v -101.987 151.721 9.900
v -111.176 152.536 9.900
v -112.823 138.675 9.900
usemtl roof
f 71 72 73 74 75 76 77 78
usemtl teaching_building
f 70 69 68 67 66 65 64 63
f 63 64 72 71
f 64 65 73 72
f 65 66 74 73
f 66 67 75 74
f 67 68 76 75
f 68 69 77 76
f 69 70 78 77
f 70 63 71 78
o SD0889_T006_6hao
v 55.993 43.844 0.000
v 60.263 84.918 0.000
v 35.793 87.197 0.000
v 30.546 46.772 0.000
v 55.993 43.844 9.900
v 60.263 84.918 9.900
v 35.793 87.197 9.900
v 30.546 46.772 9.900
usemtl roof
f 83 84 85 86
usemtl teaching_building
f 82 81 80 79
f 79 80 84 83
f 80 81 85 84
f 81 82 86 85
f 82 79 83 86
o SD0889_T007_7hao
v 48.932 -3.604 0.000
v 53.362 34.227 0.000
v 30.058 37.155 0.000
v 25.300 -0.500 0.000
v 48.932 -3.604 9.900
v 53.362 34.227 9.900
v 30.058 37.155 9.900
v 25.300 -0.500 9.900
usemtl roof
f 91 92 93 94
usemtl teaching_building
f 90 89 88 87
f 87 88 92 91
f 88 89 93 92
f 89 90 94 93
f 90 87 91 94
o SD0889_T008_8hao
v 49.755 -34.411 0.000
v 50.083 -26.415 0.000
v 40.566 -25.118 0.000
v 41.054 -18.762 0.000
v 30.546 -17.789 0.000
v 30.058 -23.487 0.000
v 19.878 -22.839 0.000
v 19.222 -31.316 0.000
v 49.755 -34.411 9.900
v 50.083 -26.415 9.900
v 40.566 -25.118 9.900
v 41.054 -18.762 9.900
v 30.546 -17.789 9.900
v 30.058 -23.487 9.900
v 19.878 -22.839 9.900
v 19.222 -31.316 9.900
usemtl roof
f 103 104 105 106 107 108 109 110
usemtl teaching_building
f 102 101 100 99 98 97 96 95
f 95 96 104 103
f 96 97 105 104
f 97 98 106 105
f 98 99 107 106
f 99 100 108 107
f 100 101 109 108
f 101 102 110 109
f 102 95 103 110
o SD0889_T009_9hao
v 46.301 -67.664 0.000
v 47.452 -55.434 0.000
v 16.424 -52.006 0.000
v 15.280 -64.079 0.000
v 46.301 -67.664 9.900
v 47.452 -55.434 9.900
v 16.424 -52.006 9.900
v 15.280 -64.079 9.900
usemtl roof
f 115 116 117 118
usemtl teaching_building
f 114 113 112 111
f 111 112 116 115
f 112 113 117 116
f 113 114 118 117
f 114 111 115 118
o SD0889_T010_10hao
v 42.854 -105.810 0.000
v 44.501 -89.169 0.000
v 36.952 -88.363 0.000
v 36.624 -92.116 0.000
v 20.366 -90.642 0.000
v 20.534 -86.408 0.000
v 13.305 -85.760 0.000
v 11.345 -102.548 0.000
v 42.854 -105.810 9.900
v 44.501 -89.169 9.900
v 36.952 -88.363 9.900
v 36.624 -92.116 9.900
v 20.366 -90.642 9.900
v 20.534 -86.408 9.900
v 13.305 -85.760 9.900
v 11.345 -102.548 9.900
usemtl roof
f 127 128 129 130 131 132 133 134
usemtl teaching_building
f 126 125 124 123 122 121 120 119
f 119 120 128 127
f 120 121 129 128
f 121 122 130 129
f 122 123 131 130
f 123 124 132 131
f 124 125 133 132
f 125 126 134 133
f 126 119 127 134
o SD0889_T011_11hao
v -84.639 -121.663 0.000
v -83.815 -111.925 0.000
v -124.399 -108.358 0.000
v -125.505 -117.808 0.000
v -84.639 -121.663 9.900
v -83.815 -111.925 9.900
v -124.399 -108.358 9.900
v -125.505 -117.808 9.900
usemtl roof
f 139 140 141 142
usemtl teaching_building
f 138 137 136 135
f 135 136 140 139
f 136 137 141 140
f 137 138 142 141
f 138 135 139 142
o SD0889_T012_12hao
v -43.781 -125.628 0.000
v -42.957 -115.622 0.000
v -55.936 -114.528 0.000
v -55.654 -108.775 0.000
v -60.900 -108.497 0.000
v -61.312 -113.843 0.000
v -74.428 -112.879 0.000
v -74.977 -122.348 0.000
v -43.781 -125.628 9.900
v -42.957 -115.622 9.900
v -55.936 -114.528 9.900
v -55.654 -108.775 9.900
v -60.900 -108.497 9.900
v -61.312 -113.843 9.900
v -74.428 -112.879 9.900
v -74.977 -122.348 9.900
usemtl roof
f 151 152 153 154 155 156 157 158
usemtl teaching_building
f 150 149 148 147 146 145 144 143
f 143 144 152 151
f 144 145 153 152
f 145 146 154 153
f 146 147 155 154
f 147 148 156 155
f 148 149 157 156
f 149 150 158 157
f 150 143 151 158
o SD0889_T013_13hao
v -3.617 -127.000 0.000
v -2.785 -118.772 0.000
v -32.739 -116.029 0.000
v -33.425 -123.720 0.000
v -3.617 -127.000 9.900
v -2.785 -118.772 9.900
v -32.739 -116.029 9.900
v -33.425 -123.720 9.900
usemtl roof
f 163 164 165 166
usemtl teaching_building
f 162 161 160 159
f 159 160 164 163
f 160 161 165 164
f 161 162 166 165
f 162 159 163 166
o SD0889_T014_14hao
v 39.034 -138.239 0.000
v 40.284 -125.499 0.000
v 8.950 -122.756 0.000
v 7.837 -135.496 0.000
v 39.034 -138.239 9.900
v 40.284 -125.499 9.900
v 8.950 -122.756 9.900
v 7.837 -135.496 9.900
usemtl roof
f 171 172 173 174
usemtl teaching_building
f 170 169 168 167
f 167 168 172 171
f 168 169 173 172
f 169 170 174 173
f 170 167 171 174
o SD0889_T015_15hao
v 34.626 -171.686 0.000
v 36.143 -158.391 0.000
v 30.203 -157.566 0.000
v 29.791 -160.577 0.000
v 10.468 -158.669 0.000
v 10.880 -155.648 0.000
v 5.488 -155.370 0.000
v 4.253 -168.944 0.000
v 34.626 -171.686 9.900
v 36.143 -158.391 9.900
v 30.203 -157.566 9.900
v 29.791 -160.577 9.900
v 10.468 -158.669 9.900
v 10.880 -155.648 9.900
v 5.488 -155.370 9.900
v 4.253 -168.944 9.900
usemtl roof
f 183 184 185 186 187 188 189 190
usemtl teaching_building
f 182 181 180 179 178 177 176 175
f 175 176 184 183
f 176 177 185 184
f 177 178 186 185
f 178 179 187 186
f 179 180 188 187
f 180 181 189 188
f 181 182 190 189
f 182 175 183 190
o SD0889_T016_16hao
v 30.927 -203.105 0.000
v 32.445 -189.819 0.000
v 26.505 -188.985 0.000
v 26.100 -192.005 0.000
v 6.777 -190.087 0.000
v 7.181 -187.076 0.000
v 1.805 -186.798 0.000
v 0.562 -200.363 0.000
v 30.927 -203.105 9.900
v 32.445 -189.819 9.900
v 26.505 -188.985 9.900
v 26.100 -192.005 9.900
v 6.777 -190.087 9.900
v 7.181 -187.076 9.900
v 1.805 -186.798 9.900
v 0.562 -200.363 9.900
usemtl roof
f 199 200 201 202 203 204 205 206
usemtl teaching_building
f 198 197 196 195 194 193 192 191
f 191 192 200 199
f 192 193 201 200
f 193 194 202 201
f 194 195 203 202
f 195 196 204 203
f 196 197 205 204
f 197 198 206 205
f 198 191 199 206
