# school_id SD0820
# school_name 临沂市第二实验小学
# boundary_source footprint_convex_hull_buffer_20m
# adjacent_block_merge_distance_m 2.0
mtllib ../campus_materials.mtl
o SD0820_campus_boundary
usemtl campus_boundary
v 7.782 -74.808 0.050
v -39.046 -63.351 0.050
v -53.546 -32.465 0.050
v -72.542 8.786 0.050
v -82.935 33.176 0.050
v -88.218 66.064 0.050
v 70.448 65.450 0.050
v 81.811 -29.796 0.050
v 82.390 -60.400 0.050
v 30.095 -74.381 0.050
v 7.782 -74.808 0.050
l 1 2 3 4 5 6 7 8 9 10 11 1
o SD0820_T001_1hao
v -63.576 38.765 0.000
v -64.734 45.973 0.000
v 52.684 45.519 0.000
v 52.657 37.682 0.000
v -63.576 38.765 16.620
v -64.734 45.973 16.620
v 52.684 45.519 16.620
v 52.657 37.682 16.620
usemtl roof
f 16 17 18 19
usemtl teaching_building
f 15 14 13 12
f 12 13 17 16
f 13 14 18 17
f 14 15 19 18
f 15 12 16 19
o SD0820_T001_1hao_seg02
v -31.948 15.983 0.000
v -28.458 -23.855 0.000
v -35.411 -24.032 0.000
v -54.255 16.890 0.000
v -31.948 15.983 16.620
v -28.458 -23.855 16.620
v -35.411 -24.032 16.620
v -54.255 16.890 16.620
usemtl roof
f 24 25 26 27
usemtl teaching_building
f 23 22 21 20
f 20 21 25 24
f 21 22 26 25
f 22 23 27 26
f 23 20 24 27
o SD0820_T001_1hao_seg03
v -31.721 18.205 0.000
v -52.132 18.393 0.000
v -51.959 37.074 0.000
v -31.547 36.886 0.000
v -31.721 18.205 16.620
v -52.132 18.393 16.620
v -51.959 37.074 16.620
v -31.547 36.886 16.620
usemtl roof
f 32 33 34 35
usemtl teaching_building
f 31 30 29 28
f 28 29 33 32
f 29 30 34 33
f 30 31 35 34
f 31 28 32 35
o SD0820_T002_2hao
v 62.097 -45.123 0.000
v 61.833 -31.173 0.000
v -25.269 -32.842 0.000
v -25.005 -46.196 0.000
v 9.821 -45.532 0.000
v 10.004 -54.762 0.000
v 27.280 -54.431 0.000
v 27.116 -45.787 0.000
v 62.097 -45.123 21.800
v 61.833 -31.173 21.800
v -25.269 -32.842 21.800
v -25.005 -46.196 21.800
v 9.821 -45.532 21.800
v 10.004 -54.762 21.800
v 27.280 -54.431 21.800
v 27.116 -45.787 21.800
usemtl roof
f 44 45 46 47 48 49 50 51
usemtl teaching_building
f 43 42 41 40 39 38 37 36
f 36 37 45 44
f 37 38 46 45
f 38 39 47 46
f 39 40 48 47
f 40 41 49 48
f 41 42 50 49
f 42 43 51 50
f 43 36 44 51
