# school_id SD0879
# school_name 教学楼
# boundary_source footprint_convex_hull_buffer_20m
# adjacent_block_merge_distance_m 2.0
mtllib ../campus_materials.mtl
o SD0879_campus_boundary
usemtl campus_boundary
v -46.197 -28.202 0.050
v -45.252 17.501 0.050
v -13.635 29.750 0.050
v 21.187 29.750 0.050
v 54.451 16.910 0.050
v 56.439 -28.202 0.050
v -46.197 -28.202 0.050
l 1 2 3 4 5 6 7 1
o SD0879_T001_1hao
v -9.896 3.449 0.000
v -9.896 9.750 0.000
v 17.461 9.750 0.000
v 17.461 3.206 0.000
v 35.046 2.962 0.000
v 35.538 -8.202 0.000
v -25.779 -8.202 0.000
v -25.533 3.692 0.000
v -9.896 3.449 12.060
v -9.896 9.750 12.060
v 17.461 9.750 12.060
v 17.461 3.206 12.060
v 35.046 2.962 12.060
v 35.538 -8.202 12.060
v -25.779 -8.202 12.060
v -25.533 3.692 12.060
usemtl roof
f 16 17 18 19 20 21 22 23
usemtl teaching_building
f 15 14 13 12 11 10 9 8
f 8 9 17 16
f 9 10 18 17
f 10 11 19 18
f 11 12 20 19
f 12 13 21 20
f 13 14 22 21
f 14 15 23 22
f 15 8 16 23
