# school_id SD0853
# school_name 临沂第四中学
# boundary_source footprint_convex_hull_buffer_20m
# adjacent_block_merge_distance_m 2.0
mtllib ../campus_materials.mtl
o SD0853_campus_boundary
usemtl campus_boundary
v -32.857 -74.803 0.050
v -90.967 -70.894 0.050
v -103.971 -67.583 0.050
v -114.035 -56.545 0.050
v -117.508 -44.174 0.050
v -123.887 31.941 0.050
v -123.969 45.422 0.050
v -117.374 76.680 0.050
v -106.275 101.442 0.050
v 91.352 100.267 0.050
v 100.929 83.116 0.050
v 111.799 46.546 0.050
v 112.186 -42.772 0.050
v 109.424 -55.642 0.050
v 98.516 -65.149 0.050
v 88.296 -68.844 0.050
v 25.135 -73.387 0.050
v -32.857 -74.803 0.050
l 1 2 3 4 5 6 7 8 9 10 11 12 13 14 15 16 17 18 1
o SD0853_T001_1hao
v -29.861 80.890 0.000
v -30.052 70.433 0.000
v -98.247 70.455 0.000
v -93.357 81.365 0.000
v -29.861 80.890 22.080
v -30.052 70.433 22.080
v -98.247 70.455 22.080
v -93.357 81.365 22.080
usemtl roof
f 23 24 25 26
usemtl teaching_building
f 22 21 20 19
f 19 20 24 23
f 20 21 25 24
f 21 22 26 25
f 22 19 23 26
o SD0853_T002_2hao
v 79.574 80.337 0.000
v 82.388 75.297 0.000
v 83.098 72.102 0.000
v 15.596 70.146 0.000
v 15.842 80.094 0.000
v 79.574 80.337 23.600
v 82.388 75.297 23.600
v 83.098 72.102 23.600
v 15.596 70.146 23.600
v 15.842 80.094 23.600
usemtl roof
f 32 33 34 35 36
usemtl teaching_building
f 31 30 29 28 27
f 27 28 33 32
f 28 29 34 33
f 29 30 35 34
f 30 31 36 35
f 31 27 32 36
o SD0853_T003_3hao
v -37.410 43.804 0.000
v -37.392 33.258 0.000
v -103.892 32.838 0.000
v -103.956 43.395 0.000
v -37.410 43.804 24.290
v -37.392 33.258 24.290
v -103.892 32.838 24.290
v -103.956 43.395 24.290
usemtl roof
f 41 42 43 44
usemtl teaching_building
f 40 39 38 37
f 37 38 42 41
f 38 39 43 42
f 39 40 44 43
f 40 37 41 44
o SD0853_T004_4hao
v 91.812 43.594 0.000
v 90.337 31.622 0.000
v 23.354 32.352 0.000
v 23.290 42.909 0.000
v 91.812 43.594 25.810
v 90.337 31.622 25.810
v 23.354 32.352 25.810
v 23.290 42.909 25.810
usemtl roof
f 49 50 51 52
usemtl teaching_building
f 48 47 46 45
f 45 46 50 49
f 46 47 51 50
f 47 48 52 51
f 48 45 49 52
o SD0853_T005_5hao
v 83.544 5.856 0.000
v 79.037 -4.823 0.000
v 13.629 -5.210 0.000
v 13.383 5.701 0.000
v 83.544 5.856 29.380
v 79.037 -4.823 29.380
v 13.629 -5.210 29.380
v 13.383 5.701 29.380
usemtl roof
f 57 58 59 60
usemtl teaching_building
f 56 55 54 53
f 53 54 58 57
f 54 55 59 58
f 55 56 60 59
f 56 53 57 60
o SD0853_T006_6hao
v -29.615 5.214 0.000
v -29.861 -5.210 0.000
v -93.849 -4.480 0.000
v -97.509 5.458 0.000
v -29.615 5.214 36.220
v -29.861 -5.210 36.220
v -93.849 -4.480 36.220
v -97.509 5.458 36.220
usemtl roof
f 65 66 67 68
usemtl teaching_building
f 64 63 62 61
f 61 62 66 65
f 62 63 67 66
f 63 64 68 67
f 64 61 65 68
o SD0853_T007_7hao
v 83.890 -23.338 0.000
v 83.653 -30.048 0.000
v 88.580 -32.214 0.000
v 91.548 -36.448 0.000
v 92.177 -40.693 0.000
v 91.266 -44.938 0.000
v 88.197 -47.613 0.000
v 84.100 -49.094 0.000
v 79.055 -48.276 0.000
v 75.048 -45.059 0.000
v 73.764 -41.091 0.000
v 52.657 -41.666 0.000
v 32.150 -51.493 0.000
v 24.173 -53.405 0.000
v 19.757 -41.400 0.000
v 19.302 -23.714 0.000
v 83.890 -23.338 19.400
v 83.653 -30.048 19.400
v 88.580 -32.214 19.400
v 91.548 -36.448 19.400
v 92.177 -40.693 19.400
v 91.266 -44.938 19.400
v 88.197 -47.613 19.400
v 84.100 -49.094 19.400
v 79.055 -48.276 19.400
v 75.048 -45.059 19.400
v 73.764 -41.091 19.400
v 52.657 -41.666 19.400
v 32.150 -51.493 19.400
v 24.173 -53.405 19.400
v 19.757 -41.400 19.400
v 19.302 -23.714 19.400
usemtl roof
f 85 86 87 88 89 90 91 92 93 94 95 96 97 98 99 100
usemtl teaching_building
f 84 83 82 81 80 79 78 77 76 75 74 73 72 71 70 69
f 69 70 86 85
f 70 71 87 86
f 71 72 88 87
f 72 73 89 88
f 73 74 90 89
f 74 75 91 90
f 75 76 92 91
f 76 77 93 92
f 77 78 94 93
f 78 79 95 94
f 79 80 96 95
f 80 81 97 96
f 81 82 98 97
f 82 83 99 98
f 83 84 100 99
f 84 69 85 100
o SD0853_T008_8hao
v -30.353 -24.620 0.000
v -29.943 -47.535 0.000
v -32.429 -54.787 0.000
v -42.527 -52.045 0.000
v -56.751 -43.523 0.000
v -79.279 -42.948 0.000
v -82.812 -49.724 0.000
v -87.802 -51.062 0.000
v -93.229 -49.680 0.000
v -96.061 -46.574 0.000
v -97.737 -40.604 0.000
v -93.311 -33.972 0.000
v -89.906 -32.557 0.000
v -89.724 -24.455 0.000
v -30.353 -24.620 21.980
v -29.943 -47.535 21.980
v -32.429 -54.787 21.980
v -42.527 -52.045 21.980
v -56.751 -43.523 21.980
v -79.279 -42.948 21.980
v -82.812 -49.724 21.980
v -87.802 -51.062 21.980
v -93.229 -49.680 21.980
v -96.061 -46.574 21.980
v -97.737 -40.604 21.980
v -93.311 -33.972 21.980
v -89.906 -32.557 21.980
v -89.724 -24.455 21.980
usemtl roof
f 115 116 117 118 119 120 121 122 123 124 125 126 127 128
usemtl teaching_building
f 114 113 112 111 110 109 108 107 106 105 104 103 102 101
f 101 102 116 115
f 102 103 117 116
f 103 104 118 117
f 104 105 119 118
f 105 106 120 119
f 106 107 121 120
f 107 108 122 121
f 108 109 123 122
f 109 110 124 123
f 110 111 125 124
f 111 112 126 125
f 112 113 127 126
f 113 114 128 127
f 114 101 115 128
