# school_id SD0811
# school_name 临沂三十五中学
# boundary_source footprint_convex_hull_buffer_20m
# adjacent_block_merge_distance_m 2.0
mtllib ../campus_materials.mtl
o SD0811_campus_boundary
usemtl campus_boundary
v 131.351 -130.732 0.050
v 59.387 -130.215 0.050
v -93.689 -126.400 0.050
v -98.865 97.980 0.050
v -98.973 142.851 0.050
v -98.796 191.988 0.050
v -41.642 193.440 0.050
v 143.808 -41.810 0.050
v 143.498 -73.278 0.050
v 131.351 -130.732 0.050
l 1 2 3 4 5 6 7 8 9 10 1
o SD0811_T001_1hao
v -78.370 153.383 0.000
v -50.643 154.105 0.000
v -51.147 173.192 0.000
v -78.866 172.488 0.000
v -78.370 153.383 9.900
v -50.643 154.105 9.900
v -51.147 173.192 9.900
v -78.866 172.488 9.900
usemtl roof
f 15 16 17 18
usemtl teaching_building
f 14 13 12 11
f 11 12 16 15
f 12 13 17 16
f 13 14 18 17
f 14 11 15 18
o SD0811_T002_2hao
v -78.866 98.235 0.000
v -45.461 98.309 0.000
v -45.583 142.931 0.000
v -78.973 142.839 0.000
v -78.866 98.235 9.900
v -45.461 98.309 9.900
v -45.583 142.931 9.900
v -78.973 142.839 9.900
usemtl roof
f 23 24 25 26
usemtl teaching_building
f 22 21 20 19
f 19 20 24 23
f 20 21 25 24
f 21 22 26 25
f 22 19 23 26
o SD0811_T003_3hao
v -74.584 -59.906 0.000
v 24.990 -59.674 0.000
v 24.959 -44.247 0.000
v 13.183 -44.284 0.000
v 13.145 -28.209 0.000
v 28.898 -28.163 0.000
v 28.875 -15.451 0.000
v 22.769 -15.479 0.000
v 22.678 27.439 0.000
v 27.944 28.643 0.000
v 27.982 39.150 0.000
v 11.420 39.215 0.000
v 11.489 57.477 0.000
v 22.036 57.440 0.000
v 22.082 68.243 0.000
v -73.027 68.614 0.000
v -73.073 55.744 0.000
v 8.803 55.457 0.000
v 8.688 23.260 0.000
v 3.033 23.278 0.000
v 3.010 15.597 0.000
v -9.041 15.625 0.000
v -9.033 19.276 0.000
v -17.284 19.285 0.000
v -17.284 15.672 0.000
v -40.172 15.672 0.000
v -40.179 19.665 0.000
v -45.980 19.665 0.000
v -45.980 15.616 0.000
v -61.702 15.588 0.000
v -61.717 19.192 0.000
v -69.364 19.165 0.000
v -69.265 -9.595 0.000
v -61.091 -9.567 0.000
v -61.106 -5.129 0.000
v -45.690 -5.074 0.000
v -45.674 -8.715 0.000
v -39.691 -8.687 0.000
v -39.706 -5.064 0.000
v -16.032 -4.962 0.000
v -16.017 -9.382 0.000
v -9.881 -9.363 0.000
v -9.896 -5.314 0.000
v 1.873 -5.277 0.000
v 1.880 -8.882 0.000
v 5.971 -8.863 0.000
v 6.063 -42.552 0.000
v -74.630 -42.746 0.000
v -74.584 -59.906 9.900
v 24.990 -59.674 9.900
v 24.959 -44.247 9.900
v 13.183 -44.284 9.900
v 13.145 -28.209 9.900
v 28.898 -28.163 9.900
v 28.875 -15.451 9.900
v 22.769 -15.479 9.900
v 22.678 27.439 9.900
v 27.944 28.643 9.900
v 27.982 39.150 9.900
v 11.420 39.215 9.900
v 11.489 57.477 9.900
v 22.036 57.440 9.900
v 22.082 68.243 9.900
v -73.027 68.614 9.900
v -73.073 55.744 9.900
v 8.803 55.457 9.900
v 8.688 23.260 9.900
v 3.033 23.278 9.900
v 3.010 15.597 9.900
v -9.041 15.625 9.900
v -9.033 19.276 9.900
v -17.284 19.285 9.900
v -17.284 15.672 9.900
v -40.172 15.672 9.900
v -40.179 19.665 9.900
v -45.980 19.665 9.900
v -45.980 15.616 9.900
v -61.702 15.588 9.900
v -61.717 19.192 9.900
v -69.364 19.165 9.900
v -69.265 -9.595 9.900
v -61.091 -9.567 9.900
v -61.106 -5.129 9.900
v -45.690 -5.074 9.900
v -45.674 -8.715 9.900
v -39.691 -8.687 9.900
v -39.706 -5.064 9.900
v -16.032 -4.962 9.900
v -16.017 -9.382 9.900
v -9.881 -9.363 9.900
v -9.896 -5.314 9.900
v 1.873 -5.277 9.900
v 1.880 -8.882 9.900
v 5.971 -8.863 9.900
v 6.063 -42.552 9.900
v -74.630 -42.746 9.900
usemtl roof
f 75 76 77 78 79 80 81 82 83 84 85 86 87 88 89 90 91 92 93 94 95 96 97 98 99 100 101 102 103 104 105 106 107 108 109 110 111 112 113 114 115 116 117 118 119 120 121 122
usemtl teaching_building
f 74 73 72 71 70 69 68 67 66 65 64 63 62 61 60 59 58 57 56 55 54 53 52 51 50 49 48 47 46 45 44 43 42 41 40 39 38 37 36 35 34 33 32 31 30 29 28 27
f 27 28 76 75
f 28 29 77 76
f 29 30 78 77
f 30 31 79 78
f 31 32 80 79
f 32 33 81 80
f 33 34 82 81
f 34 35 83 82
f 35 36 84 83
f 36 37 85 84
f 37 38 86 85
f 38 39 87 86
f 39 40 88 87
f 40 41 89 88
f 41 42 90 89
f 42 43 91 90
f 43 44 92 91
f 44 45 93 92
f 45 46 94 93
f 46 47 95 94
f 47 48 96 95
f 48 49 97 96
f 49 50 98 97
f 50 51 99 98
f 51 52 100 99
f 52 53 101 100
f 53 54 102 101
f 54 55 103 102
f 55 56 104 103
f 56 57 105 104
f 57 58 106 105
f 58 59 107 106
f 59 60 108 107
f 60 61 109 108
f 61 62 110 109
f 62 63 111 110
f 63 64 112 111
f 64 65 113 112
f 65 66 114 113
f 66 67 115 114
f 67 68 116 115
f 68 69 117 116
f 69 70 118 117
f 70 71 119 118
f 71 72 120 119
f 72 73 121 120
f 73 74 122 121
f 74 27 75 122
o SD0811_T004_4hao
v 123.519 -71.089 0.000
v 123.740 -48.658 0.000
v 115.017 -48.584 0.000
v 114.979 -52.957 0.000
v 100.104 -52.818 0.000
v 100.173 -45.915 0.000
v 75.682 -45.684 0.000
v 75.621 -52.466 0.000
v 60.158 -52.308 0.000
v 60.204 -48.241 0.000
v 50.633 -48.148 0.000
v 50.427 -70.404 0.000
v 123.519 -71.089 9.900
v 123.740 -48.658 9.900
v 115.017 -48.584 9.900
v 114.979 -52.957 9.900
v 100.104 -52.818 9.900
v 100.173 -45.915 9.900
v 75.682 -45.684 9.900
v 75.621 -52.466 9.900
v 60.158 -52.308 9.900
v 60.204 -48.241 9.900
v 50.633 -48.148 9.900
v 50.427 -70.404 9.900
usemtl roof
f 135 136 137 138 139 140 141 142 143 144 145 146
usemtl teaching_building
f 134 133 132 131 130 129 128 127 126 125 124 123
f 123 124 136 135
f 124 125 137 136
f 125 126 138 137
f 126 127 139 138
f 127 128 140 139
f 128 129 141 140
f 129 130 142 141
f 130 131 143 142
f 131 132 144 143
f 132 133 145 144
f 133 134 146 145
f 134 123 135 146
o SD0811_T005_5hao
v 115.162 -110.615 0.000
v 115.376 -80.670 0.000
v 59.922 -80.290 0.000
v 59.708 -110.217 0.000
v 115.162 -110.615 9.900
v 115.376 -80.670 9.900
v 59.922 -80.290 9.900
v 59.708 -110.217 9.900
usemtl roof
f 151 152 153 154
usemtl teaching_building
f 150 149 148 147
f 147 148 152 151
f 148 149 153 152
f 149 150 154 153
f 150 147 151 154
o SD0811_T006_6hao
v -74.134 -106.881 0.000
v 20.579 -106.714 0.000
v 20.541 -86.025 0.000
v -74.172 -86.192 0.000
v -74.134 -106.881 9.900
v 20.579 -106.714 9.900
v 20.541 -86.025 9.900
v -74.172 -86.192 9.900
usemtl roof
f 159 160 161 162
usemtl teaching_building
f 158 157 156 155
f 155 156 160 159
f 156 157 161 160
f 157 158 162 161
f 158 155 159 162
