# school_id SD0892
# school_name 沂南中学
# boundary_source footprint_convex_hull_buffer_20m
# adjacent_block_merge_distance_m 2.0
mtllib ../campus_materials.mtl
o SD0892_campus_boundary
usemtl campus_boundary
v 34.077 -89.287 0.050
v -14.008 -85.344 0.050
v -165.239 -54.988 0.050
v -167.341 -21.543 0.050
v -144.705 79.880 0.050
v -8.841 112.548 0.050
v 2.074 113.146 0.050
v 63.922 115.077 0.050
v 87.551 115.755 0.050
v 108.657 48.893 0.050
v 113.311 -22.424 0.050
v 114.455 -89.287 0.050
v 34.077 -89.287 0.050
l 1 2 3 4 5 6 7 8 9 10 11 12 13 1
o SD0892_T001_1hao
v -5.317 81.103 0.000
v 74.113 84.121 0.000
v 73.026 95.330 0.000
v 64.521 95.086 0.000
v 65.010 91.472 0.000
v 3.179 89.659 0.000
v 2.934 93.163 0.000
v -5.932 92.677 0.000
v -5.317 81.103 14.950
v 74.113 84.121 14.950
v 73.026 95.330 14.950
v 64.521 95.086 14.950
v 65.010 91.472 14.950
v 3.179 89.659 14.950
v 2.934 93.163 14.950
v -5.932 92.677 14.950
usemtl roof
f 22 23 24 25 26 27 28 29
usemtl teaching_building
f 21 20 19 18 17 16 15 14
f 14 15 23 22
f 15 16 24 23
f 16 17 25 24
f 17 18 26 25
f 18 19 27 26
f 19 20 28 27
f 20 21 29 28
f 21 14 22 29
o SD0892_T002_2hao
v -49.686 54.905 0.000
v -127.666 52.495 0.000
v -127.902 63.350 0.000
v -35.594 66.490 0.000
v -32.677 20.649 0.000
v -47.739 20.417 0.000
v -49.686 54.905 12.400
v -127.666 52.495 12.400
v -127.902 63.350 12.400
v -35.594 66.490 12.400
v -32.677 20.649 12.400
v -47.739 20.417 12.400
usemtl roof
f 36 37 38 39 40 41
usemtl teaching_building
f 35 34 33 32 31 30
f 30 31 37 36
f 31 32 38 37
f 32 33 39 38
f 33 34 40 39
f 34 35 41 40
f 35 30 36 41
o SD0892_T003_3hao
v 45.040 27.624 0.000
v 89.591 28.718 0.000
v 88.857 45.178 0.000
v 44.306 43.718 0.000
v 45.040 27.624 14.210
v 89.591 28.718 14.210
v 88.857 45.178 14.210
v 44.306 43.718 14.210
usemtl roof
f 46 47 48 49
usemtl teaching_building
f 45 44 43 42
f 42 43 47 46
f 43 44 48 47
f 44 45 49 48
f 45 42 46 49
o SD0892_T004_4hao
v -20.134 23.965 0.000
v 28.103 26.165 0.000
v 26.998 44.448 0.000
v -20.505 41.519 0.000
v -20.134 23.965 14.210
v 28.103 26.165 14.210
v 26.998 44.448 14.210
v -20.505 41.519 14.210
usemtl roof
f 54 55 56 57
usemtl teaching_building
f 53 52 51 50
f 50 51 55 54
f 51 52 56 55
f 52 53 57 56
f 53 50 54 57
o SD0892_T005_5hao
v -96.239 -23.766 0.000
v -28.285 -20.903 0.000
v -30.848 12.524 0.000
v -98.159 8.699 0.000
v -96.239 -23.766 19.550
v -28.285 -20.903 19.550
v -30.848 12.524 19.550
v -98.159 8.699 19.550
usemtl roof
f 62 63 64 65
usemtl teaching_building
f 61 60 59 58
f 58 59 63 62
f 59 60 64 63
f 60 61 65 64
f 61 58 62 65
o SD0892_T006_6hao
v -15.995 -28.796 0.000
v 28.466 -27.834 0.000
v 28.466 -31.449 0.000
v 45.955 -30.487 0.000
v 45.466 -26.629 0.000
v 93.322 -23.247 0.000
v 92.109 -10.712 0.000
v 44.496 -14.326 0.000
v 44.252 -10.468 0.000
v 27.008 -11.187 0.000
v 27.252 -14.569 0.000
v -16.475 -16.017 0.000
v -15.995 -28.796 13.360
v 28.466 -27.834 13.360
v 28.466 -31.449 13.360
v 45.955 -30.487 13.360
v 45.466 -26.629 13.360
v 93.322 -23.247 13.360
v 92.109 -10.712 13.360
v 44.496 -14.326 13.360
v 44.252 -10.468 13.360
v 27.008 -11.187 13.360
v 27.252 -14.569 13.360
v -16.475 -16.017 13.360
usemtl roof
f 78 79 80 81 82 83 84 85 86 87 88 89
usemtl teaching_building
f 77 76 75 74 73 72 71 70 69 68 67 66
f 66 67 79 78
f 67 68 80 79
f 68 69 81 80
f 69 70 82 81
f 70 71 83 82
f 71 72 84 83
f 72 73 85 84
f 73 74 86 85
f 74 75 87 86
f 75 76 88 87
f 76 77 89 88
f 77 66 78 89
o SD0892_T007_7hao
v -104.571 -19.942 0.000
v -102.651 -35.859 0.000
v -146.242 -38.402 0.000
v -147.202 -23.125 0.000
v -104.571 -19.942 15.690
v -102.651 -35.859 15.690
v -146.242 -38.402 15.690
v -147.202 -23.125 15.690
usemtl roof
f 94 95 96 97
usemtl teaching_building
f 93 92 91 90
f 90 91 95 94
f 91 92 96 95
f 92 93 97 96
f 93 90 94 97
o SD0892_T008_8hao
v -94.319 -48.594 0.000
v -21.230 -42.868 0.000
v -22.516 -27.270 0.000
v -95.596 -32.676 0.000
v -94.319 -48.594 19.550
v -21.230 -42.868 19.550
v -22.516 -27.270 19.550
v -95.596 -32.676 19.550
usemtl roof
f 102 103 104 105
usemtl teaching_building
f 101 100 99 98
f 98 99 103 102
f 99 100 104 103
f 100 101 105 104
f 101 98 102 105
o SD0892_T009_9hao
v 92.480 -57.735 0.000
v 43.355 -58.785 0.000
v 43.138 -56.265 0.000
v 23.684 -57.105 0.000
v 23.258 -53.535 0.000
v -11.847 -56.055 0.000
v -11.213 -65.506 0.000
v 22.207 -64.965 0.000
v 22.207 -68.027 0.000
v 34.733 -67.794 0.000
v 34.896 -69.287 0.000
v 94.110 -69.287 0.000
v 92.480 -57.735 16.120
v 43.355 -58.785 16.120
v 43.138 -56.265 16.120
v 23.684 -57.105 16.120
v 23.258 -53.535 16.120
v -11.847 -56.055 16.120
v -11.213 -65.506 16.120
v 22.207 -64.965 16.120
v 22.207 -68.027 16.120
v 34.733 -67.794 16.120
v 34.896 -69.287 16.120
v 94.110 -69.287 16.120
usemtl roof
f 118 119 120 121 122 123 124 125 126 127 128 129
usemtl teaching_building
f 117 116 115 114 113 112 111 110 109 108 107 106
f 106 107 119 118
f 107 108 120 119
f 108 109 121 120
f 109 110 122 121
f 110 111 123 122
f 111 112 124 123
f 112 113 125 124
f 113 114 126 125
f 114 115 127 126
f 115 116 128 127
f 116 117 129 128
f 117 106 118 129
