# school_id SD0836
# school_name 临沂第三实验小学 南坊校区
# boundary_source footprint_convex_hull_buffer_20m
# adjacent_block_merge_distance_m 2.0
mtllib ../campus_materials.mtl
o SD0836_campus_boundary
usemtl campus_boundary
v 117.011 -72.408 0.050
v -1.765 -71.951 0.050
v -94.484 -68.802 0.050
v -100.251 9.570 0.050
v -100.294 77.531 0.050
v -3.634 78.545 0.050
v 51.837 79.086 0.050
v 117.831 -19.186 0.050
v 117.011 -72.408 0.050
l 1 2 3 4 5 6 7 8 9 1
o SD0836_T001_1hao
v -3.317 47.798 0.000
v 41.361 48.243 0.000
v 41.247 58.982 0.000
v -3.424 58.546 0.000
v -3.317 47.798 9.900
v 41.361 48.243 9.900
v 41.247 58.982 9.900
v -3.424 58.546 9.900
usemtl roof
f 14 15 16 17
usemtl teaching_building
f 13 12 11 10
f 10 11 15 14
f 11 12 16 15
f 12 13 17 16
f 13 10 14 17
o SD0836_T002_2hao
v -80.251 10.311 0.000
v -28.499 10.348 0.000
v -28.507 22.374 0.000
v -76.092 22.356 0.000
v -76.100 46.409 0.000
v -29.308 46.436 0.000
v -29.315 57.768 0.000
v -80.281 57.740 0.000
v -80.251 10.311 9.900
v -28.499 10.348 9.900
v -28.507 22.374 9.900
v -76.092 22.356 9.900
v -76.100 46.409 9.900
v -29.308 46.436 9.900
v -29.315 57.768 9.900
v -80.281 57.740 9.900
usemtl roof
f 26 27 28 29 30 31 32 33
usemtl teaching_building
f 25 24 23 22 21 20 19 18
f 18 19 27 26
f 19 20 28 27
f 20 21 29 28
f 21 22 30 29
f 22 23 31 30
f 23 24 32 31
f 24 25 33 32
f 25 18 26 33
o SD0836_T003_3hao
v -1.265 -13.733 0.000
v -1.387 -51.952 0.000
v 42.445 -52.082 0.000
v 42.475 -40.019 0.000
v 2.635 -39.889 0.000
v 2.703 -14.455 0.000
v 41.689 -14.576 0.000
v 41.712 -4.013 0.000
v 1.856 -3.893 0.000
v 1.940 21.930 0.000
v 42.040 21.809 0.000
v 42.078 31.806 0.000
v -1.287 31.936 0.000
v -1.402 -6.589 0.000
v -9.025 -6.561 0.000
v -9.040 -13.705 0.000
v -1.265 -13.733 9.900
v -1.387 -51.952 9.900
v 42.445 -52.082 9.900
v 42.475 -40.019 9.900
v 2.635 -39.889 9.900
v 2.703 -14.455 9.900
v 41.689 -14.576 9.900
v 41.712 -4.013 9.900
v 1.856 -3.893 9.900
v 1.940 21.930 9.900
v 42.040 21.809 9.900
v 42.078 31.806 9.900
v -1.287 31.936 9.900
v -1.402 -6.589 9.900
v -9.025 -6.561 9.900
v -9.040 -13.705 9.900
usemtl roof
f 50 51 52 53 54 55 56 57 58 59 60 61 62 63 64 65
usemtl teaching_building
f 49 48 47 46 45 44 43 42 41 40 39 38 37 36 35 34
f 34 35 51 50
f 35 36 52 51
f 36 37 53 52
f 37 38 54 53
f 38 39 55 54
f 39 40 56 55
f 40 41 57 56
f 41 42 58 57
f 42 43 59 58
f 43 44 60 59
f 44 45 61 60
f 45 46 62 61
f 46 47 63 62
f 47 48 64 63
f 48 49 65 64
f 49 34 50 65
o SD0836_T004_4hao
v 97.318 -52.332 0.000
v 97.737 -25.138 0.000
v 58.782 -24.536 0.000
v 58.362 -51.739 0.000
v 97.318 -52.332 9.900
v 97.737 -25.138 9.900
v 58.782 -24.536 9.900
v 58.362 -51.739 9.900
usemtl roof
f 70 71 72 73
usemtl teaching_building
f 69 68 67 66
f 66 67 71 70
f 67 68 72 71
f 68 69 73 72
f 69 66 70 73
o SD0836_T005_5hao
v -75.856 -49.423 0.000
v -23.012 -49.006 0.000
v -23.089 -40.371 0.000
v -75.924 -40.778 0.000
v -75.856 -49.423 9.900
v -23.012 -49.006 9.900
v -23.089 -40.371 9.900
v -75.924 -40.778 9.900
usemtl roof
f 78 79 80 81
usemtl teaching_building
f 77 76 75 74
f 74 75 79 78
f 75 76 80 79
f 76 77 81 80
f 77 74 78 81
