# school_id SD0855
# school_name 临沂经济技术开发区第二实验小学
# boundary_source footprint_convex_hull_buffer_20m
# adjacent_block_merge_distance_m 2.0
mtllib ../campus_materials.mtl
o SD0855_campus_boundary
usemtl campus_boundary
v -67.164 -77.878 0.050
v -67.415 23.424 0.050
v -67.415 33.533 0.050
v -67.220 74.728 0.050
v 13.476 74.342 0.050
v 44.812 34.330 0.050
v 53.094 17.549 0.050
v 53.275 -31.284 0.050
v 53.388 -77.596 0.050
v -67.164 -77.878 0.050
l 1 2 3 4 5 6 7 8 9 10 1
o SD0855_T001_1hao
v -47.415 33.486 0.000
v 3.599 33.243 0.000
v 3.699 54.389 0.000
v -47.315 54.633 0.000
v -47.415 33.486 9.520
v 3.599 33.243 9.520
v 3.699 54.389 9.520
v -47.315 54.633 9.520
usemtl roof
f 15 16 17 18
usemtl teaching_building
f 14 13 12 11
f 11 12 16 15
f 12 13 17 16
f 13 14 18 17
f 14 11 15 18
o SD0855_T002_2hao
v -47.214 -57.831 0.000
v 33.339 -57.643 0.000
v 33.275 -31.345 0.000
v 12.858 -31.401 0.000
v 12.895 -46.147 0.000
v -30.301 -46.246 0.000
v -30.438 12.550 0.000
v 14.272 12.661 0.000
v 14.300 -1.577 0.000
v 33.138 -1.533 0.000
v 33.111 12.848 0.000
v 27.820 12.837 0.000
v 27.792 23.626 0.000
v -47.415 23.449 0.000
v -47.214 -57.831 10.670
v 33.339 -57.643 10.670
v 33.275 -31.345 10.670
v 12.858 -31.401 10.670
v 12.895 -46.147 10.670
v -30.301 -46.246 10.670
v -30.438 12.550 10.670
v 14.272 12.661 10.670
v 14.300 -1.577 10.670
v 33.138 -1.533 10.670
v 33.111 12.848 10.670
v 27.820 12.837 10.670
v 27.792 23.626 10.670
v -47.415 23.449 10.670
usemtl roof
f 33 34 35 36 37 38 39 40 41 42 43 44 45 46
usemtl teaching_building
f 32 31 30 29 28 27 26 25 24 23 22 21 20 19
f 19 20 34 33
f 20 21 35 34
f 21 22 36 35
f 22 23 37 36
f 23 24 38 37
f 24 25 39 38
f 25 26 40 39
f 26 27 41 40
f 27 28 42 41
f 28 29 43 42
f 29 30 44 43
f 30 31 45 44
f 31 32 46 45
f 32 19 33 46
