# school_id SD0860
# school_name 兰陵一中
# boundary_source footprint_convex_hull_buffer_20m
# adjacent_block_merge_distance_m 2.0
mtllib ../campus_materials.mtl
o SD0860_campus_boundary
usemtl campus_boundary
v 83.586 -240.644 0.050
v -233.620 -186.208 0.050
v -226.089 -142.921 0.050
v -35.619 152.082 0.050
v 4.799 150.596 0.050
v 35.684 145.098 0.050
v 164.627 107.389 0.050
v 159.874 71.028 0.050
v 136.583 -46.354 0.050
v 83.586 -240.644 0.050
l 1 2 3 4 5 6 7 8 9 10 1
o SD0860_T001_1hao
v -28.111 113.648 0.000
v -1.222 109.293 0.000
v -0.519 113.140 0.000
v 28.416 107.834 0.000
v 31.111 125.598 0.000
v 2.669 130.661 0.000
v 2.240 127.311 0.000
v -24.987 131.678 0.000
v -28.111 113.648 16.490
v -1.222 109.293 16.490
v -0.519 113.140 16.490
v 28.416 107.834 16.490
v 31.111 125.598 16.490
v 2.669 130.661 16.490
v 2.240 127.311 16.490
v -24.987 131.678 16.490
usemtl roof
f 19 20 21 22 23 24 25 26
usemtl teaching_building
f 18 17 16 15 14 13 12 11
f 11 12 20 19
f 12 13 21 20
f 13 14 22 21
f 14 15 23 22
f 15 16 24 23
f 16 17 25 24
f 17 18 26 25
f 18 11 19 26
o SD0860_T002_2hao
v 101.420 80.354 0.000
v 140.128 74.274 0.000
v 142.576 93.000 0.000
v 105.101 98.836 0.000
v 101.420 80.354 15.990
v 140.128 74.274 15.990
v 142.576 93.000 15.990
v 105.101 98.836 15.990
usemtl roof
f 31 32 33 34
usemtl teaching_building
f 30 29 28 27
f 27 28 32 31
f 28 29 33 32
f 29 30 34 33
f 30 27 31 34
o SD0860_T003_3hao
v -35.701 65.973 0.000
v -7.789 60.656 0.000
v -7.141 64.348 0.000
v 20.881 59.395 0.000
v 23.585 77.889 0.000
v -4.410 82.786 0.000
v -4.903 80.111 0.000
v -32.523 85.184 0.000
v -35.701 65.973 17.860
v -7.789 60.656 17.860
v -7.141 64.348 17.860
v 20.881 59.395 17.860
v 23.585 77.889 17.860
v -4.410 82.786 17.860
v -4.903 80.111 17.860
v -32.523 85.184 17.860
usemtl roof
f 43 44 45 46 47 48 49 50
usemtl teaching_building
f 42 41 40 39 38 37 36 35
f 35 36 44 43
f 36 37 45 44
f 37 38 46 45
f 38 39 47 46
f 39 40 48 47
f 40 41 49 48
f 41 42 50 49
f 42 35 43 50
o SD0860_T004_4hao
v 84.277 2.512 0.000
v 124.209 -4.309 0.000
v 134.246 55.538 0.000
v 95.301 62.347 0.000
v 84.277 2.512 14.510
v 124.209 -4.309 14.510
v 134.246 55.538 14.510
v 95.301 62.347 14.510
usemtl roof
f 55 56 57 58
usemtl teaching_building
f 54 53 52 51
f 51 52 56 55
f 52 53 57 56
f 53 54 58 57
f 54 51 55 58
o SD0860_T005_5hao
v -43.063 16.948 0.000
v -16.612 12.471 0.000
v -15.680 18.761 0.000
v 13.045 12.935 0.000
v 15.986 31.672 0.000
v -12.109 36.503 0.000
v -13.086 31.672 0.000
v -40.113 36.536 0.000
v -43.063 16.948 16.840
v -16.612 12.471 16.840
v -15.680 18.761 16.840
v 13.045 12.935 16.840
v 15.986 31.672 16.840
v -12.109 36.503 16.840
v -13.086 31.672 16.840
v -40.113 36.536 16.840
usemtl roof
f 67 68 69 70 71 72 73 74
usemtl teaching_building
f 66 65 64 63 62 61 60 59
f 59 60 68 67
f 60 61 69 68
f 61 62 70 69
f 62 63 71 70
f 63 64 72 71
f 64 65 73 72
f 65 66 74 73
f 66 59 67 74
o SD0860_T006_6hao
v 19.803 -24.703 0.000
v 16.725 -41.019 0.000
v -6.035 -36.785 0.000
v -2.957 -20.470 0.000
v 19.803 -24.703 12.760
v 16.725 -41.019 12.760
v -6.035 -36.785 12.760
v -2.957 -20.470 12.760
usemtl roof
f 79 80 81 82
usemtl teaching_building
f 78 77 76 75
f 75 76 80 79
f 76 77 81 80
f 77 78 82 81
f 78 75 79 82
o SD0860_T007_7hao
v 78.641 -35.691 0.000
v 117.103 -41.771 0.000
v 119.304 -28.628 0.000
v 81.582 -22.305 0.000
v 78.641 -35.691 8.820
v 117.103 -41.771 8.820
v 119.304 -28.628 8.820
v 81.582 -22.305 8.820
usemtl roof
f 87 88 89 90
usemtl teaching_building
f 86 85 84 83
f 83 84 88 87
f 84 85 89 88
f 85 86 90 89
f 86 83 87 90
o SD0860_T008_8hao
v -61.238 -34.320 0.000
v -68.271 -32.928 0.000
v -71.340 -48.027 0.000
v -63.010 -49.973 0.000
v -68.691 -80.150 0.000
v -76.729 -78.680 0.000
v -79.177 -92.785 0.000
v -6.172 -105.431 0.000
v -3.725 -90.839 0.000
v -56.151 -82.571 0.000
v -50.762 -51.918 0.000
v 3.628 -62.132 0.000
v 6.076 -47.055 0.000
v -48.031 -37.018 0.000
v -43.227 -14.478 0.000
v -56.151 -11.538 0.000
v -61.238 -34.320 20.280
v -68.271 -32.928 20.280
v -71.340 -48.027 20.280
v -63.010 -49.973 20.280
v -68.691 -80.150 20.280
v -76.729 -78.680 20.280
v -79.177 -92.785 20.280
v -6.172 -105.431 20.280
v -3.725 -90.839 20.280
v -56.151 -82.571 20.280
v -50.762 -51.918 20.280
v 3.628 -62.132 20.280
v 6.076 -47.055 20.280
v -48.031 -37.018 20.280
v -43.227 -14.478 20.280
v -56.151 -11.538 20.280
usemtl roof
f 107 108 109 110 111 112 113 114 115 116 117 118 119 120 121 122
usemtl teaching_building
f 106 105 104 103 102 101 100 99 98 97 96 95 94 93 92 91
f 91 92 108 107
f 92 93 109 108
f 93 94 110 109
f 94 95 111 110
f 95 96 112 111
f 96 97 113 112
f 97 98 114 113
f 98 99 115 114
f 99 100 116 115
f 100 101 117 116
f 101 102 118 117
f 102 103 119 118
f 103 104 120 119
f 104 105 121 120
f 105 106 122 121
f 106 91 107 122
o SD0860_T009_9hao
v -210.480 -169.887 0.000
v 69.070 -217.861 0.000
v 72.476 -198.329 0.000
v -207.082 -150.354 0.000
v -210.480 -169.887 13.520
v 69.070 -217.861 13.520
v 72.476 -198.329 13.520
v -207.082 -150.354 13.520
usemtl roof
f 127 128 129 130
usemtl teaching_building
f 126 125 124 123
f 123 124 128 127
f 124 125 129 128
f 125 126 130 129
f 126 123 127 130
