# school_id SD0867
# school_name 半程中心小学
# boundary_source footprint_convex_hull_buffer_20m
# adjacent_block_merge_distance_m 2.0
mtllib ../campus_materials.mtl
o SD0867_campus_boundary
usemtl campus_boundary
v -85.822 -61.063 0.050
v -90.811 -22.837 0.050
v -32.719 53.108 0.050
v 5.536 60.415 0.050
v 23.700 63.069 0.050
v 75.879 68.481 0.050
v 82.155 26.108 0.050
v 48.878 -44.195 0.050
v -85.822 -61.063 0.050
l 1 2 3 4 5 6 7 8 9 1
o SD0867_T001_1hao
v -18.870 17.408 0.000
v -21.470 34.895 0.000
v -16.024 35.691 0.000
v -15.306 30.805 0.000
v 9.778 34.475 0.000
v 8.860 40.688 0.000
v 26.179 43.219 0.000
v 27.216 36.233 0.000
v 54.263 40.201 0.000
v 53.427 45.806 0.000
v 58.900 46.613 0.000
v 61.482 29.180 0.000
v -18.870 17.408 7.330
v -21.470 34.895 7.330
v -16.024 35.691 7.330
v -15.306 30.805 7.330
v 9.778 34.475 7.330
v 8.860 40.688 7.330
v 26.179 43.219 7.330
v 27.216 36.233 7.330
v 54.263 40.201 7.330
v 53.427 45.806 7.330
v 58.900 46.613 7.330
v 61.482 29.180 7.330
usemtl roof
f 22 23 24 25 26 27 28 29 30 31 32 33
usemtl teaching_building
f 21 20 19 18 17 16 15 14 13 12 11 10
f 10 11 23 22
f 11 12 24 23
f 12 13 25 24
f 13 14 26 25
f 14 15 27 26
f 15 16 28 27
f 16 17 29 28
f 17 18 30 29
f 18 19 31 30
f 19 20 32 31
f 20 21 33 32
f 21 10 22 33
o SD0867_T002_2hao
v -7.378 -30.854 0.000
v -8.578 -20.972 0.000
v -1.723 -20.154 0.000
v -2.205 -16.218 0.000
v 5.623 -15.279 0.000
v 6.041 -18.716 0.000
v 14.315 -17.722 0.000
v 13.869 -14.063 0.000
v 20.842 -13.234 0.000
v 21.252 -16.605 0.000
v 34.198 -15.047 0.000
v 35.498 -25.714 0.000
v -7.378 -30.854 9.900
v -8.578 -20.972 9.900
v -1.723 -20.154 9.900
v -2.205 -16.218 9.900
v 5.623 -15.279 9.900
v 6.041 -18.716 9.900
v 14.315 -17.722 9.900
v 13.869 -14.063 9.900
v 20.842 -13.234 9.900
v 21.252 -16.605 9.900
v 34.198 -15.047 9.900
v 35.498 -25.714 9.900
usemtl roof
f 46 47 48 49 50 51 52 53 54 55 56 57
usemtl teaching_building
f 45 44 43 42 41 40 39 38 37 36 35 34
f 34 35 47 46
f 35 36 48 47
f 36 37 49 48
f 37 38 50 49
f 38 39 51 50
f 39 40 52 51
f 40 41 53 52
f 41 42 54 53
f 42 43 55 54
f 43 44 56 55
f 44 45 57 56
f 45 34 46 57
o SD0867_T003_3hao
v -69.911 -28.433 0.000
v -51.918 -26.123 0.000
v -52.664 -20.397 0.000
v -38.908 -18.628 0.000
v -38.199 -24.078 0.000
v -20.698 -21.823 0.000
v -19.325 -32.412 0.000
v -68.565 -38.746 0.000
v -69.911 -28.433 13.950
v -51.918 -26.123 13.950
v -52.664 -20.397 13.950
v -38.908 -18.628 13.950
v -38.199 -24.078 13.950
v -20.698 -21.823 13.950
v -19.325 -32.412 13.950
v -68.565 -38.746 13.950
usemtl roof
f 66 67 68 69 70 71 72 73
usemtl teaching_building
f 65 64 63 62 61 60 59 58
f 58 59 67 66
f 59 60 68 67
f 60 61 69 68
f 61 62 70 69
f 62 63 71 70
f 63 64 72 71
f 64 65 73 72
f 65 58 66 73
