# school_id SD0868
# school_name 卞庄二中
# boundary_source footprint_convex_hull_buffer_20m
# adjacent_block_merge_distance_m 2.0
mtllib ../campus_materials.mtl
o SD0868_campus_boundary
usemtl campus_boundary
v 37.422 -26.688 0.050
v -39.411 -23.693 0.050
v -37.422 26.688 0.050
v 39.411 23.693 0.050
v 37.422 -26.688 0.050
l 1 2 3 4 5 1
o SD0868_T001_1hao
v -18.637 -4.488 0.000
v 18.226 -5.925 0.000
v 18.637 4.488 0.000
v -18.226 5.925 0.000
v -18.637 -4.488 8.950
v 18.226 -5.925 8.950
v 18.637 4.488 8.950
v -18.226 5.925 8.950
usemtl roof
f 10 11 12 13
usemtl teaching_building
f 9 8 7 6
f 6 7 11 10
f 7 8 12 11
f 8 9 13 12
f 9 6 10 13
