# school_id SD0882
# school_name 教学楼
# boundary_source footprint_convex_hull_buffer_20m
# adjacent_block_merge_distance_m 2.0
mtllib ../campus_materials.mtl
o SD0882_campus_boundary
usemtl campus_boundary
v 12.010 -32.220 0.050
v -24.743 -30.544 0.050
v -24.032 31.913 0.050
v 10.987 31.619 0.050
v 24.228 9.773 0.050
v 24.228 -9.370 0.050
v 12.010 -32.220 0.050
l 1 2 3 4 5 6 7 1
o SD0882_T001_1hao
v -0.335 11.713 0.000
v -0.225 4.185 0.000
v 4.228 4.185 0.000
v 4.228 -4.359 0.000
v 0.567 -4.359 0.000
v 0.321 -11.666 0.000
v -4.524 -11.445 0.000
v -4.260 11.746 0.000
v -0.335 11.713 13.220
v -0.225 4.185 13.220
v 4.228 4.185 13.220
v 4.228 -4.359 13.220
v 0.567 -4.359 13.220
v 0.321 -11.666 13.220
v -4.524 -11.445 13.220
v -4.260 11.746 13.220
usemtl roof
f 16 17 18 19 20 21 22 23
usemtl teaching_building
f 15 14 13 12 11 10 9 8
f 8 9 17 16
f 9 10 18 17
f 10 11 19 18
f 11 12 20 19
f 12 13 21 20
f 13 14 22 21
f 14 15 23 22
f 15 8 16 23
