# school_id SD0810
# school_name 东苑高级中学
# boundary_source footprint_convex_hull_buffer_20m
# adjacent_block_merge_distance_m 2.0
mtllib ../campus_materials.mtl
o SD0810_campus_boundary
usemtl campus_boundary
v 5.885 -214.364 0.050
v -53.568 -205.726 0.050
v -130.693 50.490 0.050
v -122.013 100.902 0.050
v -98.014 117.726 0.050
v -52.315 112.604 0.050
v 40.415 92.611 0.050
v 84.728 78.725 0.050
v 101.522 54.337 0.050
v 94.846 9.903 0.050
v 74.115 -125.842 0.050
v 70.078 -148.683 0.050
v 56.260 -168.604 0.050
v 5.885 -214.364 0.050
l 1 2 3 4 5 6 7 8 9 10 11 12 13 14 1
o SD0810_T001_1hao
v 9.287 37.554 0.000
v -46.052 49.216 0.000
v -45.980 49.200 0.000
v -47.780 38.256 0.000
v -103.716 50.460 0.000
v -101.788 61.702 0.000
v -49.269 49.937 0.000
v -44.555 71.982 0.000
v 17.747 58.850 0.000
v 13.040 36.794 0.000
v 69.426 25.290 0.000
v 67.635 14.501 0.000
v 7.178 26.064 0.000
v 9.287 37.554 14.070
v -46.052 49.216 14.070
v -45.980 49.200 14.070
v -47.780 38.256 14.070
v -103.716 50.460 14.070
v -101.788 61.702 14.070
v -49.269 49.937 14.070
v -44.555 71.982 14.070
v 17.747 58.850 14.070
v 13.040 36.794 14.070
v 69.426 25.290 14.070
v 67.635 14.501 14.070
v 7.178 26.064 14.070
usemtl roof
f 28 29 30 31 32 33 34 35 36 37 38 39 40
usemtl teaching_building
f 27 26 25 24 23 22 21 20 19 18 17 16 15
f 15 16 29 28
f 16 17 30 29
f 17 18 31 30
f 18 19 32 31
f 19 20 33 32
f 20 21 34 33
f 21 22 35 34
f 22 23 36 35
f 23 24 37 36
f 24 25 38 37
f 25 26 39 38
f 26 27 40 39
f 27 15 28 40
o SD0810_T001_1hao_seg02
v 66.996 45.320 0.000
v 68.613 53.024 0.000
v 49.529 56.562 0.000
v 48.890 52.704 0.000
v 17.747 58.850 0.000
v 19.145 63.625 0.000
v 22.379 69.406 0.000
v 28.838 72.933 0.000
v 35.306 73.253 0.000
v 34.986 68.445 0.000
v 72.167 61.702 0.000
v 80.571 49.498 0.000
v 75.072 12.898 0.000
v 67.635 14.501 0.000
v 72.486 43.717 0.000
v 66.996 45.320 14.070
v 68.613 53.024 14.070
v 49.529 56.562 14.070
v 48.890 52.704 14.070
v 17.747 58.850 14.070
v 19.145 63.625 14.070
v 22.379 69.406 14.070
v 28.838 72.933 14.070
v 35.306 73.253 14.070
v 34.986 68.445 14.070
v 72.167 61.702 14.070
v 80.571 49.498 14.070
v 75.072 12.898 14.070
v 67.635 14.501 14.070
v 72.486 43.717 14.070
usemtl roof
f 56 57 58 59 60 61 62 63 64 65 66 67 68 69 70
usemtl teaching_building
f 55 54 53 52 51 50 49 48 47 46 45 44 43 42 41
f 41 42 57 56
f 42 43 58 57
f 43 44 59 58
f 44 45 60 59
f 45 46 61 60
f 46 47 62 61
f 47 48 63 62
f 48 49 64 63
f 49 50 65 64
f 50 51 66 65
f 51 52 67 66
f 52 53 68 67
f 53 54 69 68
f 54 55 70 69
f 55 41 56 70
o SD0810_T001_1hao_seg03
v -93.046 86.739 0.000
v -94.343 79.676 0.000
v -98.545 80.637 0.000
v -103.716 50.460 0.000
v -110.183 51.742 0.000
v -103.716 89.304 0.000
v -92.726 97.008 0.000
v -56.513 89.304 0.000
v -55.545 92.841 0.000
v -49.726 90.265 0.000
v -44.226 80.637 0.000
v -43.578 76.149 0.000
v -44.555 71.982 0.000
v -73.651 78.393 0.000
v -72.683 82.881 0.000
v -93.046 86.739 14.070
v -94.343 79.676 14.070
v -98.545 80.637 14.070
v -103.716 50.460 14.070
v -110.183 51.742 14.070
v -103.716 89.304 14.070
v -92.726 97.008 14.070
v -56.513 89.304 14.070
v -55.545 92.841 14.070
v -49.726 90.265 14.070
v -44.226 80.637 14.070
v -43.578 76.149 14.070
v -44.555 71.982 14.070
v -73.651 78.393 14.070
v -72.683 82.881 14.070
usemtl roof
f 86 87 88 89 90 91 92 93 94 95 96 97 98 99 100
usemtl teaching_building
f 85 84 83 82 81 80 79 78 77 76 75 74 73 72 71
f 71 72 87 86
f 72 73 88 87
f 73 74 89 88
f 74 75 90 89
f 75 76 91 90
f 76 77 92 91
f 77 78 93 92
f 78 79 94 93
f 79 80 95 94
f 80 81 96 95
f 81 82 97 96
f 82 83 98 97
f 83 84 99 98
f 84 85 100 99
f 85 71 86 100
o SD0810_T002_2hao
v 54.709 -51.955 0.000
v 59.231 -53.238 0.000
v 57.386 -64.413 0.000
v 5.561 -54.841 0.000
v 8.146 -39.431 0.000
v 39.508 -45.213 0.000
v 43.418 -24.543 0.000
v 4.191 -17.036 0.000
v 6.356 -5.893 0.000
v 66.356 -17.379 0.000
v 64.201 -28.521 0.000
v 52.873 -26.353 0.000
v 59.112 -27.548 0.000
v 54.709 -51.955 9.880
v 59.231 -53.238 9.880
v 57.386 -64.413 9.880
v 5.561 -54.841 9.880
v 8.146 -39.431 9.880
v 39.508 -45.213 9.880
v 43.418 -24.543 9.880
v 4.191 -17.036 9.880
v 6.356 -5.893 9.880
v 66.356 -17.379 9.880
v 64.201 -28.521 9.880
v 52.873 -26.353 9.880
v 59.112 -27.548 9.880
usemtl roof
f 114 115 116 117 118 119 120 121 122 123 124 125 126
usemtl teaching_building
f 113 112 111 110 109 108 107 106 105 104 103 102 101
f 101 102 115 114
f 102 103 116 115
f 103 104 117 116
f 104 105 118 117
f 105 106 119 118
f 106 107 120 119
f 107 108 121 120
f 108 109 122 121
f 109 110 123 122
f 110 111 124 123
f 111 112 125 124
f 112 113 126 125
f 113 101 114 126
o SD0810_T003_3hao
v -26.120 -156.615 0.000
v -27.418 -163.999 0.000
v -33.556 -163.037 0.000
v -38.088 -187.765 0.000
v -0.578 -193.215 0.000
v 2.976 -167.857 0.000
v 23.667 -152.447 0.000
v 41.125 -155.332 0.000
v 43.390 -139.923 0.000
v 51.146 -140.885 0.000
v 54.380 -122.591 0.000
v 35.306 -119.374 0.000
v 33.369 -126.758 0.000
v 22.379 -125.155 0.000
v 16.880 -116.809 0.000
v -31.939 -146.987 0.000
v -26.120 -156.615 15.140
v -27.418 -163.999 15.140
v -33.556 -163.037 15.140
v -38.088 -187.765 15.140
v -0.578 -193.215 15.140
v 2.976 -167.857 15.140
v 23.667 -152.447 15.140
v 41.125 -155.332 15.140
v 43.390 -139.923 15.140
v 51.146 -140.885 15.140
v 54.380 -122.591 15.140
v 35.306 -119.374 15.140
v 33.369 -126.758 15.140
v 22.379 -125.155 15.140
v 16.880 -116.809 15.140
v -31.939 -146.987 15.140
usemtl roof
f 143 144 145 146 147 148 149 150 151 152 153 154 155 156 157 158
usemtl teaching_building
f 142 141 140 139 138 137 136 135 134 133 132 131 130 129 128 127
f 127 128 144 143
f 128 129 145 144
f 129 130 146 145
f 130 131 147 146
f 131 132 148 147
f 132 133 149 148
f 133 134 150 149
f 134 135 151 150
f 135 136 152 151
f 136 137 153 152
f 137 138 154 153
f 138 139 155 154
f 139 140 156 155
f 140 141 157 156
f 141 142 158 157
f 142 127 143 158
