# school_id SD0886
# school_name 杏园小学
# boundary_source footprint_convex_hull_buffer_20m
# adjacent_block_merge_distance_m 2.0
mtllib ../campus_materials.mtl
o SD0886_campus_boundary
usemtl campus_boundary
v -89.039 -73.703 0.050
v -89.238 -29.424 0.050
v -66.786 69.590 0.050
v -39.247 101.342 0.050
v 20.810 69.728 0.050
v 37.165 59.434 0.050
v 85.643 19.733 0.050
v 87.067 -15.873 0.050
v 39.583 -59.594 0.050
v 30.822 -64.290 0.050
v 13.137 -73.300 0.050
v -89.039 -73.703 0.050
l 1 2 3 4 5 6 7 8 9 10 11 12 1
o SD0886_T001_1hao
v -22.362 38.019 0.000
v -8.509 54.011 0.000
v -34.529 76.257 0.000
v -48.390 60.275 0.000
v -22.362 38.019 6.600
v -8.509 54.011 6.600
v -34.529 76.257 6.600
v -48.390 60.275 6.600
usemtl roof
f 17 18 19 20
usemtl teaching_building
f 16 15 14 13
f 13 14 18 17
f 14 15 19 18
f 15 16 20 19
f 16 13 17 20
o SD0886_T002_2hao
v 43.166 -8.363 0.000
v 66.713 -7.427 0.000
v 66.018 9.954 0.000
v 42.471 9.028 0.000
v 43.166 -8.363 16.500
v 66.713 -7.427 16.500
v 66.018 9.954 16.500
v 42.471 9.028 16.500
usemtl roof
f 25 26 27 28
usemtl teaching_building
f 24 23 22 21
f 21 22 26 25
f 22 23 27 26
f 23 24 28 27
f 24 21 25 28
o SD0886_T003_3hao
v 8.299 -53.319 0.000
v -69.129 -53.624 0.000
v -69.175 -41.376 0.000
v -69.228 -31.619 0.000
v -30.972 -31.619 0.000
v -31.667 1.708 0.000
v -21.248 1.968 0.000
v -36.735 1.588 0.000
v -36.972 11.048 0.000
v -21.485 11.428 0.000
v -21.530 28.189 0.000
v -17.096 28.170 0.000
v 36.021 27.762 0.000
v 35.945 17.691 0.000
v -17.018 18.107 0.000
v -16.825 -7.001 0.000
v 17.786 -7.218 0.000
v 17.840 0.958 0.000
v 21.366 0.939 0.000
v 21.473 17.571 0.000
v 33.335 17.496 0.000
v 33.121 -17.137 0.000
v 24.633 -17.082 0.000
v -16.749 -16.823 0.000
v -16.561 -41.168 0.000
v 8.253 -41.070 0.000
v 8.299 -53.319 12.790
v -69.129 -53.624 12.790
v -69.175 -41.376 12.790
v -69.228 -31.619 12.790
v -30.972 -31.619 12.790
v -31.667 1.708 12.790
v -21.248 1.968 12.790
v -36.735 1.588 12.790
v -36.972 11.048 12.790
v -21.485 11.428 12.790
v -21.530 28.189 12.790
v -17.096 28.170 12.790
v 36.021 27.762 12.790
v 35.945 17.691 12.790
v -17.018 18.107 12.790
v -16.825 -7.001 12.790
v 17.786 -7.218 12.790
v 17.840 0.958 12.790
v 21.366 0.939 12.790
v 21.473 17.571 12.790
v 33.335 17.496 12.790
v 33.121 -17.137 12.790
v 24.633 -17.082 12.790
v -16.749 -16.823 12.790
v -16.561 -41.168 12.790
v 8.253 -41.070 12.790
usemtl roof
f 55 56 57 58 59 60 61 62 63 64 65 66 67 68 69 70 71 72 73 74 75 76 77 78 79 80
usemtl teaching_building
f 54 53 52 51 50 49 48 47 46 45 44 43 42 41 40 39 38 37 36 35 34 33 32 31 30 29
f 29 30 56 55
f 30 31 57 56
f 31 32 58 57
f 32 33 59 58
f 33 34 60 59
f 34 35 61 60
f 35 36 62 61
f 36 37 63 62
f 37 38 64 63
f 38 39 65 64
f 39 40 66 65
f 40 41 67 66
f 41 42 68 67
f 42 43 69 68
f 43 44 70 69
f 44 45 71 70
f 45 46 72 71
f 46 47 73 72
f 47 48 74 73
f 48 49 75 74
f 49 50 76 75
f 50 51 77 76
f 51 52 78 77
f 52 53 79 78
f 53 54 80 79
f 54 29 55 80
o SD0886_T004_4hao
v 15.199 -48.501 0.000
v 21.557 -46.564 0.000
v 27.900 -43.164 0.000
v 34.739 -32.490 0.000
v 35.716 -26.190 0.000
v 14.718 -25.699 0.000
v 15.199 -48.501 8.900
v 21.557 -46.564 8.900
v 27.900 -43.164 8.900
v 34.739 -32.490 8.900
v 35.716 -26.190 8.900
v 14.718 -25.699 8.900
usemtl roof
f 87 88 89 90 91 92
usemtl teaching_building
f 86 85 84 83 82 81
f 81 82 88 87
f 82 83 89 88
f 83 84 90 89
f 84 85 91 90
f 85 86 92 91
f 86 81 87 92
