# school_id SD0823
# school_name 临沂朴园小学长沙路校区
# boundary_source footprint_convex_hull_buffer_20m
# adjacent_block_merge_distance_m 2.0
mtllib ../campus_materials.mtl
o SD0823_campus_boundary
usemtl campus_boundary
v -70.008 -34.842 0.050
v -70.008 100.146 0.050
v -12.471 100.146 0.050
v 70.008 23.564 0.050
v 70.008 -34.842 0.050
v -70.008 -34.842 0.050
l 1 2 3 4 5 6 1
o SD0823_T001_1hao
v 50.008 14.842 0.000
v 50.008 -14.842 0.000
v -20.324 -14.842 0.000
v -50.008 -14.842 0.000
v -50.008 14.842 0.000
v -50.008 80.146 0.000
v -20.324 80.146 0.000
v -20.324 14.842 0.000
v 50.008 14.842 18.750
v 50.008 -14.842 18.750
v -20.324 -14.842 18.750
v -50.008 -14.842 18.750
v -50.008 14.842 18.750
v -50.008 80.146 18.750
v -20.324 80.146 18.750
v -20.324 14.842 18.750
usemtl roof
f 15 16 17 18 19 20 21 22
usemtl teaching_building
f 14 13 12 11 10 9 8 7
f 7 8 16 15
f 8 9 17 16
f 9 10 18 17
f 10 11 19 18
f 11 12 20 19
f 12 13 21 20
f 13 14 22 21
f 14 7 15 22
