# school_id SD0835
# school_name 临沂第三十八中学
# boundary_source footprint_convex_hull_buffer_20m
# adjacent_block_merge_distance_m 2.0
mtllib ../campus_materials.mtl
o SD0835_campus_boundary
usemtl campus_boundary
v 103.608 -62.107 0.050
v 42.225 -61.903 0.050
v -116.844 -60.705 0.050
v -116.666 -19.038 0.050
v -115.204 58.936 0.050
v 43.676 61.745 0.050
v 105.653 61.553 0.050
v 105.510 12.255 0.050
v 103.608 -62.107 0.050
l 1 2 3 4 5 6 7 8 9 1
o SD0835_T001_1hao
v -35.374 17.432 0.000
v -35.282 39.039 0.000
v -95.569 39.280 0.000
v -95.660 17.682 0.000
v -35.374 17.432 9.900
v -35.282 39.039 9.900
v -95.569 39.280 9.900
v -95.660 17.682 9.900
usemtl roof
f 14 15 16 17
usemtl teaching_building
f 13 12 11 10
f 10 11 15 14
f 11 12 16 15
f 12 13 17 16
f 13 10 14 17
o SD0835_T002_2hao
v 32.727 16.329 0.000
v 32.818 37.945 0.000
v -27.468 38.186 0.000
v -27.560 16.589 0.000
v 32.727 16.329 9.900
v 32.818 37.945 9.900
v -27.468 38.186 9.900
v -27.560 16.589 9.900
usemtl roof
f 22 23 24 25
usemtl teaching_building
f 21 20 19 18
f 18 19 23 22
f 19 20 24 23
f 20 21 25 24
f 21 18 22 25
o SD0835_T003_3hao
v 85.511 12.540 0.000
v 85.595 41.615 0.000
v 43.822 41.744 0.000
v 43.731 12.688 0.000
v 85.511 12.540 9.900
v 85.595 41.615 9.900
v 43.822 41.744 9.900
v 43.731 12.688 9.900
usemtl roof
f 30 31 32 33
usemtl teaching_building
f 29 28 27 26
f 26 27 31 30
f 27 28 32 31
f 28 29 33 32
f 29 26 30 33
o SD0835_T004_4hao
v 31.574 -36.075 0.000
v 31.666 -14.459 0.000
v -28.628 -14.209 0.000
v -28.712 -35.807 0.000
v 31.574 -36.075 9.900
v 31.666 -14.459 9.900
v -28.628 -14.209 9.900
v -28.712 -35.807 9.900
usemtl roof
f 38 39 40 41
usemtl teaching_building
f 37 36 35 34
f 34 35 39 38
f 35 36 40 39
f 36 37 41 40
f 37 34 38 41
o SD0835_T005_5hao
v 84.115 -42.042 0.000
v 84.206 -12.968 0.000
v 42.433 -12.838 0.000
v 42.334 -41.903 0.000
v 84.115 -42.042 9.900
v 84.206 -12.968 9.900
v 42.433 -12.838 9.900
v 42.334 -41.903 9.900
usemtl roof
f 46 47 48 49
usemtl teaching_building
f 45 44 43 42
f 42 43 47 46
f 43 44 48 47
f 44 45 49 48
f 45 42 46 49
o SD0835_T006_6hao
v -36.473 -41.125 0.000
v -36.381 -19.518 0.000
v -96.667 -19.268 0.000
v -96.759 -40.856 0.000
v -36.473 -41.125 9.900
v -36.381 -19.518 9.900
v -96.667 -19.268 9.900
v -96.759 -40.856 9.900
usemtl roof
f 54 55 56 57
usemtl teaching_building
f 53 52 51 50
f 50 51 55 54
f 51 52 56 55
f 52 53 57 56
f 53 50 54 57
