# school_id SD0844
# school_name 临沂第二实验小学沂龙湾校区
# boundary_source footprint_convex_hull_buffer_20m
# adjacent_block_merge_distance_m 2.0
mtllib ../campus_materials.mtl
o SD0844_campus_boundary
usemtl campus_boundary
v 2.734 -100.836 0.050
v -10.206 -98.179 0.050
v -22.127 -92.931 0.050
v -64.828 -50.660 0.050
v -80.908 -5.277 0.050
v -80.970 22.234 0.050
v -38.544 73.357 0.050
v 29.963 147.184 0.050
v 104.328 146.792 0.050
v 104.328 114.162 0.050
v 47.397 -69.746 0.050
v 43.391 -81.244 0.050
v 32.429 -92.632 0.050
v 18.118 -99.969 0.050
v 2.734 -100.836 0.050
l 1 2 3 4 5 6 7 8 9 10 11 12 13 14 15 1
o SD0844_T001_1hao
v 42.317 116.455 0.000
v 42.073 110.405 0.000
v 80.176 110.154 0.000
v 79.680 117.187 0.000
v 84.328 117.187 0.000
v 84.328 126.897 0.000
v 38.646 127.138 0.000
v 38.646 116.705 0.000
v 42.317 116.455 9.900
v 42.073 110.405 9.900
v 80.176 110.154 9.900
v 79.680 117.187 9.900
v 84.328 117.187 9.900
v 84.328 126.897 9.900
v 38.646 127.138 9.900
v 38.646 116.705 9.900
usemtl roof
f 24 25 26 27 28 29 30 31
usemtl teaching_building
f 23 22 21 20 19 18 17 16
f 16 17 25 24
f 17 18 26 25
f 18 19 27 26
f 19 20 28 27
f 20 21 29 28
f 21 22 30 29
f 22 23 31 30
f 23 16 24 31
o SD0844_T002_2hao
v -23.581 10.568 0.000
v -23.507 60.159 0.000
v -20.302 60.298 0.000
v 31.097 59.983 0.000
v 31.044 51.004 0.000
v -20.279 51.318 0.000
v -20.088 -22.516 0.000
v -23.630 -22.581 0.000
v -23.599 -1.734 0.000
v -60.916 -1.817 0.000
v -60.954 15.036 0.000
v -23.591 15.129 0.000
v -23.581 10.568 9.900
v -23.507 60.159 9.900
v -20.302 60.298 9.900
v 31.097 59.983 9.900
v 31.044 51.004 9.900
v -20.279 51.318 9.900
v -20.088 -22.516 9.900
v -23.630 -22.581 9.900
v -23.599 -1.734 9.900
v -60.916 -1.817 9.900
v -60.954 15.036 9.900
v -23.591 15.129 9.900
usemtl roof
f 44 45 46 47 48 49 50 51 52 53 54 55
usemtl teaching_building
f 43 42 41 40 39 38 37 36 35 34 33 32
f 32 33 45 44
f 33 34 46 45
f 34 35 47 46
f 35 36 48 47
f 36 37 49 48
f 37 38 50 49
f 38 39 51 50
f 39 40 52 51
f 40 41 53 52
f 41 42 54 53
f 42 43 55 54
f 43 32 44 55
o SD0844_T002_2hao_seg02
v 34.326 17.677 0.000
v -19.897 17.566 0.000
v -19.912 26.423 0.000
v 34.303 26.535 0.000
v 34.326 17.677 9.900
v -19.897 17.566 9.900
v -19.912 26.423 9.900
v 34.303 26.535 9.900
usemtl roof
f 60 61 62 63
usemtl teaching_building
f 59 58 57 56
f 56 57 61 60
f 57 58 62 61
f 58 59 63 62
f 59 56 60 63
o SD0844_T002_2hao_seg03
v 33.975 -7.516 0.000
v 33.921 -16.364 0.000
v -20.057 -16.049 0.000
v -20.004 -7.201 0.000
v 33.975 -7.516 9.900
v 33.921 -16.364 9.900
v -20.057 -16.049 9.900
v -20.004 -7.201 9.900
usemtl roof
f 68 69 70 71
usemtl teaching_building
f 67 66 65 64
f 64 65 69 68
f 65 66 70 69
f 66 67 71 70
f 67 64 68 71
o SD0844_T002_2hao_seg04
v -47.505 -22.581 0.000
v -23.630 -22.581 0.000
v -21.500 -22.581 0.000
v -21.500 -39.666 0.000
v -47.505 -39.666 0.000
v -47.505 -22.581 9.900
v -23.630 -22.581 9.900
v -21.500 -22.581 9.900
v -21.500 -39.666 9.900
v -47.505 -39.666 9.900
usemtl roof
f 77 78 79 80 81
usemtl teaching_building
f 76 75 74 73 72
f 72 73 78 77
f 73 74 79 78
f 74 75 80 79
f 75 76 81 80
f 76 72 77 81
o SD0844_T003_3hao
v -16.791 -67.620 0.000
v -10.684 -76.116 0.000
v -4.097 -79.016 0.000
v 4.207 -80.721 0.000
v 12.763 -80.239 0.000
v 20.335 -76.357 0.000
v 25.945 -70.529 0.000
v 28.395 -63.497 0.000
v 26.930 -55.742 0.000
v 22.533 -48.228 0.000
v 11.786 -41.909 0.000
v 5.627 -40.954 0.000
v -8.250 -45.309 0.000
v -14.592 -51.128 0.000
v -17.775 -56.715 0.000
v -18.256 -62.283 0.000
v -16.791 -67.620 9.900
v -10.684 -76.116 9.900
v -4.097 -79.016 9.900
v 4.207 -80.721 9.900
v 12.763 -80.239 9.900
v 20.335 -76.357 9.900
v 25.945 -70.529 9.900
v 28.395 -63.497 9.900
v 26.930 -55.742 9.900
v 22.533 -48.228 9.900
v 11.786 -41.909 9.900
v 5.627 -40.954 9.900
v -8.250 -45.309 9.900
v -14.592 -51.128 9.900
v -17.775 -56.715 9.900
v -18.256 -62.283 9.900
usemtl roof
f 98 99 100 101 102 103 104 105 106 107 108 109 110 111 112 113
usemtl teaching_building
f 97 96 95 94 93 92 91 90 89 88 87 86 85 84 83 82
f 82 83 99 98
f 83 84 100 99
f 84 85 101 100
f 85 86 102 101
f 86 87 103 102
f 87 88 104 103
f 88 89 105 104
f 89 90 106 105
f 90 91 107 106
f 91 92 108 107
f 92 93 109 108
f 93 94 110 109
f 94 95 111 110
f 95 96 112 111
f 96 97 113 112
f 97 82 98 113
