# school_id SD0827
# school_name 临沂第一实验小学三河口校区
# boundary_source footprint_convex_hull_buffer_20m
# adjacent_block_merge_distance_m 2.0
mtllib ../campus_materials.mtl
o SD0827_campus_boundary
usemtl campus_boundary
v -20.478 -108.404 0.050
v -46.381 -108.281 0.050
v -89.564 -45.165 0.050
v -109.766 45.670 0.050
v -60.162 77.952 0.050
v -38.773 90.984 0.050
v 28.530 90.347 0.050
v 66.826 47.628 0.050
v 91.857 7.773 0.050
v 92.278 -15.702 0.050
v 34.406 -86.590 0.050
v -20.478 -108.404 0.050
l 1 2 3 4 5 6 7 8 9 10 11 12 1
o SD0827_T001_1hao
v 19.402 58.905 0.000
v 19.524 70.431 0.000
v -33.247 70.931 0.000
v -33.354 59.405 0.000
v 19.402 58.905 13.200
v 19.524 70.431 13.200
v -33.247 70.931 13.200
v -33.354 59.405 13.200
usemtl roof
f 17 18 19 20
usemtl teaching_building
f 16 15 14 13
f 13 14 18 17
f 14 15 19 18
f 15 16 20 19
f 16 13 17 20
o SD0827_T002_2hao
v -60.847 35.019 0.000
v -49.601 42.542 0.000
v -49.502 61.027 0.000
v -87.232 36.473 0.000
v -60.847 35.019 9.900
v -49.601 42.542 9.900
v -49.502 61.027 9.900
v -87.232 36.473 9.900
usemtl roof
f 25 26 27 28
usemtl teaching_building
f 24 23 22 21
f 21 22 26 25
f 22 23 27 26
f 23 24 28 27
f 24 21 25 28
o SD0827_T003_3hao
v 50.735 24.123 0.000
v 50.796 35.547 0.000
v -33.461 35.982 0.000
v -33.522 24.549 0.000
v 50.735 24.123 13.200
v 50.796 35.547 13.200
v -33.461 35.982 13.200
v -33.522 24.549 13.200
usemtl roof
f 33 34 35 36
usemtl teaching_building
f 32 31 30 29
f 29 30 34 33
f 30 31 35 34
f 31 32 36 35
f 32 29 33 36
o SD0827_T004_4hao
v 27.128 -9.520 0.000
v 72.150 -8.732 0.000
v 71.960 1.849 0.000
v 26.937 1.061 0.000
v 27.128 -9.520 9.900
v 72.150 -8.732 9.900
v 71.960 1.849 9.900
v 26.937 1.061 9.900
usemtl roof
f 41 42 43 44
usemtl teaching_building
f 40 39 38 37
f 37 38 42 41
f 38 39 43 42
f 39 40 44 43
f 40 37 41 44
o SD0827_T005_5hao
v 19.219 -10.280 0.000
v 19.219 0.996 0.000
v -34.392 0.996 0.000
v -34.392 -10.280 0.000
v 19.219 -10.280 13.200
v 19.219 0.996 13.200
v -34.392 0.996 13.200
v -34.392 -10.280 13.200
usemtl roof
f 49 50 51 52
usemtl teaching_building
f 48 47 46 45
f 45 46 50 49
f 46 47 51 50
f 47 48 52 51
f 48 45 49 52
o SD0827_T006_6hao
v -43.272 -37.251 0.000
v -42.989 0.839 0.000
v -70.589 1.033 0.000
v -70.879 -37.056 0.000
v -43.272 -37.251 9.900
v -42.989 0.839 9.900
v -70.589 1.033 9.900
v -70.879 -37.056 9.900
usemtl roof
f 57 58 59 60
usemtl teaching_building
f 56 55 54 53
f 53 54 58 57
f 54 55 59 58
f 55 56 60 59
f 56 53 57 60
o SD0827_T007_7hao
v -24.261 -88.386 0.000
v 22.196 -69.921 0.000
v 17.134 -57.783 0.000
v -7.770 -68.040 0.000
v -24.154 -68.809 0.000
v -24.047 -47.925 0.000
v 20.998 -47.471 0.000
v 20.876 -35.954 0.000
v -24.017 -36.417 0.000
v -24.009 -35.083 0.000
v -35.515 -35.018 0.000
v -35.797 -88.331 0.000
v -24.261 -88.386 9.900
v 22.196 -69.921 9.900
v 17.134 -57.783 9.900
v -7.770 -68.040 9.900
v -24.154 -68.809 9.900
v -24.047 -47.925 9.900
v 20.998 -47.471 9.900
v 20.876 -35.954 9.900
v -24.017 -36.417 9.900
v -24.009 -35.083 9.900
v -35.515 -35.018 9.900
v -35.797 -88.331 9.900
usemtl roof
f 73 74 75 76 77 78 79 80 81 82 83 84
usemtl teaching_building
f 72 71 70 69 68 67 66 65 64 63 62 61
f 61 62 74 73
f 62 63 75 74
f 63 64 76 75
f 64 65 77 76
f 65 66 78 77
f 66 67 79 78
f 67 68 80 79
f 68 69 81 80
f 69 70 82 81
f 70 71 83 82
f 71 72 84 83
f 72 61 73 84
