# school_id SD0888
# school_name 杨集中学
# boundary_source footprint_convex_hull_buffer_20m
# adjacent_block_merge_distance_m 2.0
mtllib ../campus_materials.mtl
o SD0888_campus_boundary
usemtl campus_boundary
v -64.089 -89.946 0.050
v -64.645 73.172 0.050
v 13.154 75.791 0.050
v 128.754 76.322 0.050
v 126.081 31.104 0.050
v 10.700 -89.946 0.050
v -64.089 -89.946 0.050
l 1 2 3 4 5 6 7 1
o SD0888_T001_1hao
v 38.582 41.555 0.000
v 106.548 39.599 0.000
v 107.531 56.224 0.000
v 36.608 55.251 0.000
v 38.582 41.555 10.240
v 106.548 39.599 10.240
v 107.531 56.224 10.240
v 36.608 55.251 10.240
usemtl roof
f 12 13 14 15
usemtl teaching_building
f 11 10 9 8
f 8 9 13 12
f 9 10 14 13
f 10 11 15 14
f 11 8 12 15
o SD0888_T002_2hao
v -44.579 53.836 0.000
v 13.536 55.793 0.000
v 14.528 36.227 0.000
v -43.588 37.211 0.000
v -44.579 53.836 8.450
v 13.536 55.793 8.450
v 14.528 36.227 8.450
v -43.588 37.211 8.450
usemtl roof
f 20 21 22 23
usemtl teaching_building
f 19 18 17 16
f 16 17 21 20
f 17 18 22 21
f 18 19 23 22
f 19 16 20 23
o SD0888_T003_3hao
v 2.133 -69.946 0.000
v -44.157 -69.946 0.000
v -43.175 -55.278 0.000
v -43.175 -7.347 0.000
v -29.385 -8.331 0.000
v -29.385 -54.972 0.000
v 1.151 -54.294 0.000
v 2.133 -69.946 13.170
v -44.157 -69.946 13.170
v -43.175 -55.278 13.170
v -43.175 -7.347 13.170
v -29.385 -8.331 13.170
v -29.385 -54.972 13.170
v 1.151 -54.294 13.170
usemtl roof
f 31 32 33 34 35 36 37
usemtl teaching_building
f 30 29 28 27 26 25 24
f 24 25 32 31
f 25 26 33 32
f 26 27 34 33
f 27 28 35 34
f 28 29 36 35
f 29 30 37 36
f 30 24 31 37
