# school_id SD0874
# school_name 山东省平邑第一中学（西校区）
# boundary_source footprint_convex_hull_buffer_20m
# adjacent_block_merge_distance_m 2.0
mtllib ../campus_materials.mtl
o SD0874_campus_boundary
usemtl campus_boundary
v 23.958 -226.422 0.050
v -71.550 -204.395 0.050
v -214.076 -128.560 0.050
v -178.709 170.030 0.050
v -154.945 196.999 0.050
v -63.408 171.264 0.050
v 169.736 77.917 0.050
v 161.238 41.529 0.050
v 101.967 -196.967 0.050
v 23.958 -226.422 0.050
l 1 2 3 4 5 6 7 8 9 10 1
o SD0874_T001_1hao
v -128.242 142.307 0.000
v -101.652 136.228 0.000
v -66.615 137.830 0.000
v -69.850 152.300 0.000
v -98.416 150.918 0.000
v -123.158 156.888 0.000
v -148.253 174.342 0.000
v -159.581 161.486 0.000
v -128.242 142.307 8.330
v -101.652 136.228 8.330
v -66.615 137.830 8.330
v -69.850 152.300 8.330
v -98.416 150.918 8.330
v -123.158 156.888 8.330
v -148.253 174.342 8.330
v -159.581 161.486 8.330
usemtl roof
f 19 20 21 22 23 24 25 26
usemtl teaching_building
f 18 17 16 15 14 13 12 11
f 11 12 20 19
f 12 13 21 20
f 13 14 22 21
f 14 15 23 22
f 15 16 24 23
f 16 17 25 24
f 17 18 26 25
f 18 11 19 26
o SD0874_T002_2hao
v -96.984 15.098 0.000
v -93.685 28.352 0.000
v -152.403 44.325 0.000
v -155.702 30.938 0.000
v -96.984 15.098 8.240
v -93.685 28.352 8.240
v -152.403 44.325 8.240
v -155.702 30.938 8.240
usemtl roof
f 31 32 33 34
usemtl teaching_building
f 30 29 28 27
f 27 28 32 31
f 28 29 33 32
f 29 30 34 33
f 30 27 31 34
o SD0874_T003_3hao
v -26.475 -39.962 0.000
v -26.102 -40.051 0.000
v -28.995 -39.343 0.000
v -22.094 -11.564 0.000
v -80.064 2.032 0.000
v -75.913 19.486 0.000
v -11.568 4.538 0.000
v -5.015 32.872 0.000
v -66.379 48.359 0.000
v -61.268 68.345 0.000
v -3.826 53.868 0.000
v 1.774 77.863 0.000
v 1.779 77.867 0.000
v 2.444 80.714 0.000
v -51.416 93.139 0.000
v -47.021 111.909 0.000
v 22.736 95.803 0.000
v 19.437 77.232 0.000
v 74.666 65.139 0.000
v 78.463 81.389 0.000
v 146.353 65.736 0.000
v 141.794 46.215 0.000
v 88.695 58.452 0.000
v 82.760 33.066 0.000
v 135.097 20.603 0.000
v 130.085 -0.168 0.000
v 124.165 1.240 0.000
v 117.741 -26.620 0.000
v 109.920 -24.630 0.000
v 116.418 3.082 0.000
v 118.098 2.684 0.000
v 71.484 13.776 0.000
v 65.648 -13.364 0.000
v 122.980 -27.957 0.000
v 118.421 -45.611 0.000
v 66.508 -32.423 0.000
v 59.757 -60.523 0.000
v 50.677 -58.380 0.000
v 56.595 -59.793 0.000
v 51.710 -80.088 0.000
v -31.387 -60.312 0.000
v -26.475 -39.962 14.760
v -26.102 -40.051 14.760
v -28.995 -39.343 14.760
v -22.094 -11.564 14.760
v -80.064 2.032 14.760
v -75.913 19.486 14.760
v -11.568 4.538 14.760
v -5.015 32.872 14.760
v -66.379 48.359 14.760
v -61.268 68.345 14.760
v -3.826 53.868 14.760
v 1.774 77.863 14.760
v 1.779 77.867 14.760
v 2.444 80.714 14.760
v -51.416 93.139 14.760
v -47.021 111.909 14.760
v 22.736 95.803 14.760
v 19.437 77.232 14.760
v 74.666 65.139 14.760
v 78.463 81.389 14.760
v 146.353 65.736 14.760
v 141.794 46.215 14.760
v 88.695 58.452 14.760
v 82.760 33.066 14.760
v 135.097 20.603 14.760
v 130.085 -0.168 14.760
v 124.165 1.240 14.760
v 117.741 -26.620 14.760
v 109.920 -24.630 14.760
v 116.418 3.082 14.760
v 118.098 2.684 14.760
v 71.484 13.776 14.760
v 65.648 -13.364 14.760
v 122.980 -27.957 14.760
v 118.421 -45.611 14.760
v 66.508 -32.423 14.760
v 59.757 -60.523 14.760
v 50.677 -58.380 14.760
v 56.595 -59.793 14.760
v 51.710 -80.088 14.760
v -31.387 -60.312 14.760
usemtl roof
f 76 77 78 79 80 81 82 83 84 85 86 87 88 89 90 91 92 93 94 95 96 97 98 99 100 101 102 103 104 105 106 107 108 109 110 111 112 113 114 115 116
usemtl teaching_building
f 75 74 73 72 71 70 69 68 67 66 65 64 63 62 61 60 59 58 57 56 55 54 53 52 51 50 49 48 47 46 45 44 43 42 41 40 39 38 37 36 35
f 35 36 77 76
f 36 37 78 77
f 37 38 79 78
f 38 39 80 79
f 39 40 81 80
f 40 41 82 81
f 41 42 83 82
f 42 43 84 83
f 43 44 85 84
f 44 45 86 85
f 45 46 87 86
f 46 47 88 87
f 47 48 89 88
f 48 49 90 89
f 49 50 91 90
f 50 51 92 91
f 51 52 93 92
f 52 53 94 93
f 53 54 95 94
f 54 55 96 95
f 55 56 97 96
f 56 57 98 97
f 57 58 99 98
f 58 59 100 99
f 59 60 101 100
f 60 61 102 101
f 61 62 103 102
f 62 63 104 103
f 63 64 105 104
f 64 65 106 105
f 65 66 107 106
f 66 67 108 107
f 67 68 109 108
f 68 69 110 109
f 69 70 111 110
f 70 71 112 111
f 71 72 113 112
f 72 73 114 113
f 73 74 115 114
f 74 75 116 115
f 75 35 76 116
o SD0874_T004_4hao
v -101.869 -2.975 0.000
v -104.733 -15.312 0.000
v -163.741 0.661 0.000
v -160.696 12.478 0.000
v -101.869 -2.975 8.240
v -104.733 -15.312 8.240
v -163.741 0.661 8.240
v -160.696 12.478 8.240
usemtl roof
f 121 122 123 124
usemtl teaching_building
f 120 119 118 117
f 117 118 122 121
f 118 119 123 122
f 119 120 124 123
f 120 117 121 124
o SD0874_T005_5hao
v -118.517 -67.033 0.000
v -123.022 -85.637 0.000
v -181.223 -71.742 0.000
v -176.719 -53.138 0.000
v -118.517 -67.033 9.900
v -123.022 -85.637 9.900
v -181.223 -71.742 9.900
v -176.719 -53.138 9.900
usemtl roof
f 129 130 131 132
usemtl teaching_building
f 128 127 126 125
f 125 126 130 129
f 126 127 131 130
f 127 128 132 131
f 128 125 129 132
o SD0874_T006_6hao
v -0.873 -91.043 0.000
v -14.340 -147.296 0.000
v -57.244 -137.469 0.000
v -44.048 -80.398 0.000
v -0.873 -91.043 6.940
v -14.340 -147.296 6.940
v -57.244 -137.469 6.940
v -44.048 -80.398 6.940
usemtl roof
f 137 138 139 140
usemtl teaching_building
f 136 135 134 133
f 133 134 138 137
f 134 135 139 138
f 135 136 140 139
f 136 133 137 140
o SD0874_T007_7hao
v -129.203 -113.372 0.000
v -134.223 -132.462 0.000
v -192.606 -117.329 0.000
v -187.585 -98.250 0.000
v -129.203 -113.372 13.940
v -134.223 -132.462 13.940
v -192.606 -117.329 13.940
v -187.585 -98.250 13.940
usemtl roof
f 145 146 147 148
usemtl teaching_building
f 144 143 142 141
f 141 142 146 145
f 142 143 147 146
f 143 144 148 147
f 144 141 145 148
o SD0874_T008_8hao
v 45.058 -102.240 0.000
v 32.687 -157.952 0.000
v -0.320 -150.027 0.000
v 12.332 -94.591 0.000
v 45.058 -102.240 16.290
v 32.687 -157.952 16.290
v -0.320 -150.027 16.290
v 12.332 -94.591 16.290
usemtl roof
f 153 154 155 156
usemtl teaching_building
f 152 151 150 149
f 149 150 154 153
f 150 151 155 154
f 151 152 156 155
f 152 149 153 156
o SD0874_T009_9hao
v -66.696 -127.554 0.000
v -71.291 -146.589 0.000
v -124.735 -133.866 0.000
v -120.140 -114.842 0.000
v -66.696 -127.554 17.030
v -71.291 -146.589 17.030
v -124.735 -133.866 17.030
v -120.140 -114.842 17.030
usemtl roof
f 161 162 163 164
usemtl teaching_building
f 160 159 158 157
f 157 158 162 161
f 158 159 163 162
f 159 160 164 163
f 160 157 161 164
o SD0874_T010_10hao
v 88.831 -166.055 0.000
v 85.088 -181.962 0.000
v 39.484 -171.372 0.000
v 43.227 -155.465 0.000
v 88.831 -166.055 6.600
v 85.088 -181.962 6.600
v 39.484 -171.372 6.600
v 43.227 -155.465 6.600
usemtl roof
f 169 170 171 172
usemtl teaching_building
f 168 167 166 165
f 165 166 170 169
f 166 167 171 170
f 167 168 172 171
f 168 165 169 172
o SD0874_T011_11hao
v 27.095 -183.587 0.000
v 22.555 -205.573 0.000
v -64.485 -185.499 0.000
v -58.984 -163.247 0.000
v 27.095 -183.587 9.900
v 22.555 -205.573 9.900
v -64.485 -185.499 9.900
v -58.984 -163.247 9.900
usemtl roof
f 177 178 179 180
usemtl teaching_building
f 176 175 174 173
f 173 174 178 177
f 174 175 179 178
f 175 176 180 179
f 176 173 177 180
