# school_id SD0903
# school_name 皇山小学
# boundary_source footprint_convex_hull_buffer_20m
# adjacent_block_merge_distance_m 2.0
mtllib ../campus_materials.mtl
o SD0903_campus_boundary
usemtl campus_boundary
v 36.130 -56.240 0.050
v -70.927 -28.293 0.050
v -71.424 27.647 0.050
v 37.672 38.861 0.050
v 80.701 38.861 0.050
v 80.701 -56.240 0.050
v 36.130 -56.240 0.050
l 1 2 3 4 5 6 7 1
o SD0903_T001_1hao
v -51.064 -12.808 0.000
v -42.714 -12.743 0.000
v -42.798 -3.135 0.000
v 20.713 -2.570 0.000
v 20.812 -13.558 0.000
v 29.957 -13.484 0.000
v 29.728 11.578 0.000
v 9.971 11.402 0.000
v 10.009 6.659 0.000
v -10.374 6.483 0.000
v -10.435 12.857 0.000
v -18.419 12.783 0.000
v -18.350 6.056 0.000
v -37.267 5.890 0.000
v -37.305 9.735 0.000
v -51.263 9.614 0.000
v -51.064 -12.808 9.900
v -42.714 -12.743 9.900
v -42.798 -3.135 9.900
v 20.713 -2.570 9.900
v 20.812 -13.558 9.900
v 29.957 -13.484 9.900
v 29.728 11.578 9.900
v 9.971 11.402 9.900
v 10.009 6.659 9.900
v -10.374 6.483 9.900
v -10.435 12.857 9.900
v -18.419 12.783 9.900
v -18.350 6.056 9.900
v -37.267 5.890 9.900
v -37.305 9.735 9.900
v -51.263 9.614 9.900
usemtl roof
f 24 25 26 27 28 29 30 31 32 33 34 35 36 37 38 39
usemtl teaching_building
f 23 22 21 20 19 18 17 16 15 14 13 12 11 10 9 8
f 8 9 25 24
f 9 10 26 25
f 10 11 27 26
f 11 12 28 27
f 12 13 29 28
f 13 14 30 29
f 14 15 31 30
f 15 16 32 31
f 16 17 33 32
f 17 18 34 33
f 18 19 35 34
f 19 20 36 35
f 20 21 37 36
f 21 22 38 37
f 22 23 39 38
f 23 8 24 39
o SD0903_T002_2hao
v 60.701 -36.240 0.000
v 60.701 18.861 0.000
v 38.697 18.861 0.000
v 38.697 -36.240 0.000
v 60.701 -36.240 9.900
v 60.701 18.861 9.900
v 38.697 18.861 9.900
v 38.697 -36.240 9.900
usemtl roof
f 44 45 46 47
usemtl teaching_building
f 43 42 41 40
f 40 41 45 44
f 41 42 46 45
f 42 43 47 46
f 43 40 44 47
