# school_id SD0956
# school_name 北园小学
# boundary_source footprint_convex_hull_buffer_20m
# adjacent_block_merge_distance_m 2.0
mtllib ../campus_materials.mtl
o SD0956_campus_boundary
usemtl campus_boundary
v 18.819 -49.065 0.050
v -72.401 -43.688 0.050
v -78.711 4.903 0.050
v -76.884 41.765 0.050
v 15.786 37.234 0.050
v 125.331 27.981 0.050
v 122.147 -21.097 0.050
v 18.819 -49.065 0.050
l 1 2 3 4 5 6 7 8 1
o SD0956_T001_1hao
v 14.456 17.275 0.000
v 13.633 0.573 0.000
v -4.199 1.446 0.000
v -3.870 8.112 0.000
v -50.248 10.356 0.000
v -50.494 5.304 0.000
v -58.647 5.702 0.000
v -57.898 20.813 0.000
v 14.456 17.275 16.800
v 13.633 0.573 16.800
v -4.199 1.446 16.800
v -3.870 8.112 16.800
v -50.248 10.356 16.800
v -50.494 5.304 16.800
v -58.647 5.702 16.800
v -57.898 20.813 16.800
usemtl roof
f 17 18 19 20 21 22 23 24
usemtl teaching_building
f 16 15 14 13 12 11 10 9
f 9 10 18 17
f 10 11 19 18
f 11 12 20 19
f 12 13 21 20
f 13 14 22 21
f 14 15 23 22
f 15 16 24 23
f 16 9 17 24
o SD0956_T002_2hao
v 104.103 9.703 0.000
v 103.115 -5.529 0.000
v 31.886 -0.975 0.000
v 32.873 14.247 0.000
v 104.103 9.703 14.380
v 103.115 -5.529 14.380
v 31.886 -0.975 14.380
v 32.873 14.247 14.380
usemtl roof
f 29 30 31 32
usemtl teaching_building
f 28 27 26 25
f 25 26 30 29
f 26 27 31 30
f 27 28 32 31
f 28 25 29 32
o SD0956_T003_3hao
v 17.344 -18.805 0.000
v 16.741 -28.908 0.000
v -54.699 -24.697 0.000
v -54.096 -14.615 0.000
v 17.344 -18.805 9.270
v 16.741 -28.908 9.270
v -54.699 -24.697 9.270
v -54.096 -14.615 9.270
usemtl roof
f 37 38 39 40
usemtl teaching_building
f 36 35 34 33
f 33 34 38 37
f 34 35 39 38
f 35 36 40 39
f 36 33 37 40
