# school_id SD0929
# school_name 唐园镇中心小学
# boundary_source footprint_convex_hull_buffer_20m
# adjacent_block_merge_distance_m 2.0
mtllib ../campus_materials.mtl
o SD0929_campus_boundary
usemtl campus_boundary
v 51.309 -102.734 0.050
v -59.490 -92.961 0.050
v -53.992 18.589 0.050
v -53.239 26.976 0.050
v -47.329 82.909 0.050
v 65.384 72.965 0.050
v 54.160 -70.999 0.050
v 51.309 -102.734 0.050
l 1 2 3 4 5 6 7 8 1
o SD0929_T001_1hao
v 33.176 -81.057 0.000
v 34.230 -69.327 0.000
v -37.528 -63.008 0.000
v -38.567 -74.729 0.000
v 33.176 -81.057 4.950
v 34.230 -69.327 4.950
v -37.528 -63.008 4.950
v -38.567 -74.729 4.950
usemtl roof
f 13 14 15 16
usemtl teaching_building
f 12 11 10 9
f 9 10 14 13
f 10 11 15 14
f 11 12 16 15
f 12 9 13 16
