# school_id SD0979
# school_name 山东省成武第一中学
# boundary_source footprint_convex_hull_buffer_20m
# adjacent_block_merge_distance_m 2.0
mtllib ../campus_materials.mtl
o SD0979_campus_boundary
usemtl campus_boundary
v 175.115 -208.111 0.050
v 85.534 -199.498 0.050
v -208.670 -148.385 0.050
v -208.718 -62.670 0.050
v -207.146 -47.509 0.050
v -192.785 77.687 0.050
v -171.012 183.821 0.050
v 125.542 176.497 0.050
v 215.549 167.845 0.050
v 210.074 104.103 0.050
v 208.741 90.480 0.050
v 189.152 -97.820 0.050
v 183.598 -143.240 0.050
v 175.115 -208.111 0.050
l 1 2 3 4 5 6 7 8 9 10 11 12 13 14 1
o SD0979_T001_1hao
v -86.507 143.281 0.000
v -85.192 156.734 0.000
v -154.782 163.414 0.000
v -156.098 149.979 0.000
v -86.507 143.281 6.600
v -85.192 156.734 6.600
v -154.782 163.414 6.600
v -156.098 149.979 6.600
usemtl roof
f 19 20 21 22
usemtl teaching_building
f 18 17 16 15
f 15 16 20 19
f 16 17 21 20
f 17 18 22 21
f 18 15 19 22
o SD0979_T002_2hao
v 192.620 136.378 0.000
v 193.928 149.831 0.000
v 124.337 156.521 0.000
v 123.022 143.077 0.000
v 192.620 136.378 6.600
v 193.928 149.831 6.600
v 124.337 156.521 6.600
v 123.022 143.077 6.600
usemtl roof
f 27 28 29 30
usemtl teaching_building
f 26 25 24 23
f 23 24 28 27
f 24 25 29 28
f 25 26 30 29
f 26 23 27 30
o SD0979_T003_3hao
v 72.230 126.019 0.000
v 73.531 139.472 0.000
v 3.940 146.153 0.000
v 2.632 132.718 0.000
v 72.230 126.019 6.600
v 73.531 139.472 6.600
v 3.940 146.153 6.600
v 2.632 132.718 6.600
usemtl roof
f 35 36 37 38
usemtl teaching_building
f 34 33 32 31
f 31 32 36 35
f 32 33 37 36
f 33 34 38 37
f 34 31 35 38
o SD0979_T004_4hao
v 188.842 92.488 0.000
v 190.157 105.932 0.000
v 120.559 112.621 0.000
v 119.244 99.187 0.000
v 188.842 92.488 6.600
v 190.157 105.932 6.600
v 120.559 112.621 6.600
v 119.244 99.187 6.600
usemtl roof
f 43 44 45 46
usemtl teaching_building
f 42 41 40 39
f 39 40 44 43
f 40 41 45 44
f 41 42 46 45
f 42 39 43 46
o SD0979_T005_5hao
v -96.075 52.480 0.000
v -91.066 100.651 0.000
v -165.933 108.322 0.000
v -166.935 98.714 0.000
v -107.111 92.608 0.000
v -109.651 68.046 0.000
v -173.016 74.532 0.000
v -174.469 60.504 0.000
v -96.075 52.480 6.600
v -91.066 100.651 6.600
v -165.933 108.322 6.600
v -166.935 98.714 6.600
v -107.111 92.608 6.600
v -109.651 68.046 6.600
v -173.016 74.532 6.600
v -174.469 60.504 6.600
usemtl roof
f 55 56 57 58 59 60 61 62
usemtl teaching_building
f 54 53 52 51 50 49 48 47
f 47 48 56 55
f 48 49 57 56
f 49 50 58 57
f 50 51 59 58
f 51 52 60 59
f 52 53 61 60
f 53 54 62 61
f 54 47 55 62
o SD0979_T006_6hao
v 71.366 34.857 0.000
v 72.383 44.465 0.000
v 12.567 50.710 0.000
v 15.160 75.264 0.000
v 78.517 68.648 0.000
v 80.001 82.667 0.000
v 1.623 90.857 0.000
v -3.486 42.687 0.000
v 71.366 34.857 6.600
v 72.383 44.465 6.600
v 12.567 50.710 6.600
v 15.160 75.264 6.600
v 78.517 68.648 6.600
v 80.001 82.667 6.600
v 1.623 90.857 6.600
v -3.486 42.687 6.600
usemtl roof
f 71 72 73 74 75 76 77 78
usemtl teaching_building
f 70 69 68 67 66 65 64 63
f 63 64 72 71
f 64 65 73 72
f 65 66 74 73
f 66 67 75 74
f 67 68 76 75
f 68 69 77 76
f 69 70 78 77
f 70 63 71 78
o SD0979_T007_7hao
v 183.802 47.273 0.000
v 185.117 60.717 0.000
v 115.527 67.407 0.000
v 114.219 53.962 0.000
v 183.802 47.273 6.600
v 185.117 60.717 6.600
v 115.527 67.407 6.600
v 114.219 53.962 6.600
usemtl roof
f 83 84 85 86
usemtl teaching_building
f 82 81 80 79
f 79 80 84 83
f 80 81 85 84
f 81 82 86 85
f 82 79 83 86
o SD0979_T008_8hao
v -21.941 -17.473 0.000
v -20.932 -4.307 0.000
v -43.792 -2.584 0.000
v -43.341 3.207 0.000
v -39.731 7.061 0.000
v -39.219 11.935 0.000
v -41.085 15.956 0.000
v -40.618 21.552 0.000
v -16.014 19.523 0.000
v -15.058 31.105 0.000
v -76.389 36.145 0.000
v -77.490 22.942 0.000
v -67.112 22.090 0.000
v -67.433 18.282 0.000
v -69.498 14.687 0.000
v -70.270 10.452 0.000
v -68.144 4.624 0.000
v -68.427 0.900 0.000
v -85.054 2.151 0.000
v -86.186 -12.628 0.000
v -21.941 -17.473 6.600
v -20.932 -4.307 6.600
v -43.792 -2.584 6.600
v -43.341 3.207 6.600
v -39.731 7.061 6.600
v -39.219 11.935 6.600
v -41.085 15.956 6.600
v -40.618 21.552 6.600
v -16.014 19.523 6.600
v -15.058 31.105 6.600
v -76.389 36.145 6.600
v -77.490 22.942 6.600
v -67.112 22.090 6.600
v -67.433 18.282 6.600
v -69.498 14.687 6.600
v -70.270 10.452 6.600
v -68.144 4.624 6.600
v -68.427 0.900 6.600
v -85.054 2.151 6.600
v -86.186 -12.628 6.600
usemtl roof
f 107 108 109 110 111 112 113 114 115 116 117 118 119 120 121 122 123 124 125 126
usemtl teaching_building
f 106 105 104 103 102 101 100 99 98 97 96 95 94 93 92 91 90 89 88 87
f 87 88 108 107
f 88 89 109 108
f 89 90 110 109
f 90 91 111 110
f 91 92 112 111
f 92 93 113 112
f 93 94 114 113
f 94 95 115 114
f 95 96 116 115
f 96 97 117 116
f 97 98 118 117
f 98 99 119 118
f 99 100 120 119
f 100 101 121 120
f 101 102 122 121
f 102 103 123 122
f 103 104 124 123
f 104 105 125 124
f 105 106 126 125
f 106 87 107 126
o SD0979_T009_9hao
v 167.175 -53.099 0.000
v 175.052 22.016 0.000
v 99.756 29.789 0.000
v 91.894 -45.325 0.000
v 167.175 -53.099 6.600
v 175.052 22.016 6.600
v 99.756 29.789 6.600
v 91.894 -45.325 6.600
usemtl roof
f 131 132 133 134
usemtl teaching_building
f 130 129 128 127
f 127 128 132 131
f 128 129 133 132
f 129 130 134 133
f 130 127 131 134
o SD0979_T010_10hao
v -110.331 -71.731 0.000
v -105.322 -23.551 0.000
v -180.190 -15.880 0.000
v -181.192 -25.488 0.000
v -121.360 -31.612 0.000
v -123.907 -56.156 0.000
v -187.264 -49.680 0.000
v -188.717 -63.698 0.000
v -110.331 -71.731 6.600
v -105.322 -23.551 6.600
v -180.190 -15.880 6.600
v -181.192 -25.488 6.600
v -121.360 -31.612 6.600
v -123.907 -56.156 6.600
v -187.264 -49.680 6.600
v -188.717 -63.698 6.600
usemtl roof
f 143 144 145 146 147 148 149 150
usemtl teaching_building
f 142 141 140 139 138 137 136 135
f 135 136 144 143
f 136 137 145 144
f 137 138 146 145
f 138 139 147 146
f 139 140 148 147
f 140 141 149 148
f 141 142 150 149
f 142 135 143 150
o SD0979_T011_11hao
v 58.448 -88.946 0.000
v 59.473 -79.338 0.000
v -0.351 -73.093 0.000
v 2.250 -48.559 0.000
v 65.592 -55.165 0.000
v 67.083 -41.146 0.000
v -11.288 -32.947 0.000
v -16.397 -81.117 0.000
v 58.448 -88.946 6.600
v 59.473 -79.338 6.600
v -0.351 -73.093 6.600
v 2.250 -48.559 6.600
v 65.592 -55.165 6.600
v 67.083 -41.146 6.600
v -11.288 -32.947 6.600
v -16.397 -81.117 6.600
usemtl roof
f 159 160 161 162 163 164 165 166
usemtl teaching_building
f 158 157 156 155 154 153 152 151
f 151 152 160 159
f 152 153 161 160
f 153 154 162 161
f 154 155 163 162
f 155 156 164 163
f 156 157 165 164
f 157 158 166 165
f 158 151 159 166
o SD0979_T012_12hao
v 169.278 -95.571 0.000
v 170.593 -82.118 0.000
v 100.995 -75.428 0.000
v 99.695 -88.872 0.000
v 169.278 -95.571 6.600
v 170.593 -82.118 6.600
v 100.995 -75.428 6.600
v 99.695 -88.872 6.600
usemtl roof
f 171 172 173 174
usemtl teaching_building
f 170 169 168 167
f 167 168 172 171
f 168 169 173 172
f 169 170 174 173
f 170 167 171 174
o SD0979_T013_13hao
v -126.002 -138.609 0.000
v -122.339 -106.495 0.000
v -131.280 -105.485 0.000
v -132.526 -116.427 0.000
v -186.262 -110.368 0.000
v -188.679 -131.558 0.000
v -126.002 -138.609 6.600
v -122.339 -106.495 6.600
v -131.280 -105.485 6.600
v -132.526 -116.427 6.600
v -186.262 -110.368 6.600
v -188.679 -131.558 6.600
usemtl roof
f 181 182 183 184 185 186
usemtl teaching_building
f 180 179 178 177 176 175
f 175 176 182 181
f 176 177 183 182
f 177 178 184 183
f 178 179 185 184
f 179 180 186 185
f 180 175 181 186
o SD0979_T014_14hao
v 163.756 -140.730 0.000
v 165.071 -127.277 0.000
v 95.481 -120.597 0.000
v 94.165 -134.032 0.000
v 163.756 -140.730 6.600
v 165.071 -127.277 6.600
v 95.481 -120.597 6.600
v 94.165 -134.032 6.600
usemtl roof
f 191 192 193 194
usemtl teaching_building
f 190 189 188 187
f 187 188 192 191
f 188 189 193 192
f 189 190 194 193
f 190 187 191 194
o SD0979_T015_15hao
v 45.225 -156.185 0.000
v 47.374 -135.616 0.000
v -12.343 -129.482 0.000
v -14.485 -150.061 0.000
v 45.225 -156.185 6.600
v 47.374 -135.616 6.600
v -12.343 -129.482 6.600
v -14.485 -150.061 6.600
usemtl roof
f 199 200 201 202
usemtl teaching_building
f 198 197 196 195
f 195 196 200 199
f 196 197 201 200
f 197 198 202 201
f 198 195 199 202
o SD0979_T016_16hao
v 157.790 -186.353 0.000
v 159.106 -172.909 0.000
v 89.508 -166.229 0.000
v 88.207 -179.663 0.000
v 157.790 -186.353 6.600
v 159.106 -172.909 6.600
v 89.508 -166.229 6.600
v 88.207 -179.663 6.600
usemtl roof
f 207 208 209 210
usemtl teaching_building
f 206 205 204 203
f 203 204 208 207
f 204 205 209 208
f 205 206 210 209
f 206 203 207 210
