# school_id SD0952
# school_name 邹平渤海实验学校
# boundary_source footprint_convex_hull_buffer_20m
# adjacent_block_merge_distance_m 2.0
mtllib ../campus_materials.mtl
o SD0952_campus_boundary
usemtl campus_boundary
v 140.066 -180.820 0.050
v 74.465 -180.355 0.050
v -21.291 -177.120 0.050
v -219.371 -4.251 0.050
v -230.931 90.929 0.050
v -230.234 169.053 0.050
v -112.562 168.934 0.050
v -52.462 168.347 0.050
v 126.749 145.966 0.050
v 139.922 14.402 0.050
v 140.092 -118.011 0.050
v 140.066 -180.820 0.050
l 1 2 3 4 5 6 7 8 9 10 11 12 1
o SD0952_T001_1hao
v -112.893 126.627 0.000
v -54.034 126.041 0.000
v -53.803 148.359 0.000
v -112.670 148.934 0.000
v -112.893 126.627 8.890
v -54.034 126.041 8.890
v -53.803 148.359 8.890
v -112.670 148.934 8.890
usemtl roof
f 17 18 19 20
usemtl teaching_building
f 16 15 14 13
f 13 14 18 17
f 14 15 19 18
f 15 16 20 19
f 16 13 17 20
o SD0952_T002_2hao
v -210.920 92.050 0.000
v -136.237 91.387 0.000
v -135.729 148.370 0.000
v -210.412 149.033 0.000
v -210.920 92.050 8.570
v -136.237 91.387 8.570
v -135.729 148.370 8.570
v -210.412 149.033 8.570
usemtl roof
f 25 26 27 28
usemtl teaching_building
f 24 23 22 21
f 21 22 26 25
f 22 23 27 26
f 23 24 28 27
f 24 21 25 28
o SD0952_T003_3hao
v 26.476 128.937 0.000
v 26.297 75.436 0.000
v -2.606 75.756 0.000
v -2.606 129.866 0.000
v -36.090 129.866 0.000
v -36.366 58.181 0.000
v 107.894 57.219 0.000
v 107.618 75.347 0.000
v 38.985 75.347 0.000
v 39.083 112.378 0.000
v 108.304 111.472 0.000
v 108.438 128.097 0.000
v 26.476 128.937 8.890
v 26.297 75.436 8.890
v -2.606 75.756 8.890
v -2.606 129.866 8.890
v -36.090 129.866 8.890
v -36.366 58.181 8.890
v 107.894 57.219 8.890
v 107.618 75.347 8.890
v 38.985 75.347 8.890
v 39.083 112.378 8.890
v 108.304 111.472 8.890
v 108.438 128.097 8.890
usemtl roof
f 41 42 43 44 45 46 47 48 49 50 51 52
usemtl teaching_building
f 40 39 38 37 36 35 34 33 32 31 30 29
f 29 30 42 41
f 30 31 43 42
f 31 32 44 43
f 32 33 45 44
f 33 34 46 45
f 34 35 47 46
f 35 36 48 47
f 36 37 49 48
f 37 38 50 49
f 38 39 51 50
f 39 40 52 51
f 40 29 41 52
o SD0952_T004_4hao
v -113.552 62.248 0.000
v -53.954 61.663 0.000
v -53.598 97.046 0.000
v -113.196 97.632 0.000
v -113.552 62.248 8.890
v -53.954 61.663 8.890
v -53.598 97.046 8.890
v -113.196 97.632 8.890
usemtl roof
f 57 58 59 60
usemtl teaching_building
f 56 55 54 53
f 53 54 58 57
f 54 55 59 58
f 55 56 60 59
f 56 53 57 60
o SD0952_T005_5hao
v -200.442 5.774 0.000
v -69.680 4.933 0.000
v -69.546 24.974 0.000
v -200.308 25.837 0.000
v -200.442 5.774 8.890
v -69.680 4.933 8.890
v -69.546 24.974 8.890
v -200.308 25.837 8.890
usemtl roof
f 65 66 67 68
usemtl teaching_building
f 64 63 62 61
f 61 62 66 65
f 62 63 67 66
f 63 64 68 67
f 64 61 65 68
o SD0952_T006_6hao
v -73.395 -44.445 0.000
v -44.857 -44.721 0.000
v -44.438 -2.462 0.000
v -72.995 -2.196 0.000
v -73.395 -44.445 8.890
v -44.857 -44.721 8.890
v -44.438 -2.462 8.890
v -72.995 -2.196 8.890
usemtl roof
f 73 74 75 76
usemtl teaching_building
f 72 71 70 69
f 69 70 74 73
f 70 71 75 74
f 71 72 76 75
f 72 69 73 76
o SD0952_T007_7hao
v -11.855 -3.943 0.000
v 46.585 -4.164 0.000
v 46.469 -38.697 0.000
v -12.363 -38.000 0.000
v -13.378 -105.629 0.000
v 45.186 -105.938 0.000
v 45.605 -140.128 0.000
v -13.690 -139.476 0.000
v -13.503 -157.372 0.000
v 58.943 -158.179 0.000
v 58.756 -107.176 0.000
v 75.070 -106.933 0.000
v 74.874 -160.357 0.000
v 120.074 -160.678 0.000
v 120.092 -118.020 0.000
v 113.009 -118.009 0.000
v 113.062 -96.863 0.000
v 103.457 -96.697 0.000
v 103.457 -92.806 0.000
v 97.951 -92.740 0.000
v 98.022 -85.223 0.000
v 58.774 -85.079 0.000
v 58.970 -92.795 0.000
v 24.444 -92.552 0.000
v 25.273 -52.260 0.000
v 119.602 -52.990 0.000
v 119.923 13.390 0.000
v -11.579 14.329 0.000
v -11.855 -3.943 9.210
v 46.585 -4.164 9.210
v 46.469 -38.697 9.210
v -12.363 -38.000 9.210
v -13.378 -105.629 9.210
v 45.186 -105.938 9.210
v 45.605 -140.128 9.210
v -13.690 -139.476 9.210
v -13.503 -157.372 9.210
v 58.943 -158.179 9.210
v 58.756 -107.176 9.210
v 75.070 -106.933 9.210
v 74.874 -160.357 9.210
v 120.074 -160.678 9.210
v 120.092 -118.020 9.210
v 113.009 -118.009 9.210
v 113.062 -96.863 9.210
v 103.457 -96.697 9.210
v 103.457 -92.806 9.210
v 97.951 -92.740 9.210
v 98.022 -85.223 9.210
v 58.774 -85.079 9.210
v 58.970 -92.795 9.210
v 24.444 -92.552 9.210
v 25.273 -52.260 9.210
v 119.602 -52.990 9.210
v 119.923 13.390 9.210
v -11.579 14.329 9.210
usemtl roof
f 105 106 107 108 109 110 111 112 113 114 115 116 117 118 119 120 121 122 123 124 125 126 127 128 129 130 131 132
usemtl teaching_building
f 104 103 102 101 100 99 98 97 96 95 94 93 92 91 90 89 88 87 86 85 84 83 82 81 80 79 78 77
f 77 78 106 105
f 78 79 107 106
f 79 80 108 107
f 80 81 109 108
f 81 82 110 109
f 82 83 111 110
f 83 84 112 111
f 84 85 113 112
f 85 86 114 113
f 86 87 115 114
f 87 88 116 115
f 88 89 117 116
f 89 90 118 117
f 90 91 119 118
f 91 92 120 119
f 92 93 121 120
f 93 94 122 121
f 94 95 123 122
f 95 96 124 123
f 96 97 125 124
f 97 98 126 125
f 98 99 127 126
f 99 100 128 127
f 100 101 129 128
f 101 102 130 129
f 102 103 131 130
f 103 104 132 131
f 104 77 105 132
