# school_id SD0954
# school_name 东明县第二初级中学
# boundary_source footprint_convex_hull_buffer_20m
# adjacent_block_merge_distance_m 2.0
mtllib ../campus_materials.mtl
o SD0954_campus_boundary
usemtl campus_boundary
v 92.949 -95.657 0.050
v 30.891 -94.590 0.050
v -70.326 -45.627 0.050
v -72.815 12.819 0.050
v -73.796 59.793 0.050
v -74.031 95.498 0.050
v 73.516 93.495 0.050
v 92.949 -49.361 0.050
v 92.949 -95.657 0.050
l 1 2 3 4 5 6 7 8 9 1
o SD0954_T001_1hao
v 56.020 73.731 0.000
v 55.047 -33.902 0.000
v -50.853 -32.830 0.000
v -50.934 -19.620 0.000
v -1.765 -19.311 0.000
v -1.983 13.785 0.000
v -52.824 13.453 0.000
v -52.924 29.570 0.000
v -4.373 29.891 0.000
v -4.572 60.389 0.000
v -53.797 60.068 0.000
v -53.897 75.223 0.000
v 56.020 73.731 11.930
v 55.047 -33.902 11.930
v -50.853 -32.830 11.930
v -50.934 -19.620 11.930
v -1.765 -19.311 11.930
v -1.983 13.785 11.930
v -52.824 13.453 11.930
v -52.924 29.570 11.930
v -4.373 29.891 11.930
v -4.572 60.389 11.930
v -53.797 60.068 11.930
v -53.897 75.223 11.930
usemtl roof
f 22 23 24 25 26 27 28 29 30 31 32 33
usemtl teaching_building
f 21 20 19 18 17 16 15 14 13 12 11 10
f 10 11 23 22
f 11 12 24 23
f 12 13 25 24
f 13 14 26 25
f 14 15 27 26
f 15 16 28 27
f 16 17 29 28
f 17 18 30 29
f 18 19 31 30
f 19 20 32 31
f 20 21 33 32
f 21 10 22 33
o SD0954_T002_2hao
v 72.949 -50.715 0.000
v 72.949 -75.310 0.000
v 35.637 -74.669 0.000
v 35.319 -49.753 0.000
v 72.949 -50.715 11.160
v 72.949 -75.310 11.160
v 35.637 -74.669 11.160
v 35.319 -49.753 11.160
usemtl roof
f 38 39 40 41
usemtl teaching_building
f 37 36 35 34
f 34 35 39 38
f 35 36 40 39
f 36 37 41 40
f 37 34 38 41
