# school_id SD0980
# school_name 山东省成武第二中学
# boundary_source footprint_convex_hull_buffer_20m
# adjacent_block_merge_distance_m 2.0
mtllib ../campus_materials.mtl
o SD0980_campus_boundary
usemtl campus_boundary
v 3.551 -112.378 0.050
v -96.758 -97.480 0.050
v -88.520 -42.739 0.050
v -60.504 109.772 0.050
v 7.614 100.589 0.050
v 104.069 86.727 0.050
v 99.102 51.041 0.050
v 90.741 -7.769 0.050
v 3.551 -112.378 0.050
l 1 2 3 4 5 6 7 8 9 1
o SD0980_T001_1hao
v 79.297 53.827 0.000
v 81.515 69.763 0.000
v 25.796 77.398 0.000
v 23.578 61.471 0.000
v 79.297 53.827 9.900
v 81.515 69.763 9.900
v 25.796 77.398 9.900
v 23.578 61.471 9.900
usemtl roof
f 14 15 16 17
usemtl teaching_building
f 13 12 11 10
f 10 11 15 14
f 11 12 16 15
f 12 13 17 16
f 13 10 14 17
o SD0980_T002_2hao
v -4.667 11.030 0.000
v 4.855 80.780 0.000
v -44.278 87.404 0.000
v -53.808 17.655 0.000
v -4.667 11.030 9.900
v 4.855 80.780 9.900
v -44.278 87.404 9.900
v -53.808 17.655 9.900
usemtl roof
f 22 23 24 25
usemtl teaching_building
f 21 20 19 18
f 18 19 23 22
f 19 20 24 23
f 20 21 25 24
f 21 18 22 25
o SD0980_T003_3hao
v 71.740 0.671 0.000
v 73.950 16.598 0.000
v 18.247 24.224 0.000
v 16.029 8.306 0.000
v 71.740 0.671 9.900
v 73.950 16.598 9.900
v 18.247 24.224 9.900
v 16.029 8.306 9.900
usemtl roof
f 30 31 32 33
usemtl teaching_building
f 29 28 27 26
f 26 27 31 30
f 27 28 32 31
f 28 29 33 32
f 29 26 30 33
o SD0980_T004_4hao
v -4.621 -90.945 0.000
v 0.641 -55.949 0.000
v -14.235 -53.744 0.000
v -16.675 -70.042 0.000
v -58.489 -63.843 0.000
v -56.087 -47.926 0.000
v -68.791 -46.035 0.000
v -73.999 -80.641 0.000
v -4.621 -90.945 9.900
v 0.641 -55.949 9.900
v -14.235 -53.744 9.900
v -16.675 -70.042 9.900
v -58.489 -63.843 9.900
v -56.087 -47.926 9.900
v -68.791 -46.035 9.900
v -73.999 -80.641 9.900
usemtl roof
f 42 43 44 45 46 47 48 49
usemtl teaching_building
f 41 40 39 38 37 36 35 34
f 34 35 43 42
f 35 36 44 43
f 36 37 45 44
f 37 38 46 45
f 38 39 47 46
f 39 40 48 47
f 40 41 49 48
f 41 34 42 49
