# school_id SD0905
# school_name 经开区第二实验小学北校区
# boundary_source footprint_convex_hull_buffer_20m
# adjacent_block_merge_distance_m 2.0
mtllib ../campus_materials.mtl
o SD0905_campus_boundary
usemtl campus_boundary
v -52.194 -97.230 0.050
v -70.837 48.257 0.050
v -71.049 88.773 0.050
v 50.713 89.392 0.050
v 53.390 32.656 0.050
v 53.409 23.517 0.050
v 53.616 -97.007 0.050
v -52.194 -97.230 0.050
l 1 2 3 4 5 6 7 8 1
o SD0905_T001_1hao
v -50.844 49.585 0.000
v -50.945 68.875 0.000
v 31.639 69.295 0.000
v 31.740 50.006 0.000
v -50.844 49.585 9.830
v -50.945 68.875 9.830
v 31.639 69.295 9.830
v 31.740 50.006 9.830
usemtl roof
f 13 14 15 16
usemtl teaching_building
f 12 11 10 9
f 9 10 14 13
f 10 11 15 14
f 11 12 16 15
f 12 9 13 16
o SD0905_T002_2hao
v -34.598 -77.193 0.000
v 33.582 -77.049 0.000
v 33.455 -18.739 0.000
v 27.142 -18.750 0.000
v 27.051 23.454 0.000
v 33.409 23.476 0.000
v 33.391 32.164 0.000
v -36.340 32.021 0.000
v -36.313 19.651 0.000
v 16.049 19.762 0.000
v 16.122 -15.290 0.000
v -37.088 -15.401 0.000
v -37.061 -28.400 0.000
v 17.098 -28.290 0.000
v 17.153 -54.532 0.000
v -34.643 -54.643 0.000
v -34.598 -77.193 9.850
v 33.582 -77.049 9.850
v 33.455 -18.739 9.850
v 27.142 -18.750 9.850
v 27.051 23.454 9.850
v 33.409 23.476 9.850
v 33.391 32.164 9.850
v -36.340 32.021 9.850
v -36.313 19.651 9.850
v 16.049 19.762 9.850
v 16.122 -15.290 9.850
v -37.088 -15.401 9.850
v -37.061 -28.400 9.850
v 17.098 -28.290 9.850
v 17.153 -54.532 9.850
v -34.643 -54.643 9.850
usemtl roof
f 33 34 35 36 37 38 39 40 41 42 43 44 45 46 47 48
usemtl teaching_building
f 32 31 30 29 28 27 26 25 24 23 22 21 20 19 18 17
f 17 18 34 33
f 18 19 35 34
f 19 20 36 35
f 20 21 37 36
f 21 22 38 37
f 22 23 39 38
f 23 24 40 39
f 24 25 41 40
f 25 26 42 41
f 26 27 43 42
f 27 28 44 43
f 28 29 45 44
f 29 30 46 45
f 30 31 47 46
f 31 32 48 47
f 32 17 33 48
