# school_id SD0955
# school_name 东明县第二实验小学
# boundary_source footprint_convex_hull_buffer_20m
# adjacent_block_merge_distance_m 2.0
mtllib ../campus_materials.mtl
o SD0955_campus_boundary
usemtl campus_boundary
v 74.865 -89.879 0.050
v -64.503 -89.134 0.050
v -64.228 -37.204 0.050
v -15.409 126.179 0.050
v 76.036 125.678 0.050
v 74.865 -89.879 0.050
l 1 2 3 4 5 6 1
o SD0955_T001_1hao
v 55.928 105.788 0.000
v 54.974 -69.772 0.000
v -44.397 -69.241 0.000
v -44.243 -40.180 0.000
v 3.580 -40.434 0.000
v 3.762 -6.653 0.000
v -14.048 -6.565 0.000
v -13.966 10.513 0.000
v -1.054 10.447 0.000
v -0.536 106.097 0.000
v 55.928 105.788 8.700
v 54.974 -69.772 8.700
v -44.397 -69.241 8.700
v -44.243 -40.180 8.700
v 3.580 -40.434 8.700
v 3.762 -6.653 8.700
v -14.048 -6.565 8.700
v -13.966 10.513 8.700
v -1.054 10.447 8.700
v -0.536 106.097 8.700
usemtl roof
f 17 18 19 20 21 22 23 24 25 26
usemtl teaching_building
f 16 15 14 13 12 11 10 9 8 7
f 7 8 18 17
f 8 9 19 18
f 9 10 20 19
f 10 11 21 20
f 11 12 22 21
f 12 13 23 22
f 13 14 24 23
f 14 15 25 24
f 15 16 26 25
f 16 7 17 26
