# school_id SD0985
# school_name 曹县一中（新校）
# boundary_source footprint_convex_hull_buffer_20m
# adjacent_block_merge_distance_m 2.0
mtllib ../campus_materials.mtl
o SD0985_campus_boundary
usemtl campus_boundary
v -37.815 -135.640 0.050
v -179.497 -24.705 0.050
v -183.276 8.545 0.050
v -183.295 26.668 0.050
v -183.192 71.744 0.050
v -178.804 106.787 0.050
v -62.123 121.931 0.050
v 4.074 122.011 0.050
v 121.410 118.319 0.050
v 138.138 84.552 0.050
v 138.067 64.072 0.050
v 137.727 19.952 0.050
v 135.640 -63.895 0.050
v 125.847 -88.262 0.050
v 76.054 -135.488 0.050
v -37.815 -135.640 0.050
l 1 2 3 4 5 6 7 8 9 10 11 12 13 14 15 16 1
o SD0985_T001_1hao
v 3.771 102.011 0.000
v 3.789 88.746 0.000
v 1.147 88.746 0.000
v 1.193 57.297 0.000
v 3.963 57.297 0.000
v 3.981 44.066 0.000
v 1.732 44.066 0.000
v 1.769 13.767 0.000
v 4.054 13.767 0.000
v 4.081 -1.046 0.000
v -60.516 -1.134 0.000
v -60.535 13.955 0.000
v -49.803 13.966 0.000
v -49.813 22.698 0.000
v -63.213 22.676 0.000
v -63.240 39.644 0.000
v -49.703 39.666 0.000
v -49.712 43.502 0.000
v -60.800 43.480 0.000
v -60.818 57.773 0.000
v -49.511 57.784 0.000
v -49.520 67.279 0.000
v -63.122 67.257 0.000
v -63.140 83.462 0.000
v -49.904 83.473 0.000
v -49.904 87.596 0.000
v -60.800 87.585 0.000
v -60.818 101.933 0.000
v 3.771 102.011 10.310
v 3.789 88.746 10.310
v 1.147 88.746 10.310
v 1.193 57.297 10.310
v 3.963 57.297 10.310
v 3.981 44.066 10.310
v 1.732 44.066 10.310
v 1.769 13.767 10.310
v 4.054 13.767 10.310
v 4.081 -1.046 10.310
v -60.516 -1.134 10.310
v -60.535 13.955 10.310
v -49.803 13.966 10.310
v -49.813 22.698 10.310
v -63.213 22.676 10.310
v -63.240 39.644 10.310
v -49.703 39.666 10.310
v -49.712 43.502 10.310
v -60.800 43.480 10.310
v -60.818 57.773 10.310
v -49.511 57.784 10.310
v -49.520 67.279 10.310
v -63.122 67.257 10.310
v -63.140 83.462 10.310
v -49.904 83.473 10.310
v -49.904 87.596 10.310
v -60.800 87.585 10.310
v -60.818 101.933 10.310
usemtl roof
f 45 46 47 48 49 50 51 52 53 54 55 56 57 58 59 60 61 62 63 64 65 66 67 68 69 70 71 72
usemtl teaching_building
f 44 43 42 41 40 39 38 37 36 35 34 33 32 31 30 29 28 27 26 25 24 23 22 21 20 19 18 17
f 17 18 46 45
f 18 19 47 46
f 19 20 48 47
f 20 21 49 48
f 21 22 50 49
f 22 23 51 50
f 23 24 52 51
f 24 25 53 52
f 25 26 54 53
f 26 27 55 54
f 27 28 56 55
f 28 29 57 56
f 29 30 58 57
f 30 31 59 58
f 31 32 60 59
f 32 33 61 60
f 33 34 62 61
f 34 35 63 62
f 35 36 64 63
f 36 37 65 64
f 37 38 66 65
f 38 39 67 66
f 39 40 68 67
f 40 41 69 68
f 41 42 70 69
f 42 43 71 70
f 43 44 72 71
f 44 17 45 72
o SD0985_T002_2hao
v 45.873 78.665 0.000
v 48.771 78.654 0.000
v 48.716 63.167 0.000
v 45.325 63.178 0.000
v 45.233 35.996 0.000
v 48.752 35.985 0.000
v 48.688 19.006 0.000
v 46.522 19.017 0.000
v 46.485 10.185 0.000
v 43.094 10.196 0.000
v 43.048 -3.234 0.000
v 80.160 -3.356 0.000
v 80.142 -8.551 0.000
v 88.259 -8.573 0.000
v 88.268 -4.837 0.000
v 107.326 -4.903 0.000
v 107.336 -0.836 0.000
v 110.114 -0.847 0.000
v 110.142 5.819 0.000
v 108.341 5.819 0.000
v 108.350 10.030 0.000
v 103.935 10.042 0.000
v 103.972 20.322 0.000
v 117.729 20.278 0.000
v 117.783 35.521 0.000
v 103.990 35.565 0.000
v 104.008 40.296 0.000
v 108.286 40.274 0.000
v 108.304 43.834 0.000
v 110.599 43.834 0.000
v 110.626 49.294 0.000
v 108.624 49.305 0.000
v 108.643 53.417 0.000
v 104.356 53.428 0.000
v 104.392 64.228 0.000
v 118.067 64.184 0.000
v 118.122 79.903 0.000
v 104.091 79.958 0.000
v 104.100 84.059 0.000
v 108.752 84.048 0.000
v 108.807 98.706 0.000
v 45.946 98.927 0.000
v 45.873 78.665 11.820
v 48.771 78.654 11.820
v 48.716 63.167 11.820
v 45.325 63.178 11.820
v 45.233 35.996 11.820
v 48.752 35.985 11.820
v 48.688 19.006 11.820
v 46.522 19.017 11.820
v 46.485 10.185 11.820
v 43.094 10.196 11.820
v 43.048 -3.234 11.820
v 80.160 -3.356 11.820
v 80.142 -8.551 11.820
v 88.259 -8.573 11.820
v 88.268 -4.837 11.820
v 107.326 -4.903 11.820
v 107.336 -0.836 11.820
v 110.114 -0.847 11.820
v 110.142 5.819 11.820
v 108.341 5.819 11.820
v 108.350 10.030 11.820
v 103.935 10.042 11.820
v 103.972 20.322 11.820
v 117.729 20.278 11.820
v 117.783 35.521 11.820
v 103.990 35.565 11.820
v 104.008 40.296 11.820
v 108.286 40.274 11.820
v 108.304 43.834 11.820
v 110.599 43.834 11.820
v 110.626 49.294 11.820
v 108.624 49.305 11.820
v 108.643 53.417 11.820
v 104.356 53.428 11.820
v 104.392 64.228 11.820
v 118.067 64.184 11.820
v 118.122 79.903 11.820
v 104.091 79.958 11.820
v 104.100 84.059 11.820
v 108.752 84.048 11.820
v 108.807 98.706 11.820
v 45.946 98.927 11.820
usemtl roof
f 115 116 117 118 119 120 121 122 123 124 125 126 127 128 129 130 131 132 133 134 135 136 137 138 139 140 141 142 143 144 145 146 147 148 149 150 151 152 153 154 155 156
usemtl teaching_building
f 114 113 112 111 110 109 108 107 106 105 104 103 102 101 100 99 98 97 96 95 94 93 92 91 90 89 88 87 86 85 84 83 82 81 80 79 78 77 76 75 74 73
f 73 74 116 115
f 74 75 117 116
f 75 76 118 117
f 76 77 119 118
f 77 78 120 119
f 78 79 121 120
f 79 80 122 121
f 80 81 123 122
f 81 82 124 123
f 82 83 125 124
f 83 84 126 125
f 84 85 127 126
f 85 86 128 127
f 86 87 129 128
f 87 88 130 129
f 88 89 131 130
f 89 90 132 131
f 90 91 133 132
f 91 92 134 133
f 92 93 135 134
f 93 94 136 135
f 94 95 137 136
f 95 96 138 137
f 96 97 139 138
f 97 98 140 139
f 98 99 141 140
f 99 100 142 141
f 100 101 143 142
f 101 102 144 143
f 102 103 145 144
f 103 104 146 145
f 104 105 147 146
f 105 106 148 147
f 106 107 149 148
f 107 108 150 149
f 108 109 151 150
f 109 110 152 151
f 110 111 153 152
f 111 112 154 153
f 112 113 155 154
f 113 114 156 155
f 114 73 115 156
o SD0985_T003_3hao
v -96.284 89.022 0.000
v -96.266 75.758 0.000
v -98.908 75.746 0.000
v -98.862 44.309 0.000
v -96.092 44.309 0.000
v -96.074 31.077 0.000
v -98.323 31.077 0.000
v -98.286 0.778 0.000
v -96.001 0.778 0.000
v -95.983 -14.034 0.000
v -160.571 -14.123 0.000
v -160.590 0.966 0.000
v -149.858 0.977 0.000
v -149.867 9.710 0.000
v -163.277 9.688 0.000
v -163.295 26.656 0.000
v -149.767 26.678 0.000
v -149.767 30.502 0.000
v -160.864 30.491 0.000
v -160.882 44.773 0.000
v -149.566 44.795 0.000
v -149.584 54.280 0.000
v -163.176 54.269 0.000
v -163.195 70.474 0.000
v -149.959 70.485 0.000
v -149.959 74.608 0.000
v -160.864 74.597 0.000
v -160.882 88.945 0.000
v -96.284 89.022 9.190
v -96.266 75.758 9.190
v -98.908 75.746 9.190
v -98.862 44.309 9.190
v -96.092 44.309 9.190
v -96.074 31.077 9.190
v -98.323 31.077 9.190
v -98.286 0.778 9.190
v -96.001 0.778 9.190
v -95.983 -14.034 9.190
v -160.571 -14.123 9.190
v -160.590 0.966 9.190
v -149.858 0.977 9.190
v -149.867 9.710 9.190
v -163.277 9.688 9.190
v -163.295 26.656 9.190
v -149.767 26.678 9.190
v -149.767 30.502 9.190
v -160.864 30.491 9.190
v -160.882 44.773 9.190
v -149.566 44.795 9.190
v -149.584 54.280 9.190
v -163.176 54.269 9.190
v -163.195 70.474 9.190
v -149.959 70.485 9.190
v -149.959 74.608 9.190
v -160.864 74.597 9.190
v -160.882 88.945 9.190
usemtl roof
f 185 186 187 188 189 190 191 192 193 194 195 196 197 198 199 200 201 202 203 204 205 206 207 208 209 210 211 212
usemtl teaching_building
f 184 183 182 181 180 179 178 177 176 175 174 173 172 171 170 169 168 167 166 165 164 163 162 161 160 159 158 157
f 157 158 186 185
f 158 159 187 186
f 159 160 188 187
f 160 161 189 188
f 161 162 190 189
f 162 163 191 190
f 163 164 192 191
f 164 165 193 192
f 165 166 194 193
f 166 167 195 194
f 167 168 196 195
f 168 169 197 196
f 169 170 198 197
f 170 171 199 198
f 171 172 200 199
f 172 173 201 200
f 173 174 202 201
f 174 175 203 202
f 175 176 204 203
f 176 177 205 204
f 177 178 206 205
f 178 179 207 206
f 179 180 208 207
f 180 181 209 208
f 181 182 210 209
f 182 183 211 210
f 183 184 212 211
f 184 157 185 212
o SD0985_T004_4hao
v -55.928 -51.828 0.000
v -29.959 -45.306 0.000
v -7.171 -42.332 0.000
v 7.573 -43.040 0.000
v 7.299 -63.379 0.000
v -3.789 -62.086 0.000
v -26.568 -63.987 0.000
v -50.873 -70.023 0.000
v -65.123 -75.317 0.000
v -72.226 -57.145 0.000
v -55.928 -51.828 8.940
v -29.959 -45.306 8.940
v -7.171 -42.332 8.940
v 7.573 -43.040 8.940
v 7.299 -63.379 8.940
v -3.789 -62.086 8.940
v -26.568 -63.987 8.940
v -50.873 -70.023 8.940
v -65.123 -75.317 8.940
v -72.226 -57.145 8.940
usemtl roof
f 223 224 225 226 227 228 229 230 231 232
usemtl teaching_building
f 222 221 220 219 218 217 216 215 214 213
f 213 214 224 223
f 214 215 225 224
f 215 216 226 225
f 216 217 227 226
f 217 218 228 227
f 218 219 229 228
f 219 220 230 229
f 220 221 231 230
f 221 222 232 231
f 222 213 223 232
o SD0985_T005_5hao
v 32.125 -42.332 0.000
v 42.363 -41.658 0.000
v 55.553 -42.233 0.000
v 69.008 -44.632 0.000
v 97.774 -52.690 0.000
v 115.736 -59.787 0.000
v 108.917 -76.754 0.000
v 100.160 -72.974 0.000
v 70.041 -64.672 0.000
v 54.136 -62.517 0.000
v 32.893 -61.511 0.000
v 32.125 -42.332 10.550
v 42.363 -41.658 10.550
v 55.553 -42.233 10.550
v 69.008 -44.632 10.550
v 97.774 -52.690 10.550
v 115.736 -59.787 10.550
v 108.917 -76.754 10.550
v 100.160 -72.974 10.550
v 70.041 -64.672 10.550
v 54.136 -62.517 10.550
v 32.893 -61.511 10.550
usemtl roof
f 244 245 246 247 248 249 250 251 252 253 254
usemtl teaching_building
f 243 242 241 240 239 238 237 236 235 234 233
f 233 234 245 244
f 234 235 246 245
f 235 236 247 246
f 236 237 248 247
f 237 238 249 248
f 238 239 250 249
f 239 240 251 250
f 240 241 252 251
f 241 242 253 252
f 242 243 254 253
f 243 233 244 254
o SD0985_T006_6hao
v -12.034 -101.328 0.000
v -12.235 -98.962 0.000
v -7.665 -98.851 0.000
v -7.591 -100.686 0.000
v 27.939 -98.896 0.000
v 43.844 -100.554 0.000
v 43.899 -99.017 0.000
v 48.332 -99.017 0.000
v 48.542 -101.737 0.000
v 67.518 -105.594 0.000
v 68.067 -115.499 0.000
v -30.928 -115.631 0.000
v -30.654 -105.185 0.000
v -12.034 -101.328 8.840
v -12.235 -98.962 8.840
v -7.665 -98.851 8.840
v -7.591 -100.686 8.840
v 27.939 -98.896 8.840
v 43.844 -100.554 8.840
v 43.899 -99.017 8.840
v 48.332 -99.017 8.840
v 48.542 -101.737 8.840
v 67.518 -105.594 8.840
v 68.067 -115.499 8.840
v -30.928 -115.631 8.840
v -30.654 -105.185 8.840
usemtl roof
f 268 269 270 271 272 273 274 275 276 277 278 279 280
usemtl teaching_building
f 267 266 265 264 263 262 261 260 259 258 257 256 255
f 255 256 269 268
f 256 257 270 269
f 257 258 271 270
f 258 259 272 271
f 259 260 273 272
f 260 261 274 273
f 261 262 275 274
f 262 263 276 275
f 263 264 277 276
f 264 265 278 277
f 265 266 279 278
f 266 267 280 279
f 267 255 268 280
