# school_id SD0909
# school_name 赛博中学附属小学
# boundary_source footprint_convex_hull_buffer_20m
# adjacent_block_merge_distance_m 2.0
mtllib ../campus_materials.mtl
o SD0909_campus_boundary
usemtl campus_boundary
v 31.315 -42.011 0.050
v -20.886 -28.509 0.050
v -46.905 -21.685 0.050
v -60.337 4.593 0.050
v -51.658 35.825 0.050
v -27.798 48.892 0.050
v 47.179 29.330 0.050
v 62.617 7.949 0.050
v 56.259 -24.837 0.050
v 31.315 -42.011 0.050
l 1 2 3 4 5 6 7 8 9 10 1
o SD0909_T001_1hao
v -38.979 6.752 0.000
v -33.171 -4.611 0.000
v -15.845 -9.155 0.000
v -7.499 -2.821 0.000
v 4.110 -6.236 0.000
v 9.012 -15.488 0.000
v 27.489 -20.363 0.000
v 38.182 -13.001 0.000
v 41.335 3.259 0.000
v 35.173 11.793 0.000
v -25.160 27.534 0.000
v -34.648 22.338 0.000
v -38.979 6.752 7.830
v -33.171 -4.611 7.830
v -15.845 -9.155 7.830
v -7.499 -2.821 7.830
v 4.110 -6.236 7.830
v 9.012 -15.488 7.830
v 27.489 -20.363 7.830
v 38.182 -13.001 7.830
v 41.335 3.259 7.830
v 35.173 11.793 7.830
v -25.160 27.534 7.830
v -34.648 22.338 7.830
usemtl roof
f 23 24 25 26 27 28 29 30 31 32 33 34
usemtl teaching_building
f 22 21 20 19 18 17 16 15 14 13 12 11
f 11 12 24 23
f 12 13 25 24
f 13 14 26 25
f 14 15 27 26
f 15 16 28 27
f 16 17 29 28
f 17 18 30 29
f 18 19 31 30
f 19 20 32 31
f 20 21 33 32
f 21 22 34 33
f 22 11 23 34
