# school_id SD0907
# school_name 综合楼
# boundary_source footprint_convex_hull_buffer_20m
# adjacent_block_merge_distance_m 2.0
mtllib ../campus_materials.mtl
o SD0907_campus_boundary
usemtl campus_boundary
v 4.658 -43.345 0.050
v -72.511 28.045 0.050
v 5.883 28.301 0.050
v 42.412 -2.190 0.050
v 4.658 -43.345 0.050
l 1 2 3 4 5 1
o SD0907_T001_1hao
v -1.339 8.277 0.000
v 13.506 -4.114 0.000
v 3.497 -15.025 0.000
v -21.620 8.211 0.000
v -1.339 8.277 26.950
v 13.506 -4.114 26.950
v 3.497 -15.025 26.950
v -21.620 8.211 26.950
usemtl roof
f 10 11 12 13
usemtl teaching_building
f 9 8 7 6
f 6 7 11 10
f 7 8 12 11
f 8 9 13 12
f 9 6 10 13
