# school_id SD0923
# school_name 临清市民族实验中学
# boundary_source footprint_convex_hull_buffer_20m
# adjacent_block_merge_distance_m 2.0
mtllib ../campus_materials.mtl
o SD0923_campus_boundary
usemtl campus_boundary
v 28.556 -86.265 0.050
v -0.563 -79.950 0.050
v -64.816 -51.636 0.050
v -57.715 27.338 0.050
v -49.738 66.099 0.050
v -21.898 60.435 0.050
v 67.619 41.394 0.050
v 59.945 4.088 0.050
v 28.556 -86.265 0.050
l 1 2 3 4 5 6 7 8 9 1
o SD0923_T001_1hao
v -29.683 22.750 0.000
v -27.839 31.737 0.000
v -19.013 29.939 0.000
v -19.341 28.337 0.000
v -15.018 27.466 0.000
v -14.689 29.069 0.000
v -3.712 26.845 0.000
v -4.011 25.390 0.000
v -1.562 24.890 0.000
v -1.816 23.658 0.000
v 6.458 21.981 0.000
v 6.712 23.213 0.000
v 8.399 22.870 0.000
v 8.698 24.325 0.000
v 20.153 22.008 0.000
v 19.832 20.415 0.000
v 25.148 19.340 0.000
v 25.477 20.924 0.000
v 33.758 19.256 0.000
v 32.093 11.131 0.000
v 40.620 9.407 0.000
v 44.026 25.965 0.000
v 35.490 27.688 0.000
v 35.334 26.928 0.000
v -26.263 39.409 0.000
v -25.972 40.854 0.000
v -34.171 42.522 0.000
v -37.897 24.417 0.000
v -29.683 22.750 9.900
v -27.839 31.737 9.900
v -19.013 29.939 9.900
v -19.341 28.337 9.900
v -15.018 27.466 9.900
v -14.689 29.069 9.900
v -3.712 26.845 9.900
v -4.011 25.390 9.900
v -1.562 24.890 9.900
v -1.816 23.658 9.900
v 6.458 21.981 9.900
v 6.712 23.213 9.900
v 8.399 22.870 9.900
v 8.698 24.325 9.900
v 20.153 22.008 9.900
v 19.832 20.415 9.900
v 25.148 19.340 9.900
v 25.477 20.924 9.900
v 33.758 19.256 9.900
v 32.093 11.131 9.900
v 40.620 9.407 9.900
v 44.026 25.965 9.900
v 35.490 27.688 9.900
v 35.334 26.928 9.900
v -26.263 39.409 9.900
v -25.972 40.854 9.900
v -34.171 42.522 9.900
v -37.897 24.417 9.900
usemtl roof
f 38 39 40 41 42 43 44 45 46 47 48 49 50 51 52 53 54 55 56 57 58 59 60 61 62 63 64 65
usemtl teaching_building
f 37 36 35 34 33 32 31 30 29 28 27 26 25 24 23 22 21 20 19 18 17 16 15 14 13 12 11 10
f 10 11 39 38
f 11 12 40 39
f 12 13 41 40
f 13 14 42 41
f 14 15 43 42
f 15 16 44 43
f 16 17 45 44
f 17 18 46 45
f 18 19 47 46
f 19 20 48 47
f 20 21 49 48
f 21 22 50 49
f 22 23 51 50
f 23 24 52 51
f 24 25 53 52
f 25 26 54 53
f 26 27 55 54
f 27 28 56 55
f 28 29 57 56
f 29 30 58 57
f 30 31 59 58
f 31 32 60 59
f 32 33 61 60
f 33 34 62 61
f 34 35 63 62
f 35 36 64 63
f 36 37 65 64
f 37 10 38 65
o SD0923_T002_2hao
v 8.467 -48.029 0.000
v 0.268 -46.250 0.000
v -0.233 -48.547 0.000
v -17.131 -44.878 0.000
v -17.377 -45.999 0.000
v -26.256 -44.072 0.000
v -26.002 -42.951 0.000
v -43.610 -39.125 0.000
v -40.533 -25.208 0.000
v 1.664 -34.381 0.000
v 3.008 -28.303 0.000
v 12.365 -30.341 0.000
v 8.467 -48.029 9.900
v 0.268 -46.250 9.900
v -0.233 -48.547 9.900
v -17.131 -44.878 9.900
v -17.377 -45.999 9.900
v -26.256 -44.072 9.900
v -26.002 -42.951 9.900
v -43.610 -39.125 9.900
v -40.533 -25.208 9.900
v 1.664 -34.381 9.900
v 3.008 -28.303 9.900
v 12.365 -30.341 9.900
usemtl roof
f 78 79 80 81 82 83 84 85 86 87 88 89
usemtl teaching_building
f 77 76 75 74 73 72 71 70 69 68 67 66
f 66 67 79 78
f 67 68 80 79
f 68 69 81 80
f 69 70 82 81
f 70 71 83 82
f 71 72 84 83
f 72 73 85 84
f 73 74 86 85
f 74 75 87 86
f 75 76 88 87
f 76 77 89 88
f 77 66 78 89
o SD0923_T002_2hao_seg02
v 22.199 -32.481 0.000
v 15.478 -62.964 0.000
v 5.652 -60.833 0.000
v 12.365 -30.341 0.000
v 22.199 -32.481 9.900
v 15.478 -62.964 9.900
v 5.652 -60.833 9.900
v 12.365 -30.341 9.900
usemtl roof
f 94 95 96 97
usemtl teaching_building
f 93 92 91 90
f 90 91 95 94
f 91 92 96 95
f 92 93 97 96
f 93 90 94 97
