# school_id SD0949
# school_name 邹平市第一实验小学
# boundary_source footprint_convex_hull_buffer_20m
# adjacent_block_merge_distance_m 2.0
mtllib ../campus_materials.mtl
o SD0949_campus_boundary
usemtl campus_boundary
v 23.066 -88.087 0.050
v -73.839 -79.776 0.050
v -123.225 114.045 0.050
v -121.174 150.602 0.050
v 2.226 138.658 0.050
v 117.234 -3.176 0.050
v 113.936 -55.293 0.050
v 23.066 -88.087 0.050
l 1 2 3 4 5 6 7 8 1
o SD0949_T001_1hao
v -103.084 115.999 0.000
v -9.228 107.941 0.000
v -8.035 119.558 0.000
v -102.372 128.689 0.000
v -103.084 115.999 16.000
v -9.228 107.941 16.000
v -8.035 119.558 16.000
v -102.372 128.689 16.000
usemtl roof
f 13 14 15 16
usemtl teaching_building
f 12 11 10 9
f 9 10 14 13
f 10 11 15 14
f 11 12 16 15
f 12 9 13 16
o SD0949_T002_2hao
v -6.824 52.914 0.000
v 23.306 50.128 0.000
v 24.393 67.560 0.000
v -5.382 70.258 0.000
v -6.824 52.914 10.330
v 23.306 50.128 10.330
v 24.393 67.560 10.330
v -5.382 70.258 10.330
usemtl roof
f 21 22 23 24
usemtl teaching_building
f 20 19 18 17
f 17 18 22 21
f 18 19 23 22
f 19 20 24 23
f 20 17 21 24
o SD0949_T003_3hao
v -42.698 38.942 0.000
v -21.916 37.195 0.000
v -19.583 64.509 0.000
v -40.356 66.256 0.000
v -42.698 38.942 11.860
v -21.916 37.195 11.860
v -19.583 64.509 11.860
v -40.356 66.256 11.860
usemtl roof
f 29 30 31 32
usemtl teaching_building
f 28 27 26 25
f 25 26 30 29
f 26 27 31 30
f 27 28 32 31
f 28 25 29 32
o SD0949_T004_4hao
v -9.406 24.892 0.000
v 22.656 22.427 0.000
v 24.179 41.827 0.000
v -7.893 44.292 0.000
v -9.406 24.892 10.710
v 22.656 22.427 10.710
v 24.179 41.827 10.710
v -7.893 44.292 10.710
usemtl roof
f 37 38 39 40
usemtl teaching_building
f 36 35 34 33
f 33 34 38 37
f 34 35 39 38
f 35 36 40 39
f 36 33 37 40
o SD0949_T005_5hao
v 31.810 -7.905 0.000
v 29.726 -34.015 0.000
v 85.028 -38.050 0.000
v 84.930 -40.106 0.000
v 94.805 -40.935 0.000
v 96.781 -9.707 0.000
v 87.477 -9.143 0.000
v 86.675 -20.606 0.000
v 40.998 -16.450 0.000
v 41.684 -8.071 0.000
v 31.810 -7.905 18.930
v 29.726 -34.015 18.930
v 85.028 -38.050 18.930
v 84.930 -40.106 18.930
v 94.805 -40.935 18.930
v 96.781 -9.707 18.930
v 87.477 -9.143 18.930
v 86.675 -20.606 18.930
v 40.998 -16.450 18.930
v 41.684 -8.071 18.930
usemtl roof
f 51 52 53 54 55 56 57 58 59 60
usemtl teaching_building
f 50 49 48 47 46 45 44 43 42 41
f 41 42 52 51
f 42 43 53 52
f 43 44 54 53
f 44 45 55 54
f 45 46 56 55
f 46 47 57 56
f 47 48 58 57
f 48 49 59 58
f 49 50 60 59
f 50 41 51 60
o SD0949_T006_6hao
v -48.263 -15.422 0.000
v -51.548 -9.132 0.000
v -44.799 -6.115 0.000
v -42.057 -11.387 0.000
v -21.934 -13.289 0.000
v -21.400 -3.915 0.000
v -13.458 -4.335 0.000
v -14.232 -13.941 0.000
v 4.813 -15.897 0.000
v 9.470 -10.260 0.000
v 15.257 -15.179 0.000
v 24.277 -16.019 0.000
v 22.639 -45.445 0.000
v 21.232 -47.224 0.000
v 20.404 -67.785 0.000
v -57.968 -61.064 0.000
v -56.383 -39.763 0.000
v 13.005 -46.307 0.000
v 14.501 -27.349 0.000
v 10.556 -25.415 0.000
v 5.445 -27.626 0.000
v 1.528 -24.497 0.000
v -3.049 -27.228 0.000
v -7.314 -23.359 0.000
v -11.935 -26.144 0.000
v -15.523 -22.994 0.000
v -22.593 -22.684 0.000
v -26.751 -25.161 0.000
v -30.491 -21.966 0.000
v -35.432 -24.387 0.000
v -39.074 -21.347 0.000
v -44.479 -23.613 0.000
v -48.530 -20.772 0.000
v -48.263 -15.422 11.970
v -51.548 -9.132 11.970
v -44.799 -6.115 11.970
v -42.057 -11.387 11.970
v -21.934 -13.289 11.970
v -21.400 -3.915 11.970
v -13.458 -4.335 11.970
v -14.232 -13.941 11.970
v 4.813 -15.897 11.970
v 9.470 -10.260 11.970
v 15.257 -15.179 11.970
v 24.277 -16.019 11.970
v 22.639 -45.445 11.970
v 21.232 -47.224 11.970
v 20.404 -67.785 11.970
v -57.968 -61.064 11.970
v -56.383 -39.763 11.970
v 13.005 -46.307 11.970
v 14.501 -27.349 11.970
v 10.556 -25.415 11.970
v 5.445 -27.626 11.970
v 1.528 -24.497 11.970
v -3.049 -27.228 11.970
v -7.314 -23.359 11.970
v -11.935 -26.144 11.970
v -15.523 -22.994 11.970
v -22.593 -22.684 11.970
v -26.751 -25.161 11.970
v -30.491 -21.966 11.970
v -35.432 -24.387 11.970
v -39.074 -21.347 11.970
v -44.479 -23.613 11.970
v -48.530 -20.772 11.970
usemtl roof
f 94 95 96 97 98 99 100 101 102 103 104 105 106 107 108 109 110 111 112 113 114 115 116 117 118 119 120 121 122 123 124 125 126
usemtl teaching_building
f 93 92 91 90 89 88 87 86 85 84 83 82 81 80 79 78 77 76 75 74 73 72 71 70 69 68 67 66 65 64 63 62 61
f 61 62 95 94
f 62 63 96 95
f 63 64 97 96
f 64 65 98 97
f 65 66 99 98
f 66 67 100 99
f 67 68 101 100
f 68 69 102 101
f 69 70 103 102
f 70 71 104 103
f 71 72 105 104
f 72 73 106 105
f 73 74 107 106
f 74 75 108 107
f 75 76 109 108
f 76 77 110 109
f 77 78 111 110
f 78 79 112 111
f 79 80 113 112
f 80 81 114 113
f 81 82 115 114
f 82 83 116 115
f 83 84 117 116
f 84 85 118 117
f 85 86 119 118
f 86 87 120 119
f 87 88 121 120
f 88 89 122 121
f 89 90 123 122
f 90 91 124 123
f 91 92 125 124
f 92 93 126 125
f 93 61 94 126
