# school_id SD0995
# school_name 牡丹区北苑小学
# boundary_source footprint_convex_hull_buffer_20m
# adjacent_block_merge_distance_m 2.0
mtllib ../campus_materials.mtl
o SD0995_campus_boundary
usemtl campus_boundary
v 22.428 -59.800 0.050
v -63.743 -56.598 0.050
v -59.310 61.063 0.050
v 26.278 57.877 0.050
v 29.464 7.087 0.050
v 28.838 -9.418 0.050
v 22.428 -59.800 0.050
l 1 2 3 4 5 6 7 1
o SD0995_T001_1hao
v 7.450 38.564 0.000
v 6.941 24.990 0.000
v 5.214 25.056 0.000
v 4.668 10.586 0.000
v 6.377 10.520 0.000
v 6.241 6.961 0.000
v 9.440 6.839 0.000
v 8.886 -7.774 0.000
v 5.632 -7.653 0.000
v 5.514 -10.825 0.000
v 3.469 -10.748 0.000
v 2.932 -25.129 0.000
v 5.423 -25.229 0.000
v 4.896 -39.135 0.000
v -43.004 -37.355 0.000
v -40.077 40.333 0.000
v 7.450 38.564 12.640
v 6.941 24.990 12.640
v 5.214 25.056 12.640
v 4.668 10.586 12.640
v 6.377 10.520 12.640
v 6.241 6.961 12.640
v 9.440 6.839 12.640
v 8.886 -7.774 12.640
v 5.632 -7.653 12.640
v 5.514 -10.825 12.640
v 3.469 -10.748 12.640
v 2.932 -25.129 12.640
v 5.423 -25.229 12.640
v 4.896 -39.135 12.640
v -43.004 -37.355 12.640
v -40.077 40.333 12.640
usemtl roof
f 24 25 26 27 28 29 30 31 32 33 34 35 36 37 38 39
usemtl teaching_building
f 23 22 21 20 19 18 17 16 15 14 13 12 11 10 9 8
f 8 9 25 24
f 9 10 26 25
f 10 11 27 26
f 11 12 28 27
f 12 13 29 28
f 13 14 30 29
f 14 15 31 30
f 15 16 32 31
f 16 17 33 32
f 17 18 34 33
f 18 19 35 34
f 19 20 36 35
f 20 21 37 36
f 21 22 38 37
f 22 23 39 38
f 23 8 24 39
