# school_id SD0967
# school_name 单县第五中学
# boundary_source footprint_convex_hull_buffer_20m
# adjacent_block_merge_distance_m 2.0
mtllib ../campus_materials.mtl
o SD0967_campus_boundary
usemtl campus_boundary
v -132.761 -90.582 0.050
v -165.761 -84.828 0.050
v -162.263 -17.450 0.050
v -157.278 13.948 0.050
v -138.103 75.343 0.050
v 3.233 98.154 0.050
v 73.033 85.614 0.050
v 167.790 68.100 0.050
v 158.956 0.062 0.050
v 155.608 -18.347 0.050
v 142.806 -82.896 0.050
v -132.761 -90.582 0.050
l 1 2 3 4 5 6 7 8 9 10 11 12 1
o SD0967_T001_1hao
v 69.447 65.938 0.000
v 66.210 48.175 0.000
v -0.184 60.113 0.000
v 3.053 77.866 0.000
v 69.447 65.938 8.450
v 66.210 48.175 8.450
v -0.184 60.113 8.450
v 3.053 77.866 8.450
usemtl roof
f 17 18 19 20
usemtl teaching_building
f 16 15 14 13
f 13 14 18 17
f 14 15 19 18
f 15 16 20 19
f 16 13 17 20
o SD0967_T002_2hao
v 145.516 51.878 0.000
v 142.279 34.114 0.000
v 75.876 46.041 0.000
v 79.113 63.805 0.000
v 145.516 51.878 7.510
v 142.279 34.114 7.510
v 75.876 46.041 7.510
v 79.113 63.805 7.510
usemtl roof
f 25 26 27 28
usemtl teaching_building
f 24 23 22 21
f 21 22 26 25
f 22 23 27 26
f 23 24 28 27
f 24 21 25 28
o SD0967_T003_3hao
v 60.741 17.909 0.000
v 57.503 0.145 0.000
v -8.890 12.083 0.000
v -5.653 29.836 0.000
v 60.741 17.909 8.000
v 57.503 0.145 8.000
v -8.890 12.083 8.000
v -5.653 29.836 8.000
usemtl roof
f 33 34 35 36
usemtl teaching_building
f 32 31 30 29
f 29 30 34 33
f 30 31 35 34
f 31 32 36 35
f 32 29 33 36
o SD0967_T004_4hao
v 139.188 3.141 0.000
v 135.959 -14.612 0.000
v 69.557 -2.685 0.000
v 72.794 15.068 0.000
v 139.188 3.141 8.620
v 135.959 -14.612 8.620
v 69.557 -2.685 8.620
v 72.794 15.068 8.620
usemtl roof
f 41 42 43 44
usemtl teaching_building
f 40 39 38 37
f 37 38 42 41
f 38 39 43 42
f 39 40 44 43
f 40 37 41 44
o SD0967_T005_5hao
v 52.940 -31.923 0.000
v 49.703 -49.687 0.000
v -16.700 -37.759 0.000
v -13.463 -19.995 0.000
v 52.940 -31.923 8.090
v 49.703 -49.687 8.090
v -16.700 -37.759 8.090
v -13.463 -19.995 8.090
usemtl roof
f 49 50 51 52
usemtl teaching_building
f 48 47 46 45
f 45 46 50 49
f 46 47 51 50
f 47 48 52 51
f 48 45 49 52
o SD0967_T006_6hao
v 129.521 -45.585 0.000
v 126.293 -63.349 0.000
v 59.890 -51.422 0.000
v 63.128 -33.658 0.000
v 129.521 -45.585 7.900
v 126.293 -63.349 7.900
v 59.890 -51.422 7.900
v 63.128 -33.658 7.900
usemtl roof
f 57 58 59 60
usemtl teaching_building
f 56 55 54 53
f 53 54 58 57
f 54 55 59 58
f 55 56 60 59
f 56 53 57 60
