# school_id SD0996
# school_name 牡丹区牡丹小学
# boundary_source footprint_convex_hull_buffer_20m
# adjacent_block_merge_distance_m 2.0
mtllib ../campus_materials.mtl
o SD0996_campus_boundary
usemtl campus_boundary
v 18.952 -71.466 0.050
v -10.126 -69.018 0.050
v -24.392 -64.727 0.050
v -51.518 -50.655 0.050
v -54.931 -28.168 0.050
v -27.973 61.616 0.050
v -19.738 87.987 0.050
v 41.258 69.186 0.050
v 61.569 52.246 0.050
v 37.733 -38.513 0.050
v 33.010 -53.973 0.050
v 18.952 -71.466 0.050
l 1 2 3 4 5 6 7 8 9 10 11 12 1
o SD0996_T001_1hao
v -5.422 54.703 0.000
v -7.631 47.634 0.000
v 35.652 34.310 0.000
v 38.996 45.030 0.000
v 30.411 47.680 0.000
v 31.531 51.256 0.000
v -6.587 63.005 0.000
v -8.850 55.759 0.000
v -5.422 54.703 9.900
v -7.631 47.634 9.900
v 35.652 34.310 9.900
v 38.996 45.030 9.900
v 30.411 47.680 9.900
v 31.531 51.256 9.900
v -6.587 63.005 9.900
v -8.850 55.759 9.900
usemtl roof
f 21 22 23 24 25 26 27 28
usemtl teaching_building
f 20 19 18 17 16 15 14 13
f 13 14 22 21
f 14 15 23 22
f 15 16 24 23
f 16 17 25 24
f 17 18 26 25
f 18 19 27 26
f 19 20 28 27
f 20 13 21 28
o SD0996_T002_2hao
v -17.618 13.843 0.000
v -19.827 6.783 0.000
v 23.441 -6.550 0.000
v 26.800 4.170 0.000
v 18.208 6.829 0.000
v 19.328 10.396 0.000
v -18.791 22.145 0.000
v -21.053 14.908 0.000
v -17.618 13.843 9.900
v -19.827 6.783 9.900
v 23.441 -6.550 9.900
v 26.800 4.170 9.900
v 18.208 6.829 9.900
v 19.328 10.396 9.900
v -18.791 22.145 9.900
v -21.053 14.908 9.900
usemtl roof
f 37 38 39 40 41 42 43 44
usemtl teaching_building
f 36 35 34 33 32 31 30 29
f 29 30 38 37
f 30 31 39 38
f 31 32 40 39
f 32 33 41 40
f 33 34 42 41
f 34 35 43 42
f 35 36 44 43
f 36 29 37 44
o SD0996_T003_3hao
v -31.139 -30.612 0.000
v -33.272 -37.589 0.000
v -15.843 -42.843 0.000
v -16.841 -46.113 0.000
v -6.366 -49.264 0.000
v -5.368 -46.002 0.000
v 10.027 -50.644 0.000
v 12.182 -43.584 0.000
v 15.008 -44.446 0.000
v 18.490 -33.049 0.000
v -30.986 -18.141 0.000
v -34.483 -29.612 0.000
v -31.139 -30.612 9.900
v -33.272 -37.589 9.900
v -15.843 -42.843 9.900
v -16.841 -46.113 9.900
v -6.366 -49.264 9.900
v -5.368 -46.002 9.900
v 10.027 -50.644 9.900
v 12.182 -43.584 9.900
v 15.008 -44.446 9.900
v 18.490 -33.049 9.900
v -30.986 -18.141 9.900
v -34.483 -29.612 9.900
usemtl roof
f 57 58 59 60 61 62 63 64 65 66 67 68
usemtl teaching_building
f 56 55 54 53 52 51 50 49 48 47 46 45
f 45 46 58 57
f 46 47 59 58
f 47 48 60 59
f 48 49 61 60
f 49 50 62 61
f 50 51 63 62
f 51 52 64 63
f 52 53 65 64
f 53 54 66 65
f 54 55 67 66
f 55 56 68 67
f 56 45 57 68
