# school_id SD0920
# school_name 临清市实验小学
# boundary_source footprint_convex_hull_buffer_20m
# adjacent_block_merge_distance_m 2.0
mtllib ../campus_materials.mtl
o SD0920_campus_boundary
usemtl campus_boundary
v 64.014 -71.598 0.050
v 33.503 -70.827 0.050
v -55.044 -59.739 0.050
v -74.740 36.535 0.050
v -73.728 75.506 0.050
v -44.014 74.729 0.050
v -15.459 67.409 0.050
v 11.322 60.371 0.050
v 60.105 47.375 0.050
v 64.829 -40.173 0.050
v 64.014 -71.598 0.050
l 1 2 3 4 5 6 7 8 9 10 11 1
o SD0920_T001_1hao
v -20.761 37.441 0.000
v -20.484 48.050 0.000
v -46.794 54.795 0.000
v -50.841 54.897 0.000
v -51.275 38.219 0.000
v -20.761 37.441 9.900
v -20.484 48.050 9.900
v -46.794 54.795 9.900
v -50.841 54.897 9.900
v -51.275 38.219 9.900
usemtl roof
f 17 18 19 20 21
usemtl teaching_building
f 16 15 14 13 12
f 12 13 18 17
f 13 14 19 18
f 14 15 20 19
f 15 16 21 20
f 16 12 17 21
o SD0920_T002_2hao
v -19.297 11.943 0.000
v -18.886 27.926 0.000
v 3.465 27.360 0.000
v 3.062 11.378 0.000
v -19.297 11.943 9.900
v -18.886 27.926 9.900
v 3.465 27.360 9.900
v 3.062 11.378 9.900
usemtl roof
f 26 27 28 29
usemtl teaching_building
f 25 24 23 22
f 22 23 27 26
f 23 24 28 27
f 24 25 29 28
f 25 22 26 29
o SD0920_T002_2hao_seg02
v 3.301 20.754 0.000
v 40.737 19.800 0.000
v 40.498 10.442 0.000
v 3.062 11.378 0.000
v 3.301 20.754 9.900
v 40.737 19.800 9.900
v 40.498 10.442 9.900
v 3.062 11.378 9.900
usemtl roof
f 34 35 36 37
usemtl teaching_building
f 33 32 31 30
f 30 31 35 34
f 31 32 36 35
f 32 33 37 36
f 33 30 34 37
o SD0920_T003_3hao
v 38.818 -33.819 0.000
v 39.214 -18.485 0.000
v -20.559 -16.974 0.000
v -20.955 -32.318 0.000
v 38.818 -33.819 9.900
v 39.214 -18.485 9.900
v -20.559 -16.974 9.900
v -20.955 -32.318 9.900
usemtl roof
f 42 43 44 45
usemtl teaching_building
f 41 40 39 38
f 38 39 43 42
f 39 40 44 43
f 40 41 45 44
f 41 38 42 45
o SD0920_T004_4hao
v 31.178 -43.909 0.000
v 31.276 -40.110 0.000
v -27.982 -38.618 0.000
v -28.079 -42.408 0.000
v 31.178 -43.909 9.900
v 31.276 -40.110 9.900
v -27.982 -38.618 9.900
v -28.079 -42.408 9.900
usemtl roof
f 50 51 52 53
usemtl teaching_building
f 49 48 47 46
f 46 47 51 50
f 47 48 52 51
f 48 49 53 52
f 49 46 50 53
