# school_id SD0998
# school_name 菏泽一中附属初中
# boundary_source footprint_convex_hull_buffer_20m
# adjacent_block_merge_distance_m 2.0
mtllib ../campus_materials.mtl
o SD0998_campus_boundary
usemtl campus_boundary
v 38.661 -104.641 0.050
v -73.066 -90.978 0.050
v -66.627 -31.705 0.050
v -64.898 -18.999 0.050
v -59.493 17.763 0.050
v -51.386 66.497 0.050
v 21.887 105.999 0.050
v 69.915 101.039 0.050
v 62.264 27.936 0.050
v 38.661 -104.641 0.050
l 1 2 3 4 5 6 7 8 9 10 1
o SD0998_T001_1hao
v 42.448 30.733 0.000
v 47.939 83.202 0.000
v 25.958 85.472 0.000
v 20.459 32.993 0.000
v 42.448 30.733 9.900
v 47.939 83.202 9.900
v 25.958 85.472 9.900
v 20.459 32.993 9.900
usemtl roof
f 15 16 17 18
usemtl teaching_building
f 14 13 12 11
f 11 12 16 15
f 12 13 17 16
f 13 14 18 17
f 14 11 15 18
o SD0998_T002_2hao
v 15.585 30.816 0.000
v 17.500 47.976 0.000
v -33.266 53.544 0.000
v -35.180 36.385 0.000
v 15.585 30.816 9.900
v 17.500 47.976 9.900
v -33.266 53.544 9.900
v -35.180 36.385 9.900
usemtl roof
f 23 24 25 26
usemtl teaching_building
f 22 21 20 19
f 19 20 24 23
f 20 21 25 24
f 21 22 26 25
f 22 19 23 26
o SD0998_T003_3hao
v 33.768 -6.866 0.000
v 35.324 4.855 0.000
v -39.733 14.667 0.000
v -41.289 2.946 0.000
v 33.768 -6.866 9.900
v 35.324 4.855 9.900
v -39.733 14.667 9.900
v -41.289 2.946 9.900
usemtl roof
f 31 32 33 34
usemtl teaching_building
f 30 29 28 27
f 27 28 32 31
f 28 29 33 32
f 29 30 34 33
f 30 27 31 34
o SD0998_T004_4hao
v 27.422 -44.076 0.000
v 29.100 -31.734 0.000
v -45.095 -21.802 0.000
v -46.773 -34.134 0.000
v 27.422 -44.076 9.900
v 29.100 -31.734 9.900
v -45.095 -21.802 9.900
v -46.773 -34.134 9.900
usemtl roof
f 39 40 41 42
usemtl teaching_building
f 38 37 36 35
f 35 36 40 39
f 36 37 41 40
f 37 38 42 41
f 38 35 39 42
o SD0998_T005_5hao
v 22.290 -82.490 0.000
v 23.967 -68.963 0.000
v -49.374 -60.003 0.000
v -51.052 -73.521 0.000
v 22.290 -82.490 9.900
v 23.967 -68.963 9.900
v -49.374 -60.003 9.900
v -51.052 -73.521 9.900
usemtl roof
f 47 48 49 50
usemtl teaching_building
f 46 45 44 43
f 43 44 48 47
f 44 45 49 48
f 45 46 50 49
f 46 43 47 50
