# school_id SD0946
# school_name 博兴第二中学
# boundary_source footprint_convex_hull_buffer_20m
# adjacent_block_merge_distance_m 2.0
mtllib ../campus_materials.mtl
o SD0946_campus_boundary
usemtl campus_boundary
v -57.155 -48.795 0.050
v -62.708 -6.275 0.050
v -29.629 21.702 0.050
v -15.323 28.386 0.050
v 37.276 44.049 0.050
v 56.272 40.861 0.050
v 67.972 16.951 0.050
v 58.274 -0.685 0.050
v -15.441 -42.947 0.050
v -57.155 -48.795 0.050
l 1 2 3 4 5 6 7 8 9 10 1
o SD0946_T001_1hao
v -41.464 -14.502 0.000
v -27.044 -12.513 0.000
v -30.390 -5.239 0.000
v -16.858 0.653 0.000
v -18.748 4.710 0.000
v -8.197 9.640 0.000
v -4.896 2.819 0.000
v 38.540 23.557 0.000
v 39.684 21.291 0.000
v 42.825 22.838 0.000
v 45.443 17.488 0.000
v 42.400 15.952 0.000
v 43.455 13.873 0.000
v -10.735 -12.734 0.000
v -9.289 -15.829 0.000
v -22.750 -22.141 0.000
v -22.040 -23.677 0.000
v -39.938 -26.186 0.000
v -41.464 -14.502 16.930
v -27.044 -12.513 16.930
v -30.390 -5.239 16.930
v -16.858 0.653 16.930
v -18.748 4.710 16.930
v -8.197 9.640 16.930
v -4.896 2.819 16.930
v 38.540 23.557 16.930
v 39.684 21.291 16.930
v 42.825 22.838 16.930
v 45.443 17.488 16.930
v 42.400 15.952 16.930
v 43.455 13.873 16.930
v -10.735 -12.734 16.930
v -9.289 -15.829 16.930
v -22.750 -22.141 16.930
v -22.040 -23.677 16.930
v -39.938 -26.186 16.930
usemtl roof
f 29 30 31 32 33 34 35 36 37 38 39 40 41 42 43 44 45 46
usemtl teaching_building
f 28 27 26 25 24 23 22 21 20 19 18 17 16 15 14 13 12 11
f 11 12 30 29
f 12 13 31 30
f 13 14 32 31
f 14 15 33 32
f 15 16 34 33
f 16 17 35 34
f 17 18 36 35
f 18 19 37 36
f 19 20 38 37
f 20 21 39 38
f 21 22 40 39
f 22 23 41 40
f 23 24 42 41
f 24 25 43 42
f 25 26 44 43
f 26 27 45 44
f 27 28 46 45
f 28 11 29 46
