# school_id SD0933
# school_name 旅游度假区实验小学
# boundary_source footprint_convex_hull_buffer_20m
# adjacent_block_merge_distance_m 2.0
mtllib ../campus_materials.mtl
o SD0933_campus_boundary
usemtl campus_boundary
v 58.201 -117.815 0.050
v -69.742 -114.945 0.050
v -79.388 65.360 0.050
v -64.647 100.854 0.050
v 7.898 101.534 0.050
v 64.165 54.041 0.050
v 63.134 14.089 0.050
v 58.201 -117.815 0.050
l 1 2 3 4 5 6 7 8 1
o SD0933_T001_1hao
v -14.233 43.284 0.000
v -10.389 53.299 0.000
v -15.200 55.212 0.000
v -8.230 71.196 0.000
v -3.902 71.196 0.000
v 0.667 81.465 0.000
v -51.245 80.979 0.000
v -59.174 61.888 0.000
v -14.233 43.284 7.780
v -10.389 53.299 7.780
v -15.200 55.212 7.780
v -8.230 71.196 7.780
v -3.902 71.196 7.780
v 0.667 81.465 7.780
v -51.245 80.979 7.780
v -59.174 61.888 7.780
usemtl roof
f 17 18 19 20 21 22 23 24
usemtl teaching_building
f 16 15 14 13 12 11 10 9
f 9 10 18 17
f 10 11 19 18
f 11 12 20 19
f 12 13 21 20
f 13 14 22 21
f 14 15 23 22
f 15 16 24 23
f 16 9 17 24
o SD0933_T002_2hao
v 39.937 6.043 0.000
v 39.399 -77.668 0.000
v -5.345 -76.663 0.000
v -5.327 5.767 0.000
v 39.937 6.043 7.090
v 39.399 -77.668 7.090
v -5.345 -76.663 7.090
v -5.327 5.767 7.090
usemtl roof
f 29 30 31 32
usemtl teaching_building
f 28 27 26 25
f 25 26 30 29
f 26 27 31 30
f 27 28 32 31
f 28 25 29 32
