# school_id SD0906
# school_name 综合楼
# boundary_source footprint_convex_hull_buffer_20m
# adjacent_block_merge_distance_m 2.0
mtllib ../campus_materials.mtl
o SD0906_campus_boundary
usemtl campus_boundary
v -29.985 -45.930 0.050
v -30.292 45.716 0.050
v 29.976 45.945 0.050
v 30.299 -45.731 0.050
v -29.985 -45.930 0.050
l 1 2 3 4 5 1
o SD0906_T001_1hao
v 10.047 25.869 0.000
v 10.229 -25.797 0.000
v -10.052 -25.864 0.000
v -10.225 25.792 0.000
v 10.047 25.869 18.140
v 10.229 -25.797 18.140
v -10.052 -25.864 18.140
v -10.225 25.792 18.140
usemtl roof
f 10 11 12 13
usemtl teaching_building
f 9 8 7 6
f 6 7 11 10
f 7 8 12 11
f 8 9 13 12
f 9 6 10 13
