# school_id SD0939
# school_name 聊城幼儿师范学校
# boundary_source footprint_convex_hull_buffer_20m
# adjacent_block_merge_distance_m 2.0
mtllib ../campus_materials.mtl
o SD0939_campus_boundary
usemtl campus_boundary
v -118.777 -110.596 0.050
v -202.059 -109.310 0.050
v -204.396 1.623 0.050
v -202.298 73.853 0.050
v -3.858 72.926 0.050
v 49.783 71.020 0.050
v 109.813 68.018 0.050
v 205.652 62.755 0.050
v 204.347 7.373 0.050
v 203.431 -17.755 0.050
v 119.373 -61.040 0.050
v -118.777 -110.596 0.050
l 1 2 3 4 5 6 7 8 9 10 11 12 1
o SD0939_T001_1hao
v 48.323 34.351 0.000
v 48.928 51.038 0.000
v -4.260 52.928 0.000
v -4.865 36.241 0.000
v 48.323 34.351 9.900
v 48.928 51.038 9.900
v -4.260 52.928 9.900
v -4.865 36.241 9.900
usemtl roof
f 17 18 19 20
usemtl teaching_building
f 16 15 14 13
f 13 14 18 17
f 14 15 19 18
f 15 16 20 19
f 16 13 17 20
o SD0939_T002_2hao
v 108.205 32.758 0.000
v 108.765 48.045 0.000
v 54.785 49.963 0.000
v 54.232 34.694 0.000
v 108.205 32.758 9.900
v 108.765 48.045 9.900
v 54.785 49.963 9.900
v 54.232 34.694 9.900
usemtl roof
f 25 26 27 28
usemtl teaching_building
f 24 23 22 21
f 21 22 26 25
f 22 23 27 26
f 23 24 28 27
f 24 21 25 28
o SD0939_T003_3hao
v 124.094 32.424 0.000
v 124.019 30.163 0.000
v 127.575 30.024 0.000
v 127.650 32.304 0.000
v 177.536 30.525 0.000
v 177.461 28.597 0.000
v 180.763 28.486 0.000
v 180.830 30.404 0.000
v 184.708 30.265 0.000
v 185.201 43.848 0.000
v 120.165 46.165 0.000
v 119.664 32.591 0.000
v 124.094 32.424 9.900
v 124.019 30.163 9.900
v 127.575 30.024 9.900
v 127.650 32.304 9.900
v 177.536 30.525 9.900
v 177.461 28.597 9.900
v 180.763 28.486 9.900
v 180.830 30.404 9.900
v 184.708 30.265 9.900
v 185.201 43.848 9.900
v 120.165 46.165 9.900
v 119.664 32.591 9.900
usemtl roof
f 41 42 43 44 45 46 47 48 49 50 51 52
usemtl teaching_building
f 40 39 38 37 36 35 34 33 32 31 30 29
f 29 30 42 41
f 30 31 43 42
f 31 32 44 43
f 32 33 45 44
f 33 34 46 45
f 34 35 47 46
f 35 36 48 47
f 36 37 49 48
f 37 38 50 49
f 38 39 51 50
f 39 40 52 51
f 40 29 41 52
o SD0939_T004_4hao
v -134.578 0.125 0.000
v -140.778 0.301 0.000
v -140.876 -3.201 0.000
v -179.467 -2.108 0.000
v -179.370 1.394 0.000
v -184.390 1.543 0.000
v -182.873 53.762 0.000
v -133.069 52.345 0.000
v -83.392 50.927 0.000
v -83.990 30.265 0.000
v -133.666 31.683 0.000
v -134.578 0.125 9.900
v -140.778 0.301 9.900
v -140.876 -3.201 9.900
v -179.467 -2.108 9.900
v -179.370 1.394 9.900
v -184.390 1.543 9.900
v -182.873 53.762 9.900
v -133.069 52.345 9.900
v -83.392 50.927 9.900
v -83.990 30.265 9.900
v -133.666 31.683 9.900
usemtl roof
f 64 65 66 67 68 69 70 71 72 73 74
usemtl teaching_building
f 63 62 61 60 59 58 57 56 55 54 53
f 53 54 65 64
f 54 55 66 65
f 55 56 67 66
f 56 57 68 67
f 57 58 69 68
f 58 59 70 69
f 59 60 71 70
f 60 61 72 71
f 61 62 73 72
f 62 63 74 73
f 63 53 64 74
o SD0939_T005_5hao
v 183.871 -5.332 0.000
v 184.356 7.973 0.000
v 118.491 10.326 0.000
v 118.006 -2.988 0.000
v 183.871 -5.332 9.900
v 184.356 7.973 9.900
v 118.491 10.326 9.900
v 118.006 -2.988 9.900
usemtl roof
f 79 80 81 82
usemtl teaching_building
f 78 77 76 75
f 75 76 80 79
f 76 77 81 80
f 77 78 82 81
f 78 75 79 82
o SD0939_T006_6hao
v -56.118 -28.542 0.000
v -56.395 -35.926 0.000
v -42.627 -36.427 0.000
v -42.351 -29.042 0.000
v -26.603 -29.635 0.000
v -25.214 7.333 0.000
v -71.970 9.066 0.000
v -73.359 -27.893 0.000
v -56.118 -28.542 9.900
v -56.395 -35.926 9.900
v -42.627 -36.427 9.900
v -42.351 -29.042 9.900
v -26.603 -29.635 9.900
v -25.214 7.333 9.900
v -71.970 9.066 9.900
v -73.359 -27.893 9.900
usemtl roof
f 91 92 93 94 95 96 97 98
usemtl teaching_building
f 90 89 88 87 86 85 84 83
f 83 84 92 91
f 84 85 93 92
f 85 86 94 93
f 86 87 95 94
f 87 88 96 95
f 88 89 97 96
f 89 90 98 97
f 90 83 91 98
o SD0939_T007_7hao
v 66.498 -35.018 0.000
v 66.962 -22.288 0.000
v 20.952 -20.648 0.000
v 20.497 -33.369 0.000
v 66.498 -35.018 9.900
v 66.962 -22.288 9.900
v 20.952 -20.648 9.900
v 20.497 -33.369 9.900
usemtl roof
f 103 104 105 106
usemtl teaching_building
f 102 101 100 99
f 99 100 104 103
f 100 101 105 104
f 101 102 106 105
f 102 99 103 106
o SD0939_T008_8hao
v 112.635 -42.014 0.000
v 113.561 -16.265 0.000
v 89.925 -15.432 0.000
v 88.991 -41.171 0.000
v 112.635 -42.014 9.900
v 113.561 -16.265 9.900
v 89.925 -15.432 9.900
v 88.991 -41.171 9.900
usemtl roof
f 111 112 113 114
usemtl teaching_building
f 110 109 108 107
f 107 108 112 111
f 108 109 113 112
f 109 110 114 113
f 110 107 111 114
o SD0939_T009_9hao
v -120.683 -90.564 0.000
v -120.616 -86.450 0.000
v -116.022 -86.525 0.000
v -115.790 -71.783 0.000
v -176.374 -70.857 0.000
v -176.471 -76.944 0.000
v -182.276 -76.852 0.000
v -182.470 -89.610 0.000
v -120.683 -90.564 9.900
v -120.616 -86.450 9.900
v -116.022 -86.525 9.900
v -115.790 -71.783 9.900
v -176.374 -70.857 9.900
v -176.471 -76.944 9.900
v -182.276 -76.852 9.900
v -182.470 -89.610 9.900
usemtl roof
f 123 124 125 126 127 128 129 130
usemtl teaching_building
f 122 121 120 119 118 117 116 115
f 115 116 124 123
f 116 117 125 124
f 117 118 126 125
f 118 119 127 126
f 119 120 128 127
f 120 121 129 128
f 121 122 130 129
f 122 115 123 130
