# school_id SD0965
# school_name 单县李新庄镇中学
# boundary_source footprint_convex_hull_buffer_20m
# adjacent_block_merge_distance_m 2.0
mtllib ../campus_materials.mtl
o SD0965_campus_boundary
usemtl campus_boundary
v 34.414 -31.525 0.050
v -35.440 -30.377 0.050
v -34.426 31.515 0.050
v 35.451 30.388 0.050
v 34.414 -31.525 0.050
l 1 2 3 4 5 1
o SD0965_T001_1hao
v 14.752 -11.199 0.000
v 15.119 10.713 0.000
v -14.756 11.195 0.000
v -15.115 -10.708 0.000
v 14.752 -11.199 4.950
v 15.119 10.713 4.950
v -14.756 11.195 4.950
v -15.115 -10.708 4.950
usemtl roof
f 10 11 12 13
usemtl teaching_building
f 9 8 7 6
f 6 7 11 10
f 7 8 12 11
f 8 9 13 12
f 9 6 10 13
