# school_id SD0953
# school_name 万通学校
# boundary_source footprint_convex_hull_buffer_20m
# adjacent_block_merge_distance_m 2.0
mtllib ../campus_materials.mtl
o SD0953_campus_boundary
usemtl campus_boundary
v 81.208 -108.509 0.050
v -5.835 -105.241 0.050
v -88.307 -102.027 0.050
v -84.750 41.828 0.050
v -84.317 51.118 0.050
v -78.118 97.152 0.050
v 51.301 91.267 0.050
v 86.272 47.632 0.050
v 82.833 -79.225 0.050
v 81.208 -108.509 0.050
l 1 2 3 4 5 6 7 8 9 10 1
o SD0953_T001_1hao
v 40.341 49.666 0.000
v 41.353 71.699 0.000
v -60.740 76.341 0.000
v -61.759 54.308 0.000
v 40.341 49.666 9.900
v 41.353 71.699 9.900
v -60.740 76.341 9.900
v -61.759 54.308 9.900
usemtl roof
f 15 16 17 18
usemtl teaching_building
f 14 13 12 11
f 11 12 16 15
f 12 13 17 16
f 13 14 18 17
f 14 11 15 18
o SD0953_T002_2hao
v -3.921 38.362 0.000
v -3.538 46.562 0.000
v -64.379 49.314 0.000
v -64.762 41.114 0.000
v -3.921 38.362 9.900
v -3.538 46.562 9.900
v -64.379 49.314 9.900
v -64.762 41.114 9.900
usemtl roof
f 23 24 25 26
usemtl teaching_building
f 22 21 20 19
f 19 20 24 23
f 20 21 25 24
f 21 22 26 25
f 22 19 23 26
o SD0953_T003_3hao
v -2.926 -32.462 0.000
v -2.558 -19.639 0.000
v -63.352 -17.934 0.000
v -63.720 -30.757 0.000
v -2.926 -32.462 9.900
v -2.558 -19.639 9.900
v -63.352 -17.934 9.900
v -63.720 -30.757 9.900
usemtl roof
f 31 32 33 34
usemtl teaching_building
f 30 29 28 27
f 27 28 32 31
f 28 29 33 32
f 29 30 34 33
f 30 27 31 34
o SD0953_T004_4hao
v -5.070 -85.256 0.000
v -4.527 -71.238 0.000
v -67.274 -68.810 0.000
v -67.826 -82.810 0.000
v -5.070 -85.256 9.900
v -4.527 -71.238 9.900
v -67.274 -68.810 9.900
v -67.826 -82.810 9.900
usemtl roof
f 39 40 41 42
usemtl teaching_building
f 38 37 36 35
f 35 36 40 39
f 36 37 41 40
f 37 38 42 41
f 38 35 39 42
o SD0953_T005_5hao
v 62.327 -87.786 0.000
v 62.848 -78.400 0.000
v 8.941 -75.472 0.000
v 8.427 -84.858 0.000
v 62.327 -87.786 9.900
v 62.848 -78.400 9.900
v 8.941 -75.472 9.900
v 8.427 -84.858 9.900
usemtl roof
f 47 48 49 50
usemtl teaching_building
f 46 45 44 43
f 43 44 48 47
f 44 45 49 48
f 45 46 50 49
f 46 43 47 50
