# school_id SD0982
# school_name 开发区达驰实验小学
# boundary_source footprint_convex_hull_buffer_20m
# adjacent_block_merge_distance_m 2.0
mtllib ../campus_materials.mtl
o SD0982_campus_boundary
usemtl campus_boundary
v 51.469 -62.029 0.050
v 17.067 -57.287 0.050
v -65.438 -43.656 0.050
v -53.134 43.952 0.050
v 27.508 34.200 0.050
v 64.318 29.099 0.050
v 51.469 -62.029 0.050
l 1 2 3 4 5 6 7 1
o SD0982_T001_1hao
v -30.222 -28.867 0.000
v -25.946 1.570 0.000
v 24.576 -5.425 0.000
v 20.063 -37.511 0.000
v 34.449 -39.494 0.000
v 41.715 12.040 0.000
v 24.935 14.365 0.000
v 23.818 6.434 0.000
v 14.786 7.694 0.000
v 15.650 13.809 0.000
v -10.773 17.479 0.000
v -11.668 11.132 0.000
v -21.702 12.522 0.000
v -20.708 19.619 0.000
v -36.057 21.741 0.000
v -42.917 -27.106 0.000
v -30.222 -28.867 9.900
v -25.946 1.570 9.900
v 24.576 -5.425 9.900
v 20.063 -37.511 9.900
v 34.449 -39.494 9.900
v 41.715 12.040 9.900
v 24.935 14.365 9.900
v 23.818 6.434 9.900
v 14.786 7.694 9.900
v 15.650 13.809 9.900
v -10.773 17.479 9.900
v -11.668 11.132 9.900
v -21.702 12.522 9.900
v -20.708 19.619 9.900
v -36.057 21.741 9.900
v -42.917 -27.106 9.900
usemtl roof
f 24 25 26 27 28 29 30 31 32 33 34 35 36 37 38 39
usemtl teaching_building
f 23 22 21 20 19 18 17 16 15 14 13 12 11 10 9 8
f 8 9 25 24
f 9 10 26 25
f 10 11 27 26
f 11 12 28 27
f 12 13 29 28
f 13 14 30 29
f 14 15 31 30
f 15 16 32 31
f 16 17 33 32
f 17 18 34 33
f 18 19 35 34
f 19 20 36 35
f 20 21 37 36
f 21 22 38 37
f 22 23 39 38
f 23 8 24 39
