# school_id SD0986
# school_name 曹县三中
# boundary_source footprint_convex_hull_buffer_20m
# adjacent_block_merge_distance_m 2.0
mtllib ../campus_materials.mtl
o SD0986_campus_boundary
usemtl campus_boundary
v -45.932 -133.170 0.050
v -59.631 -19.216 0.050
v -73.513 112.307 0.050
v -73.981 141.355 0.050
v -27.904 142.019 0.050
v 64.309 88.851 0.050
v 79.563 -123.752 0.050
v -45.932 -133.170 0.050
l 1 2 3 4 5 6 7 8 1
o SD0986_T001_1hao
v -39.382 63.719 0.000
v 45.610 68.926 0.000
v 45.120 76.829 0.000
v -39.872 71.631 0.000
v -39.382 63.719 9.900
v 45.610 68.926 9.900
v 45.120 76.829 9.900
v -39.872 71.631 9.900
usemtl roof
f 13 14 15 16
usemtl teaching_building
f 12 11 10 9
f 9 10 14 13
f 10 11 15 14
f 11 12 16 15
f 12 9 13 16
o SD0986_T002_2hao
v -40.623 22.219 0.000
v 46.338 28.696 0.000
v 45.641 37.424 0.000
v -41.105 30.530 0.000
v -40.623 22.219 9.900
v 46.338 28.696 9.900
v 45.641 37.424 9.900
v -41.105 30.530 9.900
usemtl roof
f 21 22 23 24
usemtl teaching_building
f 20 19 18 17
f 17 18 22 21
f 18 19 23 22
f 19 20 24 23
f 20 17 21 24
o SD0986_T003_3hao
v -39.757 -16.973 0.000
v 49.701 -10.784 0.000
v 48.613 4.652 0.000
v -40.837 -1.537 0.000
v -39.757 -16.973 9.900
v 49.701 -10.784 9.900
v 48.613 4.652 9.900
v -40.837 -1.537 9.900
usemtl roof
f 29 30 31 32
usemtl teaching_building
f 28 27 26 25
f 25 26 30 29
f 26 27 31 30
f 27 28 32 31
f 28 25 29 32
o SD0986_T004_4hao
v -34.870 -47.956 0.000
v 51.669 -41.480 0.000
v 50.773 -29.648 0.000
v -35.766 -36.134 0.000
v -34.870 -47.956 9.900
v 51.669 -41.480 9.900
v 50.773 -29.648 9.900
v -35.766 -36.134 9.900
usemtl roof
f 37 38 39 40
usemtl teaching_building
f 36 35 34 33
f 33 34 38 37
f 34 35 39 38
f 35 36 40 39
f 36 33 37 40
o SD0986_T005_5hao
v -31.775 -79.283 0.000
v 54.772 -72.806 0.000
v 53.868 -60.974 0.000
v -32.671 -67.451 0.000
v -31.775 -79.283 9.900
v 54.772 -72.806 9.900
v 53.868 -60.974 9.900
v -32.671 -67.451 9.900
usemtl roof
f 45 46 47 48
usemtl teaching_building
f 44 43 42 41
f 41 42 46 45
f 42 43 47 46
f 43 44 48 47
f 44 41 45 48
o SD0986_T006_6hao
v -28.358 -111.795 0.000
v 58.188 -105.300 0.000
v 57.292 -93.486 0.000
v -29.255 -99.963 0.000
v -28.358 -111.795 9.900
v 58.188 -105.300 9.900
v 57.292 -93.486 9.900
v -29.255 -99.963 9.900
usemtl roof
f 53 54 55 56
usemtl teaching_building
f 52 51 50 49
f 49 50 54 53
f 50 51 55 54
f 51 52 56 55
f 52 49 53 56
