# school_id SD0972
# school_name 单州小学
# boundary_source footprint_convex_hull_buffer_20m
# adjacent_block_merge_distance_m 2.0
mtllib ../campus_materials.mtl
o SD0972_campus_boundary
usemtl campus_boundary
v 76.167 -66.548 0.050
v -16.627 -50.614 0.050
v -102.156 -34.801 0.050
v -94.763 34.991 0.050
v -89.474 67.909 0.050
v 2.817 53.317 0.050
v 97.458 36.114 0.050
v 92.154 4.075 0.050
v 76.167 -66.548 0.050
l 1 2 3 4 5 6 7 8 9 1
o SD0972_T001_1hao
v -74.931 32.349 0.000
v -2.573 20.908 0.000
v -0.534 33.598 0.000
v -72.892 45.039 0.000
v -74.931 32.349 9.900
v -2.573 20.908 9.900
v -0.534 33.598 9.900
v -72.892 45.039 9.900
usemtl roof
f 14 15 16 17
usemtl teaching_building
f 13 12 11 10
f 10 11 15 14
f 11 12 16 15
f 12 13 17 16
f 13 10 14 17
o SD0972_T002_2hao
v 18.805 16.685 0.000
v 72.518 7.920 0.000
v 74.511 19.957 0.000
v 20.799 28.723 0.000
v 18.805 16.685 9.900
v 72.518 7.920 9.900
v 74.511 19.957 9.900
v 20.799 28.723 9.900
usemtl roof
f 22 23 24 25
usemtl teaching_building
f 21 20 19 18
f 18 19 23 22
f 19 20 24 23
f 20 21 25 24
f 21 18 22 25
o SD0972_T003_3hao
v -78.040 -6.351 0.000
v -80.317 -18.500 0.000
v -13.117 -30.924 0.000
v -10.840 -18.765 0.000
v -78.040 -6.351 9.900
v -80.317 -18.500 9.900
v -13.117 -30.924 9.900
v -10.840 -18.765 9.900
usemtl roof
f 30 31 32 33
usemtl teaching_building
f 29 28 27 26
f 26 27 31 30
f 27 28 32 31
f 28 29 33 32
f 29 26 30 33
o SD0972_T004_4hao
v 12.459 -21.694 0.000
v 10.073 -33.644 0.000
v 60.850 -43.625 0.000
v 63.227 -31.676 0.000
v 12.459 -21.694 9.900
v 10.073 -33.644 9.900
v 60.850 -43.625 9.900
v 63.227 -31.676 9.900
usemtl roof
f 38 39 40 41
usemtl teaching_building
f 37 36 35 34
f 34 35 39 38
f 35 36 40 39
f 36 37 41 40
f 37 34 38 41
