# school_id SD0917
# school_name 东昌府郁光小学
# boundary_source footprint_convex_hull_buffer_20m
# adjacent_block_merge_distance_m 2.0
mtllib ../campus_materials.mtl
o SD0917_campus_boundary
usemtl campus_boundary
v 78.822 -95.897 0.050
v -23.146 -78.810 0.050
v -95.904 -65.983 0.050
v -75.494 54.544 0.050
v -68.820 85.866 0.050
v 44.276 66.389 0.050
v 102.920 53.153 0.050
v 93.321 -13.554 0.050
v 78.822 -95.897 0.050
l 1 2 3 4 5 6 7 8 9 1
o SD0917_T001_1hao
v 80.492 37.712 0.000
v 73.830 -4.558 0.000
v 48.595 -0.645 0.000
v 55.257 41.637 0.000
v 80.492 37.712 25.500
v 73.830 -4.558 25.500
v 48.595 -0.645 25.500
v 55.257 41.637 25.500
usemtl roof
f 14 15 16 17
usemtl teaching_building
f 13 12 11 10
f 10 11 15 14
f 11 12 16 15
f 12 13 17 16
f 13 10 14 17
o SD0917_T002_2hao
v 40.375 46.766 0.000
v 40.357 45.959 0.000
v 42.667 45.616 0.000
v 42.452 41.714 0.000
v 39.900 42.145 0.000
v 39.067 35.889 0.000
v -20.223 44.975 0.000
v -25.345 14.742 0.000
v 24.247 5.567 0.000
v 20.459 -17.115 0.000
v 18.426 -20.277 0.000
v 16.367 -21.294 0.000
v 13.671 -21.316 0.000
v 9.955 -18.431 0.000
v 9.391 -16.640 0.000
v 9.865 -12.130 0.000
v -29.097 -6.161 0.000
v -33.780 -36.316 0.000
v -12.459 -39.157 0.000
v -15.020 -57.993 0.000
v -19.390 -57.131 0.000
v -19.757 -59.099 0.000
v -72.868 -49.736 0.000
v -69.125 -30.988 0.000
v -43.084 -35.133 0.000
v -37.031 2.362 0.000
v -63.054 6.330 0.000
v -60.654 20.689 0.000
v -52.272 19.551 0.000
v -52.541 17.075 0.000
v -50.078 16.743 0.000
v -50.194 15.494 0.000
v -34.658 13.283 0.000
v -28.685 46.379 0.000
v -55.845 50.789 0.000
v -53.266 62.893 0.000
v 40.375 46.766 11.680
v 40.357 45.959 11.680
v 42.667 45.616 11.680
v 42.452 41.714 11.680
v 39.900 42.145 11.680
v 39.067 35.889 11.680
v -20.223 44.975 11.680
v -25.345 14.742 11.680
v 24.247 5.567 11.680
v 20.459 -17.115 11.680
v 18.426 -20.277 11.680
v 16.367 -21.294 11.680
v 13.671 -21.316 11.680
v 9.955 -18.431 11.680
v 9.391 -16.640 11.680
v 9.865 -12.130 11.680
v -29.097 -6.161 11.680
v -33.780 -36.316 11.680
v -12.459 -39.157 11.680
v -15.020 -57.993 11.680
v -19.390 -57.131 11.680
v -19.757 -59.099 11.680
v -72.868 -49.736 11.680
v -69.125 -30.988 11.680
v -43.084 -35.133 11.680
v -37.031 2.362 11.680
v -63.054 6.330 11.680
v -60.654 20.689 11.680
v -52.272 19.551 11.680
v -52.541 17.075 11.680
v -50.078 16.743 11.680
v -50.194 15.494 11.680
v -34.658 13.283 11.680
v -28.685 46.379 11.680
v -55.845 50.789 11.680
v -53.266 62.893 11.680
usemtl roof
f 54 55 56 57 58 59 60 61 62 63 64 65 66 67 68 69 70 71 72 73 74 75 76 77 78 79 80 81 82 83 84 85 86 87 88 89
usemtl teaching_building
f 53 52 51 50 49 48 47 46 45 44 43 42 41 40 39 38 37 36 35 34 33 32 31 30 29 28 27 26 25 24 23 22 21 20 19 18
f 18 19 55 54
f 19 20 56 55
f 20 21 57 56
f 21 22 58 57
f 22 23 59 58
f 23 24 60 59
f 24 25 61 60
f 25 26 62 61
f 26 27 63 62
f 27 28 64 63
f 28 29 65 64
f 29 30 66 65
f 30 31 67 66
f 31 32 68 67
f 32 33 69 68
f 33 34 70 69
f 34 35 71 70
f 35 36 72 71
f 36 37 73 72
f 37 38 74 73
f 38 39 75 74
f 39 40 76 75
f 40 41 77 76
f 41 42 78 77
f 42 43 79 78
f 43 44 80 79
f 44 45 81 80
f 45 46 82 81
f 46 47 83 82
f 47 48 84 83
f 48 49 85 84
f 49 50 86 85
f 50 51 87 86
f 51 52 88 87
f 52 53 89 88
f 53 18 54 89
o SD0917_T003_3hao
v 54.093 -71.424 0.000
v 62.565 -72.894 0.000
v 73.570 -10.395 0.000
v 65.090 -8.924 0.000
v 54.093 -71.424 9.900
v 62.565 -72.894 9.900
v 73.570 -10.395 9.900
v 65.090 -8.924 9.900
usemtl roof
f 94 95 96 97
usemtl teaching_building
f 93 92 91 90
f 90 91 95 94
f 91 92 96 95
f 92 93 97 96
f 93 90 94 97
