# school_id SD0919
# school_name 临清市实验中学
# boundary_source footprint_convex_hull_buffer_20m
# adjacent_block_merge_distance_m 2.0
mtllib ../campus_materials.mtl
o SD0919_campus_boundary
usemtl campus_boundary
v 36.247 -78.977 0.050
v -3.118 -77.164 0.050
v -80.794 -73.562 0.050
v -89.126 -48.429 0.050
v -87.262 -8.754 0.050
v -79.098 52.692 0.050
v -65.788 67.663 0.050
v -45.431 65.280 0.050
v 1.548 57.729 0.050
v 138.511 29.447 0.050
v 131.328 -17.967 0.050
v 36.247 -78.977 0.050
l 1 2 3 4 5 6 7 8 9 10 11 12 1
o SD0919_T001_1hao
v -41.154 29.381 0.000
v -41.019 30.428 0.000
v -34.619 29.677 0.000
v -34.798 28.195 0.000
v -22.087 26.703 0.000
v -21.915 28.186 0.000
v -13.378 27.194 0.000
v -13.557 25.712 0.000
v -0.278 24.164 0.000
v -0.106 25.638 0.000
v 6.698 24.841 0.000
v 6.526 23.442 0.000
v 12.336 22.775 0.000
v 13.673 34.014 0.000
v -2.325 35.894 0.000
v -2.063 38.053 0.000
v -10.084 38.989 0.000
v -10.338 36.830 0.000
v -22.684 38.266 0.000
v -22.467 40.036 0.000
v -30.758 41.009 0.000
v -30.959 39.239 0.000
v -43.992 40.768 0.000
v -43.835 42.074 0.000
v -48.525 42.621 0.000
v -48.182 45.465 0.000
v -57.764 46.587 0.000
v -58.100 43.751 0.000
v -60.079 43.983 0.000
v -61.528 31.771 0.000
v -41.154 29.381 9.900
v -41.019 30.428 9.900
v -34.619 29.677 9.900
v -34.798 28.195 9.900
v -22.087 26.703 9.900
v -21.915 28.186 9.900
v -13.378 27.194 9.900
v -13.557 25.712 9.900
v -0.278 24.164 9.900
v -0.106 25.638 9.900
v 6.698 24.841 9.900
v 6.526 23.442 9.900
v 12.336 22.775 9.900
v 13.673 34.014 9.900
v -2.325 35.894 9.900
v -2.063 38.053 9.900
v -10.084 38.989 9.900
v -10.338 36.830 9.900
v -22.684 38.266 9.900
v -22.467 40.036 9.900
v -30.758 41.009 9.900
v -30.959 39.239 9.900
v -43.992 40.768 9.900
v -43.835 42.074 9.900
v -48.525 42.621 9.900
v -48.182 45.465 9.900
v -57.764 46.587 9.900
v -58.100 43.751 9.900
v -60.079 43.983 9.900
v -61.528 31.771 9.900
usemtl roof
f 43 44 45 46 47 48 49 50 51 52 53 54 55 56 57 58 59 60 61 62 63 64 65 66 67 68 69 70 71 72
usemtl teaching_building
f 42 41 40 39 38 37 36 35 34 33 32 31 30 29 28 27 26 25 24 23 22 21 20 19 18 17 16 15 14 13
f 13 14 44 43
f 14 15 45 44
f 15 16 46 45
f 16 17 47 46
f 17 18 48 47
f 18 19 49 48
f 19 20 50 49
f 20 21 51 50
f 21 22 52 51
f 22 23 53 52
f 23 24 54 53
f 24 25 55 54
f 25 26 56 55
f 26 27 57 56
f 27 28 58 57
f 28 29 59 58
f 29 30 60 59
f 30 31 61 60
f 31 32 62 61
f 32 33 63 62
f 33 34 64 63
f 34 35 65 64
f 35 36 66 65
f 36 37 67 66
f 37 38 68 67
f 38 39 69 68
f 39 40 70 69
f 40 41 71 70
f 41 42 72 71
f 42 13 43 72
o SD0919_T002_2hao
v 42.383 5.226 0.000
v 45.729 27.417 0.000
v 17.049 31.688 0.000
v 13.696 9.507 0.000
v 42.383 5.226 9.900
v 45.729 27.417 9.900
v 17.049 31.688 9.900
v 13.696 9.507 9.900
usemtl roof
f 77 78 79 80
usemtl teaching_building
f 76 75 74 73
f 73 74 78 77
f 74 75 79 78
f 75 76 80 79
f 76 73 77 80
o SD0919_T003_3hao
v 45.422 10.313 0.000
v 47.514 24.220 0.000
v 95.985 17.002 0.000
v 93.886 3.095 0.000
v 45.422 10.313 9.900
v 47.514 24.220 9.900
v 95.985 17.002 9.900
v 93.886 3.095 9.900
usemtl roof
f 85 86 87 88
usemtl teaching_building
f 84 83 82 81
f 81 82 86 85
f 82 83 87 86
f 83 84 88 87
f 84 81 85 88
o SD0919_T003_3hao_seg02
v 96.523 -3.585 0.000
v 98.524 9.692 0.000
v 96.851 9.942 0.000
v 97.830 16.382 0.000
v 115.896 13.695 0.000
v 112.909 -6.022 0.000
v 96.523 -3.585 9.900
v 98.524 9.692 9.900
v 96.851 9.942 9.900
v 97.830 16.382 9.900
v 115.896 13.695 9.900
v 112.909 -6.022 9.900
usemtl roof
f 95 96 97 98 99 100
usemtl teaching_building
f 94 93 92 91 90 89
f 89 90 96 95
f 90 91 97 96
f 91 92 98 97
f 92 93 99 98
f 93 94 100 99
f 94 89 95 100
o SD0919_T004_4hao
v 23.928 -17.298 0.000
v 29.238 -17.557 0.000
v 29.469 -12.536 0.000
v 34.018 -12.749 0.000
v 34.406 -4.364 0.000
v 29.865 -4.160 0.000
v 30.007 -1.158 0.000
v 24.704 -0.908 0.000
v 11.926 -3.326 0.000
v 11.537 -11.702 0.000
v 23.928 -17.298 9.900
v 29.238 -17.557 9.900
v 29.469 -12.536 9.900
v 34.018 -12.749 9.900
v 34.406 -4.364 9.900
v 29.865 -4.160 9.900
v 30.007 -1.158 9.900
v 24.704 -0.908 9.900
v 11.926 -3.326 9.900
v 11.537 -11.702 9.900
usemtl roof
f 111 112 113 114 115 116 117 118 119 120
usemtl teaching_building
f 110 109 108 107 106 105 104 103 102 101
f 101 102 112 111
f 102 103 113 112
f 103 104 114 113
f 104 105 115 114
f 105 106 116 115
f 106 107 117 116
f 107 108 118 117
f 108 109 119 118
f 109 110 120 119
f 110 101 111 120
o SD0919_T005_5hao
v -1.794 -48.772 0.000
v -2.198 -57.185 0.000
v -66.136 -54.220 0.000
v -65.748 -45.809 0.000
v -68.974 -45.659 0.000
v -67.324 -10.544 0.000
v -53.358 -11.201 0.000
v -55.008 -46.306 0.000
v -1.794 -48.772 9.900
v -2.198 -57.185 9.900
v -66.136 -54.220 9.900
v -65.748 -45.809 9.900
v -68.974 -45.659 9.900
v -67.324 -10.544 9.900
v -53.358 -11.201 9.900
v -55.008 -46.306 9.900
usemtl roof
f 129 130 131 132 133 134 135 136
usemtl teaching_building
f 128 127 126 125 124 123 122 121
f 121 122 130 129
f 122 123 131 130
f 123 124 132 131
f 124 125 133 132
f 125 126 134 133
f 126 127 135 134
f 127 128 136 135
f 128 121 129 136
o SD0919_T005_5hao_seg02
v -63.403 -3.196 0.000
v 0.670 -6.152 0.000
v 0.327 -13.685 0.000
v -63.761 -10.710 0.000
v -63.403 -3.196 9.900
v 0.670 -6.152 9.900
v 0.327 -13.685 9.900
v -63.761 -10.710 9.900
usemtl roof
f 141 142 143 144
usemtl teaching_building
f 140 139 138 137
f 137 138 142 141
f 138 139 143 142
f 139 140 144 143
f 140 137 141 144
o SD0919_T006_6hao
v 30.806 -58.705 0.000
v 31.389 -46.382 0.000
v 10.634 -45.418 0.000
v 10.058 -57.741 0.000
v 30.806 -58.705 9.900
v 31.389 -46.382 9.900
v 10.634 -45.418 9.900
v 10.058 -57.741 9.900
usemtl roof
f 149 150 151 152
usemtl teaching_building
f 148 147 146 145
f 145 146 150 149
f 146 147 151 150
f 147 148 152 151
f 148 145 149 152
