# school_id SD0970
# school_name 单县阳光双语学校
# boundary_source footprint_convex_hull_buffer_20m
# adjacent_block_merge_distance_m 2.0
mtllib ../campus_materials.mtl
o SD0970_campus_boundary
usemtl campus_boundary
v 38.402 -36.373 0.050
v -46.068 -28.656 0.050
v -43.375 0.070 0.050
v -37.800 34.717 0.050
v 44.845 30.436 0.050
v 43.320 1.529 0.050
v 38.402 -36.373 0.050
l 1 2 3 4 5 6 7 1
o SD0970_T001_1hao
v 21.046 -14.704 0.000
v 21.798 -6.606 0.000
v -23.524 -2.455 0.000
v -24.284 -10.563 0.000
v 21.046 -14.704 4.950
v 21.798 -6.606 4.950
v -23.524 -2.455 4.950
v -24.284 -10.563 4.950
usemtl roof
f 12 13 14 15
usemtl teaching_building
f 11 10 9 8
f 8 9 13 12
f 9 10 14 13
f 10 11 15 14
f 11 8 12 15
