# school_id SD0991
# school_name 曹县磐石中心小学
# boundary_source footprint_convex_hull_buffer_20m
# adjacent_block_merge_distance_m 2.0
mtllib ../campus_materials.mtl
o SD0991_campus_boundary
usemtl campus_boundary
v 37.402 -53.700 0.050
v -61.316 -43.741 0.050
v -57.194 -3.561 0.050
v -37.868 53.201 0.050
v 61.431 43.525 0.050
v 57.532 3.981 0.050
v 37.402 -53.700 0.050
l 1 2 3 4 5 6 7 1
o SD0991_T001_1hao
v 37.863 8.318 0.000
v 39.563 25.561 0.000
v -24.041 31.759 0.000
v -25.749 14.516 0.000
v 37.863 8.318 9.900
v 39.563 25.561 9.900
v -24.041 31.759 9.900
v -25.749 14.516 9.900
usemtl roof
f 12 13 14 15
usemtl teaching_building
f 11 10 9 8
f 8 9 13 12
f 9 10 14 13
f 10 11 15 14
f 11 8 12 15
o SD0991_T002_2hao
v 23.716 -32.218 0.000
v 25.554 -14.225 0.000
v -37.530 -7.859 0.000
v -39.376 -25.853 0.000
v 23.716 -32.218 9.900
v 25.554 -14.225 9.900
v -37.530 -7.859 9.900
v -39.376 -25.853 9.900
usemtl roof
f 20 21 22 23
usemtl teaching_building
f 19 18 17 16
f 16 17 21 20
f 17 18 22 21
f 18 19 23 22
f 19 16 20 23
