# school_id SD0969
# school_name 单县舜师路小学
# boundary_source footprint_convex_hull_buffer_20m
# adjacent_block_merge_distance_m 2.0
mtllib ../campus_materials.mtl
o SD0969_campus_boundary
usemtl campus_boundary
v 22.744 -67.632 0.050
v -9.342 -62.266 0.050
v -85.618 -6.772 0.050
v -78.475 37.781 0.050
v 7.565 51.551 0.050
v 89.181 37.930 0.050
v 83.697 -17.518 0.050
v 79.524 -42.224 0.050
v 22.744 -67.632 0.050
l 1 2 3 4 5 6 7 8 9 1
o SD0969_T001_1hao
v -23.415 18.164 0.000
v -26.917 -3.700 0.000
v -31.360 -3.004 0.000
v -32.128 -7.790 0.000
v -42.990 -6.077 0.000
v -42.624 -3.767 0.000
v -56.448 -1.589 0.000
v -56.037 0.942 0.000
v -63.927 2.180 0.000
v -61.019 20.320 0.000
v -38.876 16.827 0.000
v -38.290 20.508 0.000
v -23.415 18.164 11.580
v -26.917 -3.700 11.580
v -31.360 -3.004 11.580
v -32.128 -7.790 11.580
v -42.990 -6.077 11.580
v -42.624 -3.767 11.580
v -56.448 -1.589 11.580
v -56.037 0.942 11.580
v -63.927 2.180 11.580
v -61.019 20.320 11.580
v -38.876 16.827 11.580
v -38.290 20.508 11.580
usemtl roof
f 22 23 24 25 26 27 28 29 30 31 32 33
usemtl teaching_building
f 21 20 19 18 17 16 15 14 13 12 11 10
f 10 11 23 22
f 11 12 24 23
f 12 13 25 24
f 13 14 26 25
f 14 15 27 26
f 15 16 28 27
f 16 17 29 28
f 17 18 30 29
f 18 19 31 30
f 19 20 32 31
f 20 21 33 32
f 21 10 22 33
o SD0969_T002_2hao
v 67.437 21.282 0.000
v 65.307 8.713 0.000
v 31.835 14.307 0.000
v 27.913 -8.863 0.000
v 63.862 -14.865 0.000
v 61.586 -28.340 0.000
v 24.292 -22.116 0.000
v 20.087 -46.910 0.000
v -1.390 -43.318 0.000
v 2.871 -18.104 0.000
v -3.465 -17.054 0.000
v -1.792 -7.138 0.000
v -3.273 -6.884 0.000
v -2.697 -3.446 0.000
v 21.933 -7.514 0.000
v 22.866 -1.976 0.000
v 20.727 -1.622 0.000
v 22.610 9.664 0.000
v 25.911 9.122 0.000
v 27.026 15.810 0.000
v 3.191 19.756 0.000
v 3.703 22.785 0.000
v 5.997 22.409 0.000
v 7.497 31.286 0.000
v 67.437 21.282 9.900
v 65.307 8.713 9.900
v 31.835 14.307 9.900
v 27.913 -8.863 9.900
v 63.862 -14.865 9.900
v 61.586 -28.340 9.900
v 24.292 -22.116 9.900
v 20.087 -46.910 9.900
v -1.390 -43.318 9.900
v 2.871 -18.104 9.900
v -3.465 -17.054 9.900
v -1.792 -7.138 9.900
v -3.273 -6.884 9.900
v -2.697 -3.446 9.900
v 21.933 -7.514 9.900
v 22.866 -1.976 9.900
v 20.727 -1.622 9.900
v 22.610 9.664 9.900
v 25.911 9.122 9.900
v 27.026 15.810 9.900
v 3.191 19.756 9.900
v 3.703 22.785 9.900
v 5.997 22.409 9.900
v 7.497 31.286 9.900
usemtl roof
f 58 59 60 61 62 63 64 65 66 67 68 69 70 71 72 73 74 75 76 77 78 79 80 81
usemtl teaching_building
f 57 56 55 54 53 52 51 50 49 48 47 46 45 44 43 42 41 40 39 38 37 36 35 34
f 34 35 59 58
f 35 36 60 59
f 36 37 61 60
f 37 38 62 61
f 38 39 63 62
f 39 40 64 63
f 40 41 65 64
f 41 42 66 65
f 42 43 67 66
f 43 44 68 67
f 44 45 69 68
f 45 46 70 69
f 46 47 71 70
f 47 48 72 71
f 48 49 73 72
f 49 50 74 73
f 50 51 75 74
f 51 52 76 75
f 52 53 77 76
f 53 54 78 77
f 54 55 79 78
f 55 56 80 79
f 56 57 81 80
f 57 34 58 81
