# school_id SD0935
# school_name 潘庄镇第二小学
# boundary_source footprint_convex_hull_buffer_20m
# adjacent_block_merge_distance_m 2.0
mtllib ../campus_materials.mtl
o SD0935_campus_boundary
usemtl campus_boundary
v 56.541 -31.512 0.050
v -62.379 -17.500 0.050
v -56.541 31.512 0.050
v 62.379 17.500 0.050
v 56.541 -31.512 0.050
l 1 2 3 4 5 1
o SD0935_T001_1hao
v 39.044 -9.312 0.000
v 40.151 -0.019 0.000
v -39.044 9.312 0.000
v -40.151 0.019 0.000
v 39.044 -9.312 6.600
v 40.151 -0.019 6.600
v -39.044 9.312 6.600
v -40.151 0.019 6.600
usemtl roof
f 10 11 12 13
usemtl teaching_building
f 9 8 7 6
f 6 7 11 10
f 7 8 12 11
f 8 9 13 12
f 9 6 10 13
