# school_id SD0975
# school_name 山东省单县第一中学
# boundary_source footprint_convex_hull_buffer_20m
# adjacent_block_merge_distance_m 2.0
mtllib ../campus_materials.mtl
o SD0975_campus_boundary
usemtl campus_boundary
v -34.300 -191.279 0.050
v -44.425 -190.446 0.050
v -63.519 -187.831 0.050
v -281.992 -145.102 0.050
v -266.468 -15.464 0.050
v -226.222 261.689 0.050
v -217.804 317.786 0.050
v -124.103 303.921 0.050
v 220.624 154.073 0.050
v 208.879 68.375 0.050
v -3.642 -182.837 0.050
v -34.300 -191.279 0.050
l 1 2 3 4 5 6 7 8 9 10 11 12 1
o SD0975_T001_1hao
v -129.649 284.524 0.000
v -135.107 248.212 0.000
v -206.436 258.768 0.000
v -200.987 295.080 0.000
v -129.649 284.524 8.010
v -135.107 248.212 8.010
v -206.436 258.768 8.010
v -200.987 295.080 8.010
usemtl roof
f 17 18 19 20
usemtl teaching_building
f 16 15 14 13
f 13 14 18 17
f 14 15 19 18
f 15 16 20 19
f 16 13 17 20
o SD0975_T002_2hao
v 189.854 76.852 0.000
v 174.063 79.251 0.000
v 182.448 143.475 0.000
v 198.751 141.773 0.000
v 189.854 76.852 11.010
v 174.063 79.251 11.010
v 182.448 143.475 11.010
v 198.751 141.773 11.010
usemtl roof
f 25 26 27 28
usemtl teaching_building
f 24 23 22 21
f 21 22 26 25
f 22 23 27 26
f 23 24 28 27
f 24 21 25 28
o SD0975_T003_3hao
v 3.938 91.576 0.000
v 3.244 85.707 0.000
v 12.506 84.623 0.000
v 12.140 81.550 0.000
v 30.062 79.450 0.000
v 30.592 83.872 0.000
v 41.098 82.645 0.000
v 40.513 77.670 0.000
v 44.124 77.250 0.000
v 43.292 70.264 0.000
v 38.638 70.806 0.000
v 38.108 66.406 0.000
v 0.034 70.872 0.000
v 0.372 73.713 0.000
v -7.957 74.697 0.000
v -7.418 79.251 0.000
v -10.325 79.594 0.000
v -9.475 86.790 0.000
v -6.979 86.503 0.000
v -6.238 92.770 0.000
v 3.938 91.576 14.560
v 3.244 85.707 14.560
v 12.506 84.623 14.560
v 12.140 81.550 14.560
v 30.062 79.450 14.560
v 30.592 83.872 14.560
v 41.098 82.645 14.560
v 40.513 77.670 14.560
v 44.124 77.250 14.560
v 43.292 70.264 14.560
v 38.638 70.806 14.560
v 38.108 66.406 14.560
v 0.034 70.872 14.560
v 0.372 73.713 14.560
v -7.957 74.697 14.560
v -7.418 79.251 14.560
v -10.325 79.594 14.560
v -9.475 86.790 14.560
v -6.979 86.503 14.560
v -6.238 92.770 14.560
usemtl roof
f 49 50 51 52 53 54 55 56 57 58 59 60 61 62 63 64 65 66 67 68
usemtl teaching_building
f 48 47 46 45 44 43 42 41 40 39 38 37 36 35 34 33 32 31 30 29
f 29 30 50 49
f 30 31 51 50
f 31 32 52 51
f 32 33 53 52
f 33 34 54 53
f 34 35 55 54
f 35 36 56 55
f 36 37 57 56
f 37 38 58 57
f 38 39 59 58
f 39 40 60 59
f 40 41 61 60
f 41 42 62 61
f 42 43 63 62
f 43 44 64 63
f 44 45 65 64
f 45 46 66 65
f 46 47 67 66
f 47 48 68 67
f 48 29 49 68
o SD0975_T004_4hao
v 7.596 42.552 0.000
v 39.708 39.202 0.000
v 38.830 30.923 0.000
v 33.938 31.432 0.000
v 33.362 25.949 0.000
v -5.955 29.972 0.000
v -5.306 36.793 0.000
v -12.556 37.467 0.000
v -12.255 40.606 0.000
v -14.705 40.838 0.000
v -14.074 47.471 0.000
v -11.094 47.195 0.000
v -10.536 53.164 0.000
v -2.718 52.434 0.000
v -3.376 45.470 0.000
v 7.788 44.343 0.000
v 7.596 42.552 17.380
v 39.708 39.202 17.380
v 38.830 30.923 17.380
v 33.938 31.432 17.380
v 33.362 25.949 17.380
v -5.955 29.972 17.380
v -5.306 36.793 17.380
v -12.556 37.467 17.380
v -12.255 40.606 17.380
v -14.705 40.838 17.380
v -14.074 47.471 17.380
v -11.094 47.195 17.380
v -10.536 53.164 17.380
v -2.718 52.434 17.380
v -3.376 45.470 17.380
v 7.788 44.343 17.380
usemtl roof
f 85 86 87 88 89 90 91 92 93 94 95 96 97 98 99 100
usemtl teaching_building
f 84 83 82 81 80 79 78 77 76 75 74 73 72 71 70 69
f 69 70 86 85
f 70 71 87 86
f 71 72 88 87
f 72 73 89 88
f 73 74 90 89
f 74 75 91 90
f 75 76 92 91
f 76 77 93 92
f 77 78 94 93
f 78 79 95 94
f 79 80 96 95
f 80 81 97 96
f 81 82 98 97
f 82 83 99 98
f 83 84 100 99
f 84 69 85 100
o SD0975_T005_5hao
v 75.121 -4.737 0.000
v 75.386 -2.913 0.000
v 86.351 -4.497 0.000
v 87.218 3.089 0.000
v 84.530 3.388 0.000
v 86.197 17.994 0.000
v 51.768 22.224 0.000
v 52.555 28.469 0.000
v 47.928 29.044 0.000
v 48.943 37.058 0.000
v 53.140 36.538 0.000
v 53.679 40.783 0.000
v 64.386 39.446 0.000
v 63.884 35.455 0.000
v 79.930 33.432 0.000
v 80.113 34.858 0.000
v 91.501 33.403 0.000
v 92.375 40.264 0.000
v 89.047 40.684 0.000
v 90.628 55.143 0.000
v 55.508 59.608 0.000
v 56.368 66.174 0.000
v 52.555 66.683 0.000
v 53.963 77.449 0.000
v 58.132 76.908 0.000
v 58.672 81.031 0.000
v 69.699 79.605 0.000
v 69.196 75.780 0.000
v 96.654 72.254 0.000
v 97.340 77.549 0.000
v 104.865 76.587 0.000
v 103.896 69.137 0.000
v 106.401 68.827 0.000
v 104.691 55.662 0.000
v 99.296 56.347 0.000
v 99.242 54.048 0.000
v 94.174 54.692 0.000
v 95.502 54.490 0.000
v 95.511 52.456 0.000
v 108.275 50.853 0.000
v 106.529 37.202 0.000
v 100.641 37.942 0.000
v 99.928 32.327 0.000
v 101.226 32.161 0.000
v 99.479 18.697 0.000
v 90.573 19.836 0.000
v 90.281 17.492 0.000
v 89.760 17.556 0.000
v 89.522 15.470 0.000
v 103.018 13.944 0.000
v 101.454 0.270 0.000
v 94.981 1.000 0.000
v 94.223 -5.635 0.000
v 95.666 -5.843 0.000
v 93.582 -20.102 0.000
v 87.501 -19.229 0.000
v 87.008 -22.634 0.000
v 45.057 -16.576 0.000
v 46.136 -9.192 0.000
v 42.734 -8.694 0.000
v 44.024 0.116 0.000
v 47.544 -0.393 0.000
v 48.120 3.531 0.000
v 57.931 2.116 0.000
v 57.309 -2.162 0.000
v 75.121 -4.737 14.630
v 75.386 -2.913 14.630
v 86.351 -4.497 14.630
v 87.218 3.089 14.630
v 84.530 3.388 14.630
v 86.197 17.994 14.630
v 51.768 22.224 14.630
v 52.555 28.469 14.630
v 47.928 29.044 14.630
v 48.943 37.058 14.630
v 53.140 36.538 14.630
v 53.679 40.783 14.630
v 64.386 39.446 14.630
v 63.884 35.455 14.630
v 79.930 33.432 14.630
v 80.113 34.858 14.630
v 91.501 33.403 14.630
v 92.375 40.264 14.630
v 89.047 40.684 14.630
v 90.628 55.143 14.630
v 55.508 59.608 14.630
v 56.368 66.174 14.630
v 52.555 66.683 14.630
v 53.963 77.449 14.630
v 58.132 76.908 14.630
v 58.672 81.031 14.630
v 69.699 79.605 14.630
v 69.196 75.780 14.630
v 96.654 72.254 14.630
v 97.340 77.549 14.630
v 104.865 76.587 14.630
v 103.896 69.137 14.630
v 106.401 68.827 14.630
v 104.691 55.662 14.630
v 99.296 56.347 14.630
v 99.242 54.048 14.630
v 94.174 54.692 14.630
v 95.502 54.490 14.630
v 95.511 52.456 14.630
v 108.275 50.853 14.630
v 106.529 37.202 14.630
v 100.641 37.942 14.630
v 99.928 32.327 14.630
v 101.226 32.161 14.630
v 99.479 18.697 14.630
v 90.573 19.836 14.630
v 90.281 17.492 14.630
v 89.760 17.556 14.630
v 89.522 15.470 14.630
v 103.018 13.944 14.630
v 101.454 0.270 14.630
v 94.981 1.000 14.630
v 94.223 -5.635 14.630
v 95.666 -5.843 14.630
v 93.582 -20.102 14.630
v 87.501 -19.229 14.630
v 87.008 -22.634 14.630
v 45.057 -16.576 14.630
v 46.136 -9.192 14.630
v 42.734 -8.694 14.630
v 44.024 0.116 14.630
v 47.544 -0.393 14.630
v 48.120 3.531 14.630
v 57.931 2.116 14.630
v 57.309 -2.162 14.630
usemtl roof
f 166 167 168 169 170 171 172 173 174 175 176 177 178 179 180 181 182 183 184 185 186 187 188 189 190 191 192 193 194 195 196 197 198 199 200 201 202 203 204 205 206 207 208 209 210 211 212 213 214 215 216 217 218 219 220 221 222 223 224 225 226 227 228 229 230
usemtl teaching_building
f 165 164 163 162 161 160 159 158 157 156 155 154 153 152 151 150 149 148 147 146 145 144 143 142 141 140 139 138 137 136 135 134 133 132 131 130 129 128 127 126 125 124 123 122 121 120 119 118 117 116 115 114 113 112 111 110 109 108 107 106 105 104 103 102 101
f 101 102 167 166
f 102 103 168 167
f 103 104 169 168
f 104 105 170 169
f 105 106 171 170
f 106 107 172 171
f 107 108 173 172
f 108 109 174 173
f 109 110 175 174
f 110 111 176 175
f 111 112 177 176
f 112 113 178 177
f 113 114 179 178
f 114 115 180 179
f 115 116 181 180
f 116 117 182 181
f 117 118 183 182
f 118 119 184 183
f 119 120 185 184
f 120 121 186 185
f 121 122 187 186
f 122 123 188 187
f 123 124 189 188
f 124 125 190 189
f 125 126 191 190
f 126 127 192 191
f 127 128 193 192
f 128 129 194 193
f 129 130 195 194
f 130 131 196 195
f 131 132 197 196
f 132 133 198 197
f 133 134 199 198
f 134 135 200 199
f 135 136 201 200
f 136 137 202 201
f 137 138 203 202
f 138 139 204 203
f 139 140 205 204
f 140 141 206 205
f 141 142 207 206
f 142 143 208 207
f 143 144 209 208
f 144 145 210 209
f 145 146 211 210
f 146 147 212 211
f 147 148 213 212
f 148 149 214 213
f 149 150 215 214
f 150 151 216 215
f 151 152 217 216
f 152 153 218 217
f 153 154 219 218
f 154 155 220 219
f 155 156 221 220
f 156 157 222 221
f 157 158 223 222
f 158 159 224 223
f 159 160 225 224
f 160 161 226 225
f 161 162 227 226
f 162 163 228 227
f 163 164 229 228
f 164 165 230 229
f 165 101 166 230
o SD0975_T006_6hao
v 1.653 5.245 0.000
v 33.390 1.685 0.000
v 32.293 -7.943 0.000
v 27.867 -7.445 0.000
v 27.483 -10.784 0.000
v -10.828 -6.473 0.000
v -10.298 -1.830 0.000
v -18.253 -0.935 0.000
v -17.750 3.476 0.000
v -19.981 3.730 0.000
v -19.323 9.467 0.000
v -16.607 9.158 0.000
v -15.821 16.044 0.000
v -7.006 15.050 0.000
v -7.756 8.539 0.000
v 1.909 7.444 0.000
v 1.653 5.245 11.560
v 33.390 1.685 11.560
v 32.293 -7.943 11.560
v 27.867 -7.445 11.560
v 27.483 -10.784 11.560
v -10.828 -6.473 11.560
v -10.298 -1.830 11.560
v -18.253 -0.935 11.560
v -17.750 3.476 11.560
v -19.981 3.730 11.560
v -19.323 9.467 11.560
v -16.607 9.158 11.560
v -15.821 16.044 11.560
v -7.006 15.050 11.560
v -7.756 8.539 11.560
v 1.909 7.444 11.560
usemtl roof
f 247 248 249 250 251 252 253 254 255 256 257 258 259 260 261 262
usemtl teaching_building
f 246 245 244 243 242 241 240 239 238 237 236 235 234 233 232 231
f 231 232 248 247
f 232 233 249 248
f 233 234 250 249
f 234 235 251 250
f 235 236 252 251
f 236 237 253 252
f 237 238 254 253
f 238 239 255 254
f 239 240 256 255
f 240 241 257 256
f 241 242 258 257
f 242 243 259 258
f 243 244 260 259
f 244 245 261 260
f 245 246 262 261
f 246 231 247 262
o SD0975_T007_7hao
v -2.499 -60.261 0.000
v -3.038 -64.661 0.000
v 5.840 -65.733 0.000
v 4.405 -76.898 0.000
v -4.026 -75.803 0.000
v -4.995 -85.597 0.000
v -65.836 -77.262 0.000
v -66.860 -85.420 0.000
v -73.443 -83.066 0.000
v -78.244 -79.263 0.000
v -82.175 -74.112 0.000
v -84.169 -68.640 0.000
v -83.885 -62.483 0.000
v -82.276 -56.746 0.000
v -79.377 -51.009 0.000
v -2.499 -60.261 11.560
v -3.038 -64.661 11.560
v 5.840 -65.733 11.560
v 4.405 -76.898 11.560
v -4.026 -75.803 11.560
v -4.995 -85.597 11.560
v -65.836 -77.262 11.560
v -66.860 -85.420 11.560
v -73.443 -83.066 11.560
v -78.244 -79.263 11.560
v -82.175 -74.112 11.560
v -84.169 -68.640 11.560
v -83.885 -62.483 11.560
v -82.276 -56.746 11.560
v -79.377 -51.009 11.560
usemtl roof
f 278 279 280 281 282 283 284 285 286 287 288 289 290 291 292
usemtl teaching_building
f 277 276 275 274 273 272 271 270 269 268 267 266 265 264 263
f 263 264 279 278
f 264 265 280 279
f 265 266 281 280
f 266 267 282 281
f 267 268 283 282
f 268 269 284 283
f 269 270 285 284
f 270 271 286 285
f 271 272 287 286
f 272 273 288 287
f 273 274 289 288
f 274 275 290 289
f 275 276 291 290
f 276 277 292 291
f 277 263 278 292
o SD0975_T008_8hao
v -163.672 -50.722 0.000
v -234.918 -42.310 0.000
v -235.878 -50.368 0.000
v -230.785 -50.965 0.000
v -232.541 -65.700 0.000
v -237.378 -65.136 0.000
v -238.347 -73.261 0.000
v -171.782 -81.065 0.000
v -173.300 -93.854 0.000
v -241.054 -85.918 0.000
v -242.142 -95.070 0.000
v -237.616 -95.601 0.000
v -239.426 -110.767 0.000
v -242.983 -110.347 0.000
v -243.824 -117.333 0.000
v -176.610 -125.270 0.000
v -178.219 -138.690 0.000
v -259.926 -129.039 0.000
v -246.640 -18.090 0.000
v -160.974 -28.205 0.000
v -163.672 -50.722 9.950
v -234.918 -42.310 9.950
v -235.878 -50.368 9.950
v -230.785 -50.965 9.950
v -232.541 -65.700 9.950
v -237.378 -65.136 9.950
v -238.347 -73.261 9.950
v -171.782 -81.065 9.950
v -173.300 -93.854 9.950
v -241.054 -85.918 9.950
v -242.142 -95.070 9.950
v -237.616 -95.601 9.950
v -239.426 -110.767 9.950
v -242.983 -110.347 9.950
v -243.824 -117.333 9.950
v -176.610 -125.270 9.950
v -178.219 -138.690 9.950
v -259.926 -129.039 9.950
v -246.640 -18.090 9.950
v -160.974 -28.205 9.950
usemtl roof
f 313 314 315 316 317 318 319 320 321 322 323 324 325 326 327 328 329 330 331 332
usemtl teaching_building
f 312 311 310 309 308 307 306 305 304 303 302 301 300 299 298 297 296 295 294 293
f 293 294 314 313
f 294 295 315 314
f 295 296 316 315
f 296 297 317 316
f 297 298 318 317
f 298 299 319 318
f 299 300 320 319
f 300 301 321 320
f 301 302 322 321
f 302 303 323 322
f 303 304 324 323
f 304 305 325 324
f 305 306 326 325
f 306 307 327 326
f 307 308 328 327
f 308 309 329 328
f 309 310 330 329
f 310 311 331 330
f 311 312 332 331
f 312 293 313 332
o SD0975_T009_9hao
v -85.074 -139.132 0.000
v -83.958 -131.471 0.000
v -13.544 -140.878 0.000
v -14.083 -146.295 0.000
v -8.021 -147.080 0.000
v -9.301 -156.475 0.000
v -14.916 -165.197 0.000
v -36.193 -171.056 0.000
v -42.246 -170.558 0.000
v -60.240 -168.093 0.000
v -80.566 -157.404 0.000
v -85.129 -154.121 0.000
v -86.994 -149.147 0.000
v -91.374 -144.183 0.000
v -90.624 -138.424 0.000
v -85.074 -139.132 11.560
v -83.958 -131.471 11.560
v -13.544 -140.878 11.560
v -14.083 -146.295 11.560
v -8.021 -147.080 11.560
v -9.301 -156.475 11.560
v -14.916 -165.197 11.560
v -36.193 -171.056 11.560
v -42.246 -170.558 11.560
v -60.240 -168.093 11.560
v -80.566 -157.404 11.560
v -85.129 -154.121 11.560
v -86.994 -149.147 11.560
v -91.374 -144.183 11.560
v -90.624 -138.424 11.560
usemtl roof
f 348 349 350 351 352 353 354 355 356 357 358 359 360 361 362
usemtl teaching_building
f 347 346 345 344 343 342 341 340 339 338 337 336 335 334 333
f 333 334 349 348
f 334 335 350 349
f 335 336 351 350
f 336 337 352 351
f 337 338 353 352
f 338 339 354 353
f 339 340 355 354
f 340 341 356 355
f 341 342 357 356
f 342 343 358 357
f 343 344 359 358
f 344 345 360 359
f 345 346 361 360
f 346 347 362 361
f 347 333 348 362
