# school_id SD0908
# school_name 赛博中学
# boundary_source footprint_convex_hull_buffer_20m
# adjacent_block_merge_distance_m 2.0
mtllib ../campus_materials.mtl
o SD0908_campus_boundary
usemtl campus_boundary
v 75.345 -86.718 0.050
v -65.227 -52.277 0.050
v -111.255 -40.843 0.050
v -91.994 35.631 0.050
v -39.168 114.940 0.050
v 87.082 83.621 0.050
v 94.106 -12.046 0.050
v 75.345 -86.718 0.050
l 1 2 3 4 5 6 7 8 1
o SD0908_T001_1hao
v 68.197 67.700 0.000
v 54.287 12.385 0.000
v 38.909 16.199 0.000
v 34.695 -0.570 0.000
v 73.924 -10.297 0.000
v 60.793 -62.561 0.000
v 38.465 -57.034 0.000
v 42.842 -39.613 0.000
v 38.311 -26.690 0.000
v 24.881 -17.792 0.000
v -27.959 -4.328 0.000
v -42.304 -6.373 0.000
v -55.824 -14.553 0.000
v -60.436 -32.859 0.000
v -86.960 -26.270 0.000
v -73.440 27.408 0.000
v -28.629 16.276 0.000
v -24.932 30.989 0.000
v -44.497 35.842 0.000
v -30.324 92.140 0.000
v 68.197 67.700 12.950
v 54.287 12.385 12.950
v 38.909 16.199 12.950
v 34.695 -0.570 12.950
v 73.924 -10.297 12.950
v 60.793 -62.561 12.950
v 38.465 -57.034 12.950
v 42.842 -39.613 12.950
v 38.311 -26.690 12.950
v 24.881 -17.792 12.950
v -27.959 -4.328 12.950
v -42.304 -6.373 12.950
v -55.824 -14.553 12.950
v -60.436 -32.859 12.950
v -86.960 -26.270 12.950
v -73.440 27.408 12.950
v -28.629 16.276 12.950
v -24.932 30.989 12.950
v -44.497 35.842 12.950
v -30.324 92.140 12.950
usemtl roof
f 29 30 31 32 33 34 35 36 37 38 39 40 41 42 43 44 45 46 47 48
usemtl teaching_building
f 28 27 26 25 24 23 22 21 20 19 18 17 16 15 14 13 12 11 10 9
f 9 10 30 29
f 10 11 31 30
f 11 12 32 31
f 12 13 33 32
f 13 14 34 33
f 14 15 35 34
f 15 16 36 35
f 16 17 37 36
f 17 18 38 37
f 18 19 39 38
f 19 20 40 39
f 20 21 41 40
f 21 22 42 41
f 22 23 43 42
f 23 24 44 43
f 24 25 45 44
f 25 26 46 45
f 26 27 47 46
f 27 28 48 47
f 28 9 29 48
