# school_id SD0976
# school_name 山东省单县第一中学
# boundary_source footprint_convex_hull_buffer_20m
# adjacent_block_merge_distance_m 2.0
mtllib ../campus_materials.mtl
o SD0976_campus_boundary
usemtl campus_boundary
v 15.188 -91.689 0.050
v -3.289 -88.903 0.050
v -65.370 -78.842 0.050
v -106.844 -35.185 0.050
v -102.709 -11.483 0.050
v -97.337 14.292 0.050
v -90.792 42.390 0.050
v -24.422 95.854 0.050
v 26.083 99.053 0.050
v 121.490 83.138 0.050
v 108.112 4.415 0.050
v 31.958 -79.979 0.050
v 15.188 -91.689 0.050
l 1 2 3 4 5 6 7 8 9 10 11 12 13 1
o SD0976_T001_1hao
v 21.097 69.817 0.000
v 19.588 61.129 0.000
v -18.320 67.617 0.000
v -16.820 76.295 0.000
v 21.097 69.817 17.190
v 19.588 61.129 17.190
v -18.320 67.617 17.190
v -16.820 76.295 17.190
usemtl roof
f 18 19 20 21
usemtl teaching_building
f 17 16 15 14
f 14 15 19 18
f 15 16 20 19
f 16 17 21 20
f 17 14 18 21
o SD0976_T002_2hao
v 98.412 66.711 0.000
v 89.369 13.497 0.000
v 81.085 14.901 0.000
v 81.515 17.399 0.000
v 73.524 18.748 0.000
v 68.129 17.101 0.000
v 60.696 17.134 0.000
v 55.128 18.626 0.000
v 46.597 24.374 0.000
v 38.835 25.667 0.000
v 38.405 23.136 0.000
v 31.858 24.230 0.000
v 34.364 39.076 0.000
v 41.175 37.937 0.000
v 40.416 33.449 0.000
v 56.719 30.730 0.000
v 57.642 36.202 0.000
v 67.901 34.488 0.000
v 66.959 28.928 0.000
v 83.490 26.176 0.000
v 84.907 34.577 0.000
v 77.391 35.826 0.000
v 80.957 56.961 0.000
v 47.987 62.455 0.000
v 46.753 55.148 0.000
v 21.737 59.316 0.000
v 25.056 78.948 0.000
v 98.412 66.711 17.190
v 89.369 13.497 17.190
v 81.085 14.901 17.190
v 81.515 17.399 17.190
v 73.524 18.748 17.190
v 68.129 17.101 17.190
v 60.696 17.134 17.190
v 55.128 18.626 17.190
v 46.597 24.374 17.190
v 38.835 25.667 17.190
v 38.405 23.136 17.190
v 31.858 24.230 17.190
v 34.364 39.076 17.190
v 41.175 37.937 17.190
v 40.416 33.449 17.190
v 56.719 30.730 17.190
v 57.642 36.202 17.190
v 67.901 34.488 17.190
v 66.959 28.928 17.190
v 83.490 26.176 17.190
v 84.907 34.577 17.190
v 77.391 35.826 17.190
v 80.957 56.961 17.190
v 47.987 62.455 17.190
v 46.753 55.148 17.190
v 21.737 59.316 17.190
v 25.056 78.948 17.190
usemtl roof
f 49 50 51 52 53 54 55 56 57 58 59 60 61 62 63 64 65 66 67 68 69 70 71 72 73 74 75
usemtl teaching_building
f 48 47 46 45 44 43 42 41 40 39 38 37 36 35 34 33 32 31 30 29 28 27 26 25 24 23 22
f 22 23 50 49
f 23 24 51 50
f 24 25 52 51
f 25 26 53 52
f 26 27 54 53
f 27 28 55 54
f 28 29 56 55
f 29 30 57 56
f 30 31 58 57
f 31 32 59 58
f 32 33 60 59
f 33 34 61 60
f 34 35 62 61
f 35 36 63 62
f 36 37 64 63
f 37 38 65 64
f 38 39 66 65
f 39 40 67 66
f 40 41 68 67
f 41 42 69 68
f 42 43 70 69
f 43 44 71 70
f 44 45 72 71
f 45 46 73 72
f 46 47 74 73
f 47 48 75 74
f 48 22 49 75
o SD0976_T003_3hao
v 29.243 27.436 0.000
v 25.870 7.804 0.000
v 10.847 10.358 0.000
v 11.259 12.723 0.000
v -4.367 15.376 0.000
v -4.705 13.431 0.000
v -15.952 15.332 0.000
v -15.531 17.797 0.000
v -44.195 22.650 0.000
v -41.315 39.396 0.000
v 29.243 27.436 17.190
v 25.870 7.804 17.190
v 10.847 10.358 17.190
v 11.259 12.723 17.190
v -4.367 15.376 17.190
v -4.705 13.431 17.190
v -15.952 15.332 17.190
v -15.531 17.797 17.190
v -44.195 22.650 17.190
v -41.315 39.396 17.190
usemtl roof
f 86 87 88 89 90 91 92 93 94 95
usemtl teaching_building
f 85 84 83 82 81 80 79 78 77 76
f 76 77 87 86
f 77 78 88 87
f 78 79 89 88
f 79 80 90 89
f 80 81 91 90
f 81 82 92 91
f 82 83 93 92
f 83 84 94 93
f 84 85 95 94
f 85 76 86 95
o SD0976_T004_4hao
v -50.504 27.281 0.000
v -52.369 16.658 0.000
v -58.321 17.686 0.000
v -64.475 -17.498 0.000
v -58.358 -18.560 0.000
v -60.872 -32.930 0.000
v -85.412 -28.707 0.000
v -83.063 -15.243 0.000
v -76.928 -16.305 0.000
v -74.724 -3.725 0.000
v -80.036 -2.808 0.000
v -77.805 9.982 0.000
v -70.911 8.788 0.000
v -68.799 20.870 0.000
v -74.505 21.854 0.000
v -72.877 31.139 0.000
v -50.504 27.281 17.190
v -52.369 16.658 17.190
v -58.321 17.686 17.190
v -64.475 -17.498 17.190
v -58.358 -18.560 17.190
v -60.872 -32.930 17.190
v -85.412 -28.707 17.190
v -83.063 -15.243 17.190
v -76.928 -16.305 17.190
v -74.724 -3.725 17.190
v -80.036 -2.808 17.190
v -77.805 9.982 17.190
v -70.911 8.788 17.190
v -68.799 20.870 17.190
v -74.505 21.854 17.190
v -72.877 31.139 17.190
usemtl roof
f 112 113 114 115 116 117 118 119 120 121 122 123 124 125 126 127
usemtl teaching_building
f 111 110 109 108 107 106 105 104 103 102 101 100 99 98 97 96
f 96 97 113 112
f 97 98 114 113
f 98 99 115 114
f 99 100 116 115
f 100 101 117 116
f 101 102 118 117
f 102 103 119 118
f 103 104 120 119
f 104 105 121 120
f 105 106 122 121
f 106 107 123 122
f 107 108 124 123
f 108 109 125 124
f 109 110 126 125
f 110 111 127 126
f 111 96 112 127
o SD0976_T005_5hao
v -52.762 -40.900 0.000
v -51.491 -32.576 0.000
v -41.297 -34.113 0.000
v -42.558 -42.326 0.000
v -24.592 -45.034 0.000
v -23.458 -37.628 0.000
v -14.543 -38.976 0.000
v -15.732 -46.781 0.000
v 2.499 -49.533 0.000
v 3.725 -41.541 0.000
v 15.062 -43.243 0.000
v 13.846 -51.191 0.000
v 20.576 -52.208 0.000
v 18.637 -64.887 0.000
v 11.341 -63.793 0.000
v 10.280 -70.723 0.000
v -0.198 -69.143 0.000
v 0.872 -62.168 0.000
v -17.369 -59.426 0.000
v -18.329 -65.705 0.000
v -27.719 -64.290 0.000
v -26.786 -58.177 0.000
v -45.082 -55.425 0.000
v -46.033 -61.604 0.000
v -55.514 -60.178 0.000
v -54.481 -53.424 0.000
v -63.167 -52.109 0.000
v -61.256 -39.618 0.000
v -52.762 -40.900 17.190
v -51.491 -32.576 17.190
v -41.297 -34.113 17.190
v -42.558 -42.326 17.190
v -24.592 -45.034 17.190
v -23.458 -37.628 17.190
v -14.543 -38.976 17.190
v -15.732 -46.781 17.190
v 2.499 -49.533 17.190
v 3.725 -41.541 17.190
v 15.062 -43.243 17.190
v 13.846 -51.191 17.190
v 20.576 -52.208 17.190
v 18.637 -64.887 17.190
v 11.341 -63.793 17.190
v 10.280 -70.723 17.190
v -0.198 -69.143 17.190
v 0.872 -62.168 17.190
v -17.369 -59.426 17.190
v -18.329 -65.705 17.190
v -27.719 -64.290 17.190
v -26.786 -58.177 17.190
v -45.082 -55.425 17.190
v -46.033 -61.604 17.190
v -55.514 -60.178 17.190
v -54.481 -53.424 17.190
v -63.167 -52.109 17.190
v -61.256 -39.618 17.190
usemtl roof
f 156 157 158 159 160 161 162 163 164 165 166 167 168 169 170 171 172 173 174 175 176 177 178 179 180 181 182 183
usemtl teaching_building
f 155 154 153 152 151 150 149 148 147 146 145 144 143 142 141 140 139 138 137 136 135 134 133 132 131 130 129 128
f 128 129 157 156
f 129 130 158 157
f 130 131 159 158
f 131 132 160 159
f 132 133 161 160
f 133 134 162 161
f 134 135 163 162
f 135 136 164 163
f 136 137 165 164
f 137 138 166 165
f 138 139 167 166
f 139 140 168 167
f 140 141 169 168
f 141 142 170 169
f 142 143 171 170
f 143 144 172 171
f 144 145 173 172
f 145 146 174 173
f 146 147 175 174
f 147 148 176 175
f 148 149 177 176
f 149 150 178 177
f 150 151 179 178
f 151 152 180 179
f 152 153 181 180
f 153 154 182 181
f 154 155 183 182
f 155 128 156 183
