# school_id SD0999
# school_name 菏泽一中附属初中;菏泽市兴仓路小学
# boundary_source footprint_convex_hull_buffer_20m
# adjacent_block_merge_distance_m 2.0
mtllib ../campus_materials.mtl
o SD0999_campus_boundary
usemtl campus_boundary
v 34.531 -52.410 0.050
v -41.450 -47.218 0.050
v -34.531 52.410 0.050
v 41.450 47.218 0.050
v 34.531 -52.410 0.050
l 1 2 3 4 5 1
o SD0999_T001_1hao
v 15.963 -31.095 0.000
v 20.111 28.630 0.000
v -15.963 31.095 0.000
v -20.111 -28.630 0.000
v 15.963 -31.095 9.900
v 20.111 28.630 9.900
v -15.963 31.095 9.900
v -20.111 -28.630 9.900
usemtl roof
f 10 11 12 13
usemtl teaching_building
f 9 8 7 6
f 6 7 11 10
f 7 8 12 11
f 8 9 13 12
f 9 6 10 13
