# school_id SD0981
# school_name 山东省菏泽第一中学实验中学
# boundary_source footprint_convex_hull_buffer_20m
# adjacent_block_merge_distance_m 2.0
mtllib ../campus_materials.mtl
o SD0981_campus_boundary
usemtl campus_boundary
v -17.596 -108.339 0.050
v -95.735 -104.365 0.050
v -116.209 -96.881 0.050
v -112.725 -31.121 0.050
v 11.957 129.643 0.050
v 94.371 125.528 0.050
v 96.783 93.415 0.050
v 94.917 53.893 0.050
v 94.398 43.858 0.050
v 89.962 26.733 0.050
v -7.881 -99.586 0.050
v -17.596 -108.339 0.050
l 1 2 3 4 5 6 7 8 9 10 11 12 1
o SD0981_T001_1hao
v 18.231 51.416 0.000
v 17.568 38.426 0.000
v 71.632 35.729 0.000
v 72.203 47.024 0.000
v 74.529 46.913 0.000
v 74.941 54.881 0.000
v 73.065 54.983 0.000
v 73.423 62.006 0.000
v 74.963 61.923 0.000
v 75.840 79.165 0.000
v 72.890 79.323 0.000
v 73.248 86.290 0.000
v 76.397 86.133 0.000
v 76.748 93.137 0.000
v 75.085 93.221 0.000
v 75.749 106.433 0.000
v 21.372 109.148 0.000
v 20.709 96.149 0.000
v 19.047 96.223 0.000
v 18.749 90.488 0.000
v 20.236 90.413 0.000
v 18.582 57.744 0.000
v 16.958 57.836 0.000
v 16.645 51.490 0.000
v 18.231 51.416 9.900
v 17.568 38.426 9.900
v 71.632 35.729 9.900
v 72.203 47.024 9.900
v 74.529 46.913 9.900
v 74.941 54.881 9.900
v 73.065 54.983 9.900
v 73.423 62.006 9.900
v 74.963 61.923 9.900
v 75.840 79.165 9.900
v 72.890 79.323 9.900
v 73.248 86.290 9.900
v 76.397 86.133 9.900
v 76.748 93.137 9.900
v 75.085 93.221 9.900
v 75.749 106.433 9.900
v 21.372 109.148 9.900
v 20.709 96.149 9.900
v 19.047 96.223 9.900
v 18.749 90.488 9.900
v 20.236 90.413 9.900
v 18.582 57.744 9.900
v 16.958 57.836 9.900
v 16.645 51.490 9.900
usemtl roof
f 37 38 39 40 41 42 43 44 45 46 47 48 49 50 51 52 53 54 55 56 57 58 59 60
usemtl teaching_building
f 36 35 34 33 32 31 30 29 28 27 26 25 24 23 22 21 20 19 18 17 16 15 14 13
f 13 14 38 37
f 14 15 39 38
f 15 16 40 39
f 16 17 41 40
f 17 18 42 41
f 18 19 43 42
f 19 20 44 43
f 20 21 45 44
f 21 22 46 45
f 22 23 47 46
f 23 24 48 47
f 24 25 49 48
f 25 26 50 49
f 26 27 51 50
f 27 28 52 51
f 28 29 53 52
f 29 30 54 53
f 30 31 55 54
f 31 32 56 55
f 32 33 57 56
f 33 34 58 57
f 34 35 59 58
f 35 36 60 59
f 36 13 37 60
o SD0981_T002_2hao
v -91.704 -84.544 0.000
v -24.839 -87.945 0.000
v -22.597 -85.925 0.000
v -21.873 -75.057 0.000
v -23.848 -72.045 0.000
v -37.945 -71.202 0.000
v -37.091 -54.914 0.000
v -22.010 -55.053 0.000
v -20.714 -52.912 0.000
v -20.424 -41.896 0.000
v -23.123 -39.366 0.000
v -88.738 -35.280 0.000
v -91.041 -35.947 0.000
v -93.084 -38.431 0.000
v -95.455 -83.173 0.000
v -91.704 -84.544 9.900
v -24.839 -87.945 9.900
v -22.597 -85.925 9.900
v -21.873 -75.057 9.900
v -23.848 -72.045 9.900
v -37.945 -71.202 9.900
v -37.091 -54.914 9.900
v -22.010 -55.053 9.900
v -20.714 -52.912 9.900
v -20.424 -41.896 9.900
v -23.123 -39.366 9.900
v -88.738 -35.280 9.900
v -91.041 -35.947 9.900
v -93.084 -38.431 9.900
v -95.455 -83.173 9.900
usemtl roof
f 76 77 78 79 80 81 82 83 84 85 86 87 88 89 90
usemtl teaching_building
f 75 74 73 72 71 70 69 68 67 66 65 64 63 62 61
f 61 62 77 76
f 62 63 78 77
f 63 64 79 78
f 64 65 80 79
f 65 66 81 80
f 66 67 82 81
f 67 68 83 82
f 68 69 84 83
f 69 70 85 84
f 70 71 86 85
f 71 72 87 86
f 72 73 88 87
f 73 74 89 88
f 74 75 90 89
f 75 61 76 90
