# school_id SD0947
# school_name 滨州市沾化区第三实验学校（有光伏）
# boundary_source footprint_convex_hull_buffer_20m
# adjacent_block_merge_distance_m 2.0
mtllib ../campus_materials.mtl
o SD0947_campus_boundary
usemtl campus_boundary
v 95.091 -94.013 0.050
v -98.630 -90.294 0.050
v -97.305 -21.273 0.050
v -95.091 94.013 0.050
v -26.070 92.688 0.050
v 98.630 90.294 0.050
v 97.305 21.273 0.050
v 95.091 -94.013 0.050
l 1 2 3 4 5 6 7 8 1
o SD0947_T001_1hao
v -77.309 -21.657 0.000
v -75.479 73.633 0.000
v -26.454 72.692 0.000
v -26.454 72.692 0.000
v 78.250 70.682 0.000
v 77.309 21.657 0.000
v -27.395 23.667 0.000
v -28.284 -22.598 0.000
v 76.420 -24.608 0.000
v 75.479 -73.633 0.000
v -78.250 -70.682 0.000
v -77.309 -21.657 0.000
v -77.309 -21.657 17.330
v -75.479 73.633 17.330
v -26.454 72.692 17.330
v -26.454 72.692 17.330
v 78.250 70.682 17.330
v 77.309 21.657 17.330
v -27.395 23.667 17.330
v -28.284 -22.598 17.330
v 76.420 -24.608 17.330
v 75.479 -73.633 17.330
v -78.250 -70.682 17.330
v -77.309 -21.657 17.330
usemtl roof
f 21 22 23 24 25 26 27 28 29 30 31 32
usemtl teaching_building
f 20 19 18 17 16 15 14 13 12 11 10 9
f 9 10 22 21
f 10 11 23 22
f 11 12 24 23
f 12 13 25 24
f 13 14 26 25
f 14 15 27 26
f 15 16 28 27
f 16 17 29 28
f 17 18 30 29
f 18 19 31 30
f 19 20 32 31
f 20 9 21 32
