# school_id SD0951
# school_name 邹平市黄山实验小学
# boundary_source footprint_convex_hull_buffer_20m
# adjacent_block_merge_distance_m 2.0
mtllib ../campus_materials.mtl
o SD0951_campus_boundary
usemtl campus_boundary
v 92.706 -118.625 0.050
v 2.044 -117.320 0.050
v -95.278 -115.877 0.050
v -101.116 48.318 0.050
v -100.949 91.299 0.050
v -95.432 138.193 0.050
v -38.381 172.097 0.050
v 36.539 172.149 0.050
v 93.724 135.287 0.050
v 93.620 -53.175 0.050
v 93.226 -83.583 0.050
v 92.706 -118.625 0.050
l 1 2 3 4 5 6 7 8 9 10 11 12 1
o SD0951_T001_1hao
v -32.871 140.792 0.000
v 30.667 140.848 0.000
v 30.658 152.145 0.000
v -32.880 152.101 0.000
v -32.871 140.792 18.250
v 30.667 140.848 18.250
v 30.658 152.145 18.250
v -32.880 152.101 18.250
usemtl roof
f 17 18 19 20
usemtl teaching_building
f 16 15 14 13
f 13 14 18 17
f 14 15 19 18
f 15 16 20 19
f 16 13 17 20
o SD0951_T002_2hao
v -76.723 126.046 0.000
v -14.067 125.383 0.000
v -14.192 114.230 0.000
v -76.848 114.893 0.000
v -76.723 126.046 15.860
v -14.067 125.383 15.860
v -14.192 114.230 15.860
v -76.848 114.893 15.860
usemtl roof
f 25 26 27 28
usemtl teaching_building
f 24 23 22 21
f 21 22 26 25
f 22 23 27 26
f 23 24 28 27
f 24 21 25 28
o SD0951_T003_3hao
v 11.204 125.162 0.000
v 73.718 124.388 0.000
v 73.575 113.378 0.000
v 11.061 114.141 0.000
v 11.204 125.162 12.630
v 73.718 124.388 12.630
v 73.575 113.378 12.630
v 11.061 114.141 12.630
usemtl roof
f 33 34 35 36
usemtl teaching_building
f 32 31 30 29
f 29 30 34 33
f 30 31 35 34
f 31 32 36 35
f 32 29 33 36
o SD0951_T004_4hao
v -32.247 97.814 0.000
v 33.348 97.516 0.000
v 33.099 42.732 0.000
v -32.497 43.031 0.000
v -32.247 97.814 12.690
v 33.348 97.516 12.690
v 33.099 42.732 12.690
v -32.497 43.031 12.690
usemtl roof
f 41 42 43 44
usemtl teaching_building
f 40 39 38 37
f 37 38 42 41
f 38 39 43 42
f 39 40 44 43
f 40 37 41 44
o SD0951_T005_5hao
v -81.115 48.635 0.000
v -56.156 48.536 0.000
v -55.995 89.988 0.000
v -80.954 90.088 0.000
v -81.115 48.635 9.770
v -56.156 48.536 9.770
v -55.995 89.988 9.770
v -80.954 90.088 9.770
usemtl roof
f 49 50 51 52
usemtl teaching_building
f 48 47 46 45
f 45 46 50 49
f 46 47 51 50
f 47 48 52 51
f 48 45 49 52
o SD0951_T006_6hao
v -77.338 13.771 0.000
v -14.281 13.760 0.000
v -14.281 26.096 0.000
v -77.338 26.096 0.000
v -77.338 13.771 14.440
v -14.281 13.760 14.440
v -14.281 26.096 14.440
v -77.338 26.096 14.440
usemtl roof
f 57 58 59 60
usemtl teaching_building
f 56 55 54 53
f 53 54 58 57
f 54 55 59 58
f 55 56 60 59
f 56 53 57 60
o SD0951_T007_7hao
v 10.277 25.355 0.000
v 73.049 24.659 0.000
v 72.934 13.826 0.000
v 10.153 14.522 0.000
v 10.277 25.355 11.200
v 73.049 24.659 11.200
v 72.934 13.826 11.200
v 10.153 14.522 11.200
usemtl roof
f 65 66 67 68
usemtl teaching_building
f 64 63 62 61
f 61 62 66 65
f 62 63 67 66
f 63 64 68 67
f 64 61 65 68
o SD0951_T008_8hao
v -33.815 -1.351 0.000
v 29.750 -1.638 0.000
v 29.705 -12.505 0.000
v -33.860 -12.206 0.000
v -33.815 -1.351 11.190
v 29.750 -1.638 11.190
v 29.705 -12.505 11.190
v -33.860 -12.206 11.190
usemtl roof
f 73 74 75 76
usemtl teaching_building
f 72 71 70 69
f 69 70 74 73
f 70 71 75 74
f 71 72 76 75
f 72 69 73 76
o SD0951_T009_9hao
v -76.118 -62.424 0.000
v -27.126 -63.032 0.000
v -26.805 -37.531 0.000
v -75.788 -36.923 0.000
v -76.118 -62.424 9.590
v -27.126 -63.032 9.590
v -26.805 -37.531 9.590
v -75.788 -36.923 9.590
usemtl roof
f 81 82 83 84
usemtl teaching_building
f 80 79 78 77
f 77 78 82 81
f 78 79 83 82
f 79 80 84 83
f 80 77 81 84
o SD0951_T010_10hao
v 4.354 -70.295 0.000
v -1.133 -66.791 0.000
v -3.298 -60.678 0.000
v -1.222 -54.532 0.000
v 1.192 -52.299 0.000
v 7.507 -50.663 0.000
v 12.104 -52.332 0.000
v 11.943 -41.234 0.000
v 63.990 -41.798 0.000
v 63.937 -39.388 0.000
v 73.522 -39.355 0.000
v 73.620 -53.040 0.000
v 68.827 -52.973 0.000
v 69.005 -61.883 0.000
v 16.709 -61.186 0.000
v 15.622 -65.287 0.000
v 10.856 -69.709 0.000
v 4.354 -70.295 9.720
v -1.133 -66.791 9.720
v -3.298 -60.678 9.720
v -1.222 -54.532 9.720
v 1.192 -52.299 9.720
v 7.507 -50.663 9.720
v 12.104 -52.332 9.720
v 11.943 -41.234 9.720
v 63.990 -41.798 9.720
v 63.937 -39.388 9.720
v 73.522 -39.355 9.720
v 73.620 -53.040 9.720
v 68.827 -52.973 9.720
v 69.005 -61.883 9.720
v 16.709 -61.186 9.720
v 15.622 -65.287 9.720
v 10.856 -69.709 9.720
usemtl roof
f 102 103 104 105 106 107 108 109 110 111 112 113 114 115 116 117 118
usemtl teaching_building
f 101 100 99 98 97 96 95 94 93 92 91 90 89 88 87 86 85
f 85 86 103 102
f 86 87 104 103
f 87 88 105 104
f 88 89 106 105
f 89 90 107 106
f 90 91 108 107
f 91 92 109 108
f 92 93 110 109
f 93 94 111 110
f 94 95 112 111
f 95 96 113 112
f 96 97 114 113
f 97 98 115 114
f 98 99 116 115
f 99 100 117 116
f 100 101 118 117
f 101 85 102 118
o SD0951_T011_11hao
v -75.832 -79.215 0.000
v -20.872 -79.658 0.000
v -21.006 -96.592 0.000
v -75.966 -96.161 0.000
v -75.832 -79.215 10.040
v -20.872 -79.658 10.040
v -21.006 -96.592 10.040
v -75.966 -96.161 10.040
usemtl roof
f 123 124 125 126
usemtl teaching_building
f 122 121 120 119
f 119 120 124 123
f 120 121 125 124
f 121 122 126 125
f 122 119 123 126
o SD0951_T012_12hao
v 2.501 -86.168 0.000
v 11.061 -86.290 0.000
v 11.124 -82.388 0.000
v 73.228 -83.305 0.000
v 73.005 -98.339 0.000
v 2.332 -97.322 0.000
v 2.501 -86.168 11.910
v 11.061 -86.290 11.910
v 11.124 -82.388 11.910
v 73.228 -83.305 11.910
v 73.005 -98.339 11.910
v 2.332 -97.322 11.910
usemtl roof
f 133 134 135 136 137 138
usemtl teaching_building
f 132 131 130 129 128 127
f 127 128 134 133
f 128 129 135 134
f 129 130 136 135
f 130 131 137 136
f 131 132 138 137
f 132 127 133 138
