# school_id SD0930
# school_name 实验小学
# boundary_source footprint_convex_hull_buffer_20m
# adjacent_block_merge_distance_m 2.0
mtllib ../campus_materials.mtl
o SD0930_campus_boundary
usemtl campus_boundary
v 51.687 -39.451 0.050
v -53.743 -36.661 0.050
v -51.687 39.451 0.050
v 53.743 36.661 0.050
v 51.687 -39.451 0.050
l 1 2 3 4 5 1
o SD0930_T001_1hao
v 32.234 -18.929 0.000
v 33.210 17.197 0.000
v -32.234 18.929 0.000
v -33.210 -17.197 0.000
v 32.234 -18.929 9.900
v 33.210 17.197 9.900
v -32.234 18.929 9.900
v -33.210 -17.197 9.900
usemtl roof
f 10 11 12 13
usemtl teaching_building
f 9 8 7 6
f 6 7 11 10
f 7 8 12 11
f 8 9 13 12
f 9 6 10 13
