# school_id SD0921
# school_name 临清市尚店镇中学
# boundary_source footprint_convex_hull_buffer_20m
# adjacent_block_merge_distance_m 2.0
mtllib ../campus_materials.mtl
o SD0921_campus_boundary
usemtl campus_boundary
v 77.478 -127.317 0.050
v 5.261 -114.733 0.050
v -89.942 -37.053 0.050
v -76.953 65.247 0.050
v -71.564 93.090 0.050
v -23.295 83.865 0.050
v 16.149 76.061 0.050
v 42.703 69.885 0.050
v 110.786 43.860 0.050
v 104.997 13.955 0.050
v 77.478 -127.317 0.050
l 1 2 3 4 5 6 7 8 9 10 11 1
o SD0921_T001_1hao
v 74.953 -21.564 0.000
v 78.543 -3.024 0.000
v 31.276 6.010 0.000
v 27.678 -12.530 0.000
v 74.953 -21.564 4.950
v 78.543 -3.024 4.950
v 31.276 6.010 4.950
v 27.678 -12.530 4.950
usemtl roof
f 16 17 18 19
usemtl teaching_building
f 15 14 13 12
f 12 13 17 16
f 13 14 18 17
f 14 15 19 18
f 15 12 16 19
