# school_id SD0964
# school_name 单县慧光初级中学
# boundary_source footprint_convex_hull_buffer_20m
# adjacent_block_merge_distance_m 2.0
mtllib ../campus_materials.mtl
o SD0964_campus_boundary
usemtl campus_boundary
v 135.418 -133.018 0.050
v 123.523 -132.781 0.050
v -90.989 -127.956 0.050
v -124.501 -88.036 0.050
v -145.465 -51.860 0.050
v -145.536 -22.965 0.050
v -121.150 22.939 0.050
v -24.158 180.190 0.050
v 12.931 237.267 0.050
v 71.889 237.195 0.050
v 102.859 176.788 0.050
v 177.024 -102.701 0.050
v 176.907 -130.554 0.050
v 135.418 -133.018 0.050
l 1 2 3 4 5 6 7 8 9 10 11 12 13 14 1
o SD0964_T001_1hao
v 59.660 217.210 0.000
v 59.641 200.187 0.000
v 23.760 200.242 0.000
v 23.778 217.254 0.000
v 59.660 217.210 9.280
v 59.641 200.187 9.280
v 23.760 200.242 9.280
v 23.778 217.254 9.280
usemtl roof
f 19 20 21 22
usemtl teaching_building
f 18 17 16 15
f 15 16 20 19
f 16 17 21 20
f 17 18 22 21
f 18 15 19 22
o SD0964_T002_2hao
v 84.080 169.578 0.000
v 84.062 152.555 0.000
v 48.181 152.610 0.000
v 48.199 169.622 0.000
v 84.080 169.578 9.000
v 84.062 152.555 9.000
v 48.181 152.610 9.000
v 48.199 169.622 9.000
usemtl roof
f 27 28 29 30
usemtl teaching_building
f 26 25 24 23
f 23 24 28 27
f 24 25 29 28
f 25 26 30 29
f 26 23 27 30
o SD0964_T003_3hao
v 28.622 169.446 0.000
v 28.595 152.422 0.000
v -7.287 152.467 0.000
v -7.259 169.490 0.000
v 28.622 169.446 9.890
v 28.595 152.422 9.890
v -7.287 152.467 9.890
v -7.259 169.490 9.890
usemtl roof
f 35 36 37 38
usemtl teaching_building
f 34 33 32 31
f 31 32 36 35
f 32 33 37 36
f 33 34 38 37
f 34 31 35 38
o SD0964_T004_4hao
v 83.980 131.718 0.000
v 83.916 91.692 0.000
v 26.895 91.791 0.000
v 26.922 106.703 0.000
v 24.354 106.714 0.000
v 24.363 116.254 0.000
v 26.977 116.243 0.000
v 26.995 131.807 0.000
v 83.980 131.718 8.520
v 83.916 91.692 8.520
v 26.895 91.791 8.520
v 26.922 106.703 8.520
v 24.354 106.714 8.520
v 24.363 116.254 8.520
v 26.977 116.243 8.520
v 26.995 131.807 8.520
usemtl roof
f 47 48 49 50 51 52 53 54
usemtl teaching_building
f 46 45 44 43 42 41 40 39
f 39 40 48 47
f 40 41 49 48
f 41 42 50 49
f 42 43 51 50
f 43 44 52 51
f 44 45 53 52
f 45 46 54 53
f 46 39 47 54
o SD0964_T005_5hao
v 53.006 44.469 0.000
v 53.024 32.962 0.000
v 29.591 32.929 0.000
v 29.573 46.426 0.000
v 35.979 46.437 0.000
v 35.952 66.245 0.000
v 60.117 66.279 0.000
v 60.144 44.480 0.000
v 53.006 44.469 9.760
v 53.024 32.962 9.760
v 29.591 32.929 9.760
v 29.573 46.426 9.760
v 35.979 46.437 9.760
v 35.952 66.245 9.760
v 60.117 66.279 9.760
v 60.144 44.480 9.760
usemtl roof
f 63 64 65 66 67 68 69 70
usemtl teaching_building
f 62 61 60 59 58 57 56 55
f 55 56 64 63
f 56 57 65 64
f 57 58 66 65
f 58 59 67 66
f 59 60 68 67
f 60 61 69 68
f 61 62 70 69
f 62 55 63 70
o SD0964_T006_6hao
v 53.134 -0.465 0.000
v 17.902 -0.687 0.000
v 17.929 -5.031 0.000
v 21.941 -5.009 0.000
v 22.033 -19.943 0.000
v 17.902 -19.965 0.000
v 17.929 -24.663 0.000
v 53.116 -24.442 0.000
v 53.107 -37.872 0.000
v 5.362 -38.171 0.000
v 5.024 13.816 0.000
v 53.152 14.126 0.000
v 53.134 -0.465 14.430
v 17.902 -0.687 14.430
v 17.929 -5.031 14.430
v 21.941 -5.009 14.430
v 22.033 -19.943 14.430
v 17.902 -19.965 14.430
v 17.929 -24.663 14.430
v 53.116 -24.442 14.430
v 53.107 -37.872 14.430
v 5.362 -38.171 14.430
v 5.024 13.816 14.430
v 53.152 14.126 14.430
usemtl roof
f 83 84 85 86 87 88 89 90 91 92 93 94
usemtl teaching_building
f 82 81 80 79 78 77 76 75 74 73 72 71
f 71 72 84 83
f 72 73 85 84
f 73 74 86 85
f 74 75 87 86
f 75 76 88 87
f 76 77 89 88
f 77 78 90 89
f 78 79 91 90
f 79 80 92 91
f 80 81 93 92
f 81 82 94 93
f 82 71 83 94
o SD0964_T007_7hao
v -21.965 13.131 0.000
v -21.937 2.829 0.000
v -16.728 2.840 0.000
v -16.700 -9.640 0.000
v -45.462 -9.696 0.000
v -45.471 -6.943 0.000
v -59.071 -6.976 0.000
v -59.025 -23.856 0.000
v -19.945 -23.756 0.000
v -19.927 -27.205 0.000
v -15.768 -27.194 0.000
v -15.704 -46.428 0.000
v -27.713 -46.461 0.000
v -27.741 -38.911 0.000
v -64.043 -39.033 0.000
v -64.034 -41.188 0.000
v -58.833 -41.177 0.000
v -58.797 -51.237 0.000
v -68.603 -51.270 0.000
v -68.585 -54.719 0.000
v -58.678 -54.685 0.000
v -58.641 -63.075 0.000
v -34.467 -62.987 0.000
v -34.413 -76.219 0.000
v -108.067 -76.506 0.000
v -108.122 -62.224 0.000
v -82.742 -62.136 0.000
v -82.769 -54.542 0.000
v -73.785 -54.508 0.000
v -73.794 -51.270 0.000
v -81.581 -51.292 0.000
v -81.618 -41.133 0.000
v -76.637 -41.111 0.000
v -76.646 -38.060 0.000
v -113.999 -38.160 0.000
v -113.981 -46.428 0.000
v -125.478 -46.461 0.000
v -125.524 -27.924 0.000
v -120.150 -27.913 0.000
v -120.159 -24.287 0.000
v -65.158 -24.176 0.000
v -65.167 -18.937 0.000
v -67.260 -18.937 0.000
v -67.269 -11.741 0.000
v -64.847 -11.741 0.000
v -64.865 0.120 0.000
v -103.763 0.054 0.000
v -103.790 12.987 0.000
v -21.965 13.131 9.800
v -21.937 2.829 9.800
v -16.728 2.840 9.800
v -16.700 -9.640 9.800
v -45.462 -9.696 9.800
v -45.471 -6.943 9.800
v -59.071 -6.976 9.800
v -59.025 -23.856 9.800
v -19.945 -23.756 9.800
v -19.927 -27.205 9.800
v -15.768 -27.194 9.800
v -15.704 -46.428 9.800
v -27.713 -46.461 9.800
v -27.741 -38.911 9.800
v -64.043 -39.033 9.800
v -64.034 -41.188 9.800
v -58.833 -41.177 9.800
v -58.797 -51.237 9.800
v -68.603 -51.270 9.800
v -68.585 -54.719 9.800
v -58.678 -54.685 9.800
v -58.641 -63.075 9.800
v -34.467 -62.987 9.800
v -34.413 -76.219 9.800
v -108.067 -76.506 9.800
v -108.122 -62.224 9.800
v -82.742 -62.136 9.800
v -82.769 -54.542 9.800
v -73.785 -54.508 9.800
v -73.794 -51.270 9.800
v -81.581 -51.292 9.800
v -81.618 -41.133 9.800
v -76.637 -41.111 9.800
v -76.646 -38.060 9.800
v -113.999 -38.160 9.800
v -113.981 -46.428 9.800
v -125.478 -46.461 9.800
v -125.524 -27.924 9.800
v -120.150 -27.913 9.800
v -120.159 -24.287 9.800
v -65.158 -24.176 9.800
v -65.167 -18.937 9.800
v -67.260 -18.937 9.800
v -67.269 -11.741 9.800
v -64.847 -11.741 9.800
v -64.865 0.120 9.800
v -103.763 0.054 9.800
v -103.790 12.987 9.800
usemtl roof
f 143 144 145 146 147 148 149 150 151 152 153 154 155 156 157 158 159 160 161 162 163 164 165 166 167 168 169 170 171 172 173 174 175 176 177 178 179 180 181 182 183 184 185 186 187 188 189 190
usemtl teaching_building
f 142 141 140 139 138 137 136 135 134 133 132 131 130 129 128 127 126 125 124 123 122 121 120 119 118 117 116 115 114 113 112 111 110 109 108 107 106 105 104 103 102 101 100 99 98 97 96 95
f 95 96 144 143
f 96 97 145 144
f 97 98 146 145
f 98 99 147 146
f 99 100 148 147
f 100 101 149 148
f 101 102 150 149
f 102 103 151 150
f 103 104 152 151
f 104 105 153 152
f 105 106 154 153
f 106 107 155 154
f 107 108 156 155
f 108 109 157 156
f 109 110 158 157
f 110 111 159 158
f 111 112 160 159
f 112 113 161 160
f 113 114 162 161
f 114 115 163 162
f 115 116 164 163
f 116 117 165 164
f 117 118 166 165
f 118 119 167 166
f 119 120 168 167
f 120 121 169 168
f 121 122 170 169
f 122 123 171 170
f 123 124 172 171
f 124 125 173 172
f 125 126 174 173
f 126 127 175 174
f 127 128 176 175
f 128 129 177 176
f 129 130 178 177
f 130 131 179 178
f 131 132 180 179
f 132 133 181 180
f 133 134 182 181
f 134 135 183 182
f 135 136 184 183
f 136 137 185 184
f 137 138 186 185
f 138 139 187 186
f 139 140 188 187
f 140 141 189 188
f 141 142 190 189
f 142 95 143 190
o SD0964_T008_8hao
v 108.775 -38.712 0.000
v 108.793 -46.240 0.000
v 101.537 -46.251 0.000
v 101.555 -54.531 0.000
v 109.086 -54.508 0.000
v 109.104 -61.970 0.000
v 62.703 -62.080 0.000
v 62.648 -38.823 0.000
v 108.775 -38.712 11.220
v 108.793 -46.240 11.220
v 101.537 -46.251 11.220
v 101.555 -54.531 11.220
v 109.086 -54.508 11.220
v 109.104 -61.970 11.220
v 62.703 -62.080 11.220
v 62.648 -38.823 11.220
usemtl roof
f 199 200 201 202 203 204 205 206
usemtl teaching_building
f 198 197 196 195 194 193 192 191
f 191 192 200 199
f 192 193 201 200
f 193 194 202 201
f 194 195 203 202
f 195 196 204 203
f 196 197 205 204
f 197 198 206 205
f 198 191 199 206
