# school_id SD0928
# school_name 华昌中学
# boundary_source footprint_convex_hull_buffer_20m
# adjacent_block_merge_distance_m 2.0
mtllib ../campus_materials.mtl
o SD0928_campus_boundary
usemtl campus_boundary
v 80.906 -59.073 0.050
v 12.595 -59.001 0.050
v -68.190 -57.663 0.050
v -98.885 -39.805 0.050
v -96.985 43.417 0.050
v -96.030 78.926 0.050
v -6.169 85.267 0.050
v 91.195 79.762 0.050
v 93.382 28.277 0.050
v 92.562 -0.135 0.050
v 80.906 -59.073 0.050
l 1 2 3 4 5 6 7 8 9 10 11 1
o SD0928_T001_1hao
v -6.620 55.057 0.000
v 71.400 50.658 0.000
v 71.982 60.816 0.000
v -6.029 65.227 0.000
v -6.620 55.057 14.540
v 71.400 50.658 14.540
v 71.982 60.816 14.540
v -6.029 65.227 14.540
usemtl roof
f 16 17 18 19
usemtl teaching_building
f 15 14 13 12
f 12 13 17 16
f 13 14 18 17
f 14 15 19 18
f 15 12 16 19
o SD0928_T002_2hao
v -76.991 42.920 0.000
v -23.968 41.505 0.000
v -23.503 58.849 0.000
v -76.525 60.253 0.000
v -76.991 42.920 13.580
v -23.968 41.505 13.580
v -23.503 58.849 13.580
v -76.525 60.253 13.580
usemtl roof
f 24 25 26 27
usemtl teaching_building
f 23 22 21 20
f 20 21 25 24
f 21 22 26 25
f 22 23 27 26
f 23 20 24 27
o SD0928_T003_3hao
v -68.957 19.950 0.000
v -25.482 18.247 0.000
v -25.034 29.688 0.000
v -68.500 31.380 0.000
v -68.957 19.950 9.900
v -25.482 18.247 9.900
v -25.034 29.688 9.900
v -68.500 31.380 9.900
usemtl roof
f 32 33 34 35
usemtl teaching_building
f 31 30 29 28
f 28 29 33 32
f 29 30 34 33
f 30 31 35 34
f 31 28 32 35
o SD0928_T004_4hao
v 73.370 28.141 0.000
v 72.618 2.109 0.000
v 63.456 2.363 0.000
v 63.957 20.071 0.000
v -3.019 21.962 0.000
v -3.548 3.402 0.000
v -11.564 3.623 0.000
v -10.784 30.528 0.000
v 73.370 28.141 14.400
v 72.618 2.109 14.400
v 63.456 2.363 14.400
v 63.957 20.071 14.400
v -3.019 21.962 14.400
v -3.548 3.402 14.400
v -11.564 3.623 14.400
v -10.784 30.528 14.400
usemtl roof
f 44 45 46 47 48 49 50 51
usemtl teaching_building
f 43 42 41 40 39 38 37 36
f 36 37 45 44
f 37 38 46 45
f 38 39 47 46
f 39 40 48 47
f 40 41 49 48
f 41 42 50 49
f 42 43 51 50
f 43 36 44 51
o SD0928_T005_5hao
v -78.621 -28.456 0.000
v -77.913 -6.889 0.000
v -26.566 -8.558 0.000
v -27.273 -30.147 0.000
v -78.621 -28.456 9.180
v -77.913 -6.889 9.180
v -26.566 -8.558 9.180
v -27.273 -30.147 9.180
usemtl roof
f 56 57 58 59
usemtl teaching_building
f 55 54 53 52
f 52 53 57 56
f 53 54 58 57
f 54 55 59 58
f 55 52 56 59
o SD0928_T005_5hao_seg02
v -12.038 -38.471 0.000
v -62.642 -37.752 0.000
v -62.535 -30.269 0.000
v -11.922 -30.987 0.000
v -12.038 -38.471 9.180
v -62.642 -37.752 9.180
v -62.535 -30.269 9.180
v -11.922 -30.987 9.180
usemtl roof
f 64 65 66 67
usemtl teaching_building
f 63 62 61 60
f 60 61 65 64
f 61 62 66 65
f 62 63 67 66
f 63 60 64 67
o SD0928_T005_5hao_seg03
v 13.058 -29.451 0.000
v 12.771 -39.001 0.000
v -12.038 -38.471 0.000
v -11.832 -28.699 0.000
v 13.058 -29.451 9.180
v 12.771 -39.001 9.180
v -12.038 -38.471 9.180
v -11.832 -28.699 9.180
usemtl roof
f 72 73 74 75
usemtl teaching_building
f 71 70 69 68
f 68 69 73 72
f 69 70 74 73
f 70 71 75 74
f 71 68 72 75
