# school_id SD0925
# school_name 临清市第三高级中学
# boundary_source footprint_convex_hull_buffer_20m
# adjacent_block_merge_distance_m 2.0
mtllib ../campus_materials.mtl
o SD0925_campus_boundary
usemtl campus_boundary
v 78.781 -118.423 0.050
v 45.651 -108.146 0.050
v -88.339 -64.803 0.050
v -115.418 -50.463 0.050
v -102.301 -8.325 0.050
v -44.539 165.172 0.050
v 0.456 151.338 0.050
v 66.111 107.967 0.050
v 102.547 -17.305 0.050
v 101.575 -35.113 0.050
v 90.451 -81.259 0.050
v 78.781 -118.423 0.050
l 1 2 3 4 5 6 7 8 9 10 11 12 1
o SD0925_T001_1hao
v 44.351 80.532 0.000
v -11.708 97.728 0.000
v -18.511 99.822 0.000
v -23.208 84.738 0.000
v -46.784 91.984 0.000
v -31.736 140.312 0.000
v -8.169 133.066 0.000
v -13.904 114.628 0.000
v -7.101 112.543 0.000
v 48.958 95.328 0.000
v 44.351 80.532 9.900
v -11.708 97.728 9.900
v -18.511 99.822 9.900
v -23.208 84.738 9.900
v -46.784 91.984 9.900
v -31.736 140.312 9.900
v -8.169 133.066 9.900
v -13.904 114.628 9.900
v -7.101 112.543 9.900
v 48.958 95.328 9.900
usemtl roof
f 23 24 25 26 27 28 29 30 31 32
usemtl teaching_building
f 22 21 20 19 18 17 16 15 14 13
f 13 14 24 23
f 14 15 25 24
f 15 16 26 25
f 16 17 27 26
f 17 18 28 27
f 18 19 29 28
f 19 20 30 29
f 20 21 31 30
f 21 22 32 31
f 22 13 23 32
o SD0925_T001_1hao_seg02
v -23.940 84.960 0.000
v -39.936 33.584 0.000
v -62.772 40.589 0.000
v -46.784 91.984 0.000
v -23.940 84.960 9.900
v -39.936 33.584 9.900
v -62.772 40.589 9.900
v -46.784 91.984 9.900
usemtl roof
f 37 38 39 40
usemtl teaching_building
f 36 35 34 33
f 33 34 38 37
f 34 35 39 38
f 35 36 40 39
f 36 33 37 40
o SD0925_T002_2hao
v 31.559 55.070 0.000
v 36.122 68.867 0.000
v -15.920 85.822 0.000
v -20.483 72.035 0.000
v 31.559 55.070 9.900
v 36.122 68.867 9.900
v -15.920 85.822 9.900
v -20.483 72.035 9.900
usemtl roof
f 45 46 47 48
usemtl teaching_building
f 44 43 42 41
f 41 42 46 45
f 42 43 47 46
f 43 44 48 47
f 44 41 45 48
o SD0925_T003_3hao
v -59.195 14.729 0.000
v -15.957 1.461 0.000
v -18.325 -6.155 0.000
v -22.335 -4.923 0.000
v -24.657 -12.381 0.000
v -61.009 -1.226 0.000
v -59.016 5.195 0.000
v -61.883 6.084 0.000
v -59.195 14.729 9.900
v -15.957 1.461 9.900
v -18.325 -6.155 9.900
v -22.335 -4.923 9.900
v -24.657 -12.381 9.900
v -61.009 -1.226 9.900
v -59.016 5.195 9.900
v -61.883 6.084 9.900
usemtl roof
f 57 58 59 60 61 62 63 64
usemtl teaching_building
f 56 55 54 53 52 51 50 49
f 49 50 58 57
f 50 51 59 58
f 51 52 60 59
f 52 53 61 60
f 53 54 62 61
f 54 55 63 62
f 55 56 64 63
f 56 49 57 64
o SD0925_T003_3hao_seg02
v -26.158 -12.835 0.000
v 9.365 -23.741 0.000
v 5.318 -36.712 0.000
v -30.198 -25.807 0.000
v -26.158 -12.835 9.900
v 9.365 -23.741 9.900
v 5.318 -36.712 9.900
v -30.198 -25.807 9.900
usemtl roof
f 69 70 71 72
usemtl teaching_building
f 68 67 66 65
f 65 66 70 69
f 66 67 71 70
f 67 68 72 71
f 68 65 69 72
o SD0925_T003_3hao_seg03
v -54.557 -23.648 0.000
v -52.190 -16.004 0.000
v -30.034 -22.814 0.000
v -33.715 -34.646 0.000
v -53.124 -28.688 0.000
v -51.824 -24.482 0.000
v -54.557 -23.648 9.900
v -52.190 -16.004 9.900
v -30.034 -22.814 9.900
v -33.715 -34.646 9.900
v -53.124 -28.688 9.900
v -51.824 -24.482 9.900
usemtl roof
f 79 80 81 82 83 84
usemtl teaching_building
f 78 77 76 75 74 73
f 73 74 80 79
f 74 75 81 80
f 75 76 82 81
f 76 77 83 82
f 77 78 84 83
f 78 73 79 84
o SD0925_T004_4hao
v -79.835 -44.106 0.000
v -80.522 -46.311 0.000
v -75.093 -47.988 0.000
v -68.380 -26.400 0.000
v -66.901 -26.854 0.000
v -65.744 -23.138 0.000
v -67.223 -22.675 0.000
v -66.282 -19.664 0.000
v -83.263 -14.457 0.000
v -91.388 -40.557 0.000
v -79.835 -44.106 9.900
v -80.522 -46.311 9.900
v -75.093 -47.988 9.900
v -68.380 -26.400 9.900
v -66.901 -26.854 9.900
v -65.744 -23.138 9.900
v -67.223 -22.675 9.900
v -66.282 -19.664 9.900
v -83.263 -14.457 9.900
v -91.388 -40.557 9.900
usemtl roof
f 95 96 97 98 99 100 101 102 103 104
usemtl teaching_building
f 94 93 92 91 90 89 88 87 86 85
f 85 86 96 95
f 86 87 97 96
f 87 88 98 97
f 88 89 99 98
f 89 90 100 99
f 90 91 101 100
f 91 92 102 101
f 92 93 103 102
f 93 94 104 103
f 94 85 95 104
o SD0925_T005_5hao
v 22.635 -44.532 0.000
v 20.798 -50.397 0.000
v 66.627 -64.573 0.000
v 70.398 -52.584 0.000
v 66.597 -51.398 0.000
v 65.761 -54.094 0.000
v 30.476 -43.161 0.000
v 38.907 -16.328 0.000
v 74.184 -27.262 0.000
v 73.437 -29.643 0.000
v 78.732 -31.283 0.000
v 82.391 -19.618 0.000
v 35.069 -4.960 0.000
v 33.971 -8.444 0.000
v 32.022 -7.851 0.000
v 30.603 -12.381 0.000
v 32.545 -12.984 0.000
v 24.144 -39.723 0.000
v 21.836 -39.019 0.000
v 20.320 -43.819 0.000
v 22.635 -44.532 9.900
v 20.798 -50.397 9.900
v 66.627 -64.573 9.900
v 70.398 -52.584 9.900
v 66.597 -51.398 9.900
v 65.761 -54.094 9.900
v 30.476 -43.161 9.900
v 38.907 -16.328 9.900
v 74.184 -27.262 9.900
v 73.437 -29.643 9.900
v 78.732 -31.283 9.900
v 82.391 -19.618 9.900
v 35.069 -4.960 9.900
v 33.971 -8.444 9.900
v 32.022 -7.851 9.900
v 30.603 -12.381 9.900
v 32.545 -12.984 9.900
v 24.144 -39.723 9.900
v 21.836 -39.019 9.900
v 20.320 -43.819 9.900
usemtl roof
f 125 126 127 128 129 130 131 132 133 134 135 136 137 138 139 140 141 142 143 144
usemtl teaching_building
f 124 123 122 121 120 119 118 117 116 115 114 113 112 111 110 109 108 107 106 105
f 105 106 126 125
f 106 107 127 126
f 107 108 128 127
f 108 109 129 128
f 109 110 130 129
f 110 111 131 130
f 111 112 132 131
f 112 113 133 132
f 113 114 134 133
f 114 115 135 134
f 115 116 136 135
f 116 117 137 136
f 117 118 138 137
f 118 119 139 138
f 119 120 140 139
f 120 121 141 140
f 121 122 142 141
f 122 123 143 142
f 123 124 144 143
f 124 105 125 144
o SD0925_T006_6hao
v 65.671 -93.416 0.000
v 71.167 -75.914 0.000
v 57.188 -71.587 0.000
v 51.692 -89.080 0.000
v 65.671 -93.416 9.900
v 71.167 -75.914 9.900
v 57.188 -71.587 9.900
v 51.692 -89.080 9.900
usemtl roof
f 149 150 151 152
usemtl teaching_building
f 148 147 146 145
f 145 146 150 149
f 146 147 151 150
f 147 148 152 151
f 148 145 149 152
