# school_id SD0973
# school_name 嘉单路小学
# boundary_source footprint_convex_hull_buffer_20m
# adjacent_block_merge_distance_m 2.0
mtllib ../campus_materials.mtl
o SD0973_campus_boundary
usemtl campus_boundary
v 39.349 -97.180 0.050
v -69.743 -81.631 0.050
v -64.906 -48.096 0.050
v -52.193 31.809 0.050
v -41.802 92.043 0.050
v 63.376 77.062 0.050
v 45.184 -56.756 0.050
v 39.349 -97.180 0.050
l 1 2 3 4 5 6 7 8 1
o SD0973_T001_1hao
v 40.881 60.064 0.000
v 37.873 39.260 0.000
v 20.596 41.725 0.000
v 7.130 -51.382 0.000
v 25.377 -53.980 0.000
v 22.406 -74.563 0.000
v -47.088 -64.658 0.000
v -45.132 -51.095 0.000
v -7.569 -56.445 0.000
v -5.138 -39.544 0.000
v 3.355 -40.748 0.000
v 4.991 -29.374 0.000
v -40.076 -22.996 0.000
v -38.422 -11.489 0.000
v 6.701 -17.878 0.000
v 6.948 -16.153 0.000
v 9.434 -16.507 0.000
v 10.769 -7.111 0.000
v 2.359 -5.928 0.000
v 3.382 1.279 0.000
v 12.387 0.008 0.000
v 13.941 10.951 0.000
v -34.007 17.694 0.000
v -32.462 28.538 0.000
v 9.379 22.657 0.000
v 11.171 35.192 0.000
v 7.332 35.734 0.000
v 8.456 43.560 0.000
v 17.927 42.223 0.000
v 19.398 52.437 0.000
v -26.904 59.025 0.000
v -25.395 69.504 0.000
v 40.881 60.064 12.460
v 37.873 39.260 12.460
v 20.596 41.725 12.460
v 7.130 -51.382 12.460
v 25.377 -53.980 12.460
v 22.406 -74.563 12.460
v -47.088 -64.658 12.460
v -45.132 -51.095 12.460
v -7.569 -56.445 12.460
v -5.138 -39.544 12.460
v 3.355 -40.748 12.460
v 4.991 -29.374 12.460
v -40.076 -22.996 12.460
v -38.422 -11.489 12.460
v 6.701 -17.878 12.460
v 6.948 -16.153 12.460
v 9.434 -16.507 12.460
v 10.769 -7.111 12.460
v 2.359 -5.928 12.460
v 3.382 1.279 12.460
v 12.387 0.008 12.460
v 13.941 10.951 12.460
v -34.007 17.694 12.460
v -32.462 28.538 12.460
v 9.379 22.657 12.460
v 11.171 35.192 12.460
v 7.332 35.734 12.460
v 8.456 43.560 12.460
v 17.927 42.223 12.460
v 19.398 52.437 12.460
v -26.904 59.025 12.460
v -25.395 69.504 12.460
usemtl roof
f 41 42 43 44 45 46 47 48 49 50 51 52 53 54 55 56 57 58 59 60 61 62 63 64 65 66 67 68 69 70 71 72
usemtl teaching_building
f 40 39 38 37 36 35 34 33 32 31 30 29 28 27 26 25 24 23 22 21 20 19 18 17 16 15 14 13 12 11 10 9
f 9 10 42 41
f 10 11 43 42
f 11 12 44 43
f 12 13 45 44
f 13 14 46 45
f 14 15 47 46
f 15 16 48 47
f 16 17 49 48
f 17 18 50 49
f 18 19 51 50
f 19 20 52 51
f 20 21 53 52
f 21 22 54 53
f 22 23 55 54
f 23 24 56 55
f 24 25 57 56
f 25 26 58 57
f 26 27 59 58
f 27 28 60 59
f 28 29 61 60
f 29 30 62 61
f 30 31 63 62
f 31 32 64 63
f 32 33 65 64
f 33 34 66 65
f 34 35 67 66
f 35 36 68 67
f 36 37 69 68
f 37 38 70 69
f 38 39 71 70
f 39 40 72 71
f 40 9 41 72
