# school_id SD0926
# school_name 临清逸夫实验小学
# boundary_source footprint_convex_hull_buffer_20m
# adjacent_block_merge_distance_m 2.0
mtllib ../campus_materials.mtl
o SD0926_campus_boundary
usemtl campus_boundary
v 51.784 -74.049 0.050
v 16.528 -73.304 0.050
v -34.169 -69.643 0.050
v -43.778 -61.440 0.050
v -47.602 -55.950 0.050
v -91.362 45.812 0.050
v -90.631 79.413 0.050
v -62.068 78.824 0.050
v 43.251 76.082 0.050
v 66.954 74.797 0.050
v 61.074 -29.933 0.050
v 60.539 -39.358 0.050
v 51.784 -74.049 0.050
l 1 2 3 4 5 6 7 8 9 10 11 12 13 1
o SD0926_T001_1hao
v -26.857 47.674 0.000
v -26.648 57.254 0.000
v -61.391 57.995 0.000
v -61.600 48.415 0.000
v -26.857 47.674 9.900
v -26.648 57.254 9.900
v -61.391 57.995 9.900
v -61.600 48.415 9.900
usemtl roof
f 18 19 20 21
usemtl teaching_building
f 17 16 15 14
f 14 15 19 18
f 15 16 20 19
f 16 17 21 20
f 17 14 18 21
o SD0926_T002_2hao
v 4.801 39.455 0.000
v 4.711 35.499 0.000
v 36.086 34.841 0.000
v 36.519 55.355 0.000
v 1.463 56.096 0.000
v 1.104 39.548 0.000
v 4.801 39.455 9.900
v 4.711 35.499 9.900
v 36.086 34.841 9.900
v 36.519 55.355 9.900
v 1.463 56.096 9.900
v 1.104 39.548 9.900
usemtl roof
f 28 29 30 31 32 33
usemtl teaching_building
f 27 26 25 24 23 22
f 22 23 29 28
f 23 24 30 29
f 24 25 31 30
f 25 26 32 31
f 26 27 33 32
f 27 22 28 33
o SD0926_T003_3hao
v 41.105 -28.812 0.000
v 45.862 55.911 0.000
v 42.449 56.096 0.000
v 37.692 -28.626 0.000
v 41.105 -28.812 9.900
v 45.862 55.911 9.900
v 42.449 56.096 9.900
v 37.692 -28.626 9.900
usemtl roof
f 38 39 40 41
usemtl teaching_building
f 37 36 35 34
f 34 35 39 38
f 35 36 40 39
f 36 37 41 40
f 37 34 38 41
o SD0926_T004_4hao
v 34.488 -11.995 0.000
v 12.874 -11.532 0.000
v 13.300 8.565 0.000
v 34.921 8.101 0.000
v 34.488 -11.995 9.900
v 12.874 -11.532 9.900
v 13.300 8.565 9.900
v 34.921 8.101 9.900
usemtl roof
f 46 47 48 49
usemtl teaching_building
f 45 44 43 42
f 42 43 47 46
f 43 44 48 47
f 44 45 49 48
f 45 42 46 49
o SD0926_T004_4hao_seg02
v 0.469 8.843 0.000
v 0.686 18.599 0.000
v 35.130 17.867 0.000
v 34.921 8.101 0.000
v 0.469 8.843 9.900
v 0.686 18.599 9.900
v 35.130 17.867 9.900
v 34.921 8.101 9.900
usemtl roof
f 54 55 56 57
usemtl teaching_building
f 53 52 51 50
f 50 51 55 54
f 51 52 56 55
f 52 53 57 56
f 53 50 54 57
o SD0926_T005_5hao
v -28.799 -46.212 0.000
v -28.837 -47.898 0.000
v -26.133 -47.954 0.000
v -26.178 -50.168 0.000
v -7.880 -50.558 0.000
v -7.738 -43.988 0.000
v 17.647 -44.517 0.000
v 17.460 -53.319 0.000
v 36.288 -53.717 0.000
v 36.571 -40.468 0.000
v 17.751 -40.078 0.000
v 17.826 -36.419 0.000
v -13.967 -35.742 0.000
v -13.930 -34.213 0.000
v -17.485 -34.139 0.000
v -17.507 -35.677 0.000
v -22.563 -35.566 0.000
v -22.690 -41.376 0.000
v -29.919 -41.227 0.000
v -30.031 -46.184 0.000
v -28.799 -46.212 9.900
v -28.837 -47.898 9.900
v -26.133 -47.954 9.900
v -26.178 -50.168 9.900
v -7.880 -50.558 9.900
v -7.738 -43.988 9.900
v 17.647 -44.517 9.900
v 17.460 -53.319 9.900
v 36.288 -53.717 9.900
v 36.571 -40.468 9.900
v 17.751 -40.078 9.900
v 17.826 -36.419 9.900
v -13.967 -35.742 9.900
v -13.930 -34.213 9.900
v -17.485 -34.139 9.900
v -17.507 -35.677 9.900
v -22.563 -35.566 9.900
v -22.690 -41.376 9.900
v -29.919 -41.227 9.900
v -30.031 -46.184 9.900
usemtl roof
f 78 79 80 81 82 83 84 85 86 87 88 89 90 91 92 93 94 95 96 97
usemtl teaching_building
f 77 76 75 74 73 72 71 70 69 68 67 66 65 64 63 62 61 60 59 58
f 58 59 79 78
f 59 60 80 79
f 60 61 81 80
f 61 62 82 81
f 62 63 83 82
f 63 64 84 83
f 64 65 85 84
f 65 66 86 85
f 66 67 87 86
f 67 68 88 87
f 68 69 89 88
f 69 70 90 89
f 70 71 91 90
f 71 72 92 91
f 72 73 93 92
f 73 74 94 93
f 74 75 95 94
f 75 76 96 95
f 76 77 97 96
f 77 58 78 97
