# school_id SD0994
# school_name 柳河集小学
# boundary_source footprint_convex_hull_buffer_20m
# adjacent_block_merge_distance_m 2.0
mtllib ../campus_materials.mtl
o SD0994_campus_boundary
usemtl campus_boundary
v 37.639 -41.369 0.050
v -45.661 -18.475 0.050
v -30.405 36.257 0.050
v 0.167 27.862 0.050
v 51.278 7.612 0.050
v 37.639 -41.369 0.050
l 1 2 3 4 5 6 1
o SD0994_T001_1hao
v -16.489 11.695 0.000
v -6.183 8.865 0.000
v -7.226 5.107 0.000
v 27.185 -4.355 0.000
v 23.719 -16.802 0.000
v -21.006 -4.510 0.000
v -16.489 11.695 10.150
v -6.183 8.865 10.150
v -7.226 5.107 10.150
v 27.185 -4.355 10.150
v 23.719 -16.802 10.150
v -21.006 -4.510 10.150
usemtl roof
f 13 14 15 16 17 18
usemtl teaching_building
f 12 11 10 9 8 7
f 7 8 14 13
f 8 9 15 14
f 9 10 16 15
f 10 11 17 16
f 11 12 18 17
f 12 7 13 18
