# school_id SD0958
# school_name 单县中日友好慧光学校
# boundary_source footprint_convex_hull_buffer_20m
# adjacent_block_merge_distance_m 2.0
mtllib ../campus_materials.mtl
o SD0958_campus_boundary
usemtl campus_boundary
v 86.948 -88.101 0.050
v 21.938 -85.368 0.050
v -77.196 -77.746 0.050
v -75.653 -47.221 0.050
v -72.750 7.560 0.050
v -71.335 25.182 0.050
v -65.615 84.308 0.050
v 71.678 74.114 0.050
v 88.360 -54.739 0.050
v 86.948 -88.101 0.050
l 1 2 3 4 5 6 7 8 9 10 1
o SD0958_T001_1hao
v 2.579 58.858 0.000
v 1.783 49.142 0.000
v -38.835 52.436 0.000
v -40.069 37.402 0.000
v -49.620 38.176 0.000
v -47.591 62.915 0.000
v 2.579 58.858 10.640
v 1.783 49.142 10.640
v -38.835 52.436 10.640
v -40.069 37.402 10.640
v -49.620 38.176 10.640
v -47.591 62.915 10.640
usemtl roof
f 17 18 19 20 21 22
usemtl teaching_building
f 16 15 14 13 12 11
f 11 12 18 17
f 12 13 19 18
f 13 14 20 19
f 14 15 21 20
f 15 16 22 21
f 16 11 17 22
o SD0958_T002_2hao
v 53.937 55.376 0.000
v 53.361 46.013 0.000
v 9.296 48.666 0.000
v 9.872 58.029 0.000
v 53.937 55.376 13.570
v 53.361 46.013 13.570
v 9.296 48.666 13.570
v 9.872 58.029 13.570
usemtl roof
f 27 28 29 30
usemtl teaching_building
f 26 25 24 23
f 23 24 28 27
f 24 25 29 28
f 25 26 30 29
f 26 23 27 30
o SD0958_T003_3hao
v 51.889 31.112 0.000
v 51.313 21.750 0.000
v 7.249 24.403 0.000
v 7.816 33.765 0.000
v 51.889 31.112 14.440
v 51.313 21.750 14.440
v 7.249 24.403 14.440
v 7.816 33.765 14.440
usemtl roof
f 35 36 37 38
usemtl teaching_building
f 34 33 32 31
f 31 32 36 35
f 32 33 37 36
f 33 34 38 37
f 34 31 35 38
o SD0958_T004_4hao
v -1.754 19.484 0.000
v -3.107 2.615 0.000
v -10.272 3.179 0.000
v -10.117 5.158 0.000
v -45.836 7.988 0.000
v -46.019 5.688 0.000
v -52.792 6.230 0.000
v -51.412 23.419 0.000
v -1.754 19.484 12.410
v -3.107 2.615 12.410
v -10.272 3.179 12.410
v -10.117 5.158 12.410
v -45.836 7.988 12.410
v -46.019 5.688 12.410
v -52.792 6.230 12.410
v -51.412 23.419 12.410
usemtl roof
f 47 48 49 50 51 52 53 54
usemtl teaching_building
f 46 45 44 43 42 41 40 39
f 39 40 48 47
f 40 41 49 48
f 41 42 50 49
f 42 43 51 50
f 43 44 52 51
f 44 45 53 52
f 45 46 54 53
f 46 39 47 54
o SD0958_T005_5hao
v 49.312 7.258 0.000
v 48.736 -2.116 0.000
v 4.672 0.548 0.000
v 5.247 9.911 0.000
v 49.312 7.258 15.010
v 48.736 -2.116 15.010
v 4.672 0.548 15.010
v 5.247 9.911 15.010
usemtl roof
f 59 60 61 62
usemtl teaching_building
f 58 57 56 55
f 55 56 60 59
f 56 57 61 60
f 57 58 62 61
f 58 55 59 62
o SD0958_T006_6hao
v 12.788 -18.863 0.000
v 12.843 -17.713 0.000
v 19.945 -18.067 0.000
v 19.872 -19.471 0.000
v 31.096 -20.023 0.000
v 30.282 -36.129 0.000
v -13.864 -33.929 0.000
v -15.245 -61.332 0.000
v -56.238 -59.298 0.000
v -55.680 -48.255 0.000
v -19.888 -50.046 0.000
v -19.065 -33.774 0.000
v -45.096 -32.481 0.000
v -44.255 -16.011 0.000
v 12.788 -18.863 21.410
v 12.843 -17.713 21.410
v 19.945 -18.067 21.410
v 19.872 -19.471 21.410
v 31.096 -20.023 21.410
v 30.282 -36.129 21.410
v -13.864 -33.929 21.410
v -15.245 -61.332 21.410
v -56.238 -59.298 21.410
v -55.680 -48.255 21.410
v -19.888 -50.046 21.410
v -19.065 -33.774 21.410
v -45.096 -32.481 21.410
v -44.255 -16.011 21.410
usemtl roof
f 77 78 79 80 81 82 83 84 85 86 87 88 89 90
usemtl teaching_building
f 76 75 74 73 72 71 70 69 68 67 66 65 64 63
f 63 64 78 77
f 64 65 79 78
f 65 66 80 79
f 66 67 81 80
f 67 68 82 81
f 68 69 83 82
f 69 70 84 83
f 70 71 85 84
f 71 72 86 85
f 72 73 87 86
f 73 74 88 87
f 74 75 89 88
f 75 76 90 89
f 76 63 77 90
o SD0958_T007_7hao
v 68.305 -55.606 0.000
v 67.811 -67.279 0.000
v 23.125 -65.400 0.000
v 23.628 -53.727 0.000
v 68.305 -55.606 15.430
v 67.811 -67.279 15.430
v 23.125 -65.400 15.430
v 23.628 -53.727 15.430
usemtl roof
f 95 96 97 98
usemtl teaching_building
f 94 93 92 91
f 91 92 96 95
f 92 93 97 96
f 93 94 98 97
f 94 91 95 98
