# school_id SD0977
# school_name 山东省单县第一中学（南校区）
# boundary_source footprint_convex_hull_buffer_20m
# adjacent_block_merge_distance_m 2.0
mtllib ../campus_materials.mtl
o SD0977_campus_boundary
usemtl campus_boundary
v 62.695 -180.576 0.050
v 6.820 -175.343 0.050
v -228.631 -124.102 0.050
v -269.850 -0.030 0.050
v -251.346 151.600 0.050
v 0.304 136.833 0.050
v 135.272 122.842 0.050
v 161.794 99.978 0.050
v 149.704 -61.688 0.050
v 147.590 -81.322 0.050
v 141.178 -139.156 0.050
v 62.695 -180.576 0.050
l 1 2 3 4 5 6 7 8 9 10 11 12 1
o SD0977_T001_1hao
v 8.728 103.596 0.000
v 20.252 93.260 0.000
v 26.947 88.828 0.000
v 47.772 80.703 0.000
v 41.818 68.521 0.000
v 28.063 74.059 0.000
v 25.465 70.003 0.000
v 13.192 77.751 0.000
v -1.314 90.674 0.000
v -11.722 102.855 0.000
v -15.435 109.134 0.000
v -1.314 116.894 0.000
v 8.728 103.596 9.470
v 20.252 93.260 9.470
v 26.947 88.828 9.470
v 47.772 80.703 9.470
v 41.818 68.521 9.470
v 28.063 74.059 9.470
v 25.465 70.003 9.470
v 13.192 77.751 9.470
v -1.314 90.674 9.470
v -11.722 102.855 9.470
v -15.435 109.134 9.470
v -1.314 116.894 9.470
usemtl roof
f 25 26 27 28 29 30 31 32 33 34 35 36
usemtl teaching_building
f 24 23 22 21 20 19 18 17 16 15 14 13
f 13 14 26 25
f 14 15 27 26
f 15 16 28 27
f 16 17 29 28
f 17 18 30 29
f 18 19 31 30
f 19 20 32 31
f 20 21 33 32
f 21 22 34 33
f 22 23 35 34
f 23 24 36 35
f 24 13 25 36
o SD0977_T002_2hao
v 95.734 81.808 0.000
v 107.267 86.982 0.000
v 118.050 94.366 0.000
v 126.967 103.596 0.000
v 141.098 91.414 0.000
v 133.662 83.654 0.000
v 119.907 74.059 0.000
v 105.776 67.040 0.000
v 98.341 65.194 0.000
v 90.905 64.089 0.000
v 89.789 67.781 0.000
v 78.265 65.935 0.000
v 75.284 79.233 0.000
v 95.734 81.808 10.210
v 107.267 86.982 10.210
v 118.050 94.366 10.210
v 126.967 103.596 10.210
v 141.098 91.414 10.210
v 133.662 83.654 10.210
v 119.907 74.059 10.210
v 105.776 67.040 10.210
v 98.341 65.194 10.210
v 90.905 64.089 10.210
v 89.789 67.781 10.210
v 78.265 65.935 10.210
v 75.284 79.233 10.210
usemtl roof
f 50 51 52 53 54 55 56 57 58 59 60 61 62
usemtl teaching_building
f 49 48 47 46 45 44 43 42 41 40 39 38 37
f 37 38 51 50
f 38 39 52 51
f 39 40 53 52
f 40 41 54 53
f 41 42 55 54
f 42 43 56 55
f 43 44 57 56
f 44 45 58 57
f 45 46 59 58
f 46 47 60 59
f 47 48 61 60
f 48 49 62 61
f 49 37 50 62
o SD0977_T003_3hao
v -178.215 102.579 0.000
v -224.082 108.095 0.000
v -228.198 74.347 0.000
v -182.486 68.853 0.000
v -184.709 50.636 0.000
v -230.393 56.141 0.000
v -234.655 21.210 0.000
v -186.620 15.429 0.000
v -189.136 -5.253 0.000
v -249.453 2.009 0.000
v -233.768 130.534 0.000
v -175.654 123.548 0.000
v -178.215 102.579 8.520
v -224.082 108.095 8.520
v -228.198 74.347 8.520
v -182.486 68.853 8.520
v -184.709 50.636 8.520
v -230.393 56.141 8.520
v -234.655 21.210 8.520
v -186.620 15.429 8.520
v -189.136 -5.253 8.520
v -249.453 2.009 8.520
v -233.768 130.534 8.520
v -175.654 123.548 8.520
usemtl roof
f 75 76 77 78 79 80 81 82 83 84 85 86
usemtl teaching_building
f 74 73 72 71 70 69 68 67 66 65 64 63
f 63 64 76 75
f 64 65 77 76
f 65 66 78 77
f 66 67 79 78
f 67 68 80 79
f 68 69 81 80
f 69 70 82 81
f 70 71 83 82
f 71 72 84 83
f 72 73 85 84
f 73 74 86 85
f 74 63 75 86
o SD0977_T004_4hao
v 37.145 0.031 0.000
v 25.054 0.959 0.000
v 27.093 26.848 0.000
v -15.701 30.164 0.000
v -14.356 47.265 0.000
v 40.520 43.009 0.000
v 37.145 0.031 9.290
v 25.054 0.959 9.290
v 27.093 26.848 9.290
v -15.701 30.164 9.290
v -14.356 47.265 9.290
v 40.520 43.009 9.290
usemtl roof
f 93 94 95 96 97 98
usemtl teaching_building
f 92 91 90 89 88 87
f 87 88 94 93
f 88 89 95 94
f 89 90 96 95
f 90 91 97 96
f 91 92 98 97
f 92 87 93 98
o SD0977_T005_5hao
v 65.799 -4.225 0.000
v 77.854 -5.496 0.000
v 80.616 20.315 0.000
v 123.300 15.816 0.000
v 125.120 32.883 0.000
v 70.381 38.642 0.000
v 65.799 -4.225 9.790
v 77.854 -5.496 9.790
v 80.616 20.315 9.790
v 123.300 15.816 9.790
v 125.120 32.883 9.790
v 70.381 38.642 9.790
usemtl roof
f 105 106 107 108 109 110
usemtl teaching_building
f 104 103 102 101 100 99
f 99 100 106 105
f 100 101 107 106
f 101 102 108 107
f 102 103 109 108
f 103 104 110 109
f 104 99 105 110
o SD0977_T006_6hao
v 19.310 -13.897 0.000
v -29.767 -9.166 0.000
v -28.148 7.393 0.000
v 20.929 2.662 0.000
v 19.310 -13.897 11.700
v -29.767 -9.166 11.700
v -28.148 7.393 11.700
v 20.929 2.662 11.700
usemtl roof
f 115 116 117 118
usemtl teaching_building
f 114 113 112 111
f 111 112 116 115
f 112 113 117 116
f 113 114 118 117
f 114 111 115 118
o SD0977_T007_7hao
v 130.141 -25.824 0.000
v 81.073 -21.104 0.000
v 82.692 -4.546 0.000
v 131.760 -9.277 0.000
v 130.141 -25.824 11.410
v 81.073 -21.104 11.410
v 82.692 -4.546 11.410
v 131.760 -9.277 11.410
usemtl roof
f 123 124 125 126
usemtl teaching_building
f 122 121 120 119
f 119 120 124 123
f 120 121 125 124
f 121 122 126 125
f 122 119 123 126
o SD0977_T008_8hao
v -116.846 -45.114 0.000
v -119.379 -65.232 0.000
v -181.124 -57.572 0.000
v -178.590 -37.442 0.000
v -116.846 -45.114 10.590
v -119.379 -65.232 10.590
v -181.124 -57.572 10.590
v -178.590 -37.442 10.590
usemtl roof
f 131 132 133 134
usemtl teaching_building
f 130 129 128 127
f 127 128 132 131
f 128 129 133 132
f 129 130 134 133
f 130 127 131 134
o SD0977_T009_9hao
v 10.365 -46.208 0.000
v 8.683 -66.514 0.000
v -35.995 -62.877 0.000
v -34.313 -42.571 0.000
v 10.365 -46.208 9.720
v 8.683 -66.514 9.720
v -35.995 -62.877 9.720
v -34.313 -42.571 9.720
usemtl roof
f 139 140 141 142
usemtl teaching_building
f 138 137 136 135
f 135 136 140 139
f 136 137 141 140
f 137 138 142 141
f 138 135 139 142
o SD0977_T010_10hao
v -54.013 -29.793 0.000
v -58.833 -76.971 0.000
v -75.067 -92.248 0.000
v -111.687 -89.241 0.000
v -107.956 -44.318 0.000
v -90.012 -31.595 0.000
v -89.463 -26.222 0.000
v -54.013 -29.793 8.460
v -58.833 -76.971 8.460
v -75.067 -92.248 8.460
v -111.687 -89.241 8.460
v -107.956 -44.318 8.460
v -90.012 -31.595 8.460
v -89.463 -26.222 8.460
usemtl roof
f 150 151 152 153 154 155 156
usemtl teaching_building
f 149 148 147 146 145 144 143
f 143 144 151 150
f 144 145 152 151
f 145 146 153 152
f 146 147 154 153
f 147 148 155 154
f 148 149 156 155
f 149 143 150 156
o SD0977_T011_11hao
v 129.784 -59.871 0.000
v 127.708 -79.149 0.000
v 83.058 -74.418 0.000
v 85.134 -55.140 0.000
v 129.784 -59.871 9.020
v 127.708 -79.149 9.020
v 83.058 -74.418 9.020
v 85.134 -55.140 9.020
usemtl roof
f 161 162 163 164
usemtl teaching_building
f 160 159 158 157
f 157 158 162 161
f 158 159 163 162
f 159 160 164 163
f 160 157 161 164
o SD0977_T012_12hao
v 30.413 -75.778 0.000
v 26.654 -116.069 0.000
v -40.678 -109.868 0.000
v -38.867 -90.501 0.000
v 14.746 -95.443 0.000
v 16.694 -74.517 0.000
v 30.413 -75.778 7.970
v 26.654 -116.069 7.970
v -40.678 -109.868 7.970
v -38.867 -90.501 7.970
v 14.746 -95.443 7.970
v 16.694 -74.517 7.970
usemtl roof
f 171 172 173 174 175 176
usemtl teaching_building
f 170 169 168 167 166 165
f 165 166 172 171
f 166 167 173 172
f 167 168 174 173
f 168 169 175 174
f 169 170 176 175
f 170 165 171 176
o SD0977_T013_13hao
v 74.945 -71.953 0.000
v 71.991 -101.611 0.000
v 124.425 -106.773 0.000
v 122.468 -126.416 0.000
v 54.147 -119.695 0.000
v 59.068 -70.394 0.000
v 74.945 -71.953 9.620
v 71.991 -101.611 9.620
v 124.425 -106.773 9.620
v 122.468 -126.416 9.620
v 54.147 -119.695 9.620
v 59.068 -70.394 9.620
usemtl roof
f 183 184 185 186 187 188
usemtl teaching_building
f 182 181 180 179 178 177
f 177 178 184 183
f 178 179 185 184
f 179 180 186 185
f 180 181 187 186
f 181 182 188 187
f 182 177 183 188
o SD0977_T014_14hao
v 25.694 -131.512 0.000
v 24.844 -140.388 0.000
v 49.346 -142.687 0.000
v 50.096 -134.828 0.000
v 60.934 -135.845 0.000
v 58.629 -160.108 0.000
v 9.890 -155.543 0.000
v 12.286 -130.252 0.000
v 25.694 -131.512 18.060
v 24.844 -140.388 18.060
v 49.346 -142.687 18.060
v 50.096 -134.828 18.060
v 60.934 -135.845 18.060
v 58.629 -160.108 18.060
v 9.890 -155.543 18.060
v 12.286 -130.252 18.060
usemtl roof
f 197 198 199 200 201 202 203 204
usemtl teaching_building
f 196 195 194 193 192 191 190 189
f 189 190 198 197
f 190 191 199 198
f 191 192 200 199
f 192 193 201 200
f 193 194 202 201
f 194 195 203 202
f 195 196 204 203
f 196 189 197 204
