# school_id SD0904
# school_name 神山中心小学
# boundary_source footprint_convex_hull_buffer_20m
# adjacent_block_merge_distance_m 2.0
mtllib ../campus_materials.mtl
o SD0904_campus_boundary
usemtl campus_boundary
v 64.639 -52.974 0.050
v -75.801 -45.175 0.050
v -64.980 60.690 0.050
v 76.144 37.440 0.050
v 64.639 -52.974 0.050
l 1 2 3 4 5 1
o SD0904_T001_1hao
v 47.150 -31.972 0.000
v 53.870 20.840 0.000
v -47.246 37.499 0.000
v -53.774 -26.367 0.000
v 47.150 -31.972 9.900
v 53.870 20.840 9.900
v -47.246 37.499 9.900
v -53.774 -26.367 9.900
usemtl roof
f 10 11 12 13
usemtl teaching_building
f 9 8 7 6
f 6 7 11 10
f 7 8 12 11
f 8 9 13 12
f 9 6 10 13
