# school_id SD0990
# school_name 曹县汉江路小学
# boundary_source footprint_convex_hull_buffer_20m
# adjacent_block_merge_distance_m 2.0
mtllib ../campus_materials.mtl
o SD0990_campus_boundary
usemtl campus_boundary
v 57.521 -48.897 0.050
v -26.157 -42.606 0.050
v -64.186 -39.746 0.050
v -60.381 10.868 0.050
v -57.521 48.897 0.050
v 26.157 42.606 0.050
v 64.186 39.746 0.050
v 60.381 -10.868 0.050
v 57.521 -48.897 0.050
l 1 2 3 4 5 6 7 8 9 1
o SD0990_T001_1hao
v 24.657 22.662 0.000
v 42.743 21.302 0.000
v 40.437 -9.368 0.000
v 40.437 -9.368 0.000
v 39.077 -27.454 0.000
v -24.657 -22.662 0.000
v -24.657 -22.662 0.000
v -42.743 -21.302 0.000
v -40.437 9.368 0.000
v -40.437 9.368 0.000
v -39.077 27.454 0.000
v 24.657 22.662 0.000
v 24.657 22.662 15.700
v 42.743 21.302 15.700
v 40.437 -9.368 15.700
v 40.437 -9.368 15.700
v 39.077 -27.454 15.700
v -24.657 -22.662 15.700
v -24.657 -22.662 15.700
v -42.743 -21.302 15.700
v -40.437 9.368 15.700
v -40.437 9.368 15.700
v -39.077 27.454 15.700
v 24.657 22.662 15.700
usemtl roof
f 22 23 24 25 26 27 28 29 30 31 32 33
usemtl teaching_building
f 21 20 19 18 17 16 15 14 13 12 11 10
f 10 11 23 22
f 11 12 24 23
f 12 13 25 24
f 13 14 26 25
f 14 15 27 26
f 15 16 28 27
f 16 17 29 28
f 17 18 30 29
f 18 19 31 30
f 19 20 32 31
f 20 21 33 32
f 21 10 22 33
