# school_id SD0983
# school_name 成武县实验中学
# boundary_source footprint_convex_hull_buffer_20m
# adjacent_block_merge_distance_m 2.0
mtllib ../campus_materials.mtl
o SD0983_campus_boundary
usemtl campus_boundary
v 61.619 -95.607 0.050
v -14.326 -88.169 0.050
v -51.078 -21.509 0.050
v -50.457 -0.702 0.050
v -49.796 9.262 0.050
v -48.177 30.281 0.050
v -42.218 59.230 0.050
v -19.466 67.754 0.050
v 36.678 65.286 0.050
v 64.898 -62.811 0.050
v 61.619 -95.607 0.050
l 1 2 3 4 5 6 7 8 9 10 11 1
o SD0983_T001_1hao
v 20.452 45.980 0.000
v 19.722 29.421 0.000
v -25.431 31.400 0.000
v -24.856 44.377 0.000
v -16.433 44.012 0.000
v -16.269 47.594 0.000
v 20.452 45.980 8.470
v 19.722 29.421 8.470
v -25.431 31.400 8.470
v -24.856 44.377 8.470
v -16.433 44.012 8.470
v -16.269 47.594 8.470
usemtl roof
f 18 19 20 21 22 23
usemtl teaching_building
f 17 16 15 14 13 12
f 12 13 19 18
f 13 14 20 19
f 14 15 21 20
f 15 16 22 21
f 16 17 23 22
f 17 12 18 23
o SD0983_T002_2hao
v -29.847 7.832 0.000
v 17.724 4.196 0.000
v 19.248 23.861 0.000
v -28.333 27.486 0.000
v -29.847 7.832 12.720
v 17.724 4.196 12.720
v 19.248 23.861 12.720
v -28.333 27.486 12.720
usemtl roof
f 28 29 30 31
usemtl teaching_building
f 27 26 25 24
f 24 25 29 28
f 25 26 30 29
f 26 27 31 30
f 27 24 28 31
o SD0983_T003_3hao
v -30.924 -16.641 0.000
v 19.704 -18.133 0.000
v 20.151 -3.155 0.000
v -30.477 -1.663 0.000
v -30.924 -16.641 10.080
v 19.704 -18.133 10.080
v 20.151 -3.155 10.080
v -30.477 -1.663 10.080
usemtl roof
f 36 37 38 39
usemtl teaching_building
f 35 34 33 32
f 32 33 37 36
f 33 34 38 37
f 34 35 39 38
f 35 32 36 39
o SD0983_T004_4hao
v -1.896 -69.291 0.000
v 43.704 -73.757 0.000
v 44.680 -63.997 0.000
v -0.920 -59.520 0.000
v -1.896 -69.291 8.830
v 43.704 -73.757 8.830
v 44.680 -63.997 8.830
v -0.920 -59.520 8.830
usemtl roof
f 44 45 46 47
usemtl teaching_building
f 43 42 41 40
f 40 41 45 44
f 41 42 46 45
f 42 43 47 46
f 43 40 44 47
