# school_id SD0901
# school_name 沭河小学
# boundary_source footprint_convex_hull_buffer_20m
# adjacent_block_merge_distance_m 2.0
mtllib ../campus_materials.mtl
o SD0901_campus_boundary
usemtl campus_boundary
v 82.004 -80.855 0.050
v -120.989 -49.829 0.050
v -127.783 -22.939 0.050
v -117.323 44.574 0.050
v -102.068 54.212 0.050
v 51.906 88.045 0.050
v 77.197 84.778 0.050
v 123.132 77.510 0.050
v 117.679 36.004 0.050
v 99.982 -68.311 0.050
v 82.004 -80.855 0.050
l 1 2 3 4 5 6 7 8 9 10 11 1
o SD0901_T001_1hao
v 52.797 67.764 0.000
v 74.352 64.979 0.000
v 73.074 55.240 0.000
v 84.112 53.814 0.000
v 85.290 62.801 0.000
v 100.765 60.800 0.000
v 97.898 38.980 0.000
v 49.829 45.192 0.000
v 52.797 67.764 12.410
v 74.352 64.979 12.410
v 73.074 55.240 12.410
v 84.112 53.814 12.410
v 85.290 62.801 12.410
v 100.765 60.800 12.410
v 97.898 38.980 12.410
v 49.829 45.192 12.410
usemtl roof
f 20 21 22 23 24 25 26 27
usemtl teaching_building
f 19 18 17 16 15 14 13 12
f 12 13 21 20
f 13 14 22 21
f 14 15 23 22
f 15 16 24 23
f 16 17 25 24
f 17 18 26 25
f 18 19 27 26
f 19 12 20 27
o SD0901_T002_2hao
v -25.109 25.350 0.000
v -45.158 28.412 0.000
v -45.751 24.576 0.000
v -56.881 26.279 0.000
v -55.812 33.165 0.000
v -63.253 34.304 0.000
v -64.285 27.683 0.000
v -74.346 29.219 0.000
v -73.871 32.292 0.000
v -94.350 35.431 0.000
v -94.897 31.905 0.000
v -98.951 32.524 0.000
v -107.396 -21.983 0.000
v -103.379 -22.591 0.000
v -104.849 -32.064 0.000
v 77.119 -59.876 0.000
v 77.703 -56.096 0.000
v 81.665 -56.704 0.000
v 91.690 7.962 0.000
v 68.500 11.500 0.000
v 67.907 7.675 0.000
v 55.937 9.510 0.000
v 56.978 16.209 0.000
v 49.720 17.314 0.000
v 48.697 10.704 0.000
v 38.454 12.262 0.000
v 38.974 15.634 0.000
v 18.952 18.696 0.000
v 16.770 4.591 0.000
v 85.454 -5.899 0.000
v 79.218 -46.125 0.000
v 58.978 -43.030 0.000
v 58.411 -46.689 0.000
v 47.656 -45.042 0.000
v 48.789 -37.746 0.000
v 41.238 -36.585 0.000
v 40.188 -43.361 0.000
v 30.118 -41.825 0.000
v 30.520 -39.238 0.000
v 9.658 -36.055 0.000
v 9.156 -39.305 0.000
v -33.453 -32.794 0.000
v -32.896 -29.201 0.000
v -53.923 -25.985 0.000
v -54.352 -28.748 0.000
v -64.687 -27.167 0.000
v -63.500 -19.496 0.000
v -71.361 -18.291 0.000
v -72.520 -25.763 0.000
v -83.321 -24.116 0.000
v -82.609 -19.507 0.000
v -102.302 -16.500 0.000
v -96.212 22.786 0.000
v -27.145 12.229 0.000
v -25.109 25.350 7.980
v -45.158 28.412 7.980
v -45.751 24.576 7.980
v -56.881 26.279 7.980
v -55.812 33.165 7.980
v -63.253 34.304 7.980
v -64.285 27.683 7.980
v -74.346 29.219 7.980
v -73.871 32.292 7.980
v -94.350 35.431 7.980
v -94.897 31.905 7.980
v -98.951 32.524 7.980
v -107.396 -21.983 7.980
v -103.379 -22.591 7.980
v -104.849 -32.064 7.980
v 77.119 -59.876 7.980
v 77.703 -56.096 7.980
v 81.665 -56.704 7.980
v 91.690 7.962 7.980
v 68.500 11.500 7.980
v 67.907 7.675 7.980
v 55.937 9.510 7.980
v 56.978 16.209 7.980
v 49.720 17.314 7.980
v 48.697 10.704 7.980
v 38.454 12.262 7.980
v 38.974 15.634 7.980
v 18.952 18.696 7.980
v 16.770 4.591 7.980
v 85.454 -5.899 7.980
v 79.218 -46.125 7.980
v 58.978 -43.030 7.980
v 58.411 -46.689 7.980
v 47.656 -45.042 7.980
v 48.789 -37.746 7.980
v 41.238 -36.585 7.980
v 40.188 -43.361 7.980
v 30.118 -41.825 7.980
v 30.520 -39.238 7.980
v 9.658 -36.055 7.980
v 9.156 -39.305 7.980
v -33.453 -32.794 7.980
v -32.896 -29.201 7.980
v -53.923 -25.985 7.980
v -54.352 -28.748 7.980
v -64.687 -27.167 7.980
v -63.500 -19.496 7.980
v -71.361 -18.291 7.980
v -72.520 -25.763 7.980
v -83.321 -24.116 7.980
v -82.609 -19.507 7.980
v -102.302 -16.500 7.980
v -96.212 22.786 7.980
v -27.145 12.229 7.980
usemtl roof
f 82 83 84 85 86 87 88 89 90 91 92 93 94 95 96 97 98 99 100 101 102 103 104 105 106 107 108 109 110 111 112 113 114 115 116 117 118 119 120 121 122 123 124 125 126 127 128 129 130 131 132 133 134 135
usemtl teaching_building
f 81 80 79 78 77 76 75 74 73 72 71 70 69 68 67 66 65 64 63 62 61 60 59 58 57 56 55 54 53 52 51 50 49 48 47 46 45 44 43 42 41 40 39 38 37 36 35 34 33 32 31 30 29 28
f 28 29 83 82
f 29 30 84 83
f 30 31 85 84
f 31 32 86 85
f 32 33 87 86
f 33 34 88 87
f 34 35 89 88
f 35 36 90 89
f 36 37 91 90
f 37 38 92 91
f 38 39 93 92
f 39 40 94 93
f 40 41 95 94
f 41 42 96 95
f 42 43 97 96
f 43 44 98 97
f 44 45 99 98
f 45 46 100 99
f 46 47 101 100
f 47 48 102 101
f 48 49 103 102
f 49 50 104 103
f 50 51 105 104
f 51 52 106 105
f 52 53 107 106
f 53 54 108 107
f 54 55 109 108
f 55 56 110 109
f 56 57 111 110
f 57 58 112 111
f 58 59 113 112
f 59 60 114 113
f 60 61 115 114
f 61 62 116 115
f 62 63 117 116
f 63 64 118 117
f 64 65 119 118
f 65 66 120 119
f 66 67 121 120
f 67 68 122 121
f 68 69 123 122
f 69 70 124 123
f 70 71 125 124
f 71 72 126 125
f 72 73 127 126
f 73 74 128 127
f 74 75 129 128
f 75 76 130 129
f 76 77 131 130
f 77 78 132 131
f 78 79 133 132
f 79 80 134 133
f 80 81 135 134
f 81 28 82 135
