# school_id SD0950
# school_name 邹平市第二实验小学
# boundary_source footprint_convex_hull_buffer_20m
# adjacent_block_merge_distance_m 2.0
mtllib ../campus_materials.mtl
o SD0950_campus_boundary
usemtl campus_boundary
v -3.424 -97.151 0.050
v -56.881 -89.126 0.050
v -76.037 70.861 0.050
v -74.492 101.379 0.050
v -40.657 105.776 0.050
v 19.100 103.172 0.050
v 102.083 -31.627 0.050
v 102.465 -50.406 0.050
v 96.020 -70.987 0.050
v 35.588 -93.931 0.050
v -3.424 -97.151 0.050
l 1 2 3 4 5 6 7 8 9 10 11 1
o SD0950_T001_1hao
v -39.868 82.990 0.000
v -55.362 83.697 0.000
v -55.977 71.549 0.000
v -38.915 70.720 0.000
v -39.396 60.418 0.000
v -34.552 60.197 0.000
v -34.650 58.130 0.000
v 2.394 56.416 0.000
v 2.545 59.677 0.000
v 6.499 59.500 0.000
v 7.630 83.653 0.000
v -39.797 85.720 0.000
v -39.868 82.990 31.430
v -55.362 83.697 31.430
v -55.977 71.549 31.430
v -38.915 70.720 31.430
v -39.396 60.418 31.430
v -34.552 60.197 31.430
v -34.650 58.130 31.430
v 2.394 56.416 31.430
v 2.545 59.677 31.430
v 6.499 59.500 31.430
v 7.630 83.653 31.430
v -39.797 85.720 31.430
usemtl roof
f 24 25 26 27 28 29 30 31 32 33 34 35
usemtl teaching_building
f 23 22 21 20 19 18 17 16 15 14 13 12
f 12 13 25 24
f 13 14 26 25
f 14 15 27 26
f 15 16 28 27
f 16 17 29 28
f 17 18 30 29
f 18 19 31 30
f 19 20 32 31
f 20 21 33 32
f 21 22 34 33
f 22 23 35 34
f 23 12 24 35
o SD0950_T002_2hao
v 82.403 -47.547 0.000
v 79.678 -47.602 0.000
v 79.838 -55.738 0.000
v 30.381 -56.733 0.000
v 31.129 -74.231 0.000
v -2.753 -77.028 0.000
v -3.848 -58.977 0.000
v 25.974 -57.020 0.000
v 25.822 -49.547 0.000
v 19.313 -49.680 0.000
v 19.090 -38.737 0.000
v 82.198 -37.476 0.000
v 82.403 -47.547 11.770
v 79.678 -47.602 11.770
v 79.838 -55.738 11.770
v 30.381 -56.733 11.770
v 31.129 -74.231 11.770
v -2.753 -77.028 11.770
v -3.848 -58.977 11.770
v 25.974 -57.020 11.770
v 25.822 -49.547 11.770
v 19.313 -49.680 11.770
v 19.090 -38.737 11.770
v 82.198 -37.476 11.770
usemtl roof
f 48 49 50 51 52 53 54 55 56 57 58 59
usemtl teaching_building
f 47 46 45 44 43 42 41 40 39 38 37 36
f 36 37 49 48
f 37 38 50 49
f 38 39 51 50
f 39 40 52 51
f 40 41 53 52
f 41 42 54 53
f 42 43 55 54
f 43 44 56 55
f 44 45 57 56
f 45 46 58 57
f 46 47 59 58
f 47 36 48 59
o SD0950_T003_3hao
v -38.835 -71.611 0.000
v -8.666 -70.152 0.000
v -9.093 -61.386 0.000
v -39.262 -62.834 0.000
v -38.835 -71.611 10.580
v -8.666 -70.152 10.580
v -9.093 -61.386 10.580
v -39.262 -62.834 10.580
usemtl roof
f 64 65 66 67
usemtl teaching_building
f 63 62 61 60
f 60 61 65 64
f 61 62 66 65
f 62 63 67 66
f 63 60 64 67
