# school_id SD0971
# school_name 单县龙王庙学校中学部
# boundary_source footprint_convex_hull_buffer_20m
# adjacent_block_merge_distance_m 2.0
mtllib ../campus_materials.mtl
o SD0971_campus_boundary
usemtl campus_boundary
v 58.789 -83.090 0.050
v -57.102 -72.401 0.050
v -61.255 48.242 0.050
v -55.495 85.680 0.050
v 14.548 75.038 0.050
v 68.263 25.660 0.050
v 61.699 -51.939 0.050
v 58.789 -83.090 0.050
l 1 2 3 4 5 6 7 8 1
o SD0971_T001_1hao
v 3.061 40.338 0.000
v 5.508 56.182 0.000
v -38.763 62.908 0.000
v -41.202 47.055 0.000
v 3.061 40.338 6.600
v 5.508 56.182 6.600
v -38.763 62.908 6.600
v -41.202 47.055 6.600
usemtl roof
f 13 14 15 16
usemtl teaching_building
f 12 11 10 9
f 9 10 14 13
f 10 11 15 14
f 11 12 16 15
f 12 9 13 16
o SD0971_T002_2hao
v 46.350 7.075 0.000
v 47.508 17.573 0.000
v -25.392 25.495 0.000
v -26.550 14.997 0.000
v 46.350 7.075 6.600
v 47.508 17.573 6.600
v -25.392 25.495 6.600
v -26.550 14.997 6.600
usemtl roof
f 21 22 23 24
usemtl teaching_building
f 20 19 18 17
f 17 18 22 21
f 18 19 23 22
f 19 20 24 23
f 20 17 21 24
o SD0971_T003_3hao
v 43.166 -25.511 0.000
v 44.409 -14.995 0.000
v -32.480 -6.035 0.000
v -33.731 -16.551 0.000
v 43.166 -25.511 6.600
v 44.409 -14.995 6.600
v -32.480 -6.035 6.600
v -33.731 -16.551 6.600
usemtl roof
f 29 30 31 32
usemtl teaching_building
f 28 27 26 25
f 25 26 30 29
f 26 27 31 30
f 27 28 32 31
f 28 25 29 32
o SD0971_T004_4hao
v 40.734 -61.340 0.000
v 41.778 -50.166 0.000
v -36.676 -42.921 0.000
v -37.720 -54.104 0.000
v 40.734 -61.340 6.600
v 41.778 -50.166 6.600
v -36.676 -42.921 6.600
v -37.720 -54.104 6.600
usemtl roof
f 37 38 39 40
usemtl teaching_building
f 36 35 34 33
f 33 34 38 37
f 34 35 39 38
f 35 36 40 39
f 36 33 37 40
