# school_id SD0922
# school_name 临清市武训实验小学
# boundary_source footprint_convex_hull_buffer_20m
# adjacent_block_merge_distance_m 2.0
mtllib ../campus_materials.mtl
o SD0922_campus_boundary
usemtl campus_boundary
v 11.242 -71.941 0.050
v -20.580 -66.787 0.050
v -59.947 -59.250 0.050
v -70.220 -9.929 0.050
v -67.597 6.086 0.050
v -48.677 64.440 0.050
v 50.221 56.132 0.050
v 87.927 39.480 0.050
v 88.669 15.484 0.050
v 82.138 -18.512 0.050
v 11.242 -71.941 0.050
l 1 2 3 4 5 6 7 8 9 10 11 1
o SD0922_T001_1hao
v -27.592 26.162 0.000
v -27.816 24.818 0.000
v -24.023 24.197 0.000
v -23.799 25.559 0.000
v 5.287 20.834 0.000
v 5.055 19.435 0.000
v 9.670 18.684 0.000
v 9.901 20.093 0.000
v 19.706 18.508 0.000
v 22.252 33.981 0.000
v -34.544 43.182 0.000
v -37.083 27.700 0.000
v -27.592 26.162 9.900
v -27.816 24.818 9.900
v -24.023 24.197 9.900
v -23.799 25.559 9.900
v 5.287 20.834 9.900
v 5.055 19.435 9.900
v 9.670 18.684 9.900
v 9.901 20.093 9.900
v 19.706 18.508 9.900
v 22.252 33.981 9.900
v -34.544 43.182 9.900
v -37.083 27.700 9.900
usemtl roof
f 24 25 26 27 28 29 30 31 32 33 34 35
usemtl teaching_building
f 23 22 21 20 19 18 17 16 15 14 13 12
f 12 13 25 24
f 13 14 26 25
f 14 15 27 26
f 15 16 28 27
f 16 17 29 28
f 17 18 30 29
f 18 19 31 30
f 19 20 32 31
f 20 21 33 32
f 21 22 34 33
f 22 23 35 34
f 23 12 24 35
o SD0922_T002_2hao
v 63.950 -7.175 0.000
v 68.610 17.081 0.000
v 42.944 21.946 0.000
v 38.277 -2.320 0.000
v 63.950 -7.175 9.900
v 68.610 17.081 9.900
v 42.944 21.946 9.900
v 38.277 -2.320 9.900
usemtl roof
f 40 41 42 43
usemtl teaching_building
f 39 38 37 36
f 36 37 41 40
f 37 38 42 41
f 38 39 43 42
f 39 36 40 43
o SD0922_T003_3hao
v -38.375 -11.363 0.000
v -39.629 -18.970 0.000
v -20.700 -22.037 0.000
v -19.453 -14.421 0.000
v 12.366 -19.591 0.000
v 14.143 -8.723 0.000
v -48.105 1.358 0.000
v -49.882 -9.492 0.000
v -38.375 -11.363 9.900
v -39.629 -18.970 9.900
v -20.700 -22.037 9.900
v -19.453 -14.421 9.900
v 12.366 -19.591 9.900
v 14.143 -8.723 9.900
v -48.105 1.358 9.900
v -49.882 -9.492 9.900
usemtl roof
f 52 53 54 55 56 57 58 59
usemtl teaching_building
f 51 50 49 48 47 46 45 44
f 44 45 53 52
f 45 46 54 53
f 46 47 55 54
f 47 48 56 55
f 48 49 57 56
f 49 50 58 57
f 50 51 59 58
f 51 44 52 59
