# school_id SD0924
# school_name 临清市第一中学
# boundary_source footprint_convex_hull_buffer_20m
# adjacent_block_merge_distance_m 2.0
mtllib ../campus_materials.mtl
o SD0924_campus_boundary
usemtl campus_boundary
v 24.425 -131.581 0.050
v -22.705 -119.586 0.050
v -32.861 -114.180 0.050
v -113.972 -60.782 0.050
v -146.552 -14.565 0.050
v -121.406 83.040 0.050
v 11.354 177.229 0.050
v 107.254 165.071 0.050
v 101.245 20.405 0.050
v 91.838 -19.257 0.050
v 54.250 -111.742 0.050
v 44.127 -129.788 0.050
v 24.425 -131.581 0.050
l 1 2 3 4 5 6 7 8 9 10 11 12 13 1
o SD0924_T001_1hao
v 84.523 132.123 0.000
v 86.509 147.541 0.000
v 16.570 156.408 0.000
v 14.598 140.990 0.000
v 84.523 132.123 9.900
v 86.509 147.541 9.900
v 16.570 156.408 9.900
v 14.598 140.990 9.900
usemtl roof
f 18 19 20 21
usemtl teaching_building
f 17 16 15 14
f 14 15 19 18
f 15 16 20 19
f 16 17 21 20
f 17 14 18 21
o SD0924_T002_2hao
v 9.535 29.954 0.000
v 9.214 28.323 0.000
v 4.704 29.185 0.000
v 6.668 39.210 0.000
v 21.685 36.315 0.000
v 13.613 37.876 0.000
v 14.307 41.425 0.000
v 13.269 41.619 0.000
v 17.854 65.070 0.000
v 18.900 64.866 0.000
v 20.235 71.708 0.000
v 14.203 72.871 0.000
v 16.271 83.424 0.000
v 20.796 82.553 0.000
v 20.483 80.941 0.000
v 73.673 70.685 0.000
v 71.925 61.743 0.000
v 28.561 70.103 0.000
v 21.946 36.264 0.000
v 65.294 27.906 0.000
v 63.659 19.503 0.000
v 9.535 29.954 9.900
v 9.214 28.323 9.900
v 4.704 29.185 9.900
v 6.668 39.210 9.900
v 21.685 36.315 9.900
v 13.613 37.876 9.900
v 14.307 41.425 9.900
v 13.269 41.619 9.900
v 17.854 65.070 9.900
v 18.900 64.866 9.900
v 20.235 71.708 9.900
v 14.203 72.871 9.900
v 16.271 83.424 9.900
v 20.796 82.553 9.900
v 20.483 80.941 9.900
v 73.673 70.685 9.900
v 71.925 61.743 9.900
v 28.561 70.103 9.900
v 21.946 36.264 9.900
v 65.294 27.906 9.900
v 63.659 19.503 9.900
usemtl roof
f 43 44 45 46 47 48 49 50 51 52 53 54 55 56 57 58 59 60 61 62 63
usemtl teaching_building
f 42 41 40 39 38 37 36 35 34 33 32 31 30 29 28 27 26 25 24 23 22
f 22 23 44 43
f 23 24 45 44
f 24 25 46 45
f 25 26 47 46
f 26 27 48 47
f 27 28 49 48
f 28 29 50 49
f 29 30 51 50
f 30 31 52 51
f 31 32 53 52
f 32 33 54 53
f 33 34 55 54
f 34 35 56 55
f 35 36 57 56
f 36 37 58 57
f 37 38 59 58
f 38 39 60 59
f 39 40 61 60
f 40 41 62 61
f 41 42 63 62
f 42 22 43 63
o SD0924_T002_2hao_seg02
v 64.182 63.235 0.000
v 71.925 61.743 0.000
v 65.294 27.906 0.000
v 57.566 29.398 0.000
v 64.182 63.235 9.900
v 71.925 61.743 9.900
v 65.294 27.906 9.900
v 57.566 29.398 9.900
usemtl roof
f 68 69 70 71
usemtl teaching_building
f 67 66 65 64
f 64 65 69 68
f 65 66 70 69
f 66 67 71 70
f 67 64 68 71
o SD0924_T003_3hao
v -112.743 0.638 0.000
v -109.532 15.213 0.000
v -54.721 3.316 0.000
v -57.006 -7.070 0.000
v -72.986 -3.596 0.000
v -73.905 -7.793 0.000
v -112.743 0.638 9.900
v -109.532 15.213 9.900
v -54.721 3.316 9.900
v -57.006 -7.070 9.900
v -72.986 -3.596 9.900
v -73.905 -7.793 9.900
usemtl roof
f 78 79 80 81 82 83
usemtl teaching_building
f 77 76 75 74 73 72
f 72 73 79 78
f 73 74 80 79
f 74 75 81 80
f 75 76 82 81
f 76 77 83 82
f 77 72 78 83
o SD0924_T003_3hao_seg02
v -124.877 -10.600 0.000
v -103.864 70.963 0.000
v -97.263 69.276 0.000
v -118.269 -12.277 0.000
v -124.877 -10.600 9.900
v -103.864 70.963 9.900
v -97.263 69.276 9.900
v -118.269 -12.277 9.900
usemtl roof
f 88 89 90 91
usemtl teaching_building
f 87 86 85 84
f 84 85 89 88
f 85 86 90 89
f 86 87 91 90
f 87 84 88 91
o SD0924_T004_4hao
v -24.337 5.002 0.000
v -25.867 -1.984 0.000
v -17.153 -3.864 0.000
v -15.622 3.112 0.000
v 2.322 -0.779 0.000
v 4.398 8.653 0.000
v -13.546 12.554 0.000
v -11.074 23.783 0.000
v -19.781 25.673 0.000
v -22.253 14.425 0.000
v -40.690 18.428 0.000
v -42.766 8.987 0.000
v -24.337 5.002 9.900
v -25.867 -1.984 9.900
v -17.153 -3.864 9.900
v -15.622 3.112 9.900
v 2.322 -0.779 9.900
v 4.398 8.653 9.900
v -13.546 12.554 9.900
v -11.074 23.783 9.900
v -19.781 25.673 9.900
v -22.253 14.425 9.900
v -40.690 18.428 9.900
v -42.766 8.987 9.900
usemtl roof
f 104 105 106 107 108 109 110 111 112 113 114 115
usemtl teaching_building
f 103 102 101 100 99 98 97 96 95 94 93 92
f 92 93 105 104
f 93 94 106 105
f 94 95 107 106
f 95 96 108 107
f 96 97 109 108
f 97 98 110 109
f 98 99 111 110
f 99 100 112 111
f 100 101 113 112
f 101 102 114 113
f 102 103 115 114
f 103 92 104 115
o SD0924_T005_5hao
v 72.732 -13.148 0.000
v 81.342 23.153 0.000
v 73.284 25.043 0.000
v 64.689 -11.268 0.000
v 72.732 -13.148 9.900
v 81.342 23.153 9.900
v 73.284 25.043 9.900
v 64.689 -11.268 9.900
usemtl roof
f 120 121 122 123
usemtl teaching_building
f 119 118 117 116
f 116 117 121 120
f 117 118 122 121
f 118 119 123 122
f 119 116 120 123
o SD0924_T006_6hao
v 33.028 -34.486 0.000
v 36.276 -19.690 0.000
v 4.353 -12.759 0.000
v 1.097 -27.556 0.000
v 33.028 -34.486 9.900
v 36.276 -19.690 9.900
v 4.353 -12.759 9.900
v 1.097 -27.556 9.900
usemtl roof
f 128 129 130 131
usemtl teaching_building
f 127 126 125 124
f 124 125 129 128
f 125 126 130 129
f 126 127 131 130
f 127 124 128 131
o SD0924_T007_7hao
v 52.137 -43.604 0.000
v 58.268 -19.856 0.000
v 46.768 -16.929 0.000
v 40.637 -40.676 0.000
v 52.137 -43.604 9.900
v 58.268 -19.856 9.900
v 46.768 -16.929 9.900
v 40.637 -40.676 9.900
usemtl roof
f 136 137 138 139
usemtl teaching_building
f 135 134 133 132
f 132 133 137 136
f 133 134 138 137
f 134 135 139 138
f 135 132 136 139
o SD0924_T008_8hao
v -43.147 -60.587 0.000
v -39.757 -47.486 0.000
v -44.274 -46.337 0.000
v -43.274 -42.464 0.000
v -51.331 -40.407 0.000
v -52.332 -44.280 0.000
v -87.227 -35.404 0.000
v -86.129 -31.160 0.000
v -89.377 -30.326 0.000
v -90.475 -34.570 0.000
v -96.427 -33.060 0.000
v -99.809 -46.161 0.000
v -43.147 -60.587 9.900
v -39.757 -47.486 9.900
v -44.274 -46.337 9.900
v -43.274 -42.464 9.900
v -51.331 -40.407 9.900
v -52.332 -44.280 9.900
v -87.227 -35.404 9.900
v -86.129 -31.160 9.900
v -89.377 -30.326 9.900
v -90.475 -34.570 9.900
v -96.427 -33.060 9.900
v -99.809 -46.161 9.900
usemtl roof
f 152 153 154 155 156 157 158 159 160 161 162 163
usemtl teaching_building
f 151 150 149 148 147 146 145 144 143 142 141 140
f 140 141 153 152
f 141 142 154 153
f 142 143 155 154
f 143 144 156 155
f 144 145 157 156
f 145 146 158 157
f 146 147 159 158
f 147 148 160 159
f 148 149 161 160
f 149 150 162 161
f 150 151 163 162
f 151 140 152 163
o SD0924_T009_9hao
v -14.950 -98.918 0.000
v -15.435 -100.799 0.000
v 26.031 -111.352 0.000
v 26.524 -109.471 0.000
v 31.833 -110.824 0.000
v 33.984 -102.485 0.000
v 36.194 -103.050 0.000
v 42.638 -78.071 0.000
v 40.428 -77.506 0.000
v 42.340 -70.121 0.000
v 37.030 -68.759 0.000
v 37.404 -67.332 0.000
v -4.070 -56.779 0.000
v -4.443 -58.206 0.000
v -12.142 -56.251 0.000
v -14.099 -63.839 0.000
v -11.089 -64.608 0.000
v -17.213 -88.327 0.000
v -20.222 -87.568 0.000
v -22.641 -96.963 0.000
v -14.950 -98.918 9.900
v -15.435 -100.799 9.900
v 26.031 -111.352 9.900
v 26.524 -109.471 9.900
v 31.833 -110.824 9.900
v 33.984 -102.485 9.900
v 36.194 -103.050 9.900
v 42.638 -78.071 9.900
v 40.428 -77.506 9.900
v 42.340 -70.121 9.900
v 37.030 -68.759 9.900
v 37.404 -67.332 9.900
v -4.070 -56.779 9.900
v -4.443 -58.206 9.900
v -12.142 -56.251 9.900
v -14.099 -63.839 9.900
v -11.089 -64.608 9.900
v -17.213 -88.327 9.900
v -20.222 -87.568 9.900
v -22.641 -96.963 9.900
usemtl roof
f 184 185 186 187 188 189 190 191 192 193 194 195 196 197 198 199 200 201 202 203
usemtl teaching_building
f 183 182 181 180 179 178 177 176 175 174 173 172 171 170 169 168 167 166 165 164
f 164 165 185 184
f 165 166 186 185
f 166 167 187 186
f 167 168 188 187
f 168 169 189 188
f 169 170 190 189
f 170 171 191 190
f 171 172 192 191
f 172 173 193 192
f 173 174 194 193
f 174 175 195 194
f 175 176 196 195
f 176 177 197 196
f 177 178 198 197
f 178 179 199 198
f 179 180 200 199
f 180 181 201 200
f 181 182 202 201
f 182 183 203 202
f 183 164 184 203
