# school_id SD0963
# school_name 单县实验小学
# boundary_source footprint_convex_hull_buffer_20m
# adjacent_block_merge_distance_m 2.0
mtllib ../campus_materials.mtl
o SD0963_campus_boundary
usemtl campus_boundary
v 90.215 -40.605 0.050
v -129.119 -11.365 0.050
v -120.973 48.914 0.050
v 98.363 19.661 0.050
v 90.215 -40.605 0.050
l 1 2 3 4 5 1
o SD0963_T001_1hao
v 75.859 2.485 0.000
v 73.070 -18.142 0.000
v -106.616 5.812 0.000
v -103.827 26.450 0.000
v 75.859 2.485 17.060
v 73.070 -18.142 17.060
v -106.616 5.812 17.060
v -103.827 26.450 17.060
usemtl roof
f 10 11 12 13
usemtl teaching_building
f 9 8 7 6
f 6 7 11 10
f 7 8 12 11
f 8 9 13 12
f 9 6 10 13
