# school_id SD0997
# school_name 菏泽一中
# boundary_source footprint_convex_hull_buffer_20m
# adjacent_block_merge_distance_m 2.0
mtllib ../campus_materials.mtl
o SD0997_campus_boundary
usemtl campus_boundary
v 144.685 -220.308 0.050
v 121.883 -218.851 0.050
v -26.281 -199.274 0.050
v -44.796 -196.817 0.050
v -60.082 -194.368 0.050
v -68.297 -188.551 0.050
v -120.307 -139.195 0.050
v -116.876 -118.123 0.050
v -105.489 -49.101 0.050
v -93.211 19.471 0.050
v -69.669 149.943 0.050
v -59.298 201.737 0.050
v -33.620 199.053 0.050
v -24.669 197.772 0.050
v 34.476 188.826 0.050
v 39.250 188.061 0.050
v 49.442 186.135 0.050
v 187.855 122.158 0.050
v 186.481 97.456 0.050
v 164.460 -204.350 0.050
v 144.685 -220.308 0.050
l 1 2 3 4 5 6 7 8 9 10 11 12 13 14 15 16 17 18 19 20 21 1
o SD0997_T001_1hao
v -9.289 174.934 0.000
v -9.525 173.497 0.000
v -13.127 174.083 0.000
v -12.864 175.719 0.000
v -17.275 176.426 0.000
v -17.557 174.713 0.000
v -21.314 175.321 0.000
v -21.050 176.935 0.000
v -27.581 177.985 0.000
v -27.854 176.349 0.000
v -31.647 176.957 0.000
v -31.411 178.449 0.000
v -36.077 179.201 0.000
v -36.322 177.664 0.000
v -43.263 179.952 0.000
v -44.982 169.340 0.000
v -41.462 168.777 0.000
v -41.744 167.052 0.000
v -31.320 165.383 0.000
v -30.974 167.494 0.000
v -18.940 165.571 0.000
v -19.204 163.946 0.000
v -13.082 162.962 0.000
v -12.836 164.488 0.000
v -7.124 163.570 0.000
v -5.377 174.304 0.000
v -9.289 174.934 12.400
v -9.525 173.497 12.400
v -13.127 174.083 12.400
v -12.864 175.719 12.400
v -17.275 176.426 12.400
v -17.557 174.713 12.400
v -21.314 175.321 12.400
v -21.050 176.935 12.400
v -27.581 177.985 12.400
v -27.854 176.349 12.400
v -31.647 176.957 12.400
v -31.411 178.449 12.400
v -36.077 179.201 12.400
v -36.322 177.664 12.400
v -43.263 179.952 12.400
v -44.982 169.340 12.400
v -41.462 168.777 12.400
v -41.744 167.052 12.400
v -31.320 165.383 12.400
v -30.974 167.494 12.400
v -18.940 165.571 12.400
v -19.204 163.946 12.400
v -13.082 162.962 12.400
v -12.836 164.488 12.400
v -7.124 163.570 12.400
v -5.377 174.304 12.400
usemtl roof
f 48 49 50 51 52 53 54 55 56 57 58 59 60 61 62 63 64 65 66 67 68 69 70 71 72 73
usemtl teaching_building
f 47 46 45 44 43 42 41 40 39 38 37 36 35 34 33 32 31 30 29 28 27 26 25 24 23 22
f 22 23 49 48
f 23 24 50 49
f 24 25 51 50
f 25 26 52 51
f 26 27 53 52
f 27 28 54 53
f 28 29 55 54
f 29 30 56 55
f 30 31 57 56
f 31 32 58 57
f 32 33 59 58
f 33 34 60 59
f 34 35 61 60
f 35 36 62 61
f 36 37 63 62
f 37 38 64 63
f 38 39 65 64
f 39 40 66 65
f 40 41 67 66
f 41 42 68 67
f 42 43 69 68
f 43 44 70 69
f 44 45 71 70
f 45 46 72 71
f 46 47 73 72
f 47 22 48 73
o SD0997_T002_2hao
v 39.385 167.572 0.000
v 39.148 166.135 0.000
v 35.546 166.710 0.000
v 35.810 168.357 0.000
v 31.398 169.064 0.000
v 31.116 167.351 0.000
v 27.360 167.948 0.000
v 27.614 169.562 0.000
v 21.092 170.612 0.000
v 20.819 168.976 0.000
v 17.017 169.595 0.000
v 17.263 171.087 0.000
v 12.597 171.839 0.000
v 12.351 170.291 0.000
v 5.411 172.590 0.000
v 3.691 161.979 0.000
v 7.212 161.415 0.000
v 6.930 159.690 0.000
v 17.354 158.010 0.000
v 17.699 160.133 0.000
v 29.734 158.198 0.000
v 29.470 156.573 0.000
v 35.592 155.600 0.000
v 35.837 157.115 0.000
v 41.550 156.197 0.000
v 43.296 166.942 0.000
v 39.385 167.572 10.970
v 39.148 166.135 10.970
v 35.546 166.710 10.970
v 35.810 168.357 10.970
v 31.398 169.064 10.970
v 31.116 167.351 10.970
v 27.360 167.948 10.970
v 27.614 169.562 10.970
v 21.092 170.612 10.970
v 20.819 168.976 10.970
v 17.017 169.595 10.970
v 17.263 171.087 10.970
v 12.597 171.839 10.970
v 12.351 170.291 10.970
v 5.411 172.590 10.970
v 3.691 161.979 10.970
v 7.212 161.415 10.970
v 6.930 159.690 10.970
v 17.354 158.010 10.970
v 17.699 160.133 10.970
v 29.734 158.198 10.970
v 29.470 156.573 10.970
v 35.592 155.600 10.970
v 35.837 157.115 10.970
v 41.550 156.197 10.970
v 43.296 166.942 10.970
usemtl roof
f 100 101 102 103 104 105 106 107 108 109 110 111 112 113 114 115 116 117 118 119 120 121 122 123 124 125
usemtl teaching_building
f 99 98 97 96 95 94 93 92 91 90 89 88 87 86 85 84 83 82 81 80 79 78 77 76 75 74
f 74 75 101 100
f 75 76 102 101
f 76 77 103 102
f 77 78 104 103
f 78 79 105 104
f 79 80 106 105
f 80 81 107 106
f 81 82 108 107
f 82 83 109 108
f 83 84 110 109
f 84 85 111 110
f 85 86 112 111
f 86 87 113 112
f 87 88 114 113
f 88 89 115 114
f 89 90 116 115
f 90 91 117 116
f 91 92 118 117
f 92 93 119 118
f 93 94 120 119
f 94 95 121 120
f 95 96 122 121
f 96 97 123 122
f 97 98 124 123
f 98 99 125 124
f 99 74 100 125
o SD0997_T003_3hao
v -16.056 141.186 0.000
v -16.284 139.749 0.000
v -19.895 140.335 0.000
v -19.622 141.971 0.000
v -24.043 142.678 0.000
v -24.316 140.965 0.000
v -28.081 141.573 0.000
v -27.818 143.187 0.000
v -34.349 144.237 0.000
v -34.612 142.601 0.000
v -38.415 143.209 0.000
v -38.169 144.701 0.000
v -42.835 145.453 0.000
v -43.090 143.916 0.000
v -50.021 146.204 0.000
v -51.749 135.604 0.000
v -48.220 135.029 0.000
v -48.502 133.304 0.000
v -38.087 131.635 0.000
v -37.741 133.747 0.000
v -25.698 131.823 0.000
v -25.962 130.198 0.000
v -19.849 129.214 0.000
v -19.595 130.740 0.000
v -13.891 129.822 0.000
v -12.145 140.556 0.000
v -16.056 141.186 9.350
v -16.284 139.749 9.350
v -19.895 140.335 9.350
v -19.622 141.971 9.350
v -24.043 142.678 9.350
v -24.316 140.965 9.350
v -28.081 141.573 9.350
v -27.818 143.187 9.350
v -34.349 144.237 9.350
v -34.612 142.601 9.350
v -38.415 143.209 9.350
v -38.169 144.701 9.350
v -42.835 145.453 9.350
v -43.090 143.916 9.350
v -50.021 146.204 9.350
v -51.749 135.604 9.350
v -48.220 135.029 9.350
v -48.502 133.304 9.350
v -38.087 131.635 9.350
v -37.741 133.747 9.350
v -25.698 131.823 9.350
v -25.962 130.198 9.350
v -19.849 129.214 9.350
v -19.595 130.740 9.350
v -13.891 129.822 9.350
v -12.145 140.556 9.350
usemtl roof
f 152 153 154 155 156 157 158 159 160 161 162 163 164 165 166 167 168 169 170 171 172 173 174 175 176 177
usemtl teaching_building
f 151 150 149 148 147 146 145 144 143 142 141 140 139 138 137 136 135 134 133 132 131 130 129 128 127 126
f 126 127 153 152
f 127 128 154 153
f 128 129 155 154
f 129 130 156 155
f 130 131 157 156
f 131 132 158 157
f 132 133 159 158
f 133 134 160 159
f 134 135 161 160
f 135 136 162 161
f 136 137 163 162
f 137 138 164 163
f 138 139 165 164
f 139 140 166 165
f 140 141 167 166
f 141 142 168 167
f 142 143 169 168
f 143 144 170 169
f 144 145 171 170
f 145 146 172 171
f 146 147 173 172
f 147 148 174 173
f 148 149 175 174
f 149 150 176 175
f 150 151 177 176
f 151 126 152 177
o SD0997_T004_4hao
v 33.381 133.824 0.000
v 33.145 132.398 0.000
v 29.543 132.973 0.000
v 29.806 134.620 0.000
v 25.395 135.327 0.000
v 25.113 133.614 0.000
v 21.356 134.211 0.000
v 21.611 135.825 0.000
v 15.089 136.875 0.000
v 14.816 135.239 0.000
v 11.014 135.847 0.000
v 11.259 137.350 0.000
v 6.593 138.091 0.000
v 6.347 136.554 0.000
v -0.593 138.843 0.000
v -2.312 128.242 0.000
v 1.208 127.678 0.000
v 0.926 125.942 0.000
v 11.350 124.273 0.000
v 11.696 126.396 0.000
v 23.730 124.461 0.000
v 23.466 122.836 0.000
v 29.588 121.864 0.000
v 29.834 123.378 0.000
v 35.546 122.460 0.000
v 37.293 133.205 0.000
v 33.381 133.824 15.750
v 33.145 132.398 15.750
v 29.543 132.973 15.750
v 29.806 134.620 15.750
v 25.395 135.327 15.750
v 25.113 133.614 15.750
v 21.356 134.211 15.750
v 21.611 135.825 15.750
v 15.089 136.875 15.750
v 14.816 135.239 15.750
v 11.014 135.847 15.750
v 11.259 137.350 15.750
v 6.593 138.091 15.750
v 6.347 136.554 15.750
v -0.593 138.843 15.750
v -2.312 128.242 15.750
v 1.208 127.678 15.750
v 0.926 125.942 15.750
v 11.350 124.273 15.750
v 11.696 126.396 15.750
v 23.730 124.461 15.750
v 23.466 122.836 15.750
v 29.588 121.864 15.750
v 29.834 123.378 15.750
v 35.546 122.460 15.750
v 37.293 133.205 15.750
usemtl roof
f 204 205 206 207 208 209 210 211 212 213 214 215 216 217 218 219 220 221 222 223 224 225 226 227 228 229
usemtl teaching_building
f 203 202 201 200 199 198 197 196 195 194 193 192 191 190 189 188 187 186 185 184 183 182 181 180 179 178
f 178 179 205 204
f 179 180 206 205
f 180 181 207 206
f 181 182 208 207
f 182 183 209 208
f 183 184 210 209
f 184 185 211 210
f 185 186 212 211
f 186 187 213 212
f 187 188 214 213
f 188 189 215 214
f 189 190 216 215
f 190 191 217 216
f 191 192 218 217
f 192 193 219 218
f 193 194 220 219
f 194 195 221 220
f 195 196 222 221
f 196 197 223 222
f 197 198 224 223
f 198 199 225 224
f 199 200 226 225
f 200 201 227 226
f 201 202 228 227
f 202 203 229 228
f 203 178 204 229
o SD0997_T005_5hao
v 101.911 127.446 0.000
v 101.193 116.436 0.000
v 94.625 116.856 0.000
v 94.234 110.810 0.000
v 79.890 111.727 0.000
v 80.299 118.083 0.000
v 71.694 118.636 0.000
v 71.430 114.590 0.000
v 58.068 115.452 0.000
v 58.314 119.233 0.000
v 53.238 119.553 0.000
v 53.948 130.508 0.000
v 101.911 127.446 13.040
v 101.193 116.436 13.040
v 94.625 116.856 13.040
v 94.234 110.810 13.040
v 79.890 111.727 13.040
v 80.299 118.083 13.040
v 71.694 118.636 13.040
v 71.430 114.590 13.040
v 58.068 115.452 13.040
v 58.314 119.233 13.040
v 53.238 119.553 13.040
v 53.948 130.508 13.040
usemtl roof
f 242 243 244 245 246 247 248 249 250 251 252 253
usemtl teaching_building
f 241 240 239 238 237 236 235 234 233 232 231 230
f 230 231 243 242
f 231 232 244 243
f 232 233 245 244
f 233 234 246 245
f 234 235 247 246
f 235 236 248 247
f 236 237 249 248
f 237 238 250 249
f 238 239 251 250
f 239 240 252 251
f 240 241 253 252
f 241 230 242 253
o SD0997_T006_6hao
v 119.149 112.324 0.000
v 118.530 101.314 0.000
v 125.107 100.949 0.000
v 124.770 94.903 0.000
v 139.124 94.118 0.000
v 139.478 100.485 0.000
v 148.092 100.010 0.000
v 147.865 95.964 0.000
v 161.236 95.234 0.000
v 161.446 99.015 0.000
v 166.521 98.739 0.000
v 167.131 109.704 0.000
v 119.149 112.324 14.600
v 118.530 101.314 14.600
v 125.107 100.949 14.600
v 124.770 94.903 14.600
v 139.124 94.118 14.600
v 139.478 100.485 14.600
v 148.092 100.010 14.600
v 147.865 95.964 14.600
v 161.236 95.234 14.600
v 161.446 99.015 14.600
v 166.521 98.739 14.600
v 167.131 109.704 14.600
usemtl roof
f 266 267 268 269 270 271 272 273 274 275 276 277
usemtl teaching_building
f 265 264 263 262 261 260 259 258 257 256 255 254
f 254 255 267 266
f 255 256 268 267
f 256 257 269 268
f 257 258 270 269
f 258 259 271 270
f 259 260 272 271
f 260 261 273 272
f 261 262 274 273
f 262 263 275 274
f 263 264 276 275
f 264 265 277 276
f 265 254 266 277
o SD0997_T007_7hao
v -21.805 106.941 0.000
v -22.032 105.504 0.000
v -25.644 106.089 0.000
v -25.371 107.725 0.000
v -29.791 108.433 0.000
v -30.064 106.720 0.000
v -33.830 107.328 0.000
v -33.566 108.941 0.000
v -40.097 109.992 0.000
v -40.361 108.356 0.000
v -44.163 108.964 0.000
v -43.918 110.456 0.000
v -48.584 111.208 0.000
v -48.839 109.671 0.000
v -55.770 111.959 0.000
v -57.498 101.358 0.000
v -53.969 100.784 0.000
v -54.251 99.059 0.000
v -43.827 97.390 0.000
v -43.490 99.501 0.000
v -31.447 97.578 0.000
v -31.711 95.953 0.000
v -25.589 94.969 0.000
v -25.343 96.495 0.000
v -19.640 95.577 0.000
v -17.894 106.311 0.000
v -21.805 106.941 13.990
v -22.032 105.504 13.990
v -25.644 106.089 13.990
v -25.371 107.725 13.990
v -29.791 108.433 13.990
v -30.064 106.720 13.990
v -33.830 107.328 13.990
v -33.566 108.941 13.990
v -40.097 109.992 13.990
v -40.361 108.356 13.990
v -44.163 108.964 13.990
v -43.918 110.456 13.990
v -48.584 111.208 13.990
v -48.839 109.671 13.990
v -55.770 111.959 13.990
v -57.498 101.358 13.990
v -53.969 100.784 13.990
v -54.251 99.059 13.990
v -43.827 97.390 13.990
v -43.490 99.501 13.990
v -31.447 97.578 13.990
v -31.711 95.953 13.990
v -25.589 94.969 13.990
v -25.343 96.495 13.990
v -19.640 95.577 13.990
v -17.894 106.311 13.990
usemtl roof
f 304 305 306 307 308 309 310 311 312 313 314 315 316 317 318 319 320 321 322 323 324 325 326 327 328 329
usemtl teaching_building
f 303 302 301 300 299 298 297 296 295 294 293 292 291 290 289 288 287 286 285 284 283 282 281 280 279 278
f 278 279 305 304
f 279 280 306 305
f 280 281 307 306
f 281 282 308 307
f 282 283 309 308
f 283 284 310 309
f 284 285 311 310
f 285 286 312 311
f 286 287 313 312
f 287 288 314 313
f 288 289 315 314
f 289 290 316 315
f 290 291 317 316
f 291 292 318 317
f 292 293 319 318
f 293 294 320 319
f 294 295 321 320
f 295 296 322 321
f 296 297 323 322
f 297 298 324 323
f 298 299 325 324
f 299 300 326 325
f 300 301 327 326
f 301 302 328 327
f 302 303 329 328
f 303 278 304 329
o SD0997_T008_8hao
v 27.378 99.457 0.000
v 27.141 98.020 0.000
v 23.539 98.606 0.000
v 23.803 100.242 0.000
v 19.391 100.949 0.000
v 19.109 99.236 0.000
v 15.353 99.844 0.000
v 15.607 101.458 0.000
v 9.085 102.508 0.000
v 8.813 100.872 0.000
v 5.010 101.480 0.000
v 5.256 102.972 0.000
v 0.590 103.724 0.000
v 0.344 102.187 0.000
v -6.596 104.476 0.000
v -8.315 93.875 0.000
v -4.795 93.300 0.000
v -5.077 91.576 0.000
v 5.347 89.906 0.000
v 5.693 92.018 0.000
v 17.727 90.094 0.000
v 17.463 88.469 0.000
v 23.585 87.486 0.000
v 23.830 89.011 0.000
v 29.543 88.094 0.000
v 31.289 98.827 0.000
v 27.378 99.457 9.540
v 27.141 98.020 9.540
v 23.539 98.606 9.540
v 23.803 100.242 9.540
v 19.391 100.949 9.540
v 19.109 99.236 9.540
v 15.353 99.844 9.540
v 15.607 101.458 9.540
v 9.085 102.508 9.540
v 8.813 100.872 9.540
v 5.010 101.480 9.540
v 5.256 102.972 9.540
v 0.590 103.724 9.540
v 0.344 102.187 9.540
v -6.596 104.476 9.540
v -8.315 93.875 9.540
v -4.795 93.300 9.540
v -5.077 91.576 9.540
v 5.347 89.906 9.540
v 5.693 92.018 9.540
v 17.727 90.094 9.540
v 17.463 88.469 9.540
v 23.585 87.486 9.540
v 23.830 89.011 9.540
v 29.543 88.094 9.540
v 31.289 98.827 9.540
usemtl roof
f 356 357 358 359 360 361 362 363 364 365 366 367 368 369 370 371 372 373 374 375 376 377 378 379 380 381
usemtl teaching_building
f 355 354 353 352 351 350 349 348 347 346 345 344 343 342 341 340 339 338 337 336 335 334 333 332 331 330
f 330 331 357 356
f 331 332 358 357
f 332 333 359 358
f 333 334 360 359
f 334 335 361 360
f 335 336 362 361
f 336 337 363 362
f 337 338 364 363
f 338 339 365 364
f 339 340 366 365
f 340 341 367 366
f 341 342 368 367
f 342 343 369 368
f 343 344 370 369
f 344 345 371 370
f 345 346 372 371
f 346 347 373 372
f 347 348 374 373
f 348 349 375 374
f 349 350 376 375
f 350 351 377 376
f 351 352 378 377
f 352 353 379 378
f 353 354 380 379
f 354 355 381 380
f 355 330 356 381
o SD0997_T009_9hao
v 96.554 81.870 0.000
v 95.844 70.860 0.000
v 89.268 71.280 0.000
v 88.877 65.245 0.000
v 74.532 66.151 0.000
v 74.941 72.507 0.000
v 66.336 73.060 0.000
v 66.073 69.025 0.000
v 52.720 69.877 0.000
v 52.965 73.657 0.000
v 47.890 73.978 0.000
v 48.599 84.932 0.000
v 96.554 81.870 19.810
v 95.844 70.860 19.810
v 89.268 71.280 19.810
v 88.877 65.245 19.810
v 74.532 66.151 19.810
v 74.941 72.507 19.810
v 66.336 73.060 19.810
v 66.073 69.025 19.810
v 52.720 69.877 19.810
v 52.965 73.657 19.810
v 47.890 73.978 19.810
v 48.599 84.932 19.810
usemtl roof
f 394 395 396 397 398 399 400 401 402 403 404 405
usemtl teaching_building
f 393 392 391 390 389 388 387 386 385 384 383 382
f 382 383 395 394
f 383 384 396 395
f 384 385 397 396
f 385 386 398 397
f 386 387 399 398
f 387 388 400 399
f 388 389 401 400
f 389 390 402 401
f 390 391 403 402
f 391 392 404 403
f 392 393 405 404
f 393 382 394 405
o SD0997_T010_10hao
v -27.417 72.065 0.000
v -27.654 70.628 0.000
v -31.256 71.203 0.000
v -30.992 72.850 0.000
v -35.413 73.558 0.000
v -35.686 71.844 0.000
v -39.452 72.441 0.000
v -39.188 74.055 0.000
v -45.719 75.105 0.000
v -45.983 73.469 0.000
v -49.785 74.088 0.000
v -49.539 75.580 0.000
v -54.205 76.321 0.000
v -54.451 74.785 0.000
v -61.391 77.073 0.000
v -63.120 66.472 0.000
v -59.590 65.908 0.000
v -59.872 64.184 0.000
v -49.448 62.504 0.000
v -49.103 64.626 0.000
v -37.068 62.691 0.000
v -37.332 61.067 0.000
v -31.210 60.094 0.000
v -30.965 61.608 0.000
v -25.252 60.691 0.000
v -23.506 71.435 0.000
v -27.417 72.065 13.990
v -27.654 70.628 13.990
v -31.256 71.203 13.990
v -30.992 72.850 13.990
v -35.413 73.558 13.990
v -35.686 71.844 13.990
v -39.452 72.441 13.990
v -39.188 74.055 13.990
v -45.719 75.105 13.990
v -45.983 73.469 13.990
v -49.785 74.088 13.990
v -49.539 75.580 13.990
v -54.205 76.321 13.990
v -54.451 74.785 13.990
v -61.391 77.073 13.990
v -63.120 66.472 13.990
v -59.590 65.908 13.990
v -59.872 64.184 13.990
v -49.448 62.504 13.990
v -49.103 64.626 13.990
v -37.068 62.691 13.990
v -37.332 61.067 13.990
v -31.210 60.094 13.990
v -30.965 61.608 13.990
v -25.252 60.691 13.990
v -23.506 71.435 13.990
usemtl roof
f 432 433 434 435 436 437 438 439 440 441 442 443 444 445 446 447 448 449 450 451 452 453 454 455 456 457
usemtl teaching_building
f 431 430 429 428 427 426 425 424 423 422 421 420 419 418 417 416 415 414 413 412 411 410 409 408 407 406
f 406 407 433 432
f 407 408 434 433
f 408 409 435 434
f 409 410 436 435
f 410 411 437 436
f 411 412 438 437
f 412 413 439 438
f 413 414 440 439
f 414 415 441 440
f 415 416 442 441
f 416 417 443 442
f 417 418 444 443
f 418 419 445 444
f 419 420 446 445
f 420 421 447 446
f 421 422 448 447
f 422 423 449 448
f 423 424 450 449
f 424 425 451 450
f 425 426 452 451
f 426 427 453 452
f 427 428 454 453
f 428 429 455 454
f 429 430 456 455
f 430 431 457 456
f 431 406 432 457
o SD0997_T011_11hao
v 20.346 64.958 0.000
v 20.119 63.521 0.000
v 16.508 64.106 0.000
v 16.781 65.742 0.000
v 12.360 66.450 0.000
v 12.087 64.736 0.000
v 8.321 65.344 0.000
v 8.585 66.958 0.000
v 2.054 68.008 0.000
v 1.790 66.372 0.000
v -2.012 66.980 0.000
v -1.766 68.473 0.000
v -6.433 69.224 0.000
v -6.687 67.688 0.000
v -13.619 69.976 0.000
v -15.347 59.375 0.000
v -11.817 58.800 0.000
v -12.099 57.076 0.000
v -1.675 55.407 0.000
v -1.339 57.529 0.000
v 10.705 55.595 0.000
v 10.441 53.970 0.000
v 16.562 52.986 0.000
v 16.808 54.512 0.000
v 22.511 53.594 0.000
v 24.258 64.327 0.000
v 20.346 64.958 13.230
v 20.119 63.521 13.230
v 16.508 64.106 13.230
v 16.781 65.742 13.230
v 12.360 66.450 13.230
v 12.087 64.736 13.230
v 8.321 65.344 13.230
v 8.585 66.958 13.230
v 2.054 68.008 13.230
v 1.790 66.372 13.230
v -2.012 66.980 13.230
v -1.766 68.473 13.230
v -6.433 69.224 13.230
v -6.687 67.688 13.230
v -13.619 69.976 13.230
v -15.347 59.375 13.230
v -11.817 58.800 13.230
v -12.099 57.076 13.230
v -1.675 55.407 13.230
v -1.339 57.529 13.230
v 10.705 55.595 13.230
v 10.441 53.970 13.230
v 16.562 52.986 13.230
v 16.808 54.512 13.230
v 22.511 53.594 13.230
v 24.258 64.327 13.230
usemtl roof
f 484 485 486 487 488 489 490 491 492 493 494 495 496 497 498 499 500 501 502 503 504 505 506 507 508 509
usemtl teaching_building
f 483 482 481 480 479 478 477 476 475 474 473 472 471 470 469 468 467 466 465 464 463 462 461 460 459 458
f 458 459 485 484
f 459 460 486 485
f 460 461 487 486
f 461 462 488 487
f 462 463 489 488
f 463 464 490 489
f 464 465 491 490
f 465 466 492 491
f 466 467 493 492
f 467 468 494 493
f 468 469 495 494
f 469 470 496 495
f 470 471 497 496
f 471 472 498 497
f 472 473 499 498
f 473 474 500 499
f 474 475 501 500
f 475 476 502 501
f 476 477 503 502
f 477 478 504 503
f 478 479 505 504
f 479 480 506 505
f 480 481 507 506
f 481 482 508 507
f 482 483 509 508
f 483 458 484 509
o SD0997_T012_12hao
v 162.464 53.461 0.000
v 161.746 42.452 0.000
v 155.178 42.872 0.000
v 154.787 36.825 0.000
v 140.443 37.743 0.000
v 140.852 44.099 0.000
v 132.247 44.651 0.000
v 131.983 40.606 0.000
v 118.630 41.468 0.000
v 118.867 45.248 0.000
v 113.800 45.569 0.000
v 114.510 56.523 0.000
v 162.464 53.461 15.170
v 161.746 42.452 15.170
v 155.178 42.872 15.170
v 154.787 36.825 15.170
v 140.443 37.743 15.170
v 140.852 44.099 15.170
v 132.247 44.651 15.170
v 131.983 40.606 15.170
v 118.630 41.468 15.170
v 118.867 45.248 15.170
v 113.800 45.569 15.170
v 114.510 56.523 15.170
usemtl roof
f 522 523 524 525 526 527 528 529 530 531 532 533
usemtl teaching_building
f 521 520 519 518 517 516 515 514 513 512 511 510
f 510 511 523 522
f 511 512 524 523
f 512 513 525 524
f 513 514 526 525
f 514 515 527 526
f 515 516 528 527
f 516 517 529 528
f 517 518 530 529
f 518 519 531 530
f 519 520 532 531
f 520 521 533 532
f 521 510 522 533
o SD0997_T013_13hao
v 16.353 38.174 0.000
v 16.117 36.748 0.000
v 12.515 37.323 0.000
v 12.778 38.959 0.000
v 8.367 39.677 0.000
v 8.085 37.953 0.000
v 4.328 38.561 0.000
v 4.592 40.174 0.000
v -1.939 41.225 0.000
v -2.212 39.589 0.000
v -6.005 40.197 0.000
v -5.769 41.689 0.000
v -10.435 42.441 0.000
v -10.680 40.904 0.000
v -17.621 43.192 0.000
v -19.340 32.591 0.000
v -15.820 32.028 0.000
v -16.102 30.292 0.000
v -5.678 28.623 0.000
v -5.332 30.745 0.000
v 6.702 28.811 0.000
v 6.438 27.186 0.000
v 12.560 26.202 0.000
v 12.806 27.728 0.000
v 18.518 26.810 0.000
v 20.265 37.544 0.000
v 16.353 38.174 16.310
v 16.117 36.748 16.310
v 12.515 37.323 16.310
v 12.778 38.959 16.310
v 8.367 39.677 16.310
v 8.085 37.953 16.310
v 4.328 38.561 16.310
v 4.592 40.174 16.310
v -1.939 41.225 16.310
v -2.212 39.589 16.310
v -6.005 40.197 16.310
v -5.769 41.689 16.310
v -10.435 42.441 16.310
v -10.680 40.904 16.310
v -17.621 43.192 16.310
v -19.340 32.591 16.310
v -15.820 32.028 16.310
v -16.102 30.292 16.310
v -5.678 28.623 16.310
v -5.332 30.745 16.310
v 6.702 28.811 16.310
v 6.438 27.186 16.310
v 12.560 26.202 16.310
v 12.806 27.728 16.310
v 18.518 26.810 16.310
v 20.265 37.544 16.310
usemtl roof
f 560 561 562 563 564 565 566 567 568 569 570 571 572 573 574 575 576 577 578 579 580 581 582 583 584 585
usemtl teaching_building
f 559 558 557 556 555 554 553 552 551 550 549 548 547 546 545 544 543 542 541 540 539 538 537 536 535 534
f 534 535 561 560
f 535 536 562 561
f 536 537 563 562
f 537 538 564 563
f 538 539 565 564
f 539 540 566 565
f 540 541 567 566
f 541 542 568 567
f 542 543 569 568
f 543 544 570 569
f 544 545 571 570
f 545 546 572 571
f 546 547 573 572
f 547 548 574 573
f 548 549 575 574
f 549 550 576 575
f 550 551 577 576
f 551 552 578 577
f 552 553 579 578
f 553 554 580 579
f 554 555 581 580
f 555 556 582 581
f 556 557 583 582
f 557 558 584 583
f 558 559 585 584
f 559 534 560 585
o SD0997_T014_14hao
v 99.365 35.698 0.000
v 98.655 24.688 0.000
v 92.079 25.108 0.000
v 91.687 19.072 0.000
v 77.343 19.990 0.000
v 77.752 26.346 0.000
v 69.147 26.888 0.000
v 68.883 22.853 0.000
v 55.530 23.704 0.000
v 55.776 27.485 0.000
v 50.700 27.805 0.000
v 51.410 38.760 0.000
v 99.365 35.698 16.420
v 98.655 24.688 16.420
v 92.079 25.108 16.420
v 91.687 19.072 16.420
v 77.343 19.990 16.420
v 77.752 26.346 16.420
v 69.147 26.888 16.420
v 68.883 22.853 16.420
v 55.530 23.704 16.420
v 55.776 27.485 16.420
v 50.700 27.805 16.420
v 51.410 38.760 16.420
usemtl roof
f 598 599 600 601 602 603 604 605 606 607 608 609
usemtl teaching_building
f 597 596 595 594 593 592 591 590 589 588 587 586
f 586 587 599 598
f 587 588 600 599
f 588 589 601 600
f 589 590 602 601
f 590 591 603 602
f 591 592 604 603
f 592 593 605 604
f 593 594 606 605
f 594 595 607 606
f 595 596 608 607
f 596 597 609 608
f 597 586 598 609
o SD0997_T015_15hao
v -39.561 10.915 0.000
v -39.788 9.478 0.000
v -43.399 10.052 0.000
v -43.126 11.699 0.000
v -47.547 12.407 0.000
v -47.820 10.693 0.000
v -51.586 11.290 0.000
v -51.322 12.915 0.000
v -57.853 13.954 0.000
v -58.117 12.329 0.000
v -61.919 12.937 0.000
v -61.673 14.430 0.000
v -66.340 15.181 0.000
v -66.585 13.645 0.000
v -73.526 15.933 0.000
v -75.254 5.321 0.000
v -71.725 4.757 0.000
v -72.007 3.033 0.000
v -61.582 1.353 0.000
v -61.246 3.475 0.000
v -49.203 1.552 0.000
v -49.466 -0.073 0.000
v -43.345 -1.057 0.000
v -43.099 0.457 0.000
v -37.396 -0.449 0.000
v -35.649 10.284 0.000
v -39.561 10.915 17.040
v -39.788 9.478 17.040
v -43.399 10.052 17.040
v -43.126 11.699 17.040
v -47.547 12.407 17.040
v -47.820 10.693 17.040
v -51.586 11.290 17.040
v -51.322 12.915 17.040
v -57.853 13.954 17.040
v -58.117 12.329 17.040
v -61.919 12.937 17.040
v -61.673 14.430 17.040
v -66.340 15.181 17.040
v -66.585 13.645 17.040
v -73.526 15.933 17.040
v -75.254 5.321 17.040
v -71.725 4.757 17.040
v -72.007 3.033 17.040
v -61.582 1.353 17.040
v -61.246 3.475 17.040
v -49.203 1.552 17.040
v -49.466 -0.073 17.040
v -43.345 -1.057 17.040
v -43.099 0.457 17.040
v -37.396 -0.449 17.040
v -35.649 10.284 17.040
usemtl roof
f 636 637 638 639 640 641 642 643 644 645 646 647 648 649 650 651 652 653 654 655 656 657 658 659 660 661
usemtl teaching_building
f 635 634 633 632 631 630 629 628 627 626 625 624 623 622 621 620 619 618 617 616 615 614 613 612 611 610
f 610 611 637 636
f 611 612 638 637
f 612 613 639 638
f 613 614 640 639
f 614 615 641 640
f 615 616 642 641
f 616 617 643 642
f 617 618 644 643
f 618 619 645 644
f 619 620 646 645
f 620 621 647 646
f 621 622 648 647
f 622 623 649 648
f 623 624 650 649
f 624 625 651 650
f 625 626 652 651
f 626 627 653 652
f 627 628 654 653
f 628 629 655 654
f 629 630 656 655
f 630 631 657 656
f 631 632 658 657
f 632 633 659 658
f 633 634 660 659
f 634 635 661 660
f 635 610 636 661
o SD0997_T016_16hao
v 10.932 4.271 0.000
v 10.695 2.845 0.000
v 7.093 3.420 0.000
v 7.357 5.067 0.000
v 2.946 5.774 0.000
v 2.664 4.050 0.000
v -1.093 4.658 0.000
v -0.829 6.272 0.000
v -7.360 7.322 0.000
v -7.624 5.686 0.000
v -11.426 6.294 0.000
v -11.190 7.797 0.000
v -15.847 8.538 0.000
v -16.102 7.001 0.000
v -23.042 9.290 0.000
v -24.761 -1.311 0.000
v -21.241 -1.875 0.000
v -21.523 -3.610 0.000
v -11.099 -5.280 0.000
v -10.753 -3.157 0.000
v 1.281 -5.092 0.000
v 1.017 -6.717 0.000
v 7.139 -7.700 0.000
v 7.384 -6.175 0.000
v 13.097 -7.092 0.000
v 14.843 3.652 0.000
v 10.932 4.271 16.310
v 10.695 2.845 16.310
v 7.093 3.420 16.310
v 7.357 5.067 16.310
v 2.946 5.774 16.310
v 2.664 4.050 16.310
v -1.093 4.658 16.310
v -0.829 6.272 16.310
v -7.360 7.322 16.310
v -7.624 5.686 16.310
v -11.426 6.294 16.310
v -11.190 7.797 16.310
v -15.847 8.538 16.310
v -16.102 7.001 16.310
v -23.042 9.290 16.310
v -24.761 -1.311 16.310
v -21.241 -1.875 16.310
v -21.523 -3.610 16.310
v -11.099 -5.280 16.310
v -10.753 -3.157 16.310
v 1.281 -5.092 16.310
v 1.017 -6.717 16.310
v 7.139 -7.700 16.310
v 7.384 -6.175 16.310
v 13.097 -7.092 16.310
v 14.843 3.652 16.310
usemtl roof
f 688 689 690 691 692 693 694 695 696 697 698 699 700 701 702 703 704 705 706 707 708 709 710 711 712 713
usemtl teaching_building
f 687 686 685 684 683 682 681 680 679 678 677 676 675 674 673 672 671 670 669 668 667 666 665 664 663 662
f 662 663 689 688
f 663 664 690 689
f 664 665 691 690
f 665 666 692 691
f 666 667 693 692
f 667 668 694 693
f 668 669 695 694
f 669 670 696 695
f 670 671 697 696
f 671 672 698 697
f 672 673 699 698
f 673 674 700 699
f 674 675 701 700
f 675 676 702 701
f 676 677 703 702
f 677 678 704 703
f 678 679 705 704
f 679 680 706 705
f 680 681 707 706
f 681 682 708 707
f 682 683 709 708
f 683 684 710 709
f 684 685 711 710
f 685 686 712 711
f 686 687 713 712
f 687 662 688 713
o SD0997_T017_17hao
v 158.380 3.741 0.000
v 157.662 -7.269 0.000
v 151.094 -6.849 0.000
v 150.703 -12.896 0.000
v 136.358 -11.978 0.000
v 136.768 -5.622 0.000
v 128.163 -5.070 0.000
v 127.899 -9.115 0.000
v 114.537 -8.253 0.000
v 114.782 -4.473 0.000
v 109.707 -4.152 0.000
v 110.416 6.802 0.000
v 158.380 3.741 14.480
v 157.662 -7.269 14.480
v 151.094 -6.849 14.480
v 150.703 -12.896 14.480
v 136.358 -11.978 14.480
v 136.768 -5.622 14.480
v 128.163 -5.070 14.480
v 127.899 -9.115 14.480
v 114.537 -8.253 14.480
v 114.782 -4.473 14.480
v 109.707 -4.152 14.480
v 110.416 6.802 14.480
usemtl roof
f 726 727 728 729 730 731 732 733 734 735 736 737
usemtl teaching_building
f 725 724 723 722 721 720 719 718 717 716 715 714
f 714 715 727 726
f 715 716 728 727
f 716 717 729 728
f 717 718 730 729
f 718 719 731 730
f 719 720 732 731
f 720 721 733 732
f 721 722 734 733
f 722 723 735 734
f 723 724 736 735
f 724 725 737 736
f 725 714 726 737
o SD0997_T018_18hao
v -44.782 -22.878 0.000
v -45.009 -24.315 0.000
v -48.620 -23.729 0.000
v -48.348 -22.093 0.000
v -52.768 -21.385 0.000
v -53.050 -23.099 0.000
v -56.807 -22.491 0.000
v -56.543 -20.877 0.000
v -63.074 -19.827 0.000
v -63.338 -21.463 0.000
v -67.140 -20.855 0.000
v -66.895 -19.362 0.000
v -71.561 -18.611 0.000
v -71.816 -20.147 0.000
v -78.747 -17.859 0.000
v -80.475 -28.471 0.000
v -76.955 -29.035 0.000
v -77.228 -30.759 0.000
v -66.813 -32.428 0.000
v -66.467 -30.317 0.000
v -54.424 -32.240 0.000
v -54.688 -33.865 0.000
v -48.575 -34.849 0.000
v -48.320 -33.324 0.000
v -42.617 -34.241 0.000
v -40.871 -23.508 0.000
v -44.782 -22.878 17.070
v -45.009 -24.315 17.070
v -48.620 -23.729 17.070
v -48.348 -22.093 17.070
v -52.768 -21.385 17.070
v -53.050 -23.099 17.070
v -56.807 -22.491 17.070
v -56.543 -20.877 17.070
v -63.074 -19.827 17.070
v -63.338 -21.463 17.070
v -67.140 -20.855 17.070
v -66.895 -19.362 17.070
v -71.561 -18.611 17.070
v -71.816 -20.147 17.070
v -78.747 -17.859 17.070
v -80.475 -28.471 17.070
v -76.955 -29.035 17.070
v -77.228 -30.759 17.070
v -66.813 -32.428 17.070
v -66.467 -30.317 17.070
v -54.424 -32.240 17.070
v -54.688 -33.865 17.070
v -48.575 -34.849 17.070
v -48.320 -33.324 17.070
v -42.617 -34.241 17.070
v -40.871 -23.508 17.070
usemtl roof
f 764 765 766 767 768 769 770 771 772 773 774 775 776 777 778 779 780 781 782 783 784 785 786 787 788 789
usemtl teaching_building
f 763 762 761 760 759 758 757 756 755 754 753 752 751 750 749 748 747 746 745 744 743 742 741 740 739 738
f 738 739 765 764
f 739 740 766 765
f 740 741 767 766
f 741 742 768 767
f 742 743 769 768
f 743 744 770 769
f 744 745 771 770
f 745 746 772 771
f 746 747 773 772
f 747 748 774 773
f 748 749 775 774
f 749 750 776 775
f 750 751 777 776
f 751 752 778 777
f 752 753 779 778
f 753 754 780 779
f 754 755 781 780
f 755 756 782 781
f 756 757 783 782
f 757 758 784 783
f 758 759 785 784
f 759 760 786 785
f 760 761 787 786
f 761 762 788 787
f 762 763 789 788
f 763 738 764 789
o SD0997_T019_19hao
v 4.401 -29.477 0.000
v 4.164 -30.903 0.000
v 0.562 -30.328 0.000
v 0.826 -28.692 0.000
v -3.595 -27.973 0.000
v -3.867 -29.698 0.000
v -7.633 -29.090 0.000
v -7.369 -27.476 0.000
v -13.900 -26.426 0.000
v -14.164 -28.062 0.000
v -17.966 -27.454 0.000
v -17.721 -25.962 0.000
v -22.387 -25.210 0.000
v -22.633 -26.746 0.000
v -29.573 -24.458 0.000
v -31.301 -35.059 0.000
v -27.772 -35.623 0.000
v -28.054 -37.358 0.000
v -17.630 -39.027 0.000
v -17.284 -36.905 0.000
v -5.250 -38.839 0.000
v -5.514 -40.464 0.000
v 0.608 -41.448 0.000
v 0.853 -39.923 0.000
v 6.566 -40.840 0.000
v 8.312 -30.107 0.000
v 4.401 -29.477 12.250
v 4.164 -30.903 12.250
v 0.562 -30.328 12.250
v 0.826 -28.692 12.250
v -3.595 -27.973 12.250
v -3.867 -29.698 12.250
v -7.633 -29.090 12.250
v -7.369 -27.476 12.250
v -13.900 -26.426 12.250
v -14.164 -28.062 12.250
v -17.966 -27.454 12.250
v -17.721 -25.962 12.250
v -22.387 -25.210 12.250
v -22.633 -26.746 12.250
v -29.573 -24.458 12.250
v -31.301 -35.059 12.250
v -27.772 -35.623 12.250
v -28.054 -37.358 12.250
v -17.630 -39.027 12.250
v -17.284 -36.905 12.250
v -5.250 -38.839 12.250
v -5.514 -40.464 12.250
v 0.608 -41.448 12.250
v 0.853 -39.923 12.250
v 6.566 -40.840 12.250
v 8.312 -30.107 12.250
usemtl roof
f 816 817 818 819 820 821 822 823 824 825 826 827 828 829 830 831 832 833 834 835 836 837 838 839 840 841
usemtl teaching_building
f 815 814 813 812 811 810 809 808 807 806 805 804 803 802 801 800 799 798 797 796 795 794 793 792 791 790
f 790 791 817 816
f 791 792 818 817
f 792 793 819 818
f 793 794 820 819
f 794 795 821 820
f 795 796 822 821
f 796 797 823 822
f 797 798 824 823
f 798 799 825 824
f 799 800 826 825
f 800 801 827 826
f 801 802 828 827
f 802 803 829 828
f 803 804 830 829
f 804 805 831 830
f 805 806 832 831
f 806 807 833 832
f 807 808 834 833
f 808 809 835 834
f 809 810 836 835
f 810 811 837 836
f 811 812 838 837
f 812 813 839 838
f 813 814 840 839
f 814 815 841 840
f 815 790 816 841
o SD0997_T020_20hao
v 75.087 -35.811 0.000
v 74.960 -46.843 0.000
v 68.374 -46.754 0.000
v 68.301 -52.812 0.000
v 53.920 -52.635 0.000
v 54.002 -46.268 0.000
v 45.379 -46.168 0.000
v 45.324 -50.214 0.000
v 31.944 -50.048 0.000
v 31.989 -46.268 0.000
v 26.905 -46.201 0.000
v 27.041 -35.225 0.000
v 75.087 -35.811 16.150
v 74.960 -46.843 16.150
v 68.374 -46.754 16.150
v 68.301 -52.812 16.150
v 53.920 -52.635 16.150
v 54.002 -46.268 16.150
v 45.379 -46.168 16.150
v 45.324 -50.214 16.150
v 31.944 -50.048 16.150
v 31.989 -46.268 16.150
v 26.905 -46.201 16.150
v 27.041 -35.225 16.150
usemtl roof
f 854 855 856 857 858 859 860 861 862 863 864 865
usemtl teaching_building
f 853 852 851 850 849 848 847 846 845 844 843 842
f 842 843 855 854
f 843 844 856 855
f 844 845 857 856
f 845 846 858 857
f 846 847 859 858
f 847 848 860 859
f 848 849 861 860
f 849 850 862 861
f 850 851 863 862
f 851 852 864 863
f 852 853 865 864
f 853 842 854 865
o SD0997_T021_21hao
v 154.032 -44.212 0.000
v 153.323 -55.222 0.000
v 146.746 -54.801 0.000
v 146.355 -60.837 0.000
v 132.011 -59.919 0.000
v 132.420 -53.563 0.000
v 123.815 -53.011 0.000
v 123.551 -57.056 0.000
v 110.198 -56.205 0.000
v 110.444 -52.425 0.000
v 105.368 -52.093 0.000
v 106.077 -41.150 0.000
v 154.032 -44.212 11.780
v 153.323 -55.222 11.780
v 146.746 -54.801 11.780
v 146.355 -60.837 11.780
v 132.011 -59.919 11.780
v 132.420 -53.563 11.780
v 123.815 -53.011 11.780
v 123.551 -57.056 11.780
v 110.198 -56.205 11.780
v 110.444 -52.425 11.780
v 105.368 -52.093 11.780
v 106.077 -41.150 11.780
usemtl roof
f 878 879 880 881 882 883 884 885 886 887 888 889
usemtl teaching_building
f 877 876 875 874 873 872 871 870 869 868 867 866
f 866 867 879 878
f 867 868 880 879
f 868 869 881 880
f 869 870 882 881
f 870 871 883 882
f 871 872 884 883
f 872 873 885 884
f 873 874 886 885
f 874 875 887 886
f 875 876 888 887
f 876 877 889 888
f 877 866 878 889
o SD0997_T022_22hao
v -51.804 -57.510 0.000
v -52.041 -58.936 0.000
v -55.643 -58.361 0.000
v -55.379 -56.714 0.000
v -59.790 -56.006 0.000
v -60.072 -57.720 0.000
v -63.829 -57.123 0.000
v -63.565 -55.509 0.000
v -70.096 -54.459 0.000
v -70.360 -56.095 0.000
v -74.162 -55.487 0.000
v -73.926 -53.983 0.000
v -78.592 -53.243 0.000
v -78.838 -54.779 0.000
v -85.778 -52.491 0.000
v -87.497 -63.092 0.000
v -83.977 -63.656 0.000
v -84.259 -65.391 0.000
v -73.835 -67.060 0.000
v -73.489 -64.938 0.000
v -61.455 -66.872 0.000
v -61.719 -68.497 0.000
v -55.597 -69.481 0.000
v -55.352 -67.956 0.000
v -49.639 -68.873 0.000
v -47.893 -58.129 0.000
v -51.804 -57.510 21.520
v -52.041 -58.936 21.520
v -55.643 -58.361 21.520
v -55.379 -56.714 21.520
v -59.790 -56.006 21.520
v -60.072 -57.720 21.520
v -63.829 -57.123 21.520
v -63.565 -55.509 21.520
v -70.096 -54.459 21.520
v -70.360 -56.095 21.520
v -74.162 -55.487 21.520
v -73.926 -53.983 21.520
v -78.592 -53.243 21.520
v -78.838 -54.779 21.520
v -85.778 -52.491 21.520
v -87.497 -63.092 21.520
v -83.977 -63.656 21.520
v -84.259 -65.391 21.520
v -73.835 -67.060 21.520
v -73.489 -64.938 21.520
v -61.455 -66.872 21.520
v -61.719 -68.497 21.520
v -55.597 -69.481 21.520
v -55.352 -67.956 21.520
v -49.639 -68.873 21.520
v -47.893 -58.129 21.520
usemtl roof
f 916 917 918 919 920 921 922 923 924 925 926 927 928 929 930 931 932 933 934 935 936 937 938 939 940 941
usemtl teaching_building
f 915 914 913 912 911 910 909 908 907 906 905 904 903 902 901 900 899 898 897 896 895 894 893 892 891 890
f 890 891 917 916
f 891 892 918 917
f 892 893 919 918
f 893 894 920 919
f 894 895 921 920
f 895 896 922 921
f 896 897 923 922
f 897 898 924 923
f 898 899 925 924
f 899 900 926 925
f 900 901 927 926
f 901 902 928 927
f 902 903 929 928
f 903 904 930 929
f 904 905 931 930
f 905 906 932 931
f 906 907 933 932
f 907 908 934 933
f 908 909 935 934
f 909 910 936 935
f 910 911 937 936
f 911 912 938 937
f 912 913 939 938
f 913 914 940 939
f 914 915 941 940
f 915 890 916 941
o SD0997_T023_23hao
v -2.248 -64.739 0.000
v -2.476 -66.165 0.000
v -6.087 -65.590 0.000
v -5.814 -63.943 0.000
v -10.235 -63.236 0.000
v -10.508 -64.949 0.000
v -14.273 -64.352 0.000
v -14.010 -62.738 0.000
v -20.541 -61.688 0.000
v -20.804 -63.324 0.000
v -24.607 -62.716 0.000
v -24.361 -61.213 0.000
v -29.027 -60.472 0.000
v -29.282 -62.009 0.000
v -36.213 -59.721 0.000
v -37.942 -70.321 0.000
v -34.412 -70.885 0.000
v -34.694 -72.621 0.000
v -24.270 -74.290 0.000
v -23.934 -72.167 0.000
v -11.890 -74.102 0.000
v -12.154 -75.727 0.000
v -6.032 -76.710 0.000
v -5.787 -75.185 0.000
v -0.083 -76.103 0.000
v 1.663 -65.358 0.000
v -2.248 -64.739 16.490
v -2.476 -66.165 16.490
v -6.087 -65.590 16.490
v -5.814 -63.943 16.490
v -10.235 -63.236 16.490
v -10.508 -64.949 16.490
v -14.273 -64.352 16.490
v -14.010 -62.738 16.490
v -20.541 -61.688 16.490
v -20.804 -63.324 16.490
v -24.607 -62.716 16.490
v -24.361 -61.213 16.490
v -29.027 -60.472 16.490
v -29.282 -62.009 16.490
v -36.213 -59.721 16.490
v -37.942 -70.321 16.490
v -34.412 -70.885 16.490
v -34.694 -72.621 16.490
v -24.270 -74.290 16.490
v -23.934 -72.167 16.490
v -11.890 -74.102 16.490
v -12.154 -75.727 16.490
v -6.032 -76.710 16.490
v -5.787 -75.185 16.490
v -0.083 -76.103 16.490
v 1.663 -65.358 16.490
usemtl roof
f 968 969 970 971 972 973 974 975 976 977 978 979 980 981 982 983 984 985 986 987 988 989 990 991 992 993
usemtl teaching_building
f 967 966 965 964 963 962 961 960 959 958 957 956 955 954 953 952 951 950 949 948 947 946 945 944 943 942
f 942 943 969 968
f 943 944 970 969
f 944 945 971 970
f 945 946 972 971
f 946 947 973 972
f 947 948 974 973
f 948 949 975 974
f 949 950 976 975
f 950 951 977 976
f 951 952 978 977
f 952 953 979 978
f 953 954 980 979
f 954 955 981 980
f 955 956 982 981
f 956 957 983 982
f 957 958 984 983
f 958 959 985 984
f 959 960 986 985
f 960 961 987 986
f 961 962 988 987
f 962 963 989 988
f 963 964 990 989
f 964 965 991 990
f 965 966 992 991
f 966 967 993 992
f 967 942 968 993
o SD0997_T024_24hao
v 68.720 -84.382 0.000
v 68.592 -95.414 0.000
v 62.007 -95.336 0.000
v 61.934 -101.383 0.000
v 47.553 -101.206 0.000
v 47.635 -94.839 0.000
v 39.012 -94.740 0.000
v 38.957 -98.785 0.000
v 25.577 -98.631 0.000
v 25.622 -94.839 0.000
v 20.537 -94.773 0.000
v 20.674 -83.796 0.000
v 68.720 -84.382 14.850
v 68.592 -95.414 14.850
v 62.007 -95.336 14.850
v 61.934 -101.383 14.850
v 47.553 -101.206 14.850
v 47.635 -94.839 14.850
v 39.012 -94.740 14.850
v 38.957 -98.785 14.850
v 25.577 -98.631 14.850
v 25.622 -94.839 14.850
v 20.537 -94.773 14.850
v 20.674 -83.796 14.850
usemtl roof
f 1006 1007 1008 1009 1010 1011 1012 1013 1014 1015 1016 1017
usemtl teaching_building
f 1005 1004 1003 1002 1001 1000 999 998 997 996 995 994
f 994 995 1007 1006
f 995 996 1008 1007
f 996 997 1009 1008
f 997 998 1010 1009
f 998 999 1011 1010
f 999 1000 1012 1011
f 1000 1001 1013 1012
f 1001 1002 1014 1013
f 1002 1003 1015 1014
f 1003 1004 1016 1015
f 1004 1005 1017 1016
f 1005 994 1006 1017
o SD0997_T025_25hao
v -57.298 -91.622 0.000
v -57.526 -93.059 0.000
v -61.137 -92.485 0.000
v -60.864 -90.838 0.000
v -65.285 -90.130 0.000
v -65.567 -91.843 0.000
v -69.323 -91.235 0.000
v -69.059 -89.622 0.000
v -75.590 -88.582 0.000
v -75.854 -90.207 0.000
v -79.656 -89.599 0.000
v -79.411 -88.107 0.000
v -84.077 -87.356 0.000
v -84.332 -88.892 0.000
v -91.263 -86.604 0.000
v -92.991 -97.216 0.000
v -89.471 -97.779 0.000
v -89.753 -99.504 0.000
v -79.329 -101.173 0.000
v -78.983 -99.062 0.000
v -66.949 -100.985 0.000
v -67.213 -102.610 0.000
v -61.091 -103.594 0.000
v -60.846 -102.079 0.000
v -55.133 -102.986 0.000
v -53.387 -92.252 0.000
v -57.298 -91.622 21.520
v -57.526 -93.059 21.520
v -61.137 -92.485 21.520
v -60.864 -90.838 21.520
v -65.285 -90.130 21.520
v -65.567 -91.843 21.520
v -69.323 -91.235 21.520
v -69.059 -89.622 21.520
v -75.590 -88.582 21.520
v -75.854 -90.207 21.520
v -79.656 -89.599 21.520
v -79.411 -88.107 21.520
v -84.077 -87.356 21.520
v -84.332 -88.892 21.520
v -91.263 -86.604 21.520
v -92.991 -97.216 21.520
v -89.471 -97.779 21.520
v -89.753 -99.504 21.520
v -79.329 -101.173 21.520
v -78.983 -99.062 21.520
v -66.949 -100.985 21.520
v -67.213 -102.610 21.520
v -61.091 -103.594 21.520
v -60.846 -102.079 21.520
v -55.133 -102.986 21.520
v -53.387 -92.252 21.520
usemtl roof
f 1044 1045 1046 1047 1048 1049 1050 1051 1052 1053 1054 1055 1056 1057 1058 1059 1060 1061 1062 1063 1064 1065 1066 1067 1068 1069
usemtl teaching_building
f 1043 1042 1041 1040 1039 1038 1037 1036 1035 1034 1033 1032 1031 1030 1029 1028 1027 1026 1025 1024 1023 1022 1021 1020 1019 1018
f 1018 1019 1045 1044
f 1019 1020 1046 1045
f 1020 1021 1047 1046
f 1021 1022 1048 1047
f 1022 1023 1049 1048
f 1023 1024 1050 1049
f 1024 1025 1051 1050
f 1025 1026 1052 1051
f 1026 1027 1053 1052
f 1027 1028 1054 1053
f 1028 1029 1055 1054
f 1029 1030 1056 1055
f 1030 1031 1057 1056
f 1031 1032 1058 1057
f 1032 1033 1059 1058
f 1033 1034 1060 1059
f 1034 1035 1061 1060
f 1035 1036 1062 1061
f 1036 1037 1063 1062
f 1037 1038 1064 1063
f 1038 1039 1065 1064
f 1039 1040 1066 1065
f 1040 1041 1067 1066
f 1041 1042 1068 1067
f 1042 1043 1069 1068
f 1043 1018 1044 1069
o SD0997_T026_26hao
v 151.222 -90.882 0.000
v 150.512 -101.892 0.000
v 143.936 -101.471 0.000
v 143.544 -107.518 0.000
v 129.200 -106.601 0.000
v 129.609 -100.244 0.000
v 121.004 -99.692 0.000
v 120.740 -103.726 0.000
v 107.387 -102.875 0.000
v 107.633 -99.095 0.000
v 102.557 -98.774 0.000
v 103.267 -87.820 0.000
v 151.222 -90.882 12.390
v 150.512 -101.892 12.390
v 143.936 -101.471 12.390
v 143.544 -107.518 12.390
v 129.200 -106.601 12.390
v 129.609 -100.244 12.390
v 121.004 -99.692 12.390
v 120.740 -103.726 12.390
v 107.387 -102.875 12.390
v 107.633 -99.095 12.390
v 102.557 -98.774 12.390
v 103.267 -87.820 12.390
usemtl roof
f 1082 1083 1084 1085 1086 1087 1088 1089 1090 1091 1092 1093
usemtl teaching_building
f 1081 1080 1079 1078 1077 1076 1075 1074 1073 1072 1071 1070
f 1070 1071 1083 1082
f 1071 1072 1084 1083
f 1072 1073 1085 1084
f 1073 1074 1086 1085
f 1074 1075 1087 1086
f 1075 1076 1088 1087
f 1076 1077 1089 1088
f 1077 1078 1090 1089
f 1078 1079 1091 1090
f 1079 1080 1092 1091
f 1080 1081 1093 1092
f 1081 1070 1082 1093
o SD0997_T027_27hao
v -7.988 -98.852 0.000
v -8.225 -100.289 0.000
v -11.827 -99.714 0.000
v -11.563 -98.067 0.000
v -15.984 -97.359 0.000
v -16.256 -99.073 0.000
v -20.022 -98.476 0.000
v -19.758 -96.851 0.000
v -26.289 -95.812 0.000
v -26.553 -97.437 0.000
v -30.355 -96.829 0.000
v -30.110 -95.336 0.000
v -34.776 -94.585 0.000
v -35.022 -96.121 0.000
v -41.962 -93.833 0.000
v -43.690 -104.445 0.000
v -40.161 -105.009 0.000
v -40.443 -106.733 0.000
v -30.019 -108.413 0.000
v -29.673 -106.291 0.000
v -17.639 -108.214 0.000
v -17.903 -109.839 0.000
v -11.781 -110.823 0.000
v -11.535 -109.309 0.000
v -5.823 -110.215 0.000
v -4.086 -99.482 0.000
v -7.988 -98.852 21.080
v -8.225 -100.289 21.080
v -11.827 -99.714 21.080
v -11.563 -98.067 21.080
v -15.984 -97.359 21.080
v -16.256 -99.073 21.080
v -20.022 -98.476 21.080
v -19.758 -96.851 21.080
v -26.289 -95.812 21.080
v -26.553 -97.437 21.080
v -30.355 -96.829 21.080
v -30.110 -95.336 21.080
v -34.776 -94.585 21.080
v -35.022 -96.121 21.080
v -41.962 -93.833 21.080
v -43.690 -104.445 21.080
v -40.161 -105.009 21.080
v -40.443 -106.733 21.080
v -30.019 -108.413 21.080
v -29.673 -106.291 21.080
v -17.639 -108.214 21.080
v -17.903 -109.839 21.080
v -11.781 -110.823 21.080
v -11.535 -109.309 21.080
v -5.823 -110.215 21.080
v -4.086 -99.482 21.080
usemtl roof
f 1120 1121 1122 1123 1124 1125 1126 1127 1128 1129 1130 1131 1132 1133 1134 1135 1136 1137 1138 1139 1140 1141 1142 1143 1144 1145
usemtl teaching_building
f 1119 1118 1117 1116 1115 1114 1113 1112 1111 1110 1109 1108 1107 1106 1105 1104 1103 1102 1101 1100 1099 1098 1097 1096 1095 1094
f 1094 1095 1121 1120
f 1095 1096 1122 1121
f 1096 1097 1123 1122
f 1097 1098 1124 1123
f 1098 1099 1125 1124
f 1099 1100 1126 1125
f 1100 1101 1127 1126
f 1101 1102 1128 1127
f 1102 1103 1129 1128
f 1103 1104 1130 1129
f 1104 1105 1131 1130
f 1105 1106 1132 1131
f 1106 1107 1133 1132
f 1107 1108 1134 1133
f 1108 1109 1135 1134
f 1109 1110 1136 1135
f 1110 1111 1137 1136
f 1111 1112 1138 1137
f 1112 1113 1139 1138
f 1113 1114 1140 1139
f 1114 1115 1141 1140
f 1115 1116 1142 1141
f 1116 1117 1143 1142
f 1117 1118 1144 1143
f 1118 1119 1145 1144
f 1119 1094 1120 1145
o SD0997_T028_28hao
v -63.174 -126.376 0.000
v -63.402 -127.813 0.000
v -67.013 -127.238 0.000
v -66.740 -125.591 0.000
v -71.161 -124.884 0.000
v -71.443 -126.597 0.000
v -75.199 -125.989 0.000
v -74.936 -124.375 0.000
v -81.467 -123.336 0.000
v -81.730 -124.961 0.000
v -85.533 -124.353 0.000
v -85.287 -122.861 0.000
v -89.953 -122.109 0.000
v -90.208 -123.646 0.000
v -97.139 -121.358 0.000
v -98.867 -131.969 0.000
v -95.347 -132.533 0.000
v -95.629 -134.258 0.000
v -85.205 -135.927 0.000
v -84.859 -133.815 0.000
v -72.825 -135.739 0.000
v -73.089 -137.364 0.000
v -66.967 -138.348 0.000
v -66.713 -136.833 0.000
v -61.009 -137.740 0.000
v -59.263 -127.006 0.000
v -63.174 -126.376 9.900
v -63.402 -127.813 9.900
v -67.013 -127.238 9.900
v -66.740 -125.591 9.900
v -71.161 -124.884 9.900
v -71.443 -126.597 9.900
v -75.199 -125.989 9.900
v -74.936 -124.375 9.900
v -81.467 -123.336 9.900
v -81.730 -124.961 9.900
v -85.533 -124.353 9.900
v -85.287 -122.861 9.900
v -89.953 -122.109 9.900
v -90.208 -123.646 9.900
v -97.139 -121.358 9.900
v -98.867 -131.969 9.900
v -95.347 -132.533 9.900
v -95.629 -134.258 9.900
v -85.205 -135.927 9.900
v -84.859 -133.815 9.900
v -72.825 -135.739 9.900
v -73.089 -137.364 9.900
v -66.967 -138.348 9.900
v -66.713 -136.833 9.900
v -61.009 -137.740 9.900
v -59.263 -127.006 9.900
usemtl roof
f 1172 1173 1174 1175 1176 1177 1178 1179 1180 1181 1182 1183 1184 1185 1186 1187 1188 1189 1190 1191 1192 1193 1194 1195 1196 1197
usemtl teaching_building
f 1171 1170 1169 1168 1167 1166 1165 1164 1163 1162 1161 1160 1159 1158 1157 1156 1155 1154 1153 1152 1151 1150 1149 1148 1147 1146
f 1146 1147 1173 1172
f 1147 1148 1174 1173
f 1148 1149 1175 1174
f 1149 1150 1176 1175
f 1150 1151 1177 1176
f 1151 1152 1178 1177
f 1152 1153 1179 1178
f 1153 1154 1180 1179
f 1154 1155 1181 1180
f 1155 1156 1182 1181
f 1156 1157 1183 1182
f 1157 1158 1184 1183
f 1158 1159 1185 1184
f 1159 1160 1186 1185
f 1160 1161 1187 1186
f 1161 1162 1188 1187
f 1162 1163 1189 1188
f 1163 1164 1190 1189
f 1164 1165 1191 1190
f 1165 1166 1192 1191
f 1166 1167 1193 1192
f 1167 1168 1194 1193
f 1168 1169 1195 1194
f 1169 1170 1196 1195
f 1170 1171 1197 1196
f 1171 1146 1172 1197
o SD0997_T029_29hao
v -13.991 -132.975 0.000
v -14.228 -134.412 0.000
v -17.830 -133.827 0.000
v -17.566 -132.191 0.000
v -21.987 -131.483 0.000
v -22.260 -133.196 0.000
v -26.026 -132.588 0.000
v -25.762 -130.975 0.000
v -32.293 -129.924 0.000
v -32.557 -131.560 0.000
v -36.359 -130.952 0.000
v -36.113 -129.460 0.000
v -40.780 -128.709 0.000
v -41.025 -130.245 0.000
v -47.965 -127.957 0.000
v -49.694 -138.558 0.000
v -46.164 -139.121 0.000
v -46.446 -140.857 0.000
v -36.022 -142.526 0.000
v -35.677 -140.404 0.000
v -23.642 -142.338 0.000
v -23.906 -143.963 0.000
v -17.785 -144.947 0.000
v -17.539 -143.421 0.000
v -11.827 -144.339 0.000
v -10.089 -133.605 0.000
v -13.991 -132.975 15.510
v -14.228 -134.412 15.510
v -17.830 -133.827 15.510
v -17.566 -132.191 15.510
v -21.987 -131.483 15.510
v -22.260 -133.196 15.510
v -26.026 -132.588 15.510
v -25.762 -130.975 15.510
v -32.293 -129.924 15.510
v -32.557 -131.560 15.510
v -36.359 -130.952 15.510
v -36.113 -129.460 15.510
v -40.780 -128.709 15.510
v -41.025 -130.245 15.510
v -47.965 -127.957 15.510
v -49.694 -138.558 15.510
v -46.164 -139.121 15.510
v -46.446 -140.857 15.510
v -36.022 -142.526 15.510
v -35.677 -140.404 15.510
v -23.642 -142.338 15.510
v -23.906 -143.963 15.510
v -17.785 -144.947 15.510
v -17.539 -143.421 15.510
v -11.827 -144.339 15.510
v -10.089 -133.605 15.510
usemtl roof
f 1224 1225 1226 1227 1228 1229 1230 1231 1232 1233 1234 1235 1236 1237 1238 1239 1240 1241 1242 1243 1244 1245 1246 1247 1248 1249
usemtl teaching_building
f 1223 1222 1221 1220 1219 1218 1217 1216 1215 1214 1213 1212 1211 1210 1209 1208 1207 1206 1205 1204 1203 1202 1201 1200 1199 1198
f 1198 1199 1225 1224
f 1199 1200 1226 1225
f 1200 1201 1227 1226
f 1201 1202 1228 1227
f 1202 1203 1229 1228
f 1203 1204 1230 1229
f 1204 1205 1231 1230
f 1205 1206 1232 1231
f 1206 1207 1233 1232
f 1207 1208 1234 1233
f 1208 1209 1235 1234
f 1209 1210 1236 1235
f 1210 1211 1237 1236
f 1211 1212 1238 1237
f 1212 1213 1239 1238
f 1213 1214 1240 1239
f 1214 1215 1241 1240
f 1215 1216 1242 1241
f 1216 1217 1243 1242
f 1217 1218 1244 1243
f 1218 1219 1245 1244
f 1219 1220 1246 1245
f 1220 1221 1247 1246
f 1221 1222 1248 1247
f 1222 1223 1249 1248
f 1223 1198 1224 1249
o SD0997_T030_30hao
v 56.203 -133.086 0.000
v 56.067 -144.118 0.000
v 49.490 -144.040 0.000
v 49.409 -150.087 0.000
v 35.037 -149.921 0.000
v 35.119 -143.554 0.000
v 26.495 -143.443 0.000
v 26.441 -147.489 0.000
v 13.060 -147.335 0.000
v 13.106 -143.543 0.000
v 8.021 -143.488 0.000
v 8.158 -132.511 0.000
v 56.203 -133.086 14.850
v 56.067 -144.118 14.850
v 49.490 -144.040 14.850
v 49.409 -150.087 14.850
v 35.037 -149.921 14.850
v 35.119 -143.554 14.850
v 26.495 -143.443 14.850
v 26.441 -147.489 14.850
v 13.060 -147.335 14.850
v 13.106 -143.543 14.850
v 8.021 -143.488 14.850
v 8.158 -132.511 14.850
usemtl roof
f 1262 1263 1264 1265 1266 1267 1268 1269 1270 1271 1272 1273
usemtl teaching_building
f 1261 1260 1259 1258 1257 1256 1255 1254 1253 1252 1251 1250
f 1250 1251 1263 1262
f 1251 1252 1264 1263
f 1252 1253 1265 1264
f 1253 1254 1266 1265
f 1254 1255 1267 1266
f 1255 1256 1268 1267
f 1256 1257 1269 1268
f 1257 1258 1270 1269
f 1258 1259 1271 1270
f 1259 1260 1272 1271
f 1260 1261 1273 1272
f 1261 1250 1262 1273
o SD0997_T031_31hao
v 147.901 -136.800 0.000
v 147.192 -147.810 0.000
v 140.615 -147.390 0.000
v 140.224 -153.425 0.000
v 125.880 -152.508 0.000
v 126.289 -146.152 0.000
v 117.684 -145.610 0.000
v 117.420 -149.645 0.000
v 104.067 -148.794 0.000
v 104.313 -145.013 0.000
v 99.237 -144.693 0.000
v 99.947 -133.738 0.000
v 147.901 -136.800 15.900
v 147.192 -147.810 15.900
v 140.615 -147.390 15.900
v 140.224 -153.425 15.900
v 125.880 -152.508 15.900
v 126.289 -146.152 15.900
v 117.684 -145.610 15.900
v 117.420 -149.645 15.900
v 104.067 -148.794 15.900
v 104.313 -145.013 15.900
v 99.237 -144.693 15.900
v 99.947 -133.738 15.900
usemtl roof
f 1286 1287 1288 1289 1290 1291 1292 1293 1294 1295 1296 1297
usemtl teaching_building
f 1285 1284 1283 1282 1281 1280 1279 1278 1277 1276 1275 1274
f 1274 1275 1287 1286
f 1275 1276 1288 1287
f 1276 1277 1289 1288
f 1277 1278 1290 1289
f 1278 1279 1291 1290
f 1279 1280 1292 1291
f 1280 1281 1293 1292
f 1281 1282 1294 1293
f 1282 1283 1295 1294
f 1283 1284 1296 1295
f 1284 1285 1297 1296
f 1285 1274 1286 1297
o SD0997_T032_32hao
v -19.868 -167.475 0.000
v -20.104 -168.912 0.000
v -23.706 -168.326 0.000
v -23.442 -166.690 0.000
v -27.863 -165.983 0.000
v -28.136 -167.696 0.000
v -31.902 -167.088 0.000
v -31.638 -165.474 0.000
v -38.169 -164.424 0.000
v -38.433 -166.060 0.000
v -42.235 -165.452 0.000
v -41.989 -163.960 0.000
v -46.656 -163.208 0.000
v -46.901 -164.745 0.000
v -53.842 -162.456 0.000
v -55.570 -173.057 0.000
v -52.041 -173.632 0.000
v -52.323 -175.356 0.000
v -41.898 -177.026 0.000
v -41.553 -174.903 0.000
v -29.519 -176.838 0.000
v -29.782 -178.463 0.000
v -23.661 -179.446 0.000
v -23.415 -177.921 0.000
v -17.703 -178.838 0.000
v -15.956 -168.105 0.000
v -19.868 -167.475 16.120
v -20.104 -168.912 16.120
v -23.706 -168.326 16.120
v -23.442 -166.690 16.120
v -27.863 -165.983 16.120
v -28.136 -167.696 16.120
v -31.902 -167.088 16.120
v -31.638 -165.474 16.120
v -38.169 -164.424 16.120
v -38.433 -166.060 16.120
v -42.235 -165.452 16.120
v -41.989 -163.960 16.120
v -46.656 -163.208 16.120
v -46.901 -164.745 16.120
v -53.842 -162.456 16.120
v -55.570 -173.057 16.120
v -52.041 -173.632 16.120
v -52.323 -175.356 16.120
v -41.898 -177.026 16.120
v -41.553 -174.903 16.120
v -29.519 -176.838 16.120
v -29.782 -178.463 16.120
v -23.661 -179.446 16.120
v -23.415 -177.921 16.120
v -17.703 -178.838 16.120
v -15.956 -168.105 16.120
usemtl roof
f 1324 1325 1326 1327 1328 1329 1330 1331 1332 1333 1334 1335 1336 1337 1338 1339 1340 1341 1342 1343 1344 1345 1346 1347 1348 1349
usemtl teaching_building
f 1323 1322 1321 1320 1319 1318 1317 1316 1315 1314 1313 1312 1311 1310 1309 1308 1307 1306 1305 1304 1303 1302 1301 1300 1299 1298
f 1298 1299 1325 1324
f 1299 1300 1326 1325
f 1300 1301 1327 1326
f 1301 1302 1328 1327
f 1302 1303 1329 1328
f 1303 1304 1330 1329
f 1304 1305 1331 1330
f 1305 1306 1332 1331
f 1306 1307 1333 1332
f 1307 1308 1334 1333
f 1308 1309 1335 1334
f 1309 1310 1336 1335
f 1310 1311 1337 1336
f 1311 1312 1338 1337
f 1312 1313 1339 1338
f 1313 1314 1340 1339
f 1314 1315 1341 1340
f 1315 1316 1342 1341
f 1316 1317 1343 1342
f 1317 1318 1344 1343
f 1318 1319 1345 1344
f 1319 1320 1346 1345
f 1320 1321 1347 1346
f 1321 1322 1348 1347
f 1322 1323 1349 1348
f 1323 1298 1324 1349
o SD0997_T033_33hao
v 145.855 -183.227 0.000
v 145.145 -194.237 0.000
v 138.578 -193.817 0.000
v 138.187 -199.852 0.000
v 123.833 -198.935 0.000
v 124.252 -192.579 0.000
v 115.638 -192.026 0.000
v 115.383 -196.072 0.000
v 102.021 -195.220 0.000
v 102.266 -191.440 0.000
v 97.191 -191.108 0.000
v 97.900 -180.154 0.000
v 145.855 -183.227 15.070
v 145.145 -194.237 15.070
v 138.578 -193.817 15.070
v 138.187 -199.852 15.070
v 123.833 -198.935 15.070
v 124.252 -192.579 15.070
v 115.638 -192.026 15.070
v 115.383 -196.072 15.070
v 102.021 -195.220 15.070
v 102.266 -191.440 15.070
v 97.191 -191.108 15.070
v 97.900 -180.154 15.070
usemtl roof
f 1362 1363 1364 1365 1366 1367 1368 1369 1370 1371 1372 1373
usemtl teaching_building
f 1361 1360 1359 1358 1357 1356 1355 1354 1353 1352 1351 1350
f 1350 1351 1363 1362
f 1351 1352 1364 1363
f 1352 1353 1365 1364
f 1353 1354 1366 1365
f 1354 1355 1367 1366
f 1355 1356 1368 1367
f 1356 1357 1369 1368
f 1357 1358 1370 1369
f 1358 1359 1371 1370
f 1359 1360 1372 1371
f 1360 1361 1373 1372
f 1361 1350 1362 1373
