# school_id SD0960
# school_name 单县北城学校
# boundary_source footprint_convex_hull_buffer_20m
# adjacent_block_merge_distance_m 2.0
mtllib ../campus_materials.mtl
o SD0960_campus_boundary
usemtl campus_boundary
v -59.430 -154.008 0.050
v -76.426 -151.842 0.050
v -95.397 -147.387 0.050
v -119.255 -139.738 0.050
v -114.214 -100.665 0.050
v -10.583 139.278 0.050
v 77.558 126.028 0.050
v 80.352 102.073 0.050
v 83.130 29.338 0.050
v 79.633 5.643 0.050
v 46.766 -106.697 0.050
v -59.430 -154.008 0.050
l 1 2 3 4 5 6 7 8 9 10 11 12 1
o SD0960_T001_1hao
v 59.464 108.523 0.000
v 58.285 100.840 0.000
v 60.396 100.531 0.000
v 59.400 93.964 0.000
v 57.810 94.197 0.000
v 53.468 65.191 0.000
v 51.978 65.412 0.000
v 50.598 56.116 0.000
v 0.493 63.433 0.000
v -4.059 32.681 0.000
v 12.996 30.194 0.000
v 14.084 37.567 0.000
v 63.074 30.426 0.000
v 60.049 9.932 0.000
v 10.985 17.084 0.000
v 12.301 25.971 0.000
v -5.055 28.503 0.000
v -5.805 23.418 0.000
v -1.619 22.810 0.000
v -7.925 -19.925 0.000
v -12.687 -19.240 0.000
v -13.574 -25.220 0.000
v 38.926 -32.869 0.000
v 30.170 -92.196 0.000
v -31.114 -83.275 0.000
v -28.893 -68.242 0.000
v 26.697 -76.345 0.000
v 27.520 -70.818 0.000
v 23.626 -70.243 0.000
v 25.463 -57.840 0.000
v 29.832 -58.470 0.000
v 30.920 -51.197 0.000
v -22.732 -43.326 0.000
v -21.325 -33.853 0.000
v -22.879 -33.621 0.000
v -21.444 -24.059 0.000
v -17.111 -24.700 0.000
v -16.234 -18.842 0.000
v -21.032 -18.134 0.000
v -19.405 -7.279 0.000
v -21.480 -6.981 0.000
v -17.422 19.991 0.000
v -15.621 19.726 0.000
v -14.899 24.501 0.000
v -10.540 23.849 0.000
v -8.364 38.285 0.000
v -11.600 38.772 0.000
v -9.881 50.102 0.000
v -5.476 49.439 0.000
v -3.182 64.616 0.000
v -5.028 64.892 0.000
v -3.291 76.311 0.000
v 48.798 68.507 0.000
v 49.958 76.156 0.000
v 46.650 76.654 0.000
v 48.688 90.029 0.000
v 52.061 89.521 0.000
v 52.938 95.291 0.000
v -0.449 103.316 0.000
v 1.672 117.211 0.000
v 59.464 108.523 6.660
v 58.285 100.840 6.660
v 60.396 100.531 6.660
v 59.400 93.964 6.660
v 57.810 94.197 6.660
v 53.468 65.191 6.660
v 51.978 65.412 6.660
v 50.598 56.116 6.660
v 0.493 63.433 6.660
v -4.059 32.681 6.660
v 12.996 30.194 6.660
v 14.084 37.567 6.660
v 63.074 30.426 6.660
v 60.049 9.932 6.660
v 10.985 17.084 6.660
v 12.301 25.971 6.660
v -5.055 28.503 6.660
v -5.805 23.418 6.660
v -1.619 22.810 6.660
v -7.925 -19.925 6.660
v -12.687 -19.240 6.660
v -13.574 -25.220 6.660
v 38.926 -32.869 6.660
v 30.170 -92.196 6.660
v -31.114 -83.275 6.660
v -28.893 -68.242 6.660
v 26.697 -76.345 6.660
v 27.520 -70.818 6.660
v 23.626 -70.243 6.660
v 25.463 -57.840 6.660
v 29.832 -58.470 6.660
v 30.920 -51.197 6.660
v -22.732 -43.326 6.660
v -21.325 -33.853 6.660
v -22.879 -33.621 6.660
v -21.444 -24.059 6.660
v -17.111 -24.700 6.660
v -16.234 -18.842 6.660
v -21.032 -18.134 6.660
v -19.405 -7.279 6.660
v -21.480 -6.981 6.660
v -17.422 19.991 6.660
v -15.621 19.726 6.660
v -14.899 24.501 6.660
v -10.540 23.849 6.660
v -8.364 38.285 6.660
v -11.600 38.772 6.660
v -9.881 50.102 6.660
v -5.476 49.439 6.660
v -3.182 64.616 6.660
v -5.028 64.892 6.660
v -3.291 76.311 6.660
v 48.798 68.507 6.660
v 49.958 76.156 6.660
v 46.650 76.654 6.660
v 48.688 90.029 6.660
v 52.061 89.521 6.660
v 52.938 95.291 6.660
v -0.449 103.316 6.660
v 1.672 117.211 6.660
usemtl roof
f 73 74 75 76 77 78 79 80 81 82 83 84 85 86 87 88 89 90 91 92 93 94 95 96 97 98 99 100 101 102 103 104 105 106 107 108 109 110 111 112 113 114 115 116 117 118 119 120 121 122 123 124 125 126 127 128 129 130 131 132
usemtl teaching_building
f 72 71 70 69 68 67 66 65 64 63 62 61 60 59 58 57 56 55 54 53 52 51 50 49 48 47 46 45 44 43 42 41 40 39 38 37 36 35 34 33 32 31 30 29 28 27 26 25 24 23 22 21 20 19 18 17 16 15 14 13
f 13 14 74 73
f 14 15 75 74
f 15 16 76 75
f 16 17 77 76
f 17 18 78 77
f 18 19 79 78
f 19 20 80 79
f 20 21 81 80
f 21 22 82 81
f 22 23 83 82
f 23 24 84 83
f 24 25 85 84
f 25 26 86 85
f 26 27 87 86
f 27 28 88 87
f 28 29 89 88
f 29 30 90 89
f 30 31 91 90
f 31 32 92 91
f 32 33 93 92
f 33 34 94 93
f 34 35 95 94
f 35 36 96 95
f 36 37 97 96
f 37 38 98 97
f 38 39 99 98
f 39 40 100 99
f 40 41 101 100
f 41 42 102 101
f 42 43 103 102
f 43 44 104 103
f 44 45 105 104
f 45 46 106 105
f 46 47 107 106
f 47 48 108 107
f 48 49 109 108
f 49 50 110 109
f 50 51 111 110
f 51 52 112 111
f 52 53 113 112
f 53 54 114 113
f 54 55 115 114
f 55 56 116 115
f 56 57 117 116
f 57 58 118 117
f 58 59 119 118
f 59 60 120 119
f 60 61 121 120
f 61 62 122 121
f 62 63 123 122
f 63 64 124 123
f 64 65 125 124
f 65 66 126 125
f 66 67 127 126
f 67 68 128 127
f 68 69 129 128
f 69 70 130 129
f 70 71 131 130
f 71 72 132 131
f 72 13 73 132
o SD0960_T002_2hao
v -59.155 -107.837 0.000
v -62.455 -133.461 0.000
v -72.866 -132.134 0.000
v -72.628 -130.310 0.000
v -90.049 -128.099 0.000
v -89.875 -126.718 0.000
v -97.288 -125.778 0.000
v -94.738 -106.013 0.000
v -78.185 -108.114 0.000
v -77.838 -105.472 0.000
v -59.155 -107.837 9.100
v -62.455 -133.461 9.100
v -72.866 -132.134 9.100
v -72.628 -130.310 9.100
v -90.049 -128.099 9.100
v -89.875 -126.718 9.100
v -97.288 -125.778 9.100
v -94.738 -106.013 9.100
v -78.185 -108.114 9.100
v -77.838 -105.472 9.100
usemtl roof
f 143 144 145 146 147 148 149 150 151 152
usemtl teaching_building
f 142 141 140 139 138 137 136 135 134 133
f 133 134 144 143
f 134 135 145 144
f 135 136 146 145
f 136 137 147 146
f 137 138 148 147
f 138 139 149 148
f 139 140 150 149
f 140 141 151 150
f 141 142 152 151
f 142 133 143 152
