# school_id SD0989
# school_name 曹县实验小学
# boundary_source footprint_convex_hull_buffer_20m
# adjacent_block_merge_distance_m 2.0
mtllib ../campus_materials.mtl
o SD0989_campus_boundary
usemtl campus_boundary
v 77.184 -82.315 0.050
v -17.751 -80.723 0.050
v -122.392 17.750 0.050
v -121.125 60.482 0.050
v -8.841 57.982 0.050
v 77.747 55.425 0.050
v 78.564 -1.701 0.050
v 77.184 -82.315 0.050
l 1 2 3 4 5 6 7 8 1
o SD0989_T001_1hao
v -34.350 38.067 0.000
v -34.761 24.172 0.000
v -102.134 26.150 0.000
v -101.722 40.045 0.000
v -34.350 38.067 9.250
v -34.761 24.172 9.250
v -102.134 26.150 9.250
v -101.722 40.045 9.250
usemtl roof
f 13 14 15 16
usemtl teaching_building
f 12 11 10 9
f 9 10 14 13
f 10 11 15 14
f 11 12 16 15
f 12 9 13 16
o SD0989_T002_2hao
v 58.023 35.999 0.000
v 57.602 22.116 0.000
v -9.770 24.094 0.000
v -9.359 37.989 0.000
v 58.023 35.999 9.830
v 57.602 22.116 9.830
v -9.770 24.094 9.830
v -9.359 37.989 9.830
usemtl roof
f 21 22 23 24
usemtl teaching_building
f 20 19 18 17
f 17 18 22 21
f 18 19 23 22
f 19 20 24 23
f 20 17 21 24
o SD0989_T003_3hao
v 58.562 -1.673 0.000
v 57.529 -61.983 0.000
v -9.679 -60.856 0.000
v -9.505 -50.841 0.000
v 48.483 -51.814 0.000
v 49.177 -10.947 0.000
v -9.130 -9.974 0.000
v -8.966 -0.545 0.000
v 58.562 -1.673 9.930
v 57.529 -61.983 9.930
v -9.679 -60.856 9.930
v -9.505 -50.841 9.930
v 48.483 -51.814 9.930
v 49.177 -10.947 9.930
v -9.130 -9.974 9.930
v -8.966 -0.545 9.930
usemtl roof
f 33 34 35 36 37 38 39 40
usemtl teaching_building
f 32 31 30 29 28 27 26 25
f 25 26 34 33
f 26 27 35 34
f 27 28 36 35
f 28 29 37 36
f 29 30 38 37
f 30 31 39 38
f 31 32 40 39
f 32 25 33 40
