# school_id SD0916
# school_name 德州市第十中学南校区
# boundary_source footprint_convex_hull_buffer_20m
# adjacent_block_merge_distance_m 2.0
mtllib ../campus_materials.mtl
o SD0916_campus_boundary
usemtl campus_boundary
v 79.904 -107.796 0.050
v 7.174 -101.873 0.050
v -8.734 -99.216 0.050
v -39.482 -93.296 0.050
v -112.295 -76.432 0.050
v -112.807 -8.825 0.050
v -107.003 26.368 0.050
v -103.446 47.688 0.050
v -78.927 103.653 0.050
v -7.814 101.546 0.050
v 26.098 96.138 0.050
v 40.802 93.704 0.050
v 110.939 72.918 0.050
v 112.761 9.159 0.050
v 109.497 -10.336 0.050
v 102.848 -43.488 0.050
v 79.904 -107.796 0.050
l 1 2 3 4 5 6 7 8 9 10 11 12 13 14 15 16 17 1
o SD0916_T001_1hao
v -73.226 40.140 0.000
v -84.128 41.942 0.000
v -87.273 23.095 0.000
v -84.102 22.564 0.000
v -86.558 7.962 0.000
v -89.615 8.470 0.000
v -92.795 -10.388 0.000
v -84.190 -11.814 0.000
v -92.415 -60.507 0.000
v -34.723 -70.124 0.000
v -35.333 -73.727 0.000
v -21.400 -76.048 0.000
v -21.082 -74.136 0.000
v -4.746 -76.866 0.000
v -5.196 -79.530 0.000
v 9.637 -82.007 0.000
v 10.433 -77.320 0.000
v 66.226 -86.616 0.000
v 74.672 -36.663 0.000
v 83.524 -38.133 0.000
v 86.140 -22.658 0.000
v 83.657 -22.249 0.000
v 86.360 -6.143 0.000
v 89.824 -6.718 0.000
v 92.713 10.538 0.000
v 83.701 12.030 0.000
v 91.361 57.860 0.000
v 35.135 67.134 0.000
v 36.310 74.175 0.000
v 22.890 76.397 0.000
v 22.484 73.987 0.000
v 3.992 77.038 0.000
v 4.372 79.271 0.000
v -9.693 81.593 0.000
v -10.930 74.186 0.000
v -66.025 83.262 0.000
v -73.226 40.140 7.160
v -84.128 41.942 7.160
v -87.273 23.095 7.160
v -84.102 22.564 7.160
v -86.558 7.962 7.160
v -89.615 8.470 7.160
v -92.795 -10.388 7.160
v -84.190 -11.814 7.160
v -92.415 -60.507 7.160
v -34.723 -70.124 7.160
v -35.333 -73.727 7.160
v -21.400 -76.048 7.160
v -21.082 -74.136 7.160
v -4.746 -76.866 7.160
v -5.196 -79.530 7.160
v 9.637 -82.007 7.160
v 10.433 -77.320 7.160
v 66.226 -86.616 7.160
v 74.672 -36.663 7.160
v 83.524 -38.133 7.160
v 86.140 -22.658 7.160
v 83.657 -22.249 7.160
v 86.360 -6.143 7.160
v 89.824 -6.718 7.160
v 92.713 10.538 7.160
v 83.701 12.030 7.160
v 91.361 57.860 7.160
v 35.135 67.134 7.160
v 36.310 74.175 7.160
v 22.890 76.397 7.160
v 22.484 73.987 7.160
v 3.992 77.038 7.160
v 4.372 79.271 7.160
v -9.693 81.593 7.160
v -10.930 74.186 7.160
v -66.025 83.262 7.160
usemtl roof
f 54 55 56 57 58 59 60 61 62 63 64 65 66 67 68 69 70 71 72 73 74 75 76 77 78 79 80 81 82 83 84 85 86 87 88 89
usemtl teaching_building
f 53 52 51 50 49 48 47 46 45 44 43 42 41 40 39 38 37 36 35 34 33 32 31 30 29 28 27 26 25 24 23 22 21 20 19 18
f 18 19 55 54
f 19 20 56 55
f 20 21 57 56
f 21 22 58 57
f 22 23 59 58
f 23 24 60 59
f 24 25 61 60
f 25 26 62 61
f 26 27 63 62
f 27 28 64 63
f 28 29 65 64
f 29 30 66 65
f 30 31 67 66
f 31 32 68 67
f 32 33 69 68
f 33 34 70 69
f 34 35 71 70
f 35 36 72 71
f 36 37 73 72
f 37 38 74 73
f 38 39 75 74
f 39 40 76 75
f 40 41 77 76
f 41 42 78 77
f 42 43 79 78
f 43 44 80 79
f 44 45 81 80
f 45 46 82 81
f 46 47 83 82
f 47 48 84 83
f 48 49 85 84
f 49 50 86 85
f 50 51 87 86
f 51 52 88 87
f 52 53 89 88
f 53 18 54 89
