# school_id SD0918
# school_name 临清市京华中学
# boundary_source footprint_convex_hull_buffer_20m
# adjacent_block_merge_distance_m 2.0
mtllib ../campus_materials.mtl
o SD0918_campus_boundary
usemtl campus_boundary
v 27.637 -153.714 0.050
v 14.047 -153.527 0.050
v -65.888 -149.557 0.050
v -74.240 -125.129 0.050
v -72.846 -68.624 0.050
v -70.330 28.039 0.050
v -28.008 177.927 0.050
v 25.786 177.138 0.050
v 92.275 159.681 0.050
v 91.537 110.466 0.050
v 91.064 93.536 0.050
v 86.955 62.367 0.050
v 49.494 -145.516 0.050
v 27.637 -153.714 0.050
l 1 2 3 4 5 6 7 8 9 10 11 12 13 14 1
o SD0918_T001_1hao
v -6.722 112.044 0.000
v -6.200 147.367 0.000
v -13.085 147.466 0.000
v -12.936 157.704 0.000
v 23.060 157.176 0.000
v 22.881 145.047 0.000
v 72.042 144.315 0.000
v 71.541 110.895 0.000
v 50.146 111.210 0.000
v -6.722 112.044 9.900
v -6.200 147.367 9.900
v -13.085 147.466 9.900
v -12.936 157.704 9.900
v 23.060 157.176 9.900
v 22.881 145.047 9.900
v 72.042 144.315 9.900
v 71.541 110.895 9.900
v 50.146 111.210 9.900
usemtl roof
f 24 25 26 27 28 29 30 31 32
usemtl teaching_building
f 23 22 21 20 19 18 17 16 15
f 15 16 25 24
f 16 17 26 25
f 17 18 27 26
f 18 19 28 27
f 19 20 29 28
f 20 21 30 29
f 21 22 31 30
f 22 23 32 31
f 23 15 24 32
o SD0918_T002_2hao
v 15.039 87.871 0.000
v 18.280 86.527 0.000
v 18.109 74.028 0.000
v 14.845 74.075 0.000
v 14.718 66.070 0.000
v 17.982 66.023 0.000
v 17.922 61.502 0.000
v 62.894 60.844 0.000
v 62.968 65.504 0.000
v 67.188 65.449 0.000
v 71.101 95.126 0.000
v 18.430 95.904 0.000
v 18.400 94.014 0.000
v 15.166 92.819 0.000
v 14.255 89.483 0.000
v 15.039 87.871 9.900
v 18.280 86.527 9.900
v 18.109 74.028 9.900
v 14.845 74.075 9.900
v 14.718 66.070 9.900
v 17.982 66.023 9.900
v 17.922 61.502 9.900
v 62.894 60.844 9.900
v 62.968 65.504 9.900
v 67.188 65.449 9.900
v 71.101 95.126 9.900
v 18.430 95.904 9.900
v 18.400 94.014 9.900
v 15.166 92.819 9.900
v 14.255 89.483 9.900
usemtl roof
f 48 49 50 51 52 53 54 55 56 57 58 59 60 61 62
usemtl teaching_building
f 47 46 45 44 43 42 41 40 39 38 37 36 35 34 33
f 33 34 49 48
f 34 35 50 49
f 35 36 51 50
f 36 37 52 51
f 37 38 53 52
f 38 39 54 53
f 39 40 55 54
f 40 41 56 55
f 41 42 57 56
f 42 43 58 57
f 43 44 59 58
f 44 45 60 59
f 45 46 61 60
f 46 47 62 61
f 47 33 48 62
o SD0918_T003_3hao
v -49.932 23.458 0.000
v -47.027 22.281 0.000
v -47.101 17.250 0.000
v -14.257 16.769 0.000
v -14.130 24.690 0.000
v 14.666 24.274 0.000
v 14.554 16.769 0.000
v 19.288 16.704 0.000
v 19.229 12.636 0.000
v 39.765 12.330 0.000
v 39.937 23.681 0.000
v 43.223 23.634 0.000
v 43.268 26.877 0.000
v 46.382 31.306 0.000
v 29.953 31.538 0.000
v 29.997 34.391 0.000
v 21.506 34.512 0.000
v 21.462 31.667 0.000
v -46.870 32.659 0.000
v -46.944 27.692 0.000
v -49.319 27.183 0.000
v -50.402 25.015 0.000
v -49.932 23.458 9.900
v -47.027 22.281 9.900
v -47.101 17.250 9.900
v -14.257 16.769 9.900
v -14.130 24.690 9.900
v 14.666 24.274 9.900
v 14.554 16.769 9.900
v 19.288 16.704 9.900
v 19.229 12.636 9.900
v 39.765 12.330 9.900
v 39.937 23.681 9.900
v 43.223 23.634 9.900
v 43.268 26.877 9.900
v 46.382 31.306 9.900
v 29.953 31.538 9.900
v 29.997 34.391 9.900
v 21.506 34.512 9.900
v 21.462 31.667 9.900
v -46.870 32.659 9.900
v -46.944 27.692 9.900
v -49.319 27.183 9.900
v -50.402 25.015 9.900
usemtl roof
f 85 86 87 88 89 90 91 92 93 94 95 96 97 98 99 100 101 102 103 104 105 106
usemtl teaching_building
f 84 83 82 81 80 79 78 77 76 75 74 73 72 71 70 69 68 67 66 65 64 63
f 63 64 86 85
f 64 65 87 86
f 65 66 88 87
f 66 67 89 88
f 67 68 90 89
f 68 69 91 90
f 69 70 92 91
f 70 71 93 92
f 71 72 94 93
f 72 73 95 94
f 73 74 96 95
f 74 75 97 96
f 75 76 98 97
f 76 77 99 98
f 77 78 100 99
f 78 79 101 100
f 79 80 102 101
f 80 81 103 102
f 81 82 104 103
f 82 83 105 104
f 83 84 106 105
f 84 63 85 106
o SD0918_T004_4hao
v 39.400 -9.100 0.000
v 39.646 7.939 0.000
v 19.169 8.235 0.000
v 18.915 -8.804 0.000
v 39.400 -9.100 9.900
v 39.646 7.939 9.900
v 19.169 8.235 9.900
v 18.915 -8.804 9.900
usemtl roof
f 111 112 113 114
usemtl teaching_building
f 110 109 108 107
f 107 108 112 111
f 108 109 113 112
f 109 110 114 113
f 110 107 111 114
o SD0918_T005_5hao
v -41.784 -23.350 0.000
v -40.388 -23.573 0.000
v -40.440 -27.436 0.000
v 29.602 -28.465 0.000
v 29.818 -13.538 0.000
v -4.967 -13.038 0.000
v -4.990 -14.604 0.000
v -40.246 -14.085 0.000
v -40.305 -18.421 0.000
v -41.792 -18.634 0.000
v -43.293 -21.080 0.000
v -41.784 -23.350 9.900
v -40.388 -23.573 9.900
v -40.440 -27.436 9.900
v 29.602 -28.465 9.900
v 29.818 -13.538 9.900
v -4.967 -13.038 9.900
v -4.990 -14.604 9.900
v -40.246 -14.085 9.900
v -40.305 -18.421 9.900
v -41.792 -18.634 9.900
v -43.293 -21.080 9.900
usemtl roof
f 126 127 128 129 130 131 132 133 134 135 136
usemtl teaching_building
f 125 124 123 122 121 120 119 118 117 116 115
f 115 116 127 126
f 116 117 128 127
f 117 118 129 128
f 118 119 130 129
f 119 120 131 130
f 120 121 132 131
f 121 122 133 132
f 122 123 134 133
f 123 124 135 134
f 124 125 136 135
f 125 115 126 136
o SD0918_T006_6hao
v -52.852 -69.131 0.000
v -49.849 -67.472 0.000
v -49.737 -60.115 0.000
v -41.336 -60.245 0.000
v -41.314 -58.577 0.000
v -31.135 -58.716 0.000
v -31.165 -60.393 0.000
v -19.627 -60.560 0.000
v -19.597 -58.902 0.000
v 27.481 -59.596 0.000
v 27.354 -68.408 0.000
v 33.410 -68.501 0.000
v 33.306 -75.542 0.000
v 24.172 -75.412 0.000
v 24.262 -69.927 0.000
v 0.029 -69.575 0.000
v -0.061 -75.301 0.000
v -22.315 -74.977 0.000
v -22.427 -81.935 0.000
v -50.059 -81.528 0.000
v -49.917 -72.401 0.000
v -51.642 -72.151 0.000
v -52.799 -70.854 0.000
v -52.852 -69.131 9.900
v -49.849 -67.472 9.900
v -49.737 -60.115 9.900
v -41.336 -60.245 9.900
v -41.314 -58.577 9.900
v -31.135 -58.716 9.900
v -31.165 -60.393 9.900
v -19.627 -60.560 9.900
v -19.597 -58.902 9.900
v 27.481 -59.596 9.900
v 27.354 -68.408 9.900
v 33.410 -68.501 9.900
v 33.306 -75.542 9.900
v 24.172 -75.412 9.900
v 24.262 -69.927 9.900
v 0.029 -69.575 9.900
v -0.061 -75.301 9.900
v -22.315 -74.977 9.900
v -22.427 -81.935 9.900
v -50.059 -81.528 9.900
v -49.917 -72.401 9.900
v -51.642 -72.151 9.900
v -52.799 -70.854 9.900
usemtl roof
f 160 161 162 163 164 165 166 167 168 169 170 171 172 173 174 175 176 177 178 179 180 181 182
usemtl teaching_building
f 159 158 157 156 155 154 153 152 151 150 149 148 147 146 145 144 143 142 141 140 139 138 137
f 137 138 161 160
f 138 139 162 161
f 139 140 163 162
f 140 141 164 163
f 141 142 165 164
f 142 143 166 165
f 143 144 167 166
f 144 145 168 167
f 145 146 169 168
f 146 147 170 169
f 147 148 171 170
f 148 149 172 171
f 149 150 173 172
f 150 151 174 173
f 151 152 175 174
f 152 153 176 175
f 153 154 177 176
f 154 155 178 177
f 155 156 179 178
f 156 157 180 179
f 157 158 181 180
f 158 159 182 181
f 159 137 160 182
o SD0918_T006_6hao_seg02
v 19.169 -52.749 0.000
v 19.445 -33.839 0.000
v 36.860 -34.089 0.000
v 36.495 -58.883 0.000
v 23.896 -58.707 0.000
v 23.986 -52.833 0.000
v 19.169 -52.749 9.900
v 19.445 -33.839 9.900
v 36.860 -34.089 9.900
v 36.495 -58.883 9.900
v 23.896 -58.707 9.900
v 23.986 -52.833 9.900
usemtl roof
f 189 190 191 192 193 194
usemtl teaching_building
f 188 187 186 185 184 183
f 183 184 190 189
f 184 185 191 190
f 185 186 192 191
f 186 187 193 192
f 187 188 194 193
f 188 183 189 194
o SD0918_T007_7hao
v -52.769 -124.584 0.000
v -51.283 -124.843 0.000
v -51.351 -130.254 0.000
v -18.790 -130.690 0.000
v -18.701 -123.898 0.000
v 14.815 -124.361 0.000
v 14.681 -133.534 0.000
v 24.143 -133.664 0.000
v 24.187 -130.671 0.000
v 31.827 -130.782 0.000
v 32.051 -114.818 0.000
v -51.119 -113.669 0.000
v -51.209 -119.738 0.000
v -53.673 -120.766 0.000
v -54.158 -122.045 0.000
v -52.769 -124.584 9.900
v -51.283 -124.843 9.900
v -51.351 -130.254 9.900
v -18.790 -130.690 9.900
v -18.701 -123.898 9.900
v 14.815 -124.361 9.900
v 14.681 -133.534 9.900
v 24.143 -133.664 9.900
v 24.187 -130.671 9.900
v 31.827 -130.782 9.900
v 32.051 -114.818 9.900
v -51.119 -113.669 9.900
v -51.209 -119.738 9.900
v -53.673 -120.766 9.900
v -54.158 -122.045 9.900
usemtl roof
f 210 211 212 213 214 215 216 217 218 219 220 221 222 223 224
usemtl teaching_building
f 209 208 207 206 205 204 203 202 201 200 199 198 197 196 195
f 195 196 211 210
f 196 197 212 211
f 197 198 213 212
f 198 199 214 213
f 199 200 215 214
f 200 201 216 215
f 201 202 217 216
f 202 203 218 217
f 203 204 219 218
f 204 205 220 219
f 205 206 221 220
f 206 207 222 221
f 207 208 223 222
f 208 209 224 223
f 209 195 210 224
