# school_id SD0984
# school_name 成武县第二中学
# boundary_source footprint_convex_hull_buffer_20m
# adjacent_block_merge_distance_m 2.0
mtllib ../campus_materials.mtl
o SD0984_campus_boundary
usemtl campus_boundary
v 66.575 -91.605 0.050
v -89.171 -76.636 0.050
v -85.677 -40.798 0.050
v -80.871 4.397 0.050
v -76.448 44.015 0.050
v -72.064 80.250 0.050
v -12.000 75.097 0.050
v 50.513 67.454 0.050
v 73.335 59.518 0.050
v 73.466 31.275 0.050
v 72.651 -12.990 0.050
v 70.095 -55.551 0.050
v 66.575 -91.605 0.050
l 1 2 3 4 5 6 7 8 9 10 11 12 13 1
o SD0984_T001_1hao
v -56.582 41.704 0.000
v -22.208 37.614 0.000
v -20.155 54.571 0.000
v -54.529 58.672 0.000
v -56.582 41.704 13.820
v -22.208 37.614 13.820
v -20.155 54.571 13.820
v -54.529 58.672 13.820
usemtl roof
f 18 19 20 21
usemtl teaching_building
f 17 16 15 14
f 14 15 19 18
f 15 16 20 19
f 16 17 21 20
f 17 14 18 21
o SD0984_T002_2hao
v 14.976 1.578 0.000
v 16.710 3.026 0.000
v 52.662 -12.206 0.000
v 49.778 -27.262 0.000
v 38.144 -25.780 0.000
v 36.794 -19.469 0.000
v 15.140 -10.869 0.000
v 20.296 -21.735 0.000
v 14.209 -30.224 0.000
v 5.696 -29.948 0.000
v 2.055 -19.601 0.000
v 8.470 -9.785 0.000
v -13.330 -12.096 0.000
v -18.586 -18.916 0.000
v -27.264 -19.104 0.000
v -24.946 -10.880 0.000
v -26.105 -3.219 0.000
v -16.779 0.506 0.000
v 13.133 3.015 0.000
v 14.976 1.578 9.390
v 16.710 3.026 9.390
v 52.662 -12.206 9.390
v 49.778 -27.262 9.390
v 38.144 -25.780 9.390
v 36.794 -19.469 9.390
v 15.140 -10.869 9.390
v 20.296 -21.735 9.390
v 14.209 -30.224 9.390
v 5.696 -29.948 9.390
v 2.055 -19.601 9.390
v 8.470 -9.785 9.390
v -13.330 -12.096 9.390
v -18.586 -18.916 9.390
v -27.264 -19.104 9.390
v -24.946 -10.880 9.390
v -26.105 -3.219 9.390
v -16.779 0.506 9.390
v 13.133 3.015 9.390
usemtl roof
f 41 42 43 44 45 46 47 48 49 50 51 52 53 54 55 56 57 58 59
usemtl teaching_building
f 40 39 38 37 36 35 34 33 32 31 30 29 28 27 26 25 24 23 22
f 22 23 42 41
f 23 24 43 42
f 24 25 44 43
f 25 26 45 44
f 26 27 46 45
f 27 28 47 46
f 28 29 48 47
f 29 30 49 48
f 30 31 50 49
f 31 32 51 50
f 32 33 52 51
f 33 34 53 52
f 34 35 54 53
f 35 36 55 54
f 36 37 56 55
f 37 38 57 56
f 38 39 58 57
f 39 40 59 58
f 40 22 41 59
o SD0984_T002_2hao_seg02
v 53.465 31.413 0.000
v 21.719 26.350 0.000
v 16.710 3.026 0.000
v 13.133 3.015 0.000
v 13.023 29.821 0.000
v -18.996 40.179 0.000
v -14.069 55.201 0.000
v 22.130 43.495 0.000
v 45.964 47.861 0.000
v 53.401 45.275 0.000
v 53.465 31.413 9.390
v 21.719 26.350 9.390
v 16.710 3.026 9.390
v 13.133 3.015 9.390
v 13.023 29.821 9.390
v -18.996 40.179 9.390
v -14.069 55.201 9.390
v 22.130 43.495 9.390
v 45.964 47.861 9.390
v 53.401 45.275 9.390
usemtl roof
f 70 71 72 73 74 75 76 77 78 79
usemtl teaching_building
f 69 68 67 66 65 64 63 62 61 60
f 60 61 71 70
f 61 62 72 71
f 62 63 73 72
f 63 64 74 73
f 64 65 75 74
f 65 66 76 75
f 66 67 77 76
f 67 68 78 77
f 68 69 79 78
f 69 60 70 79
o SD0984_T002_2hao_seg03
v -27.273 -1.042 0.000
v -28.870 -17.236 0.000
v -62.586 -13.953 0.000
v -60.989 2.230 0.000
v -27.273 -1.042 9.390
v -28.870 -17.236 9.390
v -62.586 -13.953 9.390
v -60.989 2.230 9.390
usemtl roof
f 84 85 86 87
usemtl teaching_building
f 83 82 81 80
f 80 81 85 84
f 81 82 86 85
f 82 83 87 86
f 83 80 84 87
o SD0984_T003_3hao
v -67.322 -58.644 0.000
v 48.610 -69.786 0.000
v 50.153 -53.979 0.000
v -65.780 -42.826 0.000
v -67.322 -58.644 12.230
v 48.610 -69.786 12.230
v 50.153 -53.979 12.230
v -65.780 -42.826 12.230
usemtl roof
f 92 93 94 95
usemtl teaching_building
f 91 90 89 88
f 88 89 93 92
f 89 90 94 93
f 90 91 95 94
f 91 88 92 95
