# school_id SD0910
# school_name 鲁州高考补习学校
# boundary_source footprint_convex_hull_buffer_20m
# adjacent_block_merge_distance_m 2.0
mtllib ../campus_materials.mtl
o SD0910_campus_boundary
usemtl campus_boundary
v 31.738 -218.779 0.050
v 10.563 -204.688 0.050
v -148.620 38.279 0.050
v -172.805 80.898 0.050
v -179.157 96.746 0.050
v -181.574 113.688 0.050
v -180.534 128.058 0.050
v -175.096 149.447 0.050
v -154.658 154.950 0.050
v -110.275 160.077 0.050
v 105.632 141.486 0.050
v 149.231 -36.221 0.050
v 125.234 -134.057 0.050
v 91.701 -193.759 0.050
v 60.278 -218.186 0.050
v 31.738 -218.779 0.050
l 1 2 3 4 5 6 7 8 9 10 11 12 13 14 15 16 1
o SD0910_T001_1hao
v -159.697 101.953 0.000
v -154.743 89.593 0.000
v -148.222 80.225 0.000
v -136.227 70.858 0.000
v -122.803 62.871 0.000
v -131.541 48.705 0.000
v -107.016 38.615 0.000
v -112.344 25.272 0.000
v -89.043 21.075 0.000
v -89.242 11.588 0.000
v -93.783 11.828 0.000
v -93.668 6.603 0.000
v -60.512 5.167 0.000
v -57.882 -8.361 0.000
v -62.492 -11.817 0.000
v -66.414 -16.394 0.000
v -69.357 -21.897 0.000
v -69.586 -29.449 0.000
v -67.981 -33.970 0.000
v -63.578 -39.483 0.000
v -58.310 -43.439 0.000
v -45.536 -48.294 0.000
v -29.512 -49.267 0.000
v -22.609 -48.424 0.000
v -14.520 -45.561 0.000
v -8.420 -40.613 0.000
v -4.421 -34.183 0.000
v 4.837 -44.625 0.000
v -3.145 -50.870 0.000
v -11.799 -63.249 0.000
v 7.505 -74.784 0.000
v 8.353 -80.871 0.000
v 10.165 -84.309 0.000
v 12.856 -87.848 0.000
v 17.825 -91.175 0.000
v 15.387 -97.475 0.000
v 20.180 -98.012 0.000
v 29.644 -96.863 0.000
v 33.123 -99.430 0.000
v 38.925 -107.769 0.000
v 26.946 -135.546 0.000
v 22.603 -154.531 0.000
v 21.296 -164.399 0.000
v 21.158 -175.415 0.000
v 23.093 -185.375 0.000
v 25.050 -190.305 0.000
v 29.912 -187.015 0.000
v 37.595 -198.653 0.000
v 53.236 -198.328 0.000
v 56.952 -192.408 0.000
v 63.068 -177.685 0.000
v 76.240 -180.446 0.000
v 76.561 -163.518 0.000
v 74.856 -151.149 0.000
v 71.921 -140.086 0.000
v 60.507 -117.581 0.000
v 58.550 -107.444 0.000
v 58.618 -99.189 0.000
v 77.142 -98.457 0.000
v 81.232 -106.490 0.000
v 88.304 -115.264 0.000
v 96.912 -122.037 0.000
v 106.460 -126.642 0.000
v 128.638 -36.222 0.000
v 116.941 -35.888 0.000
v 108.509 -37.287 0.000
v 94.389 -43.115 0.000
v 94.458 -26.076 0.000
v 91.469 -2.505 0.000
v 88.953 5.083 0.000
v 85.047 11.152 0.000
v 79.741 16.869 0.000
v 68.473 24.522 0.000
v 57.648 27.774 0.000
v 47.908 28.098 0.000
v 47.916 41.200 0.000
v 55.805 41.274 0.000
v 57.212 51.243 0.000
v 61.585 45.981 0.000
v 65.682 43.201 0.000
v 73.862 40.857 0.000
v 81.026 41.505 0.000
v 87.080 44.192 0.000
v 91.713 48.251 0.000
v 85.414 51.910 0.000
v 86.843 57.720 0.000
v 85.666 64.205 0.000
v 81.805 69.598 0.000
v 76.775 72.591 0.000
v 71.852 73.489 0.000
v 67.074 72.804 0.000
v 62.043 76.899 0.000
v 79.038 95.411 0.000
v 84.397 104.121 0.000
v 89.626 122.790 0.000
v 69.184 122.846 0.000
v 66.332 115.915 0.000
v 60.476 106.919 0.000
v 40.156 88.712 0.000
v 32.702 78.317 0.000
v 27.397 68.727 0.000
v 23.811 59.110 0.000
v 21.548 48.705 0.000
v 20.975 27.848 0.000
v 4.592 25.458 0.000
v -0.828 31.508 0.000
v -4.490 37.938 0.000
v -15.606 67.532 0.000
v -22.846 77.640 0.000
v -33.128 86.581 0.000
v -45.245 92.761 0.000
v -56.468 95.615 0.000
v -68.210 96.097 0.000
v -68.279 88.944 0.000
v -76.436 89.213 0.000
v -83.462 91.010 0.000
v -89.379 93.827 0.000
v -95.579 98.487 0.000
v -100.548 104.297 0.000
v -103.805 110.838 0.000
v -105.563 117.602 0.000
v -105.326 126.033 0.000
v -103.545 132.417 0.000
v -100.380 138.495 0.000
v -109.982 139.978 0.000
v -112.406 133.353 0.000
v -114.699 124.273 0.000
v -116.029 111.348 0.000
v -115.701 102.657 0.000
v -114.042 92.344 0.000
v -124.936 95.550 0.000
v -134.446 101.350 0.000
v -142.878 110.301 0.000
v -148.635 121.641 0.000
v -150.890 135.252 0.000
v -158.596 133.177 0.000
v -160.714 124.847 0.000
v -161.471 114.387 0.000
v -159.697 101.953 6.600
v -154.743 89.593 6.600
v -148.222 80.225 6.600
v -136.227 70.858 6.600
v -122.803 62.871 6.600
v -131.541 48.705 6.600
v -107.016 38.615 6.600
v -112.344 25.272 6.600
v -89.043 21.075 6.600
v -89.242 11.588 6.600
v -93.783 11.828 6.600
v -93.668 6.603 6.600
v -60.512 5.167 6.600
v -57.882 -8.361 6.600
v -62.492 -11.817 6.600
v -66.414 -16.394 6.600
v -69.357 -21.897 6.600
v -69.586 -29.449 6.600
v -67.981 -33.970 6.600
v -63.578 -39.483 6.600
v -58.310 -43.439 6.600
v -45.536 -48.294 6.600
v -29.512 -49.267 6.600
v -22.609 -48.424 6.600
v -14.520 -45.561 6.600
v -8.420 -40.613 6.600
v -4.421 -34.183 6.600
v 4.837 -44.625 6.600
v -3.145 -50.870 6.600
v -11.799 -63.249 6.600
v 7.505 -74.784 6.600
v 8.353 -80.871 6.600
v 10.165 -84.309 6.600
v 12.856 -87.848 6.600
v 17.825 -91.175 6.600
v 15.387 -97.475 6.600
v 20.180 -98.012 6.600
v 29.644 -96.863 6.600
v 33.123 -99.430 6.600
v 38.925 -107.769 6.600
v 26.946 -135.546 6.600
v 22.603 -154.531 6.600
v 21.296 -164.399 6.600
v 21.158 -175.415 6.600
v 23.093 -185.375 6.600
v 25.050 -190.305 6.600
v 29.912 -187.015 6.600
v 37.595 -198.653 6.600
v 53.236 -198.328 6.600
v 56.952 -192.408 6.600
v 63.068 -177.685 6.600
v 76.240 -180.446 6.600
v 76.561 -163.518 6.600
v 74.856 -151.149 6.600
v 71.921 -140.086 6.600
v 60.507 -117.581 6.600
v 58.550 -107.444 6.600
v 58.618 -99.189 6.600
v 77.142 -98.457 6.600
v 81.232 -106.490 6.600
v 88.304 -115.264 6.600
v 96.912 -122.037 6.600
v 106.460 -126.642 6.600
v 128.638 -36.222 6.600
v 116.941 -35.888 6.600
v 108.509 -37.287 6.600
v 94.389 -43.115 6.600
v 94.458 -26.076 6.600
v 91.469 -2.505 6.600
v 88.953 5.083 6.600
v 85.047 11.152 6.600
v 79.741 16.869 6.600
v 68.473 24.522 6.600
v 57.648 27.774 6.600
v 47.908 28.098 6.600
v 47.916 41.200 6.600
v 55.805 41.274 6.600
v 57.212 51.243 6.600
v 61.585 45.981 6.600
v 65.682 43.201 6.600
v 73.862 40.857 6.600
v 81.026 41.505 6.600
v 87.080 44.192 6.600
v 91.713 48.251 6.600
v 85.414 51.910 6.600
v 86.843 57.720 6.600
v 85.666 64.205 6.600
v 81.805 69.598 6.600
v 76.775 72.591 6.600
v 71.852 73.489 6.600
v 67.074 72.804 6.600
v 62.043 76.899 6.600
v 79.038 95.411 6.600
v 84.397 104.121 6.600
v 89.626 122.790 6.600
v 69.184 122.846 6.600
v 66.332 115.915 6.600
v 60.476 106.919 6.600
v 40.156 88.712 6.600
v 32.702 78.317 6.600
v 27.397 68.727 6.600
v 23.811 59.110 6.600
v 21.548 48.705 6.600
v 20.975 27.848 6.600
v 4.592 25.458 6.600
v -0.828 31.508 6.600
v -4.490 37.938 6.600
v -15.606 67.532 6.600
v -22.846 77.640 6.600
v -33.128 86.581 6.600
v -45.245 92.761 6.600
v -56.468 95.615 6.600
v -68.210 96.097 6.600
v -68.279 88.944 6.600
v -76.436 89.213 6.600
v -83.462 91.010 6.600
v -89.379 93.827 6.600
v -95.579 98.487 6.600
v -100.548 104.297 6.600
v -103.805 110.838 6.600
v -105.563 117.602 6.600
v -105.326 126.033 6.600
v -103.545 132.417 6.600
v -100.380 138.495 6.600
v -109.982 139.978 6.600
v -112.406 133.353 6.600
v -114.699 124.273 6.600
v -116.029 111.348 6.600
v -115.701 102.657 6.600
v -114.042 92.344 6.600
v -124.936 95.550 6.600
v -134.446 101.350 6.600
v -142.878 110.301 6.600
v -148.635 121.641 6.600
v -150.890 135.252 6.600
v -158.596 133.177 6.600
v -160.714 124.847 6.600
v -161.471 114.387 6.600
usemtl roof
f 155 156 157 158 159 160 161 162 163 164 165 166 167 168 169 170 171 172 173 174 175 176 177 178 179 180 181 182 183 184 185 186 187 188 189 190 191 192 193 194 195 196 197 198 199 200 201 202 203 204 205 206 207 208 209 210 211 212 213 214 215 216 217 218 219 220 221 222 223 224 225 226 227 228 229 230 231 232 233 234 235 236 237 238 239 240 241 242 243 244 245 246 247 248 249 250 251 252 253 254 255 256 257 258 259 260 261 262 263 264 265 266 267 268 269 270 271 272 273 274 275 276 277 278 279 280 281 282 283 284 285 286 287 288 289 290 291 292
usemtl teaching_building
f 154 153 152 151 150 149 148 147 146 145 144 143 142 141 140 139 138 137 136 135 134 133 132 131 130 129 128 127 126 125 124 123 122 121 120 119 118 117 116 115 114 113 112 111 110 109 108 107 106 105 104 103 102 101 100 99 98 97 96 95 94 93 92 91 90 89 88 87 86 85 84 83 82 81 80 79 78 77 76 75 74 73 72 71 70 69 68 67 66 65 64 63 62 61 60 59 58 57 56 55 54 53 52 51 50 49 48 47 46 45 44 43 42 41 40 39 38 37 36 35 34 33 32 31 30 29 28 27 26 25 24 23 22 21 20 19 18 17
f 17 18 156 155
f 18 19 157 156
f 19 20 158 157
f 20 21 159 158
f 21 22 160 159
f 22 23 161 160
f 23 24 162 161
f 24 25 163 162
f 25 26 164 163
f 26 27 165 164
f 27 28 166 165
f 28 29 167 166
f 29 30 168 167
f 30 31 169 168
f 31 32 170 169
f 32 33 171 170
f 33 34 172 171
f 34 35 173 172
f 35 36 174 173
f 36 37 175 174
f 37 38 176 175
f 38 39 177 176
f 39 40 178 177
f 40 41 179 178
f 41 42 180 179
f 42 43 181 180
f 43 44 182 181
f 44 45 183 182
f 45 46 184 183
f 46 47 185 184
f 47 48 186 185
f 48 49 187 186
f 49 50 188 187
f 50 51 189 188
f 51 52 190 189
f 52 53 191 190
f 53 54 192 191
f 54 55 193 192
f 55 56 194 193
f 56 57 195 194
f 57 58 196 195
f 58 59 197 196
f 59 60 198 197
f 60 61 199 198
f 61 62 200 199
f 62 63 201 200
f 63 64 202 201
f 64 65 203 202
f 65 66 204 203
f 66 67 205 204
f 67 68 206 205
f 68 69 207 206
f 69 70 208 207
f 70 71 209 208
f 71 72 210 209
f 72 73 211 210
f 73 74 212 211
f 74 75 213 212
f 75 76 214 213
f 76 77 215 214
f 77 78 216 215
f 78 79 217 216
f 79 80 218 217
f 80 81 219 218
f 81 82 220 219
f 82 83 221 220
f 83 84 222 221
f 84 85 223 222
f 85 86 224 223
f 86 87 225 224
f 87 88 226 225
f 88 89 227 226
f 89 90 228 227
f 90 91 229 228
f 91 92 230 229
f 92 93 231 230
f 93 94 232 231
f 94 95 233 232
f 95 96 234 233
f 96 97 235 234
f 97 98 236 235
f 98 99 237 236
f 99 100 238 237
f 100 101 239 238
f 101 102 240 239
f 102 103 241 240
f 103 104 242 241
f 104 105 243 242
f 105 106 244 243
f 106 107 245 244
f 107 108 246 245
f 108 109 247 246
f 109 110 248 247
f 110 111 249 248
f 111 112 250 249
f 112 113 251 250
f 113 114 252 251
f 114 115 253 252
f 115 116 254 253
f 116 117 255 254
f 117 118 256 255
f 118 119 257 256
f 119 120 258 257
f 120 121 259 258
f 121 122 260 259
f 122 123 261 260
f 123 124 262 261
f 124 125 263 262
f 125 126 264 263
f 126 127 265 264
f 127 128 266 265
f 128 129 267 266
f 129 130 268 267
f 130 131 269 268
f 131 132 270 269
f 132 133 271 270
f 133 134 272 271
f 134 135 273 272
f 135 136 274 273
f 136 137 275 274
f 137 138 276 275
f 138 139 277 276
f 139 140 278 277
f 140 141 279 278
f 141 142 280 279
f 142 143 281 280
f 143 144 282 281
f 144 145 283 282
f 145 146 284 283
f 146 147 285 284
f 147 148 286 285
f 148 149 287 286
f 149 150 288 287
f 150 151 289 288
f 151 152 290 289
f 152 153 291 290
f 153 154 292 291
f 154 17 155 292
