# school_id SD0978
# school_name 山东省单县第二中学
# boundary_source footprint_convex_hull_buffer_20m
# adjacent_block_merge_distance_m 2.0
mtllib ../campus_materials.mtl
o SD0978_campus_boundary
usemtl campus_boundary
v -54.841 -278.362 0.050
v -87.665 -277.707 0.050
v -130.618 -77.438 0.050
v -130.176 -19.291 0.050
v -74.820 280.833 0.050
v -37.338 324.886 0.050
v -9.723 325.185 0.050
v 90.900 131.424 0.050
v 95.001 34.691 0.050
v 94.712 -38.489 0.050
v 78.154 -195.747 0.050
v -54.841 -278.362 0.050
l 1 2 3 4 5 6 7 8 9 10 11 12 1
o SD0978_T001_1hao
v 12.048 35.810 0.000
v -1.826 35.722 0.000
v -1.972 61.566 0.000
v -38.063 61.356 0.000
v -38.182 80.767 0.000
v -1.698 80.988 0.000
v -1.862 107.131 0.000
v -38.346 106.921 0.000
v -38.456 125.458 0.000
v 11.527 125.746 0.000
v 12.048 35.810 14.550
v -1.826 35.722 14.550
v -1.972 61.566 14.550
v -38.063 61.356 14.550
v -38.182 80.767 14.550
v -1.698 80.988 14.550
v -1.862 107.131 14.550
v -38.346 106.921 14.550
v -38.456 125.458 14.550
v 11.527 125.746 14.550
usemtl roof
f 23 24 25 26 27 28 29 30 31 32
usemtl teaching_building
f 22 21 20 19 18 17 16 15 14 13
f 13 14 24 23
f 14 15 25 24
f 15 16 26 25
f 16 17 27 26
f 17 18 28 27
f 18 19 29 28
f 19 20 30 29
f 20 21 31 30
f 21 22 32 31
f 22 13 23 32
o SD0978_T001_1hao_seg02
v 11.061 -2.105 0.000
v -13.259 -2.116 0.000
v -13.259 -4.006 0.000
v -21.402 -4.017 0.000
v -21.402 -2.293 0.000
v -38.401 -2.304 0.000
v -38.410 10.077 0.000
v -40.668 10.077 0.000
v -40.677 19.428 0.000
v -38.255 19.428 0.000
v -38.264 34.760 0.000
v 11.627 34.219 0.000
v 11.061 -2.105 14.550
v -13.259 -2.116 14.550
v -13.259 -4.006 14.550
v -21.402 -4.017 14.550
v -21.402 -2.293 14.550
v -38.401 -2.304 14.550
v -38.410 10.077 14.550
v -40.668 10.077 14.550
v -40.677 19.428 14.550
v -38.255 19.428 14.550
v -38.264 34.760 14.550
v 11.627 34.219 14.550
usemtl roof
f 45 46 47 48 49 50 51 52 53 54 55 56
usemtl teaching_building
f 44 43 42 41 40 39 38 37 36 35 34 33
f 33 34 46 45
f 34 35 47 46
f 35 36 48 47
f 36 37 49 48
f 37 38 50 49
f 38 39 51 50
f 39 40 52 51
f 40 41 53 52
f 41 42 54 53
f 42 43 55 54
f 43 44 56 55
f 44 33 45 56
o SD0978_T002_2hao
v 74.716 -37.400 0.000
v 50.250 -37.312 0.000
v 50.250 -39.368 0.000
v 41.220 -39.335 0.000
v 41.230 -37.610 0.000
v 21.543 -37.533 0.000
v 21.635 -12.319 0.000
v 19.898 -12.308 0.000
v 19.917 -5.299 0.000
v 22.366 -5.299 0.000
v 22.521 34.506 0.000
v 74.999 34.307 0.000
v 74.716 -37.400 12.620
v 50.250 -37.312 12.620
v 50.250 -39.368 12.620
v 41.220 -39.335 12.620
v 41.230 -37.610 12.620
v 21.543 -37.533 12.620
v 21.635 -12.319 12.620
v 19.898 -12.308 12.620
v 19.917 -5.299 12.620
v 22.366 -5.299 12.620
v 22.521 34.506 12.620
v 74.999 34.307 12.620
usemtl roof
f 69 70 71 72 73 74 75 76 77 78 79 80
usemtl teaching_building
f 68 67 66 65 64 63 62 61 60 59 58 57
f 57 58 70 69
f 58 59 71 70
f 59 60 72 71
f 60 61 73 72
f 61 62 74 73
f 62 63 75 74
f 63 64 76 75
f 64 65 77 76
f 65 66 78 77
f 66 67 79 78
f 67 68 80 79
f 68 57 69 80
o SD0978_T002_2hao_seg02
v 71.627 36.208 0.000
v 57.763 36.120 0.000
v 57.607 61.964 0.000
v 21.525 61.754 0.000
v 21.406 81.165 0.000
v 57.881 81.386 0.000
v 57.726 107.529 0.000
v 21.233 107.319 0.000
v 21.123 125.856 0.000
v 71.106 126.144 0.000
v 71.627 36.208 12.620
v 57.763 36.120 12.620
v 57.607 61.964 12.620
v 21.525 61.754 12.620
v 21.406 81.165 12.620
v 57.881 81.386 12.620
v 57.726 107.529 12.620
v 21.233 107.319 12.620
v 21.123 125.856 12.620
v 71.106 126.144 12.620
usemtl roof
f 91 92 93 94 95 96 97 98 99 100
usemtl teaching_building
f 90 89 88 87 86 85 84 83 82 81
f 81 82 92 91
f 82 83 93 92
f 83 84 94 93
f 84 85 95 94
f 85 86 96 95
f 86 87 97 96
f 87 88 98 97
f 88 89 99 98
f 89 90 100 99
f 90 81 91 100
o SD0978_T003_3hao
v -60.920 -21.560 0.000
v -61.332 -75.769 0.000
v -110.602 -75.393 0.000
v -110.190 -21.195 0.000
v -60.920 -21.560 7.630
v -61.332 -75.769 7.630
v -110.602 -75.393 7.630
v -110.190 -21.195 7.630
usemtl roof
f 105 106 107 108
usemtl teaching_building
f 104 103 102 101
f 101 102 106 105
f 102 103 107 106
f 103 104 108 107
f 104 101 105 108
o SD0978_T004_4hao
v 24.468 -94.582 0.000
v 40.407 -79.030 0.000
v 56.145 -94.947 0.000
v 40.041 -110.655 0.000
v 33.726 -104.277 0.000
v 30.546 -107.383 0.000
v 24.633 -107.460 0.000
v 24.468 -94.582 9.060
v 40.407 -79.030 9.060
v 56.145 -94.947 9.060
v 40.041 -110.655 9.060
v 33.726 -104.277 9.060
v 30.546 -107.383 9.060
v 24.633 -107.460 9.060
usemtl roof
f 116 117 118 119 120 121 122
usemtl teaching_building
f 115 114 113 112 111 110 109
f 109 110 117 116
f 110 111 118 117
f 111 112 119 118
f 112 113 120 119
f 113 114 121 120
f 114 115 122 121
f 115 109 116 122
o SD0978_T005_5hao
v 10.183 -145.707 0.000
v 45.443 -145.552 0.000
v 45.461 -150.007 0.000
v 41.458 -150.018 0.000
v 41.513 -164.831 0.000
v 45.653 -164.809 0.000
v 45.680 -169.639 0.000
v 10.147 -169.794 0.000
v 10.128 -184.264 0.000
v 59.289 -183.921 0.000
v 59.051 -130.044 0.000
v 10.211 -130.254 0.000
v 10.183 -145.707 10.770
v 45.443 -145.552 10.770
v 45.461 -150.007 10.770
v 41.458 -150.018 10.770
v 41.513 -164.831 10.770
v 45.653 -164.809 10.770
v 45.680 -169.639 10.770
v 10.147 -169.794 10.770
v 10.128 -184.264 10.770
v 59.289 -183.921 10.770
v 59.051 -130.044 10.770
v 10.211 -130.254 10.770
usemtl roof
f 135 136 137 138 139 140 141 142 143 144 145 146
usemtl teaching_building
f 134 133 132 131 130 129 128 127 126 125 124 123
f 123 124 136 135
f 124 125 137 136
f 125 126 138 137
f 126 127 139 138
f 127 128 140 139
f 128 129 141 140
f 129 130 142 141
f 130 131 143 142
f 131 132 144 143
f 132 133 145 144
f 133 134 146 145
f 134 123 135 146
o SD0978_T006_6hao
v -45.941 -145.354 0.000
v -45.969 -152.881 0.000
v -38.712 -152.903 0.000
v -38.748 -161.183 0.000
v -46.279 -161.150 0.000
v -46.316 -168.611 0.000
v 0.084 -168.799 0.000
v 0.185 -145.530 0.000
v -45.941 -145.354 10.810
v -45.969 -152.881 10.810
v -38.712 -152.903 10.810
v -38.748 -161.183 10.810
v -46.279 -161.150 10.810
v -46.316 -168.611 10.810
v 0.084 -168.799 10.810
v 0.185 -145.530 10.810
usemtl roof
f 155 156 157 158 159 160 161 162
usemtl teaching_building
f 154 153 152 151 150 149 148 147
f 147 148 156 155
f 148 149 157 156
f 149 150 158 157
f 150 151 159 158
f 151 152 160 159
f 152 153 161 160
f 153 154 162 161
f 154 147 155 162
