# school_id SD0937
# school_name 聊城北大培文学校
# boundary_source footprint_convex_hull_buffer_20m
# adjacent_block_merge_distance_m 2.0
mtllib ../campus_materials.mtl
o SD0937_campus_boundary
usemtl campus_boundary
v -10.588 -122.100 0.050
v -74.639 -99.632 0.050
v -176.227 -55.809 0.050
v -148.120 8.434 0.050
v 26.451 113.051 0.050
v 105.889 80.630 0.050
v 92.842 49.110 0.050
v 63.580 -21.018 0.050
v 57.408 -35.525 0.050
v -10.588 -122.100 0.050
l 1 2 3 4 5 6 7 8 9 10 1
o SD0937_T001_1hao
v 22.805 77.833 0.000
v 74.373 56.786 0.000
v 79.722 69.708 0.000
v 28.153 90.755 0.000
v 22.805 77.833 16.620
v 74.373 56.786 16.620
v 79.722 69.708 16.620
v 28.153 90.755 16.620
usemtl roof
f 15 16 17 18
usemtl teaching_building
f 14 13 12 11
f 11 12 16 15
f 12 13 17 16
f 13 14 18 17
f 14 11 15 18
o SD0937_T002_2hao
v 4.707 37.077 0.000
v 55.774 15.256 0.000
v 62.243 30.190 0.000
v 24.623 46.274 0.000
v 11.185 52.011 0.000
v 4.707 37.077 13.200
v 55.774 15.256 13.200
v 62.243 30.190 13.200
v 24.623 46.274 13.200
v 11.185 52.011 13.200
usemtl roof
f 24 25 26 27 28
usemtl teaching_building
f 23 22 21 20 19
f 19 20 25 24
f 20 21 26 25
f 21 22 27 26
f 22 23 28 27
f 23 19 24 28
o SD0937_T003_3hao
v -12.288 -3.325 0.000
v 40.042 -25.256 0.000
v 45.149 -13.252 0.000
v 2.548 4.611 0.000
v -7.181 8.679 0.000
v -12.288 -3.325 9.480
v 40.042 -25.256 9.480
v 45.149 -13.252 9.480
v 2.548 4.611 9.480
v -7.181 8.679 9.480
usemtl roof
f 34 35 36 37 38
usemtl teaching_building
f 33 32 31 30 29
f 29 30 35 34
f 30 31 36 35
f 31 32 37 36
f 32 33 38 37
f 33 29 34 38
o SD0937_T004_4hao
v -149.846 -45.408 0.000
v -67.359 -80.991 0.000
v -49.871 -41.019 0.000
v -132.358 -5.437 0.000
v -149.846 -45.408 11.970
v -67.359 -80.991 11.970
v -49.871 -41.019 11.970
v -132.358 -5.437 11.970
usemtl roof
f 43 44 45 46
usemtl teaching_building
f 42 41 40 39
f 39 40 44 43
f 40 41 45 44
f 41 42 46 45
f 42 39 43 46
o SD0937_T005_5hao
v 12.358 -31.170 0.000
v -17.475 -98.489 0.000
v -47.596 -85.324 0.000
v -17.753 -18.016 0.000
v 12.358 -31.170 23.810
v -17.475 -98.489 23.810
v -47.596 -85.324 23.810
v -17.753 -18.016 23.810
usemtl roof
f 51 52 53 54
usemtl teaching_building
f 50 49 48 47
f 47 48 52 51
f 48 49 53 52
f 49 50 54 53
f 50 47 51 54
