# school_id SD0993
# school_name 曹城镇中学
# boundary_source footprint_convex_hull_buffer_20m
# adjacent_block_merge_distance_m 2.0
mtllib ../campus_materials.mtl
o SD0993_campus_boundary
usemtl campus_boundary
v 58.616 -107.243 0.050
v -28.302 -102.059 0.050
v -72.428 -98.833 0.050
v -70.441 -71.764 0.050
v -62.721 16.202 0.050
v -56.306 67.204 0.050
v 60.854 60.147 0.050
v 64.400 9.994 0.050
v 60.520 -81.292 0.050
v 58.616 -107.243 0.050
l 1 2 3 4 5 6 7 8 9 10 1
o SD0993_T001_1hao
v -4.785 43.703 0.000
v -5.443 34.451 0.000
v -12.213 34.926 0.000
v -12.432 31.942 0.000
v -16.398 32.218 0.000
v -16.179 35.302 0.000
v -39.459 36.949 0.000
v -38.801 46.113 0.000
v -4.785 43.703 9.290
v -5.443 34.451 9.290
v -12.213 34.926 9.290
v -12.432 31.942 9.290
v -16.398 32.218 9.290
v -16.179 35.302 9.290
v -39.459 36.949 9.290
v -38.801 46.113 9.290
usemtl roof
f 19 20 21 22 23 24 25 26
usemtl teaching_building
f 18 17 16 15 14 13 12 11
f 11 12 20 19
f 12 13 21 20
f 13 14 22 21
f 14 15 23 22
f 15 16 24 23
f 16 17 25 24
f 17 18 26 25
f 18 11 19 26
o SD0993_T002_2hao
v 42.141 41.238 0.000
v 41.711 32.804 0.000
v 22.159 33.788 0.000
v 21.976 30.284 0.000
v 17.563 30.505 0.000
v 17.728 33.567 0.000
v 8.966 34.009 0.000
v 9.422 42.896 0.000
v 42.141 41.238 10.140
v 41.711 32.804 10.140
v 22.159 33.788 10.140
v 21.976 30.284 10.140
v 17.563 30.505 10.140
v 17.728 33.567 10.140
v 8.966 34.009 10.140
v 9.422 42.896 10.140
usemtl roof
f 35 36 37 38 39 40 41 42
usemtl teaching_building
f 34 33 32 31 30 29 28 27
f 27 28 36 35
f 28 29 37 36
f 29 30 38 37
f 30 31 39 38
f 31 32 40 39
f 32 33 41 40
f 33 34 42 41
f 34 27 35 42
o SD0993_T003_3hao
v -4.548 11.835 0.000
v -5.196 1.013 0.000
v -11.190 1.367 0.000
v -11.089 2.969 0.000
v -37.604 4.528 0.000
v -37.705 2.748 0.000
v -43.488 3.091 0.000
v -42.830 14.079 0.000
v -4.548 11.835 9.290
v -5.196 1.013 9.290
v -11.190 1.367 9.290
v -11.089 2.969 9.290
v -37.604 4.528 9.290
v -37.705 2.748 9.290
v -43.488 3.091 9.290
v -42.830 14.079 9.290
usemtl roof
f 51 52 53 54 55 56 57 58
usemtl teaching_building
f 50 49 48 47 46 45 44 43
f 43 44 52 51
f 44 45 53 52
f 45 46 54 53
f 46 47 55 54
f 47 48 56 55
f 48 49 57 56
f 49 50 58 57
f 50 43 51 58
o SD0993_T004_4hao
v 44.370 9.712 0.000
v 43.804 -1.098 0.000
v 37.810 -0.789 0.000
v 37.892 0.814 0.000
v 11.369 2.185 0.000
v 11.277 0.405 0.000
v 5.494 0.703 0.000
v 6.069 11.702 0.000
v 44.370 9.712 10.140
v 43.804 -1.098 10.140
v 37.810 -0.789 10.140
v 37.892 0.814 10.140
v 11.369 2.185 10.140
v 11.277 0.405 10.140
v 5.494 0.703 10.140
v 6.069 11.702 10.140
usemtl roof
f 67 68 69 70 71 72 73 74
usemtl teaching_building
f 66 65 64 63 62 61 60 59
f 59 60 68 67
f 60 61 69 68
f 61 62 70 69
f 62 63 71 70
f 63 64 72 71
f 64 65 73 72
f 65 66 74 73
f 66 59 67 74
