# school_id SD0915
# school_name 德州市第一中学（西校区）
# boundary_source footprint_convex_hull_buffer_20m
# adjacent_block_merge_distance_m 2.0
mtllib ../campus_materials.mtl
o SD0915_campus_boundary
usemtl campus_boundary
v 54.431 -154.005 0.050
v -62.746 -85.557 0.050
v -71.071 -71.267 0.050
v -105.137 50.007 0.050
v -106.120 136.652 0.050
v -32.451 164.624 0.050
v 38.327 165.228 0.050
v 124.578 -70.802 0.050
v 124.726 -94.701 0.050
v 119.327 -111.124 0.050
v 83.410 -153.827 0.050
v 54.431 -154.005 0.050
l 1 2 3 4 5 6 7 8 9 10 11 12 1
o SD0915_T001_1hao
v -85.769 108.133 0.000
v -33.674 108.840 0.000
v -33.877 123.608 0.000
v -85.963 122.912 0.000
v -85.769 108.133 18.900
v -33.674 108.840 18.900
v -33.877 123.608 18.900
v -85.963 122.912 18.900
usemtl roof
f 17 18 19 20
usemtl teaching_building
f 16 15 14 13
f 13 14 18 17
f 14 15 19 18
f 15 16 20 19
f 16 13 17 20
o SD0915_T002_2hao
v -28.443 115.450 0.000
v -28.699 144.655 0.000
v 24.386 145.108 0.000
v 24.633 115.727 0.000
v 17.935 115.672 0.000
v 18.049 103.181 0.000
v -24.298 102.816 0.000
v -24.404 115.484 0.000
v -28.443 115.450 17.730
v -28.699 144.655 17.730
v 24.386 145.108 17.730
v 24.633 115.727 17.730
v 17.935 115.672 17.730
v 18.049 103.181 17.730
v -24.298 102.816 17.730
v -24.404 115.484 17.730
usemtl roof
f 29 30 31 32 33 34 35 36
usemtl teaching_building
f 28 27 26 25 24 23 22 21
f 21 22 30 29
f 22 23 31 30
f 23 24 32 31
f 24 25 33 32
f 25 26 34 33
f 26 27 35 34
f 27 28 36 35
f 28 21 29 36
o SD0915_T002_2hao_seg02
v 17.396 101.467 0.000
v 38.923 101.744 0.000
v 39.382 66.758 0.000
v 29.891 66.636 0.000
v 29.962 61.463 0.000
v 17.926 61.308 0.000
v 17.396 101.467 17.730
v 38.923 101.744 17.730
v 39.382 66.758 17.730
v 29.891 66.636 17.730
v 29.962 61.463 17.730
v 17.926 61.308 17.730
usemtl roof
f 43 44 45 46 47 48
usemtl teaching_building
f 42 41 40 39 38 37
f 37 38 44 43
f 38 39 45 44
f 39 40 46 45
f 40 41 47 46
f 41 42 48 47
f 42 37 43 48
o SD0915_T003_3hao
v -24.024 69.521 0.000
v -36.334 69.576 0.000
v -36.361 63.751 0.000
v -47.327 63.651 0.000
v -47.478 67.023 0.000
v -61.820 67.078 0.000
v -61.838 62.811 0.000
v -71.868 62.856 0.000
v -71.842 69.024 0.000
v -85.088 69.079 0.000
v -85.168 52.874 0.000
v -24.103 52.586 0.000
v -24.024 69.521 17.890
v -36.334 69.576 17.890
v -36.361 63.751 17.890
v -47.327 63.651 17.890
v -47.478 67.023 17.890
v -61.820 67.078 17.890
v -61.838 62.811 17.890
v -71.868 62.856 17.890
v -71.842 69.024 17.890
v -85.088 69.079 17.890
v -85.168 52.874 17.890
v -24.103 52.586 17.890
usemtl roof
f 61 62 63 64 65 66 67 68 69 70 71 72
usemtl teaching_building
f 60 59 58 57 56 55 54 53 52 51 50 49
f 49 50 62 61
f 50 51 63 62
f 51 52 64 63
f 52 53 65 64
f 53 54 66 65
f 54 55 67 66
f 55 56 68 67
f 56 57 69 68
f 57 58 70 69
f 58 59 71 70
f 59 60 72 71
f 60 49 61 72
o SD0915_T004_4hao
v -52.506 -63.403 0.000
v -52.524 -55.245 0.000
v -47.813 -55.234 0.000
v -47.831 -51.432 0.000
v -35.521 -51.399 0.000
v -35.503 -57.523 0.000
v -11.811 -57.456 0.000
v -11.820 -53.488 0.000
v -3.589 -53.464 0.000
v -8.939 -53.477 0.000
v -9.036 -34.652 0.000
v -55.811 -34.818 0.000
v -55.829 -12.599 0.000
v -50.049 -12.577 0.000
v -50.049 -17.396 0.000
v 44.976 -17.286 0.000
v 44.923 -12.356 0.000
v 51.904 -12.621 0.000
v 51.763 -34.508 0.000
v 5.377 -34.652 0.000
v 5.174 -53.439 0.000
v 7.436 -53.433 0.000
v 7.454 -57.589 0.000
v 33.444 -57.511 0.000
v 33.426 -51.001 0.000
v 45.480 -50.846 0.000
v 45.524 -54.438 0.000
v 50.747 -54.383 0.000
v 50.826 -63.061 0.000
v 45.948 -63.072 0.000
v 45.966 -70.688 0.000
v -48.114 -70.942 0.000
v -48.132 -63.392 0.000
v -52.506 -63.403 19.200
v -52.524 -55.245 19.200
v -47.813 -55.234 19.200
v -47.831 -51.432 19.200
v -35.521 -51.399 19.200
v -35.503 -57.523 19.200
v -11.811 -57.456 19.200
v -11.820 -53.488 19.200
v -3.589 -53.464 19.200
v -8.939 -53.477 19.200
v -9.036 -34.652 19.200
v -55.811 -34.818 19.200
v -55.829 -12.599 19.200
v -50.049 -12.577 19.200
v -50.049 -17.396 19.200
v 44.976 -17.286 19.200
v 44.923 -12.356 19.200
v 51.904 -12.621 19.200
v 51.763 -34.508 19.200
v 5.377 -34.652 19.200
v 5.174 -53.439 19.200
v 7.436 -53.433 19.200
v 7.454 -57.589 19.200
v 33.444 -57.511 19.200
v 33.426 -51.001 19.200
v 45.480 -50.846 19.200
v 45.524 -54.438 19.200
v 50.747 -54.383 19.200
v 50.826 -63.061 19.200
v 45.948 -63.072 19.200
v 45.966 -70.688 19.200
v -48.114 -70.942 19.200
v -48.132 -63.392 19.200
usemtl roof
f 106 107 108 109 110 111 112 113 114 115 116 117 118 119 120 121 122 123 124 125 126 127 128 129 130 131 132 133 134 135 136 137 138
usemtl teaching_building
f 105 104 103 102 101 100 99 98 97 96 95 94 93 92 91 90 89 88 87 86 85 84 83 82 81 80 79 78 77 76 75 74 73
f 73 74 107 106
f 74 75 108 107
f 75 76 109 108
f 76 77 110 109
f 77 78 111 110
f 78 79 112 111
f 79 80 113 112
f 80 81 114 113
f 81 82 115 114
f 82 83 116 115
f 83 84 117 116
f 84 85 118 117
f 85 86 119 118
f 86 87 120 119
f 87 88 121 120
f 88 89 122 121
f 89 90 123 122
f 90 91 124 123
f 91 92 125 124
f 92 93 126 125
f 93 94 127 126
f 94 95 128 127
f 95 96 129 128
f 96 97 130 129
f 97 98 131 130
f 98 99 132 131
f 99 100 133 132
f 100 101 134 133
f 101 102 135 134
f 102 103 136 135
f 103 104 137 136
f 104 105 138 137
f 105 73 106 138
o SD0915_T005_5hao
v 104.706 -91.558 0.000
v 101.534 -101.208 0.000
v 86.829 -114.981 0.000
v 80.872 -117.115 0.000
v 73.944 -117.170 0.000
v 74.050 -133.884 0.000
v 59.787 -133.972 0.000
v 59.425 -74.678 0.000
v 104.600 -74.402 0.000
v 104.706 -91.558 18.060
v 101.534 -101.208 18.060
v 86.829 -114.981 18.060
v 80.872 -117.115 18.060
v 73.944 -117.170 18.060
v 74.050 -133.884 18.060
v 59.787 -133.972 18.060
v 59.425 -74.678 18.060
v 104.600 -74.402 18.060
usemtl roof
f 148 149 150 151 152 153 154 155 156
usemtl teaching_building
f 147 146 145 144 143 142 141 140 139
f 139 140 149 148
f 140 141 150 149
f 141 142 151 150
f 142 143 152 151
f 143 144 153 152
f 144 145 154 153
f 145 146 155 154
f 146 147 156 155
f 147 139 148 156
