# school_id SD0959
# school_name 单县北城三中
# boundary_source footprint_convex_hull_buffer_20m
# adjacent_block_merge_distance_m 2.0
mtllib ../campus_materials.mtl
o SD0959_campus_boundary
usemtl campus_boundary
v 25.614 -33.764 0.050
v 12.898 -33.276 0.050
v -1.953 -32.207 0.050
v -16.286 -30.833 0.050
v -97.537 -20.838 0.050
v -94.003 35.138 0.050
v 26.297 33.098 0.050
v 56.029 31.959 0.050
v 53.689 -29.208 0.050
v 25.614 -33.764 0.050
l 1 2 3 4 5 6 7 8 9 10 1
o SD0959_T001_1hao
v -23.078 11.556 0.000
v -24.229 -6.550 0.000
v -76.389 -3.289 0.000
v -75.246 14.817 0.000
v -23.078 11.556 8.870
v -24.229 -6.550 8.870
v -76.389 -3.289 8.870
v -75.246 14.817 8.870
usemtl roof
f 15 16 17 18
usemtl teaching_building
f 14 13 12 11
f 11 12 16 15
f 12 13 17 16
f 13 14 18 17
f 14 11 15 18
o SD0959_T002_2hao
v -3.424 8.362 0.000
v -3.506 6.029 0.000
v -1.249 5.941 0.000
v -1.175 8.008 0.000
v 8.002 7.654 0.000
v 7.902 4.968 0.000
v 9.858 4.891 0.000
v 9.931 6.715 0.000
v 14.328 6.538 0.000
v 14.209 3.410 0.000
v 16.613 3.321 0.000
v 16.732 6.306 0.000
v 25.471 5.974 0.000
v 25.745 13.104 0.000
v 35.279 12.739 0.000
v 34.329 -12.088 0.000
v 24.456 -11.712 0.000
v 24.383 -13.702 0.000
v 13.999 -13.304 0.000
v 14.045 -12.055 0.000
v -0.280 -12.276 0.000
v -0.252 -11.469 0.000
v -14.110 -10.950 0.000
v -14.055 -9.612 0.000
v -20.408 -9.369 0.000
v -19.823 5.841 0.000
v -18.297 5.786 0.000
v -18.178 8.925 0.000
v -3.424 8.362 8.280
v -3.506 6.029 8.280
v -1.249 5.941 8.280
v -1.175 8.008 8.280
v 8.002 7.654 8.280
v 7.902 4.968 8.280
v 9.858 4.891 8.280
v 9.931 6.715 8.280
v 14.328 6.538 8.280
v 14.209 3.410 8.280
v 16.613 3.321 8.280
v 16.732 6.306 8.280
v 25.471 5.974 8.280
v 25.745 13.104 8.280
v 35.279 12.739 8.280
v 34.329 -12.088 8.280
v 24.456 -11.712 8.280
v 24.383 -13.702 8.280
v 13.999 -13.304 8.280
v 14.045 -12.055 8.280
v -0.280 -12.276 8.280
v -0.252 -11.469 8.280
v -14.110 -10.950 8.280
v -14.055 -9.612 8.280
v -20.408 -9.369 8.280
v -19.823 5.841 8.280
v -18.297 5.786 8.280
v -18.178 8.925 8.280
usemtl roof
f 47 48 49 50 51 52 53 54 55 56 57 58 59 60 61 62 63 64 65 66 67 68 69 70 71 72 73 74
usemtl teaching_building
f 46 45 44 43 42 41 40 39 38 37 36 35 34 33 32 31 30 29 28 27 26 25 24 23 22 21 20 19
f 19 20 48 47
f 20 21 49 48
f 21 22 50 49
f 22 23 51 50
f 23 24 52 51
f 24 25 53 52
f 25 26 54 53
f 26 27 55 54
f 27 28 56 55
f 28 29 57 56
f 29 30 58 57
f 30 31 59 58
f 31 32 60 59
f 32 33 61 60
f 33 34 62 61
f 34 35 63 62
f 35 36 64 63
f 36 37 65 64
f 37 38 66 65
f 38 39 67 66
f 39 40 68 67
f 40 41 69 68
f 41 42 70 69
f 42 43 71 70
f 43 44 72 71
f 44 45 73 72
f 45 46 74 73
f 46 19 47 74
