# school_id SD0936
# school_name 烟店镇张寨社区小学
# boundary_source footprint_convex_hull_buffer_20m
# adjacent_block_merge_distance_m 2.0
mtllib ../campus_materials.mtl
o SD0936_campus_boundary
usemtl campus_boundary
v -50.858 -32.177 0.050
v -57.930 16.663 0.050
v 50.872 32.164 0.050
v 57.918 -16.648 0.050
v -50.858 -32.177 0.050
l 1 2 3 4 5 1
o SD0936_T001_1hao
v -33.925 -9.557 0.000
v 35.261 0.320 0.000
v 33.929 9.548 0.000
v -35.264 -0.310 0.000
v -33.925 -9.557 9.900
v 35.261 0.320 9.900
v 33.929 9.548 9.900
v -35.264 -0.310 9.900
usemtl roof
f 10 11 12 13
usemtl teaching_building
f 9 8 7 6
f 6 7 11 10
f 7 8 12 11
f 8 9 13 12
f 9 6 10 13
