# school_id SD0945
# school_name 博兴实验中学
# boundary_source footprint_convex_hull_buffer_20m
# adjacent_block_merge_distance_m 2.0
mtllib ../campus_materials.mtl
o SD0945_campus_boundary
usemtl campus_boundary
v -95.971 -70.561 0.050
v -107.967 20.467 0.050
v -103.799 55.236 0.050
v -74.530 57.259 0.050
v 52.365 64.547 0.050
v 81.600 65.838 0.050
v 89.511 29.588 0.050
v 74.265 -54.885 0.050
v 39.142 -65.597 0.050
v -95.971 -70.561 0.050
l 1 2 3 4 5 6 7 8 9 10 1
o SD0945_T001_1hao
v -39.984 1.218 0.000
v -87.810 20.585 0.000
v -85.432 28.146 0.000
v -85.911 36.425 0.000
v -73.267 37.299 0.000
v -72.974 32.523 0.000
v -36.310 18.816 0.000
v 18.908 22.597 0.000
v 53.602 40.338 0.000
v 53.380 44.572 0.000
v 65.652 45.114 0.000
v 66.086 36.237 0.000
v 69.121 29.218 0.000
v 23.664 5.585 0.000
v -39.984 1.218 16.220
v -87.810 20.585 16.220
v -85.432 28.146 16.220
v -85.911 36.425 16.220
v -73.267 37.299 16.220
v -72.974 32.523 16.220
v -36.310 18.816 16.220
v 18.908 22.597 16.220
v 53.602 40.338 16.220
v 53.380 44.572 16.220
v 65.652 45.114 16.220
v 66.086 36.237 16.220
v 69.121 29.218 16.220
v 23.664 5.585 16.220
usemtl roof
f 25 26 27 28 29 30 31 32 33 34 35 36 37 38
usemtl teaching_building
f 24 23 22 21 20 19 18 17 16 15 14 13 12 11
f 11 12 26 25
f 12 13 27 26
f 13 14 28 27
f 14 15 29 28
f 15 16 30 29
f 16 17 31 30
f 17 18 32 31
f 18 19 33 32
f 19 20 34 33
f 20 21 35 34
f 21 22 36 35
f 22 23 37 36
f 23 24 38 37
f 24 11 25 38
o SD0945_T002_2hao
v -78.520 -49.906 0.000
v 0.780 -45.430 0.000
v 0.656 -43.572 0.000
v 20.558 -42.390 0.000
v 35.802 -45.706 0.000
v 52.226 -39.560 0.000
v 56.752 -39.317 0.000
v 55.084 -17.341 0.000
v 50.319 -17.584 0.000
v 33.761 -14.611 0.000
v 19.112 -19.519 0.000
v -0.871 -20.890 0.000
v -0.702 -23.443 0.000
v -79.957 -27.622 0.000
v -78.520 -49.906 12.200
v 0.780 -45.430 12.200
v 0.656 -43.572 12.200
v 20.558 -42.390 12.200
v 35.802 -45.706 12.200
v 52.226 -39.560 12.200
v 56.752 -39.317 12.200
v 55.084 -17.341 12.200
v 50.319 -17.584 12.200
v 33.761 -14.611 12.200
v 19.112 -19.519 12.200
v -0.871 -20.890 12.200
v -0.702 -23.443 12.200
v -79.957 -27.622 12.200
usemtl roof
f 53 54 55 56 57 58 59 60 61 62 63 64 65 66
usemtl teaching_building
f 52 51 50 49 48 47 46 45 44 43 42 41 40 39
f 39 40 54 53
f 40 41 55 54
f 41 42 56 55
f 42 43 57 56
f 43 44 58 57
f 44 45 59 58
f 45 46 60 59
f 46 47 61 60
f 47 48 62 61
f 48 49 63 62
f 49 50 64 63
f 50 51 65 64
f 51 52 66 65
f 52 39 53 66
