# school_id SD0987
# school_name 曹县三桐中学
# boundary_source footprint_convex_hull_buffer_20m
# adjacent_block_merge_distance_m 2.0
mtllib ../campus_materials.mtl
o SD0987_campus_boundary
usemtl campus_boundary
v -1.647 -80.393 0.050
v -73.408 -74.025 0.050
v -70.004 -36.162 0.050
v -56.747 91.899 0.050
v 11.152 85.281 0.050
v 77.715 63.586 0.050
v 72.809 -20.752 0.050
v 70.924 -39.169 0.050
v 53.783 -54.485 0.050
v -1.647 -80.393 0.050
l 1 2 3 4 5 6 7 8 9 10 1
o SD0987_T001_1hao
v 7.034 65.588 0.000
v -38.900 70.065 0.000
v -40.216 56.756 0.000
v 5.718 52.279 0.000
v 7.034 65.588 9.740
v -38.900 70.065 9.740
v -40.216 56.756 9.740
v 5.718 52.279 9.740
usemtl roof
f 15 16 17 18
usemtl teaching_building
f 14 13 12 11
f 11 12 16 15
f 12 13 17 16
f 13 14 18 17
f 14 11 15 18
o SD0987_T002_2hao
v 8.917 19.626 0.000
v 54.157 16.011 0.000
v 56.853 49.350 0.000
v 11.613 52.964 0.000
v 8.917 19.626 7.770
v 54.157 16.011 7.770
v 56.853 49.350 7.770
v 11.613 52.964 7.770
usemtl roof
f 23 24 25 26
usemtl teaching_building
f 22 21 20 19
f 19 20 24 23
f 20 21 25 24
f 21 22 26 25
f 22 19 23 26
o SD0987_T003_3hao
v 4.018 31.188 0.000
v 2.190 15.525 0.000
v -43.396 20.775 0.000
v -41.559 36.450 0.000
v 4.018 31.188 9.740
v 2.190 15.525 9.740
v -43.396 20.775 9.740
v -41.559 36.450 9.740
usemtl roof
f 31 32 33 34
usemtl teaching_building
f 30 29 28 27
f 27 28 32 31
f 28 29 33 32
f 29 30 34 33
f 30 27 31 34
o SD0987_T004_4hao
v -46.449 -23.706 0.000
v 0.527 -28.006 0.000
v 1.907 -13.127 0.000
v -45.069 -8.827 0.000
v -46.449 -23.706 12.910
v 0.527 -28.006 12.910
v 1.907 -13.127 12.910
v -45.069 -8.827 12.910
usemtl roof
f 39 40 41 42
usemtl teaching_building
f 38 37 36 35
f 35 36 40 39
f 36 37 41 40
f 37 38 42 41
f 38 35 39 42
o SD0987_T005_5hao
v 7.610 -24.944 0.000
v 51.817 -29.421 0.000
v 52.868 -19.152 0.000
v 8.670 -14.675 0.000
v 7.610 -24.944 10.660
v 51.817 -29.421 10.660
v 52.868 -19.152 10.660
v 8.670 -14.675 10.660
usemtl roof
f 47 48 49 50
usemtl teaching_building
f 46 45 44 43
f 43 44 48 47
f 44 45 49 48
f 45 46 50 49
f 46 43 47 50
o SD0987_T006_6hao
v 43.391 -31.068 0.000
v 42.650 -37.612 0.000
v 2.794 -33.201 0.000
v 3.525 -26.669 0.000
v 43.391 -31.068 10.750
v 42.650 -37.612 10.750
v 2.794 -33.201 10.750
v 3.525 -26.669 10.750
usemtl roof
f 55 56 57 58
usemtl teaching_building
f 54 53 52 51
f 51 52 56 55
f 52 53 57 56
f 53 54 58 57
f 54 51 55 58
o SD0987_T007_7hao
v -50.096 -38.087 0.000
v -51.695 -55.873 0.000
v -5.240 -59.996 0.000
v -3.640 -42.210 0.000
v -50.096 -38.087 9.640
v -51.695 -55.873 9.640
v -5.240 -59.996 9.640
v -3.640 -42.210 9.640
usemtl roof
f 63 64 65 66
usemtl teaching_building
f 62 61 60 59
f 59 60 64 63
f 60 61 65 64
f 61 62 66 65
f 62 59 63 66
