# school_id SD0941
# school_name 聊城第一中学新校区
# boundary_source footprint_convex_hull_buffer_20m
# adjacent_block_merge_distance_m 2.0
mtllib ../campus_materials.mtl
o SD0941_campus_boundary
usemtl campus_boundary
v 227.631 -215.278 0.050
v -206.868 -208.802 0.050
v -351.691 -20.759 0.050
v -352.040 37.663 0.050
v -334.073 85.651 0.050
v -316.058 132.205 0.050
v -272.384 190.675 0.050
v 95.791 195.427 0.050
v 302.887 192.701 0.050
v 303.286 155.211 0.050
v 302.129 -44.942 0.050
v 301.723 -114.945 0.050
v 271.991 -192.663 0.050
v 263.788 -201.807 0.050
v 253.347 -209.526 0.050
v 241.692 -213.601 0.050
v 227.631 -215.278 0.050
l 1 2 3 4 5 6 7 8 9 10 11 12 13 14 15 16 17 1
o SD0941_T001_1hao
v 173.795 174.297 0.000
v 173.508 154.931 0.000
v 95.501 156.069 0.000
v 95.788 175.425 0.000
v 173.795 174.297 9.900
v 173.508 154.931 9.900
v 95.501 156.069 9.900
v 95.788 175.425 9.900
usemtl roof
f 22 23 24 25
usemtl teaching_building
f 21 20 19 18
f 18 19 23 22
f 19 20 24 23
f 20 21 25 24
f 21 18 22 25
o SD0941_T002_2hao
v 210.205 154.411 0.000
v 283.285 155.163 0.000
v 283.096 172.960 0.000
v 210.017 172.197 0.000
v 210.205 154.411 12.550
v 283.285 155.163 12.550
v 283.096 172.960 12.550
v 210.017 172.197 12.550
usemtl roof
f 30 31 32 33
usemtl teaching_building
f 29 28 27 26
f 26 27 31 30
f 27 28 32 31
f 28 29 33 32
f 29 26 30 33
o SD0941_T003_3hao
v -188.807 170.992 0.000
v -188.771 157.959 0.000
v -195.706 157.937 0.000
v -195.697 152.167 0.000
v -262.218 152.012 0.000
v -262.263 170.804 0.000
v -188.807 170.992 14.150
v -188.771 157.959 14.150
v -195.706 157.937 14.150
v -195.697 152.167 14.150
v -262.218 152.012 14.150
v -262.263 170.804 14.150
usemtl roof
f 40 41 42 43 44 45
usemtl teaching_building
f 39 38 37 36 35 34
f 34 35 41 40
f 35 36 42 41
f 36 37 43 42
f 37 38 44 43
f 38 39 45 44
f 39 34 40 45
o SD0941_T004_4hao
v -178.997 170.417 0.000
v -178.961 157.374 0.000
v -172.027 157.396 0.000
v -172.009 151.625 0.000
v -105.487 151.813 0.000
v -105.541 170.605 0.000
v -178.997 170.417 11.610
v -178.961 157.374 11.610
v -172.027 157.396 11.610
v -172.009 151.625 11.610
v -105.487 151.813 11.610
v -105.541 170.605 11.610
usemtl roof
f 52 53 54 55 56 57
usemtl teaching_building
f 51 50 49 48 47 46
f 46 47 53 52
f 47 48 54 53
f 48 49 55 54
f 49 50 56 55
f 50 51 57 56
f 51 46 52 57
o SD0941_T005_5hao
v 64.431 161.839 0.000
v 64.395 145.888 0.000
v 72.933 145.877 0.000
v 72.871 119.768 0.000
v 63.553 119.790 0.000
v 63.517 104.635 0.000
v -83.475 105.033 0.000
v -83.430 120.807 0.000
v -92.882 120.829 0.000
v -92.819 145.225 0.000
v -82.597 145.203 0.000
v -82.561 162.171 0.000
v 64.431 161.839 11.590
v 64.395 145.888 11.590
v 72.933 145.877 11.590
v 72.871 119.768 11.590
v 63.553 119.790 11.590
v 63.517 104.635 11.590
v -83.475 105.033 11.590
v -83.430 120.807 11.590
v -92.882 120.829 11.590
v -92.819 145.225 11.590
v -82.597 145.203 11.590
v -82.561 162.171 11.590
usemtl roof
f 70 71 72 73 74 75 76 77 78 79 80 81
usemtl teaching_building
f 69 68 67 66 65 64 63 62 61 60 59 58
f 58 59 71 70
f 59 60 72 71
f 60 61 73 72
f 61 62 74 73
f 62 63 75 74
f 63 64 76 75
f 64 65 77 76
f 65 66 78 77
f 66 67 79 78
f 67 68 80 79
f 68 69 81 80
f 69 58 70 81
o SD0941_T006_6hao
v -180.878 114.329 0.000
v -180.842 101.297 0.000
v -173.908 101.308 0.000
v -173.899 95.548 0.000
v -107.369 95.725 0.000
v -107.422 114.517 0.000
v -180.878 114.329 11.840
v -180.842 101.297 11.840
v -173.908 101.308 11.840
v -173.899 95.548 11.840
v -107.369 95.725 11.840
v -107.422 114.517 11.840
usemtl roof
f 88 89 90 91 92 93
usemtl teaching_building
f 87 86 85 84 83 82
f 82 83 89 88
f 83 84 90 89
f 84 85 91 90
f 85 86 92 91
f 86 87 93 92
f 87 82 88 93
o SD0941_T007_7hao
v -190.008 114.440 0.000
v -189.972 101.407 0.000
v -196.906 101.385 0.000
v -196.897 95.626 0.000
v -263.419 95.460 0.000
v -263.463 114.252 0.000
v -190.008 114.440 12.420
v -189.972 101.407 12.420
v -196.906 101.385 12.420
v -196.897 95.626 12.420
v -263.419 95.460 12.420
v -263.463 114.252 12.420
usemtl roof
f 100 101 102 103 104 105
usemtl teaching_building
f 99 98 97 96 95 94
f 94 95 101 100
f 95 96 102 101
f 96 97 103 102
f 97 98 104 103
f 98 99 105 104
f 99 94 100 105
o SD0941_T008_8hao
v 175.901 122.874 0.000
v 175.641 85.091 0.000
v 97.804 85.622 0.000
v 98.064 123.405 0.000
v 175.901 122.874 9.340
v 175.641 85.091 9.340
v 97.804 85.622 9.340
v 98.064 123.405 9.340
usemtl roof
f 110 111 112 113
usemtl teaching_building
f 109 108 107 106
f 106 107 111 110
f 107 108 112 111
f 108 109 113 112
f 109 106 110 113
o SD0941_T009_9hao
v 281.824 129.495 0.000
v 281.546 65.902 0.000
v 201.640 66.244 0.000
v 201.927 129.849 0.000
v 281.824 129.495 7.570
v 281.546 65.902 7.570
v 201.640 66.244 7.570
v 201.927 129.849 7.570
usemtl roof
f 118 119 120 121
usemtl teaching_building
f 117 116 115 114
f 114 115 119 118
f 115 116 120 119
f 116 117 121 120
f 117 114 118 121
o SD0941_T010_10hao
v -298.574 104.171 0.000
v -298.395 122.432 0.000
v -280.369 122.266 0.000
v -280.548 103.651 0.000
v -273.327 103.574 0.000
v -273.560 79.310 0.000
v -256.565 79.155 0.000
v -256.619 73.319 0.000
v -252.659 73.286 0.000
v -252.856 51.355 0.000
v -274.187 51.543 0.000
v -274.152 56.108 0.000
v -298.287 56.329 0.000
v -298.314 53.455 0.000
v -315.614 53.621 0.000
v -315.381 78.536 0.000
v -310.051 78.481 0.000
v -309.925 91.381 0.000
v -304.415 91.326 0.000
v -304.290 104.226 0.000
v -298.574 104.171 10.650
v -298.395 122.432 10.650
v -280.369 122.266 10.650
v -280.548 103.651 10.650
v -273.327 103.574 10.650
v -273.560 79.310 10.650
v -256.565 79.155 10.650
v -256.619 73.319 10.650
v -252.659 73.286 10.650
v -252.856 51.355 10.650
v -274.187 51.543 10.650
v -274.152 56.108 10.650
v -298.287 56.329 10.650
v -298.314 53.455 10.650
v -315.614 53.621 10.650
v -315.381 78.536 10.650
v -310.051 78.481 10.650
v -309.925 91.381 10.650
v -304.415 91.326 10.650
v -304.290 104.226 10.650
usemtl roof
f 142 143 144 145 146 147 148 149 150 151 152 153 154 155 156 157 158 159 160 161
usemtl teaching_building
f 141 140 139 138 137 136 135 134 133 132 131 130 129 128 127 126 125 124 123 122
f 122 123 143 142
f 123 124 144 143
f 124 125 145 144
f 125 126 146 145
f 126 127 147 146
f 127 128 148 147
f 128 129 149 148
f 129 130 150 149
f 130 131 151 150
f 131 132 152 151
f 132 133 153 152
f 133 134 154 153
f 134 135 155 154
f 135 136 156 155
f 136 137 157 156
f 137 138 158 157
f 138 139 159 158
f 139 140 160 159
f 140 141 161 160
f 141 122 142 161
o SD0941_T011_11hao
v -246.092 34.619 0.000
v -245.805 -13.400 0.000
v -331.732 -13.897 0.000
v -332.018 34.099 0.000
v -246.092 34.619 8.020
v -245.805 -13.400 8.020
v -331.732 -13.897 8.020
v -332.018 34.099 8.020
usemtl roof
f 166 167 168 169
usemtl teaching_building
f 165 164 163 162
f 162 163 167 166
f 163 164 168 167
f 164 165 169 168
f 165 162 166 169
o SD0941_T012_12hao
v 244.859 39.361 0.000
v 269.335 39.361 0.000
v 269.335 30.639 0.000
v 278.124 30.429 0.000
v 278.330 -11.112 0.000
v 269.756 -10.493 0.000
v 269.756 -19.004 0.000
v 246.749 -19.214 0.000
v 199.472 -14.229 0.000
v 200.099 34.177 0.000
v 244.859 39.361 8.450
v 269.335 39.361 8.450
v 269.335 30.639 8.450
v 278.124 30.429 8.450
v 278.330 -11.112 8.450
v 269.756 -10.493 8.450
v 269.756 -19.004 8.450
v 246.749 -19.214 8.450
v 199.472 -14.229 8.450
v 200.099 34.177 8.450
usemtl roof
f 180 181 182 183 184 185 186 187 188 189
usemtl teaching_building
f 179 178 177 176 175 174 173 172 171 170
f 170 171 181 180
f 171 172 182 181
f 172 173 183 182
f 173 174 184 183
f 174 175 185 184
f 175 176 186 185
f 176 177 187 186
f 177 178 188 187
f 178 179 189 188
f 179 170 180 189
o SD0941_T013_13hao
v 99.515 34.575 0.000
v 99.040 29.556 0.000
v 97.598 27.412 0.000
v 93.754 26.461 0.000
v 93.710 23.388 0.000
v 74.179 23.675 0.000
v 74.107 18.977 0.000
v 65.426 19.099 0.000
v 65.497 23.952 0.000
v 49.658 24.173 0.000
v 49.255 -3.639 0.000
v 94.274 -4.280 0.000
v 94.229 -7.431 0.000
v 100.241 -11.001 0.000
v 100.958 -20.784 0.000
v 99.040 -25.327 0.000
v 37.330 -24.056 0.000
v 38.728 43.164 0.000
v 97.114 41.970 0.000
v 99.515 34.575 7.420
v 99.040 29.556 7.420
v 97.598 27.412 7.420
v 93.754 26.461 7.420
v 93.710 23.388 7.420
v 74.179 23.675 7.420
v 74.107 18.977 7.420
v 65.426 19.099 7.420
v 65.497 23.952 7.420
v 49.658 24.173 7.420
v 49.255 -3.639 7.420
v 94.274 -4.280 7.420
v 94.229 -7.431 7.420
v 100.241 -11.001 7.420
v 100.958 -20.784 7.420
v 99.040 -25.327 7.420
v 37.330 -24.056 7.420
v 38.728 43.164 7.420
v 97.114 41.970 7.420
usemtl roof
f 209 210 211 212 213 214 215 216 217 218 219 220 221 222 223 224 225 226 227
usemtl teaching_building
f 208 207 206 205 204 203 202 201 200 199 198 197 196 195 194 193 192 191 190
f 190 191 210 209
f 191 192 211 210
f 192 193 212 211
f 193 194 213 212
f 194 195 214 213
f 195 196 215 214
f 196 197 216 215
f 197 198 217 216
f 198 199 218 217
f 199 200 219 218
f 200 201 220 219
f 201 202 221 220
f 202 203 222 221
f 203 204 223 222
f 204 205 224 223
f 205 206 225 224
f 206 207 226 225
f 207 208 227 226
f 208 190 209 227
o SD0941_T014_14hao
v -135.178 23.322 0.000
v -67.725 23.620 0.000
v -67.608 -2.622 0.000
v -118.845 -2.843 0.000
v -140.186 -18.418 0.000
v -143.528 -29.229 0.000
v -117.188 -65.464 0.000
v -96.878 -50.906 0.000
v -114.178 -27.096 0.000
v -110.477 -24.443 0.000
v -56.347 -24.199 0.000
v -56.669 45.817 0.000
v -135.276 45.463 0.000
v -135.178 23.322 11.950
v -67.725 23.620 11.950
v -67.608 -2.622 11.950
v -118.845 -2.843 11.950
v -140.186 -18.418 11.950
v -143.528 -29.229 11.950
v -117.188 -65.464 11.950
v -96.878 -50.906 11.950
v -114.178 -27.096 11.950
v -110.477 -24.443 11.950
v -56.347 -24.199 11.950
v -56.669 45.817 11.950
v -135.276 45.463 11.950
usemtl roof
f 241 242 243 244 245 246 247 248 249 250 251 252 253
usemtl teaching_building
f 240 239 238 237 236 235 234 233 232 231 230 229 228
f 228 229 242 241
f 229 230 243 242
f 230 231 244 243
f 231 232 245 244
f 232 233 246 245
f 233 234 247 246
f 234 235 248 247
f 235 236 249 248
f 236 237 250 249
f 237 238 251 250
f 238 239 252 251
f 239 240 253 252
f 240 228 241 253
o SD0941_T015_15hao
v 282.129 -44.826 0.000
v 281.744 -111.194 0.000
v 200.054 -110.741 0.000
v 200.431 -44.362 0.000
v 282.129 -44.826 9.840
v 281.744 -111.194 9.840
v 200.054 -110.741 9.840
v 200.431 -44.362 9.840
usemtl roof
f 258 259 260 261
usemtl teaching_building
f 257 256 255 254
f 254 255 259 258
f 255 256 260 259
f 256 257 261 260
f 257 254 258 261
o SD0941_T016_16hao
v 25.495 -50.773 0.000
v 24.931 -120.049 0.000
v -45.363 -119.463 0.000
v -44.789 -50.198 0.000
v 25.495 -50.773 10.670
v 24.931 -120.049 10.670
v -45.363 -119.463 10.670
v -44.789 -50.198 10.670
usemtl roof
f 266 267 268 269
usemtl teaching_building
f 265 264 263 262
f 262 263 267 266
f 263 264 268 267
f 264 265 269 268
f 265 262 266 269
o SD0941_T017_17hao
v -138.824 -123.896 0.000
v -138.717 -106.143 0.000
v -75.358 -106.530 0.000
v -75.340 -103.855 0.000
v -65.261 -103.910 0.000
v -65.646 -164.784 0.000
v -109.026 -164.508 0.000
v -109.178 -189.490 0.000
v -196.915 -188.948 0.000
v -196.503 -123.542 0.000
v -138.824 -123.896 10.300
v -138.717 -106.143 10.300
v -75.358 -106.530 10.300
v -75.340 -103.855 10.300
v -65.261 -103.910 10.300
v -65.646 -164.784 10.300
v -109.026 -164.508 10.300
v -109.178 -189.490 10.300
v -196.915 -188.948 10.300
v -196.503 -123.542 10.300
usemtl roof
f 280 281 282 283 284 285 286 287 288 289
usemtl teaching_building
f 279 278 277 276 275 274 273 272 271 270
f 270 271 281 280
f 271 272 282 281
f 272 273 283 282
f 273 274 284 283
f 274 275 285 284
f 275 276 286 285
f 276 277 287 286
f 277 278 288 287
f 278 279 289 288
f 279 270 280 289
o SD0941_T018_18hao
v 120.399 -123.995 0.000
v 120.506 -106.242 0.000
v 57.148 -105.844 0.000
v 57.165 -103.158 0.000
v 47.086 -103.103 0.000
v 46.710 -163.966 0.000
v 90.081 -164.232 0.000
v 89.929 -189.214 0.000
v 177.666 -189.766 0.000
v 178.078 -124.360 0.000
v 120.399 -123.995 11.280
v 120.506 -106.242 11.280
v 57.148 -105.844 11.280
v 57.165 -103.158 11.280
v 47.086 -103.103 11.280
v 46.710 -163.966 11.280
v 90.081 -164.232 11.280
v 89.929 -189.214 11.280
v 177.666 -189.766 11.280
v 178.078 -124.360 11.280
usemtl roof
f 300 301 302 303 304 305 306 307 308 309
usemtl teaching_building
f 299 298 297 296 295 294 293 292 291 290
f 290 291 301 300
f 291 292 302 301
f 292 293 303 302
f 293 294 304 303
f 294 295 305 304
f 295 296 306 305
f 296 297 307 306
f 297 298 308 307
f 298 299 309 308
f 299 290 300 309
o SD0941_T019_19hao
v 249.356 -129.610 0.000
v 249.356 -145.705 0.000
v 256.461 -146.247 0.000
v 260.098 -155.112 0.000
v 259.005 -170.300 0.000
v 254.633 -182.062 0.000
v 250.261 -186.936 0.000
v 243.891 -191.645 0.000
v 237.154 -194.000 0.000
v 226.591 -195.260 0.000
v 211.656 -188.926 0.000
v 205.098 -182.062 0.000
v 201.640 -176.269 0.000
v 198.908 -169.217 0.000
v 198.361 -160.904 0.000
v 200.368 -151.497 0.000
v 204.552 -144.987 0.000
v 212.749 -144.810 0.000
v 212.929 -129.257 0.000
v 249.356 -129.610 11.450
v 249.356 -145.705 11.450
v 256.461 -146.247 11.450
v 260.098 -155.112 11.450
v 259.005 -170.300 11.450
v 254.633 -182.062 11.450
v 250.261 -186.936 11.450
v 243.891 -191.645 11.450
v 237.154 -194.000 11.450
v 226.591 -195.260 11.450
v 211.656 -188.926 11.450
v 205.098 -182.062 11.450
v 201.640 -176.269 11.450
v 198.908 -169.217 11.450
v 198.361 -160.904 11.450
v 200.368 -151.497 11.450
v 204.552 -144.987 11.450
v 212.749 -144.810 11.450
v 212.929 -129.257 11.450
usemtl roof
f 329 330 331 332 333 334 335 336 337 338 339 340 341 342 343 344 345 346 347
usemtl teaching_building
f 328 327 326 325 324 323 322 321 320 319 318 317 316 315 314 313 312 311 310
f 310 311 330 329
f 311 312 331 330
f 312 313 332 331
f 313 314 333 332
f 314 315 334 333
f 315 316 335 334
f 316 317 336 335
f 317 318 337 336
f 318 319 338 337
f 319 320 339 338
f 320 321 340 339
f 321 322 341 340
f 322 323 342 341
f 323 324 343 342
f 324 325 344 343
f 325 326 345 344
f 326 327 346 345
f 327 328 347 346
f 328 310 329 347
