# school_id SD0988
# school_name 曹县四方中学
# boundary_source footprint_convex_hull_buffer_20m
# adjacent_block_merge_distance_m 2.0
mtllib ../campus_materials.mtl
o SD0988_campus_boundary
usemtl campus_boundary
v -2.171 -86.891 0.050
v -18.171 -86.879 0.050
v -85.726 -83.483 0.050
v -86.936 -10.971 0.050
v -86.907 22.510 0.050
v -64.608 141.691 0.050
v -22.150 141.691 0.050
v 87.098 135.444 0.050
v 137.304 17.155 0.050
v 137.304 -7.492 0.050
v 122.244 -69.199 0.050
v -2.171 -86.891 0.050
l 1 2 3 4 5 6 7 8 9 10 11 12 1
o SD0988_T001_1hao
v -22.721 121.691 0.000
v -22.721 114.628 0.000
v 62.339 114.628 0.000
v 62.339 116.186 0.000
v 73.545 116.186 0.000
v 73.545 104.602 0.000
v -48.003 104.602 0.000
v -48.003 121.691 0.000
v -22.721 121.691 19.590
v -22.721 114.628 19.590
v 62.339 114.628 19.590
v 62.339 116.186 19.590
v 73.545 116.186 19.590
v 73.545 104.602 19.590
v -48.003 104.602 19.590
v -48.003 121.691 19.590
usemtl roof
f 21 22 23 24 25 26 27 28
usemtl teaching_building
f 20 19 18 17 16 15 14 13
f 13 14 22 21
f 14 15 23 22
f 15 16 24 23
f 16 17 25 24
f 17 18 26 25
f 18 19 27 26
f 19 20 28 27
f 20 13 21 28
o SD0988_T002_2hao
v -45.592 16.104 0.000
v -37.801 16.093 0.000
v -37.801 21.244 0.000
v 0.414 21.222 0.000
v 0.414 16.745 0.000
v 1.839 16.745 0.000
v 1.839 12.445 0.000
v 7.839 12.434 0.000
v 7.839 18.812 0.000
v 15.813 18.812 0.000
v 15.795 -7.386 0.000
v 6.880 -7.386 0.000
v 6.889 4.110 0.000
v 1.071 4.121 0.000
v 1.062 -11.056 0.000
v -4.464 -11.056 0.000
v -4.464 -13.245 0.000
v -18.547 -13.234 0.000
v -18.547 -10.647 0.000
v -37.682 -10.636 0.000
v -37.682 -6.988 0.000
v -45.765 -6.977 0.000
v -45.765 -10.824 0.000
v -66.936 -10.813 0.000
v -66.909 20.647 0.000
v -45.582 20.625 0.000
v -45.592 16.104 6.510
v -37.801 16.093 6.510
v -37.801 21.244 6.510
v 0.414 21.222 6.510
v 0.414 16.745 6.510
v 1.839 16.745 6.510
v 1.839 12.445 6.510
v 7.839 12.434 6.510
v 7.839 18.812 6.510
v 15.813 18.812 6.510
v 15.795 -7.386 6.510
v 6.880 -7.386 6.510
v 6.889 4.110 6.510
v 1.071 4.121 6.510
v 1.062 -11.056 6.510
v -4.464 -11.056 6.510
v -4.464 -13.245 6.510
v -18.547 -13.234 6.510
v -18.547 -10.647 6.510
v -37.682 -10.636 6.510
v -37.682 -6.988 6.510
v -45.765 -6.977 6.510
v -45.765 -10.824 6.510
v -66.936 -10.813 6.510
v -66.909 20.647 6.510
v -45.582 20.625 6.510
usemtl roof
f 55 56 57 58 59 60 61 62 63 64 65 66 67 68 69 70 71 72 73 74 75 76 77 78 79 80
usemtl teaching_building
f 54 53 52 51 50 49 48 47 46 45 44 43 42 41 40 39 38 37 36 35 34 33 32 31 30 29
f 29 30 56 55
f 30 31 57 56
f 31 32 58 57
f 32 33 59 58
f 33 34 60 59
f 34 35 61 60
f 35 36 62 61
f 36 37 63 62
f 37 38 64 63
f 38 39 65 64
f 39 40 66 65
f 40 41 67 66
f 41 42 68 67
f 42 43 69 68
f 43 44 70 69
f 44 45 71 70
f 45 46 72 71
f 46 47 73 72
f 47 48 74 73
f 48 49 75 74
f 49 50 76 75
f 50 51 77 76
f 51 52 78 77
f 52 53 79 78
f 53 54 80 79
f 54 29 55 80
o SD0988_T003_3hao
v 117.304 13.086 0.000
v 117.304 -5.087 0.000
v 30.773 -5.087 0.000
v 30.773 13.086 0.000
v 117.304 13.086 10.050
v 117.304 -5.087 10.050
v 30.773 -5.087 10.050
v 30.773 13.086 10.050
usemtl roof
f 85 86 87 88
usemtl teaching_building
f 84 83 82 81
f 81 82 86 85
f 82 83 87 86
f 83 84 88 87
f 84 81 85 88
o SD0988_T004_4hao
v 105.997 -34.192 0.000
v 106.024 -51.304 0.000
v 31.148 -51.403 0.000
v 31.120 -34.281 0.000
v 105.997 -34.192 6.530
v 106.024 -51.304 6.530
v 31.148 -51.403 6.530
v 31.120 -34.281 6.530
usemtl roof
f 93 94 95 96
usemtl teaching_building
f 92 91 90 89
f 89 90 94 93
f 90 91 95 94
f 91 92 96 95
f 92 89 93 96
o SD0988_T005_5hao
v -44.696 -37.542 0.000
v -36.915 -37.542 0.000
v -36.906 -32.390 0.000
v 1.300 -32.424 0.000
v 1.300 -36.889 0.000
v 2.734 -36.889 0.000
v 2.725 -41.200 0.000
v 8.725 -41.200 0.000
v 8.734 -34.822 0.000
v 16.708 -34.833 0.000
v 16.680 -61.031 0.000
v 7.775 -61.020 0.000
v 7.784 -49.524 0.000
v 1.957 -49.524 0.000
v 1.948 -64.701 0.000
v -3.568 -64.690 0.000
v -3.578 -66.890 0.000
v -17.661 -66.879 0.000
v -17.652 -64.292 0.000
v -36.796 -64.270 0.000
v -36.787 -60.622 0.000
v -44.870 -60.622 0.000
v -44.879 -64.469 0.000
v -66.041 -64.447 0.000
v -66.014 -32.998 0.000
v -44.696 -33.020 0.000
v -44.696 -37.542 7.540
v -36.915 -37.542 7.540
v -36.906 -32.390 7.540
v 1.300 -32.424 7.540
v 1.300 -36.889 7.540
v 2.734 -36.889 7.540
v 2.725 -41.200 7.540
v 8.725 -41.200 7.540
v 8.734 -34.822 7.540
v 16.708 -34.833 7.540
v 16.680 -61.031 7.540
v 7.775 -61.020 7.540
v 7.784 -49.524 7.540
v 1.957 -49.524 7.540
v 1.948 -64.701 7.540
v -3.568 -64.690 7.540
v -3.578 -66.890 7.540
v -17.661 -66.879 7.540
v -17.652 -64.292 7.540
v -36.796 -64.270 7.540
v -36.787 -60.622 7.540
v -44.870 -60.622 7.540
v -44.879 -64.469 7.540
v -66.041 -64.447 7.540
v -66.014 -32.998 7.540
v -44.696 -33.020 7.540
usemtl roof
f 123 124 125 126 127 128 129 130 131 132 133 134 135 136 137 138 139 140 141 142 143 144 145 146 147 148
usemtl teaching_building
f 122 121 120 119 118 117 116 115 114 113 112 111 110 109 108 107 106 105 104 103 102 101 100 99 98 97
f 97 98 124 123
f 98 99 125 124
f 99 100 126 125
f 100 101 127 126
f 101 102 128 127
f 102 103 129 128
f 103 104 130 129
f 104 105 131 130
f 105 106 132 131
f 106 107 133 132
f 107 108 134 133
f 108 109 135 134
f 109 110 136 135
f 110 111 137 136
f 111 112 138 137
f 112 113 139 138
f 113 114 140 139
f 114 115 141 140
f 115 116 142 141
f 116 117 143 142
f 117 118 144 143
f 118 119 145 144
f 119 120 146 145
f 120 121 147 146
f 121 122 148 147
f 122 97 123 148
