# school_id SD0900
# school_name 沂水县第六实验小学
# boundary_source footprint_convex_hull_buffer_20m
# adjacent_block_merge_distance_m 2.0
mtllib ../campus_materials.mtl
o SD0900_campus_boundary
usemtl campus_boundary
v 53.519 -103.009 0.050
v -34.866 -88.765 0.050
v -67.623 -82.998 0.050
v -118.755 -38.372 0.050
v -103.954 8.496 0.050
v -58.284 96.686 0.050
v -17.871 90.476 0.050
v -9.799 88.599 0.050
v 56.314 44.195 0.050
v 72.863 -1.028 0.050
v 71.176 -22.356 0.050
v 69.590 -31.149 0.050
v 62.911 -67.082 0.050
v 53.519 -103.009 0.050
l 1 2 3 4 5 6 7 8 9 10 11 12 13 14 1
o SD0900_T001_1hao
v -52.194 45.311 0.000
v -37.528 42.912 0.000
v -34.521 61.019 0.000
v -49.178 63.417 0.000
v -47.128 74.737 0.000
v -21.661 70.824 0.000
v -17.904 69.950 0.000
v -15.683 67.596 0.000
v -14.771 64.534 0.000
v -15.186 60.963 0.000
v -16.586 58.189 0.000
v -18.943 56.055 0.000
v -27.929 56.420 0.000
v -28.931 49.998 0.000
v -26.457 48.506 0.000
v -25.752 45.565 0.000
v -26.393 43.774 0.000
v -29.346 42.304 0.000
v -30.855 31.085 0.000
v -54.118 34.268 0.000
v -52.194 45.311 10.440
v -37.528 42.912 10.440
v -34.521 61.019 10.440
v -49.178 63.417 10.440
v -47.128 74.737 10.440
v -21.661 70.824 10.440
v -17.904 69.950 10.440
v -15.683 67.596 10.440
v -14.771 64.534 10.440
v -15.186 60.963 10.440
v -16.586 58.189 10.440
v -18.943 56.055 10.440
v -27.929 56.420 10.440
v -28.931 49.998 10.440
v -26.457 48.506 10.440
v -25.752 45.565 10.440
v -26.393 43.774 10.440
v -29.346 42.304 10.440
v -30.855 31.085 10.440
v -54.118 34.268 10.440
usemtl roof
f 35 36 37 38 39 40 41 42 43 44 45 46 47 48 49 50 51 52 53 54
usemtl teaching_building
f 34 33 32 31 30 29 28 27 26 25 24 23 22 21 20 19 18 17 16 15
f 15 16 36 35
f 16 17 37 36
f 17 18 38 37
f 18 19 39 38
f 19 20 40 39
f 20 21 41 40
f 21 22 42 41
f 22 23 43 42
f 23 24 44 43
f 24 25 45 44
f 25 26 46 45
f 26 27 47 46
f 27 28 48 47
f 28 29 49 48
f 29 30 50 49
f 30 31 51 50
f 31 32 52 51
f 32 33 53 52
f 33 34 54 53
f 34 15 35 54
o SD0900_T002_2hao
v -26.267 28.443 0.000
v 37.563 17.963 0.000
v 39.766 31.217 0.000
v 19.501 34.544 0.000
v 20.576 41.022 0.000
v 13.035 42.260 0.000
v 11.952 35.749 0.000
v 2.063 37.374 0.000
v 3.137 43.808 0.000
v -4.819 45.112 0.000
v -5.866 38.800 0.000
v -24.045 41.785 0.000
v -26.267 28.443 7.650
v 37.563 17.963 7.650
v 39.766 31.217 7.650
v 19.501 34.544 7.650
v 20.576 41.022 7.650
v 13.035 42.260 7.650
v 11.952 35.749 7.650
v 2.063 37.374 7.650
v 3.137 43.808 7.650
v -4.819 45.112 7.650
v -5.866 38.800 7.650
v -24.045 41.785 7.650
usemtl roof
f 67 68 69 70 71 72 73 74 75 76 77 78
usemtl teaching_building
f 66 65 64 63 62 61 60 59 58 57 56 55
f 55 56 68 67
f 56 57 69 68
f 57 58 70 69
f 58 59 71 70
f 59 60 72 71
f 60 61 73 72
f 61 62 74 73
f 62 63 75 74
f 63 64 76 75
f 64 65 77 76
f 65 66 78 77
f 66 55 67 78
o SD0900_T003_3hao
v -85.401 0.830 0.000
v -75.539 -2.188 0.000
v -79.675 -15.508 0.000
v -83.604 -14.303 0.000
v -89.654 -33.780 0.000
v -95.741 -31.912 0.000
v -85.401 0.830 8.160
v -75.539 -2.188 8.160
v -79.675 -15.508 8.160
v -83.604 -14.303 8.160
v -89.654 -33.780 8.160
v -95.741 -31.912 8.160
usemtl roof
f 85 86 87 88 89 90
usemtl teaching_building
f 84 83 82 81 80 79
f 79 80 86 85
f 80 81 87 86
f 81 82 88 87
f 82 83 89 88
f 83 84 90 89
f 84 79 85 90
o SD0900_T004_4hao
v -15.141 -55.999 0.000
v 34.050 -65.008 0.000
v 34.926 -60.277 0.000
v 32.488 -59.835 0.000
v 34.005 -51.577 0.000
v 36.001 -51.942 0.000
v 37.265 -45.022 0.000
v -13.037 -36.002 0.000
v -10.454 -21.787 0.000
v 40.173 -30.851 0.000
v 40.832 -27.192 0.000
v 39.477 -26.949 0.000
v 41.103 -17.885 0.000
v 42.900 -18.194 0.000
v 44.580 -8.743 0.000
v -4.900 -0.077 0.000
v -3.013 10.568 0.000
v 49.782 1.316 0.000
v 48.987 -3.161 0.000
v 52.581 -3.802 0.000
v 51.073 -12.269 0.000
v 47.569 -11.650 0.000
v 46.269 -18.891 0.000
v 51.317 -19.786 0.000
v 49.917 -27.546 0.000
v 44.318 -26.551 0.000
v 42.286 -37.771 0.000
v 46.133 -38.456 0.000
v 44.869 -45.398 0.000
v 41.952 -44.879 0.000
v 40.913 -50.582 0.000
v 45.456 -51.400 0.000
v 43.379 -62.720 0.000
v 38.385 -61.813 0.000
v 36.687 -71.032 0.000
v 40.372 -71.707 0.000
v 38.764 -80.373 0.000
v -17.751 -70.026 0.000
v -15.141 -55.999 8.160
v 34.050 -65.008 8.160
v 34.926 -60.277 8.160
v 32.488 -59.835 8.160
v 34.005 -51.577 8.160
v 36.001 -51.942 8.160
v 37.265 -45.022 8.160
v -13.037 -36.002 8.160
v -10.454 -21.787 8.160
v 40.173 -30.851 8.160
v 40.832 -27.192 8.160
v 39.477 -26.949 8.160
v 41.103 -17.885 8.160
v 42.900 -18.194 8.160
v 44.580 -8.743 8.160
v -4.900 -0.077 8.160
v -3.013 10.568 8.160
v 49.782 1.316 8.160
v 48.987 -3.161 8.160
v 52.581 -3.802 8.160
v 51.073 -12.269 8.160
v 47.569 -11.650 8.160
v 46.269 -18.891 8.160
v 51.317 -19.786 8.160
v 49.917 -27.546 8.160
v 44.318 -26.551 8.160
v 42.286 -37.771 8.160
v 46.133 -38.456 8.160
v 44.869 -45.398 8.160
v 41.952 -44.879 8.160
v 40.913 -50.582 8.160
v 45.456 -51.400 8.160
v 43.379 -62.720 8.160
v 38.385 -61.813 8.160
v 36.687 -71.032 8.160
v 40.372 -71.707 8.160
v 38.764 -80.373 8.160
v -17.751 -70.026 8.160
usemtl roof
f 129 130 131 132 133 134 135 136 137 138 139 140 141 142 143 144 145 146 147 148 149 150 151 152 153 154 155 156 157 158 159 160 161 162 163 164 165 166
usemtl teaching_building
f 128 127 126 125 124 123 122 121 120 119 118 117 116 115 114 113 112 111 110 109 108 107 106 105 104 103 102 101 100 99 98 97 96 95 94 93 92 91
f 91 92 130 129
f 92 93 131 130
f 93 94 132 131
f 94 95 133 132
f 95 96 134 133
f 96 97 135 134
f 97 98 136 135
f 98 99 137 136
f 99 100 138 137
f 100 101 139 138
f 101 102 140 139
f 102 103 141 140
f 103 104 142 141
f 104 105 143 142
f 105 106 144 143
f 106 107 145 144
f 107 108 146 145
f 108 109 147 146
f 109 110 148 147
f 110 111 149 148
f 111 112 150 149
f 112 113 151 150
f 113 114 152 151
f 114 115 153 152
f 115 116 154 153
f 116 117 155 154
f 117 118 156 155
f 118 119 157 156
f 119 120 158 157
f 120 121 159 158
f 121 122 160 159
f 122 123 161 160
f 123 124 162 161
f 124 125 163 162
f 125 126 164 163
f 126 127 165 164
f 127 128 166 165
f 128 91 129 166
o SD0900_T005_5hao
v -57.053 -55.170 0.000
v -29.915 -59.945 0.000
v -31.541 -69.043 0.000
v -58.669 -64.267 0.000
v -57.053 -55.170 8.160
v -29.915 -59.945 8.160
v -31.541 -69.043 8.160
v -58.669 -64.267 8.160
usemtl roof
f 171 172 173 174
usemtl teaching_building
f 170 169 168 167
f 167 168 172 171
f 168 169 173 172
f 169 170 174 173
f 170 167 171 174
