# school_id SD0914
# school_name 德州市宁津县实验中学
# boundary_source footprint_convex_hull_buffer_20m
# adjacent_block_merge_distance_m 2.0
mtllib ../campus_materials.mtl
o SD0914_campus_boundary
usemtl campus_boundary
v -83.784 -26.103 0.050
v -83.784 26.103 0.050
v 83.784 26.103 0.050
v 83.784 -26.103 0.050
v -83.784 -26.103 0.050
l 1 2 3 4 5 1
o SD0914_T001_1hao
v -63.784 6.103 0.000
v 63.784 6.103 0.000
v 63.784 -6.103 0.000
v -63.784 -6.103 0.000
v -63.784 6.103 17.480
v 63.784 6.103 17.480
v 63.784 -6.103 17.480
v -63.784 -6.103 17.480
usemtl roof
f 10 11 12 13
usemtl teaching_building
f 9 8 7 6
f 6 7 11 10
f 7 8 12 11
f 8 9 13 12
f 9 6 10 13
