# school_id SD0966
# school_name 单县湖西学校
# boundary_source footprint_convex_hull_buffer_20m
# adjacent_block_merge_distance_m 2.0
mtllib ../campus_materials.mtl
o SD0966_campus_boundary
usemtl campus_boundary
v -43.311 -114.289 0.050
v -91.950 -110.790 0.050
v -116.713 -26.349 0.050
v -114.808 2.221 0.050
v -72.816 80.608 0.050
v -37.235 102.773 0.050
v 2.654 100.157 0.050
v 90.643 93.480 0.050
v 118.663 8.463 0.050
v 113.577 -57.026 0.050
v 84.546 -74.800 0.050
v -43.311 -114.289 0.050
l 1 2 3 4 5 6 7 8 9 10 11 12 1
o SD0966_T001_1hao
v 1.243 80.207 0.000
v -0.174 58.928 0.000
v -26.875 60.685 0.000
v -46.373 48.526 0.000
v -57.708 66.456 0.000
v -32.122 82.395 0.000
v 1.243 80.207 7.370
v -0.174 58.928 7.370
v -26.875 60.685 7.370
v -46.373 48.526 7.370
v -57.708 66.456 7.370
v -32.122 82.395 7.370
usemtl roof
f 19 20 21 22 23 24
usemtl teaching_building
f 18 17 16 15 14 13
f 13 14 20 19
f 14 15 21 20
f 15 16 22 21
f 16 17 23 22
f 17 18 24 23
f 18 13 19 24
o SD0966_T002_2hao
v 74.335 54.119 0.000
v 13.044 58.519 0.000
v 14.525 78.925 0.000
v 75.825 74.547 0.000
v 74.335 54.119 7.870
v 13.044 58.519 7.870
v 14.525 78.925 7.870
v 75.825 74.547 7.870
usemtl roof
f 29 30 31 32
usemtl teaching_building
f 28 27 26 25
f 25 26 30 29
f 26 27 31 30
f 27 28 32 31
f 28 25 29 32
o SD0966_T002_2hao_seg02
v 80.660 48.979 0.000
v 79.499 34.653 0.000
v 64.042 35.803 0.000
v 64.188 44.060 0.000
v 54.764 55.523 0.000
v 74.335 54.119 0.000
v 80.660 48.979 7.870
v 79.499 34.653 7.870
v 64.042 35.803 7.870
v 64.188 44.060 7.870
v 54.764 55.523 7.870
v 74.335 54.119 7.870
usemtl roof
f 39 40 41 42 43 44
usemtl teaching_building
f 38 37 36 35 34 33
f 33 34 40 39
f 34 35 41 40
f 35 36 42 41
f 36 37 43 42
f 37 38 44 43
f 38 33 39 44
o SD0966_T003_3hao
v 82.196 24.373 0.000
v 80.889 6.565 0.000
v 35.641 9.826 0.000
v 36.939 27.634 0.000
v 82.196 24.373 7.750
v 80.889 6.565 7.750
v 35.641 9.826 7.750
v 36.939 27.634 7.750
usemtl roof
f 49 50 51 52
usemtl teaching_building
f 48 47 46 45
f 45 46 50 49
f 46 47 51 50
f 47 48 52 51
f 48 45 49 52
o SD0966_T004_4hao
v 20.987 28.640 0.000
v 31.390 28.994 0.000
v 30.001 11.086 0.000
v 19.945 8.842 0.000
v 13.876 -0.344 0.000
v -4.845 0.751 0.000
v -3.977 5.747 0.000
v 0.182 13.839 0.000
v 4.342 19.001 0.000
v 10.238 23.655 0.000
v 20.987 28.640 9.020
v 31.390 28.994 9.020
v 30.001 11.086 9.020
v 19.945 8.842 9.020
v 13.876 -0.344 9.020
v -4.845 0.751 9.020
v -3.977 5.747 9.020
v 0.182 13.839 9.020
v 4.342 19.001 9.020
v 10.238 23.655 9.020
usemtl roof
f 63 64 65 66 67 68 69 70 71 72
usemtl teaching_building
f 62 61 60 59 58 57 56 55 54 53
f 53 54 64 63
f 54 55 65 64
f 55 56 66 65
f 56 57 67 66
f 57 58 68 67
f 58 59 69 68
f 59 60 70 69
f 60 61 71 70
f 61 62 72 71
f 62 53 63 72
o SD0966_T005_5hao
v -66.218 16.425 0.000
v -61.364 19.178 0.000
v -58.595 19.520 0.000
v -45.066 18.315 0.000
v -39.691 15.906 0.000
v -36.053 11.771 0.000
v -38.658 -24.552 0.000
v -39.517 -26.619 0.000
v -44.892 -30.753 0.000
v -47.671 -31.262 0.000
v -63.275 -30.576 0.000
v -66.392 -29.714 0.000
v -70.204 -26.100 0.000
v -70.725 -23.004 0.000
v -67.955 13.839 0.000
v -66.218 16.425 6.920
v -61.364 19.178 6.920
v -58.595 19.520 6.920
v -45.066 18.315 6.920
v -39.691 15.906 6.920
v -36.053 11.771 6.920
v -38.658 -24.552 6.920
v -39.517 -26.619 6.920
v -44.892 -30.753 6.920
v -47.671 -31.262 6.920
v -63.275 -30.576 6.920
v -66.392 -29.714 6.920
v -70.204 -26.100 6.920
v -70.725 -23.004 6.920
v -67.955 13.839 6.920
usemtl roof
f 88 89 90 91 92 93 94 95 96 97 98 99 100 101 102
usemtl teaching_building
f 87 86 85 84 83 82 81 80 79 78 77 76 75 74 73
f 73 74 89 88
f 74 75 90 89
f 75 76 91 90
f 76 77 92 91
f 77 78 93 92
f 78 79 94 93
f 79 80 95 94
f 80 81 96 95
f 81 82 97 96
f 82 83 98 97
f 83 84 99 98
f 84 85 100 99
f 85 86 101 100
f 86 87 102 101
f 87 73 88 102
o SD0966_T006_6hao
v 94.427 -45.300 0.000
v 84.481 -44.538 0.000
v 88.485 6.775 0.000
v 98.412 6.012 0.000
v 94.427 -45.300 9.900
v 84.481 -44.538 9.900
v 88.485 6.775 9.900
v 98.412 6.012 9.900
usemtl roof
f 107 108 109 110
usemtl teaching_building
f 106 105 104 103
f 103 104 108 107
f 104 105 109 108
f 105 106 110 109
f 106 103 107 110
o SD0966_T007_7hao
v 14.634 -48.749 0.000
v 24.872 -50.573 0.000
v 26.079 -32.655 0.000
v 16.444 -29.007 0.000
v 12.678 -23.811 0.000
v 11.243 -18.616 0.000
v -6.929 -17.488 0.000
v -6.783 -22.551 0.000
v -3.830 -31.151 0.000
v -0.457 -36.855 0.000
v 4.707 -42.283 0.000
v 14.634 -48.749 8.470
v 24.872 -50.573 8.470
v 26.079 -32.655 8.470
v 16.444 -29.007 8.470
v 12.678 -23.811 8.470
v 11.243 -18.616 8.470
v -6.929 -17.488 8.470
v -6.783 -22.551 8.470
v -3.830 -31.151 8.470
v -0.457 -36.855 8.470
v 4.707 -42.283 8.470
usemtl roof
f 122 123 124 125 126 127 128 129 130 131 132
usemtl teaching_building
f 121 120 119 118 117 116 115 114 113 112 111
f 111 112 123 122
f 112 113 124 123
f 113 114 125 124
f 114 115 126 125
f 115 116 127 126
f 116 117 128 127
f 117 118 129 128
f 118 119 130 129
f 119 120 131 130
f 120 121 132 131
f 121 111 122 132
o SD0966_T008_8hao
v 77.552 -38.624 0.000
v 76.245 -56.432 0.000
v 30.997 -53.160 0.000
v 32.295 -35.363 0.000
v 77.552 -38.624 7.880
v 76.245 -56.432 7.880
v 30.997 -53.160 7.880
v 32.295 -35.363 7.880
usemtl roof
f 137 138 139 140
usemtl teaching_building
f 136 135 134 133
f 133 134 138 137
f 134 135 139 138
f 135 136 140 139
f 136 133 137 140
o SD0966_T009_9hao
v -41.693 -40.138 0.000
v -45.623 -94.071 0.000
v -76.666 -91.838 0.000
v -72.727 -37.905 0.000
v -41.693 -40.138 8.560
v -45.623 -94.071 8.560
v -76.666 -91.838 8.560
v -72.727 -37.905 8.560
usemtl roof
f 145 146 147 148
usemtl teaching_building
f 144 143 142 141
f 141 142 146 145
f 142 143 147 146
f 143 144 148 147
f 144 141 145 148
