# school_id SD0902
# school_name 消防应急救援训练中心
# boundary_source footprint_convex_hull_buffer_20m
# adjacent_block_merge_distance_m 2.0
mtllib ../campus_materials.mtl
o SD0902_campus_boundary
usemtl campus_boundary
v -31.485 -35.825 0.050
v -32.754 37.009 0.050
v 27.664 38.024 0.050
v 28.412 -5.162 0.050
v 18.610 -34.976 0.050
v -31.485 -35.825 0.050
l 1 2 3 4 5 6 1
o SD0902_T001_1hao
v -11.836 -15.489 0.000
v 4.052 -15.220 0.000
v 3.823 -2.202 0.000
v 8.356 -2.128 0.000
v 8.013 17.691 0.000
v -12.408 17.348 0.000
v -11.836 -15.489 9.900
v 4.052 -15.220 9.900
v 3.823 -2.202 9.900
v 8.356 -2.128 9.900
v 8.013 17.691 9.900
v -12.408 17.348 9.900
usemtl roof
f 13 14 15 16 17 18
usemtl teaching_building
f 12 11 10 9 8 7
f 7 8 14 13
f 8 9 15 14
f 9 10 16 15
f 10 11 17 16
f 11 12 18 17
f 12 7 13 18
