# school_id SD0911
# school_name 黄贺小学
# boundary_source footprint_convex_hull_buffer_20m
# adjacent_block_merge_distance_m 2.0
mtllib ../campus_materials.mtl
o SD0911_campus_boundary
usemtl campus_boundary
v 38.593 -35.969 0.050
v -48.629 -21.456 0.050
v -39.917 30.012 0.050
v -2.177 23.859 0.050
v 19.676 20.262 0.050
v 47.339 15.667 0.050
v 38.593 -35.969 0.050
l 1 2 3 4 5 6 7 1
o SD0911_T001_1hao
v -25.562 -5.019 0.000
v 22.204 -12.967 0.000
v 24.269 -0.775 0.000
v 16.413 0.530 0.000
v 15.865 -2.709 0.000
v 5.844 -1.040 0.000
v 6.392 2.155 0.000
v -5.410 4.122 0.000
v -5.986 0.695 0.000
v -15.541 2.287 0.000
v -14.974 5.648 0.000
v -23.515 7.074 0.000
v -25.562 -5.019 7.150
v 22.204 -12.967 7.150
v 24.269 -0.775 7.150
v 16.413 0.530 7.150
v 15.865 -2.709 7.150
v 5.844 -1.040 7.150
v 6.392 2.155 7.150
v -5.410 4.122 7.150
v -5.986 0.695 7.150
v -15.541 2.287 7.150
v -14.974 5.648 7.150
v -23.515 7.074 7.150
usemtl roof
f 20 21 22 23 24 25 26 27 28 29 30 31
usemtl teaching_building
f 19 18 17 16 15 14 13 12 11 10 9 8
f 8 9 21 20
f 9 10 22 21
f 10 11 23 22
f 11 12 24 23
f 12 13 25 24
f 13 14 26 25
f 14 15 27 26
f 15 16 28 27
f 16 17 29 28
f 17 18 30 29
f 18 19 31 30
f 19 8 20 31
