# school_id SD0931
# school_name 尚店镇中心小学
# boundary_source footprint_convex_hull_buffer_20m
# adjacent_block_merge_distance_m 2.0
mtllib ../campus_materials.mtl
o SD0931_campus_boundary
usemtl campus_boundary
v 54.713 -57.446 0.050
v 0.937 -53.660 0.050
v -60.941 -46.619 0.050
v -59.128 -20.788 0.050
v -57.412 -2.411 0.050
v -51.447 49.611 0.050
v -15.745 50.466 0.050
v 15.474 48.450 0.050
v 21.183 48.046 0.050
v 54.344 42.137 0.050
v 58.092 -10.266 0.050
v 57.460 -19.165 0.050
v 56.734 -29.287 0.050
v 54.713 -57.446 0.050
l 1 2 3 4 5 6 7 8 9 10 11 12 13 14 1
o SD0931_T001_1hao
v 34.885 16.367 0.000
v 35.506 25.179 0.000
v 18.589 26.374 0.000
v 18.716 28.171 0.000
v 14.124 28.496 0.000
v 13.997 26.689 0.000
v -11.805 28.505 0.000
v -11.693 30.145 0.000
v -16.151 30.451 0.000
v -16.270 28.829 0.000
v -33.561 30.034 0.000
v -34.197 21.222 0.000
v 34.885 16.367 4.950
v 35.506 25.179 4.950
v 18.589 26.374 4.950
v 18.716 28.171 4.950
v 14.124 28.496 4.950
v 13.997 26.689 4.950
v -11.805 28.505 4.950
v -11.693 30.145 4.950
v -16.151 30.451 4.950
v -16.270 28.829 4.950
v -33.561 30.034 4.950
v -34.197 21.222 4.950
usemtl roof
f 27 28 29 30 31 32 33 34 35 36 37 38
usemtl teaching_building
f 26 25 24 23 22 21 20 19 18 17 16 15
f 15 16 28 27
f 16 17 29 28
f 17 18 30 29
f 18 19 31 30
f 19 20 32 31
f 20 21 33 32
f 21 22 34 33
f 22 23 35 34
f 23 24 36 35
f 24 25 37 36
f 25 26 38 37
f 26 15 27 38
