# school_id SD0912
# school_name 平原县第四中学
# boundary_source footprint_convex_hull_buffer_20m
# adjacent_block_merge_distance_m 2.0
mtllib ../campus_materials.mtl
o SD0912_campus_boundary
usemtl campus_boundary
v 53.840 -66.184 0.050
v -4.284 -63.301 0.050
v -89.965 -57.652 0.050
v -72.184 14.252 0.050
v -66.984 35.201 0.050
v -10.177 82.101 0.050
v 86.300 62.419 0.050
v 80.037 31.979 0.050
v 72.549 -4.150 0.050
v 68.675 -19.781 0.050
v 53.840 -66.184 0.050
l 1 2 3 4 5 6 7 8 9 10 11 1
o SD0912_T001_1hao
v 60.450 36.024 0.000
v 62.673 46.827 0.000
v -4.812 60.595 0.000
v -7.050 49.801 0.000
v 60.450 36.024 9.900
v 62.673 46.827 9.900
v -4.812 60.595 9.900
v -7.050 49.801 9.900
usemtl roof
f 16 17 18 19
usemtl teaching_building
f 15 14 13 12
f 12 13 17 16
f 13 14 18 17
f 14 15 19 18
f 15 12 16 19
o SD0912_T002_2hao
v -64.816 -39.267 0.000
v -59.871 -19.318 0.000
v -48.233 -16.427 0.000
v -12.598 -25.137 0.000
v -6.099 1.084 0.000
v 0.594 -0.556 0.000
v -5.898 -26.768 0.000
v 0.587 -28.361 0.000
v -3.131 -43.334 0.000
v -64.816 -39.267 9.900
v -59.871 -19.318 9.900
v -48.233 -16.427 9.900
v -12.598 -25.137 9.900
v -6.099 1.084 9.900
v 0.594 -0.556 9.900
v -5.898 -26.768 9.900
v 0.587 -28.361 9.900
v -3.131 -43.334 9.900
usemtl roof
f 29 30 31 32 33 34 35 36 37
usemtl teaching_building
f 28 27 26 25 24 23 22 21 20
f 20 21 30 29
f 21 22 31 30
f 22 23 32 31
f 23 24 33 32
f 24 25 34 33
f 25 26 35 34
f 26 27 36 35
f 27 28 37 36
f 28 20 29 37
o SD0912_T002_2hao_seg02
v -52.769 9.451 0.000
v -49.163 23.979 0.000
v -38.484 21.366 0.000
v -39.354 17.864 0.000
v -34.543 16.696 0.000
v -33.464 21.079 0.000
v -28.943 19.976 0.000
v -30.036 15.584 0.000
v -3.228 9.034 0.000
v -1.867 14.528 0.000
v 5.718 12.666 0.000
v 4.357 7.190 0.000
v 32.459 0.306 0.000
v 33.887 6.069 0.000
v 37.761 5.133 0.000
v 36.333 -0.630 0.000
v 42.112 -2.048 0.000
v 43.279 2.678 0.000
v 53.043 0.287 0.000
v 49.422 -14.324 0.000
v 39.650 -11.934 0.000
v 40.089 -10.201 0.000
v -41.377 9.710 0.000
v -42.083 6.847 0.000
v -52.769 9.451 9.900
v -49.163 23.979 9.900
v -38.484 21.366 9.900
v -39.354 17.864 9.900
v -34.543 16.696 9.900
v -33.464 21.079 9.900
v -28.943 19.976 9.900
v -30.036 15.584 9.900
v -3.228 9.034 9.900
v -1.867 14.528 9.900
v 5.718 12.666 9.900
v 4.357 7.190 9.900
v 32.459 0.306 9.900
v 33.887 6.069 9.900
v 37.761 5.133 9.900
v 36.333 -0.630 9.900
v 42.112 -2.048 9.900
v 43.279 2.678 9.900
v 53.043 0.287 9.900
v 49.422 -14.324 9.900
v 39.650 -11.934 9.900
v 40.089 -10.201 9.900
v -41.377 9.710 9.900
v -42.083 6.847 9.900
usemtl roof
f 62 63 64 65 66 67 68 69 70 71 72 73 74 75 76 77 78 79 80 81 82 83 84 85
usemtl teaching_building
f 61 60 59 58 57 56 55 54 53 52 51 50 49 48 47 46 45 44 43 42 41 40 39 38
f 38 39 63 62
f 39 40 64 63
f 40 41 65 64
f 41 42 66 65
f 42 43 67 66
f 43 44 68 67
f 44 45 69 68
f 45 46 70 69
f 46 47 71 70
f 47 48 72 71
f 48 49 73 72
f 49 50 74 73
f 50 51 75 74
f 51 52 76 75
f 52 53 77 76
f 53 54 78 77
f 54 55 79 78
f 55 56 80 79
f 56 57 81 80
f 57 58 82 81
f 58 59 83 82
f 59 60 84 83
f 60 61 85 84
f 61 38 62 85
o SD0912_T003_3hao
v 39.472 -45.447 0.000
v 43.993 -27.240 0.000
v 26.629 -22.987 0.000
v 22.115 -41.194 0.000
v 39.472 -45.447 9.900
v 43.993 -27.240 9.900
v 26.629 -22.987 9.900
v 22.115 -41.194 9.900
usemtl roof
f 90 91 92 93
usemtl teaching_building
f 89 88 87 86
f 86 87 91 90
f 87 88 92 91
f 88 89 93 92
f 89 86 90 93
