# school_id SD0961
# school_name 单县南城第一小学
# boundary_source footprint_convex_hull_buffer_20m
# adjacent_block_merge_distance_m 2.0
mtllib ../campus_materials.mtl
o SD0961_campus_boundary
usemtl campus_boundary
v 39.790 -60.292 0.050
v 7.844 -53.811 0.050
v 5.576 -53.315 0.050
v -82.240 -33.684 0.050
v -74.249 2.767 0.050
v -60.670 46.145 0.050
v 27.210 58.596 0.050
v 63.143 52.904 0.050
v 39.790 -60.292 0.050
l 1 2 3 4 5 6 7 8 9 1
o SD0961_T001_1hao
v 18.763 -0.846 0.000
v -48.511 12.971 0.000
v -45.357 28.115 0.000
v 21.917 14.298 0.000
v 18.763 -0.846 14.530
v -48.511 12.971 14.530
v -45.357 28.115 14.530
v 21.917 14.298 14.530
usemtl roof
f 14 15 16 17
usemtl teaching_building
f 13 12 11 10
f 10 11 15 14
f 11 12 16 15
f 12 13 17 16
f 13 10 14 17
o SD0961_T001_1hao_seg02
v 11.970 -34.241 0.000
v 27.045 38.373 0.000
v 39.323 36.428 0.000
v 24.230 -36.728 0.000
v 11.970 -34.241 14.530
v 27.045 38.373 14.530
v 39.323 36.428 14.530
v 24.230 -36.728 14.530
usemtl roof
f 22 23 24 25
usemtl teaching_building
f 21 20 19 18
f 18 19 23 22
f 19 20 24 23
f 20 21 25 24
f 21 18 22 25
o SD0961_T002_2hao
v 13.387 -17.151 0.000
v 9.895 -33.787 0.000
v -58.439 -18.511 0.000
v -54.901 -2.372 0.000
v 13.387 -17.151 17.090
v 9.895 -33.787 17.090
v -58.439 -18.511 17.090
v -54.901 -2.372 17.090
usemtl roof
f 30 31 32 33
usemtl teaching_building
f 29 28 27 26
f 26 27 31 30
f 27 28 32 31
f 28 29 33 32
f 29 26 30 33
