# school_id SD0957
# school_name 单县一中附属学校
# boundary_source footprint_convex_hull_buffer_20m
# adjacent_block_merge_distance_m 2.0
mtllib ../campus_materials.mtl
o SD0957_campus_boundary
usemtl campus_boundary
v 46.950 -36.208 0.050
v -54.482 -23.603 0.050
v -46.949 36.198 0.050
v 54.481 23.613 0.050
v 46.950 -36.208 0.050
l 1 2 3 4 5 1
o SD0957_T001_1hao
v 32.135 6.232 0.000
v 29.601 -13.898 0.000
v -32.135 -6.226 0.000
v -29.601 13.892 0.000
v 32.135 6.232 12.540
v 29.601 -13.898 12.540
v -32.135 -6.226 12.540
v -29.601 13.892 12.540
usemtl roof
f 10 11 12 13
usemtl teaching_building
f 9 8 7 6
f 6 7 11 10
f 7 8 12 11
f 8 9 13 12
f 9 6 10 13
