# school_id SD0927
# school_name 八岔路镇潘彭店小学
# boundary_source footprint_convex_hull_buffer_20m
# adjacent_block_merge_distance_m 2.0
mtllib ../campus_materials.mtl
o SD0927_campus_boundary
usemtl campus_boundary
v 53.054 -27.389 0.050
v -2.690 -23.819 0.050
v -61.883 -19.504 0.050
v -58.390 27.946 0.050
v 8.080 23.357 0.050
v 56.534 19.838 0.050
v 53.054 -27.389 0.050
l 1 2 3 4 5 6 7 1
o SD0927_T001_1hao
v -1.324 -3.866 0.000
v -0.763 3.759 0.000
v -39.906 6.622 0.000
v -40.468 -1.012 0.000
v -1.324 -3.866 6.600
v -0.763 3.759 6.600
v -39.906 6.622 6.600
v -40.468 -1.012 6.600
usemtl roof
f 12 13 14 15
usemtl teaching_building
f 11 10 9 8
f 8 9 13 12
f 9 10 14 13
f 10 11 15 14
f 11 8 12 15
