# school_id SD0934
# school_name 旅游度假区第二实验小学
# boundary_source footprint_convex_hull_buffer_20m
# adjacent_block_merge_distance_m 2.0
mtllib ../campus_materials.mtl
o SD0934_campus_boundary
usemtl campus_boundary
v 37.321 -90.732 0.050
v -66.158 -86.999 0.050
v -61.776 33.510 0.050
v -55.593 104.929 0.050
v 17.530 101.835 0.050
v 117.608 59.927 0.050
v 116.384 33.997 0.050
v 37.321 -90.732 0.050
l 1 2 3 4 5 6 7 8 1
o SD0934_T001_1hao
v 13.107 82.004 0.000
v 11.584 46.388 0.000
v -38.841 48.499 0.000
v -37.318 84.138 0.000
v 13.107 82.004 8.940
v 11.584 46.388 8.940
v -38.841 48.499 8.940
v -37.318 84.138 8.940
usemtl roof
f 13 14 15 16
usemtl teaching_building
f 12 11 10 9
f 9 10 14 13
f 10 11 15 14
f 11 12 16 15
f 12 9 13 16
o SD0934_T002_2hao
v 29.055 19.339 0.000
v -29.855 21.450 0.000
v -30.007 17.161 0.000
v -19.309 16.774 0.000
v -20.008 -2.448 0.000
v -31.494 -2.039 0.000
v -31.799 -10.551 0.000
v 26.789 -12.640 0.000
v 26.367 -24.170 0.000
v -34.164 -22.003 0.000
v -34.469 -30.437 0.000
v -28.994 -30.636 0.000
v -29.398 -41.712 0.000
v -33.734 -41.546 0.000
v -33.985 -48.312 0.000
v -3.155 -49.428 0.000
v -3.531 -59.598 0.000
v 26.932 -60.692 0.000
v 26.573 -70.331 0.000
v -45.444 -67.733 0.000
v -41.807 32.283 0.000
v 29.432 29.719 0.000
v 29.055 19.339 9.150
v -29.855 21.450 9.150
v -30.007 17.161 9.150
v -19.309 16.774 9.150
v -20.008 -2.448 9.150
v -31.494 -2.039 9.150
v -31.799 -10.551 9.150
v 26.789 -12.640 9.150
v 26.367 -24.170 9.150
v -34.164 -22.003 9.150
v -34.469 -30.437 9.150
v -28.994 -30.636 9.150
v -29.398 -41.712 9.150
v -33.734 -41.546 9.150
v -33.985 -48.312 9.150
v -3.155 -49.428 9.150
v -3.531 -59.598 9.150
v 26.932 -60.692 9.150
v 26.573 -70.331 9.150
v -45.444 -67.733 9.150
v -41.807 32.283 9.150
v 29.432 29.719 9.150
usemtl roof
f 39 40 41 42 43 44 45 46 47 48 49 50 51 52 53 54 55 56 57 58 59 60
usemtl teaching_building
f 38 37 36 35 34 33 32 31 30 29 28 27 26 25 24 23 22 21 20 19 18 17
f 17 18 40 39
f 18 19 41 40
f 19 20 42 41
f 20 21 43 42
f 21 22 44 43
f 22 23 45 44
f 23 24 46 45
f 24 25 47 46
f 25 26 48 47
f 26 27 49 48
f 27 28 50 49
f 28 29 51 50
f 29 30 52 51
f 30 31 53 52
f 31 32 54 53
f 32 33 55 54
f 33 34 56 55
f 34 35 57 56
f 35 36 58 57
f 36 37 59 58
f 37 38 60 59
f 38 17 39 60
