# school_id SD0968
# school_name 单县职业中等专业学校
# boundary_source footprint_convex_hull_buffer_20m
# adjacent_block_merge_distance_m 2.0
mtllib ../campus_materials.mtl
o SD0968_campus_boundary
usemtl campus_boundary
v -50.859 -100.434 0.050
v -165.170 -90.609 0.050
v -161.111 -44.061 0.050
v -133.195 12.413 0.050
v -24.927 101.100 0.050
v 37.692 95.356 0.050
v 133.551 86.378 0.050
v 142.084 -25.200 0.050
v 137.124 -73.144 0.050
v -50.859 -100.434 0.050
l 1 2 3 4 5 6 7 8 9 10 1
o SD0968_T001_1hao
v 33.739 52.861 0.000
v 35.846 75.441 0.000
v -18.593 80.435 0.000
v -20.692 57.855 0.000
v 33.739 52.861 6.600
v 35.846 75.441 6.600
v -18.593 80.435 6.600
v -20.692 57.855 6.600
usemtl roof
f 15 16 17 18
usemtl teaching_building
f 14 13 12 11
f 11 12 16 15
f 12 13 17 16
f 13 14 18 17
f 14 11 15 18
o SD0968_T002_2hao
v 110.596 21.554 0.000
v 114.895 68.038 0.000
v 50.749 73.894 0.000
v 46.442 27.409 0.000
v 110.596 21.554 6.600
v 114.895 68.038 6.600
v 50.749 73.894 6.600
v 46.442 27.409 6.600
usemtl roof
f 23 24 25 26
usemtl teaching_building
f 22 21 20 19
f 19 20 24 23
f 20 21 25 24
f 21 22 26 25
f 22 19 23 26
o SD0968_T003_3hao
v -48.076 -24.069 0.000
v -46.796 -4.964 0.000
v -117.180 -0.322 0.000
v -118.459 -19.418 0.000
v -48.076 -24.069 6.600
v -46.796 -4.964 6.600
v -117.180 -0.322 6.600
v -118.459 -19.418 6.600
usemtl roof
f 31 32 33 34
usemtl teaching_building
f 30 29 28 27
f 27 28 32 31
f 28 29 33 32
f 29 30 34 33
f 30 27 31 34
o SD0968_T004_4hao
v 118.833 -55.590 0.000
v 122.005 -24.931 0.000
v 62.893 -18.908 0.000
v 59.721 -49.567 0.000
v 118.833 -55.590 6.600
v 122.005 -24.931 6.600
v 62.893 -18.908 6.600
v 59.721 -49.567 6.600
usemtl roof
f 39 40 41 42
usemtl teaching_building
f 38 37 36 35
f 35 36 40 39
f 36 37 41 40
f 37 38 42 41
f 38 35 39 42
o SD0968_T005_5hao
v -51.447 -80.310 0.000
v -49.455 -57.461 0.000
v -141.514 -49.549 0.000
v -143.506 -72.397 0.000
v -51.447 -80.310 6.600
v -49.455 -57.461 6.600
v -141.514 -49.549 6.600
v -143.506 -72.397 6.600
usemtl roof
f 47 48 49 50
usemtl teaching_building
f 46 45 44 43
f 43 44 48 47
f 44 45 49 48
f 45 46 50 49
f 46 43 47 50
