# school_id SD0944
# school_name 博兴县第一小学西校区
# boundary_source footprint_convex_hull_buffer_20m
# adjacent_block_merge_distance_m 2.0
mtllib ../campus_materials.mtl
o SD0944_campus_boundary
usemtl campus_boundary
v -57.595 -50.080 0.050
v -74.819 -17.216 0.050
v -57.865 34.371 0.050
v -16.192 41.102 0.050
v 46.954 44.880 0.050
v 78.031 3.183 0.050
v 74.874 -31.228 0.050
v -57.595 -50.080 0.050
l 1 2 3 4 5 6 7 8 1
o SD0944_T001_1hao
v -41.679 8.133 0.000
v -28.937 10.266 0.000
v -26.258 -3.784 0.000
v -20.606 -3.098 0.000
v -23.064 11.261 0.000
v -5.389 12.598 0.000
v -4.892 10.719 0.000
v 4.531 12.433 0.000
v 4.753 11.172 0.000
v 19.083 13.107 0.000
v 21.017 -1.252 0.000
v 26.891 -0.788 0.000
v 24.877 14.555 0.000
v 38.284 16.324 0.000
v 37.370 24.271 0.000
v 10.813 20.767 0.000
v 10.379 22.005 0.000
v 0.095 20.524 0.000
v 0.042 21.430 0.000
v -13.729 19.297 0.000
v -13.995 21.198 0.000
v -42.664 16.567 0.000
v -41.679 8.133 22.910
v -28.937 10.266 22.910
v -26.258 -3.784 22.910
v -20.606 -3.098 22.910
v -23.064 11.261 22.910
v -5.389 12.598 22.910
v -4.892 10.719 22.910
v 4.531 12.433 22.910
v 4.753 11.172 22.910
v 19.083 13.107 22.910
v 21.017 -1.252 22.910
v 26.891 -0.788 22.910
v 24.877 14.555 22.910
v 38.284 16.324 22.910
v 37.370 24.271 22.910
v 10.813 20.767 22.910
v 10.379 22.005 22.910
v 0.095 20.524 22.910
v 0.042 21.430 22.910
v -13.729 19.297 22.910
v -13.995 21.198 22.910
v -42.664 16.567 22.910
usemtl roof
f 31 32 33 34 35 36 37 38 39 40 41 42 43 44 45 46 47 48 49 50 51 52
usemtl teaching_building
f 30 29 28 27 26 25 24 23 22 21 20 19 18 17 16 15 14 13 12 11 10 9
f 9 10 32 31
f 10 11 33 32
f 11 12 34 33
f 12 13 35 34
f 13 14 36 35
f 14 15 37 36
f 15 16 38 37
f 16 17 39 38
f 17 18 40 39
f 18 19 41 40
f 19 20 42 41
f 20 21 43 42
f 21 22 44 43
f 22 23 45 44
f 23 24 46 45
f 24 25 47 46
f 25 26 48 47
f 26 27 49 48
f 27 28 50 49
f 28 29 51 50
f 29 30 52 51
f 30 9 31 52
o SD0944_T002_2hao
v 29.225 -10.317 0.000
v 56.402 -13.655 0.000
v 57.414 -2.623 0.000
v 30.343 0.362 0.000
v 29.225 -10.317 10.050
v 56.402 -13.655 10.050
v 57.414 -2.623 10.050
v 30.343 0.362 10.050
usemtl roof
f 57 58 59 60
usemtl teaching_building
f 56 55 54 53
f 53 54 58 57
f 54 55 59 58
f 55 56 60 59
f 56 53 57 60
o SD0944_T003_3hao
v -46.435 -28.290 0.000
v -23.445 -18.729 0.000
v -22.389 -20.685 0.000
v -8.689 -18.320 0.000
v -8.228 -19.270 0.000
v 25.516 -15.589 0.000
v 24.265 -7.697 0.000
v 13.759 -8.548 0.000
v 12.508 -7.188 0.000
v 3.679 -8.382 0.000
v 3.147 -7.100 0.000
v -7.243 -8.570 0.000
v -7.855 -6.945 0.000
v -28.077 -9.841 0.000
v -29.585 -5.254 0.000
v -53.178 -15.424 0.000
v -46.435 -28.290 33.120
v -23.445 -18.729 33.120
v -22.389 -20.685 33.120
v -8.689 -18.320 33.120
v -8.228 -19.270 33.120
v 25.516 -15.589 33.120
v 24.265 -7.697 33.120
v 13.759 -8.548 33.120
v 12.508 -7.188 33.120
v 3.679 -8.382 33.120
v 3.147 -7.100 33.120
v -7.243 -8.570 33.120
v -7.855 -6.945 33.120
v -28.077 -9.841 33.120
v -29.585 -5.254 33.120
v -53.178 -15.424 33.120
usemtl roof
f 77 78 79 80 81 82 83 84 85 86 87 88 89 90 91 92
usemtl teaching_building
f 76 75 74 73 72 71 70 69 68 67 66 65 64 63 62 61
f 61 62 78 77
f 62 63 79 78
f 63 64 80 79
f 64 65 81 80
f 65 66 82 81
f 66 67 83 82
f 67 68 84 83
f 68 69 85 84
f 69 70 86 85
f 70 71 87 86
f 71 72 88 87
f 72 73 89 88
f 73 74 90 89
f 74 75 91 90
f 75 76 92 91
f 76 61 77 92
