# school_id SD0943
# school_name 聊城育英学校
# boundary_source footprint_convex_hull_buffer_20m
# adjacent_block_merge_distance_m 2.0
mtllib ../campus_materials.mtl
o SD0943_campus_boundary
usemtl campus_boundary
v -51.787 -58.412 0.050
v -53.006 -23.616 0.050
v -53.323 16.218 0.050
v -44.330 49.536 0.050
v -16.466 49.973 0.050
v 81.719 41.554 0.050
v 81.074 5.376 0.050
v 77.845 -33.218 0.050
v 17.946 -56.033 0.050
v -51.787 -58.412 0.050
l 1 2 3 4 5 6 7 8 9 10 1
o SD0943_T001_1hao
v 61.089 6.389 0.000
v 61.389 23.224 0.000
v 16.378 24.030 0.000
v 16.070 7.186 0.000
v 61.089 6.389 9.900
v 61.389 23.224 9.900
v 16.378 24.030 9.900
v 16.070 7.186 9.900
usemtl roof
f 15 16 17 18
usemtl teaching_building
f 14 13 12 11
f 11 12 16 15
f 12 13 17 16
f 13 14 18 17
f 14 11 15 18
o SD0943_T002_2hao
v 58.964 -19.008 0.000
v 59.430 0.542 0.000
v 16.017 1.562 0.000
v 15.552 -17.979 0.000
v 58.964 -19.008 9.900
v 59.430 0.542 9.900
v 16.017 1.562 9.900
v 15.552 -17.979 9.900
usemtl roof
f 23 24 25 26
usemtl teaching_building
f 22 21 20 19
f 19 20 24 23
f 20 21 25 24
f 21 22 26 25
f 22 19 23 26
o SD0943_T003_3hao
v -32.499 -37.742 0.000
v 13.938 -36.158 0.000
v 15.830 -24.011 0.000
v -33.009 -23.186 0.000
v -32.499 -37.742 9.900
v 13.938 -36.158 9.900
v 15.830 -24.011 9.900
v -33.009 -23.186 9.900
usemtl roof
f 31 32 33 34
usemtl teaching_building
f 30 29 28 27
f 27 28 32 31
f 28 29 33 32
f 29 30 34 33
f 30 27 31 34
