# school_id SD1003
# school_name 西苑小学
# boundary_source footprint_convex_hull_buffer_20m
# adjacent_block_merge_distance_m 2.0
mtllib ../campus_materials.mtl
o SD1003_campus_boundary
usemtl campus_boundary
v 76.336 -48.383 0.050
v 16.550 -36.857 0.050
v -89.104 -15.687 0.050
v -80.734 27.174 0.050
v -16.893 41.579 0.050
v 29.622 32.601 0.050
v 84.928 -4.461 0.050
v 76.336 -48.383 0.050
l 1 2 3 4 5 6 7 8 1
o SD1003_T001_1hao
v -30.714 4.191 0.000
v -28.541 15.333 0.000
v -18.102 13.322 0.000
v -16.574 21.148 0.000
v 21.854 13.731 0.000
v 20.399 6.313 0.000
v 31.657 4.136 0.000
v 29.429 -7.239 0.000
v 62.747 -13.672 0.000
v 60.537 -24.969 0.000
v 20.408 -17.232 0.000
v 20.936 -14.568 0.000
v 17.344 -13.871 0.000
v 18.462 -8.178 0.000
v 16.817 -7.858 0.000
v 19.181 4.235 0.000
v 10.733 5.860 0.000
v 10.006 2.135 0.000
v -5.380 5.109 0.000
v -4.689 8.635 0.000
v -16.356 10.890 0.000
v -18.420 0.344 0.000
v -19.857 0.621 0.000
v -21.166 -6.078 0.000
v -25.486 -5.238 0.000
v -25.959 -7.648 0.000
v -65.660 0.013 0.000
v -63.605 10.536 0.000
v -30.714 4.191 11.450
v -28.541 15.333 11.450
v -18.102 13.322 11.450
v -16.574 21.148 11.450
v 21.854 13.731 11.450
v 20.399 6.313 11.450
v 31.657 4.136 11.450
v 29.429 -7.239 11.450
v 62.747 -13.672 11.450
v 60.537 -24.969 11.450
v 20.408 -17.232 11.450
v 20.936 -14.568 11.450
v 17.344 -13.871 11.450
v 18.462 -8.178 11.450
v 16.817 -7.858 11.450
v 19.181 4.235 11.450
v 10.733 5.860 11.450
v 10.006 2.135 11.450
v -5.380 5.109 11.450
v -4.689 8.635 11.450
v -16.356 10.890 11.450
v -18.420 0.344 11.450
v -19.857 0.621 11.450
v -21.166 -6.078 11.450
v -25.486 -5.238 11.450
v -25.959 -7.648 11.450
v -65.660 0.013 11.450
v -63.605 10.536 11.450
usemtl roof
f 37 38 39 40 41 42 43 44 45 46 47 48 49 50 51 52 53 54 55 56 57 58 59 60 61 62 63 64
usemtl teaching_building
f 36 35 34 33 32 31 30 29 28 27 26 25 24 23 22 21 20 19 18 17 16 15 14 13 12 11 10 9
f 9 10 38 37
f 10 11 39 38
f 11 12 40 39
f 12 13 41 40
f 13 14 42 41
f 14 15 43 42
f 15 16 44 43
f 16 17 45 44
f 17 18 46 45
f 18 19 47 46
f 19 20 48 47
f 20 21 49 48
f 21 22 50 49
f 22 23 51 50
f 23 24 52 51
f 24 25 53 52
f 25 26 54 53
f 26 27 55 54
f 27 28 56 55
f 28 29 57 56
f 29 30 58 57
f 30 31 59 58
f 31 32 60 59
f 32 33 61 60
f 33 34 62 61
f 34 35 63 62
f 35 36 64 63
f 36 9 37 64
