# school_id SD1001
# school_name 菏泽市实验中学
# boundary_source footprint_convex_hull_buffer_20m
# adjacent_block_merge_distance_m 2.0
mtllib ../campus_materials.mtl
o SD1001_campus_boundary
usemtl campus_boundary
v 93.182 -122.925 0.050
v 19.345 -111.330 0.050
v -132.737 -87.256 0.050
v -130.769 -56.517 0.050
v -124.012 -13.146 0.050
v -123.033 -6.971 0.050
v -113.026 55.600 0.050
v -106.899 91.251 0.050
v -81.256 95.078 0.050
v 63.706 72.174 0.050
v 108.881 64.508 0.050
v 135.626 54.704 0.050
v 117.856 -52.761 0.050
v 109.861 -98.666 0.050
v 93.182 -122.925 0.050
l 1 2 3 4 5 6 7 8 9 10 11 12 13 14 15 1
o SD1001_T001_1hao
v -38.101 67.515 0.000
v -38.410 65.702 0.000
v -28.632 64.044 0.000
v -32.716 40.289 0.000
v -85.345 49.220 0.000
v -85.054 50.923 0.000
v -93.295 52.327 0.000
v -89.638 73.606 0.000
v -81.625 73.197 0.000
v -81.343 74.844 0.000
v -38.101 67.515 13.100
v -38.410 65.702 13.100
v -28.632 64.044 13.100
v -32.716 40.289 13.100
v -85.345 49.220 13.100
v -85.054 50.923 13.100
v -93.295 52.327 13.100
v -89.638 73.606 13.100
v -81.625 73.197 13.100
v -81.343 74.844 13.100
usemtl roof
f 26 27 28 29 30 31 32 33 34 35
usemtl teaching_building
f 25 24 23 22 21 20 19 18 17 16
f 16 17 27 26
f 17 18 28 27
f 18 19 29 28
f 19 20 30 29
f 20 21 31 30
f 21 22 32 31
f 22 23 33 32
f 23 24 34 33
f 24 25 35 34
f 25 16 26 35
o SD1001_T002_2hao
v -5.264 59.832 0.000
v -5.092 60.960 0.000
v 1.348 59.987 0.000
v 1.121 58.495 0.000
v 21.332 55.422 0.000
v 21.541 56.759 0.000
v 28.190 55.753 0.000
v 27.936 54.084 0.000
v 40.233 52.216 0.000
v 37.077 31.711 0.000
v 24.343 33.645 0.000
v 24.061 31.788 0.000
v 17.730 32.750 0.000
v 18.021 34.640 0.000
v 15.965 34.950 0.000
v 15.201 30.042 0.000
v 0.393 32.286 0.000
v 1.248 37.813 0.000
v -2.208 38.332 0.000
v -2.472 36.652 0.000
v -9.048 37.658 0.000
v -8.785 39.349 0.000
v -20.227 41.085 0.000
v -17.071 61.623 0.000
v -5.264 59.832 10.540
v -5.092 60.960 10.540
v 1.348 59.987 10.540
v 1.121 58.495 10.540
v 21.332 55.422 10.540
v 21.541 56.759 10.540
v 28.190 55.753 10.540
v 27.936 54.084 10.540
v 40.233 52.216 10.540
v 37.077 31.711 10.540
v 24.343 33.645 10.540
v 24.061 31.788 10.540
v 17.730 32.750 10.540
v 18.021 34.640 10.540
v 15.965 34.950 10.540
v 15.201 30.042 10.540
v 0.393 32.286 10.540
v 1.248 37.813 10.540
v -2.208 38.332 10.540
v -2.472 36.652 10.540
v -9.048 37.658 10.540
v -8.785 39.349 10.540
v -20.227 41.085 10.540
v -17.071 61.623 10.540
usemtl roof
f 60 61 62 63 64 65 66 67 68 69 70 71 72 73 74 75 76 77 78 79 80 81 82 83
usemtl teaching_building
f 59 58 57 56 55 54 53 52 51 50 49 48 47 46 45 44 43 42 41 40 39 38 37 36
f 36 37 61 60
f 37 38 62 61
f 38 39 63 62
f 39 40 64 63
f 40 41 65 64
f 41 42 66 65
f 42 43 67 66
f 43 44 68 67
f 44 45 69 68
f 45 46 70 69
f 46 47 71 70
f 47 48 72 71
f 48 49 73 72
f 49 50 74 73
f 50 51 75 74
f 51 52 76 75
f 52 53 77 76
f 53 54 78 77
f 54 55 79 78
f 55 56 80 79
f 56 57 81 80
f 57 58 82 81
f 58 59 83 82
f 59 36 60 83
o SD1001_T003_3hao
v 103.723 45.097 0.000
v 103.414 43.284 0.000
v 113.192 41.626 0.000
v 109.098 17.882 0.000
v 56.470 26.803 0.000
v 56.770 28.516 0.000
v 48.529 29.909 0.000
v 52.185 51.188 0.000
v 60.190 50.779 0.000
v 60.472 52.437 0.000
v 103.723 45.097 13.350
v 103.414 43.284 13.350
v 113.192 41.626 13.350
v 109.098 17.882 13.350
v 56.470 26.803 13.350
v 56.770 28.516 13.350
v 48.529 29.909 13.350
v 52.185 51.188 13.350
v 60.190 50.779 13.350
v 60.472 52.437 13.350
usemtl roof
f 94 95 96 97 98 99 100 101 102 103
usemtl teaching_building
f 93 92 91 90 89 88 87 86 85 84
f 84 85 95 94
f 85 86 96 95
f 86 87 97 96
f 87 88 98 97
f 88 89 99 98
f 89 90 100 99
f 90 91 101 100
f 91 92 102 101
f 92 93 103 102
f 93 84 94 103
o SD1001_T004_4hao
v -85.399 29.390 0.000
v -85.881 26.361 0.000
v -40.575 19.242 0.000
v -40.147 21.928 0.000
v -28.286 20.071 0.000
v -29.269 13.903 0.000
v -34.571 14.732 0.000
v -36.345 3.634 0.000
v -97.715 13.273 0.000
v -95.887 24.747 0.000
v -96.969 24.913 0.000
v -95.996 31.059 0.000
v -85.399 29.390 15.800
v -85.881 26.361 15.800
v -40.575 19.242 15.800
v -40.147 21.928 15.800
v -28.286 20.071 15.800
v -29.269 13.903 15.800
v -34.571 14.732 15.800
v -36.345 3.634 15.800
v -97.715 13.273 15.800
v -95.887 24.747 15.800
v -96.969 24.913 15.800
v -95.996 31.059 15.800
usemtl roof
f 116 117 118 119 120 121 122 123 124 125 126 127
usemtl teaching_building
f 115 114 113 112 111 110 109 108 107 106 105 104
f 104 105 117 116
f 105 106 118 117
f 106 107 119 118
f 107 108 120 119
f 108 109 121 120
f 109 110 122 121
f 110 111 123 122
f 111 112 124 123
f 112 113 125 124
f 113 114 126 125
f 114 115 127 126
f 115 104 116 127
o SD1001_T005_5hao
v 48.465 7.768 0.000
v 47.974 4.728 0.000
v 93.290 -2.380 0.000
v 93.717 0.295 0.000
v 105.578 -1.562 0.000
v 104.596 -7.730 0.000
v 99.293 -6.890 0.000
v 97.519 -17.999 0.000
v 36.149 -8.360 0.000
v 37.978 3.114 0.000
v 36.895 3.291 0.000
v 37.868 9.426 0.000
v 48.465 7.768 7.780
v 47.974 4.728 7.780
v 93.290 -2.380 7.780
v 93.717 0.295 7.780
v 105.578 -1.562 7.780
v 104.596 -7.730 7.780
v 99.293 -6.890 7.780
v 97.519 -17.999 7.780
v 36.149 -8.360 7.780
v 37.978 3.114 7.780
v 36.895 3.291 7.780
v 37.868 9.426 7.780
usemtl roof
f 140 141 142 143 144 145 146 147 148 149 150 151
usemtl teaching_building
f 139 138 137 136 135 134 133 132 131 130 129 128
f 128 129 141 140
f 129 130 142 141
f 130 131 143 142
f 131 132 144 143
f 132 133 145 144
f 133 134 146 145
f 134 135 147 146
f 135 136 148 147
f 136 137 149 148
f 137 138 150 149
f 138 139 151 150
f 139 128 140 151
o SD1001_T006_6hao
v -92.685 -11.776 0.000
v -93.167 -14.815 0.000
v -47.861 -21.923 0.000
v -47.433 -19.248 0.000
v -35.572 -21.105 0.000
v -36.554 -27.273 0.000
v -41.857 -26.433 0.000
v -43.631 -37.542 0.000
v -105.001 -27.903 0.000
v -103.173 -16.429 0.000
v -104.255 -16.252 0.000
v -103.282 -10.117 0.000
v -92.685 -11.776 10.970
v -93.167 -14.815 10.970
v -47.861 -21.923 10.970
v -47.433 -19.248 10.970
v -35.572 -21.105 10.970
v -36.554 -27.273 10.970
v -41.857 -26.433 10.970
v -43.631 -37.542 10.970
v -105.001 -27.903 10.970
v -103.173 -16.429 10.970
v -104.255 -16.252 10.970
v -103.282 -10.117 10.970
usemtl roof
f 164 165 166 167 168 169 170 171 172 173 174 175
usemtl teaching_building
f 163 162 161 160 159 158 157 156 155 154 153 152
f 152 153 165 164
f 153 154 166 165
f 154 155 167 166
f 155 156 168 167
f 156 157 169 168
f 157 158 170 169
f 158 159 171 170
f 159 160 172 171
f 160 161 173 172
f 161 162 174 173
f 162 163 175 174
f 163 152 164 175
o SD1001_T007_7hao
v 42.007 -33.917 0.000
v 41.516 -36.946 0.000
v 86.832 -44.064 0.000
v 87.259 -41.378 0.000
v 99.120 -43.246 0.000
v 98.138 -49.414 0.000
v 92.835 -48.574 0.000
v 91.061 -59.684 0.000
v 29.691 -50.044 0.000
v 31.519 -38.570 0.000
v 30.437 -38.394 0.000
v 31.410 -32.259 0.000
v 42.007 -33.917 14.380
v 41.516 -36.946 14.380
v 86.832 -44.064 14.380
v 87.259 -41.378 14.380
v 99.120 -43.246 14.380
v 98.138 -49.414 14.380
v 92.835 -48.574 14.380
v 91.061 -59.684 14.380
v 29.691 -50.044 14.380
v 31.519 -38.570 14.380
v 30.437 -38.394 14.380
v 31.410 -32.259 14.380
usemtl roof
f 188 189 190 191 192 193 194 195 196 197 198 199
usemtl teaching_building
f 187 186 185 184 183 182 181 180 179 178 177 176
f 176 177 189 188
f 177 178 190 189
f 178 179 191 190
f 179 180 192 191
f 180 181 193 192
f 181 182 194 193
f 182 183 195 194
f 183 184 196 195
f 184 185 197 196
f 185 186 198 197
f 186 187 199 198
f 187 176 188 199
o SD1001_T008_8hao
v -99.298 -54.223 0.000
v -99.780 -57.252 0.000
v -54.473 -64.370 0.000
v -54.046 -61.684 0.000
v -42.185 -63.552 0.000
v -43.167 -69.721 0.000
v -48.470 -68.881 0.000
v -50.235 -79.990 0.000
v -111.614 -70.351 0.000
v -109.786 -58.877 0.000
v -110.868 -58.700 0.000
v -109.895 -52.565 0.000
v -99.298 -54.223 12.350
v -99.780 -57.252 12.350
v -54.473 -64.370 12.350
v -54.046 -61.684 12.350
v -42.185 -63.552 12.350
v -43.167 -69.721 12.350
v -48.470 -68.881 12.350
v -50.235 -79.990 12.350
v -111.614 -70.351 12.350
v -109.786 -58.877 12.350
v -110.868 -58.700 12.350
v -109.895 -52.565 12.350
usemtl roof
f 212 213 214 215 216 217 218 219 220 221 222 223
usemtl teaching_building
f 211 210 209 208 207 206 205 204 203 202 201 200
f 200 201 213 212
f 201 202 214 213
f 202 203 215 214
f 203 204 216 215
f 204 205 217 216
f 205 206 218 217
f 206 207 219 218
f 207 208 220 219
f 208 209 221 220
f 209 210 222 221
f 210 211 223 222
f 211 200 212 223
o SD1001_T009_9hao
v 34.776 -75.447 0.000
v 34.294 -78.475 0.000
v 79.610 -85.594 0.000
v 80.037 -82.908 0.000
v 91.889 -84.776 0.000
v 90.907 -90.933 0.000
v 85.604 -90.104 0.000
v 83.839 -101.213 0.000
v 22.460 -91.574 0.000
v 24.288 -80.100 0.000
v 23.206 -79.923 0.000
v 24.188 -73.788 0.000
v 34.776 -75.447 12.630
v 34.294 -78.475 12.630
v 79.610 -85.594 12.630
v 80.037 -82.908 12.630
v 91.889 -84.776 12.630
v 90.907 -90.933 12.630
v 85.604 -90.104 12.630
v 83.839 -101.213 12.630
v 22.460 -91.574 12.630
v 24.288 -80.100 12.630
v 23.206 -79.923 12.630
v 24.188 -73.788 12.630
usemtl roof
f 236 237 238 239 240 241 242 243 244 245 246 247
usemtl teaching_building
f 235 234 233 232 231 230 229 228 227 226 225 224
f 224 225 237 236
f 225 226 238 237
f 226 227 239 238
f 227 228 240 239
f 228 229 241 240
f 229 230 242 241
f 230 231 243 242
f 231 232 244 243
f 232 233 245 244
f 233 234 246 245
f 234 235 247 246
f 235 224 236 247
