# school_id SD1000
# school_name 菏泽医学专科学校
# boundary_source footprint_convex_hull_buffer_20m
# adjacent_block_merge_distance_m 2.0
mtllib ../campus_materials.mtl
o SD1000_campus_boundary
usemtl campus_boundary
v 35.319 -245.131 0.050
v -40.774 -242.510 0.050
v -55.230 -240.208 0.050
v -105.952 -224.740 0.050
v -130.267 -211.013 0.050
v -136.886 -198.265 0.050
v -135.374 134.866 0.050
v -134.208 144.490 0.050
v -115.307 264.501 0.050
v -78.882 332.727 0.050
v 127.968 307.625 0.050
v 161.597 302.494 0.050
v 231.423 -115.029 0.050
v 227.286 -142.748 0.050
v 216.546 -210.418 0.050
v 35.319 -245.131 0.050
l 1 2 3 4 5 6 7 8 9 10 11 12 13 14 15 16 1
o SD1000_T001_1hao
v -6.101 282.648 0.000
v -3.282 301.947 0.000
v -67.691 311.222 0.000
v -70.510 291.931 0.000
v -6.101 282.648 9.900
v -3.282 301.947 9.900
v -67.691 311.222 9.900
v -70.510 291.931 9.900
usemtl roof
f 21 22 23 24
usemtl teaching_building
f 20 19 18 17
f 17 18 22 21
f 18 19 23 22
f 19 20 24 23
f 20 17 21 24
o SD1000_T002_2hao
v 7.558 291.255 0.000
v 6.804 285.196 0.000
v 10.818 284.714 0.000
v 11.481 290.014 0.000
v 12.822 289.856 0.000
v 11.809 281.814 0.000
v 19.381 280.887 0.000
v 20.173 287.262 0.000
v 21.354 287.123 0.000
v 20.866 283.213 0.000
v 24.706 282.731 0.000
v 25.490 288.948 0.000
v 28.195 288.614 0.000
v 27.425 282.425 0.000
v 31.105 281.971 0.000
v 31.767 287.317 0.000
v 33.352 287.123 0.000
v 32.308 278.812 0.000
v 39.705 277.904 0.000
v 40.482 284.158 0.000
v 42.006 283.973 0.000
v 41.541 280.294 0.000
v 45.449 279.803 0.000
v 46.203 285.881 0.000
v 48.839 285.566 0.000
v 48.123 279.785 0.000
v 51.947 279.303 0.000
v 52.572 284.380 0.000
v 54.194 284.186 0.000
v 53.166 275.977 0.000
v 60.555 275.069 0.000
v 61.332 281.341 0.000
v 62.856 281.165 0.000
v 62.406 277.561 0.000
v 66.421 277.061 0.000
v 67.099 282.453 0.000
v 70.199 282.073 0.000
v 69.468 276.255 0.000
v 73.353 275.773 0.000
v 74.016 281.119 0.000
v 75.471 280.943 0.000
v 74.504 273.234 0.000
v 81.969 272.317 0.000
v 82.792 278.895 0.000
v 84.346 278.710 0.000
v 83.820 274.476 0.000
v 87.218 274.059 0.000
v 87.995 280.294 0.000
v 89.716 280.081 0.000
v 90.821 288.865 0.000
v 7.253 299.149 0.000
v 6.286 291.413 0.000
v 7.558 291.255 9.900
v 6.804 285.196 9.900
v 10.818 284.714 9.900
v 11.481 290.014 9.900
v 12.822 289.856 9.900
v 11.809 281.814 9.900
v 19.381 280.887 9.900
v 20.173 287.262 9.900
v 21.354 287.123 9.900
v 20.866 283.213 9.900
v 24.706 282.731 9.900
v 25.490 288.948 9.900
v 28.195 288.614 9.900
v 27.425 282.425 9.900
v 31.105 281.971 9.900
v 31.767 287.317 9.900
v 33.352 287.123 9.900
v 32.308 278.812 9.900
v 39.705 277.904 9.900
v 40.482 284.158 9.900
v 42.006 283.973 9.900
v 41.541 280.294 9.900
v 45.449 279.803 9.900
v 46.203 285.881 9.900
v 48.839 285.566 9.900
v 48.123 279.785 9.900
v 51.947 279.303 9.900
v 52.572 284.380 9.900
v 54.194 284.186 9.900
v 53.166 275.977 9.900
v 60.555 275.069 9.900
v 61.332 281.341 9.900
v 62.856 281.165 9.900
v 62.406 277.561 9.900
v 66.421 277.061 9.900
v 67.099 282.453 9.900
v 70.199 282.073 9.900
v 69.468 276.255 9.900
v 73.353 275.773 9.900
v 74.016 281.119 9.900
v 75.471 280.943 9.900
v 74.504 273.234 9.900
v 81.969 272.317 9.900
v 82.792 278.895 9.900
v 84.346 278.710 9.900
v 83.820 274.476 9.900
v 87.218 274.059 9.900
v 87.995 280.294 9.900
v 89.716 280.081 9.900
v 90.821 288.865 9.900
v 7.253 299.149 9.900
v 6.286 291.413 9.900
usemtl roof
f 77 78 79 80 81 82 83 84 85 86 87 88 89 90 91 92 93 94 95 96 97 98 99 100 101 102 103 104 105 106 107 108 109 110 111 112 113 114 115 116 117 118 119 120 121 122 123 124 125 126 127 128
usemtl teaching_building
f 76 75 74 73 72 71 70 69 68 67 66 65 64 63 62 61 60 59 58 57 56 55 54 53 52 51 50 49 48 47 46 45 44 43 42 41 40 39 38 37 36 35 34 33 32 31 30 29 28 27 26 25
f 25 26 78 77
f 26 27 79 78
f 27 28 80 79
f 28 29 81 80
f 29 30 82 81
f 30 31 83 82
f 31 32 84 83
f 32 33 85 84
f 33 34 86 85
f 34 35 87 86
f 35 36 88 87
f 36 37 89 88
f 37 38 90 89
f 38 39 91 90
f 39 40 92 91
f 40 41 93 92
f 41 42 94 93
f 42 43 95 94
f 43 44 96 95
f 44 45 97 96
f 45 46 98 97
f 46 47 99 98
f 47 48 100 99
f 48 49 101 100
f 49 50 102 101
f 50 51 103 102
f 51 52 104 103
f 52 53 105 104
f 53 54 106 105
f 54 55 107 106
f 55 56 108 107
f 56 57 109 108
f 57 58 110 109
f 58 59 111 110
f 59 60 112 111
f 60 61 113 112
f 61 62 114 113
f 62 63 115 114
f 63 64 116 115
f 64 65 117 116
f 65 66 118 117
f 66 67 119 118
f 67 68 120 119
f 68 69 121 120
f 69 70 122 121
f 70 71 123 122
f 71 72 124 123
f 72 73 125 124
f 73 74 126 125
f 74 75 127 126
f 75 76 128 127
f 76 25 77 128
o SD1000_T003_3hao
v 142.325 272.372 0.000
v 144.260 284.908 0.000
v 125.254 287.808 0.000
v 123.319 275.282 0.000
v 142.325 272.372 9.900
v 144.260 284.908 9.900
v 125.254 287.808 9.900
v 123.319 275.282 9.900
usemtl roof
f 133 134 135 136
usemtl teaching_building
f 132 131 130 129
f 129 130 134 133
f 130 131 135 134
f 131 132 136 135
f 132 129 133 136
o SD1000_T004_4hao
v -34.485 229.483 0.000
v -31.666 248.783 0.000
v -96.075 258.057 0.000
v -98.894 238.767 0.000
v -34.485 229.483 9.900
v -31.666 248.783 9.900
v -96.075 258.057 9.900
v -98.894 238.767 9.900
usemtl roof
f 141 142 143 144
usemtl teaching_building
f 140 139 138 137
f 137 138 142 141
f 138 139 143 142
f 139 140 144 143
f 140 137 141 144
o SD1000_T005_5hao
v 41.884 218.624 0.000
v 44.703 237.905 0.000
v -19.706 247.198 0.000
v -22.525 227.899 0.000
v 41.884 218.624 9.900
v 44.703 237.905 9.900
v -19.706 247.198 9.900
v -22.525 227.899 9.900
usemtl roof
f 149 150 151 152
usemtl teaching_building
f 148 147 146 145
f 145 146 150 149
f 146 147 151 150
f 147 148 152 151
f 148 145 149 152
o SD1000_T006_6hao
v 128.796 210.118 0.000
v 131.401 228.436 0.000
v 91.644 233.995 0.000
v 89.046 215.678 0.000
v 128.796 210.118 9.900
v 131.401 228.436 9.900
v 91.644 233.995 9.900
v 89.046 215.678 9.900
usemtl roof
f 157 158 159 160
usemtl teaching_building
f 156 155 154 153
f 153 154 158 157
f 154 155 159 158
f 155 156 160 159
f 156 153 157 160
o SD1000_T007_7hao
v -41.417 175.447 0.000
v -38.599 194.729 0.000
v -103.015 204.022 0.000
v -105.826 184.713 0.000
v -41.417 175.447 9.900
v -38.599 194.729 9.900
v -103.015 204.022 9.900
v -105.826 184.713 9.900
usemtl roof
f 165 166 167 168
usemtl teaching_building
f 164 163 162 161
f 161 162 166 165
f 162 163 167 166
f 163 164 168 167
f 164 161 165 168
o SD1000_T008_8hao
v 34.350 166.247 0.000
v 37.169 185.547 0.000
v -27.240 194.821 0.000
v -30.059 175.531 0.000
v 34.350 166.247 9.900
v 37.169 185.547 9.900
v -27.240 194.821 9.900
v -30.059 175.531 9.900
usemtl roof
f 173 174 175 176
usemtl teaching_building
f 172 171 170 169
f 169 170 174 173
f 170 171 175 174
f 171 172 176 175
f 172 169 173 176
o SD1000_T009_9hao
v -114.137 133.475 0.000
v -114.868 127.407 0.000
v -110.854 126.925 0.000
v -110.206 132.225 0.000
v -108.881 132.067 0.000
v -109.856 124.006 0.000
v -102.284 123.117 0.000
v -101.522 129.473 0.000
v -100.334 129.334 0.000
v -100.806 125.415 0.000
v -96.959 124.951 0.000
v -96.205 131.150 0.000
v -93.493 130.825 0.000
v -94.239 124.627 0.000
v -90.560 124.182 0.000
v -89.912 129.528 0.000
v -88.351 129.334 0.000
v -89.364 121.004 0.000
v -81.959 120.133 0.000
v -81.205 126.378 0.000
v -79.689 126.184 0.000
v -80.139 122.496 0.000
v -76.216 122.033 0.000
v -75.492 128.092 0.000
v -72.856 127.777 0.000
v -73.557 121.977 0.000
v -69.733 121.523 0.000
v -69.123 126.591 0.000
v -67.508 126.397 0.000
v -68.506 118.188 0.000
v -61.117 117.298 0.000
v -60.363 123.552 0.000
v -58.832 123.376 0.000
v -59.266 119.763 0.000
v -55.434 119.309 0.000
v -54.726 125.192 0.000
v -52.928 124.979 0.000
v -51.808 134.263 0.000
v -114.396 141.731 0.000
v -115.379 133.614 0.000
v -114.137 133.475 9.900
v -114.868 127.407 9.900
v -110.854 126.925 9.900
v -110.206 132.225 9.900
v -108.881 132.067 9.900
v -109.856 124.006 9.900
v -102.284 123.117 9.900
v -101.522 129.473 9.900
v -100.334 129.334 9.900
v -100.806 125.415 9.900
v -96.959 124.951 9.900
v -96.205 131.150 9.900
v -93.493 130.825 9.900
v -94.239 124.627 9.900
v -90.560 124.182 9.900
v -89.912 129.528 9.900
v -88.351 129.334 9.900
v -89.364 121.004 9.900
v -81.959 120.133 9.900
v -81.205 126.378 9.900
v -79.689 126.184 9.900
v -80.139 122.496 9.900
v -76.216 122.033 9.900
v -75.492 128.092 9.900
v -72.856 127.777 9.900
v -73.557 121.977 9.900
v -69.733 121.523 9.900
v -69.123 126.591 9.900
v -67.508 126.397 9.900
v -68.506 118.188 9.900
v -61.117 117.298 9.900
v -60.363 123.552 9.900
v -58.832 123.376 9.900
v -59.266 119.763 9.900
v -55.434 119.309 9.900
v -54.726 125.192 9.900
v -52.928 124.979 9.900
v -51.808 134.263 9.900
v -114.396 141.731 9.900
v -115.379 133.614 9.900
usemtl roof
f 217 218 219 220 221 222 223 224 225 226 227 228 229 230 231 232 233 234 235 236 237 238 239 240 241 242 243 244 245 246 247 248 249 250 251 252 253 254 255 256
usemtl teaching_building
f 216 215 214 213 212 211 210 209 208 207 206 205 204 203 202 201 200 199 198 197 196 195 194 193 192 191 190 189 188 187 186 185 184 183 182 181 180 179 178 177
f 177 178 218 217
f 178 179 219 218
f 179 180 220 219
f 180 181 221 220
f 181 182 222 221
f 182 183 223 222
f 183 184 224 223
f 184 185 225 224
f 185 186 226 225
f 186 187 227 226
f 187 188 228 227
f 188 189 229 228
f 189 190 230 229
f 190 191 231 230
f 191 192 232 231
f 192 193 233 232
f 193 194 234 233
f 194 195 235 234
f 195 196 236 235
f 196 197 237 236
f 197 198 238 237
f 198 199 239 238
f 199 200 240 239
f 200 201 241 240
f 201 202 242 241
f 202 203 243 242
f 203 204 244 243
f 204 205 245 244
f 205 206 246 245
f 206 207 247 246
f 207 208 248 247
f 208 209 249 248
f 209 210 250 249
f 210 211 251 250
f 211 212 252 251
f 212 213 253 252
f 213 214 254 253
f 214 215 255 254
f 215 216 256 255
f 216 177 217 256
o SD1000_T010_10hao
v 19.762 82.080 0.000
v 19.183 77.893 0.000
v 26.801 76.846 0.000
v 27.760 83.702 0.000
v 31.767 83.155 0.000
v 37.161 121.523 0.000
v -35.513 131.567 0.000
v -41.272 90.512 0.000
v 19.762 82.080 9.900
v 19.183 77.893 9.900
v 26.801 76.846 9.900
v 27.760 83.702 9.900
v 31.767 83.155 9.900
v 37.161 121.523 9.900
v -35.513 131.567 9.900
v -41.272 90.512 9.900
usemtl roof
f 265 266 267 268 269 270 271 272
usemtl teaching_building
f 264 263 262 261 260 259 258 257
f 257 258 266 265
f 258 259 267 266
f 259 260 268 267
f 260 261 269 268
f 261 262 270 269
f 262 263 271 270
f 263 264 272 271
f 264 257 265 272
o SD1000_T011_11hao
v 123.227 27.294 0.000
v 125.292 43.073 0.000
v 70.969 50.078 0.000
v 68.904 34.308 0.000
v 123.227 27.294 9.900
v 125.292 43.073 9.900
v 70.969 50.078 9.900
v 68.904 34.308 9.900
usemtl roof
f 277 278 279 280
usemtl teaching_building
f 276 275 274 273
f 273 274 278 277
f 274 275 279 278
f 275 276 280 279
f 276 273 277 280
o SD1000_T012_12hao
v 28.111 -14.353 0.000
v 27.296 -19.903 0.000
v 44.459 -22.349 0.000
v 45.152 -17.568 0.000
v 47.757 -17.939 0.000
v 55.779 37.699 0.000
v 31.516 41.146 0.000
v 23.609 -13.714 0.000
v 28.111 -14.353 9.900
v 27.296 -19.903 9.900
v 44.459 -22.349 9.900
v 45.152 -17.568 9.900
v 47.757 -17.939 9.900
v 55.779 37.699 9.900
v 31.516 41.146 9.900
v 23.609 -13.714 9.900
usemtl roof
f 289 290 291 292 293 294 295 296
usemtl teaching_building
f 288 287 286 285 284 283 282 281
f 281 282 290 289
f 282 283 291 290
f 283 284 292 291
f 284 285 293 292
f 285 286 294 293
f 286 287 295 294
f 287 288 296 295
f 288 281 289 296
o SD1000_T013_13hao
v 72.492 -32.912 0.000
v 71.220 -41.936 0.000
v 92.497 -44.892 0.000
v 89.945 -62.978 0.000
v 114.360 -66.388 0.000
v 116.958 -48.005 0.000
v 137.016 -50.803 0.000
v 138.204 -42.353 0.000
v 151.474 -44.197 0.000
v 154.384 -23.582 0.000
v 61.629 -10.666 0.000
v 60.791 -16.540 0.000
v 59.573 -16.364 0.000
v 57.523 -30.827 0.000
v 72.492 -32.912 9.900
v 71.220 -41.936 9.900
v 92.497 -44.892 9.900
v 89.945 -62.978 9.900
v 114.360 -66.388 9.900
v 116.958 -48.005 9.900
v 137.016 -50.803 9.900
v 138.204 -42.353 9.900
v 151.474 -44.197 9.900
v 154.384 -23.582 9.900
v 61.629 -10.666 9.900
v 60.791 -16.540 9.900
v 59.573 -16.364 9.900
v 57.523 -30.827 9.900
usemtl roof
f 311 312 313 314 315 316 317 318 319 320 321 322 323 324
usemtl teaching_building
f 310 309 308 307 306 305 304 303 302 301 300 299 298 297
f 297 298 312 311
f 298 299 313 312
f 299 300 314 313
f 300 301 315 314
f 301 302 316 315
f 302 303 317 316
f 303 304 318 317
f 304 305 319 318
f 305 306 320 319
f 306 307 321 320
f 307 308 322 321
f 308 309 323 322
f 309 310 324 323
f 310 297 311 324
o SD1000_T014_14hao
v -65.589 -90.033 0.000
v -65.749 -93.137 0.000
v -47.717 -95.648 0.000
v -48.578 -94.527 0.000
v -47.885 -91.636 0.000
v -41.798 -92.229 0.000
v -38.728 -68.074 0.000
v -47.016 -67.592 0.000
v -46.171 -61.783 0.000
v -52.440 -58.280 0.000
v -59.890 -68.936 0.000
v -63.616 -78.766 0.000
v -65.634 -78.016 0.000
v -67.356 -90.033 0.000
v -65.589 -90.033 9.900
v -65.749 -93.137 9.900
v -47.717 -95.648 9.900
v -48.578 -94.527 9.900
v -47.885 -91.636 9.900
v -41.798 -92.229 9.900
v -38.728 -68.074 9.900
v -47.016 -67.592 9.900
v -46.171 -61.783 9.900
v -52.440 -58.280 9.900
v -59.890 -68.936 9.900
v -63.616 -78.766 9.900
v -65.634 -78.016 9.900
v -67.356 -90.033 9.900
usemtl roof
f 339 340 341 342 343 344 345 346 347 348 349 350 351 352
usemtl teaching_building
f 338 337 336 335 334 333 332 331 330 329 328 327 326 325
f 325 326 340 339
f 326 327 341 340
f 327 328 342 341
f 328 329 343 342
f 329 330 344 343
f 330 331 345 344
f 331 332 346 345
f 332 333 347 346
f 333 334 348 347
f 334 335 349 348
f 335 336 350 349
f 336 337 351 350
f 337 338 352 351
f 338 325 339 352
o SD1000_T015_15hao
v -90.430 -142.382 0.000
v -90.598 -145.486 0.000
v -72.567 -147.997 0.000
v -73.427 -146.866 0.000
v -72.727 -143.985 0.000
v -66.647 -144.578 0.000
v -63.578 -120.414 0.000
v -71.866 -119.941 0.000
v -71.020 -114.141 0.000
v -77.290 -110.639 0.000
v -80.436 -114.113 0.000
v -84.732 -121.294 0.000
v -88.457 -131.115 0.000
v -90.476 -130.365 0.000
v -92.205 -142.382 0.000
v -90.430 -142.382 9.900
v -90.598 -145.486 9.900
v -72.567 -147.997 9.900
v -73.427 -146.866 9.900
v -72.727 -143.985 9.900
v -66.647 -144.578 9.900
v -63.578 -120.414 9.900
v -71.866 -119.941 9.900
v -71.020 -114.141 9.900
v -77.290 -110.639 9.900
v -80.436 -114.113 9.900
v -84.732 -121.294 9.900
v -88.457 -131.115 9.900
v -90.476 -130.365 9.900
v -92.205 -142.382 9.900
usemtl roof
f 368 369 370 371 372 373 374 375 376 377 378 379 380 381 382
usemtl teaching_building
f 367 366 365 364 363 362 361 360 359 358 357 356 355 354 353
f 353 354 369 368
f 354 355 370 369
f 355 356 371 370
f 356 357 372 371
f 357 358 373 372
f 358 359 374 373
f 359 360 375 374
f 360 361 376 375
f 361 362 377 376
f 362 363 378 377
f 363 364 379 378
f 364 365 380 379
f 365 366 381 380
f 366 367 382 381
f 367 353 368 382
o SD1000_T016_16hao
v 202.133 -172.115 0.000
v 198.994 -193.416 0.000
v 129.878 -183.381 0.000
v 133.016 -162.089 0.000
v 144.633 -163.774 0.000
v 142.683 -163.479 0.000
v 143.666 -157.031 0.000
v 136.795 -156.002 0.000
v 139.575 -137.629 0.000
v 146.005 -138.583 0.000
v 147.074 -131.500 0.000
v 137.351 -130.180 0.000
v 140.847 -105.691 0.000
v 211.175 -115.207 0.000
v 207.519 -139.704 0.000
v 149.277 -131.799 0.000
v 151.505 -132.135 0.000
v 146.669 -164.069 0.000
v 202.133 -172.115 9.900
v 198.994 -193.416 9.900
v 129.878 -183.381 9.900
v 133.016 -162.089 9.900
v 144.633 -163.774 9.900
v 142.683 -163.479 9.900
v 143.666 -157.031 9.900
v 136.795 -156.002 9.900
v 139.575 -137.629 9.900
v 146.005 -138.583 9.900
v 147.074 -131.500 9.900
v 137.351 -130.180 9.900
v 140.847 -105.691 9.900
v 211.175 -115.207 9.900
v 207.519 -139.704 9.900
v 149.277 -131.799 9.900
v 151.505 -132.135 9.900
v 146.669 -164.069 9.900
usemtl roof
f 401 402 403 404 405 406 407 408 409 410 411 412 413 414 415 416 417 418
usemtl teaching_building
f 400 399 398 397 396 395 394 393 392 391 390 389 388 387 386 385 384 383
f 383 384 402 401
f 384 385 403 402
f 385 386 404 403
f 386 387 405 404
f 387 388 406 405
f 388 389 407 406
f 389 390 408 407
f 390 391 409 408
f 391 392 410 409
f 392 393 411 410
f 393 394 412 411
f 394 395 413 412
f 395 396 414 413
f 396 397 415 414
f 397 398 416 415
f 398 399 417 416
f 399 400 418 417
f 400 383 401 418
o SD1000_T017_17hao
v 33.763 -225.066 0.000
v -37.860 -215.236 0.000
v -38.850 -222.564 0.000
v -50.719 -220.674 0.000
v -49.584 -213.577 0.000
v -87.482 -207.907 0.000
v -84.816 -188.783 0.000
v 20.941 -203.567 0.000
v 18.916 -203.265 0.000
v 24.162 -168.381 0.000
v -62.800 -156.465 0.000
v -60.066 -137.981 0.000
v 29.106 -149.971 0.000
v 26.085 -149.489 0.000
v 31.620 -115.086 0.000
v -38.004 -105.812 0.000
v -35.635 -86.679 0.000
v -31.004 -87.225 0.000
v -30.798 -85.076 0.000
v 52.084 -96.935 0.000
v 49.502 -117.468 0.000
v 34.169 -115.426 0.000
v 36.399 -115.781 0.000
v 34.731 -126.047 0.000
v 42.516 -127.280 0.000
v 40.246 -141.363 0.000
v 33.177 -140.233 0.000
v 31.557 -150.300 0.000
v 44.124 -151.990 0.000
v 41.747 -170.790 0.000
v 25.905 -168.619 0.000
v 28.675 -169.029 0.000
v 27.052 -179.796 0.000
v 34.624 -180.926 0.000
v 32.583 -194.546 0.000
v 25.521 -193.508 0.000
v 23.940 -203.987 0.000
v 36.803 -205.785 0.000
v 33.763 -225.066 9.900
v -37.860 -215.236 9.900
v -38.850 -222.564 9.900
v -50.719 -220.674 9.900
v -49.584 -213.577 9.900
v -87.482 -207.907 9.900
v -84.816 -188.783 9.900
v 20.941 -203.567 9.900
v 18.916 -203.265 9.900
v 24.162 -168.381 9.900
v -62.800 -156.465 9.900
v -60.066 -137.981 9.900
v 29.106 -149.971 9.900
v 26.085 -149.489 9.900
v 31.620 -115.086 9.900
v -38.004 -105.812 9.900
v -35.635 -86.679 9.900
v -31.004 -87.225 9.900
v -30.798 -85.076 9.900
v 52.084 -96.935 9.900
v 49.502 -117.468 9.900
v 34.169 -115.426 9.900
v 36.399 -115.781 9.900
v 34.731 -126.047 9.900
v 42.516 -127.280 9.900
v 40.246 -141.363 9.900
v 33.177 -140.233 9.900
v 31.557 -150.300 9.900
v 44.124 -151.990 9.900
v 41.747 -170.790 9.900
v 25.905 -168.619 9.900
v 28.675 -169.029 9.900
v 27.052 -179.796 9.900
v 34.624 -180.926 9.900
v 32.583 -194.546 9.900
v 25.521 -193.508 9.900
v 23.940 -203.987 9.900
v 36.803 -205.785 9.900
usemtl roof
f 457 458 459 460 461 462 463 464 465 466 467 468 469 470 471 472 473 474 475 476 477 478 479 480 481 482 483 484 485 486 487 488 489 490 491 492 493 494
usemtl teaching_building
f 456 455 454 453 452 451 450 449 448 447 446 445 444 443 442 441 440 439 438 437 436 435 434 433 432 431 430 429 428 427 426 425 424 423 422 421 420 419
f 419 420 458 457
f 420 421 459 458
f 421 422 460 459
f 422 423 461 460
f 423 424 462 461
f 424 425 463 462
f 425 426 464 463
f 426 427 465 464
f 427 428 466 465
f 428 429 467 466
f 429 430 468 467
f 430 431 469 468
f 431 432 470 469
f 432 433 471 470
f 433 434 472 471
f 434 435 473 472
f 435 436 474 473
f 436 437 475 474
f 437 438 476 475
f 438 439 477 476
f 439 440 478 477
f 440 441 479 478
f 441 442 480 479
f 442 443 481 480
f 443 444 482 481
f 444 445 483 482
f 445 446 484 483
f 446 447 485 484
f 447 448 486 485
f 448 449 487 486
f 449 450 488 487
f 450 451 489 488
f 451 452 490 489
f 452 453 491 490
f 453 454 492 491
f 454 455 493 492
f 455 456 494 493
f 456 419 457 494
o SD1000_T018_18hao
v -115.089 -193.425 0.000
v -115.257 -196.520 0.000
v -97.226 -199.049 0.000
v -98.086 -197.919 0.000
v -97.385 -195.028 0.000
v -91.306 -195.621 0.000
v -88.236 -171.466 0.000
v -96.525 -170.975 0.000
v -95.679 -165.184 0.000
v -101.949 -161.673 0.000
v -109.391 -172.337 0.000
v -113.116 -182.168 0.000
v -115.135 -181.398 0.000
v -116.864 -193.425 0.000
v -115.089 -193.425 9.900
v -115.257 -196.520 9.900
v -97.226 -199.049 9.900
v -98.086 -197.919 9.900
v -97.385 -195.028 9.900
v -91.306 -195.621 9.900
v -88.236 -171.466 9.900
v -96.525 -170.975 9.900
v -95.679 -165.184 9.900
v -101.949 -161.673 9.900
v -109.391 -172.337 9.900
v -113.116 -182.168 9.900
v -115.135 -181.398 9.900
v -116.864 -193.425 9.900
usemtl roof
f 509 510 511 512 513 514 515 516 517 518 519 520 521 522
usemtl teaching_building
f 508 507 506 505 504 503 502 501 500 499 498 497 496 495
f 495 496 510 509
f 496 497 511 510
f 497 498 512 511
f 498 499 513 512
f 499 500 514 513
f 500 501 515 514
f 501 502 516 515
f 502 503 517 516
f 503 504 518 517
f 504 505 519 518
f 505 506 520 519
f 506 507 521 520
f 507 508 522 521
f 508 495 509 522
