# school_id SD1002
# school_name 菏泽思源学校
# boundary_source footprint_convex_hull_buffer_20m
# adjacent_block_merge_distance_m 2.0
mtllib ../campus_materials.mtl
o SD1002_campus_boundary
usemtl campus_boundary
v 61.090 -51.374 0.050
v -30.922 -48.025 0.050
v -32.153 7.000 0.050
v -30.196 14.449 0.050
v -24.024 33.991 0.050
v 65.091 30.011 0.050
v 61.090 -51.374 0.050
l 1 2 3 4 5 6 7 1
o SD1002_T001_1hao
v 44.129 10.927 0.000
v 42.084 -30.669 0.000
v -11.349 -28.724 0.000
v -9.859 1.962 0.000
v -12.095 4.637 0.000
v -10.977 8.893 0.000
v -9.295 9.634 0.000
v -9.577 13.326 0.000
v 44.129 10.927 13.290
v 42.084 -30.669 13.290
v -11.349 -28.724 13.290
v -9.859 1.962 13.290
v -12.095 4.637 13.290
v -10.977 8.893 13.290
v -9.295 9.634 13.290
v -9.577 13.326 13.290
usemtl roof
f 16 17 18 19 20 21 22 23
usemtl teaching_building
f 15 14 13 12 11 10 9 8
f 8 9 17 16
f 9 10 18 17
f 10 11 19 18
f 11 12 20 19
f 12 13 21 20
f 13 14 22 21
f 14 15 23 22
f 15 8 16 23
